<svg width="443" height="200" fill="none" xmlns="http://www.w3.org/2000/svg"><g filter="url(#filter0_d_0_1139)"><path d="M50 65.238C50 56.822 56.822 50 65.238 50h312.386c8.416 0 15.239 6.822 15.239 15.238v69.335c0 8.416-6.823 15.238-15.239 15.238H65.238c-8.416 0-15.238-6.822-15.238-15.238V65.238z" fill="#fff"/></g><path d="M145.508 122.382v-12.8h5.449c.731 0 1.402.183 2.012.548a3.982 3.982 0 011.481 1.463c.365.61.548 1.299.548 2.067 0 .694-.183 1.341-.548 1.938a4.269 4.269 0 01-1.463 1.445c-.61.353-1.286.53-2.03.53h-3.474v4.809h-1.975zm7.607 0l-3.255-5.778 2.03-.457 3.62 6.253-2.395-.018zm-5.632-6.711h3.657c.353 0 .67-.085.951-.256.28-.183.5-.427.658-.731.159-.317.238-.665.238-1.043 0-.426-.104-.798-.311-1.115a1.985 1.985 0 00-.841-.768 2.589 2.589 0 00-1.207-.274h-3.145v4.187zm14.387 6.894c-.988 0-1.865-.207-2.633-.622a4.797 4.797 0 01-1.792-1.737c-.427-.731-.64-1.573-.64-2.523 0-.756.121-1.445.365-2.067a4.938 4.938 0 011.006-1.609 4.422 4.422 0 011.554-1.061 5.05 5.05 0 011.975-.384c.622 0 1.201.122 1.737.366.537.232 1 .555 1.39.969.402.415.707.909.914 1.482.22.56.323 1.176.311 1.846l-.018.805h-7.845l-.42-1.499h6.638l-.275.31v-.438a2.108 2.108 0 00-.402-1.079 2.488 2.488 0 00-2.03-1.024c-.658 0-1.213.128-1.664.384a2.355 2.355 0 00-1.024 1.097c-.231.475-.347 1.066-.347 1.774 0 .67.14 1.255.42 1.755.281.488.677.866 1.189 1.134.512.268 1.103.402 1.774.402.475 0 .914-.079 1.316-.238.415-.158.86-.445 1.335-.859l.951 1.335a4.307 4.307 0 01-1.079.768 6.768 6.768 0 01-1.335.53c-.463.122-.92.183-1.371.183zm9.928 0c-.792 0-1.518-.22-2.176-.658-.646-.439-1.164-1.037-1.554-1.792-.391-.756-.586-1.61-.586-2.56 0-.964.195-1.817.586-2.56.402-.756.938-1.348 1.609-1.774a4.22 4.22 0 012.286-.64c.499 0 .956.073 1.371.219.414.146.774.354 1.079.622.317.256.573.555.768.896.207.341.335.707.384 1.097l-.421-.146v-2.487h1.902v9.6h-1.902v-2.286l.439-.128a2.586 2.586 0 01-.457.969c-.219.305-.506.58-.859.823a4.459 4.459 0 01-1.152.585c-.415.147-.854.22-1.317.22zm.494-1.737c.573 0 1.079-.14 1.517-.421.439-.28.781-.664 1.024-1.152.256-.5.384-1.067.384-1.7 0-.622-.128-1.177-.384-1.664a2.835 2.835 0 00-1.024-1.152c-.438-.281-.944-.421-1.517-.421-.561 0-1.061.14-1.5.421-.426.28-.768.664-1.024 1.152-.244.487-.366 1.042-.366 1.664 0 .633.122 1.2.366 1.7.256.488.598.872 1.024 1.152.439.281.939.421 1.5.421zm11.388 1.737c-.877 0-1.664-.213-2.358-.64a4.753 4.753 0 01-1.628-1.774c-.402-.756-.603-1.615-.603-2.578 0-.963.195-1.817.585-2.56a4.584 4.584 0 011.627-1.774c.683-.439 1.457-.658 2.323-.658.475 0 .932.079 1.371.237a4.07 4.07 0 011.207.622c.353.256.628.543.823.86.207.304.311.615.311.932l-.549.037v-6.419h1.883v13.532h-1.883v-2.286h.366c0 .293-.098.585-.293.878-.195.28-.457.543-.786.786a3.86 3.86 0 01-1.116.585c-.414.147-.841.22-1.28.22zm.256-1.628c.573 0 1.079-.146 1.518-.438.439-.293.78-.689 1.024-1.189.256-.512.384-1.091.384-1.737 0-.646-.128-1.219-.384-1.719a2.93 2.93 0 00-1.024-1.207c-.439-.293-.945-.439-1.518-.439-.573 0-1.078.146-1.517.439a3.063 3.063 0 00-1.043 1.207c-.243.5-.365 1.073-.365 1.719 0 .646.122 1.225.365 1.737.256.5.604.896 1.043 1.189.439.292.944.438 1.517.438zm18.288 1.628a6.296 6.296 0 01-2.506-.494 6.27 6.27 0 01-1.993-1.371 6.585 6.585 0 01-1.316-2.085c-.305-.804-.458-1.682-.458-2.633 0-.951.153-1.823.458-2.615a6.328 6.328 0 011.316-2.085 6.133 6.133 0 011.993-1.389 6.296 6.296 0 012.506-.494c.902 0 1.731.165 2.486.494a5.883 5.883 0 011.994 1.389 6.16 6.16 0 011.316 2.103c.317.793.476 1.658.476 2.597 0 .939-.159 1.81-.476 2.615a6.185 6.185 0 01-1.316 2.084 5.872 5.872 0 01-1.994 1.39c-.755.329-1.584.494-2.486.494zm0-1.92c.621 0 1.188-.116 1.7-.348a3.979 3.979 0 001.353-.969c.378-.426.671-.92.878-1.481a5.182 5.182 0 00.329-1.865c0-.671-.11-1.286-.329-1.847a4.371 4.371 0 00-.878-1.481 3.887 3.887 0 00-1.353-.988 4.088 4.088 0 00-1.7-.347c-.622 0-1.195.116-1.719.347a4.244 4.244 0 00-1.353.97 4.371 4.371 0 00-.878 1.481 5.35 5.35 0 00-.311 1.865c0 .67.104 1.292.311 1.865.207.573.5 1.067.878 1.481.39.415.841.738 1.353.969a4.198 4.198 0 001.719.348zm11.835 1.92c-.683 0-1.28-.159-1.792-.476-.5-.316-.89-.761-1.171-1.334-.268-.573-.402-1.256-.402-2.048v-5.925h1.884v5.413c0 .56.085 1.048.256 1.462.182.403.438.714.768.933.341.219.749.329 1.225.329.353 0 .676-.055.969-.164.293-.122.542-.287.75-.494.219-.207.39-.457.512-.75.122-.292.183-.609.183-.951v-5.778h1.883v9.6h-1.883v-2.011l.329-.22c-.147.451-.397.86-.75 1.225a3.87 3.87 0 01-1.225.878 3.81 3.81 0 01-1.536.311zm7.707-.183v-9.6h1.901v3.017l-.182-.731c.134-.464.359-.884.676-1.262a3.872 3.872 0 011.116-.896c.426-.22.865-.329 1.316-.329.207 0 .403.018.585.055.195.036.348.079.458.128l-.494 2.048a2.64 2.64 0 00-.494-.147 1.885 1.885 0 00-.512-.073 2.34 2.34 0 00-.951.201 2.428 2.428 0 00-.786.531 2.53 2.53 0 00-.53.786 2.303 2.303 0 00-.202.969v5.303h-1.901zm17.48.183a7.645 7.645 0 01-2.176-.293 5.643 5.643 0 01-1.737-.859 6.854 6.854 0 01-1.353-1.372l1.719-1.956c.597.829 1.189 1.396 1.774 1.7a4.339 4.339 0 001.938.439c.378 0 .713-.048 1.006-.146.305-.11.542-.262.713-.457a1.02 1.02 0 00.256-.695c0-.195-.043-.372-.128-.53a1.25 1.25 0 00-.366-.439 2.346 2.346 0 00-.567-.348 3.996 3.996 0 00-.731-.274 5.878 5.878 0 00-.878-.201 10.715 10.715 0 01-1.792-.567 4.493 4.493 0 01-1.28-.841 3.413 3.413 0 01-.768-1.152 4.14 4.14 0 01-.238-1.445c0-.548.122-1.054.366-1.517a3.744 3.744 0 011.006-1.226 4.905 4.905 0 011.499-.786 5.918 5.918 0 011.811-.274c.78 0 1.462.091 2.048.274a4.536 4.536 0 011.517.75c.439.329.805.731 1.098 1.207l-1.738 1.682a4.32 4.32 0 00-.841-.859 2.933 2.933 0 00-.969-.512 3.128 3.128 0 00-1.061-.183c-.402 0-.749.055-1.042.164a1.56 1.56 0 00-.695.439 1.097 1.097 0 00-.237.713c0 .22.054.415.164.585.11.171.268.324.476.458.207.122.457.231.749.329.293.097.616.183.969.256a9.96 9.96 0 011.811.53c.536.22.993.488 1.371.805.39.304.689.67.896 1.097.207.414.311.884.311 1.408 0 .865-.207 1.603-.622 2.212-.414.61-.987 1.079-1.719 1.408-.731.317-1.584.476-2.56.476zm10.348 0c-.707 0-1.317-.152-1.829-.457-.5-.317-.89-.762-1.17-1.335-.268-.585-.402-1.286-.402-2.103v-5.961h2.596v5.54c0 .439.073.823.22 1.152.146.317.353.561.621.732.269.171.598.256.988.256.28 0 .542-.043.786-.128.244-.098.451-.232.622-.402a1.9 1.9 0 00.548-1.354v-5.796h2.597v9.673h-2.469l-.091-1.993.475-.22a3.25 3.25 0 01-.731 1.226c-.341.365-.75.652-1.225.859a3.81 3.81 0 01-1.536.311zm12.396 0c-.927 0-1.756-.22-2.487-.658a4.815 4.815 0 01-1.738-1.792c-.414-.756-.621-1.616-.621-2.579 0-.951.207-1.804.621-2.56a4.77 4.77 0 011.738-1.81c.731-.439 1.56-.658 2.487-.658.865 0 1.657.158 2.377.475.719.317 1.28.756 1.682 1.317l-1.426 1.719a2.83 2.83 0 00-.64-.622 3.12 3.12 0 00-.841-.457 2.582 2.582 0 00-.915-.165 2.464 2.464 0 00-2.231 1.335c-.219.414-.329.89-.329 1.426 0 .524.11.994.329 1.408.232.403.543.732.933.988.39.244.829.365 1.317.365.316 0 .615-.042.896-.128a2.87 2.87 0 00.786-.42c.256-.183.487-.402.695-.658l1.408 1.718c-.415.525-.988.951-1.719 1.28a5.781 5.781 0 01-2.322.476zm9.91 0c-.926 0-1.755-.22-2.487-.658a4.82 4.82 0 01-1.737-1.792c-.414-.756-.621-1.616-.621-2.579 0-.951.207-1.804.621-2.56a4.775 4.775 0 011.737-1.81c.732-.439 1.561-.658 2.487-.658.866 0 1.658.158 2.378.475.719.317 1.28.756 1.682 1.317l-1.426 1.719a2.83 2.83 0 00-.64-.622 3.11 3.11 0 00-.842-.457 2.573 2.573 0 00-.914-.165 2.464 2.464 0 00-2.231 1.335c-.219.414-.329.89-.329 1.426 0 .524.11.994.329 1.408.232.403.543.732.933.988.39.244.829.365 1.316.365.317 0 .616-.042.896-.128a2.86 2.86 0 00.787-.42c.256-.183.487-.402.695-.658l1.408 1.718c-.415.525-.988.951-1.719 1.28a5.782 5.782 0 01-2.323.476zm10.295 0c-1.048 0-1.962-.213-2.743-.64a4.694 4.694 0 01-1.828-1.756c-.439-.743-.659-1.597-.659-2.56 0-.743.122-1.426.366-2.048a4.787 4.787 0 011.024-1.609 4.402 4.402 0 011.555-1.06 5.042 5.042 0 011.974-.384 4.55 4.55 0 011.829.365 4.02 4.02 0 011.445 1.006c.414.427.731.933.95 1.518.22.585.317 1.225.293 1.92l-.018.804h-7.772l-.42-1.59h6.052l-.292.329v-.403a1.718 1.718 0 00-.329-.896 1.848 1.848 0 00-.714-.621 2.164 2.164 0 00-.987-.22c-.536 0-.994.104-1.371.311a2.044 2.044 0 00-.842.914c-.195.403-.292.89-.292 1.463 0 .585.122 1.091.366 1.518.256.427.609.762 1.06 1.006.463.231 1.006.347 1.628.347a3.28 3.28 0 001.17-.201c.353-.134.731-.366 1.134-.695l1.243 1.737a5.566 5.566 0 01-1.17.805 6.53 6.53 0 01-1.317.475 5.62 5.62 0 01-1.335.165zm9.38 0c-.902 0-1.707-.146-2.414-.439-.695-.305-1.256-.719-1.682-1.243l1.609-1.39c.378.402.798.695 1.262.878.463.17.926.256 1.389.256.183 0 .348-.019.494-.055a1.53 1.53 0 00.402-.183.763.763 0 00.238-.293.848.848 0 00.092-.384.75.75 0 00-.33-.64 4.539 4.539 0 00-.566-.219 10.929 10.929 0 00-.988-.311 8.805 8.805 0 01-1.591-.549c-.426-.219-.768-.463-1.024-.731a3.091 3.091 0 01-.512-.823 2.945 2.945 0 01-.164-1.006c0-.438.097-.835.292-1.188.195-.366.463-.677.805-.933a3.959 3.959 0 011.207-.585 4.6 4.6 0 011.426-.219c.5 0 .987.061 1.463.182.475.122.914.299 1.316.531.415.219.775.481 1.079.786l-1.389 1.536a4.55 4.55 0 00-.75-.567 3.814 3.814 0 00-.841-.402 2.509 2.509 0 00-.787-.146 2.74 2.74 0 00-.566.054 1.225 1.225 0 00-.403.165.75.75 0 00-.256.293.881.881 0 00.019.749c.073.122.17.226.292.311.134.073.329.159.585.256.268.098.628.207 1.079.329a8.594 8.594 0 011.481.531c.415.195.744.42.988.676.207.22.359.47.457.75.097.28.146.591.146.933 0 .597-.17 1.133-.512 1.609-.329.463-.786.829-1.371 1.097-.585.256-1.244.384-1.975.384zm8.964 0c-.902 0-1.706-.146-2.413-.439-.695-.305-1.256-.719-1.683-1.243l1.609-1.39c.378.402.799.695 1.262.878.463.17.927.256 1.39.256.183 0 .347-.019.494-.055.158-.049.292-.11.402-.183a.763.763 0 00.238-.293.847.847 0 00.091-.384.752.752 0 00-.329-.64 4.632 4.632 0 00-.567-.219 10.895 10.895 0 00-.987-.311 8.805 8.805 0 01-1.591-.549c-.427-.219-.768-.463-1.024-.731-.22-.256-.39-.53-.512-.823a2.945 2.945 0 01-.165-1.006c0-.438.098-.835.293-1.188.195-.366.463-.677.804-.933a3.97 3.97 0 011.207-.585 4.604 4.604 0 011.426-.219c.5 0 .988.061 1.463.182.476.122.915.299 1.317.531.414.219.774.481 1.079.786l-1.39 1.536a4.468 4.468 0 00-.75-.567 3.793 3.793 0 00-.841-.402 2.503 2.503 0 00-.786-.146c-.207 0-.396.018-.567.054a1.21 1.21 0 00-.402.165.743.743 0 00-.256.293.881.881 0 00-.073.365c0 .134.03.262.091.384.073.122.171.226.293.311.134.073.329.159.585.256.268.098.628.207 1.079.329a8.625 8.625 0 011.481.531c.414.195.743.42.987.676.207.22.36.47.457.75.098.28.147.591.147.933 0 .597-.171 1.133-.512 1.609-.33.463-.787.829-1.372 1.097-.585.256-1.243.384-1.975.384zm15.834 0a7.635 7.635 0 01-2.176-.293 5.648 5.648 0 01-1.738-.859 6.908 6.908 0 01-1.353-1.372l1.719-1.956c.598.829 1.189 1.396 1.774 1.7a4.339 4.339 0 001.938.439c.378 0 .713-.048 1.006-.146.305-.11.542-.262.713-.457a1.02 1.02 0 00.256-.695c0-.195-.043-.372-.128-.53a1.25 1.25 0 00-.366-.439 2.359 2.359 0 00-.566-.348 4.035 4.035 0 00-.732-.274 5.878 5.878 0 00-.878-.201 10.745 10.745 0 01-1.792-.567 4.507 4.507 0 01-1.28-.841 3.413 3.413 0 01-.768-1.152 4.14 4.14 0 01-.237-1.445c0-.548.122-1.054.365-1.517a3.744 3.744 0 011.006-1.226 4.905 4.905 0 011.499-.786 5.918 5.918 0 011.811-.274c.78 0 1.463.091 2.048.274a4.55 4.55 0 011.518.75 4.34 4.34 0 011.097 1.207l-1.737 1.682a4.324 4.324 0 00-.842-.859 2.933 2.933 0 00-.969-.512 3.126 3.126 0 00-1.06-.183c-.403 0-.75.055-1.043.164a1.551 1.551 0 00-.694.439 1.092 1.092 0 00-.238.713c0 .22.055.415.164.585.11.171.269.324.476.458.207.122.457.231.75.329.292.097.615.183.969.256a9.95 9.95 0 011.81.53c.536.22.994.488 1.371.805a3.076 3.076 0 011.207 2.505c0 .865-.207 1.603-.621 2.212-.415.61-.988 1.079-1.719 1.408-.732.317-1.585.476-2.56.476zm7.952-.183v-12.124h2.596v12.124h-2.596zm-1.811-7.351v-2.322h6.382v2.322h-6.382zm12.484 7.534c-.988 0-1.872-.213-2.652-.64a4.967 4.967 0 01-1.829-1.792c-.438-.756-.658-1.621-.658-2.597 0-.975.22-1.834.658-2.578a4.967 4.967 0 011.829-1.792c.78-.439 1.664-.658 2.652-.658.975 0 1.846.219 2.614.658a4.78 4.78 0 011.829 1.792c.439.744.658 1.603.658 2.578 0 .976-.219 1.841-.658 2.597a4.78 4.78 0 01-1.829 1.792c-.768.427-1.639.64-2.614.64zm0-2.268c.475 0 .902-.115 1.28-.347.377-.244.67-.573.877-.987a3.07 3.07 0 00.329-1.427c0-.536-.109-1.012-.329-1.426a2.306 2.306 0 00-.877-.987 2.31 2.31 0 00-1.28-.366c-.488 0-.921.122-1.299.366a2.59 2.59 0 00-.896.987c-.219.414-.323.89-.311 1.426-.012.524.092 1 .311 1.427.22.414.518.743.896.987.378.232.811.347 1.299.347zm7.055 2.085v-9.673h2.505l.092 3.108-.439-.64c.146-.499.384-.951.713-1.353a3.634 3.634 0 011.152-.969c.451-.232.92-.347 1.408-.347a3.315 3.315 0 011.097.182l-.695 2.853a2.457 2.457 0 00-.53-.183 2.255 2.255 0 00-.64-.091c-.293 0-.567.055-.823.164a1.775 1.775 0 00-.64.439 2.083 2.083 0 00-.439.659 2.354 2.354 0 00-.146.841v5.01h-2.615zm8.237 0v-9.673h2.597v9.673h-2.597zm1.28-11.666c-.499 0-.89-.122-1.17-.366-.28-.244-.42-.591-.42-1.042 0-.415.14-.75.42-1.006.293-.268.683-.402 1.17-.402.5 0 .89.128 1.171.384.28.243.42.585.42 1.024 0 .426-.146.768-.439 1.024-.28.256-.664.384-1.152.384zm8.68 11.849c-1.048 0-1.963-.213-2.743-.64a4.688 4.688 0 01-1.828-1.756c-.439-.743-.659-1.597-.659-2.56 0-.743.122-1.426.366-2.048a4.787 4.787 0 011.024-1.609 4.407 4.407 0 011.554-1.06 5.05 5.05 0 011.975-.384 4.55 4.55 0 011.829.365 4.008 4.008 0 011.444 1.006c.415.427.732.933.951 1.518.22.585.317 1.225.293 1.92l-.018.804h-7.772l-.421-1.59h6.053l-.292.329v-.403a1.72 1.72 0 00-.33-.896 1.838 1.838 0 00-.713-.621 2.164 2.164 0 00-.987-.22c-.537 0-.994.104-1.372.311a2.047 2.047 0 00-.841.914c-.195.403-.292.89-.292 1.463 0 .585.122 1.091.365 1.518.256.427.61.762 1.061 1.006.463.231 1.006.347 1.627.347.427 0 .817-.067 1.171-.201.353-.134.731-.366 1.133-.695l1.244 1.737a5.592 5.592 0 01-1.17.805 6.53 6.53 0 01-1.317.475 5.62 5.62 0 01-1.335.165zm9.38 0c-.902 0-1.707-.146-2.414-.439-.695-.305-1.256-.719-1.682-1.243l1.609-1.39c.378.402.798.695 1.262.878.463.17.926.256 1.389.256.183 0 .348-.019.494-.055.158-.049.293-.11.402-.183a.763.763 0 00.238-.293.847.847 0 00.091-.384.75.75 0 00-.329-.64 4.632 4.632 0 00-.567-.219 10.895 10.895 0 00-.987-.311 8.805 8.805 0 01-1.591-.549c-.427-.219-.768-.463-1.024-.731a3.091 3.091 0 01-.512-.823 2.945 2.945 0 01-.165-1.006c0-.438.098-.835.293-1.188.195-.366.463-.677.805-.933a3.948 3.948 0 011.207-.585 4.6 4.6 0 011.426-.219c.5 0 .987.061 1.463.182.475.122.914.299 1.316.531.415.219.774.481 1.079.786l-1.39 1.536a4.5 4.5 0 00-.749-.567 3.836 3.836 0 00-.841-.402 2.509 2.509 0 00-.787-.146c-.207 0-.396.018-.567.054a1.228 1.228 0 00-.402.165.743.743 0 00-.256.293.881.881 0 00-.073.365c0 .134.03.262.091.384.074.122.171.226.293.311.134.073.329.159.585.256.268.098.628.207 1.079.329a8.594 8.594 0 011.481.531c.415.195.744.42.988.676.207.22.359.47.457.75.097.28.146.591.146.933 0 .597-.171 1.133-.512 1.609-.329.463-.786.829-1.371 1.097-.586.256-1.244.384-1.975.384zm-136.199 2.103h140.606v.914H233.431v-.914z" fill="#858585"/><path d="M149.979 94.351c-1.158 0-2.21-.236-3.155-.708-.929-.488-1.706-1.189-2.331-2.103l1.851-2.057c.656.731 1.25 1.234 1.783 1.508.534.26 1.12.389 1.76.389.534 0 1.014-.114 1.44-.343a2.59 2.59 0 001.006-.937c.244-.396.366-.838.366-1.326a2.52 2.52 0 00-.366-1.349 2.635 2.635 0 00-.983-.937 2.568 2.568 0 00-1.371-.365c-.336 0-.648.03-.937.091-.29.046-.61.145-.96.297a11.51 11.51 0 00-1.28.617l-1.555-2.057.983-6.971h9.006v2.948h-7.269l.846-1.005-.754 5.074-1.097-.526c.228-.213.54-.411.937-.594a8.454 8.454 0 011.325-.457c.488-.122.96-.183 1.418-.183 1.005 0 1.897.228 2.674.686a4.938 4.938 0 011.874 1.92c.473.807.709 1.737.709 2.788 0 1.052-.259 2.004-.777 2.858a5.743 5.743 0 01-2.126 2.01c-.899.489-1.905.732-3.017.732zm21.43.069c-.991 0-1.897-.122-2.72-.366a7.056 7.056 0 01-2.172-1.074 8.62 8.62 0 01-1.691-1.714l2.149-2.446c.746 1.036 1.485 1.745 2.217 2.126a5.431 5.431 0 002.423.548c.472 0 .891-.06 1.257-.183.381-.137.678-.327.891-.571.214-.244.32-.533.32-.869 0-.243-.053-.465-.16-.663a1.57 1.57 0 00-.457-.548 2.924 2.924 0 00-.709-.434 4.954 4.954 0 00-.914-.343 7.26 7.26 0 00-1.097-.252c-.853-.198-1.6-.434-2.24-.708-.64-.29-1.173-.64-1.6-1.052a4.253 4.253 0 01-.96-1.44c-.198-.533-.297-1.135-.297-1.805 0-.686.152-1.319.457-1.898a4.684 4.684 0 011.257-1.531 6.111 6.111 0 011.874-.983 7.403 7.403 0 012.263-.343c.976 0 1.829.114 2.56.343a5.676 5.676 0 011.898.937 5.423 5.423 0 011.371 1.509l-2.171 2.103a5.421 5.421 0 00-1.052-1.075 3.705 3.705 0 00-1.211-.64 3.916 3.916 0 00-1.326-.228c-.503 0-.937.068-1.303.205-.366.122-.655.305-.869.549a1.369 1.369 0 00-.297.892c0 .274.069.518.206.73.137.214.335.405.594.572.259.153.572.29.937.412.366.122.77.228 1.212.32.838.167 1.592.388 2.263.663.67.274 1.242.61 1.714 1.005.488.381.861.838 1.12 1.372.259.518.389 1.105.389 1.76 0 1.082-.259 2.004-.777 2.766-.519.761-1.235 1.348-2.149 1.76-.914.396-1.981.594-3.2.594zm9.94-.229V79.037h3.245V94.19h-3.245zm-2.263-9.188V82.1h7.977v2.903h-7.977zm14.507 9.417a4.73 4.73 0 01-2.72-.823c-.808-.548-1.448-1.295-1.92-2.24-.473-.945-.709-2.027-.709-3.246 0-1.219.236-2.293.709-3.223.487-.944 1.143-1.684 1.965-2.217.823-.548 1.761-.823 2.812-.823a4.59 4.59 0 011.623.275c.503.167.937.403 1.303.708.381.305.701.655.96 1.052.259.396.442.823.548 1.28l-.685-.115V82.1h3.222v12.09h-3.268v-2.903l.731-.068c-.122.427-.32.83-.594 1.211a4.685 4.685 0 01-1.029 1.029c-.396.29-.845.526-1.348.709a5.027 5.027 0 01-1.6.25zm.891-2.811c.61 0 1.143-.145 1.6-.435a2.82 2.82 0 001.052-1.211c.259-.534.388-1.15.388-1.852 0-.686-.129-1.287-.388-1.806a2.82 2.82 0 00-1.052-1.21c-.457-.306-.99-.458-1.6-.458-.594 0-1.12.152-1.577.457-.442.29-.792.693-1.051 1.212-.259.518-.389 1.12-.389 1.805 0 .701.13 1.318.389 1.852a3.03 3.03 0 001.051 1.211c.457.29.983.434 1.577.434zm9.472 2.582V82.1h3.131l.114 3.886-.548-.8c.183-.625.48-1.19.891-1.692a4.545 4.545 0 011.44-1.211 3.808 3.808 0 011.76-.435c.259 0 .511.023.755.069.243.046.449.099.617.16l-.869 3.566a3.055 3.055 0 00-.663-.229 2.816 2.816 0 00-.8-.114c-.365 0-.708.068-1.028.206a2.204 2.204 0 00-.8.548 2.585 2.585 0 00-.549.823c-.122.32-.183.67-.183 1.051v6.263h-3.268zm14.091.229c-1.128 0-2.134-.183-3.017-.549-.869-.38-1.57-.899-2.103-1.554l2.011-1.737a4.36 4.36 0 001.577 1.097c.579.213 1.158.32 1.737.32.229 0 .435-.023.618-.069.198-.06.365-.137.503-.228a.96.96 0 00.297-.366 1.06 1.06 0 00.114-.48.938.938 0 00-.411-.8 5.901 5.901 0 00-.709-.274c-.32-.122-.732-.252-1.234-.389-.778-.198-1.44-.426-1.989-.685-.533-.275-.96-.58-1.28-.915a3.855 3.855 0 01-.64-1.028 3.691 3.691 0 01-.206-1.258c0-.548.122-1.043.366-1.485a3.506 3.506 0 011.006-1.166c.442-.32.944-.564 1.508-.731a5.742 5.742 0 011.783-.275c.625 0 1.235.076 1.829.229a6.541 6.541 0 011.646.663c.518.274.967.602 1.348.983l-1.737 1.92a5.603 5.603 0 00-.937-.709 4.742 4.742 0 00-1.052-.503 3.144 3.144 0 00-.983-.183 3.36 3.36 0 00-.708.069 1.513 1.513 0 00-.503.206.932.932 0 00-.32.365c-.061.137-.091.29-.091.457 0 .168.038.328.114.48.091.153.213.282.366.39.167.09.411.197.731.32.335.121.785.258 1.349.41.731.199 1.348.42 1.851.663.518.244.93.526 1.234.846.259.274.45.587.572.937.122.35.183.74.183 1.166a3.37 3.37 0 01-.64 2.011c-.412.58-.983 1.037-1.715 1.372-.731.32-1.554.48-2.468.48z" fill="#191D27"/><path d="M68.286 84.286c0-8.416 6.822-15.238 15.238-15.238h30.477c8.416 0 15.238 6.822 15.238 15.238v30.477c0 8.416-6.822 15.238-15.238 15.238H83.524c-8.416 0-15.238-6.822-15.238-15.238V84.286z" fill="#F3BD31"/><path d="M100.013 88.709l2.946 5.937 6.518.938c1.161.178 1.652 1.607.804 2.455l-4.732 4.554 1.116 6.473c.178 1.161-1.027 2.054-2.099 1.518l-5.803-3.036-5.849 3.081c-1.071.536-2.276-.357-2.098-1.518l1.116-6.473-4.732-4.599c-.848-.848-.357-2.276.804-2.455l6.518-.938 2.946-5.937c.536-1.072 2.054-1.027 2.545 0z" fill="#fff"/><defs><filter id="filter0_d_0_1139" x="0" y="0" width="442.863" height="199.811" filterUnits="userSpaceOnUse" color-interpolation-filters="sRGB"><feFlood flood-opacity="0" result="BackgroundImageFix"/><feColorMatrix in="SourceAlpha" values="0 0 0 0 0 0 0 0 0 0 0 0 0 0 0 0 0 0 127 0" result="hardAlpha"/><feOffset/><feGaussianBlur stdDeviation="25"/><feComposite in2="hardAlpha" operator="out"/><feColorMatrix values="0 0 0 0 0 0 0 0 0 0 0 0 0 0 0 0 0 0 0.1 0"/><feBlend in2="BackgroundImageFix" result="effect1_dropShadow_0_1139"/><feBlend in="SourceGraphic" in2="effect1_dropShadow_0_1139" result="shape"/></filter></defs></svg>