<svg width="381" height="249" fill="none" xmlns="http://www.w3.org/2000/svg"><path d="M.327 9.736C.327 4.359 4.686 0 10.063 0h360.7c5.377 0 9.736 4.359 9.736 9.736V238.52c0 5.377-4.359 9.736-9.736 9.736h-360.7c-5.377 0-9.736-4.359-9.736-9.736V9.736z" fill="#fff"/><path d="M326.953 184.975a2.434 2.434 0 012.434-2.434h24.339a2.434 2.434 0 012.434 2.434v37.482a2.433 2.433 0 01-2.434 2.433h-24.339a2.433 2.433 0 01-2.434-2.433v-37.482z" fill="#FAB8B9"/><path d="M292.88 162.097a2.434 2.434 0 012.434-2.434h24.338a2.434 2.434 0 012.434 2.434v60.36a2.434 2.434 0 01-2.434 2.434h-24.338a2.434 2.434 0 01-2.434-2.434v-60.36z" fill="#56CAF1"/><path d="M258.804 117.8a2.434 2.434 0 012.434-2.434h24.339a2.434 2.434 0 012.434 2.434v104.657a2.434 2.434 0 01-2.434 2.434h-24.339a2.434 2.434 0 01-2.434-2.434V117.8z" fill="#FFD975"/><path d="M224.73 142.138a2.433 2.433 0 012.434-2.433h24.339a2.433 2.433 0 012.434 2.433v80.318a2.434 2.434 0 01-2.434 2.434h-24.339a2.434 2.434 0 01-2.434-2.434v-80.318z" fill="#FAB8B9"/><path d="M190.656 190.816a2.434 2.434 0 012.434-2.434h24.339a2.434 2.434 0 012.434 2.434v31.641a2.433 2.433 0 01-2.434 2.433H193.09a2.433 2.433 0 01-2.434-2.433v-31.641z" fill="#56CAF1"/><path d="M156.581 201.038a2.433 2.433 0 012.434-2.433h24.339a2.433 2.433 0 012.434 2.433v21.419a2.434 2.434 0 01-2.434 2.434h-24.339a2.434 2.434 0 01-2.434-2.434v-21.419z" fill="#FFD975"/><path d="M122.508 99.79a2.433 2.433 0 012.434-2.435h24.338a2.433 2.433 0 012.434 2.434v122.668a2.434 2.434 0 01-2.434 2.434h-24.338a2.434 2.434 0 01-2.434-2.434V99.789z" fill="#FAB8B9"/><path d="M88.434 134.35a2.434 2.434 0 012.434-2.434h24.338a2.434 2.434 0 012.434 2.434v88.107a2.433 2.433 0 01-2.434 2.433H90.868a2.433 2.433 0 01-2.434-2.433V134.35z" fill="#56CAF1"/><path d="M54.358 168.911a2.434 2.434 0 012.434-2.434h24.34a2.434 2.434 0 012.433 2.434v53.546a2.434 2.434 0 01-2.434 2.434H56.792a2.434 2.434 0 01-2.434-2.434v-53.546z" fill="#FFD975"/><path d="M25.153 222.944v-.925h.4c.343 0 .616-.101.817-.302.201-.208.302-.487.302-.837v-5.189h.964v5.169c0 .422-.088.789-.263 1.1a1.81 1.81 0 01-.72.73c-.312.169-.679.254-1.1.254h-.4zm5.508.116c-.344 0-.649-.061-.915-.185a1.568 1.568 0 01-.613-.525 1.39 1.39 0 01-.224-.779c0-.279.058-.529.175-.75.123-.227.311-.418.565-.574.26-.156.584-.266.973-.331l1.947-.322v.76l-1.742.292c-.338.058-.585.165-.74.321a.799.799 0 00-.224.575c0 .214.084.392.253.535a.998.998 0 00.652.214c.331 0 .617-.068.857-.204.247-.143.438-.334.574-.575a1.53 1.53 0 00.215-.798v-1.334a.85.85 0 00-.322-.691c-.207-.182-.483-.273-.827-.273a1.405 1.405 0 00-1.305.838l-.788-.409c.097-.24.253-.454.467-.643a2.38 2.38 0 01.75-.457 2.45 2.45 0 01.895-.166 2.3 2.3 0 011.061.234c.305.149.542.36.711.633.175.266.263.577.263.934v3.564h-.886v-.994l.166.059c-.11.208-.26.389-.448.545a2.183 2.183 0 01-.662.37 2.429 2.429 0 01-.828.136zm4.062-.116v-5.248h.886v1.022l-.146-.087c.13-.331.337-.588.623-.769a1.84 1.84 0 011.022-.283c.376 0 .71.085 1.003.253.298.169.532.403.7.701.176.299.264.636.264 1.013v3.398h-.916v-3.106a1.6 1.6 0 00-.155-.74 1.11 1.11 0 00-.448-.467 1.21 1.21 0 00-.652-.176 1.26 1.26 0 00-.663.176c-.188.11-.337.269-.447.477a1.5 1.5 0 00-.166.73v3.106h-.905zm-9.248-24.339v-7.253h4.595v.876h-3.641v2.346h3.3v.876h-3.3v3.155h-.954zm6.841.117c-.344 0-.65-.062-.916-.185a1.57 1.57 0 01-.613-.526 1.386 1.386 0 01-.224-.779c0-.279.059-.529.175-.75a1.55 1.55 0 01.565-.574c.26-.156.584-.266.974-.331l1.947-.321v.759l-1.743.292c-.337.059-.584.166-.74.321a.8.8 0 00-.224.575c0 .214.085.393.253.535a.997.997 0 00.653.214c.33 0 .616-.068.856-.204.247-.143.439-.334.575-.574.143-.24.214-.507.214-.799v-1.333a.851.851 0 00-.321-.692c-.208-.181-.484-.272-.828-.272-.298 0-.564.078-.798.233-.227.15-.396.351-.506.604l-.789-.409c.098-.24.253-.454.467-.642a2.47 2.47 0 011.645-.623 2.3 2.3 0 011.062.233c.305.149.542.36.71.633.176.266.263.578.263.935v3.563h-.886v-.993l.166.058c-.11.208-.26.39-.448.545a2.184 2.184 0 01-.662.37 2.43 2.43 0 01-.827.137zm6.777 0c-.421 0-.808-.095-1.158-.283a1.969 1.969 0 01-.798-.798l.126-.156v1.12h-.886v-7.37h.906v3.252l-.137-.224c.195-.312.461-.558.799-.74a2.34 2.34 0 011.158-.282c.493 0 .935.12 1.324.36.396.24.708.568.935.983.227.409.34.876.34 1.402 0 .513-.113.977-.34 1.392a2.57 2.57 0 01-.935.983c-.39.241-.834.361-1.334.361zm-.068-.877a1.637 1.637 0 001.49-.905c.15-.286.224-.604.224-.954 0-.364-.075-.682-.224-.954a1.65 1.65 0 00-.604-.662 1.588 1.588 0 00-.886-.253c-.33 0-.63.081-.895.243-.26.162-.468.386-.623.672a1.99 1.99 0 00-.224.954c0 .35.074.668.224.954.155.279.363.5.623.662.266.162.564.243.895.243zm-13.55-23.579v-7.253h.876l2.716 3.865h-.448l2.697-3.865h.876v7.253h-.964v-6.046l.341.107-2.697 3.797h-.078l-2.667-3.797.302-.107v6.046h-.954zm9.759.117c-.344 0-.649-.062-.915-.185a1.57 1.57 0 01-.613-.526 1.386 1.386 0 01-.224-.779c0-.279.058-.529.175-.749.123-.227.312-.419.565-.575.26-.155.584-.266.973-.331l1.947-.321v.759l-1.742.292c-.338.059-.584.166-.74.322a.797.797 0 00-.224.574c0 .214.084.393.253.536.175.142.393.214.652.214a1.7 1.7 0 00.857-.205 1.52 1.52 0 00.574-.574 1.53 1.53 0 00.215-.798v-1.334a.848.848 0 00-.322-.691c-.207-.182-.483-.273-.827-.273a1.405 1.405 0 00-1.305.837l-.788-.409a1.7 1.7 0 01.467-.642 2.47 2.47 0 011.645-.623c.403 0 .756.078 1.061.233.306.15.542.361.711.633.175.266.263.578.263.935v3.563h-.886v-.993l.166.058a1.8 1.8 0 01-.448.546 2.205 2.205 0 01-.662.37c-.253.09-.53.136-.828.136zm4.062-.117v-5.247h.886v.963l-.098-.136c.124-.298.312-.519.565-.662.253-.149.561-.224.925-.224h.321v.857h-.457c-.37 0-.669.117-.896.35-.227.228-.34.552-.34.974v3.125h-.906zm-14.522-24.339l2.6-7.253h1.128l2.6 7.253h-1.023l-.593-1.703H26.39l-.594 1.703h-1.022zm1.918-2.58h2.492l-1.383-3.981h.273l-1.382 3.981zm5.217 4.527v-7.194h.886v1.129l-.117-.224c.194-.311.46-.558.798-.74a2.34 2.34 0 011.159-.282c.493 0 .934.12 1.324.36.395.24.707.568.934.984.227.408.34.876.34 1.401 0 .513-.113.977-.34 1.393a2.57 2.57 0 01-.934.983c-.39.24-.834.36-1.334.36-.422 0-.808-.094-1.159-.282a1.97 1.97 0 01-.798-.799l.146-.155v3.066h-.905zm2.648-2.706c.33 0 .626-.081.886-.243.26-.163.46-.383.603-.662.15-.286.224-.604.224-.955a1.96 1.96 0 00-.224-.954 1.657 1.657 0 00-.603-.662 1.595 1.595 0 00-.886-.253c-.331 0-.63.081-.896.244-.26.162-.467.386-.623.671a1.99 1.99 0 00-.224.954c0 .351.075.669.224.955.156.279.363.499.623.662.266.162.565.243.896.243zm3.864.759v-5.247h.886v.964l-.097-.137a1.3 1.3 0 01.564-.662c.254-.149.562-.224.925-.224h.322v.857h-.458c-.37 0-.669.117-.896.351-.227.227-.34.551-.34.973v3.125h-.906zm-12.947-24.339v-7.253h.877l2.716 3.865h-.448l2.697-3.865h.876v7.253h-.964v-6.045l.34.107-2.696 3.797h-.078l-2.667-3.797.301-.107v6.045h-.954zm9.76.117a2.14 2.14 0 01-.915-.185 1.576 1.576 0 01-.614-.525 1.39 1.39 0 01-.224-.779c0-.279.059-.529.176-.75.123-.227.311-.419.564-.574.26-.156.585-.266.974-.331l1.947-.322v.76l-1.743.292c-.337.058-.584.165-.74.321a.798.798 0 00-.223.574c0 .215.084.393.253.536a.998.998 0 00.652.214c.331 0 .617-.068.857-.204a1.53 1.53 0 00.574-.575 1.53 1.53 0 00.214-.798v-1.334a.85.85 0 00-.321-.691c-.208-.182-.483-.273-.828-.273a1.405 1.405 0 00-1.304.838l-.789-.409c.098-.24.254-.455.468-.643a2.38 2.38 0 01.75-.457 2.45 2.45 0 01.895-.166 2.3 2.3 0 011.061.234c.305.149.542.36.71.633.176.266.264.577.264.934v3.563h-.886v-.993l.165.059a1.81 1.81 0 01-.448.545 2.183 2.183 0 01-.662.37 2.429 2.429 0 01-.827.136zm4.344 2.025a2.18 2.18 0 01-.35-.029 1.116 1.116 0 01-.332-.088v-.808c.072.007.16.02.263.039.11.02.218.029.322.029.304 0 .535-.068.69-.204.163-.136.316-.367.458-.691l.331-.789-.02.789-2.238-5.637h.983l1.743 4.478h-.292l1.732-4.478h1.003l-2.366 5.87c-.11.28-.253.536-.428.77a1.787 1.787 0 01-1.5.749zm-14.425-26.48v-.925h.4c.343 0 .616-.101.817-.302.201-.208.302-.487.302-.837v-5.19h.964v5.17c0 .422-.088.789-.263 1.1a1.818 1.818 0 01-.72.731c-.312.168-.679.253-1.1.253h-.4zm5.829.116c-.376 0-.717-.087-1.022-.262a1.855 1.855 0 01-.7-.731 2.363 2.363 0 01-.244-1.09v-3.28h.905v3.183c0 .26.052.486.156.681.11.195.26.347.448.458.195.11.415.165.662.165.246 0 .464-.055.652-.165.195-.111.344-.27.448-.477.11-.208.165-.455.165-.74v-3.106h.916v5.248h-.886v-1.023l.146.088a1.527 1.527 0 01-.633.779c-.292.182-.63.272-1.013.272zm3.788-.116v-5.248h.886v1.023l-.146-.088a1.56 1.56 0 01.623-.77 1.846 1.846 0 011.023-.282c.376 0 .71.085 1.002.253.299.17.532.403.701.701.175.299.263.636.263 1.013v3.398h-.915v-3.106c0-.292-.052-.539-.156-.74a1.111 1.111 0 00-.448-.467 1.211 1.211 0 00-.652-.175 1.26 1.26 0 00-.662.175 1.18 1.18 0 00-.448.477c-.11.201-.165.445-.165.73v3.106h-.906z" fill="#A9A9A9"/><path d="M161.227 72.043V64.79h2.638c.487 0 .916.091 1.285.273.377.175.669.435.877.779.207.338.311.743.311 1.217 0 .467-.107.87-.321 1.207a2.062 2.062 0 01-.867.779c-.369.182-.798.272-1.285.272h-1.489v2.727h-1.149zm1.149-3.748h1.519c.259 0 .486-.052.681-.156a1.16 1.16 0 00.458-.428c.11-.188.165-.409.165-.662 0-.253-.055-.47-.165-.652a1.083 1.083 0 00-.458-.428 1.428 1.428 0 00-.681-.156h-1.519v2.482zm5.038 3.748v-5.266h1.051v1.06l-.097-.155c.117-.344.305-.59.565-.74.259-.156.571-.234.934-.234h.321v1.003h-.457c-.364 0-.659.114-.886.34-.221.222-.331.54-.331.955v3.037h-1.1zm6.068.117a2.712 2.712 0 01-2.385-1.344 2.708 2.708 0 01-.37-1.41c0-.533.123-1.004.37-1.413.246-.415.577-.74.993-.973a2.73 2.73 0 011.392-.36c.519 0 .983.12 1.392.36.416.234.743.558.983.974.247.408.37.879.37 1.411s-.123 1.006-.37 1.421a2.712 2.712 0 01-.993.984c-.415.233-.876.35-1.382.35zm0-1.022c.312 0 .587-.075.828-.224.24-.15.428-.354.564-.613.143-.266.214-.565.214-.896 0-.33-.071-.626-.214-.886a1.559 1.559 0 00-.564-.613 1.537 1.537 0 00-.828-.224 1.57 1.57 0 00-.828.224c-.24.15-.431.354-.574.613a1.88 1.88 0 00-.204.886c0 .331.068.63.204.896.143.26.334.464.574.613.247.15.523.224.828.224zm6.321 1.022c-.525 0-.993-.12-1.401-.36a2.766 2.766 0 01-.964-.993 2.826 2.826 0 01-.351-1.412c0-.519.117-.986.351-1.401a2.52 2.52 0 01.964-.974c.408-.24.876-.36 1.401-.36.357 0 .692.065 1.003.195.312.123.581.295.808.515.234.221.406.477.516.77l-.964.447a1.382 1.382 0 00-.535-.652 1.404 1.404 0 00-.828-.253c-.298 0-.567.075-.808.224a1.5 1.5 0 00-.554.613 1.87 1.87 0 00-.205.886c0 .331.068.63.205.896.136.26.321.464.554.613.241.15.51.224.808.224.319 0 .594-.081.828-.243.24-.17.419-.393.535-.672l.964.457c-.104.28-.272.533-.506.76a2.608 2.608 0 01-1.821.72zm5.875 0a2.72 2.72 0 01-1.402-.36 2.62 2.62 0 01-.944-.993 2.931 2.931 0 01-.341-1.412c0-.532.114-1.002.341-1.411.234-.41.545-.73.935-.964.389-.24.83-.36 1.324-.36.396 0 .749.068 1.061.204.311.136.574.325.788.565.215.233.377.503.487.808.117.305.175.63.175.974 0 .084-.003.171-.009.262-.007.091-.02.176-.039.253h-4.196v-.876h3.573l-.526.4c.065-.319.042-.601-.068-.848a1.256 1.256 0 00-.487-.594 1.294 1.294 0 00-.759-.223 1.38 1.38 0 00-.779.224c-.227.142-.403.35-.526.623-.123.266-.172.59-.146.973-.032.357.016.669.146.935.136.266.325.474.565.623.246.15.526.224.837.224.318 0 .587-.072.808-.214a1.57 1.57 0 00.536-.555l.895.438c-.104.246-.266.47-.487.672a2.45 2.45 0 01-.778.467 2.83 2.83 0 01-.984.165zm5.445 0c-.538 0-1.012-.133-1.421-.399a2.116 2.116 0 01-.847-1.07l.847-.4a1.8 1.8 0 00.584.71c.253.176.532.264.837.264.26 0 .471-.059.633-.176a.557.557 0 00.243-.477.44.44 0 00-.107-.311.791.791 0 00-.272-.205 1.463 1.463 0 00-.322-.116l-.827-.234c-.454-.13-.795-.325-1.022-.584a1.404 1.404 0 01-.331-.925c0-.318.081-.594.243-.828.162-.24.386-.425.672-.555a2.3 2.3 0 01.964-.194c.48 0 .908.12 1.285.36.376.234.642.561.798.983l-.847.4a1.294 1.294 0 00-.496-.604 1.309 1.309 0 00-.75-.224c-.24 0-.432.058-.574.175a.527.527 0 00-.215.438c0 .123.033.227.098.312a.775.775 0 00.253.195c.104.045.211.084.321.116l.857.253c.435.124.769.318 1.003.585.233.26.35.57.35.934 0 .312-.084.588-.253.828a1.657 1.657 0 01-.682.555c-.292.13-.632.194-1.022.194zm4.982 0c-.539 0-1.012-.133-1.421-.399a2.116 2.116 0 01-.847-1.07l.847-.4c.142.299.337.535.584.71.253.176.532.264.837.264.26 0 .471-.059.633-.176a.557.557 0 00.243-.477.44.44 0 00-.107-.311.791.791 0 00-.272-.205 1.463 1.463 0 00-.322-.116l-.827-.234c-.455-.13-.795-.325-1.022-.584a1.404 1.404 0 01-.331-.925c0-.318.081-.594.243-.828.162-.24.386-.425.672-.555a2.3 2.3 0 01.964-.194c.48 0 .908.12 1.285.36.376.234.642.561.798.983l-.847.4a1.29 1.29 0 00-.497-.604c-.22-.15-.47-.224-.749-.224-.24 0-.432.058-.575.175a.529.529 0 00-.214.438c0 .123.033.227.098.312a.765.765 0 00.253.195c.104.045.211.084.321.116l.857.253c.435.124.769.318 1.002.585.234.26.351.57.351.934 0 .312-.084.588-.253.828-.162.233-.39.418-.682.555-.292.13-.633.194-1.022.194z" fill="#122428"/><path d="M155.61 67.906a3.651 3.651 0 11-7.302-.001 3.651 3.651 0 017.302 0z" fill="#FAB8B9"/><path d="M106.815 72.16a3.14 3.14 0 01-1.265-.253 2.987 2.987 0 01-.994-.71 2.86 2.86 0 01-.603-1.033l.973-.409c.176.448.432.792.77 1.032.337.24.726.36 1.168.36.259 0 .487-.038.681-.116a1.03 1.03 0 00.448-.35.848.848 0 00.166-.517c0-.266-.075-.477-.224-.633-.15-.155-.37-.279-.662-.37l-1.363-.428c-.545-.169-.961-.425-1.246-.769a1.882 1.882 0 01-.429-1.227 1.9 1.9 0 01.302-1.07c.201-.312.477-.555.828-.73a2.72 2.72 0 011.216-.263c.435 0 .831.077 1.188.233.357.15.662.357.915.623.26.266.448.575.565.925l-.954.419a1.796 1.796 0 00-.672-.886 1.778 1.778 0 00-1.042-.312c-.24 0-.451.042-.632.127a.953.953 0 00-.429.35.943.943 0 00-.146.526c0 .234.075.441.224.623.149.182.377.318.682.409l1.265.4c.578.174 1.013.427 1.305.758.292.325.438.73.438 1.217 0 .403-.107.76-.321 1.071a2.16 2.16 0 01-.867.74c-.37.175-.798.263-1.285.263zm5.138 0a2.28 2.28 0 01-.945-.185 1.554 1.554 0 01-.623-.526 1.423 1.423 0 01-.224-.798c0-.285.062-.542.185-.769a1.58 1.58 0 01.594-.574c.266-.156.6-.267 1.003-.331l1.83-.302v.866l-1.616.282c-.292.053-.506.147-.643.283a.668.668 0 00-.204.506.63.63 0 00.224.497.928.928 0 00.594.185c.298 0 .558-.065.779-.195.227-.13.402-.302.525-.516.124-.22.185-.464.185-.73V68.5a.784.784 0 00-.292-.633c-.188-.169-.441-.253-.759-.253-.292 0-.549.078-.769.233a1.36 1.36 0 00-.477.584l-.915-.457c.097-.26.256-.487.477-.682.22-.2.477-.357.769-.467.298-.11.613-.166.944-.166.415 0 .782.078 1.1.234.325.156.575.373.75.652.182.273.272.591.272.954v3.544h-1.051v-.954l.224.03a1.945 1.945 0 01-.477.554 2.06 2.06 0 01-.652.36c-.241.085-.51.127-.808.127zm4.051-.117v-7.37h1.1v7.37h-1.1zm4.859.117c-.526 0-.993-.12-1.402-.36a2.62 2.62 0 01-.944-.993 2.92 2.92 0 01-.341-1.412c0-.532.113-1.003.341-1.411a2.61 2.61 0 01.934-.964c.39-.24.831-.36 1.324-.36.396 0 .75.068 1.061.204.312.136.575.325.789.565.214.233.376.503.487.808.117.305.175.63.175.973 0 .085-.003.172-.01.263-.006.09-.019.175-.039.253h-4.196v-.876h3.573l-.525.4c.064-.319.042-.601-.069-.848a1.253 1.253 0 00-.486-.594 1.298 1.298 0 00-.76-.224 1.389 1.389 0 00-1.304.847c-.124.267-.172.591-.146.974-.033.357.016.668.146.934.136.267.324.474.564.624.247.149.526.224.838.224.318 0 .587-.072.808-.215.227-.142.405-.327.535-.555l.896.439c-.104.246-.266.47-.487.671-.214.195-.474.35-.779.468a2.82 2.82 0 01-.983.165z" fill="#122428"/><path d="M98.656 67.906a3.65 3.65 0 11-7.301 0 3.65 3.65 0 017.301 0z" fill="#56CAF1"/><path d="M38.94 72.043l-1.996-7.253h1.216l1.617 6.28h-.302l1.674-6.28h1.198l1.674 6.28h-.311l1.626-6.28h1.207l-1.986 7.253h-1.295l-1.684-6.182h.34l-1.694 6.182H38.94zm10.55.117c-.507 0-.971-.12-1.393-.36a2.712 2.712 0 01-1.363-2.395c0-.532.123-1.003.37-1.412.247-.415.578-.74.993-.973.416-.24.88-.36 1.392-.36.52 0 .984.12 1.393.36.415.234.743.558.983.973.246.41.37.88.37 1.412a2.73 2.73 0 01-.37 1.421 2.72 2.72 0 01-.993.984 2.77 2.77 0 01-1.383.35zm0-1.022c.31 0 .587-.075.827-.224.24-.15.428-.354.565-.613.142-.266.214-.565.214-.896 0-.331-.072-.626-.214-.886a1.561 1.561 0 00-.565-.613 1.535 1.535 0 00-.828-.224c-.305 0-.58.075-.827.224a1.64 1.64 0 00-.575.613c-.136.26-.204.555-.204.886 0 .331.068.63.204.896.143.26.335.464.575.613.246.15.522.224.827.224zm3.819.905v-5.267h1.051v1.062l-.097-.156c.117-.344.305-.59.565-.74.26-.156.57-.234.934-.234h.321v1.003h-.457c-.364 0-.659.114-.886.34-.22.221-.331.54-.331.955v3.037h-1.1zm3.527 0v-7.37h1.1v4.936l-.428-.107 2.638-2.725h1.373l-1.986 2.112 2.073 3.154h-1.265l-1.85-2.794.652-.087-1.557 1.655.35-.73v1.956h-1.1zm7.471.117c-.539 0-1.013-.133-1.422-.399a2.12 2.12 0 01-.846-1.07l.846-.4c.143.299.338.535.585.71.253.176.532.263.837.263.26 0 .47-.058.633-.175a.557.557 0 00.243-.477.443.443 0 00-.107-.311.793.793 0 00-.273-.205 1.469 1.469 0 00-.32-.117l-.828-.233c-.455-.13-.796-.325-1.023-.584a1.406 1.406 0 01-.33-.925c0-.318.08-.594.243-.828.162-.24.386-.425.672-.555.285-.13.606-.194.963-.194.48 0 .909.12 1.285.36a1.9 1.9 0 01.799.983l-.847.4a1.293 1.293 0 00-.497-.604 1.3 1.3 0 00-.75-.224c-.24 0-.431.058-.574.175a.526.526 0 00-.214.438c0 .123.032.227.097.312.065.078.15.142.254.194.103.046.21.085.32.117l.858.253c.434.124.769.318 1.002.584.234.26.35.572.35.935 0 .312-.084.587-.252.828a1.68 1.68 0 01-.682.555c-.292.13-.633.194-1.022.194z" fill="#122428"/><path d="M31.968 67.906a3.65 3.65 0 11-7.301 0 3.65 3.65 0 017.301 0z" fill="#FFD975"/><path d="M28.638 46.73V34.562H24.88v-2.336h10.125v2.336h-3.7v12.17h-2.667zm11.579.234c-1.038 0-1.986-.24-2.843-.72a5.55 5.55 0 01-2.025-1.967c-.493-.83-.74-1.778-.74-2.843 0-1.064.247-2.011.74-2.842a5.55 5.55 0 012.025-1.967c.844-.48 1.792-.72 2.843-.72 1.038 0 1.98.24 2.823.72a5.4 5.4 0 012.006 1.967c.506.818.76 1.765.76 2.843 0 1.064-.254 2.011-.76 2.842a5.55 5.55 0 01-2.025 1.967c-.844.48-1.779.72-2.804.72zm0-2.336c.571 0 1.071-.136 1.5-.41a2.8 2.8 0 001.031-1.128c.26-.494.39-1.045.39-1.656 0-.622-.13-1.168-.39-1.635a2.8 2.8 0 00-1.032-1.13c-.428-.285-.928-.428-1.499-.428-.584 0-1.097.143-1.538.429a2.94 2.94 0 00-1.052 1.129c-.246.467-.37 1.013-.37 1.636 0 .61.124 1.161.37 1.655.26.48.61.856 1.052 1.129.441.273.954.409 1.538.409zm7.523 5.997V36.138h2.395v2.103l-.234-.525a3.653 3.653 0 011.48-1.325c.623-.324 1.343-.486 2.16-.486 1 0 1.903.246 2.707.74a5.387 5.387 0 011.909 1.986c.48.83.72 1.765.72 2.803 0 1.026-.234 1.96-.701 2.804a5.346 5.346 0 01-1.908 2.006c-.805.48-1.72.72-2.745.72a5.027 5.027 0 01-2.123-.447 3.763 3.763 0 01-1.519-1.325l.41-.506v5.939H47.74zm5.49-5.997c.585 0 1.104-.136 1.558-.41a2.758 2.758 0 001.052-1.128c.26-.48.389-1.032.389-1.656 0-.622-.13-1.168-.39-1.635a2.758 2.758 0 00-1.05-1.13 2.865 2.865 0 00-1.559-.428 2.89 2.89 0 00-1.518.41 2.908 2.908 0 00-1.052 1.148c-.246.48-.37 1.025-.37 1.636 0 .623.124 1.174.37 1.655.26.48.61.856 1.052 1.129.454.273.96.409 1.518.409zm11.266 2.102V32.226h2.649v6.328h6.172v-6.328h2.667V46.73h-2.667v-5.842h-6.172v5.842h-2.648zm14.066 0V36.139h2.551v10.593h-2.55zm0-11.78v-2.725h2.551v2.726h-2.55zm4.906 11.78V36.139h2.395v2.356l-.195-.35c.247-.792.63-1.344 1.15-1.655.531-.312 1.167-.467 1.907-.467h.623v2.258h-.915c-.727 0-1.31.227-1.752.682-.441.441-.662 1.064-.662 1.869v5.9h-2.55zm7.282 0V36.139h2.552v10.593H90.75zm0-11.78v-2.725h2.552v2.726H90.75zm4.907 11.78V36.139h2.395v2.084l-.195-.37c.246-.636.649-1.116 1.207-1.441.571-.337 1.233-.506 1.986-.506.779 0 1.467.169 2.064.506a3.56 3.56 0 011.421 1.421c.338.597.507 1.292.507 2.084v6.815h-2.551V40.52c0-.467-.091-.87-.273-1.207a1.906 1.906 0 00-.759-.779c-.312-.194-.682-.292-1.11-.292-.415 0-.785.098-1.11.292a1.908 1.908 0 00-.76.78c-.18.337-.272.74-.272 1.206v6.212h-2.55zm16.682 4.284c-.792 0-1.525-.13-2.2-.39a5.263 5.263 0 01-1.753-1.09 4.054 4.054 0 01-1.051-1.616l2.375-.895c.156.493.461.889.915 1.188.468.311 1.039.467 1.714.467.519 0 .973-.098 1.363-.292.402-.195.714-.48.934-.857.221-.364.331-.805.331-1.324V43.79l.487.584a3.622 3.622 0 01-1.46 1.44c-.61.325-1.305.487-2.084.487-.986 0-1.869-.227-2.648-.681a4.872 4.872 0 01-1.83-1.87c-.441-.791-.662-1.68-.662-2.667 0-1 .221-1.889.662-2.668a4.805 4.805 0 011.811-1.83c.766-.454 1.636-.681 2.609-.681.792 0 1.486.169 2.083.506a4.064 4.064 0 011.519 1.421l-.35.643v-2.337h2.414v10.067c0 .922-.227 1.746-.681 2.473a4.665 4.665 0 01-1.831 1.713c-.766.416-1.655.623-2.667.623zm-.117-7.068c.545 0 1.019-.116 1.421-.35.416-.247.74-.584.974-1.013.234-.428.35-.921.35-1.48a2.87 2.87 0 00-.37-1.46 2.571 2.571 0 00-.973-1.032c-.402-.246-.87-.37-1.402-.37-.532 0-1.012.124-1.441.37-.428.247-.766.59-1.012 1.032a2.996 2.996 0 00-.351 1.46c0 .546.117 1.032.351 1.46.246.43.577.767.993 1.013.428.247.915.37 1.46.37zm16.532 3.018a6.488 6.488 0 01-2.57-.506 6.155 6.155 0 01-2.025-1.402 5.687 5.687 0 01-1.226-2.122l2.2-.954c.35.83.857 1.486 1.519 1.966a3.789 3.789 0 002.239.701c.467 0 .869-.071 1.207-.214.35-.156.617-.363.798-.623.195-.26.292-.571.292-.935 0-.428-.129-.778-.389-1.051-.247-.286-.623-.506-1.129-.662l-2.785-.896c-1.129-.35-1.979-.876-2.55-1.577-.572-.7-.857-1.525-.857-2.473 0-.83.201-1.564.603-2.2a4.153 4.153 0 011.714-1.48c.74-.363 1.583-.545 2.531-.545.87 0 1.668.156 2.395.467.727.299 1.35.72 1.869 1.266a5.032 5.032 0 011.188 1.889l-2.181.973c-.285-.727-.714-1.285-1.285-1.674-.571-.403-1.233-.604-1.986-.604-.441 0-.831.078-1.168.234-.338.143-.604.35-.799.623-.181.26-.272.571-.272.934 0 .403.13.76.389 1.071.26.299.656.533 1.188.701l2.668.838c1.155.376 2.018.895 2.589 1.557.584.662.876 1.48.876 2.454 0 .83-.214 1.564-.642 2.2-.428.636-1.019 1.136-1.772 1.5-.753.363-1.629.544-2.629.544zm12.393 0c-1.038 0-1.986-.24-2.843-.72a5.546 5.546 0 01-2.025-1.967c-.493-.83-.74-1.778-.74-2.843 0-1.064.247-2.011.74-2.842a5.546 5.546 0 012.025-1.967c.844-.48 1.792-.72 2.843-.72 1.038 0 1.98.24 2.823.72a5.396 5.396 0 012.006 1.967c.506.818.759 1.765.759 2.843 0 1.064-.253 2.011-.759 2.842a5.546 5.546 0 01-2.025 1.967c-.844.48-1.779.72-2.804.72zm0-2.336c.571 0 1.071-.136 1.499-.41a2.792 2.792 0 001.032-1.128c.26-.494.39-1.045.39-1.656 0-.622-.13-1.168-.39-1.635a2.792 2.792 0 00-1.032-1.13c-.428-.285-.928-.428-1.499-.428-.584 0-1.097.143-1.538.429a2.94 2.94 0 00-1.052 1.129c-.246.467-.37 1.013-.37 1.636 0 .61.124 1.161.37 1.655.26.48.61.856 1.052 1.129.441.273.954.409 1.538.409zm11.3 2.336c-.818 0-1.532-.181-2.142-.545a3.64 3.64 0 01-1.382-1.519c-.312-.649-.468-1.408-.468-2.278v-6.484h2.551v6.27c0 .441.084.83.253 1.168.182.325.435.584.76.78a2.34 2.34 0 001.129.272c.415 0 .785-.091 1.11-.273.324-.194.577-.46.759-.798.182-.338.273-.74.273-1.207v-6.212h2.55v10.593h-2.414v-2.084l.214.37c-.247.65-.655 1.136-1.227 1.46-.558.325-1.213.487-1.966.487zm7.764-.234V36.139h2.395v2.356l-.194-.35c.246-.792.629-1.344 1.148-1.655.533-.312 1.169-.467 1.909-.467h.623v2.258h-.915c-.727 0-1.312.227-1.753.682-.441.441-.662 1.064-.662 1.869v5.9h-2.551zm12.384.234c-1.051 0-1.999-.24-2.842-.72a5.44 5.44 0 01-1.967-1.986c-.48-.844-.72-1.791-.72-2.843 0-1.051.24-1.992.72-2.823a5.292 5.292 0 011.967-1.967c.843-.48 1.791-.72 2.842-.72.753 0 1.454.136 2.103.409a4.93 4.93 0 011.675 1.09c.48.454.824 1 1.032 1.636l-2.239.973a2.633 2.633 0 00-.993-1.285 2.645 2.645 0 00-1.578-.487c-.558 0-1.057.137-1.499.41a2.847 2.847 0 00-1.012 1.128c-.247.48-.37 1.032-.37 1.655 0 .624.123 1.175.37 1.656.246.48.584.856 1.012 1.129.442.273.941.409 1.499.409.611 0 1.143-.163 1.597-.487.454-.325.779-.76.974-1.304l2.239 1.012a4.345 4.345 0 01-1.013 1.616 5.164 5.164 0 01-1.674 1.11c-.649.26-1.357.39-2.123.39zm11.769 0c-1.091 0-2.045-.246-2.863-.74a5.164 5.164 0 01-1.908-2.005c-.454-.844-.681-1.779-.681-2.804 0-1.064.227-2.005.681-2.823a5.291 5.291 0 011.889-1.967c.805-.48 1.7-.72 2.687-.72.831 0 1.558.136 2.181.409a4.656 4.656 0 011.616 1.129c.441.48.779 1.032 1.012 1.655a5.5 5.5 0 01.351 1.986c0 .182-.013.37-.039.565a1.883 1.883 0 01-.097.506h-8.178v-1.947h6.737l-1.208.915c.117-.597.085-1.13-.097-1.597a2.212 2.212 0 00-.857-1.11c-.389-.272-.863-.408-1.421-.408a2.53 2.53 0 00-1.421.408c-.416.26-.734.65-.954 1.169-.208.506-.286 1.123-.234 1.85-.052.649.032 1.226.253 1.732a2.65 2.65 0 001.012 1.15c.455.272.974.408 1.558.408.584 0 1.078-.123 1.48-.37.415-.246.74-.577.974-.993l2.063 1.013a3.603 3.603 0 01-.973 1.343 4.82 4.82 0 01-1.577.915 5.69 5.69 0 01-1.986.331zm10.929 0c-1.129 0-2.116-.266-2.96-.798a4.165 4.165 0 01-1.713-2.2l1.908-.915c.273.597.649 1.064 1.129 1.401a2.837 2.837 0 001.636.507c.467 0 .837-.104 1.11-.312a.981.981 0 00.409-.817.728.728 0 00-.176-.507 1.123 1.123 0 00-.447-.35 2.809 2.809 0 00-.604-.253l-1.733-.487c-.896-.26-1.577-.656-2.044-1.188-.455-.532-.682-1.162-.682-1.889 0-.649.162-1.213.487-1.694a3.347 3.347 0 011.382-1.148c.597-.273 1.279-.41 2.045-.41.999 0 1.882.24 2.648.721a3.947 3.947 0 011.635 2.025l-1.947.915a2.345 2.345 0 00-.915-1.148 2.54 2.54 0 00-1.441-.429c-.428 0-.766.098-1.012.292a.922.922 0 00-.37.76c0 .194.052.363.156.506.103.143.246.26.428.35.195.091.415.176.662.254l1.694.506c.87.26 1.538.649 2.005 1.168.481.52.721 1.155.721 1.908 0 .636-.169 1.2-.506 1.694-.338.48-.805.857-1.402 1.13-.597.272-1.298.408-2.103.408z" fill="#122428"/></svg>