<svg width="176" height="112" fill="none" xmlns="http://www.w3.org/2000/svg"><path d="M.233 5.747A4.868 4.868 0 015.101.879h165.504a4.867 4.867 0 014.867 4.868v101.249a4.867 4.867 0 01-4.867 4.868H5.101a4.868 4.868 0 01-4.868-4.868V5.747z" fill="#fff"/><path d="M148.733 93.425c-.25 0-.47-.042-.662-.126a1.096 1.096 0 01-.453-.37 1.05 1.05 0 01-.17-.59h.657a.594.594 0 00.171.405c.11.107.261.16.452.16a.616.616 0 00.395-.117.399.399 0 00.146-.32.413.413 0 00-.132-.327.943.943 0 00-.341-.19l-.457-.156c-.263-.09-.464-.207-.604-.35-.136-.143-.204-.333-.204-.57a.872.872 0 01.141-.516.974.974 0 01.409-.335c.172-.082.37-.122.594-.122.227 0 .426.04.598.122a.953.953 0 01.57.862h-.667a.45.45 0 00-.141-.317.481.481 0 00-.37-.141.535.535 0 00-.346.102c-.091.068-.136.169-.136.302a.36.36 0 00.107.272c.072.065.169.12.292.166.124.045.265.094.424.146.168.058.323.126.462.204.14.078.252.182.336.312a.87.87 0 01.127.491.952.952 0 01-.137.497.994.994 0 01-.404.37c-.178.09-.397.136-.657.136zm3.055 0c-.249 0-.475-.049-.676-.146a1.156 1.156 0 01-.482-.453c-.117-.2-.175-.455-.175-.764V89.96h.623v2.108c0 .266.063.464.19.594.129.13.308.195.535.195.224 0 .401-.065.531-.195.129-.13.194-.328.194-.594V89.96h.623v2.103c0 .309-.061.563-.185.764a1.167 1.167 0 01-.496.453 1.565 1.565 0 01-.682.146zm1.999-.058v-3.408h.624l1.601 2.4v-2.4h.623v3.408h-.623l-1.601-2.395v2.395h-.624zm-25.498.058a1.64 1.64 0 01-.663-.126 1.087 1.087 0 01-.452-.37 1.05 1.05 0 01-.171-.59h.658a.593.593 0 00.17.405c.11.107.261.16.453.16a.613.613 0 00.394-.117.399.399 0 00.146-.32.416.416 0 00-.131-.327.952.952 0 00-.341-.19l-.458-.156c-.263-.09-.464-.207-.603-.35-.137-.143-.205-.333-.205-.57a.872.872 0 01.141-.516.974.974 0 01.409-.335c.172-.082.37-.122.594-.122.227 0 .427.04.599.122a.97.97 0 01.409.34c.1.146.154.32.16.521h-.667a.45.45 0 00-.141-.316.48.48 0 00-.37-.141.532.532 0 00-.345.102c-.091.068-.137.169-.137.302 0 .113.036.204.108.272.071.065.168.12.292.166.123.045.264.094.423.146.169.058.323.126.463.204a.938.938 0 01.335.312c.085.126.127.29.127.491a.951.951 0 01-.54.867 1.44 1.44 0 01-.657.136zm1.522-.058l1.246-3.408h.701l1.246 3.408h-.662l-.273-.789h-1.329l-.277.789h-.652zm1.1-1.276h.988l-.497-1.416-.491 1.416zm2.964 1.276V90.46h-.993v-.502h2.614v.502h-.998v2.906h-.623zm-25.248 0v-3.408h2.201v.502h-1.577v.954h1.275v.491h-1.275v1.46h-.624zm2.682 0v-3.408h1.251c.272 0 .496.047.671.141a.908.908 0 01.399.375c.088.156.132.33.132.521 0 .208-.055.398-.166.57a.91.91 0 01-.506.374l.706 1.427h-.716l-.632-1.344h-.516v1.344h-.623zm.623-1.801h.589c.207 0 .36-.05.457-.151a.547.547 0 00.146-.4.524.524 0 00-.146-.389c-.094-.097-.248-.146-.462-.146h-.584v1.086zm2.409 1.801v-3.408h.623v3.408h-.623zm-26.338 0V90.46h-.993v-.502h2.614v.502h-.998v2.906h-.623zm2.082 0v-3.408h.623v1.417h1.529v-1.417h.623v3.408h-.623v-1.485h-1.529v1.485h-.623zm4.752.058c-.25 0-.476-.049-.677-.146a1.155 1.155 0 01-.482-.453c-.117-.2-.175-.456-.175-.764V89.96h.623v2.108c0 .266.063.464.19.594.13.13.308.195.535.195.224 0 .4-.065.53-.195s.195-.328.195-.594V89.96h.624v2.103c0 .308-.062.563-.186.764a1.172 1.172 0 01-.496.453 1.564 1.564 0 01-.681.146zm-30.301-.058l-.9-3.408h.666l.613 2.712.72-2.712h.687l.701 2.712.613-2.712h.672l-.925 3.408h-.74l-.676-2.527-.696 2.527h-.735zm4.224 0v-3.408h2.224v.502h-1.601v.934h1.455v.487h-1.455v.983h1.601v.502H68.76zm2.814 0v-3.408h1.163c.4 0 .727.072.984.214.26.14.45.338.574.594.127.253.19.552.19.896s-.063.644-.19.9a1.335 1.335 0 01-.574.594c-.257.14-.585.21-.984.21h-1.163zm.623-.536h.511c.286 0 .511-.045.677-.136a.803.803 0 00.355-.4c.072-.174.107-.385.107-.632a1.65 1.65 0 00-.107-.628.8.8 0 00-.355-.404c-.166-.094-.391-.141-.677-.141h-.511v2.341zm-28.491.536V90.46h-.992v-.502h2.614v.502h-.998v2.906h-.623zm3.397.058c-.25 0-.475-.049-.676-.146a1.155 1.155 0 01-.482-.453c-.117-.2-.175-.456-.175-.764V89.96h.623v2.108c0 .266.063.464.19.594.13.13.308.195.535.195.224 0 .4-.065.53-.195s.195-.328.195-.594V89.96h.623v2.103c0 .308-.061.563-.185.764a1.172 1.172 0 01-.496.453 1.564 1.564 0 01-.682.146zm1.999-.058v-3.408h2.225v.502h-1.602v.934h1.456v.487h-1.456v.983h1.602v.502h-2.225zm-30.042 0v-3.408h.74l1.086 2.162 1.071-2.162h.74v3.408h-.623v-2.352l-.95 1.865h-.49l-.95-1.864v2.35h-.623zm5.895.058c-.34 0-.64-.075-.896-.224a1.612 1.612 0 01-.599-.618 1.916 1.916 0 01-.214-.92c0-.347.072-.652.215-.915a1.6 1.6 0 01.598-.623c.257-.15.555-.224.896-.224.337 0 .634.074.89.224.257.149.457.357.6.623.142.263.214.568.214.915 0 .347-.072.654-.215.92a1.568 1.568 0 01-.598.618c-.257.15-.554.224-.891.224zm0-.56c.324 0 .582-.107.774-.321.195-.214.292-.508.292-.881s-.098-.667-.292-.881c-.192-.214-.45-.322-.774-.322-.325 0-.584.108-.779.322-.195.214-.292.508-.292.88 0 .374.097.668.292.882.195.214.454.321.779.321zm2.254.502v-3.408h.623l1.601 2.4v-2.4h.623v3.408h-.623l-1.601-2.395v2.395h-.623z" fill="#AAA7A7"/><path d="M128.255 42.742a2.434 2.434 0 014.868 0v39.916a2.434 2.434 0 01-4.868 0V42.742zm21.418 0a2.434 2.434 0 014.868 0v39.916a2.434 2.434 0 01-4.868 0V42.742z" fill="#EDEDED"/><path d="M109.271 42.742a2.433 2.433 0 114.867 0v39.916a2.433 2.433 0 11-4.867 0V42.742z" fill="#F7D4BE"/><path d="M88.826 63.187a2.434 2.434 0 114.867 0v19.47a2.434 2.434 0 01-4.867 0v-19.47z" fill="#9ED7A3"/><path d="M88.826 50.53a2.434 2.434 0 114.867 0v7.302a2.434 2.434 0 01-4.867 0V50.53z" fill="#E0BFF2"/><path d="M88.826 42.742a2.434 2.434 0 014.867 0v1.947a2.434 2.434 0 11-4.867 0v-1.947z" fill="#F7D4BE"/><path d="M66.435 63.187a2.434 2.434 0 014.868 0v19.47a2.434 2.434 0 01-4.868 0v-19.47z" fill="#9ED7A3"/><path d="M66.435 47.61a2.434 2.434 0 114.867 0v10.222a2.434 2.434 0 01-4.867 0V47.61z" fill="#E0BFF2"/><path d="M44.53 63.187a2.434 2.434 0 014.867 0v19.47a2.434 2.434 0 01-4.868 0v-19.47z" fill="#9ED7A3"/><path d="M44.53 50.53a2.434 2.434 0 014.867 0v7.302a2.434 2.434 0 01-4.868 0v-7.301z" fill="#E0BFF2"/><path d="M44.53 42.742a2.434 2.434 0 014.867 0v1.947a2.434 2.434 0 11-4.867 0v-1.947z" fill="#F7D4BE"/><path d="M21.65 56.372a2.434 2.434 0 114.869 0v26.286a2.434 2.434 0 01-4.868 0V56.372z" fill="#9ED7A3"/><path d="M21.651 43.229a2.434 2.434 0 014.868 0v7.302a2.434 2.434 0 01-4.868 0v-7.302z" fill="#E0BFF2"/><path d="M19.555 27.652v-7.978h2.613c.828 0 1.546.167 2.153.503a3.475 3.475 0 011.424 1.392c.335.6.503 1.296.503 2.088 0 .786-.168 1.482-.503 2.089-.336.6-.81 1.067-1.424 1.403-.607.335-1.325.503-2.153.503h-2.613zm1.264-1.125h1.37c.564 0 1.053-.117 1.468-.353.42-.235.746-.567.974-.996.229-.428.343-.935.343-1.52 0-.586-.118-1.09-.354-1.51a2.444 2.444 0 00-.963-.997c-.415-.235-.904-.353-1.468-.353h-1.37v5.73zm8.239 1.253c-.393 0-.74-.067-1.04-.203a1.712 1.712 0 01-.685-.578 1.562 1.562 0 01-.246-.878c0-.315.068-.597.204-.846.142-.25.36-.461.653-.632.293-.172.66-.293 1.103-.364l2.013-.332v.953l-1.778.31c-.32.057-.556.16-.706.31a.734.734 0 00-.225.558c0 .221.082.403.246.546.171.136.39.203.653.203.329 0 .614-.071.857-.214.25-.143.443-.332.578-.567a1.62 1.62 0 00.204-.804v-1.488a.864.864 0 00-.322-.696c-.207-.186-.485-.279-.835-.279a1.43 1.43 0 00-.846.257c-.235.165-.41.379-.525.643l-1.006-.503c.107-.286.282-.536.524-.75.243-.221.525-.393.846-.514a2.972 2.972 0 011.04-.182c.456 0 .86.085 1.21.257.356.171.631.41.824.717.2.3.3.65.3 1.05v3.898h-1.157v-1.05l.247.033c-.136.235-.31.439-.525.61a2.263 2.263 0 01-.718.396 2.67 2.67 0 01-.889.14zm4.456-.128v-5.794h1.21v5.794h-1.21zm0-6.586v-1.392h1.21v1.392h-1.21zm2.625 6.586v-8.107h1.21v8.107h-1.21zm3.139 2.367a2.23 2.23 0 01-.429-.043 1.524 1.524 0 01-.374-.107v-1.04c.085.022.189.04.31.055.122.02.24.032.354.032.335 0 .581-.075.738-.225.165-.143.311-.368.44-.675l.385-.878-.021 1.017-2.506-6.297h1.296l1.852 4.83h-.439l1.842-4.83h1.307l-2.56 6.426a3.44 3.44 0 01-.514.9c-.2.264-.439.467-.717.61-.272.15-.593.225-.964.225zm6.866-2.367l2.806-7.978h1.563l2.806 7.978h-1.35l-.61-1.789h-3.245l-.62 1.789h-1.35zm2.334-2.913h2.496l-1.414-4.177h.353l-1.435 4.177zm8.212 3.041c-.578 0-1.092-.132-1.541-.396a3.049 3.049 0 01-1.06-1.092 3.112 3.112 0 01-.386-1.553c0-.571.128-1.085.385-1.542.257-.457.61-.814 1.06-1.07.45-.265.964-.397 1.543-.397.392 0 .76.071 1.103.214.342.136.639.325.889.568.257.242.446.524.567.846l-1.06.492a1.525 1.525 0 00-.59-.717 1.544 1.544 0 00-.91-.279 1.65 1.65 0 00-1.5.92c-.148.287-.223.612-.223.976s.075.692.224.985c.15.286.354.51.61.675.265.164.561.246.89.246.35 0 .653-.09.91-.268.264-.185.46-.432.589-.739l1.06.504a2.26 2.26 0 01-.557.835 2.868 2.868 0 01-2.003.792zm6.249-.064c-.607 0-1.078-.171-1.414-.514-.335-.343-.503-.824-.503-1.446v-2.805h-1.017v-1.093h.16c.272 0 .482-.078.632-.235.15-.157.225-.372.225-.643v-.45h1.21v1.328h1.317v1.093h-1.317v2.752c0 .2.032.371.096.514a.71.71 0 00.311.321c.143.072.328.107.557.107.057 0 .121-.003.193-.01l.203-.022v1.039c-.1.014-.21.028-.332.043a2.806 2.806 0 01-.321.021zm1.834-.064v-5.794h1.21v5.794h-1.21zm0-6.586v-1.392h1.21v1.392h-1.21zm4.307 6.586l-2.271-5.794h1.317l1.746 4.723h-.482l1.745-4.723h1.328l-2.28 5.794h-1.104zm4.206 0v-5.794h1.21v5.794h-1.21zm0-6.586v-1.392h1.21v1.392h-1.21zm5.131 6.65c-.607 0-1.078-.171-1.414-.514-.335-.343-.503-.824-.503-1.446v-2.805h-1.017v-1.093h.16c.271 0 .482-.078.632-.235.15-.157.225-.372.225-.643v-.45h1.21v1.328h1.317v1.093H77.71v2.752c0 .2.032.371.096.514a.709.709 0 00.31.321c.144.072.33.107.558.107.057 0 .121-.003.193-.01l.203-.022v1.039c-.1.014-.21.028-.332.043a2.803 2.803 0 01-.321.021zm1.834-.064v-5.794h1.21v5.794h-1.21zm0-6.586v-1.392h1.21v1.392h-1.21zm5.345 6.714c-.578 0-1.092-.132-1.542-.396a2.88 2.88 0 01-1.039-1.092 3.222 3.222 0 01-.375-1.553c0-.585.125-1.103.375-1.553.257-.45.6-.803 1.028-1.06a2.718 2.718 0 011.457-.396c.435 0 .824.075 1.167.225.343.15.632.357.867.62.236.258.414.554.536.89.128.335.193.692.193 1.07 0 .093-.004.19-.011.29-.007.1-.021.192-.043.278h-4.616v-.964h3.93l-.578.44c.072-.35.047-.661-.075-.932a1.382 1.382 0 00-.535-.653 1.424 1.424 0 00-.835-.247c-.322 0-.607.082-.857.247a1.52 1.52 0 00-.578.685c-.136.293-.19.65-.161 1.07-.036.393.018.736.16 1.029a1.7 1.7 0 00.622.685c.271.164.578.246.92.246.35 0 .647-.078.89-.235.25-.157.446-.36.589-.61l.985.481a2.104 2.104 0 01-.536.74 2.685 2.685 0 01-.856.513 3.098 3.098 0 01-1.082.182zm5.989 0c-.592 0-1.113-.146-1.563-.439a2.332 2.332 0 01-.932-1.178l.932-.439c.157.329.371.59.642.782.279.193.586.29.921.29.286 0 .518-.065.697-.194a.613.613 0 00.267-.524.487.487 0 00-.118-.343.873.873 0 00-.3-.225 1.619 1.619 0 00-.353-.128l-.91-.257c-.5-.143-.875-.357-1.124-.643a1.546 1.546 0 01-.365-1.017c0-.35.09-.654.268-.91.179-.265.425-.468.739-.611a2.534 2.534 0 011.06-.214c.529 0 1 .132 1.414.396.414.257.707.618.878 1.082l-.932.439a1.423 1.423 0 00-.546-.664 1.438 1.438 0 00-.825-.247c-.264 0-.474.065-.631.193a.58.58 0 00-.236.482c0 .136.036.25.107.343a.85.85 0 00.279.214c.114.05.232.093.353.128l.942.279c.479.136.846.35 1.103.642.257.286.386.629.386 1.029 0 .342-.093.646-.278.91a1.83 1.83 0 01-.75.61 2.75 2.75 0 01-1.125.214z" fill="#000"/></svg>