<svg width="262" height="196" fill="none" xmlns="http://www.w3.org/2000/svg"><g filter="url(#filter0_d_0_999)"><path d="M50.836 53.734A3.731 3.731 0 0154.564 50h153.213a3.731 3.731 0 013.728 3.734v87.94a3.731 3.731 0 01-3.728 3.734H54.564a3.731 3.731 0 01-3.728-3.734v-87.94z" fill="#fff"/></g><path d="M61.477 112.157a1.87 1.87 0 011.875-1.862h22.496c1.036 0 1.875.834 1.875 1.862v18.621a1.87 1.87 0 01-1.875 1.862H63.352a1.869 1.869 0 01-1.875-1.862v-18.621z" fill="#F7F9FF"/><path d="M72.117 127.854v-.305h.646v-.607h.314v.607h.645v.305h-.645v.61h-.314v-.61h-.646zm3.008.885a.999.999 0 01-.56-.155 1.025 1.025 0 01-.358-.435 1.619 1.619 0 01-.123-.652c0-.247.04-.463.123-.648a.996.996 0 01.358-.435.977.977 0 01.56-.158.96.96 0 01.557.158.974.974 0 01.355.435c.084.185.127.401.127.648s-.043.464-.127.652a1 1 0 01-.355.435.982.982 0 01-.557.155zm0-.326a.57.57 0 00.345-.11.708.708 0 00.24-.315c.056-.138.085-.301.085-.491s-.029-.353-.086-.49a.716.716 0 00-.239-.316.57.57 0 00-.345-.109.575.575 0 00-.348.109.728.728 0 00-.236.316c-.056.137-.085.3-.085.49s.028.353.085.491a.719.719 0 00.236.315c.1.073.216.11.348.11zm1.435.305a.24.24 0 01-.17-.065.228.228 0 01-.066-.161.23.23 0 01.236-.23.22.22 0 01.168.069.219.219 0 01.064.161.228.228 0 01-.064.161.228.228 0 01-.168.065zm1.7-.021v-.48h-1.199v-.288l1.141-1.632h.417v1.605h.335v.315h-.335v.48h-.359zm-.806-.795h.827v-1.204l-.827 1.204zm2.269-.46a.588.588 0 01-.29-.072.535.535 0 01-.202-.202.64.64 0 01-.075-.319c0-.121.025-.225.075-.312a.524.524 0 01.205-.206.588.588 0 01.29-.072c.105 0 .2.024.284.072a.524.524 0 01.205.206c.05.087.075.191.075.312a.64.64 0 01-.075.319.527.527 0 01-.205.202.57.57 0 01-.287.072zm-.17 1.255l1.369-2.4h.355l-1.366 2.4h-.359zm.17-1.515a.251.251 0 00.188-.083c.054-.057.082-.14.082-.25 0-.11-.026-.192-.079-.247a.257.257 0 00-.382 0c-.055.055-.082.137-.082.247 0 .11.026.193.078.25.055.055.12.083.195.083zm1.403 1.557a.537.537 0 01-.492-.275.64.64 0 01-.074-.319c0-.121.025-.226.075-.315a.524.524 0 01.205-.206.588.588 0 01.29-.072c.105 0 .2.024.283.072a.524.524 0 01.205.206c.05.089.076.194.076.315a.64.64 0 01-.076.319.53.53 0 01-.205.203.569.569 0 01-.287.072zm0-.264a.251.251 0 00.188-.083c.055-.055.082-.137.082-.247 0-.109-.026-.192-.078-.247a.256.256 0 00-.383 0c-.054.055-.082.138-.082.247 0 .11.026.192.079.247.055.055.12.083.194.083zm-12.024-2.574c-.885 0-1.596.717-1.596 1.596a1.59 1.59 0 001.596 1.596c.88 0 1.596-.71 1.596-1.596a1.6 1.6 0 00-1.596-1.596zm.836 1.939a.192.192 0 01-.28 0l-.556-.555-.56.555a.192.192 0 01-.281 0 .192.192 0 010-.28l.698-.699a.204.204 0 01.143-.062c.05 0 .1.025.138.062l.698.699a.192.192 0 010 .28z" fill="#18DF68"/><path d="M68.691 121.956a2.25 2.25 0 01-.954-.198 1.802 1.802 0 01-.684-.551 1.252 1.252 0 01-.256-.763c0-.181.023-.345.068-.492.05-.146.122-.278.218-.396.1-.117.22-.22.36-.308.14-.088.304-.164.489-.227l-.075.256a1.885 1.885 0 01-.376-.19 1.474 1.474 0 01-.286-.265 1.315 1.315 0 01-.18-.315 1.17 1.17 0 01.173-1.079c.155-.21.363-.377.624-.499.26-.127.553-.191.88-.191.32 0 .61.064.871.191.26.122.468.289.624.499a1.17 1.17 0 01.173 1.079 1.05 1.05 0 01-.173.308c-.075.093-.17.179-.286.257-.11.078-.24.147-.39.205l-.046-.227c.166.049.316.117.451.205.14.084.258.186.354.309a1.311 1.311 0 01.315.88c0 .284-.085.541-.255.771a1.74 1.74 0 01-.684.543 2.248 2.248 0 01-.955.198zm0-.903c.15 0 .288-.029.413-.088a.736.736 0 00.294-.235.608.608 0 00.105-.352.619.619 0 00-.105-.359.735.735 0 00-.293-.257.866.866 0 00-.414-.096.912.912 0 00-.42.096.747.747 0 00-.286.257.618.618 0 00-.106.359c0 .127.035.242.106.345a.8.8 0 00.285.242.976.976 0 00.421.088zm0-2.282a.845.845 0 00.36-.073.688.688 0 00.249-.206.505.505 0 00.098-.308.492.492 0 00-.098-.301.632.632 0 00-.248-.22.779.779 0 00-.36-.081.826.826 0 00-.37.081.69.69 0 00-.255.22.52.52 0 00-.09.301c0 .117.03.22.09.308a.76.76 0 00.256.206c.11.049.233.073.368.073zm4.854 3.163v-4.154l.526.03-1.849 2.209-.127-.184h3.412v.932h-3.961l-.466-.866 2.653-3.133h.902v5.166h-1.09zm3.423 0l3.48-5.137h1.008l-3.518 5.137h-.97zm.391-2.414c-.245 0-.466-.062-.661-.184a1.294 1.294 0 01-.451-.499 1.649 1.649 0 01-.158-.734c0-.274.053-.518.158-.734a1.2 1.2 0 011.112-.689 1.182 1.182 0 011.098.689c.11.216.165.46.165.734 0 .269-.055.512-.165.727-.11.21-.26.379-.451.506-.19.122-.406.184-.647.184zm0-.69a.34.34 0 00.233-.088.513.513 0 00.143-.25c.035-.112.053-.242.053-.389 0-.146-.018-.276-.053-.389a.511.511 0 00-.143-.256.347.347 0 00-.474.007.562.562 0 00-.15.257 1.235 1.235 0 00-.052.381c0 .147.017.277.052.389a.563.563 0 00.15.25.37.37 0 00.241.088zm3.788 3.17a1.215 1.215 0 01-1.112-.683 1.568 1.568 0 01-.165-.726c0-.279.052-.526.158-.741.11-.215.26-.384.45-.507a1.24 1.24 0 01.67-.183c.245 0 .463.061.654.183.19.123.338.292.443.507.105.215.158.462.158.741 0 .264-.055.504-.166.719a1.28 1.28 0 01-.45.506 1.129 1.129 0 01-.64.184zm0-.683c.086 0 .16-.029.226-.088a.576.576 0 00.158-.257c.035-.107.052-.234.052-.381 0-.152-.017-.281-.052-.389a.53.53 0 00-.158-.257.333.333 0 00-.466 0 .617.617 0 00-.158.257 1.263 1.263 0 00-.052.389c0 .147.017.274.052.381a.614.614 0 00.15.257c.07.059.153.088.248.088z" fill="#000"/><path d="M195.41 131.576a1.77 1.77 0 01-.662-.115 1.068 1.068 0 01-.452-.335.882.882 0 01-.171-.533h.657a.519.519 0 00.171.366c.11.097.261.145.453.145a.655.655 0 00.394-.106.347.347 0 00.146-.291.356.356 0 00-.132-.295.958.958 0 00-.34-.172l-.458-.141c-.263-.083-.464-.188-.604-.318a.678.678 0 01-.204-.516.734.734 0 01.141-.467.956.956 0 01.409-.304c.172-.074.37-.11.594-.11.227 0 .427.036.599.11a.945.945 0 01.409.309c.1.132.154.289.16.471h-.667a.391.391 0 00-.141-.286c-.087-.086-.211-.128-.37-.128a.575.575 0 00-.345.092.31.31 0 00-.137.274c0 .103.036.185.107.247a.952.952 0 00.293.15c.123.041.264.085.423.132.169.053.323.114.463.185a.918.918 0 01.335.282.73.73 0 01.127.446.8.8 0 01-.136.449.97.97 0 01-.404.335 1.558 1.558 0 01-.658.124z" fill="#B3B3B3"/><path d="M189.869 95.267c0-.515.411-.932.917-.932h9.162c.506 0 .916.417.916.933v30.409c0 .516-.41.933-.916.933h-9.162a.925.925 0 01-.917-.933v-30.41z" fill="#B6E6FF"/><path d="M181.749 131.576a1.32 1.32 0 01-.567-.115.94.94 0 01-.388-.335.98.98 0 01-.146-.533h.563a.556.556 0 00.146.366.517.517 0 00.388.145.503.503 0 00.338-.106.366.366 0 00.125-.291.384.384 0 00-.112-.295.801.801 0 00-.292-.172l-.393-.141a1.302 1.302 0 01-.517-.318c-.117-.129-.175-.301-.175-.516a.812.812 0 01.121-.467.841.841 0 01.35-.304c.148-.074.317-.11.509-.11.195 0 .366.036.513.11a.827.827 0 01.351.309.9.9 0 01.138.471h-.572a.42.42 0 00-.121-.286.398.398 0 00-.317-.128.44.44 0 00-.296.092c-.078.062-.117.153-.117.274 0 .103.03.185.092.247a.77.77 0 00.25.15c.106.041.227.085.363.132.145.053.277.114.396.185.12.071.216.165.288.282a.819.819 0 01.109.446.873.873 0 01-.463.784 1.17 1.17 0 01-.564.124z" fill="#B3B3B3"/><path d="M176.037 111.222c0-.512.424-.927.946-.927h9.458c.522 0 .946.415.946.927v14.461a.937.937 0 01-.946.927h-9.458a.937.937 0 01-.946-.927v-14.461z" fill="#B6E6FF"/><path d="M167.17 131.576v-3.192h1.773v.47h-1.271v.894h1.028v.46h-1.028v1.368h-.502zm-4.61-27.09c0-.513.41-.929.916-.929h9.162c.506 0 .917.416.917.929v21.195c0 .513-.411.93-.917.93h-9.162a.923.923 0 01-.916-.93v-21.195z" fill="#4CC5FE"/><path d="M154.281 131.576v-2.723h-.943v-.469h2.483v.469h-.948v2.723h-.592z" fill="#B3B3B3"/><path d="M148.727 108.752c0-.519.424-.94.946-.94h9.458c.522 0 .946.421.946.94v16.918c0 .52-.424.94-.946.94h-9.458a.943.943 0 01-.946-.94v-16.918z" fill="#B6E6FF"/><path d="M139.617 131.576l-.82-3.192h.607l.559 2.54.656-2.54h.625l.638 2.54.559-2.54h.612l-.843 3.192h-.673l-.617-2.367-.634 2.367h-.669z" fill="#B3B3B3"/><path d="M135.249 99.163c0-.512.424-.927.946-.927h9.458c.522 0 .946.415.946.927v26.52a.937.937 0 01-.946.927h-9.458a.937.937 0 01-.946-.927v-26.52z" fill="#B6E6FF"/><path d="M126.971 131.576v-2.723h-.943v-.469h2.483v.469h-.948v2.723h-.592z" fill="#B3B3B3"/><path d="M121.772 116.92c0-.525.41-.95.916-.95h9.162c.506 0 .917.425.917.95v8.74c0 .525-.411.95-.917.95h-9.162c-.506 0-.916-.425-.916-.95v-8.74z" fill="#B6E6FF"/><path d="M111.84 131.576v-3.192h.722l1.059 2.024 1.044-2.024h.722v3.192h-.608v-2.203l-.926 1.747h-.479l-.926-1.747v2.203h-.608z" fill="#B3B3B3"/><path d="M107.939 104.486c0-.514.424-.93.946-.93h9.458c.522 0 .946.416.946.93v21.195a.938.938 0 01-.946.929h-9.458a.938.938 0 01-.946-.929v-21.195z" fill="#B6E6FF"/><path d="M160.786 89.842c0-1.044.834-1.891 1.862-1.891h11.173c1.028 0 1.862.847 1.862 1.891v7.567c0 1.044-.834 1.891-1.862 1.891h-11.173c-1.028 0-1.862-.847-1.862-1.891v-7.567z" fill="#171717"/><path d="M168.72 100.364l-2.259-1.33 3.901-.443-1.642 1.773z" fill="#171717"/><path d="M163.987 95.346l1.184-2.606h-1.547v-.48h2.139v.4l-1.18 2.686h-.596zm2.083 0v-.41c.192-.156.377-.31.556-.463.183-.153.344-.304.485-.454.143-.15.257-.296.341-.437a.819.819 0 00.13-.419.547.547 0 00-.108-.335c-.069-.097-.184-.145-.345-.145-.165 0-.289.053-.372.159a.598.598 0 00-.126.383h-.556c.006-.226.057-.414.152-.564a.882.882 0 01.381-.34c.159-.076.337-.114.534-.114.32 0 .568.086.745.26.179.17.269.392.269.665 0 .171-.04.337-.121.499a2.149 2.149 0 01-.31.467 4.16 4.16 0 01-.417.423c-.149.13-.294.25-.435.362h1.359v.463h-2.162zm3.285-1.57a.817.817 0 01-.39-.092.717.717 0 01-.278-.274.813.813 0 01-.104-.418c0-.162.035-.302.104-.42a.685.685 0 01.278-.268.797.797 0 01.394-.097.766.766 0 01.664.366.813.813 0 01.103.419.813.813 0 01-.103.418.723.723 0 01-.278.274.823.823 0 01-.39.092zm-.171 1.57l1.772-3.086h.561l-1.772 3.086h-.561zm.171-1.962a.301.301 0 00.224-.097c.063-.068.094-.166.094-.296 0-.129-.031-.227-.094-.295a.286.286 0 00-.224-.101.301.301 0 00-.229.101c-.06.068-.09.166-.09.296 0 .129.03.227.09.295a.308.308 0 00.229.097zm2.009 2.015a.823.823 0 01-.39-.093.723.723 0 01-.278-.273.813.813 0 01-.103-.419c0-.162.034-.3.103-.415a.692.692 0 01.278-.268.8.8 0 01.395-.097.769.769 0 01.664.365.799.799 0 01.103.415.823.823 0 01-.103.419.73.73 0 01-.669.366zm0-.393c.09 0 .165-.032.225-.097.062-.067.094-.166.094-.295 0-.13-.032-.228-.094-.295a.288.288 0 00-.225-.102.299.299 0 00-.228.102c-.06.067-.09.166-.09.295 0 .13.03.228.09.295a.305.305 0 00.228.097z" fill="#fff"/><path d="M171.072 64.956c0-1.012.834-1.833 1.862-1.833h26.069c1.028 0 1.862.82 1.862 1.833v7.33c0 1.012-.834 1.832-1.862 1.832h-26.069c-1.028 0-1.862-.82-1.862-1.832v-7.33z" fill="#F3F6FF"/><path d="M195.843 68.71l-.878.753a.174.174 0 01-.126.044c-.054 0-.1-.01-.133-.044l-.879-.754c-.12-.1-.033-.266.127-.266h1.763c.16 0 .246.167.126.266z" fill="#B5C4EE"/><path d="M176.037 69.821v-2.374h.433v2.035h1.047v.34h-1.48zm2.428.041a.803.803 0 01-.354-.068.495.495 0 01-.207-.186.494.494 0 01-.067-.255c0-.156.061-.282.182-.38.122-.097.304-.145.548-.145h.425v-.041c0-.115-.033-.2-.098-.254a.366.366 0 00-.243-.082.411.411 0 00-.23.065.262.262 0 00-.121.183h-.423a.605.605 0 01.122-.319.686.686 0 01.277-.207.927.927 0 01.378-.075c.239 0 .427.06.564.18.138.12.206.29.206.509v1.034h-.368l-.04-.27a.599.599 0 01-.551.312zm.098-.339c.124 0 .22-.04.287-.122a.585.585 0 00.132-.302h-.368c-.115 0-.197.022-.247.064a.191.191 0 00-.074.153.18.18 0 00.074.153c.05.036.115.054.196.054zm1.966.339a.997.997 0 01-.391-.071.694.694 0 01-.271-.204.585.585 0 01-.121-.298h.436a.287.287 0 00.108.17c.06.045.138.067.233.067.094 0 .163-.019.206-.057a.17.17 0 00.067-.133c0-.072-.031-.12-.094-.145a1.512 1.512 0 00-.264-.078 2.865 2.865 0 01-.219-.058 1.104 1.104 0 01-.206-.085.474.474 0 01-.149-.136.362.362 0 01-.057-.207c0-.149.058-.274.175-.376.12-.102.286-.153.5-.153.198 0 .356.047.473.14.119.092.19.22.213.383h-.409c-.025-.125-.118-.187-.28-.187a.324.324 0 00-.189.048.143.143 0 00-.065.118c0 .05.033.09.098.12.066.029.152.056.261.08.117.028.224.058.32.092.099.032.178.08.237.146.058.063.088.155.088.275a.478.478 0 01-.081.281.567.567 0 01-.244.197.904.904 0 01-.375.071zm1.776-.041a.65.65 0 01-.422-.129c-.106-.085-.159-.238-.159-.457v-.733h-.287v-.363h.287l.051-.451h.382v.451h.452v.363h-.452v.736c0 .082.017.138.05.17.036.029.097.044.183.044h.209v.37h-.294zm1.97 0l-.625-2.374h.463l.426 1.89.5-1.89h.476l.486 1.89.426-1.89h.466l-.642 2.374h-.513l-.47-1.76-.483 1.76h-.51zm3.557.041a.908.908 0 01-.449-.108.787.787 0 01-.308-.306.909.909 0 01-.111-.454c0-.174.036-.33.108-.465a.802.802 0 01.304-.315.89.89 0 01.459-.116c.165 0 .31.037.436.109a.818.818 0 01.399.794.83.83 0 01-.004.084h-1.273a.442.442 0 00.135.31.436.436 0 00.301.111.39.39 0 00.219-.058.371.371 0 00.135-.156h.439a.799.799 0 01-.429.495.835.835 0 01-.361.075zm.003-1.41a.454.454 0 00-.28.09.408.408 0 00-.155.272h.834a.366.366 0 00-.122-.264.402.402 0 00-.277-.099zm2.016 1.41a.908.908 0 01-.449-.108.78.78 0 01-.308-.306.909.909 0 01-.111-.454c0-.174.036-.33.108-.465a.795.795 0 01.304-.315.887.887 0 01.459-.116c.165 0 .31.037.436.109a.818.818 0 01.398.794l-.003.084h-1.273a.442.442 0 00.135.31.433.433 0 00.3.111c.088 0 .161-.02.22-.058a.371.371 0 00.135-.156h.439a.787.787 0 01-.429.495.838.838 0 01-.361.075zm.003-1.41a.452.452 0 00-.28.09.413.413 0 00-.156.272h.835a.37.37 0 00-.122-.264.404.404 0 00-.277-.099zm1.201 1.369V67.38h.433v1.442l.594-.682h.514l-.686.767.797.915h-.54l-.679-.844v.844h-.433zm-129.223.343v-3.715h.753l2.175 2.775h-.157a11.77 11.77 0 01-.04-.318l-.034-.318-.022-.335-.011-.366a15.08 15.08 0 01-.006-.424v-1.014h.826v3.715h-.764l-2.22-2.802.213.005c.02.184.034.341.045.472a8.765 8.765 0 01.051.584c.008.07.011.138.011.202.004.063.006.13.006.201v1.338h-.826zm5.804.053c-.322 0-.603-.062-.843-.186a1.41 1.41 0 01-.562-.51 1.372 1.372 0 01-.202-.742c0-.216.037-.414.112-.595.075-.18.18-.336.315-.467a1.36 1.36 0 01.477-.308 1.631 1.631 0 011.17-.005c.172.067.32.165.443.292.128.124.225.27.293.44.067.17.097.356.09.558l-.006.233h-2.389l-.129-.462h1.86l-.09.096v-.117a.48.48 0 00-.1-.26.56.56 0 00-.22-.18.703.703 0 00-.303-.064.906.906 0 00-.422.09.608.608 0 00-.258.266.92.92 0 00-.09.424c0 .17.037.317.112.44a.817.817 0 00.326.293c.142.067.31.1.5.1.131 0 .251-.019.36-.058.109-.039.225-.106.348-.202l.383.505a1.713 1.713 0 01-.765.371 1.831 1.831 0 01-.41.048zm2.508-.053l-.995-2.808h.832l.607 1.91-.124-.015.669-1.491h.472l.697 1.496-.135.01.607-1.91h.832l-1.012 2.808h-.579l-.703-1.598.09.011-.685 1.587h-.573zm6.9 0l-1.568-3.715h.894l.82 2.011c.045.11.083.207.113.292.034.082.062.16.084.234a5.3 5.3 0 01.141.435l-.163.005a6.827 6.827 0 01.191-.6c.037-.102.084-.224.14-.366l.776-2.011h.888l-1.58 3.715h-.736zm2.844 0v-2.808h.798v2.808h-.799zm.393-3.386a.551.551 0 01-.36-.106.37.37 0 01-.129-.303c0-.12.043-.217.13-.292a.53.53 0 01.359-.116c.153 0 .273.037.36.111.086.07.129.17.129.297a.366.366 0 01-.135.297.524.524 0 01-.354.112zm2.257 3.439c-.277 0-.524-.043-.742-.128a1.35 1.35 0 01-.517-.36l.495-.404c.116.117.245.202.388.255.142.05.284.074.427.074a.49.49 0 00.275-.069.226.226 0 00.073-.085.234.234 0 00.028-.111.214.214 0 00-.1-.186 1.499 1.499 0 00-.175-.064 3.504 3.504 0 00-.303-.09 2.853 2.853 0 01-.49-.159 1.171 1.171 0 01-.314-.212.888.888 0 01-.157-.239.813.813 0 01-.051-.292.67.67 0 01.09-.345.828.828 0 01.247-.27 1.25 1.25 0 01.371-.17 1.49 1.49 0 01.438-.064c.154 0 .304.018.45.053.146.035.281.087.405.154.127.064.238.14.331.228l-.427.446a1.369 1.369 0 00-.23-.165 1.196 1.196 0 00-.259-.116.815.815 0 00-.416-.027.384.384 0 00-.123.048.222.222 0 00-.079.085.246.246 0 00.006.217.302.302 0 00.09.09c.04.022.1.047.18.075.082.028.192.06.331.096.18.046.332.097.455.153a.999.999 0 01.304.197.6.6 0 01.14.217c.03.082.045.172.045.271a.752.752 0 01-.157.467c-.101.134-.242.24-.422.318-.18.075-.382.112-.607.112zm1.822-.053v-2.808h.799v2.808h-.799zm.394-3.386a.55.55 0 01-.36-.106.369.369 0 01-.129-.303c0-.12.043-.217.13-.292a.53.53 0 01.359-.116c.154 0 .273.037.36.111.086.07.129.17.129.297a.366.366 0 01-.135.297.524.524 0 01-.354.112zm1.544 3.386v-3.519h.798v3.519h-.798zm-.557-2.134v-.674h1.962v.674H85.74zm3.837 2.187a1.75 1.75 0 01-.815-.186 1.486 1.486 0 01-.562-.52 1.41 1.41 0 01-.202-.754c0-.283.067-.532.202-.748.139-.22.326-.393.562-.52a1.71 1.71 0 01.815-.191c.3 0 .567.064.804.191a1.39 1.39 0 01.764 1.268c0 .283-.068.535-.202.754-.135.22-.323.393-.562.52a1.705 1.705 0 01-.804.186zm0-.658a.77.77 0 00.393-.101.73.73 0 00.27-.287.852.852 0 00.101-.414.832.832 0 00-.1-.413.742.742 0 00-.663-.393.752.752 0 00-.675.392.792.792 0 00-.096.414.77.77 0 00.371.7.774.774 0 00.399.102zm2.168.605v-2.808h.77l.028.903-.135-.186c.045-.145.118-.276.22-.393.1-.12.219-.214.354-.281a.98.98 0 01.618-.085c.06.01.11.023.152.037l-.214.828a.779.779 0 00-.163-.053.732.732 0 00-.45.021.546.546 0 00-.196.127.6.6 0 00-.135.192.646.646 0 00-.045.244v1.454h-.804z" fill="#000"/><defs><filter id="filter0_d_0_999" x=".836" y="0" width="260.669" height="195.408" filterUnits="userSpaceOnUse" color-interpolation-filters="sRGB"><feFlood flood-opacity="0" result="BackgroundImageFix"/><feColorMatrix in="SourceAlpha" values="0 0 0 0 0 0 0 0 0 0 0 0 0 0 0 0 0 0 127 0" result="hardAlpha"/><feOffset/><feGaussianBlur stdDeviation="25"/><feComposite in2="hardAlpha" operator="out"/><feColorMatrix values="0 0 0 0 0 0 0 0 0 0 0 0 0 0 0 0 0 0 0.07 0"/><feBlend in2="BackgroundImageFix" result="effect1_dropShadow_0_999"/><feBlend in="SourceGraphic" in2="effect1_dropShadow_0_999" result="shape"/></filter></defs></svg>