<svg width="204" height="99" fill="none" xmlns="http://www.w3.org/2000/svg"><path d="M0 5.203A4.868 4.868 0 014.868.335h193.737a4.868 4.868 0 014.868 4.868v219.049a4.869 4.869 0 01-4.868 4.868H4.868A4.868 4.868 0 010 224.252V5.202z" fill="#fff"/><path d="M185.462 71.404a.974.974 0 11-1.947 0 .974.974 0 011.947 0zm0 3.408a.974.974 0 11-1.947 0 .974.974 0 011.947 0zm0 3.408a.974.974 0 11-1.947-.001.974.974 0 011.947 0z" fill="#3E3E3E"/><path d="M20.873 92.424c-.5 0-.942-.11-1.321-.329a2.37 2.37 0 01-.884-.935c-.209-.399-.314-.859-.314-1.38 0-.52.105-.978.314-1.372.215-.4.509-.711.884-.935.38-.224.82-.336 1.321-.336.507 0 .947.112 1.322.336.38.224.674.535.883.935.21.394.314.852.314 1.372 0 .521-.104.981-.314 1.38-.209.4-.503.711-.883.935-.375.219-.815.329-1.322.329zm0-.54c.375 0 .704-.084.986-.249.287-.17.509-.411.665-.723.16-.316.24-.694.24-1.132 0-.438-.08-.813-.24-1.124a1.66 1.66 0 00-.665-.716 1.871 1.871 0 00-.986-.255 1.91 1.91 0 00-.993.255 1.72 1.72 0 00-.664.716c-.156.311-.234.686-.234 1.124 0 .438.078.816.234 1.132.16.312.382.553.664.723.288.165.619.248.993.248zm3.367.452v-3.622h.556l.036.65c.117-.229.285-.409.504-.54a1.42 1.42 0 01.745-.197c.428 0 .769.131 1.022.394.258.258.387.657.387 1.197v2.118h-.613v-2.052c0-.754-.312-1.132-.935-1.132-.311 0-.572.115-.781.344-.205.224-.307.545-.307.963v1.877h-.613zm6.148 0v-5.111h1.796c.36 0 .658.058.891.175.239.112.416.268.533.467.117.195.175.414.175.657 0 .332-.09.592-.27.782-.175.19-.387.321-.635.394a1.223 1.223 0 01.883.665c.093.175.14.367.14.576 0 .258-.064.494-.19.709a1.358 1.358 0 01-.563.503c-.248.122-.55.183-.905.183h-1.855zm.613-2.877h1.14c.326 0 .576-.075.752-.226.175-.156.263-.37.263-.643a.79.79 0 00-.263-.62c-.17-.156-.429-.234-.774-.234h-1.117v1.723zm0 2.366h1.176c.35 0 .62-.08.81-.241.19-.166.285-.394.285-.687 0-.287-.1-.516-.3-.686-.199-.175-.469-.263-.81-.263h-1.16v1.877zm5.371.599c-.345 0-.652-.078-.92-.234a1.737 1.737 0 01-.635-.665 2.092 2.092 0 01-.226-1c0-.38.075-.71.226-.993.151-.287.36-.509.628-.664.273-.161.587-.241.942-.241a1.659 1.659 0 011.497.861 1.755 1.755 0 01.197.993v.183h-2.884c.014.277.078.508.19.694.116.18.26.316.43.408.176.093.36.14.555.14.253 0 .465-.06.636-.176.17-.117.294-.275.372-.475h.606a1.647 1.647 0 01-.562.84c-.273.219-.623.329-1.052.329zm0-3.279c-.292 0-.552.09-.781.27-.224.175-.353.433-.387.774h2.278c-.014-.326-.126-.581-.336-.766a1.127 1.127 0 00-.774-.278zm2.529 3.191v-5.257h.613v2.256c.122-.224.295-.397.519-.518a1.46 1.46 0 01.73-.19c.419 0 .755.131 1.008.394.253.258.38.657.38 1.197v2.118h-.607v-2.052c0-.754-.304-1.132-.912-1.132-.317 0-.582.115-.796.344-.214.224-.322.545-.322.963v1.877h-.613zm5.383.088c-.301 0-.552-.052-.752-.154a1.042 1.042 0 01-.591-.964c0-.37.141-.654.423-.854.283-.2.667-.3 1.154-.3h.978v-.043c0-.316-.082-.555-.248-.716-.165-.165-.387-.248-.664-.248-.239 0-.446.06-.62.183a.775.775 0 00-.322.518h-.628a1.17 1.17 0 01.263-.664c.155-.18.348-.317.577-.41.228-.097.472-.145.73-.145.506 0 .886.136 1.139.409.258.267.387.625.387 1.073v2.227h-.548l-.036-.65c-.103.204-.254.38-.453.526-.195.141-.458.212-.789.212zm.095-.519a.98.98 0 00.599-.182c.17-.122.3-.28.387-.475.088-.195.131-.4.131-.613v-.008h-.927c-.36 0-.616.064-.767.19a.574.574 0 00-.219.46c0 .19.069.343.205.46.141.112.338.168.591.168zm2.651.431v-5.257h.613v5.257h-.613zm1.816 0v-3.103h-.548v-.519h.548v-.628c0-.35.087-.606.263-.766.175-.16.43-.241.766-.241h.365v.526h-.27c-.185 0-.316.038-.394.116-.078.073-.117.2-.117.38v.613h.89v.519h-.89v3.103h-.613zm6.524.088c-.5 0-.941-.11-1.32-.329a2.37 2.37 0 01-.884-.935c-.21-.399-.314-.859-.314-1.38 0-.52.104-.978.314-1.372.214-.4.508-.711.883-.935.38-.224.82-.336 1.322-.336.506 0 .947.112 1.321.336.38.224.675.535.884.935.21.394.314.852.314 1.372 0 .521-.105.981-.314 1.38-.21.4-.504.711-.884.935-.374.219-.815.329-1.321.329zm0-.54c.376 0 .704-.084.987-.249.287-.17.508-.411.664-.723.16-.316.241-.694.241-1.132 0-.438-.08-.813-.241-1.124a1.662 1.662 0 00-.664-.716 1.872 1.872 0 00-.986-.255 1.91 1.91 0 00-.993.255 1.72 1.72 0 00-.665.716c-.155.311-.233.686-.233 1.124 0 .438.078.816.233 1.132.161.312.383.553.665.723.287.165.618.248.993.248zm3.565.452v-3.103h-.547v-.519h.547v-.628c0-.35.088-.606.263-.766.175-.16.431-.241.767-.241h.365v.526h-.27c-.185 0-.317.038-.395.116-.077.073-.116.2-.116.38v.613h.89v.519h-.89v3.103h-.614zm3.882 0l1.884-5.111h.65l1.877 5.11h-.65l-.468-1.313h-2.175l-.475 1.314h-.643zm1.3-1.81h1.81l-.905-2.527-.905 2.526zm3.833 1.81v-5.257h.614v5.257h-.613zm1.62 0v-5.257h.613v5.257h-.614zm5.215.088c-.375 0-.7-.069-.978-.205a1.528 1.528 0 01-.643-.57 1.574 1.574 0 01-.226-.846h.642c0 .2.047.384.14.555.092.165.225.299.4.401.18.097.402.146.665.146.346 0 .614-.083.803-.248a.79.79 0 00.285-.62c0-.205-.044-.368-.131-.49a.962.962 0 00-.358-.307 2.797 2.797 0 00-.511-.204c-.19-.058-.39-.124-.599-.197-.394-.136-.686-.305-.876-.504-.19-.204-.285-.47-.285-.796a1.286 1.286 0 01.19-.723 1.31 1.31 0 01.555-.496c.243-.122.53-.183.861-.183.327 0 .609.061.848.183a1.378 1.378 0 01.774 1.234h-.643a.872.872 0 00-.11-.416.842.842 0 00-.335-.344 1.064 1.064 0 00-.555-.131c-.278-.005-.507.066-.687.212-.175.146-.263.348-.263.606 0 .219.061.387.183.504.127.116.302.214.526.291l.774.256c.243.088.462.19.657.307.194.117.345.267.452.453.112.184.168.42.168.708 0 .243-.063.474-.19.693-.126.215-.318.39-.576.526-.253.136-.572.205-.957.205zm3.988-.088c-.331 0-.592-.08-.781-.241-.19-.16-.285-.45-.285-.869v-1.993h-.628v-.519h.628l.08-.869h.533v.87h1.066v.518H78.32v1.993c0 .229.046.385.139.467.092.078.255.117.489.117h.38v.526h-.555zm2.597.088c-.302 0-.552-.052-.752-.154a1.042 1.042 0 01-.591-.964c0-.37.14-.654.423-.854.282-.2.667-.3 1.154-.3h.978v-.043c0-.316-.082-.555-.248-.716-.166-.165-.387-.248-.665-.248-.238 0-.445.06-.62.183a.775.775 0 00-.321.518H80.1a1.17 1.17 0 01.263-.664c.155-.18.348-.317.576-.41.23-.097.473-.145.73-.145.507 0 .886.136 1.14.409.258.267.386.625.386 1.073v2.227h-.547l-.037-.65a1.46 1.46 0 01-.452.526c-.195.141-.458.212-.789.212zm.095-.519c.234 0 .433-.06.599-.182.17-.122.3-.28.387-.475.087-.195.131-.4.131-.613v-.008h-.927c-.36 0-.616.064-.767.19a.574.574 0 00-.219.46c0 .19.068.343.205.46.14.112.338.168.591.168zm2.848.431v-3.103h-.548v-.519h.548v-.628c0-.35.087-.606.263-.766.175-.16.43-.241.766-.241h.365v.526h-.27c-.185 0-.316.038-.394.116-.078.073-.117.2-.117.38v.613h.89v.519h-.89v3.103h-.613zm2.431 0v-3.103h-.547v-.519h.547v-.628c0-.35.088-.606.263-.766.175-.16.431-.241.767-.241h.365v.526h-.27c-.185 0-.317.038-.394.116-.078.073-.117.2-.117.38v.613h.89v.519h-.89v3.103h-.614zm3.882 0l1.884-5.111h.65l1.877 5.11h-.65l-.468-1.313h-2.176l-.474 1.314h-.643zm1.3-1.81h1.81l-.905-2.527-.905 2.526zm3.834 1.81v-3.622h.555l.036.65c.117-.229.285-.409.504-.54a1.42 1.42 0 01.745-.197c.428 0 .769.131 1.022.394.258.258.387.657.387 1.197v2.118h-.613v-2.052c0-.754-.312-1.132-.935-1.132-.311 0-.572.115-.781.344-.205.224-.307.545-.307.963v1.877h-.613zm5.821.088a1.79 1.79 0 01-.949-.249 1.724 1.724 0 01-.628-.679 2.127 2.127 0 01-.22-.978c0-.365.076-.689.227-.971.151-.287.36-.511.628-.672.268-.166.584-.248.949-.248.297 0 .56.06.789.182.229.122.406.292.533.511v-2.24h.613v5.257h-.555l-.058-.599a1.7 1.7 0 01-.504.475c-.219.141-.494.212-.825.212zm.066-.534c.243 0 .457-.055.642-.167.19-.117.336-.278.438-.482a1.51 1.51 0 00.161-.716 1.51 1.51 0 00-.161-.716 1.116 1.116 0 00-.438-.474 1.177 1.177 0 00-.642-.175 1.18 1.18 0 00-1.081.65 1.584 1.584 0 00-.153.715c0 .273.051.511.153.716.107.204.253.365.438.482.19.112.404.168.643.168zm4.845.446v-5.111h.716l1.84 3.563 1.825-3.563h.723v5.11h-.613V88.32l-1.709 3.286h-.46l-1.709-3.279v4.009h-.613zm7.35.088c-.301 0-.552-.052-.752-.154a1.042 1.042 0 01-.591-.964c0-.37.141-.654.423-.854.283-.2.667-.3 1.154-.3h.979v-.043c0-.316-.083-.555-.249-.716-.165-.165-.387-.248-.664-.248-.239 0-.446.06-.621.183a.777.777 0 00-.321.518h-.628a1.17 1.17 0 01.263-.664c.156-.18.348-.317.577-.41.228-.097.472-.145.73-.145.506 0 .886.136 1.139.409.258.267.387.625.387 1.073v2.227h-.548l-.036-.65a1.45 1.45 0 01-.453.526c-.195.141-.458.212-.789.212zm.095-.519a.98.98 0 00.599-.182c.17-.122.299-.28.387-.475.088-.195.132-.4.132-.613v-.008h-.928c-.36 0-.616.064-.766.19a.574.574 0 00-.219.46c0 .19.068.343.204.46.141.112.338.168.591.168zm2.651.431v-3.622h.555l.036.65c.117-.229.285-.409.504-.54.219-.132.468-.197.745-.197.428 0 .769.131 1.022.394.258.258.387.657.387 1.197v2.118h-.613v-2.052c0-.754-.312-1.132-.935-1.132-.311 0-.572.115-.781.344-.204.224-.307.545-.307.963v1.877h-.613zm5.383.088c-.302 0-.552-.052-.752-.154a1.042 1.042 0 01-.591-.964c0-.37.141-.654.423-.854.283-.2.667-.3 1.154-.3h.978v-.043c0-.316-.082-.555-.248-.716-.165-.165-.387-.248-.664-.248-.239 0-.446.06-.621.183a.773.773 0 00-.321.518h-.628a1.17 1.17 0 01.263-.664c.155-.18.348-.317.576-.41.229-.097.473-.145.731-.145.506 0 .886.136 1.139.409.258.267.387.625.387 1.073v2.227h-.548l-.036-.65c-.103.204-.254.38-.453.526-.195.141-.458.212-.789.212zm.095-.519c.234 0 .433-.06.599-.182.17-.122.299-.28.387-.475.087-.195.131-.4.131-.613v-.008h-.927c-.36 0-.616.064-.767.19a.574.574 0 00-.219.46c0 .19.068.343.205.46.141.112.338.168.591.168zm4.082-.708a1.86 1.86 0 01-.562-.08l-.365.343a.813.813 0 00.197.102c.082.024.199.049.35.073.151.02.363.041.635.066.487.034.835.146 1.045.336a.96.96 0 01.314.744c0 .21-.059.41-.176.599-.112.19-.287.346-.525.467-.234.122-.536.183-.906.183a2.64 2.64 0 01-.869-.132 1.223 1.223 0 01-.591-.386.986.986 0 01-.212-.65c0-.137.037-.285.11-.446.073-.156.209-.304.409-.445-.108-.044-.2-.09-.278-.139a1.74 1.74 0 01-.204-.175v-.168l.62-.613c-.287-.244-.431-.565-.431-.964 0-.239.056-.455.168-.65.112-.195.275-.348.49-.46a1.61 1.61 0 01.781-.175c.209 0 .399.029.569.087h1.337v.46l-.679.03c.141.204.211.44.211.708 0 .238-.058.455-.175.65-.112.194-.275.35-.489.467-.209.112-.467.168-.774.168zm0-.504c.258 0 .462-.066.613-.197.156-.136.234-.331.234-.584 0-.249-.078-.438-.234-.57-.151-.136-.355-.204-.613-.204-.263 0-.472.068-.628.204-.151.132-.226.322-.226.57 0 .253.075.448.226.584.156.131.365.197.628.197zm-1.066 2.11a.58.58 0 00.307.54c.204.122.46.183.766.183.302 0 .543-.066.723-.197a.615.615 0 00.278-.526.543.543 0 00-.19-.409c-.127-.112-.361-.177-.701-.197a9.34 9.34 0 01-.694-.073c-.2.107-.331.222-.394.343a.76.76 0 00-.095.336zm5.149-.379c-.345 0-.652-.078-.92-.234a1.737 1.737 0 01-.635-.665c-.151-.282-.226-.615-.226-1 0-.38.075-.71.226-.993.151-.287.36-.509.628-.664.272-.161.586-.241.942-.241a1.659 1.659 0 011.497.861 1.758 1.758 0 01.197.993v.183h-2.884c.014.277.077.508.189.694.117.18.261.316.431.408.175.093.36.14.555.14.253 0 .465-.06.635-.176a1 1 0 00.373-.475h.606a1.653 1.653 0 01-.562.84c-.273.219-.623.329-1.052.329zm0-3.279c-.292 0-.552.09-.781.27-.224.175-.353.433-.387.774h2.278c-.015-.326-.127-.581-.336-.766a1.126 1.126 0 00-.774-.278zm2.529 3.191v-3.622h.555l.044.526c.117-.195.272-.346.467-.453.195-.107.414-.16.657-.16.287 0 .533.058.738.175.209.117.37.294.482.533a1.39 1.39 0 01.518-.518c.224-.127.465-.19.723-.19.433 0 .779.131 1.037.394.258.258.387.657.387 1.197v2.118h-.606v-2.052c0-.375-.076-.657-.227-.847-.151-.19-.367-.285-.65-.285a.92.92 0 00-.73.344c-.19.224-.285.545-.285.963v1.877h-.613v-2.052c0-.375-.075-.657-.226-.847-.151-.19-.368-.285-.65-.285a.913.913 0 00-.723.344c-.19.224-.285.545-.285.963v1.877h-.613zm8.16.088a1.79 1.79 0 01-.92-.234 1.73 1.73 0 01-.635-.665 2.091 2.091 0 01-.227-1c0-.38.076-.71.227-.993.15-.287.36-.509.627-.664.273-.161.587-.241.942-.241.351 0 .653.08.906.24.258.156.455.363.591.621a1.748 1.748 0 01.197.993v.183h-2.884c.015.277.078.508.19.694.117.18.26.316.431.408.175.093.36.14.555.14.253 0 .465-.06.635-.176a.999.999 0 00.372-.475h.606a1.64 1.64 0 01-.562.84c-.272.219-.623.329-1.051.329zm0-3.279c-.292 0-.553.09-.782.27-.223.175-.352.433-.386.774h2.278c-.015-.326-.127-.581-.336-.766a1.13 1.13 0 00-.774-.278zm2.529 3.191v-3.622h.555l.036.65c.117-.229.285-.409.504-.54.219-.132.467-.197.745-.197.428 0 .769.131 1.022.394.258.258.387.657.387 1.197v2.118h-.614v-2.052c0-.754-.311-1.132-.934-1.132-.312 0-.572.115-.781.344-.205.224-.307.545-.307.963v1.877h-.613zm5.609 0c-.331 0-.591-.08-.781-.241-.19-.16-.285-.45-.285-.869v-1.993h-.628v-.519h.628l.08-.869h.533v.87h1.067v.518h-1.067v1.993c0 .229.047.385.139.467.093.078.256.117.489.117h.38v.526h-.555zm1.281.869l.424-1.614h.635l-.635 1.614h-.424zm4.808-.862l-1.402-5.118h.657l1.103 4.388 1.255-4.388h.679l1.22 4.388 1.117-4.388h.657l-1.431 5.11h-.701l-1.219-4.22-1.249 4.22-.686.008zm7.228.081c-.345 0-.652-.078-.92-.234a1.744 1.744 0 01-.635-.665c-.151-.282-.226-.615-.226-1 0-.38.075-.71.226-.993.151-.287.36-.509.628-.664.273-.161.587-.241.942-.241a1.656 1.656 0 011.497.861 1.758 1.758 0 01.197.993v.183H161.2c.014.277.078.508.19.694.117.18.26.316.431.408.175.093.36.14.554.14a1.1 1.1 0 00.636-.176c.17-.117.294-.275.372-.475h.606a1.647 1.647 0 01-.562.84c-.273.219-.623.329-1.052.329zm0-3.279c-.292 0-.552.09-.781.27-.224.175-.353.433-.387.774h2.278c-.014-.326-.126-.581-.336-.766a1.126 1.126 0 00-.774-.278zM19.603 104.513l-1.402-5.119h.657l1.103 4.388 1.256-4.388h.679l1.22 4.388 1.116-4.388h.657l-1.43 5.111h-.702l-1.22-4.22-1.248 4.22-.686.008zm6.819.08c-.301 0-.552-.051-.752-.153a1.05 1.05 0 01-.591-.964c0-.37.141-.655.424-.855.282-.199.666-.299 1.153-.299h.979v-.044c0-.316-.083-.555-.249-.715-.165-.166-.387-.249-.664-.249-.239 0-.446.061-.62.183a.776.776 0 00-.322.518h-.628c.024-.262.112-.484.263-.664.156-.18.348-.316.577-.409.229-.097.472-.146.73-.146.506 0 .886.136 1.139.409.258.268.387.625.387 1.073v2.227H27.7l-.036-.65a1.45 1.45 0 01-.453.526c-.195.141-.457.212-.788.212zm.095-.518a.981.981 0 00.6-.183c.17-.122.299-.28.386-.475.088-.194.131-.399.131-.613v-.007h-.927c-.36 0-.616.063-.766.19a.573.573 0 00-.22.46.58.58 0 00.205.46c.141.112.338.168.591.168zm2.651.43v-3.621h.555l.036.65a1.32 1.32 0 01.504-.541c.22-.131.467-.197.745-.197.428 0 .77.132 1.022.394.258.258.387.658.387 1.198v2.117h-.613v-2.051c0-.755-.312-1.132-.935-1.132-.311 0-.572.114-.781.343-.204.224-.307.545-.307.964v1.876h-.613zm5.61 0c-.331 0-.592-.08-.782-.241-.19-.16-.284-.45-.284-.869v-1.993h-.628v-.518h.628l.08-.869h.533v.869h1.066v.518h-1.066v1.993c0 .229.046.385.139.468.092.078.255.117.489.117h.38v.525h-.555zm4.632 0v-1.942l-1.665-3.169h.693l1.278 2.585 1.278-2.585h.686l-1.657 3.169v1.942h-.614zm3.936.088c-.34 0-.647-.078-.92-.234a1.717 1.717 0 01-.65-.657 2.08 2.08 0 01-.233-1.007c0-.385.08-.718.24-1.001.161-.287.378-.509.65-.664.278-.156.587-.234.928-.234.34 0 .648.078.92.234.273.155.487.377.643.664.16.283.24.616.24 1.001 0 .384-.08.72-.24 1.007-.161.282-.38.502-.657.657-.273.156-.58.234-.92.234zm0-.526c.21 0 .405-.051.585-.153.18-.102.326-.256.438-.46.112-.205.168-.458.168-.759 0-.302-.056-.555-.168-.76a1.099 1.099 0 00-.431-.46 1.152 1.152 0 00-.577-.153c-.21 0-.404.051-.584.153-.18.102-.326.256-.438.46-.112.205-.168.458-.168.76 0 .301.056.554.168.759.112.204.255.358.43.46.18.102.373.153.578.153zm3.993.526c-.428 0-.77-.129-1.022-.387-.253-.263-.38-.665-.38-1.205v-2.117h.613v2.051c0 .755.31 1.132.928 1.132.316 0 .576-.112.781-.336.21-.228.314-.552.314-.971v-1.876h.613v3.621h-.555l-.043-.65c-.112.229-.28.409-.504.541a1.423 1.423 0 01-.745.197zm7.148 0c-.502 0-.942-.11-1.322-.329a2.368 2.368 0 01-.883-.934c-.21-.399-.314-.859-.314-1.38 0-.521.104-.979.314-1.373a2.37 2.37 0 01.883-.935c.38-.224.82-.335 1.322-.335.506 0 .946.111 1.321.335.38.224.674.536.884.935.21.394.314.852.314 1.373s-.105.981-.314 1.38c-.21.399-.504.71-.884.934-.375.219-.815.329-1.321.329zm0-.54c.374 0 .703-.083.985-.249.288-.17.51-.411.665-.723.16-.316.24-.693.24-1.131 0-.438-.08-.813-.24-1.125a1.659 1.659 0 00-.665-.715 1.869 1.869 0 00-.985-.256c-.375 0-.706.085-.993.256a1.72 1.72 0 00-.665.715c-.156.312-.233.687-.233 1.125 0 .438.077.815.233 1.131.16.312.382.553.665.723.287.166.618.249.993.249zm4.689.54c-.429 0-.77-.129-1.023-.387-.253-.263-.38-.665-.38-1.205v-2.117h.614v2.051c0 .755.31 1.132.927 1.132.317 0 .577-.112.782-.336.209-.228.314-.552.314-.971v-1.876h.613v3.621h-.555l-.044-.65c-.112.229-.28.409-.504.541a1.421 1.421 0 01-.744.197zm2.856-.088v-3.621h.555l.051.693a1.32 1.32 0 01.512-.569c.228-.141.51-.212.847-.212v.643h-.168c-.215 0-.412.039-.592.116a.88.88 0 00-.43.38c-.108.18-.161.428-.161.745v1.825h-.614zm5.673.008l-1.402-5.119h.658l1.102 4.388 1.256-4.388h.68l1.218 4.388 1.118-4.388h.657l-1.431 5.111h-.701l-1.22-4.22-1.248 4.22-.687.008zm6.82.08c-.302 0-.553-.051-.752-.153a1.05 1.05 0 01-.592-.964c0-.37.142-.655.424-.855.282-.199.667-.299 1.153-.299h.979v-.044c0-.316-.083-.555-.248-.715-.166-.166-.387-.249-.665-.249-.238 0-.445.061-.62.183a.776.776 0 00-.322.518h-.628a1.18 1.18 0 01.263-.664c.156-.18.348-.316.577-.409a1.85 1.85 0 01.73-.146c.507 0 .886.136 1.14.409.257.268.386.625.386 1.073v2.227h-.547l-.037-.65a1.45 1.45 0 01-.453.526c-.194.141-.457.212-.788.212zm.095-.518a.981.981 0 00.599-.183c.17-.122.299-.28.387-.475.087-.194.13-.399.13-.613v-.007h-.926c-.36 0-.616.063-.767.19a.573.573 0 00-.22.46.58.58 0 00.205.46c.141.112.339.168.592.168zm2.65.43v-3.621h.555l.051.693c.112-.238.283-.428.511-.569.23-.141.512-.212.847-.212v.643h-.167c-.215 0-.412.039-.592.116a.879.879 0 00-.43.38c-.108.18-.161.428-.161.745v1.825h-.614zm2.653 0v-3.621h.555l.044.525a1.23 1.23 0 01.467-.452c.195-.107.414-.161.657-.161.287 0 .533.058.738.175.209.117.37.295.481.533.127-.219.3-.392.519-.518a1.44 1.44 0 01.723-.19c.433 0 .779.132 1.037.394.258.258.387.658.387 1.198v2.117h-.607v-2.051c0-.375-.075-.658-.226-.847-.15-.19-.367-.285-.65-.285a.919.919 0 00-.73.343c-.19.224-.285.545-.285.964v1.876h-.613v-2.051c0-.375-.075-.658-.226-.847-.151-.19-.368-.285-.65-.285a.912.912 0 00-.723.343c-.19.224-.285.545-.285.964v1.876h-.613zm8.16.088a1.79 1.79 0 01-.92-.234 1.735 1.735 0 01-.635-.664 2.095 2.095 0 01-.227-1c0-.38.076-.711.227-.994.15-.287.36-.508.627-.664.273-.161.587-.241.942-.241.35 0 .653.08.906.241.258.156.455.363.591.621a1.754 1.754 0 01.197.993v.182h-2.884c.015.278.078.509.19.694.117.18.26.316.43.409.176.092.361.139.556.139.253 0 .465-.059.635-.176.17-.117.294-.275.372-.474h.606a1.644 1.644 0 01-.562.839c-.272.219-.623.329-1.051.329zm0-3.279a1.23 1.23 0 00-.781.271c-.225.175-.354.433-.388.774h2.279c-.015-.327-.127-.582-.336-.767a1.127 1.127 0 00-.774-.278zm3.916 3.279c-.433 0-.794-.11-1.08-.329a1.281 1.281 0 01-.505-.89h.628a.89.89 0 00.3.496c.165.136.387.205.664.205.258 0 .448-.054.57-.161a.52.52 0 00.182-.394c0-.219-.08-.365-.24-.439a3.109 3.109 0 00-.665-.197 3.774 3.774 0 01-.584-.168 1.356 1.356 0 01-.49-.306.737.737 0 01-.197-.533.97.97 0 01.35-.774c.24-.205.56-.307.965-.307.384 0 .698.097.942.292.248.19.391.463.43.818h-.606a.613.613 0 00-.24-.431c-.132-.107-.31-.161-.534-.161-.219 0-.39.047-.51.139a.443.443 0 00-.176.365c0 .146.075.261.226.343.156.083.365.154.628.212.224.049.436.11.635.183.205.068.37.173.497.314.132.136.197.336.197.598a.996.996 0 01-.372.811c-.248.209-.587.314-1.015.314zm3.531-.088c-.332 0-.592-.08-.782-.241-.19-.16-.285-.45-.285-.869v-1.993h-.627v-.518h.627l.08-.869h.534v.869h1.066v.518h-1.066v1.993c0 .229.046.385.139.468.092.078.255.117.489.117h.38v.525h-.555zm4.412.008l-1.402-5.119h.658l1.102 4.388 1.256-4.388h.679l1.219 4.388 1.118-4.388h.657l-1.431 5.111h-.701l-1.22-4.22-1.248 4.22-.687.008zm7.229.08c-.346 0-.652-.078-.92-.234a1.733 1.733 0 01-.635-.664 2.094 2.094 0 01-.227-1c0-.38.076-.711.227-.994.151-.287.36-.508.628-.664.272-.161.586-.241.942-.241.35 0 .652.08.905.241.258.156.455.363.592.621a1.757 1.757 0 01.197.993v.182h-2.884c.014.278.077.509.189.694a1.2 1.2 0 00.431.409c.175.092.36.139.555.139.253 0 .465-.059.635-.176.171-.117.295-.275.373-.474h.606a1.65 1.65 0 01-.562.839c-.273.219-.624.329-1.052.329zm0-3.279a1.23 1.23 0 00-.781.271c-.224.175-.353.433-.387.774h2.278c-.015-.327-.127-.582-.336-.767a1.126 1.126 0 00-.774-.278zm2.529 3.191v-5.257h.613v5.257h-.613zm3.283.088c-.345 0-.657-.078-.934-.234a1.764 1.764 0 01-.65-.664 2.063 2.063 0 01-.234-1c0-.38.078-.711.234-.994.16-.287.377-.508.65-.664.277-.161.589-.241.934-.241.429 0 .789.112 1.081.336.297.224.484.523.562.898h-.628a.786.786 0 00-.358-.518 1.163 1.163 0 00-.664-.19c-.204 0-.397.051-.577.153-.18.102-.326.256-.438.46-.112.205-.168.458-.168.76 0 .301.056.554.168.759a1.2 1.2 0 00.438.467c.18.102.373.154.577.154.253 0 .475-.061.664-.183a.82.82 0 00.358-.533h.628a1.45 1.45 0 01-.555.891c-.297.229-.659.343-1.088.343zm4.15 0a1.82 1.82 0 01-.92-.234 1.717 1.717 0 01-.65-.657 2.078 2.078 0 01-.234-1.007 2 2 0 01.241-1.001c.161-.287.378-.509.65-.664.278-.156.587-.234.928-.234.34 0 .647.078.92.234.272.155.486.377.642.664.161.283.241.616.241 1.001 0 .384-.08.72-.241 1.007-.161.282-.38.502-.657.657a1.82 1.82 0 01-.92.234zm0-.526c.209 0 .404-.051.584-.153.18-.102.326-.256.438-.46.112-.205.168-.458.168-.759 0-.302-.056-.555-.168-.76a1.099 1.099 0 00-.431-.46 1.17 1.17 0 00-1.161 0c-.18.102-.326.256-.438.46-.112.205-.168.458-.168.76 0 .301.056.554.168.759.112.204.256.358.431.46.18.102.372.153.577.153zm2.671.438v-3.621h.555l.044.525a1.22 1.22 0 01.467-.452c.195-.107.414-.161.657-.161.287 0 .533.058.737.175.21.117.37.295.482.533.127-.219.3-.392.519-.518.224-.127.465-.19.723-.19.433 0 .779.132 1.037.394.258.258.386.658.386 1.198v2.117h-.606v-2.051c0-.375-.075-.658-.226-.847-.151-.19-.367-.285-.65-.285a.92.92 0 00-.73.343c-.19.224-.285.545-.285.964v1.876h-.613v-2.051c0-.375-.075-.658-.226-.847-.151-.19-.368-.285-.65-.285a.913.913 0 00-.723.343c-.19.224-.285.545-.285.964v1.876h-.613zm8.16.088a1.79 1.79 0 01-.92-.234 1.736 1.736 0 01-.636-.664 2.094 2.094 0 01-.226-1c0-.38.075-.711.226-.994a1.63 1.63 0 01.628-.664c.273-.161.587-.241.942-.241.351 0 .653.08.906.241.258.156.455.363.591.621a1.758 1.758 0 01.197.993v.182h-2.884c.015.278.078.509.19.694.117.18.26.316.431.409.175.092.36.139.555.139.253 0 .465-.059.635-.176.17-.117.294-.275.372-.474h.606a1.638 1.638 0 01-.562.839c-.273.219-.623.329-1.051.329zm0-3.279c-.292 0-.553.091-.782.271-.224.175-.353.433-.387.774h2.278c-.014-.327-.126-.582-.335-.767a1.13 1.13 0 00-.774-.278zm2.74 3.228a.428.428 0 01-.306-.117.422.422 0 01-.117-.299.415.415 0 01.423-.417c.117 0 .214.042.292.125a.382.382 0 01.124.292.408.408 0 01-.124.299.396.396 0 01-.292.117z" fill="#747474"/><path d="M21.866 77.363c-.681 0-1.278-.15-1.79-.448a3.225 3.225 0 01-1.198-1.237c-.286-.532-.429-1.145-.429-1.84 0-.694.143-1.304.429-1.83a3.207 3.207 0 011.197-1.246c.513-.299 1.11-.448 1.791-.448.675 0 1.27.15 1.782.448.513.299.912.714 1.198 1.246.285.526.428 1.136.428 1.83 0 .695-.143 1.308-.428 1.84a3.136 3.136 0 01-1.198 1.237c-.513.298-1.107.448-1.782.448zm0-1.12c.65 0 1.166-.214 1.549-.642.389-.429.584-1.016.584-1.763 0-.746-.195-1.333-.584-1.762-.383-.428-.9-.642-1.549-.642-.648 0-1.168.214-1.557.642-.39.429-.584 1.016-.584 1.763 0 .746.194 1.333.584 1.762.39.428.909.642 1.557.642zm4.479 1.003v-7.01h1.246v7.01h-1.246zm2.519 0v-7.01h1.247v7.01h-1.247zm3.124 2.142l1.12-2.463h-.293l-1.879-4.508h1.353l1.353 3.398 1.412-3.398h1.324l-3.066 6.97h-1.324zm8.936-2.142l-1.8-6.815h1.333l1.227 5.423 1.44-5.423h1.373l1.402 5.423 1.227-5.423h1.343l-1.85 6.815h-1.48l-1.352-5.053-1.393 5.053h-1.47zm10.252.117c-.487 0-.918-.104-1.295-.312a2.254 2.254 0 01-.886-.876c-.214-.376-.32-.811-.32-1.305 0-.5.103-.944.31-1.333a2.31 2.31 0 01.877-.906c.376-.22.818-.33 1.324-.33.474 0 .892.103 1.256.31.363.209.645.494.847.858.207.357.311.756.311 1.197 0 .071-.003.146-.01.224 0 .078-.003.159-.01.243h-3.67c.027.377.156.672.39.886.24.214.529.322.866.322.254 0 .464-.056.633-.166.175-.117.305-.266.39-.448h1.265c-.09.305-.243.584-.457.837a2.199 2.199 0 01-.78.585 2.43 2.43 0 01-1.04.214zm.01-4.05a1.31 1.31 0 00-.808.263c-.234.168-.383.428-.448.779h2.405c-.02-.319-.137-.572-.35-.76a1.166 1.166 0 00-.8-.282zm6.324 4.05c-.363 0-.68-.068-.953-.205a1.72 1.72 0 01-.663-.574l-.136.662h-1.11v-7.01h1.246v2.872c.156-.214.36-.402.614-.564.26-.163.594-.244 1.003-.244.454 0 .86.11 1.216.331.358.22.64.523.848.906.207.383.311.817.311 1.304 0 .487-.104.922-.312 1.305-.207.376-.49.675-.846.895a2.32 2.32 0 01-1.217.322zm-.262-1.09c.396 0 .723-.134.983-.4s.39-.61.39-1.032c0-.422-.13-.769-.39-1.041a1.3 1.3 0 00-.983-.41c-.403 0-.734.137-.993.41-.253.266-.38.61-.38 1.032 0 .421.127.769.38 1.041.26.266.59.4.993.4zm5.747 1.09c-.428 0-.805-.068-1.13-.205a1.99 1.99 0 01-.778-.584 1.677 1.677 0 01-.35-.857h1.255a.84.84 0 00.312.487c.175.13.399.195.672.195.272 0 .47-.055.593-.166a.489.489 0 00.195-.38c0-.207-.09-.346-.273-.418a4.416 4.416 0 00-.759-.224 8.318 8.318 0 01-.633-.165 3.253 3.253 0 01-.593-.244 1.379 1.379 0 01-.429-.39 1.032 1.032 0 01-.165-.593c0-.428.168-.789.506-1.08.344-.293.824-.439 1.44-.439.572 0 1.026.133 1.364.4.344.266.548.632.613 1.1h-1.178c-.071-.357-.34-.536-.808-.536-.234 0-.415.046-.545.136a.41.41 0 00-.185.341c0 .143.094.257.282.34.188.085.438.163.75.234.337.078.646.166.925.263.285.091.512.23.681.419.169.182.253.445.253.789.007.298-.071.567-.233.808-.163.24-.396.428-.701.564-.305.137-.666.205-1.081.205zm3.791-5.696a.805.805 0 01-.565-.204.683.683 0 01-.214-.516c0-.208.072-.376.214-.506a.805.805 0 01.565-.205.77.77 0 01.555.205.64.64 0 01.224.506c0 .208-.075.38-.224.516a.77.77 0 01-.555.204zm-.623 5.579v-4.829h1.246v4.829h-1.246zm4.698 0c-.506 0-.912-.123-1.217-.37-.305-.247-.457-.685-.457-1.314v-2.103h-.828v-1.042h.828l.146-1.295h1.1v1.295h1.304v1.042h-1.304v2.112c0 .234.049.396.146.487.104.084.279.127.526.127h.603v1.06h-.847zm4.169.117c-.487 0-.918-.104-1.295-.312a2.255 2.255 0 01-.886-.876c-.214-.376-.321-.811-.321-1.305 0-.5.104-.944.311-1.333a2.31 2.31 0 01.877-.906c.376-.22.818-.33 1.324-.33.474 0 .892.103 1.256.31.363.209.645.494.847.858.207.357.311.756.311 1.197 0 .071-.003.146-.01.224 0 .078-.003.159-.01.243h-3.67c.026.377.156.672.39.886.24.214.529.322.866.322.253 0 .464-.056.633-.166.175-.117.305-.266.39-.448h1.265c-.09.305-.243.584-.457.837a2.199 2.199 0 01-.78.585 2.43 2.43 0 01-1.041.214zm.01-4.05a1.31 1.31 0 00-.808.263c-.234.168-.383.428-.448.779h2.405c-.02-.319-.137-.572-.35-.76a1.166 1.166 0 00-.8-.282zm5.811 3.933V70.43h1.246v5.841h3.018v.974h-4.264zm6.005-5.579a.805.805 0 01-.565-.204.683.683 0 01-.214-.516c0-.208.072-.376.214-.506a.805.805 0 01.565-.205.77.77 0 01.555.205.64.64 0 01.224.506c0 .208-.075.38-.224.516a.77.77 0 01-.555.204zm-.623 5.579v-4.829h1.246v4.829h-1.246zm3.851 0l-1.772-4.829h1.305l1.227 3.65 1.226-3.65h1.305l-1.782 4.829h-1.509zm6.186.117c-.487 0-.919-.104-1.295-.312a2.255 2.255 0 01-.886-.876c-.215-.376-.322-.811-.322-1.305 0-.5.104-.944.312-1.333.214-.39.506-.692.876-.906.377-.22.818-.33 1.324-.33.474 0 .893.103 1.256.31.364.209.646.494.847.858.208.357.312.756.312 1.197 0 .071-.004.146-.01.224 0 .078-.003.159-.01.243h-3.67c.026.377.156.672.39.886.24.214.528.322.866.322.253 0 .464-.056.632-.166a1.07 1.07 0 00.39-.448h1.266a2.309 2.309 0 01-.458.837 2.199 2.199 0 01-.779.585 2.43 2.43 0 01-1.042.214zm.01-4.05a1.31 1.31 0 00-.809.263c-.234.168-.383.428-.448.779h2.405c-.02-.319-.136-.572-.35-.76a1.166 1.166 0 00-.799-.282z" fill="#22254F"/><path d="M159.265 55.827v-5.452h.654v4.93h2.539v.522h-3.193zm5.338.093c-.322 0-.589-.054-.802-.163a1.112 1.112 0 01-.631-1.028c0-.395.151-.698.452-.911.301-.213.711-.32 1.23-.32h1.044v-.046c0-.338-.088-.592-.265-.764-.176-.176-.412-.264-.708-.264-.255 0-.476.065-.662.194a.827.827 0 00-.343.553h-.67c.026-.28.119-.516.28-.708.167-.193.372-.338.616-.437a1.98 1.98 0 01.779-.155c.54 0 .945.145 1.215.436.275.285.412.667.412 1.145v2.375h-.584l-.039-.693a1.55 1.55 0 01-.483.56c-.207.151-.488.227-.841.227zm.101-.552c.25 0 .463-.065.639-.195.182-.13.319-.299.413-.506.093-.208.14-.426.14-.654v-.008h-.989c-.384 0-.657.067-.818.202a.61.61 0 00-.233.49c0 .203.072.367.218.492.15.119.36.179.63.179zm4.248.459c-.353 0-.631-.085-.834-.257-.202-.171-.303-.48-.303-.927v-2.126h-.67v-.553h.67l.085-.927h.569v.927h1.137v.553h-1.137v2.126c0 .245.049.41.148.499.099.083.273.124.522.124h.405v.561h-.592zm3.116.093c-.369 0-.696-.082-.982-.248a1.855 1.855 0 01-.677-.71c-.161-.3-.242-.656-.242-1.066 0-.405.081-.758.242-1.06.161-.306.384-.542.669-.708a1.943 1.943 0 011.005-.257c.374 0 .696.085.966.257.275.166.485.387.631.662a1.877 1.877 0 01.21 1.059v.195h-3.076c.015.296.083.542.202.74.125.192.278.337.46.436.187.098.384.148.592.148.27 0 .495-.063.677-.187.182-.125.314-.293.397-.506h.647a1.757 1.757 0 01-.6.895c-.291.234-.664.35-1.121.35zm0-3.496c-.312 0-.59.096-.834.288-.239.187-.376.462-.413.825h2.43c-.015-.347-.135-.62-.358-.817a1.2 1.2 0 00-.825-.296zm2.697 3.403v-3.863h.592l.054.74c.12-.254.302-.457.546-.607.244-.151.545-.226.903-.226v.685h-.179c-.229 0-.439.042-.631.125a.935.935 0 00-.459.405c-.115.192-.172.457-.172.794v1.947h-.654zm-66.588.093c-.374 0-.714-.072-1.02-.217a1.725 1.725 0 01-.725-.694c-.181-.311-.272-.708-.272-1.191v-3.443h.654v3.45c0 .53.127.914.382 1.153.254.24.586.359.997.359.41 0 .739-.12.989-.359.249-.239.374-.623.374-1.152v-3.45h.654v3.442c0 .483-.091.88-.273 1.192a1.713 1.713 0 01-.732.693 2.367 2.367 0 01-1.028.218zm3.102 1.62v-5.576h.592l.062.639a1.83 1.83 0 01.53-.506c.233-.151.529-.226.887-.226.385 0 .72.088 1.005.265.286.176.506.417.662.724.161.306.242.654.242 1.044 0 .389-.081.737-.242 1.043a1.78 1.78 0 01-.67.717c-.285.171-.62.257-1.004.257-.317 0-.6-.065-.849-.195a1.354 1.354 0 01-.561-.545v2.36h-.654zm1.994-2.188a1.3 1.3 0 00.685-.179 1.32 1.32 0 00.467-.514c.114-.218.172-.472.172-.763 0-.291-.058-.546-.172-.764a1.26 1.26 0 00-1.152-.693 1.26 1.26 0 00-1.153.693 1.625 1.625 0 00-.171.764c0 .29.057.545.171.763.114.218.27.39.467.514.197.12.426.18.686.18zm4.672.568c-.369 0-.701-.082-.997-.248a1.888 1.888 0 01-.693-.71 2.205 2.205 0 01-.249-1.066c0-.405.083-.758.249-1.06.171-.306.402-.542.693-.708.296-.172.628-.257.997-.257.457 0 .841.12 1.153.358.316.239.516.558.599.958h-.669a.843.843 0 00-.382-.553 1.247 1.247 0 00-.709-.203 1.217 1.217 0 00-1.082.654c-.12.219-.179.489-.179.81 0 .323.059.593.179.81.119.219.275.385.467.5.192.108.397.163.615.163.27 0 .507-.065.709-.195a.875.875 0 00.382-.569h.669a1.54 1.54 0 01-.591.95c-.317.245-.704.367-1.161.367zm4.426 0c-.363 0-.69-.082-.981-.248a1.83 1.83 0 01-.693-.701 2.222 2.222 0 01-.249-1.075c0-.41.085-.766.257-1.067.171-.307.402-.543.693-.709.296-.166.625-.25.989-.25.363 0 .69.084.981.25.291.166.519.402.686.709.171.3.257.657.257 1.067 0 .41-.086.768-.257 1.075a1.823 1.823 0 01-.701.7c-.291.167-.618.25-.982.25zm0-.56c.224 0 .431-.055.623-.164.192-.109.348-.272.468-.49.119-.218.179-.488.179-.81 0-.322-.06-.592-.179-.81a1.177 1.177 0 00-.46-.49 1.225 1.225 0 00-.615-.164 1.24 1.24 0 00-.623.163 1.217 1.217 0 00-.467.49c-.12.219-.18.489-.18.81 0 .323.06.593.18.81.119.219.272.382.459.491.192.11.397.164.615.164zm2.849.467v-3.863h.592l.047.561c.125-.208.291-.369.498-.483.208-.114.442-.171.701-.171.307 0 .569.062.787.187.223.124.395.314.514.568a1.49 1.49 0 01.553-.553c.239-.135.496-.202.771-.202.462 0 .831.14 1.106.42.275.276.413.701.413 1.278v2.258h-.647V53.64c0-.4-.08-.701-.241-.904-.161-.202-.392-.303-.693-.303a.981.981 0 00-.779.366c-.203.238-.304.581-.304 1.028v2.001h-.654V53.64c0-.4-.081-.701-.242-.904-.16-.202-.392-.303-.693-.303a.974.974 0 00-.771.366c-.202.238-.303.581-.303 1.028v2.001h-.655zm7.364-4.719a.462.462 0 01-.327-.125.459.459 0 01-.124-.327c0-.125.041-.229.124-.312a.461.461 0 01.327-.124.45.45 0 01.32.124.41.41 0 01.132.312c0 .13-.044.239-.132.327a.45.45 0 01-.32.125zm-.327 4.72v-3.864h.655v3.863h-.655zm1.794-.001v-3.863h.592l.039.693c.124-.244.303-.436.537-.576.234-.14.498-.21.794-.21.457 0 .821.14 1.091.42.275.276.413.701.413 1.278v2.258h-.655V53.64c0-.805-.332-1.208-.997-1.208-.332 0-.61.123-.833.367-.218.238-.327.581-.327 1.028v2.001h-.654zm5.983-1.215c-.218 0-.418-.028-.599-.085l-.39.366a.885.885 0 00.21.109c.089.026.213.052.374.078.161.02.387.044.678.07.519.036.89.155 1.114.358.223.202.335.467.335.794 0 .224-.063.437-.187.639-.12.203-.307.369-.561.498-.249.13-.571.195-.966.195a2.83 2.83 0 01-.927-.14 1.309 1.309 0 01-.631-.413c-.15-.181-.225-.413-.225-.693 0-.145.038-.304.116-.475.078-.166.224-.325.436-.475a1.955 1.955 0 01-.295-.148 1.932 1.932 0 01-.219-.187v-.18l.662-.653c-.306-.26-.459-.603-.459-1.029 0-.254.06-.485.179-.693.12-.207.293-.37.522-.49.228-.125.506-.187.833-.187.224 0 .426.03.608.093h1.425v.49l-.724.032c.15.218.226.47.226.756a1.328 1.328 0 01-.709 1.191c-.223.12-.499.18-.826.18zm0-.537c.275 0 .494-.07.654-.21.167-.146.25-.354.25-.623 0-.265-.083-.468-.25-.608-.16-.145-.379-.218-.654-.218-.28 0-.503.073-.67.218-.16.14-.241.343-.241.608 0 .27.081.477.241.623.167.14.39.21.67.21zm-1.137 2.25c0 .26.109.452.327.577.218.13.491.195.818.195.322 0 .579-.07.771-.21a.656.656 0 00.296-.561.576.576 0 00-.202-.436c-.135-.12-.385-.19-.748-.21a9.916 9.916 0 01-.74-.079c-.213.115-.353.237-.421.367a.827.827 0 00-.101.358zm-69.381-.498v-4.914h-1.628v-.538h3.91v.538H70.17v4.914h-.654zm4.102.093c-.364 0-.69-.082-.981-.248a1.847 1.847 0 01-.694-.701 2.22 2.22 0 01-.249-1.075c0-.41.086-.766.257-1.067a1.82 1.82 0 01.693-.709 1.99 1.99 0 01.99-.25c.363 0 .69.084.98.25.291.166.52.402.686.709.172.3.257.657.257 1.067 0 .41-.085.768-.257 1.075a1.819 1.819 0 01-.7.7c-.292.167-.619.25-.982.25zm0-.56c.223 0 .43-.055.623-.164a1.22 1.22 0 00.467-.49c.12-.218.18-.488.18-.81 0-.322-.06-.592-.18-.81a1.17 1.17 0 00-.46-.49 1.226 1.226 0 00-.615-.164c-.223 0-.43.054-.623.163a1.22 1.22 0 00-.467.49c-.12.219-.18.489-.18.81 0 .323.06.593.18.81.12.219.273.382.46.491.192.11.397.164.615.164zm4.602.56c-.385 0-.722-.087-1.013-.264a1.84 1.84 0 01-.67-.724 2.27 2.27 0 01-.234-1.044c0-.39.08-.735.242-1.036.16-.306.384-.545.67-.716a1.886 1.886 0 011.012-.265c.317 0 .597.065.841.194.244.13.434.312.569.546V50.22h.654v5.607h-.592l-.062-.638a1.809 1.809 0 01-.538.506c-.233.15-.527.226-.88.226zm.07-.568c.259 0 .487-.06.685-.179.202-.125.358-.296.467-.514.114-.218.171-.472.171-.763 0-.291-.057-.546-.171-.764a1.192 1.192 0 00-.467-.506 1.256 1.256 0 00-.686-.187c-.254 0-.483.063-.685.187a1.26 1.26 0 00-.467.507 1.686 1.686 0 00-.164.763c0 .29.055.545.164.763.114.218.27.39.467.514.202.12.43.18.685.18zm4.352.568c-.321 0-.589-.054-.802-.163a1.112 1.112 0 01-.63-1.028c0-.395.15-.698.451-.911.301-.213.712-.32 1.23-.32h1.044v-.046c0-.338-.088-.592-.264-.764-.177-.176-.413-.264-.71-.264-.254 0-.474.065-.661.194a.827.827 0 00-.343.553h-.67c.026-.28.12-.516.28-.708.167-.192.372-.338.616-.437.244-.103.504-.155.779-.155.54 0 .945.145 1.215.436.275.285.413.667.413 1.145v2.375h-.585l-.038-.693a1.55 1.55 0 01-.483.56c-.208.151-.488.227-.841.227zm.102-.552c.249 0 .462-.065.638-.195.182-.13.32-.299.413-.506a1.57 1.57 0 00.14-.654v-.008h-.989c-.384 0-.657.067-.818.202a.612.612 0 00-.233.49c0 .203.073.367.218.492.15.119.36.179.63.179zm3.133 2.172l.959-2.087h-.226l-1.535-3.489h.71l1.276 3.007 1.356-3.007h.677l-2.531 5.577h-.686z" fill="#666363"/><path d="M18.54 55.827v-5.451h2.002c.436 0 .794.075 1.075.225.285.146.498.346.639.6.14.25.21.527.21.833 0 .333-.088.636-.265.912-.171.275-.441.475-.81.6l1.13 2.281h-1.146l-1.012-2.15h-.826v2.15h-.997zm.997-2.881h.943c.332 0 .576-.08.732-.242.156-.16.233-.374.233-.638 0-.26-.077-.468-.233-.623-.15-.156-.397-.234-.74-.234h-.935v1.737zm5.473 2.974c-.389 0-.734-.082-1.035-.248a1.804 1.804 0 01-.709-.701 2.074 2.074 0 01-.257-1.044c0-.4.083-.755.25-1.067.17-.312.404-.553.7-.724a2.056 2.056 0 011.06-.265c.379 0 .714.083 1.004.25.291.165.517.394.678.684a1.874 1.874 0 01.241 1.138c0 .062-.002.127-.008.194h-2.936c.021.301.125.538.312.709.192.171.423.257.693.257a.907.907 0 00.506-.132.862.862 0 00.312-.359h1.012a1.843 1.843 0 01-.366.67 1.76 1.76 0 01-.623.468 1.945 1.945 0 01-.833.17zm.009-3.24c-.244 0-.46.071-.647.211-.187.135-.306.343-.358.623h1.924a.84.84 0 00-.28-.607.933.933 0 00-.64-.226zm4.662 3.24c-.394 0-.742-.085-1.044-.256a1.899 1.899 0 01-.716-.717 2.118 2.118 0 01-.257-1.051c0-.395.086-.745.257-1.052a1.9 1.9 0 01.716-.716c.302-.172.65-.257 1.044-.257.493 0 .909.13 1.246.39.338.254.553.607.647 1.058h-1.052a.746.746 0 00-.311-.436.891.891 0 00-.538-.163.92.92 0 00-.7.311c-.193.208-.289.496-.289.865 0 .368.096.657.288.864a.92.92 0 00.701.312.923.923 0 00.538-.156.747.747 0 00.311-.444h1.052a1.762 1.762 0 01-.647 1.052c-.337.264-.753.397-1.246.397zm4.655 0c-.39 0-.735-.082-1.036-.248a1.804 1.804 0 01-.709-.701 2.074 2.074 0 01-.257-1.044c0-.4.083-.755.25-1.067.17-.312.404-.553.7-.724a2.056 2.056 0 011.06-.265c.378 0 .713.083 1.004.25.29.165.517.394.678.684.166.286.249.605.249.959 0 .057-.003.116-.008.179 0 .062-.003.127-.008.194h-2.936c.02.301.125.538.312.709.192.171.423.257.693.257a.907.907 0 00.506-.132.862.862 0 00.312-.359h1.012a1.843 1.843 0 01-.366.67 1.76 1.76 0 01-.623.468 1.945 1.945 0 01-.833.17zm.007-3.24c-.244 0-.46.071-.646.211-.187.135-.306.343-.358.623h1.923a.84.84 0 00-.28-.607.933.933 0 00-.639-.226zm2.77 3.147v-3.863h.88l.078.655c.12-.229.291-.41.514-.546a1.55 1.55 0 01.803-.202c.477 0 .849.15 1.113.452.265.3.398.742.398 1.324v2.18h-.997V53.74c0-.332-.068-.587-.203-.763-.135-.177-.345-.265-.63-.265a.901.901 0 00-.694.296c-.176.197-.265.472-.265.825v1.994h-.997zm6.46 0c-.405 0-.73-.098-.974-.296-.243-.197-.365-.547-.365-1.051v-1.682h-.663v-.834h.663l.116-1.035h.88v1.035h1.044v.834H43.23v1.69c0 .187.04.316.117.39.083.067.224.1.42.1h.484v.85h-.678zm1.557 0V50.22h.997v5.607h-.997zm2.498 1.713l.896-1.97h-.234l-1.503-3.606h1.083l1.083 2.718 1.129-2.718h1.059l-2.453 5.577h-1.06z" fill="#36C9AE"/><path d="M39.767 34.41v-7.98h2.902c.536 0 1.007.1 1.414.3.414.194.735.48.964.857.228.372.342.818.342 1.34 0 .513-.118.956-.353 1.327a2.264 2.264 0 01-.953.857c-.407.2-.878.3-1.414.3h-1.638v2.998h-1.264zm1.264-4.124h1.67c.286 0 .536-.057.75-.171.214-.114.382-.271.503-.471.122-.207.182-.45.182-.729 0-.278-.06-.517-.182-.717a1.188 1.188 0 00-.503-.471 1.57 1.57 0 00-.75-.172h-1.67v2.731zm5.541 4.124v-5.794h1.157v1.167l-.107-.172c.128-.378.336-.65.621-.813.286-.172.628-.257 1.028-.257h.353v1.103h-.503c-.4 0-.724.125-.974.374-.243.243-.364.593-.364 1.05v3.341h-1.21zm6.675.128a3.042 3.042 0 01-1.531-.397 2.983 2.983 0 01-1.5-2.634c0-.585.136-1.103.408-1.553a2.912 2.912 0 011.092-1.07 3.003 3.003 0 011.531-.397c.572 0 1.082.132 1.532.396a2.83 2.83 0 011.081 1.071c.272.45.407.968.407 1.553s-.135 1.107-.407 1.564a2.993 2.993 0 01-1.092 1.081 3.047 3.047 0 01-1.52.386zm0-1.125c.343 0 .647-.082.91-.246.265-.164.472-.39.622-.675a2.05 2.05 0 00.235-.985c0-.364-.078-.689-.235-.975a1.717 1.717 0 00-.621-.674 1.689 1.689 0 00-.91-.247c-.336 0-.64.083-.91.247a1.794 1.794 0 00-.633.674c-.15.286-.225.61-.225.975 0 .364.075.692.225.985.157.286.368.51.632.675.271.164.575.246.91.246zm3.313 3.363c-.079 0-.164-.007-.257-.022a1.735 1.735 0 01-.246-.032v-1.05c.135.022.27.033.407.033.3 0 .539-.079.717-.236.179-.15.268-.378.268-.685v-6.168h1.21v6.168c0 .421-.09.782-.268 1.082-.178.3-.425.524-.739.674a2.413 2.413 0 01-1.092.236zm.889-8.953v-1.392h1.21v1.392h-1.21zm5.345 6.715c-.578 0-1.092-.132-1.542-.397a2.88 2.88 0 01-1.039-1.092 3.222 3.222 0 01-.375-1.553c0-.585.125-1.103.375-1.552.257-.45.6-.804 1.028-1.06a2.717 2.717 0 011.456-.397c.436 0 .825.075 1.168.225.342.15.632.357.867.621.236.257.414.553.536.889.128.335.192.692.192 1.07 0 .094-.003.19-.01.29-.007.1-.022.193-.043.278H60.79v-.963h3.93l-.578.439c.072-.35.047-.66-.075-.932a1.382 1.382 0 00-.535-.653 1.424 1.424 0 00-.836-.247c-.32 0-.606.082-.856.247a1.52 1.52 0 00-.578.685c-.136.293-.19.65-.161 1.071-.036.393.018.735.16 1.028a1.7 1.7 0 00.622.686c.27.164.578.246.92.246.35 0 .647-.079.89-.236.25-.157.446-.36.588-.61l.986.482a2.103 2.103 0 01-.536.739 2.684 2.684 0 01-.856.514 3.097 3.097 0 01-1.082.182zm6.6 0c-.579 0-1.093-.132-1.542-.397a3.049 3.049 0 01-1.06-1.092 3.112 3.112 0 01-.386-1.553c0-.57.128-1.085.385-1.542.257-.457.61-.814 1.06-1.07.45-.265.964-.397 1.543-.397.392 0 .76.071 1.103.214.342.136.639.325.889.568.257.243.446.525.567.846l-1.06.492a1.526 1.526 0 00-.589-.717 1.544 1.544 0 00-.91-.279 1.65 1.65 0 00-.89.247 1.65 1.65 0 00-.61.674c-.15.286-.225.61-.225.975 0 .364.076.692.225.985.15.286.354.51.61.675.265.164.561.246.89.246.35 0 .653-.089.91-.267.264-.186.46-.432.589-.74l1.06.504a2.26 2.26 0 01-.557.835 2.866 2.866 0 01-2.003.793zm6.248-.065c-.607 0-1.078-.17-1.414-.514-.335-.342-.503-.824-.503-1.445v-2.806h-1.017v-1.092h.16c.272 0 .482-.079.632-.236.15-.157.225-.371.225-.643v-.45h1.21v1.329h1.317v1.092h-1.317v2.752c0 .2.032.371.096.514a.71.71 0 00.311.321c.143.072.328.108.557.108.057 0 .121-.004.193-.011l.203-.022v1.04c-.1.013-.21.028-.332.042a2.784 2.784 0 01-.321.021zm3.976.065c-.593 0-1.114-.147-1.564-.44a2.333 2.333 0 01-.931-1.177l.931-.44c.157.329.372.59.643.782.278.193.585.29.92.29.286 0 .518-.065.697-.193a.613.613 0 00.268-.525.487.487 0 00-.118-.343.872.872 0 00-.3-.225 1.612 1.612 0 00-.353-.128l-.91-.257c-.5-.143-.875-.357-1.125-.643a1.546 1.546 0 01-.364-1.017c0-.35.089-.653.267-.91.179-.265.425-.468.74-.61a2.534 2.534 0 011.06-.215c.528 0 1 .132 1.413.396.414.257.707.618.878 1.082l-.931.439a1.423 1.423 0 00-.546-.664 1.438 1.438 0 00-.825-.246c-.264 0-.475.064-.632.192a.579.579 0 00-.236.482c0 .136.036.25.108.343a.853.853 0 00.278.214c.114.05.232.093.353.129l.943.278c.478.136.846.35 1.103.643.257.285.385.628.385 1.028 0 .343-.093.646-.278.91-.179.257-.428.46-.75.61a2.748 2.748 0 01-1.124.215zM25.66 31.123a.537.537 0 01-.53.548h-5.254l1.797 1.814a.528.528 0 010 .77.53.53 0 01-.376.154.542.542 0 01-.394-.154l-2.738-2.738a.528.528 0 010-.77l2.738-2.738a.528.528 0 01.77 0 .528.528 0 010 .77l-1.797 1.797h5.254c.291 0 .53.257.53.547z" fill="#000"/></svg>