<svg width="106" height="105" fill="none" xmlns="http://www.w3.org/2000/svg"><path fill-rule="evenodd" clip-rule="evenodd" d="M43.9 45.181c-4.526.251-8.14 2.726-10.673 6.194a23.039 23.039 0 00-4.22 13.44 22.7 22.7 0 00.762 4.543 35.626 35.626 0 002.47 6.245.394.394 0 00.512.209.399.399 0 00.214-.512 37.044 37.044 0 01-1.456-5.218 21.84 21.84 0 01-.453-5.296A20.876 20.876 0 0135.05 52.73c2.13-2.862 5.093-4.972 8.827-5.225.035.972.156 1.939.363 2.889a11.665 11.665 0 002.558 5.189 9.734 9.734 0 004.207 2.866 3.689 3.689 0 003.935-.92c2.198-2.304 1.714-4.95-.12-7.258-2.064-2.601-5.942-4.699-8.61-5.054.05-.954.145-1.91.242-2.851a16.918 16.918 0 015.2-10.32 19.7 19.7 0 0110.55-5.17c3.377-.606 6.801.009 9.792 1.04a30.203 30.203 0 015.522 2.57 16.351 16.351 0 013.36 2.402.086.086 0 00.116.019.086.086 0 00.02-.117 12.405 12.405 0 00-2.74-3.328 20.735 20.735 0 00-5.586-3.358 20.59 20.59 0 00-10.843-1.46 21.972 21.972 0 00-11.774 5.742 19.193 19.193 0 00-5.913 11.75 52.692 52.692 0 00-.258 3.045zm2.299 2.4c.038.777.139 1.55.303 2.31a9.396 9.396 0 002.059 4.158 7.944 7.944 0 002.545 1.963c.752.346 1.553.53 2.144-.084 1.276-1.334.808-2.863-.254-4.204a12.673 12.673 0 00-6.797-4.143z" fill="#FF7A1A"/><path fill-rule="evenodd" clip-rule="evenodd" d="M33.036 74.962c-.505-.563-.998-1.129-1.508-1.692-.595-.643-1.19-1.318-1.812-1.932-1.595-1.62-3.254-3.117-4.896-4.617a.383.383 0 00-.583.495c1.058 1.565 2.042 3.15 3.125 4.724a27.2 27.2 0 001.43 1.963c1.13 1.423 2.375 2.745 3.611 4.054.206.209.45.378.717.498.28.122.592.155.892.096a1.284 1.284 0 00.835-.603 3.55 3.55 0 00.358-1.204c.322-1.986.436-6.944.482-7.97l-.027-2.058a1.308 1.308 0 00-.075-.449 1.66 1.66 0 00-.334-.6c-.106-.088-.197.066-.165-.027.031-.093-.112-.018-.07.027.167.082-.144.075-.09.15.135.18-.181-.03-.188.15-.01.063-.064-.044-.08.019s-.06-.097-.122-.02c-.062.078-.018-.095-.087-.041-.068.054.053-.123-.037-.072-.09.051.055-.067.055-.067s-.086-.014.118-.058a.091.091 0 00.092.07.092.092 0 00.04-.01.08.08 0 00.034-.087.08.08 0 00-.015-.03c.373-.41.012-.07.087-.265.012-.074-.059-.01-.062-.053-.004-.28-.133.11-.272-.044-.056-.059-.013.08-.09.045-.076-.034.065.142-.133.153-.101-.016.095.087-.089.177s-.059-.01-.191.204c-.133.213-.05.577-.121.745l-.237 1.934c-.078.823-.316 4.145-.592 6.395z" fill="#FF7A1A"/></svg>