<svg width="109" height="125" viewBox="0 0 109 125" fill="none" xmlns="http://www.w3.org/2000/svg">
<path d="M109 125L0.500061 0.5L39.5001 0L109 79V125Z" fill="#534BEF"/>
<path d="M29.5226 19.7284L36.8242 13.1918L37.9914 14.4957L35.3437 21.3193L42.4082 19.4295L43.5755 20.7334L36.2738 27.2699L35.284 26.1642L40.6768 21.3366L34.3288 22.9982L33.5631 22.1429L35.8947 16.0157L30.5124 20.834L29.5226 19.7284ZM39.6059 31.2439C39.1639 30.7501 38.8767 30.2055 38.7444 29.6099C38.6253 29.015 38.6647 28.4223 38.8626 27.8318C39.0674 27.235 39.441 26.6938 39.9834 26.2083C40.5258 25.7227 41.1014 25.4141 41.7102 25.2825C42.3321 25.1517 42.9318 25.1848 43.5092 25.382C44.0935 25.573 44.6035 25.9118 45.0393 26.3986C45.4813 26.8923 45.7618 27.4366 45.881 28.0315C46.0133 28.6271 45.977 29.2232 45.7722 29.82C45.5805 30.4175 45.2135 30.959 44.671 31.4446C44.1286 31.9302 43.5465 32.2384 42.9245 32.3692C42.3158 32.5008 41.7192 32.4711 41.1349 32.2802C40.5575 32.083 40.0479 31.7376 39.6059 31.2439ZM40.5551 30.3941C40.7916 30.6584 41.0756 30.8426 41.4069 30.9469C41.7445 31.0581 42.1042 31.068 42.486 30.9768C42.8747 30.8793 43.2638 30.6562 43.6532 30.3076C44.0426 29.959 44.3037 29.6 44.4365 29.2306C44.5825 28.8619 44.6188 28.5037 44.5455 28.1559C44.4784 27.8151 44.3266 27.5126 44.0901 27.2483C43.8535 26.9841 43.5665 26.7964 43.2289 26.6852C42.8976 26.5809 42.5375 26.5775 42.1488 26.675C41.767 26.7663 41.3813 26.9862 40.9919 27.3348C40.6025 27.6834 40.3379 28.0456 40.1982 28.4212C40.0654 28.7906 40.0325 29.1457 40.0996 29.4865C40.1667 29.8273 40.3185 30.1299 40.5551 30.3941ZM44.8783 37.1335C44.2932 36.4798 43.9706 35.7977 43.9108 35.0872C43.8509 34.3766 44.0572 33.7535 44.5297 33.2178L45.5289 34.3339C45.3422 34.6012 45.2554 34.9169 45.2683 35.2812C45.2881 35.6392 45.4506 35.9886 45.7556 36.3293C46.0544 36.6631 46.3419 36.8443 46.6179 36.8728C46.8939 36.9012 47.1223 36.8345 47.3031 36.6727C47.5674 36.4361 47.6482 36.1696 47.5457 35.8731C47.4562 35.5773 47.2817 35.2074 47.022 34.7635C46.8232 34.4154 46.6452 34.0486 46.488 33.6631C46.3371 33.2847 46.2683 32.914 46.2818 32.5512C46.3084 32.1892 46.4852 31.8618 46.812 31.5692C47.264 31.1646 47.7951 31.0023 48.4054 31.0823C49.0227 31.1561 49.6114 31.5059 50.1717 32.1318C50.6884 32.7089 50.9664 33.2994 51.0057 33.903C51.0513 34.5136 50.8482 35.0775 50.3966 35.5945L49.4442 34.5305C49.6356 34.2966 49.716 34.0366 49.6856 33.7507C49.6613 33.4718 49.5216 33.1897 49.2664 32.9046C49.0174 32.6265 48.7653 32.4638 48.5101 32.4167C48.2619 32.3633 48.0474 32.4175 47.8666 32.5794C47.6858 32.7412 47.6366 32.9731 47.719 33.2751C47.8077 33.5841 47.966 33.9498 48.1938 34.3722C48.4285 34.7883 48.6245 35.1892 48.7817 35.5746C48.952 35.9608 49.0207 36.3314 48.9879 36.6865C48.955 37.0416 48.7508 37.3873 48.3753 37.7234C47.9087 38.1537 47.3508 38.3212 46.7017 38.2258C46.0588 38.1374 45.4511 37.7733 44.8783 37.1335ZM49.702 42.2699C49.2475 41.7623 49.0082 41.25 48.9839 40.7331C48.9665 40.21 49.2743 39.6652 49.9071 39.0987L52.4626 36.8109L51.6689 35.9242L52.5973 35.0932L53.391 35.9798L54.8267 34.9388L55.6951 35.9089L54.3808 37.0855L55.6881 38.5458L54.7598 39.3769L53.4525 37.9166L50.8969 40.2043C50.6118 40.4596 50.4665 40.6961 50.4611 40.9139C50.4688 41.1325 50.6065 41.3913 50.8742 41.6903L51.4065 42.2848L50.4677 43.1252L49.702 42.2699ZM53.925 46.9873L61.2267 40.4508L63.5145 43.0064C64.0249 43.5766 64.3509 44.1366 64.4923 44.6864C64.6408 45.23 64.629 45.7416 64.4571 46.2212C64.2983 46.7016 64.0103 47.1285 63.5931 47.502C63.1967 47.8569 62.7507 48.0933 62.255 48.2113C61.7726 48.33 61.2659 48.2888 60.735 48.0876C60.2042 47.8864 59.6773 47.4937 59.1543 46.9096L57.8564 45.4597L54.9148 48.093L53.925 46.9873ZM58.7639 44.6473L60.0151 46.045C60.482 46.5666 60.9263 46.839 61.3481 46.8623C61.783 46.8864 62.1952 46.7241 62.5846 46.3755C62.9879 46.0144 63.1981 45.6195 63.2152 45.1909C63.2455 44.7629 63.0272 44.2881 62.5603 43.7666L61.309 42.3689L58.7639 44.6473ZM61.2088 55.3756C60.7668 54.8818 60.4797 54.3372 60.3473 53.7416C60.2282 53.1467 60.2676 52.554 60.4655 51.9635C60.6703 51.3667 61.044 50.8255 61.5864 50.34C62.1288 49.8544 62.7044 49.5458 63.3131 49.4142C63.9351 49.2834 64.5347 49.3165 65.1121 49.5137C65.6964 49.7047 66.2065 50.0435 66.6422 50.5303C67.0842 51.024 67.3648 51.5683 67.4839 52.1632C67.6162 52.7588 67.58 53.3549 67.3751 53.9517C67.1834 54.5492 66.8164 55.0907 66.274 55.5763C65.7316 56.0619 65.1494 56.3701 64.5275 56.5009C63.9187 56.6325 63.3222 56.6028 62.7378 56.4119C62.1605 56.2147 61.6508 55.8693 61.2088 55.3756ZM62.158 54.5258C62.3946 54.7901 62.6785 54.9743 63.0099 55.0786C63.3474 55.1898 63.7071 55.1997 64.0889 55.1085C64.4777 55.011 64.8667 54.7879 65.2562 54.4393C65.6456 54.0907 65.9067 53.7317 66.0395 53.3623C66.1855 52.9936 66.2218 52.6354 66.1485 52.2876C66.0814 51.9468 65.9296 51.6443 65.693 51.38C65.4565 51.1158 65.1694 50.9281 64.8318 50.8169C64.5005 50.7126 64.1405 50.7092 63.7517 50.8067C63.3699 50.898 62.9843 51.1179 62.5949 51.4665C62.2054 51.8151 61.9409 52.1773 61.8011 52.5529C61.6683 52.9223 61.6355 53.2774 61.7026 53.6182C61.7696 53.959 61.9215 54.2616 62.158 54.5258ZM62.4627 61.1421L69.9313 54.4562L70.8184 55.4472L70.1179 56.2809C70.5107 56.2299 70.9317 56.2664 71.3809 56.3904C71.8302 56.5144 72.2602 56.8059 72.6711 57.2648C73.1193 57.7655 73.3964 58.3129 73.5023 58.9071C73.6083 59.5012 73.5526 60.0897 73.3353 60.6725C73.1242 61.2623 72.7579 61.7907 72.2364 62.2576C71.7148 62.7245 71.1493 63.0303 70.5398 63.1751C69.9435 63.3206 69.3559 63.3079 68.7771 63.1371C68.2052 62.9601 67.6921 62.6177 67.2376 62.1101C66.8766 61.7068 66.6359 61.2771 66.5158 60.8209C66.4018 60.3718 66.4099 59.9261 66.5401 59.4838L63.4526 62.2478L62.4627 61.1421ZM68.0292 61.0633C68.4525 61.5361 68.9611 61.7824 69.5549 61.802C70.1556 61.8154 70.7168 61.5886 71.2383 61.1217C71.5791 60.8167 71.8193 60.4763 71.959 60.1007C72.0988 59.7251 72.1327 59.3502 72.0609 58.9761C71.996 58.5957 71.8204 58.2456 71.534 57.9257C71.1107 57.4529 70.5986 57.2097 69.9979 57.1963C69.4034 57.1899 68.8488 57.417 68.3342 57.8777C67.8127 58.3446 67.5223 58.8738 67.4632 59.4655C67.4172 60.0578 67.6059 60.5904 68.0292 61.0633ZM72.3142 67.7809C71.7539 67.155 71.5066 66.487 71.5723 65.7767C71.6442 65.0735 72.0662 64.3763 72.838 63.6853L75.8109 61.024L76.8007 62.1297L73.9426 64.6883C72.9412 65.5847 72.8078 66.4432 73.5424 67.2638C73.9097 67.6741 74.3577 67.8806 74.8863 67.8834C75.4149 67.8862 75.9504 67.6448 76.4928 67.1592L79.1632 64.7687L80.153 65.8744L74.9792 70.506L74.1015 69.5255L74.9343 68.6297C74.4712 68.7561 74.0057 68.7469 73.5378 68.602C73.0831 68.4579 72.6752 68.1842 72.3142 67.7809ZM76.2384 71.9126L83.7487 65.1893L84.7385 66.295L77.2282 73.0182L76.2384 71.9126ZM79.9253 76.2829C79.5331 75.8448 79.2824 75.4178 79.1732 75.002C79.064 74.5861 79.0653 74.2028 79.1773 73.8521C79.2961 73.4951 79.4981 73.189 79.7832 72.9338C80.2839 72.4856 80.8546 72.3254 81.4953 72.4534C82.136 72.5814 82.78 73.007 83.4275 73.7302L84.6414 75.0862L84.7353 75.0021C85.1386 74.6411 85.3415 74.259 85.3439 73.856C85.3526 73.4599 85.2013 73.088 84.8901 72.7403C84.6162 72.4343 84.3 72.235 83.9416 72.1425C83.5963 72.0507 83.2559 72.1112 82.9202 72.324L81.9304 71.2183C82.3371 70.9169 82.769 70.7557 83.2262 70.7347C83.6966 70.7145 84.1508 70.809 84.5887 71.0183C85.0398 71.2283 85.4458 71.535 85.8069 71.9383C86.4543 72.6615 86.7642 73.3925 86.7366 74.1313C86.7159 74.8638 86.3787 75.5227 85.7251 76.1078L82.5436 78.9559L81.6846 77.9962L82.4871 77.1086C82.0713 77.2178 81.6415 77.2205 81.1978 77.1167C80.7541 77.0128 80.3299 76.7349 79.9253 76.2829ZM81.0184 75.6989C81.2861 75.9979 81.5797 76.186 81.8994 76.2631C82.2321 76.341 82.5666 76.3298 82.9026 76.2294C83.2449 76.1359 83.571 75.9755 83.881 75.7481L82.7791 74.5172C82.387 74.0791 82.0303 73.8347 81.7093 73.7839C81.3944 73.74 81.1222 73.8208 80.8928 74.0263C80.6563 74.2379 80.5464 74.4929 80.5629 74.7913C80.5927 75.0904 80.7445 75.3929 81.0184 75.6989ZM83.6977 80.2451L88.8715 75.6135L89.7586 76.6044L88.8621 77.5761C89.3647 77.4518 89.8565 77.4625 90.3376 77.6081C90.8319 77.7544 91.2844 78.057 91.6953 78.516L90.5375 79.5525L90.2667 79.25C89.9928 78.944 89.6947 78.716 89.3725 78.566C89.0635 78.4167 88.7219 78.378 88.3478 78.4499C87.9869 78.5224 87.5943 78.7486 87.1701 79.1283L84.6876 81.3508L83.6977 80.2451Z" fill="white"/>
</svg>
