<svg width="797" height="500" viewBox="0 0 797 500" fill="none" xmlns="http://www.w3.org/2000/svg">
<path d="M8.65018 207.253C0.572285 220.87 -1.77722 237.142 2.11809 252.492C6.01341 267.843 15.8347 281.016 29.4234 289.115C32.3128 290.826 35.3379 292.295 38.4682 293.508C47.5521 298.521 160.897 340.376 161.975 419.8C162.574 438.035 167.475 455.869 176.275 471.843C185.076 487.816 197.526 501.477 212.609 511.706C227.691 521.936 244.977 528.445 263.052 530.7C281.128 532.955 299.48 530.892 316.608 524.681L381.291 505.509C412.307 495.637 445.598 495.525 476.679 505.188L567.883 533.559C573.715 535.736 579.662 537.589 585.698 539.109L585.912 539.164C625.349 549.005 667.006 544.308 703.274 525.932C739.543 507.556 768.003 476.727 783.458 439.074C798.913 401.422 800.331 359.458 787.454 320.846C774.577 282.235 748.264 249.552 713.319 228.765C705.455 224.1 697.233 220.069 688.731 216.71L605.148 175.713C582.581 164.639 562.953 148.371 547.871 128.238C532.789 108.106 522.68 84.6823 518.373 59.8842C516.023 46.3965 514.737 28.3352 515.049 25.2457L514.964 25.1766C514.885 -6.30925 504.496 -36.8991 485.39 -61.9006C466.284 -86.9021 439.516 -104.935 409.193 -113.232C378.869 -121.529 346.665 -119.632 317.52 -107.833C288.375 -96.0345 263.899 -74.9846 247.846 -47.9127C247.296 -46.9702 171.232 92.9087 171.232 92.9087L170.892 93.5039C152.349 126.686 122.494 152.069 86.7937 165.006L41.6343 180.898C27.7894 185.342 16.0532 194.72 8.65018 207.253Z" fill="#554DF3"/>
</svg>
