<svg width="31" height="31" viewBox="0 0 31 31" fill="none" xmlns="http://www.w3.org/2000/svg">
<path d="M21.25 17.1612L30.57 15.4585L21.25 13.7657C20.1753 13.5656 19.1864 13.0441 18.4134 12.2699C17.6405 11.4957 17.1198 10.5052 16.92 9.42875L15.24 0.133789L13.55 9.41873C13.3541 10.4969 12.8348 11.4896 12.0611 12.2645C11.2875 13.0393 10.2964 13.5595 9.22 13.7557L0 15.4384L9.22 17.1612C10.2958 17.3587 11.2862 17.8793 12.0596 18.654C12.833 19.4286 13.3528 20.4206 13.55 21.4982L15.24 30.7931L16.92 21.5182C17.1148 20.4376 17.6334 19.4419 18.4069 18.6636C19.1803 17.8853 20.172 17.3613 21.25 17.1612Z" fill="#FFA98E"/>
</svg>
