<svg width="321" height="333" viewBox="0 0 321 333" fill="none" xmlns="http://www.w3.org/2000/svg">
<g filter="url(#filter0_d_0_4690)">
<path d="M50 61.6033C50 55.5065 54.9361 50.5641 61.0251 50.5641H259.476C265.565 50.5641 270.501 55.5065 270.501 61.6033V271.899C270.501 277.996 265.565 282.938 259.476 282.938H61.0251C54.9361 282.938 50 277.996 50 271.899V61.6033Z" fill="white"/>
</g>
<path fill-rule="evenodd" clip-rule="evenodd" d="M157.545 242.423C190.466 242.423 217.153 215.823 217.153 183.011C217.153 150.198 190.466 123.599 157.545 123.599C124.624 123.599 97.9365 150.198 97.9365 183.011C97.9365 215.823 124.624 242.423 157.545 242.423ZM157.545 251.774C195.648 251.774 226.536 220.988 226.536 183.011C226.536 145.034 195.648 114.247 157.545 114.247C119.442 114.247 88.5537 145.034 88.5537 183.011C88.5537 220.988 119.442 251.774 157.545 251.774Z" fill="#AE26EE"/>
<path d="M142.665 101.375H233.3V195.544H142.665V101.375Z" fill="white"/>
<path d="M221.247 188.769C225.479 188.769 228.949 185.294 228.531 181.039C227.782 173.413 225.927 165.926 223.014 158.821C219.122 149.326 213.417 140.699 206.225 133.432C199.033 126.165 190.494 120.401 181.097 116.468C174.065 113.525 166.655 111.651 159.108 110.894C154.897 110.472 151.458 113.978 151.458 118.254V181.026C151.458 185.302 154.888 188.769 159.121 188.769H221.247Z" fill="#F40C60"/>
<path d="M79.2083 87.7393C78.2718 87.7393 77.4345 87.5499 76.6963 87.1712C75.9692 86.7816 75.3963 86.2514 74.9776 85.5805C74.5589 84.8988 74.3496 84.1305 74.3496 83.2757V76.2638H76.8451V83.1296C76.8451 83.5841 76.9497 83.9953 77.1591 84.3632C77.3684 84.7203 77.6494 85.007 78.0019 85.2234C78.3655 85.4398 78.7676 85.548 79.2083 85.548C79.6601 85.548 80.0677 85.4398 80.4313 85.2234C80.8059 85.007 81.0978 84.7203 81.3072 84.3632C81.5275 83.9953 81.6377 83.5841 81.6377 83.1296V76.2638H84.0505V83.2757C84.0505 84.1305 83.8412 84.8988 83.4225 85.5805C83.0039 86.2514 82.4255 86.7816 81.6873 87.1712C80.9601 87.5499 80.1338 87.7393 79.2083 87.7393Z" fill="#191D27"/>
<path d="M89.5676 87.8042C88.7523 87.8042 88.0252 87.6743 87.3861 87.4146C86.7581 87.1441 86.2513 86.7762 85.8657 86.3109L87.32 85.0773C87.6616 85.4344 88.0417 85.6941 88.4603 85.8564C88.879 86.0079 89.2977 86.0837 89.7163 86.0837C89.8816 86.0837 90.0303 86.0674 90.1626 86.035C90.3058 85.9917 90.427 85.9376 90.5261 85.8727C90.6253 85.7969 90.6969 85.7104 90.741 85.613C90.7961 85.5048 90.8236 85.3911 90.8236 85.2721C90.8236 85.0341 90.7244 84.8447 90.5261 84.704C90.416 84.6499 90.2452 84.585 90.0138 84.5092C89.7824 84.4227 89.485 84.3307 89.1214 84.2333C88.5595 84.0926 88.0802 83.9303 87.6836 83.7464C87.298 83.5516 86.9895 83.3352 86.7581 83.0971C86.5598 82.8699 86.4056 82.6264 86.2954 82.3667C86.1962 82.0962 86.1467 81.7986 86.1467 81.474C86.1467 81.0845 86.2348 80.7328 86.4111 80.419C86.5874 80.0944 86.8298 79.8184 87.1382 79.5912C87.4578 79.364 87.8213 79.1908 88.229 79.0718C88.6366 78.942 89.0663 78.877 89.518 78.877C89.9697 78.877 90.4104 78.9311 90.8401 79.0393C91.2698 79.1476 91.6664 79.3045 92.03 79.51C92.4046 79.7048 92.7296 79.9375 93.0051 80.208L91.7491 81.5714C91.5508 81.3875 91.3249 81.2197 91.0715 81.0682C90.8291 80.9167 90.5757 80.7977 90.3113 80.7112C90.0469 80.6246 89.81 80.5813 89.6007 80.5813C89.4134 80.5813 89.2426 80.5975 89.0883 80.63C88.9451 80.6625 88.8239 80.7112 88.7248 80.7761C88.6256 80.841 88.5485 80.9276 88.4934 81.0358C88.4493 81.1332 88.4273 81.2414 88.4273 81.3604C88.4273 81.4794 88.4548 81.593 88.5099 81.7013C88.576 81.8095 88.6642 81.9014 88.7743 81.9772C88.8955 82.0421 89.0718 82.1179 89.3032 82.2044C89.5456 82.291 89.8706 82.3884 90.2782 82.4966C90.8071 82.6373 91.2533 82.7942 91.6169 82.9673C91.9915 83.1404 92.2889 83.3406 92.5093 83.5678C92.6966 83.7626 92.8343 83.9844 92.9224 84.2333C93.0106 84.4822 93.0547 84.7581 93.0547 85.0611C93.0547 85.5913 92.9004 86.0674 92.5919 86.4895C92.2944 86.9006 91.8813 87.2253 91.3524 87.4633C90.8236 87.6906 90.2287 87.8042 89.5676 87.8042Z" fill="#191D27"/>
<path d="M98.8758 87.8042C97.9283 87.8042 97.102 87.6148 96.3968 87.2361C95.6917 86.8574 95.1408 86.338 94.7442 85.6779C94.3476 85.0178 94.1493 84.2604 94.1493 83.4055C94.1493 82.7455 94.2594 82.1395 94.4798 81.5876C94.7001 81.0358 95.0086 80.5597 95.4053 80.1593C95.8019 79.7481 96.2701 79.4343 96.81 79.2179C97.3609 78.9907 97.9558 78.877 98.5948 78.877C99.1898 78.877 99.7407 78.9852 100.247 79.2017C100.754 79.4073 101.189 79.7048 101.553 80.0944C101.928 80.4731 102.214 80.9222 102.412 81.4416C102.611 81.961 102.699 82.529 102.677 83.1458L102.66 83.86H95.6366L95.2565 82.4479H100.727L100.462 82.7401V82.383C100.44 82.0908 100.341 81.8257 100.165 81.5876C99.9996 81.3496 99.7847 81.1656 99.5203 81.0358C99.2559 80.9059 98.9584 80.841 98.6279 80.841C98.1431 80.841 97.73 80.933 97.3884 81.1169C97.0579 81.3009 96.8045 81.5714 96.6282 81.9285C96.4519 82.2856 96.3638 82.7184 96.3638 83.227C96.3638 83.7464 96.474 84.1954 96.6943 84.5742C96.9257 84.9529 97.2452 85.2505 97.6528 85.4669C98.0715 85.6725 98.5618 85.7753 99.1237 85.7753C99.5093 85.7753 99.8618 85.7158 100.181 85.5967C100.501 85.4777 100.842 85.2721 101.206 84.98L102.33 86.5219C102.01 86.8033 101.658 87.0413 101.272 87.2361C100.886 87.42 100.49 87.5607 100.082 87.6581C99.6745 87.7555 99.2724 87.8042 98.8758 87.8042Z" fill="#191D27"/>
<path d="M107.832 87.8042C107.072 87.8042 106.389 87.6148 105.783 87.2361C105.177 86.8465 104.698 86.3217 104.345 85.6617C104.003 84.9908 103.833 84.2171 103.833 83.3406C103.833 82.4858 104.003 81.7229 104.345 81.052C104.698 80.3811 105.171 79.8509 105.766 79.4614C106.372 79.0718 107.061 78.877 107.832 78.877C108.24 78.877 108.631 78.942 109.005 79.0718C109.391 79.1908 109.733 79.3586 110.03 79.575C110.338 79.7914 110.586 80.0349 110.774 80.3054C110.961 80.5651 111.066 80.841 111.088 81.1332L110.493 81.2306V75.6308H112.839V87.6419H110.625L110.526 85.6617L110.989 85.7104C110.966 85.9809 110.867 86.2406 110.691 86.4895C110.515 86.7383 110.278 86.9656 109.98 87.1712C109.694 87.3659 109.363 87.5228 108.989 87.6419C108.625 87.7501 108.24 87.8042 107.832 87.8042ZM108.361 85.8889C108.802 85.8889 109.187 85.7807 109.518 85.5643C109.848 85.3479 110.107 85.0503 110.294 84.6716C110.482 84.2928 110.575 83.8492 110.575 83.3406C110.575 82.8428 110.482 82.4046 110.294 82.0259C110.107 81.6363 109.848 81.3388 109.518 81.1332C109.187 80.9168 108.802 80.8085 108.361 80.8085C107.92 80.8085 107.535 80.9168 107.204 81.1332C106.884 81.3388 106.631 81.6363 106.444 82.0259C106.268 82.4046 106.179 82.8428 106.179 83.3406C106.179 83.8492 106.268 84.2928 106.444 84.6716C106.631 85.0503 106.884 85.3479 107.204 85.5643C107.535 85.7807 107.92 85.8889 108.361 85.8889Z" fill="#191D27"/>
<path d="M124.277 87.8042C123.561 87.8042 122.905 87.7176 122.31 87.5445C121.726 87.3713 121.203 87.1171 120.74 86.7816C120.289 86.4462 119.881 86.0404 119.517 85.5643L121.071 83.8275C121.611 84.5634 122.145 85.0665 122.674 85.337C123.214 85.5967 123.798 85.7266 124.426 85.7266C124.767 85.7266 125.07 85.6833 125.335 85.5967C125.61 85.4994 125.825 85.3641 125.979 85.191C126.133 85.0178 126.211 84.8122 126.211 84.5742C126.211 84.401 126.172 84.2441 126.095 84.1035C126.018 83.952 125.908 83.8221 125.764 83.7139C125.621 83.5949 125.45 83.4921 125.252 83.4055C125.054 83.3081 124.833 83.227 124.591 83.1621C124.349 83.0863 124.084 83.0268 123.798 82.9835C123.181 82.8428 122.641 82.6751 122.178 82.4804C121.715 82.2748 121.33 82.0259 121.021 81.7337C120.713 81.4307 120.481 81.0899 120.327 80.7112C120.184 80.3324 120.112 79.905 120.112 79.4289C120.112 78.942 120.222 78.4929 120.443 78.0817C120.663 77.6597 120.966 77.2972 121.352 76.9942C121.748 76.6912 122.2 76.4586 122.707 76.2963C123.225 76.134 123.77 76.0528 124.343 76.0528C125.048 76.0528 125.665 76.134 126.194 76.2963C126.723 76.4478 127.18 76.6696 127.566 76.9618C127.962 77.2539 128.293 77.611 128.557 78.033L126.987 79.5263C126.756 79.2233 126.502 78.969 126.227 78.7634C125.963 78.5578 125.671 78.4063 125.351 78.3089C125.043 78.2007 124.723 78.1466 124.393 78.1466C124.029 78.1466 123.715 78.1953 123.451 78.2927C123.186 78.3793 122.977 78.5091 122.823 78.6823C122.679 78.8554 122.608 79.0664 122.608 79.3153C122.608 79.51 122.657 79.6832 122.757 79.8347C122.856 79.9862 122.999 80.1214 123.186 80.2405C123.373 80.3487 123.599 80.446 123.864 80.5326C124.128 80.6192 124.42 80.6949 124.74 80.7598C125.346 80.8789 125.891 81.0358 126.376 81.2306C126.861 81.4253 127.274 81.6634 127.615 81.9447C127.968 82.2152 128.238 82.5399 128.425 82.9186C128.612 83.2865 128.706 83.7031 128.706 84.1684C128.706 84.9367 128.519 85.5913 128.144 86.1324C127.769 86.6734 127.252 87.09 126.591 87.3822C125.93 87.6635 125.158 87.8042 124.277 87.8042Z" fill="#191D27"/>
<path d="M130.621 91.2127V79.0556H132.885L132.951 80.9871L132.521 80.841C132.598 80.4947 132.786 80.1755 133.083 79.8834C133.392 79.5912 133.772 79.3531 134.223 79.1692C134.675 78.9852 135.149 78.8933 135.645 78.8933C136.405 78.8933 137.077 79.088 137.661 79.4776C138.256 79.8563 138.724 80.3811 139.066 81.052C139.418 81.7121 139.594 82.4749 139.594 83.3406C139.594 84.1954 139.424 84.9583 139.082 85.6292C138.741 86.3001 138.272 86.8303 137.677 87.2199C137.082 87.5986 136.405 87.7879 135.645 87.7879C135.138 87.7879 134.653 87.696 134.19 87.512C133.739 87.3172 133.353 87.063 133.034 86.7492C132.714 86.4354 132.516 86.0999 132.439 85.7428L132.984 85.5156V91.2127H130.621ZM135.116 85.8077C135.546 85.8077 135.926 85.7049 136.256 85.4994C136.587 85.2938 136.846 85.007 137.033 84.6391C137.22 84.2604 137.314 83.8275 137.314 83.3406C137.314 82.8537 137.22 82.4263 137.033 82.0583C136.846 81.6904 136.587 81.4037 136.256 81.1981C135.937 80.9925 135.557 80.8897 135.116 80.8897C134.675 80.8897 134.29 80.9925 133.959 81.1981C133.628 81.3929 133.37 81.6796 133.182 82.0583C132.995 82.4263 132.901 82.8537 132.901 83.3406C132.901 83.8275 132.995 84.2604 133.182 84.6391C133.37 85.007 133.628 85.2938 133.959 85.4994C134.29 85.7049 134.675 85.8077 135.116 85.8077Z" fill="#191D27"/>
<path d="M144.641 87.8042C143.914 87.8042 143.259 87.6094 142.675 87.2199C142.091 86.8303 141.628 86.3001 141.287 85.6292C140.945 84.9583 140.774 84.19 140.774 83.3244C140.774 82.4587 140.945 81.6958 141.287 81.0358C141.639 80.3649 142.113 79.8401 142.708 79.4614C143.303 79.0718 143.98 78.877 144.741 78.877C145.17 78.877 145.561 78.942 145.914 79.0718C146.278 79.1908 146.592 79.3586 146.856 79.575C147.131 79.7914 147.363 80.0403 147.55 80.3216C147.737 80.6029 147.87 80.9059 147.947 81.2306L147.451 81.1494V79.0556H149.781V87.6419H147.418V85.5805L147.947 85.5318C147.859 85.8348 147.715 86.1215 147.517 86.3921C147.319 86.6626 147.071 86.9061 146.773 87.1225C146.487 87.3281 146.162 87.4958 145.798 87.6256C145.435 87.7447 145.049 87.8042 144.641 87.8042ZM145.286 85.8077C145.727 85.8077 146.112 85.7049 146.443 85.4994C146.773 85.2938 147.027 85.007 147.203 84.6391C147.39 84.2604 147.484 83.8221 147.484 83.3244C147.484 82.8374 147.39 82.41 147.203 82.0421C147.027 81.6742 146.773 81.3875 146.443 81.1819C146.112 80.9654 145.727 80.8572 145.286 80.8572C144.856 80.8572 144.476 80.9654 144.146 81.1819C143.826 81.3875 143.573 81.6742 143.385 82.0421C143.198 82.41 143.104 82.8374 143.104 83.3244C143.104 83.8221 143.198 84.2604 143.385 84.6391C143.573 85.007 143.826 85.2938 144.146 85.4994C144.476 85.7049 144.856 85.8077 145.286 85.8077Z" fill="#191D27"/>
<path d="M155.935 87.8042C155.098 87.8042 154.348 87.6094 153.687 87.2199C153.026 86.8303 152.503 86.3001 152.117 85.6292C151.743 84.9583 151.556 84.1954 151.556 83.3406C151.556 82.4966 151.743 81.7391 152.117 81.0682C152.503 80.3865 153.026 79.8509 153.687 79.4614C154.348 79.0718 155.098 78.877 155.935 78.877C156.717 78.877 157.433 79.0177 158.083 79.299C158.733 79.5804 159.24 79.9699 159.604 80.4677L158.315 81.9934C158.161 81.7878 157.968 81.6039 157.736 81.4416C157.505 81.2684 157.252 81.1332 156.976 81.0358C156.712 80.9384 156.436 80.8897 156.15 80.8897C155.698 80.8897 155.296 80.9979 154.943 81.2143C154.602 81.4199 154.332 81.7067 154.134 82.0746C153.935 82.4425 153.836 82.8645 153.836 83.3406C153.836 83.8059 153.935 84.2225 154.134 84.5904C154.343 84.9475 154.624 85.2397 154.976 85.4669C155.329 85.6833 155.726 85.7915 156.166 85.7915C156.453 85.7915 156.723 85.7536 156.976 85.6779C157.23 85.5913 157.466 85.4669 157.687 85.3046C157.918 85.1423 158.127 84.9475 158.315 84.7203L159.587 86.246C159.213 86.7113 158.695 87.09 158.034 87.3822C157.373 87.6635 156.673 87.8042 155.935 87.8042Z" fill="#191D27"/>
<path d="M165.239 87.8042C164.292 87.8042 163.465 87.6148 162.76 87.2361C162.055 86.8574 161.504 86.338 161.108 85.6779C160.711 85.0178 160.513 84.2604 160.513 83.4055C160.513 82.7455 160.623 82.1395 160.843 81.5876C161.063 81.0358 161.372 80.5597 161.769 80.1593C162.165 79.7481 162.633 79.4343 163.173 79.2179C163.724 78.9907 164.319 78.877 164.958 78.877C165.553 78.877 166.104 78.9852 166.611 79.2017C167.118 79.4073 167.553 79.7048 167.916 80.0944C168.291 80.4731 168.577 80.9222 168.776 81.4416C168.974 81.961 169.062 82.529 169.04 83.1458L169.024 83.86H162L161.62 82.4479H167.09L166.826 82.7401V82.383C166.804 82.0908 166.704 81.8257 166.528 81.5876C166.363 81.3496 166.148 81.1656 165.884 81.0358C165.619 80.9059 165.322 80.841 164.991 80.841C164.506 80.841 164.093 80.933 163.752 81.1169C163.421 81.3009 163.168 81.5714 162.992 81.9285C162.815 82.2856 162.727 82.7184 162.727 83.227C162.727 83.7464 162.837 84.1954 163.058 84.5742C163.289 84.9529 163.609 85.2505 164.016 85.4669C164.435 85.6725 164.925 85.7753 165.487 85.7753C165.873 85.7753 166.225 85.7158 166.545 85.5967C166.864 85.4777 167.206 85.2721 167.569 84.98L168.693 86.5219C168.374 86.8033 168.021 87.0413 167.635 87.2361C167.25 87.42 166.853 87.5607 166.446 87.6581C166.038 87.7555 165.636 87.8042 165.239 87.8042Z" fill="#191D27"/>
<defs>
<filter id="filter0_d_0_4690" x="0" y="0.564148" width="320.501" height="332.374" filterUnits="userSpaceOnUse" color-interpolation-filters="sRGB">
<feFlood flood-opacity="0" result="BackgroundImageFix"/>
<feColorMatrix in="SourceAlpha" type="matrix" values="0 0 0 0 0 0 0 0 0 0 0 0 0 0 0 0 0 0 127 0" result="hardAlpha"/>
<feOffset/>
<feGaussianBlur stdDeviation="25"/>
<feComposite in2="hardAlpha" operator="out"/>
<feColorMatrix type="matrix" values="0 0 0 0 0 0 0 0 0 0 0 0 0 0 0 0 0 0 0.1 0"/>
<feBlend mode="normal" in2="BackgroundImageFix" result="effect1_dropShadow_0_4690"/>
<feBlend mode="normal" in="SourceGraphic" in2="effect1_dropShadow_0_4690" result="shape"/>
</filter>
</defs>
</svg>
