<svg width="14" height="15" viewBox="0 0 14 15" fill="none" xmlns="http://www.w3.org/2000/svg">
<path d="M9.73176 8.57116L14 7.79238L9.73176 7.01818C9.23959 6.92665 8.78668 6.68813 8.4327 6.33405C8.07872 5.97996 7.84028 5.52691 7.74877 5.03459L6.97939 0.783386L6.20543 5.03001C6.11574 5.52312 5.87788 5.97715 5.52358 6.33155C5.16929 6.68595 4.7154 6.92388 4.22244 7.0136L0 7.78322L4.22244 8.57116C4.71513 8.66148 5.1687 8.89961 5.52289 9.25391C5.87708 9.6082 6.11513 10.0619 6.20543 10.5547L6.97939 14.806L7.74877 10.5639C7.838 10.0697 8.0755 9.61428 8.42972 9.25832C8.78393 8.90236 9.23808 8.66268 9.73176 8.57116Z" fill="#918EFF"/>
</svg>
