<svg width="393" height="372" viewBox="0 0 393 372" fill="none" xmlns="http://www.w3.org/2000/svg">
<g filter="url(#filter0_d_0_4552)">
<path d="M50 54.0153C50 51.8396 51.7607 50.0758 53.9325 50.0758H339.04C341.212 50.0758 342.973 51.8396 342.973 54.0153V317.573C342.973 319.749 341.212 321.513 339.04 321.513H53.9325C51.7607 321.513 50 319.749 50 317.573V54.0153Z" fill="#FFF9E9"/>
</g>
<path d="M68.3105 91.4253C68.3105 87.0741 71.8357 83.5467 76.1842 83.5467H316.33C320.679 83.5467 324.204 87.0741 324.204 91.4253V299.42C324.204 303.771 320.679 307.299 316.33 307.299H76.1842C71.8357 307.299 68.3105 303.771 68.3105 299.42V91.4253Z" fill="white"/>
<path d="M122.496 285.518H272.512C287.211 285.518 299.954 274.82 301.953 260.243C301.997 259.9 302.04 259.557 302.073 259.209C302.731 252.875 301.437 246.612 296.302 241.796C279.859 226.364 302.823 206.47 299.383 192.752C295.943 179.034 283.972 186.914 261.709 165.317C239.446 143.719 242.929 131.667 204.223 158.161C173.173 179.426 135.956 155.761 117.458 165.023C98.9609 174.284 117.518 201.665 94.9125 231.158C80.6483 249.768 91.3207 266.598 101.167 276.491C104.377 279.719 108.248 282.211 112.513 283.793C115.712 284.957 119.092 285.541 122.496 285.518Z" fill="#CCF2FF"/>
<g style="mix-blend-mode:multiply" opacity="0.48">
<path d="M299.376 192.746C295.943 179.028 283.923 186.913 261.6 165.315C246.404 150.623 243.162 140.328 230.402 143.631C240.591 147.19 243.478 150.411 246.317 157.017C262.57 194.977 228.914 233.161 251.809 250.307C264.417 259.753 238.215 273.564 214.339 285.519H272.432C287.171 285.519 299.948 274.821 301.953 260.243C301.996 259.9 302.04 259.557 302.073 259.209C302.732 252.875 301.435 246.612 296.286 241.796C279.821 226.359 302.808 206.464 299.376 192.746Z" fill="#ADE4F2"/>
</g>
<path d="M169.478 160.676L141.554 154.504L151.934 175.191L158.775 169.653L161.495 174.458L162.367 165.795L169.478 160.676Z" fill="#379CF7"/>
<path d="M161.386 165.275L162.153 165.69L161.29 174.271L158.597 169.511L141.554 154.504L161.386 165.275Z" fill="#092B96"/>
<path d="M155.745 172.041L161.696 174.271L158.895 169.674L155.745 172.041Z" fill="#1574BC"/>
<path d="M163.342 175.191C163.085 174.952 162.84 174.697 162.611 174.442L162.813 174.272C163.036 174.521 163.276 174.771 163.527 175.01L163.342 175.191Z" fill="#092B96"/>
<path d="M237.211 218.403C236.522 218.359 235.822 218.299 235.139 218.223L235.166 217.963C235.85 218.039 236.544 218.098 237.228 218.142L237.211 218.403ZM233.077 217.946C232.393 217.832 231.704 217.707 231.032 217.561L231.086 217.305C231.759 217.447 232.442 217.577 233.115 217.686L233.077 217.946ZM229.003 217.083C228.335 216.909 227.662 216.713 227.006 216.507L227.082 216.257C227.733 216.463 228.406 216.653 229.073 216.833L229.003 217.083ZM225.036 215.839C224.385 215.605 223.734 215.35 223.1 215.078L223.197 214.839C223.832 215.105 224.483 215.382 225.123 215.594L225.036 215.839ZM221.195 214.209C220.571 213.916 219.947 213.601 219.34 213.275L219.459 213.047C220.067 213.367 220.685 213.677 221.309 213.975L221.195 214.209ZM217.522 212.259C216.925 211.906 216.334 211.537 215.759 211.173L215.9 210.955C216.475 211.33 217.061 211.699 217.658 212.042L217.522 212.259ZM214.044 209.978C213.502 209.57 212.927 209.146 212.384 208.717L212.547 208.511C213.089 208.94 213.632 209.364 214.175 209.766L214.044 209.978ZM210.789 207.381C210.246 206.925 209.753 206.452 209.259 205.974L209.438 205.784C209.932 206.262 210.442 206.735 210.963 207.185L210.789 207.381ZM207.794 204.497C207.322 203.991 206.85 203.47 206.4 202.943L206.601 202.775C207.045 203.318 207.512 203.818 207.984 204.317L207.794 204.497ZM205.081 201.33C204.658 200.787 204.246 200.243 203.85 199.651L204.067 199.499C204.457 200.042 204.864 200.624 205.288 201.172L205.081 201.33ZM202.705 197.913L202.445 197.484C202.168 197.022 201.902 196.561 201.652 196.115L201.88 195.985C202.13 196.43 202.39 196.892 202.672 197.348C202.754 197.489 202.841 197.631 202.927 197.772L202.705 197.913ZM200.703 194.257C200.399 193.616 200.122 192.97 199.878 192.34L200.122 192.247C200.367 192.872 200.638 193.513 200.942 194.149L200.703 194.257ZM199.233 190.384C199.035 189.718 198.872 189.042 198.744 188.358L198.999 188.309C199.124 188.967 199.287 189.646 199.482 190.314L199.233 190.384ZM200.73 186.582V186.321C201.412 186.298 202.09 186.205 202.754 186.044L202.824 186.294C202.139 186.468 201.437 186.567 200.73 186.587V186.582ZM198.641 186.517C197.948 186.454 197.259 186.347 196.58 186.196L196.634 185.941C197.239 186.076 197.851 186.176 198.468 186.24C198.468 185.941 198.435 185.648 198.435 185.365C198.435 184.958 198.435 184.561 198.495 184.181H198.755C198.712 184.582 198.69 184.984 198.69 185.387C198.69 185.68 198.701 185.979 198.723 186.283H198.69L198.641 186.517ZM194.578 185.572C193.929 185.311 193.308 184.987 192.722 184.605L192.863 184.387C193.436 184.759 194.043 185.076 194.675 185.333L194.578 185.572ZM204.74 185.447L204.593 185.229L204.745 185.126C205.238 184.762 205.645 184.295 205.939 183.757L206.166 183.882C205.855 184.453 205.424 184.95 204.902 185.338L204.74 185.447ZM191.1 183.274C190.607 182.773 190.162 182.228 189.771 181.644L189.982 181.492C190.367 182.059 190.803 182.59 191.284 183.078L191.1 183.274ZM199.238 182.231L198.994 182.139C199.241 181.474 199.609 180.86 200.079 180.33L200.274 180.504C199.822 181.009 199.469 181.595 199.233 182.231H199.238ZM206.438 181.84C206.424 181.41 206.31 180.99 206.107 180.612C205.992 180.414 205.851 180.231 205.689 180.069L205.879 179.884C206.058 180.069 206.211 180.277 206.335 180.504C206.56 180.916 206.684 181.376 206.698 181.845L206.438 181.84ZM176.798 180.069V179.808C177.46 179.808 178.154 179.808 178.865 179.738V179.998C178.138 180.042 177.438 180.069 176.776 180.069H176.798ZM174.715 180.009C174.004 179.96 173.309 179.884 172.642 179.781L172.68 179.52C173.342 179.624 174.031 179.7 174.731 179.743L174.715 180.009ZM188.729 179.852C188.43 179.265 188.154 178.64 187.877 177.945L188.121 177.847C188.392 178.537 188.664 179.151 188.962 179.732L188.729 179.852ZM180.949 179.819V179.558L182.576 179.357L182.989 179.298L183.027 179.558L182.609 179.613C181.99 179.694 181.453 179.759 180.927 179.819H180.949ZM201.945 179.412L201.864 179.162C202.54 178.928 203.261 178.855 203.969 178.95L203.931 179.205C203.262 179.12 202.583 179.191 201.945 179.412ZM170.602 179.357C169.928 179.183 169.263 178.973 168.611 178.727L168.703 178.483C169.346 178.725 170.002 178.932 170.667 179.102L170.602 179.357ZM185.067 179.2L185.018 178.945C185.691 178.812 186.358 178.645 187.014 178.445L187.09 178.695C186.416 178.9 185.731 179.07 185.039 179.205L185.067 179.2ZM189.049 177.956L188.94 177.717C189.552 177.429 190.136 177.087 190.687 176.696L190.834 176.908C190.264 177.314 189.657 177.667 189.022 177.961L189.049 177.956ZM166.679 177.869C166.061 177.55 165.466 177.187 164.9 176.783L165.052 176.571C165.609 176.972 166.193 177.335 166.799 177.657L166.679 177.869ZM187.161 175.979C186.948 175.324 186.776 174.656 186.645 173.98L186.906 173.931C187.029 174.606 187.197 175.272 187.41 175.924L187.161 175.979ZM192.391 175.501L192.196 175.327C192.64 174.809 193.017 174.238 193.319 173.627L193.552 173.746C193.239 174.377 192.849 174.966 192.391 175.501ZM186.754 171.867H186.494C186.503 171.555 186.532 171.245 186.58 170.938C186.643 170.547 186.743 170.163 186.879 169.792L187.123 169.884C186.995 170.236 186.901 170.6 186.841 170.97C186.793 171.267 186.764 171.566 186.754 171.867ZM194.225 171.742L193.97 171.698C194.035 171.34 194.068 170.976 194.068 170.612C194.068 170.293 194.041 169.975 193.986 169.661L194.241 169.618C194.3 169.946 194.33 170.279 194.328 170.612C194.326 170.991 194.287 171.37 194.214 171.742H194.225ZM188.132 168.119L187.931 167.95C188.388 167.4 188.968 166.964 189.624 166.679L189.727 166.924C189.104 167.188 188.554 167.598 188.121 168.119H188.132ZM193.243 167.814C192.989 167.438 192.646 167.13 192.245 166.918C192.061 166.824 191.866 166.754 191.664 166.712L191.718 166.456C191.943 166.504 192.16 166.58 192.364 166.685C192.803 166.922 193.176 167.265 193.449 167.684L193.243 167.814Z" fill="#092B96"/>
<path d="M242.37 170.673C242.002 170.476 241.616 170.296 241.212 170.134C244.266 172.157 246.444 175.218 247.322 178.722C248.201 182.227 247.719 185.926 245.968 189.103C244.218 192.279 241.324 194.706 237.848 195.913C234.373 197.121 230.563 197.022 227.157 195.637C227.51 195.864 227.879 196.079 228.26 196.279C231.709 197.901 235.665 198.161 239.305 197.004C242.945 195.847 245.989 193.362 247.805 190.066C249.622 186.77 250.07 182.915 249.058 179.304C248.046 175.693 245.65 172.602 242.37 170.673Z" fill="#1D88D8"/>
<path d="M240.075 169.61C237.526 168.224 234.626 167.628 231.74 167.899C228.854 168.17 226.113 169.296 223.864 171.132C221.616 172.969 219.96 175.435 219.107 178.218C218.254 181 218.243 183.974 219.074 186.764C219.905 189.553 221.541 192.032 223.775 193.886C226.01 195.741 228.742 196.888 231.625 197.181C234.509 197.475 237.414 196.903 239.974 195.537C242.533 194.17 244.632 192.072 246.003 189.507C246.915 187.81 247.485 185.949 247.68 184.03C247.876 182.111 247.693 180.173 247.143 178.325C246.592 176.477 245.685 174.757 244.472 173.261C243.259 171.766 241.765 170.525 240.075 169.61ZM228.143 191.823C226.314 190.832 224.819 189.319 223.846 187.474C222.873 185.629 222.467 183.537 222.678 181.46C222.89 179.383 223.71 177.416 225.034 175.808C226.358 174.199 228.128 173.021 230.119 172.423C232.109 171.825 234.232 171.833 236.218 172.447C238.204 173.061 239.965 174.252 241.277 175.871C242.588 177.49 243.393 179.463 243.589 181.541C243.784 183.619 243.362 185.709 242.375 187.546C241.051 190.006 238.809 191.838 236.142 192.64C233.475 193.442 230.6 193.148 228.149 191.823H228.143Z" fill="#379CF7"/>
<path d="M222.66 176.465C224.402 173.205 227.286 170.723 230.744 169.508C234.203 168.292 237.985 168.43 241.348 169.896C241 169.665 240.631 169.445 240.262 169.241C236.871 167.63 232.999 167.394 229.442 168.583C225.885 169.771 222.912 172.293 221.133 175.631C219.354 178.969 218.905 182.87 219.878 186.533C220.85 190.196 223.171 193.343 226.363 195.328C226.743 195.536 227.123 195.723 227.508 195.877C224.453 193.838 222.262 190.716 221.365 187.124C220.467 183.532 220.929 179.73 222.66 176.465Z" fill="#379CF7"/>
<g style="mix-blend-mode:overlay" opacity="0.05">
<path d="M237.949 173.131C236.1 172.19 234.008 171.81 231.939 172.037C229.869 172.264 227.915 173.089 226.323 174.408C224.73 175.726 223.572 177.478 222.993 179.443C222.415 181.408 222.443 183.498 223.073 185.447C223.704 187.397 224.908 189.119 226.535 190.396C228.162 191.673 230.137 192.448 232.212 192.622C234.287 192.796 236.368 192.362 238.191 191.375C240.015 190.387 241.5 188.891 242.458 187.075C243.742 184.638 243.988 181.801 243.142 179.186C242.297 176.571 240.429 174.393 237.949 173.131Z" fill="white"/>
</g>
<path style="mix-blend-mode:overlay" d="M242.263 177.327L222.622 183.006C222.444 181.124 222.82 179.231 223.704 177.547L238.211 173.352C239.922 174.279 241.327 175.657 242.263 177.327Z" fill="url(#paint0_linear_0_4552)"/>
<path style="mix-blend-mode:overlay" d="M242.459 187.182C242.41 187.281 242.355 187.381 242.3 187.474L228.112 191.74C225.75 190.506 223.937 188.421 223.037 185.902L243.337 179.788C243.939 182.278 243.628 184.904 242.459 187.182Z" fill="url(#paint1_linear_0_4552)"/>
<path d="M230.111 195.097L225.46 192.578L210.266 220.868L214.917 223.387L230.111 195.097Z" fill="#379CF7"/>
<path d="M288.956 187.366V184.616C288.956 184.329 288.842 184.053 288.64 183.85C288.437 183.647 288.163 183.533 287.876 183.533H286.478C286.154 183.53 285.84 183.423 285.581 183.228C285.322 183.034 285.131 182.761 285.037 182.45C284.875 181.952 284.677 181.467 284.443 180.999C284.296 180.713 284.243 180.388 284.291 180.07C284.34 179.752 284.487 179.457 284.713 179.229L285.701 178.238C285.801 178.137 285.881 178.018 285.935 177.886C285.99 177.755 286.018 177.614 286.018 177.472C286.018 177.329 285.99 177.188 285.935 177.057C285.881 176.926 285.801 176.806 285.701 176.706L283.758 174.756C283.657 174.655 283.538 174.574 283.407 174.519C283.275 174.464 283.134 174.436 282.991 174.436C282.849 174.436 282.708 174.464 282.576 174.519C282.445 174.574 282.325 174.655 282.225 174.756L281.237 175.747C281.011 175.974 280.718 176.123 280.401 176.171C280.085 176.22 279.761 176.166 279.478 176.018C279.01 175.784 278.526 175.584 278.031 175.417C277.736 175.319 277.478 175.133 277.293 174.883C277.107 174.633 277.003 174.332 276.995 174.02V172.596C276.995 172.309 276.881 172.033 276.678 171.83C276.476 171.627 276.201 171.513 275.915 171.513H273.173C272.887 171.513 272.612 171.627 272.41 171.83C272.207 172.033 272.094 172.309 272.094 172.596V174.02C272.092 174.341 271.989 174.653 271.8 174.911C271.611 175.17 271.345 175.362 271.041 175.46C270.545 175.626 270.062 175.827 269.594 176.061C269.31 176.209 268.985 176.263 268.668 176.214C268.351 176.165 268.057 176.017 267.829 175.791L266.842 174.8C266.741 174.699 266.622 174.619 266.491 174.565C266.36 174.51 266.22 174.482 266.078 174.482C265.936 174.482 265.796 174.51 265.664 174.565C265.533 174.619 265.414 174.699 265.314 174.8L263.371 176.749C263.271 176.849 263.191 176.969 263.137 177.1C263.082 177.232 263.054 177.373 263.054 177.515C263.054 177.657 263.082 177.798 263.137 177.93C263.191 178.061 263.271 178.181 263.371 178.281L264.359 179.272C264.584 179.501 264.731 179.795 264.78 180.113C264.828 180.431 264.775 180.756 264.629 181.042C264.396 181.512 264.196 181.997 264.029 182.493C263.937 182.804 263.748 183.077 263.489 183.272C263.231 183.467 262.917 183.574 262.594 183.576H261.196C260.909 183.576 260.635 183.69 260.432 183.893C260.23 184.097 260.116 184.372 260.116 184.659V187.41C260.116 187.697 260.23 187.972 260.432 188.175C260.635 188.378 260.909 188.493 261.196 188.493H262.594C262.917 188.495 263.231 188.602 263.489 188.797C263.748 188.992 263.937 189.265 264.029 189.575C264.183 190.049 264.366 190.512 264.58 190.961C264.727 191.247 264.78 191.573 264.731 191.891C264.683 192.208 264.535 192.503 264.31 192.732L263.322 193.723C263.222 193.823 263.142 193.943 263.088 194.074C263.034 194.206 263.006 194.347 263.006 194.489C263.006 194.631 263.034 194.772 263.088 194.904C263.142 195.035 263.222 195.154 263.322 195.255L265.266 197.204C265.366 197.305 265.485 197.385 265.616 197.439C265.747 197.494 265.887 197.522 266.029 197.522C266.171 197.522 266.312 197.494 266.443 197.439C266.574 197.385 266.693 197.305 266.793 197.204L267.819 196.219C268.046 195.992 268.34 195.844 268.657 195.795C268.974 195.747 269.299 195.8 269.584 195.948C270.051 196.183 270.534 196.383 271.03 196.549C271.335 196.647 271.6 196.839 271.789 197.098C271.978 197.357 272.081 197.669 272.083 197.989V199.392C272.083 199.679 272.196 199.954 272.399 200.157C272.601 200.36 272.876 200.474 273.162 200.474H275.915C276.201 200.474 276.476 200.36 276.678 200.157C276.881 199.954 276.995 199.679 276.995 199.392V197.989C276.995 197.668 277.098 197.356 277.287 197.097C277.476 196.838 277.742 196.646 278.047 196.549C278.543 196.382 279.026 196.182 279.494 195.948C279.778 195.8 280.101 195.746 280.418 195.795C280.734 195.843 281.027 195.992 281.253 196.219L282.241 197.21C282.341 197.311 282.461 197.392 282.592 197.447C282.724 197.502 282.865 197.53 283.008 197.53C283.15 197.53 283.291 197.502 283.423 197.447C283.554 197.392 283.674 197.311 283.774 197.21L285.717 195.26C285.818 195.16 285.897 195.04 285.951 194.909C286.006 194.778 286.034 194.637 286.034 194.494C286.034 194.352 286.006 194.211 285.951 194.08C285.897 193.948 285.818 193.829 285.717 193.728L284.729 192.737C284.504 192.509 284.356 192.214 284.307 191.896C284.259 191.578 284.312 191.253 284.46 190.967C284.693 190.499 284.891 190.014 285.053 189.516C285.147 189.205 285.338 188.932 285.597 188.738C285.856 188.543 286.171 188.436 286.494 188.433H287.892C288.173 188.429 288.441 188.315 288.64 188.116C288.838 187.917 288.952 187.648 288.956 187.366ZM274.522 189.316C273.867 189.316 273.226 189.121 272.681 188.755C272.136 188.39 271.711 187.871 271.461 187.263C271.21 186.656 271.144 185.987 271.272 185.343C271.4 184.698 271.716 184.105 272.179 183.64C272.643 183.175 273.233 182.859 273.876 182.731C274.519 182.602 275.185 182.668 275.791 182.92C276.396 183.171 276.914 183.597 277.278 184.144C277.642 184.691 277.837 185.334 277.837 185.991C277.837 186.873 277.487 187.718 276.866 188.342C276.244 188.965 275.401 189.316 274.522 189.316Z" fill="#1D88D8"/>
<path d="M302.689 204.495V202.922C302.689 202.757 302.623 202.598 302.507 202.481C302.391 202.364 302.233 202.298 302.068 202.298H301.274C301.091 202.297 300.914 202.238 300.766 202.13C300.619 202.022 300.509 201.87 300.452 201.695C300.36 201.409 300.246 201.13 300.109 200.863C300.025 200.699 299.996 200.512 300.024 200.33C300.052 200.148 300.137 199.98 300.267 199.849L300.811 199.301C300.869 199.244 300.915 199.175 300.947 199.1C300.978 199.024 300.994 198.943 300.994 198.861C300.994 198.778 300.978 198.697 300.947 198.621C300.915 198.546 300.869 198.477 300.811 198.42L299.723 197.324C299.665 197.265 299.597 197.219 299.522 197.187C299.447 197.156 299.366 197.139 299.284 197.139C299.203 197.139 299.122 197.156 299.047 197.187C298.972 197.219 298.904 197.265 298.846 197.324L298.302 197.872C298.172 198.001 298.004 198.086 297.823 198.113C297.643 198.141 297.458 198.11 297.295 198.025C297.028 197.892 296.752 197.778 296.468 197.685C296.295 197.628 296.144 197.517 296.036 197.369C295.929 197.221 295.87 197.042 295.869 196.858V196.042C295.869 195.876 295.804 195.718 295.688 195.6C295.571 195.483 295.413 195.418 295.249 195.418H293.687C293.522 195.418 293.365 195.483 293.248 195.6C293.132 195.718 293.066 195.876 293.066 196.042V196.842C293.065 197.025 293.007 197.204 292.9 197.353C292.792 197.501 292.641 197.612 292.468 197.669C292.184 197.762 291.908 197.875 291.641 198.009C291.478 198.094 291.293 198.124 291.112 198.097C290.931 198.069 290.764 197.985 290.634 197.855L290.089 197.307C290.033 197.249 289.965 197.203 289.89 197.171C289.815 197.14 289.735 197.123 289.654 197.123C289.573 197.123 289.493 197.14 289.418 197.171C289.343 197.203 289.275 197.249 289.219 197.307L288.13 198.403C288.072 198.461 288.026 198.529 287.994 198.605C287.963 198.681 287.947 198.762 287.947 198.844C287.947 198.926 287.963 199.007 287.994 199.083C288.026 199.159 288.072 199.227 288.13 199.285L288.674 199.833C288.803 199.964 288.887 200.133 288.914 200.315C288.942 200.497 288.911 200.683 288.827 200.846C288.694 201.115 288.582 201.394 288.489 201.679C288.432 201.853 288.322 202.005 288.175 202.114C288.027 202.222 287.85 202.28 287.668 202.282H286.824C286.66 202.283 286.504 202.349 286.389 202.466C286.274 202.583 286.209 202.741 286.209 202.906V204.478C286.209 204.643 286.274 204.801 286.389 204.918C286.504 205.035 286.66 205.101 286.824 205.103H287.624C287.806 205.104 287.984 205.163 288.131 205.271C288.279 205.379 288.389 205.531 288.446 205.705C288.538 205.991 288.651 206.269 288.783 206.538C288.868 206.701 288.898 206.888 288.871 207.07C288.843 207.252 288.759 207.42 288.631 207.551L288.087 208.099C288.029 208.157 287.982 208.226 287.951 208.301C287.919 208.377 287.903 208.458 287.903 208.54C287.903 208.622 287.919 208.704 287.951 208.779C287.982 208.855 288.029 208.924 288.087 208.981L289.175 210.077C289.232 210.135 289.3 210.181 289.374 210.213C289.449 210.245 289.529 210.261 289.611 210.261C289.692 210.261 289.772 210.245 289.847 210.213C289.921 210.181 289.989 210.135 290.046 210.077L290.59 209.529C290.721 209.4 290.888 209.316 291.068 209.287C291.249 209.259 291.434 209.288 291.597 209.37C291.863 209.508 292.14 209.623 292.424 209.715C292.598 209.773 292.749 209.883 292.856 210.032C292.963 210.18 293.022 210.359 293.023 210.542V211.342C293.023 211.508 293.088 211.667 293.205 211.784C293.321 211.901 293.479 211.967 293.643 211.967H295.205C295.37 211.967 295.528 211.901 295.644 211.784C295.76 211.667 295.826 211.508 295.826 211.342V210.542C295.827 210.359 295.885 210.18 295.993 210.032C296.1 209.883 296.251 209.773 296.424 209.715C296.709 209.623 296.986 209.508 297.252 209.37C297.415 209.288 297.6 209.259 297.78 209.287C297.961 209.316 298.128 209.4 298.259 209.529L298.803 210.077C298.86 210.135 298.928 210.182 299.003 210.213C299.079 210.245 299.159 210.261 299.241 210.261C299.322 210.261 299.403 210.245 299.478 210.213C299.554 210.182 299.622 210.135 299.679 210.077L300.768 208.981C300.826 208.924 300.872 208.855 300.903 208.779C300.935 208.704 300.951 208.622 300.951 208.54C300.951 208.458 300.935 208.377 300.903 208.301C300.872 208.226 300.826 208.157 300.768 208.099L300.223 207.551C300.094 207.421 300.009 207.253 299.98 207.071C299.952 206.888 299.982 206.702 300.065 206.538C300.202 206.27 300.317 205.992 300.408 205.705C300.465 205.531 300.575 205.379 300.723 205.271C300.87 205.163 301.048 205.104 301.23 205.103H302.063C302.226 205.104 302.382 205.041 302.499 204.928C302.616 204.814 302.684 204.658 302.689 204.495ZM294.443 207.02C293.798 207.02 293.166 206.827 292.629 206.466C292.092 206.105 291.674 205.592 291.427 204.991C291.179 204.39 291.115 203.73 291.241 203.092C291.367 202.454 291.678 201.869 292.134 201.409C292.591 200.949 293.173 200.636 293.806 200.51C294.44 200.383 295.096 200.448 295.693 200.697C296.29 200.945 296.8 201.367 297.159 201.907C297.517 202.448 297.709 203.083 297.709 203.733C297.709 204.605 297.365 205.441 296.752 206.057C296.14 206.674 295.309 207.02 294.443 207.02Z" fill="#379CF7"/>
<path d="M308.182 186.777V185.243C308.182 185.082 308.117 184.929 308.002 184.815C307.886 184.701 307.73 184.637 307.566 184.635H306.765C306.582 184.634 306.404 184.577 306.257 184.472C306.109 184.367 305.999 184.219 305.942 184.049C305.849 183.772 305.736 183.501 305.604 183.239C305.52 183.08 305.489 182.899 305.516 182.722C305.544 182.545 305.628 182.381 305.757 182.254L306.302 181.721C306.416 181.607 306.481 181.453 306.481 181.292C306.481 181.132 306.416 180.978 306.302 180.863L305.212 179.798C305.154 179.742 305.086 179.697 305.012 179.667C304.937 179.637 304.857 179.621 304.776 179.621C304.695 179.621 304.614 179.637 304.54 179.667C304.465 179.697 304.397 179.742 304.34 179.798L303.795 180.331C303.665 180.457 303.498 180.541 303.316 180.568C303.135 180.596 302.95 180.567 302.787 180.485C302.522 180.352 302.247 180.24 301.964 180.149C301.789 180.095 301.637 179.987 301.528 179.843C301.42 179.698 301.36 179.524 301.359 179.345V178.551C301.358 178.47 301.341 178.391 301.308 178.317C301.276 178.242 301.229 178.175 301.169 178.119C301.11 178.063 301.04 178.019 300.963 177.99C300.886 177.961 300.804 177.947 300.721 177.949H299.152C298.987 177.949 298.829 178.013 298.712 178.127C298.596 178.241 298.53 178.395 298.53 178.556V179.334C298.529 179.513 298.471 179.687 298.363 179.831C298.256 179.975 298.105 180.083 297.931 180.139C297.646 180.229 297.369 180.342 297.103 180.474C296.939 180.555 296.754 180.584 296.573 180.556C296.392 180.529 296.225 180.446 296.095 180.32L295.55 179.787C295.432 179.675 295.275 179.612 295.111 179.612C294.947 179.612 294.789 179.675 294.672 179.787L293.582 180.853C293.467 180.967 293.403 181.121 293.403 181.282C293.403 181.442 293.467 181.596 293.582 181.71L294.127 182.243C294.257 182.37 294.342 182.534 294.37 182.711C294.399 182.888 294.369 183.069 294.285 183.229C294.149 183.49 294.035 183.76 293.942 184.039C293.885 184.208 293.775 184.356 293.627 184.461C293.479 184.566 293.302 184.623 293.119 184.625H292.323C292.159 184.625 292.001 184.689 291.884 184.802C291.768 184.916 291.702 185.071 291.702 185.232V186.766C291.704 186.926 291.77 187.08 291.886 187.192C292.002 187.305 292.16 187.368 292.323 187.368H293.119C293.302 187.37 293.481 187.428 293.628 187.534C293.776 187.64 293.886 187.789 293.942 187.96C294.035 188.236 294.15 188.505 294.285 188.764C294.369 188.924 294.399 189.105 294.37 189.282C294.342 189.459 294.257 189.623 294.127 189.75L293.582 190.283C293.525 190.338 293.479 190.405 293.448 190.478C293.417 190.551 293.401 190.63 293.401 190.709C293.401 190.788 293.417 190.866 293.448 190.939C293.479 191.013 293.525 191.079 293.582 191.135L294.672 192.2C294.789 192.313 294.947 192.376 295.111 192.376C295.275 192.376 295.432 192.313 295.55 192.2L296.095 191.668C296.225 191.542 296.393 191.46 296.574 191.433C296.755 191.406 296.94 191.436 297.103 191.519C297.371 191.647 297.647 191.758 297.931 191.849C298.105 191.905 298.256 192.012 298.363 192.157C298.471 192.301 298.529 192.475 298.53 192.653V193.436C298.532 193.597 298.598 193.75 298.714 193.862C298.831 193.975 298.988 194.038 299.152 194.038H300.721C300.884 194.037 301.04 193.973 301.155 193.861C301.27 193.748 301.336 193.596 301.337 193.436V192.685C301.338 192.506 301.398 192.332 301.506 192.187C301.615 192.043 301.767 191.936 301.942 191.881C302.224 191.79 302.499 191.679 302.765 191.55C302.927 191.468 303.113 191.438 303.294 191.465C303.475 191.492 303.643 191.574 303.773 191.7L304.318 192.232C304.375 192.288 304.443 192.333 304.518 192.363C304.593 192.394 304.673 192.409 304.754 192.409C304.835 192.409 304.915 192.394 304.99 192.363C305.065 192.333 305.133 192.288 305.19 192.232L306.28 191.167C306.337 191.111 306.383 191.045 306.414 190.971C306.445 190.898 306.461 190.82 306.461 190.741C306.461 190.661 306.445 190.583 306.414 190.51C306.383 190.437 306.337 190.37 306.28 190.314L305.735 189.782C305.606 189.654 305.522 189.49 305.495 189.313C305.467 189.136 305.498 188.955 305.582 188.796C305.714 188.536 305.827 188.267 305.92 187.992C305.976 187.821 306.086 187.672 306.234 187.566C306.381 187.46 306.56 187.402 306.743 187.4H307.544C307.628 187.402 307.712 187.388 307.791 187.357C307.869 187.327 307.94 187.281 308 187.223C308.06 187.164 308.106 187.095 308.138 187.018C308.169 186.941 308.184 186.859 308.182 186.777ZM299.936 187.629C299.613 187.629 299.297 187.536 299.028 187.36C298.759 187.184 298.55 186.935 298.426 186.643C298.302 186.351 298.27 186.029 298.333 185.719C298.396 185.409 298.552 185.124 298.78 184.901C299.009 184.677 299.3 184.525 299.618 184.464C299.935 184.402 300.263 184.433 300.562 184.554C300.861 184.675 301.116 184.88 301.296 185.143C301.475 185.406 301.571 185.715 301.571 186.031C301.571 186.241 301.529 186.449 301.447 186.643C301.365 186.837 301.244 187.013 301.092 187.161C300.941 187.31 300.76 187.427 300.562 187.508C300.364 187.588 300.151 187.629 299.936 187.629Z" fill="#2B56E0"/>
<path d="M128.736 236.555C128.736 236.555 113.017 215.977 79.7549 218.096C79.7549 218.096 97.3797 239.24 128.736 236.555Z" fill="#1D88D8"/>
<path d="M119.424 222.54C119.424 222.54 122.851 196.838 97.6793 174.731C97.6793 174.731 95.2031 202.187 119.424 222.54Z" fill="#7DC4F9"/>
<path d="M116.834 225.758C116.834 225.758 138.944 213.823 142.011 181.627C142.033 181.627 119.083 195.297 116.834 225.758Z" fill="#7DC4F9"/>
<path d="M121.748 224.379C121.748 224.379 103.404 212.921 110.099 207.112C115.111 202.76 105.243 197.176 109.02 195.022C112.797 192.868 113.558 194.846 112.257 189.279C110.957 183.712 115.343 182.206 116.935 176.541C118.527 170.875 126.377 172.963 125.805 181.19C125.233 189.417 127.596 180.695 130.197 184.163C132.797 187.631 124.165 200.957 127.451 199.819C130.736 198.682 133.256 201.226 132.123 205.244C129.425 214.619 121.748 224.379 121.748 224.379Z" fill="#1D88D8"/>
<g style="mix-blend-mode:multiply" opacity="0.39">
<path d="M122.582 228.022C122.566 228.015 122.552 228.004 122.541 227.989C122.53 227.975 122.524 227.959 122.522 227.941C120.932 220.396 119.808 212.761 119.156 205.081V205.016L119.107 204.972C117.234 203.302 115.491 201.494 113.895 199.562C113.36 198.945 112.823 198.333 112.284 197.727C112.251 197.695 112.245 197.668 112.284 197.635C112.303 197.61 112.33 197.593 112.361 197.585C112.391 197.577 112.424 197.579 112.453 197.592H112.491C113.019 198.187 113.546 198.784 114.07 199.383C115.555 201.16 117.153 202.841 118.856 204.415L119.145 204.669V204.285C118.91 200.763 118.834 197.159 118.905 193.28V193.177L118.807 193.133L118.768 193.101C117.269 190.883 115.989 188.527 114.944 186.067C114.931 186.053 114.924 186.035 114.924 186.016C114.924 185.997 114.931 185.978 114.944 185.964C114.963 185.947 114.986 185.936 115.011 185.931C115.036 185.927 115.062 185.929 115.086 185.937C115.109 185.948 115.127 185.968 115.135 185.991C116.09 188.252 117.246 190.425 118.588 192.484L118.867 192.917V192.376C118.954 188.707 119.173 184.914 119.528 180.786C119.528 180.737 119.528 180.727 119.561 180.721C119.579 180.712 119.6 180.707 119.621 180.707C119.641 180.707 119.662 180.712 119.681 180.721C119.702 180.731 119.72 180.747 119.732 180.768C119.743 180.788 119.749 180.811 119.746 180.835C119.266 186.532 119.036 191.635 119.036 196.488V196.797L119.287 196.618C122.103 194.62 124.495 192.094 126.33 189.184C126.33 189.151 126.373 189.135 126.417 189.184C126.437 189.193 126.455 189.206 126.469 189.223C126.483 189.24 126.494 189.26 126.499 189.281C126.507 189.297 126.511 189.315 126.511 189.332C126.511 189.35 126.507 189.368 126.499 189.384C124.594 192.39 122.094 194.983 119.151 197.008L119.063 197.062V197.148C119.063 199.854 119.184 202.397 119.358 204.864V204.907L119.386 204.945C119.395 204.961 119.401 204.978 119.401 204.997C119.401 205.015 119.395 205.033 119.386 205.048V205.086V205.129C119.544 207.294 119.774 209.593 120.096 212.12L120.129 212.537L120.369 212.196C122.606 208.947 125.024 205.826 127.613 202.846C127.633 202.83 127.657 202.822 127.682 202.822C127.707 202.822 127.731 202.83 127.75 202.846C127.767 202.854 127.783 202.867 127.795 202.882C127.807 202.896 127.816 202.914 127.821 202.932C127.821 202.932 127.821 202.97 127.821 203.003C125.104 206.133 122.574 209.417 120.243 212.84L120.211 212.888V212.948C120.795 217.368 121.604 222.146 122.768 227.963C122.768 228.017 122.768 228.033 122.768 228.038C122.746 228.05 122.721 228.057 122.696 228.057C122.672 228.057 122.647 228.05 122.625 228.038L122.582 228.022Z" fill="#092B96"/>
</g>
<path d="M124.159 224.751C124.159 224.751 102.983 232.888 102.479 223.628C102.11 216.69 91.1888 221.458 91.8229 216.939C92.457 212.42 94.5871 213.023 89.1671 210.63C83.7471 208.238 85.3297 203.578 81.6929 198.696C78.0561 193.814 84.804 188.524 91.1996 194.188C97.5952 199.851 91.9476 192.381 96.4624 192.381C100.977 192.381 106.403 208.016 107.573 204.549C108.744 201.083 112.451 200.567 115.026 204.05C121.058 212.166 124.159 224.751 124.159 224.751Z" fill="#379CF7"/>
<g style="mix-blend-mode:multiply" opacity="0.39">
<path d="M128.207 227.124C128.19 227.132 128.172 227.137 128.153 227.137C128.134 227.137 128.115 227.132 128.098 227.124C122.06 224.111 114.175 220.03 106.769 215.12L106.714 215.076H106.643C104.049 215.564 101.422 215.854 98.785 215.945C97.9294 215.994 97.0738 216.043 96.2237 216.109C96.1746 216.109 96.1474 216.109 96.1365 216.054C96.1284 216.022 96.131 215.988 96.1437 215.957C96.1565 215.927 96.1788 215.901 96.2073 215.884H96.2564C97.0902 215.818 97.9294 215.769 98.7632 215.719C101.2 215.628 103.629 215.376 106.033 214.966L106.431 214.889L106.093 214.663C102.987 212.574 99.9131 210.302 96.6978 207.723L96.6106 207.657L96.518 207.707H96.4635C93.6433 207.513 90.8478 207.049 88.1147 206.321C88.0657 206.321 88.0439 206.283 88.0384 206.239C88.0361 206.21 88.0415 206.182 88.054 206.157C88.0665 206.132 88.0856 206.111 88.1092 206.096C88.1212 206.09 88.1342 206.087 88.1474 206.087C88.1605 206.087 88.1736 206.09 88.1855 206.096C90.6961 206.763 93.26 207.207 95.8477 207.421L96.3926 207.465L95.9676 207.118C92.943 204.666 89.8967 202.026 86.6542 199.051C86.6429 199.043 86.6339 199.033 86.6281 199.02C86.6224 199.007 86.6201 198.994 86.6215 198.98C86.6276 198.958 86.638 198.939 86.652 198.922C86.6661 198.904 86.6836 198.891 86.7033 198.881C86.723 198.866 86.7468 198.858 86.7714 198.858C86.7959 198.858 86.8198 198.866 86.8395 198.881C91.27 202.95 95.4117 206.448 99.4989 209.582L99.755 209.78V209.45C99.862 205.797 99.2603 202.158 97.9839 198.738C97.9794 198.73 97.9767 198.721 97.9759 198.712C97.9751 198.703 97.9763 198.694 97.9795 198.686C97.9826 198.677 97.9876 198.67 97.994 198.664C98.0004 198.657 98.0081 198.653 98.0166 198.65C98.0381 198.64 98.0613 198.635 98.0847 198.635C98.1082 198.635 98.1314 198.64 98.1528 198.65C98.1694 198.657 98.1843 198.667 98.1966 198.681C98.2088 198.694 98.218 198.71 98.2237 198.727C99.5493 202.277 100.148 206.061 99.9839 209.851V209.95L100.06 210.005C102.36 211.754 104.54 213.305 106.725 214.762H106.763H106.807C106.827 214.764 106.846 214.771 106.862 214.783C106.878 214.794 106.891 214.81 106.899 214.828V214.867L106.938 214.894C108.872 216.175 110.938 217.462 113.259 218.832L113.641 219.057L113.504 218.634C112.207 214.676 111.13 210.648 110.278 206.569C110.272 206.544 110.275 206.517 110.286 206.494C110.297 206.471 110.315 206.453 110.338 206.442C110.357 206.433 110.377 206.428 110.398 206.428C110.419 206.428 110.439 206.433 110.458 206.442C110.458 206.442 110.491 206.442 110.502 206.508C111.398 210.818 112.544 215.07 113.935 219.244V219.304L113.989 219.337C118.071 221.719 122.594 224.133 128.224 226.937C128.278 226.937 128.278 226.992 128.278 227.003C128.277 227.03 128.267 227.056 128.252 227.079C128.237 227.101 128.216 227.119 128.191 227.13L128.207 227.124Z" fill="#092B96"/>
</g>
<path d="M278.344 205.991H112.223C111.476 205.992 110.76 206.289 110.23 206.817C109.7 207.345 109.4 208.062 109.394 208.811L109.052 290.037C109.052 290.79 109.35 291.511 109.88 292.043C110.411 292.575 111.13 292.874 111.881 292.874L278.344 291.502C279.095 291.502 279.814 291.203 280.345 290.671C280.875 290.139 281.173 289.418 281.173 288.665V208.811C281.169 208.062 280.869 207.344 280.339 206.816C279.809 206.287 279.092 205.991 278.344 205.991Z" fill="white"/>
<path d="M259.586 228.976H128.35C127.046 228.976 125.989 230.036 125.989 231.344V243.617C125.989 244.925 127.046 245.985 128.35 245.985H259.586C260.89 245.985 261.947 244.925 261.947 243.617V231.344C261.947 230.036 260.89 228.976 259.586 228.976Z" fill="#D8E8EF"/>
<path d="M157.937 228.976H128.337C127.714 228.977 127.117 229.228 126.676 229.673C126.236 230.118 125.989 230.721 125.989 231.349V243.617C125.989 244.245 126.237 244.847 126.677 245.291C127.117 245.735 127.714 245.985 128.337 245.985H157.937C158.569 245.985 159.176 245.731 159.623 245.28C160.071 244.829 160.322 244.217 160.322 243.579V231.387C160.323 231.071 160.262 230.757 160.142 230.465C160.022 230.172 159.847 229.906 159.625 229.682C159.404 229.458 159.141 229.281 158.851 229.16C158.561 229.038 158.25 228.976 157.937 228.976Z" fill="#379CF7"/>
<path d="M147.02 254.719H130.137C128.605 254.719 127.363 255.966 127.363 257.505V274.459C127.363 275.997 128.605 277.244 130.137 277.244H147.02C148.552 277.244 149.794 275.997 149.794 274.459V257.505C149.794 255.966 148.552 254.719 147.02 254.719Z" fill="#7DC4F9"/>
<path d="M191.423 254.719H174.54C173.009 254.719 171.767 255.966 171.767 257.505V274.459C171.767 275.997 173.009 277.244 174.54 277.244H191.423C192.955 277.244 194.197 275.997 194.197 274.459V257.505C194.197 255.966 192.955 254.719 191.423 254.719Z" fill="#1D88D8"/>
<path d="M152.842 257.477C152.759 257.463 152.682 257.408 152.626 257.324C152.571 257.239 152.54 257.13 152.54 257.017C152.54 256.904 152.571 256.795 152.626 256.711C152.682 256.626 152.759 256.572 152.842 256.558H167.344C167.428 256.572 167.504 256.626 167.56 256.711C167.616 256.795 167.646 256.904 167.646 257.017C167.646 257.13 167.616 257.239 167.56 257.324C167.504 257.408 167.428 257.463 167.344 257.477H152.842Z" fill="#ABD0DD"/>
<path d="M152.842 261.155C152.759 261.141 152.682 261.086 152.626 261.002C152.571 260.917 152.54 260.808 152.54 260.695C152.54 260.582 152.571 260.473 152.626 260.389C152.682 260.304 152.759 260.25 152.842 260.236H167.344C167.428 260.25 167.504 260.304 167.56 260.389C167.616 260.473 167.646 260.582 167.646 260.695C167.646 260.808 167.616 260.917 167.56 261.002C167.504 261.086 167.428 261.141 167.344 261.155H152.842Z" fill="#ABD0DD"/>
<path d="M152.878 264.372C152.788 264.372 152.702 264.348 152.639 264.305C152.576 264.262 152.54 264.203 152.54 264.142C152.54 264.082 152.576 264.023 152.639 263.98C152.702 263.937 152.788 263.913 152.878 263.913H167.309C167.398 263.913 167.484 263.937 167.547 263.98C167.611 264.023 167.646 264.082 167.646 264.142C167.646 264.203 167.611 264.262 167.547 264.305C167.484 264.348 167.398 264.372 167.309 264.372H152.878Z" fill="#ABD0DD"/>
<path d="M152.878 268.05C152.788 268.05 152.702 268.025 152.639 267.982C152.576 267.939 152.54 267.881 152.54 267.82C152.54 267.759 152.576 267.701 152.639 267.658C152.702 267.615 152.788 267.591 152.878 267.591H167.309C167.398 267.591 167.484 267.615 167.547 267.658C167.611 267.701 167.646 267.759 167.646 267.82C167.646 267.881 167.611 267.939 167.547 267.982C167.484 268.025 167.398 268.05 167.309 268.05H152.878Z" fill="#ABD0DD"/>
<path d="M152.842 271.727C152.759 271.72 152.682 271.693 152.626 271.651C152.571 271.608 152.54 271.554 152.54 271.498C152.54 271.441 152.571 271.387 152.626 271.345C152.682 271.302 152.759 271.275 152.842 271.268H167.344C167.428 271.275 167.504 271.302 167.56 271.345C167.616 271.387 167.646 271.441 167.646 271.498C167.646 271.554 167.616 271.608 167.56 271.651C167.504 271.693 167.428 271.72 167.344 271.727H152.842Z" fill="#ABD0DD"/>
<path d="M152.845 275.405C152.761 275.398 152.683 275.371 152.627 275.328C152.571 275.286 152.54 275.232 152.54 275.175C152.54 275.119 152.571 275.065 152.627 275.022C152.683 274.98 152.761 274.953 152.845 274.946H159.102C159.186 274.953 159.263 274.98 159.319 275.022C159.376 275.065 159.407 275.119 159.407 275.175C159.407 275.232 159.376 275.286 159.319 275.328C159.263 275.371 159.186 275.398 159.102 275.405H152.845Z" fill="#ABD0DD"/>
<path d="M197.799 257.473C197.749 257.481 197.699 257.476 197.651 257.456C197.603 257.437 197.559 257.405 197.521 257.362C197.484 257.319 197.454 257.266 197.433 257.206C197.413 257.147 197.402 257.082 197.402 257.017C197.402 256.952 197.413 256.888 197.433 256.828C197.454 256.769 197.484 256.716 197.521 256.673C197.559 256.63 197.603 256.597 197.651 256.578C197.699 256.559 197.749 256.553 197.799 256.561H212.656C212.742 256.575 212.82 256.629 212.878 256.713C212.935 256.797 212.966 256.905 212.966 257.017C212.966 257.129 212.935 257.238 212.878 257.322C212.82 257.406 212.742 257.46 212.656 257.473H197.799Z" fill="#ABD0DD"/>
<path d="M197.799 261.151C197.749 261.159 197.699 261.154 197.651 261.134C197.603 261.115 197.559 261.083 197.521 261.04C197.484 260.997 197.454 260.943 197.433 260.884C197.413 260.825 197.402 260.76 197.402 260.695C197.402 260.63 197.413 260.566 197.433 260.506C197.454 260.447 197.484 260.394 197.521 260.351C197.559 260.307 197.603 260.275 197.651 260.256C197.699 260.237 197.749 260.231 197.799 260.239H212.656C212.742 260.253 212.82 260.307 212.878 260.391C212.935 260.475 212.966 260.583 212.966 260.695C212.966 260.807 212.935 260.915 212.878 260.999C212.82 261.083 212.742 261.137 212.656 261.151H197.799Z" fill="#ABD0DD"/>
<path d="M197.75 264.372C197.658 264.372 197.569 264.348 197.504 264.305C197.439 264.262 197.402 264.203 197.402 264.142C197.402 264.082 197.439 264.023 197.504 263.98C197.569 263.937 197.658 263.913 197.75 263.913H212.618C212.71 263.913 212.799 263.937 212.864 263.98C212.929 264.023 212.966 264.082 212.966 264.142C212.966 264.203 212.929 264.262 212.864 264.305C212.799 264.348 212.71 264.372 212.618 264.372H197.75Z" fill="#ABD0DD"/>
<path d="M197.75 268.05C197.658 268.05 197.569 268.025 197.504 267.982C197.439 267.939 197.402 267.881 197.402 267.82C197.402 267.759 197.439 267.701 197.504 267.658C197.569 267.615 197.658 267.591 197.75 267.591H212.618C212.71 267.591 212.799 267.615 212.864 267.658C212.929 267.701 212.966 267.759 212.966 267.82C212.966 267.881 212.929 267.939 212.864 267.982C212.799 268.025 212.71 268.05 212.618 268.05H197.75Z" fill="#ABD0DD"/>
<path d="M197.799 271.725C197.749 271.729 197.699 271.727 197.651 271.717C197.603 271.707 197.559 271.691 197.521 271.67C197.484 271.648 197.454 271.622 197.433 271.592C197.413 271.562 197.402 271.53 197.402 271.498C197.402 271.465 197.413 271.433 197.433 271.403C197.454 271.374 197.484 271.347 197.521 271.326C197.559 271.304 197.603 271.288 197.651 271.279C197.699 271.269 197.749 271.266 197.799 271.27H212.656C212.742 271.277 212.82 271.304 212.878 271.346C212.935 271.388 212.966 271.442 212.966 271.498C212.966 271.554 212.935 271.608 212.878 271.65C212.82 271.692 212.742 271.718 212.656 271.725H197.799Z" fill="#ABD0DD"/>
<path d="M197.809 275.403C197.758 275.407 197.706 275.404 197.657 275.394C197.608 275.385 197.563 275.369 197.524 275.347C197.486 275.326 197.455 275.299 197.434 275.27C197.413 275.24 197.402 275.208 197.402 275.175C197.402 275.143 197.413 275.111 197.434 275.081C197.455 275.051 197.486 275.025 197.524 275.003C197.563 274.982 197.608 274.966 197.657 274.956C197.706 274.947 197.758 274.944 197.809 274.948H204.319C204.37 274.944 204.422 274.947 204.471 274.956C204.52 274.966 204.565 274.982 204.604 275.003C204.642 275.025 204.673 275.051 204.694 275.081C204.715 275.111 204.726 275.143 204.726 275.175C204.726 275.208 204.715 275.24 204.694 275.27C204.673 275.299 204.642 275.326 204.604 275.347C204.565 275.369 204.52 275.385 204.471 275.394C204.422 275.404 204.37 275.407 204.319 275.403H197.809Z" fill="#ABD0DD"/>
<path d="M236.8 254.719H220.261C218.761 254.719 217.544 255.966 217.544 257.505V274.459C217.544 275.997 218.761 277.244 220.261 277.244H236.8C238.3 277.244 239.517 275.997 239.517 274.459V257.505C239.517 255.966 238.3 254.719 236.8 254.719Z" fill="#092B96"/>
<path d="M243.49 257.477C243.404 257.463 243.325 257.408 243.268 257.324C243.21 257.239 243.179 257.13 243.179 257.017C243.179 256.904 243.21 256.795 243.268 256.711C243.325 256.626 243.404 256.572 243.49 256.558H258.432C258.517 256.572 258.597 256.626 258.654 256.711C258.711 256.795 258.743 256.904 258.743 257.017C258.743 257.13 258.711 257.239 258.654 257.324C258.597 257.408 258.517 257.463 258.432 257.477H243.49Z" fill="#ABD0DD"/>
<path d="M243.49 261.155C243.404 261.141 243.325 261.086 243.268 261.002C243.21 260.917 243.179 260.808 243.179 260.695C243.179 260.582 243.21 260.473 243.268 260.389C243.325 260.304 243.404 260.25 243.49 260.236H258.432C258.517 260.25 258.597 260.304 258.654 260.389C258.711 260.473 258.743 260.582 258.743 260.695C258.743 260.808 258.711 260.917 258.654 261.002C258.597 261.086 258.517 261.141 258.432 261.155H243.49Z" fill="#ABD0DD"/>
<path d="M243.527 264.372C243.435 264.372 243.346 264.348 243.281 264.305C243.215 264.262 243.179 264.203 243.179 264.142C243.179 264.082 243.215 264.023 243.281 263.98C243.346 263.937 243.435 263.913 243.527 263.913H258.395C258.487 263.913 258.576 263.937 258.641 263.98C258.706 264.023 258.743 264.082 258.743 264.142C258.743 264.203 258.706 264.262 258.641 264.305C258.576 264.348 258.487 264.372 258.395 264.372H243.527Z" fill="#ABD0DD"/>
<path d="M243.527 268.05C243.435 268.05 243.346 268.025 243.281 267.982C243.215 267.939 243.179 267.881 243.179 267.82C243.179 267.759 243.215 267.701 243.281 267.658C243.346 267.615 243.435 267.591 243.527 267.591H258.395C258.487 267.591 258.576 267.615 258.641 267.658C258.706 267.701 258.743 267.759 258.743 267.82C258.743 267.881 258.706 267.939 258.641 267.982C258.576 268.025 258.487 268.05 258.395 268.05H243.527Z" fill="#ABD0DD"/>
<path d="M243.49 271.727C243.404 271.72 243.325 271.693 243.268 271.651C243.21 271.608 243.179 271.554 243.179 271.498C243.179 271.441 243.21 271.387 243.268 271.345C243.325 271.302 243.404 271.275 243.49 271.268H258.432C258.517 271.275 258.597 271.302 258.654 271.345C258.711 271.387 258.743 271.441 258.743 271.498C258.743 271.554 258.711 271.608 258.654 271.651C258.597 271.693 258.517 271.72 258.432 271.727H243.49Z" fill="#ABD0DD"/>
<path d="M243.484 275.405C243.399 275.398 243.322 275.371 243.266 275.328C243.21 275.286 243.179 275.232 243.179 275.175C243.179 275.119 243.21 275.065 243.266 275.022C243.322 274.98 243.399 274.953 243.484 274.946H249.74C249.825 274.953 249.902 274.98 249.958 275.022C250.014 275.065 250.045 275.119 250.045 275.175C250.045 275.232 250.014 275.286 249.958 275.328C249.902 275.371 249.825 275.398 249.74 275.405H243.484Z" fill="#ABD0DD"/>
<path fill-rule="evenodd" clip-rule="evenodd" d="M277.094 210.588H272.894C272.839 210.587 272.785 210.598 272.734 210.621C272.684 210.643 272.637 210.677 272.599 210.719C272.56 210.762 272.529 210.813 272.508 210.868C272.487 210.924 272.476 210.984 272.476 211.044C272.476 211.167 272.52 211.285 272.598 211.372C272.677 211.458 272.783 211.507 272.894 211.507H277.094C277.205 211.507 277.311 211.458 277.389 211.372C277.468 211.285 277.512 211.167 277.512 211.044C277.512 210.984 277.501 210.924 277.48 210.868C277.459 210.813 277.428 210.762 277.389 210.719C277.35 210.677 277.304 210.643 277.253 210.621C277.203 210.598 277.149 210.587 277.094 210.588Z" fill="#379CF7"/>
<path fill-rule="evenodd" clip-rule="evenodd" d="M277.094 212.427H272.894C272.783 212.427 272.677 212.475 272.598 212.561C272.52 212.647 272.476 212.764 272.476 212.886C272.476 213.008 272.52 213.125 272.598 213.211C272.677 213.297 272.783 213.346 272.894 213.346H277.094C277.205 213.346 277.311 213.297 277.389 213.211C277.468 213.125 277.512 213.008 277.512 212.886C277.512 212.764 277.468 212.647 277.389 212.561C277.311 212.475 277.205 212.427 277.094 212.427Z" fill="#379CF7"/>
<path fill-rule="evenodd" clip-rule="evenodd" d="M277.094 214.725H272.894C272.839 214.725 272.784 214.737 272.734 214.76C272.683 214.783 272.637 214.817 272.598 214.86C272.56 214.903 272.529 214.954 272.508 215.01C272.487 215.067 272.476 215.127 272.476 215.187C272.476 215.248 272.487 215.308 272.508 215.364C272.529 215.419 272.56 215.47 272.599 215.512C272.637 215.555 272.684 215.589 272.734 215.611C272.785 215.634 272.839 215.645 272.894 215.644H277.094C277.149 215.645 277.203 215.634 277.253 215.611C277.304 215.589 277.35 215.555 277.389 215.512C277.428 215.47 277.459 215.419 277.48 215.364C277.501 215.308 277.512 215.248 277.512 215.187C277.512 215.127 277.501 215.067 277.48 215.01C277.459 214.954 277.428 214.903 277.389 214.86C277.351 214.817 277.304 214.783 277.254 214.76C277.203 214.737 277.149 214.725 277.094 214.725Z" fill="#379CF7"/>
<path d="M119.581 212.651C119.582 213.06 119.476 213.46 119.275 213.801C119.074 214.142 118.789 214.408 118.454 214.566C118.12 214.723 117.751 214.765 117.396 214.686C117.04 214.607 116.714 214.41 116.457 214.121C116.2 213.832 116.026 213.464 115.955 213.062C115.883 212.661 115.919 212.244 116.058 211.866C116.196 211.488 116.431 211.164 116.732 210.937C117.033 210.709 117.388 210.588 117.75 210.588C118.235 210.588 118.7 210.805 119.043 211.192C119.386 211.578 119.58 212.103 119.581 212.651Z" fill="#379CF7"/>
<path d="M130.109 212.651C130.11 213.06 129.99 213.461 129.764 213.802C129.539 214.143 129.217 214.409 128.84 214.566C128.464 214.724 128.049 214.765 127.649 214.686C127.249 214.606 126.881 214.409 126.593 214.119C126.304 213.829 126.108 213.46 126.029 213.059C125.949 212.657 125.991 212.24 126.147 211.862C126.304 211.484 126.569 211.161 126.908 210.934C127.248 210.707 127.647 210.587 128.055 210.588C128.325 210.588 128.592 210.641 128.841 210.745C129.09 210.848 129.317 211 129.508 211.192C129.698 211.383 129.85 211.611 129.953 211.861C130.056 212.111 130.109 212.38 130.109 212.651Z" fill="#092B96"/>
<path d="M140.638 212.651C140.639 213.06 140.533 213.461 140.332 213.802C140.131 214.143 139.845 214.409 139.51 214.566C139.175 214.724 138.807 214.765 138.451 214.686C138.096 214.606 137.769 214.409 137.512 214.119C137.256 213.829 137.081 213.46 137.011 213.059C136.941 212.657 136.977 212.24 137.116 211.862C137.256 211.484 137.491 211.161 137.793 210.934C138.095 210.707 138.45 210.587 138.812 210.588C139.296 210.589 139.76 210.807 140.102 211.194C140.444 211.58 140.637 212.104 140.638 212.651Z" fill="#1D88D8"/>
<path d="M188.912 268.241L183.896 261.263C183.768 261.088 183.599 260.944 183.403 260.846C183.207 260.747 182.989 260.695 182.767 260.695C182.546 260.695 182.328 260.747 182.132 260.846C181.936 260.944 181.767 261.088 181.639 261.263L176.595 268.241C176.451 268.441 176.365 268.675 176.348 268.919C176.331 269.162 176.382 269.406 176.497 269.623C176.612 269.84 176.785 270.022 176.999 270.15C177.213 270.278 177.459 270.347 177.71 270.349H187.792C188.043 270.348 188.29 270.28 188.504 270.152C188.719 270.025 188.893 269.842 189.009 269.625C189.124 269.408 189.176 269.164 189.159 268.92C189.142 268.676 189.057 268.441 188.912 268.241Z" fill="#092B96"/>
<path d="M228.301 272.647C231.461 272.647 234.023 270.075 234.023 266.901C234.023 263.728 231.461 261.155 228.301 261.155C225.141 261.155 222.579 263.728 222.579 266.901C222.579 270.075 225.141 272.647 228.301 272.647Z" fill="#1D88D8"/>
<path d="M313.218 294.946C313.218 292.026 262.686 289.656 200.38 289.656C138.074 289.656 87.5371 292.026 87.5371 294.946C87.5371 297.865 138.036 300.229 200.38 300.229C262.724 300.229 313.218 297.865 313.218 294.946Z" fill="#F0F0F0"/>
<path fill-rule="evenodd" clip-rule="evenodd" d="M185.877 191.074C185.684 189.733 184.972 186.798 182.49 187.815C177.651 185.92 175.489 188.313 175.147 191.499C174.717 195.502 172.499 197.089 173.321 198.247C174.347 199.678 177.519 201.774 180.796 201.852C184.217 201.919 187.218 199.119 188.117 197.598C188.823 196.385 186.429 195.06 185.877 191.074Z" fill="#092B96"/>
<path fill-rule="evenodd" clip-rule="evenodd" d="M202.108 210.484C200.403 207.36 193.703 200.281 192.959 200.024C190.863 199.309 187.53 198.987 185.575 198.817C183.951 198.672 182.32 198.614 180.689 198.642H179.261C177.42 198.642 172.284 198.872 168.657 200.112C167.908 200.368 160.98 207.332 159.275 210.457C159.077 210.821 158.966 211.227 158.951 211.643C158.936 212.058 159.017 212.471 159.188 212.849L166.491 227.596L170.134 226.815L167.256 214.133C167.153 213.655 167.174 213.158 167.318 212.691C167.461 212.224 167.723 211.803 168.076 211.467L172.708 205.94H188.621L193.312 211.434C193.669 211.774 193.932 212.202 194.074 212.675C194.215 213.149 194.232 213.651 194.121 214.133L191.238 226.832L194.941 227.378L202.184 212.915C202.363 212.532 202.449 212.113 202.436 211.69C202.423 211.268 202.31 210.854 202.108 210.484Z" fill="#379CF7"/>
<path fill-rule="evenodd" clip-rule="evenodd" d="M169.683 227.137L171.211 228.523C171.253 228.564 171.284 228.616 171.299 228.674C171.314 228.732 171.313 228.794 171.295 228.851C171.278 228.909 171.246 228.96 171.202 228.999C171.159 229.038 171.105 229.064 171.048 229.073L170.402 229.122L170.828 230.315C171.269 231.558 168.801 233.455 167.782 231.002L166.731 227.78L169.683 227.137Z" fill="#FFA683"/>
<path fill-rule="evenodd" clip-rule="evenodd" d="M191.439 227.137L189.719 228.525C189.675 228.566 189.644 228.619 189.629 228.677C189.615 228.734 189.617 228.795 189.636 228.851C189.655 228.908 189.69 228.958 189.737 228.997C189.784 229.036 189.841 229.061 189.903 229.071L190.602 229.142L190.138 230.327C189.656 231.562 192.351 233.447 193.463 231.01L194.655 227.558L191.439 227.137Z" fill="#FFA683"/>
<path fill-rule="evenodd" clip-rule="evenodd" d="M184.524 192.684L184.584 195.666C184.595 196.213 184.495 196.756 184.291 197.263C184.088 197.77 183.784 198.23 183.399 198.615C183.269 198.73 183.138 198.861 183.008 198.993C182.356 199.631 181.489 199.995 180.581 200.014C179.674 200.032 178.793 199.703 178.116 199.092L177.72 198.73C177.316 198.365 176.992 197.92 176.766 197.423C176.539 196.926 176.416 196.388 176.405 195.841L176.345 192.854C176.345 192.854 180.508 192.816 182.1 190.82C182.357 191.281 182.705 191.684 183.122 192.004C183.538 192.325 184.016 192.556 184.524 192.684Z" fill="#FFA683"/>
<path fill-rule="evenodd" clip-rule="evenodd" d="M184.524 192.68L184.584 195.663C184.595 196.21 184.495 196.754 184.291 197.261C184.088 197.768 183.784 198.229 183.399 198.614C183.269 198.729 183.138 198.861 183.008 198.992C182.356 199.63 181.489 199.995 180.581 200.014C179.674 200.032 178.793 199.702 178.116 199.091L177.72 198.729C177.316 198.364 176.992 197.918 176.766 197.421C176.539 196.924 176.416 196.386 176.405 195.839L176.345 192.85C176.345 192.85 180.475 192.811 182.062 190.82C182.33 191.279 182.686 191.68 183.108 191.999C183.531 192.318 184.012 192.55 184.524 192.68Z" fill="#FFA683"/>
<path fill-rule="evenodd" clip-rule="evenodd" d="M177.516 196.697C177.671 196.422 177.74 196.09 177.711 195.76C177.683 195.429 177.558 195.122 177.36 194.892C177.161 194.661 176.902 194.523 176.627 194.501C176.352 194.48 176.08 194.576 175.858 194.773C175.769 194.844 175.694 194.938 175.64 195.049C175.48 195.323 175.407 195.657 175.434 195.99C175.461 196.324 175.586 196.634 175.786 196.866C175.987 197.098 176.249 197.236 176.526 197.254C176.803 197.273 177.077 197.171 177.297 196.967C177.386 196.899 177.461 196.806 177.516 196.697Z" fill="#FFA683"/>
<path fill-rule="evenodd" clip-rule="evenodd" d="M185.703 196.329C185.889 196.109 185.978 195.841 185.954 195.572C185.929 195.303 185.794 195.049 185.571 194.855C185.347 194.66 185.05 194.537 184.729 194.506C184.409 194.475 184.086 194.539 183.816 194.686C183.639 194.768 183.496 194.892 183.402 195.042C183.239 195.275 183.178 195.548 183.228 195.814C183.279 196.081 183.439 196.324 183.68 196.503C183.921 196.682 184.229 196.786 184.552 196.796C184.874 196.806 185.19 196.722 185.447 196.558C185.552 196.499 185.64 196.421 185.703 196.329Z" fill="#FFA683"/>
<path fill-rule="evenodd" clip-rule="evenodd" d="M182.751 199.459C182.766 199.116 182.718 198.772 182.61 198.45C182.501 198.128 182.336 197.833 182.122 197.584C181.908 197.336 181.651 197.137 181.366 197.002C181.081 196.867 180.775 196.797 180.465 196.797C180.155 196.797 179.848 196.867 179.563 197.002C179.278 197.137 179.021 197.336 178.808 197.584C178.594 197.833 178.428 198.128 178.32 198.45C178.212 198.772 178.163 199.116 178.178 199.459C178.178 200.871 179.205 202.313 180.467 202.313C181.729 202.313 182.751 200.871 182.751 199.459Z" fill="#FFA683"/>
<path fill-rule="evenodd" clip-rule="evenodd" d="M178.176 199.576C178.176 199.613 178.176 199.649 178.176 199.681C178.763 200.381 179.606 200.831 180.526 200.934C181.651 200.934 182.753 199.765 182.753 199.681C182.753 199.597 182.753 199.597 182.753 199.555C182.117 200.09 181.307 200.386 180.469 200.389C179.63 200.393 178.817 200.105 178.176 199.576Z" fill="#EF7F5E"/>
<path d="M169.892 226.845L166.99 214.277C166.885 213.804 166.907 213.312 167.051 212.849C167.196 212.386 167.459 211.968 167.815 211.636L172.477 206.158C172.477 206.158 173.51 204.405 172.996 204.632C172.483 204.859 165.612 210.759 164.956 212.177C164.475 213.26 167.197 222.71 168.52 227.137L169.892 226.845Z" fill="#1D88D8"/>
<path d="M192.76 200.136L192.366 200.015C193.725 201.591 201.938 211.277 201.028 213.287C200.208 215.104 195.084 224.302 193.503 227.421L194.795 227.597L202.193 213.056C202.368 212.676 202.451 212.261 202.435 211.843C202.42 211.426 202.307 211.018 202.104 210.651C200.363 207.51 193.52 200.394 192.76 200.136Z" fill="#1D88D8"/>
<path d="M125.532 271.549L125.948 272.742L132.147 272.099C132.147 272.099 138.958 280.948 141.811 283.95C142.106 284.26 142.44 284.638 142.779 285.059C144.588 280.621 148.245 266.634 144.522 265.524C139.034 263.876 125.532 271.549 125.532 271.549Z" fill="#092B96"/>
<path d="M137.892 279.505C139.386 281.272 140.836 282.952 141.814 283.965C142.114 284.271 142.453 284.643 142.798 285.059C143.948 282.323 145.815 275.958 146.131 271.268C144.892 271.449 140.647 276.254 137.892 279.505Z" fill="#052575"/>
<path d="M132.38 272.188C132.38 272.188 139.226 280.808 142.099 283.732C144.972 286.656 151.438 295.346 133.957 294.676C116.476 294.006 108.499 291.369 108.499 291.369L108.137 287.629L126.458 285.715C126.458 285.715 115.015 284.402 116.416 273.782L132.38 272.188Z" fill="#173ACC"/>
<path d="M132.443 273.652L132.756 273.107C134.527 275.325 139.514 281.528 141.84 283.942C142.94 285.109 144.65 287.169 145.216 289.197C143.874 286.112 139.756 283.201 136.242 279.827C131.706 275.451 132.443 273.652 132.443 273.652Z" fill="#2B56E0"/>
<path d="M105.143 288.277H104.99C104.39 288.326 102.732 288.419 102.395 289.197C102.005 290.1 101.868 294.576 104.69 294.708C107.512 294.839 104.164 292.519 105.127 291.544L105.143 288.277Z" fill="#092B96"/>
<path d="M108.137 287.837L126.424 285.979C126.424 285.979 128.409 286.798 134.551 289.128C138.28 290.545 142.162 291.989 144.301 292.928C142.743 294.141 139.596 294.892 133.882 294.676C116.406 294.031 108.471 291.464 108.471 291.464L108.137 287.837Z" fill="#092B96"/>
<path d="M108.595 291.317C108.595 291.317 106.429 290.462 105.255 291.605C103.582 293.253 105.119 288.546 105.119 288.546L108.237 287.818L108.595 291.317Z" fill="#FFA683"/>
<path d="M149.55 243.404L144.386 238.905C144.3 238.83 144.241 238.727 144.217 238.613C144.194 238.499 144.208 238.379 144.258 238.275C144.699 237.316 144.808 236.225 144.565 235.19C144.322 234.156 143.743 233.244 142.929 232.614C142.114 231.984 141.116 231.676 140.108 231.743C139.1 231.81 138.147 232.248 137.414 232.981C137.135 233.265 136.893 233.587 136.694 233.938C136.17 234.841 135.962 235.909 136.104 236.958C136.247 238.006 136.732 238.969 137.476 239.68C138.22 240.391 139.176 240.805 140.179 240.852C141.181 240.898 142.168 240.573 142.968 239.934C143.016 239.897 143.07 239.87 143.128 239.855C143.204 239.83 143.285 239.826 143.363 239.842C143.441 239.859 143.514 239.896 143.575 239.951L148.745 244.451C148.81 244.507 148.885 244.55 148.966 244.576C149.046 244.602 149.131 244.611 149.214 244.603C149.298 244.595 149.38 244.57 149.454 244.528C149.528 244.487 149.593 244.43 149.646 244.361C149.701 244.292 149.742 244.212 149.766 244.126C149.791 244.041 149.799 243.95 149.79 243.861C149.781 243.772 149.755 243.686 149.714 243.607C149.673 243.529 149.617 243.46 149.55 243.404ZM142.813 238.415C142.414 238.921 141.881 239.29 141.283 239.477C140.684 239.663 140.047 239.658 139.451 239.462C138.855 239.267 138.328 238.889 137.936 238.377C137.543 237.865 137.304 237.241 137.247 236.585C137.19 235.93 137.319 235.271 137.617 234.692C137.916 234.114 138.37 233.641 138.922 233.335C139.474 233.029 140.1 232.902 140.721 232.972C141.341 233.041 141.929 233.303 142.408 233.724C143.05 234.29 143.454 235.102 143.529 235.981C143.605 236.861 143.348 237.736 142.813 238.415Z" fill="white"/>
<path d="M142.232 233.858C141.745 233.451 141.149 233.198 140.518 233.131C139.888 233.064 139.252 233.186 138.691 233.482C138.13 233.778 137.668 234.235 137.366 234.794C137.063 235.353 136.932 235.989 136.989 236.623C137.047 237.257 137.29 237.859 137.689 238.354C138.087 238.849 138.623 239.214 139.228 239.403C139.833 239.593 140.481 239.598 141.089 239.417C141.697 239.237 142.238 238.88 142.644 238.391C143.187 237.735 143.449 236.889 143.372 236.039C143.294 235.189 142.885 234.405 142.232 233.858Z" fill="#379CF7"/>
<path d="M146.892 240.462C146.592 240.477 146.299 240.553 146.033 240.685C145.766 240.817 145.534 241.001 145.35 241.226C145.211 240.778 144.962 240.134 144.701 240.014C144.307 239.861 143.843 242.929 143.843 242.929L144.121 242.71L144.051 242.814L146.788 244.146C148.533 241.881 148.133 240.62 146.892 240.462Z" fill="#FFA683"/>
<path d="M116.576 263.913C117.145 258.564 117.908 252.852 118.937 251.315C119.333 250.665 119.864 250.102 120.496 249.662C120.496 249.662 115.495 252.698 113.453 257.462C112.435 259.771 114.346 262.106 116.576 263.913Z" fill="#379CF7"/>
<path d="M129.481 249.662L129.32 247.591C129.963 247.492 130.557 247.173 131.009 246.685C132.241 245.346 132.225 242.819 131.113 241.388C130.074 241.713 128.775 241.491 128.728 242.076C128.65 243.009 128.567 243.757 128.567 243.757C127.72 243.215 126.821 243.28 126.94 244.468C126.987 244.939 127.309 245.704 127.642 245.764C127.699 246.355 127.568 246.95 127.27 247.457C126.971 247.964 126.521 248.354 125.989 248.567V249.299L129.481 249.662Z" fill="#FFA683"/>
<path d="M122.443 242.46C123.305 238.893 124.696 236.884 128.486 236.793C131.938 236.707 132.399 239.591 132.399 239.591C132.286 242.084 128.759 240.908 128.652 241.853C128.545 242.799 128.486 243.518 128.486 243.518C127.608 242.981 126.687 243.04 126.805 244.222C126.859 244.695 127.191 245.447 127.533 245.506C127.592 246.092 127.458 246.682 127.15 247.184C126.843 247.685 126.379 248.072 125.831 248.283C125.831 248.283 121.581 246.011 122.443 242.46Z" fill="#092B96"/>
<path d="M122.445 242.46C123.33 238.893 124.758 236.884 128.647 236.793C130.998 236.734 131.998 237.985 132.399 238.834C130.674 237.223 126.906 236.266 124.522 239.989C122.467 243.212 123.764 247.096 127.559 246.672C127.434 247.043 127.224 247.38 126.945 247.66C126.666 247.939 126.326 248.152 125.95 248.283C125.95 248.283 121.561 246.011 122.445 242.46Z" fill="#09256B"/>
<path d="M128.596 248.205C128.232 247.992 127.82 246.904 127.82 246.904C128.25 247.375 129.472 247.521 129.472 247.521L129.651 249.662L128.751 249.572C128.804 248.905 128.751 248.294 128.596 248.205Z" fill="#EF7F5E"/>
<path d="M115.919 274.138C115.919 274.138 117.001 254.498 118.948 251.462C119.765 250.191 120.452 249.567 121.685 249.29C123.12 249.117 124.567 249.061 126.012 249.121C127.716 249.279 131.962 249.849 133.044 250.267C134.466 250.848 140.124 255.802 140.124 255.802L143.91 242.767L147.047 243.94C147.047 243.94 143.986 262.982 141.536 263.025C139.085 263.069 132.843 259.555 132.843 259.555C132.843 259.555 132.373 271.531 134.688 273.72C134.688 273.72 124.898 278.255 115.919 274.138Z" fill="#379CF7"/>
<path d="M118.945 250.764C119.441 250.37 119.959 250.002 120.496 249.662C119.86 250.102 119.326 250.665 118.928 251.315C117.893 252.852 117.097 258.564 116.554 263.913C116.004 263.479 115.486 263.01 115.003 262.508C115.243 259.346 116.084 253.728 118.945 250.764Z" fill="#147AC6"/>
<path d="M129.216 258.067C128.873 257.396 132.803 259.541 132.803 259.541C132.803 259.541 132.322 271.577 134.688 273.777C134.688 273.777 133.986 274.093 132.797 274.486C131.432 270.458 131.742 265.027 131.493 263.138C131.15 260.545 129.558 258.744 129.216 258.067Z" fill="#63B8F7"/>
<path d="M259.783 292.414C259.783 292.603 259.783 292.814 259.743 293.035C259.682 293.29 259.559 293.528 259.385 293.728C259.212 293.928 258.992 294.086 258.743 294.188C258.83 294.195 258.915 294.215 258.995 294.249C260.229 294.765 260.931 294.898 262.125 294.404C262.216 294.371 262.315 294.371 262.405 294.404C262.354 293.85 262.24 293.019 262.148 292.426L259.783 292.414Z" fill="#FFA683"/>
<path d="M262.863 296.347C262.863 295.833 262.863 295.255 262.863 294.822C262.861 294.758 262.844 294.697 262.814 294.642C262.785 294.587 262.743 294.541 262.692 294.507C262.642 294.473 262.584 294.453 262.525 294.449C262.465 294.444 262.406 294.455 262.351 294.481C261.207 294.995 260.537 294.862 259.361 294.319C258.462 293.897 255.548 295.63 254.824 296.133C254.743 296.191 254.681 296.275 254.649 296.373C254.616 296.471 254.615 296.577 254.644 296.676C254.674 296.775 254.732 296.861 254.812 296.922C254.892 296.982 254.988 297.013 255.085 297.011H262.204C262.372 297.007 262.533 296.937 262.655 296.814C262.776 296.691 262.851 296.525 262.863 296.347Z" fill="#2B56E0"/>
<path d="M271.686 291.955C271.686 292.143 271.686 292.354 271.641 292.576C271.58 292.83 271.458 293.067 271.285 293.268C271.112 293.468 270.893 293.626 270.645 293.729C270.732 293.732 270.817 293.751 270.897 293.784C272.127 294.306 272.837 294.439 274.033 293.945C274.121 293.915 274.218 293.915 274.307 293.945C274.261 293.391 274.147 292.565 274.05 291.972L271.686 291.955Z" fill="#FFA683"/>
<path d="M274.295 295.884C274.322 295.371 274.295 294.796 274.295 294.364C274.293 294.301 274.276 294.24 274.246 294.185C274.217 294.13 274.175 294.084 274.125 294.05C274.074 294.016 274.017 293.996 273.958 293.99C273.899 293.985 273.839 293.994 273.784 294.019C272.642 294.537 271.973 294.399 270.799 293.857C269.896 293.443 266.992 295.164 266.264 295.671C266.184 295.729 266.124 295.814 266.092 295.911C266.06 296.009 266.059 296.114 266.088 296.213C266.117 296.311 266.176 296.397 266.254 296.458C266.332 296.519 266.427 296.552 266.525 296.551H273.637C273.806 296.548 273.967 296.477 274.089 296.353C274.211 296.229 274.284 296.062 274.295 295.884Z" fill="#2B56E0"/>
<path d="M272.107 251.162C272.107 252.152 272.812 254.849 272.812 257.865C272.812 263.653 269.886 271.401 269.886 271.401L274.765 292.285L270.634 292.415L261.489 271.98L262.151 250.122L272.107 251.162Z" fill="#092B96"/>
<path d="M268.814 249.643C268.814 249.643 268.156 256.53 266.769 261.604C265.606 265.845 257.189 272.283 257.189 272.283L262.654 292.874H259.245L247.039 272.869C246.888 272.445 246.822 271.994 246.845 271.543C246.869 271.093 246.981 270.652 247.175 270.245L258.831 247.824L268.814 249.643Z" fill="#2B56E0"/>
<path d="M240.062 245.985H235.854C235.854 245.985 236.063 248.743 240.432 248.743L240.062 245.985Z" fill="#FFA683"/>
<path d="M263.544 223.755C263.606 223.361 263.63 222.96 263.614 222.56C263.485 221.15 262.684 220.901 261.758 221.773C261.191 221.36 260.741 220.792 260.457 220.13C260.188 219.479 259.031 219.977 258.133 219.79C257.772 220.842 257.729 221.985 258.012 223.062C258.294 224.14 258.887 225.098 259.709 225.806C260.315 226.248 261.051 226.449 261.785 226.372L262.006 229.895L266.067 228.763L266.008 226.689C265.652 226.706 265.297 226.638 264.969 226.491C264.641 226.344 264.348 226.122 264.112 225.841C263.876 225.56 263.702 225.226 263.604 224.866C263.506 224.505 263.485 224.126 263.544 223.755Z" fill="#FFA683"/>
<g style="mix-blend-mode:multiply" opacity="0.4">
<path d="M260.574 292.874C259.692 291.407 248.827 273.146 250.426 270.918C252.08 268.597 259.549 254.189 259.549 254.189L257.785 251.961L256.407 253.08L247.179 270.428C246.983 270.832 246.869 271.27 246.845 271.716C246.822 272.163 246.888 272.61 247.041 273.032L259.427 292.874H260.574Z" fill="#092B96"/>
</g>
<path d="M259.066 233.474C259.288 229.312 265.763 228.987 266.456 228.976C266.912 228.987 267.36 229.095 267.772 229.291C268.184 229.487 268.55 229.767 268.846 230.114C269.886 231.268 271.853 233.794 271.224 237.349C269.599 246.471 272.958 252.286 273.392 255.148C267.372 257.587 254.623 254.562 254.623 254.562L258.513 239.739L259.066 233.474Z" fill="#379CF7"/>
<path d="M254.209 243.112C254.209 243.112 258.212 228.635 263.32 229.47C268.992 230.387 259.684 248.355 259.684 248.355L240.396 248.743L239.975 245.698L254.209 243.112Z" fill="#379CF7"/>
<path d="M262.359 248.19C261.44 251.074 258.39 250.842 258.39 250.842L256.69 255.179C255.409 254.93 254.623 254.737 254.623 254.737L256.127 248.743L259.538 248.671C259.538 248.671 265.818 236.014 264.724 231.274C264.921 231.683 266.408 235.484 262.359 248.19Z" fill="#147AC6"/>
<path d="M267.844 238.601C261.369 238.265 263.558 225.481 263.629 223.008C263.672 221.631 262.711 221.025 261.771 221.873C261.2 221.47 260.748 220.918 260.462 220.276C260.185 219.642 258.74 220.127 257.827 219.945C259.679 212.382 268.425 212.74 272.293 222.969C275.628 231.821 278.186 239.141 267.844 238.601Z" fill="#092B96"/>
<path d="M262.488 226.957C262.794 226.423 263.072 225.869 263.321 225.298C262.946 225.642 262.53 225.926 262.085 226.14L261.947 226.211L262.165 229.895L262.615 229.759C262.509 228.645 262.414 227.07 262.488 226.957Z" fill="#EF7F5E"/>
<path d="M257.816 236.978C258.434 234.251 259.876 231.779 261.948 229.895C257.505 231.388 254.182 243.397 254.182 243.397L239.975 245.985L255.86 245.042C255.86 245.042 256.844 241.533 257.816 236.978Z" fill="#63B8F7"/>
<path d="M264.9 216.622C269.605 218.737 272.305 226.411 271.012 238.17C277.563 237.082 275.233 230.555 272.294 222.865C268.426 212.766 259.68 212.412 257.827 219.879C257.827 219.879 260.163 214.495 264.9 216.622Z" fill="#052575"/>
<path d="M305.466 253.223C305.161 254.893 299.774 264.559 296.446 271.032C294.61 274.639 294.017 278.77 294.763 282.761H295.401C295.02 280.523 294.865 280.867 295.401 277.379C296.007 273.559 301.881 270.89 305.584 263.517C309.288 256.143 305.766 251.553 305.466 253.223Z" fill="#379CF7"/>
<path d="M292.952 278.783C293.152 280.622 293.312 281.891 293.381 282.761H293.73C293.844 279.642 294.044 274.253 293.907 270.658C293.713 265.356 295.239 263.168 296.096 254.244C296.954 245.32 294.536 232.653 294.536 232.653C294.536 232.653 288.734 244.007 290.757 256.64C292.781 269.274 292.072 270.674 292.952 278.783Z" fill="#379CF7"/>
<path d="M291.236 276.986C291.31 278.922 291.503 280.85 291.814 282.761H292.161C292.101 281.834 292.036 280.129 291.966 277.102C291.755 267.927 290.83 268.032 289.262 261.895C287.694 255.759 285.179 253.209 282.562 250.122C282.562 250.122 279.858 254.509 283.671 261.089C287.483 267.67 288.992 268.097 289.895 271.322C290.798 274.546 291.176 274.108 291.236 276.986Z" fill="#379CF7"/>
<path d="M290.744 282.761H291.132C291.43 281.098 291.134 279.385 290.294 277.911C288.514 274.947 287.127 271.034 284.376 268.451C280.621 264.92 278.02 256.098 278.02 256.098C278.02 256.098 276.051 263.934 279.867 270.146C283.683 276.358 286.894 277.535 288.558 278.549C289.274 278.993 289.855 279.618 290.24 280.36C290.625 281.101 290.799 281.93 290.744 282.761Z" fill="#379CF7"/>
<path d="M293.606 282.761H293.664L293.946 281.546C294.052 278.373 294.185 273.821 294.073 270.658C293.893 265.356 295.312 263.168 296.109 254.244C296.906 245.32 294.658 232.653 294.658 232.653C294.658 232.653 292.607 250.282 293.175 258.369C293.696 265.838 293.622 280.594 293.606 282.761Z" fill="#1D88D8"/>
<path d="M305.69 252.894C305.743 255.268 305.558 263.341 300.944 267.631C295.592 272.603 293.885 278.094 295.481 282.761H295.529C295.152 280.523 294.998 280.867 295.529 277.379C296.128 273.558 301.941 270.889 305.605 263.515C308.857 256.96 306.47 252.605 305.69 252.894Z" fill="#1D88D8"/>
<path d="M292.425 282.761H292.618C292.555 281.834 292.487 280.129 292.414 277.102C292.192 267.927 291.222 268.032 289.577 261.895C287.931 255.759 285.293 253.209 282.547 250.122C282.685 254.39 284.061 258.534 286.519 262.082C290.609 267.944 291.75 272.265 291.863 273.888C291.931 275.226 292.283 280.836 292.425 282.761Z" fill="#1D88D8"/>
<path d="M290.826 282.761H291.132C291.431 281.098 291.134 279.385 290.291 277.911C288.504 274.947 287.112 271.034 284.35 268.451C280.581 264.92 277.97 256.098 277.97 256.098C277.97 256.098 278.092 266.086 281.065 268.996C284.039 271.906 283.966 271.067 286.271 273.944C288.576 276.821 289.278 277.622 290.169 279.393C290.636 280.455 290.861 281.605 290.826 282.761Z" fill="#1D88D8"/>
<path d="M297.792 280.922H287.444C287.195 280.917 286.948 280.968 286.721 281.07C286.494 281.172 286.294 281.323 286.134 281.513C285.975 281.702 285.861 281.924 285.801 282.163C285.74 282.402 285.735 282.651 285.786 282.892L287.815 293.36C287.888 293.741 288.094 294.084 288.397 294.331C288.7 294.578 289.08 294.713 289.473 294.713H295.763C296.157 294.719 296.541 294.586 296.845 294.338C297.149 294.09 297.353 293.743 297.421 293.36L299.45 282.892C299.501 282.651 299.496 282.402 299.435 282.163C299.375 281.924 299.261 281.702 299.102 281.513C298.942 281.323 298.742 281.172 298.515 281.07C298.288 280.968 298.041 280.917 297.792 280.922Z" fill="#D8E8EF"/>
<path d="M299.484 282.301C299.4 281.905 299.196 281.553 298.907 281.303C298.618 281.052 298.261 280.918 297.894 280.922H287.8C287.434 280.923 287.079 281.06 286.791 281.309C286.502 281.559 286.298 281.908 286.209 282.301H299.484Z" fill="#ABD0DD"/>
<path d="M297.809 280.922H295.54C295.787 280.917 296.031 280.968 296.256 281.07C296.48 281.172 296.678 281.323 296.836 281.513C296.994 281.702 297.107 281.924 297.166 282.163C297.226 282.402 297.231 282.651 297.181 282.892L295.174 293.36C295.106 293.743 294.904 294.09 294.603 294.338C294.303 294.586 293.923 294.719 293.533 294.713H295.803C296.193 294.719 296.572 294.586 296.873 294.338C297.173 294.09 297.375 293.743 297.443 293.36L299.45 282.892C299.5 282.651 299.495 282.402 299.436 282.163C299.376 281.924 299.263 281.702 299.105 281.513C298.948 281.323 298.749 281.172 298.525 281.07C298.301 280.968 298.056 280.917 297.809 280.922Z" fill="#ABD0DD"/>
<path d="M274.766 118.164C274.766 117.025 275.642 116.101 276.724 116.101H308.056C309.137 116.101 310.014 117.025 310.014 118.164C310.014 119.304 309.137 120.227 308.056 120.227H276.724C275.642 120.227 274.766 119.304 274.766 118.164Z" fill="#145AFF"/>
<path d="M283.916 110.462L283.463 109.728L286.851 107.713V108.369L283.463 106.354L283.916 105.62L287.323 107.645V108.437L283.916 110.462Z" fill="#888888"/>
<path d="M288.299 108.202V107.205H291.017V108.202H288.299Z" fill="#888888"/>
<path d="M293.881 110.599C293.416 110.599 293.01 110.488 292.664 110.266C292.324 110.045 292.003 109.673 291.701 109.151L292.494 108.633C292.651 108.874 292.806 109.073 292.957 109.229C293.114 109.379 293.274 109.49 293.438 109.562C293.601 109.634 293.774 109.67 293.957 109.67C294.177 109.67 294.382 109.614 294.57 109.503C294.759 109.386 294.91 109.226 295.023 109.024C295.137 108.822 295.193 108.594 295.193 108.339C295.193 108.085 295.149 107.87 295.061 107.694C294.973 107.511 294.844 107.374 294.674 107.283C294.504 107.185 294.303 107.136 294.07 107.136C293.963 107.136 293.85 107.149 293.73 107.175C293.617 107.195 293.495 107.227 293.362 107.273C293.23 107.312 293.086 107.364 292.928 107.43L292.645 106.657L294.684 104.329L294.882 104.632H292.069V103.654H295.854L296.043 104.045L293.881 106.53L293.646 106.275C293.696 106.249 293.778 106.227 293.891 106.207C294.01 106.181 294.108 106.168 294.183 106.168C294.46 106.168 294.718 106.223 294.957 106.334C295.203 106.438 295.413 106.588 295.59 106.784C295.772 106.973 295.914 107.198 296.014 107.459C296.121 107.713 296.175 107.987 296.175 108.281C296.175 108.724 296.071 109.122 295.863 109.474C295.662 109.82 295.388 110.093 295.042 110.296C294.696 110.498 294.309 110.599 293.881 110.599Z" fill="#888888"/>
<path d="M298.074 108.897L298.027 107.801L300.396 105.366H301.708L298.074 108.897ZM297.187 110.501V103.263H298.159V110.501H297.187ZM300.528 110.501L298.66 108.241L299.348 107.586L301.774 110.501H300.528Z" fill="#888888"/>
<path d="M228.53 118.164C228.53 117.025 229.407 116.101 230.489 116.101H261.82C262.902 116.101 263.779 117.025 263.779 118.164C263.779 119.304 262.902 120.228 261.82 120.228H230.489C229.407 120.228 228.53 119.304 228.53 118.164Z" fill="#729CFF"/>
<path d="M237.677 110.103L237.228 109.406L240.584 107.492V108.114L237.228 106.2L237.677 105.503L241.051 107.427V108.179L237.677 110.103Z" fill="#888888"/>
<path d="M242.018 107.956V107.008H244.71V107.956H242.018Z" fill="#888888"/>
<path d="M246.071 110.14L245.762 109.378L247.763 107.138C247.869 107.027 247.978 106.9 248.09 106.757C248.208 106.609 248.321 106.457 248.426 106.302C248.532 106.147 248.617 105.995 248.679 105.847C248.747 105.692 248.782 105.546 248.782 105.41C248.782 105.211 248.741 105.044 248.66 104.908C248.585 104.765 248.473 104.657 248.324 104.583C248.18 104.508 248.006 104.471 247.8 104.471C247.619 104.471 247.442 104.524 247.267 104.629C247.093 104.734 246.934 104.883 246.791 105.075C246.647 105.267 246.535 105.49 246.454 105.744L245.678 105.261C245.784 104.902 245.943 104.595 246.155 104.341C246.373 104.081 246.632 103.882 246.931 103.746C247.236 103.61 247.566 103.542 247.922 103.542C248.289 103.542 248.617 103.619 248.903 103.774C249.19 103.923 249.414 104.133 249.576 104.406C249.738 104.672 249.819 104.982 249.819 105.335C249.819 105.478 249.804 105.623 249.773 105.772C249.741 105.921 249.692 106.076 249.623 106.237C249.554 106.392 249.467 106.556 249.361 106.729C249.255 106.897 249.128 107.073 248.978 107.259C248.835 107.445 248.67 107.64 248.483 107.845L246.996 109.453L246.809 109.174H250.025V110.14H246.071Z" fill="#888888"/>
<path d="M251.874 108.616L251.828 107.575L254.174 105.261H255.473L251.874 108.616ZM250.996 110.14V103.263H251.959V110.14H250.996ZM254.305 110.14L252.454 107.993L253.136 107.371L255.539 110.14H254.305Z" fill="#888888"/>
<path d="M182.753 118.164C182.753 117.025 183.63 116.101 184.712 116.101H216.043C217.125 116.101 218.002 117.025 218.002 118.164C218.002 119.304 217.125 120.228 216.043 120.228H184.712C183.63 120.228 182.753 119.304 182.753 118.164Z" fill="#DFE9FF"/>
<path d="M193.389 110.599C192.892 110.599 192.463 110.455 192.103 110.169C191.748 109.882 191.475 109.477 191.282 108.956C191.09 108.427 190.993 107.801 190.993 107.078C190.993 106.354 191.09 105.731 191.282 105.209C191.475 104.681 191.748 104.274 192.103 103.987C192.463 103.7 192.892 103.556 193.389 103.556C193.887 103.556 194.316 103.7 194.676 103.987C195.037 104.274 195.313 104.681 195.506 105.209C195.699 105.731 195.795 106.354 195.795 107.078C195.795 107.801 195.699 108.427 195.506 108.956C195.313 109.477 195.037 109.882 194.676 110.169C194.316 110.455 193.887 110.599 193.389 110.599ZM193.389 109.64C193.843 109.64 194.194 109.419 194.443 108.975C194.692 108.525 194.816 107.893 194.816 107.078C194.816 106.262 194.692 105.633 194.443 105.19C194.194 104.74 193.843 104.515 193.389 104.515C192.936 104.515 192.585 104.74 192.336 105.19C192.087 105.633 191.963 106.262 191.963 107.078C191.963 107.893 192.087 108.525 192.336 108.975C192.585 109.419 192.936 109.64 193.389 109.64Z" fill="#888888"/>
<path d="M196.722 108.202V107.205H199.407V108.202H196.722Z" fill="#888888"/>
<path d="M201.921 110.022V104.466L202.266 104.74L200.979 105.454L200.708 104.534L202.452 103.556H202.937V110.022H201.921ZM200.886 110.501V109.484H204V110.501H200.886Z" fill="#888888"/>
<path d="M206.107 108.897L206.06 107.801L208.401 105.366H209.697L206.107 108.897ZM205.23 110.501V103.263H206.191V110.501H205.23ZM208.531 110.501L206.685 108.242L207.366 107.586L209.762 110.501H208.531Z" fill="#888888"/>
<path d="M86.3189 120.377C85.575 120.377 84.926 120.256 84.3721 120.014C83.826 119.764 83.3552 119.401 82.9595 118.925L83.8973 117.567C84.3167 118.051 84.7242 118.391 85.1199 118.586C85.5235 118.781 85.9588 118.878 86.4257 118.878C86.671 118.878 86.8887 118.847 87.0786 118.785C87.2764 118.715 87.4308 118.617 87.5416 118.492C87.6523 118.367 87.7077 118.219 87.7077 118.047C87.7077 117.922 87.68 117.809 87.6246 117.708C87.5693 117.598 87.4901 117.505 87.3872 117.427C87.2844 117.341 87.1617 117.267 87.0192 117.204C86.8768 117.134 86.7185 117.075 86.5444 117.028C86.3703 116.974 86.1804 116.931 85.9746 116.9C85.3811 116.775 84.8865 116.599 84.4908 116.373C84.103 116.146 83.8102 115.865 83.6124 115.53C83.4224 115.194 83.3275 114.796 83.3275 114.336C83.3275 113.984 83.4066 113.66 83.5649 113.364C83.7232 113.059 83.9408 112.798 84.2178 112.579C84.5027 112.361 84.8271 112.193 85.1912 112.076C85.5631 111.959 85.9548 111.9 86.3664 111.9C87.0311 111.9 87.6167 112.009 88.1232 112.228C88.6376 112.439 89.0808 112.767 89.4527 113.211L88.598 114.429C88.3052 114.094 87.9689 113.84 87.589 113.668C87.2171 113.496 86.8214 113.411 86.402 113.411C86.1408 113.411 85.9153 113.446 85.7253 113.516C85.5354 113.578 85.385 113.672 85.2743 113.797C85.1714 113.922 85.1199 114.074 85.1199 114.254C85.1199 114.394 85.1555 114.519 85.2268 114.628C85.298 114.737 85.4009 114.835 85.5354 114.921C85.6699 114.999 85.8322 115.069 86.0221 115.132C86.212 115.194 86.4218 115.249 86.6513 115.296C87.0865 115.381 87.4782 115.495 87.8265 115.635C88.1747 115.776 88.4714 115.947 88.7168 116.15C88.97 116.345 89.1639 116.58 89.2984 116.853C89.4329 117.118 89.5002 117.419 89.5002 117.754C89.5002 118.309 89.3657 118.781 89.0966 119.171C88.8275 119.561 88.4556 119.862 87.9808 120.073C87.5059 120.276 86.952 120.377 86.3189 120.377ZM85.6066 121.326L85.7016 115.916L86.7106 116.303L86.8056 121.326H85.6066ZM87.0667 116.314L86.0577 115.928L85.9628 111.057H87.1617L87.0667 116.314Z" fill="black"/>
<path d="M90.8637 120.26L90.4719 119.3L92.9292 116.619C93.0637 116.478 93.2062 116.314 93.3565 116.127C93.5148 115.94 93.6652 115.748 93.8076 115.553C93.958 115.35 94.0767 115.155 94.1637 114.968C94.2508 114.773 94.2943 114.597 94.2943 114.441C94.2943 114.261 94.2547 114.105 94.1756 113.973C94.0965 113.832 93.9817 113.723 93.8313 113.645C93.681 113.567 93.495 113.528 93.2734 113.528C93.0677 113.528 92.8738 113.582 92.6918 113.692C92.5097 113.793 92.3396 113.945 92.1813 114.148C92.023 114.351 91.8846 114.597 91.7658 114.886L90.4363 114.148C90.5946 113.695 90.8201 113.301 91.113 112.966C91.4058 112.63 91.754 112.368 92.1576 112.181C92.5612 111.994 92.9925 111.9 93.4515 111.9C93.9342 111.908 94.3695 112.009 94.7573 112.205C95.145 112.4 95.4497 112.673 95.6713 113.024C95.8929 113.375 96.0037 113.781 96.0037 114.242C96.0037 114.414 95.9839 114.589 95.9443 114.769C95.9127 114.948 95.8533 115.136 95.7663 115.331C95.6871 115.526 95.5803 115.733 95.4458 115.951C95.3191 116.162 95.1609 116.388 94.9709 116.63C94.7889 116.865 94.5792 117.11 94.3418 117.368L92.4543 119.394L92.2169 118.679H96.3479V120.26H90.8637Z" fill="black"/>
<path d="M97.557 122.52L97.0347 121.899C97.3433 121.751 97.5886 121.571 97.7706 121.361C97.9606 121.15 98.0555 120.966 98.0555 120.81C98.0555 120.74 98.0358 120.666 97.9962 120.588C97.9566 120.51 97.8696 120.412 97.735 120.295C97.5609 120.162 97.4422 120.038 97.3789 119.92C97.3235 119.796 97.2958 119.663 97.2958 119.522C97.2958 119.296 97.3789 119.117 97.5451 118.984C97.7113 118.851 97.925 118.785 98.1861 118.785C98.3998 118.785 98.5937 118.847 98.7678 118.972C98.9498 119.089 99.0922 119.257 99.1951 119.476C99.298 119.686 99.3494 119.932 99.3494 120.213C99.3494 120.463 99.3059 120.705 99.2189 120.939C99.1318 121.181 99.0052 121.404 98.839 121.607C98.6807 121.817 98.4908 122.001 98.2692 122.157C98.0555 122.313 97.8181 122.434 97.557 122.52Z" fill="black"/>
<path d="M103.388 120.295C102.834 120.295 102.332 120.19 101.881 119.979C101.43 119.76 101.07 119.468 100.801 119.101C100.532 118.734 100.397 118.328 100.397 117.883C100.397 117.594 100.433 117.333 100.504 117.099C100.583 116.865 100.698 116.654 100.848 116.466C101.006 116.279 101.196 116.115 101.418 115.975C101.639 115.834 101.897 115.713 102.19 115.612L102.071 116.022C101.849 115.936 101.651 115.834 101.477 115.717C101.303 115.592 101.153 115.452 101.026 115.296C100.907 115.139 100.813 114.972 100.741 114.792C100.678 114.605 100.646 114.41 100.646 114.207C100.646 113.785 100.769 113.407 101.014 113.071C101.26 112.735 101.588 112.47 102 112.275C102.411 112.072 102.874 111.97 103.388 111.97C103.895 111.97 104.354 112.072 104.765 112.275C105.177 112.47 105.505 112.735 105.751 113.071C105.996 113.407 106.119 113.785 106.119 114.207C106.119 114.41 106.087 114.605 106.024 114.792C105.96 114.972 105.869 115.136 105.751 115.284C105.632 115.432 105.482 115.569 105.3 115.694C105.126 115.819 104.92 115.928 104.682 116.022L104.611 115.659C104.872 115.737 105.11 115.846 105.323 115.986C105.545 116.119 105.731 116.283 105.881 116.478C106.04 116.666 106.162 116.876 106.249 117.11C106.336 117.345 106.38 117.602 106.38 117.883C106.38 118.336 106.245 118.746 105.976 119.113C105.707 119.479 105.347 119.768 104.896 119.979C104.445 120.19 103.942 120.295 103.388 120.295ZM103.388 118.855C103.626 118.855 103.843 118.808 104.041 118.715C104.239 118.621 104.393 118.496 104.504 118.34C104.615 118.176 104.67 117.989 104.67 117.778C104.67 117.559 104.615 117.368 104.504 117.204C104.393 117.032 104.239 116.896 104.041 116.794C103.851 116.693 103.634 116.642 103.388 116.642C103.143 116.642 102.922 116.693 102.724 116.794C102.534 116.896 102.383 117.032 102.273 117.204C102.162 117.368 102.106 117.559 102.106 117.778C102.106 117.981 102.162 118.164 102.273 118.328C102.383 118.484 102.534 118.613 102.724 118.715C102.922 118.808 103.143 118.855 103.388 118.855ZM103.388 115.214C103.602 115.214 103.792 115.175 103.958 115.097C104.124 115.011 104.255 114.901 104.35 114.769C104.453 114.628 104.504 114.464 104.504 114.277C104.504 114.097 104.453 113.937 104.35 113.797C104.255 113.649 104.124 113.532 103.958 113.446C103.792 113.36 103.602 113.317 103.388 113.317C103.175 113.317 102.981 113.36 102.807 113.446C102.641 113.532 102.506 113.649 102.403 113.797C102.308 113.937 102.261 114.097 102.261 114.277C102.261 114.464 102.308 114.628 102.403 114.769C102.506 114.901 102.641 115.011 102.807 115.097C102.981 115.175 103.175 115.214 103.388 115.214Z" fill="black"/>
<path d="M110.342 120.26C109.923 120.26 109.527 120.186 109.155 120.038C108.791 119.889 108.471 119.682 108.194 119.417C107.925 119.152 107.711 118.839 107.553 118.48C107.402 118.121 107.327 117.735 107.327 117.321C107.327 117.064 107.359 116.802 107.422 116.537C107.485 116.264 107.572 115.983 107.683 115.694C107.802 115.405 107.944 115.104 108.111 114.792C108.277 114.48 108.463 114.156 108.668 113.82L109.808 111.935H111.47L111.517 112.052L110.01 114.453C109.796 114.796 109.606 115.124 109.44 115.436C109.282 115.748 109.139 116.049 109.013 116.338C108.894 116.626 108.783 116.919 108.68 117.216L108.336 116.279C108.439 116.014 108.577 115.776 108.752 115.565C108.926 115.346 109.124 115.163 109.345 115.015C109.567 114.858 109.8 114.741 110.045 114.663C110.291 114.577 110.532 114.535 110.77 114.535C111.237 114.535 111.664 114.659 112.052 114.909C112.447 115.151 112.76 115.475 112.989 115.881C113.227 116.287 113.346 116.732 113.346 117.216C113.346 117.801 113.215 118.324 112.954 118.785C112.701 119.237 112.344 119.597 111.885 119.862C111.434 120.127 110.92 120.26 110.342 120.26ZM110.366 118.773C110.635 118.773 110.872 118.715 111.078 118.597C111.292 118.473 111.458 118.301 111.577 118.082C111.696 117.864 111.755 117.614 111.755 117.333C111.755 117.091 111.692 116.865 111.565 116.654C111.446 116.435 111.28 116.26 111.066 116.127C110.861 115.994 110.631 115.928 110.378 115.928C110.101 115.928 109.852 115.994 109.63 116.127C109.416 116.252 109.246 116.42 109.12 116.63C109.001 116.833 108.942 117.064 108.942 117.321C108.942 117.602 109.001 117.852 109.12 118.071C109.246 118.281 109.416 118.453 109.63 118.586C109.844 118.711 110.089 118.773 110.366 118.773Z" fill="black"/>
<path d="M114.797 120.26L118.156 112.813L118.584 113.574H114.286V112.017H119.616L119.794 112.919L116.613 120.26H114.797Z" fill="black"/>
<path d="M120.729 120.389C120.421 120.389 120.183 120.303 120.017 120.131C119.851 119.96 119.768 119.714 119.768 119.394C119.768 119.105 119.855 118.871 120.029 118.691C120.211 118.504 120.444 118.41 120.729 118.41C121.03 118.41 121.263 118.496 121.43 118.668C121.596 118.839 121.679 119.081 121.679 119.394C121.679 119.69 121.592 119.932 121.418 120.12C121.244 120.299 121.014 120.389 120.729 120.389Z" fill="black"/>
<path d="M125.443 120.342C124.841 120.342 124.295 120.221 123.805 119.979C123.322 119.729 122.918 119.37 122.594 118.902L123.555 117.848C123.896 118.223 124.204 118.48 124.481 118.621C124.758 118.754 125.063 118.82 125.395 118.82C125.672 118.82 125.922 118.761 126.143 118.644C126.365 118.527 126.539 118.367 126.665 118.164C126.792 117.961 126.855 117.735 126.855 117.485C126.855 117.228 126.792 116.997 126.665 116.794C126.539 116.591 126.369 116.431 126.155 116.314C125.949 116.189 125.712 116.127 125.443 116.127C125.269 116.127 125.106 116.143 124.956 116.174C124.806 116.197 124.64 116.248 124.458 116.326C124.275 116.396 124.054 116.502 123.793 116.642L122.986 115.588L123.496 112.017H128.173V113.528H124.398L124.837 113.012L124.446 115.612L123.876 115.342C123.995 115.233 124.157 115.132 124.363 115.038C124.576 114.944 124.806 114.866 125.051 114.804C125.304 114.741 125.55 114.71 125.787 114.71C126.309 114.71 126.772 114.827 127.176 115.061C127.587 115.296 127.912 115.623 128.149 116.045C128.395 116.459 128.517 116.935 128.517 117.473C128.517 118.012 128.383 118.5 128.114 118.937C127.845 119.366 127.477 119.71 127.01 119.967C126.543 120.217 126.02 120.342 125.443 120.342Z" fill="black"/>
<path d="M132.6 120.26C132.18 120.26 131.785 120.186 131.413 120.038C131.049 119.889 130.728 119.682 130.451 119.417C130.182 119.152 129.968 118.839 129.81 118.48C129.66 118.121 129.585 117.735 129.585 117.321C129.585 117.064 129.616 116.802 129.68 116.537C129.743 116.264 129.83 115.983 129.941 115.694C130.059 115.405 130.202 115.104 130.368 114.792C130.534 114.48 130.72 114.156 130.926 113.82L132.066 111.935H133.727L133.775 112.052L132.267 114.453C132.054 114.796 131.864 115.124 131.698 115.436C131.539 115.748 131.397 116.049 131.27 116.338C131.152 116.626 131.041 116.919 130.938 117.216L130.594 116.279C130.697 116.014 130.835 115.776 131.009 115.565C131.183 115.346 131.381 115.163 131.603 115.015C131.824 114.858 132.058 114.741 132.303 114.663C132.548 114.577 132.79 114.535 133.027 114.535C133.494 114.535 133.921 114.659 134.309 114.909C134.705 115.151 135.017 115.475 135.247 115.881C135.484 116.287 135.603 116.732 135.603 117.216C135.603 117.801 135.472 118.324 135.211 118.785C134.958 119.237 134.602 119.597 134.143 119.862C133.692 120.127 133.177 120.26 132.6 120.26ZM132.624 118.773C132.893 118.773 133.13 118.715 133.336 118.597C133.549 118.473 133.716 118.301 133.834 118.082C133.953 117.864 134.012 117.614 134.012 117.333C134.012 117.091 133.949 116.865 133.822 116.654C133.704 116.435 133.538 116.26 133.324 116.127C133.118 115.994 132.889 115.928 132.635 115.928C132.358 115.928 132.109 115.994 131.888 116.127C131.674 116.252 131.504 116.42 131.377 116.63C131.258 116.833 131.199 117.064 131.199 117.321C131.199 117.602 131.258 117.852 131.377 118.071C131.504 118.281 131.674 118.453 131.888 118.586C132.101 118.711 132.347 118.773 132.624 118.773Z" fill="black"/>
<path d="M84.4224 105.014V100.783H82.9595V100.191H86.6275V100.783H85.1716V105.014H84.4224Z" fill="#959595"/>
<path d="M88.5877 105.097C88.2532 105.097 87.9516 105.023 87.6831 104.876C87.4192 104.725 87.2095 104.516 87.054 104.249C86.8986 103.978 86.8208 103.664 86.8208 103.305C86.8208 102.947 86.8986 102.635 87.054 102.368C87.2142 102.097 87.4286 101.888 87.6972 101.741C87.9658 101.59 88.265 101.514 88.5948 101.514C88.9293 101.514 89.2285 101.59 89.4923 101.741C89.7609 101.888 89.9729 102.097 90.1284 102.368C90.2886 102.635 90.3687 102.947 90.3687 103.305C90.3687 103.664 90.2886 103.978 90.1284 104.249C89.9729 104.516 89.7609 104.725 89.4923 104.876C89.2238 105.023 88.9222 105.097 88.5877 105.097ZM88.5877 104.47C88.7667 104.47 88.9317 104.426 89.0824 104.339C89.2379 104.252 89.3628 104.123 89.457 103.953C89.5512 103.778 89.5984 103.562 89.5984 103.305C89.5984 103.048 89.5512 102.834 89.457 102.664C89.3675 102.49 89.245 102.359 89.0895 102.272C88.9387 102.184 88.7738 102.141 88.5948 102.141C88.4157 102.141 88.2485 102.184 88.093 102.272C87.9422 102.359 87.8197 102.49 87.7255 102.664C87.6312 102.834 87.5841 103.048 87.5841 103.305C87.5841 103.562 87.6312 103.778 87.7255 103.953C87.8197 104.123 87.9422 104.252 88.093 104.339C88.2437 104.426 88.4087 104.47 88.5877 104.47Z" fill="#959595"/>
<path d="M92.7936 105.014C92.4496 105.014 92.1764 104.934 91.9738 104.773C91.7712 104.608 91.6699 104.316 91.6699 103.898V102.21H91.0691V101.597H91.6699L91.7617 100.728H92.419V101.597H93.4085V102.21H92.419V103.898C92.419 104.086 92.4591 104.217 92.5392 104.291C92.624 104.359 92.7677 104.394 92.9703 104.394H93.3731V105.014H92.7936Z" fill="#959595"/>
<path d="M95.651 105.097C95.3541 105.097 95.1091 105.048 94.9159 104.952C94.7228 104.856 94.5791 104.729 94.4848 104.573C94.3906 104.412 94.3435 104.238 94.3435 104.049C94.3435 103.719 94.4754 103.457 94.7393 103.264C95.0031 103.071 95.38 102.975 95.8701 102.975H96.7888V102.913C96.7888 102.646 96.7134 102.446 96.5627 102.313C96.4166 102.18 96.2258 102.113 95.9902 102.113C95.7829 102.113 95.6015 102.164 95.446 102.265C95.2952 102.361 95.2034 102.506 95.1704 102.699H94.4212C94.4448 102.451 94.5296 102.24 94.6756 102.065C94.8264 101.886 95.0149 101.75 95.241 101.659C95.4719 101.562 95.724 101.514 95.9973 101.514C96.4873 101.514 96.8666 101.64 97.1351 101.893C97.4037 102.141 97.538 102.481 97.538 102.913V105.014H96.8878L96.8242 104.428C96.7252 104.617 96.5815 104.775 96.3931 104.904C96.2046 105.032 95.9572 105.097 95.651 105.097ZM95.7994 104.504C96.002 104.504 96.1716 104.458 96.3082 104.366C96.4496 104.27 96.558 104.144 96.6333 103.987C96.7134 103.831 96.7629 103.659 96.7818 103.471H95.9478C95.651 103.471 95.4389 103.521 95.3117 103.622C95.1892 103.723 95.128 103.85 95.128 104.001C95.128 104.157 95.1869 104.281 95.3047 104.373C95.4272 104.461 95.5921 104.504 95.7994 104.504Z" fill="#959595"/>
<path d="M98.6942 105.014V100.053H99.4433V105.014H98.6942Z" fill="#959595"/>
<path d="M102.766 105.014V100.191H104.47C104.861 100.191 105.181 100.255 105.431 100.384C105.685 100.512 105.874 100.687 105.996 100.907C106.119 101.123 106.18 101.365 106.18 101.631C106.18 101.93 106.098 102.201 105.933 102.444C105.772 102.687 105.52 102.862 105.176 102.968L106.229 105.014H105.36L104.399 103.071H103.516V105.014H102.766ZM103.516 102.52H104.427C104.767 102.52 105.014 102.439 105.169 102.279C105.33 102.118 105.41 101.909 105.41 101.652C105.41 101.394 105.332 101.19 105.176 101.038C105.021 100.882 104.769 100.804 104.42 100.804H103.516V102.52Z" fill="#959595"/>
<path d="M108.746 105.097C108.402 105.097 108.096 105.023 107.828 104.876C107.564 104.725 107.356 104.516 107.206 104.249C107.055 103.983 106.98 103.673 106.98 103.319C106.98 102.961 107.053 102.646 107.199 102.375C107.349 102.104 107.557 101.893 107.821 101.741C108.089 101.59 108.4 101.514 108.753 101.514C109.097 101.514 109.397 101.59 109.651 101.741C109.905 101.888 110.103 102.086 110.245 102.334C110.386 102.582 110.457 102.855 110.457 103.154C110.457 103.2 110.454 103.25 110.45 103.305C110.45 103.356 110.447 103.413 110.443 103.478H107.715C107.738 103.808 107.849 104.061 108.047 104.235C108.249 104.405 108.483 104.49 108.746 104.49C108.958 104.49 109.135 104.444 109.276 104.353C109.423 104.256 109.531 104.127 109.602 103.967H110.351C110.257 104.288 110.068 104.557 109.785 104.773C109.507 104.989 109.161 105.097 108.746 105.097ZM108.746 102.113C108.497 102.113 108.275 102.187 108.082 102.334C107.889 102.476 107.771 102.692 107.729 102.981H109.708C109.693 102.715 109.597 102.504 109.418 102.348C109.239 102.191 109.015 102.113 108.746 102.113Z" fill="#959595"/>
<path d="M112.361 105.014L111.047 101.597H111.831L112.806 104.318L113.782 101.597H114.559L113.252 105.014H112.361Z" fill="#959595"/>
<path d="M116.918 105.097C116.574 105.097 116.267 105.023 115.999 104.876C115.735 104.725 115.528 104.516 115.377 104.249C115.226 103.983 115.151 103.673 115.151 103.319C115.151 102.961 115.224 102.646 115.37 102.375C115.521 102.104 115.728 101.893 115.992 101.741C116.26 101.59 116.571 101.514 116.925 101.514C117.269 101.514 117.568 101.59 117.822 101.741C118.077 101.888 118.275 102.086 118.416 102.334C118.557 102.582 118.628 102.855 118.628 103.154C118.628 103.2 118.626 103.25 118.621 103.305C118.621 103.356 118.619 103.413 118.614 103.478H115.886C115.909 103.808 116.02 104.061 116.218 104.235C116.421 104.405 116.654 104.49 116.918 104.49C117.13 104.49 117.306 104.444 117.448 104.353C117.594 104.256 117.702 104.127 117.773 103.967H118.522C118.428 104.288 118.239 104.557 117.957 104.773C117.679 104.989 117.332 105.097 116.918 105.097ZM116.918 102.113C116.668 102.113 116.447 102.187 116.253 102.334C116.06 102.476 115.942 102.692 115.9 102.981H117.879C117.865 102.715 117.768 102.504 117.589 102.348C117.41 102.191 117.186 102.113 116.918 102.113Z" fill="#959595"/>
<path d="M119.688 105.014V101.597H120.352L120.409 102.196C120.517 101.985 120.675 101.819 120.882 101.7C121.094 101.576 121.337 101.514 121.61 101.514C122.034 101.514 122.367 101.642 122.607 101.9C122.852 102.157 122.974 102.54 122.974 103.05V105.014H122.232V103.126C122.232 102.465 121.954 102.134 121.398 102.134C121.12 102.134 120.89 102.23 120.706 102.423C120.527 102.616 120.437 102.892 120.437 103.25V105.014H119.688Z" fill="#959595"/>
<path d="M125.433 105.097C125.009 105.097 124.674 104.968 124.429 104.711C124.189 104.454 124.069 104.07 124.069 103.56V101.597H124.818V103.484C124.818 104.146 125.096 104.477 125.652 104.477C125.93 104.477 126.158 104.38 126.337 104.187C126.516 103.994 126.606 103.719 126.606 103.36V101.597H127.355V105.014H126.691L126.634 104.415C126.526 104.626 126.366 104.794 126.154 104.918C125.946 105.037 125.706 105.097 125.433 105.097Z" fill="#959595"/>
<path d="M130.231 105.097C129.887 105.097 129.58 105.023 129.312 104.876C129.048 104.725 128.841 104.516 128.69 104.249C128.539 103.983 128.464 103.673 128.464 103.319C128.464 102.961 128.537 102.646 128.683 102.375C128.834 102.104 129.041 101.893 129.305 101.741C129.573 101.59 129.884 101.514 130.238 101.514C130.582 101.514 130.881 101.59 131.135 101.741C131.39 101.888 131.588 102.086 131.729 102.334C131.87 102.582 131.941 102.855 131.941 103.154C131.941 103.2 131.939 103.25 131.934 103.305C131.934 103.356 131.931 103.413 131.927 103.478H129.199C129.222 103.808 129.333 104.061 129.531 104.235C129.733 104.405 129.967 104.49 130.231 104.49C130.443 104.49 130.619 104.444 130.761 104.353C130.907 104.256 131.015 104.127 131.086 103.967H131.835C131.741 104.288 131.552 104.557 131.269 104.773C130.991 104.989 130.645 105.097 130.231 105.097ZM130.231 102.113C129.981 102.113 129.759 102.187 129.566 102.334C129.373 102.476 129.255 102.692 129.213 102.981H131.192C131.178 102.715 131.081 102.504 130.902 102.348C130.723 102.191 130.499 102.113 130.231 102.113Z" fill="#959595"/>
<path d="M77.466 66.3638C77.466 68.7755 75.4164 70.7305 72.8882 70.7305C70.3601 70.7305 68.3105 68.7755 68.3105 66.3638C68.3105 63.9521 70.3601 61.997 72.8882 61.997C75.4164 61.997 77.466 63.9521 77.466 66.3638Z" fill="#F85673"/>
<path d="M93.488 66.5821C93.488 69.1143 91.4385 71.1672 88.9103 71.1672C86.3821 71.1672 84.3326 69.1143 84.3326 66.5821C84.3326 64.0498 86.3821 61.997 88.9103 61.997C91.4385 61.997 93.488 64.0498 93.488 66.5821Z" fill="#F4B81B"/>
<path d="M109.51 66.5821C109.51 69.1143 107.46 71.1672 104.932 71.1672C102.404 71.1672 100.354 69.1143 100.354 66.5821C100.354 64.0498 102.404 61.997 104.932 61.997C107.46 61.997 109.51 64.0498 109.51 66.5821Z" fill="#3DE64E"/>
<defs>
<filter id="filter0_d_0_4552" x="0" y="0.0757599" width="392.973" height="371.437" filterUnits="userSpaceOnUse" color-interpolation-filters="sRGB">
<feFlood flood-opacity="0" result="BackgroundImageFix"/>
<feColorMatrix in="SourceAlpha" type="matrix" values="0 0 0 0 0 0 0 0 0 0 0 0 0 0 0 0 0 0 127 0" result="hardAlpha"/>
<feOffset/>
<feGaussianBlur stdDeviation="25"/>
<feComposite in2="hardAlpha" operator="out"/>
<feColorMatrix type="matrix" values="0 0 0 0 0 0 0 0 0 0 0 0 0 0 0 0 0 0 0.05 0"/>
<feBlend mode="normal" in2="BackgroundImageFix" result="effect1_dropShadow_0_4552"/>
<feBlend mode="normal" in="SourceGraphic" in2="effect1_dropShadow_0_4552" result="shape"/>
</filter>
<linearGradient id="paint0_linear_0_4552" x1="214.241" y1="182.258" x2="247.006" y2="173.503" gradientUnits="userSpaceOnUse">
<stop stop-color="white"/>
<stop offset="1" stop-color="white" stop-opacity="0"/>
</linearGradient>
<linearGradient id="paint1_linear_0_4552" x1="216.141" y1="190.875" x2="249.518" y2="182.278" gradientUnits="userSpaceOnUse">
<stop stop-color="white"/>
<stop offset="1" stop-color="white" stop-opacity="0"/>
</linearGradient>
</defs>
</svg>
