<svg width="412" height="298" viewBox="0 0 412 298" fill="none" xmlns="http://www.w3.org/2000/svg">
<g filter="url(#filter0_d_0_4871)">
<path d="M50 58.6842C50 53.8881 53.8802 50 58.6667 50H353.333C358.12 50 362 53.8881 362 58.6842V239.316C362 244.112 358.12 248 353.333 248H58.6667C53.8802 248 50 244.112 50 239.316V58.6842Z" fill="white"/>
</g>
<path d="M314.238 215C313.803 215 313.419 214.928 313.085 214.785C312.752 214.635 312.489 214.425 312.297 214.155C312.105 213.878 312.006 213.544 312 213.152H313.145C313.156 213.423 313.255 213.652 313.441 213.84C313.633 214.022 313.896 214.113 314.23 214.113C314.518 214.113 314.747 214.047 314.916 213.914C315.086 213.776 315.171 213.594 315.171 213.367C315.171 213.13 315.094 212.945 314.942 212.812C314.795 212.68 314.597 212.572 314.348 212.489C314.1 212.406 313.834 212.318 313.551 212.224C313.094 212.069 312.743 211.87 312.5 211.627C312.263 211.384 312.144 211.061 312.144 210.657C312.139 210.315 312.22 210.022 312.39 209.779C312.565 209.53 312.803 209.34 313.102 209.207C313.402 209.069 313.746 209 314.136 209C314.532 209 314.88 209.069 315.179 209.207C315.484 209.345 315.722 209.539 315.891 209.787C316.066 210.036 316.16 210.331 316.171 210.674H315.01C315.004 210.47 314.922 210.29 314.764 210.135C314.611 209.975 314.396 209.895 314.119 209.895C313.882 209.89 313.681 209.948 313.518 210.069C313.359 210.185 313.28 210.356 313.28 210.583C313.28 210.776 313.342 210.931 313.467 211.047C313.591 211.157 313.761 211.251 313.975 211.329C314.19 211.406 314.436 211.489 314.713 211.577C315.007 211.677 315.275 211.793 315.518 211.925C315.761 212.058 315.956 212.235 316.103 212.456C316.25 212.671 316.324 212.95 316.324 213.293C316.324 213.597 316.244 213.878 316.086 214.138C315.928 214.398 315.693 214.608 315.383 214.768C315.072 214.923 314.69 215 314.238 215Z" fill="#AAA7A7"/>
<path d="M319.559 215C319.124 215 318.731 214.917 318.381 214.751C318.031 214.58 317.751 214.323 317.542 213.981C317.338 213.638 317.236 213.204 317.236 212.68V209.099H318.322V212.688C318.322 213.141 318.432 213.478 318.652 213.699C318.878 213.92 319.189 214.03 319.585 214.03C319.975 214.03 320.283 213.92 320.509 213.699C320.735 213.478 320.848 213.141 320.848 212.688V209.099H321.933V212.68C321.933 213.204 321.826 213.638 321.611 213.981C321.396 214.323 321.108 214.58 320.746 214.751C320.39 214.917 319.994 215 319.559 215Z" fill="#AAA7A7"/>
<path d="M323.041 214.901V209.099H324.126L326.915 213.185V209.099H328V214.901H326.915L324.126 210.823V214.901H323.041Z" fill="#AAA7A7"/>
<path d="M278.119 215C277.707 215 277.343 214.928 277.027 214.785C276.712 214.635 276.463 214.425 276.281 214.155C276.099 213.878 276.005 213.544 276 213.152H277.083C277.094 213.423 277.188 213.652 277.364 213.84C277.546 214.022 277.795 214.113 278.111 214.113C278.383 214.113 278.6 214.047 278.761 213.914C278.921 213.776 279.001 213.594 279.001 213.367C279.001 213.13 278.929 212.945 278.785 212.812C278.646 212.68 278.458 212.572 278.223 212.489C277.987 212.406 277.736 212.318 277.469 212.224C277.035 212.069 276.704 211.87 276.474 211.627C276.249 211.384 276.136 211.061 276.136 210.657C276.131 210.315 276.209 210.022 276.369 209.779C276.535 209.53 276.76 209.34 277.043 209.207C277.327 209.069 277.653 209 278.022 209C278.397 209 278.726 209.069 279.009 209.207C279.298 209.345 279.523 209.539 279.683 209.787C279.849 210.036 279.937 210.331 279.948 210.674H278.849C278.843 210.47 278.766 210.29 278.616 210.135C278.472 209.975 278.268 209.895 278.006 209.895C277.782 209.89 277.592 209.948 277.436 210.069C277.287 210.185 277.212 210.356 277.212 210.583C277.212 210.776 277.271 210.931 277.388 211.047C277.506 211.157 277.667 211.251 277.87 211.329C278.073 211.406 278.306 211.489 278.568 211.577C278.846 211.677 279.1 211.793 279.33 211.925C279.56 212.058 279.745 212.235 279.884 212.456C280.023 212.671 280.093 212.95 280.093 213.293C280.093 213.597 280.018 213.878 279.868 214.138C279.718 214.398 279.496 214.608 279.202 214.768C278.908 214.923 278.547 215 278.119 215Z" fill="#AAA7A7"/>
<path d="M280.628 214.901L282.682 209.099H283.838L285.892 214.901H284.8L284.351 213.558H282.16L281.703 214.901H280.628ZM282.441 212.729H284.07L283.252 210.318L282.441 212.729Z" fill="#AAA7A7"/>
<path d="M287.328 214.901V209.953H285.691V209.099H290V209.953H288.355V214.901H287.328Z" fill="#AAA7A7"/>
<path d="M243 215V209H246.819V209.883H244.082V211.563H246.295V212.429H244.082V215H243Z" fill="#AAA7A7"/>
<path d="M247.654 215V209H249.826C250.299 209 250.687 209.083 250.992 209.249C251.301 209.409 251.532 209.629 251.684 209.909C251.837 210.183 251.913 210.489 251.913 210.826C251.913 211.191 251.817 211.526 251.625 211.829C251.439 212.131 251.146 212.351 250.747 212.489L251.972 215H250.73L249.631 212.634H248.736V215H247.654ZM248.736 211.829H249.758C250.118 211.829 250.383 211.74 250.552 211.563C250.721 211.386 250.806 211.151 250.806 210.86C250.806 210.574 250.721 210.346 250.552 210.174C250.389 210.003 250.121 209.917 249.749 209.917H248.736V211.829Z" fill="#AAA7A7"/>
<path d="M252.919 215V209H254V215H252.919Z" fill="#AAA7A7"/>
<path d="M205.837 214.899V209.868H204V209H208.836V209.868H206.99V214.899H205.837Z" fill="#AAA7A7"/>
<path d="M209.689 214.899V209H210.842V211.452H213.67V209H214.822V214.899H213.67V212.329H210.842V214.899H209.689Z" fill="#AAA7A7"/>
<path d="M218.479 215C218.016 215 217.599 214.916 217.227 214.747C216.855 214.573 216.558 214.312 216.336 213.963C216.119 213.615 216.011 213.174 216.011 212.64V209H217.164V212.649C217.164 213.11 217.281 213.452 217.515 213.677C217.755 213.902 218.085 214.014 218.506 214.014C218.92 214.014 219.247 213.902 219.487 213.677C219.727 213.452 219.847 213.11 219.847 212.649V209H221V212.64C221 213.174 220.886 213.615 220.658 213.963C220.43 214.312 220.124 214.573 219.739 214.747C219.361 214.916 218.941 215 218.479 215Z" fill="#AAA7A7"/>
<path d="M164.577 215L163 209H164.168L165.242 213.774L166.504 209H167.706L168.933 213.774L170.007 209H171.184L169.564 215H168.268L167.083 210.551L165.864 215H164.577Z" fill="#AAA7A7"/>
<path d="M171.974 215V209H175.87V209.883H173.065V211.529H175.614V212.386H173.065V214.117H175.87V215H171.974Z" fill="#AAA7A7"/>
<path d="M176.902 215V209H178.94C179.639 209 180.213 209.126 180.662 209.377C181.116 209.623 181.452 209.971 181.668 210.423C181.889 210.869 182 211.394 182 212C182 212.606 181.889 213.134 181.668 213.586C181.452 214.031 181.116 214.38 180.662 214.631C180.213 214.877 179.639 215 178.94 215H176.902ZM177.994 214.057H178.889C179.389 214.057 179.784 213.977 180.074 213.817C180.363 213.651 180.571 213.417 180.696 213.114C180.821 212.806 180.883 212.434 180.883 212C180.883 211.571 180.821 211.203 180.696 210.894C180.571 210.586 180.363 210.349 180.074 210.183C179.784 210.017 179.389 209.934 178.889 209.934H177.994V214.057Z" fill="#AAA7A7"/>
<path d="M126.845 214.899V209.868H125V209H129.856V209.868H128.002V214.899H126.845Z" fill="#AAA7A7"/>
<path d="M133.154 215C132.69 215 132.271 214.916 131.898 214.747C131.524 214.573 131.225 214.312 131.002 213.963C130.785 213.615 130.677 213.174 130.677 212.64V209H131.834V212.649C131.834 213.11 131.952 213.452 132.187 213.677C132.428 213.902 132.76 214.014 133.182 214.014C133.598 214.014 133.926 213.902 134.167 213.677C134.408 213.452 134.529 213.11 134.529 212.649V209H135.686V212.64C135.686 213.174 135.572 213.615 135.343 213.963C135.114 214.312 134.806 214.573 134.42 214.747C134.041 214.916 133.619 215 133.154 215Z" fill="#AAA7A7"/>
<path d="M136.868 214.899V209H141V209.868H138.025V211.486H140.729V212.329H138.025V214.031H141V214.899H136.868Z" fill="#AAA7A7"/>
<path d="M84.0001 214.901V209.099H85.2786L87.1544 212.779L89.0049 209.099H90.2834V214.901H89.2067V210.898L87.5665 214.072H86.717L85.0767 210.898V214.901H84.0001Z" fill="#AAA7A7"/>
<path d="M94.1847 215C93.5959 215 93.08 214.873 92.637 214.619C92.1996 214.365 91.8548 214.014 91.6024 213.566C91.3557 213.113 91.2323 212.591 91.2323 212C91.2323 211.409 91.3557 210.89 91.6024 210.442C91.8548 209.989 92.1996 209.635 92.637 209.381C93.08 209.127 93.5959 209 94.1847 209C94.7679 209 95.281 209.127 95.724 209.381C96.167 209.635 96.5119 209.989 96.7586 210.442C97.0054 210.89 97.1287 211.409 97.1287 212C97.1287 212.591 97.0054 213.113 96.7586 213.566C96.5119 214.014 96.167 214.365 95.724 214.619C95.281 214.873 94.7679 215 94.1847 215ZM94.1847 214.047C94.7455 214.047 95.1913 213.865 95.5222 213.5C95.8586 213.135 96.0268 212.635 96.0268 212C96.0268 211.365 95.8586 210.865 95.5222 210.5C95.1913 210.135 94.7455 209.953 94.1847 209.953C93.624 209.953 93.1754 210.135 92.8389 210.5C92.5025 210.865 92.3342 211.365 92.3342 212C92.3342 212.635 92.5025 213.135 92.8389 213.5C93.1754 213.865 93.624 214.047 94.1847 214.047Z" fill="#AAA7A7"/>
<path d="M98.0794 214.901V209.099H99.156L101.923 213.185V209.099H103V214.901H101.923L99.156 210.823V214.901H98.0794Z" fill="#AAA7A7"/>
<path d="M278 124.402C278 121.971 280.015 120 282.5 120C284.985 120 287 121.971 287 124.402V196.598C287 199.029 284.985 201 282.5 201C280.015 201 278 199.029 278 196.598V124.402Z" fill="#EDEDED"/>
<path d="M316 124.402C316 121.971 317.791 120 320 120C322.209 120 324 121.971 324 124.402V196.598C324 199.029 322.209 201 320 201C317.791 201 316 199.029 316 196.598V124.402Z" fill="#EDEDED"/>
<path d="M244 124.402C244 121.971 246.015 120 248.5 120C250.985 120 253 121.971 253 124.402V196.598C253 199.029 250.985 201 248.5 201C246.015 201 244 199.029 244 196.598V124.402Z" fill="#F7D4BE"/>
<path d="M208 161.4C208 158.97 209.791 157 212 157C214.209 157 216 158.97 216 161.4V196.6C216 199.03 214.209 201 212 201C209.791 201 208 199.03 208 196.6V161.4Z" fill="#9ED7A3"/>
<path d="M208 138.4C208 135.97 209.791 134 212 134C214.209 134 216 135.97 216 138.4V151.6C216 154.03 214.209 156 212 156C209.791 156 208 154.03 208 151.6V138.4Z" fill="#E0BFF2"/>
<path d="M208 124.643C208 122.079 209.791 120 212 120C214.209 120 216 122.079 216 124.643V128.357C216 130.921 214.209 133 212 133C209.791 133 208 130.921 208 128.357V124.643Z" fill="#F7D4BE"/>
<path d="M168 161.4C168 158.97 169.791 157 172 157C174.209 157 176 158.97 176 161.4V196.6C176 199.03 174.209 201 172 201C169.791 201 168 199.03 168 196.6V161.4Z" fill="#9ED7A3"/>
<path d="M168 133.355C168 130.95 169.791 129 172 129C174.209 129 176 130.95 176 133.355V151.645C176 154.05 174.209 156 172 156C169.791 156 168 154.05 168 151.645V133.355Z" fill="#E0BFF2"/>
<path d="M129 161.4C129 158.97 130.791 157 133 157C135.209 157 137 158.97 137 161.4V196.6C137 199.03 135.209 201 133 201C130.791 201 129 199.03 129 196.6V161.4Z" fill="#9ED7A3"/>
<path d="M129 138.4C129 135.97 130.791 134 133 134C135.209 134 137 135.97 137 138.4V151.6C137 154.03 135.209 156 133 156C130.791 156 129 154.03 129 151.6V138.4Z" fill="#E0BFF2"/>
<path d="M129 124.643C129 122.079 130.791 120 133 120C135.209 120 137 122.079 137 124.643V128.357C137 130.921 135.209 133 133 133C130.791 133 129 130.921 129 128.357V124.643Z" fill="#F7D4BE"/>
<path d="M88 149.375C88 146.959 90.0147 145 92.5 145C94.9853 145 97 146.959 97 149.375V196.625C97 199.041 94.9853 201 92.5 201C90.0147 201 88 199.041 88 196.625V149.375Z" fill="#9ED7A3"/>
<path d="M88 126.2C88 123.88 90.0147 122 92.5 122C94.9853 122 97 123.88 97 126.2V138.8C97 141.12 94.9853 143 92.5 143C90.0147 143 88 141.12 88 138.8V126.2Z" fill="#E0BFF2"/>
<path d="M84.0002 97.9325V84.2209H88.6497C90.1233 84.2209 91.4001 84.5092 92.4799 85.0859C93.5724 85.6503 94.4172 86.4479 95.0143 87.4785C95.6113 88.5092 95.9099 89.7055 95.9099 91.0675C95.9099 92.4172 95.6113 93.6135 95.0143 94.6564C94.4172 95.6871 93.5724 96.4908 92.4799 97.0675C91.4001 97.6442 90.1233 97.9325 88.6497 97.9325H84.0002ZM86.2487 96H88.6878C89.6914 96 90.5616 95.7975 91.2984 95.3926C92.048 94.9877 92.626 94.4172 93.0325 93.681C93.439 92.9448 93.6423 92.0736 93.6423 91.0675C93.6423 90.0613 93.4327 89.1963 93.0134 88.4724C92.6069 87.7362 92.0352 87.1656 91.2984 86.7607C90.5616 86.3558 89.6914 86.1534 88.6878 86.1534H86.2487V96Z" fill="black"/>
<path d="M100.909 98.1534C100.21 98.1534 99.5939 98.0368 99.0603 97.8037C98.5395 97.5583 98.1329 97.227 97.8407 96.8098C97.5486 96.3804 97.4025 95.8773 97.4025 95.3006C97.4025 94.7607 97.5232 94.2761 97.7645 93.8466C98.0186 93.4172 98.4061 93.0552 98.9269 92.7607C99.4478 92.4663 100.102 92.2577 100.89 92.135L104.472 91.5644V93.2025L101.309 93.7362C100.737 93.8344 100.318 94.0123 100.051 94.2699C99.7844 94.5153 99.651 94.8344 99.651 95.227C99.651 95.6074 99.7971 95.9202 100.089 96.1656C100.394 96.3988 100.782 96.5153 101.252 96.5153C101.836 96.5153 102.344 96.3926 102.776 96.1472C103.221 95.9018 103.564 95.5767 103.805 95.1718C104.047 94.7546 104.167 94.2945 104.167 93.7914V91.2331C104.167 90.7423 103.977 90.3436 103.596 90.0368C103.227 89.7178 102.732 89.5583 102.109 89.5583C101.538 89.5583 101.036 89.7055 100.604 90C100.185 90.2822 99.8733 90.6503 99.6701 91.1043L97.8789 90.2393C98.0694 89.7485 98.3807 89.319 98.8126 88.9509C99.2445 88.5706 99.7463 88.2761 100.318 88.0675C100.902 87.8589 101.518 87.7546 102.166 87.7546C102.979 87.7546 103.697 87.9018 104.32 88.1963C104.955 88.4908 105.444 88.9018 105.787 89.4294C106.143 89.9448 106.32 90.546 106.32 91.2331V97.9325H104.262V96.1288L104.701 96.184C104.459 96.589 104.148 96.9387 103.767 97.2331C103.399 97.5276 102.973 97.7546 102.49 97.9141C102.02 98.0736 101.493 98.1534 100.909 98.1534Z" fill="black"/>
<path d="M108.838 97.9325V87.9755H110.991V97.9325H108.838ZM108.838 86.6135V84.2209H110.991V86.6135H108.838Z" fill="black"/>
<path d="M113.509 97.9325V84H115.662V97.9325H113.509Z" fill="black"/>
<path d="M119.095 102C118.84 102 118.586 101.975 118.332 101.926C118.091 101.89 117.869 101.828 117.665 101.742V99.9571C117.818 99.9939 118.002 100.025 118.218 100.049C118.434 100.086 118.644 100.104 118.847 100.104C119.444 100.104 119.882 99.9755 120.162 99.7178C120.454 99.4724 120.714 99.0859 120.943 98.5583L121.629 97.0491L121.591 98.7975L117.132 87.9755H119.438L122.734 96.2761H121.953L125.23 87.9755H127.555L123.001 99.0184C122.76 99.6074 122.455 100.123 122.086 100.564C121.731 101.018 121.305 101.368 120.81 101.613C120.327 101.871 119.755 102 119.095 102Z" fill="black"/>
<path d="M131.312 97.9325L136.304 84.2209H139.087L144.079 97.9325H141.678L140.592 94.8589H134.818L133.713 97.9325H131.312ZM135.466 92.9264H139.906L137.391 85.7485H138.019L135.466 92.9264Z" fill="black"/>
<path d="M150.079 98.1534C149.05 98.1534 148.135 97.9264 147.335 97.4724C146.547 97.0061 145.918 96.3804 145.448 95.5951C144.991 94.8098 144.762 93.9202 144.762 92.9264C144.762 91.9448 144.991 91.0613 145.448 90.2761C145.906 89.4908 146.534 88.8773 147.335 88.4356C148.135 87.9816 149.05 87.7546 150.079 87.7546C150.777 87.7546 151.432 87.8773 152.041 88.1227C152.651 88.3558 153.178 88.681 153.623 89.0982C154.08 89.5153 154.417 90 154.633 90.5521L152.747 91.3988C152.531 90.8834 152.181 90.4724 151.698 90.1656C151.228 89.8466 150.689 89.6871 150.079 89.6871C149.494 89.6871 148.967 89.8282 148.497 90.1104C148.04 90.3804 147.678 90.7669 147.411 91.2699C147.144 91.7607 147.011 92.319 147.011 92.9448C147.011 93.5706 147.144 94.135 147.411 94.638C147.678 95.1288 148.04 95.5153 148.497 95.7975C148.967 96.0798 149.494 96.2209 150.079 96.2209C150.701 96.2209 151.241 96.0675 151.698 95.7607C152.169 95.4417 152.518 95.0184 152.747 94.4908L154.633 95.3558C154.43 95.8834 154.099 96.362 153.642 96.7914C153.198 97.2086 152.67 97.5399 152.061 97.7853C151.451 98.0307 150.79 98.1534 150.079 98.1534Z" fill="black"/>
<path d="M161.197 98.0429C160.117 98.0429 159.278 97.7485 158.681 97.1595C158.084 96.5706 157.786 95.7423 157.786 94.6748V89.8528H155.975V87.9755H156.261C156.744 87.9755 157.119 87.8405 157.386 87.5706C157.652 87.3006 157.786 86.9325 157.786 86.4663V85.6933H159.939V87.9755H162.283V89.8528H159.939V94.5828C159.939 94.9264 159.996 95.2209 160.11 95.4663C160.225 95.6994 160.409 95.8834 160.663 96.0184C160.917 96.1411 161.247 96.2025 161.654 96.2025C161.756 96.2025 161.87 96.1963 161.997 96.184C162.124 96.1718 162.245 96.1595 162.359 96.1472V97.9325C162.181 97.9571 161.984 97.9816 161.768 98.0061C161.552 98.0307 161.362 98.0429 161.197 98.0429Z" fill="black"/>
<path d="M164.46 97.9325V87.9755H166.614V97.9325H164.46ZM164.46 86.6135V84.2209H166.614V86.6135H164.46Z" fill="black"/>
<path d="M172.123 97.9325L168.083 87.9755H170.427L173.533 96.092H172.676L175.782 87.9755H178.144L174.086 97.9325H172.123Z" fill="black"/>
<path d="M179.608 97.9325V87.9755H181.761V97.9325H179.608ZM179.608 86.6135V84.2209H181.761V86.6135H179.608Z" fill="black"/>
<path d="M188.738 98.0429C187.658 98.0429 186.82 97.7485 186.223 97.1595C185.625 96.5706 185.327 95.7423 185.327 94.6748V89.8528H183.517V87.9755H183.802C184.285 87.9755 184.66 87.8405 184.927 87.5706C185.194 87.3006 185.327 86.9325 185.327 86.4663V85.6933H187.48V87.9755H189.824V89.8528H187.48V94.5828C187.48 94.9264 187.537 95.2209 187.652 95.4663C187.766 95.6994 187.95 95.8834 188.204 96.0184C188.458 96.1411 188.789 96.2025 189.195 96.2025C189.297 96.2025 189.411 96.1963 189.538 96.184C189.665 96.1718 189.786 96.1595 189.9 96.1472V97.9325C189.722 97.9571 189.526 97.9816 189.31 98.0061C189.094 98.0307 188.903 98.0429 188.738 98.0429Z" fill="black"/>
<path d="M192.002 97.9325V87.9755H194.155V97.9325H192.002ZM192.002 86.6135V84.2209H194.155V86.6135H192.002Z" fill="black"/>
<path d="M201.513 98.1534C200.484 98.1534 199.569 97.9264 198.769 97.4724C197.981 97.0061 197.365 96.3804 196.92 95.5951C196.476 94.7975 196.253 93.908 196.253 92.9264C196.253 91.9202 196.476 91.0307 196.92 90.2577C197.378 89.4847 197.987 88.8773 198.75 88.4356C199.512 87.9816 200.376 87.7546 201.341 87.7546C202.116 87.7546 202.808 87.8834 203.418 88.1411C204.028 88.3988 204.542 88.7546 204.962 89.2086C205.381 89.6503 205.698 90.1595 205.914 90.7362C206.143 91.3129 206.257 91.9264 206.257 92.5767C206.257 92.7362 206.251 92.9018 206.238 93.0736C206.226 93.2454 206.2 93.4049 206.162 93.5521H197.949V91.8957H204.943L203.914 92.6503C204.041 92.0491 203.996 91.5153 203.78 91.0491C203.577 90.5706 203.259 90.1963 202.827 89.9264C202.408 89.6442 201.913 89.5031 201.341 89.5031C200.769 89.5031 200.261 89.6442 199.817 89.9264C199.372 90.1963 199.029 90.589 198.788 91.1043C198.546 91.6074 198.451 92.2209 198.502 92.9448C198.438 93.6196 198.534 94.2086 198.788 94.7117C199.054 95.2147 199.423 95.6074 199.893 95.8896C200.376 96.1718 200.922 96.3129 201.532 96.3129C202.154 96.3129 202.681 96.1779 203.113 95.908C203.558 95.638 203.907 95.2883 204.161 94.8589L205.914 95.6871C205.711 96.1534 205.394 96.5767 204.962 96.9571C204.542 97.3252 204.034 97.6196 203.437 97.8405C202.853 98.0491 202.211 98.1534 201.513 98.1534Z" fill="black"/>
<path d="M212.17 98.1534C211.116 98.1534 210.188 97.9018 209.388 97.3988C208.6 96.8957 208.048 96.2209 207.73 95.3742L209.388 94.6196C209.667 95.184 210.048 95.6319 210.531 95.9632C211.027 96.2945 211.573 96.4601 212.17 96.4601C212.678 96.4601 213.091 96.3497 213.409 96.1288C213.726 95.908 213.885 95.6074 213.885 95.227C213.885 94.9816 213.815 94.7853 213.675 94.638C213.536 94.4785 213.358 94.3497 213.142 94.2515C212.939 94.1534 212.729 94.0798 212.513 94.0307L210.893 93.589C210.004 93.3436 209.337 92.9755 208.892 92.4847C208.46 91.9816 208.245 91.3988 208.245 90.7362C208.245 90.135 208.403 89.6135 208.721 89.1718C209.039 88.7178 209.477 88.3681 210.036 88.1227C210.595 87.8773 211.224 87.7546 211.922 87.7546C212.862 87.7546 213.701 87.9816 214.438 88.4356C215.174 88.8773 215.695 89.4969 216 90.2945L214.342 91.0491C214.139 90.5706 213.815 90.1902 213.37 89.908C212.939 89.6258 212.449 89.4847 211.903 89.4847C211.433 89.4847 211.058 89.5951 210.779 89.816C210.499 90.0245 210.36 90.3006 210.36 90.6442C210.36 90.8773 210.423 91.0736 210.55 91.2331C210.677 91.3804 210.842 91.5031 211.046 91.6012C211.249 91.6871 211.459 91.7607 211.675 91.8221L213.351 92.3006C214.203 92.5337 214.857 92.9018 215.314 93.4049C215.771 93.8957 216 94.4847 216 95.1718C216 95.7607 215.835 96.2822 215.505 96.7362C215.187 97.1779 214.742 97.5276 214.171 97.7853C213.599 98.0307 212.932 98.1534 212.17 98.1534Z" fill="black"/>
<defs>
<filter id="filter0_d_0_4871" x="0" y="0" width="412" height="298" filterUnits="userSpaceOnUse" color-interpolation-filters="sRGB">
<feFlood flood-opacity="0" result="BackgroundImageFix"/>
<feColorMatrix in="SourceAlpha" type="matrix" values="0 0 0 0 0 0 0 0 0 0 0 0 0 0 0 0 0 0 127 0" result="hardAlpha"/>
<feOffset/>
<feGaussianBlur stdDeviation="25"/>
<feComposite in2="hardAlpha" operator="out"/>
<feColorMatrix type="matrix" values="0 0 0 0 0 0 0 0 0 0 0 0 0 0 0 0 0 0 0.1 0"/>
<feBlend mode="normal" in2="BackgroundImageFix" result="effect1_dropShadow_0_4871"/>
<feBlend mode="normal" in="SourceGraphic" in2="effect1_dropShadow_0_4871" result="shape"/>
</filter>
</defs>
</svg>
