<svg width="443" height="200" viewBox="0 0 443 200" fill="none" xmlns="http://www.w3.org/2000/svg">
<g filter="url(#filter0_d_0_1139)">
<path d="M50 65.2383C50 56.8224 56.8224 50 65.2383 50H377.624C386.04 50 392.863 56.8224 392.863 65.2383V134.573C392.863 142.989 386.04 149.811 377.624 149.811H65.2383C56.8224 149.811 50 142.989 50 134.573V65.2383Z" fill="white"/>
</g>
<path d="M145.508 122.382V109.582H150.957C151.688 109.582 152.359 109.765 152.969 110.13C153.59 110.484 154.084 110.972 154.45 111.593C154.815 112.203 154.998 112.892 154.998 113.66C154.998 114.354 154.815 115.001 154.45 115.598C154.084 116.195 153.596 116.677 152.987 117.043C152.377 117.396 151.701 117.573 150.957 117.573H147.483V122.382H145.508ZM153.115 122.382L149.86 116.604L151.89 116.147L155.51 122.4L153.115 122.382ZM147.483 115.671H151.14C151.493 115.671 151.81 115.586 152.091 115.415C152.371 115.232 152.591 114.988 152.749 114.684C152.908 114.367 152.987 114.019 152.987 113.641C152.987 113.215 152.883 112.843 152.676 112.526C152.481 112.197 152.2 111.941 151.835 111.758C151.481 111.575 151.079 111.484 150.628 111.484H147.483V115.671Z" fill="#858585"/>
<path d="M161.87 122.565C160.882 122.565 160.005 122.358 159.237 121.943C158.481 121.517 157.883 120.937 157.445 120.206C157.018 119.475 156.805 118.633 156.805 117.683C156.805 116.927 156.926 116.238 157.17 115.616C157.414 114.995 157.749 114.458 158.176 114.007C158.615 113.544 159.133 113.19 159.73 112.946C160.34 112.69 160.998 112.562 161.705 112.562C162.327 112.562 162.906 112.684 163.442 112.928C163.979 113.16 164.442 113.483 164.832 113.897C165.234 114.312 165.539 114.806 165.746 115.379C165.966 115.939 166.069 116.555 166.057 117.225L166.039 118.03H158.194L157.774 116.531H164.412L164.137 116.841V116.403C164.101 116 163.967 115.641 163.735 115.324C163.503 115.007 163.211 114.757 162.857 114.574C162.504 114.391 162.12 114.3 161.705 114.3C161.047 114.3 160.492 114.428 160.041 114.684C159.59 114.927 159.249 115.293 159.017 115.781C158.786 116.256 158.67 116.847 158.67 117.555C158.67 118.225 158.81 118.81 159.09 119.31C159.371 119.798 159.767 120.176 160.279 120.444C160.791 120.712 161.382 120.846 162.053 120.846C162.528 120.846 162.967 120.767 163.369 120.608C163.784 120.45 164.229 120.163 164.704 119.749L165.655 121.084C165.362 121.376 165.003 121.632 164.576 121.852C164.162 122.071 163.717 122.248 163.241 122.382C162.778 122.504 162.321 122.565 161.87 122.565Z" fill="#858585"/>
<path d="M171.798 122.565C171.006 122.565 170.28 122.345 169.622 121.907C168.976 121.468 168.458 120.87 168.068 120.115C167.677 119.359 167.482 118.505 167.482 117.555C167.482 116.591 167.677 115.738 168.068 114.995C168.47 114.239 169.006 113.647 169.677 113.221C170.359 112.794 171.121 112.581 171.963 112.581C172.462 112.581 172.919 112.654 173.334 112.8C173.748 112.946 174.108 113.154 174.413 113.422C174.73 113.678 174.986 113.977 175.181 114.318C175.388 114.659 175.516 115.025 175.565 115.415L175.144 115.269V112.782H177.046V122.382H175.144V120.096L175.583 119.968C175.51 120.297 175.358 120.621 175.126 120.937C174.907 121.242 174.62 121.517 174.267 121.76C173.925 122.004 173.541 122.199 173.115 122.345C172.7 122.492 172.261 122.565 171.798 122.565ZM172.292 120.828C172.865 120.828 173.371 120.688 173.809 120.407C174.248 120.127 174.59 119.743 174.833 119.255C175.089 118.755 175.217 118.188 175.217 117.555C175.217 116.933 175.089 116.378 174.833 115.891C174.59 115.403 174.248 115.019 173.809 114.739C173.371 114.458 172.865 114.318 172.292 114.318C171.731 114.318 171.231 114.458 170.792 114.739C170.366 115.019 170.024 115.403 169.768 115.891C169.524 116.378 169.402 116.933 169.402 117.555C169.402 118.188 169.524 118.755 169.768 119.255C170.024 119.743 170.366 120.127 170.792 120.407C171.231 120.688 171.731 120.828 172.292 120.828Z" fill="#858585"/>
<path d="M183.68 122.565C182.803 122.565 182.016 122.352 181.322 121.925C180.639 121.486 180.096 120.895 179.694 120.151C179.292 119.395 179.091 118.536 179.091 117.573C179.091 116.61 179.286 115.756 179.676 115.013C180.078 114.257 180.621 113.666 181.303 113.239C181.986 112.8 182.76 112.581 183.626 112.581C184.101 112.581 184.558 112.66 184.997 112.818C185.448 112.965 185.85 113.172 186.204 113.44C186.557 113.696 186.832 113.983 187.027 114.3C187.234 114.604 187.338 114.915 187.338 115.232L186.789 115.269V108.85H188.672V122.382H186.789V120.096H187.155C187.155 120.389 187.057 120.681 186.862 120.974C186.667 121.254 186.405 121.517 186.076 121.76C185.759 122.004 185.387 122.199 184.96 122.345C184.546 122.492 184.119 122.565 183.68 122.565ZM183.936 120.937C184.509 120.937 185.015 120.791 185.454 120.499C185.893 120.206 186.234 119.81 186.478 119.31C186.734 118.798 186.862 118.219 186.862 117.573C186.862 116.927 186.734 116.354 186.478 115.854C186.234 115.342 185.893 114.94 185.454 114.647C185.015 114.354 184.509 114.208 183.936 114.208C183.363 114.208 182.858 114.354 182.419 114.647C181.98 114.94 181.632 115.342 181.376 115.854C181.133 116.354 181.011 116.927 181.011 117.573C181.011 118.219 181.133 118.798 181.376 119.31C181.632 119.81 181.98 120.206 182.419 120.499C182.858 120.791 183.363 120.937 183.936 120.937Z" fill="#858585"/>
<path d="M202.224 122.565C201.321 122.565 200.486 122.4 199.718 122.071C198.963 121.742 198.298 121.285 197.725 120.7C197.164 120.102 196.726 119.408 196.409 118.615C196.104 117.811 195.951 116.933 195.951 115.982C195.951 115.031 196.104 114.159 196.409 113.367C196.726 112.562 197.164 111.868 197.725 111.282C198.298 110.685 198.963 110.222 199.718 109.893C200.486 109.564 201.321 109.399 202.224 109.399C203.126 109.399 203.955 109.564 204.71 109.893C205.478 110.222 206.143 110.685 206.704 111.282C207.277 111.88 207.715 112.581 208.02 113.385C208.337 114.178 208.496 115.043 208.496 115.982C208.496 116.921 208.337 117.792 208.02 118.597C207.715 119.389 207.277 120.084 206.704 120.681C206.143 121.279 205.478 121.742 204.71 122.071C203.955 122.4 203.126 122.565 202.224 122.565ZM202.224 120.645C202.845 120.645 203.412 120.529 203.924 120.297C204.448 120.066 204.899 119.743 205.277 119.328C205.655 118.902 205.948 118.408 206.155 117.847C206.374 117.274 206.484 116.652 206.484 115.982C206.484 115.311 206.374 114.696 206.155 114.135C205.948 113.562 205.655 113.068 205.277 112.654C204.899 112.227 204.448 111.898 203.924 111.666C203.412 111.435 202.845 111.319 202.224 111.319C201.602 111.319 201.029 111.435 200.505 111.666C199.993 111.898 199.542 112.221 199.152 112.636C198.774 113.05 198.481 113.544 198.274 114.117C198.067 114.678 197.963 115.299 197.963 115.982C197.963 116.652 198.067 117.274 198.274 117.847C198.481 118.42 198.774 118.914 199.152 119.328C199.542 119.743 199.993 120.066 200.505 120.297C201.029 120.529 201.602 120.645 202.224 120.645Z" fill="#858585"/>
<path d="M214.059 122.565C213.376 122.565 212.779 122.406 212.267 122.089C211.767 121.773 211.377 121.328 211.096 120.755C210.828 120.182 210.694 119.499 210.694 118.707V112.782H212.578V118.195C212.578 118.755 212.663 119.243 212.834 119.657C213.016 120.06 213.272 120.371 213.602 120.59C213.943 120.809 214.351 120.919 214.827 120.919C215.18 120.919 215.503 120.864 215.796 120.755C216.089 120.633 216.338 120.468 216.546 120.261C216.765 120.054 216.936 119.804 217.058 119.511C217.18 119.219 217.241 118.902 217.241 118.56V112.782H219.124V122.382H217.241V120.371L217.57 120.151C217.423 120.602 217.173 121.011 216.82 121.376C216.479 121.742 216.07 122.035 215.595 122.254C215.119 122.461 214.607 122.565 214.059 122.565Z" fill="#858585"/>
<path d="M221.766 122.382V112.782H223.667V115.799L223.485 115.068C223.619 114.604 223.844 114.184 224.161 113.806C224.49 113.428 224.862 113.129 225.277 112.91C225.703 112.69 226.142 112.581 226.593 112.581C226.8 112.581 226.996 112.599 227.178 112.636C227.373 112.672 227.526 112.715 227.636 112.764L227.142 114.812C226.996 114.751 226.831 114.702 226.648 114.665C226.477 114.617 226.307 114.592 226.136 114.592C225.807 114.592 225.49 114.659 225.185 114.793C224.893 114.915 224.631 115.092 224.399 115.324C224.179 115.543 224.003 115.805 223.869 116.11C223.735 116.403 223.667 116.726 223.667 117.079V122.382H221.766Z" fill="#858585"/>
<path d="M239.246 122.565C238.454 122.565 237.729 122.467 237.07 122.272C236.424 122.077 235.845 121.791 235.333 121.413C234.833 121.035 234.382 120.578 233.98 120.041L235.699 118.085C236.296 118.914 236.888 119.481 237.473 119.785C238.07 120.078 238.716 120.224 239.411 120.224C239.789 120.224 240.124 120.176 240.417 120.078C240.722 119.968 240.959 119.816 241.13 119.621C241.301 119.426 241.386 119.194 241.386 118.926C241.386 118.731 241.343 118.554 241.258 118.396C241.173 118.225 241.051 118.079 240.892 117.957C240.734 117.823 240.545 117.707 240.325 117.609C240.106 117.5 239.862 117.408 239.594 117.335C239.326 117.25 239.033 117.183 238.716 117.134C238.033 116.975 237.436 116.787 236.924 116.567C236.412 116.335 235.985 116.055 235.644 115.726C235.303 115.385 235.047 115.001 234.876 114.574C234.718 114.147 234.638 113.666 234.638 113.129C234.638 112.581 234.76 112.075 235.004 111.612C235.248 111.136 235.583 110.728 236.01 110.386C236.449 110.045 236.949 109.783 237.509 109.6C238.082 109.417 238.686 109.326 239.32 109.326C240.1 109.326 240.782 109.417 241.368 109.6C241.953 109.771 242.459 110.021 242.885 110.35C243.324 110.679 243.69 111.081 243.983 111.557L242.245 113.239C241.989 112.898 241.709 112.611 241.404 112.38C241.112 112.148 240.789 111.977 240.435 111.868C240.094 111.746 239.74 111.685 239.374 111.685C238.972 111.685 238.625 111.74 238.332 111.849C238.04 111.947 237.808 112.093 237.637 112.288C237.479 112.483 237.4 112.721 237.4 113.001C237.4 113.221 237.454 113.416 237.564 113.586C237.674 113.757 237.832 113.91 238.04 114.044C238.247 114.166 238.497 114.275 238.789 114.373C239.082 114.47 239.405 114.556 239.758 114.629C240.429 114.763 241.032 114.94 241.569 115.159C242.105 115.379 242.562 115.647 242.94 115.964C243.33 116.268 243.629 116.634 243.836 117.061C244.043 117.475 244.147 117.945 244.147 118.469C244.147 119.334 243.94 120.072 243.525 120.681C243.111 121.291 242.538 121.76 241.806 122.089C241.075 122.406 240.222 122.565 239.246 122.565Z" fill="#858585"/>
<path d="M249.594 122.565C248.887 122.565 248.277 122.413 247.765 122.108C247.265 121.791 246.875 121.346 246.595 120.773C246.327 120.188 246.193 119.487 246.193 118.67V112.709H248.789V118.249C248.789 118.688 248.862 119.072 249.009 119.401C249.155 119.718 249.362 119.962 249.63 120.133C249.899 120.304 250.228 120.389 250.618 120.389C250.898 120.389 251.16 120.346 251.404 120.261C251.648 120.163 251.855 120.029 252.026 119.859C252.196 119.688 252.331 119.487 252.428 119.255C252.526 119.024 252.574 118.774 252.574 118.505V112.709H255.171V122.382H252.702L252.611 120.389L253.086 120.169C252.94 120.621 252.696 121.029 252.355 121.395C252.014 121.76 251.605 122.047 251.13 122.254C250.654 122.461 250.142 122.565 249.594 122.565Z" fill="#858585"/>
<path d="M261.99 122.565C261.063 122.565 260.234 122.345 259.503 121.907C258.771 121.468 258.192 120.87 257.765 120.115C257.351 119.359 257.144 118.499 257.144 117.536C257.144 116.585 257.351 115.732 257.765 114.976C258.192 114.208 258.771 113.605 259.503 113.166C260.234 112.727 261.063 112.508 261.99 112.508C262.855 112.508 263.647 112.666 264.367 112.983C265.086 113.3 265.647 113.739 266.049 114.3L264.623 116.019C264.452 115.787 264.239 115.58 263.983 115.397C263.727 115.202 263.446 115.049 263.142 114.94C262.849 114.83 262.544 114.775 262.227 114.775C261.727 114.775 261.282 114.897 260.892 115.141C260.514 115.372 260.216 115.695 259.996 116.11C259.777 116.524 259.667 117 259.667 117.536C259.667 118.06 259.777 118.53 259.996 118.944C260.228 119.347 260.539 119.676 260.929 119.932C261.319 120.176 261.758 120.297 262.246 120.297C262.562 120.297 262.861 120.255 263.142 120.169C263.422 120.072 263.684 119.932 263.928 119.749C264.184 119.566 264.415 119.347 264.623 119.091L266.031 120.809C265.616 121.334 265.043 121.76 264.312 122.089C263.58 122.406 262.806 122.565 261.99 122.565Z" fill="#858585"/>
<path d="M271.9 122.565C270.974 122.565 270.145 122.345 269.413 121.907C268.682 121.468 268.103 120.87 267.676 120.115C267.262 119.359 267.055 118.499 267.055 117.536C267.055 116.585 267.262 115.732 267.676 114.976C268.103 114.208 268.682 113.605 269.413 113.166C270.145 112.727 270.974 112.508 271.9 112.508C272.766 112.508 273.558 112.666 274.278 112.983C274.997 113.3 275.558 113.739 275.96 114.3L274.534 116.019C274.363 115.787 274.15 115.58 273.894 115.397C273.638 115.202 273.357 115.049 273.052 114.94C272.76 114.83 272.455 114.775 272.138 114.775C271.638 114.775 271.193 114.897 270.803 115.141C270.425 115.372 270.127 115.695 269.907 116.11C269.688 116.524 269.578 117 269.578 117.536C269.578 118.06 269.688 118.53 269.907 118.944C270.139 119.347 270.45 119.676 270.84 119.932C271.23 120.176 271.669 120.297 272.156 120.297C272.473 120.297 272.772 120.255 273.052 120.169C273.333 120.072 273.595 119.932 273.839 119.749C274.095 119.566 274.326 119.347 274.534 119.091L275.942 120.809C275.527 121.334 274.954 121.76 274.223 122.089C273.491 122.406 272.717 122.565 271.9 122.565Z" fill="#858585"/>
<path d="M282.195 122.565C281.147 122.565 280.233 122.352 279.452 121.925C278.672 121.498 278.063 120.913 277.624 120.169C277.185 119.426 276.965 118.572 276.965 117.609C276.965 116.866 277.087 116.183 277.331 115.561C277.575 114.94 277.916 114.403 278.355 113.952C278.794 113.489 279.312 113.135 279.91 112.892C280.519 112.636 281.177 112.508 281.884 112.508C282.543 112.508 283.152 112.63 283.713 112.873C284.274 113.105 284.755 113.44 285.158 113.879C285.572 114.306 285.889 114.812 286.108 115.397C286.328 115.982 286.425 116.622 286.401 117.317L286.383 118.121H278.611L278.191 116.531H284.243L283.951 116.86V116.457C283.926 116.128 283.817 115.83 283.622 115.561C283.439 115.293 283.201 115.086 282.908 114.94C282.616 114.793 282.287 114.72 281.921 114.72C281.385 114.72 280.927 114.824 280.55 115.031C280.184 115.238 279.903 115.543 279.708 115.945C279.513 116.348 279.416 116.835 279.416 117.408C279.416 117.993 279.538 118.499 279.782 118.926C280.038 119.353 280.391 119.688 280.842 119.932C281.305 120.163 281.848 120.279 282.47 120.279C282.896 120.279 283.286 120.212 283.64 120.078C283.993 119.944 284.371 119.712 284.774 119.383L286.017 121.12C285.664 121.437 285.273 121.705 284.847 121.925C284.42 122.132 283.981 122.291 283.53 122.4C283.079 122.51 282.634 122.565 282.195 122.565Z" fill="#858585"/>
<path d="M291.575 122.565C290.673 122.565 289.868 122.419 289.161 122.126C288.466 121.821 287.905 121.407 287.479 120.883L289.088 119.493C289.466 119.895 289.886 120.188 290.35 120.371C290.813 120.541 291.276 120.627 291.739 120.627C291.922 120.627 292.087 120.608 292.233 120.572C292.392 120.523 292.526 120.462 292.635 120.389C292.745 120.304 292.824 120.206 292.873 120.096C292.934 119.974 292.965 119.846 292.965 119.712C292.965 119.444 292.855 119.231 292.635 119.072C292.514 119.011 292.325 118.938 292.069 118.853C291.813 118.755 291.483 118.652 291.081 118.542C290.459 118.384 289.929 118.201 289.49 117.993C289.064 117.774 288.722 117.53 288.466 117.262C288.247 117.006 288.076 116.732 287.954 116.439C287.844 116.134 287.79 115.799 287.79 115.433C287.79 114.995 287.887 114.598 288.082 114.245C288.277 113.879 288.545 113.568 288.887 113.312C289.24 113.056 289.643 112.861 290.094 112.727C290.545 112.581 291.02 112.508 291.52 112.508C292.02 112.508 292.507 112.569 292.983 112.69C293.458 112.812 293.897 112.989 294.299 113.221C294.714 113.44 295.074 113.702 295.378 114.007L293.989 115.543C293.769 115.336 293.519 115.147 293.239 114.976C292.971 114.806 292.69 114.671 292.398 114.574C292.105 114.476 291.843 114.428 291.611 114.428C291.404 114.428 291.215 114.446 291.045 114.482C290.886 114.519 290.752 114.574 290.642 114.647C290.533 114.72 290.447 114.818 290.386 114.94C290.337 115.049 290.313 115.171 290.313 115.305C290.313 115.439 290.344 115.567 290.405 115.689C290.478 115.811 290.575 115.915 290.697 116C290.831 116.073 291.026 116.159 291.282 116.256C291.55 116.354 291.91 116.463 292.361 116.585C292.946 116.744 293.44 116.921 293.842 117.116C294.257 117.311 294.586 117.536 294.83 117.792C295.037 118.012 295.189 118.262 295.287 118.542C295.384 118.822 295.433 119.133 295.433 119.475C295.433 120.072 295.263 120.608 294.921 121.084C294.592 121.547 294.135 121.913 293.55 122.181C292.965 122.437 292.306 122.565 291.575 122.565Z" fill="#858585"/>
<path d="M300.539 122.565C299.637 122.565 298.833 122.419 298.126 122.126C297.431 121.821 296.87 121.407 296.443 120.883L298.052 119.493C298.43 119.895 298.851 120.188 299.314 120.371C299.777 120.541 300.241 120.627 300.704 120.627C300.887 120.627 301.051 120.608 301.198 120.572C301.356 120.523 301.49 120.462 301.6 120.389C301.71 120.304 301.789 120.206 301.838 120.096C301.899 119.974 301.929 119.846 301.929 119.712C301.929 119.444 301.819 119.231 301.6 119.072C301.478 119.011 301.289 118.938 301.033 118.853C300.777 118.755 300.448 118.652 300.046 118.542C299.424 118.384 298.894 118.201 298.455 117.993C298.028 117.774 297.687 117.53 297.431 117.262C297.211 117.006 297.041 116.732 296.919 116.439C296.809 116.134 296.754 115.799 296.754 115.433C296.754 114.995 296.852 114.598 297.047 114.245C297.242 113.879 297.51 113.568 297.851 113.312C298.205 113.056 298.607 112.861 299.058 112.727C299.509 112.581 299.985 112.508 300.484 112.508C300.984 112.508 301.472 112.569 301.947 112.69C302.423 112.812 302.862 112.989 303.264 113.221C303.678 113.44 304.038 113.702 304.343 114.007L302.953 115.543C302.734 115.336 302.484 115.147 302.203 114.976C301.935 114.806 301.655 114.671 301.362 114.574C301.07 114.476 300.807 114.428 300.576 114.428C300.369 114.428 300.18 114.446 300.009 114.482C299.85 114.519 299.716 114.574 299.607 114.647C299.497 114.72 299.412 114.818 299.351 114.94C299.302 115.049 299.278 115.171 299.278 115.305C299.278 115.439 299.308 115.567 299.369 115.689C299.442 115.811 299.54 115.915 299.662 116C299.796 116.073 299.991 116.159 300.247 116.256C300.515 116.354 300.875 116.463 301.326 116.585C301.911 116.744 302.404 116.921 302.807 117.116C303.221 117.311 303.55 117.536 303.794 117.792C304.001 118.012 304.154 118.262 304.251 118.542C304.349 118.822 304.398 119.133 304.398 119.475C304.398 120.072 304.227 120.608 303.886 121.084C303.556 121.547 303.099 121.913 302.514 122.181C301.929 122.437 301.271 122.565 300.539 122.565Z" fill="#858585"/>
<path d="M316.373 122.565C315.58 122.565 314.855 122.467 314.197 122.272C313.551 122.077 312.971 121.791 312.459 121.413C311.96 121.035 311.509 120.578 311.106 120.041L312.825 118.085C313.423 118.914 314.014 119.481 314.599 119.785C315.196 120.078 315.842 120.224 316.537 120.224C316.915 120.224 317.25 120.176 317.543 120.078C317.848 119.968 318.085 119.816 318.256 119.621C318.427 119.426 318.512 119.194 318.512 118.926C318.512 118.731 318.469 118.554 318.384 118.396C318.299 118.225 318.177 118.079 318.018 117.957C317.86 117.823 317.671 117.707 317.452 117.609C317.232 117.5 316.988 117.408 316.72 117.335C316.452 117.25 316.159 117.183 315.842 117.134C315.16 116.975 314.562 116.787 314.05 116.567C313.538 116.335 313.112 116.055 312.77 115.726C312.429 115.385 312.173 115.001 312.002 114.574C311.844 114.147 311.765 113.666 311.765 113.129C311.765 112.581 311.887 112.075 312.13 111.612C312.374 111.136 312.709 110.728 313.136 110.386C313.575 110.045 314.075 109.783 314.635 109.6C315.208 109.417 315.812 109.326 316.446 109.326C317.226 109.326 317.909 109.417 318.494 109.6C319.079 109.771 319.585 110.021 320.012 110.35C320.45 110.679 320.816 111.081 321.109 111.557L319.372 113.239C319.116 112.898 318.835 112.611 318.53 112.38C318.238 112.148 317.915 111.977 317.561 111.868C317.22 111.746 316.866 111.685 316.501 111.685C316.098 111.685 315.751 111.74 315.458 111.849C315.166 111.947 314.934 112.093 314.764 112.288C314.605 112.483 314.526 112.721 314.526 113.001C314.526 113.221 314.581 113.416 314.69 113.586C314.8 113.757 314.959 113.91 315.166 114.044C315.373 114.166 315.623 114.275 315.916 114.373C316.208 114.47 316.531 114.556 316.885 114.629C317.555 114.763 318.159 114.94 318.695 115.159C319.231 115.379 319.689 115.647 320.066 115.964C320.457 116.268 320.755 116.634 320.962 117.061C321.17 117.475 321.273 117.945 321.273 118.469C321.273 119.334 321.066 120.072 320.652 120.681C320.237 121.291 319.664 121.76 318.933 122.089C318.201 122.406 317.348 122.565 316.373 122.565Z" fill="#858585"/>
<path d="M324.325 122.382V110.258H326.921V122.382H324.325ZM322.514 115.031V112.709H328.896V115.031H322.514Z" fill="#858585"/>
<path d="M334.998 122.565C334.01 122.565 333.126 122.352 332.346 121.925C331.578 121.486 330.969 120.889 330.517 120.133C330.079 119.377 329.859 118.512 329.859 117.536C329.859 116.561 330.079 115.702 330.517 114.958C330.969 114.202 331.578 113.605 332.346 113.166C333.126 112.727 334.01 112.508 334.998 112.508C335.973 112.508 336.844 112.727 337.612 113.166C338.393 113.605 339.002 114.202 339.441 114.958C339.88 115.702 340.099 116.561 340.099 117.536C340.099 118.512 339.88 119.377 339.441 120.133C339.002 120.889 338.393 121.486 337.612 121.925C336.844 122.352 335.973 122.565 334.998 122.565ZM334.998 120.297C335.473 120.297 335.9 120.182 336.278 119.95C336.655 119.706 336.948 119.377 337.155 118.963C337.375 118.536 337.484 118.06 337.484 117.536C337.484 117 337.375 116.524 337.155 116.11C336.948 115.683 336.655 115.354 336.278 115.123C335.9 114.879 335.473 114.757 334.998 114.757C334.51 114.757 334.077 114.879 333.699 115.123C333.321 115.366 333.023 115.695 332.803 116.11C332.584 116.524 332.48 117 332.492 117.536C332.48 118.06 332.584 118.536 332.803 118.963C333.023 119.377 333.321 119.706 333.699 119.95C334.077 120.182 334.51 120.297 334.998 120.297Z" fill="#858585"/>
<path d="M342.053 122.382V112.709H344.558L344.65 115.817L344.211 115.177C344.357 114.678 344.595 114.226 344.924 113.824C345.253 113.41 345.637 113.087 346.076 112.855C346.527 112.623 346.996 112.508 347.484 112.508C347.691 112.508 347.892 112.526 348.087 112.562C348.282 112.599 348.447 112.642 348.581 112.69L347.886 115.543C347.74 115.47 347.563 115.409 347.356 115.36C347.149 115.299 346.935 115.269 346.716 115.269C346.423 115.269 346.149 115.324 345.893 115.433C345.649 115.531 345.436 115.677 345.253 115.872C345.07 116.055 344.924 116.275 344.814 116.531C344.717 116.787 344.668 117.067 344.668 117.372V122.382H342.053Z" fill="#858585"/>
<path d="M350.29 122.382V112.709H352.887V122.382H350.29ZM351.57 110.716C351.071 110.716 350.68 110.594 350.4 110.35C350.12 110.106 349.98 109.759 349.98 109.308C349.98 108.893 350.12 108.558 350.4 108.302C350.693 108.034 351.083 107.9 351.57 107.9C352.07 107.9 352.46 108.028 352.741 108.284C353.021 108.527 353.161 108.869 353.161 109.308C353.161 109.734 353.015 110.076 352.722 110.332C352.442 110.588 352.058 110.716 351.57 110.716Z" fill="#858585"/>
<path d="M360.25 122.565C359.202 122.565 358.287 122.352 357.507 121.925C356.727 121.498 356.117 120.913 355.679 120.169C355.24 119.426 355.02 118.572 355.02 117.609C355.02 116.866 355.142 116.183 355.386 115.561C355.63 114.94 355.971 114.403 356.41 113.952C356.849 113.489 357.367 113.135 357.964 112.892C358.574 112.636 359.232 112.508 359.939 112.508C360.598 112.508 361.207 112.63 361.768 112.873C362.329 113.105 362.81 113.44 363.212 113.879C363.627 114.306 363.944 114.812 364.163 115.397C364.383 115.982 364.48 116.622 364.456 117.317L364.438 118.121H356.666L356.245 116.531H362.298L362.006 116.86V116.457C361.981 116.128 361.871 115.83 361.676 115.561C361.494 115.293 361.256 115.086 360.963 114.94C360.671 114.793 360.342 114.72 359.976 114.72C359.439 114.72 358.982 114.824 358.604 115.031C358.239 115.238 357.958 115.543 357.763 115.945C357.568 116.348 357.471 116.835 357.471 117.408C357.471 117.993 357.593 118.499 357.836 118.926C358.092 119.353 358.446 119.688 358.897 119.932C359.36 120.163 359.903 120.279 360.524 120.279C360.951 120.279 361.341 120.212 361.695 120.078C362.048 119.944 362.426 119.712 362.828 119.383L364.072 121.12C363.718 121.437 363.328 121.705 362.902 121.925C362.475 122.132 362.036 122.291 361.585 122.4C361.134 122.51 360.689 122.565 360.25 122.565Z" fill="#858585"/>
<path d="M369.63 122.565C368.728 122.565 367.923 122.419 367.216 122.126C366.521 121.821 365.96 121.407 365.534 120.883L367.143 119.493C367.521 119.895 367.941 120.188 368.405 120.371C368.868 120.541 369.331 120.627 369.794 120.627C369.977 120.627 370.142 120.608 370.288 120.572C370.446 120.523 370.581 120.462 370.69 120.389C370.8 120.304 370.879 120.206 370.928 120.096C370.989 119.974 371.019 119.846 371.019 119.712C371.019 119.444 370.91 119.231 370.69 119.072C370.568 119.011 370.379 118.938 370.123 118.853C369.867 118.755 369.538 118.652 369.136 118.542C368.514 118.384 367.984 118.201 367.545 117.993C367.118 117.774 366.777 117.53 366.521 117.262C366.302 117.006 366.131 116.732 366.009 116.439C365.899 116.134 365.844 115.799 365.844 115.433C365.844 114.995 365.942 114.598 366.137 114.245C366.332 113.879 366.6 113.568 366.942 113.312C367.295 113.056 367.697 112.861 368.149 112.727C368.6 112.581 369.075 112.508 369.575 112.508C370.075 112.508 370.562 112.569 371.038 112.69C371.513 112.812 371.952 112.989 372.354 113.221C372.769 113.44 373.128 113.702 373.433 114.007L372.043 115.543C371.824 115.336 371.574 115.147 371.294 114.976C371.025 114.806 370.745 114.671 370.453 114.574C370.16 114.476 369.898 114.428 369.666 114.428C369.459 114.428 369.27 114.446 369.099 114.482C368.941 114.519 368.807 114.574 368.697 114.647C368.587 114.72 368.502 114.818 368.441 114.94C368.392 115.049 368.368 115.171 368.368 115.305C368.368 115.439 368.398 115.567 368.459 115.689C368.533 115.811 368.63 115.915 368.752 116C368.886 116.073 369.081 116.159 369.337 116.256C369.605 116.354 369.965 116.463 370.416 116.585C371.001 116.744 371.495 116.921 371.897 117.116C372.312 117.311 372.641 117.536 372.885 117.792C373.092 118.012 373.244 118.262 373.342 118.542C373.439 118.822 373.488 119.133 373.488 119.475C373.488 120.072 373.317 120.608 372.976 121.084C372.647 121.547 372.19 121.913 371.605 122.181C371.019 122.437 370.361 122.565 369.63 122.565Z" fill="#858585"/>
<path d="M233.431 124.668H374.037V125.582H233.431V124.668Z" fill="#858585"/>
<path d="M149.979 94.3514C148.821 94.3514 147.769 94.1152 146.824 93.6428C145.895 93.1551 145.118 92.4542 144.493 91.5399L146.344 89.4827C147 90.2141 147.594 90.717 148.127 90.9913C148.661 91.2504 149.247 91.3799 149.887 91.3799C150.421 91.3799 150.901 91.2656 151.327 91.037C151.754 90.8084 152.089 90.4961 152.333 90.0999C152.577 89.7037 152.699 89.2618 152.699 88.7741C152.699 88.2713 152.577 87.8217 152.333 87.4255C152.089 87.0293 151.762 86.7169 151.35 86.4884C150.954 86.2446 150.497 86.1227 149.979 86.1227C149.643 86.1227 149.331 86.1531 149.042 86.2141C148.752 86.2598 148.432 86.3588 148.082 86.5112C147.731 86.6484 147.304 86.8541 146.802 87.1284L145.247 85.0712L146.23 78.0997H155.236V81.0483H147.967L148.813 80.0426L148.059 85.1169L146.962 84.5912C147.19 84.3779 147.502 84.1798 147.899 83.9969C148.31 83.814 148.752 83.6617 149.224 83.5398C149.712 83.4178 150.184 83.3569 150.642 83.3569C151.647 83.3569 152.539 83.5855 153.316 84.0426C154.108 84.4998 154.733 85.1398 155.19 85.9627C155.663 86.7703 155.899 87.6998 155.899 88.7513C155.899 89.8027 155.64 90.7551 155.122 91.6085C154.604 92.4466 153.895 93.1171 152.996 93.6199C152.097 94.1075 151.091 94.3514 149.979 94.3514Z" fill="#191D27"/>
<path d="M171.409 94.4199C170.418 94.4199 169.512 94.298 168.689 94.0542C167.881 93.8104 167.157 93.4523 166.517 92.9799C165.893 92.5075 165.329 91.9361 164.826 91.2656L166.975 88.8198C167.721 89.856 168.46 90.5646 169.192 90.9456C169.938 91.3113 170.746 91.4942 171.615 91.4942C172.087 91.4942 172.506 91.4332 172.872 91.3113C173.253 91.1742 173.55 90.9837 173.763 90.7399C173.977 90.4961 174.083 90.2065 174.083 89.8713C174.083 89.6275 174.03 89.4065 173.923 89.2084C173.817 88.9951 173.664 88.8122 173.466 88.6598C173.268 88.4922 173.032 88.3475 172.757 88.2255C172.483 88.0884 172.178 87.9741 171.843 87.8827C171.508 87.776 171.142 87.6922 170.746 87.6312C169.893 87.4332 169.146 87.197 168.506 86.9227C167.866 86.6331 167.333 86.2827 166.906 85.8712C166.479 85.4445 166.159 84.9645 165.946 84.4312C165.748 83.8979 165.649 83.2959 165.649 82.6255C165.649 81.9397 165.801 81.3073 166.106 80.7283C166.411 80.134 166.83 79.6235 167.363 79.1968C167.912 78.7702 168.536 78.4425 169.237 78.214C169.954 77.9854 170.708 77.8711 171.5 77.8711C172.476 77.8711 173.329 77.9854 174.06 78.214C174.792 78.4273 175.424 78.7397 175.958 79.1511C176.506 79.5625 176.963 80.0654 177.329 80.6597L175.158 82.7626C174.838 82.3359 174.487 81.9778 174.106 81.6883C173.74 81.3988 173.337 81.1854 172.895 81.0483C172.468 80.8959 172.026 80.8197 171.569 80.8197C171.066 80.8197 170.632 80.8883 170.266 81.0254C169.9 81.1473 169.611 81.3302 169.397 81.574C169.199 81.8178 169.1 82.115 169.1 82.4655C169.1 82.7397 169.169 82.9836 169.306 83.1969C169.443 83.4102 169.641 83.6007 169.9 83.7683C170.159 83.9207 170.472 84.0579 170.837 84.1798C171.203 84.3017 171.607 84.4083 172.049 84.4998C172.887 84.6674 173.641 84.8883 174.312 85.1626C174.982 85.4369 175.554 85.7722 176.026 86.1684C176.514 86.5493 176.887 87.0065 177.146 87.5398C177.405 88.0579 177.535 88.6446 177.535 89.2998C177.535 90.3818 177.276 91.3037 176.758 92.0656C176.239 92.8275 175.523 93.4142 174.609 93.8256C173.695 94.2218 172.628 94.4199 171.409 94.4199Z" fill="#191D27"/>
<path d="M181.349 94.1914V79.0368H184.594V94.1914H181.349ZM179.086 85.0026V82.0997H187.063V85.0026H179.086Z" fill="#191D27"/>
<path d="M193.593 94.4199C192.587 94.4199 191.68 94.1456 190.873 93.5971C190.065 93.0485 189.425 92.3018 188.953 91.357C188.48 90.4122 188.244 89.3303 188.244 88.1113C188.244 86.8922 188.48 85.8179 188.953 84.8883C189.44 83.9436 190.096 83.2045 190.918 82.6712C191.741 82.1226 192.679 81.8483 193.73 81.8483C194.324 81.8483 194.865 81.9397 195.353 82.1226C195.856 82.2902 196.29 82.5264 196.656 82.8312C197.037 83.1359 197.357 83.4864 197.616 83.8826C197.875 84.2788 198.058 84.7055 198.164 85.1626L197.479 85.0484V82.0997H200.701V94.1914H197.433V91.2884L198.164 91.2199C198.042 91.6466 197.844 92.0504 197.57 92.4313C197.296 92.8123 196.953 93.1551 196.541 93.4599C196.145 93.7494 195.696 93.9856 195.193 94.1685C194.69 94.3361 194.157 94.4199 193.593 94.4199ZM194.484 91.6085C195.094 91.6085 195.627 91.4637 196.084 91.1742C196.541 90.8846 196.892 90.4808 197.136 89.9627C197.395 89.4294 197.524 88.8122 197.524 88.1113C197.524 87.4255 197.395 86.8236 197.136 86.3055C196.892 85.7874 196.541 85.3836 196.084 85.0941C195.627 84.7893 195.094 84.6369 194.484 84.6369C193.89 84.6369 193.364 84.7893 192.907 85.0941C192.465 85.3836 192.115 85.7874 191.856 86.3055C191.597 86.8236 191.467 87.4255 191.467 88.1113C191.467 88.8122 191.597 89.4294 191.856 89.9627C192.115 90.4808 192.465 90.8846 192.907 91.1742C193.364 91.4637 193.89 91.6085 194.484 91.6085Z" fill="#191D27"/>
<path d="M203.956 94.1914V82.0997H207.087L207.201 85.9855L206.653 85.1855C206.836 84.5607 207.133 83.9969 207.544 83.494C207.956 82.9759 208.436 82.5721 208.984 82.2826C209.548 81.9931 210.135 81.8483 210.744 81.8483C211.003 81.8483 211.255 81.8712 211.499 81.9169C211.742 81.9626 211.948 82.0159 212.116 82.0769L211.247 85.6426C211.064 85.5512 210.843 85.475 210.584 85.4141C210.325 85.3379 210.059 85.2998 209.784 85.2998C209.419 85.2998 209.076 85.3684 208.756 85.5055C208.451 85.6274 208.184 85.8103 207.956 86.0541C207.727 86.2827 207.544 86.5569 207.407 86.877C207.285 87.197 207.224 87.5474 207.224 87.9284V94.1914H203.956Z" fill="#191D27"/>
<path d="M218.047 94.4199C216.919 94.4199 215.913 94.2371 215.03 93.8713C214.161 93.4904 213.46 92.9723 212.927 92.317L214.938 90.5799C215.411 91.0827 215.936 91.4485 216.515 91.677C217.094 91.8904 217.673 91.997 218.252 91.997C218.481 91.997 218.687 91.9742 218.87 91.9285C219.068 91.8675 219.235 91.7913 219.373 91.6999C219.51 91.5932 219.609 91.4713 219.67 91.3342C219.746 91.1818 219.784 91.0218 219.784 90.8542C219.784 90.5189 219.647 90.2522 219.373 90.0541C219.22 89.978 218.984 89.8865 218.664 89.7799C218.344 89.6579 217.932 89.5284 217.43 89.3913C216.652 89.1932 215.99 88.9646 215.441 88.7056C214.908 88.4313 214.481 88.1265 214.161 87.7913C213.887 87.4712 213.673 87.1284 213.521 86.7627C213.384 86.3817 213.315 85.9627 213.315 85.5055C213.315 84.9569 213.437 84.4617 213.681 84.0198C213.925 83.5626 214.26 83.174 214.687 82.854C215.129 82.534 215.631 82.2902 216.195 82.1226C216.759 81.9397 217.353 81.8483 217.978 81.8483C218.603 81.8483 219.213 81.9245 219.807 82.0769C220.401 82.2293 220.95 82.4502 221.453 82.7397C221.971 83.014 222.42 83.3417 222.801 83.7226L221.064 85.6426C220.79 85.3836 220.477 85.1474 220.127 84.9341C219.792 84.7207 219.441 84.5531 219.075 84.4312C218.71 84.3093 218.382 84.2483 218.092 84.2483C217.833 84.2483 217.597 84.2712 217.384 84.3169C217.186 84.3626 217.018 84.4312 216.881 84.5226C216.744 84.6141 216.637 84.736 216.561 84.8883C216.5 85.0255 216.47 85.1779 216.47 85.3455C216.47 85.5131 216.508 85.6731 216.584 85.8255C216.675 85.9779 216.797 86.1074 216.95 86.2141C217.117 86.3055 217.361 86.4122 217.681 86.5341C218.016 86.656 218.466 86.7931 219.03 86.9455C219.761 87.1436 220.378 87.3646 220.881 87.6084C221.399 87.8522 221.811 88.1341 222.115 88.4541C222.374 88.7284 222.565 89.0408 222.687 89.3913C222.809 89.7418 222.87 90.1303 222.87 90.557C222.87 91.3037 222.656 91.9742 222.23 92.5685C221.818 93.1475 221.247 93.6047 220.515 93.9399C219.784 94.2599 218.961 94.4199 218.047 94.4199Z" fill="#191D27"/>
<path d="M68.286 84.2862C68.286 75.8703 75.1084 69.0479 83.5243 69.0479H114.001C122.417 69.0479 129.239 75.8703 129.239 84.2862V114.763C129.239 123.179 122.417 130.001 114.001 130.001H83.5243C75.1084 130.001 68.286 123.179 68.286 114.763V84.2862Z" fill="#F3BD31"/>
<path d="M100.013 88.7088L102.959 94.6464L109.477 95.5839C110.638 95.7625 111.129 97.1911 110.281 98.0393L105.549 102.593L106.665 109.066C106.843 110.227 105.638 111.12 104.566 110.584L98.7627 107.548L92.9144 110.629C91.8429 111.165 90.6376 110.272 90.8161 109.111L91.9322 102.638L87.2 98.0393C86.3518 97.1911 86.8429 95.7625 88.0036 95.5839L94.5216 94.6464L97.468 88.7088C98.0038 87.6374 99.5216 87.682 100.013 88.7088Z" fill="white"/>
<defs>
<filter id="filter0_d_0_1139" x="0" y="0" width="442.863" height="199.811" filterUnits="userSpaceOnUse" color-interpolation-filters="sRGB">
<feFlood flood-opacity="0" result="BackgroundImageFix"/>
<feColorMatrix in="SourceAlpha" type="matrix" values="0 0 0 0 0 0 0 0 0 0 0 0 0 0 0 0 0 0 127 0" result="hardAlpha"/>
<feOffset/>
<feGaussianBlur stdDeviation="25"/>
<feComposite in2="hardAlpha" operator="out"/>
<feColorMatrix type="matrix" values="0 0 0 0 0 0 0 0 0 0 0 0 0 0 0 0 0 0 0.1 0"/>
<feBlend mode="normal" in2="BackgroundImageFix" result="effect1_dropShadow_0_1139"/>
<feBlend mode="normal" in="SourceGraphic" in2="effect1_dropShadow_0_1139" result="shape"/>
</filter>
</defs>
</svg>
