<svg width="381" height="249" viewBox="0 0 381 249" fill="none" xmlns="http://www.w3.org/2000/svg">
<path d="M0.327148 9.73551C0.327148 4.35874 4.68589 0 10.0627 0L370.763 0C376.14 0 380.499 4.35874 380.499 9.73552V238.52C380.499 243.897 376.14 248.256 370.763 248.256L10.0627 248.256C4.68588 248.256 0.327148 243.897 0.327148 238.52L0.327148 9.73551Z" fill="white"/>
<path d="M326.953 184.975C326.953 183.631 328.043 182.541 329.387 182.541H353.726C355.07 182.541 356.16 183.631 356.16 184.975V222.457C356.16 223.801 355.07 224.89 353.726 224.89H329.387C328.043 224.89 326.953 223.801 326.953 222.457V184.975Z" fill="#FAB8B9"/>
<path d="M292.88 162.097C292.88 160.753 293.969 159.663 295.314 159.663H319.652C320.997 159.663 322.086 160.753 322.086 162.097V222.457C322.086 223.801 320.997 224.891 319.652 224.891H295.314C293.969 224.891 292.88 223.801 292.88 222.457V162.097Z" fill="#56CAF1"/>
<path d="M258.804 117.8C258.804 116.456 259.894 115.366 261.238 115.366H285.577C286.921 115.366 288.011 116.456 288.011 117.8V222.457C288.011 223.801 286.921 224.891 285.577 224.891H261.238C259.894 224.891 258.804 223.801 258.804 222.457V117.8Z" fill="#FFD975"/>
<path d="M224.73 142.138C224.73 140.794 225.82 139.705 227.164 139.705H251.503C252.847 139.705 253.937 140.794 253.937 142.138V222.456C253.937 223.801 252.847 224.89 251.503 224.89H227.164C225.82 224.89 224.73 223.801 224.73 222.456V142.138Z" fill="#FAB8B9"/>
<path d="M190.656 190.816C190.656 189.472 191.746 188.382 193.09 188.382H217.429C218.773 188.382 219.863 189.472 219.863 190.816V222.457C219.863 223.801 218.773 224.89 217.429 224.89H193.09C191.746 224.89 190.656 223.801 190.656 222.457V190.816Z" fill="#56CAF1"/>
<path d="M156.581 201.038C156.581 199.694 157.671 198.605 159.015 198.605H183.354C184.698 198.605 185.788 199.694 185.788 201.038V222.457C185.788 223.801 184.698 224.891 183.354 224.891H159.015C157.671 224.891 156.581 223.801 156.581 222.457V201.038Z" fill="#FFD975"/>
<path d="M122.508 99.7892C122.508 98.445 123.597 97.3553 124.942 97.3553H149.28C150.625 97.3553 151.714 98.445 151.714 99.7892V222.457C151.714 223.801 150.625 224.891 149.28 224.891H124.942C123.597 224.891 122.508 223.801 122.508 222.457V99.7892Z" fill="#FAB8B9"/>
<path d="M88.4336 134.35C88.4336 133.006 89.5233 131.916 90.8675 131.916H115.206C116.55 131.916 117.64 133.006 117.64 134.35V222.457C117.64 223.801 116.55 224.89 115.206 224.89H90.8675C89.5233 224.89 88.4336 223.801 88.4336 222.457V134.35Z" fill="#56CAF1"/>
<path d="M54.3584 168.911C54.3584 167.567 55.4481 166.477 56.7923 166.477H81.1311C82.4753 166.477 83.5649 167.567 83.5649 168.911V222.457C83.5649 223.801 82.4753 224.891 81.1311 224.891H56.7923C55.4481 224.891 54.3584 223.801 54.3584 222.457V168.911Z" fill="#FFD975"/>
<path d="M25.1533 222.944V222.019H25.5525C25.8965 222.019 26.1691 221.918 26.3703 221.717C26.5715 221.509 26.6721 221.23 26.6721 220.88V215.691H27.6359V220.86C27.6359 221.282 27.5483 221.649 27.373 221.96C27.2043 222.272 26.9641 222.515 26.6526 222.69C26.3411 222.859 25.9743 222.944 25.5525 222.944H25.1533Z" fill="#A9A9A9"/>
<path d="M30.6611 223.06C30.3171 223.06 30.0121 222.999 29.746 222.875C29.4864 222.746 29.2819 222.57 29.1326 222.35C28.9834 222.122 28.9087 221.863 28.9087 221.571C28.9087 221.292 28.9671 221.042 29.084 220.821C29.2073 220.594 29.3955 220.403 29.6486 220.247C29.9082 220.091 30.2327 219.981 30.6222 219.916L32.5693 219.594V220.354L30.8266 220.646C30.4891 220.704 30.2425 220.811 30.0867 220.967C29.9374 221.123 29.8628 221.314 29.8628 221.542C29.8628 221.756 29.9472 221.934 30.1159 222.077C30.2912 222.22 30.5086 222.291 30.7682 222.291C31.0992 222.291 31.3848 222.223 31.6249 222.087C31.8716 221.944 32.063 221.753 32.1993 221.512C32.3421 221.272 32.4135 221.006 32.4135 220.714V219.38C32.4135 219.095 32.3064 218.864 32.0922 218.689C31.8845 218.507 31.6087 218.416 31.2647 218.416C30.9662 218.416 30.7001 218.494 30.4664 218.65C30.2392 218.799 30.0705 219.001 29.9602 219.254L29.1716 218.845C29.2689 218.605 29.4247 218.391 29.6389 218.202C29.8531 218.008 30.1029 217.855 30.3885 217.745C30.6741 217.634 30.9726 217.579 31.2842 217.579C31.6866 217.579 32.0403 217.657 32.3454 217.813C32.6504 217.962 32.8873 218.173 33.056 218.446C33.2313 218.712 33.3189 219.023 33.3189 219.38V222.944H32.433V221.95L32.5985 222.009C32.4881 222.217 32.3389 222.398 32.1506 222.554C31.9624 222.71 31.7418 222.833 31.4886 222.924C31.2355 223.015 30.9597 223.06 30.6611 223.06Z" fill="#A9A9A9"/>
<path d="M34.7227 222.944V217.696H35.6087V218.718L35.4626 218.631C35.5924 218.3 35.8001 218.043 36.0857 217.862C36.3778 217.673 36.7185 217.579 37.1079 217.579C37.4844 217.579 37.8186 217.664 38.1107 217.832C38.4092 218.001 38.6429 218.235 38.8116 218.533C38.9869 218.832 39.0745 219.169 39.0745 219.546V222.944H38.1594V219.838C38.1594 219.546 38.1074 219.299 38.0036 219.098C37.8997 218.897 37.7505 218.741 37.5558 218.631C37.3675 218.514 37.1501 218.455 36.9035 218.455C36.6568 218.455 36.4362 218.514 36.2415 218.631C36.0532 218.741 35.904 218.9 35.7936 219.108C35.6833 219.309 35.6281 219.552 35.6281 219.838V222.944H34.7227Z" fill="#A9A9A9"/>
<path d="M25.4749 198.605V191.352H30.07V192.228H26.4289V194.574H29.7293V195.45H26.4289V198.605H25.4749Z" fill="#A9A9A9"/>
<path d="M32.3157 198.722C31.9717 198.722 31.6666 198.66 31.4005 198.537C31.1409 198.407 30.9365 198.232 30.7872 198.011C30.6379 197.784 30.5633 197.524 30.5633 197.232C30.5633 196.953 30.6217 196.703 30.7385 196.482C30.8618 196.255 31.05 196.064 31.3032 195.908C31.5628 195.752 31.8873 195.642 32.2767 195.577L34.2238 195.256V196.015L32.4812 196.307C32.1437 196.366 31.897 196.473 31.7413 196.628C31.592 196.784 31.5173 196.976 31.5173 197.203C31.5173 197.417 31.6017 197.596 31.7705 197.738C31.9457 197.881 32.1631 197.952 32.4227 197.952C32.7537 197.952 33.0393 197.884 33.2795 197.748C33.5261 197.605 33.7176 197.414 33.8539 197.174C33.9966 196.934 34.068 196.667 34.068 196.375V195.042C34.068 194.756 33.961 194.526 33.7468 194.35C33.5391 194.169 33.2632 194.078 32.9193 194.078C32.6207 194.078 32.3546 194.156 32.1209 194.311C31.8938 194.461 31.725 194.662 31.6147 194.915L30.8261 194.506C30.9235 194.266 31.0792 194.052 31.2934 193.864C31.5076 193.669 31.7575 193.516 32.0431 193.406C32.3286 193.296 32.6272 193.241 32.9387 193.241C33.3411 193.241 33.6948 193.318 33.9999 193.474C34.3049 193.623 34.5418 193.834 34.7106 194.107C34.8858 194.373 34.9734 194.685 34.9734 195.042V198.605H34.0875V197.612L34.253 197.67C34.1427 197.878 33.9934 198.06 33.8052 198.215C33.617 198.371 33.3963 198.494 33.1432 198.585C32.89 198.676 32.6142 198.722 32.3157 198.722Z" fill="#A9A9A9"/>
<path d="M39.0935 198.722C38.6716 198.722 38.2854 198.627 37.9349 198.439C37.591 198.251 37.3249 197.985 37.1366 197.641L37.2632 197.485V198.605H36.3773V191.235H37.2827V194.487L37.1464 194.263C37.3411 193.951 37.6072 193.705 37.9447 193.523C38.2822 193.335 38.6684 193.241 39.1032 193.241C39.5965 193.241 40.0378 193.361 40.4272 193.601C40.8231 193.841 41.1347 194.169 41.3618 194.584C41.589 194.993 41.7026 195.46 41.7026 195.986C41.7026 196.499 41.589 196.963 41.3618 197.378C41.1347 197.793 40.8231 198.121 40.4272 198.361C40.0378 198.602 39.5932 198.722 39.0935 198.722ZM39.0253 197.845C39.3563 197.845 39.6516 197.764 39.9113 197.602C40.1709 197.44 40.3721 197.219 40.5149 196.94C40.6641 196.654 40.7388 196.336 40.7388 195.986C40.7388 195.622 40.6641 195.304 40.5149 195.032C40.3721 194.753 40.1709 194.532 39.9113 194.37C39.6516 194.201 39.3563 194.117 39.0253 194.117C38.6943 194.117 38.3958 194.198 38.1297 194.36C37.87 194.522 37.6623 194.746 37.5066 195.032C37.3573 195.311 37.2827 195.629 37.2827 195.986C37.2827 196.336 37.3573 196.654 37.5066 196.94C37.6623 197.219 37.87 197.44 38.1297 197.602C38.3958 197.764 38.6943 197.845 39.0253 197.845Z" fill="#A9A9A9"/>
<path d="M25.4746 174.266V167.013H26.3508L29.067 170.878H28.6192L31.3159 167.013H32.1921V174.266H31.2283V168.22L31.569 168.327L28.8723 172.124H28.7944L26.1269 168.327L26.4287 168.22V174.266H25.4746Z" fill="#A9A9A9"/>
<path d="M35.2342 174.383C34.8902 174.383 34.5851 174.321 34.319 174.198C34.0594 174.068 33.855 173.893 33.7057 173.672C33.5564 173.445 33.4818 173.185 33.4818 172.893C33.4818 172.614 33.5402 172.364 33.657 172.144C33.7803 171.917 33.9685 171.725 34.2217 171.569C34.4813 171.414 34.8058 171.303 35.1952 171.238L37.1423 170.917V171.676L35.3997 171.968C35.0622 172.027 34.8155 172.134 34.6598 172.29C34.5105 172.445 34.4358 172.637 34.4358 172.864C34.4358 173.078 34.5202 173.257 34.689 173.4C34.8642 173.542 35.0816 173.614 35.3413 173.614C35.6723 173.614 35.9578 173.546 36.198 173.409C36.4446 173.267 36.6361 173.075 36.7724 172.835C36.9152 172.595 36.9866 172.329 36.9866 172.037V170.703C36.9866 170.417 36.8795 170.187 36.6653 170.012C36.4576 169.83 36.1818 169.739 35.8378 169.739C35.5392 169.739 35.2731 169.817 35.0394 169.973C34.8123 170.122 34.6435 170.323 34.5332 170.576L33.7446 170.167C33.842 169.927 33.9977 169.713 34.2119 169.525C34.4261 169.33 34.676 169.178 34.9616 169.067C35.2471 168.957 35.5457 168.902 35.8572 168.902C36.2596 168.902 36.6134 168.98 36.9184 169.135C37.2235 169.285 37.4603 169.496 37.6291 169.768C37.8043 170.034 37.892 170.346 37.892 170.703V174.266H37.006V173.273L37.1715 173.331C37.0612 173.539 36.9119 173.721 36.7237 173.877C36.5355 174.032 36.3148 174.156 36.0617 174.247C35.8086 174.337 35.5327 174.383 35.2342 174.383Z" fill="#A9A9A9"/>
<path d="M39.2958 174.266V169.019H40.1817V169.982L40.0843 169.846C40.2077 169.548 40.3959 169.327 40.649 169.184C40.9021 169.035 41.2104 168.96 41.5739 168.96H41.8952V169.817H41.4376C41.0676 169.817 40.7691 169.934 40.5419 170.167C40.3148 170.395 40.2012 170.719 40.2012 171.141V174.266H39.2958Z" fill="#A9A9A9"/>
<path d="M24.7737 149.927L27.3731 142.674H28.5024L31.1018 149.927H30.0795L29.4857 148.224H26.3898L25.7959 149.927H24.7737ZM26.6916 147.347H29.1839L27.8014 143.366H28.074L26.6916 147.347Z" fill="#A9A9A9"/>
<path d="M31.9086 151.874V144.68H32.7945V145.809L32.6777 145.585C32.8724 145.274 33.1385 145.027 33.476 144.845C33.8135 144.657 34.1997 144.563 34.6345 144.563C35.1278 144.563 35.5692 144.683 35.9586 144.923C36.3545 145.163 36.666 145.491 36.8932 145.907C37.1203 146.315 37.2339 146.783 37.2339 147.308C37.2339 147.821 37.1203 148.285 36.8932 148.701C36.666 149.116 36.3545 149.444 35.9586 149.684C35.5692 149.924 35.1246 150.044 34.6248 150.044C34.2029 150.044 33.8168 149.95 33.4663 149.762C33.1223 149.574 32.8562 149.307 32.668 148.963L32.814 148.808V151.874H31.9086ZM34.5567 149.168C34.8877 149.168 35.183 149.087 35.4426 148.925C35.7022 148.762 35.9034 148.542 36.0462 148.263C36.1955 147.977 36.2701 147.659 36.2701 147.308C36.2701 146.945 36.1955 146.627 36.0462 146.354C35.9034 146.075 35.7022 145.855 35.4426 145.692C35.183 145.524 34.8877 145.439 34.5567 145.439C34.2257 145.439 33.9271 145.52 33.661 145.683C33.4014 145.845 33.1937 146.069 33.0379 146.354C32.8886 146.633 32.814 146.951 32.814 147.308C32.814 147.659 32.8886 147.977 33.0379 148.263C33.1937 148.542 33.4014 148.762 33.661 148.925C33.9271 149.087 34.2257 149.168 34.5567 149.168Z" fill="#A9A9A9"/>
<path d="M38.4211 149.927V144.68H39.3071V145.644L39.2097 145.507C39.333 145.209 39.5212 144.988 39.7744 144.845C40.0275 144.696 40.3358 144.621 40.6992 144.621H41.0205V145.478H40.5629C40.193 145.478 39.8944 145.595 39.6673 145.829C39.4401 146.056 39.3265 146.38 39.3265 146.802V149.927H38.4211Z" fill="#A9A9A9"/>
<path d="M25.4744 125.588V118.335H26.3506L29.0668 122.2H28.6189L31.3157 118.335H32.1919V125.588H31.2281V119.543L31.5688 119.65L28.8721 123.447H28.7942L26.1266 119.65L26.4284 119.543V125.588H25.4744Z" fill="#A9A9A9"/>
<path d="M35.2339 125.705C34.8899 125.705 34.5849 125.644 34.3188 125.52C34.0592 125.39 33.8547 125.215 33.7054 124.995C33.5562 124.767 33.4815 124.508 33.4815 124.216C33.4815 123.937 33.5399 123.687 33.6568 123.466C33.7801 123.239 33.9683 123.047 34.2214 122.892C34.481 122.736 34.8056 122.626 35.195 122.561L37.1421 122.239V122.999L35.3994 123.291C35.0619 123.349 34.8153 123.456 34.6595 123.612C34.5102 123.768 34.4356 123.959 34.4356 124.186C34.4356 124.401 34.52 124.579 34.6887 124.722C34.864 124.865 35.0814 124.936 35.341 124.936C35.672 124.936 35.9576 124.868 36.1977 124.732C36.4444 124.589 36.6358 124.397 36.7721 124.157C36.9149 123.917 36.9863 123.651 36.9863 123.359V122.025C36.9863 121.74 36.8792 121.509 36.665 121.334C36.4573 121.152 36.1815 121.061 35.8375 121.061C35.539 121.061 35.2729 121.139 35.0392 121.295C34.812 121.444 34.6433 121.646 34.533 121.899L33.7444 121.49C33.8417 121.25 33.9975 121.035 34.2117 120.847C34.4259 120.653 34.6757 120.5 34.9613 120.39C35.2469 120.279 35.5455 120.224 35.857 120.224C36.2594 120.224 36.6131 120.302 36.9182 120.458C37.2232 120.607 37.4601 120.818 37.6289 121.091C37.8041 121.357 37.8917 121.668 37.8917 122.025V125.588H37.0058V124.595L37.1713 124.654C37.0609 124.861 36.9117 125.043 36.7234 125.199C36.5352 125.355 36.3146 125.478 36.0614 125.569C35.8083 125.66 35.5325 125.705 35.2339 125.705Z" fill="#A9A9A9"/>
<path d="M39.5779 127.73C39.461 127.73 39.3442 127.72 39.2274 127.701C39.1106 127.688 39.0002 127.659 38.8964 127.613V126.805C38.9678 126.812 39.0554 126.825 39.1592 126.844C39.2696 126.864 39.3767 126.873 39.4805 126.873C39.7855 126.873 40.016 126.805 40.1717 126.669C40.334 126.533 40.4865 126.302 40.6293 125.978L40.9603 125.189L40.9408 125.978L38.7017 120.341H39.6849L41.4276 124.819H41.1355L42.8685 120.341H43.8712L41.5055 126.211C41.3952 126.491 41.2524 126.747 41.0771 126.981C40.9084 127.214 40.7007 127.396 40.4541 127.526C40.2074 127.662 39.9154 127.73 39.5779 127.73Z" fill="#A9A9A9"/>
<path d="M25.1533 101.25V100.325H25.5525C25.8965 100.325 26.1691 100.224 26.3703 100.023C26.5715 99.8153 26.6721 99.5362 26.6721 99.1857V93.9967H27.6359V99.1663C27.6359 99.5881 27.5483 99.9548 27.373 100.266C27.2043 100.578 26.9641 100.821 26.6526 100.997C26.3411 101.165 25.9743 101.25 25.5525 101.25H25.1533Z" fill="#A9A9A9"/>
<path d="M30.9824 101.366C30.6059 101.366 30.2652 101.279 29.9602 101.104C29.6616 100.928 29.4279 100.685 29.2592 100.373C29.0969 100.055 29.0158 99.692 29.0158 99.2831V96.0022H29.9212V99.1857C29.9212 99.4453 29.9731 99.6725 30.077 99.8672C30.1873 100.062 30.3366 100.214 30.5248 100.325C30.7195 100.435 30.9402 100.49 31.1868 100.49C31.4335 100.49 31.6509 100.435 31.8391 100.325C32.0338 100.214 32.1831 100.055 32.2869 99.8477C32.3973 99.6401 32.4524 99.3934 32.4524 99.1079V96.0022H33.3676V101.25H32.4817V100.227L32.6277 100.315C32.5044 100.646 32.2934 100.906 31.9949 101.094C31.7028 101.276 31.3653 101.366 30.9824 101.366Z" fill="#A9A9A9"/>
<path d="M34.7703 101.25V96.0022H35.6562V97.0245L35.5102 96.9368C35.64 96.6058 35.8477 96.3495 36.1332 96.1677C36.4253 95.9795 36.766 95.8854 37.1555 95.8854C37.5319 95.8854 37.8662 95.9698 38.1582 96.1385C38.4568 96.3073 38.6904 96.5409 38.8592 96.8395C39.0344 97.138 39.122 97.4755 39.122 97.852V101.25H38.2069V98.144C38.2069 97.852 38.155 97.6053 38.0511 97.4041C37.9473 97.2029 37.798 97.0472 37.6033 96.9368C37.4151 96.82 37.1976 96.7616 36.951 96.7616C36.7044 96.7616 36.4837 96.82 36.289 96.9368C36.1008 97.0472 35.9515 97.2062 35.8412 97.4139C35.7308 97.6151 35.6757 97.8585 35.6757 98.144V101.25H34.7703Z" fill="#A9A9A9"/>
<path d="M161.227 72.0435V64.7905H163.865C164.352 64.7905 164.781 64.8814 165.15 65.0631C165.527 65.2384 165.819 65.498 166.027 65.842C166.234 66.1795 166.338 66.5851 166.338 67.0589C166.338 67.5262 166.231 67.9286 166.017 68.2661C165.809 68.6036 165.52 68.8632 165.15 69.0449C164.781 69.2267 164.352 69.3175 163.865 69.3175H162.376V72.0435H161.227ZM162.376 68.2953H163.895C164.154 68.2953 164.381 68.2434 164.576 68.1395C164.771 68.0357 164.923 67.8929 165.034 67.7112C165.144 67.523 165.199 67.3023 165.199 67.0492C165.199 66.796 165.144 66.5786 165.034 66.3969C164.923 66.2087 164.771 66.0659 164.576 65.9685C164.381 65.8647 164.154 65.8128 163.895 65.8128H162.376V68.2953Z" fill="#122428"/>
<path d="M167.414 72.0435V66.7766H168.465V67.8377L168.368 67.682C168.485 67.338 168.673 67.0914 168.933 66.9421C169.192 66.7863 169.504 66.7084 169.867 66.7084H170.188V67.7112H169.731C169.367 67.7112 169.072 67.8248 168.845 68.0519C168.624 68.2726 168.514 68.5906 168.514 69.006V72.0435H167.414Z" fill="#122428"/>
<path d="M173.482 72.1603C172.976 72.1603 172.512 72.0402 172.09 71.8001C171.674 71.56 171.343 71.2322 171.097 70.8168C170.85 70.4014 170.727 69.9309 170.727 69.4052C170.727 68.873 170.85 68.4024 171.097 67.9935C171.343 67.5781 171.674 67.2536 172.09 67.02C172.505 66.7798 172.969 66.6597 173.482 66.6597C174.001 66.6597 174.465 66.7798 174.874 67.02C175.29 67.2536 175.617 67.5781 175.857 67.9935C176.104 68.4024 176.227 68.873 176.227 69.4052C176.227 69.9374 176.104 70.4112 175.857 70.8265C175.611 71.2419 175.28 71.5697 174.864 71.8098C174.449 72.0435 173.988 72.1603 173.482 72.1603ZM173.482 71.1381C173.794 71.1381 174.069 71.0634 174.31 70.9142C174.55 70.7649 174.738 70.5604 174.874 70.3008C175.017 70.0347 175.088 69.7362 175.088 69.4052C175.088 69.0742 175.017 68.7788 174.874 68.5192C174.738 68.2596 174.55 68.0552 174.31 67.9059C174.069 67.7566 173.794 67.682 173.482 67.682C173.177 67.682 172.901 67.7566 172.654 67.9059C172.414 68.0552 172.223 68.2596 172.08 68.5192C171.944 68.7788 171.876 69.0742 171.876 69.4052C171.876 69.7362 171.944 70.0347 172.08 70.3008C172.223 70.5604 172.414 70.7649 172.654 70.9142C172.901 71.0634 173.177 71.1381 173.482 71.1381Z" fill="#122428"/>
<path d="M179.803 72.1603C179.278 72.1603 178.81 72.0402 178.402 71.8001C177.999 71.5535 177.678 71.2225 177.438 70.8071C177.204 70.3917 177.087 69.9211 177.087 69.3954C177.087 68.8762 177.204 68.4089 177.438 67.9935C177.671 67.5781 177.993 67.2536 178.402 67.02C178.81 66.7798 179.278 66.6597 179.803 66.6597C180.16 66.6597 180.495 66.7247 180.806 66.8545C181.118 66.9778 181.387 67.1498 181.614 67.3704C181.848 67.5911 182.02 67.8475 182.13 68.1395L181.166 68.5874C181.056 68.3148 180.878 68.0974 180.631 67.9351C180.391 67.7664 180.115 67.682 179.803 67.682C179.505 67.682 179.236 67.7566 178.995 67.9059C178.762 68.0487 178.577 68.2531 178.441 68.5192C178.304 68.7788 178.236 69.0742 178.236 69.4052C178.236 69.7362 178.304 70.0347 178.441 70.3008C178.577 70.5604 178.762 70.7649 178.995 70.9142C179.236 71.0634 179.505 71.1381 179.803 71.1381C180.122 71.1381 180.397 71.057 180.631 70.8947C180.871 70.7259 181.05 70.502 181.166 70.2229L182.13 70.6805C182.026 70.9596 181.858 71.2127 181.624 71.4399C181.397 71.6606 181.128 71.8358 180.816 71.9656C180.504 72.0954 180.167 72.1603 179.803 72.1603Z" fill="#122428"/>
<path d="M185.678 72.1603C185.153 72.1603 184.685 72.0402 184.276 71.8001C183.874 71.5535 183.559 71.2225 183.332 70.8071C183.105 70.3852 182.991 69.9147 182.991 69.3954C182.991 68.8632 183.105 68.3927 183.332 67.9838C183.566 67.5749 183.877 67.2536 184.267 67.02C184.656 66.7798 185.097 66.6597 185.591 66.6597C185.987 66.6597 186.34 66.7279 186.652 66.8642C186.963 67.0005 187.226 67.1887 187.44 67.4289C187.655 67.6625 187.817 67.9319 187.927 68.2369C188.044 68.5419 188.102 68.8665 188.102 69.2105C188.102 69.2948 188.099 69.3824 188.093 69.4733C188.086 69.5642 188.073 69.6486 188.054 69.7264H183.858V68.8502H187.431L186.905 69.2494C186.97 68.9314 186.947 68.649 186.837 68.4024C186.733 68.1493 186.571 67.9513 186.35 67.8085C186.136 67.6593 185.883 67.5846 185.591 67.5846C185.299 67.5846 185.039 67.6593 184.812 67.8085C184.585 67.9513 184.409 68.159 184.286 68.4316C184.163 68.6977 184.114 69.0222 184.14 69.4052C184.108 69.7621 184.156 70.0737 184.286 70.3398C184.422 70.6059 184.611 70.8136 184.851 70.9628C185.097 71.1121 185.377 71.1868 185.688 71.1868C186.006 71.1868 186.275 71.1154 186.496 70.9726C186.723 70.8298 186.902 70.6448 187.032 70.4177L187.927 70.8558C187.823 71.1024 187.661 71.3263 187.44 71.5275C187.226 71.7222 186.967 71.878 186.662 71.9948C186.363 72.1051 186.035 72.1603 185.678 72.1603Z" fill="#122428"/>
<path d="M191.123 72.1603C190.585 72.1603 190.111 72.0273 189.702 71.7612C189.299 71.4951 189.017 71.1381 188.855 70.6903L189.702 70.2911C189.845 70.5897 190.039 70.8265 190.286 71.0018C190.539 71.177 190.818 71.2646 191.123 71.2646C191.383 71.2646 191.594 71.2062 191.756 71.0894C191.918 70.9726 191.999 70.8136 191.999 70.6124C191.999 70.4826 191.964 70.3787 191.892 70.3008C191.821 70.2165 191.73 70.1483 191.62 70.0964C191.516 70.0445 191.409 70.0055 191.298 69.9796L190.471 69.7459C190.017 69.6161 189.676 69.4214 189.449 69.1618C189.228 68.8957 189.118 68.5874 189.118 68.2369C189.118 67.9189 189.199 67.643 189.361 67.4094C189.523 67.1692 189.747 66.9843 190.033 66.8545C190.318 66.7247 190.64 66.6597 190.997 66.6597C191.477 66.6597 191.905 66.7798 192.282 67.02C192.658 67.2536 192.924 67.5814 193.08 68.0032L192.233 68.4024C192.129 68.1493 191.964 67.9481 191.737 67.7988C191.516 67.6495 191.266 67.5749 190.987 67.5749C190.747 67.5749 190.555 67.6333 190.413 67.7501C190.27 67.8605 190.198 68.0065 190.198 68.1882C190.198 68.3115 190.231 68.4154 190.296 68.4998C190.361 68.5776 190.445 68.6425 190.549 68.6945C190.653 68.7399 190.76 68.7788 190.87 68.8113L191.727 69.0644C192.162 69.1877 192.496 69.3824 192.73 69.6486C192.963 69.9082 193.08 70.2197 193.08 70.5832C193.08 70.8947 192.996 71.1705 192.827 71.4107C192.665 71.6443 192.438 71.8293 192.145 71.9656C191.853 72.0954 191.513 72.1603 191.123 72.1603Z" fill="#122428"/>
<path d="M196.105 72.1603C195.566 72.1603 195.093 72.0273 194.684 71.7612C194.281 71.4951 193.999 71.1381 193.837 70.6903L194.684 70.2911C194.826 70.5897 195.021 70.8265 195.268 71.0018C195.521 71.177 195.8 71.2646 196.105 71.2646C196.365 71.2646 196.576 71.2062 196.738 71.0894C196.9 70.9726 196.981 70.8136 196.981 70.6124C196.981 70.4826 196.946 70.3787 196.874 70.3008C196.803 70.2165 196.712 70.1483 196.602 70.0964C196.498 70.0445 196.391 70.0055 196.28 69.9796L195.453 69.7459C194.998 69.6161 194.658 69.4214 194.431 69.1618C194.21 68.8957 194.1 68.5874 194.1 68.2369C194.1 67.9189 194.181 67.643 194.343 67.4094C194.505 67.1692 194.729 66.9843 195.015 66.8545C195.3 66.7247 195.622 66.6597 195.979 66.6597C196.459 66.6597 196.887 66.7798 197.264 67.02C197.64 67.2536 197.906 67.5814 198.062 68.0032L197.215 68.4024C197.111 68.1493 196.946 67.9481 196.718 67.7988C196.498 67.6495 196.248 67.5749 195.969 67.5749C195.729 67.5749 195.537 67.6333 195.394 67.7501C195.252 67.8605 195.18 68.0065 195.18 68.1882C195.18 68.3115 195.213 68.4154 195.278 68.4998C195.342 68.5776 195.427 68.6425 195.531 68.6945C195.635 68.7399 195.742 68.7788 195.852 68.8113L196.709 69.0644C197.144 69.1877 197.478 69.3824 197.711 69.6486C197.945 69.9082 198.062 70.2197 198.062 70.5832C198.062 70.8947 197.978 71.1705 197.809 71.4107C197.647 71.6443 197.419 71.8293 197.127 71.9656C196.835 72.0954 196.494 72.1603 196.105 72.1603Z" fill="#122428"/>
<path d="M155.61 67.9057C155.61 69.922 153.975 71.5565 151.959 71.5565C149.943 71.5565 148.308 69.922 148.308 67.9057C148.308 65.8894 149.943 64.2549 151.959 64.2549C153.975 64.2549 155.61 65.8894 155.61 67.9057Z" fill="#FAB8B9"/>
<path d="M106.815 72.1601C106.361 72.1601 105.939 72.0757 105.55 71.9069C105.16 71.7317 104.829 71.4948 104.556 71.1963C104.284 70.8977 104.083 70.5537 103.953 70.1643L104.926 69.7554C105.102 70.2032 105.358 70.5472 105.696 70.7874C106.033 71.0275 106.422 71.1476 106.864 71.1476C107.123 71.1476 107.351 71.1086 107.545 71.0308C107.74 70.9464 107.889 70.8296 107.993 70.6803C108.103 70.531 108.159 70.359 108.159 70.1643C108.159 69.8982 108.084 69.6873 107.935 69.5315C107.785 69.3757 107.565 69.2524 107.273 69.1615L105.91 68.7332C105.365 68.5644 104.949 68.3081 104.664 67.9641C104.378 67.6136 104.235 67.2047 104.235 66.7374C104.235 66.3285 104.336 65.9715 104.537 65.6665C104.738 65.3549 105.014 65.1116 105.365 64.9363C105.721 64.7611 106.127 64.6735 106.581 64.6735C107.016 64.6735 107.412 64.7513 107.769 64.9071C108.126 65.0564 108.431 65.2641 108.684 65.5302C108.944 65.7963 109.132 66.1046 109.249 66.4551L108.295 66.8737C108.152 66.4908 107.928 66.1954 107.623 65.9878C107.325 65.7801 106.977 65.6762 106.581 65.6762C106.341 65.6762 106.13 65.7184 105.949 65.8028C105.767 65.8807 105.624 65.9975 105.52 66.1533C105.423 66.3025 105.374 66.4778 105.374 66.679C105.374 66.9126 105.449 67.1203 105.598 67.3021C105.747 67.4838 105.975 67.6201 106.28 67.7109L107.545 68.1101C108.123 68.2853 108.558 68.5385 108.85 68.8695C109.142 69.194 109.288 69.5996 109.288 70.0864C109.288 70.4888 109.181 70.8458 108.967 71.1573C108.759 71.4689 108.47 71.7155 108.1 71.8972C107.73 72.0725 107.302 72.1601 106.815 72.1601Z" fill="#122428"/>
<path d="M111.953 72.1601C111.596 72.1601 111.281 72.0984 111.008 71.9751C110.742 71.8453 110.534 71.6701 110.385 71.4494C110.236 71.2222 110.161 70.9561 110.161 70.6511C110.161 70.3655 110.223 70.1091 110.346 69.882C110.476 69.6548 110.674 69.4633 110.94 69.3076C111.206 69.1518 111.54 69.0415 111.943 68.9766L113.773 68.6748V69.5412L112.157 69.8235C111.865 69.8755 111.651 69.9696 111.514 70.1059C111.378 70.2357 111.31 70.4044 111.31 70.6121C111.31 70.8133 111.385 70.9788 111.534 71.1086C111.69 71.232 111.888 71.2936 112.128 71.2936C112.426 71.2936 112.686 71.2287 112.907 71.0989C113.134 70.9691 113.309 70.7971 113.432 70.5829C113.556 70.3622 113.617 70.1189 113.617 69.8528V68.4995C113.617 68.2399 113.52 68.029 113.325 67.8667C113.137 67.698 112.884 67.6136 112.566 67.6136C112.274 67.6136 112.017 67.6915 111.797 67.8472C111.583 67.9965 111.424 68.1912 111.32 68.4314L110.405 67.9738C110.502 67.7142 110.661 67.487 110.882 67.2923C111.102 67.0911 111.359 66.9353 111.651 66.825C111.949 66.7147 112.264 66.6595 112.595 66.6595C113.01 66.6595 113.377 66.7374 113.695 66.8932C114.02 67.0489 114.27 67.2664 114.445 67.5454C114.627 67.818 114.717 68.1361 114.717 68.4995V72.0432H113.666V71.0892L113.89 71.1184C113.767 71.3326 113.608 71.5175 113.413 71.6733C113.225 71.8291 113.007 71.9491 112.761 72.0335C112.52 72.1179 112.251 72.1601 111.953 72.1601Z" fill="#122428"/>
<path d="M116.004 72.0432V64.6735H117.104V72.0432H116.004Z" fill="#122428"/>
<path d="M120.863 72.1601C120.337 72.1601 119.87 72.04 119.461 71.7999C119.059 71.5532 118.744 71.2222 118.517 70.8068C118.289 70.385 118.176 69.9144 118.176 69.3952C118.176 68.863 118.289 68.3924 118.517 67.9835C118.75 67.5746 119.062 67.2534 119.451 67.0197C119.841 66.7796 120.282 66.6595 120.775 66.6595C121.171 66.6595 121.525 66.7277 121.836 66.864C122.148 67.0002 122.411 67.1885 122.625 67.4286C122.839 67.6623 123.001 67.9316 123.112 68.2367C123.229 68.5417 123.287 68.8662 123.287 69.2102C123.287 69.2946 123.284 69.3822 123.277 69.4731C123.271 69.5639 123.258 69.6483 123.238 69.7262H119.042V68.85H122.615L122.09 69.2492C122.154 68.9311 122.132 68.6488 122.021 68.4022C121.918 68.149 121.755 67.9511 121.535 67.8083C121.32 67.659 121.067 67.5844 120.775 67.5844C120.483 67.5844 120.224 67.659 119.996 67.8083C119.769 67.9511 119.594 68.1588 119.471 68.4314C119.347 68.6975 119.299 69.022 119.325 69.4049C119.292 69.7619 119.341 70.0734 119.471 70.3395C119.607 70.6056 119.795 70.8133 120.035 70.9626C120.282 71.1119 120.561 71.1865 120.873 71.1865C121.191 71.1865 121.46 71.1151 121.681 70.9723C121.908 70.8296 122.086 70.6446 122.216 70.4174L123.112 70.8555C123.008 71.1021 122.846 71.3261 122.625 71.5273C122.411 71.722 122.151 71.8777 121.846 71.9946C121.548 72.1049 121.22 72.1601 120.863 72.1601Z" fill="#122428"/>
<path d="M98.6561 67.9057C98.6561 69.922 97.0216 71.5565 95.0053 71.5565C92.989 71.5565 91.3545 69.922 91.3545 67.9057C91.3545 65.8894 92.989 64.2549 95.0053 64.2549C97.0216 64.2549 98.6561 65.8894 98.6561 67.9057Z" fill="#56CAF1"/>
<path d="M38.9394 72.0434L36.9436 64.7904H38.1605L39.7766 71.0698H39.4748L41.1493 64.7904H42.3468L44.0213 71.0698H43.7098L45.3356 64.7904H46.5428L44.5568 72.0434H43.262L41.5777 65.8613H41.9185L40.2245 72.0434H38.9394Z" fill="#122428"/>
<path d="M49.4893 72.1602C48.9831 72.1602 48.519 72.0401 48.0972 71.8C47.6818 71.5598 47.3508 71.2321 47.1041 70.8167C46.8575 70.4013 46.7342 69.9308 46.7342 69.405C46.7342 68.8728 46.8575 68.4023 47.1041 67.9934C47.3508 67.578 47.6818 67.2535 48.0972 67.0198C48.5125 66.7797 48.9766 66.6596 49.4893 66.6596C50.0086 66.6596 50.4726 66.7797 50.8815 67.0198C51.2969 67.2535 51.6247 67.578 51.8648 67.9934C52.1114 68.4023 52.2348 68.8728 52.2348 69.405C52.2348 69.9373 52.1114 70.411 51.8648 70.8264C51.6182 71.2418 51.2872 71.5696 50.8718 71.8097C50.4564 72.0434 49.9956 72.1602 49.4893 72.1602ZM49.4893 71.138C49.8009 71.138 50.0767 71.0633 50.3169 70.914C50.557 70.7648 50.7452 70.5603 50.8815 70.3007C51.0243 70.0346 51.0957 69.7361 51.0957 69.405C51.0957 69.074 51.0243 68.7787 50.8815 68.5191C50.7452 68.2595 50.557 68.0551 50.3169 67.9058C50.0767 67.7565 49.8009 67.6819 49.4893 67.6819C49.1843 67.6819 48.9085 67.7565 48.6618 67.9058C48.4217 68.0551 48.2302 68.2595 48.0874 68.5191C47.9511 68.7787 47.883 69.074 47.883 69.405C47.883 69.7361 47.9511 70.0346 48.0874 70.3007C48.2302 70.5603 48.4217 70.7648 48.6618 70.914C48.9085 71.0633 49.1843 71.138 49.4893 71.138Z" fill="#122428"/>
<path d="M53.3088 72.0434V66.7765H54.3602V67.8376L54.2629 67.6819C54.3797 67.3379 54.5679 67.0912 54.8275 66.942C55.0871 66.7862 55.3987 66.7083 55.7621 66.7083H56.0834V67.7111H55.6258C55.2624 67.7111 54.9671 67.8246 54.7399 68.0518C54.5192 68.2725 54.4089 68.5905 54.4089 69.0059V72.0434H53.3088Z" fill="#122428"/>
<path d="M56.836 72.0434V64.6736H57.9361V69.6095L57.5078 69.5024L60.1461 66.7765H61.5188L59.5327 68.8891L61.6064 72.0434H60.3408L58.491 69.2493L59.1433 69.1617L57.5856 70.8167L57.9361 70.0865V72.0434H56.836Z" fill="#122428"/>
<path d="M64.3069 72.1602C63.7682 72.1602 63.2944 72.0271 62.8855 71.761C62.4831 71.4949 62.2008 71.138 62.0385 70.6901L62.8855 70.291C63.0283 70.5895 63.223 70.8264 63.4696 71.0017C63.7227 71.1769 64.0018 71.2645 64.3069 71.2645C64.5665 71.2645 64.7774 71.2061 64.9397 71.0893C65.1019 70.9725 65.1831 70.8134 65.1831 70.6122C65.1831 70.4824 65.1474 70.3786 65.076 70.3007C65.0046 70.2163 64.9137 70.1482 64.8034 70.0963C64.6995 70.0443 64.5924 70.0054 64.4821 69.9794L63.6546 69.7458C63.2003 69.616 62.8595 69.4213 62.6324 69.1617C62.4117 68.8956 62.3014 68.5873 62.3014 68.2368C62.3014 67.9188 62.3825 67.6429 62.5447 67.4093C62.707 67.1691 62.9309 66.9841 63.2165 66.8543C63.5021 66.7245 63.8233 66.6596 64.1803 66.6596C64.6606 66.6596 65.089 66.7797 65.4654 67.0198C65.8418 67.2535 66.1079 67.5813 66.2637 68.0031L65.4167 68.4023C65.3129 68.1492 65.1474 67.948 64.9202 67.7987C64.6995 67.6494 64.4497 67.5748 64.1706 67.5748C63.9304 67.5748 63.739 67.6332 63.5962 67.75C63.4534 67.8603 63.382 68.0064 63.382 68.1881C63.382 68.3114 63.4144 68.4153 63.4793 68.4996C63.5443 68.5775 63.6286 68.6424 63.7325 68.6944C63.8363 68.7398 63.9434 68.7787 64.0537 68.8112L64.9105 69.0643C65.3453 69.1876 65.6796 69.3823 65.9132 69.6484C66.1469 69.908 66.2637 70.2196 66.2637 70.583C66.2637 70.8946 66.1793 71.1704 66.0106 71.4106C65.8483 71.6442 65.6212 71.8292 65.3291 71.9655C65.037 72.0953 64.6963 72.1602 64.3069 72.1602Z" fill="#122428"/>
<path d="M31.9684 67.9057C31.9684 69.922 30.3339 71.5565 28.3176 71.5565C26.3013 71.5565 24.6667 69.922 24.6667 67.9057C24.6667 65.8894 26.3013 64.2549 28.3176 64.2549C30.3339 64.2549 31.9684 65.8894 31.9684 67.9057Z" fill="#FFD975"/>
<path d="M28.638 46.7307V34.5613H24.8801V32.2247H35.0051V34.5613H31.3056V46.7307H28.638Z" fill="#122428"/>
<path d="M40.2171 46.9643C39.1786 46.9643 38.231 46.7242 37.3743 46.2439C36.5305 45.7636 35.8556 45.1081 35.3493 44.2773C34.856 43.4465 34.6094 42.499 34.6094 41.4345C34.6094 40.3701 34.856 39.4225 35.3493 38.5918C35.8556 37.761 36.5305 37.1055 37.3743 36.6252C38.218 36.1449 39.1656 35.9048 40.2171 35.9048C41.2555 35.9048 42.1966 36.1449 43.0404 36.6252C43.8841 37.1055 44.5526 37.761 45.0459 38.5918C45.5521 39.4096 45.8053 40.3571 45.8053 41.4345C45.8053 42.499 45.5521 43.4465 45.0459 44.2773C44.5396 45.1081 43.8646 45.7636 43.0209 46.2439C42.1771 46.7242 41.2425 46.9643 40.2171 46.9643ZM40.2171 44.6278C40.7882 44.6278 41.288 44.4915 41.7163 44.2189C42.1577 43.9463 42.5017 43.5699 42.7483 43.0896C43.0079 42.5963 43.1377 42.0446 43.1377 41.4345C43.1377 40.8115 43.0079 40.2663 42.7483 39.799C42.5017 39.3187 42.1577 38.9422 41.7163 38.6697C41.288 38.3841 40.7882 38.2413 40.2171 38.2413C39.6329 38.2413 39.1202 38.3841 38.6789 38.6697C38.2375 38.9422 37.887 39.3187 37.6274 39.799C37.3808 40.2663 37.2575 40.8115 37.2575 41.4345C37.2575 42.0446 37.3808 42.5963 37.6274 43.0896C37.887 43.5699 38.2375 43.9463 38.6789 44.2189C39.1202 44.4915 39.6329 44.6278 40.2171 44.6278Z" fill="#122428"/>
<path d="M47.7396 50.6249V36.1384H50.1345V38.2413L49.9009 37.7156C50.2643 37.1444 50.7576 36.7031 51.3807 36.3915C52.0037 36.067 52.7242 35.9048 53.5419 35.9048C54.5415 35.9048 55.4436 36.1514 56.2484 36.6447C57.0532 37.1379 57.6893 37.7999 58.1566 38.6307C58.6369 39.4615 58.877 40.3961 58.877 41.4345C58.877 42.46 58.6433 43.3946 58.176 44.2384C57.7087 45.0821 57.0727 45.7506 56.2679 46.2439C55.4631 46.7242 54.5479 46.9643 53.5225 46.9643C52.7566 46.9643 52.0492 46.815 51.4001 46.5165C50.7641 46.2049 50.2578 45.7636 49.8814 45.1924L50.2903 44.6862V50.6249H47.7396ZM53.2304 44.6278C53.8145 44.6278 54.3338 44.4915 54.7881 44.2189C55.2424 43.9463 55.5929 43.5699 55.8395 43.0896C56.0991 42.6093 56.2289 42.0576 56.2289 41.4345C56.2289 40.8115 56.0991 40.2663 55.8395 39.799C55.5929 39.3187 55.2424 38.9422 54.7881 38.6697C54.3338 38.3841 53.8145 38.2413 53.2304 38.2413C52.6722 38.2413 52.166 38.3776 51.7117 38.6502C51.2703 38.9228 50.9198 39.3057 50.6602 39.799C50.4136 40.2793 50.2903 40.8244 50.2903 41.4345C50.2903 42.0576 50.4136 42.6093 50.6602 43.0896C50.9198 43.5699 51.2703 43.9463 51.7117 44.2189C52.166 44.4915 52.6722 44.6278 53.2304 44.6278Z" fill="#122428"/>
<path d="M64.4965 46.7307V32.2247H67.1446V38.5528H73.3169V32.2247H75.9844V46.7307H73.3169V40.8894H67.1446V46.7307H64.4965Z" fill="#122428"/>
<path d="M78.5624 46.7307V36.1384H81.1131V46.7307H78.5624ZM78.5624 34.9507V32.2247H81.1131V34.9507H78.5624Z" fill="#122428"/>
<path d="M83.4682 46.7307V36.1384H85.8631V38.4944L85.6684 38.1439C85.915 37.3521 86.2979 36.8004 86.8172 36.4889C87.3494 36.1774 87.9854 36.0216 88.7253 36.0216H89.3484V38.2802H88.4333C87.7063 38.2802 87.1222 38.5074 86.6809 38.9617C86.2395 39.4031 86.0189 40.0261 86.0189 40.8309V46.7307H83.4682Z" fill="#122428"/>
<path d="M90.7508 46.7307V36.1384H93.3015V46.7307H90.7508ZM90.7508 34.9507V32.2247H93.3015V34.9507H90.7508Z" fill="#122428"/>
<path d="M95.6566 46.7307V36.1384H98.0515V38.2218L97.8568 37.8519C98.1034 37.2158 98.5058 36.7355 99.064 36.411C99.6351 36.0735 100.297 35.9048 101.05 35.9048C101.829 35.9048 102.517 36.0735 103.114 36.411C103.724 36.7485 104.198 37.2223 104.535 37.8324C104.873 38.4295 105.042 39.124 105.042 39.9158V46.7307H102.491V40.5194C102.491 40.0521 102.4 39.6497 102.218 39.3122C102.037 38.9747 101.783 38.7151 101.459 38.5334C101.147 38.3386 100.777 38.2413 100.349 38.2413C99.9337 38.2413 99.5638 38.3386 99.2392 38.5334C98.9147 38.7151 98.6616 38.9747 98.4799 39.3122C98.2981 39.6497 98.2073 40.0521 98.2073 40.5194V46.7307H95.6566Z" fill="#122428"/>
<path d="M112.339 51.0143C111.547 51.0143 110.814 50.8845 110.139 50.6249C109.464 50.3653 108.879 50.0018 108.386 49.5345C107.906 49.0802 107.555 48.5415 107.335 47.9184L109.71 47.0227C109.866 47.516 110.171 47.9119 110.625 48.2105C111.093 48.522 111.664 48.6778 112.339 48.6778C112.858 48.6778 113.312 48.5804 113.702 48.3857C114.104 48.191 114.416 47.9054 114.636 47.529C114.857 47.1655 114.967 46.7242 114.967 46.2049V43.7905L115.454 44.3747C115.091 45.0107 114.604 45.491 113.994 45.8155C113.384 46.14 112.689 46.3023 111.91 46.3023C110.924 46.3023 110.041 46.0751 109.262 45.6208C108.484 45.1665 107.873 44.5434 107.432 43.7516C106.991 42.9598 106.77 42.0706 106.77 41.0841C106.77 40.0845 106.991 39.1954 107.432 38.4165C107.873 37.6377 108.477 37.0276 109.243 36.5863C110.009 36.1319 110.879 35.9048 111.852 35.9048C112.644 35.9048 113.338 36.0735 113.935 36.411C114.546 36.7355 115.052 37.2093 115.454 37.8324L115.104 38.4749V36.1384H117.518V46.2049C117.518 47.1266 117.291 47.9508 116.837 48.6778C116.395 49.4047 115.785 49.9758 115.006 50.3912C114.24 50.8066 113.351 51.0143 112.339 51.0143ZM112.222 43.9463C112.767 43.9463 113.241 43.8295 113.643 43.5958C114.059 43.3492 114.383 43.0117 114.617 42.5833C114.851 42.155 114.967 41.6617 114.967 41.1035C114.967 40.5583 114.844 40.0716 114.597 39.6432C114.364 39.2019 114.039 38.8579 113.624 38.6112C113.222 38.3646 112.754 38.2413 112.222 38.2413C111.69 38.2413 111.21 38.3646 110.781 38.6112C110.353 38.8579 110.015 39.2019 109.769 39.6432C109.535 40.0716 109.418 40.5583 109.418 41.1035C109.418 41.6487 109.535 42.1355 109.769 42.5639C110.015 42.9922 110.346 43.3297 110.762 43.5764C111.19 43.823 111.677 43.9463 112.222 43.9463Z" fill="#122428"/>
<path d="M128.754 46.9643C127.833 46.9643 126.976 46.7956 126.184 46.4581C125.405 46.1206 124.73 45.6533 124.159 45.0562C123.601 44.4461 123.192 43.7386 122.933 42.9338L125.133 41.9797C125.483 42.8105 125.99 43.466 126.652 43.9463C127.314 44.4136 128.06 44.6473 128.891 44.6473C129.358 44.6473 129.76 44.5759 130.098 44.4331C130.448 44.2773 130.715 44.0696 130.896 43.81C131.091 43.5504 131.188 43.2389 131.188 42.8754C131.188 42.447 131.059 42.0966 130.799 41.824C130.552 41.5384 130.176 41.3177 129.67 41.1619L126.885 40.2663C125.756 39.9158 124.906 39.3901 124.335 38.6891C123.763 37.9882 123.478 37.1639 123.478 36.2163C123.478 35.3855 123.679 34.6521 124.081 34.0161C124.497 33.38 125.068 32.8868 125.795 32.5363C126.535 32.1728 127.378 31.9911 128.326 31.9911C129.196 31.9911 129.994 32.1469 130.721 32.4584C131.448 32.7569 132.071 33.1788 132.59 33.724C133.122 34.2562 133.518 34.8858 133.778 35.6127L131.597 36.5863C131.312 35.8593 130.883 35.3012 130.312 34.9117C129.741 34.5093 129.079 34.3081 128.326 34.3081C127.885 34.3081 127.495 34.386 127.158 34.5418C126.82 34.6846 126.554 34.8923 126.359 35.1649C126.178 35.4245 126.087 35.736 126.087 36.0995C126.087 36.5019 126.217 36.8588 126.476 37.1704C126.736 37.4689 127.132 37.7026 127.664 37.8713L130.332 38.7086C131.487 39.085 132.35 39.6043 132.921 40.2663C133.505 40.9283 133.797 41.7461 133.797 42.7196C133.797 43.5504 133.583 44.2838 133.155 44.9199C132.727 45.5559 132.136 46.0557 131.383 46.4191C130.63 46.7826 129.754 46.9643 128.754 46.9643Z" fill="#122428"/>
<path d="M141.147 46.9643C140.109 46.9643 139.161 46.7242 138.304 46.2439C137.46 45.7636 136.785 45.1081 136.279 44.2773C135.786 43.4465 135.539 42.499 135.539 41.4345C135.539 40.3701 135.786 39.4225 136.279 38.5918C136.785 37.761 137.46 37.1055 138.304 36.6252C139.148 36.1449 140.096 35.9048 141.147 35.9048C142.185 35.9048 143.127 36.1449 143.97 36.6252C144.814 37.1055 145.483 37.761 145.976 38.5918C146.482 39.4096 146.735 40.3571 146.735 41.4345C146.735 42.499 146.482 43.4465 145.976 44.2773C145.47 45.1081 144.795 45.7636 143.951 46.2439C143.107 46.7242 142.172 46.9643 141.147 46.9643ZM141.147 44.6278C141.718 44.6278 142.218 44.4915 142.646 44.2189C143.088 43.9463 143.432 43.5699 143.678 43.0896C143.938 42.5963 144.068 42.0446 144.068 41.4345C144.068 40.8115 143.938 40.2663 143.678 39.799C143.432 39.3187 143.088 38.9422 142.646 38.6697C142.218 38.3841 141.718 38.2413 141.147 38.2413C140.563 38.2413 140.05 38.3841 139.609 38.6697C139.167 38.9422 138.817 39.3187 138.557 39.799C138.311 40.2663 138.187 40.8115 138.187 41.4345C138.187 42.0446 138.311 42.5963 138.557 43.0896C138.817 43.5699 139.167 43.9463 139.609 44.2189C140.05 44.4915 140.563 44.6278 141.147 44.6278Z" fill="#122428"/>
<path d="M152.447 46.9643C151.629 46.9643 150.915 46.7826 150.305 46.4191C149.708 46.0557 149.247 45.5494 148.923 44.9004C148.611 44.2513 148.455 43.492 148.455 42.6223V36.1384H151.006V42.4081C151.006 42.8494 151.09 43.2389 151.259 43.5764C151.441 43.9009 151.694 44.1605 152.019 44.3552C152.356 44.5369 152.732 44.6278 153.148 44.6278C153.563 44.6278 153.933 44.5369 154.258 44.3552C154.582 44.1605 154.835 43.8944 155.017 43.5569C155.199 43.2194 155.29 42.817 155.29 42.3497V36.1384H157.84V46.7307H155.426V44.6473L155.64 45.0172C155.393 45.6662 154.985 46.153 154.413 46.4775C153.855 46.8021 153.2 46.9643 152.447 46.9643Z" fill="#122428"/>
<path d="M160.211 46.7307V36.1384H162.606V38.4944L162.412 38.1439C162.658 37.3521 163.041 36.8004 163.56 36.4889C164.093 36.1774 164.729 36.0216 165.469 36.0216H166.092V38.2802H165.177C164.45 38.2802 163.865 38.5074 163.424 38.9617C162.983 39.4031 162.762 40.0261 162.762 40.8309V46.7307H160.211Z" fill="#122428"/>
<path d="M172.595 46.9643C171.544 46.9643 170.596 46.7242 169.753 46.2439C168.922 45.7506 168.266 45.0886 167.786 44.2578C167.306 43.4141 167.066 42.4665 167.066 41.4151C167.066 40.3636 167.306 39.4225 167.786 38.5918C168.266 37.761 168.922 37.1055 169.753 36.6252C170.596 36.1449 171.544 35.9048 172.595 35.9048C173.348 35.9048 174.049 36.0411 174.698 36.3137C175.347 36.5733 175.906 36.9367 176.373 37.404C176.853 37.8584 177.197 38.4035 177.405 39.0396L175.166 40.0132C174.971 39.4809 174.64 39.0526 174.173 38.7281C173.718 38.4035 173.193 38.2413 172.595 38.2413C172.037 38.2413 171.538 38.3776 171.096 38.6502C170.668 38.9228 170.33 39.2992 170.084 39.7795C169.837 40.2598 169.714 40.8115 169.714 41.4345C169.714 42.0576 169.837 42.6093 170.084 43.0896C170.33 43.5699 170.668 43.9463 171.096 44.2189C171.538 44.4915 172.037 44.6278 172.595 44.6278C173.206 44.6278 173.738 44.4655 174.192 44.141C174.646 43.8165 174.971 43.3816 175.166 42.8365L177.405 43.8489C177.197 44.4461 176.86 44.9848 176.392 45.465C175.925 45.9323 175.367 46.3023 174.718 46.5749C174.069 46.8345 173.361 46.9643 172.595 46.9643Z" fill="#122428"/>
<path d="M184.364 46.9643C183.273 46.9643 182.319 46.7177 181.501 46.2244C180.684 45.7311 180.048 45.0626 179.593 44.2189C179.139 43.3752 178.912 42.4405 178.912 41.4151C178.912 40.3507 179.139 39.4096 179.593 38.5918C180.061 37.761 180.69 37.1055 181.482 36.6252C182.287 36.1449 183.182 35.9048 184.169 35.9048C185 35.9048 185.727 36.0411 186.35 36.3137C186.986 36.5863 187.524 36.9627 187.966 37.443C188.407 37.9233 188.745 38.4749 188.978 39.098C189.212 39.7081 189.329 40.3701 189.329 41.0841C189.329 41.2658 189.316 41.454 189.29 41.6487C189.277 41.8434 189.244 42.0122 189.193 42.155H181.015V40.2079H187.752L186.544 41.123C186.661 40.5259 186.629 39.9937 186.447 39.5264C186.278 39.0591 185.993 38.6891 185.59 38.4165C185.201 38.1439 184.727 38.0076 184.169 38.0076C183.637 38.0076 183.163 38.1439 182.748 38.4165C182.332 38.6761 182.014 39.0656 181.794 39.5848C181.586 40.091 181.508 40.7076 181.56 41.4345C181.508 42.0836 181.592 42.6612 181.813 43.1675C182.047 43.6607 182.384 44.0437 182.825 44.3163C183.28 44.5888 183.799 44.7251 184.383 44.7251C184.967 44.7251 185.461 44.6018 185.863 44.3552C186.278 44.1086 186.603 43.7776 186.837 43.3622L188.9 44.3747C188.693 44.8809 188.368 45.3287 187.927 45.7182C187.486 46.1076 186.96 46.4126 186.35 46.6333C185.753 46.854 185.091 46.9643 184.364 46.9643Z" fill="#122428"/>
<path d="M195.293 46.9643C194.164 46.9643 193.177 46.6982 192.333 46.166C191.503 45.6208 190.931 44.8874 190.62 43.9658L192.528 43.0506C192.801 43.6477 193.177 44.1151 193.657 44.4525C194.151 44.79 194.696 44.9588 195.293 44.9588C195.76 44.9588 196.13 44.855 196.403 44.6473C196.675 44.4396 196.812 44.167 196.812 43.8295C196.812 43.6218 196.753 43.453 196.636 43.3232C196.533 43.1804 196.383 43.0636 196.189 42.9728C196.007 42.8689 195.806 42.7845 195.585 42.7196L193.852 42.2329C192.956 41.9732 192.275 41.5773 191.808 41.0451C191.353 40.5129 191.126 39.8833 191.126 39.1564C191.126 38.5074 191.288 37.9427 191.613 37.4624C191.95 36.9692 192.411 36.5863 192.995 36.3137C193.592 36.0411 194.274 35.9048 195.04 35.9048C196.039 35.9048 196.922 36.1449 197.688 36.6252C198.454 37.1055 198.999 37.7805 199.323 38.6502L197.376 39.5653C197.195 39.085 196.889 38.7021 196.461 38.4165C196.033 38.131 195.552 37.9882 195.02 37.9882C194.592 37.9882 194.254 38.0855 194.008 38.2802C193.761 38.4749 193.638 38.7281 193.638 39.0396C193.638 39.2343 193.69 39.4031 193.794 39.5458C193.897 39.6886 194.04 39.8055 194.222 39.8963C194.417 39.9872 194.637 40.0716 194.884 40.1495L196.578 40.6557C197.448 40.9153 198.116 41.3047 198.583 41.824C199.064 42.3432 199.304 42.9792 199.304 43.7321C199.304 44.3682 199.135 44.9328 198.798 45.4261C198.46 45.9064 197.993 46.2828 197.396 46.5554C196.799 46.828 196.098 46.9643 195.293 46.9643Z" fill="#122428"/>
</svg>
