<svg width="176" height="112" viewBox="0 0 176 112" fill="none" xmlns="http://www.w3.org/2000/svg">
<path d="M0.233154 5.74703C0.233154 3.05864 2.41252 0.879272 5.10091 0.879272L170.605 0.879272C173.293 0.879272 175.472 3.05864 175.472 5.74703V106.996C175.472 109.685 173.293 111.864 170.605 111.864H5.10091C2.41253 111.864 0.233154 109.685 0.233154 106.996L0.233154 5.74703Z" fill="white"/>
<path d="M148.733 93.4251C148.483 93.4251 148.263 93.3829 148.071 93.2986C147.88 93.211 147.729 93.0876 147.618 92.9286C147.508 92.7664 147.451 92.57 147.448 92.3396H148.105C148.112 92.4986 148.168 92.6333 148.276 92.7436C148.386 92.8507 148.537 92.9043 148.728 92.9043C148.894 92.9043 149.025 92.8653 149.123 92.7875C149.22 92.7063 149.269 92.5992 149.269 92.4662C149.269 92.3266 149.225 92.2179 149.137 92.14C149.053 92.0622 148.939 91.9989 148.796 91.9502C148.654 91.9015 148.501 91.8496 148.339 91.7944C148.076 91.7036 147.875 91.5867 147.735 91.444C147.599 91.3012 147.531 91.1113 147.531 90.8744C147.528 90.6732 147.575 90.5012 147.672 90.3584C147.773 90.2124 147.909 90.1005 148.081 90.0226C148.253 89.9414 148.451 89.9009 148.675 89.9009C148.902 89.9009 149.101 89.9414 149.273 90.0226C149.449 90.1037 149.585 90.2173 149.682 90.3633C149.783 90.5093 149.836 90.683 149.843 90.8842H149.176C149.173 90.7641 149.126 90.6586 149.035 90.5678C148.947 90.4737 148.824 90.4266 148.665 90.4266C148.529 90.4234 148.413 90.4574 148.319 90.5288C148.228 90.597 148.183 90.6976 148.183 90.8306C148.183 90.9442 148.219 91.0351 148.29 91.1032C148.362 91.1681 148.459 91.2233 148.582 91.2687C148.706 91.3142 148.847 91.3628 149.006 91.4148C149.174 91.4732 149.329 91.5413 149.468 91.6192C149.608 91.6971 149.72 91.8009 149.804 91.9307C149.888 92.0573 149.931 92.2212 149.931 92.4224C149.931 92.6009 149.885 92.7664 149.794 92.9189C149.703 93.0714 149.569 93.1947 149.39 93.2888C149.212 93.3797 148.993 93.4251 148.733 93.4251Z" fill="#AAA7A7"/>
<path d="M151.788 93.4251C151.539 93.4251 151.313 93.3765 151.112 93.2791C150.911 93.1785 150.75 93.0276 150.63 92.8264C150.513 92.6252 150.455 92.3705 150.455 92.0622V89.9593H151.078V92.067C151.078 92.3331 151.141 92.5311 151.268 92.6609C151.397 92.7907 151.576 92.8556 151.803 92.8556C152.027 92.8556 152.204 92.7907 152.334 92.6609C152.463 92.5311 152.528 92.3331 152.528 92.067V89.9593H153.151V92.0622C153.151 92.3705 153.09 92.6252 152.966 92.8264C152.843 93.0276 152.678 93.1785 152.47 93.2791C152.266 93.3765 152.038 93.4251 151.788 93.4251Z" fill="#AAA7A7"/>
<path d="M153.787 93.3667V89.9593H154.411L156.012 92.3591V89.9593H156.635V93.3667H156.012L154.411 90.9718V93.3667H153.787Z" fill="#AAA7A7"/>
<path d="M128.289 93.4251C128.039 93.4251 127.818 93.3829 127.626 93.2986C127.435 93.211 127.284 93.0876 127.174 92.9286C127.063 92.7664 127.007 92.57 127.003 92.3396H127.661C127.667 92.4986 127.724 92.6333 127.831 92.7436C127.941 92.8507 128.092 92.9043 128.284 92.9043C128.449 92.9043 128.581 92.8653 128.678 92.7875C128.775 92.7063 128.824 92.5992 128.824 92.4662C128.824 92.3266 128.78 92.2179 128.693 92.14C128.608 92.0622 128.495 91.9989 128.352 91.9502C128.209 91.9015 128.056 91.8496 127.894 91.7944C127.631 91.7036 127.43 91.5867 127.291 91.444C127.154 91.3012 127.086 91.1113 127.086 90.8744C127.083 90.6732 127.13 90.5012 127.227 90.3584C127.328 90.2124 127.464 90.1005 127.636 90.0226C127.808 89.9414 128.006 89.9009 128.23 89.9009C128.457 89.9009 128.657 89.9414 128.829 90.0226C129.004 90.1037 129.14 90.2173 129.238 90.3633C129.338 90.5093 129.392 90.683 129.398 90.8842H128.731C128.728 90.7641 128.681 90.6586 128.59 90.5678C128.503 90.4737 128.379 90.4266 128.22 90.4266C128.084 90.4234 127.969 90.4574 127.875 90.5288C127.784 90.597 127.738 90.6976 127.738 90.8306C127.738 90.9442 127.774 91.0351 127.846 91.1032C127.917 91.1681 128.014 91.2233 128.138 91.2687C128.261 91.3142 128.402 91.3628 128.561 91.4148C128.73 91.4732 128.884 91.5413 129.024 91.6192C129.163 91.6971 129.275 91.8009 129.359 91.9307C129.444 92.0573 129.486 92.2212 129.486 92.4224C129.486 92.6009 129.441 92.7664 129.35 92.9189C129.259 93.0714 129.124 93.1947 128.946 93.2888C128.767 93.3797 128.548 93.4251 128.289 93.4251Z" fill="#AAA7A7"/>
<path d="M129.811 93.3667L131.057 89.9593H131.758L133.004 93.3667H132.342L132.069 92.5781H130.74L130.463 93.3667H129.811ZM130.911 92.0914H131.899L131.402 90.6749L130.911 92.0914Z" fill="#AAA7A7"/>
<path d="M133.875 93.3667V90.4607H132.882V89.9593H135.496V90.4607H134.498V93.3667H133.875Z" fill="#AAA7A7"/>
<path d="M108.627 93.3667V89.9592H110.828V90.4606H109.251V91.4147H110.526V91.9063H109.251V93.3667H108.627Z" fill="#AAA7A7"/>
<path d="M111.309 93.3667V89.9592H112.56C112.832 89.9592 113.056 90.0063 113.231 90.1004C113.41 90.1913 113.543 90.3162 113.63 90.4752C113.718 90.631 113.762 90.8046 113.762 90.9961C113.762 91.2038 113.707 91.3936 113.596 91.5656C113.489 91.7376 113.321 91.8625 113.09 91.9404L113.796 93.3667H113.08L112.448 92.0232H111.932V93.3667H111.309ZM111.932 91.5656H112.521C112.728 91.5656 112.881 91.5153 112.978 91.4147C113.076 91.3141 113.124 91.181 113.124 91.0155C113.124 90.8533 113.076 90.7235 112.978 90.6261C112.884 90.5288 112.73 90.4801 112.516 90.4801H111.932V91.5656Z" fill="#AAA7A7"/>
<path d="M114.341 93.3667V89.9592H114.964V93.3667H114.341Z" fill="#AAA7A7"/>
<path d="M88.0028 93.3667V90.4606H87.0098V89.9592H89.6238V90.4606H88.6259V93.3667H88.0028Z" fill="#AAA7A7"/>
<path d="M90.0853 93.3667V89.9592H90.7084V91.3757H92.2369V89.9592H92.8599V93.3667H92.2369V91.882H90.7084V93.3667H90.0853Z" fill="#AAA7A7"/>
<path d="M94.8365 93.4251C94.5866 93.4251 94.3611 93.3764 94.1599 93.279C93.9587 93.1784 93.7981 93.0275 93.678 92.8263C93.5612 92.6251 93.5027 92.3704 93.5027 92.0621V89.9592H94.1258V92.067C94.1258 92.3331 94.1891 92.531 94.3157 92.6608C94.4455 92.7906 94.624 92.8555 94.8511 92.8555C95.075 92.8555 95.2519 92.7906 95.3817 92.6608C95.5115 92.531 95.5764 92.3331 95.5764 92.067V89.9592H96.1995V92.0621C96.1995 92.3704 96.1378 92.6251 96.0145 92.8263C95.8912 93.0275 95.7257 93.1784 95.518 93.279C95.3136 93.3764 95.0864 93.4251 94.8365 93.4251Z" fill="#AAA7A7"/>
<path d="M64.5357 93.3667L63.6351 89.9592H64.302L64.9154 92.6706L65.6358 89.9592H66.3221L67.0231 92.6706L67.6364 89.9592H68.3082L67.3833 93.3667H66.6434L65.9668 90.8403L65.2707 93.3667H64.5357Z" fill="#AAA7A7"/>
<path d="M68.7597 93.3667V89.9592H70.9843V90.4606H69.3828V91.3952H70.8383V91.882H69.3828V92.8653H70.9843V93.3667H68.7597Z" fill="#AAA7A7"/>
<path d="M71.5739 93.3667V89.9592H72.7373C73.1365 89.9592 73.4642 90.0306 73.7206 90.1734C73.9802 90.313 74.1717 90.5109 74.295 90.7673C74.4216 91.0204 74.4848 91.319 74.4848 91.6629C74.4848 92.0069 74.4216 92.3071 74.295 92.5635C74.1717 92.8166 73.9802 93.0146 73.7206 93.1573C73.4642 93.2969 73.1365 93.3667 72.7373 93.3667H71.5739ZM72.197 92.8312H72.7081C72.9937 92.8312 73.2192 92.7858 73.3847 92.6949C73.5502 92.6008 73.6687 92.4677 73.7401 92.2958C73.8115 92.1205 73.8472 91.9096 73.8472 91.6629C73.8472 91.4196 73.8115 91.2102 73.7401 91.035C73.6687 90.8598 73.5502 90.7251 73.3847 90.631C73.2192 90.5369 72.9937 90.4898 72.7081 90.4898H72.197V92.8312Z" fill="#AAA7A7"/>
<path d="M43.7065 93.3667V90.4606H42.7135V89.9592H45.3275V90.4606H44.3296V93.3667H43.7065Z" fill="#AAA7A7"/>
<path d="M47.1033 93.4251C46.8535 93.4251 46.6279 93.3764 46.4267 93.279C46.2255 93.1784 46.0649 93.0275 45.9448 92.8263C45.828 92.6251 45.7696 92.3704 45.7696 92.0621V89.9592H46.3927V92.067C46.3927 92.3331 46.4559 92.531 46.5825 92.6608C46.7123 92.7906 46.8908 92.8555 47.1179 92.8555C47.3419 92.8555 47.5187 92.7906 47.6485 92.6608C47.7783 92.531 47.8432 92.3331 47.8432 92.067V89.9592H48.4663V92.0621C48.4663 92.3704 48.4047 92.6251 48.2813 92.8263C48.158 93.0275 47.9925 93.1784 47.7848 93.279C47.5804 93.3764 47.3532 93.4251 47.1033 93.4251Z" fill="#AAA7A7"/>
<path d="M49.1024 93.3667V89.9592H51.3269V90.4606H49.7254V91.3952H51.1809V91.882H49.7254V92.8653H51.3269V93.3667H49.1024Z" fill="#AAA7A7"/>
<path d="M19.0609 93.3666V89.9592H19.8008L20.8863 92.1205L21.9572 89.9592H22.6971V93.3666H22.0741V91.0155L21.1248 92.8798H20.6332L19.684 91.0155V93.3666H19.0609Z" fill="#AAA7A7"/>
<path d="M24.9549 93.425C24.6141 93.425 24.3156 93.3504 24.0592 93.2011C23.8061 93.0518 23.6065 92.8458 23.4605 92.5829C23.3177 92.3168 23.2463 92.0101 23.2463 91.6629C23.2463 91.3157 23.3177 91.0106 23.4605 90.7477C23.6065 90.4816 23.8061 90.274 24.0592 90.1247C24.3156 89.9754 24.6141 89.9008 24.9549 89.9008C25.2924 89.9008 25.5893 89.9754 25.8457 90.1247C26.102 90.274 26.3016 90.4816 26.4444 90.7477C26.5872 91.0106 26.6586 91.3157 26.6586 91.6629C26.6586 92.0101 26.5872 92.3168 26.4444 92.5829C26.3016 92.8458 26.102 93.0518 25.8457 93.2011C25.5893 93.3504 25.2924 93.425 24.9549 93.425ZM24.9549 92.8652C25.2794 92.8652 25.5374 92.7581 25.7288 92.5439C25.9235 92.3298 26.0209 92.0361 26.0209 91.6629C26.0209 91.2897 25.9235 90.996 25.7288 90.7818C25.5374 90.5676 25.2794 90.4605 24.9549 90.4605C24.6303 90.4605 24.3707 90.5676 24.176 90.7818C23.9813 90.996 23.8839 91.2897 23.8839 91.6629C23.8839 92.0361 23.9813 92.3298 24.176 92.5439C24.3707 92.7581 24.6303 92.8652 24.9549 92.8652Z" fill="#AAA7A7"/>
<path d="M27.2087 93.3666V89.9592H27.8318L29.4333 92.359V89.9592H30.0563V93.3666H29.4333L27.8318 90.9717V93.3666H27.2087Z" fill="#AAA7A7"/>
<path d="M128.255 42.7422C128.255 41.398 129.345 40.3083 130.689 40.3083C132.033 40.3083 133.123 41.398 133.123 42.7422V82.6578C133.123 84.002 132.033 85.0917 130.689 85.0917C129.345 85.0917 128.255 84.002 128.255 82.6578V42.7422Z" fill="#EDEDED"/>
<path d="M149.673 42.7421C149.673 41.3979 150.763 40.3082 152.107 40.3082C153.451 40.3082 154.541 41.3979 154.541 42.7421V82.6577C154.541 84.0019 153.451 85.0916 152.107 85.0916C150.763 85.0916 149.673 84.0019 149.673 82.6577V42.7421Z" fill="#EDEDED"/>
<path d="M109.271 42.7422C109.271 41.398 110.36 40.3083 111.704 40.3083C113.049 40.3083 114.138 41.398 114.138 42.7422V82.6578C114.138 84.002 113.049 85.0917 111.704 85.0917C110.36 85.0917 109.271 84.002 109.271 82.6578V42.7422Z" fill="#F7D4BE"/>
<path d="M88.8256 63.1866C88.8256 61.8424 89.9152 60.7527 91.2594 60.7527C92.6036 60.7527 93.6933 61.8424 93.6933 63.1866V82.6576C93.6933 84.0018 92.6036 85.0915 91.2594 85.0915C89.9152 85.0915 88.8256 84.0018 88.8256 82.6576V63.1866Z" fill="#9ED7A3"/>
<path d="M88.8256 50.5304C88.8256 49.1862 89.9152 48.0966 91.2594 48.0966C92.6036 48.0966 93.6933 49.1862 93.6933 50.5304V57.8321C93.6933 59.1763 92.6036 60.266 91.2594 60.266C89.9152 60.266 88.8256 59.1763 88.8256 57.8321V50.5304Z" fill="#E0BFF2"/>
<path d="M88.8257 42.742C88.8257 41.3978 89.9154 40.3081 91.2596 40.3081C92.6038 40.3081 93.6934 41.3978 93.6934 42.742V44.6891C93.6934 46.0333 92.6038 47.123 91.2596 47.123C89.9154 47.123 88.8257 46.0333 88.8257 44.6891V42.742Z" fill="#F7D4BE"/>
<path d="M66.4348 63.1867C66.4348 61.8425 67.5245 60.7528 68.8687 60.7528C70.2129 60.7528 71.3026 61.8425 71.3026 63.1867V82.6577C71.3026 84.0019 70.2129 85.0916 68.8687 85.0916C67.5245 85.0916 66.4348 84.0019 66.4348 82.6577V63.1867Z" fill="#9ED7A3"/>
<path d="M66.4346 47.61C66.4346 46.2658 67.5243 45.1761 68.8684 45.1761C70.2126 45.1761 71.3023 46.2658 71.3023 47.61V57.8323C71.3023 59.1765 70.2126 60.2662 68.8684 60.2662C67.5243 60.2662 66.4346 59.1765 66.4346 57.8323V47.61Z" fill="#E0BFF2"/>
<path d="M44.5294 63.1866C44.5294 61.8424 45.6191 60.7527 46.9633 60.7527C48.3075 60.7527 49.3972 61.8424 49.3972 63.1866V82.6576C49.3972 84.0018 48.3075 85.0915 46.9633 85.0915C45.6191 85.0915 44.5294 84.0018 44.5294 82.6576V63.1866Z" fill="#9ED7A3"/>
<path d="M44.5294 50.5306C44.5294 49.1864 45.6191 48.0967 46.9633 48.0967C48.3075 48.0967 49.3972 49.1864 49.3972 50.5306V57.8322C49.3972 59.1764 48.3075 60.2661 46.9633 60.2661C45.6191 60.2661 44.5294 59.1764 44.5294 57.8322V50.5306Z" fill="#E0BFF2"/>
<path d="M44.5298 42.7421C44.5298 41.3979 45.6195 40.3082 46.9637 40.3082C48.3079 40.3082 49.3975 41.3979 49.3975 42.7421V44.6892C49.3975 46.0334 48.3079 47.1231 46.9637 47.1231C45.6195 47.1231 44.5298 46.0334 44.5298 44.6892V42.7421Z" fill="#F7D4BE"/>
<path d="M21.6508 56.3719C21.6508 55.0277 22.7404 53.938 24.0846 53.938C25.4288 53.938 26.5185 55.0277 26.5185 56.3719V82.6578C26.5185 84.002 25.4288 85.0916 24.0846 85.0916C22.7404 85.0916 21.6508 84.002 21.6508 82.6578V56.3719Z" fill="#9ED7A3"/>
<path d="M21.651 43.229C21.651 41.8849 22.7407 40.7952 24.0849 40.7952C25.4291 40.7952 26.5188 41.8849 26.5188 43.229V50.5307C26.5188 51.8749 25.4291 52.9646 24.0849 52.9646C22.7407 52.9646 21.651 51.8749 21.651 50.5307V43.229Z" fill="#E0BFF2"/>
<path d="M19.5551 27.6519V19.6737H22.1681C22.9962 19.6737 23.7137 19.8414 24.3206 20.177C24.9346 20.5054 25.4093 20.9695 25.7449 21.5692C26.0804 22.1689 26.2482 22.865 26.2482 23.6574C26.2482 24.4428 26.0804 25.1389 25.7449 25.7457C25.4093 26.3454 24.9346 26.8131 24.3206 27.1486C23.7137 27.4842 22.9962 27.6519 22.1681 27.6519H19.5551ZM20.8187 26.5275H22.1895C22.7535 26.5275 23.2425 26.4097 23.6566 26.1741C24.0779 25.9385 24.4027 25.6065 24.6312 25.1781C24.8596 24.7498 24.9738 24.2429 24.9738 23.6574C24.9738 23.072 24.856 22.5687 24.6204 22.1475C24.392 21.7191 24.0707 21.3871 23.6566 21.1515C23.2425 20.9159 22.7535 20.7981 22.1895 20.7981H20.8187V26.5275Z" fill="black"/>
<path d="M29.0575 27.7804C28.6648 27.7804 28.3186 27.7126 28.0187 27.577C27.726 27.4342 27.4976 27.2414 27.3334 26.9987C27.1691 26.7488 27.087 26.4561 27.087 26.1205C27.087 25.8064 27.1549 25.5244 27.2905 25.2745C27.4333 25.0246 27.6511 24.814 27.9438 24.6427C28.2365 24.4713 28.6042 24.35 29.0468 24.2786L31.0601 23.9466V24.8997L29.2824 25.2103C28.9611 25.2674 28.7255 25.3709 28.5756 25.5208C28.4257 25.6636 28.3507 25.8492 28.3507 26.0777C28.3507 26.299 28.4328 26.4811 28.597 26.6239C28.7684 26.7595 28.9861 26.8273 29.2503 26.8273C29.5787 26.8273 29.8643 26.7559 30.107 26.6132C30.3569 26.4704 30.5496 26.2812 30.6853 26.0456C30.8209 25.8028 30.8888 25.5351 30.8888 25.2424V23.7538C30.8888 23.4683 30.7817 23.2362 30.5675 23.0577C30.3604 22.8721 30.082 22.7793 29.7322 22.7793C29.4109 22.7793 29.1289 22.865 28.8862 23.0363C28.6506 23.2005 28.4757 23.4147 28.3614 23.6789L27.3548 23.1755C27.4619 22.89 27.6368 22.6401 27.8795 22.4259C28.1223 22.2046 28.4043 22.0332 28.7255 21.9119C29.0539 21.7905 29.4002 21.7298 29.7643 21.7298C30.2212 21.7298 30.6246 21.8155 30.9744 21.9868C31.3314 22.1582 31.6063 22.3973 31.799 22.7043C31.9989 23.0042 32.0989 23.354 32.0989 23.7538V27.6519H30.9423V26.6024L31.1886 26.6346C31.053 26.8702 30.8781 27.0736 30.6639 27.245C30.4568 27.4163 30.2177 27.5484 29.9464 27.6412C29.6822 27.734 29.3859 27.7804 29.0575 27.7804Z" fill="black"/>
<path d="M33.5138 27.6519V21.8583H34.7239V27.6519H33.5138ZM33.5138 21.0659V19.6737H34.7239V21.0659H33.5138Z" fill="black"/>
<path d="M36.1388 27.6519V19.5452H37.3489V27.6519H36.1388Z" fill="black"/>
<path d="M39.2778 30.0186C39.135 30.0186 38.9922 30.0044 38.8494 29.9758C38.7138 29.9544 38.5889 29.9187 38.4746 29.8687V28.8299C38.5603 28.8513 38.6638 28.8692 38.7852 28.8835C38.9066 28.9049 39.0244 28.9156 39.1386 28.9156C39.4741 28.9156 39.7205 28.8406 39.8775 28.6907C40.0417 28.5479 40.1881 28.323 40.3166 28.016L40.7021 27.1379L40.6807 28.1553L38.1748 21.8583H39.4706L41.3232 26.6881H40.8842L42.7261 21.8583H44.0326L41.4732 28.2838C41.3375 28.6265 41.1662 28.9263 40.9591 29.1833C40.7592 29.4475 40.5201 29.651 40.2416 29.7937C39.9703 29.9437 39.6491 30.0186 39.2778 30.0186Z" fill="black"/>
<path d="M46.1438 27.6519L48.9496 19.6737H50.5131L53.3189 27.6519H51.9696L51.3591 25.8635H48.1143L47.4932 27.6519H46.1438ZM48.4784 24.7391H50.9736L49.56 20.5625H49.9134L48.4784 24.7391Z" fill="black"/>
<path d="M56.6907 27.7804C56.1124 27.7804 55.5983 27.6484 55.1486 27.3842C54.7059 27.1129 54.3525 26.7488 54.0884 26.2919C53.8314 25.835 53.7028 25.3174 53.7028 24.7391C53.7028 24.1679 53.8314 23.6539 54.0884 23.197C54.3454 22.74 54.6988 22.3831 55.1486 22.1261C55.5983 21.8619 56.1124 21.7298 56.6907 21.7298C57.0833 21.7298 57.451 21.8012 57.7937 21.944C58.1364 22.0796 58.4327 22.2688 58.6826 22.5116C58.9396 22.7543 59.1288 23.0363 59.2501 23.3576L58.1899 23.8502C58.0686 23.5504 57.8722 23.3112 57.6009 23.1327C57.3368 22.9471 57.0334 22.8543 56.6907 22.8543C56.3623 22.8543 56.066 22.9364 55.8018 23.1006C55.5448 23.2576 55.3413 23.4825 55.1914 23.7752C55.0415 24.0608 54.9665 24.3857 54.9665 24.7498C54.9665 25.1139 55.0415 25.4423 55.1914 25.735C55.3413 26.0206 55.5448 26.2455 55.8018 26.4097C56.066 26.5739 56.3623 26.656 56.6907 26.656C57.0405 26.656 57.3439 26.5667 57.6009 26.3883C57.8651 26.2026 58.0614 25.9563 58.1899 25.6493L59.2501 26.1527C59.1359 26.4597 58.9503 26.7381 58.6933 26.988C58.4434 27.2307 58.1471 27.4235 57.8044 27.5663C57.4617 27.709 57.0905 27.7804 56.6907 27.7804Z" fill="black"/>
<path d="M62.9388 27.7162C62.332 27.7162 61.8608 27.5448 61.5252 27.2021C61.1897 26.8595 61.0219 26.3776 61.0219 25.7564V22.9506H60.0045V21.8583H60.1652C60.4365 21.8583 60.6471 21.7798 60.797 21.6227C60.9469 21.4657 61.0219 21.2515 61.0219 20.9802V20.5304H62.232V21.8583H63.5492V22.9506H62.232V25.7029C62.232 25.9028 62.2642 26.0741 62.3284 26.2169C62.3927 26.3526 62.4962 26.4597 62.639 26.5382C62.7818 26.6096 62.9674 26.6453 63.1958 26.6453C63.253 26.6453 63.3172 26.6417 63.3886 26.6346C63.46 26.6274 63.5278 26.6203 63.5921 26.6132V27.6519C63.4921 27.6662 63.3815 27.6805 63.2601 27.6948C63.1387 27.709 63.0316 27.7162 62.9388 27.7162Z" fill="black"/>
<path d="M64.773 27.6519V21.8583H65.9831V27.6519H64.773ZM64.773 21.0659V19.6737H65.9831V21.0659H64.773Z" fill="black"/>
<path d="M69.0793 27.6519L66.809 21.8583H68.1262L69.8718 26.581H69.3899L71.1354 21.8583H72.4634L70.1823 27.6519H69.0793Z" fill="black"/>
<path d="M73.2859 27.6519V21.8583H74.496V27.6519H73.2859ZM73.2859 21.0659V19.6737H74.496V21.0659H73.2859Z" fill="black"/>
<path d="M78.4168 27.7162C77.8099 27.7162 77.3387 27.5448 77.0032 27.2021C76.6676 26.8595 76.4999 26.3776 76.4999 25.7564V22.9506H75.4825V21.8583H75.6431C75.9144 21.8583 76.125 21.7798 76.275 21.6227C76.4249 21.4657 76.4999 21.2515 76.4999 20.9802V20.5304H77.71V21.8583H79.0272V22.9506H77.71V25.7029C77.71 25.9028 77.7421 26.0741 77.8064 26.2169C77.8706 26.3526 77.9741 26.4597 78.1169 26.5382C78.2597 26.6096 78.4453 26.6453 78.6738 26.6453C78.7309 26.6453 78.7952 26.6417 78.8666 26.6346C78.938 26.6274 79.0058 26.6203 79.07 26.6132V27.6519C78.9701 27.6662 78.8594 27.6805 78.738 27.6948C78.6167 27.709 78.5096 27.7162 78.4168 27.7162Z" fill="black"/>
<path d="M80.251 27.6519V21.8583H81.4611V27.6519H80.251ZM80.251 21.0659V19.6737H81.4611V21.0659H80.251Z" fill="black"/>
<path d="M85.596 27.7804C85.0177 27.7804 84.5037 27.6484 84.0539 27.3842C83.6113 27.1129 83.265 26.7488 83.0152 26.2919C82.7653 25.8278 82.6403 25.3102 82.6403 24.7391C82.6403 24.1536 82.7653 23.636 83.0152 23.1862C83.2722 22.7365 83.6149 22.3831 84.0432 22.1261C84.4716 21.8619 84.9571 21.7298 85.4996 21.7298C85.9352 21.7298 86.3243 21.8048 86.6669 21.9547C87.0096 22.1046 87.2988 22.3117 87.5344 22.5758C87.77 22.8328 87.9485 23.1291 88.0698 23.4647C88.1983 23.8002 88.2626 24.1572 88.2626 24.5356C88.2626 24.6284 88.259 24.7248 88.2519 24.8247C88.2447 24.9247 88.2305 25.0175 88.2091 25.1032H83.5934V24.1394H87.5237L86.9454 24.5784C87.0168 24.2286 86.9918 23.918 86.8704 23.6467C86.7562 23.3683 86.5777 23.1506 86.335 22.9935C86.0994 22.8293 85.8209 22.7472 85.4996 22.7472C85.1784 22.7472 84.8928 22.8293 84.6429 22.9935C84.3931 23.1506 84.2003 23.379 84.0646 23.6789C83.929 23.9716 83.8754 24.3285 83.904 24.7498C83.8683 25.1424 83.9219 25.4851 84.0646 25.7778C84.2146 26.0706 84.4216 26.299 84.6858 26.4632C84.9571 26.6274 85.2641 26.7095 85.6067 26.7095C85.9566 26.7095 86.2529 26.631 86.4956 26.4739C86.7455 26.3169 86.9418 26.1134 87.0846 25.8635L88.0698 26.3454C87.9556 26.6167 87.7771 26.863 87.5344 27.0843C87.2988 27.2985 87.0132 27.4699 86.6777 27.5984C86.3492 27.7198 85.9887 27.7804 85.596 27.7804Z" fill="black"/>
<path d="M91.5854 27.7804C90.9929 27.7804 90.4717 27.6341 90.0219 27.3414C89.5792 27.0487 89.2687 26.656 89.0902 26.1634L90.0219 25.7243C90.179 26.0527 90.3931 26.3133 90.6644 26.5061C90.9429 26.6988 91.2499 26.7952 91.5854 26.7952C91.871 26.7952 92.103 26.7309 92.2815 26.6024C92.46 26.4739 92.5492 26.299 92.5492 26.0777C92.5492 25.9349 92.51 25.8207 92.4314 25.735C92.3529 25.6422 92.2529 25.5672 92.1316 25.5101C92.0173 25.453 91.8996 25.4102 91.7782 25.3816L90.8679 25.1246C90.3682 24.9818 89.9933 24.7676 89.7435 24.482C89.5007 24.1893 89.3793 23.8502 89.3793 23.4647C89.3793 23.1149 89.4686 22.8114 89.6471 22.5544C89.8256 22.2903 90.0719 22.0868 90.386 21.944C90.7001 21.8012 91.0535 21.7298 91.4462 21.7298C91.9745 21.7298 92.4457 21.8619 92.8598 22.1261C93.2739 22.3831 93.5666 22.7436 93.7379 23.2077L92.8063 23.6467C92.692 23.3683 92.51 23.147 92.2601 22.9828C92.0173 22.8186 91.7425 22.7365 91.4355 22.7365C91.1713 22.7365 90.9607 22.8007 90.8037 22.9292C90.6466 23.0506 90.5681 23.2112 90.5681 23.4111C90.5681 23.5468 90.6038 23.661 90.6751 23.7538C90.7465 23.8395 90.8393 23.9109 90.9536 23.968C91.0678 24.018 91.1856 24.0608 91.307 24.0965L92.2494 24.375C92.7277 24.5106 93.0954 24.7248 93.3524 25.0175C93.6094 25.3031 93.7379 25.6458 93.7379 26.0456C93.7379 26.3883 93.6451 26.6917 93.4595 26.9558C93.281 27.2129 93.0311 27.4163 92.7099 27.5663C92.3886 27.709 92.0138 27.7804 91.5854 27.7804Z" fill="black"/>
</svg>
