<svg width="204" height="99" viewBox="0 0 204 99" fill="none" xmlns="http://www.w3.org/2000/svg">
<path d="M0.000244141 5.20284C0.000244141 2.51445 2.17961 0.335083 4.868 0.335083L198.605 0.335083C201.293 0.335083 203.473 2.51445 203.473 5.20284V224.252C203.473 226.94 201.293 229.12 198.605 229.12H4.868C2.17962 229.12 0.000244141 226.94 0.000244141 224.252L0.000244141 5.20284Z" fill="white"/>
<path d="M185.462 71.4042C185.462 71.9419 185.026 72.3778 184.489 72.3778C183.951 72.3778 183.515 71.9419 183.515 71.4042C183.515 70.8665 183.951 70.4307 184.489 70.4307C185.026 70.4307 185.462 70.8665 185.462 71.4042Z" fill="#3E3E3E"/>
<path d="M185.462 74.8117C185.462 75.3494 185.026 75.7852 184.488 75.7852C183.951 75.7852 183.515 75.3494 183.515 74.8117C183.515 74.274 183.951 73.8381 184.488 73.8381C185.026 73.8381 185.462 74.274 185.462 74.8117Z" fill="#3E3E3E"/>
<path d="M185.462 78.2192C185.462 78.7568 185.026 79.1927 184.488 79.1927C183.951 79.1927 183.515 78.7568 183.515 78.2192C183.515 77.6815 183.951 77.2456 184.488 77.2456C185.026 77.2456 185.462 77.6815 185.462 78.2192Z" fill="#3E3E3E"/>
<path d="M20.8734 92.4235C20.3721 92.4235 19.9315 92.314 19.5519 92.095C19.177 91.871 18.8825 91.5595 18.6684 91.1604C18.459 90.7612 18.3544 90.3012 18.3544 89.7803C18.3544 89.2595 18.459 88.8019 18.6684 88.4076C18.8825 88.0085 19.177 87.6969 19.5519 87.473C19.9315 87.2491 20.3721 87.1371 20.8734 87.1371C21.3797 87.1371 21.8202 87.2491 22.195 87.473C22.5747 87.6969 22.8692 88.0085 23.0785 88.4076C23.2879 88.8019 23.3925 89.2595 23.3925 89.7803C23.3925 90.3012 23.2879 90.7612 23.0785 91.1604C22.8692 91.5595 22.5747 91.871 22.195 92.095C21.8202 92.314 21.3797 92.4235 20.8734 92.4235ZM20.8734 91.8832C21.2483 91.8832 21.5768 91.8005 21.8592 91.635C22.1464 91.4646 22.3679 91.2236 22.5236 90.9121C22.6843 90.5957 22.7646 90.2184 22.7646 89.7803C22.7646 89.3422 22.6843 88.9674 22.5236 88.6559C22.3679 88.3444 22.1464 88.1058 21.8592 87.9403C21.5768 87.77 21.2483 87.6848 20.8734 87.6848C20.4986 87.6848 20.1676 87.77 19.8804 87.9403C19.5981 88.1058 19.3766 88.3444 19.216 88.6559C19.0602 88.9674 18.9823 89.3422 18.9823 89.7803C18.9823 90.2184 19.0602 90.5957 19.216 90.9121C19.3766 91.2236 19.5981 91.4646 19.8804 91.635C20.1676 91.8005 20.4986 91.8832 20.8734 91.8832Z" fill="#747474"/>
<path d="M24.2408 92.3359V88.7143H24.7957L24.8322 89.3641C24.9491 89.1354 25.117 88.9553 25.3361 88.8238C25.5551 88.6924 25.8034 88.6267 26.0808 88.6267C26.5092 88.6267 26.8499 88.7581 27.1031 89.021C27.361 89.279 27.49 89.6781 27.49 90.2184V92.3359H26.8767V90.2842C26.8767 89.5297 26.5652 89.1524 25.9421 89.1524C25.6306 89.1524 25.3701 89.2668 25.1608 89.4956C24.9564 89.7195 24.8542 90.0408 24.8542 90.4594V92.3359H24.2408Z" fill="#747474"/>
<path d="M30.3882 92.3359V87.2248H32.1844C32.5446 87.2248 32.8415 87.2832 33.0752 87.4C33.3137 87.512 33.4914 87.6677 33.6082 87.8673C33.725 88.062 33.7834 88.2811 33.7834 88.5245C33.7834 88.8555 33.6934 89.1159 33.5133 89.3057C33.338 89.4956 33.1263 89.627 32.878 89.7C33.0679 89.7341 33.2407 89.8095 33.3964 89.9264C33.5522 90.0432 33.6739 90.1892 33.7615 90.3645C33.854 90.5397 33.9003 90.732 33.9003 90.9413C33.9003 91.1993 33.837 91.4354 33.7104 91.6496C33.5838 91.8589 33.3964 92.0268 33.1482 92.1534C32.8999 92.2751 32.5981 92.3359 32.2428 92.3359H30.3882ZM31.0015 89.4591H32.1406C32.4667 89.4591 32.7174 89.3836 32.8926 89.2327C33.0679 89.077 33.1555 88.8628 33.1555 88.5902C33.1555 88.3322 33.0679 88.1253 32.8926 87.9695C32.7223 87.8138 32.4643 87.7359 32.1187 87.7359H31.0015V89.4591ZM31.0015 91.8248H32.1771C32.5275 91.8248 32.7977 91.7445 32.9875 91.5838C33.1774 91.4183 33.2723 91.1896 33.2723 90.8975C33.2723 90.6103 33.1725 90.3815 32.9729 90.2111C32.7734 90.0359 32.5032 89.9483 32.1625 89.9483H31.0015V91.8248Z" fill="#747474"/>
<path d="M36.3723 92.4235C36.0267 92.4235 35.72 92.3456 35.4523 92.1899C35.1846 92.0292 34.9728 91.8078 34.8171 91.5254C34.6662 91.2431 34.5907 90.9097 34.5907 90.5251C34.5907 90.1454 34.6662 89.8144 34.8171 89.5321C34.968 89.2449 35.1773 89.0234 35.445 88.8676C35.7176 88.707 36.0316 88.6267 36.3869 88.6267C36.7374 88.6267 37.0392 88.707 37.2923 88.8676C37.5503 89.0234 37.7475 89.2303 37.8838 89.4883C38.0201 89.7463 38.0882 90.0237 38.0882 90.3207C38.0882 90.3742 38.0858 90.4278 38.0809 90.4813C38.0809 90.5348 38.0809 90.5957 38.0809 90.6638H35.1968C35.2114 90.9413 35.2746 91.1725 35.3866 91.3575C35.5034 91.5376 35.647 91.6739 35.8174 91.7664C35.9926 91.8589 36.1776 91.9051 36.3723 91.9051C36.6254 91.9051 36.8372 91.8467 37.0076 91.7299C37.1779 91.6131 37.3021 91.4548 37.3799 91.2553H37.986C37.8886 91.5911 37.7012 91.871 37.4237 92.095C37.1512 92.314 36.8007 92.4235 36.3723 92.4235ZM36.3723 89.1451C36.0802 89.1451 35.8198 89.2352 35.591 89.4153C35.3671 89.5905 35.2381 89.8485 35.2041 90.1892H37.4822C37.4676 89.8631 37.3556 89.6075 37.1463 89.4226C36.937 89.2376 36.679 89.1451 36.3723 89.1451Z" fill="#747474"/>
<path d="M38.9011 92.3359V87.0787H39.5145V89.3349C39.6362 89.111 39.809 88.9382 40.0329 88.8165C40.2568 88.69 40.5002 88.6267 40.7631 88.6267C41.1817 88.6267 41.5176 88.7581 41.7707 89.021C42.0238 89.279 42.1504 89.6781 42.1504 90.2184V92.3359H41.5443V90.2842C41.5443 89.5297 41.2401 89.1524 40.6316 89.1524C40.3152 89.1524 40.0499 89.2668 39.8357 89.4956C39.6216 89.7195 39.5145 90.0408 39.5145 90.4594V92.3359H38.9011Z" fill="#747474"/>
<path d="M44.2844 92.4235C43.9826 92.4235 43.7319 92.3724 43.5323 92.2702C43.3327 92.168 43.1843 92.0317 43.0869 91.8613C42.9896 91.6909 42.9409 91.506 42.9409 91.3064C42.9409 90.9364 43.082 90.6517 43.3644 90.4521C43.6467 90.2525 44.0313 90.1527 44.518 90.1527H45.4965V90.1089C45.4965 89.7925 45.4137 89.554 45.2482 89.3934C45.0827 89.2279 44.8612 89.1451 44.5837 89.1451C44.3452 89.1451 44.1383 89.2059 43.9631 89.3276C43.7927 89.4445 43.6856 89.6173 43.6418 89.8461H43.0139C43.0382 89.5832 43.1259 89.3617 43.2768 89.1816C43.4325 89.0015 43.6248 88.8652 43.8536 88.7727C44.0824 88.6754 44.3258 88.6267 44.5837 88.6267C45.09 88.6267 45.4697 88.763 45.7228 89.0356C45.9808 89.3033 46.1098 89.6611 46.1098 90.1089V92.3359H45.5622L45.5257 91.6861C45.4234 91.8905 45.2725 92.0658 45.073 92.2118C44.8782 92.353 44.6154 92.4235 44.2844 92.4235ZM44.3793 91.9051C44.613 91.9051 44.8125 91.8443 44.978 91.7226C45.1484 91.6009 45.2774 91.4427 45.365 91.248C45.4526 91.0533 45.4965 90.8488 45.4965 90.6346V90.6273H44.5691C44.2089 90.6273 43.9534 90.6906 43.8025 90.8172C43.6564 90.9389 43.5834 91.0922 43.5834 91.2772C43.5834 91.467 43.6516 91.6204 43.7879 91.7372C43.929 91.8491 44.1262 91.9051 44.3793 91.9051Z" fill="#747474"/>
<path d="M47.0299 92.3359V87.0787H47.6432V92.3359H47.0299Z" fill="#747474"/>
<path d="M48.8457 92.3359V89.2327H48.2981V88.7143H48.8457V88.0864C48.8457 87.7359 48.9333 87.4803 49.1085 87.3197C49.2838 87.1591 49.5393 87.0787 49.8752 87.0787H50.2403V87.6045H49.9701C49.7852 87.6045 49.6537 87.6434 49.5758 87.7213C49.498 87.7943 49.459 87.9209 49.459 88.101V88.7143H50.3498V89.2327H49.459V92.3359H48.8457Z" fill="#747474"/>
<path d="M55.3708 92.4235C54.8694 92.4235 54.4289 92.314 54.0492 92.095C53.6744 91.871 53.3799 91.5595 53.1657 91.1604C52.9564 90.7612 52.8518 90.3012 52.8518 89.7803C52.8518 89.2595 52.9564 88.8019 53.1657 88.4076C53.3799 88.0085 53.6744 87.6969 54.0492 87.473C54.4289 87.2491 54.8694 87.1371 55.3708 87.1371C55.8771 87.1371 56.3176 87.2491 56.6924 87.473C57.0721 87.6969 57.3666 88.0085 57.5759 88.4076C57.7852 88.8019 57.8899 89.2595 57.8899 89.7803C57.8899 90.3012 57.7852 90.7612 57.5759 91.1604C57.3666 91.5595 57.0721 91.871 56.6924 92.095C56.3176 92.314 55.8771 92.4235 55.3708 92.4235ZM55.3708 91.8832C55.7456 91.8832 56.0742 91.8005 56.3566 91.635C56.6437 91.4646 56.8652 91.2236 57.021 90.9121C57.1816 90.5957 57.262 90.2184 57.262 89.7803C57.262 89.3422 57.1816 88.9674 57.021 88.6559C56.8652 88.3444 56.6437 88.1058 56.3566 87.9403C56.0742 87.77 55.7456 87.6848 55.3708 87.6848C54.996 87.6848 54.665 87.77 54.3778 87.9403C54.0955 88.1058 53.874 88.3444 53.7134 88.6559C53.5576 88.9674 53.4797 89.3422 53.4797 89.7803C53.4797 90.2184 53.5576 90.5957 53.7134 90.9121C53.874 91.2236 54.0955 91.4646 54.3778 91.635C54.665 91.8005 54.996 91.8832 55.3708 91.8832Z" fill="#747474"/>
<path d="M58.9353 92.3359V89.2327H58.3877V88.7143H58.9353V88.0864C58.9353 87.7359 59.023 87.4803 59.1982 87.3197C59.3734 87.1591 59.629 87.0787 59.9649 87.0787H60.33V87.6045H60.0598C59.8748 87.6045 59.7434 87.6434 59.6655 87.7213C59.5876 87.7943 59.5487 87.9209 59.5487 88.101V88.7143H60.4395V89.2327H59.5487V92.3359H58.9353Z" fill="#747474"/>
<path d="M62.8173 92.3359L64.7011 87.2248H65.351L67.2275 92.3359H66.5776L66.1103 91.0216H63.9345L63.4598 92.3359H62.8173ZM64.117 90.5251H65.9278L65.0224 87.9987L64.117 90.5251Z" fill="#747474"/>
<path d="M67.9508 92.3359V87.0787H68.5641V92.3359H67.9508Z" fill="#747474"/>
<path d="M69.5694 92.3359V87.0787H70.1828V92.3359H69.5694Z" fill="#747474"/>
<path d="M74.7852 92.4235C74.4104 92.4235 74.0842 92.3554 73.8068 92.2191C73.5293 92.0828 73.3151 91.8929 73.1642 91.6496C73.0133 91.4062 72.9379 91.1238 72.9379 90.8026H73.5804C73.5804 91.0021 73.6267 91.1871 73.7192 91.3575C73.8116 91.523 73.9455 91.6569 74.1208 91.7591C74.3009 91.8564 74.5223 91.9051 74.7852 91.9051C75.1308 91.9051 75.3985 91.8224 75.5884 91.6569C75.7782 91.4914 75.8731 91.2845 75.8731 91.0362C75.8731 90.8318 75.8293 90.6687 75.7417 90.547C75.6541 90.4205 75.5348 90.3182 75.3839 90.2403C75.2379 90.1625 75.0675 90.0943 74.8728 90.0359C74.683 89.9775 74.4834 89.9118 74.2741 89.8388C73.8798 89.7025 73.5877 89.5345 73.3979 89.3349C73.208 89.1305 73.1131 88.8652 73.1131 88.5391C73.1083 88.2665 73.1715 88.0255 73.303 87.8162C73.4344 87.602 73.6194 87.4365 73.8579 87.3197C74.1013 87.198 74.3885 87.1371 74.7195 87.1371C75.0456 87.1371 75.328 87.198 75.5665 87.3197C75.8099 87.4414 75.9973 87.6093 76.1287 87.8235C76.265 88.0377 76.3356 88.2811 76.3404 88.5537H75.6979C75.6979 88.4125 75.6614 88.2738 75.5884 88.1375C75.5154 87.9963 75.4034 87.8819 75.2525 87.7943C75.1065 87.7067 74.9215 87.6629 74.6976 87.6629C74.4201 87.658 74.1913 87.7286 74.0112 87.8746C73.836 88.0206 73.7484 88.2227 73.7484 88.4806C73.7484 88.6997 73.8092 88.8676 73.9309 88.9845C74.0575 89.1013 74.2327 89.1986 74.4566 89.2765C74.6805 89.3495 74.9385 89.4347 75.2306 89.5321C75.474 89.6197 75.693 89.7219 75.8877 89.8388C76.0825 89.9556 76.2334 90.1065 76.3404 90.2915C76.4524 90.4764 76.5084 90.7125 76.5084 90.9997C76.5084 91.2431 76.4451 91.4743 76.3185 91.6934C76.192 91.9076 75.9997 92.0828 75.7417 92.2191C75.4886 92.3554 75.1698 92.4235 74.7852 92.4235Z" fill="#747474"/>
<path d="M78.7728 92.3359C78.4418 92.3359 78.1814 92.2556 77.9915 92.095C77.8017 91.9343 77.7068 91.6447 77.7068 91.2261V89.2327H77.0788V88.7143H77.7068L77.7871 87.8454H78.3201V88.7143H79.3861V89.2327H78.3201V91.2261C78.3201 91.4548 78.3663 91.6106 78.4588 91.6934C78.5513 91.7713 78.7144 91.8102 78.948 91.8102H79.3277V92.3359H78.7728Z" fill="#747474"/>
<path d="M81.3701 92.4235C81.0683 92.4235 80.8176 92.3724 80.6181 92.2702C80.4185 92.168 80.27 92.0317 80.1727 91.8613C80.0753 91.6909 80.0266 91.506 80.0266 91.3064C80.0266 90.9364 80.1678 90.6517 80.4501 90.4521C80.7325 90.2525 81.117 90.1527 81.6038 90.1527H82.5822V90.1089C82.5822 89.7925 82.4995 89.554 82.334 89.3934C82.1684 89.2279 81.947 89.1451 81.6695 89.1451C81.431 89.1451 81.2241 89.2059 81.0489 89.3276C80.8785 89.4445 80.7714 89.6173 80.7276 89.8461H80.0997C80.124 89.5832 80.2116 89.3617 80.3625 89.1816C80.5183 89.0015 80.7106 88.8652 80.9393 88.7727C81.1681 88.6754 81.4115 88.6267 81.6695 88.6267C82.1757 88.6267 82.5554 88.763 82.8086 89.0356C83.0665 89.3033 83.1955 89.6611 83.1955 90.1089V92.3359H82.6479L82.6114 91.6861C82.5092 91.8905 82.3583 92.0658 82.1587 92.2118C81.964 92.353 81.7011 92.4235 81.3701 92.4235ZM81.4651 91.9051C81.6987 91.9051 81.8983 91.8443 82.0638 91.7226C82.2342 91.6009 82.3632 91.4427 82.4508 91.248C82.5384 91.0533 82.5822 90.8488 82.5822 90.6346V90.6273H81.6549C81.2947 90.6273 81.0391 90.6906 80.8882 90.8172C80.7422 90.9389 80.6692 91.0922 80.6692 91.2772C80.6692 91.467 80.7373 91.6204 80.8736 91.7372C81.0148 91.8491 81.2119 91.9051 81.4651 91.9051Z" fill="#747474"/>
<path d="M84.3128 92.3359V89.2327H83.7652V88.7143H84.3128V88.0864C84.3128 87.7359 84.4004 87.4803 84.5757 87.3197C84.7509 87.1591 85.0065 87.0787 85.3423 87.0787H85.7074V87.6045H85.4373C85.2523 87.6045 85.1209 87.6434 85.043 87.7213C84.9651 87.7943 84.9261 87.9209 84.9261 88.101V88.7143H85.8169V89.2327H84.9261V92.3359H84.3128Z" fill="#747474"/>
<path d="M86.7443 92.3359V89.2327H86.1967V88.7143H86.7443V88.0864C86.7443 87.7359 86.8319 87.4803 87.0072 87.3197C87.1824 87.1591 87.438 87.0787 87.7738 87.0787H88.1389V87.6045H87.8688C87.6838 87.6045 87.5524 87.6434 87.4745 87.7213C87.3966 87.7943 87.3576 87.9209 87.3576 88.101V88.7143H88.2484V89.2327H87.3576V92.3359H86.7443Z" fill="#747474"/>
<path d="M90.6263 92.3359L92.5101 87.2248H93.1599L95.0365 92.3359H94.3866L93.9193 91.0216H91.7434L91.2688 92.3359H90.6263ZM91.926 90.5251H93.7368L92.8314 87.9987L91.926 90.5251Z" fill="#747474"/>
<path d="M95.7598 92.3359V88.7143H96.3147L96.3512 89.3641C96.468 89.1354 96.636 88.9553 96.855 88.8238C97.0741 88.6924 97.3223 88.6267 97.5998 88.6267C98.0282 88.6267 98.3689 88.7581 98.622 89.021C98.88 89.279 99.009 89.6781 99.009 90.2184V92.3359H98.3957V90.2842C98.3957 89.5297 98.0841 89.1524 97.4611 89.1524C97.1495 89.1524 96.8891 89.2668 96.6798 89.4956C96.4753 89.7195 96.3731 90.0408 96.3731 90.4594V92.3359H95.7598Z" fill="#747474"/>
<path d="M101.581 92.4235C101.221 92.4235 100.905 92.3408 100.632 92.1753C100.364 92.0098 100.155 91.7834 100.004 91.4962C99.8579 91.209 99.7849 90.8829 99.7849 90.5178C99.7849 90.1527 99.8604 89.829 100.011 89.5467C100.162 89.2595 100.371 89.0356 100.639 88.8749C100.907 88.7094 101.223 88.6267 101.588 88.6267C101.885 88.6267 102.148 88.6875 102.377 88.8092C102.606 88.9309 102.783 89.1013 102.91 89.3203V87.0787H103.523V92.3359H102.968L102.91 91.7372C102.793 91.9124 102.625 92.0706 102.406 92.2118C102.187 92.353 101.912 92.4235 101.581 92.4235ZM101.647 91.8905C101.89 91.8905 102.104 91.8345 102.289 91.7226C102.479 91.6058 102.625 91.4451 102.727 91.2407C102.835 91.0362 102.888 90.7977 102.888 90.5251C102.888 90.2525 102.835 90.014 102.727 89.8095C102.625 89.6051 102.479 89.4469 102.289 89.3349C102.104 89.2181 101.89 89.1597 101.647 89.1597C101.408 89.1597 101.194 89.2181 101.004 89.3349C100.819 89.4469 100.673 89.6051 100.566 89.8095C100.464 90.014 100.413 90.2525 100.413 90.5251C100.413 90.7977 100.464 91.0362 100.566 91.2407C100.673 91.4451 100.819 91.6058 101.004 91.7226C101.194 91.8345 101.408 91.8905 101.647 91.8905Z" fill="#747474"/>
<path d="M106.492 92.3359V87.2248H107.208L109.048 90.788L110.873 87.2248H111.596V92.3359H110.983V88.32L109.274 91.6058H108.814L107.105 88.3273V92.3359H106.492Z" fill="#747474"/>
<path d="M113.842 92.4235C113.541 92.4235 113.29 92.3724 113.09 92.2702C112.891 92.168 112.742 92.0317 112.645 91.8613C112.548 91.6909 112.499 91.506 112.499 91.3064C112.499 90.9364 112.64 90.6517 112.922 90.4521C113.205 90.2525 113.589 90.1527 114.076 90.1527H115.055V90.1089C115.055 89.7925 114.972 89.554 114.806 89.3934C114.641 89.2279 114.419 89.1451 114.142 89.1451C113.903 89.1451 113.696 89.2059 113.521 89.3276C113.351 89.4445 113.244 89.6173 113.2 89.8461H112.572C112.596 89.5832 112.684 89.3617 112.835 89.1816C112.991 89.0015 113.183 88.8652 113.412 88.7727C113.64 88.6754 113.884 88.6267 114.142 88.6267C114.648 88.6267 115.028 88.763 115.281 89.0356C115.539 89.3033 115.668 89.6611 115.668 90.1089V92.3359H115.12L115.084 91.6861C114.982 91.8905 114.831 92.0658 114.631 92.2118C114.436 92.353 114.173 92.4235 113.842 92.4235ZM113.937 91.9051C114.171 91.9051 114.371 91.8443 114.536 91.7226C114.706 91.6009 114.835 91.4427 114.923 91.248C115.011 91.0533 115.055 90.8488 115.055 90.6346V90.6273H114.127C113.767 90.6273 113.511 90.6906 113.361 90.8172C113.215 90.9389 113.142 91.0922 113.142 91.2772C113.142 91.467 113.21 91.6204 113.346 91.7372C113.487 91.8491 113.684 91.9051 113.937 91.9051Z" fill="#747474"/>
<path d="M116.588 92.3359V88.7143H117.143L117.179 89.3641C117.296 89.1354 117.464 88.9553 117.683 88.8238C117.902 88.6924 118.151 88.6267 118.428 88.6267C118.856 88.6267 119.197 88.7581 119.45 89.021C119.708 89.279 119.837 89.6781 119.837 90.2184V92.3359H119.224V90.2842C119.224 89.5297 118.912 89.1524 118.289 89.1524C117.978 89.1524 117.717 89.2668 117.508 89.4956C117.304 89.7195 117.201 90.0408 117.201 90.4594V92.3359H116.588Z" fill="#747474"/>
<path d="M121.971 92.4235C121.669 92.4235 121.419 92.3724 121.219 92.2702C121.02 92.168 120.871 92.0317 120.774 91.8613C120.676 91.6909 120.628 91.506 120.628 91.3064C120.628 90.9364 120.769 90.6517 121.051 90.4521C121.334 90.2525 121.718 90.1527 122.205 90.1527H123.183V90.1089C123.183 89.7925 123.101 89.554 122.935 89.3934C122.77 89.2279 122.548 89.1451 122.271 89.1451C122.032 89.1451 121.825 89.2059 121.65 89.3276C121.48 89.4445 121.372 89.6173 121.329 89.8461H120.701C120.725 89.5832 120.813 89.3617 120.964 89.1816C121.119 89.0015 121.312 88.8652 121.54 88.7727C121.769 88.6754 122.013 88.6267 122.271 88.6267C122.777 88.6267 123.157 88.763 123.41 89.0356C123.668 89.3033 123.797 89.6611 123.797 90.1089V92.3359H123.249L123.213 91.6861C123.11 91.8905 122.959 92.0658 122.76 92.2118C122.565 92.353 122.302 92.4235 121.971 92.4235ZM122.066 91.9051C122.3 91.9051 122.499 91.8443 122.665 91.7226C122.835 91.6009 122.964 91.4427 123.052 91.248C123.139 91.0533 123.183 90.8488 123.183 90.6346V90.6273H122.256C121.896 90.6273 121.64 90.6906 121.489 90.8172C121.343 90.9389 121.27 91.0922 121.27 91.2772C121.27 91.467 121.338 91.6204 121.475 91.7372C121.616 91.8491 121.813 91.9051 122.066 91.9051Z" fill="#747474"/>
<path d="M126.148 91.1969C125.943 91.1969 125.756 91.1701 125.586 91.1165L125.221 91.4597C125.274 91.4987 125.34 91.5327 125.418 91.5619C125.5 91.5863 125.617 91.6106 125.768 91.635C125.919 91.6544 126.131 91.6763 126.403 91.7007C126.89 91.7347 127.238 91.8467 127.448 92.0365C127.657 92.2264 127.762 92.4746 127.762 92.7813C127.762 92.9906 127.703 93.1902 127.586 93.38C127.474 93.5699 127.299 93.7257 127.061 93.8474C126.827 93.969 126.525 94.0299 126.155 94.0299C125.829 94.0299 125.539 93.9861 125.286 93.8985C125.033 93.8157 124.836 93.6867 124.695 93.5115C124.554 93.3411 124.483 93.1245 124.483 92.8616C124.483 92.7253 124.52 92.5769 124.593 92.4162C124.666 92.2605 124.802 92.112 125.002 91.9708C124.894 91.927 124.802 91.8808 124.724 91.8321C124.651 91.7786 124.583 91.7201 124.52 91.6569V91.4889L125.14 90.8756C124.853 90.6322 124.709 90.3109 124.709 89.9118C124.709 89.6733 124.765 89.4566 124.877 89.2619C124.989 89.0672 125.152 88.9139 125.367 88.8019C125.581 88.6851 125.841 88.6267 126.148 88.6267C126.357 88.6267 126.547 88.6559 126.717 88.7143H128.054V89.1743L127.375 89.2035C127.516 89.408 127.586 89.644 127.586 89.9118C127.586 90.1503 127.528 90.3669 127.411 90.5616C127.299 90.7563 127.136 90.9121 126.922 91.0289C126.713 91.1409 126.455 91.1969 126.148 91.1969ZM126.148 90.693C126.406 90.693 126.61 90.6273 126.761 90.4959C126.917 90.3596 126.995 90.1649 126.995 89.9118C126.995 89.6635 126.917 89.4737 126.761 89.3422C126.61 89.2059 126.406 89.1378 126.148 89.1378C125.885 89.1378 125.676 89.2059 125.52 89.3422C125.369 89.4737 125.294 89.6635 125.294 89.9118C125.294 90.1649 125.369 90.3596 125.52 90.4959C125.676 90.6273 125.885 90.693 126.148 90.693ZM125.082 92.8032C125.082 93.0466 125.184 93.2267 125.389 93.3435C125.593 93.4652 125.849 93.5261 126.155 93.5261C126.457 93.5261 126.698 93.4604 126.878 93.3289C127.063 93.1975 127.156 93.0223 127.156 92.8032C127.156 92.6475 127.092 92.5112 126.966 92.3943C126.839 92.2824 126.605 92.2167 126.265 92.1972C125.997 92.1777 125.766 92.1534 125.571 92.1242C125.371 92.2313 125.24 92.3456 125.177 92.4673C125.113 92.5939 125.082 92.7059 125.082 92.8032Z" fill="#747474"/>
<path d="M130.231 92.4235C129.886 92.4235 129.579 92.3456 129.311 92.1899C129.043 92.0292 128.832 91.8078 128.676 91.5254C128.525 91.2431 128.45 90.9097 128.45 90.5251C128.45 90.1454 128.525 89.8144 128.676 89.5321C128.827 89.2449 129.036 89.0234 129.304 88.8676C129.576 88.707 129.89 88.6267 130.246 88.6267C130.596 88.6267 130.898 88.707 131.151 88.8676C131.409 89.0234 131.606 89.2303 131.743 89.4883C131.879 89.7463 131.947 90.0237 131.947 90.3207C131.947 90.3742 131.945 90.4278 131.94 90.4813C131.94 90.5348 131.94 90.5957 131.94 90.6638H129.056C129.07 90.9413 129.133 91.1725 129.245 91.3575C129.362 91.5376 129.506 91.6739 129.676 91.7664C129.851 91.8589 130.036 91.9051 130.231 91.9051C130.484 91.9051 130.696 91.8467 130.866 91.7299C131.037 91.6131 131.161 91.4548 131.239 91.2553H131.845C131.747 91.5911 131.56 91.871 131.283 92.095C131.01 92.314 130.66 92.4235 130.231 92.4235ZM130.231 89.1451C129.939 89.1451 129.679 89.2352 129.45 89.4153C129.226 89.5905 129.097 89.8485 129.063 90.1892H131.341C131.326 89.8631 131.214 89.6075 131.005 89.4226C130.796 89.2376 130.538 89.1451 130.231 89.1451Z" fill="#747474"/>
<path d="M132.76 92.3359V88.7143H133.315L133.359 89.24C133.476 89.0453 133.631 88.8944 133.826 88.7873C134.021 88.6802 134.24 88.6267 134.483 88.6267C134.77 88.6267 135.016 88.6851 135.221 88.8019C135.43 88.9187 135.591 89.0964 135.703 89.3349C135.829 89.1159 136.002 88.9431 136.221 88.8165C136.445 88.69 136.686 88.6267 136.944 88.6267C137.377 88.6267 137.723 88.7581 137.981 89.021C138.239 89.279 138.368 89.6781 138.368 90.2184V92.3359H137.762V90.2842C137.762 89.9093 137.686 89.627 137.535 89.4372C137.384 89.2473 137.168 89.1524 136.885 89.1524C136.593 89.1524 136.35 89.2668 136.155 89.4956C135.965 89.7195 135.87 90.0408 135.87 90.4594V92.3359H135.257V90.2842C135.257 89.9093 135.182 89.627 135.031 89.4372C134.88 89.2473 134.663 89.1524 134.381 89.1524C134.094 89.1524 133.853 89.2668 133.658 89.4956C133.468 89.7195 133.373 90.0408 133.373 90.4594V92.3359H132.76Z" fill="#747474"/>
<path d="M140.92 92.4235C140.574 92.4235 140.267 92.3456 140 92.1899C139.732 92.0292 139.52 91.8078 139.365 91.5254C139.214 91.2431 139.138 90.9097 139.138 90.5251C139.138 90.1454 139.214 89.8144 139.365 89.5321C139.515 89.2449 139.725 89.0234 139.992 88.8676C140.265 88.707 140.579 88.6267 140.934 88.6267C141.285 88.6267 141.587 88.707 141.84 88.8676C142.098 89.0234 142.295 89.2303 142.431 89.4883C142.568 89.7463 142.636 90.0237 142.636 90.3207C142.636 90.3742 142.633 90.4278 142.628 90.4813C142.628 90.5348 142.628 90.5957 142.628 90.6638H139.744C139.759 90.9413 139.822 91.1725 139.934 91.3575C140.051 91.5376 140.194 91.6739 140.365 91.7664C140.54 91.8589 140.725 91.9051 140.92 91.9051C141.173 91.9051 141.385 91.8467 141.555 91.7299C141.725 91.6131 141.85 91.4548 141.927 91.2553H142.533C142.436 91.5911 142.249 91.871 141.971 92.095C141.699 92.314 141.348 92.4235 140.92 92.4235ZM140.92 89.1451C140.628 89.1451 140.367 89.2352 140.138 89.4153C139.915 89.5905 139.786 89.8485 139.752 90.1892H142.03C142.015 89.8631 141.903 89.6075 141.694 89.4226C141.484 89.2376 141.226 89.1451 140.92 89.1451Z" fill="#747474"/>
<path d="M143.449 92.3359V88.7143H144.004L144.04 89.3641C144.157 89.1354 144.325 88.9553 144.544 88.8238C144.763 88.6924 145.011 88.6267 145.289 88.6267C145.717 88.6267 146.058 88.7581 146.311 89.021C146.569 89.279 146.698 89.6781 146.698 90.2184V92.3359H146.084V90.2842C146.084 89.5297 145.773 89.1524 145.15 89.1524C144.838 89.1524 144.578 89.2668 144.369 89.4956C144.164 89.7195 144.062 90.0408 144.062 90.4594V92.3359H143.449Z" fill="#747474"/>
<path d="M149.058 92.3359C148.727 92.3359 148.467 92.2556 148.277 92.095C148.087 91.9343 147.992 91.6447 147.992 91.2261V89.2327H147.364V88.7143H147.992L148.072 87.8454H148.605V88.7143H149.672V89.2327H148.605V91.2261C148.605 91.4548 148.652 91.6106 148.744 91.6934C148.837 91.7713 149 91.8102 149.233 91.8102H149.613V92.3359H149.058Z" fill="#747474"/>
<path d="M150.339 93.2048L150.763 91.5911H151.398L150.763 93.2048H150.339Z" fill="#747474"/>
<path d="M155.147 92.3432L153.745 87.2248H154.402L155.505 91.6131L156.76 87.2248H157.439L158.659 91.6131L159.776 87.2248H160.433L159.002 92.3359H158.301L157.082 88.1156L155.833 92.3359L155.147 92.3432Z" fill="#747474"/>
<path d="M162.375 92.4235C162.03 92.4235 161.723 92.3456 161.455 92.1899C161.188 92.0292 160.976 91.8078 160.82 91.5254C160.669 91.2431 160.594 90.9097 160.594 90.5251C160.594 90.1454 160.669 89.8144 160.82 89.5321C160.971 89.2449 161.18 89.0234 161.448 88.8676C161.721 88.707 162.035 88.6267 162.39 88.6267C162.741 88.6267 163.042 88.707 163.295 88.8676C163.553 89.0234 163.751 89.2303 163.887 89.4883C164.023 89.7463 164.091 90.0237 164.091 90.3207C164.091 90.3742 164.089 90.4278 164.084 90.4813C164.084 90.5348 164.084 90.5957 164.084 90.6638H161.2C161.214 90.9413 161.278 91.1725 161.39 91.3575C161.507 91.5376 161.65 91.6739 161.821 91.7664C161.996 91.8589 162.181 91.9051 162.375 91.9051C162.629 91.9051 162.84 91.8467 163.011 91.7299C163.181 91.6131 163.305 91.4548 163.383 91.2553H163.989C163.892 91.5911 163.704 91.871 163.427 92.095C163.154 92.314 162.804 92.4235 162.375 92.4235ZM162.375 89.1451C162.083 89.1451 161.823 89.2352 161.594 89.4153C161.37 89.5905 161.241 89.8485 161.207 90.1892H163.485C163.471 89.8631 163.359 89.6075 163.149 89.4226C162.94 89.2376 162.682 89.1451 162.375 89.1451Z" fill="#747474"/>
<path d="M19.603 104.513L18.201 99.3942H18.8582L19.9607 103.782L21.2166 99.3942H21.8957L23.1151 103.782L24.2322 99.3942H24.8893L23.4582 104.505H22.7573L21.5379 100.285L20.2893 104.505L19.603 104.513Z" fill="#747474"/>
<path d="M26.4225 104.593C26.1207 104.593 25.87 104.542 25.6704 104.44C25.4708 104.337 25.3224 104.201 25.225 104.031C25.1276 103.86 25.079 103.675 25.079 103.476C25.079 103.106 25.2201 102.821 25.5025 102.621C25.7848 102.422 26.1693 102.322 26.6561 102.322H27.6345V102.278C27.6345 101.962 27.5518 101.723 27.3863 101.563C27.2208 101.397 26.9993 101.314 26.7218 101.314C26.4833 101.314 26.2764 101.375 26.1012 101.497C25.9308 101.614 25.8237 101.787 25.7799 102.015H25.152C25.1763 101.753 25.2639 101.531 25.4148 101.351C25.5706 101.171 25.7629 101.035 25.9917 100.942C26.2205 100.845 26.4638 100.796 26.7218 100.796C27.2281 100.796 27.6078 100.932 27.8609 101.205C28.1189 101.473 28.2479 101.83 28.2479 102.278V104.505H27.7003L27.6637 103.855C27.5615 104.06 27.4106 104.235 27.211 104.381C27.0163 104.522 26.7535 104.593 26.4225 104.593ZM26.5174 104.075C26.751 104.075 26.9506 104.014 27.1161 103.892C27.2865 103.77 27.4155 103.612 27.5031 103.417C27.5907 103.223 27.6345 103.018 27.6345 102.804V102.797H26.7072C26.347 102.797 26.0915 102.86 25.9406 102.987C25.7945 103.108 25.7215 103.262 25.7215 103.447C25.7215 103.636 25.7897 103.79 25.926 103.907C26.0671 104.019 26.2643 104.075 26.5174 104.075Z" fill="#747474"/>
<path d="M29.168 104.505V100.884H29.7229L29.7594 101.534C29.8763 101.305 30.0442 101.125 30.2632 100.993C30.4823 100.862 30.7305 100.796 31.008 100.796C31.4364 100.796 31.7771 100.928 32.0302 101.19C32.2882 101.448 32.4172 101.848 32.4172 102.388V104.505H31.8039V102.454C31.8039 101.699 31.4923 101.322 30.8693 101.322C30.5577 101.322 30.2973 101.436 30.088 101.665C29.8836 101.889 29.7813 102.21 29.7813 102.629V104.505H29.168Z" fill="#747474"/>
<path d="M34.7776 104.505C34.4466 104.505 34.1862 104.425 33.9963 104.264C33.8065 104.104 33.7116 103.814 33.7116 103.395V101.402H33.0836V100.884H33.7116L33.7919 100.015H34.3249V100.884H35.3909V101.402H34.3249V103.395C34.3249 103.624 34.3711 103.78 34.4636 103.863C34.5561 103.941 34.7192 103.98 34.9528 103.98H35.3325V104.505H34.7776Z" fill="#747474"/>
<path d="M39.4095 104.505V102.563L37.7447 99.3942H38.4384L39.7162 101.979L40.994 99.3942H41.6803L40.0228 102.563V104.505H39.4095Z" fill="#747474"/>
<path d="M43.3465 104.593C43.0057 104.593 42.699 104.515 42.4265 104.359C42.1539 104.204 41.9372 103.984 41.7766 103.702C41.6208 103.415 41.543 103.079 41.543 102.695C41.543 102.31 41.6233 101.977 41.7839 101.694C41.9445 101.407 42.1612 101.185 42.4338 101.03C42.7112 100.874 43.0203 100.796 43.3611 100.796C43.7018 100.796 44.0085 100.874 44.2811 101.03C44.5537 101.185 44.7678 101.407 44.9236 101.694C45.0843 101.977 45.1646 102.31 45.1646 102.695C45.1646 103.079 45.0843 103.415 44.9236 103.702C44.763 103.984 44.5439 104.204 44.2665 104.359C43.9939 104.515 43.6872 104.593 43.3465 104.593ZM43.3465 104.067C43.5558 104.067 43.7505 104.016 43.9306 103.914C44.1107 103.812 44.2567 103.658 44.3687 103.454C44.4806 103.249 44.5366 102.996 44.5366 102.695C44.5366 102.393 44.4806 102.14 44.3687 101.935C44.2616 101.731 44.118 101.577 43.9379 101.475C43.7578 101.373 43.5655 101.322 43.3611 101.322C43.1518 101.322 42.957 101.373 42.7769 101.475C42.5968 101.577 42.4508 101.731 42.3388 101.935C42.2269 102.14 42.1709 102.393 42.1709 102.695C42.1709 102.996 42.2269 103.249 42.3388 103.454C42.4508 103.658 42.5944 103.812 42.7696 103.914C42.9497 104.016 43.142 104.067 43.3465 104.067Z" fill="#747474"/>
<path d="M47.339 104.593C46.9106 104.593 46.5699 104.464 46.3167 104.206C46.0636 103.943 45.9371 103.541 45.9371 103.001V100.884H46.5504V102.935C46.5504 103.69 46.8595 104.067 47.4777 104.067C47.7941 104.067 48.0545 103.955 48.259 103.731C48.4683 103.503 48.573 103.179 48.573 102.76V100.884H49.1863V104.505H48.6314L48.5876 103.855C48.4756 104.084 48.3077 104.264 48.0837 104.396C47.8647 104.527 47.6164 104.593 47.339 104.593Z" fill="#747474"/>
<path d="M54.4866 104.593C53.9853 104.593 53.5447 104.483 53.1651 104.264C52.7902 104.04 52.4957 103.729 52.2816 103.33C52.0722 102.931 51.9676 102.471 51.9676 101.95C51.9676 101.429 52.0722 100.971 52.2816 100.577C52.4957 100.178 52.7902 99.8663 53.1651 99.6424C53.5447 99.4185 53.9853 99.3065 54.4866 99.3065C54.9929 99.3065 55.4334 99.4185 55.8082 99.6424C56.1879 99.8663 56.4824 100.178 56.6917 100.577C56.9011 100.971 57.0057 101.429 57.0057 101.95C57.0057 102.471 56.9011 102.931 56.6917 103.33C56.4824 103.729 56.1879 104.04 55.8082 104.264C55.4334 104.483 54.9929 104.593 54.4866 104.593ZM54.4866 104.053C54.8615 104.053 55.19 103.97 55.4724 103.804C55.7596 103.634 55.9811 103.393 56.1368 103.081C56.2975 102.765 56.3778 102.388 56.3778 101.95C56.3778 101.512 56.2975 101.137 56.1368 100.825C55.9811 100.514 55.7596 100.275 55.4724 100.11C55.19 99.9394 54.8615 99.8542 54.4866 99.8542C54.1118 99.8542 53.7808 99.9394 53.4936 100.11C53.2113 100.275 52.9898 100.514 52.8292 100.825C52.6734 101.137 52.5955 101.512 52.5955 101.95C52.5955 102.388 52.6734 102.765 52.8292 103.081C52.9898 103.393 53.2113 103.634 53.4936 103.804C53.7808 103.97 54.1118 104.053 54.4866 104.053Z" fill="#747474"/>
<path d="M59.1756 104.593C58.7472 104.593 58.4065 104.464 58.1534 104.206C57.9003 103.943 57.7737 103.541 57.7737 103.001V100.884H58.387V102.935C58.387 103.69 58.6961 104.067 59.3143 104.067C59.6307 104.067 59.8912 103.955 60.0956 103.731C60.3049 103.503 60.4096 103.179 60.4096 102.76V100.884H61.0229V104.505H60.468L60.4242 103.855C60.3122 104.084 60.1443 104.264 59.9204 104.396C59.7013 104.527 59.4531 104.593 59.1756 104.593Z" fill="#747474"/>
<path d="M62.0325 104.505V100.884H62.5874L62.6385 101.577C62.7505 101.339 62.9209 101.149 63.1496 101.008C63.3784 100.867 63.6608 100.796 63.9966 100.796V101.439H63.8287C63.6145 101.439 63.4174 101.478 63.2373 101.555C63.0572 101.628 62.9136 101.755 62.8065 101.935C62.6994 102.115 62.6458 102.363 62.6458 102.68V104.505H62.0325Z" fill="#747474"/>
<path d="M67.7053 104.513L66.3034 99.3942H66.9606L68.0631 103.782L69.319 99.3942H69.9981L71.2174 103.782L72.3346 99.3942H72.9917L71.5606 104.505H70.8597L69.6403 100.285L68.3917 104.505L67.7053 104.513Z" fill="#747474"/>
<path d="M74.5248 104.593C74.223 104.593 73.9724 104.542 73.7728 104.44C73.5732 104.337 73.4247 104.201 73.3274 104.031C73.23 103.86 73.1813 103.675 73.1813 103.476C73.1813 103.106 73.3225 102.821 73.6048 102.621C73.8872 102.422 74.2717 102.322 74.7585 102.322H75.7369V102.278C75.7369 101.962 75.6542 101.723 75.4887 101.563C75.3232 101.397 75.1017 101.314 74.8242 101.314C74.5857 101.314 74.3788 101.375 74.2036 101.497C74.0332 101.614 73.9261 101.787 73.8823 102.015H73.2544C73.2787 101.753 73.3663 101.531 73.5172 101.351C73.673 101.171 73.8653 101.035 74.0941 100.942C74.3228 100.845 74.5662 100.796 74.8242 100.796C75.3305 100.796 75.7102 100.932 75.9633 101.205C76.2213 101.473 76.3503 101.83 76.3503 102.278V104.505H75.8026L75.7661 103.855C75.6639 104.06 75.513 104.235 75.3134 104.381C75.1187 104.522 74.8559 104.593 74.5248 104.593ZM74.6198 104.075C74.8534 104.075 75.053 104.014 75.2185 103.892C75.3889 103.77 75.5179 103.612 75.6055 103.417C75.6931 103.223 75.7369 103.018 75.7369 102.804V102.797H74.8096C74.4494 102.797 74.1938 102.86 74.0429 102.987C73.8969 103.108 73.8239 103.262 73.8239 103.447C73.8239 103.636 73.892 103.79 74.0283 103.907C74.1695 104.019 74.3666 104.075 74.6198 104.075Z" fill="#747474"/>
<path d="M77.2704 104.505V100.884H77.8253L77.8764 101.577C77.9884 101.339 78.1587 101.149 78.3875 101.008C78.6163 100.867 78.8986 100.796 79.2345 100.796V101.439H79.0666C78.8524 101.439 78.6553 101.478 78.4752 101.555C78.295 101.628 78.1514 101.755 78.0444 101.935C77.9373 102.115 77.8837 102.363 77.8837 102.68V104.505H77.2704Z" fill="#747474"/>
<path d="M79.9229 104.505V100.884H80.4779L80.5217 101.409C80.6385 101.215 80.7943 101.064 80.989 100.957C81.1837 100.85 81.4027 100.796 81.6461 100.796C81.9333 100.796 82.1791 100.854 82.3836 100.971C82.5929 101.088 82.7535 101.266 82.8655 101.504C82.9921 101.285 83.1649 101.112 83.3839 100.986C83.6078 100.859 83.8488 100.796 84.1068 100.796C84.54 100.796 84.8856 100.928 85.1436 101.19C85.4016 101.448 85.5306 101.848 85.5306 102.388V104.505H84.9245V102.454C84.9245 102.079 84.8491 101.796 84.6982 101.607C84.5473 101.417 84.3307 101.322 84.0483 101.322C83.7563 101.322 83.5129 101.436 83.3182 101.665C83.1283 101.889 83.0334 102.21 83.0334 102.629V104.505H82.4201V102.454C82.4201 102.079 82.3446 101.796 82.1937 101.607C82.0428 101.417 81.8262 101.322 81.5439 101.322C81.2567 101.322 81.0157 101.436 80.821 101.665C80.6312 101.889 80.5363 102.21 80.5363 102.629V104.505H79.9229Z" fill="#747474"/>
<path d="M88.0827 104.593C87.7371 104.593 87.4305 104.515 87.1627 104.359C86.895 104.199 86.6833 103.977 86.5275 103.695C86.3766 103.412 86.3011 103.079 86.3011 102.695C86.3011 102.315 86.3766 101.984 86.5275 101.701C86.6784 101.414 86.8877 101.193 87.1554 101.037C87.428 100.876 87.742 100.796 88.0973 100.796C88.4478 100.796 88.7496 100.876 89.0027 101.037C89.2607 101.193 89.4579 101.4 89.5942 101.658C89.7305 101.916 89.7986 102.193 89.7986 102.49C89.7986 102.544 89.7962 102.597 89.7913 102.651C89.7913 102.704 89.7913 102.765 89.7913 102.833H86.9072C86.9218 103.111 86.9851 103.342 87.097 103.527C87.2138 103.707 87.3574 103.843 87.5278 103.936C87.703 104.028 87.888 104.075 88.0827 104.075C88.3359 104.075 88.5476 104.016 88.718 103.899C88.8883 103.782 89.0125 103.624 89.0904 103.425H89.6964C89.599 103.761 89.4116 104.04 89.1342 104.264C88.8616 104.483 88.5111 104.593 88.0827 104.593ZM88.0827 101.314C87.7907 101.314 87.5302 101.405 87.3015 101.585C87.0775 101.76 86.9485 102.018 86.9145 102.359H89.1926C89.178 102.032 89.066 101.777 88.8567 101.592C88.6474 101.407 88.3894 101.314 88.0827 101.314Z" fill="#747474"/>
<path d="M91.9989 104.593C91.5656 104.593 91.2054 104.483 90.9182 104.264C90.631 104.045 90.4631 103.748 90.4144 103.374H91.0424C91.0813 103.563 91.1811 103.729 91.3417 103.87C91.5072 104.006 91.7287 104.075 92.0062 104.075C92.2642 104.075 92.454 104.021 92.5757 103.914C92.6974 103.802 92.7582 103.67 92.7582 103.52C92.7582 103.301 92.6779 103.155 92.5173 103.081C92.3615 103.008 92.14 102.943 91.8528 102.884C91.6581 102.845 91.4634 102.789 91.2687 102.716C91.074 102.643 90.9109 102.541 90.7795 102.41C90.6481 102.273 90.5824 102.096 90.5824 101.877C90.5824 101.56 90.6992 101.302 90.9328 101.103C91.1713 100.898 91.4926 100.796 91.8966 100.796C92.2812 100.796 92.5952 100.893 92.8386 101.088C93.0868 101.278 93.2304 101.551 93.2693 101.906H92.6633C92.639 101.721 92.5587 101.577 92.4224 101.475C92.2909 101.368 92.1133 101.314 91.8893 101.314C91.6703 101.314 91.4999 101.361 91.3782 101.453C91.2614 101.546 91.203 101.667 91.203 101.818C91.203 101.964 91.2784 102.079 91.4293 102.161C91.5851 102.244 91.7944 102.315 92.0573 102.373C92.2812 102.422 92.4929 102.483 92.6925 102.556C92.897 102.624 93.0625 102.729 93.189 102.87C93.3205 103.006 93.3862 103.206 93.3862 103.468C93.391 103.795 93.2669 104.065 93.0138 104.279C92.7655 104.488 92.4272 104.593 91.9989 104.593Z" fill="#747474"/>
<path d="M95.5295 104.505C95.1985 104.505 94.9381 104.425 94.7482 104.264C94.5584 104.104 94.4635 103.814 94.4635 103.395V101.402H93.8355V100.884H94.4635L94.5438 100.015H95.0768V100.884H96.1428V101.402H95.0768V103.395C95.0768 103.624 95.123 103.78 95.2155 103.863C95.308 103.941 95.4711 103.98 95.7047 103.98H96.0844V104.505H95.5295Z" fill="#747474"/>
<path d="M99.9424 104.513L98.5404 99.3942H99.1976L100.3 103.782L101.556 99.3942H102.235L103.454 103.782L104.572 99.3942H105.229L103.798 104.505H103.097L101.877 100.285L100.629 104.505L99.9424 104.513Z" fill="#747474"/>
<path d="M107.171 104.593C106.825 104.593 106.519 104.515 106.251 104.359C105.983 104.199 105.772 103.977 105.616 103.695C105.465 103.412 105.389 103.079 105.389 102.695C105.389 102.315 105.465 101.984 105.616 101.701C105.767 101.414 105.976 101.193 106.244 101.037C106.516 100.876 106.83 100.796 107.186 100.796C107.536 100.796 107.838 100.876 108.091 101.037C108.349 101.193 108.546 101.4 108.683 101.658C108.819 101.916 108.887 102.193 108.887 102.49C108.887 102.544 108.885 102.597 108.88 102.651C108.88 102.704 108.88 102.765 108.88 102.833H105.996C106.01 103.111 106.073 103.342 106.185 103.527C106.302 103.707 106.446 103.843 106.616 103.936C106.791 104.028 106.976 104.075 107.171 104.075C107.424 104.075 107.636 104.016 107.806 103.899C107.977 103.782 108.101 103.624 108.179 103.425H108.785C108.687 103.761 108.5 104.04 108.223 104.264C107.95 104.483 107.599 104.593 107.171 104.593ZM107.171 101.314C106.879 101.314 106.619 101.405 106.39 101.585C106.166 101.76 106.037 102.018 106.003 102.359H108.281C108.266 102.032 108.154 101.777 107.945 101.592C107.736 101.407 107.478 101.314 107.171 101.314Z" fill="#747474"/>
<path d="M109.7 104.505V99.2481H110.313V104.505H109.7Z" fill="#747474"/>
<path d="M112.983 104.593C112.638 104.593 112.326 104.515 112.049 104.359C111.776 104.199 111.559 103.977 111.399 103.695C111.243 103.408 111.165 103.074 111.165 102.695C111.165 102.315 111.243 101.984 111.399 101.701C111.559 101.414 111.776 101.193 112.049 101.037C112.326 100.876 112.638 100.796 112.983 100.796C113.412 100.796 113.772 100.908 114.064 101.132C114.361 101.356 114.548 101.655 114.626 102.03H113.998C113.95 101.806 113.83 101.633 113.64 101.512C113.451 101.385 113.229 101.322 112.976 101.322C112.772 101.322 112.579 101.373 112.399 101.475C112.219 101.577 112.073 101.731 111.961 101.935C111.849 102.14 111.793 102.393 111.793 102.695C111.793 102.996 111.849 103.249 111.961 103.454C112.073 103.658 112.219 103.814 112.399 103.921C112.579 104.023 112.772 104.075 112.976 104.075C113.229 104.075 113.451 104.014 113.64 103.892C113.83 103.765 113.95 103.588 113.998 103.359H114.626C114.553 103.724 114.368 104.021 114.071 104.25C113.774 104.479 113.412 104.593 112.983 104.593Z" fill="#747474"/>
<path d="M117.133 104.593C116.792 104.593 116.486 104.515 116.213 104.359C115.94 104.204 115.724 103.984 115.563 103.702C115.407 103.415 115.329 103.079 115.329 102.695C115.329 102.31 115.41 101.977 115.57 101.694C115.731 101.407 115.948 101.185 116.22 101.03C116.498 100.874 116.807 100.796 117.148 100.796C117.488 100.796 117.795 100.874 118.068 101.03C118.34 101.185 118.554 101.407 118.71 101.694C118.871 101.977 118.951 102.31 118.951 102.695C118.951 103.079 118.871 103.415 118.71 103.702C118.549 103.984 118.33 104.204 118.053 104.359C117.78 104.515 117.474 104.593 117.133 104.593ZM117.133 104.067C117.342 104.067 117.537 104.016 117.717 103.914C117.897 103.812 118.043 103.658 118.155 103.454C118.267 103.249 118.323 102.996 118.323 102.695C118.323 102.393 118.267 102.14 118.155 101.935C118.048 101.731 117.904 101.577 117.724 101.475C117.544 101.373 117.352 101.322 117.148 101.322C116.938 101.322 116.744 101.373 116.563 101.475C116.383 101.577 116.237 101.731 116.125 101.935C116.013 102.14 115.957 102.393 115.957 102.695C115.957 102.996 116.013 103.249 116.125 103.454C116.237 103.658 116.381 103.812 116.556 103.914C116.736 104.016 116.928 104.067 117.133 104.067Z" fill="#747474"/>
<path d="M119.804 104.505V100.884H120.359L120.403 101.409C120.519 101.215 120.675 101.064 120.87 100.957C121.065 100.85 121.284 100.796 121.527 100.796C121.814 100.796 122.06 100.854 122.264 100.971C122.474 101.088 122.634 101.266 122.746 101.504C122.873 101.285 123.046 101.112 123.265 100.986C123.489 100.859 123.73 100.796 123.988 100.796C124.421 100.796 124.767 100.928 125.025 101.19C125.283 101.448 125.411 101.848 125.411 102.388V104.505H124.805V102.454C124.805 102.079 124.73 101.796 124.579 101.607C124.428 101.417 124.212 101.322 123.929 101.322C123.637 101.322 123.394 101.436 123.199 101.665C123.009 101.889 122.914 102.21 122.914 102.629V104.505H122.301V102.454C122.301 102.079 122.226 101.796 122.075 101.607C121.924 101.417 121.707 101.322 121.425 101.322C121.138 101.322 120.897 101.436 120.702 101.665C120.512 101.889 120.417 102.21 120.417 102.629V104.505H119.804Z" fill="#747474"/>
<path d="M127.964 104.593C127.618 104.593 127.311 104.515 127.044 104.359C126.776 104.199 126.564 103.977 126.408 103.695C126.257 103.412 126.182 103.079 126.182 102.695C126.182 102.315 126.257 101.984 126.408 101.701C126.559 101.414 126.769 101.193 127.036 101.037C127.309 100.876 127.623 100.796 127.978 100.796C128.329 100.796 128.631 100.876 128.884 101.037C129.142 101.193 129.339 101.4 129.475 101.658C129.611 101.916 129.68 102.193 129.68 102.49C129.68 102.544 129.677 102.597 129.672 102.651C129.672 102.704 129.672 102.765 129.672 102.833H126.788C126.803 103.111 126.866 103.342 126.978 103.527C127.095 103.707 127.238 103.843 127.409 103.936C127.584 104.028 127.769 104.075 127.964 104.075C128.217 104.075 128.429 104.016 128.599 103.899C128.769 103.782 128.893 103.624 128.971 103.425H129.577C129.48 103.761 129.293 104.04 129.015 104.264C128.742 104.483 128.392 104.593 127.964 104.593ZM127.964 101.314C127.672 101.314 127.411 101.405 127.182 101.585C126.958 101.76 126.829 102.018 126.795 102.359H129.073C129.059 102.032 128.947 101.777 128.738 101.592C128.528 101.407 128.27 101.314 127.964 101.314Z" fill="#747474"/>
<path d="M130.704 104.542C130.583 104.542 130.48 104.503 130.398 104.425C130.32 104.342 130.281 104.242 130.281 104.126C130.281 104.009 130.32 103.911 130.398 103.834C130.48 103.751 130.583 103.709 130.704 103.709C130.821 103.709 130.918 103.751 130.996 103.834C131.079 103.911 131.12 104.009 131.12 104.126C131.12 104.242 131.079 104.342 130.996 104.425C130.918 104.503 130.821 104.542 130.704 104.542Z" fill="#747474"/>
<path d="M21.8665 77.3627C21.185 77.3627 20.5879 77.2134 20.0752 76.9149C19.5689 76.6163 19.1698 76.2042 18.8777 75.6785C18.5921 75.1463 18.4493 74.5329 18.4493 73.8385C18.4493 73.144 18.5921 72.5339 18.8777 72.0082C19.1698 71.476 19.5689 71.0606 20.0752 70.762C20.5879 70.4635 21.185 70.3142 21.8665 70.3142C22.5415 70.3142 23.1354 70.4635 23.6481 70.762C24.1608 71.0606 24.56 71.476 24.8456 72.0082C25.1312 72.5339 25.2739 73.144 25.2739 73.8385C25.2739 74.5329 25.1312 75.1463 24.8456 75.6785C24.56 76.2042 24.1608 76.6163 23.6481 76.9149C23.1354 77.2134 22.5415 77.3627 21.8665 77.3627ZM21.8665 76.2431C22.5155 76.2431 23.0315 76.029 23.4145 75.6006C23.8039 75.1722 23.9986 74.5849 23.9986 73.8385C23.9986 73.0921 23.8039 72.5047 23.4145 72.0763C23.0315 71.648 22.5155 71.4338 21.8665 71.4338C21.2175 71.4338 20.6982 71.648 20.3088 72.0763C19.9194 72.5047 19.7247 73.0921 19.7247 73.8385C19.7247 74.5849 19.9194 75.1722 20.3088 75.6006C20.6982 76.029 21.2175 76.2431 21.8665 76.2431Z" fill="#22254F"/>
<path d="M26.345 77.2459V70.2363H27.5911V77.2459H26.345Z" fill="#22254F"/>
<path d="M28.8644 77.2459V70.2363H30.1106V77.2459H28.8644Z" fill="#22254F"/>
<path d="M31.9875 79.3877L33.1071 76.9246H32.815L30.9361 72.4171H32.2893L33.6425 75.8148L35.0542 72.4171H36.3782L33.3115 79.3877H31.9875Z" fill="#22254F"/>
<path d="M40.9243 77.2459L39.1232 70.431H40.457L41.6837 75.8537L43.1245 70.431H44.4972L45.8992 75.8537L47.1258 70.431H48.4693L46.6196 77.2459H45.1398L43.7866 72.1932L42.3944 77.2459H40.9243Z" fill="#22254F"/>
<path d="M51.1761 77.3627C50.6893 77.3627 50.2577 77.2589 49.8813 77.0512C49.5048 76.8435 49.2095 76.5514 48.9954 76.175C48.7812 75.7986 48.6741 75.3637 48.6741 74.8704C48.6741 74.3707 48.7779 73.9261 48.9856 73.5367C49.1998 73.1472 49.4919 72.8454 49.8618 72.6313C50.2383 72.4106 50.6796 72.3003 51.1858 72.3003C51.6596 72.3003 52.0783 72.4041 52.4417 72.6118C52.8052 72.8195 53.0875 73.1051 53.2887 73.4685C53.4964 73.8255 53.6003 74.2246 53.6003 74.666C53.6003 74.7374 53.597 74.812 53.5905 74.8899C53.5905 74.9678 53.5873 75.0489 53.5808 75.1333H49.9105C49.9365 75.5097 50.0663 75.805 50.2999 76.0192C50.5401 76.2334 50.8289 76.3405 51.1664 76.3405C51.4195 76.3405 51.6304 76.2853 51.7992 76.175C51.9744 76.0582 52.1042 75.9089 52.1886 75.7272H53.4542C53.3634 76.0322 53.2108 76.3113 52.9967 76.5644C52.789 76.811 52.5294 77.0058 52.2178 77.1485C51.9128 77.2913 51.5655 77.3627 51.1761 77.3627ZM51.1858 73.3128C50.8808 73.3128 50.6115 73.4004 50.3778 73.5756C50.1441 73.7444 49.9949 74.004 49.93 74.3545H52.3346C52.3152 74.0364 52.1983 73.7833 51.9842 73.5951C51.77 73.4069 51.5039 73.3128 51.1858 73.3128Z" fill="#22254F"/>
<path d="M57.5106 77.3627C57.1471 77.3627 56.8291 77.2946 56.5565 77.1583C56.2839 77.022 56.0632 76.8305 55.8945 76.5839L55.7582 77.2459H54.6483V70.2363H55.8945V73.1083C56.0503 72.8941 56.2547 72.7059 56.5078 72.5436C56.7674 72.3814 57.1017 72.3003 57.5106 72.3003C57.9649 72.3003 58.3706 72.4106 58.7275 72.6313C59.0845 72.8519 59.3668 73.1537 59.5745 73.5367C59.7822 73.9196 59.8861 74.3545 59.8861 74.8412C59.8861 75.328 59.7822 75.7629 59.5745 76.1458C59.3668 76.5222 59.0845 76.8208 58.7275 77.0415C58.3706 77.2556 57.9649 77.3627 57.5106 77.3627ZM57.2477 76.2723C57.6436 76.2723 57.9714 76.1393 58.231 75.8732C58.4906 75.6071 58.6204 75.2631 58.6204 74.8412C58.6204 74.4194 58.4906 74.0721 58.231 73.7995C57.9714 73.5269 57.6436 73.3906 57.2477 73.3906C56.8453 73.3906 56.5143 73.5269 56.2547 73.7995C56.0016 74.0656 55.875 74.4096 55.875 74.8315C55.875 75.2534 56.0016 75.6006 56.2547 75.8732C56.5143 76.1393 56.8453 76.2723 57.2477 76.2723Z" fill="#22254F"/>
<path d="M62.995 77.3627C62.5667 77.3627 62.1902 77.2946 61.8657 77.1583C61.5412 77.0155 61.2816 76.8208 61.0869 76.5741C60.8922 76.3275 60.7753 76.0419 60.7364 75.7174H61.9923C62.0312 75.9056 62.1351 76.0679 62.3038 76.2042C62.479 76.334 62.703 76.3989 62.9756 76.3989C63.2482 76.3989 63.4461 76.3437 63.5694 76.2334C63.6992 76.1231 63.7641 75.9965 63.7641 75.8537C63.7641 75.646 63.6733 75.5065 63.4915 75.4351C63.3098 75.3572 63.0567 75.2826 62.7322 75.2112C62.5245 75.1657 62.3135 75.1106 62.0994 75.0457C61.8852 74.9808 61.6872 74.8996 61.5055 74.8023C61.3303 74.6984 61.1875 74.5686 61.0771 74.4129C60.9668 74.2506 60.9116 74.0527 60.9116 73.819C60.9116 73.3906 61.0804 73.0304 61.4179 72.7384C61.7619 72.4463 62.2421 72.3003 62.8587 72.3003C63.4299 72.3003 63.8842 72.4333 64.2217 72.6994C64.5657 72.9655 64.7701 73.3322 64.835 73.7995H63.657C63.5857 73.4426 63.3163 73.2641 62.849 73.2641C62.6153 73.2641 62.4336 73.3095 62.3038 73.4004C62.1805 73.4912 62.1188 73.6048 62.1188 73.7411C62.1188 73.8839 62.2129 73.9975 62.4012 74.0819C62.5894 74.1662 62.8393 74.2441 63.1508 74.3155C63.4883 74.3934 63.7966 74.481 64.0757 74.5784C64.3612 74.6692 64.5884 74.8088 64.7572 74.997C64.9259 75.1787 65.0103 75.4416 65.0103 75.7856C65.0168 76.0841 64.9389 76.3535 64.7766 76.5936C64.6144 76.8338 64.3807 77.022 64.0757 77.1583C63.7706 77.2946 63.4104 77.3627 62.995 77.3627Z" fill="#22254F"/>
<path d="M66.7859 71.6674C66.5588 71.6674 66.3706 71.5993 66.2213 71.463C66.0785 71.3267 66.0071 71.1547 66.0071 70.947C66.0071 70.7393 66.0785 70.5706 66.2213 70.4408C66.3706 70.3045 66.5588 70.2363 66.7859 70.2363C67.0131 70.2363 67.1981 70.3045 67.3409 70.4408C67.4902 70.5706 67.5648 70.7393 67.5648 70.947C67.5648 71.1547 67.4902 71.3267 67.3409 71.463C67.1981 71.5993 67.0131 71.6674 66.7859 71.6674ZM66.1629 77.2459V72.4171H67.409V77.2459H66.1629Z" fill="#22254F"/>
<path d="M70.8613 77.2459C70.355 77.2459 69.9494 77.1226 69.6443 76.8759C69.3393 76.6293 69.1867 76.1912 69.1867 75.5617V73.4588H68.3592V72.4171H69.1867L69.3328 71.1223H70.4329V72.4171H71.7374V73.4588H70.4329V75.5714C70.4329 75.805 70.4816 75.9673 70.5789 76.0582C70.6828 76.1425 70.858 76.1847 71.1046 76.1847H71.7082V77.2459H70.8613Z" fill="#22254F"/>
<path d="M75.03 77.3627C74.5433 77.3627 74.1116 77.2589 73.7352 77.0512C73.3588 76.8435 73.0635 76.5514 72.8493 76.175C72.6351 75.7986 72.528 75.3637 72.528 74.8704C72.528 74.3707 72.6318 73.9261 72.8395 73.5367C73.0537 73.1472 73.3458 72.8454 73.7157 72.6313C74.0922 72.4106 74.5335 72.3003 75.0398 72.3003C75.5136 72.3003 75.9322 72.4041 76.2956 72.6118C76.6591 72.8195 76.9414 73.1051 77.1426 73.4685C77.3503 73.8255 77.4542 74.2246 77.4542 74.666C77.4542 74.7374 77.4509 74.812 77.4444 74.8899C77.4444 74.9678 77.4412 75.0489 77.4347 75.1333H73.7644C73.7904 75.5097 73.9202 75.805 74.1538 76.0192C74.394 76.2334 74.6828 76.3405 75.0203 76.3405C75.2734 76.3405 75.4844 76.2853 75.6531 76.175C75.8283 76.0582 75.9581 75.9089 76.0425 75.7272H77.3081C77.2173 76.0322 77.0648 76.3113 76.8506 76.5644C76.6429 76.811 76.3833 77.0058 76.0717 77.1485C75.7667 77.2913 75.4194 77.3627 75.03 77.3627ZM75.0398 73.3128C74.7347 73.3128 74.4654 73.4004 74.2317 73.5756C73.9981 73.7444 73.8488 74.004 73.7839 74.3545H76.1886C76.1691 74.0364 76.0523 73.7833 75.8381 73.5951C75.6239 73.4069 75.3578 73.3128 75.0398 73.3128Z" fill="#22254F"/>
<path d="M80.8513 77.2459V70.431H82.0974V76.2723H85.1154V77.2459H80.8513Z" fill="#22254F"/>
<path d="M86.8559 71.6674C86.6288 71.6674 86.4406 71.5993 86.2913 71.463C86.1485 71.3267 86.0771 71.1547 86.0771 70.947C86.0771 70.7393 86.1485 70.5706 86.2913 70.4408C86.4406 70.3045 86.6288 70.2363 86.8559 70.2363C87.0831 70.2363 87.2681 70.3045 87.4109 70.4408C87.5602 70.5706 87.6348 70.7393 87.6348 70.947C87.6348 71.1547 87.5602 71.3267 87.4109 71.463C87.2681 71.5993 87.0831 71.6674 86.8559 71.6674ZM86.2329 77.2459V72.4171H87.479V77.2459H86.2329Z" fill="#22254F"/>
<path d="M90.0843 77.2459L88.3124 72.4171H89.617L90.8436 76.0679L92.0703 72.4171H93.3749L91.5933 77.2459H90.0843Z" fill="#22254F"/>
<path d="M96.2694 77.3627C95.7826 77.3627 95.3511 77.2589 94.9746 77.0512C94.5982 76.8435 94.3029 76.5514 94.0887 76.175C93.8745 75.7986 93.7674 75.3637 93.7674 74.8704C93.7674 74.3707 93.8712 73.9261 94.0789 73.5367C94.2931 73.1472 94.5852 72.8454 94.9551 72.6313C95.3316 72.4106 95.7729 72.3003 96.2792 72.3003C96.753 72.3003 97.1716 72.4041 97.535 72.6118C97.8985 72.8195 98.1808 73.1051 98.382 73.4685C98.5897 73.8255 98.6936 74.2246 98.6936 74.666C98.6936 74.7374 98.6903 74.812 98.6838 74.8899C98.6838 74.9678 98.6806 75.0489 98.6741 75.1333H95.0038C95.0298 75.5097 95.1596 75.805 95.3932 76.0192C95.6334 76.2334 95.9222 76.3405 96.2597 76.3405C96.5128 76.3405 96.7237 76.2853 96.8925 76.175C97.0677 76.0582 97.1975 75.9089 97.2819 75.7272H98.5475C98.4567 76.0322 98.3042 76.3113 98.09 76.5644C97.8823 76.811 97.6227 77.0058 97.3111 77.1485C97.0061 77.2913 96.6588 77.3627 96.2694 77.3627ZM96.2792 73.3128C95.9741 73.3128 95.7048 73.4004 95.4711 73.5756C95.2375 73.7444 95.0882 74.004 95.0233 74.3545H97.428C97.4085 74.0364 97.2917 73.7833 97.0775 73.5951C96.8633 73.4069 96.5972 73.3128 96.2792 73.3128Z" fill="#22254F"/>
<path d="M159.265 55.8273V50.3754H159.919V55.3054H162.458V55.8273H159.265Z" fill="#666363"/>
<path d="M164.603 55.9207C164.281 55.9207 164.014 55.8662 163.801 55.7572C163.588 55.6481 163.43 55.5027 163.326 55.321C163.222 55.1393 163.17 54.942 163.17 54.7291C163.17 54.3345 163.321 54.0307 163.622 53.8178C163.923 53.605 164.333 53.4985 164.852 53.4985H165.896V53.4518C165.896 53.1143 165.808 52.8599 165.631 52.6885C165.455 52.512 165.219 52.4237 164.923 52.4237C164.668 52.4237 164.447 52.4886 164.261 52.6184C164.079 52.743 163.965 52.9274 163.918 53.1714H163.248C163.274 52.891 163.367 52.6548 163.528 52.4627C163.695 52.2705 163.9 52.1252 164.144 52.0265C164.388 51.9227 164.647 51.8707 164.923 51.8707C165.463 51.8707 165.868 52.0161 166.138 52.3069C166.413 52.5925 166.55 52.9741 166.55 53.4518V55.8273H165.966L165.927 55.1341C165.818 55.3522 165.657 55.5391 165.444 55.6949C165.237 55.8454 164.956 55.9207 164.603 55.9207ZM164.704 55.3677C164.954 55.3677 165.167 55.3028 165.343 55.173C165.525 55.0432 165.662 54.8745 165.756 54.6668C165.849 54.4591 165.896 54.241 165.896 54.0126V54.0048H164.907C164.523 54.0048 164.25 54.0723 164.089 54.2073C163.933 54.3371 163.856 54.5006 163.856 54.6979C163.856 54.9004 163.928 55.064 164.074 55.1886C164.224 55.308 164.434 55.3677 164.704 55.3677Z" fill="#666363"/>
<path d="M168.952 55.8273C168.599 55.8273 168.321 55.7416 168.118 55.5702C167.916 55.3989 167.815 55.09 167.815 54.6434V52.5172H167.145V51.9642H167.815L167.9 51.0374H168.469V51.9642H169.606V52.5172H168.469V54.6434C168.469 54.8875 168.518 55.0536 168.617 55.1419C168.716 55.225 168.89 55.2665 169.139 55.2665H169.544V55.8273H168.952Z" fill="#666363"/>
<path d="M172.068 55.9207C171.699 55.9207 171.372 55.8376 171.086 55.6715C170.801 55.5001 170.575 55.2639 170.409 54.9627C170.248 54.6616 170.167 54.3059 170.167 53.8957C170.167 53.4907 170.248 53.1377 170.409 52.8365C170.57 52.5302 170.793 52.2939 171.078 52.1278C171.369 51.9564 171.704 51.8707 172.083 51.8707C172.457 51.8707 172.779 51.9564 173.049 52.1278C173.324 52.2939 173.534 52.5146 173.68 52.7898C173.825 53.065 173.898 53.3609 173.898 53.6777C173.898 53.7348 173.895 53.7919 173.89 53.849C173.89 53.9061 173.89 53.971 173.89 54.0437H170.814C170.829 54.3397 170.897 54.5863 171.016 54.7836C171.141 54.9757 171.294 55.1211 171.476 55.2198C171.663 55.3184 171.86 55.3677 172.068 55.3677C172.338 55.3677 172.563 55.3054 172.745 55.1808C172.927 55.0562 173.059 54.8875 173.142 54.6746H173.789C173.685 55.0328 173.485 55.3314 173.189 55.5702C172.898 55.8039 172.525 55.9207 172.068 55.9207ZM172.068 52.4237C171.756 52.4237 171.478 52.5198 171.234 52.7119C170.995 52.8988 170.858 53.174 170.821 53.5375H173.251C173.236 53.1896 173.116 52.917 172.893 52.7197C172.67 52.5224 172.395 52.4237 172.068 52.4237Z" fill="#666363"/>
<path d="M174.765 55.8273V51.9642H175.357L175.411 52.7041C175.531 52.4497 175.713 52.2472 175.957 52.0966C176.201 51.946 176.502 51.8707 176.86 51.8707V52.5561H176.681C176.452 52.5561 176.242 52.5977 176.05 52.6807C175.858 52.7586 175.705 52.8936 175.591 53.0857C175.476 53.2778 175.419 53.5427 175.419 53.8802V55.8273H174.765Z" fill="#666363"/>
<path d="M108.177 55.9207C107.803 55.9207 107.463 55.848 107.157 55.7026C106.856 55.5521 106.614 55.321 106.432 55.0095C106.251 54.6979 106.16 54.3007 106.16 53.8179V50.3754H106.814V53.8256C106.814 54.3553 106.941 54.7395 107.196 54.9783C107.45 55.2172 107.782 55.3366 108.193 55.3366C108.603 55.3366 108.932 55.2172 109.182 54.9783C109.431 54.7395 109.556 54.3553 109.556 53.8256V50.3754H110.21V53.8179C110.21 54.3007 110.119 54.6979 109.937 55.0095C109.755 55.321 109.511 55.5521 109.205 55.7026C108.899 55.848 108.556 55.9207 108.177 55.9207Z" fill="#666363"/>
<path d="M111.279 57.5407V51.9642H111.871L111.933 52.6029C112.058 52.4159 112.234 52.2472 112.463 52.0966C112.696 51.946 112.992 51.8707 113.35 51.8707C113.735 51.8707 114.07 51.959 114.355 52.1356C114.641 52.3121 114.861 52.5535 115.017 52.8599C115.178 53.1662 115.259 53.5141 115.259 53.9035C115.259 54.2929 115.178 54.6408 115.017 54.9472C114.861 55.2483 114.638 55.4872 114.347 55.6637C114.062 55.8351 113.727 55.9207 113.343 55.9207C113.026 55.9207 112.743 55.8558 112.494 55.726C112.25 55.5962 112.063 55.4145 111.933 55.1808V57.5407H111.279ZM113.273 55.3522C113.532 55.3522 113.761 55.2925 113.958 55.173C114.155 55.0484 114.311 54.8771 114.425 54.659C114.539 54.4409 114.597 54.1865 114.597 53.8957C114.597 53.605 114.539 53.3505 114.425 53.1325C114.311 52.9144 114.155 52.7456 113.958 52.6262C113.761 52.5016 113.532 52.4393 113.273 52.4393C113.013 52.4393 112.784 52.5016 112.587 52.6262C112.39 52.7456 112.234 52.9144 112.12 53.1325C112.006 53.3505 111.949 53.605 111.949 53.8957C111.949 54.1865 112.006 54.4409 112.12 54.659C112.234 54.8771 112.39 55.0484 112.587 55.173C112.784 55.2925 113.013 55.3522 113.273 55.3522Z" fill="#666363"/>
<path d="M117.945 55.9207C117.576 55.9207 117.244 55.8376 116.948 55.6715C116.657 55.5001 116.426 55.2639 116.255 54.9627C116.089 54.6564 116.006 54.3007 116.006 53.8957C116.006 53.4907 116.089 53.1377 116.255 52.8365C116.426 52.5302 116.657 52.2939 116.948 52.1278C117.244 51.9564 117.576 51.8707 117.945 51.8707C118.402 51.8707 118.786 51.9902 119.098 52.229C119.414 52.4679 119.614 52.7872 119.697 53.187H119.028C118.976 52.9481 118.849 52.7638 118.646 52.634C118.444 52.499 118.207 52.4315 117.937 52.4315C117.719 52.4315 117.514 52.486 117.322 52.5951C117.13 52.7041 116.974 52.8677 116.855 53.0857C116.735 53.3038 116.676 53.5738 116.676 53.8957C116.676 54.2177 116.735 54.4877 116.855 54.7057C116.974 54.9238 117.13 55.09 117.322 55.2042C117.514 55.3132 117.719 55.3677 117.937 55.3677C118.207 55.3677 118.444 55.3028 118.646 55.173C118.849 55.038 118.976 54.8485 119.028 54.6045H119.697C119.62 54.9939 119.422 55.3106 119.106 55.5547C118.789 55.7987 118.402 55.9207 117.945 55.9207Z" fill="#666363"/>
<path d="M122.371 55.9207C122.008 55.9207 121.681 55.8376 121.39 55.6715C121.099 55.5053 120.868 55.2717 120.697 54.9705C120.531 54.6642 120.448 54.3059 120.448 53.8957C120.448 53.4855 120.533 53.1299 120.705 52.8287C120.876 52.5224 121.107 52.2861 121.398 52.12C121.694 51.9538 122.023 51.8707 122.387 51.8707C122.75 51.8707 123.077 51.9538 123.368 52.12C123.659 52.2861 123.887 52.5224 124.054 52.8287C124.225 53.1299 124.311 53.4855 124.311 53.8957C124.311 54.3059 124.225 54.6642 124.054 54.9705C123.882 55.2717 123.649 55.5053 123.353 55.6715C123.062 55.8376 122.735 55.9207 122.371 55.9207ZM122.371 55.36C122.595 55.36 122.802 55.3054 122.994 55.1964C123.186 55.0874 123.342 54.9238 123.462 54.7057C123.581 54.4877 123.641 54.2177 123.641 53.8957C123.641 53.5738 123.581 53.3038 123.462 53.0857C123.347 52.8677 123.194 52.7041 123.002 52.5951C122.81 52.486 122.605 52.4315 122.387 52.4315C122.164 52.4315 121.956 52.486 121.764 52.5951C121.572 52.7041 121.416 52.8677 121.297 53.0857C121.177 53.3038 121.117 53.5738 121.117 53.8957C121.117 54.2177 121.177 54.4877 121.297 54.7057C121.416 54.9238 121.569 55.0874 121.756 55.1964C121.948 55.3054 122.153 55.36 122.371 55.36Z" fill="#666363"/>
<path d="M125.22 55.8273V51.9642H125.812L125.859 52.525C125.984 52.3173 126.15 52.1563 126.357 52.0421C126.565 51.9279 126.799 51.8707 127.058 51.8707C127.365 51.8707 127.627 51.9331 127.845 52.0577C128.068 52.1823 128.24 52.3718 128.359 52.6262C128.494 52.3926 128.678 52.2082 128.912 52.0732C129.151 51.9382 129.408 51.8707 129.683 51.8707C130.145 51.8707 130.514 52.0109 130.789 52.2913C131.064 52.5665 131.202 52.9923 131.202 53.5686V55.8273H130.555V53.6387C130.555 53.2389 130.475 52.9378 130.314 52.7353C130.153 52.5328 129.922 52.4315 129.621 52.4315C129.309 52.4315 129.05 52.5535 128.842 52.7976C128.639 53.0364 128.538 53.3791 128.538 53.8256V55.8273H127.884V53.6387C127.884 53.2389 127.803 52.9378 127.642 52.7353C127.482 52.5328 127.25 52.4315 126.949 52.4315C126.643 52.4315 126.386 52.5535 126.178 52.7976C125.976 53.0364 125.875 53.3791 125.875 53.8256V55.8273H125.22Z" fill="#666363"/>
<path d="M132.584 51.1075C132.455 51.1075 132.346 51.0659 132.257 50.9829C132.174 50.8946 132.133 50.7856 132.133 50.6558C132.133 50.5311 132.174 50.4273 132.257 50.3442C132.346 50.2611 132.455 50.2196 132.584 50.2196C132.709 50.2196 132.816 50.2611 132.904 50.3442C132.992 50.4273 133.036 50.5311 133.036 50.6558C133.036 50.7856 132.992 50.8946 132.904 50.9829C132.816 51.0659 132.709 51.1075 132.584 51.1075ZM132.257 55.8273V51.9642H132.912V55.8273H132.257Z" fill="#666363"/>
<path d="M134.051 55.8273V51.9642H134.643L134.682 52.6574C134.806 52.4133 134.985 52.2212 135.219 52.081C135.453 51.9408 135.717 51.8707 136.013 51.8707C136.47 51.8707 136.834 52.0109 137.104 52.2913C137.379 52.5665 137.517 52.9923 137.517 53.5686V55.8273H136.862V53.6387C136.862 52.8339 136.53 52.4315 135.865 52.4315C135.533 52.4315 135.255 52.5535 135.032 52.7976C134.814 53.0364 134.705 53.3791 134.705 53.8256V55.8273H134.051Z" fill="#666363"/>
<path d="M140.034 54.6123C139.816 54.6123 139.616 54.5837 139.435 54.5266L139.045 54.8927C139.102 54.9342 139.172 54.9705 139.255 55.0017C139.344 55.0277 139.468 55.0536 139.629 55.0796C139.79 55.1003 140.016 55.1237 140.307 55.1497C140.826 55.186 141.197 55.3054 141.421 55.5079C141.644 55.7104 141.756 55.9752 141.756 56.3024C141.756 56.5256 141.693 56.7385 141.569 56.941C141.449 57.1435 141.262 57.3097 141.008 57.4395C140.759 57.5693 140.437 57.6342 140.042 57.6342C139.694 57.6342 139.385 57.5874 139.115 57.494C138.845 57.4057 138.635 57.2681 138.484 57.0812C138.334 56.8995 138.259 56.6684 138.259 56.388C138.259 56.2426 138.297 56.0843 138.375 55.9129C138.453 55.7468 138.599 55.5884 138.811 55.4378C138.697 55.3911 138.599 55.3418 138.516 55.2899C138.438 55.2327 138.365 55.1704 138.297 55.1029V54.9238L138.959 54.2696C138.653 54.01 138.5 53.6673 138.5 53.2415C138.5 52.9871 138.56 52.756 138.679 52.5483C138.799 52.3406 138.972 52.1771 139.201 52.0577C139.429 51.9331 139.707 51.8707 140.034 51.8707C140.258 51.8707 140.46 51.9019 140.642 51.9642H142.067V52.4549L141.343 52.486C141.493 52.7041 141.569 52.9559 141.569 53.2415C141.569 53.4959 141.506 53.727 141.382 53.9347C141.262 54.1424 141.088 54.3085 140.86 54.4331C140.637 54.5526 140.361 54.6123 140.034 54.6123ZM140.034 54.0749C140.309 54.0749 140.528 54.0048 140.688 53.8646C140.855 53.7192 140.938 53.5115 140.938 53.2415C140.938 52.9767 140.855 52.7742 140.688 52.634C140.528 52.4886 140.309 52.4159 140.034 52.4159C139.754 52.4159 139.531 52.4886 139.364 52.634C139.204 52.7742 139.123 52.9767 139.123 53.2415C139.123 53.5115 139.204 53.7192 139.364 53.8646C139.531 54.0048 139.754 54.0749 140.034 54.0749ZM138.897 56.3257C138.897 56.5853 139.006 56.7774 139.224 56.9021C139.442 57.0319 139.715 57.0968 140.042 57.0968C140.364 57.0968 140.621 57.0267 140.813 56.8865C141.01 56.7463 141.109 56.5594 141.109 56.3257C141.109 56.1596 141.042 56.0142 140.907 55.8896C140.772 55.7701 140.522 55.7001 140.159 55.6793C139.873 55.6585 139.627 55.6326 139.419 55.6014C139.206 55.7156 139.066 55.8376 138.998 55.9675C138.931 56.1025 138.897 56.2219 138.897 56.3257Z" fill="#666363"/>
<path d="M69.5155 55.8273V50.9128H67.8877V50.3754H71.7975V50.9128H70.1697V55.8273H69.5155Z" fill="#666363"/>
<path d="M73.6178 55.9207C73.2544 55.9207 72.9273 55.8376 72.6365 55.6715C72.3457 55.5053 72.1147 55.2717 71.9433 54.9705C71.7772 54.6642 71.6941 54.3059 71.6941 53.8957C71.6941 53.4855 71.7798 53.1299 71.9511 52.8287C72.1225 52.5224 72.3535 52.2861 72.6443 52.12C72.9402 51.9538 73.27 51.8707 73.6334 51.8707C73.9969 51.8707 74.324 51.9538 74.6148 52.12C74.9055 52.2861 75.134 52.5224 75.3001 52.8287C75.4715 53.1299 75.5572 53.4855 75.5572 53.8957C75.5572 54.3059 75.4715 54.6642 75.3001 54.9705C75.1288 55.2717 74.8951 55.5053 74.5992 55.6715C74.3084 55.8376 73.9813 55.9207 73.6178 55.9207ZM73.6178 55.36C73.8411 55.36 74.0488 55.3054 74.2409 55.1964C74.433 55.0874 74.5888 54.9238 74.7082 54.7057C74.8276 54.4877 74.8873 54.2177 74.8873 53.8957C74.8873 53.5738 74.8276 53.3038 74.7082 53.0857C74.594 52.8677 74.4408 52.7041 74.2487 52.5951C74.0566 52.486 73.8515 52.4315 73.6334 52.4315C73.4101 52.4315 73.2025 52.486 73.0103 52.5951C72.8182 52.7041 72.6625 52.8677 72.543 53.0857C72.4236 53.3038 72.3639 53.5738 72.3639 53.8957C72.3639 54.2177 72.4236 54.4877 72.543 54.7057C72.6625 54.9238 72.8156 55.0874 73.0026 55.1964C73.1947 55.3054 73.3998 55.36 73.6178 55.36Z" fill="#666363"/>
<path d="M78.2192 55.9207C77.835 55.9207 77.4975 55.8325 77.2067 55.6559C76.9211 55.4794 76.6979 55.2379 76.5369 54.9316C76.3811 54.6252 76.3033 54.2774 76.3033 53.8879C76.3033 53.4985 76.3837 53.1532 76.5447 52.8521C76.7057 52.5457 76.9289 52.3069 77.2145 52.1356C77.5001 51.959 77.8376 51.8707 78.227 51.8707C78.5437 51.8707 78.8241 51.9357 79.0681 52.0655C79.3122 52.1953 79.5017 52.377 79.6367 52.6106V50.2196H80.2909V55.8273H79.699L79.6367 55.1886C79.5121 55.3755 79.333 55.5443 79.0993 55.6949C78.8656 55.8454 78.5723 55.9207 78.2192 55.9207ZM78.2893 55.3522C78.5489 55.3522 78.7774 55.2925 78.9747 55.173C79.1772 55.0484 79.3329 54.8771 79.442 54.659C79.5562 54.4409 79.6133 54.1865 79.6133 53.8957C79.6133 53.605 79.5562 53.3505 79.442 53.1325C79.3329 52.9144 79.1772 52.7456 78.9747 52.6262C78.7774 52.5016 78.5489 52.4393 78.2893 52.4393C78.0349 52.4393 77.8064 52.5016 77.6039 52.6262C77.4066 52.7456 77.2508 52.9144 77.1366 53.1325C77.0276 53.3505 76.9731 53.605 76.9731 53.8957C76.9731 54.1865 77.0276 54.4409 77.1366 54.659C77.2508 54.8771 77.4066 55.0484 77.6039 55.173C77.8064 55.2925 78.0349 55.3522 78.2893 55.3522Z" fill="#666363"/>
<path d="M82.6425 55.9207C82.3206 55.9207 82.0532 55.8662 81.8403 55.7572C81.6274 55.6481 81.469 55.5027 81.3652 55.321C81.2613 55.1393 81.2094 54.942 81.2094 54.7291C81.2094 54.3345 81.36 54.0307 81.6611 53.8179C81.9623 53.605 82.3725 53.4985 82.8917 53.4985H83.9354V53.4518C83.9354 53.1143 83.8471 52.8599 83.6705 52.6885C83.494 52.512 83.2578 52.4237 82.9618 52.4237C82.7074 52.4237 82.4867 52.4886 82.2998 52.6184C82.1181 52.7431 82.0038 52.9274 81.9571 53.1714H81.2873C81.3133 52.891 81.4067 52.6548 81.5677 52.4627C81.7338 52.2706 81.9389 52.1252 82.183 52.0265C82.427 51.9227 82.6866 51.8707 82.9618 51.8707C83.5018 51.8707 83.9068 52.0161 84.1768 52.3069C84.452 52.5925 84.5896 52.9741 84.5896 53.4518V55.8273H84.0054L83.9665 55.1341C83.8575 55.3522 83.6965 55.5391 83.4836 55.6949C83.2759 55.8454 82.9956 55.9207 82.6425 55.9207ZM82.7437 55.3677C82.993 55.3677 83.2058 55.3028 83.3824 55.173C83.5641 55.0432 83.7017 54.8745 83.7952 54.6668C83.8886 54.4591 83.9354 54.241 83.9354 54.0126V54.0048H82.9462C82.562 54.0048 82.2894 54.0723 82.1284 54.2073C81.9727 54.3371 81.8948 54.5006 81.8948 54.6979C81.8948 54.9004 81.9675 55.064 82.1129 55.1886C82.2634 55.308 82.4737 55.3677 82.7437 55.3677Z" fill="#666363"/>
<path d="M85.8775 57.5407L86.8355 55.4534H86.6096L85.0753 51.9642H85.7841L87.0614 54.9705L88.4166 51.9642H89.0941L86.5629 57.5407H85.8775Z" fill="#666363"/>
<path d="M18.5404 55.8274V50.3755H20.542C20.9782 50.3755 21.3364 50.4508 21.6168 50.6014C21.9024 50.7467 22.1153 50.9466 22.2555 51.2011C22.3957 51.4503 22.4658 51.7281 22.4658 52.0344C22.4658 52.3667 22.3775 52.6705 22.201 52.9457C22.0296 53.2209 21.7596 53.4208 21.391 53.5454L22.5203 55.8274H21.3754L20.3629 53.6778H19.5373V55.8274H18.5404ZM19.5373 52.9457H20.4797C20.812 52.9457 21.0561 52.8652 21.2118 52.7042C21.3676 52.5433 21.4455 52.3304 21.4455 52.0656C21.4455 51.806 21.3676 51.5983 21.2118 51.4425C21.0613 51.2867 20.8146 51.2089 20.4719 51.2089H19.5373V52.9457Z" fill="#36C9AE"/>
<path d="M25.0108 55.9208C24.6214 55.9208 24.2761 55.8378 23.975 55.6716C23.6738 55.5055 23.4376 55.2718 23.2662 54.9707C23.0949 54.6695 23.0092 54.3216 23.0092 53.927C23.0092 53.5272 23.0923 53.1715 23.2584 52.86C23.4298 52.5485 23.6634 52.307 23.9594 52.1357C24.2605 51.9591 24.6136 51.8709 25.0186 51.8709C25.3976 51.8709 25.7325 51.9539 26.0233 52.1201C26.3141 52.2863 26.5399 52.5147 26.7009 52.8055C26.8671 53.0911 26.9501 53.4104 26.9501 53.7635C26.9501 53.8206 26.9475 53.8803 26.9423 53.9426C26.9423 54.0049 26.9397 54.0698 26.9345 54.1373H23.9983C24.0191 54.4384 24.1229 54.6747 24.3099 54.846C24.502 55.0174 24.733 55.1031 25.003 55.1031C25.2055 55.1031 25.3743 55.0589 25.5093 54.9707C25.6495 54.8772 25.7533 54.7578 25.8208 54.6124H26.8333C26.7606 54.8564 26.6386 55.0797 26.4672 55.2822C26.3011 55.4795 26.0934 55.6353 25.8442 55.7495C25.6001 55.8637 25.3223 55.9208 25.0108 55.9208ZM25.0186 52.6809C24.7746 52.6809 24.5591 52.751 24.3722 52.8912C24.1852 53.0262 24.0658 53.2338 24.0139 53.5142H25.9376C25.9221 53.2598 25.8286 53.0573 25.6572 52.9067C25.4859 52.7562 25.273 52.6809 25.0186 52.6809Z" fill="#36C9AE"/>
<path d="M29.6812 55.9208C29.2866 55.9208 28.9387 55.8352 28.6375 55.6638C28.3364 55.4925 28.0975 55.2536 27.921 54.9473C27.7497 54.6409 27.664 54.2905 27.664 53.8959C27.664 53.5012 27.7497 53.1508 27.921 52.8444C28.0975 52.5381 28.3364 52.2992 28.6375 52.1279C28.9387 51.9565 29.2866 51.8709 29.6812 51.8709C30.1744 51.8709 30.5898 52.0007 30.9273 52.2603C31.2648 52.5147 31.4803 52.8678 31.5738 53.3195H30.5223C30.4704 53.1326 30.3666 52.9872 30.2108 52.8834C30.0602 52.7743 29.8811 52.7198 29.6734 52.7198C29.3982 52.7198 29.1646 52.8237 28.9724 53.0313C28.7803 53.239 28.6843 53.5272 28.6843 53.8959C28.6843 54.2645 28.7803 54.5527 28.9724 54.7604C29.1646 54.9681 29.3982 55.0719 29.6734 55.0719C29.8811 55.0719 30.0602 55.02 30.2108 54.9161C30.3666 54.8123 30.4704 54.6643 30.5223 54.4722H31.5738C31.4803 54.9084 31.2648 55.2588 30.9273 55.5236C30.5898 55.7884 30.1744 55.9208 29.6812 55.9208Z" fill="#36C9AE"/>
<path d="M34.3356 55.9208C33.9462 55.9208 33.6009 55.8378 33.2998 55.6716C32.9986 55.5055 32.7624 55.2718 32.591 54.9707C32.4197 54.6695 32.334 54.3216 32.334 53.927C32.334 53.5272 32.4171 53.1715 32.5832 52.86C32.7546 52.5485 32.9882 52.307 33.2842 52.1357C33.5853 51.9591 33.9384 51.8709 34.3434 51.8709C34.7224 51.8709 35.0573 51.9539 35.3481 52.1201C35.6389 52.2863 35.8647 52.5147 36.0257 52.8055C36.1918 53.0911 36.2749 53.4104 36.2749 53.7635C36.2749 53.8206 36.2723 53.8803 36.2671 53.9426C36.2671 54.0049 36.2645 54.0698 36.2593 54.1373H33.3231C33.3439 54.4384 33.4477 54.6747 33.6347 54.846C33.8268 55.0174 34.0578 55.1031 34.3278 55.1031C34.5303 55.1031 34.6991 55.0589 34.8341 54.9707C34.9743 54.8772 35.0781 54.7578 35.1456 54.6124H36.1581C36.0854 54.8564 35.9634 55.0797 35.792 55.2822C35.6259 55.4795 35.4182 55.6353 35.169 55.7495C34.9249 55.8637 34.6471 55.9208 34.3356 55.9208ZM34.3434 52.6809C34.0994 52.6809 33.8839 52.751 33.697 52.8912C33.51 53.0262 33.3906 53.2338 33.3387 53.5142H35.2624C35.2469 53.2598 35.1534 53.0573 34.982 52.9067C34.8107 52.7562 34.5978 52.6809 34.3434 52.6809Z" fill="#36C9AE"/>
<path d="M37.1134 55.8274V51.9643H37.9935L38.0714 52.6186C38.1908 52.3901 38.3621 52.2084 38.5854 52.0734C38.8139 51.9384 39.0813 51.8709 39.3876 51.8709C39.8653 51.8709 40.2365 52.0214 40.5014 52.3226C40.7662 52.6237 40.8986 53.0651 40.8986 53.6466V55.8274H39.9016V53.7401C39.9016 53.4078 39.8341 53.1534 39.6992 52.9768C39.5641 52.8003 39.3539 52.712 39.0683 52.712C38.7879 52.712 38.5568 52.8107 38.3751 53.008C38.1986 53.2053 38.1103 53.4805 38.1103 53.8335V55.8274H37.1134Z" fill="#36C9AE"/>
<path d="M43.5731 55.8274C43.1681 55.8274 42.8436 55.7287 42.5995 55.5314C42.3555 55.3341 42.2335 54.9836 42.2335 54.48V52.7977H41.5715V51.9643H42.2335L42.3503 50.9285H43.2304V51.9643H44.274V52.7977H43.2304V54.4878C43.2304 54.6747 43.2693 54.8045 43.3472 54.8772C43.4303 54.9447 43.5705 54.9784 43.7678 54.9784H44.2507V55.8274H43.5731Z" fill="#36C9AE"/>
<path d="M45.13 55.8274V50.2197H46.1269V55.8274H45.13Z" fill="#36C9AE"/>
<path d="M47.6284 57.5408L48.5241 55.5704H48.2904L46.7873 51.9643H47.8699L48.9525 54.6825L50.0818 51.9643H51.141L48.6876 57.5408H47.6284Z" fill="#36C9AE"/>
<path d="M39.767 34.4092V26.4309H42.6691C43.2046 26.4309 43.6758 26.5309 44.0827 26.7308C44.4968 26.9235 44.8181 27.2091 45.0465 27.5875C45.275 27.9587 45.3892 28.4049 45.3892 28.9261C45.3892 29.4402 45.2714 29.8828 45.0358 30.254C44.8074 30.6253 44.4897 30.9109 44.0827 31.1108C43.6758 31.3107 43.2046 31.4106 42.6691 31.4106H41.0306V34.4092H39.767ZM41.0306 30.2862H42.7013C42.9868 30.2862 43.2367 30.2291 43.4509 30.1148C43.6651 30.0006 43.8328 29.8435 43.9542 29.6436C44.0756 29.4366 44.1363 29.1938 44.1363 28.9154C44.1363 28.637 44.0756 28.3978 43.9542 28.1979C43.8328 27.9909 43.6651 27.8338 43.4509 27.7267C43.2367 27.6125 42.9868 27.5554 42.7013 27.5554H41.0306V30.2862Z" fill="black"/>
<path d="M46.5724 34.4092V28.6156H47.729V29.7828L47.6219 29.6115C47.7504 29.2331 47.9575 28.9618 48.243 28.7976C48.5286 28.6263 48.8713 28.5406 49.2711 28.5406H49.6245V29.6436H49.1212C48.7214 29.6436 48.3965 29.7686 48.1466 30.0184C47.9039 30.2612 47.7825 30.611 47.7825 31.0679V34.4092H46.5724Z" fill="black"/>
<path d="M53.2474 34.5377C52.6906 34.5377 52.1801 34.4056 51.716 34.1414C51.2591 33.8773 50.895 33.5167 50.6237 33.0598C50.3524 32.6029 50.2168 32.0853 50.2168 31.507C50.2168 30.9216 50.3524 30.404 50.6237 29.9542C50.895 29.4973 51.2591 29.1403 51.716 28.8833C52.1729 28.6191 52.6834 28.487 53.2474 28.487C53.8186 28.487 54.329 28.6191 54.7788 28.8833C55.2357 29.1403 55.5963 29.4973 55.8604 29.9542C56.1317 30.404 56.2674 30.9216 56.2674 31.507C56.2674 32.0924 56.1317 32.6136 55.8604 33.0705C55.5891 33.5275 55.225 33.888 54.7681 34.1521C54.3112 34.4092 53.8043 34.5377 53.2474 34.5377ZM53.2474 33.4132C53.5901 33.4132 53.8935 33.3311 54.1577 33.1669C54.4219 33.0027 54.6289 32.7778 54.7788 32.4922C54.9359 32.1995 55.0144 31.8711 55.0144 31.507C55.0144 31.1429 54.9359 30.8181 54.7788 30.5325C54.6289 30.2469 54.4219 30.022 54.1577 29.8578C53.8935 29.6936 53.5901 29.6115 53.2474 29.6115C52.9119 29.6115 52.6084 29.6936 52.3372 29.8578C52.073 30.022 51.8624 30.2469 51.7053 30.5325C51.5554 30.8181 51.4804 31.1429 51.4804 31.507C51.4804 31.8711 51.5554 32.1995 51.7053 32.4922C51.8624 32.7778 52.073 33.0027 52.3372 33.1669C52.6084 33.3311 52.9119 33.4132 53.2474 33.4132Z" fill="black"/>
<path d="M56.56 36.7759C56.4814 36.7759 56.3958 36.7687 56.3029 36.7544C56.203 36.7473 56.1209 36.7366 56.0566 36.7223V35.6728C56.1923 35.6943 56.3279 35.705 56.4636 35.705C56.7634 35.705 57.0026 35.6264 57.1811 35.4694C57.3596 35.3194 57.4488 35.091 57.4488 34.784V28.6156H58.6589V34.784C58.6589 35.2052 58.5697 35.5657 58.3912 35.8656C58.2127 36.1655 57.9664 36.3903 57.6523 36.5403C57.3381 36.6973 56.974 36.7759 56.56 36.7759ZM57.4488 27.8231V26.4309H58.6589V27.8231H57.4488Z" fill="black"/>
<path d="M62.7939 34.5377C62.2156 34.5377 61.7016 34.4056 61.2518 34.1414C60.8091 33.8701 60.4629 33.506 60.213 33.0491C59.9631 32.5851 59.8382 32.0674 59.8382 31.4963C59.8382 30.9109 59.9631 30.3933 60.213 29.9435C60.47 29.4937 60.8127 29.1403 61.2411 28.8833C61.6694 28.6191 62.1549 28.487 62.6975 28.487C63.133 28.487 63.5221 28.562 63.8648 28.7119C64.2075 28.8619 64.4966 29.0689 64.7322 29.3331C64.9678 29.5901 65.1463 29.8864 65.2677 30.2219C65.3962 30.5575 65.4604 30.9144 65.4604 31.2928C65.4604 31.3856 65.4569 31.482 65.4497 31.582C65.4426 31.6819 65.4283 31.7747 65.4069 31.8604H60.7913V30.8966H64.7215L64.1432 31.3357C64.2146 30.9858 64.1896 30.6753 64.0683 30.404C63.954 30.1255 63.7756 29.9078 63.5328 29.7507C63.2972 29.5865 63.0188 29.5044 62.6975 29.5044C62.3762 29.5044 62.0907 29.5865 61.8408 29.7507C61.5909 29.9078 61.3981 30.1362 61.2625 30.4361C61.1268 30.7288 61.0733 31.0858 61.1019 31.507C61.0662 31.8997 61.1197 32.2424 61.2625 32.5351C61.4124 32.8278 61.6195 33.0563 61.8836 33.2205C62.1549 33.3847 62.4619 33.4668 62.8046 33.4668C63.1544 33.4668 63.4507 33.3882 63.6934 33.2312C63.9433 33.0741 64.1397 32.8706 64.2824 32.6207L65.2677 33.1027C65.1535 33.374 64.975 33.6203 64.7322 33.8416C64.4966 34.0558 64.2111 34.2271 63.8755 34.3556C63.5471 34.477 63.1866 34.5377 62.7939 34.5377Z" fill="black"/>
<path d="M69.3937 34.5377C68.8154 34.5377 68.3014 34.4056 67.8516 34.1414C67.4089 33.8701 67.0555 33.506 66.7914 33.0491C66.5344 32.5922 66.4059 32.0746 66.4059 31.4963C66.4059 30.9251 66.5344 30.4111 66.7914 29.9542C67.0484 29.4973 67.4018 29.1403 67.8516 28.8833C68.3014 28.6191 68.8154 28.487 69.3937 28.487C69.7864 28.487 70.154 28.5584 70.4967 28.7012C70.8394 28.8369 71.1357 29.0261 71.3856 29.2688C71.6426 29.5116 71.8318 29.7936 71.9532 30.1148L70.893 30.6074C70.7716 30.3076 70.5753 30.0684 70.304 29.8899C70.0398 29.7043 69.7364 29.6115 69.3937 29.6115C69.0653 29.6115 68.769 29.6936 68.5048 29.8578C68.2478 30.0149 68.0443 30.2398 67.8944 30.5325C67.7445 30.8181 67.6695 31.1429 67.6695 31.507C67.6695 31.8711 67.7445 32.1995 67.8944 32.4922C68.0443 32.7778 68.2478 33.0027 68.5048 33.1669C68.769 33.3311 69.0653 33.4132 69.3937 33.4132C69.7435 33.4132 70.0469 33.324 70.304 33.1455C70.5681 32.9599 70.7644 32.7136 70.893 32.4066L71.9532 32.9099C71.8389 33.2169 71.6533 33.4953 71.3963 33.7452C71.1464 33.9879 70.8501 34.1807 70.5074 34.3235C70.1647 34.4663 69.7935 34.5377 69.3937 34.5377Z" fill="black"/>
<path d="M75.6418 34.4734C75.035 34.4734 74.5638 34.3021 74.2282 33.9594C73.8927 33.6167 73.7249 33.1348 73.7249 32.5137V29.7079H72.7076V28.6156H72.8682C73.1395 28.6156 73.3501 28.537 73.5 28.38C73.65 28.2229 73.7249 28.0087 73.7249 27.7374V27.2876H74.935V28.6156H76.2523V29.7079H74.935V32.4601C74.935 32.66 74.9672 32.8314 75.0314 32.9741C75.0957 33.1098 75.1992 33.2169 75.342 33.2954C75.4848 33.3668 75.6704 33.4025 75.8989 33.4025C75.956 33.4025 76.0202 33.3989 76.0916 33.3918C76.163 33.3847 76.2308 33.3775 76.2951 33.3704V34.4092C76.1951 34.4234 76.0845 34.4377 75.9631 34.452C75.8417 34.4663 75.7346 34.4734 75.6418 34.4734Z" fill="black"/>
<path d="M79.6178 34.5377C79.0253 34.5377 78.5041 34.3913 78.0543 34.0986C77.6117 33.8059 77.3011 33.4132 77.1226 32.9206L78.0543 32.4815C78.2114 32.8099 78.4256 33.0705 78.6968 33.2633C78.9753 33.4561 79.2823 33.5524 79.6178 33.5524C79.9034 33.5524 80.1354 33.4882 80.3139 33.3597C80.4924 33.2312 80.5816 33.0563 80.5816 32.8349C80.5816 32.6921 80.5424 32.5779 80.4638 32.4922C80.3853 32.3994 80.2854 32.3245 80.164 32.2674C80.0498 32.2102 79.932 32.1674 79.8106 32.1388L78.9003 31.8818C78.4006 31.739 78.0257 31.5249 77.7759 31.2393C77.5331 30.9466 77.4118 30.6074 77.4118 30.2219C77.4118 29.8721 77.501 29.5687 77.6795 29.3116C77.858 29.0475 78.1043 28.844 78.4184 28.7012C78.7325 28.5584 79.0859 28.487 79.4786 28.487C80.0069 28.487 80.4781 28.6191 80.8922 28.8833C81.3063 29.1403 81.599 29.5008 81.7704 29.9649L80.8387 30.404C80.7244 30.1255 80.5424 29.9042 80.2925 29.74C80.0498 29.5758 79.7749 29.4937 79.4679 29.4937C79.2037 29.4937 78.9931 29.558 78.8361 29.6865C78.679 29.8078 78.6005 29.9685 78.6005 30.1684C78.6005 30.304 78.6362 30.4183 78.7076 30.5111C78.779 30.5967 78.8718 30.6681 78.986 30.7252C79.1002 30.7752 79.218 30.8181 79.3394 30.8538L80.2818 31.1322C80.7601 31.2678 81.1278 31.482 81.3848 31.7747C81.6418 32.0603 81.7704 32.403 81.7704 32.8028C81.7704 33.1455 81.6775 33.4489 81.4919 33.7131C81.3134 33.9701 81.0636 34.1736 80.7423 34.3235C80.421 34.4663 80.0462 34.5377 79.6178 34.5377Z" fill="black"/>
<path d="M25.6606 31.1235C25.6606 31.4315 25.421 31.6711 25.1301 31.6711H19.8763L21.6732 33.4851C21.8957 33.6905 21.8957 34.0499 21.6732 34.2552C21.5706 34.3579 21.4336 34.4092 21.2967 34.4092C21.1427 34.4092 21.0058 34.3579 20.9031 34.2552L18.165 31.5171C17.9426 31.3117 17.9426 30.9524 18.165 30.747L20.9031 28.0089C21.1085 27.7864 21.4679 27.7864 21.6732 28.0089C21.8957 28.2143 21.8957 28.5736 21.6732 28.779L19.8763 30.5759H25.1301C25.421 30.5759 25.6606 30.8326 25.6606 31.1235Z" fill="black"/>
</svg>
