<svg width="106" height="105" viewBox="0 0 106 105" fill="none" xmlns="http://www.w3.org/2000/svg">
<path fill-rule="evenodd" clip-rule="evenodd" d="M43.8994 45.1813C39.3735 45.432 35.7606 47.9065 33.2268 51.3751C30.4518 55.3046 28.9765 60.0041 29.0077 64.8145C29.1068 66.3507 29.3619 67.8729 29.7691 69.3575C30.3936 71.5124 31.2203 73.6035 32.2381 75.6029C32.2789 75.6981 32.3556 75.7734 32.4515 75.8124C32.5475 75.8515 32.655 75.8512 32.7507 75.8115C32.8457 75.7706 32.9211 75.6944 32.961 75.5989C33.001 75.5034 33.0022 75.3962 32.9646 75.2998C32.3528 73.5983 31.8665 71.8543 31.5094 70.0818C31.1431 68.3414 30.9907 66.5628 31.0557 64.7855C31.1031 60.4497 32.4993 56.2363 35.0506 52.7303C37.1803 49.8681 40.1442 47.7584 43.8783 47.5052C43.9128 48.477 44.0342 49.4438 44.241 50.3939C44.6445 52.3109 45.5242 54.0955 46.7991 55.5829C47.9223 56.8946 49.3743 57.8839 51.0061 58.4493C51.6803 58.6954 52.4118 58.7395 53.1107 58.5761C53.8097 58.4127 54.4458 58.0489 54.941 57.5293C57.1389 55.2246 56.6549 52.5785 54.8213 50.2712C52.7567 47.6697 48.8787 45.5723 46.2101 45.2167C46.2606 44.2634 46.3555 43.3063 46.4531 42.366C46.9215 38.4225 48.7623 34.7694 51.653 32.0465C54.5622 29.2901 58.2428 27.4865 62.2037 26.8764C65.5797 26.2703 69.004 26.8847 71.9949 27.9153C73.9176 28.5841 75.7678 29.4455 77.5172 30.4865C78.7338 31.1418 79.8625 31.9486 80.8762 32.8878C80.8896 32.9054 80.9092 32.9171 80.931 32.9206C80.9527 32.9242 80.975 32.9192 80.9933 32.9068C81.0108 32.8934 81.0226 32.8738 81.0261 32.852C81.0296 32.8302 81.0247 32.8079 81.0123 32.7897C80.3004 31.529 79.3734 30.4026 78.2731 29.4616C76.5997 28.0551 74.7143 26.9219 72.6869 26.1043C69.2704 24.6485 65.5239 24.1439 61.844 24.6438C57.4267 25.3162 53.3193 27.3193 50.0698 30.3861C46.7765 33.4842 44.6827 37.6455 44.1575 42.1364C44.0487 43.1459 43.9497 44.1624 43.8994 45.1813ZM46.1989 47.5805C46.2366 48.3578 46.338 49.1307 46.5022 49.8913C46.8301 51.4275 47.5378 52.8569 48.5607 54.0489C49.2664 54.87 50.1324 55.5382 51.1056 56.0124C51.8581 56.3583 52.6587 56.5425 53.2499 55.928C54.5258 54.5939 54.0576 53.0649 52.9963 51.724C51.2344 49.6486 48.8509 48.1957 46.1989 47.5805Z" fill="#FF7A1A"/>
<path fill-rule="evenodd" clip-rule="evenodd" d="M33.0356 74.9616C32.5312 74.3992 32.0383 73.8332 31.5285 73.2699C30.9333 72.6272 30.3379 71.9517 29.7162 71.3375C28.1207 69.7188 26.462 68.2211 24.8201 66.7206C24.753 66.6481 24.6605 66.6044 24.562 66.5985C24.4634 66.5926 24.3663 66.6251 24.2911 66.689C24.2159 66.753 24.1683 66.8436 24.1582 66.9418C24.1482 67.0401 24.1765 67.1384 24.2373 67.2162C25.2952 68.7806 26.2787 70.3658 27.3623 71.9398C27.8008 72.6063 28.2888 73.2698 28.7927 73.9032C29.9226 75.3263 31.1674 76.6478 32.4032 77.9569C32.6094 78.1659 32.8524 78.3349 33.1201 78.4554C33.4008 78.5766 33.7117 78.6098 34.0116 78.5505C34.1848 78.5132 34.3485 78.4404 34.4922 78.3368C34.6359 78.2331 34.7566 78.1008 34.8467 77.9482C35.0365 77.5712 35.158 77.1636 35.2055 76.7443C35.5269 74.7585 35.6414 69.8001 35.6871 68.7749L35.6598 66.7163C35.6613 66.5634 35.636 66.4114 35.585 66.2672C35.5167 66.0459 35.4028 65.8414 35.2507 65.6667C35.1447 65.5785 35.0541 65.7332 35.0856 65.64C35.1171 65.5468 34.9738 65.6219 35.0157 65.6669C35.1828 65.7486 34.8724 65.7421 34.926 65.8163C35.0607 65.9965 34.745 65.787 34.7378 65.9661C34.7275 66.03 34.6738 65.923 34.6581 65.986C34.6424 66.049 34.5974 65.8887 34.5357 65.9662C34.474 66.0436 34.5184 65.8705 34.4495 65.9249C34.3806 65.9793 34.5021 65.8023 34.4119 65.8533C34.3217 65.9042 34.4666 65.7856 34.4666 65.7856C34.4666 65.7856 34.3814 65.7718 34.5851 65.7283C34.5883 65.742 34.5947 65.7547 34.6036 65.7655C34.6125 65.7763 34.6238 65.7849 34.6366 65.7907C34.6494 65.7965 34.6633 65.7992 34.6774 65.7988C34.6914 65.7983 34.7051 65.7946 34.7175 65.788C34.7268 65.7818 34.7347 65.7738 34.7407 65.7644C34.7467 65.7551 34.7507 65.7446 34.7525 65.7336C34.7543 65.7226 34.7538 65.7113 34.751 65.7005C34.7483 65.6898 34.7433 65.6797 34.7364 65.6709C35.1087 65.2613 34.7477 65.6017 34.823 65.4063C34.8351 65.3317 34.7644 65.3968 34.7607 65.3525C34.7567 65.0732 34.6282 65.4621 34.4892 65.3085C34.433 65.2503 34.4762 65.3884 34.3998 65.3541C34.3234 65.3199 34.4643 65.4957 34.2658 65.5073C34.1646 65.4909 34.3611 65.5937 34.1771 65.6841C33.9931 65.7745 34.1185 65.6746 33.9856 65.888C33.8527 66.1014 33.936 66.4646 33.8649 66.6334L33.6283 68.5673C33.5497 69.3904 33.3124 72.7119 33.0356 74.9616Z" fill="#FF7A1A"/>
</svg>
