<svg width="262" height="196" viewBox="0 0 262 196" fill="none" xmlns="http://www.w3.org/2000/svg">
<g filter="url(#filter0_d_0_999)">
<path d="M50.8363 53.7343C50.8363 51.672 52.5053 50.0001 54.5641 50.0001L207.777 50.0001C209.836 50.0001 211.505 51.672 211.505 53.7343V141.674C211.505 143.736 209.836 145.408 207.777 145.408H54.5641C52.5053 145.408 50.8363 143.736 50.8363 141.674V53.7343Z" fill="white"/>
</g>
<path d="M61.4769 112.157C61.4769 111.129 62.3163 110.295 63.3516 110.295H85.8483C86.8837 110.295 87.723 111.129 87.723 112.157V130.778C87.723 131.806 86.8837 132.64 85.8483 132.64H63.3516C62.3163 132.64 61.4769 131.806 61.4769 130.778V112.157Z" fill="#F7F9FF"/>
<path d="M72.1172 127.854V127.549H72.7627V126.942H73.0768V127.549H73.7223V127.854H73.0768V128.464H72.7627V127.854H72.1172Z" fill="#18DF68"/>
<path d="M75.1254 128.739C74.9091 128.739 74.7224 128.687 74.5653 128.584C74.4105 128.479 74.291 128.334 74.2067 128.149C74.1248 127.961 74.0838 127.744 74.0838 127.497C74.0838 127.25 74.1248 127.034 74.2067 126.849C74.291 126.662 74.4105 126.516 74.5653 126.414C74.7224 126.308 74.9091 126.256 75.1254 126.256C75.3417 126.256 75.5273 126.308 75.6821 126.414C75.8369 126.516 75.9553 126.662 76.0372 126.849C76.1215 127.034 76.1636 127.25 76.1636 127.497C76.1636 127.744 76.1215 127.961 76.0372 128.149C75.9553 128.334 75.8369 128.479 75.6821 128.584C75.5273 128.687 75.3417 128.739 75.1254 128.739ZM75.1254 128.413C75.2552 128.413 75.3702 128.376 75.4703 128.303C75.5728 128.23 75.6525 128.125 75.7094 127.988C75.7663 127.85 75.7948 127.687 75.7948 127.497C75.7948 127.307 75.7663 127.144 75.7094 127.007C75.6525 126.87 75.5728 126.765 75.4703 126.691C75.3702 126.618 75.2552 126.582 75.1254 126.582C74.9934 126.582 74.8772 126.618 74.7771 126.691C74.6769 126.765 74.5983 126.87 74.5414 127.007C74.4845 127.144 74.456 127.307 74.456 127.497C74.456 127.687 74.4845 127.85 74.5414 127.988C74.5983 128.125 74.6769 128.23 74.7771 128.303C74.8772 128.376 74.9934 128.413 75.1254 128.413Z" fill="#18DF68"/>
<path d="M76.5601 128.718C76.4918 128.718 76.4349 128.696 76.3894 128.653C76.3461 128.607 76.3245 128.553 76.3245 128.492C76.3245 128.428 76.3461 128.374 76.3894 128.331C76.4349 128.285 76.4918 128.262 76.5601 128.262C76.6284 128.262 76.6842 128.285 76.7275 128.331C76.7707 128.374 76.7924 128.428 76.7924 128.492C76.7924 128.553 76.7707 128.607 76.7275 128.653C76.6842 128.696 76.6284 128.718 76.5601 128.718Z" fill="#18DF68"/>
<path d="M78.2602 128.697V128.217H77.0615V127.929L78.2021 126.297H78.6188V127.902H78.9535V128.217H78.6188V128.697H78.2602ZM77.4542 127.902H78.2807V126.698L77.4542 127.902Z" fill="#18DF68"/>
<path d="M79.7229 127.442C79.6159 127.442 79.5191 127.418 79.4326 127.37C79.3484 127.322 79.2812 127.255 79.2311 127.168C79.181 127.079 79.156 126.973 79.156 126.849C79.156 126.728 79.181 126.624 79.2311 126.537C79.2812 126.448 79.3495 126.379 79.436 126.331C79.5226 126.283 79.6193 126.259 79.7263 126.259C79.8311 126.259 79.9255 126.283 80.0098 126.331C80.0963 126.379 80.1646 126.448 80.2147 126.537C80.2648 126.624 80.2898 126.728 80.2898 126.849C80.2898 126.973 80.2648 127.079 80.2147 127.168C80.1646 127.255 80.0963 127.322 80.0098 127.37C79.9255 127.418 79.8299 127.442 79.7229 127.442ZM79.5522 128.697L80.9216 126.297H81.2768L79.9108 128.697H79.5522ZM79.7229 127.182C79.7958 127.182 79.8584 127.154 79.9108 127.099C79.9654 127.042 79.9927 126.959 79.9927 126.849C79.9927 126.739 79.9665 126.657 79.9142 126.602C79.8618 126.545 79.7981 126.516 79.7229 126.516C79.6501 126.516 79.5863 126.545 79.5317 126.602C79.477 126.657 79.4497 126.739 79.4497 126.849C79.4497 126.959 79.4759 127.042 79.5283 127.099C79.5829 127.154 79.6478 127.182 79.7229 127.182ZM81.1265 128.739C81.0195 128.739 80.9228 128.715 80.8363 128.667C80.752 128.619 80.6849 128.551 80.6348 128.464C80.5847 128.375 80.5596 128.269 80.5596 128.145C80.5596 128.024 80.5847 127.919 80.6348 127.83C80.6849 127.741 80.7532 127.672 80.8397 127.624C80.9262 127.576 81.023 127.552 81.13 127.552C81.2347 127.552 81.3292 127.576 81.4134 127.624C81.4999 127.672 81.5682 127.741 81.6183 127.83C81.6684 127.919 81.6935 128.024 81.6935 128.145C81.6935 128.269 81.6684 128.375 81.6183 128.464C81.5682 128.551 81.4999 128.619 81.4134 128.667C81.3292 128.715 81.2336 128.739 81.1265 128.739ZM81.1265 128.475C81.1994 128.475 81.262 128.447 81.3144 128.392C81.369 128.337 81.3963 128.255 81.3963 128.145C81.3963 128.036 81.3702 127.953 81.3178 127.898C81.2654 127.841 81.2017 127.813 81.1265 127.813C81.0537 127.813 80.9899 127.841 80.9353 127.898C80.8807 127.953 80.8533 128.036 80.8533 128.145C80.8533 128.255 80.8795 128.337 80.9319 128.392C80.9865 128.447 81.0514 128.475 81.1265 128.475Z" fill="#18DF68"/>
<path d="M69.1024 125.901C68.2171 125.901 67.5063 126.618 67.5063 127.497C67.5063 128.383 68.2171 129.093 69.1024 129.093C69.9815 129.093 70.6984 128.383 70.6984 127.497C70.6984 126.618 69.9815 125.901 69.1024 125.901ZM69.9378 127.84C69.863 127.921 69.7321 127.921 69.6573 127.84L69.1024 127.285L68.5413 127.84C68.4665 127.921 68.3355 127.921 68.2607 127.84C68.1797 127.765 68.1797 127.635 68.2607 127.56L68.959 126.861C68.9964 126.824 69.0463 126.799 69.1024 126.799C69.1523 126.799 69.2021 126.824 69.2396 126.861L69.9378 127.56C70.0189 127.635 70.0189 127.765 69.9378 127.84Z" fill="#18DF68"/>
<path d="M68.6911 121.956C68.3404 121.956 68.0222 121.89 67.7365 121.758C67.4509 121.621 67.2229 121.437 67.0526 121.207C66.8822 120.977 66.797 120.723 66.797 120.444C66.797 120.263 66.8195 120.099 66.8646 119.952C66.9148 119.806 66.9874 119.674 67.0826 119.556C67.1828 119.439 67.3031 119.336 67.4434 119.248C67.5837 119.16 67.7466 119.084 67.932 119.021L67.8568 119.277C67.7165 119.224 67.5912 119.16 67.481 119.087C67.3707 119.008 67.2755 118.92 67.1954 118.822C67.1202 118.725 67.0601 118.619 67.015 118.507C66.9749 118.389 66.9548 118.267 66.9548 118.14C66.9548 117.876 67.0325 117.639 67.1878 117.428C67.3432 117.218 67.5511 117.051 67.8117 116.929C68.0723 116.802 68.3654 116.738 68.6911 116.738C69.0118 116.738 69.3025 116.802 69.563 116.929C69.8236 117.051 70.0315 117.218 70.1869 117.428C70.3422 117.639 70.4199 117.876 70.4199 118.14C70.4199 118.267 70.3999 118.389 70.3598 118.507C70.3197 118.619 70.2621 118.722 70.1869 118.815C70.1117 118.908 70.0165 118.994 69.9013 119.072C69.791 119.15 69.6607 119.219 69.5104 119.277L69.4653 119.05C69.6307 119.099 69.781 119.167 69.9163 119.255C70.0566 119.339 70.1744 119.441 70.2696 119.564C70.3698 119.681 70.4475 119.813 70.5026 119.96C70.5577 120.107 70.5853 120.268 70.5853 120.444C70.5853 120.728 70.5001 120.985 70.3297 121.215C70.1593 121.445 69.9313 121.626 69.6457 121.758C69.3601 121.89 69.0419 121.956 68.6911 121.956ZM68.6911 121.053C68.8415 121.053 68.9793 121.024 69.1045 120.965C69.2298 120.906 69.3275 120.828 69.3977 120.73C69.4678 120.628 69.5029 120.51 69.5029 120.378C69.5029 120.241 69.4678 120.121 69.3977 120.019C69.3275 119.911 69.2298 119.825 69.1045 119.762C68.9843 119.698 68.8465 119.666 68.6911 119.666C68.5358 119.666 68.3955 119.698 68.2702 119.762C68.1499 119.825 68.0547 119.911 67.9846 120.019C67.9144 120.121 67.8794 120.241 67.8794 120.378C67.8794 120.505 67.9144 120.62 67.9846 120.723C68.0547 120.821 68.1499 120.902 68.2702 120.965C68.3955 121.024 68.5358 121.053 68.6911 121.053ZM68.6911 118.771C68.8264 118.771 68.9467 118.747 69.0519 118.698C69.1571 118.644 69.2398 118.575 69.3 118.492C69.3651 118.404 69.3977 118.301 69.3977 118.184C69.3977 118.071 69.3651 117.971 69.3 117.883C69.2398 117.79 69.1571 117.717 69.0519 117.663C68.9467 117.609 68.8264 117.582 68.6911 117.582C68.5558 117.582 68.4331 117.609 68.3228 117.663C68.2176 117.717 68.1324 117.79 68.0673 117.883C68.0071 117.971 67.9771 118.071 67.9771 118.184C67.9771 118.301 68.0071 118.404 68.0673 118.492C68.1324 118.575 68.2176 118.644 68.3228 118.698C68.4331 118.747 68.5558 118.771 68.6911 118.771Z" fill="black"/>
<path d="M73.5452 121.934V117.78L74.0713 117.81L72.2223 120.019L72.0945 119.835H75.507V120.767H71.5458L71.0798 119.901L73.7331 116.768H74.6351V121.934H73.5452Z" fill="black"/>
<path d="M76.9684 121.934L80.4485 116.797H81.4557L77.938 121.934H76.9684ZM77.3593 119.52C77.1137 119.52 76.8933 119.458 76.6978 119.336C76.5074 119.214 76.3571 119.047 76.2469 118.837C76.1416 118.622 76.089 118.377 76.089 118.103C76.089 117.829 76.1416 117.585 76.2469 117.369C76.3571 117.149 76.5074 116.981 76.6978 116.863C76.8883 116.741 77.1087 116.68 77.3593 116.68C77.6098 116.68 77.8278 116.741 78.0132 116.863C78.2036 116.981 78.3514 117.149 78.4567 117.369C78.5669 117.585 78.622 117.829 78.622 118.103C78.622 118.372 78.5669 118.615 78.4567 118.83C78.3464 119.04 78.1961 119.209 78.0057 119.336C77.8153 119.458 77.5998 119.52 77.3593 119.52ZM77.3593 118.83C77.4495 118.83 77.5271 118.8 77.5923 118.742C77.6574 118.683 77.705 118.6 77.7351 118.492C77.7702 118.38 77.7877 118.25 77.7877 118.103C77.7877 117.957 77.7702 117.827 77.7351 117.714C77.705 117.602 77.6574 117.516 77.5923 117.458C77.5271 117.399 77.4495 117.369 77.3593 117.369C77.2691 117.369 77.1889 117.401 77.1188 117.465C77.0536 117.524 77.0035 117.609 76.9684 117.722C76.9334 117.829 76.9158 117.957 76.9158 118.103C76.9158 118.25 76.9334 118.38 76.9684 118.492C77.0035 118.6 77.0536 118.683 77.1188 118.742C77.1889 118.8 77.2691 118.83 77.3593 118.83ZM81.1475 122C80.902 122 80.6815 121.939 80.4861 121.816C80.2957 121.694 80.1454 121.528 80.0351 121.317C79.9249 121.102 79.8698 120.86 79.8698 120.591C79.8698 120.312 79.9224 120.065 80.0276 119.85C80.1378 119.635 80.2882 119.466 80.4786 119.343C80.674 119.221 80.897 119.16 81.1475 119.16C81.3931 119.16 81.611 119.221 81.8015 119.343C81.9919 119.466 82.1397 119.635 82.2449 119.85C82.3502 120.065 82.4028 120.312 82.4028 120.591C82.4028 120.855 82.3477 121.095 82.2374 121.31C82.1272 121.525 81.9768 121.694 81.7864 121.816C81.601 121.939 81.3881 122 81.1475 122ZM81.1475 121.317C81.2327 121.317 81.3079 121.288 81.373 121.229C81.4432 121.166 81.4958 121.08 81.5309 120.972C81.566 120.865 81.5835 120.738 81.5835 120.591C81.5835 120.439 81.566 120.31 81.5309 120.202C81.4958 120.089 81.4432 120.004 81.373 119.945C81.3079 119.882 81.2327 119.85 81.1475 119.85C81.0523 119.85 80.9722 119.882 80.907 119.945C80.8419 120.004 80.7893 120.089 80.7492 120.202C80.7141 120.31 80.6966 120.439 80.6966 120.591C80.6966 120.738 80.7141 120.865 80.7492 120.972C80.7842 121.08 80.8344 121.166 80.8995 121.229C80.9696 121.288 81.0523 121.317 81.1475 121.317Z" fill="black"/>
<path d="M195.41 131.576C195.161 131.576 194.94 131.538 194.748 131.461C194.557 131.382 194.406 131.27 194.296 131.126C194.185 130.979 194.128 130.801 194.125 130.593H194.782C194.789 130.737 194.846 130.859 194.953 130.959C195.063 131.056 195.214 131.104 195.406 131.104C195.571 131.104 195.703 131.069 195.8 130.998C195.897 130.925 195.946 130.828 195.946 130.707C195.946 130.581 195.902 130.482 195.814 130.412C195.73 130.341 195.617 130.284 195.474 130.24C195.331 130.196 195.178 130.149 195.016 130.099C194.753 130.016 194.552 129.911 194.412 129.781C194.276 129.652 194.208 129.48 194.208 129.265C194.205 129.083 194.252 128.927 194.349 128.798C194.45 128.666 194.586 128.564 194.758 128.494C194.93 128.42 195.128 128.384 195.352 128.384C195.579 128.384 195.779 128.42 195.951 128.494C196.126 128.567 196.262 128.67 196.36 128.803C196.46 128.935 196.514 129.092 196.52 129.274H195.853C195.85 129.166 195.803 129.07 195.712 128.988C195.625 128.902 195.501 128.86 195.342 128.86C195.206 128.857 195.091 128.888 194.997 128.952C194.906 129.014 194.86 129.105 194.86 129.226C194.86 129.329 194.896 129.411 194.967 129.473C195.039 129.531 195.136 129.581 195.26 129.623C195.383 129.664 195.524 129.708 195.683 129.755C195.852 129.808 196.006 129.869 196.146 129.94C196.285 130.011 196.397 130.105 196.481 130.222C196.566 130.337 196.608 130.485 196.608 130.668C196.608 130.829 196.563 130.979 196.472 131.117C196.381 131.255 196.246 131.367 196.068 131.452C195.889 131.535 195.67 131.576 195.41 131.576Z" fill="#B3B3B3"/>
<path d="M189.869 95.2675C189.869 94.7524 190.28 94.3347 190.786 94.3347H199.948C200.454 94.3347 200.864 94.7524 200.864 95.2675V125.677C200.864 126.193 200.454 126.61 199.948 126.61H190.786C190.28 126.61 189.869 126.193 189.869 125.677V95.2675Z" fill="#B6E6FF"/>
<path d="M181.749 131.576C181.535 131.576 181.346 131.538 181.182 131.461C181.018 131.382 180.888 131.27 180.794 131.126C180.699 130.979 180.65 130.801 180.648 130.593H181.211C181.217 130.737 181.265 130.859 181.357 130.959C181.452 131.056 181.581 131.104 181.745 131.104C181.887 131.104 182 131.069 182.083 130.998C182.167 130.925 182.208 130.828 182.208 130.707C182.208 130.581 182.171 130.482 182.096 130.412C182.023 130.341 181.926 130.284 181.804 130.24C181.681 130.196 181.55 130.149 181.411 130.099C181.186 130.016 181.014 129.911 180.894 129.781C180.777 129.652 180.719 129.48 180.719 129.265C180.716 129.083 180.756 128.927 180.84 128.798C180.926 128.666 181.043 128.564 181.19 128.494C181.338 128.42 181.507 128.384 181.699 128.384C181.894 128.384 182.065 128.42 182.212 128.494C182.363 128.567 182.48 128.67 182.563 128.803C182.649 128.935 182.695 129.092 182.701 129.274H182.129C182.126 129.166 182.086 129.07 182.008 128.988C181.933 128.902 181.827 128.86 181.691 128.86C181.574 128.857 181.475 128.888 181.395 128.952C181.317 129.014 181.278 129.105 181.278 129.226C181.278 129.329 181.308 129.411 181.37 129.473C181.431 129.531 181.514 129.581 181.62 129.623C181.726 129.664 181.847 129.708 181.983 129.755C182.128 129.808 182.26 129.869 182.379 129.94C182.499 130.011 182.595 130.105 182.667 130.222C182.74 130.337 182.776 130.485 182.776 130.668C182.776 130.829 182.737 130.979 182.659 131.117C182.581 131.255 182.466 131.367 182.313 131.452C182.16 131.535 181.972 131.576 181.749 131.576Z" fill="#B3B3B3"/>
<path d="M176.037 111.222C176.037 110.71 176.461 110.295 176.983 110.295H186.441C186.963 110.295 187.387 110.71 187.387 111.222V125.683C187.387 126.195 186.963 126.61 186.441 126.61H176.983C176.461 126.61 176.037 126.195 176.037 125.683V111.222Z" fill="#B6E6FF"/>
<path d="M167.17 131.576V128.384H168.943V128.854H167.672V129.748H168.7V130.208H167.672V131.576H167.17Z" fill="#4CC5FE"/>
<path d="M162.56 104.486C162.56 103.973 162.97 103.557 163.476 103.557H172.638C173.144 103.557 173.555 103.973 173.555 104.486V125.681C173.555 126.194 173.144 126.611 172.638 126.611H163.476C162.97 126.611 162.56 126.194 162.56 125.681V104.486Z" fill="#4CC5FE"/>
<path d="M154.281 131.576V128.853H153.338V128.384H155.821V128.853H154.873V131.576H154.281Z" fill="#B3B3B3"/>
<path d="M148.727 108.752C148.727 108.233 149.151 107.812 149.673 107.812H159.131C159.653 107.812 160.077 108.233 160.077 108.752V125.67C160.077 126.19 159.653 126.61 159.131 126.61H149.673C149.151 126.61 148.727 126.19 148.727 125.67V108.752Z" fill="#B6E6FF"/>
<path d="M139.617 131.576L138.797 128.384H139.404L139.963 130.924L140.619 128.384H141.244L141.882 130.924L142.441 128.384H143.053L142.21 131.576H141.537L140.92 129.209L140.286 131.576H139.617Z" fill="#B3B3B3"/>
<path d="M135.249 99.1633C135.249 98.6512 135.673 98.2361 136.195 98.2361H145.653C146.175 98.2361 146.599 98.6512 146.599 99.1633V125.683C146.599 126.195 146.175 126.61 145.653 126.61H136.195C135.673 126.61 135.249 126.195 135.249 125.683V99.1633Z" fill="#B6E6FF"/>
<path d="M126.971 131.576V128.853H126.028V128.384H128.511V128.853H127.563V131.576H126.971Z" fill="#B3B3B3"/>
<path d="M121.772 116.92C121.772 116.395 122.182 115.97 122.688 115.97H131.85C132.356 115.97 132.767 116.395 132.767 116.92V125.66C132.767 126.185 132.356 126.61 131.85 126.61H122.688C122.182 126.61 121.772 126.185 121.772 125.66V116.92Z" fill="#B6E6FF"/>
<path d="M111.84 131.576V128.384H112.562L113.621 130.408L114.665 128.384H115.387V131.576H114.779V129.373L113.853 131.12H113.374L112.448 129.373V131.576H111.84Z" fill="#B3B3B3"/>
<path d="M107.939 104.486C107.939 103.972 108.363 103.556 108.885 103.556H118.343C118.865 103.556 119.289 103.972 119.289 104.486V125.681C119.289 126.194 118.865 126.61 118.343 126.61H108.885C108.363 126.61 107.939 126.194 107.939 125.681V104.486Z" fill="#B6E6FF"/>
<path d="M160.786 89.8422C160.786 88.7975 161.62 87.9506 162.648 87.9506H173.821C174.849 87.9506 175.683 88.7975 175.683 89.8422V97.4086C175.683 98.4533 174.849 99.3002 173.821 99.3002H162.648C161.62 99.3002 160.786 98.4533 160.786 97.4086V89.8422Z" fill="#171717"/>
<path d="M168.72 100.364L166.461 99.0343L170.362 98.5909L168.72 100.364Z" fill="#171717"/>
<path d="M163.987 95.3458L165.171 92.7401H163.624V92.2596H165.763V92.6608L164.583 95.3458H163.987Z" fill="white"/>
<path d="M166.07 95.3458V94.9358C166.262 94.78 166.447 94.6257 166.626 94.4729C166.809 94.32 166.97 94.1687 167.111 94.0187C167.254 93.8688 167.368 93.7233 167.452 93.5823C167.538 93.4382 167.582 93.2986 167.582 93.1634C167.582 93.037 167.546 92.9253 167.474 92.8283C167.405 92.7313 167.29 92.6828 167.129 92.6828C166.964 92.6828 166.84 92.7357 166.757 92.8416C166.673 92.9474 166.631 93.0752 166.631 93.2251H166.075C166.081 92.9988 166.132 92.8107 166.227 92.6608C166.323 92.5079 166.45 92.3948 166.608 92.3213C166.767 92.2449 166.945 92.2067 167.142 92.2067C167.462 92.2067 167.71 92.2934 167.887 92.4668C168.066 92.6373 168.156 92.8592 168.156 93.1325C168.156 93.303 168.116 93.4691 168.035 93.6308C167.957 93.7924 167.854 93.9482 167.725 94.0981C167.597 94.248 167.458 94.3891 167.308 94.5214C167.159 94.6507 167.014 94.7712 166.873 94.8829H168.232V95.3458H166.07Z" fill="white"/>
<path d="M169.355 93.7763C169.211 93.7763 169.081 93.7454 168.965 93.6837C168.848 93.619 168.755 93.5279 168.687 93.4103C168.618 93.2927 168.583 93.1531 168.583 92.9915C168.583 92.8298 168.618 92.6902 168.687 92.5726C168.755 92.455 168.848 92.3654 168.965 92.3037C169.081 92.239 169.213 92.2067 169.359 92.2067C169.503 92.2067 169.631 92.239 169.745 92.3037C169.862 92.3654 169.954 92.455 170.023 92.5726C170.092 92.6902 170.126 92.8298 170.126 92.9915C170.126 93.1531 170.092 93.2927 170.023 93.4103C169.954 93.5279 169.862 93.619 169.745 93.6837C169.628 93.7454 169.498 93.7763 169.355 93.7763ZM169.184 95.3458L170.956 92.2596H171.517L169.745 95.3458H169.184ZM169.355 93.3839C169.442 93.3839 169.516 93.3515 169.579 93.2869C169.642 93.2193 169.673 93.1208 169.673 92.9915C169.673 92.8621 169.642 92.7637 169.579 92.6961C169.519 92.6285 169.445 92.5947 169.355 92.5947C169.265 92.5947 169.189 92.6285 169.126 92.6961C169.066 92.7637 169.036 92.8621 169.036 92.9915C169.036 93.1208 169.066 93.2193 169.126 93.2869C169.189 93.3515 169.265 93.3839 169.355 93.3839ZM171.364 95.3988C171.221 95.3988 171.091 95.3679 170.974 95.3062C170.857 95.2415 170.765 95.1504 170.696 95.0328C170.627 94.9152 170.593 94.7756 170.593 94.614C170.593 94.4523 170.627 94.3142 170.696 94.1995C170.765 94.0819 170.857 93.9923 170.974 93.9306C171.091 93.8659 171.222 93.8336 171.369 93.8336C171.512 93.8336 171.641 93.8659 171.755 93.9306C171.871 93.9923 171.964 94.0819 172.033 94.1995C172.101 94.3142 172.136 94.4523 172.136 94.614C172.136 94.7756 172.101 94.9152 172.033 95.0328C171.964 95.1504 171.871 95.2415 171.755 95.3062C171.641 95.3679 171.511 95.3988 171.364 95.3988ZM171.364 95.0064C171.454 95.0064 171.529 94.974 171.589 94.9094C171.651 94.8418 171.683 94.7433 171.683 94.614C171.683 94.4846 171.651 94.3862 171.589 94.3186C171.529 94.251 171.454 94.2172 171.364 94.2172C171.275 94.2172 171.198 94.251 171.136 94.3186C171.076 94.3862 171.046 94.4846 171.046 94.614C171.046 94.7433 171.076 94.8418 171.136 94.9094C171.198 94.974 171.275 95.0064 171.364 95.0064Z" fill="white"/>
<path d="M171.072 64.9558C171.072 63.9437 171.906 63.1233 172.934 63.1233H199.003C200.031 63.1233 200.865 63.9437 200.865 64.9558V72.2858C200.865 73.2978 200.031 74.1183 199.003 74.1183H172.934C171.906 74.1183 171.072 73.2978 171.072 72.2858V64.9558Z" fill="#F3F6FF"/>
<path d="M195.843 68.7094L194.965 69.4631C194.932 69.4963 194.885 69.5074 194.839 69.5074C194.785 69.5074 194.739 69.4963 194.706 69.4631L193.827 68.7094C193.707 68.6096 193.794 68.4434 193.954 68.4434H195.717C195.877 68.4434 195.963 68.6096 195.843 68.7094Z" fill="#B5C4EE"/>
<path d="M176.037 69.8214V67.4472H176.47V69.4823H177.517V69.8214H176.037Z" fill="black"/>
<path d="M178.465 69.8621C178.321 69.8621 178.203 69.8395 178.111 69.7943C178.018 69.7468 177.95 69.6846 177.904 69.6078C177.859 69.5309 177.837 69.4461 177.837 69.3534C177.837 69.1974 177.898 69.0707 178.019 68.9735C178.141 68.8763 178.323 68.8277 178.567 68.8277H178.992V68.787C178.992 68.6716 178.959 68.5868 178.894 68.5326C178.829 68.4783 178.748 68.4512 178.651 68.4512C178.563 68.4512 178.487 68.4727 178.421 68.5156C178.356 68.5563 178.315 68.6174 178.3 68.6988H177.877C177.889 68.5767 177.929 68.4704 177.999 68.38C178.071 68.2895 178.163 68.2205 178.276 68.1731C178.389 68.1233 178.515 68.0984 178.654 68.0984C178.893 68.0984 179.081 68.1584 179.218 68.2782C179.356 68.398 179.424 68.5676 179.424 68.787V69.8214H179.056L179.016 69.5501C178.966 69.6405 178.896 69.7152 178.806 69.7739C178.719 69.8327 178.605 69.8621 178.465 69.8621ZM178.563 69.523C178.687 69.523 178.783 69.4823 178.85 69.4009C178.92 69.3195 178.964 69.2188 178.982 69.099H178.614C178.499 69.099 178.417 69.1205 178.367 69.1634C178.318 69.2041 178.293 69.255 178.293 69.3161C178.293 69.3816 178.318 69.4325 178.367 69.4687C178.417 69.5049 178.482 69.523 178.563 69.523Z" fill="black"/>
<path d="M180.529 69.8621C180.381 69.8621 180.25 69.8384 180.138 69.7909C180.025 69.7412 179.935 69.6733 179.867 69.5874C179.8 69.5015 179.759 69.402 179.746 69.2889H180.182C180.195 69.3545 180.231 69.411 180.29 69.4585C180.35 69.5037 180.428 69.5264 180.523 69.5264C180.617 69.5264 180.686 69.5071 180.729 69.4687C180.774 69.4303 180.796 69.3862 180.796 69.3364C180.796 69.2641 180.765 69.2154 180.702 69.1906C180.639 69.1634 180.551 69.1374 180.438 69.1126C180.366 69.0967 180.293 69.0775 180.219 69.0549C180.144 69.0323 180.076 69.004 180.013 68.9701C179.952 68.9339 179.902 68.8887 179.864 68.8344C179.826 68.7779 179.807 68.7089 179.807 68.6275C179.807 68.4783 179.865 68.3528 179.982 68.2511C180.102 68.1493 180.268 68.0984 180.482 68.0984C180.68 68.0984 180.838 68.1448 180.955 68.2375C181.074 68.3302 181.145 68.458 181.168 68.6208H180.759C180.734 68.4964 180.641 68.4342 180.479 68.4342C180.398 68.4342 180.335 68.45 180.29 68.4817C180.247 68.5134 180.225 68.5529 180.225 68.6004C180.225 68.6502 180.258 68.6897 180.323 68.7191C180.389 68.7485 180.475 68.7757 180.584 68.8005C180.701 68.8277 180.808 68.8582 180.904 68.8921C181.003 68.9238 181.082 68.9724 181.141 69.0379C181.199 69.1013 181.229 69.1928 181.229 69.3127C181.231 69.4167 181.204 69.5105 181.148 69.5942C181.091 69.6778 181.01 69.7434 180.904 69.7909C180.799 69.8384 180.674 69.8621 180.529 69.8621Z" fill="black"/>
<path d="M182.305 69.8214C182.13 69.8214 181.989 69.7785 181.883 69.6925C181.777 69.6066 181.724 69.454 181.724 69.2347V68.5021H181.437V68.1391H181.724L181.775 67.688H182.157V68.1391H182.609V68.5021H182.157V69.2381C182.157 69.3195 182.174 69.376 182.207 69.4076C182.243 69.437 182.304 69.4517 182.39 69.4517H182.599V69.8214H182.305Z" fill="black"/>
<path d="M184.275 69.8214L183.65 67.4472H184.113L184.539 69.3364L185.039 67.4472H185.515L186.001 69.3364L186.427 67.4472H186.893L186.251 69.8214H185.738L185.268 68.0611L184.785 69.8214H184.275Z" fill="black"/>
<path d="M187.832 69.8621C187.663 69.8621 187.513 69.826 187.383 69.7536C187.252 69.6812 187.15 69.5795 187.075 69.4483C187.001 69.3172 186.964 69.1657 186.964 68.9939C186.964 68.8197 187 68.6649 187.072 68.5292C187.146 68.3935 187.248 68.2884 187.376 68.2138C187.507 68.1369 187.66 68.0984 187.835 68.0984C188 68.0984 188.145 68.1346 188.271 68.207C188.397 68.2793 188.495 68.3788 188.565 68.5054C188.637 68.6298 188.673 68.7689 188.673 68.9226C188.673 68.9475 188.672 68.9735 188.67 69.0006C188.67 69.0278 188.669 69.056 188.666 69.0854H187.393C187.402 69.2166 187.447 69.3195 187.528 69.3941C187.611 69.4687 187.712 69.506 187.829 69.506C187.916 69.506 187.99 69.4868 188.048 69.4483C188.109 69.4076 188.154 69.3556 188.183 69.2923H188.622C188.591 69.3986 188.538 69.4958 188.464 69.584C188.392 69.6699 188.302 69.7378 188.193 69.7875C188.088 69.8373 187.967 69.8621 187.832 69.8621ZM187.835 68.4512C187.73 68.4512 187.636 68.4817 187.555 68.5428C187.474 68.6015 187.422 68.692 187.4 68.8141H188.234C188.227 68.7033 188.187 68.6151 188.112 68.5495C188.038 68.484 187.946 68.4512 187.835 68.4512Z" fill="black"/>
<path d="M189.851 69.8621C189.682 69.8621 189.532 69.826 189.402 69.7536C189.271 69.6812 189.168 69.5795 189.094 69.4483C189.02 69.3172 188.983 69.1657 188.983 68.9939C188.983 68.8197 189.019 68.6649 189.091 68.5292C189.165 68.3935 189.266 68.2884 189.395 68.2138C189.525 68.1369 189.679 68.0984 189.854 68.0984C190.019 68.0984 190.164 68.1346 190.29 68.207C190.416 68.2793 190.514 68.3788 190.584 68.5054C190.656 68.6298 190.692 68.7689 190.692 68.9226C190.692 68.9475 190.691 68.9735 190.688 69.0006C190.688 69.0278 190.687 69.056 190.685 69.0854H189.412C189.421 69.2166 189.466 69.3195 189.547 69.3941C189.63 69.4687 189.73 69.506 189.847 69.506C189.935 69.506 190.008 69.4868 190.067 69.4483C190.128 69.4076 190.173 69.3556 190.202 69.2923H190.641C190.61 69.3986 190.557 69.4958 190.482 69.584C190.41 69.6699 190.32 69.7378 190.212 69.7875C190.106 69.8373 189.986 69.8621 189.851 69.8621ZM189.854 68.4512C189.748 68.4512 189.655 68.4817 189.574 68.5428C189.493 68.6015 189.441 68.692 189.418 68.8141H190.253C190.246 68.7033 190.205 68.6151 190.131 68.5495C190.057 68.484 189.964 68.4512 189.854 68.4512Z" fill="black"/>
<path d="M191.055 69.8214V67.3794H191.488V68.8209L192.082 68.1391H192.596L191.91 68.9057L192.707 69.8214H192.167L191.488 68.9769V69.8214H191.055Z" fill="black"/>
<path d="M61.8318 70.1637V66.4489H62.5849L64.7599 69.2244H64.6025C64.5875 69.1148 64.5744 69.0086 64.5632 68.906C64.5519 68.7999 64.5407 68.6937 64.5294 68.5876C64.5219 68.4779 64.5144 68.3665 64.507 68.2533C64.5032 68.1365 64.4995 68.0145 64.4957 67.8871C64.492 67.7562 64.4901 67.6147 64.4901 67.4625V66.4489H65.3163V70.1637H64.5519L62.332 67.3617L62.5455 67.367C62.5643 67.551 62.5793 67.7084 62.5905 67.8393C62.6055 67.9667 62.6167 68.0781 62.6242 68.1737C62.6317 68.2692 62.6373 68.3523 62.6411 68.4231C62.6486 68.4938 62.6523 68.5611 62.6523 68.6247C62.6561 68.6884 62.6579 68.7557 62.6579 68.8264V70.1637H61.8318Z" fill="black"/>
<path d="M67.636 70.2168C67.3138 70.2168 67.0328 70.1549 66.793 70.0311C66.5532 69.9072 66.3658 69.7374 66.231 69.5216C66.0961 69.3058 66.0286 69.0581 66.0286 68.7786C66.0286 68.5628 66.0661 68.3647 66.141 68.1843C66.216 68.0038 66.3209 67.8482 66.4558 67.7173C66.5907 67.5828 66.7499 67.4802 66.9335 67.4095C67.1208 67.3352 67.3231 67.298 67.5405 67.298C67.7428 67.298 67.9301 67.3334 68.1025 67.4042C68.2748 67.4714 68.4228 67.5687 68.5464 67.696C68.6738 67.8199 68.7713 67.9667 68.8387 68.1365C68.9061 68.3063 68.9361 68.4921 68.9286 68.6937L68.923 68.9272H66.5345L66.4052 68.4655H68.2654L68.1755 68.5611V68.4443C68.168 68.3488 68.1343 68.2621 68.0744 68.1843C68.0182 68.1064 67.9451 68.0463 67.8552 68.0038C67.7653 67.9614 67.6641 67.9402 67.5517 67.9402C67.3868 67.9402 67.2463 67.9702 67.1302 68.0304C67.0178 68.0905 66.9316 68.179 66.8717 68.2957C66.8117 68.4125 66.7817 68.554 66.7817 68.7203C66.7817 68.8901 66.8192 69.0369 66.8941 69.1607C66.9728 69.2846 67.0815 69.3819 67.2201 69.4526C67.3625 69.5198 67.5292 69.5535 67.7203 69.5535C67.8514 69.5535 67.9713 69.534 68.08 69.4951C68.1886 69.4562 68.3048 69.3889 68.4284 69.2934L68.8106 69.7976C68.7019 69.8896 68.582 69.9674 68.4509 70.0311C68.3198 70.0912 68.1849 70.1372 68.0463 70.1691C67.9076 70.2009 67.7709 70.2168 67.636 70.2168Z" fill="black"/>
<path d="M70.1435 70.1637L69.1488 67.3564H69.9805L70.5875 69.2669L70.4639 69.251L71.1327 67.7597H71.6048L72.3016 69.2563L72.1668 69.2669L72.7737 67.3564H73.6055L72.5939 70.1637H72.015L71.3125 68.5664L71.4024 68.577L70.7168 70.1637H70.1435Z" fill="black"/>
<path d="M77.0443 70.1637L75.4763 66.4489H76.3699L77.1905 68.4602C77.2354 68.5699 77.2729 68.6672 77.3029 68.7521C77.3366 68.8335 77.3647 68.9113 77.3872 68.9856C77.4134 69.0564 77.4378 69.1271 77.4602 69.1979C77.4827 69.2651 77.5052 69.3394 77.5277 69.4208L77.3647 69.4261C77.3947 69.3164 77.4246 69.2156 77.4546 69.1236C77.4846 69.0281 77.5183 68.929 77.5558 68.8264C77.5932 68.7238 77.6401 68.6018 77.6963 68.4602L78.4719 66.4489H79.3598L77.7806 70.1637H77.0443Z" fill="black"/>
<path d="M79.8875 70.1637V67.3564H80.6856V70.1637H79.8875ZM80.2809 66.778C80.1273 66.778 80.0074 66.7426 79.9212 66.6718C79.8351 66.6011 79.792 66.5002 79.792 66.3693C79.792 66.249 79.8351 66.1517 79.9212 66.0774C80.0112 65.9996 80.131 65.9607 80.2809 65.9607C80.4345 65.9607 80.5544 65.9978 80.6406 66.0721C80.7268 66.1429 80.7699 66.242 80.7699 66.3693C80.7699 66.4932 80.7249 66.5922 80.635 66.6665C80.5488 66.7408 80.4308 66.778 80.2809 66.778Z" fill="black"/>
<path d="M82.5383 70.2168C82.261 70.2168 82.0138 70.1744 81.7965 70.0894C81.5829 70.001 81.4105 69.8807 81.2794 69.7286L81.774 69.3253C81.8901 69.442 82.0194 69.5269 82.1618 69.58C82.3041 69.6295 82.4465 69.6543 82.5889 69.6543C82.6451 69.6543 82.6957 69.649 82.7406 69.6384C82.7893 69.6242 82.8306 69.6065 82.8643 69.5853C82.898 69.5605 82.9223 69.5322 82.9373 69.5004C82.9561 69.465 82.9654 69.4279 82.9654 69.3889C82.9654 69.3111 82.9317 69.2492 82.8643 69.2032C82.8268 69.1855 82.7687 69.1643 82.6901 69.1395C82.6114 69.1112 82.5102 69.0811 82.3866 69.0493C82.1955 69.0033 82.0325 68.9502 81.8976 68.8901C81.7665 68.8264 81.6616 68.7557 81.5829 68.6778C81.5154 68.6035 81.463 68.5239 81.4255 68.439C81.3918 68.3506 81.3749 68.2533 81.3749 68.1471C81.3749 68.0198 81.4049 67.9048 81.4649 67.8022C81.5248 67.696 81.6072 67.6058 81.7122 67.5315C81.8208 67.4572 81.9445 67.4006 82.0831 67.3617C82.2217 67.3193 82.3678 67.298 82.5214 67.298C82.6751 67.298 82.8249 67.3157 82.9711 67.3511C83.1172 67.3865 83.2521 67.4378 83.3757 67.505C83.5031 67.5687 83.6136 67.6447 83.7073 67.7332L83.2802 68.179C83.2127 68.1188 83.1359 68.064 83.0497 68.0145C82.9673 67.9649 82.8811 67.926 82.7912 67.8977C82.7013 67.8694 82.6207 67.8553 82.5495 67.8553C82.4859 67.8553 82.4278 67.8606 82.3753 67.8712C82.3266 67.8818 82.2854 67.8977 82.2517 67.9189C82.218 67.9402 82.1917 67.9685 82.173 68.0038C82.158 68.0357 82.1505 68.0711 82.1505 68.11C82.1505 68.1489 82.1599 68.186 82.1786 68.2214C82.2011 68.2568 82.2311 68.2869 82.2685 68.3116C82.3098 68.3329 82.3697 68.3576 82.4484 68.3859C82.5308 68.4142 82.6413 68.4461 82.78 68.4815C82.9598 68.5275 83.1116 68.5788 83.2352 68.6354C83.3626 68.692 83.4638 68.7574 83.5387 68.8317C83.6024 68.8954 83.6492 68.9679 83.6792 69.0493C83.7092 69.1307 83.7241 69.2209 83.7241 69.32C83.7241 69.4933 83.6717 69.649 83.5668 69.787C83.4656 69.9214 83.3251 70.0275 83.1453 70.1054C82.9654 70.1797 82.7631 70.2168 82.5383 70.2168Z" fill="black"/>
<path d="M84.3605 70.1637V67.3564H85.1586V70.1637H84.3605ZM84.7539 66.778C84.6003 66.778 84.4804 66.7426 84.3943 66.6718C84.3081 66.6011 84.265 66.5002 84.265 66.3693C84.265 66.249 84.3081 66.1517 84.3943 66.0774C84.4842 65.9996 84.6041 65.9607 84.7539 65.9607C84.9076 65.9607 85.0275 65.9978 85.1136 66.0721C85.1998 66.1429 85.2429 66.242 85.2429 66.3693C85.2429 66.4932 85.1979 66.5922 85.108 66.6665C85.0218 66.7408 84.9038 66.778 84.7539 66.778Z" fill="black"/>
<path d="M86.2976 70.1637V66.6453H87.0956V70.1637H86.2976ZM85.7412 68.0304V67.3564H87.7026V68.0304H85.7412Z" fill="black"/>
<path d="M89.5779 70.2168C89.2744 70.2168 89.0028 70.1549 88.763 70.0311C88.5269 69.9037 88.3396 69.7304 88.201 69.511C88.0661 69.2916 87.9986 69.0405 87.9986 68.7574C87.9986 68.4744 88.0661 68.225 88.201 68.0092C88.3396 67.7898 88.5269 67.6164 88.763 67.4891C89.0028 67.3617 89.2744 67.298 89.5779 67.298C89.8776 67.298 90.1455 67.3617 90.3816 67.4891C90.6213 67.6164 90.8087 67.7898 90.9436 68.0092C91.0784 68.225 91.1459 68.4744 91.1459 68.7574C91.1459 69.0405 91.0784 69.2916 90.9436 69.511C90.8087 69.7304 90.6213 69.9037 90.3816 70.0311C90.1455 70.1549 89.8776 70.2168 89.5779 70.2168ZM89.5779 69.5588C89.724 69.5588 89.8551 69.5252 89.9713 69.4579C90.0874 69.3872 90.1774 69.2916 90.2411 69.1714C90.3085 69.0475 90.3422 68.9096 90.3422 68.7574C90.3422 68.6018 90.3085 68.4638 90.2411 68.3435C90.1774 68.2197 90.0874 68.1241 89.9713 68.0569C89.8551 67.9862 89.724 67.9508 89.5779 67.9508C89.428 67.9508 89.295 67.9862 89.1789 68.0569C89.0627 68.1277 88.9709 68.2232 88.9035 68.3435C88.836 68.4638 88.8042 68.6018 88.8079 68.7574C88.8042 68.9096 88.836 69.0475 88.9035 69.1714C88.9709 69.2916 89.0627 69.3872 89.1789 69.4579C89.295 69.5252 89.428 69.5588 89.5779 69.5588Z" fill="black"/>
<path d="M91.7463 70.1637V67.3564H92.5163L92.5444 68.2586L92.4095 68.0728C92.4545 67.9278 92.5275 67.7969 92.6287 67.6801C92.7298 67.5598 92.8479 67.4661 92.9827 67.3989C93.1214 67.3316 93.2656 67.298 93.4155 67.298C93.4792 67.298 93.541 67.3033 93.601 67.3139C93.6609 67.3246 93.7115 67.3369 93.7527 67.3511L93.5391 68.179C93.4942 68.1577 93.4398 68.1401 93.3762 68.1259C93.3125 68.1082 93.2469 68.0994 93.1794 68.0994C93.0895 68.0994 93.0052 68.1153 92.9265 68.1471C92.8516 68.1754 92.786 68.2179 92.7298 68.2745C92.6736 68.3276 92.6287 68.3912 92.595 68.4655C92.565 68.5398 92.55 68.6212 92.55 68.7097V70.1637H91.7463Z" fill="black"/>
<defs>
<filter id="filter0_d_0_999" x="0.836304" y="0.00012207" width="260.669" height="195.408" filterUnits="userSpaceOnUse" color-interpolation-filters="sRGB">
<feFlood flood-opacity="0" result="BackgroundImageFix"/>
<feColorMatrix in="SourceAlpha" type="matrix" values="0 0 0 0 0 0 0 0 0 0 0 0 0 0 0 0 0 0 127 0" result="hardAlpha"/>
<feOffset/>
<feGaussianBlur stdDeviation="25"/>
<feComposite in2="hardAlpha" operator="out"/>
<feColorMatrix type="matrix" values="0 0 0 0 0 0 0 0 0 0 0 0 0 0 0 0 0 0 0.07 0"/>
<feBlend mode="normal" in2="BackgroundImageFix" result="effect1_dropShadow_0_999"/>
<feBlend mode="normal" in="SourceGraphic" in2="effect1_dropShadow_0_999" result="shape"/>
</filter>
</defs>
</svg>
