<svg width="64" height="52" fill="none" xmlns="http://www.w3.org/2000/svg"><path d="M5.92 41.77h1.55a3.24 3.24 0 01-1.3 1.902c-.642.456-1.448.684-2.42.684-1.176 0-2.096-.367-2.757-1.1C.33 42.543 0 41.522 0 40.193c0-1.269.32-2.26.961-2.975.667-.733 1.59-1.1 2.766-1.1 1.24 0 2.2.358 2.884 1.072.661.733.992 1.754.992 3.063v.327a.505.505 0 01-.031.207H2.2c.02.616.174 1.072.465 1.368.27.317.672.476 1.208.476a1.84 1.84 0 00.9-.207.456.456 0 00.171-.105l.169-.164a.68.68 0 01.233-.233.946.946 0 01.573-.153zm-3.727-2.32h3.17c-.042-.535-.186-.931-.434-1.19a1.502 1.502 0 00-.527-.326 1.549 1.549 0 00-.62-.09 1.569 1.569 0 00-.603.098 1.52 1.52 0 00-.513.318c-.31.324-.477.75-.465 1.19h-.008zm6.045-5.232h.978a.879.879 0 01.651.28.923.923 0 01.204.314c.047.12.07.248.068.378v9.166H8.238V34.218zM16.7 41.77h1.551a3.234 3.234 0 01-1.304 1.902c-.64.456-1.446.684-2.419.684-1.178 0-2.099-.367-2.762-1.1-.663-.713-.994-1.734-.994-3.063 0-1.269.32-2.26.962-2.973.663-.734 1.584-1.101 2.763-1.101 1.24 0 2.202.357 2.884 1.07.663.734.994 1.755.994 3.064v.327a.472.472 0 01-.032.207h-5.368c.023.616.178 1.072.466 1.368.268.317.672.476 1.211.476a1.83 1.83 0 00.9-.207.43.43 0 00.17-.105l.171-.164a.667.667 0 01.232-.233.954.954 0 01.575-.153zm-3.73-2.32h3.17c-.04-.535-.184-.942-.434-1.19a1.504 1.504 0 00-.527-.326 1.552 1.552 0 00-.621-.09 1.578 1.578 0 00-.603.098 1.54 1.54 0 00-.514.318c-.309.325-.475.75-.466 1.19h-.006zm12.066 2.32h1.578a3.239 3.239 0 01-1.324 1.902c-.654.456-1.474.684-2.462.684-1.198 0-2.134-.367-2.808-1.1-.675-.713-1.011-1.734-1.01-3.063 0-1.269.326-2.26.978-2.973.674-.734 1.61-1.101 2.808-1.101 1.262 0 2.24.357 2.935 1.07.383.446.663.963.82 1.517h-2.198a1.798 1.798 0 00-.315-.446 1.533 1.533 0 00-.537-.326 1.606 1.606 0 00-.631-.09 1.623 1.623 0 00-.614.098 1.55 1.55 0 00-.522.318c-.384.398-.576 1.054-.576 1.968 0 .915.19 1.559.568 1.933.274.317.684.476 1.23.476.32.008.635-.063.916-.207a.443.443 0 00.172-.106l.174-.163c.074-.089.159-.168.253-.237a.903.903 0 01.565-.155zm6.014 2.563c-.825.039-1.65.03-2.473-.028-.886-.06-1.33-.54-1.33-1.442v-8.645h1.242c.15 0 .297.026.433.077.137.05.26.124.362.217.11.091.199.2.258.322a.84.84 0 01.087.383v1.323h1.414v.411a.828.828 0 01-.082.392.962.962 0 01-.263.328c-.11.092-.24.163-.382.211a1.33 1.33 0 01-.447.069h-.24v4.352c0 .335.229.5.69.5h.724l.006 1.53z" fill="#6C6D6D"/><path d="M31.052 44.349v-3.992a4.709 4.709 0 01.39-2.026 3.391 3.391 0 011.068-1.316 4.344 4.344 0 011.497-.679 7.23 7.23 0 011.774-.217h.338v2.196h-.768c-.652 0-1.137.145-1.451.433-.315.288-.473.744-.473 1.37v4.238l-2.375-.007zm6.278-.852a2.896 2.896 0 01-.93-1.441 6.366 6.366 0 01-.281-1.882c.001-.542.08-1.082.233-1.605a3.29 3.29 0 01.729-1.337 3.27 3.27 0 012.08-1.056 4.962 4.962 0 012.294.188c.767.28 1.39.834 1.738 1.545a4.77 4.77 0 01.528 2.29 5.404 5.404 0 01-.214 1.633c-.122.412-.31.804-.557 1.16a3.12 3.12 0 01-1.893 1.22 4.424 4.424 0 01-2.064.043 3.661 3.661 0 01-1.663-.758zm1.489-5.232c-.434.457-.63 1.129-.59 2.037.042.909.217 1.53.529 1.882.171.19.397.33.65.4.303.11.636.12.946.03a1.57 1.57 0 00.854-.667c.248-.358.393-.941.403-1.726 0-.713-.118-1.249-.356-1.604a1.605 1.605 0 00-.823-.685 1.585 1.585 0 00-.93-.015 1.674 1.674 0 00-.683.348zM49.88 41.77h1.447c-.168.764-.6 1.44-1.216 1.902-.596.456-1.348.684-2.255.684-1.098 0-1.956-.367-2.573-1.1-.619-.713-.928-1.734-.927-3.063 0-1.269.3-2.26.897-2.973.618-.734 1.476-1.101 2.574-1.101 1.157 0 2.054.357 2.69 1.07.351.446.607.963.751 1.517h-2.024a1.756 1.756 0 00-.29-.446 1.384 1.384 0 00-.49-.326 1.353 1.353 0 00-.578-.09 1.375 1.375 0 00-.563.098 1.4 1.4 0 00-.479.318c-.348.398-.522 1.052-.522 1.963 0 .91.174 1.554.522 1.932.251.317.627.476 1.128.476.292.008.582-.063.84-.207a.402.402 0 00.157-.105l.16-.164a1.27 1.27 0 01.232-.237.777.777 0 01.52-.149zm7.53 2.11a3.904 3.904 0 01-1.372.4c-.427.047-.856.072-1.286.076a3.33 3.33 0 01-1.95-.581c-.561-.386-.842-1.025-.842-1.918 0-.831.253-1.426.76-1.783a4.466 4.466 0 011.936-.713 1.89 1.89 0 00.372-.046 4.82 4.82 0 01.494-.073c.91-.12 1.373-.376 1.373-.773a.549.549 0 00-.128-.376.593.593 0 00-.353-.204 3.287 3.287 0 00-.884-.135 2.352 2.352 0 00-.784.12.854.854 0 00-.297.173.813.813 0 00-.199.273h-2.074c.07-.595.382-1.14.866-1.516.56-.456 1.355-.684 2.386-.685 1.157 0 2.024.188 2.602.564.287.18.52.427.678.72.158.29.234.617.221.945v2.708c0 .793-.15 1.412-.45 1.857-.258.41-.627.744-1.069.967zm-.494-3.652c-.387.17-.793.3-1.21.386l-.711.148a1.864 1.864 0 00-.806.388c-.137.193-.212.42-.217.655a.934.934 0 00.278.713c.229.172.516.256.806.237a1.773 1.773 0 001.364-.475 1.64 1.64 0 00.4-.602c.085-.226.118-.467.096-.707v-.743zm2.651 4.121v-3.992a5.299 5.299 0 01.338-2.026 3.35 3.35 0 01.936-1.316 3.61 3.61 0 011.31-.679 5.599 5.599 0 011.553-.217H64v2.196h-.681c-.571 0-.996.145-1.27.433-.276.288-.414.744-.414 1.37v4.238l-2.068-.007z" fill="#6C6D6D"/><path d="M12.88 48.713a.855.855 0 01.232-.315.948.948 0 01.343-.18c.143-.041.29-.062.438-.06.121.001.242.014.362.04a.84.84 0 01.324.142c.1.074.181.175.235.293.065.154.096.323.09.493v1.598a.21.21 0 00.049.164.163.163 0 00.15.056.238.238 0 00.105-.023v.301l-.103.018a.956.956 0 01-.114 0 .49.49 0 01-.207-.037.28.28 0 01-.118-.108.41.41 0 01-.057-.166 1.554 1.554 0 01-.014-.212h-.009c-.053.09-.112.176-.176.258a.907.907 0 01-.468.311 1.422 1.422 0 01-.706-.01.763.763 0 01-.49-.432.984.984 0 01-.071-.386.826.826 0 01.127-.492.813.813 0 01.339-.273c.152-.064.31-.108.473-.13l.53-.072a1.75 1.75 0 00.185-.03.308.308 0 00.134-.061.304.304 0 00.083-.12.563.563 0 00.028-.193.725.725 0 00-.055-.305.493.493 0 00-.155-.193.596.596 0 00-.23-.096 1.414 1.414 0 00-.278-.027.797.797 0 00-.53.166.651.651 0 00-.165.24.706.706 0 00-.049.294h-.335a1.33 1.33 0 01.102-.453zm1.678.897a.202.202 0 01-.052.06.183.183 0 01-.07.033c-.052.017-.106.03-.16.04a7.101 7.101 0 01-.44.074c-.14.02-.278.051-.413.096a.793.793 0 00-.305.194.468.468 0 00-.12.342.576.576 0 00.383.557.631.631 0 00.23.043c.124 0 .248-.022.366-.066a.895.895 0 00.514-.49.946.946 0 00.078-.396v-.479l-.01-.008zm1.619-2.719v1.803h.01a.929.929 0 01.378-.513 1.024 1.024 0 01.575-.173 1.076 1.076 0 01.933.496c.105.158.182.338.227.53.101.416.101.856 0 1.272a1.65 1.65 0 01-.227.53 1.18 1.18 0 01-.387.36c-.17.09-.358.135-.546.13a1.054 1.054 0 01-.598-.177.982.982 0 01-.381-.506h-.01v.605h-.31V46.89h.336zm1.813 2.298a1.437 1.437 0 00-.16-.429.949.949 0 00-.28-.308.707.707 0 00-.41-.12.82.82 0 00-.45.12.954.954 0 00-.298.308c-.078.13-.134.276-.164.43a2.26 2.26 0 000 .968c.03.152.086.297.164.426.077.128.18.234.298.309.14.081.297.12.455.11a.706.706 0 00.411-.118.933.933 0 00.279-.308c.075-.131.129-.276.16-.428a2.37 2.37 0 00.05-.484c-.002-.16-.02-.32-.055-.476zm3.005-.365a.604.604 0 00-.178-.206.754.754 0 00-.255-.12 1.235 1.235 0 00-.566-.012.816.816 0 00-.237.087.504.504 0 00-.174.16.423.423 0 00-.068.245.338.338 0 00.064.207.563.563 0 00.16.142c.066.04.137.072.212.097.075.025.145.046.2.061l.507.11c.11.017.218.045.321.085.103.038.199.093.284.16a.778.778 0 01.2.245.69.69 0 01.08.343.718.718 0 01-.117.415.902.902 0 01-.291.28 1.223 1.223 0 01-.4.154 2.033 2.033 0 01-.439.048 1.469 1.469 0 01-.889-.25 1.072 1.072 0 01-.29-.36 1.036 1.036 0 01-.11-.445h.408a.71.71 0 00.075.312.736.736 0 00.205.252c.184.13.408.199.637.192.096 0 .192-.01.285-.029a.991.991 0 00.276-.1.674.674 0 00.2-.177.427.427 0 00.08-.264.407.407 0 00-.056-.224.475.475 0 00-.154-.152.988.988 0 00-.22-.103 2.856 2.856 0 00-.251-.07l-.488-.103a2.753 2.753 0 01-.343-.108 1.105 1.105 0 01-.276-.153.663.663 0 01-.183-.22.719.719 0 01-.066-.324.704.704 0 01.105-.385.814.814 0 01.274-.263c.117-.066.245-.115.378-.144a1.91 1.91 0 01.413-.049c.148 0 .296.02.437.06.13.037.25.098.356.18a.913.913 0 01.243.302c.063.134.098.278.102.425h-.38a.671.671 0 00-.071-.301zm1.817-.916v.347h-.516v2.28c-.003.11.011.22.043.32.027.076.097.117.208.128.088 0 .177-.008.265-.021v.347h-.275a.348.348 0 01-.235-.006.455.455 0 01-.201-.16.685.685 0 01-.116-.274.809.809 0 01.002-.313v-2.3h-.442v-.348h.442V46.89h.31v1.017h.515zm1.062.288v.585h.015c.1-.194.299-.36.563-.473.265-.112.58-.164.894-.146v.305a2.1 2.1 0 00-.584.056c-.167.041-.32.105-.447.186a.931.931 0 00-.295.287.683.683 0 00-.104.366v1.331h-.47v-2.497h.428zm1.675.517a.872.872 0 01.23-.315.934.934 0 01.353-.18 1.47 1.47 0 01.435-.06c.122.001.243.014.363.04a.838.838 0 01.324.142c.1.075.18.176.234.293.065.154.096.323.09.493v1.598a.21.21 0 00.049.164.162.162 0 00.149.056.239.239 0 00.105-.023v.301l-.104.018a.95.95 0 01-.114 0 .47.47 0 01-.205-.037.284.284 0 01-.12-.108.433.433 0 01-.056-.166 1.568 1.568 0 01-.012-.212h-.01c-.054.09-.113.176-.177.258a.981.981 0 01-.208.193.975.975 0 01-.26.118 1.393 1.393 0 01-.705-.01.747.747 0 01-.49-.432.985.985 0 01-.072-.386.827.827 0 01.128-.492.816.816 0 01.337-.273c.152-.064.312-.108.474-.13l.528-.072c.07 0 .134-.018.187-.03a.283.283 0 00.215-.181.557.557 0 00.03-.193.725.725 0 00-.056-.305.474.474 0 00-.154-.193.605.605 0 00-.229-.096 1.418 1.418 0 00-.28-.028.801.801 0 00-.528.167.657.657 0 00-.163.24.712.712 0 00-.049.294h-.336c.006-.156.04-.31.097-.453zm1.675.897a.202.202 0 01-.053.06.18.18 0 01-.07.033c-.052.017-.105.03-.159.04a7.525 7.525 0 01-.439.074 2.26 2.26 0 00-.412.096.798.798 0 00-.306.194.477.477 0 00-.12.342.578.578 0 00.384.551c.073.029.15.043.227.043.125 0 .25-.021.369-.066a.888.888 0 00.304-.193.88.88 0 00.208-.297.976.976 0 00.078-.396v-.479l-.01-.002zm3.196-.95a.743.743 0 00-.552-.193.855.855 0 00-.438.111.966.966 0 00-.314.291 1.333 1.333 0 00-.184.41 1.725 1.725 0 000 .933c.038.147.1.285.184.41.083.12.19.22.314.29a.854.854 0 00.438.112.706.706 0 00.305-.066c.095-.04.182-.1.255-.177a.953.953 0 00.184-.269c.049-.108.079-.224.088-.342h.35a1.407 1.407 0 01-.383.85 1.092 1.092 0 01-.8.306 1.234 1.234 0 01-1.004-.466 1.495 1.495 0 01-.26-.502 2.173 2.173 0 010-1.225c.055-.184.144-.355.261-.503a1.256 1.256 0 011.004-.471c.28-.009.554.081.779.256a1.093 1.093 0 01.38.769h-.349a1.013 1.013 0 00-.259-.525zm2.53-.752v.347h-.773v2.28a.68.68 0 00.061.32c.044.076.146.117.315.128.133 0 .266-.008.398-.021v.347h-.413a.769.769 0 01-.352-.006.707.707 0 01-.302-.16.597.597 0 01-.173-.274.546.546 0 01.002-.313v-2.3h-.663v-.348h.663V46.89h.464v1.017h.774zm2.276.25l.896 2.226h.011l.886-2.226h.367l-1.067 2.535h-.367l-1.1-2.535h.374zm2.56 2.088c.032.139.09.27.168.385a.94.94 0 00.292.28.785.785 0 00.423.111.817.817 0 00.595-.21c.15-.15.253-.345.297-.558h.347a1.499 1.499 0 01-.403.791c-.236.2-.534.299-.836.28-.2.005-.398-.038-.58-.126a1.094 1.094 0 01-.4-.343 1.503 1.503 0 01-.228-.506 2.355 2.355 0 010-1.184c.045-.183.123-.356.228-.508.105-.152.242-.276.4-.362.18-.096.379-.142.58-.137a1.12 1.12 0 01.584.146c.159.093.294.226.394.385a1.6 1.6 0 01.217.54c.044.203.063.411.055.62h-2.19c.004.134.023.267.057.396zm1.719-1.119a1.106 1.106 0 00-.183-.34.884.884 0 00-.28-.24.766.766 0 00-.375-.09.784.784 0 00-.38.09.885.885 0 00-.28.24c-.079.102-.14.218-.183.342a1.777 1.777 0 00-.091.399h1.84a1.377 1.377 0 00-.068-.399v-.002zm1.43-2.236v1.53h.012a.854.854 0 01.387-.403c.183-.1.395-.153.61-.152.187-.004.372.022.548.076a.873.873 0 01.355.21.772.772 0 01.188.334c.038.145.056.293.054.441v1.766h-.38v-1.716c0-.11-.012-.22-.039-.327a.605.605 0 00-.37-.441.974.974 0 00-.385-.066c-.138 0-.274.024-.4.072a.913.913 0 00-.504.497 1.09 1.09 0 00-.076.376v1.603h-.38v-3.8h.38zm3.421 0v.538h-.633v-.538h.633zm0 1.058v2.744h-.633v-2.748l.633.004z" fill="#9E9E9E"/><path d="M46.727 48.66a1.08 1.08 0 00-.689-.193 1.285 1.285 0 00-.547.111 1.148 1.148 0 00-.622.7 1.394 1.394 0 000 .934 1.148 1.148 0 00.623.7c.167.076.355.115.546.112.132.001.262-.021.382-.066a1 1 0 00.549-.446.878.878 0 00.11-.342h.446a1.3 1.3 0 01-.478.85 1.571 1.571 0 01-1 .306 1.966 1.966 0 01-.723-.125 1.532 1.532 0 01-.531-.34 1.421 1.421 0 01-.326-.503 1.758 1.758 0 010-1.225 1.42 1.42 0 01.326-.503c.145-.145.326-.261.53-.342.227-.088.475-.132.724-.129.35-.008.695.082.977.256.137.095.25.212.33.344.082.132.13.277.143.425h-.432a.959.959 0 00-.337-.525zm1.431-1.769v3.802h-.633v-3.802h.633zm1.034 3.355c.032.139.09.27.168.385a.94.94 0 00.292.28.784.784 0 00.423.111.817.817 0 00.595-.21c.15-.15.253-.345.297-.558h.349a1.513 1.513 0 01-.405.791c-.236.2-.534.299-.836.28a1.27 1.27 0 01-.58-.126 1.093 1.093 0 01-.4-.343 1.54 1.54 0 01-.228-.506 2.354 2.354 0 010-1.184c.046-.183.123-.355.228-.508.105-.152.242-.276.4-.362.18-.095.379-.142.58-.137.203-.006.405.044.584.146.159.093.294.226.394.385.104.164.177.347.217.54.045.203.063.411.055.62h-2.19c.004.134.023.267.057.396zm1.719-1.119a1.102 1.102 0 00-.183-.34.924.924 0 00-.28-.24.836.836 0 00-.756 0 .907.907 0 00-.281.24c-.079.102-.14.218-.183.342a1.777 1.777 0 00-.091.399h1.84a1.38 1.38 0 00-.066-.399v-.002z" fill="#9E9E9E"/><path d="M57.257 11.567C56.43 6.461 55.62 3.3 53.983 2.144 49.856-.964 29.607.222 29.607.222c-2.939.124-4.424.633-6.59 2.023-.614.415-1.206.86-1.773 1.334 6.648-.53 11.947-.68 18.877-.254.602.037.904 0 .263 1.265s-2.8 5.166-2.8 5.166-.547.571-1.848.484c-1.947-.126-15.338.25-20.254-.265-4.907 1.594-6.268 2.733-6.448 3.644 0 .015-.401 1.105 1.263 1.57 1.14.318 11.692.443 11.692.443s3.381.056 5.135-.405c2.19-.572 5.827-1.416 6.53-1.572 1.373-.3 1.904.528 1.437 1.863-.666 1.905-.975 2.185-3.742 2.312-12.826.593-23.5-.584-23.448-.952a1.835 1.835 0 00-.861 1.063c-.108.4-.076 1.714 0 3.059.54.34.52.663 5.356.966 8.24.514 16.145.762 17.186.762.786-.016 1.504-.088 1.087.82-.417.91-.757 1.547-4.8 1.715-4.044.167-12.069-.522-14.423-.74-3.134-.29-3.964-.976-4.23-1.256.086 1.032.05 1.485.893 2.068.219 1.16.744 2.646 1.91 3.307a5.587 5.587 0 004.465.413c.838-.259 1.558-1.09 2.066-2.24 4.742.4 9.291.396 10.583.396 1.25 0 3.733.07 5.506-.125.223 1.154.749 2.615 1.903 3.267a5.592 5.592 0 004.463.415c1.458-.454 2.566-2.62 2.796-5.22l9.87-1.689c.146.655.438 1.352.998 1.724.863.571 1.817.735 2.985.484a.181.181 0 00.098-.044c1.329-.593 2.142-3.844 1.574-6.225.207-.899.678-3.608-.07-8.23zM40.739 24.846c-.064 2.124-.935 3.823-1.947 3.794-1.011-.029-1.788-1.783-1.72-3.9.068-2.12.935-3.824 1.947-3.795 1.011.028 1.784 1.775 1.72 3.9zm.73-3.297c-.738-2.692-1.999-3.324-4.438-3.073 1.897-2.69 4.536-1.027 4.469 2.027-.006.348-.018.7-.031 1.046zm6.818-10.231c-1.784.063-3.883.206-5.395.32 0-.19-.01-.362-.02-.55.887-.09 2.58-.27 3.283-.391.981-.168.794-1.042.58-2.583-.215-1.541-1.159-1.288-2.074-1.307-.916-.019-.925.28-1.04.522-.113.242-.094 1.804-.206 1.972-.079.118-.465.125-.69.12a53.017 53.017 0 00-.49-3.406c.435-.773.76-1.32.76-1.32s.602-1.415 1.93-1.564c1.329-.149 2.038 0 2.038 0s1.552 5.358 1.324 8.187zm2.478-.223c.034-1.905-1.802-8.03-1.802-8.03.247.083 2.87-.425 4.441.88 1.244 1.036 1.871 5.815 1.871 6.883-.728.174-1.429.065-4.51.267zm6.017 11.029c-.116 1.405-.728 2.503-1.368 2.451-.639-.051-1.064-1.23-.948-2.636.116-1.406.726-2.505 1.365-2.453.64.051 1.063 1.232.95 2.638zm-.481-4.06s-.47-.426-2.043-.243c.71-1.793 2.545-1.549 2.92 1.472-.211-.6-.514-1.038-.877-1.228z" fill="#84AB44"/></svg>