<svg width="56" height="55" fill="none" xmlns="http://www.w3.org/2000/svg"><path d="M5.029 38.696h1.808v8.1H5.029V43.61H1.808v3.186H0v-8.1h1.808v3.384h3.22v-3.384zm8.679 7.197c-.66.645-1.55 1-2.474.99a3.28 3.28 0 01-2.335-.868c-.62-.579-.929-1.361-.927-2.346.001-.986.31-1.766.927-2.342a3.184 3.184 0 012.23-.868 3.223 3.223 0 012.19.78 2.67 2.67 0 01.9 2.134v.927H9.675a1.233 1.233 0 00.525.827c.296.216.654.33 1.02.326a2.007 2.007 0 001.506-.615l.981 1.055zm-1.669-3.69a1.318 1.318 0 00-.868-.299c-.34 0-.671.109-.944.313a1.19 1.19 0 00-.497.846h2.728a1.237 1.237 0 00-.419-.868v.008zm8.381 4.593h-1.635v-.753a2.048 2.048 0 01-1.662.846 2.47 2.47 0 01-1.663-.573 1.912 1.912 0 01-.673-1.519 1.621 1.621 0 01.695-1.432c.464-.317 1.098-.476 1.901-.476h1.302v-.034c0-.664-.351-.997-1.054-.997a2.874 2.874 0 00-.958.18 3.108 3.108 0 00-.85.448l-.777-1.125a4.653 4.653 0 012.804-.892 2.911 2.911 0 011.851.554c.478.38.718.979.718 1.797v3.976zm-1.754-2.374v-.302H17.58c-.697 0-1.044.217-1.044.651a.592.592 0 00.25.514c.212.134.46.197.711.18a1.26 1.26 0 00.818-.284.922.922 0 00.35-.76zm4.731 2.374h-1.736v-8.595h1.736v8.595zm3.373-4.983v2.793a.8.8 0 00.184.562.58.58 0 00.435.202 1.005 1.005 0 00.822-.434l.651 1.215a2.51 2.51 0 01-1.71.743 2.075 2.075 0 01-2.138-2.203v-2.878h-.73v-1.25h.73v-1.867h1.752v1.867h1.506v1.25H26.77zm4.415 1.623v3.36h-1.737v-8.595h1.737v3.06a2.422 2.422 0 011.766-.798 2.205 2.205 0 011.652.694 2.555 2.555 0 01.67 1.854v3.785h-1.736V43.39c0-.957-.351-1.436-1.054-1.437a1.259 1.259 0 00-.91.377 1.467 1.467 0 00-.388 1.107zm5.495 3.36v-8.1h1.808v6.49h3.453v1.61h-5.26zm6.203-7.028a1.035 1.035 0 11.723.295.987.987 0 01-.723-.295zm1.593 7.028H42.74v-6.233h1.736v6.233zm3.371-6.594v.417h1.52v1.252h-1.52v4.925h-1.75v-4.925h-.735V40.62h.73v-.382a2.088 2.088 0 012.17-2.214 2.415 2.415 0 011.675.697l-.627 1.17a1.112 1.112 0 00-.846-.434.56.56 0 00-.434.19.805.805 0 00-.183.556zm7.638 5.691a3.488 3.488 0 01-2.474.996 3.28 3.28 0 01-2.347-.868c-.617-.578-.927-1.36-.927-2.346 0-.985.315-1.766.945-2.342a3.182 3.182 0 012.23-.868 3.227 3.227 0 012.184.775 2.67 2.67 0 01.901 2.127v.927h-4.545a1.238 1.238 0 00.532.833c.296.215.654.33 1.02.326a2.001 2.001 0 001.506-.615l.975 1.055zm-1.67-3.69a1.32 1.32 0 00-.867-.299 1.564 1.564 0 00-.944.313 1.2 1.2 0 00-.5.846h2.735a1.244 1.244 0 00-.412-.868l-.011.008z" fill="#768589"/><path d="M10.12 53.611a1.147 1.147 0 01-.216.447.98.98 0 01-.404.28c-.195.07-.4.104-.608.098-.146 0-.292-.017-.434-.052a1.243 1.243 0 01-.38-.16.954.954 0 01-.282-.278.822.822 0 01-.128-.402h.363a.622.622 0 00.312.456c.081.047.169.08.26.1.096.021.194.032.291.032a.87.87 0 00.725-.286c.163-.242.24-.532.217-.823v-.401c-.08.176-.208.326-.369.434a.986.986 0 01-.568.167 1.422 1.422 0 01-.606-.117 1.118 1.118 0 01-.414-.324 1.331 1.331 0 01-.239-.484 2.353 2.353 0 01-.074-.59c0-.195.03-.39.09-.575.054-.173.14-.335.255-.476.115-.136.258-.245.42-.319a1.317 1.317 0 01.878-.071.98.98 0 01.267.128c.08.054.153.118.217.19.06.07.109.147.146.23v-.51h.362v2.712c0 .2-.027.4-.08.594zm-.824-.785a.96.96 0 00.297-.263 1.22 1.22 0 00.18-.376 1.61 1.61 0 00.06-.434 2.049 2.049 0 00-.05-.434 1.282 1.282 0 00-.168-.395.91.91 0 00-.295-.286.833.833 0 00-.434-.109.868.868 0 00-.738.384c-.08.12-.14.252-.174.391a1.845 1.845 0 00-.054.45c0 .146.019.292.056.434.036.134.096.262.178.375a.885.885 0 00.738.362c.142 0 .28-.036.404-.106v.007zm1.914-2.52v.7h.011c.082-.226.234-.42.434-.555a1.11 1.11 0 01.688-.176v.36a1.052 1.052 0 00-.792.283 1.016 1.016 0 00-.217.34 1.166 1.166 0 00-.08.435v1.573h-.376v-2.952l.332-.008zm1.632 1.974c.037.136.098.263.18.376.08.112.183.205.302.274a.835.835 0 00.434.108.883.883 0 00.619-.204c.153-.15.26-.34.308-.549h.36a1.437 1.437 0 01-.42.777 1.256 1.256 0 01-.869.274 1.397 1.397 0 01-.603-.122 1.116 1.116 0 01-.415-.338 1.445 1.445 0 01-.236-.498 2.24 2.24 0 010-1.17c.047-.179.128-.348.236-.499.11-.149.254-.27.42-.353.186-.095.393-.141.603-.135a1.165 1.165 0 011.015.517c.105.162.178.342.217.531.046.2.065.405.057.61h-2.262c.002.136.02.27.054.402zm1.785-1.1a1.112 1.112 0 00-.185-.334.91.91 0 00-.293-.234.84.84 0 00-.388-.09.868.868 0 00-.686.324 1.175 1.175 0 00-.191.339c-.048.125-.08.257-.096.39h1.91a1.335 1.335 0 00-.071-.395zm1.183 1.1c.034.136.094.263.175.376.078.11.178.204.293.274a.841.841 0 00.434.108.883.883 0 00.619-.204c.154-.148.262-.34.308-.549h.376a1.438 1.438 0 01-.422.777 1.257 1.257 0 01-.868.274 1.397 1.397 0 01-.603-.122 1.115 1.115 0 01-.415-.339 1.468 1.468 0 01-.236-.497 2.236 2.236 0 010-1.17 1.56 1.56 0 01.236-.499c.11-.149.252-.27.417-.353a1.25 1.25 0 01.603-.135c.211-.006.42.043.606.141.164.091.305.22.41.376.105.162.178.342.217.531.046.2.065.405.057.61h-2.262c.002.136.02.27.054.402zm1.783-1.1a1.066 1.066 0 00-.184-.334.908.908 0 00-.293-.234.833.833 0 00-.389-.09.868.868 0 00-.685.324 1.17 1.17 0 00-.191.339c-.048.125-.08.257-.096.39h1.91a1.27 1.27 0 00-.072-.395zm1.272-.874v.51h.018a.868.868 0 01.364-.434c.174-.108.374-.164.578-.163.176-.005.351.021.518.078a.833.833 0 01.334.217.822.822 0 01.178.356c.035.156.052.316.05.475v1.9h-.364v-1.843c0-.118-.01-.236-.033-.352a.74.74 0 00-.121-.282.581.581 0 00-.23-.189.868.868 0 00-.365-.07.91.91 0 00-.386.079.868.868 0 00-.285.217c-.08.095-.142.204-.184.321-.045.13-.069.266-.072.404v1.721h-.358v-2.952l.358.007zm6.729 3.305c-.04.163-.114.316-.217.447a.996.996 0 01-.404.28c-.195.07-.402.104-.61.098-.146 0-.292-.017-.434-.052a1.267 1.267 0 01-.38-.16.923.923 0 01-.28-.278.823.823 0 01-.128-.402h.36a.627.627 0 00.31.456c.082.047.17.08.261.1a1.3 1.3 0 00.291.032.866.866 0 00.727-.286c.163-.242.24-.532.217-.823v-.402h-.013a1.04 1.04 0 01-.367.435.987.987 0 01-.57.167 1.429 1.429 0 01-.606-.117 1.133 1.133 0 01-.414-.324 1.324 1.324 0 01-.237-.484 2.252 2.252 0 01-.074-.59c-.001-.195.028-.39.087-.575.056-.174.143-.335.258-.476a1.23 1.23 0 01.417-.319 1.325 1.325 0 01.881-.071.964.964 0 01.265.128c.08.054.153.118.217.19a.85.85 0 01.146.23h.012v-.51h.36v2.712c.002.2-.023.4-.075.594zm-.827-.785a.936.936 0 00.297-.263c.083-.113.144-.24.18-.376.041-.14.062-.287.061-.434a1.85 1.85 0 00-.052-.434 1.278 1.278 0 00-.165-.395.952.952 0 00-.295-.286.842.842 0 00-.434-.109.868.868 0 00-.738.384 1.12 1.12 0 00-.174.391 1.843 1.843 0 00-.054.45 1.61 1.61 0 00.056.433c.035.136.095.263.178.376.08.108.184.198.302.263.134.07.283.104.434.1a.82.82 0 00.404-.107v.007zm1.849-.546c.035.136.094.263.176.376.08.111.183.205.301.274a.839.839 0 00.434.108.883.883 0 00.619-.204 1.08 1.08 0 00.308-.549h.36a1.436 1.436 0 01-.42.777 1.257 1.257 0 01-.869.274 1.397 1.397 0 01-.603-.122 1.115 1.115 0 01-.415-.338 1.492 1.492 0 01-.236-.498 2.236 2.236 0 010-1.17c.048-.179.128-.348.236-.499.109-.148.25-.27.415-.353a1.25 1.25 0 01.603-.135 1.165 1.165 0 011.016.517c.105.162.178.342.217.531.046.2.065.405.056.61h-2.252c.001.136.02.27.054.402zm1.784-1.1a1.066 1.066 0 00-.184-.334.91.91 0 00-.294-.234.834.834 0 00-.388-.09.868.868 0 00-.686.324 1.175 1.175 0 00-.19.339 1.59 1.59 0 00-.096.39h1.91a1.338 1.338 0 00-.072-.395zm1.272-.874v.51h.013a.849.849 0 01.364-.434c.174-.108.374-.164.578-.163a1.49 1.49 0 01.518.078.833.833 0 01.335.217.846.846 0 01.178.356c.034.156.051.316.05.475v1.9h-.36v-1.843a1.641 1.641 0 00-.035-.352.737.737 0 00-.12-.282.572.572 0 00-.232-.189.842.842 0 00-.362-.07.909.909 0 00-.387.079.867.867 0 00-.284.217 1.04 1.04 0 00-.185.321 1.35 1.35 0 00-.071.404v1.721h-.36v-2.952l.36.007zm2.982 1.974c.035.136.095.263.176.376.08.112.183.205.302.274a.835.835 0 00.434.108.883.883 0 00.618-.204c.154-.15.26-.34.309-.549h.36a1.437 1.437 0 01-.421.777 1.257 1.257 0 01-.868.274 1.398 1.398 0 01-.604-.122 1.115 1.115 0 01-.414-.338 1.445 1.445 0 01-.237-.498 2.236 2.236 0 010-1.17c.048-.179.128-.348.237-.499a1.25 1.25 0 011.026-.488 1.165 1.165 0 011.016.517c.105.162.178.342.217.531.046.2.065.405.056.61H32.6c.002.136.02.27.054.402zm1.784-1.1a1.11 1.11 0 00-.184-.334.91.91 0 00-.293-.234.84.84 0 00-.389-.09.868.868 0 00-.686.324 1.17 1.17 0 00-.19.339c-.048.125-.08.257-.096.39h1.91a1.335 1.335 0 00-.072-.395zm1.25-.874v.7a1.086 1.086 0 011.116-.73v.36a1.052 1.052 0 00-.792.282 1.124 1.124 0 00-.297.775v1.573h-.359v-2.952l.332-.008zm1.543.458a.815.815 0 01.25-.309 1.05 1.05 0 01.367-.177 2.045 2.045 0 01.859-.02c.124.023.242.07.348.139a.761.761 0 01.251.288c.071.152.105.318.098.484v1.574c0 .145.07.217.217.217a.28.28 0 00.115-.024v.304l-.11.017a.946.946 0 01-.124 0 .514.514 0 01-.217-.039.284.284 0 01-.13-.104.384.384 0 01-.06-.163 1.241 1.241 0 01-.014-.217h-.013a2.46 2.46 0 01-.198.256 1.004 1.004 0 01-.217.185.986.986 0 01-.28.115 1.562 1.562 0 01-.373.04 1.46 1.46 0 01-.386-.049.886.886 0 01-.315-.154.766.766 0 01-.217-.269.916.916 0 01-.076-.386.757.757 0 01.136-.482.868.868 0 01.363-.267c.164-.064.335-.107.51-.128.189-.026.38-.05.575-.072.076 0 .141-.017.2-.028.051-.01.1-.031.143-.06a.306.306 0 00.09-.118.54.54 0 00.03-.193.651.651 0 00-.061-.302.47.47 0 00-.165-.184.683.683 0 00-.245-.096 1.703 1.703 0 00-.302-.026.912.912 0 00-.56.163.634.634 0 00-.228.523h-.378c.01-.152.05-.301.117-.438zm1.802.88a.217.217 0 01-.132.092c-.057.018-.114.03-.172.039-.152.026-.31.052-.47.072-.148.018-.293.05-.435.095a.868.868 0 00-.33.18.434.434 0 00-.128.335.521.521 0 00.054.243.608.608 0 00.358.3.82.82 0 00.246.038c.134.001.267-.02.395-.063.12-.038.232-.1.328-.182a.922.922 0 00.217-.29.902.902 0 00.082-.39v-.468h-.013zm2.264-1.338v.304h-.601v1.99a.631.631 0 00.05.276c.032.067.112.104.242.112.104 0 .206-.006.309-.017v.302h-.322a.533.533 0 01-.64-.651v-2.019h-.514V50.3h.514v-.885h.36v.885l.602.007zm.885-1.131v.577h-.36v-.577h.36zm0 1.13v2.953h-.36v-2.952h.36zm2.529.051c.167.08.315.194.434.336.122.146.213.314.27.495.12.393.12.814 0 1.207-.057.18-.148.349-.27.495a1.281 1.281 0 01-.434.334 1.532 1.532 0 01-1.196 0 1.26 1.26 0 01-.434-.334 1.435 1.435 0 01-.27-.495 2.041 2.041 0 010-1.207 1.44 1.44 0 01.27-.495c.118-.142.266-.257.434-.336a1.481 1.481 0 011.196 0zm-1.05.284a1.05 1.05 0 00-.324.286 1.304 1.304 0 00-.193.404c-.087.3-.087.62 0 .92.041.145.107.281.193.404.086.117.197.214.323.284a.994.994 0 00.903 0 .973.973 0 00.324-.284 1.3 1.3 0 00.195-.404c.087-.3.087-.62 0-.92a1.267 1.267 0 00-.195-.404 1.003 1.003 0 00-.324-.286.994.994 0 00-.903 0zm2.747-.334v.51h.011c.07-.182.2-.335.367-.434.173-.108.373-.164.577-.163.176-.005.35.021.517.078a.803.803 0 01.334.217.822.822 0 01.178.356 2 2 0 01.052.475v1.9h-.36v-1.843a1.635 1.635 0 00-.035-.352.736.736 0 00-.12-.282.587.587 0 00-.232-.189.868.868 0 00-.362-.07.845.845 0 00-.673.295.99.99 0 00-.182.322c-.045.13-.069.266-.072.404v1.721h-.36v-2.952l.36.007z" fill="#8C9799"/><path d="M42.855 8.334a4.559 4.559 0 00-1.764-1.604L30.672.711a5.356 5.356 0 00-5.334 0L14.91 6.73c-.823.473-1.925 1.352-2.012 2.457-.206 2.63 3.18 4.271 5.441 5.48 3.907 2.075 6.42 3.278 8.324 5.227.42.434 1.085 1.191 1.337 1.788.25-.597.916-1.356 1.339-1.788 1.903-1.954 4.423-3.152 8.321-5.227 2.23-1.185 5.505-2.691 5.444-5.474a2.042 2.042 0 00-.25-.859zM28 15.629a3.304 3.304 0 11.005-6.61 3.304 3.304 0 01-.005 6.61z" fill="url(#paint0_linear_0_6358)"/><path d="M37.677 16.404c-4.636 2.46-7.888 3.609-9.151 7.596-.226.637-.403 1.29-.53 1.953A13.287 13.287 0 0027.47 24c-1.263-3.978-4.517-5.127-9.15-7.596-4.808-2.544-5.832-3.814-6.013-4.363v11.347A5.334 5.334 0 0014.976 28l10.418 6.01a5.37 5.37 0 001.085.504c-.126-.447-.275-.92-.456-1.424-3.255-9.116-9.007-11.356-9.007-11.356s2.683.217 6.512 4.172c1.857 1.918 3.314 4.213 4.477 6.602 0 0 2.557-4.623 4.482-6.613 3.83-3.957 6.511-4.172 6.511-4.172s-5.756 2.242-9.007 11.356a23.12 23.12 0 00-.454 1.426 5.62 5.62 0 001.086-.504l10.398-6a5.345 5.345 0 002.663-4.615V12.032c-.175.539-1.2 1.82-6.007 4.372z" fill="url(#paint1_linear_0_6358)"/><defs><linearGradient id="paint0_linear_0_6358" x1="12.89" y1="10.841" x2="43.105" y2="10.841" gradientUnits="userSpaceOnUse"><stop stop-color="#2B88D9"/><stop offset="1" stop-color="#26E0F5"/></linearGradient><linearGradient id="paint1_linear_0_6358" x1="31.673" y1="7.058" x2="21.646" y2="37.283" gradientUnits="userSpaceOnUse"><stop stop-color="#39B54A"/><stop offset="1" stop-color="#ACDF23"/></linearGradient></defs></svg>