<svg width="106" height="89" fill="none" xmlns="http://www.w3.org/2000/svg"><path d="M10.712 77.564V63.646h9.533v2.63H13.89V69h5.642v2.579H13.89v3.353h6.824v2.632H10.712zm29.782-2.692v2.692h-9.432V63.646h3.177v11.226h6.255zm10.041-11.226h3.179v13.918h-3.179V63.646zm24.913 0v2.67h-4.257v11.248h-3.178V66.316h-4.258v-2.67h11.693zm10.044 13.918V63.646h9.532v2.63h-6.355V69h5.642v2.579H88.67v3.353h6.827v2.632H85.492zM35.44 87.28c.012.234-.06.466-.201.653a.726.726 0 01-.386.261 1.065 1.065 0 01-.311.04.861.861 0 01-.832-.519 1.418 1.418 0 01-.123-.519l.533-.037c.007.17.068.332.172.465a.296.296 0 00.233.103.354.354 0 00.294-.18.439.439 0 00.055-.242.67.67 0 00-.21-.454l-.5-.465a2.177 2.177 0 01-.394-.477 1.09 1.09 0 01-.124-.515.893.893 0 01.341-.759.86.86 0 01.522-.154c.18-.006.358.04.513.132a.75.75 0 01.268.286c.072.13.114.275.124.423l-.537.096a.626.626 0 00-.13-.35.276.276 0 00-.222-.09.259.259 0 00-.236.134.52.52 0 00-.064.27.8.8 0 00.22.511c.075.086.158.164.249.234.13.107.216.182.258.225.125.117.233.25.321.397.033.056.061.114.086.174a.99.99 0 01.082.356zm4.791-2.197h-.596v-.555h1.75v.555h-.593v3.108h-.56v-3.108zm6.298 3.148a.859.859 0 01-.63-.253.834.834 0 01-.258-.617v-2.833h.55v2.827a.301.301 0 00.094.224.32.32 0 00.228.092.315.315 0 00.227-.092.3.3 0 00.094-.224v-2.827h.584v2.833a.829.829 0 01-.26.62.872.872 0 01-.629.25zm6.954-.917a.879.879 0 01-.88.877h-.88v-3.668h.88a.875.875 0 01.88.875v1.916zm-1.2.33h.34a.303.303 0 00.225-.095.316.316 0 00.092-.224v-1.918a.318.318 0 00-.317-.319h-.338l-.002 2.556zm6.065.547h-.563v-3.663h.56l.003 3.663zm5.191-3.711a.866.866 0 01.63.257.848.848 0 01.26.621v2.008a.84.84 0 01-.26.62.866.866 0 01-.63.256.879.879 0 01-.886-.876v-2.008a.837.837 0 01.26-.622.86.86 0 01.626-.255zm.305.86a.302.302 0 00-.093-.223.31.31 0 00-.23-.089.32.32 0 00-.23.094.295.295 0 00-.095.223v2.008a.295.295 0 00.095.223.32.32 0 00.23.094.311.311 0 00.226-.094.302.302 0 00.093-.223l.004-2.012zm6.702 1.94c.01.234-.06.465-.2.653a.732.732 0 01-.386.261 1.072 1.072 0 01-.313.04.886.886 0 01-.544-.16.898.898 0 01-.287-.359 1.444 1.444 0 01-.124-.519l.535-.037c.006.17.066.332.172.465a.287.287 0 00.231.103.35.35 0 00.294-.18.439.439 0 00.056-.242.67.67 0 00-.21-.454l-.498-.465a2.064 2.064 0 01-.395-.477 1.09 1.09 0 01-.124-.515.892.892 0 01.34-.759.86.86 0 01.523-.154c.18-.006.358.04.513.132a.76.76 0 01.268.286c.07.131.112.275.124.423l-.538.096a.627.627 0 00-.13-.35.275.275 0 00-.223-.09.256.256 0 00-.234.134.507.507 0 00-.066.27.8.8 0 00.22.51c.076.086.16.165.25.235.13.107.216.182.257.225.125.119.233.254.32.403.033.056.061.114.086.173a.95.95 0 01.083.352z" fill="#808184"/><path d="M62.743 37.182s6.79-10.15 14.399-6.44c7.61 3.71 9.867 5.012 12.75 4.445 0 0-5.49 5.761-15.212 1.081-3.504-6.565-10.615-.535-11.937.914z" fill="url(#paint0_linear_0_6617)"/><path d="M42.35 37.182s-6.79-10.15-14.404-6.44-9.867 5.012-12.75 4.445c0 0 5.49 5.761 15.212 1.081 3.51-6.565 10.62-.535 11.943.914z" fill="url(#paint1_linear_0_6617)"/><path d="M81.527 16.382c-2.7 9.36-7.867 11.901-7.356 11.812C104.75 25.292 97.999 0 97.999 0s-1.983 11.798-16.472 16.382z" fill="url(#paint2_linear_0_6617)"/><path d="M23.567 16.382c2.7 9.36 7.866 11.901 7.356 11.812C.346 25.292 7.096 0 7.096 0s1.982 11.798 16.471 16.382z" fill="url(#paint3_linear_0_6617)"/><path d="M87.51 27.031c-2.404 1.126-5.117 1.987-8.138 2.581 12.058 7.537 21.962-1.984 21.962-1.984-4.06 2.845-11.653.446-13.824-.597z" fill="url(#paint4_linear_0_6617)"/><path d="M17.583 27.031c2.405 1.126 5.118 1.987 8.139 2.581-12.059 7.537-20.337-1.984-20.337-1.984 4.061 2.845 10.027.446 12.198-.597z" fill="url(#paint5_linear_0_6617)"/><path d="M80.177 9.631s.12 13.013-12.352 20.361c-12.472 7.349-11.483 22.972-12.066 24.95 0 0-.802-24.689 10.639-31.137 0-.011 11.574-6.366 13.78-14.174z" fill="url(#paint6_linear_0_6617)"/><path d="M24.918 9.631s-.12 13.013 12.351 20.361c12.47 7.349 11.483 22.972 12.066 24.95 0 0 .802-24.689-10.64-31.137 0-.011-11.572-6.366-13.777-14.174z" fill="url(#paint7_linear_0_6617)"/><path d="M96.688 19.56a21.926 21.926 0 01-6.522 6.042c2.469.573 12.707 1.92 15.834-9.382-3.622 4.452-8.048 3.784-9.312 3.34z" fill="url(#paint8_linear_0_6617)"/><path d="M8.405 19.56a21.926 21.926 0 006.523 6.042C12.46 26.174 3.126 27.522 0 16.22c3.62 4.452 7.144 3.784 8.405 3.34z" fill="url(#paint9_linear_0_6617)"/><path d="M42.616 23.072s8.673 7.382 8.956 36.094l.86-53.555s-3.02 13.316-9.816 17.461z" fill="url(#paint10_linear_0_6617)"/><path d="M52.428 5.61l.86 53.556c.078-27.138 8.956-36.094 8.956-36.094-6.8-4.145-9.816-17.461-9.816-17.461z" fill="url(#paint11_linear_0_6617)"/><defs><linearGradient id="paint0_linear_0_6617" x1="62.743" y1="34.017" x2="89.898" y2="34.017" gradientUnits="userSpaceOnUse"><stop stop-color="#EC1C24"/><stop offset="1" stop-color="#BE1E2D"/></linearGradient><linearGradient id="paint1_linear_0_6617" x1="15.196" y1="34.017" x2="42.351" y2="34.017" gradientUnits="userSpaceOnUse"><stop stop-color="#EC1C24"/><stop offset="1" stop-color="#BE1E2D"/></linearGradient><linearGradient id="paint2_linear_0_6617" x1="74.136" y1="14.098" x2="98.631" y2="14.098" gradientUnits="userSpaceOnUse"><stop stop-color="#EC1C24"/><stop offset="1" stop-color="#BE1E2D"/></linearGradient><linearGradient id="paint3_linear_0_6617" x1="6.462" y1="14.098" x2="30.957" y2="14.098" gradientUnits="userSpaceOnUse"><stop stop-color="#EC1C24"/><stop offset="1" stop-color="#BE1E2D"/></linearGradient><linearGradient id="paint4_linear_0_6617" x1="79.372" y1="29.776" x2="101.334" y2="29.776" gradientUnits="userSpaceOnUse"><stop stop-color="#EC1C24"/><stop offset="1" stop-color="#BE1E2D"/></linearGradient><linearGradient id="paint5_linear_0_6617" x1="5.386" y1="29.776" x2="25.722" y2="29.776" gradientUnits="userSpaceOnUse"><stop stop-color="#EC1C24"/><stop offset="1" stop-color="#BE1E2D"/></linearGradient><linearGradient id="paint6_linear_0_6617" x1="55.747" y1="32.281" x2="80.177" y2="32.281" gradientUnits="userSpaceOnUse"><stop stop-color="#EC1C24"/><stop offset="1" stop-color="#BE1E2D"/></linearGradient><linearGradient id="paint7_linear_0_6617" x1="24.918" y1="32.281" x2="49.348" y2="32.281" gradientUnits="userSpaceOnUse"><stop stop-color="#EC1C24"/><stop offset="1" stop-color="#BE1E2D"/></linearGradient><linearGradient id="paint8_linear_0_6617" x1="90.166" y1="21.095" x2="106" y2="21.095" gradientUnits="userSpaceOnUse"><stop stop-color="#EC1C24"/><stop offset="1" stop-color="#BE1E2D"/></linearGradient><linearGradient id="paint9_linear_0_6617" x1="0" y1="21.095" x2="14.928" y2="21.095" gradientUnits="userSpaceOnUse"><stop stop-color="#EC1C24"/><stop offset="1" stop-color="#BE1E2D"/></linearGradient><linearGradient id="paint10_linear_0_6617" x1="42.616" y1="32.388" x2="52.428" y2="32.388" gradientUnits="userSpaceOnUse"><stop stop-color="#EC1C24"/><stop offset="1" stop-color="#BE1E2D"/></linearGradient><linearGradient id="paint11_linear_0_6617" x1="52.428" y1="32.388" x2="62.239" y2="32.388" gradientUnits="userSpaceOnUse"><stop stop-color="#EC1C24"/><stop offset="1" stop-color="#BE1E2D"/></linearGradient></defs></svg>