<svg width="72" height="53" fill="none" xmlns="http://www.w3.org/2000/svg"><path d="M32.192 35.672l-.202.26a1.049 1.049 0 00-.74-.287.916.916 0 000 1.832.971.971 0 00.768-.32l.212.226a1.245 1.245 0 01-.995.429 1.254 1.254 0 010-2.507 1.267 1.267 0 01.957.367zm1.074.193a.929.929 0 01.89-.565v.372a.826.826 0 00-.89.806v1.319h-.367v-2.482h.367v.55zm3.524.842h-2.02a.869.869 0 00.899.792 1.041 1.041 0 00.77-.31l.202.215a1.304 1.304 0 01-.999.416 1.255 1.255 0 010-2.507c.791-.013 1.187.542 1.148 1.394zm-.336-.301a.773.773 0 00-.829-.776.842.842 0 00-.867.776h1.696zm2.509 1.01a1.069 1.069 0 01-.91.4c-.513 0-.842-.338-.842-.759 0-.42.337-.707.93-.71h.815v-.145c0-.364-.227-.58-.665-.58-.285.01-.56.11-.787.284l-.154-.27a1.66 1.66 0 011.01-.337c.613 0 .951.325.956.86v1.638h-.353v-.38zm0-.476v-.297h-.772c-.416 0-.631.127-.631.401s.22.451.57.451c.413 0 .733-.212.828-.555h.005zm2.457.689a1.03 1.03 0 01-.56.186c-.364 0-.631-.215-.631-.705v-1.413h-.357v-.303h.358v-.655h.363v.655h.787v.303h-.788v1.347c0 .302.118.414.337.414a.74.74 0 00.396-.128l.096.299zm.978-3.026a.242.242 0 01-.296.22.241.241 0 11.296-.22zm-.42 3.199v-2.487h.364v2.482l-.364.005zm1.814-.005l-.984-2.482h.391l.791 2.101.787-2.101h.372l-.975 2.482h-.382zm3.848-1.09h-2.02a.87.87 0 00.901.792 1.041 1.041 0 00.768-.31l.202.215a1.303 1.303 0 01-.999.416 1.254 1.254 0 010-2.507c.792-.013 1.188.542 1.149 1.394zm-.336-.301a.773.773 0 00-.828-.776.842.842 0 00-.868.776h1.696zm2.283 1.391V34.3h.367v3.496h-.367zm3.425-1.09h-2.02a.87.87 0 00.9.792 1.042 1.042 0 00.768-.31l.203.215a1.303 1.303 0 01-.999.416 1.255 1.255 0 010-2.507c.791-.013 1.187.542 1.148 1.394zm-.336-.301a.773.773 0 00-.829-.776.842.842 0 00-.867.776h1.696zm2.249 1.223c-.164.115-.36.18-.56.186-.362 0-.63-.215-.63-.705v-1.413h-.359v-.303h.359v-.655h.362v.655h.786v.303h-.786v1.347c0 .302.118.414.337.414a.746.746 0 00.395-.128l.096.299zm1.839 0c-.165.115-.36.18-.56.186-.364 0-.632-.215-.632-.705v-1.413h-.359v-.303h.352v-.655h.362v.655h.788v.303h-.788v1.347c0 .302.118.414.337.414a.74.74 0 00.395-.128l.105.299zm2.657-.922h-2.02a.869.869 0 00.899.792 1.037 1.037 0 00.767-.31l.204.215a1.305 1.305 0 01-1 .416 1.255 1.255 0 010-2.507c.791-.013 1.187.542 1.15 1.394zm-.337-.301a.773.773 0 00-.828-.776.842.842 0 00-.867.776h1.695zm1.336-.541a.929.929 0 01.89-.565v.372a.826.826 0 00-.89.806v1.319h-.368v-2.482h.367v.55zm2.837-.336l-.142.291a1.308 1.308 0 00-.673-.202c-.278 0-.49.1-.49.337 0 .55 1.384.267 1.384 1.158 0 .49-.433.707-.91.707a1.402 1.402 0 01-.95-.348l.14-.28c.228.203.522.315.826.317.291 0 .527-.108.532-.354.013-.597-1.376-.291-1.37-1.178 0-.475.409-.674.861-.674.28-.004.556.075.792.226z" fill="#6C6D6D"/><path d="M33.192 23.644V22.61c0-.471-.23-.705-.69-.705h-.246c-.45 0-.674.234-.674.705v1.954a.584.584 0 00.132.444c.135.11.277.208.427.295l1.494.805c.24.132.474.277.699.434.133.101.242.23.32.379.095.27.134.556.114.842v2.512c0 1.326-.635 1.988-1.904 1.987h-.97c-1.258 0-1.888-.722-1.888-2.167v-.593h1.576v.638c0 .46.236.69.706.69h.28c.416 0 .624-.23.624-.69v-2.003a.575.575 0 00-.131-.443 3.338 3.338 0 00-.428-.296l-1.494-.842a4.717 4.717 0 01-.713-.443 1.01 1.01 0 01-.32-.468 2.358 2.358 0 01-.1-.748v-2.401c0-1.347.63-2.02 1.888-2.02h.985c1.26 0 1.89.673 1.89 2.02v1.148h-1.577zm8.012-3.169v9.558c0 1.488-.635 2.232-1.905 2.232h-1.33c-1.257 0-1.886-.75-1.888-2.25v-9.54h1.577v9.598c0 .515.23.771.69.771h.64c.428 0 .64-.256.64-.77v-9.599h1.576zm1.478 0h2.874c1.27 0 1.905.674 1.905 2.02v3.498c0 1.336-.63 2.003-1.89 2.002h-1.313v4.27h-1.576v-11.79zm1.576 6.092h1.002c.415 0 .623-.23.623-.69v-3.284c0-.46-.234-.688-.706-.688h-.92v4.662zm4.451-6.092h3.086c1.203 0 1.806.674 1.807 2.02v2.907c0 1.028-.312 1.68-.936 1.953l1.099 4.91h-1.493l-1.036-4.761h-.951v4.761h-1.576v-11.79zm1.576 5.681h1.033c.472 0 .706-.284.706-.853v-2.544c0-.57-.234-.854-.706-.854h-1.033v4.252zm4.63 6.109V20.48h3.908v1.43h-2.332v3.577h2.068v1.43H56.49v3.923h2.332v1.43l-3.908-.004zm8.242-4.861l1.462-6.929h1.74v11.787h-1.577l.169-7.717-1.179 5.582h-1.216l-1.178-5.582.168 7.717h-1.578V20.475h1.741l1.448 6.93zm4.68 4.861V20.48h3.908v1.43h-2.332v3.577h2.07v1.43h-2.07v3.923h2.332v1.43l-3.908-.004z" fill="#565757"/><path d="M25.44 5.966c.085 3.101-1.213 5.105-3.853 6.654a1568.087 1568.087 0 01-9.827 5.725c-3.607 2.068-4.504 4.606-1.914 7.951-.842 1.852-3.777 1.516-5.389 1.24-1.813-1.103-2.342-3.515-2.239-5.488.147-2.804 1.633-5.472 3.67-7.37A6258.558 6258.558 0 0125.426 0c0 1.99.005 3.978.015 5.966z" fill="url(#paint0_linear_0_6573)"/><path d="M9.846 26.296s-.394-.32-1.042-.897c-3.08-2.742-7.09-6.981-2.924-10.721A18.037 18.037 0 002.37 18.3C-.577 22.247-.001 28.595.139 33.34c.067 2.276 2.758 2.781 4.468 1.872 1.883-1.01 3.893-2.128 5.725-3.108 2.787-1.516 1.411-4.28-.486-5.808z" fill="url(#paint1_linear_0_6573)"/><path d="M.234 47.034c-.085-3.101 1.211-5.107 3.853-6.653 3.233-1.896 6.567-3.847 9.827-5.725 3.605-2.074 4.504-4.612 1.914-7.957.842-1.853 3.777-1.506 5.397-1.238 1.813 1.103 2.34 3.514 2.238 5.486-.145 2.804-1.634 5.472-3.67 7.37A5997.995 5997.995 0 01.252 53c0-1.994-.005-3.982-.017-5.966z" fill="url(#paint2_linear_0_6573)"/><path d="M15.827 26.704s.394.32 1.042.897c3.076 2.743 7.089 6.98 2.923 10.721a17.982 17.982 0 003.51-3.622c2.948-3.947 2.375-10.296 2.232-15.031-.069-2.277-2.756-2.782-4.469-1.87-1.884 1.01-3.893 2.126-5.716 3.107-2.794 1.506-1.418 4.27.478 5.798z" fill="url(#paint3_linear_0_6573)"/><defs><linearGradient id="paint0_linear_0_6573" x1="28.407" y1="14.717" x2="2.548" y2="12.976" gradientUnits="userSpaceOnUse"><stop stop-color="#00C4FF"/><stop offset="1" stop-color="#001973"/></linearGradient><linearGradient id="paint1_linear_0_6573" x1="14.099" y1="25.815" x2="-.011" y2="24.865" gradientUnits="userSpaceOnUse"><stop stop-color="#001973"/><stop offset="1" stop-color="#00C4FF"/></linearGradient><linearGradient id="paint2_linear_0_6573" x1="-2.731" y1="38.283" x2="23.126" y2="40.025" gradientUnits="userSpaceOnUse"><stop stop-color="#00C4FF"/><stop offset="1" stop-color="#001973"/></linearGradient><linearGradient id="paint3_linear_0_6573" x1="11.573" y1="27.185" x2="25.684" y2="28.135" gradientUnits="userSpaceOnUse"><stop stop-color="#001973"/><stop offset="1" stop-color="#00C4FF"/></linearGradient></defs></svg>