<svg width="67" height="53" fill="none" xmlns="http://www.w3.org/2000/svg"><path d="M50.339 21.725a3.49 3.49 0 00-2.903-.098 3.172 3.172 0 01-2.353.06l-3.385-1.299a3.048 3.048 0 01-1.348-1.05 3.135 3.135 0 01-.585-1.623 8.41 8.41 0 00-2.124-4.909 3.657 3.657 0 01-.872-1.766 3.694 3.694 0 01.166-1.97l.113-.302a3.588 3.588 0 011.715-1.943 3.59 3.59 0 001.441-1.44 3.68 3.68 0 00-.261-3.933A3.564 3.564 0 0038.325.224a3.495 3.495 0 00-2.013-.135 3.54 3.54 0 00-1.762 1.003 3.64 3.64 0 00-.942 1.817 3.688 3.688 0 00.179 2.048 3.67 3.67 0 010 2.587l-.102.287a3.644 3.644 0 01-1.147 1.595 3.54 3.54 0 01-1.795.75 8.064 8.064 0 00-4.11 1.696 8.29 8.29 0 00-2.63 3.639 8.344 8.344 0 00-.51 2.555 3.675 3.675 0 01-.6 1.88 3.579 3.579 0 01-1.477 1.281l-.361.17a3.472 3.472 0 01-2.505.11 3.491 3.491 0 00-2.014-.019c-.66.192-1.25.574-1.7 1.1a3.681 3.681 0 00-.551 3.896 3.6 3.6 0 001.325 1.545 3.506 3.506 0 003.863-.038 3.606 3.606 0 001.297-1.57 3.473 3.473 0 011.707-1.814l.367-.17a3.498 3.498 0 013.698.484 8.043 8.043 0 005.49 1.81 8.071 8.071 0 005.29-2.35c.396-.41.9-.693 1.45-.819a2.888 2.888 0 011.653.111l3.603 1.377c.691.278 1.25.82 1.557 1.509a3.595 3.595 0 001.467 1.593 3.5 3.5 0 004.068-.423 3.633 3.633 0 001.12-1.863 3.703 3.703 0 00-.233-2.413 3.61 3.61 0 00-1.668-1.728z" fill="url(#paint0_linear_0_6085)"/><path d="M41.833 14.75l.106.354c.156.496.149 1.04-.02 1.53a1.81 1.81 0 00-.078.898c.05.302.177.581.363.805a1.4 1.4 0 00.688.457c.263.076.54.065.798-.032.257-.096.485-.274.657-.512.171-.239.279-.527.31-.832a1.798 1.798 0 00-.134-.89 1.559 1.559 0 00-.536-.67 2.222 2.222 0 01-.861-1.213l-.067-.217a2.75 2.75 0 01-.12-1.078c.033-.365.137-.717.306-1.03a2.85 2.85 0 00.178-2.41c-.229-.58-.638-1.045-1.15-1.306a2.048 2.048 0 00-1.625-.111 2.29 2.29 0 00-1.122.914 2.79 2.79 0 00-.442 1.482 2.802 2.802 0 00.402 1.496c.27.439.653.772 1.097.952.289.114.551.3.767.545.217.245.381.542.483.868z" fill="url(#paint1_linear_0_6085)"/><path d="M22.244 14.785l.158-.327c.214-.46.595-.83 1.073-1.042a1.6 1.6 0 00.69-.564 1.49 1.49 0 00.262-.83 1.488 1.488 0 00-.248-.832 1.593 1.593 0 00-.68-.574 1.69 1.69 0 00-1.73.213 1.54 1.54 0 00-.505.721 1.472 1.472 0 00-.017.866 2.08 2.08 0 01-.132 1.483l-.097.199a2.33 2.33 0 01-.646.835 2.477 2.477 0 01-.964.483 2.61 2.61 0 00-1.108.551 2.442 2.442 0 00-.704.986 2.367 2.367 0 00.044 1.758c.24.561.688 1.019 1.258 1.287a2.68 2.68 0 001.554.205 2.61 2.61 0 001.39-.695c.375-.364.621-.831.704-1.336a2.343 2.343 0 00-.244-1.476 2.097 2.097 0 01-.059-1.91z" fill="url(#paint2_linear_0_6085)"/><path d="M5.74 35.72c1.027 0 1.855.298 2.482.894.637.595.955 1.479.955 2.65v4.586H6.772v-4.23c0-.635-.144-1.107-.431-1.414-.288-.318-.704-.477-1.25-.477-.606 0-1.089.184-1.448.551-.36.357-.54.893-.54 1.608v3.96H.698V32.803h2.405v3.871a3.15 3.15 0 011.156-.7 4.203 4.203 0 011.48-.253zm13.973.12v8.01h-2.281v-.953a3.27 3.27 0 01-1.141.804 3.79 3.79 0 01-1.434.268c-1.09 0-1.953-.303-2.59-.909-.637-.605-.956-1.503-.956-2.694v-4.527h2.405v4.184c0 1.29.56 1.936 1.68 1.936.576 0 1.039-.179 1.388-.536.35-.368.524-.909.524-1.623v-3.96h2.405zm7.131-.12c.771 0 1.47.174 2.097.521a3.678 3.678 0 011.495 1.445c.36.615.54 1.335.54 2.158 0 .824-.18 1.549-.54 2.174a3.809 3.809 0 01-1.495 1.444c-.627.338-1.326.507-2.097.507-1.14 0-2.01-.348-2.605-1.043v.924h-2.297V32.802h2.405v3.886c.606-.645 1.439-.968 2.497-.968zm-.416 6.343c.617 0 1.12-.199 1.51-.596.402-.407.602-.948.602-1.623s-.2-1.21-.601-1.608c-.39-.406-.894-.61-1.511-.61-.617 0-1.125.204-1.526.61-.39.398-.586.934-.586 1.608 0 .675.195 1.216.586 1.623.4.397.91.596 1.526.596zm11.199-6.343c1.028 0 1.856.298 2.483.894.637.595.955 1.479.955 2.65v4.586H38.66v-4.23c0-.635-.143-1.107-.431-1.414-.288-.318-.704-.477-1.25-.477-.605 0-1.089.184-1.448.551-.36.357-.54.893-.54 1.608v3.96h-2.405v-8.01h2.297v.938a3.122 3.122 0 011.187-.774 4.166 4.166 0 011.557-.283zm9.887 6.388c.431 0 .812-.06 1.14-.18.34-.128.653-.327.941-.595l1.28 1.34c-.781.864-1.922 1.296-3.423 1.296-.935 0-1.762-.174-2.482-.521-.72-.358-1.274-.85-1.665-1.474-.39-.626-.586-1.335-.586-2.13 0-.784.19-1.488.57-2.114a3.99 3.99 0 011.588-1.474c.679-.357 1.44-.536 2.282-.536.792 0 1.511.164 2.159.492a3.687 3.687 0 011.541 1.4c.39.605.586 1.324.586 2.158l-6.136 1.146c.175.398.447.695.817.894.38.198.843.298 1.388.298zm-.355-4.63c-.606 0-1.1.188-1.48.565-.38.377-.58.898-.601 1.563l4.04-.76a1.75 1.75 0 00-.695-.997c-.349-.248-.77-.372-1.264-.372zm10.95 6.372l-1.82-2.457-1.88 2.457h-2.621l3.191-4.035-3.083-3.976h2.698l1.757 2.338 1.804-2.338h2.56l-3.084 3.916 3.206 4.095H58.11zM67 43.462c-.236.17-.53.298-.879.388a4.674 4.674 0 01-1.063.119c-.997 0-1.763-.244-2.298-.73-.534-.486-.801-1.2-.801-2.144v-7.027h2.405v1.95h2.05v1.787h-2.05v3.26c0 .338.087.6.262.79.175.178.426.267.755.267.37 0 .7-.099.987-.297L67 43.462zM.098 48.912h.553v3.393H.098v-3.393zm.277-.653a.359.359 0 01-.271-.116.406.406 0 01-.104-.281c0-.111.035-.205.104-.282a.35.35 0 01.27-.122.34.34 0 01.266.116.37.37 0 01.11.275.425.425 0 01-.11.294.34.34 0 01-.265.116zm2.963.621c.388 0 .695.126.922.377.23.248.346.613.346 1.095v1.953h-.553v-1.882c0-.329-.072-.576-.214-.743-.142-.166-.345-.25-.61-.25-.3 0-.536.099-.71.295-.172.192-.259.47-.259.832v1.748h-.553v-3.393h.53v.512a1.11 1.11 0 01.45-.403c.192-.094.409-.141.651-.141zm3.639 3.464c-.31 0-.59-.075-.835-.224a1.575 1.575 0 01-.57-.615 1.906 1.906 0 01-.208-.897c0-.332.07-.63.207-.89a1.52 1.52 0 01.57-.614c.247-.15.525-.224.836-.224.277 0 .523.062.738.185.219.124.388.303.507.538l-.42.301a.985.985 0 00-.358-.365.936.936 0 00-.472-.121c-.2 0-.38.049-.542.147a1.03 1.03 0 00-.375.422c-.088.18-.132.387-.132.621 0 .24.044.45.132.634.093.18.217.318.375.417.161.098.342.147.542.147.172 0 .33-.04.472-.122a.985.985 0 00.357-.365l.421.295c-.12.235-.288.416-.507.544a1.452 1.452 0 01-.738.186zm2.491-2.862a.994.994 0 01.427-.449 1.42 1.42 0 01.685-.153v.595a.967.967 0 00-.126-.006c-.3 0-.536.1-.71.3-.168.197-.253.479-.253.846v1.69h-.553v-3.393h.53v.57zm3.143 2.324c.365 0 .659-.137.882-.41l.3.397a1.3 1.3 0 01-.513.41c-.204.094-.432.14-.686.14a1.68 1.68 0 01-.859-.217 1.538 1.538 0 01-.582-.621 1.95 1.95 0 01-.201-.897c0-.328.065-.625.196-.89.134-.264.317-.469.547-.614.234-.15.498-.224.79-.224.276 0 .528.07.754.211.227.137.407.33.542.583.134.252.204.542.207.87l-2.425.526c.076.234.205.416.386.544.184.128.405.192.662.192zm-.127-2.408a.943.943 0 00-.518.148.986.986 0 00-.352.416c-.084.175-.126.38-.126.614v.065l1.953-.41a1.06 1.06 0 00-.334-.602.904.904 0 00-.622-.23zm5.159-1.844v4.751h-.53v-.538a1.244 1.244 0 01-.466.43 1.325 1.325 0 01-.623.147 1.48 1.48 0 01-.795-.218 1.515 1.515 0 01-.553-.608 2.027 2.027 0 01-.196-.91c0-.341.065-.642.196-.902.134-.26.319-.463.553-.609.234-.145.5-.217.795-.217.22 0 .42.047.605.14.185.09.338.225.461.404v-1.87h.553zm-1.573 4.252c.192 0 .367-.05.525-.147a1.04 1.04 0 00.368-.423c.089-.184.133-.393.133-.627 0-.235-.044-.442-.133-.622a.988.988 0 00-.368-.422.972.972 0 00-.525-.147.982.982 0 00-.53.147 1.054 1.054 0 00-.369.422c-.088.18-.132.387-.132.621 0 .235.044.444.132.628.093.18.216.32.37.423a.981.981 0 00.53.147zm2.62-2.894h.553v3.393h-.553v-3.393zm.277-.653a.359.359 0 01-.271-.116.406.406 0 01-.104-.281c0-.111.035-.205.104-.282a.35.35 0 01.27-.122.34.34 0 01.266.116.37.37 0 01.11.275.425.425 0 01-.11.294.34.34 0 01-.265.116zm2.952.621c.295 0 .56.072.795.217.234.146.417.348.547.609.135.26.202.561.202.902 0 .342-.067.645-.202.91-.13.26-.313.463-.547.608a1.48 1.48 0 01-.795.218c-.227 0-.434-.05-.623-.148a1.234 1.234 0 01-.466-.429v.538h-.53v-4.75h.553v1.869a1.16 1.16 0 01.46-.403c.185-.094.387-.141.606-.141zm-.047 2.926c.196 0 .371-.05.525-.147a1.04 1.04 0 00.369-.423 1.38 1.38 0 00.138-.627 1.34 1.34 0 00-.138-.622.989.989 0 00-.37-.422.953.953 0 00-.524-.147.972.972 0 00-.524.147.99.99 0 00-.369.422c-.088.18-.132.387-.132.621 0 .235.044.444.132.628.089.18.212.32.37.423a.971.971 0 00.523.147zm3.283.538c-.296 0-.524-.09-.686-.27-.161-.183-.242-.439-.242-.768v-3.752h.553v3.701c0 .184.039.325.116.423.08.098.2.147.357.147a.592.592 0 00.27-.064l.03.506a1.06 1.06 0 01-.398.077zm2.245-.538c.364 0 .658-.137.881-.41l.3.397a1.3 1.3 0 01-.513.41c-.204.094-.432.14-.686.14a1.68 1.68 0 01-.859-.217 1.538 1.538 0 01-.581-.621 1.951 1.951 0 01-.202-.897c0-.328.065-.625.196-.89.134-.264.317-.469.547-.614.235-.15.498-.224.79-.224a1.463 1.463 0 011.296.794c.134.252.204.542.207.87l-2.425.526c.076.234.205.416.386.544.184.128.405.192.662.192zm-.127-2.408a.943.943 0 00-.519.148.986.986 0 00-.352.416c-.084.175-.126.38-.126.614v.065l1.953-.41a1.06 1.06 0 00-.334-.602.904.904 0 00-.622-.23zm5.156 2.946c-.311 0-.59-.075-.836-.224a1.575 1.575 0 01-.57-.615 1.906 1.906 0 01-.207-.897c0-.332.069-.63.207-.89a1.52 1.52 0 01.57-.614c.246-.15.525-.224.836-.224.276 0 .522.062.737.185.22.124.389.303.508.538l-.421.301a.985.985 0 00-.357-.365.937.937 0 00-.473-.121c-.2 0-.38.049-.542.147a1.028 1.028 0 00-.374.422c-.088.18-.133.387-.133.621 0 .24.045.45.133.634.092.18.217.318.374.417.162.098.342.147.542.147.173 0 .33-.04.473-.122a.985.985 0 00.357-.365l.42.295a1.289 1.289 0 01-.507.544 1.452 1.452 0 01-.737.186zm3.224 0c-.304 0-.576-.075-.819-.224a1.575 1.575 0 01-.57-.615 1.95 1.95 0 01-.202-.897c0-.332.068-.63.202-.89a1.52 1.52 0 01.57-.614c.242-.15.515-.224.819-.224.303 0 .574.074.812.224.242.145.43.35.565.614.138.26.207.558.207.89 0 .334-.069.632-.207.897-.135.26-.323.465-.565.615a1.5 1.5 0 01-.812.224zm0-.538c.196 0 .37-.05.524-.147.158-.103.28-.244.369-.423.088-.184.132-.393.132-.627 0-.235-.044-.442-.132-.622a.99.99 0 00-.369-.422.953.953 0 00-.524-.147.982.982 0 00-.53.147 1.048 1.048 0 00-.37.422 1.41 1.41 0 00-.132.621c0 .235.044.444.133.628.092.18.215.32.369.423a.981.981 0 00.53.147zm3.98-2.926c.388 0 .695.126.922.377.23.248.346.613.346 1.095v1.953h-.553v-1.882c0-.329-.072-.576-.214-.743-.142-.166-.345-.25-.61-.25-.3 0-.536.099-.71.295-.172.192-.258.47-.258.832v1.748h-.554v-3.393h.53v.512a1.11 1.11 0 01.45-.403c.192-.094.41-.141.651-.141zm3.922 0c.388 0 .696.126.922.377.23.248.346.613.346 1.095v1.953h-.553v-1.882c0-.329-.071-.576-.214-.743-.142-.166-.345-.25-.61-.25-.3 0-.536.099-.709.295-.173.192-.26.47-.26.832v1.748h-.552v-3.393h.53v.512a1.11 1.11 0 01.45-.403c.191-.094.408-.141.65-.141zm3.685 2.926c.366 0 .66-.137.882-.41l.3.397a1.3 1.3 0 01-.513.41c-.203.094-.432.14-.686.14-.322 0-.608-.072-.858-.217a1.538 1.538 0 01-.582-.621 1.951 1.951 0 01-.202-.897c0-.328.066-.625.196-.89.134-.264.317-.469.547-.614.235-.15.498-.224.79-.224.277 0 .528.07.755.211.226.137.407.33.541.583.135.252.204.542.208.87l-2.426.526c.077.234.206.416.386.544.184.128.405.192.663.192zm-.126-2.408a.943.943 0 00-.519.148.986.986 0 00-.351.416c-.085.175-.127.38-.127.614v.065l1.953-.41a1.06 1.06 0 00-.334-.602.904.904 0 00-.622-.23zm3.609 2.946c-.311 0-.59-.075-.836-.224a1.576 1.576 0 01-.57-.615 1.906 1.906 0 01-.208-.897c0-.332.07-.63.208-.89a1.52 1.52 0 01.57-.614c.246-.15.525-.224.836-.224.276 0 .522.062.737.185.22.124.388.303.507.538l-.42.301a.985.985 0 00-.357-.365.936.936 0 00-.473-.121c-.2 0-.38.049-.542.147a1.028 1.028 0 00-.374.422c-.089.18-.133.387-.133.621 0 .24.044.45.133.634.092.18.217.318.374.417.162.098.342.147.542.147.173 0 .33-.04.473-.122a.985.985 0 00.357-.365l.42.295a1.289 1.289 0 01-.507.544c-.215.124-.46.186-.737.186zm3.529-.237a.838.838 0 01-.3.18 1.206 1.206 0 01-.369.057c-.307 0-.545-.092-.714-.276-.17-.183-.254-.446-.254-.787v-3.112h.554v.743h.875v.506h-.875v1.837c0 .184.04.325.12.423a.446.446 0 00.358.147.625.625 0 00.432-.16l.173.442zm.666-3.195h.553v3.393h-.553v-3.393zm.276-.653a.359.359 0 01-.27-.116.406.406 0 01-.104-.281c0-.111.034-.205.103-.282a.35.35 0 01.271-.122.34.34 0 01.265.116.37.37 0 01.11.275.425.425 0 01-.11.294.34.34 0 01-.265.116zm2.641 4.085a1.53 1.53 0 01-.818-.224 1.575 1.575 0 01-.57-.615 1.95 1.95 0 01-.202-.897c0-.332.067-.63.201-.89a1.52 1.52 0 01.57-.614c.243-.15.516-.224.819-.224.303 0 .574.074.812.224.242.145.43.35.565.614.138.26.208.558.208.89 0 .334-.07.632-.208.897-.134.26-.323.465-.565.615a1.5 1.5 0 01-.812.224zm0-.538c.196 0 .37-.05.524-.147.158-.103.28-.244.37-.423a1.43 1.43 0 00.132-.627c0-.235-.045-.442-.133-.622a.99.99 0 00-.369-.422.953.953 0 00-.524-.147.982.982 0 00-.53.147 1.039 1.039 0 00-.369.422c-.088.18-.133.387-.133.621 0 .235.045.444.133.628.092.18.215.32.369.423a.981.981 0 00.53.147zm3.98-2.926c.388 0 .696.126.922.377.23.248.346.613.346 1.095v1.953h-.553v-1.882c0-.329-.071-.576-.213-.743-.143-.166-.346-.25-.611-.25-.3 0-.536.099-.709.295-.173.192-.26.47-.26.832v1.748h-.552v-3.393h.53v.512a1.11 1.11 0 01.45-.403c.191-.094.408-.141.65-.141zm3.168 3.464c-.25 0-.49-.037-.72-.11a1.555 1.555 0 01-.542-.287l.23-.487a1.83 1.83 0 001.072.352c.484 0 .726-.153.726-.46a.314.314 0 00-.098-.244.57.57 0 00-.248-.128 3.98 3.98 0 00-.415-.096 3.833 3.833 0 01-.605-.147.924.924 0 01-.397-.282c-.112-.133-.167-.318-.167-.557 0-.308.115-.553.345-.737.23-.187.54-.281.928-.281.204 0 .407.027.61.083.204.056.371.13.502.224l-.236.487a1.472 1.472 0 00-.882-.27c-.234 0-.413.043-.536.129a.395.395 0 00-.184.34.34.34 0 00.104.262.63.63 0 00.253.14c.104.03.248.065.432.103.246.047.444.098.594.154.154.05.284.14.392.269.107.128.161.307.161.537a.884.884 0 01-.357.737c-.234.18-.555.269-.962.269z" fill="#122428"/><defs><linearGradient id="paint0_linear_0_6085" x1="18.834" y1="11.065" x2="53.053" y2="23.67" gradientUnits="userSpaceOnUse"><stop stop-color="#71B6FF"/><stop offset="1" stop-color="#006DE0"/></linearGradient><linearGradient id="paint1_linear_0_6085" x1="41.928" y1="12.594" x2="45.434" y2="20.391" gradientUnits="userSpaceOnUse"><stop stop-color="#EB9B00"/><stop offset="1" stop-color="#FF3670"/></linearGradient><linearGradient id="paint2_linear_0_6085" x1="23.962" y1="11.952" x2="15.848" y2="25.161" gradientUnits="userSpaceOnUse"><stop stop-color="#EB9B00"/><stop offset="1" stop-color="#FF3670"/></linearGradient></defs></svg>