<svg width="189" height="56" fill="none" xmlns="http://www.w3.org/2000/svg"><g filter="url(#filter0_d_0_1523)"><path d="M72.547 38.825c-2.113 0-4.007-.346-5.681-1.037-1.674-.691-3.02-1.714-4.035-3.07-.988-1.355-1.51-2.986-1.564-4.894h7.493c.11 1.078.48 1.908 1.111 2.489.631.553 1.455.83 2.47.83 1.043 0 1.867-.236 2.47-.706.604-.498.906-1.175.906-2.033 0-.719-.247-1.313-.74-1.783-.467-.47-1.058-.857-1.771-1.162-.686-.304-1.674-.65-2.964-1.037-1.867-.58-3.39-1.161-4.57-1.742-1.18-.58-2.196-1.438-3.047-2.572-.85-1.134-1.276-2.613-1.276-4.438 0-2.71.974-4.826 2.923-6.347C66.221 9.774 68.76 9 71.888 9c3.184 0 5.75.774 7.7 2.323 1.948 1.521 2.99 3.65 3.128 6.388H75.1c-.055-.94-.398-1.673-1.03-2.198-.63-.553-1.44-.83-2.428-.83-.851 0-1.537.235-2.059.705-.522.443-.782 1.092-.782 1.95 0 .94.439 1.673 1.317 2.198.879.526 2.25 1.093 4.117 1.701 1.867.636 3.376 1.245 4.529 1.825 1.18.581 2.196 1.424 3.046 2.53.851 1.107 1.277 2.531 1.277 4.273 0 1.66-.426 3.167-1.277 4.522-.823 1.355-2.03 2.433-3.623 3.235-1.591.802-3.471 1.203-5.64 1.203zM86.02 26.92c0-2.378.438-4.466 1.317-6.264.906-1.797 2.127-3.18 3.664-4.148 1.537-.968 3.252-1.452 5.146-1.452 1.62 0 3.033.332 4.241.996 1.235.664 2.181 1.535 2.84 2.613v-3.277h7.04v23.147h-7.04v-3.277c-.686 1.078-1.647 1.95-2.882 2.613-1.207.664-2.62.996-4.24.996-1.866 0-3.568-.484-5.105-1.452-1.537-.996-2.758-2.392-3.664-4.19-.879-1.825-1.318-3.927-1.318-6.305zm17.208.041c0-1.77-.494-3.166-1.482-4.19-.961-1.022-2.14-1.534-3.54-1.534s-2.594.512-3.582 1.535c-.96.995-1.441 2.378-1.441 4.148 0 1.77.48 3.18 1.44 4.231.989 1.023 2.183 1.535 3.582 1.535 1.4 0 2.58-.512 3.541-1.535.988-1.023 1.482-2.42 1.482-4.19zm21.479 11.906c-2.004 0-3.788-.346-5.352-1.037-1.565-.692-2.8-1.632-3.705-2.821a7.616 7.616 0 01-1.524-4.065h6.958c.082.802.453 1.452 1.111 1.95.659.497 1.469.746 2.429.746.879 0 1.551-.166 2.018-.498.494-.36.741-.816.741-1.369 0-.663-.343-1.147-1.029-1.451-.687-.332-1.798-.692-3.335-1.079-1.647-.387-3.019-.788-4.117-1.203a7.393 7.393 0 01-2.841-2.033c-.796-.94-1.194-2.198-1.194-3.774 0-1.328.357-2.53 1.071-3.61.741-1.106 1.811-1.977 3.211-2.613 1.427-.636 3.115-.954 5.064-.954 2.882 0 5.146.72 6.793 2.157 1.674 1.438 2.635 3.346 2.882 5.725h-6.505c-.11-.802-.467-1.438-1.071-1.908-.576-.47-1.344-.706-2.305-.706-.823 0-1.455.166-1.894.498-.439.304-.659.733-.659 1.286 0 .664.344 1.162 1.03 1.494.713.331 1.811.663 3.293.995 1.702.442 3.088.885 4.158 1.327 1.071.415 2.004 1.107 2.8 2.075.823.94 1.249 2.212 1.276 3.816 0 1.355-.384 2.572-1.153 3.65-.741 1.051-1.825 1.88-3.252 2.49-1.4.608-3.033.912-4.899.912zm27.197-.332l-4.405-6.43-3.705 6.43h-7.617l7.576-11.822-7.781-11.325h7.904l4.405 6.388 3.706-6.388h7.616l-7.699 11.656 7.905 11.49h-7.905zm21.075.332c-2.251 0-4.282-.484-6.094-1.452-1.784-.968-3.197-2.35-4.24-4.148-1.016-1.798-1.523-3.9-1.523-6.306 0-2.378.521-4.466 1.564-6.263 1.043-1.825 2.47-3.222 4.282-4.19 1.811-.968 3.842-1.452 6.093-1.452 2.25 0 4.281.484 6.093 1.452 1.811.968 3.239 2.365 4.282 4.19 1.043 1.797 1.564 3.885 1.564 6.264 0 2.378-.535 4.48-1.606 6.305a10.62 10.62 0 01-4.322 4.148c-1.812.968-3.843 1.452-6.093 1.452zm0-6.14c1.344 0 2.483-.497 3.417-1.493.96-.996 1.441-2.42 1.441-4.273 0-1.852-.467-3.277-1.4-4.272-.906-.996-2.031-1.493-3.376-1.493-1.372 0-2.511.497-3.417 1.493-.906.968-1.359 2.392-1.359 4.273 0 1.852.439 3.276 1.318 4.272.905.996 2.031 1.493 3.376 1.493z" fill="#122428"/><rect x="4" width="48" height="48" rx="14" fill="#7D51F8"/><path d="M30.277 20.608L40.904 11a22.588 22.588 0 00-15.14 5.858L15 26.592h11.495L16.108 36a20.903 20.903 0 0014.279-5.664l4-3.744L41 20.608H30.277z" fill="#fff"/></g><defs><filter id="filter0_d_0_1523" x="0" y="0" width="189" height="56" filterUnits="userSpaceOnUse" color-interpolation-filters="sRGB"><feFlood flood-opacity="0" result="BackgroundImageFix"/><feColorMatrix in="SourceAlpha" values="0 0 0 0 0 0 0 0 0 0 0 0 0 0 0 0 0 0 127 0" result="hardAlpha"/><feOffset dy="4"/><feGaussianBlur stdDeviation="2"/><feComposite in2="hardAlpha" operator="out"/><feColorMatrix values="0 0 0 0 0 0 0 0 0 0 0 0 0 0 0 0 0 0 0.25 0"/><feBlend in2="BackgroundImageFix" result="effect1_dropShadow_0_1523"/><feBlend in="SourceGraphic" in2="effect1_dropShadow_0_1523" result="shape"/></filter></defs></svg>