<svg width="181" height="48" fill="none" xmlns="http://www.w3.org/2000/svg"><path d="M68.547 38.825c-2.113 0-4.007-.346-5.681-1.037-1.674-.691-3.02-1.714-4.035-3.07-.988-1.355-1.51-2.986-1.564-4.894h7.493c.11 1.078.48 1.908 1.111 2.489.632.553 1.455.83 2.47.83 1.043 0 1.867-.236 2.47-.706.604-.498.906-1.175.906-2.033 0-.719-.247-1.313-.74-1.783-.467-.47-1.057-.857-1.771-1.162-.686-.304-1.674-.65-2.964-1.037-1.867-.58-3.39-1.161-4.57-1.742-1.18-.58-2.196-1.438-3.047-2.572-.85-1.134-1.276-2.613-1.276-4.438 0-2.71.975-4.826 2.923-6.347C62.221 9.774 64.76 9 67.89 9c3.183 0 5.75.774 7.698 2.323 1.949 1.521 2.992 3.65 3.13 6.388H71.1c-.055-.94-.398-1.673-1.03-2.198-.63-.553-1.44-.83-2.428-.83-.851 0-1.537.235-2.059.705-.521.443-.782 1.092-.782 1.95 0 .94.439 1.673 1.317 2.198.879.526 2.25 1.093 4.117 1.701 1.867.636 3.376 1.245 4.529 1.825 1.18.581 2.196 1.424 3.047 2.53.85 1.107 1.276 2.531 1.276 4.273 0 1.66-.426 3.167-1.276 4.522-.824 1.355-2.032 2.433-3.623 3.235-1.592.802-3.472 1.203-5.64 1.203zM82.02 26.92c0-2.378.439-4.466 1.317-6.264.906-1.797 2.127-3.18 3.664-4.148 1.537-.968 3.252-1.452 5.146-1.452 1.62 0 3.033.332 4.24.996 1.236.664 2.183 1.535 2.841 2.613v-3.277h7.04v23.147h-7.04v-3.277c-.686 1.078-1.646 1.95-2.881 2.613-1.208.664-2.622.996-4.241.996-1.866 0-3.568-.484-5.105-1.452-1.537-.996-2.758-2.392-3.664-4.19-.878-1.825-1.318-3.927-1.318-6.305zm17.208.041c0-1.77-.494-3.166-1.482-4.19-.96-1.022-2.14-1.534-3.54-1.534s-2.594.512-3.582 1.535c-.96.995-1.441 2.378-1.441 4.148 0 1.77.48 3.18 1.44 4.231.989 1.023 2.183 1.535 3.583 1.535 1.4 0 2.58-.512 3.54-1.535.988-1.023 1.482-2.42 1.482-4.19zm21.479 11.906c-2.004 0-3.788-.346-5.352-1.037-1.565-.692-2.8-1.632-3.705-2.821a7.616 7.616 0 01-1.524-4.065h6.958c.082.802.453 1.452 1.112 1.95.658.497 1.468.746 2.429.746.878 0 1.55-.166 2.017-.498.494-.36.741-.816.741-1.369 0-.663-.343-1.147-1.029-1.451-.686-.332-1.798-.692-3.335-1.079-1.647-.387-3.019-.788-4.117-1.203a7.393 7.393 0 01-2.841-2.033c-.796-.94-1.194-2.198-1.194-3.774 0-1.328.357-2.53 1.071-3.61.741-1.106 1.811-1.977 3.211-2.613 1.427-.636 3.115-.954 5.064-.954 2.882 0 5.146.72 6.793 2.157 1.674 1.438 2.635 3.346 2.882 5.725h-6.505c-.11-.802-.467-1.438-1.07-1.908-.577-.47-1.345-.706-2.306-.706-.823 0-1.455.166-1.894.498-.439.304-.658.733-.658 1.286 0 .664.343 1.162 1.029 1.494.713.331 1.811.663 3.293.995 1.702.442 3.088.885 4.159 1.327 1.07.415 2.003 1.107 2.799 2.075.823.94 1.249 2.212 1.276 3.816 0 1.355-.384 2.572-1.152 3.65-.742 1.051-1.826 1.88-3.253 2.49-1.4.608-3.033.912-4.899.912zm27.197-.332l-4.405-6.43-3.705 6.43h-7.616l7.575-11.822-7.781-11.325h7.904l4.405 6.388 3.706-6.388h7.616l-7.699 11.656 7.905 11.49h-7.905zm21.075.332c-2.251 0-4.282-.484-6.093-1.452-1.784-.968-3.198-2.35-4.241-4.148-1.015-1.798-1.523-3.9-1.523-6.306 0-2.378.521-4.466 1.564-6.263 1.043-1.825 2.47-3.222 4.282-4.19 1.811-.968 3.842-1.452 6.093-1.452s4.282.484 6.093 1.452c1.812.968 3.239 2.365 4.282 4.19 1.043 1.797 1.564 3.885 1.564 6.264 0 2.378-.535 4.48-1.605 6.305a10.622 10.622 0 01-4.323 4.148c-1.812.968-3.843 1.452-6.093 1.452zm0-6.14c1.345 0 2.484-.497 3.417-1.493.96-.996 1.441-2.42 1.441-4.273 0-1.852-.467-3.277-1.4-4.272-.906-.996-2.031-1.493-3.376-1.493-1.372 0-2.511.497-3.417 1.493-.906.968-1.359 2.392-1.359 4.273 0 1.852.439 3.276 1.318 4.272.905.996 2.031 1.493 3.376 1.493z" fill="#122428"/><rect width="48" height="48" rx="14" fill="#1CB779"/><path d="M26.277 20.608L36.904 11a22.588 22.588 0 00-15.14 5.858L11 26.592h11.495L12.108 36a20.903 20.903 0 0014.279-5.664l4-3.744L37 20.608H26.277z" fill="#fff"/></svg>