<svg width="136" height="35" fill="none" xmlns="http://www.w3.org/2000/svg"><path d="M53.225 28.747c-1.54 0-2.922-.252-4.142-.756-1.221-.504-2.202-1.25-2.942-2.238-.72-.988-1.101-2.178-1.141-3.57h5.464c.08.787.35 1.392.81 1.816.46.403 1.06.605 1.801.605.76 0 1.361-.172 1.801-.514.44-.363.66-.857.66-1.483 0-.524-.18-.957-.54-1.3a4.004 4.004 0 00-1.29-.847c-.5-.222-1.221-.474-2.162-.756-1.36-.424-2.471-.847-3.332-1.27-.86-.424-1.601-1.05-2.221-1.876-.62-.827-.931-1.905-.931-3.236 0-1.976.71-3.52 2.131-4.628C48.612 7.564 50.464 7 52.745 7c2.322 0 4.193.565 5.614 1.694 1.42 1.109 2.181 2.662 2.281 4.658h-5.553c-.04-.686-.29-1.22-.75-1.603-.461-.404-1.052-.605-1.772-.605-.62 0-1.12.171-1.501.514-.38.323-.57.796-.57 1.422 0 .685.32 1.22.96 1.603.64.383 1.641.796 3.002 1.24 1.361.464 2.462.907 3.302 1.33A6.285 6.285 0 0159.98 19.1c.62.806.93 1.845.93 3.115 0 1.21-.31 2.309-.93 3.297-.6.988-1.481 1.775-2.642 2.36-1.16.584-2.532.877-4.113.877zm9.824-8.68c0-1.735.32-3.257.96-4.568.66-1.31 1.551-2.319 2.672-3.024 1.12-.706 2.372-1.059 3.753-1.059 1.18 0 2.211.242 3.092.726.9.484 1.59 1.12 2.07 1.905v-2.389h5.134v16.878h-5.133v-2.39c-.5.787-1.2 1.422-2.101 1.906-.881.484-1.912.726-3.093.726-1.36 0-2.601-.353-3.722-1.059-1.12-.726-2.011-1.744-2.672-3.055-.64-1.33-.96-2.863-.96-4.597zm12.548.03c0-1.29-.36-2.309-1.08-3.055-.701-.746-1.562-1.12-2.582-1.12-1.021 0-1.892.374-2.612 1.12-.7.726-1.05 1.734-1.05 3.025 0 1.29.35 2.319 1.05 3.085.72.746 1.59 1.119 2.612 1.119 1.02 0 1.88-.373 2.581-1.12.72-.745 1.08-1.764 1.08-3.054zm15.661 8.681c-1.46 0-2.761-.252-3.902-.756-1.14-.505-2.041-1.19-2.702-2.057A5.553 5.553 0 0183.544 23h5.073c.06.584.33 1.058.81 1.421.48.363 1.07.545 1.771.545.64 0 1.131-.121 1.471-.363.36-.262.54-.595.54-.998 0-.484-.25-.837-.75-1.06-.5-.241-1.31-.503-2.431-.785-1.201-.283-2.202-.575-3.002-.878a5.39 5.39 0 01-2.072-1.482c-.58-.685-.87-1.603-.87-2.752 0-.968.26-1.845.78-2.632.54-.806 1.321-1.441 2.342-1.905 1.04-.464 2.271-.696 3.692-.696 2.102 0 3.753.524 4.953 1.573 1.221 1.048 1.922 2.44 2.102 4.174H93.21c-.08-.585-.34-1.049-.78-1.391-.421-.343-.982-.515-1.682-.515-.6 0-1.06.121-1.38.363-.321.222-.481.535-.481.938 0 .484.25.847.75 1.089.52.242 1.321.484 2.402.726 1.24.322 2.251.645 3.032.968.78.302 1.46.806 2.041 1.512.6.686.91 1.613.93 2.783a4.48 4.48 0 01-.84 2.662c-.54.766-1.33 1.37-2.371 1.814-1.02.444-2.212.666-3.573.666zm19.832-.242l-3.212-4.689-2.702 4.689h-5.554l5.524-8.62-5.674-8.258h5.764l3.212 4.658 2.702-4.658h5.553l-5.613 8.5 5.764 8.378h-5.764zm15.367.242c-1.642 0-3.123-.353-4.443-1.059a7.843 7.843 0 01-3.092-3.025c-.741-1.31-1.111-2.843-1.111-4.597 0-1.734.38-3.257 1.141-4.567.76-1.331 1.801-2.35 3.122-3.055 1.321-.706 2.801-1.059 4.443-1.059 1.641 0 3.122.353 4.442 1.059 1.321.706 2.362 1.724 3.122 3.055.761 1.31 1.141 2.833 1.141 4.567s-.39 3.267-1.171 4.597a7.741 7.741 0 01-3.152 3.025c-1.32.706-2.801 1.059-4.442 1.059zm0-4.477c.98 0 1.811-.363 2.491-1.089.701-.726 1.051-1.764 1.051-3.115 0-1.351-.34-2.39-1.021-3.116-.66-.725-1.481-1.088-2.461-1.088-1.001 0-1.832.363-2.492 1.088-.66.706-.991 1.745-.991 3.116 0 1.35.32 2.39.961 3.115.66.726 1.481 1.09 2.462 1.09z" fill="#000"/><path d="M0 10.208C0 4.57 4.57 0 10.208 0h14.584C30.43 0 35 4.57 35 10.208v14.584C35 30.43 30.43 35 24.792 35H10.208C4.57 35 0 30.43 0 24.792V10.208z" fill="#1E78FF"/><path d="M19.16 15.027l7.75-7.006a16.47 16.47 0 00-11.04 4.271L8.02 19.39h8.383l-7.574 6.86a15.242 15.242 0 0010.411-4.13l2.918-2.73 4.821-4.363H19.16z" fill="#fff"/></svg>