<svg width="144" height="43" fill="none" xmlns="http://www.w3.org/2000/svg"><path d="M60.81 9l4.338 28.703h-7.756l-.378-5.16h-2.718l-.45 5.16H46L49.851 9h10.96zm-4.012 18.455c-.384-3.25-.768-7.262-1.152-12.037-.768 5.484-1.248 9.496-1.44 12.037h2.592zm17.769-4.165h-6.82v-1.58c0-1.82.21-3.22.63-4.201.431-.993 1.29-1.868 2.573-2.624 1.284-.756 2.951-1.135 5.003-1.135 2.46 0 4.313.432 5.56 1.294 1.248.851 1.998 1.903 2.25 3.156.252 1.241.378 3.806.378 7.694v11.808H77.07V35.61c-.444.84-1.02 1.472-1.728 1.898-.696.413-1.53.62-2.501.62a6.289 6.289 0 01-3.51-1.046c-1.055-.71-1.583-2.252-1.583-4.627v-1.933c0-1.76.281-2.96.845-3.598.564-.639 1.962-1.383 4.194-2.234 2.387-.922 3.665-1.543 3.833-1.862.168-.319.252-.969.252-1.95 0-1.23-.096-2.027-.288-2.393-.18-.378-.486-.567-.918-.567-.492 0-.798.159-.918.478-.12.307-.18 1.117-.18 2.429v2.464zm2.304 3.226c-1.164.839-1.842 1.542-2.034 2.11-.18.567-.27 1.382-.27 2.446 0 1.217.078 2.003.234 2.358.168.355.492.532.972.532.456 0 .75-.136.882-.408.144-.284.216-1.016.216-2.198v-4.84zm26.839-12.339l-2.087 17.02c-.324 2.694-.6 4.532-.828 5.513-.216.98-.582 1.79-1.098 2.428-.516.639-1.236 1.106-2.16 1.401-.911.307-2.375.461-4.39.461h-4.41v-3.758c1.128 0 1.854-.054 2.178-.16.324-.118.486-.372.486-.762 0-.19-.15-1.01-.45-2.465l-3.977-19.678h6.604l2.376 15.867 1.152-15.867h6.604zm19.587 8.261V28.2c0 2.116-.108 3.67-.324 4.663-.216.98-.678 1.903-1.385 2.765-.708.851-1.62 1.483-2.736 1.897-1.104.402-2.375.603-3.815.603-1.608 0-2.969-.171-4.085-.514-1.116-.355-1.986-.88-2.61-1.578-.612-.71-1.049-1.56-1.313-2.553-.264-1.005-.396-2.505-.396-4.503v-6.028c0-2.186.24-3.894.72-5.123.479-1.23 1.343-2.216 2.591-2.96 1.248-.745 2.843-1.118 4.787-1.118 1.632 0 3.029.242 4.193.727 1.176.473 2.082 1.093 2.718 1.862.635.768 1.067 1.56 1.295 2.375.24.816.36 2.057.36 3.723zm-7.27-1.773c0-1.205-.066-1.962-.198-2.269-.132-.319-.414-.479-.846-.479s-.72.16-.864.48c-.144.306-.216 1.063-.216 2.268v10.62c0 1.11.072 1.838.216 2.18.144.331.426.497.846.497.432 0 .714-.154.846-.461.144-.307.216-.97.216-1.986v-10.85zM144 22.438V28.2c0 2.116-.108 3.67-.324 4.663-.216.98-.678 1.903-1.386 2.765-.707.851-1.619 1.483-2.735 1.897-1.104.402-2.376.603-3.815.603-1.608 0-2.97-.171-4.085-.514-1.116-.355-1.986-.88-2.61-1.578-.612-.71-1.05-1.56-1.314-2.553-.263-1.005-.395-2.505-.395-4.503v-6.028c0-2.186.239-3.894.719-5.123.48-1.23 1.344-2.216 2.592-2.96 1.248-.745 2.843-1.118 4.787-1.118 1.631 0 3.029.242 4.193.727 1.176.473 2.081 1.093 2.717 1.862.636.768 1.068 1.56 1.296 2.375.24.816.36 2.057.36 3.723zm-7.27-1.773c0-1.205-.066-1.962-.198-2.269-.132-.319-.414-.479-.846-.479s-.72.16-.864.48c-.144.306-.216 1.063-.216 2.268v10.62c0 1.11.072 1.838.216 2.18.144.331.426.497.846.497.432 0 .714-.154.846-.461.144-.307.216-.97.216-1.986v-10.85z" fill="#000"/><path fill-rule="evenodd" clip-rule="evenodd" d="M18.5 0C28.718 0 37 9.415 37 21.03a23.316 23.316 0 01-1.91 9.316c-1.015 2.327-4.02 2.123-4.774-.327l-5.343-17.358c-.804-2.614-4.09-2.614-4.894 0l-7.592 24.666c-.548 1.78-2.429 2.513-3.84 1.503C3.45 35.108 0 28.527 0 21.03 0 9.415 8.283 0 18.5 0zm8.212 35.406c1.391 1.401 1.05 3.955-.652 4.823a16.564 16.564 0 01-7.56 1.831h-.06c-2.351-.008-3.454-3.276-1.702-5.04l4.06-4.092a2.433 2.433 0 011.728-.743c.637 0 1.252.264 1.727.743l2.459 2.478z" fill="#715AFF"/></svg>