<svg width="10" height="10" fill="none" xmlns="http://www.w3.org/2000/svg"><path fill-rule="evenodd" clip-rule="evenodd" d="M1.571 2.143a.571.571 0 100-1.143.571.571 0 000 1.143zm0 .571a1.143 1.143 0 100-2.285 1.143 1.143 0 000 2.285zm0 2.857a.571.571 0 100-1.142.571.571 0 000 1.142zm0 .572a1.143 1.143 0 100-2.286 1.143 1.143 0 000 2.286zm0 2.857a.571.571 0 100-1.143.571.571 0 000 1.143zm0 .571a1.143 1.143 0 100-2.285 1.143 1.143 0 000 2.285zM5 2.143A.571.571 0 105 1a.571.571 0 000 1.143zm0 .571A1.143 1.143 0 105 .43a1.143 1.143 0 000 2.285zm0 2.857A.571.571 0 105 4.43a.571.571 0 000 1.14zm0 .572a1.143 1.143 0 100-2.286 1.143 1.143 0 000 2.286zM5 9a.571.571 0 100-1.143A.571.571 0 005 9zm0 .571a1.143 1.143 0 100-2.285A1.143 1.143 0 005 9.57zm3.428-7.428a.571.571 0 100-1.143.571.571 0 000 1.143zm0 .571a1.143 1.143 0 100-2.285 1.143 1.143 0 000 2.285zm0 2.857a.571.571 0 100-1.142.571.571 0 000 1.142zm0 .572a1.143 1.143 0 100-2.286 1.143 1.143 0 000 2.286zm0 2.857a.571.571 0 100-1.143.571.571 0 000 1.143zm0 .571a1.143 1.143 0 100-2.285 1.143 1.143 0 000 2.285z" fill="#5356FB"/></svg>