<svg width="136" height="35" fill="none" xmlns="http://www.w3.org/2000/svg"><path d="M53.225 28.748c-1.54 0-2.922-.252-4.142-.756-1.221-.504-2.202-1.25-2.942-2.238-.72-.989-1.101-2.178-1.141-3.57h5.464c.08.787.35 1.392.81 1.815.46.404 1.06.605 1.801.605.76 0 1.361-.171 1.801-.514.44-.363.66-.857.66-1.482 0-.524-.18-.958-.54-1.3a4.004 4.004 0 00-1.29-.848c-.5-.221-1.221-.474-2.162-.756-1.36-.423-2.471-.847-3.332-1.27-.86-.424-1.601-1.049-2.221-1.876-.62-.826-.931-1.905-.931-3.236 0-1.976.71-3.519 2.131-4.628C48.612 7.565 50.464 7 52.745 7c2.322 0 4.193.565 5.614 1.694 1.42 1.11 2.181 2.662 2.281 4.658h-5.553c-.04-.685-.29-1.22-.75-1.603-.461-.403-1.052-.605-1.772-.605-.62 0-1.12.172-1.501.514-.38.323-.57.797-.57 1.422 0 .686.32 1.22.96 1.603.64.383 1.641.797 3.002 1.24 1.361.464 2.462.908 3.302 1.331A6.284 6.284 0 0159.98 19.1c.62.807.93 1.845.93 3.116 0 1.21-.31 2.308-.93 3.297-.6.988-1.481 1.774-2.642 2.359-1.16.585-2.532.877-4.113.877zm9.824-8.681c0-1.734.32-3.256.96-4.567.66-1.31 1.551-2.32 2.672-3.025 1.12-.706 2.372-1.059 3.753-1.059 1.18 0 2.211.242 3.092.726.9.484 1.59 1.12 2.07 1.906v-2.39h5.134v16.878h-5.133v-2.39c-.5.787-1.2 1.422-2.101 1.906-.881.484-1.912.726-3.093.726-1.36 0-2.601-.353-3.722-1.058-1.12-.726-2.011-1.745-2.672-3.055-.64-1.331-.96-2.864-.96-4.598zm12.548.03c0-1.29-.36-2.308-1.08-3.055-.701-.746-1.562-1.119-2.582-1.119-1.021 0-1.892.373-2.612 1.12-.7.725-1.05 1.734-1.05 3.024s.35 2.32 1.05 3.085c.72.746 1.59 1.12 2.612 1.12 1.02 0 1.88-.374 2.581-1.12.72-.746 1.08-1.764 1.08-3.055zm15.661 8.681c-1.46 0-2.761-.252-3.902-.756-1.14-.504-2.041-1.19-2.702-2.057a5.553 5.553 0 01-1.11-2.964h5.073c.06.585.33 1.059.81 1.422.48.363 1.07.544 1.771.544.64 0 1.131-.12 1.471-.363.36-.262.54-.595.54-.998 0-.484-.25-.837-.75-1.059-.5-.242-1.31-.504-2.431-.786-1.201-.282-2.202-.575-3.002-.877a5.39 5.39 0 01-2.072-1.482c-.58-.686-.87-1.603-.87-2.753 0-.968.26-1.845.78-2.631.54-.807 1.321-1.442 2.342-1.906 1.04-.464 2.271-.696 3.692-.696 2.102 0 3.753.525 4.953 1.573 1.221 1.049 1.922 2.44 2.102 4.174H93.21c-.08-.584-.34-1.048-.78-1.39-.421-.344-.982-.515-1.682-.515-.6 0-1.06.12-1.38.363-.321.222-.481.534-.481.937 0 .485.25.847.75 1.09.52.241 1.321.483 2.402.725 1.24.323 2.251.646 3.032.968.78.303 1.46.807 2.041 1.513.6.685.91 1.613.93 2.782 0 .988-.28 1.876-.84 2.662-.54.766-1.33 1.371-2.371 1.815-1.02.444-2.212.665-3.573.665zm19.832-.242l-3.212-4.688-2.702 4.688h-5.554l5.524-8.62-5.674-8.258h5.764l3.212 4.659 2.702-4.659h5.553l-5.613 8.5 5.764 8.378h-5.764zm15.367.242c-1.642 0-3.123-.353-4.443-1.058a7.843 7.843 0 01-3.092-3.025c-.741-1.31-1.111-2.843-1.111-4.598 0-1.734.38-3.256 1.141-4.567.76-1.33 1.801-2.35 3.122-3.055 1.321-.706 2.801-1.059 4.443-1.059 1.641 0 3.122.353 4.442 1.06 1.321.705 2.362 1.723 3.122 3.054.761 1.31 1.141 2.833 1.141 4.567 0 1.735-.39 3.267-1.171 4.598a7.741 7.741 0 01-3.152 3.025c-1.32.705-2.801 1.058-4.442 1.058zm0-4.476c.98 0 1.811-.363 2.491-1.09.701-.725 1.051-1.764 1.051-3.115 0-1.35-.34-2.39-1.021-3.115-.66-.726-1.481-1.089-2.461-1.089-1.001 0-1.832.363-2.492 1.089-.66.706-.991 1.744-.991 3.115 0 1.351.32 2.39.961 3.116.66.726 1.481 1.089 2.462 1.089z" fill="#fff"/><path d="M0 10.209C0 4.57 4.57 0 10.208 0h14.584C30.43 0 35 4.57 35 10.21v14.583c0 5.638-4.57 10.209-10.208 10.209H10.208C4.57 35 0 30.43 0 24.792V10.21z" fill="#1CB779"/><path d="M19.16 15.027l7.75-7.006a16.47 16.47 0 00-11.04 4.272L8.02 19.39h8.382L8.83 26.25a15.242 15.242 0 0010.411-4.13l2.918-2.73 4.821-4.363h-7.82z" fill="#fff"/></svg>