<svg width="117" height="43" fill="none" xmlns="http://www.w3.org/2000/svg"><path d="M57.6 3.98c.534-.072 1.169-.13 1.904-.173a33.322 33.322 0 011.925-.065c.534 0 1.168.021 1.904.065.75.043 1.384.115 1.903.216l9.366 29.07c-.462.26-1.053.455-1.774.584-.721.145-1.399.217-2.033.217-1.038 0-1.853-.238-2.444-.714-.592-.49-1.09-1.442-1.493-2.855l-3.31-11.529a1580.92 1580.92 0 01-1.189-4.24c-.433-1.6-.822-3.1-1.168-4.498h-.26a48.551 48.551 0 01-.951 4.023c-.404 1.5-.772 2.812-1.103 3.936l-4.63 15.552a7.242 7.242 0 01-1.319.195c-.475.029-.966.043-1.47.043-.505 0-1.067-.036-1.687-.108-.62-.072-1.125-.18-1.514-.325l-.238-.346L57.6 3.98zm.39 23.23h-.736a17.347 17.347 0 00-.865-.022 13.841 13.841 0 00-.714-.021h-3.439l2.034-5.17h3.72c.274-.014.548-.021.822-.021.274-.015.505-.022.692-.022h3.31c.201 0 .44.007.713.022.274 0 .548.007.822.021h3.828l1.666 5.17h-3.418c-.201 0-.447.007-.735.021-.288 0-.577.008-.865.022H57.99z" fill="#fff"/><path d="M90.094 32.942c-.534 1.99-1.197 3.742-1.99 5.256-.779 1.514-1.839 2.69-3.18 3.526-1.341.85-3.115 1.276-5.32 1.276-.837 0-1.753-.094-2.748-.281-.995-.188-1.78-.383-2.357-.584-.073-.736.021-1.565.28-2.488.26-.923.606-1.63 1.039-2.12.447.145 1.017.289 1.709.433.692.144 1.384.216 2.076.216.764 0 1.428-.151 1.99-.454a4.079 4.079 0 001.428-1.298c.403-.562.72-1.233.951-2.011l.173-.606c-1.139-.014-2.076-.209-2.811-.584-.736-.39-1.248-1.081-1.536-2.076L74.693 12.48a9.441 9.441 0 012.077-.67c.72-.145 1.348-.217 1.881-.217.78 0 1.428.195 1.947.584.52.39.916 1.118 1.19 2.185l2.141 8.544c.144.504.281 1.117.411 1.838a134.992 134.992 0 01.649 3.937c.029.202.144.303.346.303l3.915-16.98a5.09 5.09 0 011.233-.216 14.756 14.756 0 013.007.022 7.489 7.489 0 011.752.389l.237.41-5.385 20.333zm26.321-10.188c0 2.293-.375 4.297-1.125 6.013-.75 1.702-1.86 3.029-3.331 3.98-1.471.938-3.288 1.406-5.451 1.406s-3.98-.476-5.45-1.427c-1.471-.952-2.582-2.279-3.332-3.98-.735-1.716-1.103-3.713-1.103-5.992 0-2.307.375-4.311 1.125-6.013.75-1.716 1.86-3.042 3.331-3.98 1.471-.951 3.281-1.427 5.429-1.427 2.178 0 4.002.476 5.473 1.427 1.47.952 2.574 2.286 3.309 4.002.75 1.701 1.125 3.698 1.125 5.991zm-13.173 0c0 1.212.079 2.315.238 3.31.159.995.469 1.788.93 2.379.476.591 1.183.887 2.12.887s1.637-.296 2.098-.887c.461-.591.771-1.384.93-2.38.159-.994.238-2.097.238-3.309 0-1.211-.079-2.314-.238-3.31-.159-1.008-.469-1.809-.93-2.4-.461-.591-1.161-.887-2.098-.887-.937 0-1.644.296-2.12.887-.461.591-.771 1.392-.93 2.4a21.065 21.065 0 00-.238 3.31z" fill="#fff"/><path d="M25.013 37.305c.307 1.061 1.421 1.682 2.447 1.27A20.008 20.008 0 10.039 21.248c.068 1.103 1.107 1.843 2.198 1.665 1.09-.178 1.816-1.208 1.776-2.312a16.006 16.006 0 1122.326 14.107c-1.015.437-1.633 1.535-1.326 2.597zM4.73 29.135c-1.049.626-1.4 1.993-.662 2.965a20.007 20.007 0 0010.822 7.25c1.18.312 2.31-.533 2.49-1.74.18-1.208-.66-2.318-1.83-2.667a15.586 15.586 0 01-7.659-5.13c-.768-.95-2.114-1.304-3.162-.678z" fill="#10CE8A"/><path d="M29.303 20.299c1.081.056 2.02-.78 1.886-1.855a11.116 11.116 0 10-9.974 12.447c1.078-.103 1.69-1.202 1.4-2.245-.29-1.043-1.38-1.624-2.462-1.625a7.195 7.195 0 117.027-8.77c.238 1.056 1.042 1.992 2.123 2.048z" fill="#10CE8A"/><path d="M22.972 20.008a2.964 2.964 0 11-5.928 0 2.964 2.964 0 015.928 0z" fill="#10CE8A"/></svg>