<svg width="150" height="40" fill="none" xmlns="http://www.w3.org/2000/svg"><path d="M56.807 32.354c-1.751 0-3.32-.288-4.708-.864-1.388-.576-2.502-1.429-3.344-2.558-.819-1.13-1.25-2.489-1.296-4.079h6.21c.09.899.397 1.59.92 2.074.523.461 1.206.692 2.047.692.865 0 1.547-.196 2.048-.588.5-.415.75-.98.75-1.694 0-.6-.204-1.095-.614-1.486-.387-.392-.876-.715-1.467-.968-.569-.254-1.388-.542-2.457-.864-1.546-.484-2.809-.968-3.787-1.452-.978-.484-1.82-1.199-2.525-2.143-.705-.945-1.057-2.178-1.057-3.7 0-2.258.807-4.02 2.422-5.288 1.615-1.29 3.72-1.936 6.312-1.936 2.639 0 4.765.645 6.38 1.936 1.615 1.267 2.48 3.042 2.593 5.323h-6.312c-.045-.783-.33-1.394-.853-1.832-.523-.46-1.194-.691-2.013-.691-.705 0-1.273.196-1.706.587-.432.37-.648.91-.648 1.625 0 .784.364 1.394 1.092 1.832.728.438 1.865.91 3.412 1.418 1.547.53 2.798 1.037 3.753 1.52.978.485 1.82 1.187 2.525 2.11.705.921 1.057 2.108 1.057 3.56 0 1.382-.352 2.638-1.057 3.767-.683 1.13-1.683 2.028-3.003 2.697-1.319.668-2.877 1.002-4.674 1.002zm11.165-9.921c0-1.982.364-3.721 1.092-5.22.75-1.497 1.762-2.65 3.036-3.456 1.274-.807 2.696-1.21 4.265-1.21 1.342 0 2.513.276 3.514.83 1.024.553 1.808 1.279 2.354 2.177v-2.73h5.834v19.288h-5.834v-2.73c-.568.898-1.365 1.624-2.388 2.177-1 .553-2.172.83-3.514.83-1.547 0-2.957-.403-4.23-1.21-1.275-.83-2.287-1.993-3.037-3.491-.728-1.521-1.092-3.273-1.092-5.255zm14.261.035c0-1.475-.41-2.639-1.228-3.491-.796-.853-1.774-1.28-2.934-1.28-1.16 0-2.15.427-2.968 1.28-.797.83-1.195 1.981-1.195 3.456 0 1.475.398 2.65 1.195 3.526.818.853 1.808 1.28 2.968 1.28s2.138-.427 2.934-1.28c.819-.852 1.228-2.016 1.228-3.491zm17.8 9.921c-1.66 0-3.139-.288-4.435-.864-1.297-.576-2.32-1.36-3.07-2.35a6.368 6.368 0 01-1.263-3.389h5.766c.068.669.375 1.21.921 1.625.546.415 1.217.622 2.013.622.728 0 1.285-.138 1.672-.415.409-.3.614-.68.614-1.14 0-.553-.284-.957-.853-1.21-.569-.277-1.49-.576-2.764-.899-1.364-.322-2.502-.657-3.412-1.002a6.128 6.128 0 01-2.354-1.694c-.66-.784-.99-1.832-.99-3.146 0-1.106.297-2.108.888-3.007.614-.922 1.501-1.648 2.661-2.178 1.183-.53 2.582-.795 4.197-.795 2.388 0 4.265.6 5.629 1.797 1.388 1.199 2.184 2.789 2.389 4.77h-5.391c-.091-.668-.387-1.198-.887-1.59-.478-.391-1.115-.587-1.91-.587-.683 0-1.206.138-1.57.415-.364.253-.546.61-.546 1.072 0 .553.284.967.853 1.244.591.276 1.501.553 2.729.83 1.411.368 2.559.737 3.446 1.106.887.345 1.661.922 2.32 1.728.683.784 1.035 1.844 1.058 3.18 0 1.13-.318 2.143-.955 3.042-.614.876-1.513 1.567-2.696 2.074-1.16.507-2.513.76-4.06.76zm22.539-.277l-3.65-5.358-3.071 5.358h-6.312l6.278-9.852-6.448-9.437h6.55l3.651 5.324 3.071-5.323h6.312l-6.381 9.713 6.551 9.575h-6.551zm17.465.277c-1.865 0-3.548-.403-5.049-1.21-1.479-.807-2.65-1.959-3.514-3.457-.842-1.498-1.263-3.25-1.263-5.254 0-1.982.432-3.722 1.297-5.22.864-1.52 2.047-2.685 3.548-3.491 1.501-.807 3.184-1.21 5.05-1.21 1.865 0 3.548.403 5.049 1.21 1.501.806 2.684 1.97 3.548 3.491.865 1.498 1.297 3.238 1.297 5.22 0 1.982-.444 3.733-1.331 5.254a8.821 8.821 0 01-3.582 3.457c-1.501.807-3.184 1.21-5.05 1.21zm0-5.116c1.115 0 2.059-.415 2.832-1.245.796-.83 1.194-2.016 1.194-3.56s-.386-2.731-1.16-3.56c-.75-.83-1.683-1.245-2.797-1.245-1.138 0-2.082.415-2.832 1.244-.751.807-1.126 1.994-1.126 3.56 0 1.545.364 2.732 1.092 3.561.75.83 1.683 1.245 2.797 1.245z" fill="#122428"/><rect width="39.779" height="40" rx="14" fill="#7D51F8"/><path d="M21.777 17.175l8.807-8.007a18.658 18.658 0 00-12.547 4.882l-8.921 8.11h9.526L10.035 30c4.384-.001 8.608-1.686 11.832-4.72l3.316-3.12 5.48-4.986h-8.886z" fill="#fff"/></svg>