<svg width="94" height="94" fill="none" xmlns="http://www.w3.org/2000/svg"><rect width="93.454" height="93.454" rx="46.727" fill="#C5EEA6"/><path d="M52.601 28.595c-6.13-3.89-14.963.992-19.725 10.904-.296.616-.938 2.012-1.189 2.638 0 0 1.935-.938 2.015-1.105.101-.214.576-1.2.689-1.41 4.39-8.596 11.986-12.875 16.983-9.697 5.131 3.256 5.328 13.167 1 22.18S40.81 65.837 35.681 62.585c-2.098-1.331-3.468-3.81-4.065-6.881a4.563 4.563 0 01-1.393-.059c.657 3.894 2.387 7.1 5.13 8.839 6.132 3.89 14.963-.992 19.725-10.904 4.762-9.91 3.652-21.095-2.478-24.985z" fill="#4BB0EB"/><path d="M31.476 46.91a3.771 3.771 0 00-2.15.71 4.05 4.05 0 00-1.415 1.841 4.262 4.262 0 00-.203 2.353 4.14 4.14 0 001.075 2.076 3.84 3.84 0 001.994 1.103 3.73 3.73 0 002.244-.24 3.939 3.939 0 001.74-1.502 4.204 4.204 0 00-.51-5.154 3.828 3.828 0 00-2.775-1.186z" fill="#1C75BC"/><path d="M31.326 46.196a4.908 4.908 0 013.475 1.425 4.924 4.924 0 011.455 3.468 4.812 4.812 0 01-.68 2.455H47.73c-3.98 6.663-8.81 8.011-11.7 6.466a6.748 6.748 0 01-3.264-4.108c.19.863.439 1.711.745 2.54 1.083 2.555 3.056 4.413 5.762 4.413 5.134 0 9.792-6.084 12.12-11.017 4.102-8.68 3.916-18.14-.64-21.081-3.956-2.555-9.847.495-13.94 6.808 7.14-9.754 13.942-7.82 15.188-1.212.149.83.225 1.67.227 2.513a57.639 57.639 0 00-4.758-.47c-5.57-.331-5.57.576-13.82 5.27-10.563.104-14.18 4.33-14.18 4.33v1.084a14.48 14.48 0 015.212-1l-1.738 3.404s-2.28.285-3.47.51v1.55h7.605a4.812 4.812 0 01-.68-2.455 4.924 4.924 0 011.454-3.467 4.908 4.908 0 013.474-1.426zM44.204 40.1c1.341-.272 4.286-.154 7.968.395a24.782 24.782 0 01-.537 3.574c-3.484.05-6.681-.063-9.765-.013.227-.38.352-.854-.07-1.135-.553-.368-1.518.227-2.24 1.214-1.09.057-2.169.143-3.25.277 0 0 5.28-3.776 7.894-4.312z" fill="#1C75BC"/><path d="M64.709 46.91a4.079 4.079 0 100 8.158 4.079 4.079 0 000-8.157z" fill="#EBB000"/><path d="M73.567 47.475a7.78 7.78 0 01-2.145-.057c-1.342-.24-1.958-1.76-1.958-1.76h3.75a35.298 35.298 0 00-.376-1.326 104.44 104.44 0 00-12.067-3.98c-.254-5.09-2.121-9.417-5.479-11.556A8.56 8.56 0 0053.68 28c3.241 2.426 4.758 6.605 5.154 10.664a28.194 28.194 0 01-1.098 10.552 32.819 32.819 0 01-1.817 4.803c-3.134 6.64-8.066 11.286-13.088 12.545 5.022-.132 11.441-4.436 15.335-13.137h2.285a4.967 4.967 0 011.813-6.766 4.933 4.933 0 016.75 1.812 4.967 4.967 0 01.003 4.954h2.09c.615-2.521 2.271-2.874 2.416-3.99a7.85 7.85 0 00.044-1.961zM61.557 43.3l-.813-.164c.023-.358.039-.715.045-1.068 1.166.314 2.34.66 3.51 1.045-1.027.228-.945.56-2.742.187z" fill="#EBB000"/></svg>