<svg width="66" height="66" fill="none" xmlns="http://www.w3.org/2000/svg"><rect width="65.418" height="65.418" rx="32.709" fill="#fff"/><path d="M44.588 26.056a3.562 3.562 0 00-1.389-1.238l-8.197-4.644a4.279 4.279 0 00-4.198 0L22.6 24.818c-.648.365-1.515 1.044-1.584 1.896-.162 2.03 2.503 3.296 4.282 4.229 3.074 1.601 5.052 2.529 6.55 4.033.33.335.853.92 1.051 1.38.197-.46.721-1.047 1.054-1.38 1.498-1.507 3.48-2.432 6.548-4.033 1.754-.914 4.33-2.077 4.283-4.224a1.552 1.552 0 00-.196-.663zm-11.69 5.629c-.515 0-1.017-.15-1.444-.43a2.56 2.56 0 01-.957-1.145 2.504 2.504 0 01-.146-1.474c.1-.494.348-.948.712-1.304a2.615 2.615 0 011.332-.697 2.647 2.647 0 011.502.147c.475.194.88.52 1.165.94a2.515 2.515 0 01-.326 3.218 2.626 2.626 0 01-1.838.745z" fill="url(#paint0_linear_0_4497)"/><path d="M40.413 32.092c-3.599 1.895-6.123 2.78-7.104 5.851-.175.49-.313.994-.411 1.505a10.185 10.185 0 00-.41-1.505c-.98-3.064-3.506-3.949-7.104-5.851-3.733-1.96-4.528-2.938-4.668-3.361v8.74c.001.721.193 1.429.557 2.052a4.125 4.125 0 001.516 1.502l8.088 4.63c.266.16.548.29.843.387a16.601 16.601 0 00-.354-1.097c-2.528-7.022-6.993-8.747-6.993-8.747s2.082.167 5.055 3.213c1.442 1.478 2.573 3.245 3.476 5.086 0 0 1.986-3.561 3.48-5.094 2.975-3.048 5.056-3.214 5.056-3.214s-4.47 1.727-6.994 8.748c-.138.39-.254.752-.352 1.098.294-.099.577-.229.843-.388l8.073-4.622a4.133 4.133 0 001.512-1.504c.363-.624.555-1.33.556-2.051v-8.746c-.137.415-.932 1.401-4.665 3.368z" fill="url(#paint1_linear_0_4497)"/><defs><linearGradient id="paint0_linear_0_4497" x1="21.01" y1="27.99" x2="44.784" y2="27.99" gradientUnits="userSpaceOnUse"><stop stop-color="#2B88D9"/><stop offset="1" stop-color="#26E0F5"/></linearGradient><linearGradient id="paint1_linear_0_4497" x1="35.752" y1="24.892" x2="28.077" y2="48.212" gradientUnits="userSpaceOnUse"><stop stop-color="#39B54A"/><stop offset="1" stop-color="#ACDF23"/></linearGradient></defs></svg>