<svg width="66" height="66" fill="none" xmlns="http://www.w3.org/2000/svg"><rect width="65.418" height="65.418" rx="32.709" fill="#19AE93"/><path d="M24.588 38.491a2.67 2.67 0 00-1.53.485 2.856 2.856 0 00-1.014 1.293 3.001 3.001 0 00-.157 1.663c.107.558.369 1.072.754 1.474.385.403.876.677 1.41.788a2.643 2.643 0 001.591-.164 2.785 2.785 0 001.236-1.06 2.991 2.991 0 00.255-2.702 2.89 2.89 0 00-.597-.934 2.749 2.749 0 00-.893-.624 2.65 2.65 0 00-1.055-.219zm0 3.785a.843.843 0 01-.483-.153.901.901 0 01-.32-.408.948.948 0 01.188-.991.86.86 0 01.446-.25.835.835 0 01.503.052.88.88 0 01.39.335.94.94 0 01.081.855.915.915 0 01-.188.296.838.838 0 01-.616.268v-.004zm8.639-3.785a2.879 2.879 0 10-.002 5.758 2.879 2.879 0 00.002-5.758zm0 3.785a.91.91 0 11.842-.56.911.911 0 01-.842.564v-.004zm4.378-4.536H20.28a1.179 1.179 0 01-.846-.323 1.147 1.147 0 01-.354-.824 1.134 1.134 0 01.354-.824 1.165 1.165 0 01.846-.323h16.386l2.823-12.825c.056-.256.2-.485.407-.65.206-.164.464-.254.73-.254h4.115c.302.01.589.135.8.349a1.14 1.14 0 010 1.596c-.211.214-.498.34-.8.349h-3.178L38.74 36.836c-.056.256-.2.485-.407.65a1.174 1.174 0 01-.73.254z" fill="#000"/><path d="M29.076 23.551a.337.337 0 00-.44 0l-5.8 5.133v5.802h12.267v-5.802l-6.027-5.133zm-.505 8.306a.318.318 0 01-.322.32h-1.183a.32.32 0 01-.323-.32v-1.175a.32.32 0 01.323-.32h1.183a.323.323 0 01.322.32v1.175zm0-2.564a.318.318 0 01-.322.32h-1.183a.32.32 0 01-.323-.32v-1.175a.32.32 0 01.323-.32h1.183a.323.323 0 01.322.32v1.175zm2.626 2.564a.318.318 0 01-.322.32H29.69a.323.323 0 01-.322-.32v-1.175a.318.318 0 01.322-.32h1.184a.323.323 0 01.322.32v1.175zm0-2.564a.318.318 0 01-.322.32H29.69a.323.323 0 01-.322-.32v-1.175a.318.318 0 01.322-.32h1.184a.323.323 0 01.322.32v1.175z" fill="#FBF3D0"/><path d="M36.625 26.57l-6.309-5.374a2.126 2.126 0 00-2.693 0l-6.307 5.374c-.49.417-.154 1.15.527 1.15h.383s4.302-3.817 5.747-5.062c.713-.614 1.13-.558 1.751-.016 1.481 1.288 5.99 5.084 5.99 5.084h.382c.681-.01 1.017-.739.529-1.156zM25.34 21.947v-.552a.42.42 0 00-.138-.303.479.479 0 00-.325-.126H23.3a.49.49 0 00-.328.127.434.434 0 00-.136.308v2.57l2.504-2.024z" fill="#FBF3D0"/></svg>