<svg width="94" height="94" fill="none" xmlns="http://www.w3.org/2000/svg"><rect width="93.454" height="93.454" rx="46.727" fill="#fff"/><path d="M75.543 31.494c-7.646-5.303-21.049-3.133-26.823 10.124-3.163 7.255-4.065 18.399-17.635 22.046 3.742-.032 24.257 2.165 31.53-9.688 5.072-8.252.498-21.911 12.928-22.482z" fill="url(#paint0_radial_0_4486)"/><path d="M17.912 44.399c12.41-17.693 37.61-19.237 44.444-3.447 6.456 14.906-6.317 26.54-31.376 23.054 10.67-.538 21.534-5.894 18.02-16.264-3.02-8.913-16.28-11.661-31.088-3.343z" fill="url(#paint1_linear_0_4486)"/><defs><radialGradient id="paint0_radial_0_4486" cx="0" cy="0" r="1" gradientUnits="userSpaceOnUse" gradientTransform="matrix(29.64601 -.5908 .5887 29.54033 56.998 45.881)"><stop stop-color="#8D8D8D"/><stop offset=".15" stop-color="#A7A7A7"/><stop offset=".39" stop-color="#C7C7C7"/><stop offset=".61" stop-color="#DFDFDF"/><stop offset=".82" stop-color="#EDEDED"/><stop offset="1" stop-color="#F2F2F2"/></radialGradient><linearGradient id="paint1_linear_0_4486" x1="17.512" y1="39.893" x2="72.174" y2="57.957" gradientUnits="userSpaceOnUse"><stop offset=".22" stop-color="#10D6F9"/><stop offset=".43" stop-color="#10D6F9"/><stop offset=".49" stop-color="#11D0F4"/><stop offset=".58" stop-color="#13BEE8"/><stop offset=".68" stop-color="#17A2D2"/><stop offset=".79" stop-color="#1D7BB6"/><stop offset="1" stop-color="#0D3375"/></linearGradient></defs></svg>