<svg width="65" height="65" fill="none" xmlns="http://www.w3.org/2000/svg"><rect width="65" height="65" rx="32.5" fill="#fff"/><path d="M36.585 19.889c-4.263-2.706-10.407.69-13.719 7.584a42.14 42.14 0 00-.827 1.835s1.346-.652 1.402-.769c.07-.149.4-.834.479-.98 3.053-5.98 8.336-8.955 11.811-6.745 3.57 2.264 3.707 9.158.696 15.427-3.01 6.269-8.043 9.55-11.61 7.288-1.46-.925-2.412-2.649-2.827-4.785-.323.036-.65.022-.97-.041.457 2.708 1.66 4.938 3.568 6.147 4.265 2.706 10.407-.69 13.72-7.583 3.312-6.894 2.54-14.673-1.723-17.378z" fill="#4BB0EB"/><path d="M21.892 32.627a2.623 2.623 0 00-1.495.494 2.812 2.812 0 00-.984 1.28c-.2.52-.25 1.088-.142 1.637a2.88 2.88 0 00.749 1.444c.38.393.862.66 1.387.767a2.594 2.594 0 001.56-.167 2.74 2.74 0 001.21-1.045 2.924 2.924 0 00-.355-3.585 2.662 2.662 0 00-1.93-.825z" fill="#1C75BC"/><path d="M21.788 32.13a3.413 3.413 0 012.417.991 3.425 3.425 0 011.012 2.412 3.348 3.348 0 01-.473 1.708h8.453c-2.77 4.635-6.129 5.572-8.138 4.497a4.695 4.695 0 01-2.27-2.857c.131.6.305 1.19.518 1.767.753 1.777 2.125 3.07 4.007 3.07 3.57 0 6.81-4.232 8.43-7.664 2.853-6.037 2.724-12.616-.445-14.662-2.752-1.777-6.849.344-9.696 4.736 4.967-6.785 9.697-5.44 10.564-.843.103.576.156 1.161.157 1.747a40.038 40.038 0 00-3.309-.327c-3.873-.23-3.873.401-9.612 3.665-7.347.073-9.862 3.012-9.862 3.012v.755a10.072 10.072 0 013.625-.697l-1.209 2.368s-1.585.199-2.414.355v1.078h5.29a3.347 3.347 0 01-.473-1.708 3.425 3.425 0 011.011-2.411 3.413 3.413 0 012.417-.992zm8.956-4.24c.933-.189 2.982-.107 5.543.275a17.24 17.24 0 01-.374 2.486c-2.423.035-4.647-.044-6.792-.01.158-.263.245-.593-.048-.788-.385-.256-1.056.157-1.559.844-.758.04-1.508.1-2.26.193 0 0 3.672-2.627 5.49-3z" fill="#1C75BC"/><path d="M45.006 32.627a2.837 2.837 0 100 5.674 2.837 2.837 0 000-5.674z" fill="#EBB000"/><path d="M51.167 33.02a5.408 5.408 0 01-1.491-.04c-.934-.166-1.362-1.224-1.362-1.224h2.608a25.07 25.07 0 00-.262-.922 72.52 72.52 0 00-8.392-2.767c-.177-3.541-1.476-6.55-3.811-8.038a5.95 5.95 0 00-1.122-.555c2.255 1.687 3.31 4.594 3.585 7.417a19.61 19.61 0 01-.763 7.34 22.841 22.841 0 01-1.264 3.34c-2.18 4.618-5.61 7.85-9.103 8.726 3.493-.092 7.958-3.086 10.665-9.138h1.59a3.454 3.454 0 011.26-4.706A3.43 3.43 0 0148 33.713a3.454 3.454 0 01.002 3.446h1.454c.428-1.753 1.58-1.999 1.681-2.775.067-.452.077-.91.03-1.364zm-8.353-2.904l-.565-.114c.015-.248.026-.497.031-.743.81.219 1.627.46 2.441.727-.714.159-.657.39-1.907.13z" fill="#EBB000"/></svg>