<svg width="90" height="90" fill="none" xmlns="http://www.w3.org/2000/svg"><rect width="90" height="90" rx="45" fill="#57B8FF"/><path d="M33.828 52.955c-.75 0-1.482.232-2.105.668a3.93 3.93 0 00-1.396 1.777 4.128 4.128 0 00-.215 2.289 4.02 4.02 0 001.037 2.028 3.74 3.74 0 001.94 1.084 3.636 3.636 0 002.189-.226 3.83 3.83 0 001.7-1.458 4.115 4.115 0 00.35-3.717 3.989 3.989 0 00-.82-1.285 3.78 3.78 0 00-1.23-.859 3.645 3.645 0 00-1.45-.3zm0 5.208a1.16 1.16 0 01-.665-.211 1.241 1.241 0 01-.441-.562 1.305 1.305 0 01-.068-.723 1.27 1.27 0 01.327-.64c.168-.176.38-.295.613-.343a1.15 1.15 0 01.692.071c.218.095.405.255.537.46a1.307 1.307 0 01.112 1.176c-.06.153-.148.291-.26.408a1.151 1.151 0 01-.848.368v-.004zm11.884-5.208a3.961 3.961 0 10-.003 7.923 3.961 3.961 0 00.003-7.923zm0 5.208a1.251 1.251 0 111.157-.771 1.25 1.25 0 01-1.157.775v-.004zm6.022-6.243H27.902a1.62 1.62 0 01-1.165-.443 1.577 1.577 0 01-.487-1.134 1.559 1.559 0 01.487-1.134 1.606 1.606 0 011.165-.444h22.543l3.883-17.644c.078-.352.275-.668.56-.894.284-.226.639-.35 1.004-.35h5.662c.416.014.81.186 1.1.48a1.567 1.567 0 010 2.197c-.29.294-.684.466-1.1.479h-4.372l-3.884 17.645a1.575 1.575 0 01-.56.893c-.284.226-.638.35-1.004.35z" fill="#939393"/><path d="M40 32.401a.465.465 0 00-.605 0l-7.979 7.062v7.981h16.878v-7.981L40 32.401zm-.694 11.427a.438.438 0 01-.443.44h-1.627a.446.446 0 01-.445-.44V42.21a.44.44 0 01.445-.44h1.627a.445.445 0 01.444.44v1.617zm0-3.527a.438.438 0 01-.443.44h-1.627a.446.446 0 01-.445-.44v-1.617a.44.44 0 01.445-.44h1.627a.445.445 0 01.444.44v1.617zm3.613 3.527a.438.438 0 01-.443.44h-1.63a.445.445 0 01-.442-.44V42.21a.438.438 0 01.443-.44h1.629a.444.444 0 01.443.44v1.617zm0-3.527a.438.438 0 01-.443.44h-1.63a.445.445 0 01-.442-.44v-1.617a.438.438 0 01.443-.44h1.629a.444.444 0 01.443.44v1.617z" fill="#fff"/><path d="M50.387 36.553l-8.68-7.393a2.924 2.924 0 00-3.704 0l-8.678 7.393c-.674.575-.211 1.583.726 1.583h.526s5.919-5.252 7.907-6.964c.98-.845 1.553-.768 2.41-.022 2.037 1.773 8.239 6.994 8.239 6.994h.526c.937-.012 1.4-1.016.728-1.59zM34.86 30.195v-.76a.578.578 0 00-.188-.418.659.659 0 00-.447-.172h-2.17a.676.676 0 00-.452.175.565.565 0 00-.187.423v3.535l3.445-2.784z" fill="#fff"/></svg>