<svg width="90" height="90" fill="none" xmlns="http://www.w3.org/2000/svg"><rect width="90" height="90" rx="45" fill="#C0F9FD"/><path d="M70.207 50.68a1.441 1.441 0 00-1.854-.136 80.599 80.599 0 01-7.121 4.525 1.36 1.36 0 01-1.724-.316 1.306 1.306 0 01-.088-1.572c.106-.157.244-.289.406-.387a78.487 78.487 0 006.978-4.424 1.534 1.534 0 00.318-2.137 1.49 1.49 0 00-.947-.648 1.504 1.504 0 00-1.13.212 76.134 76.134 0 01-6.73 4.279 1.346 1.346 0 01-1.752-.486 1.324 1.324 0 01.353-1.774 74.505 74.505 0 006.679-4.234 1.387 1.387 0 00.42-1.745c-.404-.806-1.34-1.08-1.966-.632a72.143 72.143 0 01-9.42 5.727c-1.53.802-2.077 2.81-1.193 4.54l.337.665c-15.485 6.668-25.26 2.642-28.76-13.122-.3.414-.575.846-.823 1.293a5.158 5.158 0 00-.458 4.042c.922 2.996 2.843 7.196 6.74 9.92 0 0-5.77-2.159-8.314-8.198a12.726 12.726 0 00.995 7.29c3.413 7.412 10.639 4.523 10.639 4.523 6.28 2.816 13.866 1.833 22.383-1.065.14.278.292.575.47.923a3.503 3.503 0 002.048 1.765 3.542 3.542 0 002.704-.204 81.59 81.59 0 0010.619-6.447 1.442 1.442 0 00.6-1.045 1.43 1.43 0 00-.41-1.132z" fill="#394D37"/><path d="M31.581 40.89s.711 6.565 3.46 9.885c.61-2.377 1.546-6.948.559-9.795-1.375-3.979-3.673-6.141-2.914-9.98 0 0-6.244 4.83-4.904 12.3.796 4.42 3.034 6.768 4.735 7.949-2.088-5.02-.936-10.358-.936-10.358zm12.898 5.64s-4.232 2.882-5.505 5.984c1.85-.438 5.33-1.455 6.896-3.172 2.22-2.4 2.862-4.781 5.768-5.65 0 0-5.583-2.57-10.206 1.074-2.737 2.157-3.527 4.567-3.715 6.173 2.687-3.266 6.762-4.41 6.762-4.41z" fill="#58AD53"/></svg>