<svg width="91" height="90" fill="none" xmlns="http://www.w3.org/2000/svg"><rect x=".418" width="90" height="90" rx="45" fill="#fff"/><path d="M62.248 51.98a3.383 3.383 0 00-2.779-.092 3.081 3.081 0 01-2.252.057l-3.242-1.225a2.912 2.912 0 01-1.85-2.52 7.87 7.87 0 00-2.034-4.627 3.427 3.427 0 01-.675-3.523l.108-.284a3.4 3.4 0 011.642-1.832 3.411 3.411 0 001.801-3.248 3.423 3.423 0 00-2.22-2.976 3.395 3.395 0 00-3.614.82 3.42 3.42 0 00-.731 3.643c.3.785.3 1.654 0 2.439l-.098.27a3.422 3.422 0 01-2.817 2.211 7.784 7.784 0 00-3.935 1.6 7.82 7.82 0 00-3.006 5.838 3.427 3.427 0 01-1.988 2.98l-.346.16a3.372 3.372 0 01-2.398.104 3.392 3.392 0 00-3.556 1.02 3.418 3.418 0 00.741 5.129 3.396 3.396 0 004.94-1.516 3.296 3.296 0 011.635-1.71l.35-.16a3.396 3.396 0 013.542.455 7.779 7.779 0 0010.32-.509 2.812 2.812 0 012.971-.667l3.45 1.298a2.75 2.75 0 011.49 1.423 3.41 3.41 0 001.405 1.502 3.394 3.394 0 003.894-.4 3.416 3.416 0 00.85-4.03 3.427 3.427 0 00-1.598-1.63z" fill="url(#paint0_linear_0_4491)"/><path d="M53.763 45.27l.112.331c.164.464.156.97-.022 1.429a1.511 1.511 0 00.3 1.59 1.496 1.496 0 001.56.397 1.497 1.497 0 001.017-1.255 1.512 1.512 0 00-.703-1.456 2.1 2.1 0 01-.905-1.133l-.07-.203a2.3 2.3 0 01.195-1.969 2.388 2.388 0 00.187-2.25c-.24-.54-.67-.974-1.207-1.218a2.396 2.396 0 00-1.708-.104 2.377 2.377 0 00-1.178.854 2.398 2.398 0 001.11 3.669 2.139 2.139 0 011.312 1.319z" fill="url(#paint1_linear_0_4491)"/><path d="M34.845 45.419l.142-.314c.192-.44.533-.796.961-1a1.46 1.46 0 00.619-.542 1.503 1.503 0 00.012-1.596 1.46 1.46 0 00-.61-.551 1.424 1.424 0 00-1.55.205c-.213.182-.37.422-.453.692-.082.27-.088.558-.015.831.126.474.084.979-.118 1.425l-.087.19c-.131.309-.33.583-.579.802-.25.22-.545.378-.864.464-.369.09-.71.272-.993.53a2.35 2.35 0 00-.63.946c-.19.549-.177 1.15.038 1.688.215.54.616.979 1.128 1.236.433.213.92.282 1.393.197a2.285 2.285 0 001.245-.667 2.39 2.39 0 00.413-2.7 2.133 2.133 0 01-.052-1.836z" fill="url(#paint2_linear_0_4491)"/><defs><linearGradient id="paint0_linear_0_4491" x1="32.086" y1="41.931" x2="64.725" y2="54.141" gradientUnits="userSpaceOnUse"><stop stop-color="#71B6FF"/><stop offset="1" stop-color="#006DE0"/></linearGradient><linearGradient id="paint1_linear_0_4491" x1="53.864" y1="43.258" x2="56.879" y2="50.804" gradientUnits="userSpaceOnUse"><stop stop-color="#EB9B00"/><stop offset="1" stop-color="#FF3670"/></linearGradient><linearGradient id="paint2_linear_0_4491" x1="36.385" y1="42.699" x2="28.361" y2="54.889" gradientUnits="userSpaceOnUse"><stop stop-color="#EB9B00"/><stop offset="1" stop-color="#FF3670"/></linearGradient></defs></svg>