<svg width="321" height="333" fill="none" xmlns="http://www.w3.org/2000/svg"><g filter="url(#filter0_d_0_4690)"><path d="M50 61.603c0-6.096 4.936-11.039 11.025-11.039h198.451c6.089 0 11.025 4.943 11.025 11.04v210.295c0 6.097-4.936 11.039-11.025 11.039H61.026c-6.09 0-11.026-4.942-11.026-11.039V61.603z" fill="#fff"/></g><path fill-rule="evenodd" clip-rule="evenodd" d="M157.545 242.423c32.921 0 59.608-26.6 59.608-59.412 0-32.813-26.687-59.412-59.608-59.412-32.921 0-59.608 26.599-59.608 59.412 0 32.812 26.687 59.412 59.608 59.412zm0 9.351c38.103 0 68.991-30.786 68.991-68.763 0-37.977-30.888-68.764-68.991-68.764-38.103 0-68.991 30.787-68.991 68.764s30.888 68.763 68.991 68.763z" fill="#AE26EE"/><path d="M142.665 101.375H233.3v94.169h-90.635v-94.169z" fill="#fff"/><path d="M221.247 188.769c4.232 0 7.702-3.475 7.284-7.73a78.903 78.903 0 00-5.517-22.218 78.31 78.31 0 00-16.789-25.389 77.406 77.406 0 00-25.128-16.964 76.808 76.808 0 00-21.989-5.574c-4.211-.422-7.65 3.084-7.65 7.36v62.772c0 4.276 3.43 7.743 7.663 7.743h62.126z" fill="#F40C60"/><path d="M79.208 87.74c-.936 0-1.773-.19-2.512-.569-.727-.39-1.3-.92-1.718-1.59-.42-.682-.628-1.45-.628-2.305v-7.012h2.495v6.866c0 .454.105.865.314 1.233.21.357.49.644.843.86a2.31 2.31 0 001.206.325c.452 0 .86-.108 1.223-.325.375-.216.667-.503.876-.86.22-.368.33-.779.33-1.233v-6.866h2.413v7.012c0 .855-.209 1.623-.627 2.305a4.442 4.442 0 01-1.736 1.59c-.727.379-1.553.568-2.479.568zm10.36.064c-.816 0-1.543-.13-2.182-.39-.628-.27-1.135-.638-1.52-1.103l1.454-1.234c.342.357.722.617 1.14.78a3.67 3.67 0 001.256.227c.166 0 .314-.017.447-.049.143-.043.264-.097.363-.162a.69.69 0 00.215-.26.742.742 0 00.083-.34c0-.239-.1-.428-.298-.569a4.27 4.27 0 00-.512-.195 10.052 10.052 0 00-.893-.276 8.154 8.154 0 01-1.437-.487 3.444 3.444 0 01-.926-.649 2.73 2.73 0 01-.463-.73 2.578 2.578 0 01-.148-.893c0-.39.088-.741.264-1.055.176-.325.419-.6.727-.828.32-.227.683-.4 1.091-.52a4.248 4.248 0 011.289-.194c.452 0 .892.054 1.322.162.43.109.826.266 1.19.471.375.195.7.427.975.698l-1.256 1.363a4.043 4.043 0 00-.677-.503 3.46 3.46 0 00-.76-.357 2.313 2.313 0 00-.711-.13c-.188 0-.358.016-.513.049a1.105 1.105 0 00-.363.146.665.665 0 00-.232.26.778.778 0 00.017.665.9.9 0 00.264.276c.121.065.298.14.53.227.242.087.567.184.974.293.53.14.975.297 1.339.47.374.173.672.374.892.6.188.196.325.417.413.666.089.25.133.525.133.828a2.36 2.36 0 01-.463 1.428c-.298.412-.71.736-1.24.974-.528.228-1.123.341-1.784.341zm9.308 0c-.948 0-1.774-.19-2.48-.568a4.208 4.208 0 01-1.652-1.558c-.396-.66-.595-1.418-.595-2.272 0-.66.11-1.267.33-1.818.221-.552.53-1.028.926-1.429a3.99 3.99 0 011.405-.941 4.635 4.635 0 011.785-.341c.595 0 1.146.108 1.652.325a3.63 3.63 0 011.306.892c.375.38.661.828.859 1.348a4.29 4.29 0 01.265 1.704l-.017.714h-7.023l-.38-1.412h5.47l-.265.292v-.357a1.503 1.503 0 00-.297-.795 1.665 1.665 0 00-.645-.552 1.997 1.997 0 00-.892-.195c-.485 0-.898.092-1.24.276-.33.184-.584.454-.76.811-.176.358-.264.79-.264 1.299 0 .52.11.968.33 1.347.232.379.551.677.959.893.418.206.909.308 1.47.308.386 0 .739-.06 1.058-.178.32-.12.661-.325 1.025-.617l1.124 1.542a5 5 0 01-1.058.714 5.995 5.995 0 01-1.19.422c-.407.097-.81.146-1.206.146zm8.956 0c-.76 0-1.443-.19-2.049-.568a4.174 4.174 0 01-1.438-1.574c-.342-.671-.512-1.445-.512-2.321 0-.855.17-1.618.512-2.289a4.19 4.19 0 011.421-1.59c.606-.39 1.295-.585 2.066-.585.408 0 .799.065 1.173.195.386.119.728.287 1.025.503.308.216.556.46.744.73.187.26.292.536.314.828l-.595.098v-5.6h2.346v12.01h-2.214l-.099-1.98.463.05c-.023.27-.122.53-.298.779a2.814 2.814 0 01-.711.681 3.8 3.8 0 01-.991.47 4.037 4.037 0 01-1.157.163zm.529-1.915a2.06 2.06 0 001.157-.325c.33-.216.589-.514.776-.892.188-.38.281-.823.281-1.331 0-.498-.093-.936-.281-1.315a2.081 2.081 0 00-1.933-1.218c-.441 0-.826.109-1.157.325-.32.206-.573.503-.76.893-.176.379-.265.817-.265 1.315 0 .508.089.952.265 1.33.187.38.44.677.76.893a2.06 2.06 0 001.157.325zm15.916 1.915a7.026 7.026 0 01-1.967-.26 5.143 5.143 0 01-1.57-.762 6.19 6.19 0 01-1.223-1.218l1.554-1.736c.54.735 1.074 1.239 1.603 1.509.54.26 1.124.39 1.752.39.341 0 .644-.044.909-.13a1.52 1.52 0 00.644-.406.898.898 0 00.232-.617.964.964 0 00-.116-.47 1.116 1.116 0 00-.331-.39 2.129 2.129 0 00-.512-.308 3.624 3.624 0 00-.661-.244 5.325 5.325 0 00-.793-.178 9.849 9.849 0 01-1.62-.504 4.066 4.066 0 01-1.157-.746 3.027 3.027 0 01-.694-1.023 3.61 3.61 0 01-.215-1.282c0-.487.11-.936.331-1.347.22-.422.523-.785.909-1.088a4.434 4.434 0 011.355-.698 5.439 5.439 0 011.636-.243c.705 0 1.322.081 1.851.243.529.152.986.374 1.372.666.396.292.727.649.991 1.071l-1.57 1.493a3.885 3.885 0 00-.76-.763 2.688 2.688 0 00-.876-.454 2.872 2.872 0 00-.958-.162 2.71 2.71 0 00-.942.146 1.4 1.4 0 00-.628.39.956.956 0 00-.215.632.92.92 0 00.149.52c.099.151.242.286.429.406.187.108.413.205.678.292.264.086.556.162.876.227a9.1 9.1 0 011.636.47 4.65 4.65 0 011.239.715 2.72 2.72 0 011.091 2.224c0 .768-.187 1.422-.562 1.963-.375.541-.892.958-1.553 1.25-.661.281-1.433.422-2.314.422zm6.344 3.409V79.056h2.264l.066 1.931-.43-.146c.077-.346.265-.665.562-.958a3.64 3.64 0 011.14-.714 3.736 3.736 0 011.422-.276c.76 0 1.432.195 2.016.585a3.943 3.943 0 011.405 1.574c.352.66.528 1.423.528 2.289 0 .854-.17 1.617-.512 2.288a4.057 4.057 0 01-1.405 1.59c-.595.38-1.272.569-2.032.569-.507 0-.992-.092-1.455-.276a3.747 3.747 0 01-1.156-.763c-.32-.314-.518-.65-.595-1.006l.545-.227v5.697h-2.363zm4.495-5.405c.43 0 .81-.103 1.14-.309.331-.205.59-.492.777-.86.187-.379.281-.811.281-1.298s-.094-.915-.281-1.283a2.117 2.117 0 00-.777-.86c-.319-.205-.699-.308-1.14-.308a2.15 2.15 0 00-1.157.308 1.994 1.994 0 00-.777.86c-.187.368-.281.796-.281 1.283 0 .487.094.92.281 1.298.188.368.446.655.777.86.331.206.716.309 1.157.309zm9.525 1.996a3.463 3.463 0 01-1.966-.584 4.104 4.104 0 01-1.388-1.59c-.342-.672-.513-1.44-.513-2.306 0-.865.171-1.628.513-2.288a4.055 4.055 0 011.421-1.575c.595-.39 1.272-.584 2.033-.584.429 0 .82.065 1.173.195.364.119.678.287.942.503.275.216.507.465.694.747.187.28.32.584.397.909l-.496-.082v-2.093h2.33v8.586h-2.363V85.58l.529-.05a2.75 2.75 0 01-.43.861c-.198.27-.446.514-.744.73a3.908 3.908 0 01-.975.504 3.69 3.69 0 01-1.157.178zm.645-1.996c.441 0 .826-.103 1.157-.309.33-.205.584-.492.76-.86.187-.379.281-.817.281-1.315 0-.487-.094-.914-.281-1.282a2.012 2.012 0 00-.76-.86 2.064 2.064 0 00-1.157-.325c-.43 0-.81.108-1.14.325a2.17 2.17 0 00-.761.86c-.187.368-.281.795-.281 1.282 0 .498.094.936.281 1.315.188.368.441.655.761.86.33.206.71.309 1.14.309zm10.649 1.996c-.837 0-1.587-.195-2.248-.584a4.307 4.307 0 01-1.57-1.59c-.374-.672-.561-1.435-.561-2.29 0-.843.187-1.6.561-2.272a4.271 4.271 0 011.57-1.607c.661-.39 1.411-.584 2.248-.584.782 0 1.498.14 2.148.422.65.281 1.157.67 1.521 1.169l-1.289 1.525a2.519 2.519 0 00-.579-.551 2.826 2.826 0 00-.76-.406 2.37 2.37 0 00-.826-.146c-.452 0-.854.108-1.207.324a2.199 2.199 0 00-.809.86 2.62 2.62 0 00-.298 1.267c0 .465.099.882.298 1.25.209.357.49.649.842.876.353.216.75.325 1.19.325.287 0 .557-.038.81-.114.254-.087.49-.211.711-.373.231-.163.44-.358.628-.585l1.272 1.526c-.374.465-.892.844-1.553 1.136a5.306 5.306 0 01-2.099.422zm9.304 0c-.947 0-1.774-.19-2.479-.568a4.203 4.203 0 01-1.652-1.558c-.397-.66-.595-1.418-.595-2.272 0-.66.11-1.267.33-1.818.22-.552.529-1.028.926-1.429a3.981 3.981 0 011.404-.941 4.636 4.636 0 011.785-.341c.595 0 1.146.108 1.653.325.507.205.942.503 1.305.892.375.38.661.828.86 1.348.198.519.286 1.087.264 1.704l-.016.714H162l-.38-1.412h5.47l-.264.292v-.357a1.504 1.504 0 00-.298-.795 1.663 1.663 0 00-.644-.552 2 2 0 00-.893-.195c-.485 0-.898.092-1.239.276a1.824 1.824 0 00-.76.811c-.177.358-.265.79-.265 1.299 0 .52.11.968.331 1.347.231.379.551.677.958.893.419.206.909.308 1.471.308.386 0 .738-.06 1.058-.178.319-.12.661-.325 1.024-.617l1.124 1.542c-.319.281-.672.52-1.058.714a5.987 5.987 0 01-1.189.422c-.408.097-.81.146-1.207.146z" fill="#191D27"/><defs><filter id="filter0_d_0_4690" x="0" y=".564" width="320.501" height="332.374" filterUnits="userSpaceOnUse" color-interpolation-filters="sRGB"><feFlood flood-opacity="0" result="BackgroundImageFix"/><feColorMatrix in="SourceAlpha" values="0 0 0 0 0 0 0 0 0 0 0 0 0 0 0 0 0 0 127 0" result="hardAlpha"/><feOffset/><feGaussianBlur stdDeviation="25"/><feComposite in2="hardAlpha" operator="out"/><feColorMatrix values="0 0 0 0 0 0 0 0 0 0 0 0 0 0 0 0 0 0 0.1 0"/><feBlend in2="BackgroundImageFix" result="effect1_dropShadow_0_4690"/><feBlend in="SourceGraphic" in2="effect1_dropShadow_0_4690" result="shape"/></filter></defs></svg>