<svg width="393" height="372" fill="none" xmlns="http://www.w3.org/2000/svg"><g filter="url(#filter0_d_0_4552)"><path d="M50 54.015c0-2.175 1.76-3.94 3.932-3.94H339.04a3.936 3.936 0 013.933 3.94v263.558a3.937 3.937 0 01-3.933 3.94H53.932a3.936 3.936 0 01-3.932-3.94V54.015z" fill="#FFF9E9"/></g><path d="M68.31 91.425a7.876 7.876 0 017.874-7.878H316.33a7.876 7.876 0 017.874 7.878V299.42a7.877 7.877 0 01-7.874 7.879H76.184c-4.348 0-7.873-3.528-7.873-7.879V91.425z" fill="#fff"/><path d="M122.496 285.518h150.016c14.699 0 27.442-10.698 29.441-25.275.044-.343.087-.686.12-1.034.658-6.334-.636-12.597-5.771-17.413-16.443-15.432 6.521-35.326 3.081-49.044-3.44-13.718-15.411-5.838-37.674-27.435-22.263-21.598-18.78-33.65-57.486-7.156-31.05 21.265-68.267-2.4-86.765 6.862-18.497 9.261.06 36.642-22.546 66.135-14.264 18.61-3.591 35.44 6.255 45.333a31.406 31.406 0 0011.346 7.302 28.628 28.628 0 009.983 1.725z" fill="#CCF2FF"/><path d="M299.376 192.746c-3.433-13.718-15.453-5.833-37.776-27.431-15.196-14.692-18.438-24.987-31.198-21.684 10.189 3.559 13.076 6.78 15.915 13.386 16.253 37.96-17.403 76.144 5.492 93.29 12.608 9.446-13.594 23.257-37.47 35.212h58.093c14.739 0 27.516-10.698 29.521-25.276.043-.343.087-.686.12-1.034.659-6.334-.638-12.597-5.787-17.413-16.465-15.437 6.522-35.332 3.09-49.05z" fill="#ADE4F2" opacity=".48"/><path d="M169.478 160.676l-27.924-6.172 10.38 20.687 6.841-5.538 2.72 4.805.872-8.663 7.111-5.119z" fill="#379CF7"/><path d="M161.386 165.275l.767.415-.863 8.581-2.693-4.76-17.043-15.007 19.832 10.771z" fill="#092B96"/><path d="M155.745 172.041l5.951 2.23-2.801-4.597-3.15 2.367z" fill="#1574BC"/><path d="M163.342 175.191a11.703 11.703 0 01-.731-.749l.202-.17c.223.249.463.499.714.738l-.185.181zm73.869 43.212a44.509 44.509 0 01-2.072-.18l.027-.26c.684.076 1.378.135 2.062.179l-.017.261zm-4.134-.457a42.879 42.879 0 01-2.045-.385l.054-.256c.673.142 1.356.272 2.029.381l-.038.26zm-4.074-.863a42.267 42.267 0 01-1.997-.576l.076-.25c.651.206 1.324.396 1.991.576l-.07.25zm-3.967-1.244a34.693 34.693 0 01-1.936-.761l.097-.239c.635.266 1.286.543 1.926.755l-.087.245zm-3.841-1.63a38.74 38.74 0 01-1.855-.934l.119-.228c.608.32 1.226.63 1.85.928l-.114.234zm-3.673-1.95a68.371 68.371 0 01-1.763-1.086l.141-.218c.575.375 1.161.744 1.758 1.087l-.136.217zm-3.478-2.281c-.542-.408-1.117-.832-1.66-1.261l.163-.206a64.04 64.04 0 001.628 1.255l-.131.212zm-3.255-2.597a29.184 29.184 0 01-1.53-1.407l.179-.19c.494.478 1.004.951 1.525 1.401l-.174.196zm-2.995-2.884a47.794 47.794 0 01-1.394-1.554l.201-.168c.444.543.911 1.043 1.383 1.542l-.19.18zm-2.713-3.167a28.478 28.478 0 01-1.231-1.679l.217-.152c.39.543.797 1.125 1.221 1.673l-.207.158zm-2.376-3.417l-.26-.429a54.37 54.37 0 01-.793-1.369l.228-.13c.25.445.51.907.792 1.363.082.141.169.283.255.424l-.222.141zm-2.002-3.656a28.605 28.605 0 01-.825-1.917l.244-.093c.245.625.516 1.266.82 1.902l-.239.108zm-1.47-3.873a20.049 20.049 0 01-.489-2.026l.255-.049c.125.658.288 1.337.483 2.005l-.249.07zm1.497-3.802v-.261c.682-.023 1.36-.116 2.024-.277l.07.25a9.609 9.609 0 01-2.094.293v-.005zm-2.089-.065a16.292 16.292 0 01-2.061-.321l.054-.255c.605.135 1.217.235 1.834.299 0-.299-.033-.592-.033-.875 0-.407 0-.804.06-1.184h.26a11.304 11.304 0 00-.032 2.102h-.033l-.049.234zm-4.063-.945a10.728 10.728 0 01-1.856-.967l.141-.218a10.8 10.8 0 001.812.946l-.097.239zm10.162-.125l-.147-.218.152-.103a4.21 4.21 0 001.194-1.369l.227.125a4.49 4.49 0 01-1.264 1.456l-.162.109zm-13.64-2.173a11.236 11.236 0 01-1.329-1.63l.211-.152c.385.567.821 1.098 1.302 1.586l-.184.196zm8.138-1.043l-.244-.092a5.739 5.739 0 011.085-1.809l.195.174a5.413 5.413 0 00-1.041 1.727h.005zm7.2-.391a2.787 2.787 0 00-.331-1.228 2.655 2.655 0 00-.418-.543l.19-.185c.179.185.332.393.456.62.225.412.349.872.363 1.341l-.26-.005zm-29.64-1.771v-.261c.662 0 1.356 0 2.067-.07v.26c-.727.044-1.427.071-2.089.071h.022zm-2.083-.06a24.794 24.794 0 01-2.073-.228l.038-.261c.662.104 1.351.18 2.051.223l-.016.266zm14.014-.157a22.66 22.66 0 01-.852-1.907l.244-.098c.271.69.543 1.304.841 1.885l-.233.12zm-7.78-.033v-.261l1.627-.201.413-.059.038.26-.418.055c-.619.081-1.156.146-1.682.206h.022zm20.996-.407l-.081-.25a4.576 4.576 0 012.105-.212l-.038.255a4.379 4.379 0 00-1.986.207zm-31.343-.055a19.324 19.324 0 01-1.991-.63l.092-.244a18.79 18.79 0 001.964.619l-.065.255zm14.465-.157l-.049-.255c.673-.133 1.34-.3 1.996-.5l.076.25c-.674.205-1.359.375-2.051.51l.028-.005zm3.982-1.244l-.109-.239c.612-.288 1.196-.63 1.747-1.021l.147.212a11.33 11.33 0 01-1.812 1.053l.027-.005zm-22.37-.087a14.551 14.551 0 01-1.779-1.086l.152-.212a15.19 15.19 0 001.747 1.086l-.12.212zm20.482-1.89a16.8 16.8 0 01-.516-1.999l.261-.049c.123.675.291 1.341.504 1.993l-.249.055zm5.23-.478l-.195-.174a8.184 8.184 0 001.123-1.7l.233.119a8.52 8.52 0 01-1.161 1.755zm-5.637-3.634h-.26c.009-.312.038-.622.086-.929.063-.391.163-.775.299-1.146l.244.092a5.979 5.979 0 00-.282 1.086 7.093 7.093 0 00-.087.897zm7.471-.125l-.255-.044c.065-.358.098-.722.098-1.086a5.51 5.51 0 00-.082-.951l.255-.043c.059.328.089.661.087.994a6.04 6.04 0 01-.114 1.13h.011zm-6.093-3.623l-.201-.169a4.57 4.57 0 011.693-1.271l.103.245a4.24 4.24 0 00-1.606 1.195h.011zm5.111-.305a2.764 2.764 0 00-.998-.896 2.312 2.312 0 00-.581-.206l.054-.256c.225.048.442.124.646.229.439.237.812.58 1.085.999l-.206.13z" fill="#092B96"/><path d="M242.37 170.673a11.597 11.597 0 00-1.158-.539c3.054 2.023 5.232 5.084 6.11 8.588a14.281 14.281 0 01-1.354 10.381c-1.75 3.176-4.644 5.603-8.12 6.81a15.184 15.184 0 01-10.691-.276c.353.227.722.442 1.103.642a15.183 15.183 0 0011.045.725c3.64-1.157 6.684-3.642 8.5-6.938a14.28 14.28 0 001.253-10.762c-1.012-3.611-3.408-6.702-6.688-8.631z" fill="#1D88D8"/><path d="M240.075 169.61a14.59 14.59 0 00-16.211 1.522 14.721 14.721 0 00-4.757 7.086 14.772 14.772 0 00-.033 8.546 14.714 14.714 0 004.701 7.122 14.588 14.588 0 0016.199 1.651 14.682 14.682 0 006.029-6.03 14.746 14.746 0 001.14-11.182 14.713 14.713 0 00-2.671-5.064 14.64 14.64 0 00-4.397-3.651zm-11.932 22.213a10.531 10.531 0 01-4.297-4.349 10.596 10.596 0 011.188-11.666 10.497 10.497 0 015.085-3.385c1.99-.598 4.113-.59 6.099.024a10.507 10.507 0 015.059 3.424 10.591 10.591 0 011.098 11.675 10.523 10.523 0 01-6.233 5.094 10.466 10.466 0 01-7.993-.817h-.006z" fill="#379CF7"/><path d="M222.66 176.465a14.705 14.705 0 018.084-6.957 14.488 14.488 0 0110.604.388 15.79 15.79 0 00-1.086-.655 14.49 14.49 0 00-10.82-.658 14.708 14.708 0 00-8.309 7.048 15.006 15.006 0 00-1.255 10.902 14.826 14.826 0 006.485 8.795c.38.208.76.395 1.145.549a14.836 14.836 0 01-6.143-8.753 15.003 15.003 0 011.295-10.659z" fill="#379CF7"/><path d="M237.949 173.131a10.689 10.689 0 00-6.01-1.094 10.616 10.616 0 00-5.616 2.371 10.325 10.325 0 00-3.33 5.035 10.174 10.174 0 00.08 6.004 10.342 10.342 0 003.462 4.949 10.69 10.69 0 0011.656.979 10.436 10.436 0 004.267-4.3 10.18 10.18 0 00.684-7.889 10.394 10.394 0 00-5.193-6.055z" fill="#fff" opacity=".05"/><path style="mix-blend-mode:overlay" d="M242.263 177.327l-19.641 5.679a9.76 9.76 0 011.082-5.459l14.507-4.195a10.209 10.209 0 014.052 3.975z" fill="url(#paint0_linear_0_4552)"/><path style="mix-blend-mode:overlay" d="M242.459 187.182a4.529 4.529 0 01-.159.292l-14.188 4.266a10.612 10.612 0 01-5.075-5.838l20.3-6.114c.602 2.49.291 5.116-.878 7.394z" fill="url(#paint1_linear_0_4552)"/><path d="M230.111 195.097l-4.651-2.519-15.194 28.29 4.651 2.519 15.194-28.29z" fill="#379CF7"/><path d="M288.956 187.366v-2.75a1.08 1.08 0 00-1.08-1.083h-1.398a1.523 1.523 0 01-1.441-1.083 10.52 10.52 0 00-.594-1.451 1.532 1.532 0 01.27-1.77l.988-.991a1.084 1.084 0 000-1.532l-1.943-1.95a1.08 1.08 0 00-1.533 0l-.988.991a1.498 1.498 0 01-1.759.271 11.343 11.343 0 00-1.447-.601 1.51 1.51 0 01-1.036-1.397v-1.424a1.084 1.084 0 00-1.08-1.083h-2.742a1.077 1.077 0 00-1.079 1.083v1.424a1.524 1.524 0 01-1.053 1.44c-.496.166-.979.367-1.447.601a1.507 1.507 0 01-1.765-.27l-.987-.991a1.077 1.077 0 00-1.528 0l-1.943 1.949a1.08 1.08 0 00-.234 1.181c.054.131.134.251.234.351l.988.991a1.532 1.532 0 01.27 1.77 11.6 11.6 0 00-.6 1.451 1.511 1.511 0 01-1.435 1.083h-1.398a1.08 1.08 0 00-1.08 1.083v2.751a1.085 1.085 0 001.08 1.083h1.398a1.512 1.512 0 011.435 1.082c.154.474.337.937.551 1.386a1.527 1.527 0 01-.27 1.771l-.988.991a1.08 1.08 0 00-.234 1.181c.054.131.134.25.234.351l1.944 1.949a1.065 1.065 0 001.177.235c.131-.054.25-.134.35-.235l1.026-.985a1.511 1.511 0 011.765-.271c.467.235.95.435 1.446.601a1.529 1.529 0 011.053 1.44v1.403a1.08 1.08 0 001.079 1.082h2.753a1.082 1.082 0 001.08-1.082v-1.403a1.514 1.514 0 011.052-1.44c.496-.167.979-.367 1.447-.601a1.501 1.501 0 011.759.271l.988.991a1.088 1.088 0 00.767.32 1.079 1.079 0 00.766-.32l1.943-1.95c.101-.1.18-.22.234-.351a1.071 1.071 0 000-.829 1.068 1.068 0 00-.234-.352l-.988-.991a1.525 1.525 0 01-.269-1.77c.233-.468.431-.953.593-1.451a1.523 1.523 0 011.441-1.083h1.398a1.08 1.08 0 001.064-1.067zm-14.434 1.95a3.311 3.311 0 01-3.061-2.053 3.33 3.33 0 01.718-3.623 3.309 3.309 0 015.099.504 3.336 3.336 0 01-.412 4.198 3.313 3.313 0 01-2.344.974z" fill="#1D88D8"/><path d="M302.689 204.495v-1.573a.628.628 0 00-.182-.441.618.618 0 00-.439-.183h-.794a.869.869 0 01-.822-.603 5.536 5.536 0 00-.343-.832.877.877 0 01.158-1.014l.544-.548a.627.627 0 00.183-.44.627.627 0 00-.183-.441l-1.088-1.096a.625.625 0 00-.439-.185.623.623 0 00-.438.185l-.544.548a.862.862 0 01-1.007.153 6.14 6.14 0 00-.827-.34.875.875 0 01-.599-.827v-.816a.62.62 0 00-.62-.624h-1.562a.619.619 0 00-.621.624v.8a.875.875 0 01-.598.827c-.284.093-.56.206-.827.34a.866.866 0 01-1.007-.154l-.545-.548a.608.608 0 00-.87 0l-1.089 1.096a.631.631 0 00-.183.441.631.631 0 00.183.441l.544.548a.87.87 0 01.153 1.013 6.26 6.26 0 00-.338.833.875.875 0 01-.821.603h-.844a.614.614 0 00-.435.184.628.628 0 00-.18.44v1.572a.62.62 0 00.615.625h.8a.874.874 0 01.822.602c.092.286.205.564.337.833a.874.874 0 01-.152 1.013l-.544.548a.626.626 0 00-.136.68.605.605 0 00.136.202l1.088 1.096a.601.601 0 00.672.136.63.63 0 00.199-.136l.544-.548a.878.878 0 011.007-.159c.266.138.543.253.827.345a.88.88 0 01.599.827v.8a.624.624 0 00.62.625h1.562a.618.618 0 00.439-.183.628.628 0 00.182-.442v-.8a.874.874 0 01.598-.827c.285-.092.562-.207.828-.345a.876.876 0 011.007.159l.544.548a.607.607 0 00.675.136.6.6 0 00.201-.136l1.089-1.096a.61.61 0 00.135-.68.623.623 0 00-.135-.202l-.545-.548a.877.877 0 01-.158-1.013c.137-.268.252-.546.343-.833a.874.874 0 01.822-.602h.833a.622.622 0 00.626-.608zm-8.246 2.525a3.253 3.253 0 01-1.814-.554 3.3 3.3 0 01-.495-5.057 3.253 3.253 0 015.025.498 3.31 3.31 0 01.55 1.826c0 .872-.344 1.708-.957 2.324a3.252 3.252 0 01-2.309.963z" fill="#379CF7"/><path d="M308.182 186.777v-1.534a.602.602 0 00-.18-.428.632.632 0 00-.436-.18h-.801a.883.883 0 01-.508-.163.85.85 0 01-.315-.423 6.156 6.156 0 00-.338-.81.836.836 0 01-.088-.517.84.84 0 01.241-.468l.545-.533a.607.607 0 000-.858l-1.09-1.065a.63.63 0 00-.672-.131.609.609 0 00-.2.131l-.545.533a.878.878 0 01-1.008.154 5.774 5.774 0 00-.823-.336.869.869 0 01-.436-.306.842.842 0 01-.169-.498v-.794a.59.59 0 00-.051-.234.613.613 0 00-.587-.368h-1.569a.63.63 0 00-.44.178.602.602 0 00-.182.429v.778a.835.835 0 01-.167.497.87.87 0 01-.432.308c-.285.09-.562.203-.828.335a.89.89 0 01-1.008-.154l-.545-.533a.638.638 0 00-.878 0l-1.09 1.066a.603.603 0 000 .857l.545.533a.837.837 0 01.158.986c-.136.261-.25.531-.343.81a.852.852 0 01-.315.422.894.894 0 01-.508.164h-.796a.633.633 0 00-.439.177.604.604 0 00-.182.43v1.534c.002.16.068.314.184.426a.627.627 0 00.437.176h.796c.183.002.362.06.509.166a.85.85 0 01.314.426c.093.276.208.545.343.804a.837.837 0 01-.158.986l-.545.533a.596.596 0 00-.134.656.6.6 0 00.134.196l1.09 1.065a.632.632 0 00.878 0l.545-.532a.88.88 0 011.008-.149c.268.128.544.239.828.33a.863.863 0 01.432.308.834.834 0 01.167.496v.783a.602.602 0 00.184.426.63.63 0 00.438.176h1.569a.628.628 0 00.434-.177.601.601 0 00.182-.425v-.751a.842.842 0 01.169-.498.875.875 0 01.436-.306 6.37 6.37 0 00.823-.331.886.886 0 011.008.15l.545.532a.609.609 0 00.436.177.616.616 0 00.436-.177l1.09-1.065a.6.6 0 00.181-.426.589.589 0 00-.181-.427l-.545-.532a.84.84 0 01-.153-.986c.132-.26.245-.529.338-.804a.85.85 0 01.314-.426.889.889 0 01.509-.166h.801a.634.634 0 00.456-.177.606.606 0 00.182-.446zm-8.246.852c-.323 0-.639-.093-.908-.269a1.609 1.609 0 01-.602-.717 1.565 1.565 0 01-.093-.924c.063-.31.219-.595.447-.818a1.665 1.665 0 011.782-.347c.299.121.554.326.734.589a1.578 1.578 0 01.151 1.5 1.634 1.634 0 01-1.511.986z" fill="#2B56E0"/><path d="M128.736 236.555s-15.719-20.578-48.981-18.459c0 0 17.625 21.144 48.981 18.459z" fill="#1D88D8"/><path d="M119.424 222.54s3.427-25.702-21.745-47.809c0 0-2.476 27.456 21.745 47.809z" fill="#7DC4F9"/><path d="M116.834 225.758s22.11-11.935 25.177-44.131c.022 0-22.928 13.67-25.177 44.131z" fill="#7DC4F9"/><path d="M121.748 224.379s-18.344-11.458-11.649-17.267c5.012-4.352-4.856-9.936-1.079-12.09s4.538-.176 3.237-5.743c-1.3-5.567 3.086-7.073 4.678-12.738 1.592-5.666 9.442-3.578 8.87 4.649-.572 8.227 1.791-.495 4.392 2.973 2.6 3.468-6.032 16.794-2.746 15.656 3.285-1.137 5.805 1.407 4.672 5.425-2.698 9.375-10.375 19.135-10.375 19.135z" fill="#1D88D8"/><path d="M122.582 228.022a.1.1 0 01-.041-.033.092.092 0 01-.019-.048 187.977 187.977 0 01-3.366-22.86v-.065l-.049-.044a49.41 49.41 0 01-5.212-5.41 193.656 193.656 0 00-1.611-1.835c-.033-.032-.039-.059 0-.092a.139.139 0 01.077-.05.139.139 0 01.092.007h.038c.528.595 1.055 1.192 1.579 1.791a54.025 54.025 0 004.786 5.032l.289.254v-.384c-.235-3.522-.311-7.126-.24-11.005v-.103l-.098-.044-.039-.032a41.63 41.63 0 01-3.824-7.034.077.077 0 010-.103.141.141 0 01.142-.027.096.096 0 01.049.054 41.379 41.379 0 003.453 6.493l.279.433v-.541c.087-3.669.306-7.462.661-11.59 0-.049 0-.059.033-.065a.136.136 0 01.12 0c.021.01.039.026.051.047a.11.11 0 01.014.067c-.48 5.697-.71 10.8-.71 15.653v.309l.251-.179a26.35 26.35 0 007.043-7.434c0-.033.043-.049.087 0a.143.143 0 01.082.097.116.116 0 010 .103 26.436 26.436 0 01-7.348 7.624l-.088.054v.086c0 2.706.121 5.249.295 7.716v.043l.028.038a.105.105 0 01.015.052.101.101 0 01-.015.051v.081c.158 2.165.388 4.464.71 6.991l.033.417.24-.341a105.347 105.347 0 017.244-9.35.11.11 0 01.137 0 .13.13 0 01.045.036.133.133 0 01.026.05v.071a106.154 106.154 0 00-7.578 9.837l-.032.048v.06c.584 4.42 1.393 9.198 2.557 15.015v.075a.152.152 0 01-.072.019.151.151 0 01-.071-.019l-.043-.016z" fill="#092B96" opacity=".39"/><path d="M124.159 224.751s-21.176 8.137-21.68-1.123c-.369-6.938-11.29-2.17-10.656-6.689.634-4.519 2.764-3.916-2.656-6.309-5.42-2.392-3.837-7.052-7.474-11.934s3.111-10.172 9.507-4.508c6.395 5.663.748-1.807 5.262-1.807 4.515 0 9.941 15.635 11.111 12.168 1.171-3.466 4.878-3.982 7.453-.499 6.032 8.116 9.133 20.701 9.133 20.701z" fill="#379CF7"/><path d="M128.207 227.124a.126.126 0 01-.054.013.13.13 0 01-.055-.013c-6.038-3.013-13.923-7.094-21.329-12.004l-.055-.044h-.071a52.25 52.25 0 01-7.858.869c-.856.049-1.711.098-2.561.164-.05 0-.077 0-.088-.055a.155.155 0 01.071-.17h.05c.833-.066 1.672-.115 2.506-.165a55.585 55.585 0 007.27-.753l.398-.077-.338-.226c-3.106-2.089-6.18-4.361-9.395-6.94l-.087-.066-.093.05h-.055a44.227 44.227 0 01-8.348-1.386c-.05 0-.071-.038-.077-.082a.155.155 0 01.071-.143.085.085 0 01.077 0 43.948 43.948 0 007.662 1.325l.545.044-.425-.347c-3.025-2.452-6.071-5.092-9.314-8.067a.078.078 0 01-.033-.071.155.155 0 01.031-.058.15.15 0 01.051-.041.112.112 0 01.136 0c4.431 4.069 8.573 7.567 12.66 10.701l.256.198v-.33a28.273 28.273 0 00-1.78-10.738c0-.009.001-.018.005-.026a.053.053 0 01.014-.022.053.053 0 01.023-.014.161.161 0 01.18.031.126.126 0 01.027.046 28.304 28.304 0 011.76 11.124v.099l.076.055c2.3 1.749 4.48 3.3 6.665 4.757h.082a.11.11 0 01.055.021.108.108 0 01.037.045v.039l.039.027c1.934 1.281 4 2.568 6.321 3.938l.382.225-.137-.423a112.827 112.827 0 01-3.226-12.065.114.114 0 01.008-.075.11.11 0 01.052-.052.139.139 0 01.12 0s.033 0 .044.066c.896 4.31 2.042 8.562 3.433 12.736v.06l.054.033c4.082 2.382 8.605 4.796 14.235 7.6.054 0 .054.055.054.066a.15.15 0 01-.087.127l.016-.006z" fill="#092B96" opacity=".39"/><path d="M278.344 205.991H112.223a2.829 2.829 0 00-1.993.826 2.847 2.847 0 00-.836 1.994l-.342 81.226c0 .753.298 1.474.828 2.006.531.532 1.25.831 2.001.831l166.463-1.372c.751 0 1.47-.299 2.001-.831.53-.532.828-1.253.828-2.006v-79.854a2.839 2.839 0 00-.834-1.995 2.823 2.823 0 00-1.995-.825z" fill="#fff"/><path d="M259.586 228.976H128.35a2.364 2.364 0 00-2.361 2.368v12.273a2.364 2.364 0 002.361 2.368h131.236a2.364 2.364 0 002.361-2.368v-12.273a2.364 2.364 0 00-2.361-2.368z" fill="#D8E8EF"/><path d="M157.937 228.976h-29.6a2.344 2.344 0 00-1.661.697 2.384 2.384 0 00-.687 1.676v12.268c0 .628.248 1.23.688 1.674.44.444 1.037.694 1.66.694h29.6c.632 0 1.239-.254 1.686-.705a2.413 2.413 0 00.699-1.701v-12.192a2.408 2.408 0 00-1.471-2.227 2.357 2.357 0 00-.914-.184z" fill="#379CF7"/><path d="M147.02 254.719h-16.883a2.78 2.78 0 00-2.774 2.786v16.954a2.78 2.78 0 002.774 2.785h16.883a2.78 2.78 0 002.774-2.785v-16.954a2.78 2.78 0 00-2.774-2.786z" fill="#7DC4F9"/><path d="M191.423 254.719H174.54a2.78 2.78 0 00-2.773 2.786v16.954a2.78 2.78 0 002.773 2.785h16.883a2.78 2.78 0 002.774-2.785v-16.954a2.78 2.78 0 00-2.774-2.786z" fill="#1D88D8"/><path d="M152.842 257.477a.334.334 0 01-.216-.153.57.57 0 01-.086-.307c0-.113.031-.222.086-.306a.33.33 0 01.216-.153h14.502c.084.014.16.068.216.153a.556.556 0 01.086.306c0 .113-.03.222-.086.307a.332.332 0 01-.216.153h-14.502zm0 3.678a.334.334 0 01-.216-.153.57.57 0 01-.086-.307c0-.113.031-.222.086-.306a.33.33 0 01.216-.153h14.502c.084.014.16.068.216.153a.556.556 0 01.086.306c0 .113-.03.222-.086.307a.332.332 0 01-.216.153h-14.502zm.036 3.217a.43.43 0 01-.239-.067c-.063-.043-.099-.102-.099-.163 0-.06.036-.119.099-.162a.43.43 0 01.239-.067h14.431a.43.43 0 01.238.067c.064.043.099.102.099.162 0 .061-.035.12-.099.163a.43.43 0 01-.238.067h-14.431zm0 3.678a.43.43 0 01-.239-.068c-.063-.043-.099-.101-.099-.162s.036-.119.099-.162a.43.43 0 01.239-.067h14.431a.43.43 0 01.238.067c.064.043.099.101.099.162s-.035.119-.099.162a.43.43 0 01-.238.068h-14.431zm-.036 3.677a.423.423 0 01-.216-.076c-.055-.043-.086-.097-.086-.153 0-.057.031-.111.086-.153a.415.415 0 01.216-.077h14.502c.084.007.16.034.216.077.056.042.086.096.086.153 0 .056-.03.11-.086.153a.42.42 0 01-.216.076h-14.502zm.003 3.678a.419.419 0 01-.218-.077c-.056-.042-.087-.096-.087-.153 0-.056.031-.11.087-.153a.427.427 0 01.218-.076h6.257a.424.424 0 01.217.076c.057.043.088.097.088.153 0 .057-.031.111-.088.153a.415.415 0 01-.217.077h-6.257zm44.954-17.932a.269.269 0 01-.148-.017.343.343 0 01-.13-.094.484.484 0 01-.088-.156.594.594 0 010-.378.49.49 0 01.088-.155.346.346 0 01.13-.095.279.279 0 01.148-.017h14.857a.341.341 0 01.222.152.545.545 0 01.088.304.549.549 0 01-.088.305.336.336 0 01-.222.151h-14.857zm0 3.678a.269.269 0 01-.148-.017.343.343 0 01-.13-.094.494.494 0 01-.088-.156.594.594 0 010-.378.49.49 0 01.088-.155.336.336 0 01.13-.095.279.279 0 01.148-.017h14.857a.341.341 0 01.222.152.545.545 0 01.088.304c0 .112-.031.22-.088.304a.341.341 0 01-.222.152h-14.857zm-.049 3.221a.454.454 0 01-.246-.067c-.065-.043-.102-.102-.102-.163 0-.06.037-.119.102-.162a.454.454 0 01.246-.067h14.868c.092 0 .181.024.246.067.065.043.102.102.102.162 0 .061-.037.12-.102.163a.454.454 0 01-.246.067H197.75zm0 3.678a.455.455 0 01-.246-.068c-.065-.043-.102-.101-.102-.162s.037-.119.102-.162a.454.454 0 01.246-.067h14.868c.092 0 .181.024.246.067.065.043.102.101.102.162s-.037.119-.102.162a.455.455 0 01-.246.068H197.75zm.049 3.675a.522.522 0 01-.278-.055.28.28 0 01-.088-.078.17.17 0 01-.031-.094.17.17 0 01.031-.095.278.278 0 01.088-.077.523.523 0 01.278-.056h14.857a.442.442 0 01.222.076c.057.042.088.096.088.152 0 .056-.031.11-.088.152a.441.441 0 01-.222.075h-14.857zm.01 3.678a.551.551 0 01-.285-.056.276.276 0 01-.09-.077.164.164 0 01-.032-.095c0-.032.011-.064.032-.094a.278.278 0 01.09-.078.486.486 0 01.285-.055h6.51a.486.486 0 01.285.055.278.278 0 01.09.078c.021.03.032.062.032.094a.164.164 0 01-.032.095.276.276 0 01-.09.077.551.551 0 01-.285.056h-6.51z" fill="#ABD0DD"/><path d="M236.8 254.719h-16.539c-1.5 0-2.717 1.247-2.717 2.786v16.954c0 1.538 1.217 2.785 2.717 2.785H236.8c1.5 0 2.717-1.247 2.717-2.785v-16.954c0-1.539-1.217-2.786-2.717-2.786z" fill="#092B96"/><path d="M243.49 257.477a.34.34 0 01-.222-.153.548.548 0 01-.089-.307c0-.113.031-.222.089-.306a.337.337 0 01.222-.153h14.942a.34.34 0 01.222.153.55.55 0 01.089.306.556.556 0 01-.089.307.343.343 0 01-.222.153H243.49zm0 3.678a.34.34 0 01-.222-.153.548.548 0 01-.089-.307c0-.113.031-.222.089-.306a.337.337 0 01.222-.153h14.942a.34.34 0 01.222.153.55.55 0 01.089.306.556.556 0 01-.089.307.343.343 0 01-.222.153H243.49zm.037 3.217a.454.454 0 01-.246-.067c-.066-.043-.102-.102-.102-.163 0-.06.036-.119.102-.162a.454.454 0 01.246-.067h14.868c.092 0 .181.024.246.067.065.043.102.102.102.162 0 .061-.037.12-.102.163a.454.454 0 01-.246.067h-14.868zm0 3.678a.455.455 0 01-.246-.068c-.066-.043-.102-.101-.102-.162s.036-.119.102-.162a.454.454 0 01.246-.067h14.868c.092 0 .181.024.246.067.065.043.102.101.102.162s-.037.119-.102.162a.455.455 0 01-.246.068h-14.868zm-.037 3.677a.439.439 0 01-.222-.076c-.058-.043-.089-.097-.089-.153 0-.057.031-.111.089-.153a.43.43 0 01.222-.077h14.942a.433.433 0 01.222.077c.057.042.089.096.089.153 0 .056-.032.11-.089.153a.442.442 0 01-.222.076H243.49zm-.006 3.678a.416.416 0 01-.218-.077c-.056-.042-.087-.096-.087-.153 0-.056.031-.11.087-.153a.424.424 0 01.218-.076h6.256a.424.424 0 01.218.076c.056.043.087.097.087.153 0 .057-.031.111-.087.153a.416.416 0 01-.218.077h-6.256z" fill="#ABD0DD"/><path fill-rule="evenodd" clip-rule="evenodd" d="M277.094 210.588h-4.2a.404.404 0 00-.295.131.474.474 0 00-.123.325c0 .123.044.241.122.328a.403.403 0 00.296.135h4.2a.399.399 0 00.295-.135.488.488 0 00.091-.504.474.474 0 00-.091-.149.407.407 0 00-.295-.131zm0 1.839h-4.2a.402.402 0 00-.296.134.485.485 0 00-.122.325c0 .122.044.239.122.325a.403.403 0 00.296.135h4.2a.399.399 0 00.295-.135.48.48 0 00.123-.325.48.48 0 00-.123-.325.398.398 0 00-.295-.134zm0 2.298h-4.2a.384.384 0 00-.16.035.413.413 0 00-.136.1.484.484 0 00-.122.327c0 .061.011.121.032.177a.459.459 0 00.226.247.37.37 0 00.16.033h4.2a.397.397 0 00.295-.132.459.459 0 00.091-.148.504.504 0 00-.091-.504.388.388 0 00-.295-.135z" fill="#379CF7"/><path d="M119.581 212.651a2.26 2.26 0 01-.306 1.15 1.905 1.905 0 01-.821.765 1.64 1.64 0 01-1.058.12 1.776 1.776 0 01-.939-.565 2.155 2.155 0 01-.502-1.059 2.303 2.303 0 01.103-1.196c.138-.378.373-.702.674-.929a1.683 1.683 0 011.018-.349c.485 0 .95.217 1.293.604.343.386.537.911.538 1.459z" fill="#379CF7"/><path d="M130.109 212.651a2.075 2.075 0 01-1.269 1.915 2.05 2.05 0 01-2.247-.447 2.077 2.077 0 01.315-3.185 2.056 2.056 0 012.6.258 2.067 2.067 0 01.601 1.459z" fill="#092B96"/><path d="M140.638 212.651c.001.409-.105.81-.306 1.151a1.9 1.9 0 01-.822.764 1.636 1.636 0 01-1.059.12 1.783 1.783 0 01-.939-.567 2.165 2.165 0 01-.501-1.06 2.328 2.328 0 01.105-1.197c.14-.378.375-.701.677-.928a1.685 1.685 0 011.019-.346c.484.001.948.219 1.29.606.342.386.535.91.536 1.457z" fill="#1D88D8"/><path d="M188.912 268.241l-5.016-6.978a1.372 1.372 0 00-.493-.417 1.411 1.411 0 00-1.764.417l-5.044 6.978a1.317 1.317 0 00-.098 1.382c.115.217.288.399.502.527.214.128.46.197.711.199h10.082a1.4 1.4 0 00.712-.197c.215-.127.389-.31.505-.527a1.31 1.31 0 00-.097-1.384z" fill="#092B96"/><path d="M228.301 272.647c3.16 0 5.722-2.572 5.722-5.746 0-3.173-2.562-5.746-5.722-5.746-3.16 0-5.722 2.573-5.722 5.746 0 3.174 2.562 5.746 5.722 5.746z" fill="#1D88D8"/><path d="M313.218 294.946c0-2.92-50.532-5.29-112.838-5.29s-112.843 2.37-112.843 5.29c0 2.919 50.499 5.283 112.843 5.283s112.838-2.364 112.838-5.283z" fill="#F0F0F0"/><path fill-rule="evenodd" clip-rule="evenodd" d="M185.877 191.074c-.193-1.341-.905-4.276-3.387-3.259-4.839-1.895-7.001.498-7.343 3.684-.43 4.003-2.648 5.59-1.826 6.748 1.026 1.431 4.198 3.527 7.475 3.605 3.421.067 6.422-2.733 7.321-4.254.706-1.213-1.688-2.538-2.24-6.524z" fill="#092B96"/><path fill-rule="evenodd" clip-rule="evenodd" d="M202.108 210.484c-1.705-3.124-8.405-10.203-9.149-10.46-2.096-.715-5.429-1.037-7.384-1.207a46.052 46.052 0 00-4.886-.175h-1.428c-1.841 0-6.977.23-10.604 1.47-.749.256-7.677 7.22-9.382 10.345a2.684 2.684 0 00-.087 2.392l7.303 14.747 3.643-.781-2.878-12.682a2.855 2.855 0 01.82-2.666l4.632-5.527h15.913l4.691 5.494a2.844 2.844 0 01.809 2.699l-2.883 12.699 3.703.546 7.243-14.463a2.695 2.695 0 00-.076-2.431z" fill="#379CF7"/><path fill-rule="evenodd" clip-rule="evenodd" d="M169.683 227.137l1.528 1.386a.325.325 0 01-.009.476.3.3 0 01-.154.074l-.646.049.426 1.193c.441 1.243-2.027 3.14-3.046.687l-1.051-3.222 2.952-.643zm21.756 0l-1.72 1.388a.312.312 0 00.018.472.344.344 0 00.166.074l.699.071-.464 1.185c-.482 1.235 2.213 3.12 3.325.683l1.192-3.452-3.216-.421zm-6.915-34.453l.06 2.982a4.06 4.06 0 01-1.185 2.949c-.13.115-.261.246-.391.378a3.576 3.576 0 01-2.427 1.021 3.573 3.573 0 01-2.465-.922l-.396-.362a3.98 3.98 0 01-.954-1.307 4 4 0 01-.361-1.582l-.06-2.987s4.163-.038 5.755-2.034a3.864 3.864 0 002.424 1.864z" fill="#FFA683"/><path fill-rule="evenodd" clip-rule="evenodd" d="M184.524 192.68l.06 2.983a4.064 4.064 0 01-1.185 2.951 8.57 8.57 0 00-.391.378 3.577 3.577 0 01-2.427 1.022 3.574 3.574 0 01-2.465-.923l-.396-.362a3.984 3.984 0 01-.954-1.308 4 4 0 01-.361-1.582l-.06-2.989s4.13-.039 5.717-2.03a3.979 3.979 0 002.462 1.86z" fill="#FFA683"/><path fill-rule="evenodd" clip-rule="evenodd" d="M177.516 196.697c.155-.275.224-.607.195-.937a1.53 1.53 0 00-.351-.868 1.085 1.085 0 00-.733-.391 1.035 1.035 0 00-.769.272.798.798 0 00-.218.276 1.62 1.62 0 00-.206.941c.027.334.152.644.352.876.201.232.463.37.74.388.277.019.551-.083.771-.287a.78.78 0 00.219-.27zm8.187-.368c.186-.22.275-.488.251-.757a1.088 1.088 0 00-.383-.717 1.503 1.503 0 00-.842-.349 1.6 1.6 0 00-.913.18.96.96 0 00-.414.356 1.01 1.01 0 00-.174.772c.051.267.211.51.452.689.241.179.549.283.872.293.322.01.638-.074.895-.238a.757.757 0 00.256-.229zm-2.952 3.13a2.797 2.797 0 00-.141-1.009 2.61 2.61 0 00-.488-.866 2.309 2.309 0 00-.756-.582 2.1 2.1 0 00-.901-.205c-.31 0-.617.07-.902.205a2.295 2.295 0 00-.755.582c-.214.249-.38.544-.488.866a2.798 2.798 0 00-.142 1.009c0 1.412 1.027 2.854 2.289 2.854 1.262 0 2.284-1.442 2.284-2.854z" fill="#FFA683"/><path fill-rule="evenodd" clip-rule="evenodd" d="M178.176 199.576v.105c.587.7 1.43 1.15 2.35 1.253 1.125 0 2.227-1.169 2.227-1.253v-.126a3.57 3.57 0 01-2.284.834 3.577 3.577 0 01-2.293-.813z" fill="#EF7F5E"/><path d="M169.892 226.845l-2.902-12.568a2.78 2.78 0 01.825-2.641l4.662-5.478s1.033-1.753.519-1.526c-.513.227-7.384 6.127-8.04 7.545-.481 1.083 2.241 10.533 3.564 14.96l1.372-.292zm22.868-26.709l-.394-.121c1.359 1.576 9.572 11.262 8.662 13.272-.82 1.817-5.944 11.015-7.525 14.134l1.292.176 7.398-14.541a2.659 2.659 0 00-.089-2.405c-1.741-3.141-8.584-10.257-9.344-10.515z" fill="#1D88D8"/><path d="M125.532 271.549l.416 1.193 6.199-.643s6.811 8.849 9.664 11.851c.295.31.629.688.968 1.109 1.809-4.438 5.466-18.425 1.743-19.535-5.488-1.648-18.99 6.025-18.99 6.025z" fill="#092B96"/><path d="M137.892 279.505c1.494 1.767 2.944 3.447 3.922 4.46.3.306.639.678.984 1.094 1.15-2.736 3.017-9.101 3.333-13.791-1.239.181-5.484 4.986-8.239 8.237z" fill="#052575"/><path d="M132.38 272.188s6.846 8.62 9.719 11.544c2.873 2.924 9.339 11.614-8.142 10.944-17.481-.67-25.458-3.307-25.458-3.307l-.362-3.74 18.321-1.914s-11.443-1.313-10.042-11.933l15.964-1.594z" fill="#173ACC"/><path d="M132.443 273.652l.313-.545c1.771 2.218 6.758 8.421 9.084 10.835 1.1 1.167 2.81 3.227 3.376 5.255-1.342-3.085-5.46-5.996-8.974-9.37-4.536-4.376-3.799-6.175-3.799-6.175z" fill="#2B56E0"/><path d="M105.143 288.277h-.153c-.6.049-2.258.142-2.595.92-.39.903-.527 5.379 2.295 5.511 2.822.131-.526-2.189.437-3.164l.016-3.267zm2.994-.44l18.287-1.858s1.985.819 8.127 3.149c3.729 1.417 7.611 2.861 9.75 3.8-1.558 1.213-4.705 1.964-10.419 1.748-17.476-.645-25.411-3.212-25.411-3.212l-.334-3.627z" fill="#092B96"/><path d="M108.595 291.317s-2.166-.855-3.34.288c-1.673 1.648-.136-3.059-.136-3.059l3.118-.728.358 3.499z" fill="#FFA683"/><path d="M149.55 243.404l-5.164-4.499a.532.532 0 01-.128-.63c.441-.959.55-2.05.307-3.085a4.574 4.574 0 00-1.636-2.576 4.155 4.155 0 00-2.821-.871 4.204 4.204 0 00-2.694 1.238 4.607 4.607 0 00-.72.957 4.758 4.758 0 00-.59 3.02 4.628 4.628 0 001.372 2.722 4.196 4.196 0 002.703 1.172 4.16 4.16 0 002.789-.918.444.444 0 01.16-.079.458.458 0 01.447.096l5.17 4.5a.639.639 0 00.469.152.625.625 0 00.432-.242.696.696 0 00-.096-.957zm-6.737-4.989a3.15 3.15 0 01-1.53 1.062 3 3 0 01-1.832-.015 3.145 3.145 0 01-1.515-1.085 3.484 3.484 0 01-.319-3.685 3.255 3.255 0 011.305-1.357 3.009 3.009 0 011.799-.363c.62.069 1.208.331 1.687.752a3.393 3.393 0 011.121 2.257 3.458 3.458 0 01-.716 2.434z" fill="#fff"/><path d="M142.232 233.858a3.199 3.199 0 00-4.866.936 3.23 3.23 0 00.323 3.56 3.2 3.2 0 004.955.037 3.232 3.232 0 00-.412-4.533z" fill="#379CF7"/><path d="M146.892 240.462c-.3.015-.593.091-.859.223a2.057 2.057 0 00-.683.541c-.139-.448-.388-1.092-.649-1.212-.394-.153-.858 2.915-.858 2.915l.278-.219-.07.104 2.737 1.332c1.745-2.265 1.345-3.526.104-3.684z" fill="#FFA683"/><path d="M116.576 263.913c.569-5.349 1.332-11.061 2.361-12.598a5.51 5.51 0 011.559-1.653s-5.001 3.036-7.043 7.8c-1.018 2.309.893 4.644 3.123 6.451z" fill="#379CF7"/><path d="M129.481 249.662l-.161-2.071a2.909 2.909 0 001.689-.906c1.232-1.339 1.216-3.866.104-5.297-1.039.325-2.338.103-2.385.688-.078.933-.161 1.681-.161 1.681-.847-.542-1.746-.477-1.627.711.047.471.369 1.236.702 1.296a2.814 2.814 0 01-.372 1.693 2.626 2.626 0 01-1.281 1.11v.732l3.492.363z" fill="#FFA683"/><path d="M122.443 242.46c.862-3.567 2.253-5.576 6.043-5.667 3.452-.086 3.913 2.798 3.913 2.798-.113 2.493-3.64 1.317-3.747 2.262-.107.946-.166 1.665-.166 1.665-.878-.537-1.799-.478-1.681.704.054.473.386 1.225.728 1.284a2.693 2.693 0 01-.383 1.678 2.676 2.676 0 01-1.319 1.099s-4.25-2.272-3.388-5.823z" fill="#092B96"/><path d="M122.445 242.46c.885-3.567 2.313-5.576 6.202-5.667 2.351-.059 3.351 1.192 3.752 2.041-1.725-1.611-5.493-2.568-7.877 1.155-2.055 3.223-.758 7.107 3.037 6.683a2.556 2.556 0 01-.614.988 2.63 2.63 0 01-.995.623s-4.389-2.272-3.505-5.823z" fill="#09256B"/><path d="M128.596 248.205c-.364-.213-.776-1.301-.776-1.301.43.471 1.652.617 1.652.617l.179 2.141-.9-.09c.053-.667 0-1.278-.155-1.367z" fill="#EF7F5E"/><path d="M115.919 274.138s1.082-19.64 3.029-22.676c.817-1.271 1.504-1.895 2.737-2.172a26.845 26.845 0 014.327-.169c1.704.158 5.95.728 7.032 1.146 1.422.581 7.08 5.535 7.08 5.535l3.786-13.035 3.137 1.173s-3.061 19.042-5.511 19.085c-2.451.044-8.693-3.47-8.693-3.47s-.47 11.976 1.845 14.165c0 0-9.79 4.535-18.769.418z" fill="#379CF7"/><path d="M118.945 250.764a17.819 17.819 0 011.551-1.102 5.515 5.515 0 00-1.568 1.653c-1.035 1.537-1.831 7.249-2.374 12.598a15.324 15.324 0 01-1.551-1.405c.24-3.162 1.081-8.78 3.942-11.744z" fill="#147AC6"/><path d="M129.216 258.067c-.343-.671 3.587 1.474 3.587 1.474s-.481 12.036 1.885 14.236c0 0-.702.316-1.891.709-1.365-4.028-1.055-9.459-1.304-11.348-.343-2.593-1.935-4.394-2.277-5.071z" fill="#63B8F7"/><path d="M259.783 292.414c0 .189 0 .4-.04.621a1.638 1.638 0 01-.358.693c-.173.2-.393.358-.642.46a.809.809 0 01.252.061c1.234.516 1.936.649 3.13.155a.408.408 0 01.28 0 37.214 37.214 0 00-.257-1.978l-2.365-.012z" fill="#FFA683"/><path d="M262.863 296.347v-1.525a.4.4 0 00-.171-.315.339.339 0 00-.167-.058.338.338 0 00-.174.032c-1.144.514-1.814.381-2.99-.162-.899-.422-3.813 1.311-4.537 1.814a.477.477 0 00-.175.24.505.505 0 00-.005.303c.03.099.088.185.168.246a.44.44 0 00.273.089h7.119a.657.657 0 00.451-.197.737.737 0 00.208-.467z" fill="#2B56E0"/><path d="M271.686 291.955c0 .188 0 .399-.045.621a1.653 1.653 0 01-.356.692c-.173.2-.392.358-.64.461a.726.726 0 01.252.055c1.23.522 1.94.655 3.136.161a.428.428 0 01.274 0 28.98 28.98 0 00-.257-1.973l-2.364-.017z" fill="#FFA683"/><path d="M274.295 295.884c.027-.513 0-1.088 0-1.52a.4.4 0 00-.17-.314.349.349 0 00-.341-.031c-1.142.518-1.811.38-2.985-.162-.903-.414-3.807 1.307-4.535 1.814a.482.482 0 00-.172.24.51.51 0 00-.004.302.488.488 0 00.166.245.432.432 0 00.271.093h7.112a.65.65 0 00.452-.198.732.732 0 00.206-.469z" fill="#2B56E0"/><path d="M272.107 251.162c0 .99.705 3.687.705 6.703 0 5.788-2.926 13.536-2.926 13.536l4.879 20.884-4.131.13-9.145-20.435.662-21.858 9.956 1.04z" fill="#092B96"/><path d="M268.814 249.643s-.658 6.887-2.045 11.961c-1.163 4.241-9.58 10.679-9.58 10.679l5.465 20.591h-3.409l-12.206-20.005a3.433 3.433 0 01.136-2.624l11.656-22.421 9.983 1.819z" fill="#2B56E0"/><path d="M240.062 245.985h-4.208s.209 2.758 4.578 2.758l-.37-2.758zm23.482-22.23c.062-.394.086-.795.07-1.195-.129-1.41-.93-1.659-1.856-.787a3.96 3.96 0 01-1.301-1.643c-.269-.651-1.426-.153-2.324-.34a5.666 5.666 0 00-.121 3.272 5.429 5.429 0 001.697 2.744 2.988 2.988 0 002.076.566l.221 3.523 4.061-1.132-.059-2.074a2.273 2.273 0 01-1.039-.198 2.406 2.406 0 01-.857-.65 2.565 2.565 0 01-.508-.975 2.653 2.653 0 01-.06-1.111z" fill="#FFA683"/><path d="M260.574 292.874c-.882-1.467-11.747-19.728-10.148-21.956 1.654-2.321 9.123-16.729 9.123-16.729l-1.764-2.228-1.378 1.119-9.228 17.348c-.196.404-.31.842-.334 1.288-.023.447.043.894.196 1.316l12.386 19.842h1.147z" fill="#092B96" opacity=".4"/><path d="M259.066 233.474c.222-4.162 6.697-4.487 7.39-4.498a3.245 3.245 0 012.39 1.138c1.04 1.154 3.007 3.68 2.378 7.235-1.625 9.122 1.734 14.937 2.168 17.799-6.02 2.439-18.769-.586-18.769-.586l3.89-14.823.553-6.265z" fill="#379CF7"/><path d="M254.209 243.112s4.003-14.477 9.111-13.642c5.672.917-3.636 18.885-3.636 18.885l-19.288.388-.421-3.045 14.234-2.586z" fill="#379CF7"/><path d="M262.359 248.19c-.919 2.884-3.969 2.652-3.969 2.652l-1.7 4.337c-1.281-.249-2.067-.442-2.067-.442l1.504-5.994 3.411-.072s6.28-12.657 5.186-17.397c.197.409 1.684 4.21-2.365 16.916z" fill="#147AC6"/><path d="M267.844 238.601c-6.475-.336-4.286-13.12-4.215-15.593.043-1.377-.918-1.983-1.858-1.135a3.891 3.891 0 01-1.309-1.597c-.277-.634-1.722-.149-2.635-.331 1.852-7.563 10.598-7.205 14.466 3.024 3.335 8.852 5.893 16.172-4.449 15.632z" fill="#092B96"/><path d="M262.488 226.957a17.02 17.02 0 00.833-1.659 5.104 5.104 0 01-1.236.842l-.138.071.218 3.684.45-.136c-.106-1.114-.201-2.689-.127-2.802z" fill="#EF7F5E"/><path d="M257.816 236.978a13.651 13.651 0 014.132-7.083c-4.443 1.493-7.766 13.502-7.766 13.502l-14.207 2.588 15.885-.943s.984-3.509 1.956-8.064z" fill="#63B8F7"/><path d="M264.9 216.622c4.705 2.115 7.405 9.789 6.112 21.548 6.551-1.088 4.221-7.615 1.282-15.305-3.868-10.099-12.614-10.453-14.467-2.986 0 0 2.336-5.384 7.073-3.257z" fill="#052575"/><path d="M305.466 253.223c-.305 1.67-5.692 11.336-9.02 17.809a18.418 18.418 0 00-1.683 11.729h.638c-.381-2.238-.536-1.894 0-5.382.606-3.82 6.48-6.489 10.183-13.862 3.704-7.374.182-11.964-.118-10.294zm-12.514 25.56c.2 1.839.36 3.108.429 3.978h.349c.114-3.119.314-8.508.177-12.103-.194-5.302 1.332-7.49 2.189-16.414.858-8.924-1.56-21.591-1.56-21.591s-5.802 11.354-3.779 23.987c2.024 12.634 1.315 14.034 2.195 22.143zm-1.716-1.797a47.16 47.16 0 00.578 5.775h.347c-.06-.927-.125-2.632-.195-5.659-.211-9.175-1.136-9.07-2.704-15.207-1.568-6.136-4.083-8.686-6.7-11.773 0 0-2.704 4.387 1.109 10.967 3.812 6.581 5.321 7.008 6.224 10.233.903 3.224 1.281 2.786 1.341 5.664z" fill="#379CF7"/><path d="M290.744 282.761h.388a7.216 7.216 0 00-.838-4.85c-1.78-2.964-3.167-6.877-5.918-9.46-3.755-3.531-6.356-12.353-6.356-12.353s-1.969 7.836 1.847 14.048 7.027 7.389 8.691 8.403a4.656 4.656 0 011.682 1.811c.385.741.559 1.57.504 2.401z" fill="#379CF7"/><path d="M293.606 282.761h.058l.282-1.215c.106-3.173.239-7.725.127-10.888-.18-5.302 1.239-7.49 2.036-16.414.797-8.924-1.451-21.591-1.451-21.591s-2.051 17.629-1.483 25.716c.521 7.469.447 22.225.431 24.392zm12.084-29.867c.053 2.374-.132 10.447-4.746 14.737-5.352 4.972-7.059 10.463-5.463 15.13h.048c-.377-2.238-.531-1.894 0-5.382.599-3.821 6.412-6.49 10.076-13.864 3.252-6.555.865-10.91.085-10.621zm-13.265 29.867h.193c-.063-.927-.131-2.632-.204-5.659-.222-9.175-1.192-9.07-2.837-15.207-1.646-6.136-4.284-8.686-7.03-11.773a22.253 22.253 0 003.972 11.96c4.09 5.862 5.231 10.183 5.344 11.806.068 1.338.42 6.948.562 8.873zm-1.599 0h.306a7.195 7.195 0 00-.841-4.85c-1.787-2.964-3.179-6.877-5.941-9.46-3.769-3.531-6.38-12.353-6.38-12.353s.122 9.988 3.095 12.898c2.974 2.91 2.901 2.071 5.206 4.948 2.305 2.877 3.007 3.678 3.898 5.449a7.781 7.781 0 01.657 3.368z" fill="#1D88D8"/><path d="M297.792 280.922h-10.348a1.682 1.682 0 00-1.31.591 1.624 1.624 0 00-.348 1.379l2.029 10.468c.073.381.279.724.582.971.303.247.683.382 1.076.382h6.29c.394.006.778-.127 1.082-.375a1.63 1.63 0 00.576-.978l2.029-10.468a1.624 1.624 0 00-.348-1.379 1.682 1.682 0 00-1.31-.591z" fill="#D8E8EF"/><path d="M299.484 282.301a1.815 1.815 0 00-.577-.998 1.517 1.517 0 00-1.013-.381H287.8a1.549 1.549 0 00-1.009.387c-.289.25-.493.599-.582.992h13.275z" fill="#ABD0DD"/><path d="M297.809 280.922h-2.269a1.652 1.652 0 011.296.591 1.631 1.631 0 01.345 1.379l-2.007 10.468a1.638 1.638 0 01-1.641 1.353h2.27a1.643 1.643 0 001.64-1.353l2.007-10.468a1.633 1.633 0 00-.925-1.822 1.649 1.649 0 00-.716-.148z" fill="#ABD0DD"/><path d="M274.766 118.164c0-1.139.876-2.063 1.958-2.063h31.332c1.081 0 1.958.924 1.958 2.063 0 1.14-.877 2.063-1.958 2.063h-31.332c-1.082 0-1.958-.923-1.958-2.063z" fill="#145AFF"/><path d="M283.916 110.462l-.453-.734 3.388-2.015v.656l-3.388-2.015.453-.734 3.407 2.025v.792l-3.407 2.025zm4.383-2.26v-.997h2.718v.997h-2.718zm5.582 2.397c-.465 0-.871-.111-1.217-.333-.34-.221-.661-.593-.963-1.115l.793-.518c.157.241.312.44.463.596.157.15.317.261.481.333.163.072.336.108.519.108.22 0 .425-.056.613-.167.189-.117.34-.277.453-.479.114-.202.17-.43.17-.685 0-.254-.044-.469-.132-.645a.888.888 0 00-.387-.411 1.188 1.188 0 00-.604-.147c-.107 0-.22.013-.34.039-.113.02-.235.052-.368.098a4.282 4.282 0 00-.434.157l-.283-.773 2.039-2.328.198.303h-2.813v-.978h3.785l.189.391-2.162 2.485-.235-.255a.928.928 0 01.245-.068c.119-.026.217-.039.292-.039.277 0 .535.055.774.166.246.104.456.254.633.45.182.189.324.414.424.675.107.254.161.528.161.822 0 .443-.104.841-.312 1.193a2.247 2.247 0 01-1.982 1.125zm4.193-1.702l-.047-1.096 2.369-2.435h1.312l-3.634 3.531zm-.887 1.604v-7.238h.972v7.238h-.972zm3.341 0l-1.868-2.26.688-.655 2.426 2.915h-1.246z" fill="#888"/><path d="M228.53 118.164c0-1.139.877-2.063 1.959-2.063h31.331c1.082 0 1.959.924 1.959 2.063 0 1.14-.877 2.064-1.959 2.064h-31.331c-1.082 0-1.959-.924-1.959-2.064z" fill="#729CFF"/><path d="M237.677 110.103l-.449-.697 3.356-1.914v.622l-3.356-1.914.449-.697 3.374 1.924v.752l-3.374 1.924zm4.341-2.147v-.948h2.692v.948h-2.692zm4.053 2.184l-.309-.762 2.001-2.24a7.299 7.299 0 00.663-.836 2.58 2.58 0 00.253-.455c.068-.155.103-.301.103-.437a.965.965 0 00-.122-.502.74.74 0 00-.336-.325 1.12 1.12 0 00-.524-.112c-.181 0-.358.053-.533.158a1.688 1.688 0 00-.476.446 2.237 2.237 0 00-.337.669l-.776-.483c.106-.359.265-.666.477-.92.218-.26.477-.459.776-.595.305-.136.635-.204.991-.204.367 0 .695.077.981.232.287.149.511.359.673.632.162.266.243.576.243.929 0 .143-.015.288-.046.437a2.527 2.527 0 01-.15.465 4.276 4.276 0 01-.262.492 5.667 5.667 0 01-.383.53 9.174 9.174 0 01-.495.586l-1.487 1.608-.187-.279h3.216v.966h-3.954zm5.803-1.524l-.046-1.041 2.346-2.314h1.299l-3.599 3.355zm-.878 1.524v-6.877h.963v6.877h-.963zm3.309 0l-1.851-2.147.682-.622 2.403 2.769h-1.234z" fill="#888"/><path d="M182.753 118.164c0-1.139.877-2.063 1.959-2.063h31.331c1.082 0 1.959.924 1.959 2.063 0 1.14-.877 2.064-1.959 2.064h-31.331c-1.082 0-1.959-.924-1.959-2.064z" fill="#DFE9FF"/><path d="M193.389 110.599c-.497 0-.926-.144-1.286-.43-.355-.287-.628-.692-.821-1.213-.192-.529-.289-1.155-.289-1.878 0-.724.097-1.347.289-1.869.193-.528.466-.935.821-1.222a2 2 0 011.286-.431c.498 0 .927.144 1.287.431.361.287.637.694.83 1.222.193.522.289 1.145.289 1.869 0 .723-.096 1.349-.289 1.878-.193.521-.469.926-.83 1.213-.36.286-.789.43-1.287.43zm0-.959c.454 0 .805-.221 1.054-.665.249-.45.373-1.082.373-1.897 0-.816-.124-1.445-.373-1.888-.249-.45-.6-.675-1.054-.675-.453 0-.804.225-1.053.675-.249.443-.373 1.072-.373 1.888 0 .815.124 1.447.373 1.897.249.444.6.665 1.053.665zm3.333-1.438v-.997h2.685v.997h-2.685zm5.199 1.82v-5.556l.345.274-1.287.714-.271-.92 1.744-.978h.485v6.466h-1.016zm-1.035.479v-1.017H204v1.017h-3.114zm5.221-1.604l-.047-1.096 2.341-2.435h1.296l-3.59 3.531zm-.877 1.604v-7.238h.961v7.238h-.961zm3.301 0l-1.846-2.259.681-.656 2.396 2.915h-1.231z" fill="#888"/><path d="M86.319 120.377c-.744 0-1.393-.121-1.947-.363a3.966 3.966 0 01-1.412-1.089l.937-1.358c.42.484.827.824 1.223 1.019a2.96 2.96 0 001.306.292c.245 0 .463-.031.653-.093a1.09 1.09 0 00.463-.293.648.648 0 00.166-.445.693.693 0 00-.083-.339.802.802 0 00-.238-.281 1.539 1.539 0 00-.368-.223c-.142-.07-.3-.129-.475-.176a3.87 3.87 0 00-.57-.128c-.593-.125-1.088-.301-1.483-.527a2.394 2.394 0 01-.879-.843c-.19-.336-.284-.734-.284-1.194 0-.352.079-.676.237-.972a2.4 2.4 0 01.653-.785c.285-.218.61-.386.973-.503a3.893 3.893 0 011.175-.176c.665 0 1.25.109 1.757.328a3.4 3.4 0 011.33.983l-.855 1.218a2.95 2.95 0 00-1.009-.761 2.793 2.793 0 00-1.187-.257c-.261 0-.487.035-.677.105a.995.995 0 00-.45.281.695.695 0 00-.155.457c0 .14.035.265.107.374.071.109.174.207.308.293.135.078.297.148.487.211.19.062.4.117.63.164.434.085.826.199 1.174.339.349.141.645.312.89.515a1.965 1.965 0 01.783 1.604c.001.555-.133 1.027-.402 1.417a2.61 2.61 0 01-1.116.902c-.475.203-1.029.304-1.662.304zm-.712.949l.095-5.41 1.009.387.095 5.023h-1.2zm1.46-5.012l-1.01-.386-.094-4.871h1.199l-.095 5.257zm3.797 3.946l-.392-.96 2.457-2.681a7.5 7.5 0 00.427-.492c.159-.187.31-.379.452-.574.15-.203.269-.398.356-.585.087-.195.13-.371.13-.527 0-.18-.04-.336-.118-.468a.813.813 0 00-.345-.328 1.202 1.202 0 00-.558-.117c-.205 0-.4.054-.581.164a1.711 1.711 0 00-.51.456 3.128 3.128 0 00-.416.738l-1.33-.738c.159-.453.384-.847.677-1.182a3.1 3.1 0 011.045-.785 3.04 3.04 0 012.6.024c.387.195.692.468.913.819.222.351.333.757.333 1.218 0 .172-.02.347-.06.527a2.42 2.42 0 01-.178.562 4.23 4.23 0 01-.32.62 6.696 6.696 0 01-.475.679c-.182.235-.392.48-.63.738l-1.887 2.026-.237-.715h4.13v1.581h-5.483zm6.693 2.26l-.522-.621c.308-.148.554-.328.736-.538.19-.211.284-.395.284-.551 0-.07-.02-.144-.059-.222a1.116 1.116 0 00-.261-.293c-.174-.133-.293-.257-.356-.375a.966.966 0 01-.083-.398c0-.226.083-.405.25-.538.165-.133.379-.199.64-.199.214 0 .408.062.582.187.182.117.324.285.427.504.103.21.154.456.154.737 0 .25-.043.492-.13.726a2.252 2.252 0 01-.38.668 2.54 2.54 0 01-.57.55 2.554 2.554 0 01-.712.363zm5.831-2.225a3.512 3.512 0 01-1.507-.316 2.853 2.853 0 01-1.08-.878 2.014 2.014 0 01-.404-1.218c0-.289.036-.55.107-.784.079-.234.194-.445.344-.633.158-.187.348-.351.57-.491.221-.141.479-.262.772-.363l-.119.41a3.009 3.009 0 01-.594-.305 2.328 2.328 0 01-.451-.421 2.15 2.15 0 01-.285-.504 1.82 1.82 0 01-.095-.585c0-.422.123-.8.368-1.136a2.54 2.54 0 01.986-.796 3.093 3.093 0 011.388-.305c.507 0 .966.102 1.377.305.412.195.74.46.986.796.245.336.368.714.368 1.136 0 .203-.032.398-.095.585-.064.18-.155.344-.273.492a2.093 2.093 0 01-.451.41c-.174.125-.38.234-.618.328l-.071-.363c.261.078.499.187.712.327.222.133.408.297.558.492a2.104 2.104 0 01.499 1.405c0 .453-.135.863-.404 1.23a2.763 2.763 0 01-1.08.866 3.516 3.516 0 01-1.508.316zm0-1.44c.238 0 .455-.047.653-.14.198-.094.352-.219.463-.375a.978.978 0 00.166-.562.998.998 0 00-.166-.574 1.178 1.178 0 00-.463-.41 1.368 1.368 0 00-.653-.152 1.44 1.44 0 00-.664.152c-.19.102-.341.238-.451.41a.999.999 0 00-.167.574c0 .203.056.386.167.55.11.156.261.285.451.387.198.093.419.14.664.14zm0-3.641c.214 0 .404-.039.57-.117.166-.086.297-.196.392-.328a.811.811 0 00.154-.492c0-.18-.051-.34-.154-.48a1.004 1.004 0 00-.392-.351 1.221 1.221 0 00-.57-.129c-.213 0-.407.043-.581.129a1.1 1.1 0 00-.404.351.834.834 0 00-.142.48.86.86 0 00.142.492c.103.132.238.242.404.328.174.078.368.117.581.117zm6.954 5.046c-.419 0-.815-.074-1.187-.222a3.044 3.044 0 01-.961-.621 2.996 2.996 0 01-.641-.937 2.957 2.957 0 01-.226-1.159c0-.257.032-.519.095-.784.063-.273.15-.554.261-.843.119-.289.261-.59.428-.902.166-.312.352-.636.557-.972l1.14-1.885h1.662l.047.117-1.507 2.401c-.214.343-.404.671-.57.983a17.39 17.39 0 00-.427.902c-.119.288-.23.581-.333.878l-.344-.937c.103-.265.241-.503.416-.714a2.61 2.61 0 01.593-.55c.222-.157.455-.274.7-.352.246-.086.487-.128.725-.128.467 0 .894.124 1.282.374.395.242.708.566.937.972.238.406.357.851.357 1.335 0 .585-.131 1.108-.392 1.569-.253.452-.61.812-1.069 1.077a2.988 2.988 0 01-1.543.398zm.024-1.487c.269 0 .506-.058.712-.176.214-.124.38-.296.499-.515.119-.218.178-.468.178-.749 0-.242-.063-.468-.19-.679a1.394 1.394 0 00-.499-.527 1.238 1.238 0 00-.688-.199c-.277 0-.526.066-.748.199a1.421 1.421 0 00-.51.503 1.342 1.342 0 00-.178.691c0 .281.059.531.178.75.126.21.296.382.51.515.214.125.459.187.736.187zm4.431 1.487l3.359-7.447.428.761h-4.298v-1.557h5.33l.178.902-3.181 7.341h-1.816zm5.932.129c-.308 0-.546-.086-.712-.258-.166-.171-.249-.417-.249-.737 0-.289.087-.523.261-.703a.934.934 0 01.7-.281c.301 0 .534.086.701.258.166.171.249.413.249.726 0 .296-.087.538-.261.726-.174.179-.404.269-.689.269zm4.714-.047a3.648 3.648 0 01-1.638-.363 3.31 3.31 0 01-1.211-1.077l.961-1.054c.341.375.649.632.926.773.277.133.582.199.914.199.277 0 .527-.059.748-.176a1.33 1.33 0 00.522-.48c.127-.203.19-.429.19-.679 0-.257-.063-.488-.19-.691a1.353 1.353 0 00-.51-.48 1.344 1.344 0 00-.712-.187 2.41 2.41 0 00-.487.047c-.15.023-.316.074-.498.152-.183.07-.404.176-.665.316l-.807-1.054.51-3.571h4.677v1.511h-3.775l.439-.516-.391 2.6-.57-.27c.119-.109.281-.21.487-.304.213-.094.443-.172.688-.234.253-.063.499-.094.736-.094.522 0 .985.117 1.389.351.411.235.736.562.973.984.246.414.368.89.368 1.428 0 .539-.134 1.027-.403 1.464a2.962 2.962 0 01-1.104 1.03c-.467.25-.99.375-1.567.375zm7.157-.082c-.42 0-.815-.074-1.187-.222a3.048 3.048 0 01-.962-.621 2.996 2.996 0 01-.641-.937 2.975 2.975 0 01-.225-1.159c0-.257.031-.519.095-.784.063-.273.15-.554.261-.843.118-.289.261-.59.427-.902.166-.312.352-.636.558-.972l1.14-1.885h1.661l.048.117-1.508 2.401c-.213.343-.403.671-.569.983-.159.312-.301.613-.428.902-.118.288-.229.581-.332.878l-.344-.937c.103-.265.241-.503.415-.714.174-.219.372-.402.594-.55a2.53 2.53 0 01.7-.352c.245-.086.487-.128.724-.128.467 0 .894.124 1.282.374.396.242.708.566.938.972.237.406.356.851.356 1.335 0 .585-.131 1.108-.392 1.569a2.811 2.811 0 01-1.068 1.077 2.99 2.99 0 01-1.543.398zm.024-1.487c.269 0 .506-.058.712-.176.213-.124.38-.296.498-.515.119-.218.178-.468.178-.749 0-.242-.063-.468-.19-.679a1.384 1.384 0 00-.498-.527 1.241 1.241 0 00-.689-.199 1.42 1.42 0 00-.747.199 1.432 1.432 0 00-.511.503 1.342 1.342 0 00-.178.691c0 .281.059.531.178.75.127.21.297.382.511.515.213.125.459.187.736.187z" fill="#000"/><path d="M84.422 105.014v-4.231H82.96v-.592h3.668v.592h-1.456v4.231h-.75zm4.166.083c-.335 0-.636-.074-.905-.221a1.687 1.687 0 01-.629-.627 1.863 1.863 0 01-.233-.944c0-.358.078-.67.233-.937.16-.271.375-.48.643-.627a1.8 1.8 0 01.898-.227c.334 0 .633.076.897.227.269.147.48.356.636.627.16.267.24.579.24.937 0 .359-.08.673-.24.944a1.672 1.672 0 01-.636.627 1.85 1.85 0 01-.904.221zm0-.627a.973.973 0 00.869-.517c.094-.175.141-.391.141-.648s-.047-.471-.141-.641a.914.914 0 00-.367-.392.963.963 0 00-.495-.131 1 1 0 00-.502.131.973.973 0 00-.368.392 1.31 1.31 0 00-.14.641c0 .257.046.473.14.648.095.17.217.299.368.386.15.087.316.131.495.131zm4.206.544c-.344 0-.618-.08-.82-.241-.203-.165-.304-.457-.304-.875v-1.688h-.6v-.613h.6l.092-.869h.657v.869h.99v.613h-.99v1.688c0 .188.04.319.12.393.085.068.229.103.431.103h.403v.62h-.58zm2.857.083c-.297 0-.542-.049-.735-.145a1.014 1.014 0 01-.431-.379 1.018 1.018 0 01-.141-.524c0-.33.131-.592.395-.785.264-.193.641-.289 1.131-.289h.919v-.062c0-.267-.076-.467-.226-.6a.818.818 0 00-.573-.2.977.977 0 00-.544.152.61.61 0 00-.276.434h-.749a1.13 1.13 0 01.255-.634c.15-.179.339-.315.565-.406a1.93 1.93 0 01.756-.145c.49 0 .87.126 1.138.379.269.248.403.588.403 1.02v2.101h-.65l-.064-.586a1.31 1.31 0 01-.43.476c-.19.128-.437.193-.743.193zm.148-.593a.89.89 0 00.51-.138.941.941 0 00.324-.379c.08-.156.13-.328.149-.516h-.834c-.297 0-.51.05-.636.151a.472.472 0 00-.184.379c0 .156.059.28.177.372.122.088.287.131.494.131zm2.895.51v-4.961h.75v4.961h-.75zm4.072 0v-4.823h1.704c.391 0 .711.064.961.193.254.128.443.303.565.523.123.216.184.458.184.724 0 .299-.082.57-.247.813-.161.243-.413.418-.757.524l1.053 2.046h-.869l-.961-1.943h-.883v1.943h-.75zm.75-2.494h.911c.34 0 .587-.081.742-.241a.848.848 0 00.241-.627c0-.258-.078-.462-.234-.614-.155-.156-.407-.234-.756-.234h-.904v1.716zm5.23 2.577c-.344 0-.65-.074-.918-.221a1.63 1.63 0 01-.622-.627 1.851 1.851 0 01-.226-.93c0-.358.073-.673.219-.944.15-.271.358-.482.622-.634.268-.151.579-.227.932-.227.344 0 .644.076.898.227.254.147.452.345.594.593a1.63 1.63 0 01.205.971c0 .051-.003.108-.007.173h-2.728c.023.33.134.583.332.757.202.17.436.255.699.255a.96.96 0 00.53-.137.88.88 0 00.326-.386h.749c-.094.321-.283.59-.566.806-.278.216-.624.324-1.039.324zm0-2.984c-.249 0-.471.074-.664.221-.193.142-.311.358-.353.647h1.979a.865.865 0 00-.29-.633.982.982 0 00-.672-.235zm3.615 2.901l-1.314-3.417h.784l.975 2.721.976-2.721h.777l-1.307 3.417h-.891zm4.557.083c-.344 0-.651-.074-.919-.221a1.636 1.636 0 01-.622-.627 1.851 1.851 0 01-.226-.93c0-.358.073-.673.219-.944.151-.271.358-.482.622-.634.268-.151.579-.227.933-.227.344 0 .643.076.897.227.255.147.453.345.594.593a1.63 1.63 0 01.205.971c0 .051-.002.108-.007.173h-2.728c.023.33.134.583.332.757.203.17.436.255.7.255a.962.962 0 00.53-.137.885.885 0 00.325-.386h.749c-.094.321-.283.59-.565.806-.278.216-.625.324-1.039.324zm0-2.984c-.25 0-.471.074-.665.221-.193.142-.311.358-.353.647h1.979a.861.861 0 00-.29-.633.981.981 0 00-.671-.235zm2.77 2.901v-3.417h.664l.057.599c.108-.211.266-.377.473-.496.212-.124.455-.186.728-.186.424 0 .757.128.997.386.245.257.367.64.367 1.15v1.964h-.742v-1.888c0-.661-.278-.992-.834-.992a.915.915 0 00-.692.289c-.179.193-.269.469-.269.827v1.764h-.749zm5.745.083c-.424 0-.759-.129-1.004-.386-.24-.257-.36-.641-.36-1.151v-1.963h.749v1.887c0 .662.278.993.834.993a.893.893 0 00.685-.29c.179-.193.269-.468.269-.827v-1.763h.749v3.417h-.664l-.057-.599a1.216 1.216 0 01-.48.503 1.426 1.426 0 01-.721.179zm4.798 0c-.344 0-.651-.074-.919-.221a1.636 1.636 0 01-.622-.627 1.851 1.851 0 01-.226-.93c0-.358.073-.673.219-.944.151-.271.358-.482.622-.634.268-.151.579-.227.933-.227.344 0 .643.076.897.227.255.147.453.345.594.593a1.63 1.63 0 01.205.971c0 .051-.003.108-.007.173h-2.728c.023.33.134.583.332.757.202.17.436.255.7.255a.962.962 0 00.53-.137.885.885 0 00.325-.386h.749c-.094.321-.283.59-.566.806-.278.216-.624.324-1.038.324zm0-2.984c-.25 0-.472.074-.665.221-.193.142-.311.358-.353.647h1.979a.861.861 0 00-.29-.633.981.981 0 00-.671-.235z" fill="#959595"/><path d="M77.466 66.364c0 2.411-2.05 4.367-4.578 4.367-2.528 0-4.578-1.956-4.578-4.367 0-2.412 2.05-4.367 4.578-4.367 2.528 0 4.578 1.955 4.578 4.367z" fill="#F85673"/><path d="M93.488 66.582a4.581 4.581 0 01-4.578 4.585 4.581 4.581 0 01-4.577-4.585 4.581 4.581 0 014.577-4.585 4.581 4.581 0 014.578 4.585z" fill="#F4B81B"/><path d="M109.51 66.582a4.582 4.582 0 01-4.578 4.585 4.582 4.582 0 01-4.578-4.585 4.582 4.582 0 014.578-4.585 4.582 4.582 0 014.578 4.585z" fill="#3DE64E"/><defs><linearGradient id="paint0_linear_0_4552" x1="214.241" y1="182.258" x2="247.006" y2="173.503" gradientUnits="userSpaceOnUse"><stop stop-color="#fff"/><stop offset="1" stop-color="#fff" stop-opacity="0"/></linearGradient><linearGradient id="paint1_linear_0_4552" x1="216.141" y1="190.875" x2="249.518" y2="182.278" gradientUnits="userSpaceOnUse"><stop stop-color="#fff"/><stop offset="1" stop-color="#fff" stop-opacity="0"/></linearGradient><filter id="filter0_d_0_4552" x="0" y=".076" width="392.973" height="371.437" filterUnits="userSpaceOnUse" color-interpolation-filters="sRGB"><feFlood flood-opacity="0" result="BackgroundImageFix"/><feColorMatrix in="SourceAlpha" values="0 0 0 0 0 0 0 0 0 0 0 0 0 0 0 0 0 0 127 0" result="hardAlpha"/><feOffset/><feGaussianBlur stdDeviation="25"/><feComposite in2="hardAlpha" operator="out"/><feColorMatrix values="0 0 0 0 0 0 0 0 0 0 0 0 0 0 0 0 0 0 0.05 0"/><feBlend in2="BackgroundImageFix" result="effect1_dropShadow_0_4552"/><feBlend in="SourceGraphic" in2="effect1_dropShadow_0_4552" result="shape"/></filter></defs></svg>