<svg width="412" height="298" fill="none" xmlns="http://www.w3.org/2000/svg"><g filter="url(#filter0_d_0_4871)"><path d="M50 58.684C50 53.888 53.88 50 58.667 50h294.666c4.787 0 8.667 3.888 8.667 8.684v180.632c0 4.796-3.88 8.684-8.667 8.684H58.667C53.88 248 50 244.112 50 239.316V58.684z" fill="#fff"/></g><path d="M314.238 215c-.435 0-.819-.072-1.153-.215a1.9 1.9 0 01-.788-.63c-.192-.277-.291-.611-.297-1.003h1.145c.011.271.11.5.296.688.192.182.455.273.789.273.288 0 .517-.066.686-.199a.67.67 0 00.255-.547c0-.237-.077-.422-.229-.555a1.669 1.669 0 00-.594-.323l-.797-.265c-.457-.155-.808-.354-1.051-.597-.237-.243-.356-.566-.356-.97-.005-.342.076-.635.246-.878.175-.249.413-.439.712-.572.3-.138.644-.207 1.034-.207.396 0 .744.069 1.043.207.305.138.543.332.712.58.175.249.269.544.28.887h-1.161a.767.767 0 00-.246-.539c-.153-.16-.368-.24-.645-.24a.946.946 0 00-.601.174c-.159.116-.238.287-.238.514 0 .193.062.348.187.464.124.11.294.204.508.282.215.077.461.16.738.248.294.1.562.216.805.348.243.133.438.31.585.531.147.215.221.494.221.837 0 .304-.08.585-.238.845a1.72 1.72 0 01-.703.63c-.311.155-.693.232-1.145.232zm5.321 0c-.435 0-.828-.083-1.178-.249a1.995 1.995 0 01-.839-.77c-.204-.343-.306-.777-.306-1.301v-3.581h1.086v3.589c0 .453.11.79.33 1.011.226.221.537.331.933.331.39 0 .698-.11.924-.331.226-.221.339-.558.339-1.011v-3.589h1.085v3.581c0 .524-.107.958-.322 1.301a2.025 2.025 0 01-.865.77 2.776 2.776 0 01-1.187.249zm3.482-.099v-5.802h1.085l2.789 4.086v-4.086H328v5.802h-1.085l-2.789-4.078v4.078h-1.085zm-44.922.099c-.412 0-.776-.072-1.092-.215a1.823 1.823 0 01-.746-.63c-.182-.277-.276-.611-.281-1.003h1.083c.011.271.105.5.281.688.182.182.431.273.747.273.272 0 .489-.066.65-.199.16-.138.24-.32.24-.547 0-.237-.072-.422-.216-.555a1.56 1.56 0 00-.562-.323l-.754-.265c-.434-.155-.765-.354-.995-.597-.225-.243-.338-.566-.338-.97-.005-.342.073-.635.233-.878.166-.249.391-.439.674-.572.284-.138.61-.207.979-.207.375 0 .704.069.987.207.289.138.514.332.674.58.166.249.254.544.265.887h-1.099a.786.786 0 00-.233-.539c-.144-.16-.348-.24-.61-.24a.869.869 0 00-.57.174c-.149.116-.224.287-.224.514 0 .193.059.348.176.464.118.11.279.204.482.282.203.077.436.16.698.248.278.1.532.216.762.348.23.133.415.31.554.531.139.215.209.494.209.837 0 .304-.075.585-.225.845-.15.26-.372.47-.666.63-.294.155-.655.232-1.083.232zm2.509-.099l2.054-5.802h1.156l2.054 5.802H284.8l-.449-1.343h-2.191l-.457 1.343h-1.075zm1.813-2.172h1.629l-.818-2.411-.811 2.411zm4.887 2.172v-4.948h-1.637v-.854H290v.854h-1.645v4.948h-1.027zM243 215v-6h3.819v.883h-2.737v1.68h2.213v.866h-2.213V215H243zm4.654 0v-6h2.172c.473 0 .861.083 1.166.249.309.16.54.38.692.66.153.274.229.58.229.917 0 .365-.096.7-.288 1.003-.186.302-.479.522-.878.66l1.225 2.511h-1.242l-1.099-2.366h-.895V215h-1.082zm1.082-3.171h1.022c.36 0 .625-.089.794-.266.169-.177.254-.412.254-.703 0-.286-.085-.514-.254-.686-.163-.171-.431-.257-.803-.257h-1.013v1.912zm4.183 3.171v-6H254v6h-1.081zm-47.082-.101v-5.031H204V209h4.836v.868h-1.846v5.031h-1.153zm3.852 0V209h1.153v2.452h2.828V209h1.152v5.899h-1.152v-2.57h-2.828v2.57h-1.153zm8.79.101c-.463 0-.88-.084-1.252-.253a2.08 2.08 0 01-.891-.784c-.217-.348-.325-.789-.325-1.323V209h1.153v3.649c0 .461.117.803.351 1.028.24.225.57.337.991.337.414 0 .741-.112.981-.337.24-.225.36-.567.36-1.028V209H221v3.64c0 .534-.114.975-.342 1.323-.228.349-.534.61-.919.784a3.053 3.053 0 01-1.26.253zm-53.902 0L163 209h1.168l1.074 4.774 1.262-4.774h1.202l1.227 4.774 1.074-4.774h1.177l-1.62 6h-1.296l-1.185-4.449-1.219 4.449h-1.287zm7.397 0v-6h3.896v.883h-2.805v1.646h2.549v.857h-2.549v1.731h2.805V215h-3.896zm4.928 0v-6h2.038c.699 0 1.273.126 1.722.377.454.246.79.594 1.006 1.046.221.446.332.971.332 1.577s-.111 1.134-.332 1.586a2.349 2.349 0 01-1.006 1.045c-.449.246-1.023.369-1.722.369h-2.038zm1.092-.943h.895c.5 0 .895-.08 1.185-.24.289-.166.497-.4.622-.703.125-.308.187-.68.187-1.114 0-.429-.062-.797-.187-1.106a1.412 1.412 0 00-.622-.711c-.29-.166-.685-.249-1.185-.249h-.895v4.123zm-51.149.842v-5.031H125V209h4.856v.868h-1.854v5.031h-1.157zm6.309.101a3.01 3.01 0 01-1.256-.253 2.088 2.088 0 01-.896-.784c-.217-.348-.325-.789-.325-1.323V209h1.157v3.649c0 .461.118.803.353 1.028.241.225.573.337.995.337.416 0 .744-.112.985-.337.241-.225.362-.567.362-1.028V209h1.157v3.64c0 .534-.114.975-.343 1.323-.229.349-.537.61-.923.784a3.075 3.075 0 01-1.266.253zm3.714-.101V209H141v.868h-2.975v1.618h2.704v.843h-2.704v1.702H141v.868h-4.132zM84 214.901v-5.802h1.279l1.875 3.68 1.85-3.68h1.28v5.802h-1.077v-4.003l-1.64 3.174h-.85l-1.64-3.174v4.003H84zm10.185.099c-.59 0-1.105-.127-1.548-.381a2.761 2.761 0 01-1.035-1.053c-.246-.453-.37-.975-.37-1.566 0-.591.124-1.11.37-1.558a2.748 2.748 0 011.035-1.061c.443-.254.959-.381 1.548-.381.583 0 1.096.127 1.539.381.443.254.788.608 1.035 1.061.246.448.37.967.37 1.558 0 .591-.124 1.113-.37 1.566a2.684 2.684 0 01-1.035 1.053c-.443.254-.956.381-1.54.381zm0-.953c.56 0 1.006-.182 1.337-.547.337-.365.505-.865.505-1.5s-.168-1.135-.505-1.5c-.33-.365-.776-.547-1.337-.547-.561 0-1.01.182-1.346.547-.337.365-.505.865-.505 1.5s.168 1.135.505 1.5c.336.365.785.547 1.346.547zm3.895.854v-5.802h1.076l2.767 4.086v-4.086H103v5.802h-1.077l-2.767-4.078v4.078h-1.077z" fill="#AAA7A7"/><path d="M278 124.402c0-2.431 2.015-4.402 4.5-4.402s4.5 1.971 4.5 4.402v72.196c0 2.431-2.015 4.402-4.5 4.402s-4.5-1.971-4.5-4.402v-72.196zm38 0c0-2.431 1.791-4.402 4-4.402s4 1.971 4 4.402v72.196c0 2.431-1.791 4.402-4 4.402s-4-1.971-4-4.402v-72.196z" fill="#EDEDED"/><path d="M244 124.402c0-2.431 2.015-4.402 4.5-4.402s4.5 1.971 4.5 4.402v72.196c0 2.431-2.015 4.402-4.5 4.402s-4.5-1.971-4.5-4.402v-72.196z" fill="#F7D4BE"/><path d="M208 161.4c0-2.43 1.791-4.4 4-4.4s4 1.97 4 4.4v35.2c0 2.43-1.791 4.4-4 4.4s-4-1.97-4-4.4v-35.2z" fill="#9ED7A3"/><path d="M208 138.4c0-2.43 1.791-4.4 4-4.4s4 1.97 4 4.4v13.2c0 2.43-1.791 4.4-4 4.4s-4-1.97-4-4.4v-13.2z" fill="#E0BFF2"/><path d="M208 124.643c0-2.564 1.791-4.643 4-4.643s4 2.079 4 4.643v3.714c0 2.564-1.791 4.643-4 4.643s-4-2.079-4-4.643v-3.714z" fill="#F7D4BE"/><path d="M168 161.4c0-2.43 1.791-4.4 4-4.4s4 1.97 4 4.4v35.2c0 2.43-1.791 4.4-4 4.4s-4-1.97-4-4.4v-35.2z" fill="#9ED7A3"/><path d="M168 133.355c0-2.405 1.791-4.355 4-4.355s4 1.95 4 4.355v18.29c0 2.405-1.791 4.355-4 4.355s-4-1.95-4-4.355v-18.29z" fill="#E0BFF2"/><path d="M129 161.4c0-2.43 1.791-4.4 4-4.4s4 1.97 4 4.4v35.2c0 2.43-1.791 4.4-4 4.4s-4-1.97-4-4.4v-35.2z" fill="#9ED7A3"/><path d="M129 138.4c0-2.43 1.791-4.4 4-4.4s4 1.97 4 4.4v13.2c0 2.43-1.791 4.4-4 4.4s-4-1.97-4-4.4v-13.2z" fill="#E0BFF2"/><path d="M129 124.643c0-2.564 1.791-4.643 4-4.643s4 2.079 4 4.643v3.714c0 2.564-1.791 4.643-4 4.643s-4-2.079-4-4.643v-3.714z" fill="#F7D4BE"/><path d="M88 149.375c0-2.416 2.015-4.375 4.5-4.375s4.5 1.959 4.5 4.375v47.25c0 2.416-2.015 4.375-4.5 4.375s-4.5-1.959-4.5-4.375v-47.25z" fill="#9ED7A3"/><path d="M88 126.2c0-2.32 2.015-4.2 4.5-4.2s4.5 1.88 4.5 4.2v12.6c0 2.32-2.015 4.2-4.5 4.2s-4.5-1.88-4.5-4.2v-12.6z" fill="#E0BFF2"/><path d="M84 97.933V84.22h4.65c1.473 0 2.75.288 3.83.865 1.092.564 1.937 1.362 2.534 2.392.597 1.031.896 2.228.896 3.59 0 1.35-.299 2.546-.896 3.588-.597 1.031-1.442 1.835-2.534 2.411-1.08.577-2.357.866-3.83.866H84zM86.25 96h2.439c1.003 0 1.874-.203 2.61-.607a4.24 4.24 0 001.734-1.712c.407-.736.61-1.607.61-2.614 0-1.006-.21-1.87-.629-2.595a4.271 4.271 0 00-1.715-1.711c-.736-.405-1.607-.608-2.61-.608h-2.44V96zm14.659 2.153c-.699 0-1.315-.116-1.849-.35-.52-.245-.927-.576-1.22-.993-.291-.43-.438-.933-.438-1.51 0-.54.121-1.024.362-1.453.255-.43.642-.792 1.163-1.086.52-.295 1.175-.503 1.963-.626l3.582-.57v1.638l-3.163.533c-.572.098-.991.276-1.258.534-.267.245-.4.564-.4.957 0 .38.146.693.438.939.305.233.693.35 1.163.35.584 0 1.092-.123 1.524-.369.445-.245.788-.57 1.029-.975a2.7 2.7 0 00.362-1.38v-2.559c0-.49-.19-.89-.571-1.196-.369-.32-.864-.479-1.487-.479-.571 0-1.073.147-1.505.442a2.58 2.58 0 00-.934 1.104l-1.791-.865c.19-.49.502-.92.934-1.288a4.68 4.68 0 011.505-.883 5.452 5.452 0 011.848-.313c.813 0 1.531.147 2.154.441.635.295 1.124.706 1.467 1.233.356.516.533 1.117.533 1.804v6.7h-2.058v-1.804l.439.055a3.741 3.741 0 01-.934 1.05 4.061 4.061 0 01-1.277.68c-.47.16-.997.24-1.581.24zm7.929-.22v-9.958h2.153v9.958h-2.153zm0-11.32v-2.392h2.153v2.392h-2.153zm4.671 11.32V84h2.153v13.933h-2.153zm5.586 4.067c-.255 0-.509-.025-.763-.074a2.759 2.759 0 01-.667-.184v-1.785c.153.037.337.068.553.092.216.037.426.055.629.055.597 0 1.035-.129 1.315-.386.292-.246.552-.632.781-1.16l.686-1.509-.038 1.748-4.459-10.822h2.306l3.296 8.301h-.781l3.277-8.3h2.325l-4.554 11.042a5.827 5.827 0 01-.915 1.546 3.68 3.68 0 01-1.276 1.049c-.483.258-1.055.387-1.715.387zm12.217-4.067l4.992-13.712h2.783l4.992 13.712h-2.401l-1.086-3.074h-5.774l-1.105 3.074h-2.401zm4.154-5.007h4.44l-2.515-7.177h.628l-2.553 7.177zm14.613 5.227c-1.029 0-1.944-.227-2.744-.68a5.328 5.328 0 01-1.887-1.878c-.457-.785-.686-1.675-.686-2.669 0-.981.229-1.865.686-2.65a4.862 4.862 0 011.887-1.84c.8-.454 1.715-.681 2.744-.681.698 0 1.353.122 1.962.368.61.233 1.137.558 1.582.975a3.85 3.85 0 011.01 1.454l-1.886.847a2.644 2.644 0 00-1.049-1.233 2.813 2.813 0 00-1.619-.479c-.585 0-1.112.141-1.582.423a2.88 2.88 0 00-1.086 1.16c-.267.49-.4 1.049-.4 1.675 0 .626.133 1.19.4 1.693.267.49.629.877 1.086 1.16.47.282.997.423 1.582.423.622 0 1.162-.154 1.619-.46a2.9 2.9 0 001.049-1.27l1.886.865a3.877 3.877 0 01-.991 1.435 5.025 5.025 0 01-1.581.994 5.262 5.262 0 01-1.982.368zm11.118-.11c-1.08 0-1.919-.294-2.516-.884-.597-.588-.895-1.417-.895-2.484v-4.822h-1.811v-1.877h.286c.483 0 .858-.135 1.125-.405.266-.27.4-.638.4-1.105v-.773h2.153v2.282h2.344v1.878h-2.344v4.73c0 .343.057.638.171.883.115.233.299.417.553.552.254.123.584.184.991.184.102 0 .216-.006.343-.018l.362-.037v1.785c-.178.025-.375.05-.591.074a5.11 5.11 0 01-.571.037zm3.263-.11v-9.958h2.154v9.958h-2.154zm0-11.32v-2.392h2.154v2.392h-2.154zm7.663 11.32l-4.04-9.958h2.344l3.106 8.117h-.857l3.106-8.117h2.362l-4.058 9.958h-1.963zm7.485 0v-9.958h2.153v9.958h-2.153zm0-11.32v-2.392h2.153v2.392h-2.153zm9.13 11.43c-1.08 0-1.918-.294-2.515-.884-.598-.588-.896-1.417-.896-2.484v-4.822h-1.81v-1.877h.285c.483 0 .858-.135 1.125-.405s.4-.638.4-1.105v-.773h2.153v2.282h2.344v1.878h-2.344v4.73c0 .343.057.638.172.883.114.233.298.417.552.552.254.123.585.184.991.184.102 0 .216-.006.343-.018l.362-.037v1.785c-.178.025-.374.05-.59.074a5.127 5.127 0 01-.572.037zm3.264-.11v-9.958h2.153v9.958h-2.153zm0-11.32v-2.392h2.153v2.392h-2.153zm9.511 11.54c-1.029 0-1.944-.227-2.744-.68a5.03 5.03 0 01-1.849-1.878c-.444-.797-.667-1.687-.667-2.669 0-1.006.223-1.895.667-2.668a5.025 5.025 0 011.83-1.822c.762-.454 1.626-.681 2.591-.681.775 0 1.467.128 2.077.386.61.258 1.124.614 1.544 1.068.419.441.736.95.952 1.527a4.94 4.94 0 01.343 1.84c0 .16-.006.326-.019.498a2.652 2.652 0 01-.076.478h-8.213v-1.656h6.994l-1.029.754c.127-.6.082-1.135-.134-1.6a2.393 2.393 0 00-.953-1.124c-.419-.282-.914-.423-1.486-.423a2.78 2.78 0 00-1.524.423c-.445.27-.788.663-1.029 1.178-.242.503-.337 1.117-.286 1.84-.064.676.032 1.265.286 1.768.266.503.635.895 1.105 1.178a3.187 3.187 0 001.639.423c.622 0 1.149-.135 1.581-.405.445-.27.794-.62 1.048-1.05l1.753.83c-.203.465-.52.889-.952 1.27-.42.367-.928.662-1.525.883a5.686 5.686 0 01-1.924.312zm10.657 0c-1.054 0-1.982-.251-2.782-.754a4.035 4.035 0 01-1.658-2.025l1.658-.754a3.44 3.44 0 001.143 1.343 2.888 2.888 0 001.639.497c.508 0 .921-.11 1.239-.331.317-.221.476-.522.476-.902 0-.245-.07-.442-.21-.589a1.54 1.54 0 00-.533-.387 2.94 2.94 0 00-.629-.22l-1.62-.442c-.889-.245-1.556-.614-2.001-1.104a2.602 2.602 0 01-.647-1.749c0-.601.158-1.123.476-1.564.318-.454.756-.804 1.315-1.05.559-.245 1.188-.367 1.886-.367.94 0 1.779.227 2.516.68a3.62 3.62 0 011.562 1.86l-1.658.754a2.463 2.463 0 00-.972-1.141 2.62 2.62 0 00-1.467-.423c-.47 0-.845.11-1.124.331a.982.982 0 00-.419.828c0 .233.063.43.19.59.127.146.292.27.496.367.203.086.413.16.629.221l1.676.479c.852.233 1.506.6 1.963 1.104.457.49.686 1.08.686 1.767a2.59 2.59 0 01-.495 1.564c-.318.442-.763.792-1.334 1.05-.572.245-1.239.367-2.001.367z" fill="#000"/><defs><filter id="filter0_d_0_4871" x="0" y="0" width="412" height="298" filterUnits="userSpaceOnUse" color-interpolation-filters="sRGB"><feFlood flood-opacity="0" result="BackgroundImageFix"/><feColorMatrix in="SourceAlpha" values="0 0 0 0 0 0 0 0 0 0 0 0 0 0 0 0 0 0 127 0" result="hardAlpha"/><feOffset/><feGaussianBlur stdDeviation="25"/><feComposite in2="hardAlpha" operator="out"/><feColorMatrix values="0 0 0 0 0 0 0 0 0 0 0 0 0 0 0 0 0 0 0.1 0"/><feBlend in2="BackgroundImageFix" result="effect1_dropShadow_0_4871"/><feBlend in="SourceGraphic" in2="effect1_dropShadow_0_4871" result="shape"/></filter></defs></svg>