<svg width="492" height="341" fill="none" xmlns="http://www.w3.org/2000/svg"><path d="M112.215 237.907l-.776-.302c15.539-39.832 56.248-68.158 99.007-68.904 11.447-.196 22.965 1.44 34.108 3.024 5.156.734 10.49 1.492 15.745 2.059 13.096 1.409 32.416 2.37 48.907-5.557 16.356-7.862 26.573-24.017 24.847-39.289l.834-.094c1.763 15.62-8.646 32.124-25.314 40.134-16.669 8.01-36.159 7.057-49.359 5.627-5.268-.566-10.61-1.325-15.775-2.061-11.109-1.58-22.594-3.218-33.975-3.016-42.433.74-82.829 28.856-98.249 68.379zM434.219 224.4l-.73-.404c5.82-10.526 11.839-21.41 13.796-33.514 1.693-10.453-.079-24.618-10.123-33.031-7.614-6.378-17.974-7.868-27.995-9.31l-2.143-.311c-10.617-1.557-22.359-4.333-28.943-13.102l.665-.5c6.405 8.527 17.95 11.245 28.399 12.777l2.141.31c10.136 1.459 20.616 2.968 28.411 9.496 10.312 8.638 12.14 23.126 10.422 33.804-1.99 12.246-8.045 23.197-13.9 33.785zM61.19 262.571c-5.985 0-12.534-.982-18.75-3.91-10.267-4.836-17.318-14.443-17.962-24.475-.294-4.585.69-9.171 1.642-13.581.171-.795.342-1.589.505-2.381 1.06-5.136 1.823-10.582.264-15.632a24.705 24.705 0 01-2.874 2.43c-3.291 2.376-7.82 3.437-11.255 2.643-2.233-.515-3.936-1.768-4.93-3.62-1.123-2.097-.973-4.646.417-6.996 1.645-2.78 4.604-4.598 7.537-4.629h.104c5.228 0 9.47 4.138 11.335 8.611 3.73-4.144 6.082-9.618 6.366-15.152.366-7.182-2.743-14.613-8.117-19.394l.554-.626a25.133 25.133 0 018.406 17.705 25.115 25.115 0 01-6.874 18.354c.046.128.088.257.128.384 1.632 5.232.854 10.822-.232 16.081-.162.794-.333 1.59-.506 2.386-.94 4.377-1.912 8.882-1.626 13.355.625 9.731 7.489 19.065 17.485 23.761 10.735 5.057 22.511 4.19 30.499 2.572 10.259-2.084 20.01-6.351 29.443-10.484l.333.763c-9.47 4.152-19.263 8.444-29.612 10.538a62.336 62.336 0 01-12.28 1.297zm-45.312-69.307h-.096c-2.651.029-5.33 1.684-6.82 4.221-1.236 2.084-1.38 4.342-.396 6.176.875 1.636 2.39 2.743 4.377 3.202 3.227.746 7.48-.263 10.59-2.502a23.215 23.215 0 003.054-2.645c-1.678-4.341-5.717-8.452-10.71-8.452z" fill="#fff"/><path d="M209.7 338.365a6.334 6.334 0 10-4.74-11.748 6.334 6.334 0 004.74 11.748z" fill="#FF5C33"/><path d="M25.305 84.651a4.525 4.525 0 10-8.813-2.06 4.525 4.525 0 008.813 2.06zM488.15 220.948a4.072 4.072 0 10-3.115-7.526 4.072 4.072 0 003.115 7.526z" fill="#007BFF"/><path d="M455.7 296.823l-5.76-5.76-5.759 5.76 5.759 5.76 5.76-5.76zM269.401 15.833l-5.759-5.76-5.76 5.76 5.76 5.76 5.759-5.76z" fill="#BCD5FF"/><path d="M376.862 153.91c-.461 8.337-5.265 37.457-11.464 58.011-2.026 6.751-4.208 12.579-6.443 16.444a20.66 20.66 0 01-.715 1.186l-17.575-1.43a869.794 869.794 0 003.791-9.38 499.128 499.128 0 006.399-16.987c5.601-15.812 10.58-33.043 13.042-50.871l12.965 3.027z" fill="#FF5C33"/><path opacity=".3" d="M365.396 211.921c-2.026 6.751-4.209 12.579-6.443 16.443l-14.499-9.619c2.153-5.44 4.317-11.114 6.399-16.987 5.809 2.19 10.732 5.492 14.543 10.163z" fill="#4A191B"/><path d="M420.945 63.056L400.504 173.14l-113.048-20.983 7.243-39.008a20.193 20.193 0 01-11.003 1.013c-10.776-2.001-17.926-12.121-15.979-22.611 1.947-10.49 12.254-17.367 23.03-15.366a20.085 20.085 0 019.907 4.896l7.243-39.009 39.871 7.404a18.836 18.836 0 01-1.019-10.422c1.947-10.482 12.264-17.364 23.032-15.365 10.768 1.998 17.925 12.128 15.976 22.608a18.882 18.882 0 01-4.683 9.355l39.871 7.404z" fill="#007BFF"/><path d="M349.506 64.098c7.46 1.352 14.661-1.924 21.627-5.096 1.514-.688 3.077-1.401 4.605-2.045a66.184 66.184 0 016.146-2.25c.161-.208.309-.416.463-.612a67.43 67.43 0 00-6.787 2.445 175.447 175.447 0 00-4.614 2.05c-6.904 3.144-14.04 6.394-21.358 5.064-8.484-1.543-14.355-8.996-16.804-16.969l-.503-.094a29.26 29.26 0 004.586 9.238c3.393 4.525 7.766 7.383 12.639 8.269zm50.896 38.614c-5.788.54-11.772 1.097-17.108 3.206-12.318 4.869-20.816 18.605-20.666 33.402.1 9.671 3.543 19.561 9.876 28.62l.644.118c-6.441-9.085-9.968-19.027-10.068-28.745-.148-14.613 8.231-28.172 20.381-32.974 5.275-2.084 11.228-2.641 16.983-3.177 4.538-.416 9.159-.858 13.444-2.063l.088-.471c-4.219 1.209-8.825 1.64-13.574 2.084zm-121.165 10.07c6.278-5.386 13.836-8.238 21.052-7.606 4.339.379 8.573 1.957 12.666 3.481 5.107 1.905 10.385 3.872 15.889 3.497 8.09-.556 14.974-6.057 20.508-10.476l52.734-42.126-.59-.109-52.421 41.881c-6.732 5.38-12.906 9.874-20.256 10.378-5.392.371-10.63-1.582-15.701-3.468-4.121-1.537-8.383-3.127-12.785-3.51-7.389-.644-15.139 2.292-21.542 7.853.144.071.302.138.446.205zm33.319 33.253c-6.841-4.133-14.743-6.399-22.72-6.718l-.083.449c7.92.306 15.774 2.553 22.567 6.657a46.934 46.934 0 0113.838 12.923l.646.121a47.426 47.426 0 00-14.248-13.432z" fill="#fff"/><path d="M252.816 291.26l-1.94 6.788-13.805 8.252 25.527 5.647 1.488-19.785-11.27-.902z" fill="#001F40"/><path d="M251.25 297.808l-.754.501 3.618 5.451.754-.5-3.618-5.452z" fill="#fff"/><path d="M339.005 253.533s-3.358 6.028-11.022 10.271c-6.028 3.335-14.716 5.584-26.536 2.919l-8.062-2.064-3.512-.894-4.169-1.069-10.213-2.606-.055.209-8.996 34.489-2.543-.298-11.62-1.376-3.629-.433 3.665-34.825 1.159-11.033 55.078-6.217 16.181-1.828.834-.1 2.995 3.314 6.824 7.556 3.621 3.985z" fill="#FFB900"/><path d="M207.213 267.4l-6.506 2.748-15.084-5.578 11.61 23.424 16.345-11.252-6.365-9.342z" fill="#001F40"/><path d="M200.28 270.024l-1.977 6.237.862.274 1.977-6.237-.862-.274z" fill="#fff"/><path d="M336.137 248.328s-.235.453-.733 1.213a37.001 37.001 0 01-10.597 10.472c-6.897 4.479-17.158 7.846-31.422 4.65a59.865 59.865 0 01-3.512-.894c-.46-.127-.931-.273-1.403-.417l-2.759-.652-10.263-2.408-19.547-4.585-3.577 2.145-40.472 24.261-1.719-2.997-5.982-10.422-1.647-2.87 41.178-28.318a19.793 19.793 0 018.834-3.335 19.362 19.362 0 014.514-.018l35.668 3.929 12.216-1.839 14.255-2.145 5.573 4.68 3.837 3.214 7.558 6.336z" fill="#FFB900"/><path d="M311.082 267.94c-.592 0-1.192-.011-1.799-.033-8.256-.294-50.331-11.135-53.336-11.91l-12.884 7.649-.277-.467 13.077-7.766.111.029c.448.115 45.007 11.625 53.328 11.923 8.279.289 15.215-1.459 20.038-5.076l.326.436c-4.565 3.425-10.97 5.215-18.584 5.215z" fill="#001F40"/><path opacity=".1" d="M339.006 253.533s-3.358 6.028-11.022 10.272c-8.477-7.108-16.167-16.297-23.07-27.568l14.255-2.145 5.573 4.68.834-.1 2.995 3.314 7.558 6.342s-.235.453-.734 1.213l3.611 3.992z" fill="#001F40"/><path d="M355.862 200.703l-5.842 13.842-11.014-4.525 1.159-3.339 2.987-8.579 7.141 3.71 5.569-1.109z" fill="#FFBA9A"/><path d="M350.293 201.812l-.209 1.566a17.508 17.508 0 01-9.919 3.303l2.987-8.579 7.141 3.71z" fill="#001F40"/><path d="M344.148 185.256s-7.156 12.206-3.929 15.572c3.226 3.367 11.924 3.367 11.924 3.367l8.129-9.82-5.892-6.878-10.232-2.241z" fill="#FFBA9A"/><path d="M342.833 189.431c-2.919 1.28-5.251 2.689-4.586 3.694.907 1.357 2.71 2.111 2.71 2.111l1.876-5.805z" fill="#FFBA9A"/><path d="M341.117 179.253c.14 4.932.894 8.755 8.598 8.976.834.527 1.876 5.579 1.057 6.484l3.695 9.277c6.787-4.456 11.992-10.784 6.335-16.366 0 0-1.918-7.779-8.975-7.087-6.937.672-10.71-1.284-10.71-1.284z" fill="#001F40"/><path d="M353.77 197.077c1.264-1.384 1.417-3.302.341-4.286-1.076-.983-2.973-.658-4.237.725-1.264 1.384-1.417 3.302-.341 4.285 1.076.984 2.973.659 4.237-.724z" fill="#FFBA9A"/><path d="M351.529 196.235l-.677-.046a2.877 2.877 0 011.3-2.224 1.515 1.515 0 011.447-.098l-.288.613a.83.83 0 00-.815.07 2.234 2.234 0 00-.967 1.685z" fill="#001F40"/><path opacity=".2" d="M347.664 195.81a2.564 2.564 0 10-4.99-1.184 2.564 2.564 0 004.99 1.184z" fill="#FF5C33"/><path d="M309.277 228.427l19.84-21.404a4.236 4.236 0 012.869-1.344c7.795-.417 11.149.992 16.897 3.376a20.112 20.112 0 016.641 4.49 14.692 14.692 0 011.984 18.032l-15.553 25.035a4.769 4.769 0 01-3.45 2.213 4.753 4.753 0 01-3.891-1.288l-24.839-23.24a4.4 4.4 0 01-.498-5.87z" fill="#FF5C33"/><path d="M337.911 137.043a4.566 4.566 0 00-.417.186c-.298-1.12-2.572-1.968-4.154-.102.277-1.495-2.151-1.981-4.073-1.018-5.609 2.612-9.761 9.797-12.22 19.195l15.632.49c1.434-6.082 3.792-11.476 7.364-15.41 1.445-1.567-.16-4.12-2.132-3.341z" fill="#FFBA9A"/><path d="M320.453 217.407l18.698-5.646c-5.259-5.465-11.428-34.863-6.461-55.967l-14.203-5.513c-7.687 20.973-5.576 47.369 1.966 67.126z" fill="#FF5C33"/><path d="M60.373 241.93l.425 3.602 43.188 22.873 41.555-5.892 30.815-41.508-2.082-3.354-45.849 29.367-68.052-5.088z" fill="#BCD5FF"/><path d="M142.656 225.903l-1.256 1.267-36.835 37.052-.823.823-43.367-23.115 37.14-38.019 42.951 20.925 2.19 1.067z" fill="#fff"/><path d="M142.654 225.901l31.62-8.25-30.513 41.134-40.015 6.264 38.908-39.148z" fill="#E2EDFF"/><path d="M169.759 220.698l-27.011 36.414-33.824 5.294 34.664-34.877 26.171-6.831zm4.515-3.047l-31.62 8.25-38.908 39.148 40.019-6.253 30.513-41.135-.004-.01z" fill="#fff"/><path d="M175.108 81.81c-3.697 10.005 1.634 21.196 11.908 24.992a20.122 20.122 0 0011.016.863l-13.757 37.22-107.85-39.855 14.09-38.144a20.074 20.074 0 01-12.695-.443C67.546 62.647 62.214 51.458 65.912 41.45c3.697-10.007 15.024-15.032 25.297-11.228a20.09 20.09 0 019.936 7.92L115.236 0 223.09 39.855l-13.757 37.22a20.127 20.127 0 00-8.929-6.51c-10.272-3.795-21.598 1.239-25.296 11.245z" fill="#FFB900"/><path d="M77.426 105.399l-.774-.984-.185.498.148.186.81.3zm12.176-38.27c.16-.04.32-.08.479-.123L77.673 51.233l-.357.28 12.285 15.616zM67.459 38.25c-.083.138-.169.275-.248.417l9.826 12.49.356-.28-9.934-12.627zm69.583 89.178l.81.3-18.523-23.544-.354.279 18.067 22.965zM90.35 67.345l-.186.498 7.702 9.788.354-.279-7.87-10.007zm8.15 10.352l-.356.28 20.552 26.116.355-.28L98.5 77.697zm47.305 5.651l-.356.28 20.547 26.12.356-.28-20.547-26.12zm20.829 26.499l-.356.28 20.548 26.121.356-.279-20.548-26.122zm-41.656-52.962l-.356.28 20.547 26.12.355-.28-20.546-26.12zm-20.829-26.481l-.209.165-.077.206 20.479 26.028.354-.28-20.547-26.119zm83.119 106.389l.175-.473-.338.265.163.208zM130.629 9.587l-.356.28 20.547 26.12.356-.28-20.547-26.12zm-4.32-5.495l-.811-.3 4.49 5.709.356-.28-4.035-5.13zm54.349 69.817l.352-.286-8.731-11.093-.354.28 8.733 11.099zm-28.496-38.001l-.357.28 20.604 26.254.357-.28-20.604-26.254zm33.763-9.788l12.193 15.502.357-.28-11.739-14.921-.811-.3zm28.74 36.533l.183-.498-16.093-20.456-.355.28 16.265 20.674z" fill="#fff"/><path d="M178.526 142.759l.499.183 8.081-6.357.337-.265.3-.813-.562.444-.355.28-8.3 6.528zm-37.07-13.699l.498.184 24.322-19.135.357-.279 11.71-9.213c-.096-.117-.186-.237-.278-.356l-11.711 9.213-.357.281-24.541 19.305zm67.455-52.492l.861-.677.3-.81-1.459 1.14c.109.114.202.23.298.347zM172 62.172l-.357.28-26.119 20.547-.356.28-26.119 20.548-.356.28-14.307 11.255.498.184 14.09-11.083.354-.279 26.121-20.55.355-.279 26.121-20.55.354-.279L198.4 41.98l.354-.28 9.372-7.374-.497-.183-9.154 7.201-.356.28L172 62.171zm-47.379-5.013l.354-.28 26.121-20.549.356-.28 19.606-15.423-.498-.184-19.389 15.254-.354.279-26.121 20.547-.355.28-26.12 20.55-.355.278L81.91 90.183l-.3.813 16.535-13.008.355-.28 26.12-20.548zm-56.563 1.636l9.26-7.283.356-.279 20.803-16.368c-.106-.107-.208-.221-.317-.325L77.394 50.877l-.356.279-9.225 7.258c.08.127.162.256.245.381zm62.21-48.94l.356-.28 3.364-2.646-.498-.184-3.145 2.476-.357.28-25.747 20.255-.301.813.209-.165 26.119-20.549z" fill="#fff"/><path d="M123.005 155.688l-10.507.417.69 17.401 10.507-.417-.69-17.401z" fill="#974245"/><path d="M123.001 155.7l.417 10.259c-2.918-.925-6.701-4.571-8.902-8.435l5.89-1.72 2.595-.104z" fill="#4A191B"/><path d="M128.139 150.681c2.085 3.233 2.116 5.836-.929 4.459-3.045-1.378.929-4.459.929-4.459z" fill="#974245"/><path d="M128.254 147.038s1.065 13.738-4.388 13.953c-5.452.214-10.686-4.125-10.686-4.125l-.021-10.399 8.932-4.254 6.163 4.825z" fill="#974245"/><path d="M118.493 150.025c.6-2.132 2.182-3.721 5.017-4.619 0 0 3.791 4.857 6.612 2.858 3.983-2.823-.132-9.874-6.449-8.584-3.208-3.71-6.722-2.515-10.395 1.193-6.747 1.146-7.533 5.037-5.753 10.107-4.058-.038-5.409 2.009-4.806 5.563l11.835 3.43 2.586-8.941 1.353-1.007z" fill="#4A191B"/><path d="M116.722 138.28c.09 2.261-1.723 4.168-4.052 4.262-2.328.094-4.285-1.667-4.377-3.929-.091-2.261 1.724-4.169 4.052-4.265 2.329-.095 4.292 1.668 4.377 3.932z" fill="#4A191B"/><path opacity=".3" d="M126.068 154.187a2.473 2.473 0 01-1.432 2.339 2.473 2.473 0 01-2.709-.428 2.469 2.469 0 114.141-1.911z" fill="#4A191B"/><path d="M119.527 153.026c1.125-.635 1.372-2.327.552-3.78-.82-1.452-2.396-2.115-3.521-1.48-1.125.634-1.372 2.327-.552 3.779.82 1.453 2.396 2.116 3.521 1.481z" fill="#974245"/><path d="M118.628 151.721c-.075-1.109-.571-1.769-1.559-2.084l.271-.863c1.353.417 2.085 1.394 2.191 2.883l-.903.064z" fill="#4A191B"/><path d="M147.944 159.827a19.855 19.855 0 01-17.717 5.836c-9.796-1.686-21.919-1.15-28.783 6.195l-2.778 40.953a2.44 2.44 0 003.147 2.501l31.455-9.588a2.436 2.436 0 001.73-2.441l-.673-15.757c16.049-2.072 31.93-26.763 39.411-41.948l-10.591-8.754c-5 9.507-10.053 17.58-15.201 23.003z" fill="#007BFF"/><path d="M177.336 130.081c.757-.963-1.18-2.888-2.382-1.627 1.104-1.916-1.109-3.465-2.293-2.902-.139-2.161-1.165-2.712-3.079-1.653-2.14 4.515-4.285 8.861-6.44 12.946l10.59 8.754c4.208-8.537 5.859-15.188 3.604-15.518z" fill="#974245"/><path d="M142.657 225.903l-38.915 39.142-2.091-41.622-.433-8.579 31.617-8.994 1.857 3.791 7.965 16.262z" fill="#FF5C33"/><path opacity=".3" d="M134.692 209.641l-33.041 13.782-.433-8.579 31.617-8.994 1.857 3.791z" fill="#4A191B"/><path d="M111.095 175.631l-8.146 19.303a140.692 140.692 0 01-3.05-3.981 117.622 117.622 0 01-7.355-11.124c-11.093-19.126-15.9-41.637-5.627-70.997l13.466 3.097c-6.578 17.548-2.025 37.152 3.502 50.383a94.646 94.646 0 002.489 5.419c1.73 3.446 3.395 6.162 4.721 7.9z" fill="#007BFF"/><path d="M98.812 93.574c.326-1.182 3.025-.767 2.722.95.886-2.025 3.448-1.165 3.696.117 1.818-1.172 2.869-.673 3.156 1.499-2.918 5.444-5.628 10.745-7.983 15.799l-13.486-3.107c4.838-10.243 10.099-17.07 11.895-15.258z" fill="#974245"/><path opacity=".3" d="M99.905 190.953a117.642 117.642 0 01-7.36-11.124c2.534-7.981 5.928-14.488 11.339-17.509a94.343 94.343 0 002.488 5.42l.046.262c-7.128 3.61-6.54 12.777-6.513 22.951z" fill="#001F40"/><path d="M148.643 328.536c-7.022 6.151-26.204-.108-40.119-6.39L93.07 305.327c18.876 5.419 37.814 7.583 49.462-2.293l6.111 25.502z" fill="#fff"/><path d="M105.601 310.868l-.693.582 4.774 5.681.692-.582-4.773-5.681zm8.589.789l-.768.478 5.043 8.098.768-.478-5.043-8.098zm22.153-.833l-.875.23 3.527 13.424.874-.23-3.526-13.424z" fill="#BCD5FF"/><path d="M489.024 97.372c.719 5.236-1.472 11.07-6.506 16.195-6.638 6.76-16.693 8.878-25.637 5.745l-14.459-5.069c17.119-5.38 26.869-17.67 28.88-33.166l17.722 16.295z" fill="#fff"/><path d="M456.888 119.311a35.036 35.036 0 0010.196-4.9c2.577 1.726 6.045 2.762 10.028 3.396-7.862 4.104-12.796 3.903-20.224 1.504z" fill="#BCD5FF"/><path d="M433.652 265.603c-.244 0-.488 0-.728-.014l.033-.905c.883.033 1.767.003 2.645-.091l.096.9c-.679.072-1.363.109-2.046.11zm-3.49-.321a18.59 18.59 0 01-2.686-.706l.294-.857a17.62 17.62 0 002.557.673l-.165.89zm8.269-.287l-.225-.876a18.095 18.095 0 002.501-.85l.354.834a19.02 19.02 0 01-2.63.892zm-13.511-1.511a19.301 19.301 0 01-2.368-1.459l.53-.734c.717.516 1.471.979 2.255 1.386l-.417.807zm18.613-.649l-.471-.773a18.12 18.12 0 002.151-1.538l.58.696a19.017 19.017 0 01-2.26 1.615zm-23.109-2.592a19.335 19.335 0 01-1.849-2.072l.718-.553c.538.7 1.127 1.361 1.761 1.976l-.63.649zm27.37-.951l-.673-.604a18.028 18.028 0 001.619-2.085l.755.501a19.13 19.13 0 01-1.701 2.188zm-30.746-3.441a18.854 18.854 0 01-1.174-2.516l.846-.321c.313.826.686 1.627 1.118 2.397l-.79.44zm33.81-1.176l-.819-.387c.376-.799.693-1.625.948-2.47l.865.26a18.831 18.831 0 01-.994 2.597zm-35.774-4.004a18.859 18.859 0 01-.392-2.749l.903-.063c.061.882.185 1.757.373 2.62l-.884.192zm37.372-1.305l-.896-.129a18.66 18.66 0 00.19-2.641 17.897 17.897 0 00-.173-2.501l.896-.125c.122.874.183 1.755.184 2.637a19.6 19.6 0 01-.201 2.759zm-36.853-4.154l-.902-.068c.071-.925.211-1.843.417-2.748l.883.209c-.196.858-.329 1.73-.398 2.607zm35.419-3.714a17.904 17.904 0 00-.929-2.476l.823-.379c.388.842.714 1.711.976 2.601l-.87.254zm-34.258-1.434l-.834-.327c.336-.862.734-1.698 1.191-2.501l.788.448a17.95 17.95 0 00-1.145 2.38zm32.049-3.356a18.192 18.192 0 00-1.605-2.103l.678-.6a19.397 19.397 0 011.684 2.207l-.757.496zm-29.443-1.234l-.713-.556a18.942 18.942 0 011.861-2.062l.625.655c-.638.61-1.23 1.267-1.773 1.963zm25.941-2.709a18.416 18.416 0 00-2.14-1.555l.477-.767a19.19 19.19 0 012.247 1.63l-.584.692zm-22.125-.928l-.525-.738a19.123 19.123 0 012.376-1.438l.417.807a17.74 17.74 0 00-2.266 1.359l-.002.01zm17.64-1.851c-.812-.35-1.648-.64-2.501-.869l.233-.873a18.71 18.71 0 012.626.913l-.358.829zm-12.94-.542l-.287-.858a18.913 18.913 0 012.69-.688l.161.892c-.869.151-1.725.366-2.562.644l-.002.01zm7.839-.819c-.877-.1-1.761-.136-2.645-.108l-.027-.905c.927-.027 1.854.011 2.775.115l-.103.898z" fill="#95BEFF"/><path d="M451.377 241.832c8.046-8.046 8.046-21.092 0-29.138-8.046-8.047-21.092-8.047-29.138 0-8.046 8.046-8.046 21.091 0 29.138 8.046 8.046 21.092 8.046 29.138 0z" fill="#fff"/><path d="M436.826 248.31a21.054 21.054 0 01-18.187-31.662 21.053 21.053 0 0136.513.257 21.055 21.055 0 01-5.005 26.65 21.024 21.024 0 01-13.321 4.755zm-.054-41.204a20.157 20.157 0 00-19.936 17.455 20.162 20.162 0 006.254 17.463 20.154 20.154 0 0026.484.831 20.151 20.151 0 00-10.766-35.642 19.613 19.613 0 00-2.036-.107z" fill="#95BEFF"/><path d="M446.072 230.034l-9.938-2.409 4.838-13.486.963.346-4.455 12.414 8.834 2.143-.242.992zm-198.339-56.867a13.76 13.76 0 00-10.084-17.248c-6.541-1.536-13.394 2.018-15.885 8.258a13.675 13.675 0 00-.317 9.38c1.094 3.351 1.294 6.928.309 10.311l-1.687 5.782 15.723 4.585 1.688-5.786a16.998 16.998 0 015.709-8.45 13.663 13.663 0 004.544-6.832zm-13.053 24.776l-15.686-4.575-1.754 6.013 15.686 4.574 1.754-6.012z" fill="#95BEFF"/><path d="M230.736 192.939l-.86-.362 8.172-19.422a3.305 3.305 0 01-1.93-.532 3.05 3.05 0 01-1.382-2.115.245.245 0 00-.164-.18.251.251 0 00-.248.044l-.234.225a3.103 3.103 0 01-2.401.834 3.313 3.313 0 01-1.668-.6l-3.543 20.751-.923-.158 3.874-22.682.653.857a2.309 2.309 0 001.667.898c.306.028.613-.01.903-.11a2.15 2.15 0 00.779-.469l.234-.225a1.184 1.184 0 011.194-.258 1.192 1.192 0 01.792.931 2.137 2.137 0 00.965 1.459 2.35 2.35 0 001.897.298l1.096-.308-8.873 21.124z" fill="#fff"/><path d="M223.776 138.302l-1.222.589 5.883 12.218 1.222-.588-5.883-12.219zm37.803 10.095l-10.333 7.526.801 1.099 10.332-7.526-.8-1.099zm-16.207-17.203l-4.976 18.781 1.312.347 4.976-18.78-1.312-.348z" fill="#95BEFF"/><path d="M61.64 164.359l-11.199-7.689a23.47 23.47 0 10-2.007 5.996l13.207 1.693z" fill="#fff"/><path d="M27.305 176.183a23.981 23.981 0 01-22.532-15.822 23.987 23.987 0 1146.159-3.898l12.506 8.581-14.758-1.888a24.025 24.025 0 01-21.375 13.027zm.084-47.056a23.085 23.085 0 00-20.183 11.832 23.075 23.075 0 009.39 31.661 23.078 23.078 0 0031.428-10.143l.144-.29 11.672 1.494-9.907-6.795.056-.291a23.057 23.057 0 00-4.824-19.062 23.051 23.051 0 00-17.776-8.406z" fill="#95BEFF"/><path d="M14.904 155.033a2.828 2.828 0 100-5.656 2.828 2.828 0 000 5.656zm11.99 0a2.828 2.828 0 100-5.656 2.828 2.828 0 000 5.656zm11.991 0a2.828 2.828 0 100-5.656 2.828 2.828 0 000 5.656z" fill="#95BEFF"/><path d="M364.61 298.753l8.465 18.348-27.391 12.638-8.464-18.351 17.921 2.854 9.469-15.489z" fill="#fff"/><path d="M364.61 298.753l-7.906 19.589-19.484-6.954 27.39-12.635z" fill="#95BEFF"/><path d="M24.99 280.565H1.35A1.348 1.348 0 010 279.214a1.352 1.352 0 011.35-1.35h23.64a1.348 1.348 0 011.35 1.35 1.349 1.349 0 01-1.35 1.351zm-8.757 3.122H1.096c-.605 0-1.096.491-1.096 1.096v.509c0 .605.49 1.096 1.096 1.096h15.137c.605 0 1.096-.491 1.096-1.096v-.509c0-.605-.49-1.096-1.096-1.096zm4.421 5.826H1.232c-.68 0-1.232.552-1.232 1.232v.238c0 .68.552 1.231 1.232 1.231h19.422c.68 0 1.232-.551 1.232-1.231v-.238c0-.68-.552-1.232-1.232-1.232zm.827-2.958a1.515 1.515 0 100-3.03 1.515 1.515 0 000 3.03z" fill="#BCD5FF"/></svg>