<svg width="28" height="34" fill="none" xmlns="http://www.w3.org/2000/svg"><path d="M7.77 7.24L4.73 1l3.95 5.71c3 4.11 9.36 7 14 4.92l4.74-2.13-4.22 3c-4.11 3-4.7 10-2.55 14.65l3 6.23-4-5.7c-3-4.12-9.36-7-14-4.92L1 24.93l4.21-3.08c4.12-3 4.68-9.98 2.56-14.61z" fill="#6AFF94"/><path d="M7.77 7.24L4.73 1l3.95 5.71c3 4.11 9.36 7 14 4.92l4.74-2.13-4.22 3c-4.11 3-4.7 10-2.55 14.65l3 6.23-4-5.7c-3-4.12-9.36-7-14-4.92L1 24.93l4.21-3.08c4.12-3 4.68-9.98 2.56-14.61z" stroke="#19296B" stroke-linecap="round" stroke-linejoin="round"/></svg>