<svg width="17" height="20" fill="none" xmlns="http://www.w3.org/2000/svg"><path d="M4.843 4.542L3.117 1 5.36 4.241c1.703 2.333 5.313 3.974 7.947 2.793l2.69-1.21-2.395 1.704c-2.333 1.703-2.667 5.676-1.447 8.316l1.703 3.536-2.27-3.235c-1.704-2.34-5.314-3.974-7.947-2.793L1 14.584l2.39-1.749c2.338-1.703 2.656-5.665 1.453-8.293z" fill="#FF9C07"/><path d="M4.843 4.542L3.117 1 5.36 4.241c1.703 2.333 5.313 3.974 7.947 2.793l2.69-1.21-2.395 1.704c-2.333 1.703-2.667 5.676-1.447 8.316l1.703 3.536-2.27-3.235c-1.704-2.34-5.314-3.974-7.947-2.793L1 14.584l2.39-1.749c2.338-1.703 2.656-5.665 1.453-8.293z" stroke="#000" stroke-linecap="round" stroke-linejoin="round"/></svg>