<svg width="44" height="34" fill="none" xmlns="http://www.w3.org/2000/svg"><path d="M2 24.247l.22-1.83a4.85 4.85 0 016.8-4 4.86 4.86 0 006.81-4 4.85 4.85 0 016.8-4 4.85 4.85 0 006.8-4 4.86 4.86 0 016.81-4l1.59.66.1.05M6.5 31.877l.22-1.83a4.86 4.86 0 016.81-4 4.85 4.85 0 006.8-4 4.85 4.85 0 016.8-4 4.86 4.86 0 006.81-4 4.85 4.85 0 016.8-4l1.6.66.1.05" stroke="#000" stroke-width="3" stroke-linecap="round" stroke-linejoin="round"/><path d="M2 24.247l.22-1.83a4.85 4.85 0 016.8-4 4.86 4.86 0 006.81-4 4.85 4.85 0 016.8-4 4.85 4.85 0 006.8-4 4.86 4.86 0 016.81-4l1.59.66.1.05M6.5 31.877l.22-1.83a4.86 4.86 0 016.81-4 4.85 4.85 0 006.8-4 4.85 4.85 0 016.8-4 4.86 4.86 0 006.81-4 4.85 4.85 0 016.8-4l1.6.66.1.05" stroke="#19296B" stroke-linecap="round" stroke-linejoin="round"/></svg>