<svg width="788" height="771" viewBox="0 0 788 771" fill="none" xmlns="http://www.w3.org/2000/svg">
<path d="M55.9931 321.254L55.9936 321.253C56.4807 320.43 56.9913 319.624 57.5245 318.836L57.1104 318.555C58.1949 316.952 59.3719 315.422 60.6329 313.972L61.0102 314.3C62.2648 312.858 63.6036 311.495 65.0183 310.22L64.6834 309.848C66.1156 308.557 67.6246 307.353 69.2022 306.244L69.4898 306.653C71.0482 305.557 72.6742 304.554 74.3594 303.652L74.1233 303.211C75.8172 302.303 77.5704 301.496 79.3746 300.795L79.5557 301.261C80.4427 300.916 81.3422 300.597 82.2531 300.306L82.2662 300.301L84.537 299.503L84.3713 299.031L88.9129 297.436L89.0786 297.908L93.6202 296.312L93.4545 295.84L97.996 294.245L98.1618 294.716L102.703 293.121L102.538 292.649L107.079 291.053L107.245 291.525L111.787 289.929L111.621 289.458L116.162 287.862L116.328 288.334L118.599 287.536L118.603 287.534C119.397 287.247 120.186 286.953 120.972 286.65L120.793 286.184C122.363 285.58 123.918 284.947 125.458 284.284L125.655 284.743C127.206 284.076 128.74 283.379 130.259 282.652L130.043 282.201C131.559 281.476 133.059 280.721 134.542 279.938L134.776 280.38C136.267 279.592 137.742 278.776 139.199 277.931L138.948 277.499C140.402 276.656 141.837 275.785 143.254 274.886L143.522 275.308C144.946 274.405 146.351 273.474 147.737 272.517L147.453 272.105C148.835 271.15 150.197 270.168 151.538 269.16L151.839 269.56C153.187 268.547 154.514 267.508 155.82 266.443L155.504 266.056C156.805 264.995 158.085 263.908 159.344 262.796L159.675 263.171C160.938 262.055 162.179 260.914 163.397 259.749L163.051 259.388C164.264 258.228 165.454 257.043 166.62 255.835L166.98 256.182C168.15 254.97 169.297 253.735 170.42 252.476L170.046 252.143C171.163 250.891 172.256 249.616 173.324 248.319L173.71 248.636C174.78 247.336 175.825 246.014 176.845 244.67L176.446 244.367C177.46 243.031 178.448 241.674 179.41 240.296L179.82 240.582C180.783 239.202 181.72 237.8 182.631 236.379L182.21 236.109C183.114 234.698 183.992 233.266 184.842 231.815L185.273 232.068C185.699 231.342 186.117 230.611 186.529 229.876C186.529 229.875 186.53 229.875 186.53 229.874L186.596 229.759L186.162 229.51L186.299 229.271L186.733 229.52L186.802 229.4L186.807 229.391L186.807 229.39L186.808 229.389L186.811 229.382L186.825 229.356L186.881 229.253L187.102 228.849L187.955 227.282L187.516 227.043C188.106 225.959 188.91 224.484 189.894 222.678L190.333 222.917L192.718 218.538L192.279 218.299C193.012 216.953 193.801 215.504 194.64 213.965L195.079 214.204L197.45 209.85L197.011 209.611C197.774 208.21 198.566 206.756 199.384 205.255L199.823 205.494L202.196 201.138L201.757 200.899C202.531 199.477 203.324 198.023 204.13 196.542L204.569 196.781L206.944 192.423L206.504 192.183C207.286 190.748 208.079 189.294 208.879 187.824L209.318 188.063L211.692 183.707L211.253 183.467C212.037 182.027 212.827 180.576 213.621 179.12L214.06 179.359L216.431 175.007L215.992 174.767C216.783 173.316 217.574 171.863 218.365 170.412L218.804 170.651L221.176 166.297L220.737 166.058C221.531 164.6 222.322 163.149 223.107 161.707L223.546 161.947L225.915 157.6L225.476 157.36C226.276 155.891 227.069 154.436 227.851 153.001L228.29 153.24L230.665 148.881L230.226 148.642C231.034 147.161 231.826 145.706 232.601 144.284L233.04 144.523L235.414 140.167L234.975 139.928C235.793 138.427 236.585 136.973 237.349 135.573L237.788 135.812L240.158 131.463L239.719 131.224C240.556 129.689 241.344 128.243 242.076 126.9L242.515 127.14C243.4 125.516 244.204 124.042 244.914 122.74L244.475 122.501C245.46 120.696 246.264 119.223 246.855 118.141L247.294 118.38C247.651 117.726 247.93 117.215 248.125 116.861C248.222 116.683 248.297 116.545 248.351 116.448L248.414 116.333L248.432 116.301L248.437 116.292L248.438 116.292L248.439 116.29C248.837 115.619 249.241 114.954 249.652 114.293L249.228 114.029C250.056 112.696 250.911 111.383 251.79 110.089L252.204 110.37C253.082 109.078 253.985 107.806 254.912 106.554L254.51 106.256C255.444 104.996 256.402 103.756 257.384 102.537L257.774 102.851C258.753 101.635 259.757 100.441 260.784 99.2676L260.407 98.9383C261.44 97.7586 262.496 96.6008 263.574 95.4654L263.937 95.8097C265.011 94.6781 266.109 93.569 267.228 92.4829L266.879 92.1241C268.004 91.0326 269.15 89.9643 270.318 88.9199L270.651 89.2925C271.814 88.2524 272.997 87.236 274.201 86.244L273.884 85.8582C275.093 84.862 276.322 83.8904 277.571 82.9439L277.873 83.3424C279.116 82.4006 280.378 81.4837 281.659 80.5924L281.374 80.182C282.659 79.2878 283.963 78.4192 285.286 77.577L285.554 77.9987C286.869 77.1613 288.202 76.35 289.552 75.5655L289.3 75.1332C290.654 74.3467 292.024 73.587 293.411 72.8547L293.644 73.2969C295.022 72.5694 296.416 71.8691 297.826 71.1966L297.611 70.7453C299.023 70.0717 300.451 69.4259 301.893 68.8084L302.09 69.2681C302.806 68.9614 303.527 68.6618 304.25 68.3692C304.974 68.0767 305.7 67.7918 306.429 67.5145L306.251 67.0472C307.717 66.4889 309.193 65.9613 310.676 65.4646L310.835 65.9387C312.316 65.4428 313.805 64.9776 315.301 64.5434L315.162 64.0632C316.668 63.6261 318.182 63.2202 319.701 62.8455L319.821 63.331C321.337 62.9572 322.859 62.6146 324.386 62.3033L324.286 61.8134C325.823 61.5003 327.364 61.2186 328.91 60.9686L328.989 61.4621C330.53 61.2129 332.075 60.9951 333.623 60.8089L333.563 60.3124C335.119 60.1253 336.678 59.9698 338.24 59.8461L338.279 60.3445C339.835 60.2213 341.392 60.1298 342.951 60.0699L342.932 59.5702C344.497 59.5101 346.064 59.4818 347.631 59.4854L347.63 59.9854C349.189 59.9889 350.749 60.0242 352.308 60.0912L352.329 59.5916C353.894 59.6589 355.457 59.7579 357.02 59.8889L356.978 60.3871C358.531 60.5173 360.083 60.6792 361.632 60.8728L361.694 60.3766C363.247 60.5707 364.798 60.7965 366.345 61.0541L366.263 61.5473C367.8 61.8032 369.333 62.0906 370.862 62.4096L370.964 61.9201C372.496 62.2396 374.023 62.5907 375.544 62.9733L375.423 63.4582C376.178 63.6483 376.933 63.8462 377.686 64.0519C378.439 64.2576 379.189 64.4708 379.937 64.6914L380.078 64.2118C381.583 64.656 383.076 65.1301 384.558 65.6336L384.397 66.107C385.875 66.6097 387.342 67.1418 388.796 67.7028L388.976 67.2363C390.439 67.8011 391.889 68.3949 393.325 69.0174L393.126 69.4762C394.558 70.0971 395.977 70.7467 397.38 71.4242L397.598 70.974C399.009 71.6555 400.406 72.3652 401.788 73.1026L401.552 73.5437C402.929 74.2787 404.29 75.0413 405.634 75.8311L405.888 75.4C407.239 76.1936 408.573 77.0145 409.891 77.8621L409.62 78.2825C410.932 79.1266 412.227 79.9973 413.503 80.894L413.79 80.4849C415.072 81.3854 416.336 82.312 417.58 83.2641L417.276 83.6612C418.515 84.6088 419.734 85.5817 420.934 86.5796L421.254 86.1952C422.458 87.1964 423.642 88.2226 424.805 89.2732L424.47 89.6443C425.627 90.6888 426.764 91.7577 427.879 92.8502L428.229 92.493C429.347 93.5883 430.444 94.7073 431.518 95.8495L431.154 96.1922C432.222 97.3268 433.268 98.4845 434.291 99.6646L434.669 99.337C435.693 100.519 436.696 101.723 437.674 102.95L437.284 103.262C437.77 103.871 438.25 104.485 438.725 105.105C439.199 105.725 439.667 106.349 440.128 106.977L440.531 106.682C441.459 107.947 442.36 109.229 443.234 110.527L442.819 110.806C443.691 112.102 444.535 113.414 445.352 114.741L445.777 114.478C446.599 115.814 447.393 117.165 448.159 118.53L447.722 118.775C448.486 120.137 449.221 121.513 449.927 122.902L450.373 122.676C451.083 124.073 451.765 125.484 452.417 126.908L451.962 127.116C452.612 128.535 453.233 129.966 453.824 131.409L454.287 131.22C454.881 132.67 455.445 134.131 455.98 135.604L455.51 135.774C456.042 137.241 456.545 138.718 457.017 140.204L457.494 140.053C457.968 141.546 458.412 143.049 458.825 144.56L458.343 144.692C458.754 146.196 459.135 147.709 459.485 149.23L459.972 149.118C460.323 150.644 460.644 152.178 460.933 153.718L460.441 153.811C460.729 155.343 460.986 156.881 461.211 158.426L461.706 158.354C461.932 159.903 462.126 161.458 462.289 163.018L461.792 163.07C461.954 164.619 462.085 166.174 462.184 167.732L462.683 167.701C462.782 169.262 462.85 170.827 462.886 172.396L462.386 172.408C462.404 173.187 462.414 173.967 462.416 174.747L462.416 174.985L462.466 175.025C462.439 175.516 462.441 176.242 462.468 177.14L462.968 177.126C463.005 178.356 463.089 179.951 463.218 181.788L462.719 181.823C462.819 183.249 462.945 184.821 463.096 186.481L463.594 186.436C463.73 187.925 463.886 189.486 464.061 191.077L463.564 191.131C463.732 192.662 463.918 194.222 464.121 195.773L464.617 195.708C464.821 197.268 465.041 198.82 465.278 200.325L464.784 200.403C464.907 201.186 465.034 201.957 465.166 202.711C465.31 203.54 465.463 204.368 465.623 205.194L466.114 205.099C466.434 206.747 466.786 208.387 467.17 210.017L466.683 210.132C467.069 211.772 467.487 213.403 467.937 215.024L468.419 214.891C468.867 216.508 469.347 218.115 469.858 219.711L469.382 219.864C469.895 221.468 470.44 223.061 471.015 224.643L471.485 224.472C472.059 226.048 472.663 227.612 473.298 229.164L472.835 229.354C473.473 230.912 474.141 232.457 474.839 233.989L475.294 233.782C475.989 235.308 476.715 236.82 477.47 238.318L477.023 238.543C477.781 240.046 478.568 241.534 479.385 243.007L479.822 242.765C480.635 244.231 481.477 245.681 482.347 247.116L481.92 247.375C482.793 248.813 483.695 250.235 484.625 251.64L485.042 251.364C485.967 252.761 486.92 254.141 487.901 255.503L487.495 255.796C487.986 256.478 488.485 257.157 488.991 257.83C489.496 258.504 490.008 259.173 490.526 259.835L490.92 259.528C491.954 260.85 493.012 262.151 494.095 263.43L493.714 263.753C494.802 265.038 495.916 266.302 497.053 267.542L497.421 267.204C498.555 268.441 499.712 269.655 500.893 270.845L500.538 271.197C501.724 272.393 502.933 273.565 504.164 274.712L504.505 274.346C505.732 275.49 506.981 276.609 508.251 277.703L507.925 278.082C509.201 279.181 510.498 280.254 511.816 281.302L512.127 280.91C513.44 281.954 514.773 282.972 516.126 283.963L515.83 284.366C517.188 285.361 518.565 286.329 519.962 287.271L520.241 286.856C521.631 287.793 523.04 288.703 524.467 289.585L524.204 290.01C525.635 290.895 527.085 291.752 528.551 292.582L528.797 292.146C530.256 292.971 531.732 293.767 533.225 294.535L532.996 294.98C533.744 295.365 534.496 295.742 535.253 296.113L535.473 295.664L535.253 296.113L537.654 297.289L537.874 296.84L542.678 299.192L542.458 299.641L547.261 301.994L547.481 301.545L552.284 303.897L552.064 304.346L556.868 306.698L557.087 306.249L561.891 308.601L561.671 309.05L566.474 311.402L566.694 310.953L571.497 313.306L571.277 313.755L576.081 316.107L576.301 315.658L581.104 318.01L580.884 318.459L585.687 320.811L585.907 320.362L590.71 322.715L590.49 323.164L595.294 325.516L595.514 325.067L600.317 327.419L600.097 327.868L602.499 329.044L602.516 329.053L602.535 329.06C603.387 329.396 604.235 329.74 605.079 330.093L605.272 329.632C606.968 330.34 608.649 331.082 610.315 331.856L610.104 332.31C611.764 333.082 613.409 333.887 615.037 334.724L615.265 334.279C616.899 335.12 618.516 335.993 620.116 336.898L619.869 337.333C620.666 337.783 621.458 338.242 622.246 338.709C622.939 339.12 623.628 339.538 624.313 339.961L624.576 339.536C625.954 340.388 627.315 341.263 628.658 342.161L628.38 342.577C629.721 343.474 631.045 344.393 632.35 345.335L632.643 344.929C633.956 345.877 635.251 346.847 636.527 347.838L636.22 348.233C637.494 349.223 638.749 350.234 639.985 351.267L640.305 350.883C641.547 351.922 642.77 352.981 643.972 354.061L643.638 354.433C644.838 355.511 646.018 356.609 647.177 357.728L647.524 357.368C648.689 358.492 649.833 359.635 650.956 360.799L650.596 361.146C651.715 362.306 652.814 363.486 653.891 364.684L654.263 364.35C655.344 365.553 656.404 366.776 657.441 368.016L657.058 368.337C658.092 369.574 659.104 370.828 660.093 372.101L660.488 371.794C661.48 373.071 662.45 374.365 663.397 375.677L662.992 375.97C663.935 377.276 664.855 378.6 665.751 379.94L666.167 379.662C667.066 381.006 667.941 382.366 668.793 383.743L668.367 384.006C669.215 385.375 670.038 386.761 670.837 388.162L671.271 387.914C672.072 389.318 672.849 390.738 673.6 392.172L673.157 392.404C673.905 393.83 674.627 395.271 675.325 396.725L675.776 396.509C676.474 397.966 677.148 399.437 677.795 400.922L677.337 401.122C677.981 402.597 678.599 404.085 679.191 405.586L679.656 405.403C680.249 406.905 680.816 408.421 681.357 409.948L680.885 410.115C681.154 410.874 681.416 411.636 681.672 412.401C681.927 413.166 682.176 413.933 682.417 414.701L682.894 414.552C683.38 416.097 683.838 417.649 684.267 419.206L683.785 419.339C684.214 420.895 684.614 422.456 684.987 424.022L685.473 423.906C685.848 425.482 686.194 427.063 686.511 428.647L686.021 428.745C686.338 430.327 686.626 431.913 686.886 433.502L687.379 433.421C687.641 435.019 687.873 436.62 688.077 438.224L687.581 438.287C687.784 439.887 687.959 441.489 688.105 443.093L688.603 443.048C688.75 444.66 688.868 446.273 688.957 447.888L688.458 447.915C688.547 449.525 688.607 451.136 688.638 452.747L689.138 452.737C689.17 454.355 689.173 455.972 689.147 457.59L688.647 457.582C688.621 459.193 688.567 460.804 688.483 462.414L688.983 462.44C688.899 464.055 688.787 465.669 688.646 467.281L688.148 467.237C688.007 468.842 687.838 470.445 687.641 472.045L688.137 472.107C687.939 473.711 687.712 475.313 687.456 476.911L686.963 476.832C686.709 478.423 686.426 480.01 686.115 481.592L686.605 481.689C686.293 483.275 685.953 484.857 685.584 486.433L685.098 486.319C684.731 487.887 684.336 489.45 683.913 491.006L684.395 491.138C683.971 492.697 683.519 494.251 683.039 495.798L682.562 495.649C682.084 497.186 681.579 498.717 681.046 500.24L681.518 500.405C680.985 501.93 680.423 503.447 679.834 504.956L679.368 504.775C679.075 505.525 678.775 506.273 678.468 507.019C678.162 507.765 677.849 508.508 677.529 509.247L677.988 509.446C677.346 510.933 676.677 512.406 675.984 513.866L675.533 513.651C674.84 515.109 674.123 516.552 673.381 517.98L673.824 518.211C673.078 519.648 672.306 521.07 671.511 522.477L671.076 522.231C670.281 523.635 669.463 525.024 668.621 526.396L669.047 526.658C668.2 528.038 667.33 529.401 666.436 530.748L666.019 530.472C665.127 531.815 664.212 533.142 663.274 534.452L663.68 534.743C662.738 536.059 661.772 537.357 660.785 538.637L660.389 538.331C659.404 539.608 658.396 540.866 657.367 542.106L657.752 542.426C656.718 543.67 655.663 544.897 654.586 546.104L654.213 545.771C653.14 546.973 652.046 548.157 650.931 549.321L651.292 549.667C650.173 550.835 649.033 551.983 647.872 553.11L647.524 552.752C646.368 553.875 645.192 554.977 643.997 556.059L644.332 556.43C643.133 557.515 641.915 558.579 640.677 559.621L640.355 559.239C639.123 560.276 637.871 561.292 636.601 562.287L636.91 562.68C635.637 563.677 634.345 564.651 633.036 565.603L632.742 565.199C631.439 566.146 630.119 567.07 628.781 567.972L629.061 568.387C627.72 569.29 626.363 570.17 624.988 571.027L624.724 570.602C623.358 571.454 621.975 572.282 620.576 573.086L620.825 573.52C619.425 574.325 618.008 575.106 616.575 575.863L616.342 575.421C615.63 575.797 614.914 576.167 614.194 576.531C613.474 576.896 612.752 577.253 612.027 577.604L612.244 578.054C610.786 578.759 609.317 579.438 607.839 580.089L607.637 579.631C606.16 580.282 604.674 580.905 603.179 581.501L603.364 581.965C601.86 582.565 600.346 583.137 598.824 583.682L598.656 583.211C597.137 583.754 595.61 584.27 594.076 584.758L594.227 585.235C592.685 585.726 591.134 586.189 589.578 586.623L589.443 586.142C587.89 586.576 586.33 586.982 584.764 587.359L584.881 587.845C583.308 588.225 581.729 588.576 580.144 588.899L580.045 588.41C578.465 588.732 576.88 589.026 575.291 589.291L575.373 589.784C573.777 590.051 572.177 590.289 570.573 590.498L570.508 590.003C568.91 590.211 567.308 590.392 565.704 590.543L565.751 591.041C564.141 591.194 562.528 591.317 560.912 591.412L560.883 590.913C559.275 591.007 557.664 591.073 556.052 591.11L556.064 591.61C554.447 591.648 552.829 591.656 551.211 591.636L551.217 591.136C549.607 591.116 547.996 591.067 546.385 590.989L546.361 591.488C544.746 591.41 543.132 591.304 541.519 591.168L541.56 590.67C539.956 590.535 538.352 590.372 536.751 590.179L536.691 590.676C535.087 590.483 533.484 590.262 531.884 590.012L531.961 589.518C530.371 589.269 528.783 588.992 527.199 588.686L527.104 589.177C525.518 588.871 523.935 588.536 522.356 588.172L522.468 587.685C521.684 587.504 520.901 587.317 520.119 587.122C520.118 587.122 520.118 587.122 520.117 587.121L520.079 587.111L519.953 587.595L519.867 587.573L519.993 587.089L519.95 587.078L519.946 587.077C519.705 587.017 519.465 586.955 519.225 586.894C518.861 586.8 518.498 586.705 518.135 586.609L518.007 587.092C516.797 586.77 515.592 586.431 514.392 586.076L514.534 585.597C513.339 585.243 512.148 584.873 510.962 584.486L510.807 584.961C509.618 584.573 508.433 584.169 507.255 583.748L507.423 583.277C506.836 583.067 506.25 582.853 505.666 582.635L505.653 582.631L505.639 582.626L503.346 581.914L503.198 582.392L498.612 580.967L498.76 580.49L494.174 579.066L494.026 579.543L489.44 578.119L489.588 577.641L485.002 576.217L484.854 576.695L480.267 575.27L480.416 574.793L475.83 573.368L475.681 573.846L471.095 572.422L471.244 571.944L466.657 570.52L466.509 570.997L461.923 569.573L462.071 569.095L457.485 567.671L457.337 568.149L452.751 566.724L452.899 566.247L448.313 564.823L448.165 565.3L443.578 563.876L443.727 563.398L439.141 561.974L438.992 562.451L434.406 561.027L434.554 560.55L432.261 559.837L432.113 560.315L432.261 559.837C431.482 559.596 430.702 559.361 429.919 559.135L429.78 559.615C428.218 559.163 426.65 558.741 425.077 558.349L425.197 557.864C423.614 557.47 422.024 557.106 420.43 556.773L420.328 557.263C418.737 556.931 417.142 556.629 415.542 556.358L415.625 555.865C414.017 555.593 412.405 555.351 410.789 555.14L410.725 555.636C409.114 555.426 407.5 555.246 405.884 555.098L405.929 554.6C404.305 554.45 402.679 554.332 401.052 554.244L401.025 554.744C399.404 554.656 397.781 554.6 396.157 554.575L396.165 554.075C394.535 554.049 392.905 554.055 391.275 554.091L391.286 554.591C389.663 554.627 388.041 554.695 386.419 554.793L386.389 554.294C384.763 554.392 383.137 554.521 381.515 554.682L381.564 555.179C379.949 555.339 378.336 555.529 376.726 555.75L376.658 555.255C375.044 555.476 373.434 555.729 371.827 556.012L371.914 556.505C370.316 556.786 368.723 557.099 367.134 557.442L367.029 556.953C365.437 557.296 363.85 557.671 362.269 558.075L362.393 558.56C360.822 558.962 359.257 559.394 357.698 559.857L357.556 559.378C356.776 559.609 355.998 559.848 355.222 560.095C355.221 560.095 355.22 560.096 355.218 560.096L352.626 560.863L352.768 561.343L347.564 562.883L347.422 562.403L342.218 563.943L342.36 564.423L337.156 565.963L337.014 565.483L331.81 567.023L331.951 567.503L326.747 569.043L326.605 568.563L321.401 570.103L321.543 570.583L316.339 572.123L316.197 571.643L310.993 573.183L311.135 573.663L305.931 575.202L305.789 574.723L303.187 575.493L303.173 575.497L303.159 575.502C302.305 575.811 301.448 576.107 300.588 576.391L300.744 576.866C299.009 577.436 297.261 577.955 295.5 578.422L295.372 577.938C293.618 578.403 291.851 578.816 290.075 579.176L290.174 579.666C288.387 580.029 286.589 580.339 284.784 580.595L284.714 580.1C282.918 580.355 281.116 580.558 279.308 580.707L279.349 581.205C277.532 581.355 275.711 581.451 273.887 581.494L273.876 580.994C272.064 581.036 270.25 581.025 268.436 580.961L268.418 581.461C266.598 581.396 264.778 581.277 262.96 581.105L263.007 580.607C262.105 580.522 261.204 580.423 260.303 580.311C259.402 580.199 258.504 580.074 257.609 579.935L257.533 580.429C255.728 580.15 253.935 579.819 252.154 579.435L252.26 578.946C250.485 578.564 248.724 578.129 246.978 577.644L246.844 578.126C245.086 577.637 243.344 577.097 241.62 576.506L241.782 576.033C240.066 575.445 238.368 574.807 236.69 574.119L236.5 574.581C234.814 573.89 233.147 573.149 231.503 572.359L231.72 571.908C230.086 571.123 228.475 570.29 226.888 569.409L226.645 569.846C225.053 568.962 223.485 568.03 221.944 567.051L222.212 566.629C221.447 566.143 220.689 565.646 219.937 565.137C219.186 564.628 218.443 564.109 217.708 563.579L217.415 563.984C215.934 562.916 214.487 561.807 213.075 560.656L213.391 560.269C211.983 559.122 210.611 557.935 209.276 556.71L208.938 557.079C207.594 555.845 206.287 554.573 205.019 553.263L205.378 552.916C204.117 551.613 202.894 550.273 201.711 548.898L201.332 549.224C200.143 547.842 198.995 546.425 197.889 544.975L198.286 544.672C197.187 543.231 196.13 541.756 195.116 540.251L194.701 540.53C193.684 539.019 192.711 537.477 191.782 535.905L192.212 535.651C191.751 534.871 191.301 534.083 190.863 533.289C190.424 532.494 189.998 531.694 189.584 530.888L189.139 531.117C188.305 529.493 187.519 527.847 186.783 526.181L187.241 525.979C186.507 524.318 185.824 522.638 185.191 520.94L184.722 521.114C184.085 519.405 183.498 517.678 182.963 515.936L183.441 515.789C182.908 514.055 182.427 512.306 181.997 510.544L181.511 510.662C181.08 508.891 180.7 507.107 180.373 505.313L180.865 505.223C180.54 503.44 180.268 501.647 180.048 499.845L179.552 499.905C179.331 498.098 179.164 496.281 179.05 494.459L179.549 494.428C179.493 493.525 179.449 492.621 179.42 491.715C179.408 490.867 179.381 490.024 179.338 489.187L178.838 489.212C178.753 487.535 178.604 485.878 178.397 484.244L178.893 484.181C178.68 482.505 178.406 480.852 178.074 479.221L177.584 479.321C177.25 477.682 176.856 476.065 176.407 474.471L176.889 474.335C176.432 472.714 175.919 471.117 175.352 469.544L174.882 469.713C174.317 468.143 173.698 466.597 173.03 465.074L173.488 464.873C172.814 463.338 172.09 461.826 171.321 460.339L170.877 460.568C170.112 459.09 169.301 457.636 168.448 456.205L168.878 455.949C168.021 454.512 167.123 453.098 166.186 451.708L165.771 451.988C164.842 450.609 163.874 449.253 162.872 447.92L163.271 447.62C162.267 446.284 161.228 444.971 160.159 443.682L159.774 444.001C158.712 442.721 157.619 441.463 156.499 440.228L156.87 439.892C155.747 438.653 154.598 437.438 153.426 436.246L153.069 436.596C151.901 435.408 150.71 434.243 149.5 433.101L149.843 432.737C148.626 431.589 147.39 430.463 146.137 429.36L145.807 429.736C144.554 428.632 143.285 427.552 142.003 426.495L142.321 426.109C141.028 425.042 139.722 423.998 138.408 422.977L138.101 423.372C136.778 422.346 135.447 421.343 134.111 420.363L134.407 419.96C133.05 418.966 131.689 417.997 130.328 417.052L130.042 417.462C128.662 416.505 127.281 415.572 125.903 414.664L126.178 414.247C124.769 413.319 123.364 412.417 121.966 411.541L121.7 411.965C120.27 411.068 118.848 410.199 117.439 409.358L117.695 408.929C116.238 408.058 114.794 407.217 113.37 406.405L113.123 406.84C111.644 405.997 110.187 405.185 108.756 404.405L108.995 403.966C107.489 403.146 106.013 402.36 104.573 401.608L104.342 402.052C102.813 401.254 101.325 400.496 99.887 399.777L100.111 399.329C98.5531 398.55 97.0537 397.818 95.6231 397.131L95.4067 397.581C93.8117 396.816 92.302 396.107 90.8925 395.455L91.1023 395.002C89.4346 394.231 87.9071 393.54 86.5444 392.929L86.3398 393.385C85.5125 393.014 84.7458 392.673 84.045 392.36C83.196 391.982 82.4438 391.647 81.7982 391.355L82.0041 390.9C80.9647 390.43 80.2215 390.08 79.7945 389.845L79.765 389.829L79.7336 389.817C79.1105 389.576 78.4927 389.322 77.8805 389.056L77.681 389.514C76.4434 388.976 75.2286 388.387 74.0395 387.748L74.2759 387.308C73.6877 386.992 73.1058 386.664 72.5307 386.324C71.862 385.926 71.2048 385.513 70.5595 385.085L70.2831 385.501C68.97 384.63 67.7055 383.698 66.4929 382.709L66.8089 382.322C65.6018 381.337 64.4468 380.297 63.3472 379.204L62.9948 379.559C61.8797 378.451 60.821 377.29 59.8221 376.081L60.2076 375.763C59.218 374.565 58.2877 373.319 57.4202 372.03L57.0054 372.309C56.1298 371.008 55.3174 369.664 54.5717 368.28L55.0119 368.043C54.2765 366.678 53.6067 365.275 53.0059 363.838L52.5446 364.031C51.941 362.588 51.4063 361.111 50.9437 359.604L51.4217 359.457C51.1942 358.717 50.9843 357.969 50.7925 357.214C50.6007 356.459 50.4279 355.702 50.2741 354.942L49.784 355.042C49.4711 353.497 49.2357 351.944 49.0768 350.387L49.5742 350.336C49.4161 348.787 49.3347 347.235 49.3292 345.684L48.8292 345.686C48.8237 344.114 48.8954 342.545 49.0435 340.983L49.5412 341.031C49.688 339.484 49.9105 337.945 50.2081 336.42L49.7173 336.324C50.0177 334.785 50.3936 333.259 50.8443 331.753L51.3233 331.897C51.7677 330.412 52.2857 328.946 52.8763 327.505L52.4137 327.315C53.007 325.867 53.6728 324.444 54.4105 323.052L54.8523 323.286C55.2151 322.601 55.5954 321.923 55.9931 321.254ZM462.905 174.794L462.933 174.76L462.967 174.788L462.958 174.799L462.905 174.794Z" stroke="#DDDDDD" stroke-dasharray="5 5"/>
<path d="M67.6423 324.538C61.2985 335.214 59.4533 347.973 62.5124 360.009C65.5715 372.044 73.2845 382.373 83.956 388.723C86.2252 390.065 88.6009 391.217 91.0592 392.168C98.193 396.098 187.206 428.915 188.052 491.189C188.523 505.486 192.372 519.469 199.283 531.993C206.194 544.518 215.972 555.229 227.817 563.249C239.661 571.27 253.236 576.373 267.431 578.141C281.627 579.909 296.039 578.292 309.49 573.422L360.288 558.39C384.646 550.65 410.79 550.562 435.198 558.138L506.824 580.383C511.403 582.09 516.074 583.543 520.814 584.734L520.982 584.778C551.953 592.493 584.668 588.811 613.15 574.403C641.633 559.995 663.983 535.823 676.121 506.301C688.258 476.779 689.372 443.877 679.259 413.603C669.146 383.329 648.481 357.703 621.038 341.405C614.863 337.747 608.406 334.587 601.729 331.953L536.089 299.809C518.367 291.126 502.952 278.371 491.107 262.586C479.263 246.801 471.324 228.435 467.942 208.992C466.096 198.416 465.087 184.255 465.332 181.833L465.265 181.779C465.203 157.092 457.044 133.107 442.039 113.505C427.035 93.9017 406.013 79.7632 382.2 73.2577C358.386 66.7523 333.095 68.2391 310.207 77.4903C287.318 86.7414 268.096 103.246 255.49 124.472C255.057 125.211 195.322 234.885 195.322 234.885L195.055 235.352C180.493 261.369 157.047 281.271 129.011 291.414L93.5457 303.874C82.6729 307.359 73.4561 314.711 67.6423 324.538Z" fill="url(#paint0_linear_0_4716)"/>
<defs>
<linearGradient id="paint0_linear_0_4716" x1="551.273" y1="197.897" x2="244.3" y2="577.021" gradientUnits="userSpaceOnUse">
<stop stop-color="#CBFFF6"/>
<stop offset="1" stop-color="#FEF3ED" stop-opacity="0"/>
</linearGradient>
</defs>
</svg>
