<svg width="634" height="622" viewBox="0 0 634 622" fill="none" xmlns="http://www.w3.org/2000/svg">
<path d="M44.8758 258.985L44.8762 258.985C45.2672 258.323 45.6771 257.675 46.105 257.041L45.6912 256.761C46.5639 255.468 47.511 254.235 48.5257 253.067L48.9028 253.395C49.9098 252.235 50.9844 251.14 52.1198 250.114L51.7852 249.743C52.9376 248.701 54.152 247.731 55.4215 246.837L55.7089 247.246C56.9598 246.365 58.2649 245.559 59.6176 244.834L59.3816 244.393C60.7447 243.661 62.1556 243.01 63.6075 242.445L63.7886 242.912C64.5006 242.634 65.2226 242.378 65.9538 242.143L65.9539 242.144L65.967 242.139L68.4034 241.282L68.2377 240.81L73.1106 239.095L73.2764 239.567L78.1493 237.852L77.9835 237.38L82.8565 235.665L83.0222 236.137L87.8952 234.422L87.7294 233.95L92.6023 232.235L92.7681 232.707L95.2046 231.85L95.2089 231.848C96.0307 231.551 96.8477 231.243 97.6598 230.925L97.4778 230.459C99.0991 229.824 100.701 229.149 102.281 228.435L102.487 228.892C104.081 228.172 105.654 227.413 107.204 226.615L106.975 226.17C108.523 225.374 110.047 224.539 111.548 223.668L111.799 224.101C113.31 223.223 114.798 222.307 116.26 221.355L115.988 220.935C117.445 219.986 118.877 219.001 120.282 217.98L120.576 218.385C121.989 217.358 123.376 216.296 124.735 215.199L124.421 214.81C125.774 213.718 127.098 212.592 128.394 211.432L128.727 211.805C130.028 210.641 131.299 209.443 132.54 208.212L132.189 207.857C133.423 206.633 134.626 205.378 135.798 204.092L136.167 204.429C137.342 203.139 138.486 201.818 139.596 200.466L139.21 200.148C140.313 198.807 141.382 197.435 142.418 196.036L142.819 196.334C143.857 194.931 144.86 193.5 145.828 192.042L145.412 191.765C146.372 190.318 147.296 188.845 148.185 187.346L148.615 187.602C149.059 186.851 149.495 186.095 149.921 185.332C149.922 185.331 149.922 185.33 149.923 185.33L149.975 185.237L149.542 184.989L149.652 184.796L150.085 185.045L150.14 184.948L150.14 184.948L150.145 184.939L150.146 184.939L150.146 184.939L150.147 184.937L150.151 184.93L150.166 184.902L150.227 184.79L150.465 184.352L151.382 182.665L150.944 182.425C151.562 181.289 152.394 179.757 153.403 177.902L153.842 178.141L156.337 173.554L155.898 173.314C156.668 171.899 157.494 170.38 158.367 168.774L158.806 169.013L161.295 164.436L160.857 164.197C161.658 162.722 162.488 161.197 163.34 159.631L163.779 159.87L166.255 155.316L165.817 155.077C166.63 153.581 167.458 152.058 168.297 150.517L168.735 150.756L171.217 146.194L170.778 145.955C171.601 144.442 172.429 142.918 173.26 141.391L173.699 141.631L176.181 137.068L175.742 136.828C176.572 135.302 177.401 133.779 178.224 132.266L178.662 132.506L181.143 127.945L180.704 127.705C181.542 126.165 182.37 124.643 183.184 123.148L183.623 123.387L186.1 118.832L185.662 118.593C186.516 117.023 187.347 115.494 188.151 114.017L188.59 114.256L191.076 109.688L190.637 109.448C191.509 107.846 192.334 106.331 193.102 104.918L193.541 105.158C194.459 103.472 195.297 101.932 196.04 100.568L195.601 100.328C196.616 98.4632 197.454 96.9252 198.075 95.7861L198.514 96.026C198.897 95.3234 199.197 94.7729 199.406 94.391C199.51 94.2001 199.591 94.0515 199.648 93.9474L199.715 93.8254L199.735 93.7911C199.738 93.7849 199.74 93.7817 199.74 93.7805C200.167 93.0606 200.604 92.3473 201.049 91.6407L200.626 91.3735C201.525 89.947 202.461 88.5479 203.432 87.1775L203.84 87.4672C204.809 86.0994 205.814 84.7602 206.853 83.4509L206.461 83.1395C207.508 81.8199 208.59 80.5304 209.705 79.2723L210.078 79.6044C211.189 78.3508 212.332 77.1285 213.507 75.9387L213.152 75.5867C214.335 74.3892 215.549 73.2245 216.794 72.0937L217.13 72.4644C218.369 71.3393 219.637 70.2481 220.935 69.1919L220.62 68.8035C221.924 67.742 223.257 66.7156 224.618 65.7257L224.912 66.1306C226.264 65.1471 227.643 64.1998 229.048 63.2898L228.777 62.8696C230.187 61.9563 231.623 61.0805 233.084 60.2434L233.332 60.6777C234.782 59.8472 236.255 59.0548 237.752 58.302L237.527 57.8548C239.027 57.1005 240.549 56.3855 242.093 55.7112L242.293 56.1699C243.059 55.8355 243.83 55.5111 244.606 55.1969C245.382 54.8828 246.161 54.5795 246.944 54.2872L246.769 53.8184C248.347 53.2289 249.937 52.6836 251.539 52.1825L251.688 52.6601C253.286 52.16 254.895 51.7042 256.514 51.2929L256.39 50.8079C258.022 50.3932 259.662 50.0235 261.309 49.6987L261.406 50.1897C263.048 49.8661 264.697 49.5874 266.351 49.3538L266.281 48.8583C267.946 48.6231 269.617 48.4333 271.291 48.289L271.334 48.7875C273 48.6439 274.67 48.5456 276.341 48.4926L276.325 47.9925C278.005 47.9392 279.686 47.9316 281.368 47.9696L281.357 48.4699C283.027 48.5077 284.697 48.5909 286.366 48.7195L286.404 48.2206C288.078 48.3497 289.751 48.5244 291.419 48.7447L291.354 49.2408C293.01 49.4594 294.661 49.7232 296.307 50.0323L296.399 49.5405C298.049 49.8502 299.692 50.2051 301.328 50.6054L301.21 51.0915C302.021 51.29 302.831 51.4998 303.639 51.7207C304.446 51.9416 305.249 52.1733 306.049 52.4155L306.193 51.9365C307.805 52.425 309.401 52.9563 310.978 53.5294L310.808 53.9998C312.382 54.5717 313.938 55.1856 315.474 55.8403L315.67 55.3799C317.218 56.0398 318.747 56.741 320.254 57.4824L320.034 57.9315C321.536 58.6702 323.016 59.4491 324.474 60.2672L324.718 59.8307C326.185 60.654 327.629 61.5168 329.048 62.418L328.781 62.8406C330.193 63.7372 331.581 64.672 332.942 65.644L333.232 65.2366C334.601 66.2135 335.943 67.2277 337.258 68.2782L336.946 68.6693C338.252 69.713 339.531 70.7927 340.78 71.9074L341.113 71.5338C342.366 72.6525 343.591 73.8063 344.785 74.994L344.433 75.349C345.618 76.5274 346.773 77.7394 347.895 78.984L348.266 78.6487C349.39 79.8958 350.483 81.1755 351.543 82.4867L351.155 82.8014C351.68 83.4516 352.197 84.1097 352.706 84.7754C353.215 85.4411 353.714 86.1131 354.203 86.791L354.608 86.4978C355.595 87.8647 356.543 89.2556 357.451 90.6688L357.031 90.9396C357.938 92.35 358.805 93.7827 359.631 95.236L360.065 94.9885C360.898 96.4533 361.69 97.9389 362.441 99.4435L361.994 99.6671C362.742 101.166 363.449 102.684 364.114 104.22L364.572 104.021C365.241 105.566 365.868 107.129 366.452 108.707L365.984 108.881C366.565 110.451 367.103 112.037 367.599 113.637L368.076 113.489C368.574 115.096 369.028 116.718 369.439 118.351L368.954 118.473C369.362 120.096 369.726 121.731 370.046 123.376L370.536 123.28C370.857 124.931 371.134 126.592 371.365 128.262L370.87 128.33C371.1 129.987 371.286 131.651 371.426 133.323L371.924 133.281C372.064 134.956 372.16 136.637 372.209 138.323L371.71 138.337C371.735 139.173 371.748 140.011 371.75 140.849L371.751 141.087L371.788 141.117C371.761 141.679 371.778 142.588 371.829 143.727L372.328 143.705C372.395 145.206 372.525 147.154 372.713 149.333L372.215 149.376C372.367 151.138 372.556 153.051 372.78 155.001L373.276 154.944C373.49 156.808 373.735 158.705 374.009 160.536L373.515 160.61C373.657 161.563 373.807 162.5 373.965 163.405C374.104 164.208 374.253 165.009 374.412 165.808L374.902 165.711C375.217 167.303 375.57 168.887 375.959 170.459L375.474 170.58C375.866 172.163 376.294 173.735 376.759 175.296L377.238 175.153C377.702 176.708 378.201 178.251 378.737 179.781L378.266 179.947C378.804 181.485 379.379 183.01 379.989 184.521L380.452 184.333C381.059 185.837 381.702 187.326 382.379 188.8L381.926 189.009C382.606 190.489 383.322 191.953 384.071 193.401L384.515 193.17C385.26 194.609 386.04 196.031 386.854 197.435L386.421 197.686C387.238 199.095 388.088 200.485 388.971 201.856L389.39 201.585C390.267 202.946 391.177 204.288 392.12 205.61L391.713 205.901C392.186 206.564 392.666 207.221 393.155 207.874C393.644 208.526 394.14 209.172 394.643 209.812L395.036 209.502C396.039 210.778 397.071 212.028 398.131 213.252L397.754 213.58C398.821 214.812 399.916 216.018 401.038 217.197L401.399 216.851C402.518 218.026 403.663 219.173 404.834 220.293L404.489 220.654C405.666 221.78 406.87 222.877 408.099 223.946L408.426 223.568C409.649 224.631 410.897 225.665 412.169 226.67L411.859 227.063C413.137 228.072 414.438 229.051 415.763 229.999L416.053 229.592C417.37 230.534 418.709 231.446 420.071 232.327L419.8 232.747C421.166 233.631 422.553 234.483 423.962 235.302L424.212 234.869C425.611 235.683 427.03 236.465 428.469 237.213L428.239 237.657C428.961 238.033 429.687 238.4 430.418 238.759L430.638 238.31L430.418 238.759L432.673 239.865L432.893 239.416L437.402 241.627L437.182 242.077L441.692 244.289L441.912 243.839L446.421 246.051L446.201 246.501L450.711 248.713L450.931 248.263L455.44 250.475L455.22 250.924L459.73 253.136L459.95 252.687L464.459 254.899L464.239 255.348L468.749 257.56L468.969 257.111L473.478 259.323L473.258 259.772L477.768 261.984L477.988 261.535L482.497 263.747L482.277 264.196L484.532 265.302L484.55 265.311L484.569 265.318C485.253 265.589 485.935 265.866 486.614 266.15L486.807 265.688C488.171 266.259 489.524 266.857 490.865 267.481L490.654 267.935C491.989 268.556 493.311 269.205 494.62 269.879L494.848 269.434C496.163 270.112 497.464 270.815 498.752 271.544L498.506 271.98C499.146 272.343 499.783 272.712 500.416 273.088C501.113 273.503 501.805 273.924 502.491 274.353L502.755 273.929C504.138 274.794 505.499 275.688 506.837 276.61L506.554 277.022C507.891 277.943 509.204 278.893 510.495 279.87L510.796 279.471C512.096 280.455 513.372 281.466 514.623 282.505L514.305 282.89C515.553 283.926 516.778 284.989 517.977 286.077L518.312 285.707C519.519 286.802 520.7 287.923 521.855 289.07L521.503 289.425C522.655 290.568 523.78 291.735 524.878 292.927L525.245 292.588C526.349 293.786 527.426 295.008 528.475 296.253L528.093 296.576C529.138 297.816 530.155 299.079 531.143 300.364L531.539 300.059C532.532 301.35 533.496 302.663 534.431 303.997L534.022 304.285C534.952 305.612 535.853 306.961 536.723 308.33L537.145 308.061C538.018 309.434 538.862 310.828 539.675 312.241L539.242 312.491C540.05 313.895 540.828 315.319 541.574 316.761L542.018 316.531C542.765 317.976 543.482 319.439 544.167 320.92L543.713 321.13C544.393 322.6 545.041 324.087 545.656 325.59L546.119 325.401C546.735 326.906 547.319 328.427 547.87 329.964L547.399 330.133C547.673 330.896 547.938 331.662 548.195 332.432C548.452 333.203 548.7 333.975 548.939 334.749L549.416 334.601C549.898 336.161 550.344 337.729 550.755 339.303L550.272 339.43C550.682 341.002 551.057 342.581 551.396 344.165L551.884 344.06C552.225 345.656 552.531 347.258 552.8 348.863L552.307 348.946C552.576 350.547 552.809 352.153 553.006 353.762L553.502 353.702C553.7 355.321 553.862 356.943 553.988 358.567L553.49 358.605C553.615 360.224 553.704 361.844 553.758 363.465L554.257 363.448C554.311 365.078 554.328 366.708 554.309 368.337L553.809 368.331C553.791 369.954 553.736 371.575 553.645 373.195L554.144 373.224C554.052 374.851 553.925 376.476 553.761 378.098L553.264 378.047C553.102 379.661 552.903 381.271 552.669 382.877L553.163 382.95C552.928 384.561 552.657 386.169 552.35 387.77L551.859 387.676C551.554 389.268 551.213 390.854 550.837 392.433L551.323 392.55C550.946 394.133 550.533 395.71 550.085 397.279L549.604 397.141C549.159 398.698 548.679 400.248 548.164 401.788L548.637 401.947C548.121 403.49 547.57 405.024 546.984 406.547L546.518 406.367C546.227 407.123 545.927 407.877 545.619 408.628C545.311 409.379 544.995 410.126 544.67 410.868L545.128 411.069C544.475 412.565 543.79 414.043 543.073 415.504L542.625 415.283C541.909 416.741 541.162 418.181 540.385 419.602L540.823 419.842C540.04 421.274 539.226 422.685 538.382 424.077L537.955 423.817C537.113 425.205 536.241 426.572 535.34 427.919L535.755 428.198C534.849 429.552 533.913 430.886 532.948 432.197L532.546 431.9C531.585 433.207 530.595 434.492 529.577 435.753L529.966 436.068C528.943 437.336 527.893 438.581 526.815 439.802L526.441 439.47C525.368 440.686 524.268 441.877 523.142 443.044L523.501 443.392C522.37 444.563 521.213 445.71 520.031 446.83L519.688 446.467C518.511 447.581 517.31 448.67 516.085 449.732L516.412 450.111C515.182 451.176 513.928 452.215 512.65 453.226L512.34 452.834C511.07 453.839 509.777 454.816 508.461 455.765L508.753 456.171C507.435 457.123 506.093 458.046 504.73 458.94L504.456 458.521C503.103 459.408 501.728 460.267 500.332 461.095L500.587 461.526C499.19 462.356 497.772 463.155 496.334 463.925L496.098 463.483C495.384 463.865 494.666 464.239 493.942 464.606C493.219 464.973 492.492 465.331 491.762 465.68L491.978 466.132C490.507 466.836 489.024 467.506 487.529 468.142L487.334 467.681C485.84 468.316 484.336 468.917 482.82 469.483L482.995 469.952C481.469 470.522 479.932 471.058 478.385 471.558L478.231 471.082C476.689 471.581 475.136 472.046 473.576 472.475L473.708 472.957C472.138 473.389 470.56 473.785 468.974 474.146L468.863 473.658C467.283 474.018 465.695 474.342 464.102 474.631L464.191 475.123C462.59 475.413 460.982 475.667 459.37 475.886L459.303 475.39C457.698 475.607 456.088 475.789 454.474 475.934L454.519 476.433C452.899 476.579 451.275 476.689 449.649 476.763L449.626 476.263C448.009 476.337 446.389 476.374 444.769 476.375L444.769 476.876C443.143 476.877 441.516 476.842 439.889 476.771L439.911 476.271C438.294 476.2 436.677 476.093 435.062 475.95L435.018 476.449C433.399 476.305 431.781 476.125 430.166 475.909L430.232 475.413C428.629 475.199 427.028 474.948 425.431 474.661L425.343 475.154C423.744 474.867 422.149 474.544 420.558 474.184L420.668 473.696C419.88 473.518 419.094 473.331 418.308 473.135C418.307 473.135 418.305 473.134 418.304 473.134L418.274 473.126L418.149 473.611L418.08 473.593L418.205 473.108L418.17 473.099L418.167 473.098C417.194 472.854 416.226 472.595 415.261 472.324L415.126 472.806C413.186 472.26 411.263 471.661 409.356 471.008L409.518 470.535C408.569 470.21 407.625 469.872 406.686 469.522L406.673 469.517L406.659 469.513L404.199 468.747L404.051 469.225L399.13 467.694L399.278 467.217L394.357 465.686L394.209 466.164L389.289 464.633L389.437 464.155L384.516 462.625L384.368 463.102L379.447 461.572L379.595 461.094L374.675 459.563L374.527 460.041L369.606 458.51L369.754 458.032L364.833 456.502L364.685 456.98L359.764 455.449L359.912 454.971L354.992 453.44L354.844 453.918L349.923 452.388L350.071 451.91L347.611 451.144C346.774 450.884 345.934 450.635 345.092 450.396L344.957 450.878C343.277 450.402 341.589 449.97 339.893 449.582L340.004 449.094C338.295 448.702 336.579 448.355 334.857 448.051L334.77 448.544C333.052 448.241 331.329 447.983 329.602 447.768L329.663 447.271C327.924 447.055 326.182 446.884 324.437 446.757L324.4 447.256C322.662 447.129 320.921 447.046 319.18 447.008L319.191 446.508C317.44 446.469 315.689 446.475 313.939 446.525L313.954 447.026C312.213 447.076 310.473 447.17 308.735 447.309L308.696 446.81C306.952 446.949 305.21 447.132 303.473 447.36L303.538 447.856C301.812 448.082 300.091 448.353 298.375 448.667L298.285 448.175C296.565 448.49 294.852 448.849 293.145 449.252L293.26 449.739C291.567 450.139 289.882 450.582 288.206 451.069L288.067 450.588C287.229 450.832 286.393 451.086 285.56 451.352C285.558 451.352 285.556 451.353 285.554 451.353L282.947 452.126L283.088 452.606L277.854 454.157L277.712 453.678L272.477 455.229L272.619 455.709L267.384 457.26L267.242 456.781L262.007 458.332L262.149 458.812L256.915 460.364L256.773 459.884L251.538 461.435L251.68 461.915L246.445 463.467L246.303 462.987L243.686 463.763L243.671 463.767L243.657 463.772C242.972 464.021 242.283 464.259 241.591 464.487L241.748 464.962C240.352 465.422 238.945 465.84 237.528 466.216L237.4 465.733C235.99 466.107 234.57 466.439 233.143 466.729L233.243 467.22C231.804 467.512 230.357 467.761 228.905 467.968L228.835 467.473C227.392 467.678 225.943 467.841 224.49 467.961L224.531 468.46C223.069 468.581 221.604 468.658 220.136 468.693L220.124 468.192C218.668 468.227 217.21 468.218 215.752 468.166L215.735 468.666C214.27 468.614 212.805 468.518 211.342 468.38L211.389 467.881C210.664 467.813 209.94 467.733 209.216 467.643C208.492 467.552 207.77 467.452 207.051 467.34L206.975 467.835C205.523 467.61 204.079 467.343 202.647 467.033L202.752 466.544C201.326 466.236 199.91 465.887 198.507 465.496L198.374 465.978C196.959 465.584 195.557 465.149 194.17 464.672L194.332 464.199C192.953 463.726 191.588 463.212 190.239 462.658L190.05 463.121C188.693 462.564 187.352 461.967 186.028 461.33L186.245 460.879C184.932 460.247 183.637 459.576 182.362 458.867L182.119 459.304C180.838 458.592 179.576 457.841 178.336 457.052L178.603 456.629C177.989 456.238 177.379 455.838 176.775 455.428C176.171 455.019 175.574 454.601 174.983 454.174L174.691 454.58C173.499 453.719 172.335 452.825 171.199 451.897L171.514 451.51C170.383 450.587 169.28 449.631 168.207 448.645L167.87 449.014C166.788 448.019 165.736 446.994 164.716 445.939L165.075 445.59C164.061 444.542 163.078 443.463 162.127 442.356L161.749 442.683C160.792 441.569 159.868 440.427 158.978 439.258L159.375 438.954C158.492 437.794 157.642 436.608 156.828 435.396L156.413 435.675C155.595 434.458 154.811 433.215 154.064 431.948L154.494 431.693C154.123 431.065 153.762 430.431 153.409 429.792C153.057 429.152 152.714 428.508 152.381 427.859L151.937 428.088C151.265 426.779 150.633 425.452 150.041 424.109L150.498 423.907C149.909 422.57 149.359 421.218 148.851 419.851L148.382 420.026C147.869 418.648 147.397 417.256 146.967 415.851L147.444 415.705C147.016 414.309 146.629 412.901 146.284 411.483L145.799 411.601C145.451 410.174 145.146 408.736 144.883 407.289L145.374 407.2C145.113 405.765 144.894 404.321 144.718 402.87L144.222 402.931C144.044 401.474 143.91 400.01 143.818 398.541L144.317 398.51C144.272 397.784 144.237 397.056 144.213 396.327C144.201 395.472 144.17 394.622 144.119 393.78L143.62 393.81C143.517 392.117 143.336 390.451 143.082 388.812L143.575 388.735C143.313 387.049 142.974 385.392 142.564 383.763L142.08 383.886C141.668 382.252 141.183 380.647 140.632 379.071L141.104 378.905C140.544 377.305 139.917 375.735 139.227 374.194L138.771 374.399C138.085 372.868 137.338 371.366 136.534 369.894L136.972 369.654C136.163 368.173 135.298 366.721 134.383 365.3L133.963 365.571C133.057 364.163 132.101 362.785 131.101 361.435L131.502 361.137C130.499 359.784 129.453 358.46 128.369 357.165L127.986 357.487C126.91 356.203 125.797 354.948 124.652 353.721L125.017 353.379C123.867 352.148 122.685 350.945 121.477 349.772L121.129 350.131C119.925 348.961 118.695 347.82 117.444 346.708L117.776 346.334C116.514 345.212 115.232 344.119 113.936 343.056L113.619 343.443C112.317 342.375 111 341.337 109.674 340.328L109.976 339.929C108.628 338.904 107.271 337.909 105.912 336.945L105.623 337.353C104.241 336.372 102.855 335.423 101.473 334.505L101.749 334.088C100.328 333.145 98.9105 332.234 97.5039 331.357L97.2399 331.782C95.7917 330.878 94.3547 330.01 92.9367 329.177L93.1895 328.745C91.7091 327.875 90.2494 327.043 88.8194 326.249L88.5773 326.687C87.0652 325.848 85.5861 325.051 84.1505 324.296L84.3825 323.853C82.8295 323.037 81.3273 322.271 79.8893 321.554L79.6669 322.002C78.0755 321.209 76.5626 320.477 75.1462 319.806L75.3598 319.354C73.6961 318.565 72.1654 317.861 70.797 317.24L70.591 317.696C69.3831 317.148 68.3015 316.666 67.3659 316.248C66.864 316.024 66.4042 315.819 65.9895 315.633L66.1939 315.176C65.1322 314.699 64.3901 314.355 63.9923 314.136L63.9629 314.12L63.9315 314.107C63.4314 313.914 62.9354 313.71 62.444 313.495L62.2448 313.954C61.2489 313.52 60.2712 313.045 59.3144 312.531L59.5506 312.09C59.0783 311.836 58.6113 311.573 58.1496 311.299C57.4333 310.872 56.7335 310.423 56.0508 309.953L55.7678 310.366C54.3733 309.405 53.0495 308.359 51.8027 307.234L52.137 306.862C50.8985 305.745 49.7371 304.551 48.6593 303.286L48.2794 303.611C47.1852 302.328 46.1759 300.974 45.2581 299.559L45.6771 299.286C44.7731 297.892 43.959 296.438 43.2414 294.931L42.7905 295.146C42.0681 293.63 41.4421 292.061 40.9191 290.45L41.3942 290.295C41.138 289.506 40.9068 288.706 40.7014 287.896C40.4959 287.086 40.3176 286.273 40.1663 285.456L39.6751 285.547C39.3663 283.881 39.1686 282.203 39.0804 280.525L39.5793 280.498C39.4917 278.831 39.5135 277.164 39.6433 275.506L39.1452 275.467C39.2769 273.785 39.5184 272.113 39.868 270.462L40.3568 270.566C40.7012 268.939 41.152 267.334 41.7076 265.76L41.2366 265.593C41.7959 264.009 42.46 262.456 43.2275 260.946L43.6728 261.173C44.0487 260.433 44.4498 259.704 44.8758 258.985ZM372.242 140.886L372.264 140.859L372.291 140.881L372.284 140.89L372.242 140.886Z" stroke="#DDDDDD" stroke-dasharray="5 5"/>
<path d="M60.2837 261.753C55.3581 270.056 53.9255 279.978 56.3007 289.338C58.6759 298.698 64.6645 306.73 72.9503 311.669C74.7121 312.712 76.5567 313.608 78.4654 314.348C84.0044 317.405 153.117 342.926 153.774 391.355C154.14 402.474 157.128 413.348 162.494 423.088C167.86 432.829 175.452 441.158 184.649 447.396C193.845 453.633 204.385 457.602 215.407 458.977C226.429 460.352 237.619 459.094 248.063 455.307L287.504 443.617C306.416 437.597 326.716 437.529 345.667 443.421L401.28 460.72C404.835 462.048 408.462 463.178 412.142 464.104L412.273 464.138C436.32 470.138 461.72 467.275 483.835 456.07C505.95 444.865 523.304 426.067 532.728 403.108C542.152 380.149 543.016 354.561 535.165 331.018C527.313 307.474 511.268 287.545 489.96 274.87C485.165 272.026 480.152 269.568 474.967 267.52L424.002 242.521C410.242 235.769 398.274 225.849 389.077 213.574C379.88 201.298 373.717 187.015 371.091 171.894C369.657 163.67 368.874 152.657 369.064 150.773L369.012 150.731C368.964 131.532 362.629 112.88 350.979 97.635C339.329 82.3902 323.007 71.3948 304.517 66.3356C286.027 61.2764 266.391 62.4327 248.619 69.6272C230.848 76.8217 215.923 89.657 206.135 106.164C205.799 106.739 159.419 192.031 159.419 192.031L159.212 192.394C147.905 212.627 129.701 228.105 107.932 235.993L80.396 245.683C71.954 248.393 64.7977 254.111 60.2837 261.753Z" fill="url(#paint0_linear_0_4546)"/>
<defs>
<linearGradient id="paint0_linear_0_4546" x1="435.791" y1="163.266" x2="196.983" y2="457.729" gradientUnits="userSpaceOnUse">
<stop stop-color="#EDEFFE"/>
<stop offset="1" stop-color="#FEF3ED" stop-opacity="0"/>
</linearGradient>
</defs>
</svg>
