<svg width="634" height="621" viewBox="0 0 634 621" fill="none" xmlns="http://www.w3.org/2000/svg">
<path d="M44.8761 258.569L44.8766 258.568C45.2675 257.907 45.6774 257.26 46.1054 256.627L45.6912 256.347C46.564 255.057 47.5111 253.826 48.5259 252.659L48.9031 252.987C49.9102 251.829 50.9848 250.736 52.1203 249.712L51.7854 249.34C52.9378 248.301 54.1522 247.332 55.4218 246.44L55.7093 246.849C56.9602 245.969 58.2653 245.164 59.618 244.44L59.3819 243.999C60.745 243.269 62.1558 242.619 63.6076 242.055L63.7888 242.521C64.5007 242.244 65.2227 241.988 65.9538 241.754L65.9539 241.754L65.967 241.75L68.4034 240.894L68.2377 240.422L73.1106 238.71L73.2763 239.182L78.1493 237.47L77.9835 236.998L82.8565 235.286L83.0222 235.757L87.8951 234.045L87.7294 233.574L92.6023 231.862L92.7681 232.333L95.2045 231.477L95.2089 231.476C96.0306 231.178 96.8476 230.871 97.6597 230.554L97.4776 230.088C99.0989 229.454 100.7 228.781 102.281 228.068L102.486 228.524C104.08 227.805 105.653 227.047 107.203 226.251L106.975 225.806C108.522 225.011 110.047 224.178 111.547 223.308L111.798 223.741C113.31 222.864 114.797 221.95 116.259 220.999L115.987 220.58C117.444 219.633 118.876 218.649 120.282 217.63L120.575 218.034C121.989 217.009 123.376 215.949 124.734 214.854L124.421 214.464C125.773 213.374 127.098 212.25 128.393 211.092L128.726 211.465C130.027 210.302 131.299 209.106 132.54 207.878L132.188 207.523C133.422 206.301 134.626 205.048 135.797 203.764L136.167 204.101C137.342 202.813 138.486 201.493 139.596 200.144L139.21 199.826C140.312 198.487 141.382 197.118 142.417 195.72L142.819 196.018C143.857 194.618 144.86 193.189 145.828 191.733L145.412 191.456C146.372 190.012 147.296 188.541 148.185 187.045L148.615 187.3C149.06 186.551 149.495 185.795 149.922 185.033C149.922 185.033 149.922 185.032 149.923 185.031L149.976 184.939L149.542 184.691L149.652 184.499L150.086 184.747L150.141 184.651L150.146 184.642L150.146 184.642L150.146 184.641L150.147 184.639L150.151 184.632L150.166 184.604L150.227 184.493L150.465 184.055L151.383 182.371L150.944 182.132C151.562 180.997 152.394 179.468 153.403 177.616L153.842 177.855L156.337 173.275L155.898 173.035C156.668 171.622 157.494 170.106 158.367 168.502L158.806 168.742L161.296 164.172L160.857 163.933C161.658 162.461 162.488 160.937 163.34 159.374L163.779 159.613L166.256 155.066L165.817 154.827C166.63 153.333 167.458 151.813 168.297 150.275L168.736 150.514L171.217 145.959L170.778 145.72C171.601 144.209 172.429 142.688 173.26 141.164L173.699 141.403L176.181 136.847L175.742 136.608C176.572 135.084 177.401 133.564 178.224 132.053L178.663 132.292L181.144 127.739L180.705 127.5C181.542 125.962 182.37 124.442 183.184 122.949L183.623 123.189L186.101 118.641L185.662 118.402C186.516 116.835 187.347 115.309 188.151 113.833L188.59 114.073L191.076 109.511L190.637 109.272C191.509 107.673 192.334 106.16 193.102 104.749L193.541 104.989C194.459 103.305 195.297 101.768 196.04 100.406L195.601 100.167C196.616 98.3047 197.454 96.7691 198.075 95.6319L198.514 95.8715C198.897 95.1701 199.197 94.6204 199.406 94.2392C199.51 94.0486 199.592 93.9003 199.649 93.7963L199.716 93.6745L199.735 93.6402C199.738 93.634 199.74 93.6308 199.741 93.6297C200.168 92.9109 200.604 92.1987 201.049 91.4933L200.626 91.2264C201.525 89.8022 202.461 88.4053 203.432 87.037L203.84 87.3265C204.809 85.9609 205.814 84.6238 206.853 83.3166L206.462 83.0055C207.509 81.688 208.59 80.4005 209.705 79.1444L210.079 79.4763C211.189 78.2246 212.333 77.0043 213.508 75.8164L213.152 75.4648C214.335 74.2692 215.55 73.1063 216.795 71.9773L217.13 72.3477C218.369 71.2244 219.638 70.1349 220.936 69.0804L220.62 68.6924C221.925 67.6326 223.258 66.6079 224.619 65.6196L224.912 66.0242C226.264 65.0423 227.644 64.0965 229.049 63.188L228.777 62.7681C230.188 61.8564 231.624 60.982 233.085 60.1462L233.333 60.5802C234.782 59.751 236.256 58.96 237.752 58.2084L237.528 57.7616C239.027 57.0085 240.55 56.2947 242.093 55.6215L242.293 56.0798C243.059 55.746 243.83 55.4221 244.606 55.1085C245.382 54.7948 246.161 54.492 246.944 54.2001L246.769 53.7317C248.347 53.1431 249.938 52.5986 251.539 52.0983L251.688 52.5756C253.287 52.0763 254.896 51.6212 256.515 51.2105L256.392 50.7258C258.023 50.3119 259.663 49.9427 261.311 49.6185L261.407 50.1091C263.049 49.786 264.698 49.5078 266.353 49.2746L266.283 48.7795C267.948 48.5447 269.619 48.3552 271.293 48.2111L271.336 48.7093C273.002 48.5659 274.671 48.4678 276.343 48.4149L276.327 47.9152C278.006 47.8621 279.688 47.8545 281.369 47.8925L281.358 48.3923C283.028 48.4301 284.699 48.5132 286.367 48.6416L286.405 48.1431C288.079 48.272 289.752 48.4464 291.42 48.6664L291.355 49.1621C293.01 49.3804 294.662 49.6437 296.308 49.9523L296.4 49.4609C298.049 49.7701 299.693 50.1244 301.329 50.524L301.21 51.0098C302.021 51.2079 302.831 51.4173 303.638 51.6379C304.446 51.8585 305.249 52.0897 306.049 52.3316L306.193 51.853C307.805 52.3407 309.401 52.8711 310.978 53.4433L310.808 53.9134C312.382 54.4844 313.938 55.0973 315.474 55.751L315.67 55.2909C317.218 55.9497 318.747 56.6498 320.254 57.39L320.034 57.8388C321.536 58.5764 323.016 59.354 324.474 60.1708L324.718 59.7346C326.185 60.5566 327.629 61.418 329.049 62.3177L328.781 62.74C330.193 63.6352 331.581 64.5685 332.942 65.5389L333.233 65.1317C334.601 66.1071 335.943 67.1196 337.258 68.1684L336.946 68.5593C338.252 69.6013 339.531 70.6793 340.78 71.7921L341.113 71.4188C342.367 72.5357 343.591 73.6875 344.785 74.8733L344.433 75.2281C345.618 76.4046 346.772 77.6147 347.895 78.8573L348.266 78.5221C349.39 79.7672 350.483 81.0448 351.543 82.3539L351.154 82.6685C351.68 83.3177 352.197 83.9747 352.706 84.6393C353.214 85.3039 353.713 85.9748 354.203 86.6515L354.608 86.3584C355.595 87.723 356.543 89.1116 357.451 90.5225L357.031 90.7931C357.937 92.2011 358.804 93.6315 359.63 95.0823L360.065 94.8349C360.898 96.2972 361.69 97.7804 362.44 99.2825L361.993 99.506C362.741 101.003 363.448 102.518 364.113 104.051L364.571 103.852C365.241 105.395 365.867 106.955 366.452 108.531L365.983 108.705C366.564 110.273 367.103 111.856 367.598 113.453L368.076 113.305C368.573 114.91 369.028 116.529 369.438 118.159L368.953 118.281C369.361 119.902 369.725 121.534 370.045 123.176L370.536 123.081C370.857 124.729 371.134 126.387 371.365 128.054L370.87 128.123C371.1 129.777 371.285 131.439 371.425 133.108L371.924 133.066C372.064 134.738 372.16 136.416 372.209 138.1L371.71 138.115C371.734 138.949 371.748 139.785 371.75 140.622L371.751 140.86L371.788 140.891C371.761 141.451 371.777 142.359 371.828 143.496L372.328 143.474C372.395 144.972 372.525 146.917 372.713 149.093L372.215 149.136C372.367 150.895 372.556 152.805 372.78 154.752L373.276 154.695C373.49 156.555 373.735 158.449 374.009 160.278L373.514 160.352C373.657 161.304 373.807 162.238 373.965 163.142C374.104 163.944 374.253 164.744 374.411 165.541L374.902 165.444C375.217 167.034 375.57 168.615 375.959 170.185L375.474 170.306C375.865 171.887 376.294 173.457 376.759 175.015L377.238 174.872C377.702 176.424 378.202 177.965 378.737 179.492L378.265 179.658C378.804 181.194 379.379 182.717 379.989 184.225L380.452 184.037C381.06 185.539 381.702 187.026 382.38 188.497L381.926 188.706C382.606 190.183 383.322 191.645 384.071 193.09L384.515 192.86C385.261 194.297 386.04 195.716 386.854 197.118L386.421 197.369C387.238 198.775 388.087 200.163 388.97 201.532L389.391 201.261C390.268 202.62 391.178 203.96 392.12 205.279L391.713 205.57C392.185 206.232 392.666 206.888 393.155 207.539C393.644 208.191 394.14 208.836 394.643 209.474L395.036 209.165C396.039 210.438 397.071 211.687 398.131 212.909L397.753 213.236C398.82 214.467 399.916 215.671 401.038 216.847L401.4 216.502C402.518 217.675 403.663 218.821 404.834 219.938L404.489 220.3C405.666 221.424 406.87 222.519 408.098 223.586L408.426 223.208C409.649 224.27 410.897 225.302 412.169 226.305L411.859 226.698C413.137 227.705 414.438 228.682 415.762 229.629L416.053 229.222C417.37 230.163 418.709 231.074 420.071 231.953L419.799 232.373C421.165 233.255 422.553 234.106 423.961 234.924L424.212 234.491C425.611 235.304 427.03 236.084 428.469 236.832L428.239 237.275C428.96 237.65 429.687 238.017 430.418 238.375L430.638 237.926L430.418 238.375L432.673 239.479L432.893 239.03L437.402 241.239L437.182 241.688L441.692 243.896L441.912 243.447L446.421 245.655L446.201 246.104L450.711 248.313L450.931 247.864L455.44 250.072L455.22 250.521L459.73 252.729L459.95 252.28L464.459 254.489L464.239 254.938L468.749 257.146L468.969 256.697L473.478 258.905L473.258 259.354L477.768 261.563L477.988 261.114L482.497 263.322L482.277 263.771L484.532 264.875L484.55 264.884L484.568 264.891C485.253 265.162 485.935 265.438 486.614 265.722L486.807 265.261C488.171 265.83 489.524 266.427 490.865 267.051L490.654 267.504C491.989 268.125 493.311 268.772 494.62 269.445L494.849 269.001C496.163 269.677 497.464 270.379 498.752 271.107L498.505 271.543C499.146 271.905 499.783 272.274 500.416 272.649C501.113 273.063 501.805 273.484 502.491 273.912L502.755 273.488C504.138 274.352 505.499 275.244 506.837 276.165L506.554 276.577C507.89 277.496 509.204 278.444 510.494 279.42L510.796 279.021C512.095 280.003 513.372 281.013 514.623 282.05L514.304 282.435C515.553 283.469 516.777 284.53 517.976 285.617L518.312 285.246C519.518 286.34 520.7 287.46 521.855 288.604L521.503 288.959C522.654 290.1 523.779 291.266 524.877 292.455L525.244 292.116C526.348 293.312 527.425 294.532 528.474 295.776L528.092 296.098C529.137 297.336 530.154 298.597 531.142 299.88L531.538 299.575C532.531 300.864 533.495 302.175 534.43 303.507L534.021 303.795C534.951 305.12 535.852 306.466 536.723 307.833L537.144 307.564C538.018 308.936 538.862 310.327 539.675 311.738L539.242 311.988C540.05 313.39 540.827 314.811 541.573 316.251L542.017 316.021C542.765 317.463 543.482 318.925 544.167 320.403L543.713 320.613C544.393 322.081 545.04 323.565 545.656 325.066L546.119 324.877C546.735 326.38 547.319 327.899 547.87 329.433L547.399 329.602C547.672 330.363 547.937 331.129 548.194 331.898C548.451 332.667 548.699 333.438 548.938 334.21L549.416 334.063C549.898 335.62 550.344 337.185 550.755 338.757L550.271 338.883C550.682 340.453 551.056 342.029 551.395 343.61L551.884 343.506C552.225 345.099 552.531 346.697 552.8 348.3L552.307 348.383C552.576 349.982 552.808 351.585 553.005 353.192L553.502 353.131C553.7 354.747 553.862 356.366 553.988 357.988L553.489 358.026C553.615 359.642 553.704 361.26 553.757 362.878L554.257 362.861C554.311 364.488 554.328 366.116 554.309 367.742L553.809 367.737C553.79 369.356 553.735 370.976 553.645 372.593L554.144 372.621C554.053 374.245 553.925 375.868 553.762 377.487L553.264 377.437C553.102 379.048 552.903 380.656 552.669 382.259L553.163 382.332C552.928 383.941 552.657 385.545 552.35 387.145L551.859 387.05C551.554 388.64 551.213 390.223 550.837 391.801L551.323 391.917C550.946 393.498 550.533 395.072 550.085 396.638L549.604 396.501C549.159 398.056 548.679 399.603 548.164 401.141L548.638 401.3C548.122 402.84 547.57 404.371 546.984 405.893L546.518 405.713C546.227 406.468 545.927 407.22 545.619 407.97C545.311 408.72 544.994 409.466 544.67 410.207L545.128 410.407C544.475 411.901 543.79 413.377 543.073 414.835L542.624 414.614C541.909 416.07 541.162 417.508 540.384 418.926L540.823 419.167C540.04 420.596 539.226 422.005 538.382 423.394L537.955 423.134C537.113 424.52 536.241 425.886 535.34 427.23L535.755 427.508C534.849 428.861 533.913 430.193 532.948 431.502L532.546 431.205C531.584 432.51 530.595 433.793 529.577 435.052L529.966 435.366C528.943 436.633 527.893 437.875 526.815 439.094L526.44 438.763C525.367 439.977 524.267 441.166 523.141 442.331L523.501 442.678C522.37 443.848 521.213 444.993 520.031 446.111L519.687 445.748C518.511 446.861 517.31 447.948 516.084 449.008L516.411 449.386C515.182 450.45 513.927 451.488 512.65 452.497L512.34 452.105C511.07 453.108 509.777 454.084 508.461 455.032L508.753 455.437C507.434 456.387 506.093 457.309 504.73 458.201L504.456 457.783C503.102 458.669 501.728 459.526 500.332 460.353L500.587 460.783C499.19 461.612 497.771 462.41 496.334 463.178L496.098 462.737C495.384 463.118 494.666 463.492 493.942 463.858C493.219 464.224 492.492 464.581 491.762 464.931L491.978 465.382C490.507 466.085 489.024 466.754 487.528 467.389L487.333 466.929C485.84 467.563 484.335 468.163 482.819 468.728L482.994 469.196C481.468 469.766 479.93 470.3 478.384 470.8L478.23 470.324C476.687 470.823 475.135 471.286 473.574 471.714L473.707 472.197C472.136 472.628 470.558 473.023 468.972 473.384L468.861 472.896C467.281 473.255 465.694 473.579 464.1 473.867L464.189 474.359C462.588 474.649 460.98 474.902 459.368 475.12L459.301 474.625C457.696 474.842 456.086 475.023 454.472 475.168L454.517 475.666C452.897 475.812 451.273 475.922 449.647 475.996L449.625 475.496C448.007 475.57 446.387 475.607 444.767 475.608L444.767 476.108C443.141 476.11 441.514 476.075 439.887 476.004L439.909 475.504C438.292 475.433 436.676 475.327 435.061 475.184L435.017 475.682C433.398 475.538 431.78 475.359 430.165 475.143L430.231 474.648C428.628 474.433 427.028 474.183 425.431 473.897L425.343 474.389C423.744 474.102 422.149 473.78 420.558 473.421L420.668 472.933C419.88 472.755 419.093 472.569 418.307 472.373C418.306 472.373 418.305 472.373 418.304 472.372L418.275 472.365L418.149 472.848L418.08 472.831L418.205 472.347L418.171 472.338L418.167 472.337C417.195 472.092 416.226 471.834 415.261 471.563L415.126 472.045C413.186 471.5 411.263 470.902 409.356 470.25L409.518 469.777C408.57 469.453 407.625 469.116 406.686 468.766L406.673 468.761L406.66 468.757L404.199 467.992L404.051 468.47L399.13 466.942L399.278 466.464L394.358 464.936L394.209 465.414L389.289 463.885L389.437 463.408L384.516 461.88L384.368 462.357L379.447 460.829L379.596 460.351L374.675 458.823L374.527 459.301L369.606 457.772L369.754 457.295L364.833 455.767L364.685 456.244L359.764 454.716L359.913 454.239L354.992 452.71L354.844 453.188L349.923 451.66L350.071 451.182L347.611 450.418L347.463 450.895L347.611 450.418C346.774 450.158 345.935 449.909 345.093 449.671L344.957 450.152C343.278 449.677 341.589 449.246 339.894 448.858L340.005 448.371C338.296 447.98 336.58 447.633 334.858 447.33L334.771 447.822C333.054 447.52 331.33 447.262 329.603 447.048L329.664 446.551C327.926 446.336 326.183 446.164 324.438 446.037L324.402 446.536C322.664 446.409 320.923 446.327 319.182 446.289L319.192 445.789C317.442 445.75 315.691 445.756 313.941 445.806L313.955 446.306C312.214 446.356 310.474 446.45 308.737 446.589L308.697 446.09C306.953 446.229 305.212 446.412 303.475 446.639L303.539 447.135C301.814 447.361 300.092 447.631 298.376 447.945L298.287 447.453C296.566 447.767 294.852 448.126 293.146 448.528L293.261 449.015C291.568 449.414 289.883 449.857 288.207 450.343L288.067 449.863C287.229 450.106 286.392 450.36 285.559 450.625C285.557 450.626 285.556 450.626 285.554 450.626L282.947 451.398L283.089 451.877L277.854 453.426L277.712 452.947L272.477 454.496L272.619 454.976L267.384 456.525L267.242 456.045L262.008 457.594L262.149 458.074L256.915 459.623L256.773 459.143L251.538 460.692L251.68 461.172L246.445 462.721L246.303 462.241L243.686 463.016L243.672 463.02L243.657 463.025C242.972 463.274 242.283 463.511 241.591 463.739L241.747 464.214C240.352 464.673 238.945 465.091 237.528 465.466L237.4 464.983C235.99 465.357 234.57 465.688 233.143 465.978L233.242 466.468C231.803 466.76 230.357 467.009 228.905 467.215L228.834 466.72C227.391 466.925 225.942 467.088 224.49 467.208L224.531 467.706C223.069 467.827 221.603 467.904 220.135 467.938L220.124 467.439C218.668 467.473 217.21 467.464 215.752 467.412L215.734 467.912C214.27 467.86 212.805 467.764 211.342 467.626L211.389 467.128C210.664 467.059 209.94 466.98 209.216 466.89C208.492 466.8 207.77 466.699 207.051 466.588L206.974 467.082C205.522 466.857 204.079 466.59 202.647 466.282L202.752 465.793C201.326 465.485 199.91 465.136 198.507 464.746L198.373 465.228C196.959 464.835 195.557 464.4 194.169 463.925L194.331 463.452C192.953 462.979 191.588 462.466 190.239 461.913L190.05 462.376C188.692 461.82 187.351 461.223 186.028 460.587L186.245 460.137C184.932 459.506 183.637 458.836 182.362 458.128L182.119 458.565C180.838 457.854 179.576 457.104 178.336 456.316L178.604 455.894C177.989 455.504 177.38 455.104 176.776 454.695C176.172 454.286 175.574 453.869 174.984 453.443L174.691 453.848C173.5 452.989 172.335 452.096 171.199 451.17L171.514 450.783C170.383 449.861 169.281 448.907 168.208 447.923L167.87 448.291C166.788 447.298 165.737 446.275 164.716 445.221L165.075 444.873C164.061 443.826 163.078 442.749 162.128 441.644L161.749 441.97C160.792 440.859 159.868 439.718 158.978 438.551L159.375 438.248C158.492 437.09 157.643 435.905 156.828 434.695L156.413 434.974C155.595 433.759 154.811 432.518 154.064 431.253L154.494 430.998C154.124 430.371 153.762 429.738 153.41 429.1C153.057 428.461 152.715 427.818 152.382 427.17L151.937 427.399C151.265 426.092 150.633 424.768 150.041 423.427L150.499 423.225C149.909 421.89 149.36 420.54 148.851 419.175L148.383 419.35C147.87 417.975 147.398 416.585 146.967 415.183L147.445 415.036C147.017 413.643 146.63 412.237 146.285 410.821L145.799 410.939C145.451 409.514 145.146 408.078 144.883 406.634L145.375 406.545C145.114 405.112 144.895 403.67 144.718 402.222L144.222 402.283C144.045 400.828 143.91 399.367 143.818 397.9L144.317 397.869C144.272 397.144 144.237 396.417 144.213 395.689C144.202 394.835 144.17 393.987 144.119 393.146L143.62 393.176C143.517 391.485 143.336 389.822 143.082 388.185L143.576 388.108C143.314 386.425 142.974 384.77 142.564 383.144L142.079 383.266C141.667 381.635 141.183 380.033 140.632 378.459L141.104 378.294C140.544 376.696 139.916 375.128 139.226 373.59L138.77 373.794C138.084 372.266 137.337 370.767 136.533 369.297L136.971 369.057C136.162 367.578 135.297 366.129 134.382 364.71L133.962 364.981C133.056 363.575 132.1 362.199 131.1 360.852L131.501 360.554C130.498 359.203 129.452 357.881 128.367 356.589L127.984 356.91C126.909 355.628 125.796 354.375 124.65 353.15L125.016 352.809C123.866 351.579 122.684 350.379 121.476 349.207L121.128 349.566C119.924 348.398 118.694 347.259 117.443 346.149L117.775 345.775C116.514 344.655 115.232 343.564 113.935 342.502L113.618 342.889C112.316 341.823 110.999 340.786 109.673 339.779L109.975 339.381C108.628 338.357 107.271 337.364 105.911 336.401L105.622 336.809C104.24 335.831 102.854 334.883 101.472 333.967L101.748 333.55C100.327 332.608 98.9101 331.699 97.5036 330.823L97.2393 331.247C95.7911 330.346 94.3541 329.479 92.9362 328.647L93.1892 328.215C91.7088 327.347 90.2493 326.516 88.8193 325.724L88.5769 326.161C87.0648 325.323 85.5857 324.527 84.1502 323.774L84.3825 323.331C82.8295 322.517 81.3274 321.752 79.8893 321.036L79.6666 321.484C78.0753 320.692 76.5625 319.961 75.1461 319.291L75.3599 318.839C73.6962 318.052 72.1656 317.349 70.7971 316.729L70.5909 317.185C69.3831 316.638 68.3015 316.156 67.366 315.739C66.864 315.516 66.4042 315.311 65.9895 315.125L66.1942 314.669C65.1325 314.192 64.3904 313.849 63.9926 313.63L63.9632 313.614L63.9318 313.602C63.4316 313.408 62.9357 313.204 62.4442 312.99L62.2448 313.449C61.2489 313.016 60.2712 312.542 59.3143 312.028L59.5508 311.587C59.0786 311.334 58.6115 311.071 58.1499 310.798C57.4337 310.372 56.7338 309.923 56.0511 309.454L55.7679 309.866C54.3734 308.908 53.0496 307.863 51.8029 306.74L52.1375 306.368C50.8991 305.253 49.7377 304.06 48.6599 302.798L48.2797 303.123C47.1854 301.842 46.1762 300.49 45.2584 299.077L45.6777 298.805C44.7737 297.413 43.9596 295.961 43.242 294.457L42.7907 294.672C42.0682 293.158 41.4422 291.592 40.9191 289.982L41.3947 289.828C41.1384 289.039 40.9072 288.241 40.7018 287.432C40.4963 286.624 40.318 285.812 40.1668 284.997L39.6752 285.088C39.3664 283.424 39.1687 281.749 39.0804 280.074L39.5797 280.048C39.4921 278.383 39.5139 276.718 39.6436 275.064L39.1451 275.025C39.2768 273.345 39.5183 271.675 39.8679 270.027L40.357 270.131C40.7014 268.507 41.1522 266.904 41.7078 265.333L41.2364 265.166C41.7957 263.585 42.4599 262.034 43.2274 260.526L43.673 260.753C44.049 260.014 44.4501 259.286 44.8761 258.569ZM372.242 140.659L372.264 140.632L372.291 140.655L372.284 140.664L372.242 140.659Z" stroke="#DDDDDD" stroke-dasharray="5 5"/>
<path d="M60.2844 261.332C55.3589 269.621 53.9262 279.527 56.3014 288.872C58.6766 298.217 64.6653 306.237 72.951 311.168C74.7128 312.209 76.5574 313.103 78.4661 313.842C84.0051 316.894 153.118 342.374 153.775 390.725C154.141 401.826 157.129 412.683 162.495 422.408C167.861 432.132 175.453 440.448 184.649 446.676C193.846 452.903 204.386 456.865 215.408 458.238C226.43 459.611 237.62 458.355 248.064 454.574L287.505 442.903C306.417 436.893 326.716 436.825 345.668 442.707L401.28 459.979C404.836 461.305 408.463 462.433 412.143 463.358L412.273 463.391C436.321 469.382 461.721 466.523 483.836 455.336C505.951 444.149 523.305 425.381 532.729 402.459C542.152 379.537 543.017 353.991 535.165 330.485C527.313 306.979 511.268 287.082 489.961 274.428C485.166 271.588 480.152 269.134 474.968 267.089L424.003 242.131C410.243 235.39 398.274 225.486 389.078 213.23C379.881 200.974 373.718 186.714 371.092 171.618C369.658 163.407 368.874 152.411 369.065 150.53L369.013 150.488C368.965 131.321 362.63 112.698 350.98 97.478C339.329 82.2577 323.008 71.28 304.518 66.2289C286.028 61.1778 266.391 62.3323 248.62 69.5152C230.849 76.6981 215.924 89.5128 206.136 105.993C205.8 106.567 159.42 191.722 159.42 191.722L159.212 192.084C147.905 212.285 129.701 227.738 107.933 235.613L80.3967 245.288C71.9547 247.993 64.7984 253.702 60.2844 261.332Z" fill="url(#paint0_linear_0_4868)"/>
<defs>
<linearGradient id="paint0_linear_0_4868" x1="435.792" y1="163.004" x2="197.448" y2="457.368" gradientUnits="userSpaceOnUse">
<stop stop-color="#FEF3ED"/>
<stop offset="1" stop-color="#FEF3ED" stop-opacity="0"/>
</linearGradient>
</defs>
</svg>
