<svg width="1920" height="743" viewBox="0 0 1920 743" fill="none" xmlns="http://www.w3.org/2000/svg">
<path d="M-34.7178 805.934C-28.3602 667.858 59.6612 567.166 130.401 486.263L135.415 480.532C143.608 471.892 162.547 448.789 161.069 420.896C160.174 403.883 151.757 388.526 136.087 375.184C126.64 367.215 118.178 359.738 109.671 352.798C74.5841 321.61 37.7361 292.46 -0.691181 265.493C-17.0777 254.121 -33.1955 243.108 -48.9552 233.258V234.825C-33.4642 244.809 -17.6149 255.375 -1.4523 266.568C36.9394 293.528 73.7573 322.662 108.821 353.828C117.103 360.947 125.789 368.424 135.191 376.214C150.593 389.287 158.831 404.376 159.726 420.986C161.204 448.207 142.534 471.086 134.609 479.547L129.55 485.323C58.4972 566.45 -29.7033 667.321 -36.0609 805.889C-36.7773 820.619 -42.5081 829.663 -48.9552 832.752V834.364C-41.9708 831.454 -35.5237 822.32 -34.7178 805.934Z" fill="white" fill-opacity="0.03"/>
<path d="M-3.42226 807.366C2.44285 680.214 86.4796 584.134 153.995 506.902L159.055 501.127C171.168 487.497 182.555 473.24 193.171 458.414C203.692 443.371 223.257 415.389 177.053 370.841C127.381 322.837 73.9138 278.922 17.1728 239.525C-5.78024 223.646 -27.8229 209.259 -48.9552 196.365V197.932C-28.0617 210.737 -6.27273 224.974 16.4117 240.644C73.0819 279.995 126.488 323.849 176.113 371.781C221.467 415.568 202.349 442.923 192.096 457.653C181.483 472.44 170.111 486.667 158.025 500.276L152.966 506.052C85.3602 583.417 1.09969 679.721 -4.76542 807.321C-7.4965 866.509 -18.197 900.939 -37.8518 915.714C-41.0442 918.314 -44.8812 920 -48.9552 920.594L-48.9552 921.982C-44.584 921.376 -40.4638 919.58 -37.0459 916.788C-16.8538 901.79 -6.19811 867.002 -3.42226 807.366Z" fill="white" fill-opacity="0.03"/>
<path d="M543.062 -102.083C534.332 -136.468 464.13 -145.646 382.869 -156.212C362.766 -158.809 341.992 -161.54 321.845 -164.719C232.704 -178.777 151.13 -223.549 72.2421 -266.799C32.7086 -288.558 -7.63082 -310.675 -48.9552 -328.897V-325.45C-8.21285 -307.541 31.6341 -285.558 70.7199 -264.157C149.832 -220.729 231.898 -175.867 321.442 -161.719C341.634 -158.541 362.453 -155.81 382.556 -153.168C459.339 -143.139 531.914 -133.647 540.108 -101.322C546.465 -76.1605 513.692 -37.9701 439.908 15.3979C336.082 90.2564 249.359 125.134 166.352 125.134C117.838 124.85 70.1008 112.919 27.1569 90.3459C0.422901 76.0197 -25.0401 59.4387 -48.9552 40.7835L-48.9552 44.7234C-25.3987 62.9289 -0.341217 79.1047 25.948 93.077C69.264 115.856 117.413 127.908 166.352 128.223C250.031 128.223 337.515 93.1665 441.61 17.8603C517.632 -37.0299 549.868 -75.1755 543.062 -102.083Z" fill="white" fill-opacity="0.03"/>
<path d="M-37.3593 604.594C-24.7158 583.757 -10.3856 563.991 5.48733 545.495C27.2912 518.632 49.8562 490.873 62.0341 456.757C83.4351 396.629 41.4391 368.825 -2.97454 339.41L-15.3316 331.172C-22.6741 326.203 -29.569 321.546 -36.3743 316.8C-39.7322 314.472 -43.8512 311.517 -48.9552 307.846V309.413C-44.2392 312.876 -40.2993 315.696 -37.1354 317.875C-30.3301 322.352 -23.4353 327.277 -16.0479 332.247L-3.73566 340.753C40.275 369.855 81.8233 397.39 60.7358 456.533C48.6921 490.426 26.1719 518.139 4.45758 544.868C-11.4706 563.415 -25.8461 583.242 -38.5234 604.146C-42.4893 611.632 -45.9737 619.363 -48.9552 627.293V630.92L-47.8807 628.189C-44.876 620.109 -41.3618 612.228 -37.3593 604.594Z" fill="white" fill-opacity="0.03"/>
<path d="M71.9287 506.005L77.9729 498.841C106.806 464.949 136.624 429.893 102.732 387.942C76.5402 355.527 37.0067 328.798 2.12944 305.203C-4.98927 300.458 -11.7946 295.712 -18.5104 291.055C-22.9875 287.921 -29.1661 283.444 -36.4191 278.295L-48.9552 269.117V270.774L-37.0459 279.46C-29.9272 284.653 -23.6144 289.085 -19.1372 292.22C-12.3766 296.921 -5.70562 301.532 1.68173 306.412C36.4694 329.962 75.9582 356.646 102.015 388.882C135.191 429.938 105.731 464.591 77.3013 498.08C75.2418 500.453 73.1823 502.871 71.2124 505.244C46.1849 535.062 14.2178 575.043 -11.0782 619.501C-26.4146 646.336 -39.1002 674.601 -48.9552 703.896L-48.9552 708.374C-39.0628 677.703 -26.0402 648.132 -10.0933 620.128C15.1133 575.715 47.0356 535.823 71.9287 506.005Z" fill="white" fill-opacity="0.03"/>
<path d="M46.5431 52.8711C80.5697 70.3321 109.492 78.4358 137.519 78.4358C166.89 78.4358 192.992 69.4814 223.213 59.4078C240.36 53.6322 259.791 47.0508 281.864 41.4991C290.789 39.3398 299.947 38.2873 309.13 38.3651C313.607 38.3651 317.502 38.3651 321.442 38.7232C325.382 39.0814 328.74 38.9919 332.277 38.9919C350.186 38.9919 364.826 34.5147 380.63 13.3376C388.556 2.6604 394.682 -9.2421 398.763 -21.8978C404.046 -36.583 408.21 -48.1789 431.402 -64.7892C438.574 -69.2602 446.236 -72.8954 454.235 -75.624C467.667 -80.8623 478.949 -85.3842 479.442 -92.9955C479.8 -99.174 472.592 -106.114 456.742 -114.71C437.759 -125.052 410.627 -126.44 386.585 -126.44C375.885 -126.44 364.647 -126.127 353.767 -125.768C342.888 -125.41 331.381 -125.142 320.681 -125.142C302.249 -124.574 283.823 -126.44 265.88 -130.693C187.977 -151.736 114.91 -192.031 50.483 -227.266C16.6355 -245.757 -16.1822 -263.666 -48.9552 -279.246V-276.739C-16.5404 -261.427 15.9192 -243.653 49.5428 -225.296C114.104 -189.882 187.261 -149.766 265.432 -128.5C283.577 -124.279 302.195 -122.443 320.815 -123.037C331.695 -123.037 343.201 -123.351 353.946 -123.664C364.692 -123.978 376.064 -124.336 386.719 -124.336C410.493 -124.336 437.222 -122.993 455.802 -112.919C470.398 -104.95 477.651 -98.3681 477.337 -93.2641C476.935 -87.0408 465.562 -82.6084 453.519 -77.8626C445.309 -75.0448 437.452 -71.2889 430.103 -66.6696C406.329 -49.7011 401.852 -37.2098 396.659 -22.7485C392.616 -10.2441 386.567 1.52002 378.75 12.084C363.483 32.679 349.603 36.798 332.187 36.798C328.695 36.798 325.203 36.798 321.442 36.5294C317.681 36.2607 313.428 36.3055 309.219 36.3055C299.839 36.2209 290.484 37.3038 281.371 39.5291C259.254 45.0808 239.778 51.6623 222.586 57.4378C192.544 67.5562 166.621 76.3315 137.519 76.3315C109.85 76.3315 81.286 68.2726 47.5728 51.0355C16.7698 35.0967 -10.9439 13.9196 -37.7622 -6.22769L-48.9552 -14.6896V-11.869L-39.1054 -4.43683C-12.2423 15.9344 15.561 37.0219 46.5431 52.8711Z" fill="white" fill-opacity="0.03"/>
<path d="M67.1829 12.6212C97.7032 28.9489 131.74 37.6002 166.352 37.8278C185.201 37.8278 225.854 30.127 261.358 17.2775C292.43 5.99501 329.501 -12.7196 329.546 -37.8814C329.546 -67.5203 272.417 -83.9963 238.211 -93.8461C230.779 -95.9952 224.332 -97.8308 220.303 -99.3978C154.229 -123.711 90.1714 -153.187 28.7239 -187.554C2.30853 -202.104 -23.5248 -216.252 -48.9552 -228.967V-227.445C-23.7487 -214.82 1.86081 -200.582 28.0971 -186.434C89.5405 -151.984 153.597 -122.418 219.676 -98.0099C224.153 -96.3981 230.466 -94.5625 237.943 -92.4134C271.79 -82.698 328.426 -66.401 328.337 -37.7471C328.337 5.77115 205.483 36.6189 166.397 36.6189C132.024 36.3629 98.2255 27.775 67.8992 11.5915C40.5437 -2.42207 14.4417 -22.256 -10.8544 -41.4183C-23.0771 -50.6861 -35.658 -60.2225 -48.8209 -69.4902V-67.8337C-35.9714 -58.8793 -23.6591 -49.4325 -11.6603 -40.3438C13.7253 -21.271 39.693 -1.43712 67.1829 12.6212Z" fill="white" fill-opacity="0.03"/>
<path d="M81.4651 -15.2722C107.63 -1.21243 136.829 6.25621 166.532 6.48686C191.335 6.48686 223.795 -0.855713 236.241 -17.0183C238.916 -20.4412 240.72 -24.4616 241.5 -28.7347C242.28 -33.0079 242.011 -37.4064 240.718 -41.5533C235.077 -63.2676 189.589 -78.5796 156.413 -89.8173C145.668 -93.4438 136.4 -96.5778 130.714 -99.2194C92.3447 -117.128 54.602 -137.813 17.6653 -157.96L13.591 -160.199C-7.72036 -171.839 -28.4945 -183.077 -48.9552 -193.777V-192.3C-28.7183 -181.823 -8.16807 -170.541 12.8299 -159.035L16.9489 -156.796C53.6618 -136.649 91.6731 -115.919 130.132 -98.0105C135.908 -95.369 145.22 -92.235 155.965 -88.5637C187.037 -78.0871 233.958 -62.2379 239.42 -41.2399C240.609 -37.2788 240.823 -33.089 240.044 -29.0275C239.264 -24.9659 237.514 -21.153 234.943 -17.9138C222.81 -2.06454 190.843 4.96463 166.263 4.96463C136.859 4.68364 107.962 -2.72116 82.0471 -16.6154C57.154 -29.1963 32.1266 -48.1795 7.94978 -66.6703C-9.556 -79.7884 -28.3602 -94.0259 -48.9552 -107.457V-105.846C-28.6736 -92.4141 -10.138 -78.5348 7.14389 -65.551C31.3654 -47.0602 56.4377 -28.077 81.4651 -15.2722Z" fill="white" fill-opacity="0.03"/>
<path d="M374.721 573.029C372.482 576.7 370.243 580.237 368.542 582.789C345.887 614.712 319.293 643.008 288.938 674.079C284.864 678.243 280.7 682.496 276.446 686.75C251.553 711.911 225.765 737.924 210.363 768.682C204.409 780.636 202.573 789.949 205.035 795.545C205.543 796.771 206.316 797.869 207.299 798.759C208.282 799.65 209.451 800.31 210.721 800.694C211.963 801.026 213.242 801.191 214.527 801.186C222.127 800.467 229.417 797.816 235.704 793.486C252.212 782.985 268.075 771.503 283.207 759.101C295.788 749.296 308.772 739.222 322.024 730.268C375.75 694.764 411.075 671.303 427.596 604.907C431.044 591.162 433.058 559.866 422.447 546.3C420.809 544.069 418.631 542.29 416.117 541.131C413.603 539.972 410.836 539.471 408.076 539.674C394.286 540.614 383.003 559.329 374.721 573.029ZM409.105 541.241C411.487 541.206 413.843 541.74 415.977 542.799C418.111 543.858 419.961 545.411 421.373 547.33C431.715 560.762 429.7 591.296 426.298 604.772C409.866 670.497 374.631 693.868 321.308 729.193C307.876 738.148 295.072 748.221 282.58 758.026C267.489 770.413 251.655 781.866 235.167 792.321C225.138 798.41 216.586 800.962 211.259 799.395C210.138 799.089 209.105 798.525 208.242 797.747C207.379 796.97 206.71 796.001 206.289 794.918C204.006 789.725 205.886 780.546 211.572 769.174C226.884 738.595 252.583 712.672 277.431 687.555L289.878 674.885C320.099 643.545 346.962 615.428 369.661 583.461C371.497 580.819 373.646 577.282 375.885 573.566C383.988 560.135 395.047 541.778 408.12 541.107L409.105 541.241Z" fill="white" fill-opacity="0.03"/>
<path d="M28.321 808.843C33.6936 692.795 113.656 601.326 177.904 527.855L182.963 522.035C259.388 434.596 256.299 404.016 220.437 368.647C163.361 311.617 101.415 259.679 35.3054 213.423C6.6514 193.589 -21.6444 175.412 -48.9552 159.294V161.891C-22.0921 177.829 5.84551 195.693 34.007 215.259C100.02 261.449 161.875 313.312 218.87 370.259C253.702 404.599 256.523 434.461 181.306 520.602L176.247 526.378C111.731 600.117 31.455 692.034 26.0824 808.754C21.0232 918.31 -20.2565 950.591 -48.9552 959.635V961.963C-19.5849 953.053 23.1722 920.683 28.321 808.843Z" fill="white" fill-opacity="0.03"/>
<path d="M401.718 498.486C382.063 503.366 364.915 530.542 351.081 552.212C346.29 559.868 341.724 567.076 337.649 572.225C315.284 600.055 291.368 626.602 266.014 651.74C259.702 658.232 251.732 665.619 243.315 673.409C218.332 696.556 187.261 725.345 177.814 751.715C169.889 774.101 174.546 795.054 179.068 815.515C182.784 832.305 186.634 849.631 183.545 867.674C181.664 878.867 174.904 890.06 167.74 901.522C159.144 915.491 150.279 929.907 149.832 945.443C149.651 950.713 150.472 955.969 152.249 960.934C158.159 977.499 164.338 985.245 171.68 985.245C179.023 985.245 186.858 977.679 198.543 959.188C209.736 941.503 214.124 921.042 218.377 901.208C222.631 881.374 227.063 860.914 238.345 843.005C259.836 809.157 297.713 784.175 331.113 762.192L339.485 756.64C395.002 719.883 438.789 690.87 458.354 612.654C463.548 591.969 462.16 539.228 441.117 512.276C436.793 506.173 430.677 501.567 423.617 499.096C416.557 496.625 408.904 496.412 401.718 498.486ZM439.46 513.843C458.309 538.019 461.846 589.104 456.295 612.341C436.953 689.706 393.614 718.495 338.321 755.028L329.993 760.535C296.37 782.653 258.358 807.769 236.555 842.02C225.048 860.153 220.616 880.882 216.273 900.984C211.93 921.087 207.722 940.697 196.752 958.158C188.917 970.515 179.829 983.185 171.77 983.185C165.591 983.185 159.905 975.709 154.443 960.352C152.729 955.653 151.953 950.664 152.16 945.667C152.652 930.758 161.383 916.565 169.8 902.865C177.098 891.045 183.993 879.852 185.962 868.211C189.052 849.765 185.157 832.17 181.485 815.202C177.008 794.114 172.531 774.235 180.142 752.521C189.41 726.688 220.437 698.079 245.061 675.066C253.523 667.276 261.493 659.888 267.85 653.352C293.2 628.148 317.116 601.541 339.485 573.658C343.559 568.419 348.126 561.122 352.917 553.466C366.348 531.93 383.406 505.157 402.166 500.545C405.385 499.727 408.693 499.306 412.015 499.292C417.419 499.35 422.731 500.701 427.506 503.233C432.281 505.764 436.38 509.402 439.46 513.843Z" fill="white" fill-opacity="0.03"/>
<path d="M422.313 401.286C419.156 396.004 414.839 391.51 409.688 388.144C404.538 384.777 398.689 382.627 392.585 381.855C384.695 380.693 377.21 377.619 370.781 372.9L370.109 372.094C347.275 346.53 270.716 263.165 244.748 263.165C243.397 263.094 242.048 263.35 240.817 263.911C239.585 264.472 238.507 265.322 237.674 266.388C234.227 270.865 234.406 279.82 238.211 294.192C240.495 302.653 262.164 314.249 285.132 326.606C304.25 336.859 324.039 347.47 330.755 355.439C336.754 362.558 344.679 372.453 344.186 375.9C344.186 376.84 342.977 377.378 341.231 378.228C337.202 380.243 331.158 383.243 334.381 397.391C337.533 407.693 342.309 417.426 348.529 426.224C353.91 433.928 358.175 442.354 361.199 451.251C366.93 473.279 330.844 513.708 306.981 540.437C299.101 549.391 292.296 556.913 287.953 562.822C269.552 585.941 249.501 607.697 227.959 627.921C187.171 668.215 144.996 709.674 130.177 767.027C107.746 852.63 103.269 928.34 116.701 991.916C123.864 1025.85 148.578 1073.18 172.531 1073.18C187.44 1073.18 198.32 1055.27 204.812 1019.9C229.884 883.657 298.295 838.348 364.423 794.517C423.029 755.699 478.367 719.031 502.186 623.802C511.14 587.984 497.351 532.601 479.397 502.022C472.23 490.597 462.742 480.804 451.549 473.279C442.596 467.29 434.825 459.701 428.626 450.893C424.149 443.953 424.999 435.85 425.805 427.253C426.611 418.657 427.73 409.076 422.313 401.286ZM426.119 452.46C432.475 461.644 440.511 469.544 449.803 475.741C460.591 483.061 469.739 492.545 476.666 503.589C494.306 533.631 508.006 587.85 499.052 623.041C475.547 717.061 420.701 753.461 362.587 791.92C296.146 836.11 227.197 881.822 201.767 1019.32C195.678 1052.49 185.56 1070.04 172.576 1070.04C152.205 1070.04 127.491 1027.69 119.79 991.289C106.358 928.205 110.835 852.944 132.908 767.698C147.504 711.151 189.365 669.917 229.839 630.025C251.536 609.72 271.722 587.858 290.236 564.613C294.49 558.972 301.25 551.182 309.085 542.63C334.874 513.753 370.154 474.174 364.02 450.579C360.937 441.353 356.533 432.621 350.947 424.657C344.933 416.136 340.294 406.724 337.202 396.764C334.56 385.034 338.724 382.974 342.395 381.138C344.41 380.153 346.514 379.079 346.873 376.661C347.589 373.393 345.485 368.378 332.993 353.559C325.919 345.142 305.862 334.352 286.475 323.965C266.104 313.04 243.047 300.639 241.121 293.52C236.644 277.313 238.122 271.134 240.047 268.448C240.577 267.778 241.26 267.245 242.04 266.894C242.819 266.543 243.671 266.385 244.524 266.433C264.089 266.433 320.905 322.174 367.557 374.333L368.497 375.318C375.332 380.379 383.288 383.712 391.689 385.034C397.392 385.689 402.868 387.645 407.695 390.75C412.523 393.855 416.575 398.026 419.537 402.942C424.014 409.792 423.477 417.986 422.626 426.671C421.776 435.357 421.149 444.58 426.119 452.684V452.46Z" fill="white" fill-opacity="0.03"/>
<path d="M-48.9552 110.671C102.015 196.096 264.716 332.023 294.355 399.583C312.264 440.147 269.014 488.635 214.437 550.017C152.518 619.771 75.1523 706.584 70.3617 810.857C64.4966 937.785 1.54741 989.945 -48.9552 1005.7V1009.02C2.71148 993.258 67.4515 940.427 73.4957 810.947C78.2415 707.972 155.07 621.517 216.766 552.121C272.104 489.888 315.801 440.729 297.355 398.33C267.358 330.277 103.269 193.006 -48.9552 107.313V110.671Z" fill="white" fill-opacity="0.03"/>
<path d="M32.4847 446.281C44.1254 413.553 32.4847 400.434 -20.3012 365.692L-32.9717 357.23C-38.4786 353.334 -43.7617 349.708 -48.9552 346.171V347.828L-33.688 358.215L-21.0176 366.632C30.9625 401.106 42.5584 414 31.2311 445.833C20.9784 474.621 1.14446 499.067 -19.8535 524.9C-29.6585 536.944 -39.5979 549.211 -48.9552 562.329V564.613C-39.3293 550.913 -28.987 538.153 -18.8238 525.706C2.26376 499.783 22.1424 475.293 32.4847 446.281Z" fill="white" fill-opacity="0.03"/>
<path d="M385.645 615.026H385.331C378.974 615.026 372.527 623.129 367.826 628.995C366.796 630.293 365.9 631.412 365.095 632.308C360.617 637.412 356.409 642.74 352.245 647.888C349.604 651.246 346.917 654.559 344.186 657.872L343.828 658.231C334.874 668.841 331.247 675.736 332.68 679.363C333.006 680.102 333.539 680.732 334.214 681.176C334.889 681.621 335.677 681.862 336.485 681.87H337.784C355.692 681.512 370.199 665.26 377.272 655.634C383.539 647.558 388.108 638.299 390.704 628.413C391.73 624.557 391.349 620.462 389.63 616.861C389.146 616.276 388.536 615.807 387.846 615.489C387.157 615.171 386.404 615.013 385.645 615.026ZM388.286 628.01C385.813 637.504 381.442 646.398 375.437 654.156C368.632 663.469 354.708 679.139 337.739 679.497H336.933C335.321 679.497 335.053 678.647 334.963 678.423C334.471 677.169 334.515 672.871 345.753 659.574L346.067 659.171C348.842 655.858 351.484 652.5 354.17 649.142C358.289 644.038 362.543 638.71 366.975 633.651C367.781 632.755 368.721 631.591 369.751 630.293C373.915 625.055 380.227 617.13 385.734 617.13C386.135 617.125 386.531 617.215 386.889 617.395C387.248 617.574 387.558 617.836 387.794 618.16C389.15 621.274 389.325 624.776 388.286 628.01Z" fill="white" fill-opacity="0.03"/>
<path d="M857.987 1068.61C917.4 1061.85 981.11 993.034 981.916 934.741C983.169 845.198 931.816 773.966 882.119 704.927C873.657 693.242 864.927 681.109 856.689 669.11L851.764 661.946C828.348 628.278 801.843 590.312 793.247 548.853C785.949 513.886 774.801 432.446 786.934 404.419C795.889 383.869 821.185 372.094 845.675 360.677C862.599 352.842 878.627 345.41 889.865 335.202L890.357 334.754C928.772 299.922 928.772 299.922 954.963 298.937C962.888 298.668 972.872 298.354 986.661 297.011C999.398 295.898 1012.02 293.742 1024.4 290.564C1028.35 289.389 1032.42 288.668 1036.54 288.415C1044.6 288.415 1051.36 294.101 1073.7 313.04C1139.74 368.96 1138.48 466.204 1137.27 560.27C1135.75 678.602 1134.18 801.008 1268.14 839.735C1286.24 845.118 1305 847.936 1323.88 848.108C1374.25 848.108 1417.1 825.722 1447.86 783.054C1492.99 720.642 1504.98 623.174 1477.72 540.57C1414.72 349.932 1264.2 240.912 1102.26 137.042C955.142 42.6179 814.962 16.6054 695.152 -0.363104C687.026 -1.53671 678.828 -2.15002 670.617 -2.19873C622.04 -2.19873 598.982 22.5153 569.702 53.766C557.959 66.7383 545.556 79.0968 532.541 90.7923C516.065 105.254 495.112 115.193 474.875 124.774C441.833 140.399 410.627 155.129 397.733 187.947C370.377 257.567 437.58 311.786 496.903 359.647C524.348 382.033 550.271 402.762 565.448 423.671C625.711 506.588 607.668 646.411 553.046 724.985C535.988 749.475 503.305 779.831 468.741 811.932C411.433 865.121 346.469 925.429 335.008 976.065C329.59 999.929 331.023 1016.36 339.485 1026.93C346.425 1035.61 358.11 1039.82 375.302 1039.82C403.464 1039.82 443.803 1028.22 486.471 1015.91C538.63 1000.91 597.773 983.901 648.187 983.901C669.058 983.286 689.814 987.197 709.031 995.362C727.581 1004.6 744.97 1016.01 760.832 1029.34C787.113 1049.76 811.917 1069.06 847.018 1069.06C850.68 1069.09 854.341 1068.94 857.987 1068.61ZM709.658 993.482C690.143 985.192 669.067 981.221 647.873 981.841C597.102 981.841 537.824 998.899 485.531 1013.94C442.997 1026.21 402.837 1037.76 374.989 1037.76C358.647 1037.76 347.544 1033.82 341.052 1025.72C333.217 1015.87 332.098 999.884 337.157 976.782C348.484 926.772 413.269 866.733 470.263 813.768C504.917 781.577 537.69 751.087 554.882 726.418C609.951 647.261 628.084 506.23 567.284 422.507C551.927 401.374 525.87 380.332 498.291 358.08C439.595 310.711 372.929 257.03 399.793 188.932C412.373 156.965 443.176 142.369 475.905 126.968C496.321 117.297 517.408 107.358 534.108 92.6727C547.157 80.9209 559.604 68.5183 571.403 55.5121C600.281 24.6196 623.114 0.218952 670.707 0.218952C678.814 0.244887 686.909 0.858358 694.928 2.05458C814.514 18.9783 954.605 44.946 1101.19 139.101C1262.72 242.748 1412.93 351.499 1475.66 541.465C1502.75 623.398 1490.88 720.06 1446.15 781.935C1415.84 823.886 1373.58 846.048 1323.97 846.048C1305.27 845.875 1286.69 843.071 1268.77 837.721C1209.4 820.528 1171.88 785.293 1153.97 729.955C1137.99 680.348 1138.75 619.368 1139.51 560.404C1140.72 465.846 1141.98 367.885 1075.13 311.473C1043.16 284.386 1042.31 283.983 1023.87 288.549C1011.6 291.707 999.099 293.848 986.482 294.952C972.603 296.25 962.798 296.564 954.918 296.832C928.055 297.772 928.055 297.772 888.88 333.142L888.343 333.59C877.374 343.529 861.479 350.917 844.735 358.707C819.842 370.258 794.098 382.257 784.875 403.479C772.518 432.088 783.711 514.02 791.053 549.211C799.739 590.894 826.378 629.263 849.928 663.155L854.853 670.274C863.091 682.228 871.822 694.361 880.284 706.091C929.533 774.816 980.931 845.914 979.677 934.428C978.871 991.78 916.191 1059.43 857.719 1066.1C854.061 1066.51 850.385 1066.72 846.705 1066.73C812.365 1066.73 787.83 1047.7 761.907 1027.51C745.879 1015.33 729.313 1002.44 709.658 993.482Z" fill="white" fill-opacity="0.03"/>
<path d="M1904.84 379.169C1902.6 377.513 1899.07 374.468 1894.63 370.573C1877.58 355.754 1849.06 330.86 1829 330.86C1825.29 330.771 1821.63 331.805 1818.52 333.826C1815.4 335.847 1812.97 338.761 1811.54 342.188C1806.84 351.635 1817.13 373.528 1823.94 387.9C1825.6 391.437 1827.03 394.481 1827.92 396.854C1829.76 401.331 1831.42 405.54 1832.85 409.211C1843.16 434.879 1852.06 461.095 1859.49 487.741C1860.25 490.651 1860.97 493.919 1861.77 497.412C1865.08 512.321 1869.25 530.856 1879.68 539.945C1883 543.067 1886.96 545.434 1891.28 546.884C1892.89 547.374 1894.56 547.63 1896.25 547.646C1908.42 547.646 1916.8 533.811 1924.9 520.424C1926.74 517.38 1928.66 514.246 1930.54 511.47L1932.38 508.694C1963.22 461.728 1981.85 433.388 1925.12 393.989C1919.48 390.004 1912.32 384.631 1904.84 379.169ZM1930.36 507.172L1928.57 509.903C1926.65 512.858 1924.72 516.037 1922.84 519.081C1915.1 531.931 1907.04 545.228 1895.98 545.228C1894.46 545.23 1892.95 545.004 1891.5 544.556C1887.49 543.187 1883.83 540.973 1880.76 538.064C1870.99 529.468 1866.92 511.201 1863.65 496.785C1862.89 493.248 1862.13 489.935 1861.37 486.98C1853.9 460.246 1844.93 433.953 1834.51 408.226C1833.07 404.555 1831.37 400.346 1829.54 395.869C1828.6 393.586 1827.16 390.496 1825.51 386.915C1819.28 373.707 1808.9 351.59 1813.1 343.128C1814.35 340.074 1816.49 337.473 1819.25 335.672C1822.01 333.871 1825.26 332.958 1828.55 333.054C1847.8 333.054 1875.92 357.589 1892.71 372.23C1897.19 376.125 1900.72 379.214 1903.1 381.184C1910.57 386.646 1917.74 391.84 1923.29 395.69C1978.63 433.657 1960.45 461.326 1930.36 507.172Z" fill="white" fill-opacity="0.03"/>
<path d="M1941.56 328.934C1931.66 321.725 1921.81 313.666 1911.38 305.115C1879.46 279.058 1843.28 249.553 1810.78 249.553C1804.42 249.547 1798.12 250.716 1792.2 253.001C1734.8 274.67 1742.95 335.381 1753.02 369.407C1759.15 390.316 1767.08 411.045 1774.74 431.058C1784.22 454.605 1792.41 478.654 1799.27 503.096C1802.81 518.092 1805.39 533.301 1806.97 548.629C1812.75 594.968 1818.21 638.71 1879.99 638.71C1884.87 638.71 1890.16 638.441 1895.66 637.904C1901.74 637.414 1907.74 636.274 1913.57 634.501C1930 629.218 1934.93 619.279 1942.36 604.191C1944.6 599.714 1947.15 594.431 1950.33 588.879C1955.07 580.538 1960.23 572.439 1965.78 564.612V562.284C1959.75 570.699 1954.14 579.41 1948.99 588.386C1945.81 593.983 1943.26 599.176 1940.97 603.743C1933.68 618.518 1928.88 628.278 1912.99 633.427C1907.3 635.135 1901.45 636.246 1895.53 636.74C1890.07 637.277 1884.83 637.546 1879.99 637.546C1819.37 637.546 1814.27 596.356 1808.36 548.629C1806.78 533.239 1804.19 517.969 1800.61 502.917C1793.72 478.436 1785.52 454.344 1776.03 430.745C1768.38 410.732 1760.45 390.092 1754.36 369.228C1744.47 335.381 1736.46 275.521 1792.69 254.209C1798.47 251.976 1804.62 250.837 1810.82 250.852C1842.88 250.852 1878.83 280.222 1910.57 306.145C1921.01 314.651 1930.9 322.71 1940.79 329.963C1948.27 335.426 1954.85 340.216 1959.78 343.619L1965.82 347.783V346.126L1960.54 342.5C1955.57 339.142 1948.99 334.351 1941.56 328.934Z" fill="white" fill-opacity="0.03"/>
<path d="M1804.82 -322.182H1787.59H1771.6C1741.07 -322.182 1716.8 -320.525 1689.98 -312.377C1676.23 -307.765 1662.91 -301.952 1650.18 -295.005C1628.96 -284.215 1608.95 -274.007 1584.99 -274.007C1580.99 -273.999 1577 -274.283 1573.04 -274.858C1555.35 -277.41 1542.1 -287.842 1529.3 -297.915C1514.92 -309.243 1501.36 -319.943 1482.29 -319.943C1480.52 -319.942 1478.76 -319.852 1477 -319.674C1465.27 -318.466 1446.42 -307.899 1428.25 -297.647C1418.4 -291.738 1408.17 -286.502 1397.62 -281.977C1389.07 -278.834 1380.32 -276.247 1371.43 -274.231C1352.58 -269.754 1350.21 -268.097 1341.08 -233.444C1338.57 -223.863 1336.6 -214.908 1334.94 -206.267C1328.36 -174.121 1323.17 -148.915 1288.92 -124.872C1265.77 -108.53 1236.44 -100.606 1199.37 -100.606C1162.3 -100.606 1123.93 -108.307 1089.91 -115.157C1072 -118.694 1055.3 -122.052 1042.85 -123.395C1035.6 -124.156 1024.4 -124.648 1012.94 -124.648C980.081 -124.648 941.577 -112.605 938.891 -95.3228C937.592 -87.1743 943.994 -74.8621 981.692 -62.8185L985.856 -61.4753C1129.44 -15.4499 1229.59 44.6787 1331.54 145.953C1359.61 173.89 1381.1 186.919 1399.1 186.919C1403.29 186.918 1407.45 186.159 1411.37 184.68C1430.49 177.561 1444.41 153.34 1460.62 125.492C1468.94 111.075 1478.53 94.7336 1489.58 78.9739C1542.6 3.53934 1619.62 -51.6993 1708.07 -77.7275C1732.16 -84.8036 1757.11 -88.4953 1782.21 -88.6966C1859.53 -88.6966 1914.11 -50.8196 1965.78 -11.8681V-14.6888C1914.2 -53.5059 1859.62 -90.8009 1782.21 -90.8009C1756.83 -90.5795 1731.61 -86.8275 1707.26 -79.6527C1618.31 -53.4446 1540.86 2.14182 1487.57 78.0337C1476.33 93.8382 1466.84 110.225 1458.51 124.686C1442.57 152.265 1428.83 176.084 1410.47 182.889C1406.79 184.244 1402.89 184.941 1398.97 184.949C1381.59 184.949 1360.64 172.144 1332.97 144.654C1230.76 43.1117 1130.38 -17.1512 986.438 -63.3109L982.23 -64.6541C954.023 -73.6085 939.338 -84.3537 940.95 -94.6512C943.189 -109.023 977.439 -122.096 1012.81 -122.096C1024.18 -122.096 1035.19 -121.604 1042.45 -120.843C1054.85 -119.544 1071.59 -116.366 1089.32 -112.605C1123.44 -105.934 1162.12 -98.0091 1199.24 -98.0091C1236.35 -98.0091 1266.71 -106.068 1290.21 -122.678C1325.18 -147.437 1330.51 -173.181 1337.14 -205.82C1338.93 -214.461 1340.72 -223.37 1343.27 -232.683C1352.22 -267.202 1354.19 -267.65 1371.92 -271.903C1380.91 -273.915 1389.74 -276.517 1398.38 -279.693C1409.05 -284.253 1419.39 -289.549 1429.32 -295.542C1446.51 -305.168 1465.94 -316.093 1477.23 -317.257C1478.91 -317.434 1480.6 -317.524 1482.29 -317.525C1500.55 -317.525 1513.85 -307.049 1527.95 -295.99C1540.98 -285.737 1554.41 -275.126 1572.73 -272.485C1576.8 -271.899 1580.92 -271.6 1585.04 -271.589C1609.53 -271.589 1630.7 -282.379 1651.21 -292.811C1663.84 -299.708 1677.05 -305.476 1690.7 -310.048C1717.2 -318.107 1741.34 -319.764 1771.65 -319.764H1787.59H1804.87C1830.14 -320.023 1855.32 -316.738 1879.68 -310.004C1909.23 -301.27 1938.03 -290.144 1965.78 -276.738V-279.245C1938.2 -292.547 1909.61 -303.612 1880.26 -312.332C1855.7 -319.136 1830.31 -322.452 1804.82 -322.182Z" fill="white" fill-opacity="0.03"/>
<path d="M1942.63 368.288C1937.44 364.707 1930.41 359.603 1923.06 354.23C1912.54 346.529 1902.38 338.247 1891.72 329.382C1889.31 327.412 1886.62 325.173 1883.8 322.756C1865.89 307.444 1841.04 286.49 1818.34 286.49C1812.22 286.456 1806.22 288.147 1801.02 291.371C1761.75 315.637 1785.35 373.661 1799.49 408.359C1801.2 412.568 1802.81 416.553 1803.97 420.09C1813.9 444.697 1822.45 469.838 1829.58 495.396C1830.88 500.321 1832.18 506.141 1833.52 512.275C1839.79 540.391 1848.39 578.94 1869.92 592.864C1873.27 595.071 1877.06 596.522 1881.02 597.117C1882.18 597.26 1883.35 597.335 1884.52 597.341C1910.84 597.341 1937.08 557.36 1956.15 528.124C1959.64 522.841 1962.78 518.05 1965.69 513.886V511.558C1962.51 516.035 1958.97 521.408 1955.03 527.408C1936.05 556.375 1910.04 595.998 1884.43 595.998C1883.32 595.992 1882.21 595.917 1881.11 595.774C1877.34 595.228 1873.73 593.852 1870.55 591.745C1849.5 578.313 1841 539.944 1834.73 512.006C1833.34 505.872 1832.04 500.052 1830.74 495.082C1823.62 469.473 1815.05 444.286 1805.09 419.642C1803.75 416.105 1802.14 412.12 1800.39 407.912C1786.47 373.616 1763.09 316.264 1801.42 292.535C1806.43 289.522 1812.18 287.971 1818.03 288.057C1840.42 288.057 1864.73 308.832 1882.64 323.875C1885.46 326.293 1888.1 328.352 1890.6 330.591C1901.39 339.545 1911.56 347.694 1921.95 355.394C1929.29 360.767 1936.32 365.871 1941.56 369.497C1948.54 374.333 1955.57 379.123 1963.14 384.227L1965.46 385.794V384.183L1963.81 383.063C1956.82 377.914 1949.61 373.124 1942.63 368.288Z" fill="white" fill-opacity="0.03"/>
<path d="M1709.91 686.035C1712.41 689.348 1717.2 693.915 1729.16 694.989C1773.93 698.661 1841.53 704.212 1898.62 756.237L1899.29 756.819C1919.52 775.657 1935.57 798.537 1946.39 823.977C1949.66 831.319 1954.94 835.573 1960.85 835.573C1962.55 835.559 1964.22 835.209 1965.78 834.543V832.931C1964.26 833.741 1962.57 834.186 1960.85 834.23C1955.48 834.23 1950.64 830.29 1947.64 823.44C1936.72 797.864 1920.55 774.863 1900.19 755.924L1899.51 755.297C1842.07 703.003 1774.15 697.452 1729.38 693.736C1717.96 692.84 1713.49 688.587 1711.07 685.453C1706.64 678.871 1704.62 670.966 1705.34 663.067C1711.56 635.667 1719.31 601.551 1716.4 564.211C1711.47 501.038 1686.22 446.774 1661.78 394.078C1642.17 351.948 1619.96 304.176 1627.66 282.417C1641.4 243.645 1697.55 188.128 1721.05 166.01C1735.16 152.32 1754.09 144.729 1773.75 144.878C1783.15 144.946 1792.48 146.456 1801.42 149.355C1842.61 162.787 1900.9 193.052 1965.91 234.825V233.302C1901.13 191.709 1842.97 161.399 1801.82 148.236C1792.75 145.307 1783.28 143.796 1773.75 143.759C1753.7 143.582 1734.4 151.32 1720.02 165.294C1696.47 187.411 1640.15 243.152 1626.32 282.193C1618.44 304.579 1640.78 352.485 1660.48 394.884C1684.88 447.267 1710.08 501.441 1714.96 564.39C1717.83 601.506 1710.13 635.488 1703.91 662.888C1703.24 671.059 1705.36 679.215 1709.91 686.035Z" fill="white" fill-opacity="0.03"/>
<path d="M1794.17 645.47C1804.37 651.067 1818.34 653.44 1831.91 655.723C1841.67 657.089 1851.3 659.276 1860.7 662.26C1866.65 664.576 1872.48 667.207 1878.16 670.14C1890.96 676.452 1905.51 683.571 1918.81 683.571C1921.26 683.576 1923.71 683.32 1926.11 682.81L1927.94 682.317C1946.93 676.676 1957.05 652.858 1965.78 631.009V627.293V627.651C1956.82 650.037 1946.88 675.244 1927.72 680.93L1926.02 681.377C1923.71 681.905 1921.35 682.161 1918.99 682.138C1906.05 682.138 1891.63 675.064 1878.92 668.707C1873.2 665.747 1867.32 663.087 1861.32 660.737C1851.86 657.737 1842.15 655.551 1832.31 654.201C1818.88 651.917 1805 649.724 1795.02 644.082C1772.9 631.949 1775.18 609.742 1777.65 586.237C1778.85 577.157 1779.27 567.989 1778.9 558.837C1773.12 484.336 1745.45 424.835 1718.68 367.303C1712.69 354.78 1709.37 341.147 1708.94 327.272C1708.51 313.397 1710.97 299.585 1716.17 286.714C1722.28 272.435 1731.25 259.564 1742.53 248.897C1753.81 238.23 1767.17 229.995 1781.76 224.705C1791.09 221.153 1800.98 219.332 1810.96 219.332C1854.16 219.332 1894.72 252.463 1930.5 281.654C1940.66 289.937 1950.24 297.772 1959.42 304.443L1965.78 309.413V307.756L1960 303.548C1951.05 296.877 1941.33 289.087 1931.17 280.804C1895.35 251.433 1854.47 218.123 1810.78 218.123C1800.63 218.127 1790.57 219.978 1781.09 223.585C1766.33 228.931 1752.82 237.253 1741.41 248.036C1729.99 258.818 1720.92 271.83 1714.74 286.266C1709.47 299.309 1706.98 313.306 1707.42 327.367C1707.86 341.427 1711.22 355.241 1717.29 367.93C1744.16 425.327 1771.65 484.739 1777.38 558.971C1777.75 568.049 1777.33 577.142 1776.12 586.148C1773.75 609.384 1771.29 632.889 1794.17 645.47Z" fill="white" fill-opacity="0.03"/>
<path d="M1804.82 -277.098C1767.17 -277.098 1727.1 -270.248 1684.65 -262.995C1636.88 -254.847 1587.45 -246.429 1534.85 -246.429C1531.04 -246.429 1527.28 -246.429 1523.65 -246.429C1507.7 -247.078 1491.84 -249.116 1476.24 -252.518C1465.8 -255.021 1455.14 -256.52 1444.41 -256.996C1421.17 -256.996 1404.11 -244.728 1385.4 -214.731C1376.59 -199.275 1369.24 -183.026 1363.46 -166.198C1352.22 -136.604 1340.63 -106.025 1314.93 -87.8924C1305.97 -81.6243 1289.18 -76.789 1271.28 -71.685C1239.94 -62.7307 1204.48 -52.6122 1199.64 -31.3904C1193.64 -4.93027 1248.04 31.2901 1277.28 50.8107C1282.74 54.4372 1287.44 57.5712 1290.71 59.765C1324.96 84.9268 1353.39 101.671 1380.25 101.671C1383.9 101.675 1387.54 101.361 1391.13 100.731C1412.67 96.8361 1432.19 81.6584 1452.6 52.8701C1511.58 -30.9274 1597.19 -92.2959 1695.49 -121.247C1723.67 -129.447 1752.86 -133.682 1782.21 -133.828C1859.44 -133.828 1916.53 -102.488 1965.78 -67.8794V-69.536C1916.53 -104.189 1859.44 -135.171 1782.21 -135.171C1752.7 -134.952 1723.36 -130.612 1695.04 -122.277C1596.43 -93.2769 1510.55 -31.7295 1451.39 52.3329C1431.2 80.8078 1411.95 95.8063 1390.82 99.6119C1387.3 100.24 1383.73 100.554 1380.16 100.552C1353.57 100.552 1325.41 83.8971 1291.33 58.9144C1288.24 56.631 1283.54 53.497 1277.9 49.96C1248.93 30.6634 1194.98 -5.24365 1200.81 -30.8531C1205.28 -51.2243 1240.52 -61.2084 1271.46 -70.0285C1289.36 -75.1772 1306.51 -80.0574 1315.51 -86.415C1341.52 -104.771 1353.21 -135.664 1364.54 -165.392C1370.3 -182.118 1377.6 -198.275 1386.34 -213.656C1404.74 -243.206 1421.53 -255.294 1444.23 -255.294C1454.87 -254.793 1465.44 -253.294 1475.79 -250.817C1491.48 -247.375 1507.43 -245.322 1523.48 -244.683C1527.1 -244.683 1530.86 -244.683 1534.67 -244.683C1587.41 -244.683 1636.88 -253.1 1684.74 -261.294C1727.1 -268.502 1767.08 -275.352 1804.64 -275.352C1825.81 -275.616 1846.91 -272.903 1867.32 -267.293C1901.32 -256.915 1934.3 -243.426 1965.82 -226.998V-228.521C1934.47 -244.798 1901.67 -258.137 1867.86 -268.368C1847.36 -274.23 1826.14 -277.169 1804.82 -277.098Z" fill="white" fill-opacity="0.03"/>
<path d="M1765.2 669.604C1774.15 671.887 1783.11 674.081 1792.06 675.961C1838.89 686.841 1879.32 696.198 1919.75 732.777L1920.56 733.538C1929.82 741.955 1937.17 746.029 1942.94 746.029C1943.82 746.041 1944.69 745.935 1945.54 745.716C1954.49 743.701 1958.7 731.434 1963.45 715.629C1964.16 713.212 1964.97 710.749 1965.78 708.331V703.854C1964.52 707.615 1963.31 711.421 1962.15 715.226C1957.45 730.583 1953.2 742.492 1945.18 744.373C1939.36 745.761 1931.75 741.865 1921.32 732.463L1920.51 731.747C1879.81 694.9 1839.25 685.498 1792.24 674.618C1783.6 672.604 1774.65 670.544 1765.38 668.261C1732.52 660.023 1738.07 629.13 1743.44 599.267C1746.26 586.861 1747.57 574.157 1747.33 561.435C1742.01 492.621 1715.55 435.716 1689.94 380.691C1686.89 374.11 1683.62 367.663 1680.45 361.439C1663.97 329.204 1649.78 301.311 1670.1 267.016C1685.37 241.227 1708.25 220.095 1730.41 199.858C1734.4 196.187 1738.38 192.515 1742.28 188.844C1751.79 180.477 1764.18 176.141 1776.84 176.756C1832 176.756 1916.84 235.451 1965.64 270.776V269.12C1916.53 233.526 1832.22 175.099 1776.97 175.099C1763.97 174.487 1751.24 178.95 1741.47 187.546C1737.57 191.217 1733.59 194.888 1729.61 198.56C1707.22 219.065 1684.43 240.242 1669.07 266.21C1648.39 301.132 1663.43 330.681 1679.37 361.932C1682.55 368.155 1685.82 374.558 1688.86 381.139C1714.43 436.029 1740.84 492.845 1746.17 561.435C1746.36 574.036 1745.05 586.615 1742.28 598.909C1736.81 629.533 1731.13 661.052 1765.2 669.604Z" fill="white" fill-opacity="0.03"/>
<path d="M822.976 1314.36C811.649 1331.42 797.59 1352.69 802.426 1367.37C803.69 1370.61 805.691 1373.51 808.272 1375.84C810.852 1378.17 813.939 1379.87 817.29 1380.8C818.843 1381.35 820.479 1381.62 822.125 1381.61C839.452 1381.61 866.897 1354.75 890.984 1331.33C906.386 1316.33 920.892 1302.18 929.623 1298.2C971.395 1279.26 1028.93 1270.26 1079.7 1262.38C1099.76 1259.25 1118.65 1256.25 1136.15 1252.85C1173.81 1245.27 1212.1 1241.32 1250.5 1241.07C1368.39 1241.07 1467.42 1283.51 1544.79 1367.19C1553.43 1376.6 1566.05 1381.34 1582.26 1381.34C1632.76 1381.34 1719.4 1332.09 1780.42 1241.07C1816.91 1186.58 1869.97 1075.15 1814.81 941.324C1792.69 887.597 1759.87 862.704 1711.52 862.704C1674.67 862.704 1632.67 876.136 1584.05 891.895C1524.24 911.192 1456.41 933.041 1383.47 933.041C1327.78 933.305 1272.91 919.523 1223.95 892.97C1068.19 809.918 1063.62 658.321 1077.1 535.601C1082.29 487.83 1073.83 450.042 1052.52 426.313C1045.09 418.01 1035.94 411.418 1025.72 406.989C1015.49 402.56 1004.43 400.4 993.288 400.659C948.516 400.659 892.238 435.581 872.001 502.246C852.973 564.927 898.103 622.1 950.397 688.184C1009.32 762.684 1076.12 847.124 1063.18 959.814C1056.73 1015.69 1036.31 1069.28 1008.6 1103.08C987.557 1128.83 968.977 1131.11 949.277 1133.53C934.234 1135.41 918.698 1137.29 900.476 1148.89C886.552 1157.84 882.209 1172.7 877.553 1188.64C875.006 1199.84 870.554 1210.52 864.39 1220.21C860.719 1225.31 854.316 1226.43 847.556 1227.59C838.601 1229.16 828.573 1230.91 823.2 1242.41C819.484 1250.43 824.409 1259.88 829.155 1269.01C833.095 1276.62 837.214 1284.5 836.005 1291.04C835.02 1296.23 829.423 1304.65 822.976 1314.36ZM831.438 1267.75C826.961 1258.8 822.484 1250.34 825.528 1243.44C830.319 1233.19 839.318 1231.62 847.914 1230.01C854.898 1228.8 862.107 1227.55 866.405 1221.6C872.68 1211.64 877.221 1200.7 879.836 1189.23C884.313 1173.78 888.522 1159.23 901.64 1150.9C919.549 1139.66 934.592 1137.78 949.367 1135.95C969.559 1133.48 988.677 1131.11 1010.35 1104.61C1038.42 1070.31 1059.01 1016.18 1065.51 959.859C1078.58 846.094 1011.42 761.206 952.188 686.303C900.342 620.802 855.615 564.21 874.24 502.739C894.118 437.238 949.054 402.987 993.064 402.987C1003.84 402.732 1014.54 404.813 1024.43 409.087C1034.32 413.361 1043.17 419.726 1050.37 427.746C1071.19 450.938 1079.43 488.054 1074.28 535.198C1060.85 658.769 1065.33 811.351 1222.52 895.164C1271.85 921.914 1327.14 935.774 1383.25 935.458C1456.59 935.458 1524.64 913.565 1584.72 894.224C1633.12 878.598 1674.94 865.122 1711.38 865.122C1759.2 865.122 1790.32 888.896 1812.25 942.174C1866.92 1074.88 1814.36 1185.42 1778.14 1239.5C1719.93 1326.59 1632.67 1378.61 1582.13 1378.61C1566.68 1378.61 1554.68 1374.13 1546.53 1365.18C1468.81 1280.96 1369.15 1238.34 1250.5 1238.34C1211.93 1238.57 1173.48 1242.51 1135.66 1250.11C1118.25 1253.56 1099.31 1256.52 1079.29 1259.65C1028.34 1267.62 970.634 1276.66 928.548 1295.74C919.594 1299.86 905.401 1313.65 889.194 1329.36C865.375 1352.6 838.378 1378.88 822.036 1378.88C820.681 1378.91 819.332 1378.69 818.051 1378.25C815.045 1377.51 812.258 1376.07 809.922 1374.03C807.586 1372 805.768 1369.44 804.62 1366.57C800.142 1353.13 813.843 1332.41 824.856 1315.8C831.483 1305.81 837.169 1297.21 838.288 1291.44C839.9 1284.05 835.602 1275.77 831.438 1267.75Z" fill="white" fill-opacity="0.03"/>
<path d="M1905.07 1008.79C1913.18 1013 1922.27 1014.97 1931.39 1014.48C1943.06 1014.33 1954.64 1012.49 1965.78 1009.02V1005.71C1954.66 1009.29 1943.07 1011.2 1931.39 1011.35C1922.87 1011.8 1914.38 1010.01 1906.77 1006.15C1880.49 989.364 1868.85 959.68 1856.53 928.295C1845.92 901.208 1834.95 873.181 1813.6 853.437V852.496H1812.66C1788.17 830.871 1755.13 820.35 1711.7 820.35C1669.34 820.35 1624.79 830.513 1589.02 838.707C1564.53 844.258 1543.44 849.094 1529.83 849.094C1521.86 849.094 1516.98 847.437 1514.97 844.079C1512.33 839.602 1514.34 831.14 1520.97 819.007C1551.91 762.55 1614.36 627.876 1610.06 572.135C1606.66 528.169 1585.53 482.591 1565.07 438.805C1535.43 375.273 1504.85 309.414 1527.01 246.734C1552.44 175.099 1664.42 46.9169 1744.11 36.0374C1749.05 35.3923 1754.04 35.0782 1759.02 35.0972C1810.82 35.0972 1886.66 65.9897 1965.69 110.717V107.359C1886.62 62.587 1810.87 31.9631 1759.02 31.9631C1753.88 31.9363 1748.75 32.2655 1743.66 32.9481C1663.07 43.962 1549.71 173.308 1524.06 245.659C1501.36 309.683 1532.25 376.035 1562.11 440.237C1582.44 483.89 1603.44 529.065 1606.89 572.449C1610.74 622.145 1556.25 748.133 1518.19 817.619C1510.76 831.051 1508.88 840.005 1512.24 845.78C1514.88 850.258 1520.61 852.317 1529.79 852.317C1543.76 852.317 1565.02 847.482 1589.65 841.841C1625.47 833.692 1669.66 823.574 1711.65 823.574C1754.54 823.574 1787.05 833.961 1811 855.362C1832.13 874.658 1843.06 902.506 1853.62 929.504C1866.11 961.337 1877.93 991.468 1905.07 1008.79Z" fill="white" fill-opacity="0.03"/>
<path d="M886.776 1267.53C891.553 1268.46 896.418 1268.85 901.282 1268.69C914.937 1268.69 965.485 1266.68 1044.28 1240.62C1114.43 1218.2 1187.64 1206.81 1261.29 1206.86C1383.16 1206.86 1464.15 1225.13 1568.43 1324.97C1576.45 1332.28 1587.04 1336.11 1597.89 1335.63C1643.24 1335.63 1711.79 1286.38 1753.96 1223.3C1786.91 1174.05 1834.77 1073.62 1785.3 953.5C1763.99 901.834 1737.26 894.67 1711.56 894.67C1679.77 894.67 1639.93 907.475 1593.9 922.339C1531.85 942.352 1461.51 965.007 1383.47 965.007C1322.52 965.318 1262.46 950.259 1208.86 921.22C1034.25 828.094 1031.88 654.559 1045.27 532.153C1049.43 494.231 1043.52 464.234 1028.7 447.668C1024.24 442.735 1018.76 438.836 1012.63 436.245C1006.51 433.654 999.89 432.434 993.243 432.67C960.067 432.67 918.25 459.801 902.536 511.558C888.343 558.389 928.682 609.339 975.379 668.259C1035.1 743.7 1109.38 837.72 1094.92 963.082C1090.99 998.364 1081.33 1032.77 1066.31 1064.94C1044.32 1112.96 1012.78 1156.01 973.633 1191.46C952.329 1209.89 929.419 1226.37 905.177 1240.71C888.477 1251.1 878.314 1257.37 879.12 1262.11C879.433 1264.49 881.851 1266.05 886.776 1267.53ZM905.983 1242.32C930.272 1227.97 953.24 1211.49 974.618 1193.07C1013.9 1157.48 1045.55 1114.28 1067.65 1066.1C1082.7 1033.8 1092.39 999.259 1096.35 963.843C1110.63 837.094 1036.31 742.938 976.319 667.319C929.846 608.578 889.731 557.852 903.7 511.737C919.235 460.563 960.425 433.789 993.243 433.789C999.702 433.56 1006.13 434.743 1012.09 437.257C1018.04 439.77 1023.38 443.552 1027.72 448.34C1042.27 464.637 1048.04 494.231 1043.92 531.795C1030.49 654.559 1032.87 828.676 1208.24 922.205C1262.01 951.347 1322.27 966.468 1383.43 966.171C1461.65 966.171 1532.07 943.427 1594.3 923.369C1640.24 908.594 1679.86 895.789 1711.47 895.789C1736.72 895.789 1762.96 902.819 1783.96 953.993C1833.21 1073.53 1785.48 1173.37 1752.62 1222.62C1711.34 1284.23 1641.85 1334.33 1597.66 1334.33C1587.17 1334.81 1576.91 1331.11 1569.14 1324.03C1518.6 1275.63 1471.54 1244.88 1421.13 1227.24C1377.7 1212.06 1329.84 1205.57 1261.07 1205.57C1187.28 1205.52 1113.94 1216.94 1043.66 1239.41C964.992 1265.38 914.624 1267.4 901.058 1267.4C896.301 1267.54 891.542 1267.16 886.865 1266.28C882.746 1265.2 880.553 1263.9 880.329 1262.38C879.881 1258.26 890.761 1251.46 905.893 1242.1L905.983 1242.32Z" fill="white" fill-opacity="0.03"/>
<path d="M993.288 463.338C969.29 463.338 942.92 487.649 934.279 509.408C928.548 523.87 932.891 548.584 945.919 575.491C958.232 600.877 974.573 620.263 986.662 624.024C988.448 624.565 990.302 624.852 992.169 624.875C994.211 624.864 996.239 624.516 998.168 623.845C1013.75 618.383 1013.39 608.846 1012.63 588.028C1011.67 569.749 1012.18 551.424 1014.15 533.227C1017.73 500.678 1012.63 475.874 1005.73 468.218C1004.2 466.475 1002.27 465.123 1000.1 464.275C997.936 463.426 995.601 463.105 993.288 463.338ZM1012.14 532.869C1010.16 551.17 1009.65 569.6 1010.61 587.983C1011.38 608.981 1011.69 616.816 997.631 621.696C994.363 622.795 990.825 622.795 987.557 621.696C976.006 618.249 960.202 599.31 948.158 574.327C935.398 547.957 931.055 523.959 936.562 510.08C944.934 488.948 970.41 465.308 993.512 465.308C995.496 465.085 997.506 465.329 999.379 466.021C1001.25 466.713 1002.94 467.833 1004.3 469.293C1010.61 476.904 1015.41 500.991 1012.14 532.869Z" fill="white" fill-opacity="0.03"/>
<path d="M688.347 383.198C692.197 383.198 695.242 377.736 698.286 365.558C709.524 319.846 746.64 259.359 804.261 227.168C862.465 194.619 901.506 186.157 922.369 181.635C932.756 179.397 937.95 178.233 939.204 175.501C939.431 174.891 939.51 174.236 939.432 173.589C939.354 172.942 939.122 172.324 938.756 171.785C934.726 164.443 862.644 124.014 758.505 115.597L754.027 115.239C744.67 114.478 736.566 113.806 728.821 113.806C701.734 113.806 679.84 121.417 628.801 164.532C620.742 171.338 612.504 177.651 604.534 183.739C579.865 202.678 558.554 219.02 559.762 237.466C560.837 251.703 574.895 265.851 604.131 281.924C636.456 299.833 656.156 335.113 669.185 358.484C677.736 373.393 683.198 383.198 688.347 383.198ZM605.027 280.85C576.641 265.179 562.359 250.987 561.374 237.466C560.031 219.557 581.074 203.484 605.43 184.814C613.444 178.68 621.682 172.367 629.786 165.517C680.467 122.716 702.137 115.149 728.91 115.149C736.611 115.149 744.67 115.821 754.027 116.582L758.505 116.94C860.047 125.133 933.831 165.428 937.592 172.412C938.398 173.845 938.219 174.561 938.039 174.964C937.055 177.069 931.458 178.277 922.145 180.337C901.192 184.814 862.151 193.365 803.679 226.004C745.207 258.643 708.315 319.264 696.988 365.2C694.257 376.437 691.436 381.855 688.392 381.855C683.915 381.855 678.139 371.289 670.483 357.947C657.544 334.397 637.71 298.848 605.027 280.85Z" fill="white" fill-opacity="0.03"/>
<path d="M696.809 460.07C700.704 460.07 703.391 455.593 705.271 445.385C716.912 383.734 742.073 296.429 826.155 249.866C854.514 234.526 884.688 222.809 915.967 214.989C923.707 212.232 930.972 208.29 937.502 203.304C946.77 197.08 956.396 190.588 965.261 190.588C966.267 190.589 967.271 190.679 968.261 190.857C972.931 191.975 977.242 194.254 980.797 197.483C984.326 200.98 988.966 203.134 993.915 203.572C996.037 203.529 998.133 203.088 1000.09 202.274C1003.36 200.744 1006.05 198.2 1007.75 195.021C1008.82 192.617 1010.65 190.628 1012.95 189.352C1015.25 188.076 1017.9 187.583 1020.51 187.947C1028.08 188.574 1032.15 194.349 1036.45 200.438C1039.12 204.88 1042.72 208.685 1047.01 211.586C1051.4 213.889 1056.25 215.16 1061.21 215.302C1062.6 215.458 1064.01 215.283 1065.33 214.793C1066.64 214.303 1067.82 213.512 1068.77 212.482C1069.46 211.367 1069.88 210.106 1070 208.8C1070.12 207.495 1069.93 206.18 1069.44 204.96C1066.53 194.394 1043.88 184.544 1028.93 178.097C1024.45 176.172 1020.64 174.515 1018.23 173.217C995.84 161.397 973.454 151.368 954.829 143.13C875.493 108.432 803.187 87.2549 733.746 78.3901C726.874 77.4667 719.95 76.9733 713.016 76.9127C678.811 76.9127 652.306 91.8665 599.565 140.936C586.626 152.98 573.284 163.322 560.434 173.306C531.556 195.692 508.767 213.377 509.305 235.629C509.752 253.224 525.02 271.939 557.3 294.548C609.325 330.948 643.889 386.241 666.722 422.82C680.826 445.206 690.049 460.07 696.809 460.07ZM558.016 293.25C526.049 270.864 511.006 252.553 510.558 235.45C510.066 213.87 532.586 196.364 561.15 174.202C574.045 164.173 587.387 153.831 600.371 141.742C652.843 92.941 679.124 78.0768 712.927 78.0768C719.801 78.1364 726.665 78.6299 733.477 79.5542C802.784 88.5086 875.001 109.551 954.202 144.205C973.006 152.443 995.213 162.427 1017.51 174.202C1019.97 175.545 1023.82 177.202 1028.3 179.127C1043.03 185.574 1065.33 195.289 1068.06 205.229C1068.48 206.25 1068.66 207.357 1068.58 208.46C1068.51 209.564 1068.17 210.634 1067.61 211.586C1066.76 212.412 1065.73 213.044 1064.61 213.438C1063.49 213.832 1062.3 213.98 1061.12 213.87C1056.43 213.705 1051.84 212.481 1047.69 210.288C1043.56 207.512 1040.11 203.857 1037.57 199.587C1033.09 193.499 1028.61 187.23 1020.64 186.514C1017.79 186.126 1014.89 186.666 1012.37 188.052C1009.84 189.438 1007.83 191.599 1006.63 194.215C1005.07 197.15 1002.6 199.504 999.601 200.931C997.798 201.681 995.867 202.076 993.915 202.095C989.267 201.647 984.918 199.607 981.603 196.319C977.954 193.024 973.535 190.699 968.753 189.559C967.693 189.341 966.612 189.236 965.53 189.245C956.217 189.245 946.457 195.827 937.01 202.184C930.628 207.102 923.511 210.985 915.922 213.691C884.531 221.559 854.241 233.304 825.752 248.657C741.044 295.533 715.703 383.241 704.017 445.116C702.316 454.294 699.988 458.548 696.899 458.548C690.854 458.548 681.229 443.101 667.886 421.745C645.008 385.256 610.22 329.829 558.016 293.25Z" fill="white" fill-opacity="0.03"/>
<path d="M862.196 1021.82C877.934 1019.64 892.886 1013.59 905.715 1004.21C918.544 994.837 928.85 982.429 935.711 968.097C948.516 941.548 955.456 896.462 915.698 832.752C898.64 805.397 879.881 777.728 861.972 750.999C810.485 674.573 761.862 602.356 741.76 529.915C719.061 447.983 737.283 380.378 799.157 317.205C852.883 262.493 923.533 231.108 993.422 231.108C1045.94 231.108 1092.82 249.599 1125.36 283.133C1161.18 320.025 1179.09 373.93 1177.08 439.118C1176.63 454.251 1175.91 469.876 1175.15 486.397C1172.42 545.227 1169.38 611.758 1178.87 667.365C1189.79 731.165 1215.71 770.34 1258.07 787.846C1278.29 796.604 1300.02 801.377 1322.05 801.904C1339.33 802.094 1356.4 798.072 1371.79 790.185C1387.17 782.299 1400.4 770.786 1410.34 756.64C1447.54 706.272 1456.45 620.041 1432.5 542.049C1381.15 374.692 1257.89 274.761 1075.18 167.801C936.383 86.5402 819.394 61.4679 713.464 46.4694C706.051 45.3794 698.571 44.811 691.078 44.7681C646.888 44.7681 625.801 67.1539 599.162 95.8079C588.909 106.777 578.343 118.194 565.224 129.655C552.813 140.363 539.444 149.91 525.288 158.175C506.618 169.681 490.5 179.576 472.771 206.081C437.58 258.688 484.68 291.147 534.511 325.129C560.882 343.038 588.237 361.842 602.699 383.959C694.391 522.752 657.41 671.081 592.177 763.445C573.552 789.816 546.331 814.754 517.498 841.169C482.262 873.45 445.863 906.805 424.999 944.144C416.045 960.173 413.493 971.008 417.209 977.41C419.94 981.887 426.163 984.349 435.61 984.349C452.802 984.349 480.113 977.231 511.722 968.948C556.091 957.397 611.295 942.98 660.096 942.98C682.671 942.345 705.123 946.527 725.955 955.248C742.914 963.702 758.814 974.132 773.324 986.319C797.232 1004.94 819.842 1022.54 851.809 1022.54C855.282 1022.5 858.751 1022.27 862.196 1021.82ZM726.627 954.128C705.643 945.276 682.994 941.061 660.23 941.771C611.25 941.771 555.957 956.188 511.498 967.784C479.934 976.022 452.713 983.141 435.7 983.141C426.745 983.141 420.925 981.081 418.463 976.872C414.97 970.963 417.522 960.531 426.253 944.95C446.982 907.879 483.337 874.569 518.528 842.378C547.405 815.918 574.671 790.935 593.386 764.43C630.97 711.888 653.466 650.066 658.439 585.656C663.543 514.021 645.008 445.924 603.728 383.198C588.998 360.812 561.643 342.142 535.183 324.01C485.934 290.207 439.326 258.33 473.8 206.797C491.396 180.561 507.379 170.711 525.87 159.339C540.165 151.047 553.655 141.439 566.165 130.64C578.105 119.929 589.478 108.602 600.236 96.7034C626.651 68.4524 647.56 46.1112 691.168 46.1112C698.586 46.1565 705.992 46.725 713.33 47.8126C819.125 62.7663 936.069 87.8386 1074.5 168.965C1256.77 275.746 1380.03 375.497 1431.29 542.407C1455.11 620.041 1446.29 705.824 1409.31 755.834C1399.5 769.824 1386.44 781.213 1371.24 789.014C1356.04 796.816 1339.17 800.795 1322.09 800.606C1300.27 800.123 1278.74 795.426 1258.7 786.771C1216.79 769.713 1191.13 730.628 1180.3 667.32C1170.81 611.982 1173.85 545.407 1176.58 486.666C1177.34 470.1 1178.06 454.475 1178.51 439.297C1180.48 373.796 1162.48 319.533 1126.44 282.372C1093.62 248.569 1046.43 229.944 993.512 229.944C923.265 229.944 852.122 261.285 798.307 316.444C765.444 350.022 745.118 384.631 736.253 422.329C728.328 455.997 729.716 491.367 740.73 530.453C760.877 603.117 809.544 675.379 861.121 751.939C879.03 778.802 897.745 806.292 914.848 833.648C954.292 896.91 947.442 941.458 934.771 967.694C927.987 981.794 917.824 993.998 905.186 1003.22C892.548 1012.45 877.827 1018.41 862.33 1020.57C858.97 1020.94 855.593 1021.13 852.212 1021.15C820.872 1021.15 798.486 1003.69 774.533 985.334C759.86 973.066 743.778 962.591 726.627 954.128Z" fill="white" fill-opacity="0.03"/>
<path d="M891.566 966.306C897.318 962.199 902.117 956.903 905.64 950.777C909.163 944.65 911.326 937.838 911.982 930.802C917.355 886.791 878.314 822.543 843.213 780.95C799.471 729.015 756.042 673.498 734.82 619.772C732.918 613.408 731.334 606.953 730.075 600.43C723.269 568.598 711.808 515.364 695.287 515.364C693.699 515.431 692.157 515.91 690.81 516.752C683.96 520.826 681.855 528.84 684.631 541.287C687.553 552.352 691.48 563.127 696.361 573.478C701.062 584.447 705.316 593.894 705.092 599.266C705.092 613.056 698.466 619.145 692.242 625.055C686.529 629.513 682.413 635.702 680.512 642.695C678.184 653.351 682.572 661.365 686.825 669.11C691.078 676.856 694.839 683.661 693.541 693.198C691.168 710.659 635.74 773.787 586.849 829.438C546.555 875.508 511.454 915.311 512.081 922.922C512.091 923.176 512.152 923.426 512.259 923.656C512.367 923.887 512.519 924.094 512.707 924.265C516.065 927.086 522.109 928.429 531.288 928.429C550.723 927.451 570.067 925.118 589.178 921.444C617.429 916.967 649.44 911.774 677.244 911.774C698.958 911.774 715.21 914.863 726.896 921.22C733.298 924.713 740.327 928.787 747.849 933.175C781.249 952.561 822.797 976.738 857.988 976.738C870.012 976.964 881.788 973.306 891.566 966.306ZM727.388 919.877C715.479 913.385 699.048 910.251 677.109 910.251C649.217 910.251 617.115 915.4 588.819 919.967C569.78 923.602 550.512 925.921 531.153 926.907C522.199 926.907 516.513 925.653 513.245 923.056C513.245 923.056 513.245 923.056 513.245 922.653C512.663 915.579 549.062 874.076 587.7 830.155C636.725 774.324 692.242 711.062 694.66 693.198C696.048 683.214 691.884 675.602 687.855 668.26C683.825 660.917 679.438 652.993 681.631 642.785C683.473 636.065 687.449 630.125 692.959 625.861C699.406 619.772 706.077 613.459 706.39 598.998C706.39 593.356 702.316 583.775 697.436 572.672C692.611 562.384 688.715 551.686 685.795 540.705C683.243 528.93 685.034 521.408 691.392 517.647C692.566 516.883 693.931 516.464 695.332 516.439C710.778 516.439 722.508 571.194 728.821 600.61C730.055 607.27 731.64 613.86 733.567 620.354C754.878 674.08 798.396 729.732 842.183 781.533C877.105 822.946 915.967 886.746 910.684 930.354C910.022 937.21 907.902 943.844 904.466 949.813C901.029 955.782 896.357 960.948 890.761 964.963C881.155 971.753 869.612 975.255 857.853 974.947C823.021 974.947 781.741 950.859 748.386 931.563C740.909 927.265 733.791 923.325 727.388 919.877Z" fill="white" fill-opacity="0.03"/>
<path d="M876.255 910.117C880.239 873.27 840.706 815.38 820.961 793.128C794.864 763.517 770.325 732.568 747.446 700.405C731.821 678.96 723.224 667.14 717.673 667.14C713.867 667.14 711.763 672.065 710.465 684.198C700.704 775.353 641.74 824.692 606.504 854.331C591.103 867.27 580.895 875.777 580.492 882.806C580.434 883.827 580.591 884.849 580.954 885.805C581.317 886.762 581.876 887.631 582.596 888.358C584.784 890.257 587.342 891.683 590.108 892.546C592.874 893.409 595.789 893.69 598.669 893.372C609.549 892.772 620.361 891.274 630.995 888.895C648.864 885.11 667.043 882.967 685.303 882.492C711.36 882.492 732.358 888.984 749.595 902.371C773.772 921.175 809.634 941.233 837.661 941.233C846.858 941.525 855.903 938.84 863.45 933.577C867.155 930.827 870.219 927.304 872.43 923.254C874.641 919.203 875.945 914.721 876.255 910.117ZM837.527 939.8C809.858 939.8 774.309 919.877 750.267 901.207C732.806 887.776 711.539 881.06 685.168 881.06C666.831 881.556 648.578 883.729 630.636 887.552C620.077 889.923 609.34 891.421 598.535 892.029C595.847 892.357 593.121 892.129 590.526 891.359C587.93 890.588 585.52 889.293 583.447 887.552C582.849 886.976 582.383 886.278 582.082 885.505C581.78 884.732 581.65 883.903 581.701 883.075C582.059 876.627 592.625 867.763 607.266 855.54C642.635 825.901 701.824 776.338 711.673 684.646C712.837 673.677 714.673 668.797 717.538 668.797C722.419 668.797 731.373 681.109 746.192 701.525C769.132 733.706 793.715 764.685 819.842 794.337C839.452 816.454 878.717 873.896 874.777 910.296C874.466 914.691 873.208 918.966 871.091 922.83C868.974 926.694 866.046 930.054 862.51 932.682C855.162 937.675 846.403 940.171 837.527 939.8Z" fill="white" fill-opacity="0.03"/>
<path d="M1258.78 541.735C1254.31 611.758 1274.28 659.978 1294.6 681.737C1303.91 691.676 1314.17 697.138 1323.39 697.183C1336.42 697.183 1346.22 686.93 1350.97 668.305C1381.55 548.451 1277.41 422.06 1264.65 411.539C1260.93 408.494 1258.43 408.091 1256.77 409.882C1253.77 413.151 1254.71 423.851 1256.41 443.282C1259.79 475.986 1260.58 508.906 1258.78 541.735ZM1258.38 411.404C1258.48 411.295 1258.59 411.206 1258.72 411.144C1258.86 411.082 1259 411.049 1259.14 411.046C1259.77 411.046 1260.98 411.449 1263.17 413.24C1275.84 423.717 1379.09 548.944 1348.78 667.768C1344.3 685.274 1335.34 694.944 1323.35 694.944C1314.75 694.944 1305.08 689.706 1296.21 680.17C1276.16 658.769 1256.37 611.221 1260.93 541.87C1262.74 508.922 1261.97 475.884 1258.61 443.058C1257.22 426.179 1256.14 413.956 1258.38 411.404Z" fill="white" fill-opacity="0.03"/>
<path d="M1804.82 -245.757C1769.81 -245.757 1730.99 -239.131 1689.94 -232.325C1640.69 -223.953 1590.14 -215.312 1534.85 -215.312C1530.77 -215.312 1526.74 -215.312 1522.94 -215.312L1513.18 -215.581C1504.81 -215.581 1496.93 -216.028 1489.31 -216.028C1441.68 -216.028 1412.22 -206.313 1392.74 -155.094C1380.47 -122.724 1366.55 -86.0558 1333.11 -62.4162C1323.66 -55.7005 1314.21 -49.9697 1305.84 -44.9552C1286.5 -33.2698 1271.23 -24.0468 1270.65 -11.2868C1270.16 0.443436 1281.98 14.5465 1309.11 34.4252C1335.08 53.498 1356.48 62.7658 1374.48 62.7658C1376.09 62.7658 1377.74 62.7658 1379.31 62.7658C1405.46 60.3481 1423.01 38.7233 1445.21 11.3677C1456.15 -2.54385 1467.81 -15.8742 1480.14 -28.5687C1537.53 -86.2669 1608.62 -128.46 1686.76 -151.199C1717.77 -160.294 1749.9 -164.996 1782.21 -165.168C1858.32 -165.168 1917.15 -137.633 1965.78 -105.755V-107.367C1917.15 -139.11 1858.32 -166.511 1782.21 -166.511C1749.77 -166.298 1717.52 -161.551 1686.4 -152.408C1608.05 -129.587 1536.76 -87.2728 1479.2 -29.4194C1466.82 -16.7079 1455.14 -3.34697 1444.18 10.6066C1422.16 37.7383 1404.79 59.1393 1379.18 61.5122C1377.65 61.5122 1376.04 61.5122 1374.48 61.5122C1356.79 61.5122 1335.66 52.5578 1309.87 33.4402C1283.01 13.8302 1271.5 0.0852509 1271.99 -11.3316C1272.53 -23.3304 1287.57 -32.4191 1306.56 -43.8807C1314.93 -48.9399 1324.47 -54.6707 1333.91 -61.3865C1367.67 -85.2946 1381.64 -122.187 1394 -154.736C1413.16 -204.88 1442.3 -214.417 1489.31 -214.417C1496.93 -214.417 1504.81 -214.193 1513.13 -213.969L1522.89 -213.7C1526.74 -213.7 1530.73 -213.7 1534.85 -213.7C1590.23 -213.7 1641.05 -222.386 1690.16 -230.758C1731.17 -237.743 1769.9 -244.19 1804.82 -244.19C1823.07 -244.42 1841.25 -242.115 1858.86 -237.34C1893.56 -227.49 1929.11 -211.238 1965.78 -192.031V-193.553C1929.24 -212.447 1893.83 -228.564 1859.22 -238.325C1841.53 -243.345 1823.21 -245.847 1804.82 -245.757Z" fill="white" fill-opacity="0.03"/>
<path d="M1224.13 537.748C1218.94 605.667 1232.37 660.647 1261.92 692.524C1277.36 709.224 1296.35 718.402 1315.38 718.402C1342.51 718.402 1364.22 699.553 1370.67 670.407C1389.52 585.34 1360.33 508.512 1332.52 459.173C1299.89 401.239 1258.07 360.228 1237.97 346.796C1230.58 341.916 1225.43 338.872 1222.25 338.872C1221.74 338.856 1221.23 338.952 1220.76 339.153C1220.29 339.354 1219.86 339.655 1219.52 340.036C1216.92 342.946 1218 351.273 1220.1 367.749C1227.68 424.096 1229.03 481.106 1224.13 537.748ZM1220.5 340.752C1220.72 340.508 1220.99 340.316 1221.29 340.192C1221.6 340.068 1221.92 340.014 1222.25 340.036C1225.07 340.036 1230.26 343.125 1237.2 347.736C1282.65 378.047 1403.35 516.168 1369.33 670.093C1363.01 698.658 1341.84 717.059 1315.6 717.059C1296.97 717.059 1278.31 708.105 1263.13 691.629C1233.8 660.02 1220.55 605.398 1225.7 537.838C1230.61 481.149 1229.24 424.093 1221.62 367.705C1219.52 352.482 1218.36 343.349 1220.5 340.752Z" fill="white" fill-opacity="0.03"/>
<path d="M1198.39 542.228C1193.19 626.802 1209.4 693.557 1243.92 730.27C1261.83 749.298 1283.5 759.327 1306.6 759.327C1350.93 759.327 1388.44 723.509 1400.04 670.097C1417.1 591.388 1402.41 513.888 1356.43 439.79C1309.82 364.708 1245.35 316.131 1211.06 293.879C1193.6 282.552 1186.12 277.851 1183.25 281.253C1180.39 284.656 1182.45 292.267 1185.49 308.475C1192.21 343.486 1206.04 416.598 1198.39 542.228ZM1184.33 282.149C1184.53 281.923 1184.78 281.746 1185.06 281.629C1185.34 281.513 1185.64 281.461 1185.94 281.477C1189.57 281.477 1197.4 286.581 1210.39 294.909C1324.64 369.096 1434.25 506.5 1398.74 669.738C1387.32 722.48 1350.3 757.894 1306.65 757.894C1283.86 757.894 1262.5 747.999 1244.91 729.285C1210.61 692.841 1194.58 626.31 1199.73 542.228C1207.39 416.554 1193.55 343.307 1186.88 308.161C1184.06 293.297 1182.27 284.343 1184.33 282.014V282.149Z" fill="white" fill-opacity="0.03"/>
<path d="M683.153 261.193C695.824 261.193 704.913 248.97 714.494 230.614C731.507 198.557 766.922 183.066 786.129 174.739C795.755 170.485 799.56 168.918 798.889 166.277C798.217 163.635 796.023 163.098 782.86 162.203C743.192 159.516 654.186 197.349 644.068 225.823C642.858 228.866 642.704 232.227 643.629 235.368C644.554 238.509 646.506 241.249 649.172 243.15C664.439 255.776 674.647 261.059 683.333 261.059L683.153 261.193ZM646.844 226.898C656.201 200.886 738.939 165.202 778.607 165.202C779.995 165.202 781.338 165.202 782.592 165.202C786.842 165.298 791.072 165.823 795.217 166.769C791.85 168.617 788.382 170.277 784.83 171.739C765.399 180.201 729.313 196.005 711.852 229.047C700.838 249.821 692.779 257.925 683.153 257.925C675.274 257.925 665.648 252.731 650.963 240.598C648.83 239.115 647.263 236.953 646.515 234.466C645.767 231.979 645.883 229.311 646.844 226.898Z" fill="white" fill-opacity="0.03"/>
<path d="M722.105 259.582C752.595 204.02 808.336 184.634 853.466 173.934C857.943 172.904 858.211 170.71 857.943 169.456C856.913 160.502 814.648 143.086 751.565 143.086C744.446 143.086 737.148 143.31 729.895 143.757C701.107 145.503 633.143 185.708 608.698 215.392C602.34 223.093 599.475 229.54 600.147 234.465C601.848 246.822 612.862 252.374 625.577 258.642C639.009 265.358 654.365 272.969 661.797 290.743C666.275 301.041 671.826 306.279 678.676 306.279C690.496 306.369 705.047 290.654 722.105 259.582ZM663.902 289.937C656.156 271.446 640.486 263.656 626.651 256.761C614.474 250.672 603.952 245.434 602.43 234.375C601.848 230.122 604.624 224.078 610.489 216.959C634.621 187.544 701.689 147.787 730.119 146.085C737.283 145.638 744.536 145.414 751.61 145.414C813.619 145.414 854.943 162.561 855.794 169.815C855.794 170.979 854.048 171.605 852.883 171.874C807.306 182.664 751.028 202.274 720.09 258.597C694.257 305.294 675.139 316.621 663.946 289.937H663.902Z" fill="white" fill-opacity="0.03"/>
<path d="M1311.17 643.501C1313.5 643.501 1315.65 641.889 1317.3 638.665C1326.03 622.279 1325.85 565.732 1302.75 531.213C1299.71 526.736 1295.36 527.363 1292.1 533.004C1283.41 547.958 1279.78 595.685 1303.42 636.964C1305.93 641.352 1308.53 643.501 1311.17 643.501ZM1294.87 534.616C1295.99 532.601 1297.24 531.437 1298.18 531.437C1299.12 531.437 1299.8 532.422 1300.15 533.049C1322.32 566.001 1322.76 621.787 1314.57 637.188C1313.5 639.248 1312.29 640.412 1311.21 640.412C1310.14 640.412 1307.99 638.576 1306.2 635.487C1283.45 595.595 1286.72 548.629 1294.87 534.616Z" fill="white" fill-opacity="0.03"/>
<path d="M1602.41 780.905C1605.59 785.382 1613.42 787.487 1628.51 787.487C1637.91 787.487 1649.19 786.726 1662.22 785.83C1678.34 784.756 1696.65 783.547 1715.55 783.547C1775.45 783.547 1815.79 796.262 1842.7 823.841C1867.73 843.093 1881.56 874.478 1893.74 902.147C1908.51 935.816 1921.32 964.828 1949.57 964.828C1952.73 964.817 1955.88 964.487 1958.97 963.843C1961.27 963.365 1963.54 962.767 1965.78 962.052V959.724C1963.27 960.53 1960.81 961.157 1958.52 961.649C1955.58 962.256 1952.58 962.571 1949.57 962.589C1922.71 962.589 1910.26 934.159 1895.84 901.207C1883.53 873.27 1869.61 841.616 1844.27 822.095C1817 794.337 1776.12 781.398 1715.59 781.398C1696.61 781.398 1678.3 782.607 1662.13 783.726C1649.11 784.577 1637.91 785.338 1628.56 785.338C1614.63 785.338 1606.93 783.547 1604.29 779.696C1603.56 778.373 1603.18 776.887 1603.18 775.376C1603.18 773.865 1603.56 772.379 1604.29 771.055C1632.81 694.943 1656.63 598.505 1654.34 568.821C1650.31 516.841 1627.48 467.726 1605.36 420.268C1578.5 362.065 1552.8 307.309 1569.01 261.552C1591.39 197.976 1694.37 87.6137 1750.33 80.0025C1753.3 79.624 1756.3 79.4446 1759.29 79.4653C1802.72 79.4653 1879.23 110.537 1965.96 161.98V159.383C1879.32 108.164 1802.85 77.2267 1759.29 77.2267C1756.2 77.201 1753.12 77.3956 1750.07 77.8087C1693.65 85.4647 1589.69 196.723 1566.95 260.836C1550.43 307.443 1576.13 362.692 1603.35 421.209C1625.38 468.488 1648.12 517.423 1652.15 568.956C1654.16 594.968 1632.81 688.541 1602.27 770.429C1601.44 772.052 1601.01 773.857 1601.03 775.684C1601.06 777.511 1601.53 779.304 1602.41 780.905Z" fill="white" fill-opacity="0.03"/>
<path d="M1804.82 -214.731C1772.45 -214.731 1734.89 -208.328 1695.13 -201.523C1644.81 -192.927 1592.74 -184.062 1534.85 -184.062C1530.61 -184.062 1526.4 -184.062 1522.22 -184.062L1512.33 -184.331C1504.22 -184.331 1496.52 -184.778 1489.31 -184.778C1426.63 -184.778 1423.5 -150.304 1420.19 -113.77C1418.4 -93.7572 1416.56 -73.0726 1405.5 -55.5668C1401.56 -49.254 1391 -41.3294 1379.8 -32.9123C1355.94 -15.0036 1328.9 5.32281 1341.88 24.3508C1343.88 27.9376 1346.77 30.9523 1350.26 33.1077C1353.76 35.263 1357.75 36.487 1361.85 36.6631C1366.56 36.5027 1371.16 35.2293 1375.28 32.947C1396.46 22.0227 1419.07 -10.2578 1437.25 -36.2254C1447.59 -51.0001 1456.5 -63.7153 1461.38 -66.6255C1466.2 -69.1885 1471.64 -70.3808 1477.09 -70.0729H1482.82C1484.75 -70.0729 1486.72 -70.0729 1488.69 -70.0729C1492.72 -69.7447 1496.77 -70.2209 1500.61 -71.4737C1504.46 -72.7266 1508.01 -74.7311 1511.07 -77.3707C1519.54 -85.0715 1520.61 -95.2795 1521.64 -104.726C1522.58 -113.681 1523.43 -121.65 1529.21 -128.545C1546.67 -149.409 1607.92 -164.004 1648.43 -173.63C1660.39 -176.496 1670.82 -178.913 1678.34 -181.152C1712.1 -190.96 1747.06 -196.008 1782.21 -196.15C1857.07 -196.15 1916.93 -171.615 1965.78 -142.424V-145.066C1916.89 -174.257 1857.03 -198.792 1782.21 -198.792C1746.79 -198.447 1711.59 -193.158 1677.63 -183.077C1670.01 -180.883 1659.72 -178.6 1647.85 -175.6C1604.6 -165.303 1545.37 -151.199 1527.42 -129.754C1521.19 -122.322 1520.25 -113.412 1519.31 -104.771C1518.28 -95.1004 1517.34 -85.9221 1509.46 -78.8034C1506.63 -76.3772 1503.34 -74.535 1499.79 -73.3825C1496.24 -72.2301 1492.5 -71.79 1488.78 -72.0877C1486.85 -72.0877 1484.93 -72.0877 1483 -72.0877H1477.18C1471.32 -72.4062 1465.48 -71.1052 1460.3 -68.3268C1455.02 -65.148 1446.42 -52.8806 1435.5 -37.3C1418.44 -12.8993 1395.2 20.5452 1374.39 31.2009C1361.76 37.6928 1351.78 35.1408 1343.72 23.3211C1331.94 6.03915 1358.09 -13.5709 1381.15 -30.8976C1393.01 -39.852 1403.26 -47.5079 1407.43 -54.1341C1418.71 -72.0429 1420.59 -93.1752 1422.43 -113.457C1425.78 -150.438 1428.65 -182.405 1489.31 -182.405C1496.52 -182.405 1504.18 -182.405 1512.28 -181.958L1522.13 -181.689C1526.34 -181.689 1530.59 -181.689 1534.85 -181.689C1593.05 -181.689 1645.08 -190.643 1695.53 -199.195C1735.16 -205.955 1772.63 -212.358 1804.82 -212.358C1820.11 -212.586 1835.36 -210.688 1850.13 -206.717C1886.71 -196.509 1925.48 -177.839 1965.78 -156.214V-158.9C1925.48 -180.167 1887.2 -198.568 1850.76 -209C1835.79 -213.045 1820.33 -214.974 1804.82 -214.731Z" fill="white" fill-opacity="0.03"/>
<path d="M1670.01 722.568C1678.34 734.567 1695.94 736 1720.29 737.746L1728.44 738.418C1736.14 739.044 1744.2 739.313 1752.71 739.582C1792.29 740.97 1837.15 742.492 1877.67 779.384L1878.16 779.832C1900.54 799.486 1913.98 834.14 1925.8 864.898C1937.61 895.656 1947.91 922.296 1964.25 922.296H1965.78V920.908C1965.27 920.951 1964.76 920.951 1964.25 920.908C1948.85 920.908 1938.73 894.716 1927.05 864.361C1915.36 834.006 1901.75 798.86 1879.05 778.936L1878.56 778.533C1837.68 741.283 1792.55 739.761 1752.75 738.239C1744.25 737.97 1736.19 737.701 1728.53 737.074L1720.38 736.448C1696.38 734.567 1679.1 733.269 1671.13 721.807C1663.16 710.346 1664.64 690.467 1674.58 655.993C1683.44 627.02 1686.97 596.682 1685.01 566.449C1680.54 508.917 1656.49 457.206 1633.21 407.196C1608.95 355.037 1586.02 305.743 1598.02 271.895C1617.99 215.528 1714.43 116.045 1754.36 110.717C1755.94 110.514 1757.52 110.425 1759.11 110.448C1792.46 110.448 1867.91 138.207 1965.78 198.111V196.544C1867.99 136.774 1792.55 109.105 1759.11 109.105C1757.46 109.081 1755.82 109.171 1754.18 109.374C1713.89 114.881 1616.82 214.901 1596.72 271.537C1584.54 305.877 1607.6 355.44 1632.05 407.912C1655.24 457.609 1679.24 509.141 1683.71 566.449C1685.68 596.561 1682.16 626.78 1673.33 655.635C1663.12 691.183 1662.13 711.241 1670.01 722.568Z" fill="white" fill-opacity="0.03"/>
<path d="M853.645 1127.44C920.31 1119.87 999.69 1040.67 1020.96 980.141C1057.94 875.016 992.258 790.398 928.727 708.599C867.389 629.577 809.5 554.987 837.661 464.145C862.196 385.033 941.442 342.321 1003.54 342.321C1037.03 342.321 1065.95 354.186 1085.07 375.766C1107.77 401.375 1116.68 440.282 1110.86 488.277C1090.85 653.172 1084.89 833.558 1268.72 886.747C1288.83 892.714 1309.67 895.804 1330.64 895.925C1408.01 895.925 1457.44 851.556 1485.24 814.395C1538.56 743.074 1557.1 636.383 1531.31 548.898C1509.46 474.756 1466.44 402.853 1399.86 329.069C1300.83 219.378 1166.02 125.044 987.647 40.7382L979.946 37.0669C904.908 1.60764 827.319 -35.1053 745.61 -55.3421C740.775 -56.551 735.402 -57.9837 729.671 -59.5059C704.42 -66.1769 673.035 -74.5492 646.082 -74.5492C636.663 -74.7616 627.276 -73.3687 618.324 -70.4302C606.683 -66.2664 600.147 -58.2971 593.789 -50.5963C589.222 -44.3568 583.601 -38.9628 577.179 -34.6575C569.852 -30.8604 562.267 -27.584 554.479 -24.8525C539.391 -19.0322 523.766 -12.988 518.662 -7.21241C509.125 3.98055 511.722 10.6963 514.185 17.233C515.436 19.6262 516.195 22.2456 516.418 24.9368C516.641 27.6281 516.323 30.3367 515.483 32.9031L513.737 38.0967C500.305 77.9884 500.305 77.9884 468.965 87.0323C462.921 88.7784 455.534 90.9274 446.579 93.7928C420.835 101.986 410.269 114.612 400.061 126.834C392.276 137.348 382.281 146.029 370.781 152.265H369.527C353.409 152.265 231.182 160.324 221.78 190.366C219.228 198.469 224.735 207.289 238.122 216.512C248.896 224.775 262.063 229.316 275.64 229.451C279.58 229.451 283.117 229.093 286.565 228.78C289.344 228.441 292.138 228.246 294.937 228.198C304.787 228.198 314.726 231.018 328.382 264.597C331.739 272.88 334.336 279.685 336.485 285.282C347.051 312.951 347.365 313.309 374.228 324.771C380.899 327.636 389.182 331.173 399.703 336.008C434.267 351.947 441.341 370.08 450.295 393.003C455.496 407.461 462.299 421.292 470.577 434.238C481.155 449.549 493.147 463.834 506.394 476.905C528.288 499.694 548.972 521.229 555.643 557.181C567.06 619.459 533.257 678.916 495.022 733.896C476.487 760.535 438.386 791.606 398.047 824.469C329.814 880.21 252.18 943.428 251.911 1002.03C251.911 1035.48 260.328 1061.13 277.431 1078.15C296.056 1096.86 324.352 1105.99 363.975 1105.99C421.373 1105.99 491.978 1086.61 554.255 1069.51C603.504 1056.07 645.59 1044.48 672.677 1044.48C677.872 1044.34 683.06 1044.96 688.078 1046.31C714.18 1054.06 734.91 1070.62 754.923 1086.61C781.472 1107.87 806.589 1127.93 842.452 1127.93C846.189 1127.99 849.927 1127.82 853.645 1127.44ZM688.974 1043.67C683.666 1042.23 678.176 1041.56 672.677 1041.7C645.187 1041.7 602.654 1053.34 553.405 1066.86C491.306 1083.88 420.97 1103.17 363.975 1103.22C325.248 1103.22 297.668 1094.26 279.625 1076.36C263.149 1059.79 254.866 1034.9 255.045 1002.3C255.493 945.174 332.321 882.18 400.285 826.842C440.58 793.845 479.039 762.684 497.798 735.642C536.436 680.08 570.552 619.951 558.956 556.554C552.196 519.707 531.198 497.858 508.991 474.711C495.77 461.778 483.779 447.644 473.174 432.492C465.035 419.705 458.338 406.056 453.205 391.794C443.982 368.244 436.729 349.619 401.001 333.143C390.435 328.263 382.153 324.726 375.482 321.86C349.603 310.802 349.603 310.802 339.395 284.118C337.246 278.477 334.65 271.716 331.292 263.388C318.263 231.332 308.1 225.019 294.937 225.019C292.034 225.066 289.135 225.26 286.251 225.601C282.893 225.914 279.401 226.273 275.64 226.273C262.674 226.163 250.098 221.824 239.823 213.916C227.735 205.499 222.631 197.887 224.69 191.261C232.883 165.159 346.783 155.444 369.437 155.444H370.557L370.915 154.011L371.586 155.354C383.68 148.931 394.188 139.892 402.345 128.894C412.732 116.447 422.537 104.762 447.43 96.7925C456.384 93.9719 463.816 91.8228 469.816 90.0767C502.365 80.6747 502.768 80.1822 516.737 39.1264L518.528 33.9329C519.496 31.0051 519.872 27.9137 519.634 24.839C519.396 21.7643 518.548 18.7678 517.14 16.0242C514.767 9.84566 512.662 4.51782 520.99 -5.24244C525.467 -10.436 541.361 -16.6145 555.42 -22.0319C563.391 -24.8261 571.155 -28.1773 578.656 -32.0607C585.431 -36.5661 591.37 -42.2172 596.207 -48.7606C602.564 -56.5062 608.564 -63.7592 619.354 -67.6544C628.021 -70.4774 637.104 -71.8096 646.217 -71.5943C672.766 -71.5943 703.928 -63.3115 729 -56.6405C734.731 -55.1183 740.103 -53.6856 744.983 -52.4767C826.379 -32.3294 903.834 4.29394 978.737 39.7532L986.438 43.3798C1164.41 127.551 1298.95 221.616 1397.67 330.949C1463.93 404.42 1506.73 475.92 1528.45 549.615C1553.97 636.203 1535.61 741.731 1482.87 812.336C1455.47 848.959 1406.76 892.612 1330.64 892.612C1309.97 892.52 1289.41 889.505 1269.57 883.657C1088.25 831.229 1094.11 652.276 1113.95 488.501C1119.9 439.61 1110.72 399.853 1087.4 373.572C1067.7 351.186 1037.93 339.053 1003.54 339.053C940.323 339.053 859.644 382.526 834.661 463.116C806.007 555.48 867.121 634.233 926.264 710.345C989.258 791.517 1054.4 875.464 1018 978.976C997.004 1038.7 918.877 1116.78 853.286 1124.26C849.689 1124.67 846.072 1124.88 842.452 1124.89C807.664 1124.89 782.995 1105.14 756.893 1084.23C736.611 1068.12 715.658 1051.37 688.974 1043.67Z" fill="white" fill-opacity="0.03"/>
<path d="M1262.86 -161.586C1247.68 -150.84 1227.04 -145.647 1199.33 -145.647C1166.91 -145.647 1130.69 -152.9 1098.73 -159.078C1079.92 -162.839 1062.1 -166.421 1047.6 -168.033C1031.06 -169.734 1014.44 -170.586 997.81 -170.585C954.202 -170.585 898.237 -164.675 879.478 -136.513C871.285 -124.246 870.971 -108.889 878.448 -90.7566C881.985 -82.2947 891.119 -77.6384 899.939 -73.206C906.833 -70.4117 913.036 -66.1491 918.116 -60.7147C922.773 -53.2073 926.232 -45.0204 928.369 -36.4483C931.995 -24.7629 935.711 -12.7193 944.173 -5.60056C954.259 3.05527 967.196 7.66525 980.483 7.3385C990.511 6.98309 1000.48 5.66373 1010.26 3.39859C1019.88 1.15729 1029.7 -0.147186 1039.58 -0.496582C1048.13 -0.669708 1056.59 1.26794 1064.21 5.14468C1082.12 14.099 1089.5 26.6352 1096.76 38.5892C1106.2 54.1698 1115.11 68.8549 1144.48 75.7498C1206 90.1216 1222.83 105.165 1263.53 141.475C1268.77 145.952 1274.41 151.19 1280.59 156.608C1294.03 169.154 1306.04 183.148 1316.41 198.335C1325.75 211.796 1336.23 224.423 1347.75 236.078C1360.43 247.911 1375.22 257.266 1391.35 263.657C1409.89 272.119 1427.4 280.088 1443.29 307.354L1445.8 311.832C1465.81 346.396 1486.09 378.407 1498.45 378.407C1499.42 378.419 1500.38 378.217 1501.26 377.814C1502.14 377.412 1502.93 376.819 1503.55 376.079C1508.03 371.199 1509.24 358.171 1507.27 336.232C1506.1 323.428 1496.84 311.921 1487.84 300.818C1478.17 288.864 1469.03 277.581 1469.57 265C1470.24 250.002 1479.29 242.614 1488.87 234.869C1496.58 229.483 1502.93 222.369 1507.4 214.095C1517.61 192.112 1520.07 172.457 1522.49 153.429C1525.8 126.924 1528.94 101.941 1552.62 73.6455C1596.63 21.9867 1654.94 -15.4941 1720.2 -34.0754C1740.32 -40.1243 1761.2 -43.2898 1782.21 -43.4775C1849.37 -43.4775 1897.37 -6.98849 1948.32 31.6048L1965.78 44.7677V40.7831C1960.54 36.8879 1955.34 32.948 1950.2 29.0528C1898.84 -9.89868 1850.31 -46.6563 1782.21 -46.6563C1760.98 -46.4759 1739.88 -43.2955 1719.53 -37.2095C1653.68 -18.4687 1594.85 19.3576 1550.47 71.4965C1526.16 100.464 1522.98 125.939 1519.58 152.892C1517.21 171.696 1514.79 191.127 1504.81 212.617C1500.52 220.452 1494.46 227.181 1487.12 232.272C1477.45 240.197 1467.38 248.345 1466.66 264.732C1466.08 278.387 1476.02 290.699 1485.64 302.564C1494.33 313.309 1503.28 324.413 1504.36 336.322C1506.69 362.066 1504.09 370.886 1501.49 373.751C1501.14 374.158 1500.71 374.485 1500.22 374.709C1499.74 374.933 1499.21 375.049 1498.67 375.049C1486.32 375.049 1459.99 329.517 1448.71 310.041L1446.24 305.564C1429.86 277.402 1411.86 269.254 1392.88 260.568C1377.09 254.332 1362.59 245.224 1350.12 233.705C1338.72 222.163 1328.33 209.672 1319.05 196.365C1308.53 180.978 1296.33 166.803 1282.69 154.101C1276.51 148.728 1270.87 143.669 1265.63 139.012C1224.49 102.3 1207.43 87.1219 1145.2 72.5711C1117.08 65.9896 1108.53 51.7969 1099.44 36.7536C1091.96 24.4413 1084.26 11.6814 1065.64 2.10019C1057.56 -1.96863 1048.62 -4.01227 1039.58 -3.85446C1029.5 -3.49896 1019.47 -2.17963 1009.63 0.0854797C1000.06 2.32361 990.302 3.62808 980.483 3.98059C967.93 4.30774 955.705 -0.0493469 946.188 -8.2421C938.442 -14.7788 934.816 -26.1508 931.368 -37.5676C929.157 -46.4901 925.529 -55.0002 920.623 -62.7742C915.294 -68.658 908.695 -73.2513 901.327 -76.2057C892.372 -80.6829 884.403 -84.7571 881.314 -92.1892C874.24 -109.292 874.463 -123.53 882.03 -134.991C899.939 -161.854 954.918 -167.675 997.765 -167.675C1014.21 -167.678 1030.65 -166.841 1047.01 -165.167C1061.43 -163.6 1079.16 -160.063 1097.92 -156.213C1130.02 -149.811 1166.38 -142.513 1199.1 -142.513C1227.31 -142.513 1248.71 -147.885 1264.43 -159.034C1303.6 -186.703 1292.36 -228.475 1281.53 -268.904C1269.89 -312.064 1257.89 -356.701 1306.15 -385.803C1313.19 -389.606 1321.13 -391.432 1329.12 -391.086C1358 -391.086 1398.65 -375.281 1437.96 -360.014C1472.21 -346.583 1504.54 -334.181 1525.58 -333.688H1534.53C1579.75 -333.688 1625.47 -341.479 1669.66 -349.045C1713.85 -356.612 1759.42 -364.357 1804.51 -364.357C1833.9 -364.635 1863.18 -360.776 1891.5 -352.896C1916.86 -345.469 1941.68 -336.299 1965.78 -325.45V-328.898C1942.04 -339.488 1917.61 -348.463 1892.66 -355.761C1864.07 -363.73 1834.5 -367.633 1804.82 -367.357C1759.47 -367.357 1713.71 -359.522 1669.48 -352C1625.24 -344.478 1579.93 -336.688 1534.85 -336.688C1531.76 -336.688 1528.8 -336.688 1525.89 -336.688C1505.39 -337.181 1473.29 -349.627 1439.35 -362.835C1399.73 -378.192 1358.76 -394.175 1329.35 -394.175C1320.78 -394.564 1312.27 -392.581 1304.77 -388.444C1254.49 -358.089 1266.8 -312.332 1278.71 -268.053C1289.72 -226.908 1300.15 -188.001 1262.86 -161.586Z" fill="white" fill-opacity="0.03"/>
</svg>
