<svg width="109" height="107" fill="none" xmlns="http://www.w3.org/2000/svg"><path d="M9.814 75.156h3.529v16.307H9.814V85.05H3.528v6.414H0V75.156h3.528v6.812h6.286v-6.812zM27.133 89.52a7.14 7.14 0 01-4.99 1.94 6.722 6.722 0 01-4.708-1.702c-1.249-1.135-1.871-2.668-1.869-4.6.003-1.932.626-3.463 1.87-4.592a6.521 6.521 0 014.498-1.702 6.612 6.612 0 014.415 1.532 5.247 5.247 0 011.396 1.89 5.11 5.11 0 01.416 2.293v1.817h-9.16a2.415 2.415 0 001.06 1.621 3.498 3.498 0 002.057.639 4.148 4.148 0 001.65-.29 4.054 4.054 0 001.387-.915l1.978 2.068zm-3.366-7.235a2.705 2.705 0 00-1.75-.587 3.224 3.224 0 00-1.904.613 2.358 2.358 0 00-.685.724 2.31 2.31 0 00-.317.936h5.501a2.372 2.372 0 00-.245-.935 2.435 2.435 0 00-.6-.768v.017zm16.261 8.993h-3.225V89.8a4.037 4.037 0 01-1.439 1.222 4.063 4.063 0 01-1.84.438 4.892 4.892 0 01-3.281-1.124 3.753 3.753 0 01-1.328-2.98 3.163 3.163 0 01.315-1.583c.24-.493.603-.915 1.056-1.227.916-.621 2.166-.932 3.751-.932h2.57v-.068c0-1.303-.694-1.954-2.082-1.954a5.71 5.71 0 00-1.888.353c-.602.204-1.169.5-1.679.877l-1.533-2.205a9.22 9.22 0 015.533-1.75 5.767 5.767 0 013.653 1.086c.942.745 1.417 1.92 1.417 3.525v7.799zm-3.46-4.657v-.592h-2.141c-1.375 0-2.06.426-2.06 1.277a1.156 1.156 0 00.492 1.009c.42.262.911.386 1.405.353.587.01 1.16-.188 1.614-.557a1.81 1.81 0 00.69-1.49zm9.39 4.842h-3.706V74.415h3.706v17.048zm6.312-10.108v5.556a1.62 1.62 0 00.358 1.118 1.13 1.13 0 00.844.402 1.93 1.93 0 001.599-.864l1.265 2.418a4.823 4.823 0 01-3.324 1.476 3.949 3.949 0 01-1.64-.298 4.028 4.028 0 01-1.383-.953 4.141 4.141 0 01-.889-1.443 4.218 4.218 0 01-.242-1.688v-5.724H47.44v-2.487h1.417v-3.712h3.404v3.712h2.927v2.487h-2.92zm8.12 3.444v6.664h-3.313V74.415h3.312v6.07a4.634 4.634 0 011.526-1.158 4.474 4.474 0 011.845-.426 4.064 4.064 0 011.716.34 4.226 4.226 0 011.435 1.037c.436.495.774 1.074.994 1.705.22.631.316 1.302.285 1.972v7.508h-3.312v-6.759c0-1.897-.671-2.847-2.013-2.85a2.32 2.32 0 00-.94.19 2.399 2.399 0 00-.794.56 2.898 2.898 0 00-.591 1.017 3.016 3.016 0 00-.15 1.178zm10.77 6.664V75.156h3.822V88.22h7.298v3.242H71.16zm12.53-14.202c-.369-.34-.6-.788-.656-1.27a1.996 1.996 0 01.352-1.374 2.215 2.215 0 011.2-.85 2.355 2.355 0 011.5.062c.477.183.872.517 1.116.944.245.427.324.92.225 1.397-.1.476-.372.904-.77 1.212a2.311 2.311 0 01-1.415.476 2.234 2.234 0 01-.841-.148 2.129 2.129 0 01-.711-.449zm3.422 14.202h-3.73V78.866h3.73v12.597zm5.929-13.368v.845h2.954v2.539h-2.954v9.984h-3.4V81.48H88.21v-2.54h1.418v-.774a4.4 4.4 0 01.248-1.739 4.26 4.26 0 01.905-1.483 4.05 4.05 0 011.404-.973 3.91 3.91 0 011.662-.293 4.6 4.6 0 013.258 1.412l-1.22 2.372a2.184 2.184 0 00-.728-.633 2.09 2.09 0 00-.917-.247c-.16-.003-.318.03-.463.096a1.097 1.097 0 00-.381.291 1.68 1.68 0 00-.355 1.127zm14.949 11.411a6.491 6.491 0 01-4.686 1.953 6.09 6.09 0 01-4.444-1.702c-1.17-1.135-1.755-2.668-1.755-4.6 0-1.931.596-3.462 1.788-4.59a5.916 5.916 0 014.226-1.703c1.512-.04 2.986.5 4.135 1.52a5.254 5.254 0 011.311 1.883c.295.722.43 1.503.395 2.286v1.817h-8.608c.051.33.166.644.339.926.174.28.401.522.668.708a3.157 3.157 0 001.932.638 3.675 3.675 0 001.55-.288c.492-.208.935-.52 1.303-.916l1.846 2.068zm-3.161-7.234a2.448 2.448 0 00-1.645-.587 2.9 2.9 0 00-1.788.613 2.334 2.334 0 00-.644.725 2.4 2.4 0 00-.301.934h5.179a2.497 2.497 0 00-.225-.932 2.428 2.428 0 00-.556-.77l-.02.017z" fill="#768589"/><path d="M19.137 104.692a2.36 2.36 0 01-.366.865c-.183.244-.418.43-.682.541-.328.136-.676.2-1.025.189a2.68 2.68 0 01-.733-.1 1.963 1.963 0 01-.641-.311 1.744 1.744 0 01-.476-.537 1.759 1.759 0 01-.217-.777h.612c.023.184.082.359.174.512.091.152.213.279.354.37.136.091.285.156.44.193.16.042.325.063.49.063.228.023.457-.015.67-.111a1.48 1.48 0 00.554-.443 2.805 2.805 0 00.366-1.591v-.777c-.136.34-.351.631-.622.84-.284.218-.62.33-.96.323-.351.011-.7-.067-1.023-.227a1.952 1.952 0 01-.7-.625 2.747 2.747 0 01-.402-.936 5.191 5.191 0 01-.125-1.142 4.12 4.12 0 01.15-1.113c.093-.334.24-.646.433-.919.193-.263.434-.474.707-.617a1.99 1.99 0 01.96-.227c.177-.002.354.028.524.088.16.057.311.14.45.248a1.84 1.84 0 01.612.814V98.3h.612v5.243c0 .389-.046.776-.136 1.15zm-1.392-1.519c.196-.128.367-.301.502-.508a2.54 2.54 0 00.304-.727c.066-.273.1-.555.099-.839 0-.283-.03-.564-.084-.84a2.689 2.689 0 00-.282-.764 1.656 1.656 0 00-.499-.554 1.268 1.268 0 00-.732-.21 1.318 1.318 0 00-.733.206 1.718 1.718 0 00-.513.537 2.53 2.53 0 00-.293.756 4.058 4.058 0 00-.092.869c0 .283.032.565.096.839.06.262.162.508.3.727.136.21.311.384.513.508.226.134.478.201.733.193.238-.001.473-.071.681-.206v.013zm3.682-4.972v1.389h.022c.166-.45.473-.835.879-1.1a2.283 2.283 0 011.392-.349v.714a2.179 2.179 0 00-.9.129c-.261.096-.5.242-.703.43-.191.193-.34.423-.44.674a2.27 2.27 0 00-.162.86v3.117h-.76v-5.847l.672-.017zm3.238 3.853c.082.257.22.499.407.714a2.096 2.096 0 001.66.726 2.242 2.242 0 001.396-.388c.346-.284.588-.647.695-1.044h.813c-.125.564-.457 1.081-.95 1.478a3.209 3.209 0 01-1.959.52 3.677 3.677 0 01-1.361-.231 2.49 2.49 0 01-.936-.644 2.592 2.592 0 01-.533-.946 3.624 3.624 0 01-.177-1.135c0-.368.06-.735.177-1.089.107-.342.288-.663.533-.95.248-.284.572-.514.945-.672.422-.18.89-.268 1.362-.256.45-.016.897.066 1.298.238.402.172.744.428.994.744.236.309.402.652.49 1.011.103.38.146.77.127 1.16h-5.103c.004.258.045.514.122.764zm4.026-2.093a2.042 2.042 0 00-.416-.636 2.03 2.03 0 00-.662-.445 2.19 2.19 0 00-.876-.17 2.268 2.268 0 00-.891.17 2.062 2.062 0 00-1.087 1.09c-.108.238-.18.488-.216.742h4.31a2.187 2.187 0 00-.162-.751zm2.524 2.092c.069.257.187.499.347.715.154.209.351.386.58.52.26.142.557.213.857.206.444.025.881-.113 1.222-.388.306-.282.518-.646.61-1.044h.741a2.71 2.71 0 01-.832 1.478 2.552 2.552 0 01-1.715.52 2.86 2.86 0 01-1.192-.231 2.199 2.199 0 01-.82-.644 2.784 2.784 0 01-.467-.946 4.108 4.108 0 010-2.225c.096-.34.254-.662.468-.95a2.3 2.3 0 01.823-.672c.369-.18.779-.268 1.192-.256.416-.011.828.081 1.197.268.324.174.602.418.81.714.207.309.352.652.429 1.012.09.38.128.77.111 1.16h-4.468c.003.258.04.514.107.763zm3.525-2.093a2.006 2.006 0 00-.364-.635 1.786 1.786 0 00-.58-.446 1.7 1.7 0 00-.767-.17 1.771 1.771 0 00-.78.17c-.221.11-.417.261-.575.446a2.21 2.21 0 00-.377.644 3.01 3.01 0 00-.19.743h3.775a2.341 2.341 0 00-.142-.752zm2.246-1.654v.997h.032c.129-.355.367-.654.676-.849.322-.21.693-.32 1.07-.318.328-.01.653.042.963.153.236.086.449.232.62.424.162.2.275.44.33.696.064.305.095.617.092.93v3.713h-.676v-3.603a3.683 3.683 0 00-.06-.688 1.483 1.483 0 00-.226-.551 1.094 1.094 0 00-.426-.37 1.539 1.539 0 00-.676-.136 1.613 1.613 0 00-.717.153 1.624 1.624 0 00-.527.425 2.06 2.06 0 00-.342.628 2.73 2.73 0 00-.133.789v3.366h-.664v-5.772l.664.013zm12.55 6.386c-.066.315-.19.61-.365.865a1.71 1.71 0 01-.679.541c-.329.136-.677.2-1.026.189a2.663 2.663 0 01-.73-.1 2 2 0 01-.64-.311 1.686 1.686 0 01-.47-.537 1.764 1.764 0 01-.216-.777h.607c.022.183.081.358.172.51.09.153.21.28.35.372.136.091.284.156.438.193.16.042.325.063.49.063a1.29 1.29 0 00.668-.11c.212-.096.402-.249.554-.444a2.812 2.812 0 00.365-1.591v-.777h-.021c-.135.34-.348.631-.617.84a1.514 1.514 0 01-.96.323 2.14 2.14 0 01-1.02-.227 1.976 1.976 0 01-.697-.625 2.738 2.738 0 01-.398-.937 4.973 4.973 0 01-.124-1.141 4.084 4.084 0 01.146-1.113c.094-.335.241-.647.434-.92a1.978 1.978 0 011.658-.843 1.551 1.551 0 01.971.336c.135.105.258.229.366.37.101.132.184.282.244.444h.022V98.3h.606v5.243c.003.388-.04.775-.128 1.15zm-1.39-1.519c.196-.127.366-.3.5-.508.139-.219.241-.465.303-.727a3.37 3.37 0 00.102-.839c0-.283-.03-.565-.088-.84a2.689 2.689 0 00-.277-.764 1.734 1.734 0 00-.497-.554 1.274 1.274 0 00-.73-.21 1.312 1.312 0 00-.73.206 1.676 1.676 0 00-.512.537 2.335 2.335 0 00-.292.756 4.07 4.07 0 00-.091.869c-.002.283.03.566.095.839.058.262.16.509.3.727.134.209.308.383.507.508.225.134.476.201.73.193.238 0 .472-.071.68-.206v.013zm3.838-1.119c.069.256.187.498.348.714.159.211.362.388.596.52.262.142.558.213.859.206.444.025.881-.113 1.223-.388.306-.282.518-.646.61-1.044h.712c-.11.564-.4 1.081-.833 1.478a2.556 2.556 0 01-1.717.52c-.41.009-.818-.07-1.193-.231a2.2 2.2 0 01-.82-.644 2.783 2.783 0 01-.468-.946 4.1 4.1 0 010-2.224c.096-.341.255-.662.468-.95a2.3 2.3 0 01.82-.672c.37-.18.78-.268 1.193-.256a2.37 2.37 0 011.138.238c.352.172.652.428.871.744.207.309.352.652.43 1.011.09.38.128.77.11 1.16h-4.454c.003.258.039.514.107.764zm3.528-2.093a2.004 2.004 0 00-.365-.636 1.787 1.787 0 00-.58-.445 1.703 1.703 0 00-.767-.17 1.774 1.774 0 00-.782.17c-.22.109-.417.26-.575.445-.162.193-.29.41-.377.644a3 3 0 00-.19.743h3.778a2.45 2.45 0 00-.142-.751zm2.234-1.655v.997h.024c.126-.356.365-.656.677-.849a1.94 1.94 0 011.071-.318c.327-.01.653.042.963.153.236.086.45.232.62.424.161.201.275.44.33.696.065.305.096.617.093.93v3.713h-.668v-3.603a3.367 3.367 0 00-.065-.688 1.48 1.48 0 00-.221-.551 1.077 1.077 0 00-.431-.37 1.494 1.494 0 00-.673-.136 1.615 1.615 0 00-.717.153 1.624 1.624 0 00-.528.425 2.057 2.057 0 00-.342.628c-.083.254-.128.52-.133.789v3.366h-.67v-5.772l.67.013zm5.354 3.748c.069.256.186.498.346.714.158.212.36.389.595.52.26.142.556.214.856.206.442.025.878-.113 1.219-.388.302-.284.513-.647.607-1.044h.71a2.711 2.711 0 01-.83 1.478 2.541 2.541 0 01-1.71.52 2.85 2.85 0 01-1.19-.231 2.194 2.194 0 01-.817-.644 2.712 2.712 0 01-.466-.946 4.11 4.11 0 010-2.224c.094-.342.252-.663.466-.95.219-.285.505-.515.834-.672.368-.18.777-.268 1.19-.256.392-.016.783.066 1.134.238.35.172.65.428.868.744.206.309.35.652.427 1.011.09.38.128.77.112 1.16h-4.458c.003.258.04.514.107.764zm3.516-2.093a2.093 2.093 0 00-.363-.636 1.783 1.783 0 00-.578-.445 1.705 1.705 0 00-.766-.17 1.763 1.763 0 00-.778.17c-.22.109-.416.26-.573.445-.162.193-.29.41-.377.644a3.008 3.008 0 00-.188.743h3.764a2.462 2.462 0 00-.14-.751zm2.831-1.759v1.388c.12-.453.353-.841.664-1.103.31-.263.68-.384 1.05-.345v.713a1.305 1.305 0 00-.687.13 1.625 1.625 0 00-.53.43 2.09 2.09 0 00-.334.674 2.802 2.802 0 00-.123.86v3.116h-.55v-5.846l.51-.017zm2.887.968a1.55 1.55 0 01.474-.588c.207-.157.444-.273.696-.34.29-.075.59-.111.89-.107.25-.001.498.022.743.07a1.8 1.8 0 01.66.266c.203.14.368.329.478.55.134.289.198.605.185.924v3.001c0 .278.132.415.412.415.076 0 .15-.015.219-.046v.58l-.21.033a1.843 1.843 0 01-.235 0 .972.972 0 01-.413-.075.543.543 0 01-.247-.198.736.736 0 01-.111-.311 2.379 2.379 0 01-.03-.414h-.024a4.75 4.75 0 01-.375.488c-.12.137-.259.255-.412.352a1.841 1.841 0 01-.532.22c-.233.053-.47.078-.71.074a2.754 2.754 0 01-.733-.091 1.68 1.68 0 01-.598-.294 1.46 1.46 0 01-.412-.513 1.76 1.76 0 01-.144-.737 1.45 1.45 0 01.26-.919c.18-.228.418-.404.688-.51a3.95 3.95 0 01.969-.244c.358-.05.721-.095 1.092-.137.144 0 .268-.033.38-.053.097-.02.19-.06.272-.116a.556.556 0 00.169-.224 1.03 1.03 0 00.057-.368 1.247 1.247 0 00-.115-.576.894.894 0 00-.313-.352c-.142-.09-.3-.152-.466-.182a3.12 3.12 0 00-.573-.05 1.727 1.727 0 00-1.064.31 1.208 1.208 0 00-.433.999h-.717c.02-.29.095-.575.222-.837zm3.421 1.681a.411.411 0 01-.251.174 2.023 2.023 0 01-.326.075c-.288.049-.59.099-.895.136-.28.036-.555.097-.824.183a1.645 1.645 0 00-.627.343.832.832 0 00-.243.638.999.999 0 00.103.464 1.166 1.166 0 00.68.571c.15.05.308.075.466.075a2.3 2.3 0 00.75-.12c.229-.074.44-.192.623-.348.173-.156.313-.345.412-.555a1.73 1.73 0 00.157-.741v-.895h-.025zm4.301-2.491v.58h-1.208v3.81c-.008.181.026.361.1.527.066.129.227.2.489.216.207 0 .413-.012.619-.033v.577h-.646a1.121 1.121 0 01-.543-.012 1.081 1.081 0 01-.468-.266 1.01 1.01 0 01-.27-.449.977.977 0 01-.005-.519v-3.863h-1.033v-.581h1.033v-1.695h.724v1.695l1.208.012zm2.224-2.45v1.154h-1.483v-1.153h1.483zm0 2.26v5.895h-1.483v-5.896h1.483zm5.19.204c.312.152.588.37.81.641.226.277.397.597.501.942a3.97 3.97 0 010 2.298 2.75 2.75 0 01-.501.942 2.411 2.411 0 01-.81.637 2.814 2.814 0 01-2.228 0 2.36 2.36 0 01-.808-.637 2.75 2.75 0 01-.502-.942 3.97 3.97 0 010-2.298c.105-.344.275-.665.502-.942.22-.271.496-.49.808-.64a2.713 2.713 0 012.229 0zm-1.957.542a1.97 1.97 0 00-.602.545 2.503 2.503 0 00-.36.769 3.224 3.224 0 000 1.752c.077.275.198.535.36.769a1.9 1.9 0 00.602.541 1.817 1.817 0 001.683 0c.238-.132.444-.317.602-.541.164-.233.287-.493.364-.769a3.223 3.223 0 000-1.752 2.435 2.435 0 00-.364-.769 1.882 1.882 0 00-.602-.545 1.82 1.82 0 00-1.683 0zm4.848-.61v.997h.02c.13-.355.37-.654.681-.849a1.94 1.94 0 011.072-.318c.325-.01.65.042.958.153.238.084.451.23.62.424.163.2.277.44.331.696.068.305.1.617.097.93v3.713h-.669v-3.603a3.367 3.367 0 00-.065-.688 1.479 1.479 0 00-.221-.551 1.106 1.106 0 00-.431-.37 1.541 1.541 0 00-.673-.136 1.615 1.615 0 00-.717.153c-.204.1-.385.245-.532.425a1.97 1.97 0 00-.338.628c-.083.254-.127.52-.133.789v3.366h-.669v-5.772l.67.013z" fill="#8C9799"/><path d="M84.006 16.529a8.995 8.995 0 00-3.507-3.126L59.798 1.675A10.806 10.806 0 0054.496.289c-1.86 0-3.688.478-5.3 1.386l-20.72 11.728c-1.634.922-3.825 2.635-3.998 4.788-.41 5.126 6.319 8.324 10.813 10.68 7.763 4.043 12.757 6.386 16.54 10.184.836.846 2.156 2.322 2.656 3.485.496-1.163 1.82-2.643 2.661-3.485 3.783-3.806 8.79-6.141 16.536-10.184 4.43-2.31 10.938-5.245 10.817-10.667a3.919 3.919 0 00-.496-1.675zM54.484 30.744a6.657 6.657 0 01-3.647-1.087 6.466 6.466 0 01-2.415-2.892 6.322 6.322 0 01-.37-3.72 6.4 6.4 0 011.8-3.294 6.596 6.596 0 013.363-1.759 6.684 6.684 0 013.792.37 6.537 6.537 0 012.944 2.375 6.35 6.35 0 011.102 3.578 6.375 6.375 0 01-1.928 4.548 6.63 6.63 0 01-4.641 1.881z" fill="url(#paint0_linear_0_15690)"/><path d="M73.465 31.771C64.375 36.56 58 38.793 55.523 46.55a25.724 25.724 0 00-1.038 3.8 25.7 25.7 0 00-1.035-3.8c-2.476-7.74-8.856-9.973-17.942-14.778-9.426-4.948-11.435-7.418-11.788-8.486v22.073c.003 1.82.489 3.607 1.407 5.182a10.419 10.419 0 003.828 3.79l20.427 11.692c.67.404 1.384.733 2.128.98-.247-.87-.54-1.79-.894-2.77-6.383-17.733-17.66-22.09-17.66-22.09s5.26.421 12.766 8.114c3.643 3.733 6.499 8.196 8.78 12.844 0 0 5.013-8.993 8.788-12.865 7.51-7.697 12.767-8.115 12.767-8.115s-11.287 4.361-17.661 22.09a44.28 44.28 0 00-.89 2.774c.742-.25 1.456-.579 2.128-.98l20.389-11.674a10.441 10.441 0 003.818-3.797 10.337 10.337 0 001.404-5.18V23.268c-.345 1.047-2.354 3.538-11.78 8.503z" fill="url(#paint1_linear_0_15690)"/><defs><linearGradient id="paint0_linear_0_15690" x1="24.462" y1="21.414" x2="84.502" y2="21.414" gradientUnits="userSpaceOnUse"><stop stop-color="#2B88D9"/><stop offset="1" stop-color="#26E0F5"/></linearGradient><linearGradient id="paint1_linear_0_15690" x1="61.694" y1="13.59" x2="42.31" y2="72.481" gradientUnits="userSpaceOnUse"><stop stop-color="#39B54A"/><stop offset="1" stop-color="#ACDF23"/></linearGradient></defs></svg>