<svg width="87" height="105" fill="none" xmlns="http://www.w3.org/2000/svg"><path d="M1.037 104.629h.583v-3.544h1.036v-.545H0v.545h1.037v3.544zm8.033-4.089h-.52l-1.425 4.02h.648l.324-.886h1.49l.324.886h.583l-1.426-4.02zm-.843 2.589l.583-1.771.583 1.771H8.227zm8.033-1.703a.919.919 0 01.26-.205c.13-.068.194-.068.324-.068.194 0 .324.068.453.137.13.136.194.272.26.408h.647c-.065-.34-.194-.613-.453-.817-.26-.205-.519-.341-.907-.341-.324 0-.583.068-.778.204-.194.137-.324.341-.453.477-.065.069-.13.205-.13.409 0 .137-.065.477-.065.954s0 .75.065.954c0 .068 0 .137.065.205 0 .068.065.136.065.204.065.205.259.341.453.477.195.136.454.205.778.205.388 0 .712-.137.971-.409.26-.273.39-.614.39-1.022v-.818h-1.361v.613h.777v.205c0 .272-.065.477-.26.613a.805.805 0 01-.582.272c-.13 0-.26 0-.324-.068a.898.898 0 01-.26-.204.536.536 0 01-.129-.341c0-.136-.064-.409-.064-.818 0-.408 0-.681.064-.817.065-.205.13-.341.195-.409zm9.2-.886v4.089h2.461v-.614h-1.878v-3.475h-.584zm8.486 0h-.583v4.02h.583v-4.02zm5.637 0v4.089h.583v-2.862l1.749 2.862h.583v-4.089h-.583v2.93h-.065l-1.684-2.93h-.583zm11.013.613v-.613h-2.462v4.089h2.462v-.614h-1.88v-1.158h1.62v-.545h-1.62v-1.159h1.88zm11.725 3.476v-4.089h-.583v1.772h-1.49v-1.772h-.583v4.089h.583v-1.772h1.49v1.772h.583zm8.163-3.476v-.613h-2.462v4.089h2.462v-.614h-1.879v-1.158h1.555v-.545h-1.555v-1.159h1.879zm7.321 1.636c.518-.205.712-.546.777-1.091 0-.34-.13-.681-.389-.885-.194-.205-.453-.273-.777-.273h-1.49v4.02h.583v-1.703h.712L78 104.56h.712l-.906-1.771zm-1.361-.477v-1.227h.907c.194 0 .324.068.454.136.129.069.194.273.194.477a.633.633 0 01-.194.477c-.13.137-.26.205-.519.205h-.842v-.068zm10.042-1.159v-.613h-2.462v4.089h2.462v-.614h-1.879v-1.158h1.555v-.545h-1.555v-1.159h1.879zM4.081 95.839a3.85 3.85 0 002.333-.75c.712-.477 1.166-1.158 1.425-2.044H5.57c-.324.614-.777.886-1.425.886s-1.166-.204-1.555-.681c-.388-.41-.583-1.022-.583-1.772s.195-1.294.583-1.771a2.095 2.095 0 011.555-.682c.648 0 1.166.273 1.425.886h2.333a3.845 3.845 0 00-1.426-2.044c-.712-.477-1.49-.75-2.332-.75-1.166 0-2.073.41-2.915 1.227C.389 89.298 0 90.32 0 91.546c0 1.227.389 2.249 1.166 3.066.777.818 1.75 1.227 2.915 1.227zm17.168-4.292c0-1.227-.389-2.248-1.166-3.066a3.816 3.816 0 00-2.85-1.227c-1.167 0-2.074.41-2.916 1.227-.777.818-1.166 1.84-1.166 3.066 0 1.226.389 2.248 1.166 3.066.777.818 1.75 1.227 2.915 1.227 1.166 0 2.073-.41 2.85-1.227.778-.818 1.167-1.84 1.167-3.066zm-2.527 1.772a2.095 2.095 0 01-1.555.68c-.647 0-1.166-.204-1.554-.68-.39-.41-.583-1.023-.583-1.772 0-.75.194-1.295.583-1.772a2.095 2.095 0 011.554-.68c.648 0 1.166.204 1.555.68.389.41.583 1.022.583 1.772s-.194 1.294-.583 1.772zm17.233-5.929h-2.203l-2.267 5.724-2.268-5.723h-2.202v8.313h1.943v-4.702l1.814 4.702h1.425l1.879-4.702v4.702h1.879V87.39zm8.162 5.111h1.23c.52 0 1.037-.068 1.426-.273.389-.136.713-.408.907-.68.389-.546.583-1.091.583-1.636 0-.682-.259-1.295-.777-1.772-.519-.477-1.231-.75-2.138-.75h-3.11v8.314h1.944V92.5h-.065zm0-3.543h1.23c.26 0 .52.068.713.272.195.205.26.41.26.75 0 .272-.065.545-.26.75-.194.204-.388.272-.712.272h-1.166v-2.044h-.065zm11.791-1.568l-2.786 8.382h2.073l.454-1.431h2.85l.453 1.43h2.074l-2.721-8.38h-2.397zm.259 5.383l.907-2.998.907 2.998h-1.814zm17.426 2.931V87.39H71.65v5.246l-3.24-5.246h-1.943v8.313h1.944v-5.247l3.239 5.247h1.943zm8.228-2.658v2.657h1.944v-2.657l2.72-5.655h-2.138l-1.554 3.747-1.49-3.747H79.1l2.721 5.655zM48.523 10.13c1.23 1.77 2.202 3.814 2.915 5.926.907.137 1.75.273 2.591.477.13.069.26.069.454.137h.13c.194.068.388.068.518.136.194.068.324.136.518.136.13.068.324.068.453.136.13.069.324.137.454.137.13.068.259.136.453.136.13.068.26.136.389.136.842.34 1.62.682 2.397 1.159.194.068.389.204.583.34.324.205.648.34.907.545.13.068.26.137.389.273.065.068.13.068.194.136.13.068.26.204.389.272.13.069.259.205.388.273a26.84 26.84 0 014.082 3.68c.13.135.259.34.453.476.13.136.195.273.324.409.194.204.389.409.518.681.13.136.195.273.324.409.13.204.26.34.389.545.13.204.26.34.389.545.13.204.259.34.324.545.259.34.453.75.648 1.09.129.205.194.34.323.545.13.205.195.409.324.545l.583 1.227c.065.136.13.34.195.477.064.136.13.34.194.476.065.137.13.273.194.477.065.137.13.273.13.41.13.34.26.68.389 1.09l.194.612.194.614c.13.613.324 1.158.39 1.771 0 .136.064.273.064.477 0 .068 0 .204.065.272 0 .137.064.205.064.341 0 .136.065.34.065.477 0 .136.065.34.065.477v.204c0 .137 0 .273.065.41v.34c0 .204.065.34.065.545 0 .204 0 .409.064.681v1.363c0 14.989-11.596 27.116-25.783 27.116h-1.296c-.194 0-.453 0-.648-.068-.194 0-.389-.068-.583-.068-.194 0-.324-.069-.518-.069-.13 0-.194 0-.324-.068-.13 0-.324-.068-.453-.068h-.065c-.13 0-.324-.068-.454-.068s-.259-.068-.388-.068c-.195-.068-.39-.068-.584-.136a15.076 15.076 0 01-2.98-.886l-.582-.204c-.195-.069-.39-.137-.519-.205-.259-.136-.518-.204-.712-.34-.13-.069-.324-.137-.454-.205a1.903 1.903 0 01-.518-.272c-.195-.137-.389-.205-.648-.341-.194-.068-.324-.204-.518-.273-.195-.136-.389-.204-.583-.34-.195-.136-.389-.205-.519-.34a8.565 8.565 0 01-.971-.682l-.065-.068c-.194-.137-.324-.273-.518-.341-.195-.136-.324-.272-.519-.409-.194-.136-.324-.272-.518-.409-.13-.136-.259-.204-.389-.34-.194-.205-.388-.34-.647-.545l-.39-.409c-.129-.136-.323-.273-.453-.477-.13-.136-.323-.273-.453-.477-.26-.272-.583-.613-.842-.886-.13-.136-.26-.34-.454-.545l-.777-1.022c-.13-.204-.324-.408-.454-.613a1.475 1.475 0 00-.259-.34c0-.069-.065-.069-.065-.137-.13-.136-.194-.34-.323-.477-.13-.136-.195-.34-.324-.477-.13-.204-.26-.408-.389-.68-.194-.342-.389-.75-.583-1.09a23.398 23.398 0 01-1.037-2.25c-.064-.204-.13-.34-.194-.544-.065-.137-.13-.273-.13-.41-.064-.135-.064-.272-.13-.34-.064-.136-.064-.272-.129-.409-.064-.204-.13-.34-.194-.545-.065-.204-.13-.34-.194-.545v-.068c-.065-.204-.13-.34-.13-.545-.065-.204-.13-.409-.13-.613l-.388-1.84c-.065-.204-.065-.408-.13-.613 0-.204-.064-.408-.064-.613a22.883 22.883 0 01-5.637-3.066c.324 17.85 14.123 32.226 31.226 32.226 17.232 0 31.225-14.716 31.225-32.839.13-17.373-13.604-31.953-30.642-32.226zM22.35 40.38c0-.205.065-.41.065-.614 0-.204.065-.409.065-.613 0-.204.065-.409.065-.613 0-.205.065-.409.065-.613.13-.818.323-1.567.518-2.317.065-.204.13-.409.13-.545.064-.136.064-.273.129-.409 0-.068.065-.136.065-.204.065-.136.13-.34.13-.477.064-.136.064-.273.129-.409 0-.068.065-.204.065-.272.13-.341.259-.613.388-.954.13-.34.324-.75.454-1.09.065-.205.13-.34.259-.477.065-.136.13-.205.13-.34l.194-.41c0-.068.065-.068.065-.136.065-.204.194-.34.259-.477.065-.136.194-.272.259-.477l.194-.409c.065-.136.13-.204.195-.34.324-.477.583-.954.907-1.43.13-.137.194-.342.324-.478.064-.136.194-.204.259-.34l.777-1.022c.13-.137.26-.273.324-.41l.777-.817.324-.34c.195-.205.324-.341.519-.477.13-.137.259-.205.388-.341a7.06 7.06 0 01.713-.613c.13-.068.259-.205.389-.273a35.158 35.158 0 011.62-1.226c.129-.136.323-.205.453-.34.13-.069.259-.205.388-.273.065-.068.195-.136.324-.205.13-.068.26-.204.454-.272.194-.136.388-.205.518-.34.194-.137.389-.205.583-.341.194-.069.389-.205.583-.273.324-.136.648-.34 1.037-.477.259-.136.518-.204.777-.34.194-.069.324-.137.518-.205.13-.068.324-.136.454-.204.065 0 .13-.069.259-.069.194-.068.324-.136.518-.204l.583-.204.583-.205c.195-.068.389-.068.518-.136.13 0 .26-.068.39-.068.064 0 .129 0 .194-.068.13 0 .194-.068.323-.068.195-.069.39-.069.584-.137.129 0 .259-.068.388-.068.13 0 .26-.068.389-.068.389-.068.713-.068 1.101-.136-.907-1.976-2.138-3.68-3.628-5.178C29.477 13.127 19.76 23.346 17.297 36.36c1.555 1.771 3.24 3.065 5.053 4.02z" fill="#DBDBDB"/><path d="M52.345 19.6a21.731 21.731 0 00-4.276-.41c-.453 0-.907 0-1.36.069.388 1.499.583 3.134.583 4.769 0 10.083-7.774 18.26-17.362 18.26-1.555 0-3.045-.205-4.47-.614 0 .477-.065.886-.065 1.363 0 1.567.13 3.066.389 4.564 1.36.273 2.72.41 4.146.41 12.568 0 22.739-10.697 22.739-23.915a19.803 19.803 0 00-.324-4.497zM29.995.046c-12.568 0-22.74 10.697-22.74 23.914 0 6.54 2.463 12.468 6.544 16.76.13-2.589.583-5.178 1.23-7.63-1.49-2.658-2.331-5.792-2.331-9.13 0-10.084 7.774-18.26 17.361-18.26 3.175 0 6.09.886 8.617 2.453 2.332-.68 4.793-1.158 7.255-1.294C41.785 2.635 36.15.046 29.995.046z" fill="#DBDBDB"/></svg>