<svg width="120" height="103" fill="none" xmlns="http://www.w3.org/2000/svg"><path d="M13.796 98.678h.868v3.565h.63v-3.565h.867v-.58h-2.365v.58zm7.489 3.565h.63l.474-.995h1.655l.394.995h.63l-1.891-4.394-1.892 4.394zm1.34-1.575l.63-1.41.553 1.41h-1.183zm9.933-2.073c.473 0 .867.248 1.183.663l.394-.415c-.237-.331-.473-.497-.788-.663-.237-.166-.552-.166-.868-.166-.552 0-1.024.249-1.497.663-.395.415-.631.913-.631 1.493 0 .581.158 1.078.552 1.493.394.414.867.663 1.419.663.551 0 1.024-.249 1.419-.663.157-.166.315-.415.315-.664.079-.248.079-.497.079-.829v-.166h-1.656v.581h.946a.88.88 0 01-.394.746c-.236.249-.473.332-.788.332-.316 0-.63-.166-.946-.415-.316-.332-.473-.663-.473-1.161 0-.414.157-.829.394-1.078.552-.249.867-.414 1.34-.414zm8.594-.497v4.145h1.734v-.581h-1.183v-3.564h-.551zm8.198 0h-.63v4.145h.63v-4.145zm9.617 4.393v-4.394h-.63V101l-2.838-3.233v4.477h.552v-2.902l2.916 3.15zm8.357-3.813v-.58h-2.207v4.145h2.207v-.581h-1.576v-1.409h1.497v-.58h-1.497v-.995h1.576zm13.481 3.565v-4.145h-.552v1.575h-1.735v-1.575h-.551v4.145h.551v-1.99h1.735v1.99h.552zm8.355-3.565v-.58h-2.128v4.145h2.129v-.581h-1.577v-1.409h1.577v-.58h-1.577v-.995h1.577zm8.279.58c0-.415-.158-.663-.395-.912a1.969 1.969 0 00-1.103-.332h-.71v4.146h.63v-1.659h.08l1.103 1.659h.71l-1.261-1.741c.236-.083.473-.166.63-.415.237-.166.316-.415.316-.746zm-1.42.746h-.157v-1.327h.236c.552 0 .789.25.789.664-.08.414-.316.663-.868.663zm7.568 2.239h2.208v-.581h-1.577v-1.409h1.498v-.58h-1.498v-.995h1.577v-.58h-2.208v4.145zM9.145 90.636c-.237.248-.394.497-.71.746a5.154 5.154 0 01-.946.497c-.315.166-.709.166-1.182.166-.552 0-1.104-.083-1.498-.332a3.528 3.528 0 01-1.182-.994c-.316-.415-.552-.912-.789-1.493a6.78 6.78 0 01-.236-1.824c0-.746.079-1.41.236-2.072a4.3 4.3 0 01.71-1.493c.315-.414.71-.746 1.103-.912.473-.248.868-.331 1.42-.331.472 0 .867.083 1.182.248.315.166.63.415.867.746.237.332.394.664.552 1.078.158.415.315.83.394 1.161h.63l.08-3.565h-.631l-.315.497a3.38 3.38 0 00-1.262-.497c-.473-.166-.946-.166-1.498-.166-.709 0-1.419.166-2.05.415-.63.249-1.182.663-1.655 1.16-.473.498-.867 1.078-1.103 1.741a6.62 6.62 0 00-.395 2.239c0 .83.158 1.575.395 2.239.315.663.63 1.243 1.103 1.658.473.497 1.025.829 1.577 1.078.63.248 1.261.331 1.892.331a5.613 5.613 0 002.68-.663c.71-.415 1.34-1.16 1.814-2.239l-.552-.248c-.237.248-.395.58-.631.829zm18.605-.996c.315-.662.394-1.409.394-2.238a6.62 6.62 0 00-.394-2.238c-.316-.664-.631-1.244-1.183-1.741-.473-.498-1.025-.83-1.655-1.078-.631-.249-1.34-.415-2.05-.415-.71 0-1.42.166-2.05.415-.63.249-1.182.58-1.734 1.078a6.643 6.643 0 00-1.183 1.74c-.315.664-.394 1.41-.394 2.24 0 .745.158 1.492.394 2.155.237.663.631 1.243 1.104 1.741.473.497 1.025.83 1.656 1.16.63.25 1.34.415 2.128.415.71 0 1.42-.166 2.05-.414.63-.249 1.182-.58 1.655-1.078.552-.415.946-.995 1.262-1.741zm-1.656-.33c-.158.58-.315 1.077-.63 1.492-.316.414-.631.746-1.104.994-.473.25-.946.332-1.498.332-.63 0-1.104-.083-1.498-.332-.394-.248-.788-.58-1.025-.995-.315-.414-.473-.912-.63-1.492a6.967 6.967 0 01-.237-1.907c0-.663.079-1.243.158-1.824.157-.58.315-1.078.552-1.492.315-.415.63-.83 1.103-1.078.473-.249.946-.414 1.577-.414.552 0 1.025.082 1.498.331.394.249.788.58 1.103.995.316.415.473.912.631 1.492.158.58.237 1.244.237 1.99a60.322 60.322 0 01-.237 1.907zm11.194 1.823c-.078.25-.157.498-.394.664a2.576 2.576 0 01-.63.249c-.237.082-.474.082-.71.082v.498h4.493v-.498c-.078 0-.315-.082-.709-.165-.394-.083-.63-.166-.71-.332-.157-.166-.315-.332-.394-.663a5.677 5.677 0 01-.157-1.41V83.34h.079l3.626 9.037h.394l3.784-8.872h.079v7.546c0 .165 0 .331-.079.414-.079.083-.158.249-.394.332-.079.083-.316.083-.552.166-.315 0-.473.083-.71.083v.497h4.888v-.498c-.157 0-.315 0-.552-.082-.236 0-.394-.083-.473-.166-.157-.083-.315-.166-.394-.332-.079-.083-.079-.249-.079-.415v-7.462c0-.165 0-.331.08-.414.078-.166.157-.249.393-.332.08 0 .237-.083.473-.083.237 0 .395-.083.552-.083v-.414h-3.468c0 .083-.08.248-.08.497l-.236.746-2.68 6.55-3.311-7.793h-3.784v.497c.236 0 .473.083.71.083.236 0 .393.166.63.332.158.083.236.248.315.497.08.166.08.415.08.746v5.307c0 .663 0 1.078-.08 1.41zm28.065-4.892c.236-.414.315-.912.315-1.41 0-.746-.315-1.409-.946-1.823-.63-.498-1.497-.663-2.522-.663h-5.046v.497c.158 0 .316 0 .473.083.158 0 .395.083.552.166.158.083.316.166.394.331.08.166.08.332.08.498v7.461c0 .166 0 .332-.08.498-.078.083-.157.248-.315.248-.079 0-.236.083-.473.083-.236 0-.394.083-.552.083v.498h4.73v-.498c-.236 0-.394 0-.63-.083-.237 0-.395-.082-.474-.082-.157-.084-.315-.166-.394-.332-.079-.166-.079-.249-.079-.415v-3.316h1.262c.552 0 1.025-.083 1.498-.166.473-.166.946-.331 1.34-.58.315-.332.63-.663.867-1.078zm-1.655-.414c-.08.248-.158.497-.316.746-.157.248-.473.414-.788.58-.316.166-.788.249-1.34.249h-.789v-4.56h1.025c.473 0 .788.083 1.104.166.315.166.552.331.71.497.157.249.315.498.393.746.08.25.08.58.08.83 0 .248 0 .497-.08.746zm20.022 6.301c-.157 0-.314 0-.472-.083-.158-.083-.315-.083-.473-.166-.158-.083-.315-.249-.394-.332-.08-.082-.158-.248-.237-.497l-3.705-8.954h-.63c-.552 1.244-1.104 2.736-1.814 4.311-.71 1.658-1.261 3.068-1.813 4.394-.079.249-.236.415-.315.58-.08.166-.316.25-.473.415-.158.083-.316.166-.473.166-.237.083-.394.083-.473.083v.497h4.02v-.497a4.44 4.44 0 01-1.103-.166c-.316-.083-.473-.249-.473-.415v-.331c0-.166.078-.332.157-.498.08-.248.158-.414.237-.663.079-.248.236-.58.394-.912h3.863l.946 2.322c0 .082 0 .082.079.165v.166c0 .083-.158.166-.395.249-.236.083-.63.083-1.024.166v.497h4.65v-.497h-.078zm-7.804-3.731l1.656-4.062 1.655 4.062h-3.31zm24.203 4.312v-7.628c0-.498 0-.995.079-1.327.079-.332.158-.58.394-.663.158-.083.315-.166.631-.249.315-.083.552-.083.709-.083v-.497h-4.493v.497c.157 0 .394.083.788.166.315.083.552.166.71.249.157.083.315.331.394.663.079.332.157.83.157 1.41v4.975l-6.228-7.96h-3.153v.497c.237 0 .473.083.788.166.316.083.552.249.789.415.157.082.236.331.315.497.079.249.158.415.158.663v5.141c0 .663 0 1.161-.079 1.41-.079.248-.158.497-.394.663-.079.083-.316.166-.63.249-.316.083-.553.166-.71.166v.497h4.572v-.497c-.158 0-.394-.083-.71-.166-.394-.083-.63-.166-.709-.332-.158-.166-.315-.332-.394-.663a5.672 5.672 0 01-.158-1.41v-5.39l6.701 8.541h.473zm14.741-10.447v.497h.473c.158 0 .316 0 .473.083.158 0 .237.083.316.166.078.083.157.166.157.249 0 .165-.236.58-.63 1.243a49.718 49.718 0 01-1.892 2.902c-.395-.663-.71-1.243-1.025-1.658-.237-.415-.473-.83-.789-1.326l-.236-.498c-.079-.166-.158-.332-.237-.415-.078-.082-.078-.165-.157-.248 0-.083-.079-.083-.079-.166s.079-.166.315-.249c.237-.083.631-.083 1.104-.083v-.497h-4.73v.497c.158 0 .315 0 .473.083.158 0 .315.083.473.166.158.083.315.249.473.415.158.165.315.331.473.663.315.497.631.995 1.025 1.658.394.663.709 1.244 1.025 1.824.157.249.236.498.394.663.079.25.157.332.157.415v2.487c0 .166 0 .332-.078.498-.079.166-.237.249-.395.332-.078.083-.315.083-.63.083-.316 0-.473.082-.631.082v.498h5.203v-.498c-.158 0-.394 0-.709-.082-.316-.083-.473-.084-.552-.166-.158-.083-.316-.166-.394-.332-.079-.166-.079-.249-.079-.498v-1.99c0-.331 0-.663.079-.829.078-.165.157-.414.394-.746.552-.829.946-1.575 1.261-2.073.315-.58.71-1.078 1.104-1.658.236-.249.315-.414.394-.497.079-.083.236-.166.394-.25.079-.082.237-.082.394-.165.158-.083.316-.083.394-.083v-.497h-3.705zm4.652-60.357H82.933L101.222.183H18.289l18.29 21.722H0l20.26 24.043 21.206 25.121 18.29-21.722 18.29 21.722L97.99 47.44l21.522-25.535zM55.026 4.743l-13.56 16-13.559-16h27.119zm54.868 21.722l-13.48 16-13.56-16.083h27.04v.083zm-68.428 1.16l13.48 16.002h-26.96l13.48-16.002zm4.81-1.16h27.04l-13.56 16-13.48-16zm31.77 1.16l13.48 16.002H64.644l13.401-16.002zm-31.77-5.72l13.48-16.002 13.48 16.002h-26.96zm31.77-1.161L64.564 4.743h27.04l-13.56 16zm-41.388 5.72L23.177 42.467 9.617 26.465h27.04zm18.368 21.723l-13.56 16-13.559-16h27.119zm36.578 0l-13.559 16-13.48-16h27.04z" fill="#DBDBDB"/></svg>