<svg width="139" height="107" fill="none" xmlns="http://www.w3.org/2000/svg"><path d="M117.571 34.781a2.526 2.526 0 00-3.249-.238 141.318 141.318 0 01-12.481 7.932 2.382 2.382 0 01-3.021-.554 2.289 2.289 0 01-.515-1.844 2.284 2.284 0 011.072-1.59 137.735 137.735 0 0012.23-7.755 2.68 2.68 0 00.557-3.744 2.631 2.631 0 00-3.64-.764 133.287 133.287 0 01-11.794 7.5 2.36 2.36 0 01-1.704.172 2.345 2.345 0 01-1.369-1.024 2.32 2.32 0 01.62-3.11 130.724 130.724 0 0011.706-7.422 2.419 2.419 0 00.735-3.057c-.708-1.413-2.346-1.895-3.444-1.108a126.452 126.452 0 01-16.51 10.037c-2.682 1.407-3.64 4.924-2.091 7.96l.59 1.163c-27.14 11.687-44.275 4.63-50.406-22.998a22.005 22.005 0 00-1.444 2.265 9.04 9.04 0 00-.802 7.084c1.616 5.251 4.983 12.613 11.811 17.387 0 0-10.111-3.783-14.57-14.368a22.304 22.304 0 001.744 12.779c5.981 12.989 18.645 7.926 18.645 7.926 11.01 4.935 24.304 3.213 39.231-1.867.245.488.513 1.008.825 1.618a6.137 6.137 0 001.483 1.904 6.206 6.206 0 006.845.832 142.953 142.953 0 0018.612-11.3 2.52 2.52 0 001.052-1.832 2.515 2.515 0 00-.718-1.984z" fill="#394D37"/><path d="M49.872 17.624s1.246 11.505 6.064 17.324c1.068-4.165 2.71-12.177.98-17.167-2.41-6.974-6.437-10.765-5.108-17.492 0 0-10.943 8.466-8.595 21.557 1.396 7.748 5.319 11.863 8.3 13.932-3.66-8.797-1.64-18.154-1.64-18.154zm22.606 9.883s-7.417 5.051-9.647 10.49c3.241-.768 9.34-2.551 12.086-5.56 3.89-4.207 5.016-8.38 10.11-9.904 0 0-9.785-4.505-17.89 1.883-4.795 3.781-6.18 8.004-6.51 10.82 4.709-5.725 11.851-7.729 11.851-7.729zM11.363 74.172c.466-.928.932-1.845 1.397-2.75.466-.929.888-1.79 1.265-2.585.377-.796.698-1.503.965-2.121.266-.641.421-1.15.466-1.525.044-.398.01-.74-.1-1.027-.111-.287-.3-.52-.566-.696a2.577 2.577 0 00-.898-.398 4.309 4.309 0 00-1.132-.199c-.732-.044-1.608-.022-2.628.067a17.65 17.65 0 00-2.895.43c-.932.2-1.741.487-2.429.862-.665.376-1.02.84-1.065 1.392-.022.31.034.585.167.829.11.198.31.386.599.563.31.177.765.243 1.364.199.11 0 .244-.011.399-.033.133-.023.3-.045.5-.067.199-.044.432-.1.698-.165l-1.63 2.187c-.311.442-.644.707-.999.795-.355.088-.676.11-.965.066-.155-.022-.465-.1-.931-.232a6.58 6.58 0 01-1.365-.596 4.063 4.063 0 01-1.164-1.06c-.333-.465-.466-1.039-.4-1.724.09-.795.433-1.524 1.032-2.187.599-.685 1.43-1.27 2.496-1.756 1.087-.486 2.373-.862 3.86-1.127 1.508-.265 3.205-.398 5.09-.398 1.42 0 2.551.155 3.394.464.843.287 1.453.674 1.83 1.16.4.464.588 1.016.566 1.657 0 .619-.133 1.26-.4 1.922-.133.31-.332.74-.598 1.293-.244.53-.544 1.16-.899 1.888a84.05 84.05 0 00-1.131 2.353c-.4.862-.799 1.757-1.198 2.684.599.045 1.142.1 1.63.166.51.067.91.122 1.198.166.333.088.444.232.333.43-.2.398-.4.697-.599.895a1.591 1.591 0 01-.599.431c-.222.067-.466.1-.732.1a55.103 55.103 0 00-.898-.067h-.6c-.199-.022-.41-.044-.631-.066-.422.994-.832 1.977-1.232 2.95-.377.972-.732 1.9-1.064 2.783-.31.862-.588 1.657-.832 2.386-.244.73-.41 1.337-.5 1.823a24.164 24.164 0 00-.299 1.922 18.3 18.3 0 00-.066 1.59c0 .553.089.995.266 1.326-.466.133-.876.243-1.231.332-.333.088-.621.154-.865.198l-.666.166c-.62.155-1.064.133-1.33-.066-.245-.177-.311-.619-.2-1.326.044-.486.11-1.038.2-1.657.11-.596.266-1.281.465-2.054.222-.752.5-1.591.832-2.519.355-.95.799-2 1.331-3.148a90.34 90.34 0 011.065-2.187c.399-.818.82-1.69 1.264-2.618-.976 0-2.03.066-3.16.199-.622.088-1.232.187-1.83.298-.511.11-1.066.243-1.665.397-.576.133-1.12.288-1.63.464a2.322 2.322 0 01-.133-.53c0-.176.011-.342.033-.497.022-.154.056-.31.1-.464.044-.154.111-.31.2-.464.133-.265.344-.596.632-.994a52.78 52.78 0 012.994-.298c.954-.066 1.797-.122 2.53-.166a47.767 47.767 0 012.428-.066.535.535 0 01.266 0h.3zm5.956 11.499c-.155.243-.322.398-.5.464-.199.088-.365.1-.498.033-.156-.044-.256-.155-.3-.331-.044-.177 0-.398.133-.663.067-.133.222-.43.466-.895.222-.464.5-1.016.832-1.657.31-.662.654-1.37 1.031-2.12l1.065-2.188c.355-.685.677-1.292.965-1.822.288-.553.5-.95.632-1.193-.244-.221-.41-.376-.499-.464-.088-.11-.155-.332-.2-.663-.044-.287.023-.663.2-1.127a6.33 6.33 0 01.699-1.325c.288-.442.61-.818.965-1.127.355-.31.699-.464 1.031-.464.621 0 1.054.199 1.298.596.266.398.422.807.466 1.227.044.287.022.651-.067 1.093a3.16 3.16 0 01-.499 1.193c.067.044.155.1.266.166.111.044.289.066.533.066.355 0 .599-.022.732-.066.155-.044.388-.066.698-.066.378 0 .688.099.932.298.244.177.444.409.6.696.154.265.265.563.332.894.089.31.144.597.166.862.067.552-.077 1.127-.432 1.723a26.803 26.803 0 01-1.298 1.955c-.31.442-.621.94-.932 1.492-.31.552-.443 1.05-.399 1.491.044.287.122.52.233.696.11.177.421.265.932.265.377 0 .787-.133 1.23-.398.467-.287.932-.64 1.398-1.06.488-.442.965-.917 1.431-1.425a60.32 60.32 0 001.298-1.525c.399-.508.732-.96.998-1.358.288-.398.499-.685.632-.862a.861.861 0 01.433-.364c.177-.067.332-.067.465 0 .133.066.211.198.233.397.045.2-.033.464-.233.796-.133.22-.366.574-.698 1.06a21.46 21.46 0 01-1.165 1.624 32.3 32.3 0 01-1.497 1.856 18.48 18.48 0 01-1.764 1.723c-.599.508-1.209.928-1.83 1.26-.599.33-1.175.496-1.73.496-.577 0-1.054-.11-1.43-.331a3.282 3.282 0 01-.932-.795 3.865 3.865 0 01-.5-1.06 3.858 3.858 0 01-.1-1.094c.023-.266.09-.542.2-.829.133-.31.278-.618.433-.928.177-.331.355-.651.532-.96.2-.332.377-.653.533-.962.377-.64.676-1.182.898-1.624.244-.464.366-.85.366-1.16 0-.198-.044-.375-.133-.53-.089-.154-.233-.232-.433-.232-.133 0-.232.011-.3.033h-.165c-.045 0-.122.011-.233.034h-.433c-.288 0-.532-.045-.732-.133a3.49 3.49 0 00-.566-.199c-.088.155-.288.486-.599.994-.31.508-.676 1.105-1.098 1.79a90.177 90.177 0 01-1.297 2.154 259.56 259.56 0 01-1.265 2.12 54.672 54.672 0 00-.998 1.658c-.288.441-.466.707-.532.795z" fill="#58AD53"/><path d="M47.498 78.944a26.548 26.548 0 01-2.263 2.85 21.592 21.592 0 01-2.695 2.452 14.5 14.5 0 01-2.895 1.723c-.976.442-1.93.663-2.861.663-.488 0-1.02-.122-1.597-.365-.555-.22-1.065-.574-1.53-1.06-.467-.486-.844-1.116-1.132-1.889-.266-.773-.344-1.712-.233-2.817.089-.905.366-1.855.832-2.85a13.797 13.797 0 011.763-2.783c.71-.84 1.498-1.536 2.363-2.088.887-.552 1.774-.829 2.662-.829.843 0 1.453.21 1.83.63.377.42.543.94.499 1.558a4.613 4.613 0 01-.6 1.889 7.19 7.19 0 01-1.13 1.557 11 11 0 01-1.431 1.26c-.488.375-.954.717-1.398 1.027-.488.331-.954.651-1.397.96-.444.288-.832.553-1.165.796.022.552.122 1.016.3 1.392.177.376.399.685.665.928.266.22.566.386.898.497.355.088.71.132 1.065.132.754 0 1.542-.231 2.363-.695.82-.487 1.619-1.06 2.395-1.724a25.022 25.022 0 002.196-2.12 43.806 43.806 0 001.697-1.89c.156-.176.31-.276.466-.298.178-.044.31-.022.4.067.11.066.166.198.166.397 0 .177-.078.387-.233.63zM38.98 73.84c-.266 0-.588.133-.965.398-.355.265-.71.652-1.065 1.16-.355.486-.687 1.094-.998 1.823-.31.707-.544 1.524-.699 2.452.266-.199.555-.398.865-.597.31-.22.621-.452.932-.695.954-.73 1.62-1.37 1.996-1.923.377-.552.588-1.027.633-1.425.044-.42 0-.718-.134-.894a.642.642 0 00-.565-.299z" fill="#58AD53"/><path d="M49.794 84.71c.133.088.3.133.499.133.222 0 .432-.045.632-.133.222-.088.422-.21.599-.364.2-.155.344-.354.433-.597.088-.243.088-.585 0-1.027a8.238 8.238 0 00-.433-1.458c-.178-.53-.377-1.06-.599-1.591-.222-.53-.41-1.016-.566-1.458-.133-.332-.244-.64-.332-.928a23.427 23.427 0 00-.267-.696 3.106 3.106 0 00-.166-.497c-.11.177-.31.464-.599.862a27.91 27.91 0 01-.898 1.259c-.31.42-.61.817-.899 1.193-.288.353-.488.596-.599.729-.177.199-.354.32-.532.364a.5.5 0 01-.4-.1.713.713 0 01-.199-.43c0-.199.089-.43.266-.696.133-.177.333-.453.6-.828.265-.398.532-.796.798-1.193.266-.42.51-.785.732-1.094.222-.331.344-.53.366-.596.044-.177-.022-.409-.2-.696-.155-.287-.177-.619-.066-.994.089-.31.288-.663.599-1.06.31-.42.676-.796 1.098-1.128a4.501 4.501 0 011.297-.729c.444-.176.843-.176 1.198 0 .289.177.522.376.699.597.177.199.244.409.2.63a5.95 5.95 0 01-.2.43 6.474 6.474 0 01-.4.663c-.177.243-.432.563-.765.961.067.508.156.972.267 1.392.133.42.255.784.366 1.094.133.375.277.718.432 1.027.2.397.41.806.632 1.226.222.42.422.84.6 1.26.177.397.32.773.432 1.126.11.353.144.652.1.895-.067.375-.267.828-.6 1.358-.31.53-.71 1.05-1.197 1.558a7.112 7.112 0 01-1.63 1.26 3.674 3.674 0 01-1.897.53c-.466 0-.92-.144-1.364-.431a5.256 5.256 0 01-1.098-.995 5.714 5.714 0 01-.666-1.16c-.133-.375-.144-.662-.033-.861.133-.265.255-.475.366-.63a3.47 3.47 0 01.499-.53c.089-.066.2-.144.333-.232a2.47 2.47 0 01.465-.199l.7-.232c.221.685.42 1.227.598 1.624.178.376.322.674.433.895.133.243.255.409.366.497zm24.456-6.164c.155-.177.31-.265.466-.265.177-.022.31.022.399.133.11.088.155.232.133.43 0 .2-.089.42-.266.663-.422.575-.91 1.171-1.464 1.79a27.081 27.081 0 01-1.797 1.756 32.114 32.114 0 01-1.897 1.624c-.643.508-1.264.928-1.863 1.26-.665.375-1.231.563-1.697.563-.444 0-.887-.288-1.33-.862-.4-.508-.6-1.05-.6-1.624.022-.596.156-1.337.4-2.22.155-.552.366-1.204.632-1.955.288-.774.51-1.514.665-2.22.178-.708.233-1.304.167-1.79-.067-.508-.355-.762-.865-.762-.355 0-.744.121-1.165.364-.4.243-.81.564-1.231.961-.4.376-.788.806-1.165 1.293-.377.486-.71.96-.998 1.424-.177.862-.355 1.713-.532 2.552-.156.707-.322 1.48-.5 2.32a45.11 45.11 0 01-.465 2.187c-.133.11-.278.188-.433.232-.155.044-.3.066-.432.066-.156 0-.31-.01-.466-.033a1.962 1.962 0 01-.5-.199 1.994 1.994 0 01-.399-.364c-.133-.133-.232-.32-.3-.564a935.5 935.5 0 002.363-9.842c.577-2.474 1.02-4.363 1.331-5.666.355-1.547.6-2.618.732-3.215a27.1 27.1 0 00.167-1.226 8.79 8.79 0 00.066-1.094 4.89 4.89 0 00-.1-1.027 2.64 2.64 0 01.566-.265c.222-.066.433-.122.632-.166.244-.066.488-.121.732-.166.244-.044.466-.066.666-.066.177 0 .344.022.499.066.155.023.255.089.3.2.132.11.188.33.166.662 0 .332-.023.674-.067 1.027-.089.42-.188.873-.3 1.36a75.752 75.752 0 01-1.563 5.235 68.657 68.657 0 00-1.597 5.402c.288-.442.632-.895 1.031-1.359a9.95 9.95 0 011.298-1.26 7.072 7.072 0 011.53-.96 3.756 3.756 0 011.697-.398c.31 0 .6.055.865.166a1.5 1.5 0 01.733.497c.221.22.388.53.499.928.11.375.155.85.133 1.425 0 .353-.045.718-.133 1.093-.067.376-.167.796-.3 1.26-.133.441-.31.939-.532 1.49-.2.553-.444 1.194-.732 1.923-.2.508-.355.939-.466 1.292-.111.354-.089.663.066.928.2.354.588.442 1.165.265.599-.199 1.486-.773 2.662-1.723.266-.22.566-.497.898-.828.333-.332.655-.663.965-.995.31-.353.6-.684.865-.994.266-.31.488-.552.666-.729zm11.446-4.374c.466-.928.931-1.845 1.397-2.75.466-.929.888-1.79 1.265-2.585a65 65 0 00.965-2.121c.266-.641.421-1.15.466-1.525.044-.398.01-.74-.1-1.027-.111-.287-.3-.52-.566-.696a2.576 2.576 0 00-.898-.398 4.307 4.307 0 00-1.132-.199c-.732-.044-1.608-.022-2.628.067-.999.066-1.963.21-2.895.43-.932.2-1.741.487-2.429.862-.666.376-1.02.84-1.065 1.392-.022.31.034.585.167.829.11.198.31.386.599.563.31.177.765.243 1.364.199.11 0 .244-.011.399-.033.133-.023.3-.045.5-.067.199-.044.432-.1.698-.165l-1.63 2.187c-.311.442-.644.707-.999.795a2.46 2.46 0 01-.965.066c-.155-.022-.466-.1-.931-.232a6.578 6.578 0 01-1.365-.596 4.062 4.062 0 01-1.164-1.06c-.333-.465-.466-1.039-.4-1.724.09-.795.433-1.524 1.032-2.187.599-.685 1.43-1.27 2.496-1.756 1.087-.486 2.373-.862 3.86-1.127 1.508-.265 3.205-.398 5.09-.398 1.42 0 2.551.155 3.394.464.843.287 1.453.674 1.83 1.16.4.464.588 1.016.566 1.657 0 .619-.133 1.26-.4 1.922-.133.31-.332.74-.598 1.293-.245.53-.544 1.16-.899 1.888a83.492 83.492 0 00-1.131 2.353c-.4.862-.799 1.757-1.198 2.684.599.045 1.142.1 1.63.166.51.067.91.122 1.198.166.333.088.444.232.333.43-.2.398-.4.697-.599.895a1.591 1.591 0 01-.599.431 2.55 2.55 0 01-.732.1 55.001 55.001 0 00-.898-.067h-.6c-.199-.022-.41-.044-.631-.066a286.55 286.55 0 00-1.231 2.95c-.378.972-.733 1.9-1.065 2.783-.31.862-.588 1.657-.832 2.386-.244.73-.41 1.337-.5 1.823a24.14 24.14 0 00-.299 1.922 18.283 18.283 0 00-.066 1.59c0 .553.088.995.266 1.326-.466.133-.876.243-1.231.332-.333.088-.621.154-.865.198l-.666.166c-.62.155-1.064.133-1.33-.066-.245-.177-.311-.619-.2-1.326.044-.486.11-1.038.2-1.657.11-.596.266-1.281.465-2.054.222-.752.5-1.591.832-2.519.355-.95.799-2 1.331-3.148.31-.663.665-1.392 1.065-2.187.399-.818.82-1.69 1.264-2.618-.976 0-2.03.066-3.16.199-.622.088-1.232.187-1.83.298-.511.11-1.066.243-1.665.397a15.78 15.78 0 00-1.63.464 2.326 2.326 0 01-.133-.53c0-.176.011-.342.033-.497.022-.154.056-.31.1-.464.044-.154.11-.31.2-.464.133-.265.343-.596.632-.994a52.78 52.78 0 012.995-.298c.953-.066 1.796-.122 2.528-.166a47.766 47.766 0 012.43-.066.532.532 0 01.265 0h.3zm17.069 6.396a11.51 11.51 0 01-.898 2.353 7.516 7.516 0 01-1.364 1.888c-.51.53-1.099.94-1.764 1.227a4.85 4.85 0 01-2.13.463c-.909 0-1.63-.198-2.162-.596a3.646 3.646 0 01-1.165-1.425 5.745 5.745 0 01-.432-1.889c-.067-.685-.1-1.325-.1-1.922 0-.42.055-.884.166-1.392.089-.508.222-1.027.4-1.557.177-.53.399-1.06.665-1.591.288-.53.621-1.016.998-1.458.133-.376.333-.707.6-.994.288-.287.61-.52.964-.696a4.565 4.565 0 011.198-.431c.421-.11.832-.166 1.231-.166.067 0 .122.011.166.033l.2.067c.288.022.643.132 1.065.331.443.199.865.497 1.264.895.422.398.777.906 1.065 1.524.288.597.432 1.326.432 2.187 0 .177-.011.398-.033.663-.022.243-.044.453-.066.63.51-.199 1.042-.442 1.597-.73a27.39 27.39 0 001.597-.894c.532-.331 1.02-.663 1.464-.994.444-.331.798-.63 1.065-.895.221-.199.41-.31.565-.331.156-.022.267.022.333.132.067.11.078.265.033.464-.044.2-.166.42-.366.663-.111.133-.399.398-.865.795a24.855 24.855 0 01-3.627 2.651c-.732.442-1.43.774-2.096.995zm-5.623-5.037c-.067.198-.1.408-.1.63 0 .353.022.728.067 1.126.044.375.155.718.332 1.027.178.31.455.575.832.796.4.198.943.298 1.63.298h.333l.333-.067c.067-.287.122-.54.166-.762.067-.243.1-.453.1-.63.045-.42.045-.85 0-1.292a4.705 4.705 0 00-.266-1.193c-.111-.375-.266-.674-.466-.894-.177-.243-.399-.365-.665-.365a2.34 2.34 0 00-1.231.365c-.377.22-.732.54-1.065.96zm-2.13 5.832c0 .398.023.795.067 1.193.044.376.133.718.266 1.027.133.288.31.53.532.73.222.176.51.264.866.264.399 0 .765-.088 1.098-.265.332-.198.632-.441.898-.729.266-.309.5-.651.699-1.027.222-.398.41-.806.565-1.226l-.465.066h-.466c-.843 0-1.575-.243-2.196-.729a5.139 5.139 0 01-1.398-1.922 17.26 17.26 0 00-.332 1.359 6.405 6.405 0 00-.134 1.259z" fill="#58AD53"/><path d="M116.174 80.568c-.221.84-.521 1.623-.898 2.353a7.516 7.516 0 01-1.364 1.888c-.51.53-1.098.94-1.764 1.227a4.848 4.848 0 01-2.129.463c-.91 0-1.631-.198-2.163-.596a3.656 3.656 0 01-1.165-1.425 5.737 5.737 0 01-.432-1.889 19.8 19.8 0 01-.1-1.922c0-.42.056-.884.166-1.392a10.69 10.69 0 01.4-1.557c.177-.53.399-1.06.665-1.591.289-.53.621-1.016.998-1.458.133-.376.333-.707.599-.994.289-.287.61-.52.965-.696a4.57 4.57 0 011.198-.431c.422-.11.832-.166 1.231-.166.067 0 .122.011.167.033l.199.067c.289.022.644.132 1.065.331.444.199.865.497 1.264.895.422.398.777.906 1.065 1.524.288.597.433 1.326.433 2.187 0 .177-.011.398-.034.663-.022.243-.044.453-.066.63.51-.199 1.042-.442 1.597-.73a27.066 27.066 0 001.597-.894c.532-.331 1.02-.663 1.464-.994a10 10 0 001.065-.895c.222-.199.41-.31.566-.331.155-.022.266.022.332.132.067.11.078.265.034.464-.045.2-.167.42-.366.663-.111.133-.4.398-.866.795a24.833 24.833 0 01-3.626 2.651c-.732.442-1.431.774-2.097.995zm-5.623-5.037a1.98 1.98 0 00-.1.63c0 .353.023.728.067 1.126.044.375.155.718.333 1.027.177.31.454.575.831.796.4.198.943.298 1.631.298h.333l.332-.067c.067-.287.122-.54.167-.762.066-.243.1-.453.1-.63.044-.42.044-.85 0-1.292a4.747 4.747 0 00-.267-1.193c-.111-.375-.266-.674-.465-.894-.178-.243-.4-.365-.666-.365a2.34 2.34 0 00-1.231.365c-.377.22-.732.54-1.065.96zm-2.129 5.832c0 .398.022.795.066 1.193.045.376.133.718.266 1.027.133.288.311.53.533.73.222.176.51.264.865.264.399 0 .765-.088 1.098-.265.333-.198.632-.441.898-.729.266-.309.499-.651.699-1.027a8.8 8.8 0 00.566-1.226l-.466.066h-.466c-.843 0-1.575-.243-2.196-.729a5.143 5.143 0 01-1.398-1.922 16.95 16.95 0 00-.332 1.359 6.382 6.382 0 00-.133 1.259z" fill="#58AD53"/><path d="M130.316 79.507c-.111.685-.222 1.337-.333 1.955a18.62 18.62 0 00-.166 1.492c-.023.552.077.95.299 1.193.222.243.466.364.732.364.311 0 .688-.154 1.131-.464.466-.31.954-.696 1.464-1.16a24.59 24.59 0 001.531-1.524c.51-.552.976-1.072 1.397-1.558.444-.508.81-.95 1.098-1.325.311-.376.522-.619.633-.73.133-.132.266-.209.399-.231.155-.022.277 0 .366.066.089.066.133.188.133.365 0 .176-.089.397-.266.662-.266.42-.61.917-1.032 1.492a39.688 39.688 0 01-1.397 1.723 29.87 29.87 0 01-1.631 1.756 15.236 15.236 0 01-1.697 1.525 9.267 9.267 0 01-1.63 1.06c-.51.287-.976.43-1.397.43-.311 0-.61-.088-.899-.264a3.097 3.097 0 01-.732-.696 3.679 3.679 0 01-.532-.961 2.91 2.91 0 01-.133-1.06c.022-.155.055-.42.1-.796-.932 1.038-1.875 1.867-2.829 2.486-.931.596-1.83.894-2.695.894a2.51 2.51 0 01-.998-.232c-.355-.154-.677-.408-.965-.762-.266-.353-.488-.817-.665-1.392-.178-.574-.244-1.27-.2-2.087.066-1.282.322-2.497.765-3.646.444-1.149.998-2.143 1.664-2.982.688-.862 1.453-1.536 2.296-2.022.865-.508 1.73-.762 2.595-.762.377 0 .721.1 1.032.298.31.177.576.42.798.73.222.287.399.607.533.96a5.2 5.2 0 01.332.995c.156-.641.3-1.27.433-1.89.133-.618.266-1.203.399-1.756.222-.817.455-1.7.699-2.65l.765-2.818c.288-1.06.61-2.176.965-3.347a2.968 2.968 0 011.198-.596c.2-.066.388-.1.566-.1a1.7 1.7 0 01.598.1c.178.044.322.188.433.43.133.222.222.564.266 1.028.045.464.045 1.093 0 1.889-.044.972-.222 2.032-.532 3.181a29.18 29.18 0 01-1.165 3.58 41.332 41.332 0 01-1.697 3.678 35.712 35.712 0 01-2.029 3.48zm-1.964.431c.089-.42.167-.84.233-1.26.089-.419.189-.85.3-1.292a16.5 16.5 0 00-.133.067.392.392 0 01-.1.066c-.244.11-.41.11-.499 0-.089-.133-.133-.332-.133-.597 0-.132-.011-.364-.034-.696a4.453 4.453 0 00-.199-1.06 2.55 2.55 0 00-.433-.961.957.957 0 00-.832-.43c-.51 0-1.031.264-1.563.794-.533.509-1.032 1.138-1.498 1.89a12.177 12.177 0 00-1.164 2.352c-.311.84-.488 1.59-.533 2.254-.044 1.06.089 1.822.4 2.286.31.464.732.696 1.264.696.399 0 .832-.154 1.298-.464a8.213 8.213 0 001.397-1.126c.466-.442.887-.895 1.265-1.36.399-.463.72-.85.964-1.159z" fill="#58AD53"/><path d="M21.467 104.433L19.963 98.8h.677l1.15 4.588h.053l1.17-4.588h.753l1.17 4.588h.054l1.15-4.588h.677l-1.504 5.633h-.688l-1.214-4.489h-.043l-1.214 4.489h-.687zm6.093 0v-4.225h.634v4.225h-.633zm.323-4.93a.445.445 0 01-.451-.44.445.445 0 01.451-.44c.123 0 .229.044.317.13.09.086.134.19.134.31a.416.416 0 01-.134.312.436.436 0 01-.317.129zm3.267.705v.55h-2.14v-.55h2.138zm-1.516-1.012h.634v4.027c0 .183.026.321.078.412.054.09.122.151.204.182a.81.81 0 00.266.044c.07 0 .127-.004.172-.011l.107-.022.13.583a1.318 1.318 0 01-.473.077c-.18 0-.355-.039-.527-.118a1.05 1.05 0 01-.424-.361 1.05 1.05 0 01-.167-.61v-4.203zm3.191 2.695v2.542h-.634V98.8h.634v2.068h.054c.096-.218.241-.391.435-.52.195-.13.455-.195.779-.195.28 0 .527.058.738.173.211.114.375.289.491.526.119.234.178.533.178.896v2.685h-.634v-2.641c0-.335-.085-.595-.255-.778-.168-.185-.402-.278-.701-.278-.208 0-.394.045-.559.135a.976.976 0 00-.386.393c-.094.173-.14.382-.14.627zm8.561.815v-2.498h.634v4.225h-.634v-.715h-.043a1.379 1.379 0 01-.451.547c-.204.149-.462.223-.774.223-.258 0-.487-.058-.687-.173a1.209 1.209 0 01-.473-.528c-.114-.237-.172-.535-.172-.894v-2.685h.634v2.641c0 .308.084.553.252.737a.85.85 0 00.65.275c.158 0 .318-.041.481-.124.165-.082.303-.209.414-.379.113-.171.169-.388.169-.652zm4.716-1.552l-.569.165a1.094 1.094 0 00-.158-.283.772.772 0 00-.28-.231.987.987 0 00-.453-.091c-.253 0-.463.06-.632.179a.53.53 0 00-.25.448c0 .162.058.289.173.383.114.093.293.171.537.233l.612.155c.369.091.644.231.825.42.18.187.27.429.27.724 0 .242-.067.458-.203.649a1.357 1.357 0 01-.564.451 2.02 2.02 0 01-.844.165c-.42 0-.769-.093-1.044-.281-.276-.187-.45-.46-.524-.819l.602-.154a.856.856 0 00.325.511c.16.114.371.171.63.171.296 0 .53-.064.704-.193.176-.13.263-.286.263-.467 0-.147-.05-.27-.15-.369-.1-.101-.254-.176-.462-.225l-.687-.165c-.378-.092-.656-.234-.833-.427a1.046 1.046 0 01-.263-.729c0-.238.065-.449.196-.632.132-.184.312-.328.54-.432a1.85 1.85 0 01.779-.157c.408 0 .728.092.961.275.234.184.401.426.5.726zm3.565 4.863a1.38 1.38 0 01-.287-.027.739.739 0 01-.175-.05l.161-.572c.154.041.29.055.408.044a.485.485 0 00.315-.162c.093-.095.178-.25.255-.465l.118-.33-1.526-4.247h.688l1.139 3.367h.043l1.138-3.367h.688l-1.751 4.841a1.85 1.85 0 01-.293.542 1.103 1.103 0 01-.405.322 1.22 1.22 0 01-.516.104zm5.33-1.496c-.373 0-.7-.091-.98-.272a1.843 1.843 0 01-.656-.762c-.156-.327-.234-.708-.234-1.144 0-.441.078-.825.234-1.153.158-.328.376-.583.655-.765a1.77 1.77 0 01.98-.272c.373 0 .699.091.978.272.281.182.5.437.655.765.158.328.237.712.237 1.153 0 .436-.079.817-.237 1.144-.155.326-.374.58-.655.762-.28.181-.605.272-.977.272zm0-.583c.282 0 .515-.074.698-.223a1.31 1.31 0 00.405-.586c.088-.242.132-.504.132-.786a2.31 2.31 0 00-.132-.79 1.327 1.327 0 00-.405-.591c-.183-.151-.416-.226-.698-.226-.283 0-.516.075-.699.226-.182.15-.318.347-.405.591a2.317 2.317 0 00-.132.79c0 .282.044.544.132.786.087.242.223.438.405.586.183.149.416.223.699.223zm5.436-1.232v-2.498h.634v4.225h-.634v-.715h-.043a1.378 1.378 0 01-.451.547c-.204.149-.462.223-.774.223-.258 0-.487-.058-.687-.173a1.21 1.21 0 01-.473-.528c-.114-.237-.172-.535-.172-.894v-2.685h.634v2.641c0 .308.084.553.252.737a.85.85 0 00.65.275c.158 0 .318-.041.481-.124.165-.082.303-.209.414-.379.112-.171.169-.388.169-.652zm3.922 1.727v-4.225h.612v.638h.043c.075-.209.211-.378.408-.509.197-.13.419-.195.666-.195a6.285 6.285 0 01.333.011v.66a2.062 2.062 0 00-.387-.044c-.2 0-.38.043-.537.129a.964.964 0 00-.37.353.964.964 0 00-.135.508v2.674h-.633zm4.417.088c-.397 0-.74-.09-1.028-.27a1.79 1.79 0 01-.664-.759 2.641 2.641 0 01-.23-1.138c0-.433.077-.815.23-1.145a1.85 1.85 0 01.65-.775c.28-.187.605-.281.978-.281.215 0 .427.037.636.11.21.073.4.193.572.358.172.163.31.379.411.649.102.269.153.601.153.996v.275H67.3v-.562h2.536c0-.238-.047-.451-.14-.638a1.075 1.075 0 00-.392-.443 1.08 1.08 0 00-.596-.162c-.252 0-.471.064-.655.193a1.251 1.251 0 00-.422.495 1.483 1.483 0 00-.148.655v.374c0 .319.054.589.161.811.11.22.26.388.454.503.194.114.418.171.674.171.167 0 .317-.024.451-.072a.945.945 0 00.352-.22c.099-.099.175-.222.229-.368l.612.176a1.39 1.39 0 01-.325.561 1.59 1.59 0 01-.564.374 2.047 2.047 0 01-.755.132zm2.673-.088v-4.225h.612v.66h.054c.085-.225.224-.4.416-.525a1.22 1.22 0 01.69-.19c.272 0 .499.063.68.19.182.125.325.3.426.525h.044c.105-.218.264-.391.475-.52a1.42 1.42 0 01.76-.195c.369 0 .67.118.905.355.234.235.352.6.352 1.097v2.828h-.634v-2.828c0-.311-.083-.534-.25-.668a.91.91 0 00-.588-.201c-.29 0-.515.09-.674.27a.975.975 0 00-.24.676v2.751h-.644v-2.894a.77.77 0 00-.228-.58.805.805 0 00-.588-.223.853.853 0 00-.462.135 1.02 1.02 0 00-.344.374c-.086.158-.129.34-.129.547v2.641h-.633zm7.786.099a1.64 1.64 0 01-.711-.151 1.236 1.236 0 01-.508-.443 1.27 1.27 0 01-.188-.704c0-.242.047-.439.14-.589a.995.995 0 01.373-.357 1.9 1.9 0 01.516-.193c.19-.044.38-.079.572-.105.25-.033.454-.057.61-.074a.898.898 0 00.343-.091c.074-.042.11-.115.11-.22v-.022c0-.271-.072-.482-.217-.632-.144-.151-.361-.226-.653-.226-.302 0-.54.068-.712.204a1.19 1.19 0 00-.362.434l-.602-.22a1.48 1.48 0 011.02-.902c.216-.059.427-.088.635-.088.132 0 .284.017.456.05.174.031.341.096.502.195.163.099.298.248.406.448.107.2.161.468.161.803v2.784h-.634v-.572h-.032a1.224 1.224 0 01-.615.561c-.166.073-.37.11-.61.11zm.097-.583c.25 0 .462-.051.634-.151.174-.101.304-.231.392-.391.09-.159.134-.327.134-.503v-.594c-.027.033-.086.063-.177.09a2.81 2.81 0 01-.312.069 18.12 18.12 0 01-.606.083 2.337 2.337 0 00-.462.107.798.798 0 00-.344.217.564.564 0 00-.129.391c0 .225.082.396.244.511.165.114.374.171.626.171zm2.951.484v-4.225h.634v4.225h-.634zm.322-4.93a.445.445 0 01-.451-.44.42.42 0 01.132-.31.445.445 0 01.32-.13c.123 0 .228.044.316.13.09.086.134.19.134.31a.416.416 0 01-.134.312.436.436 0 01-.317.129zm2.106 2.388v2.542h-.633v-4.225h.612v.66h.054a1.2 1.2 0 01.44-.517c.197-.132.451-.198.763-.198.28 0 .523.059.733.176.21.116.372.292.489.528.116.235.174.532.174.891v2.685h-.633v-2.641c0-.331-.085-.59-.253-.775-.168-.187-.4-.281-.693-.281-.202 0-.383.045-.542.135a.956.956 0 00-.374.393 1.327 1.327 0 00-.137.627zm6.551 0v2.542h-.634V98.8h.634v2.068h.054c.097-.218.242-.391.435-.52.195-.13.455-.195.779-.195.28 0 .527.058.738.173.212.114.376.289.492.526.118.234.177.533.177.896v2.685H93.3v-2.641c0-.335-.085-.595-.255-.778-.168-.185-.402-.278-.7-.278-.209 0-.395.045-.56.135a.976.976 0 00-.386.393c-.093.173-.14.382-.14.627zm5.564 2.63c-.397 0-.74-.09-1.029-.27a1.79 1.79 0 01-.663-.759 2.64 2.64 0 01-.23-1.138c0-.433.076-.815.23-1.145a1.85 1.85 0 01.65-.775c.28-.187.605-.281.978-.281.215 0 .427.037.636.11.21.073.4.193.572.358.172.163.309.379.411.649.102.269.153.601.153.996v.275h-3.18v-.562h2.536c0-.238-.047-.451-.14-.638a1.075 1.075 0 00-.392-.443 1.08 1.08 0 00-.596-.162c-.253 0-.471.064-.656.193a1.251 1.251 0 00-.421.495 1.484 1.484 0 00-.148.655v.374c0 .319.054.589.161.811.11.22.26.388.454.503.193.114.418.171.674.171.167 0 .317-.024.451-.072a.945.945 0 00.352-.22.99.99 0 00.228-.368l.613.176c-.065.213-.173.4-.325.561a1.59 1.59 0 01-.564.374 2.048 2.048 0 01-.755.132zm3.886.011c-.261 0-.498-.05-.712-.151a1.237 1.237 0 01-.507-.443 1.27 1.27 0 01-.188-.704c0-.242.046-.439.14-.589a.994.994 0 01.373-.357c.156-.087.328-.151.516-.193.189-.044.38-.079.572-.105.25-.033.453-.057.609-.074a.9.9 0 00.344-.091c.073-.042.11-.115.11-.22v-.022c0-.271-.072-.482-.217-.632-.144-.151-.361-.226-.653-.226-.303 0-.54.068-.712.204-.172.135-.292.28-.362.434l-.602-.22a1.48 1.48 0 011.021-.902c.214-.059.426-.088.633-.088.133 0 .285.017.457.05.174.031.341.096.502.195.163.099.298.248.406.448.107.2.161.468.161.803v2.784h-.634v-.572h-.032a1.227 1.227 0 01-.615.561c-.167.073-.37.11-.61.11zm.097-.583c.251 0 .462-.051.634-.151.173-.101.304-.231.392-.391.089-.159.134-.327.134-.503v-.594c-.027.033-.086.063-.177.09a2.85 2.85 0 01-.312.069 17.651 17.651 0 01-.607.083 2.363 2.363 0 00-.462.107.794.794 0 00-.343.217.563.563 0 00-.13.391c0 .225.082.396.245.511.165.114.373.171.626.171zm3.584-5.149v5.633h-.633V98.8h.633zm2.955 1.408v.55h-2.137v-.55h2.137zm-1.514-1.012h.633v4.027c0 .183.026.321.078.412.054.09.122.151.204.182a.815.815 0 00.266.044c.07 0 .127-.004.172-.011l.108-.022.129.583a1.322 1.322 0 01-.473.077c-.179 0-.355-.039-.527-.118a1.05 1.05 0 01-.424-.361c-.111-.161-.166-.364-.166-.61v-4.203zm3.19 2.695v2.542h-.634V98.8h.634v2.068h.054c.097-.218.242-.391.435-.52.195-.13.455-.195.779-.195.281 0 .527.058.738.173.212.114.375.289.492.526.118.234.177.533.177.896v2.685h-.634v-2.641c0-.335-.085-.595-.255-.778-.168-.185-.402-.278-.701-.278a1.14 1.14 0 00-.558.135.976.976 0 00-.387.393c-.093.173-.14.382-.14.627zm4.095 4.126a1.38 1.38 0 01-.287-.027.728.728 0 01-.175-.05l.161-.572c.154.041.29.055.408.044a.487.487 0 00.315-.162c.093-.095.178-.25.255-.465l.118-.33-1.525-4.247h.687l1.139 3.367h.043l1.138-3.367h.688l-1.751 4.841a1.838 1.838 0 01-.293.542 1.098 1.098 0 01-.405.322c-.153.07-.324.104-.516.104z" fill="#939A9A"/></svg>