<svg width="99" height="105" fill="none" xmlns="http://www.w3.org/2000/svg"><path d="M9.443 92.525v-.078l-1.55-.388v.078c-.22.853-.516 1.552-1.032 2.017-.517.466-1.18.698-1.918.698-.59 0-1.18-.155-1.697-.465-.517-.31-.885-.854-1.18-1.474-.296-.699-.37-1.474-.37-2.328 0-.698.074-1.396.296-2.017.221-.62.59-1.164 1.106-1.552.517-.388 1.18-.543 1.992-.543.664 0 1.254.156 1.697.543.442.31.811.931 1.033 1.63v.077l1.549-.388v-.077c-.295-1.009-.812-1.785-1.55-2.405-.737-.543-1.622-.854-2.655-.854-.96 0-1.77.233-2.582.62-.738.466-1.402 1.087-1.844 1.94-.443.854-.664 1.862-.664 2.949 0 1.008.221 2.017.59 2.948a4.6 4.6 0 001.623 2.094c.738.466 1.623.699 2.803.699 1.107 0 2.066-.31 2.803-.931.738-.698 1.255-1.63 1.55-2.793zm12.614-6.905a5.245 5.245 0 00-2.656-.699c-1.475 0-2.73.543-3.688 1.552-.96 1.008-1.402 2.483-1.402 4.267 0 .93.222 1.862.59 2.715.37.854 1.033 1.552 1.77 2.017.812.544 1.698.776 2.657.776.959 0 1.77-.232 2.582-.698.811-.465 1.401-1.086 1.844-2.017.442-.853.664-1.862.664-2.948a7.462 7.462 0 00-.59-2.948c-.37-.854-1.033-1.552-1.77-2.018zm-.221 8.068c-.664.698-1.476 1.086-2.508 1.086-.96 0-1.845-.388-2.508-1.086-.665-.698-.96-1.707-.96-3.026 0-1.551.37-2.715 1.033-3.413.664-.699 1.55-1.009 2.435-1.009.664 0 1.254.155 1.844.543.516.31.959.854 1.254 1.474.295.62.443 1.397.443 2.25 0 1.397-.37 2.483-1.033 3.181zm18.147-8.456h-1.475v11.016h1.475V85.232zm-4.943 8.999l-.442-1.319-2.508-7.68h-.148v3.956l2.287 6.983h1.402l2.36-6.983V85.31l-2.508 7.448c-.221.621-.368 1.087-.442 1.474zm-3.614-8.999h-1.55v11.016h1.55V85.232zm15.566 0h-1.55v11.016h1.55V85.232zm5.458.62c-.368-.232-.81-.465-1.327-.543-.369-.077-.885-.077-1.623-.077h-1.918v1.474h1.992c.59 0 1.032 0 1.254.077.369.078.59.31.811.621.221.31.295.698.295 1.086 0 .621-.147 1.009-.516 1.397-.369.31-.96.465-1.844.465h-2.066v1.475h2.066c1.475 0 2.582-.31 3.098-1.009.59-.62.885-1.474.885-2.405 0-.543-.074-1.087-.295-1.552-.221-.388-.443-.776-.811-1.009zm12.246-.62h-1.622l-4.058 11.016h1.623l.443-1.319 1.18-3.335.221-.699.96-2.405a6.696 6.696 0 00.442-1.63c.148.544.369 1.165.664 1.863l1.033 2.87h-2.656l-.516 1.32h3.614l1.254 3.258h1.77l-4.352-10.94zm11.656 3.491l4.279 6.672v-2.793l-4.279-6.672v2.793zm4.869 4.732v2.793h1.55V85.232h-1.55v8.223zm-5.386-8.223H74.36v11.016h1.475V85.232zm18.369 3.258c-.368.621-.737 1.242-1.032 1.785l-.886 1.396v4.655h1.55V91.67l4.278-6.361H96.27l-2.066 3.18zm-1.991.078l-2.14-3.336h-1.917l3.836 5.82.885-1.398-.664-1.086zM0 101.214h1.18v3.414h.738v-3.414h1.18v-.699H0v.699zm10.623-.699h-.811l-1.55 4.113h.812l.295-.931h1.55l.368.931h.885l-1.549-4.113zm-.959 2.484l.517-1.552.516 1.552H9.664zm9.737.155h.886v.543c-.295.233-.59.31-.96.31-.368 0-.663-.155-.81-.388-.222-.233-.296-.62-.296-1.086 0-.931.369-1.397 1.107-1.397.442 0 .738.233.885.621l.811-.155c-.147-.776-.737-1.242-1.696-1.242-.517 0-1.033.156-1.402.544-.369.387-.59.853-.59 1.551 0 .621.148 1.164.516 1.552.37.388.812.621 1.476.621.664 0 1.254-.233 1.697-.621v-1.552h-1.697v.699h.073zm10.402-2.639h-.738v4.113h2.73v-.698h-1.992v-3.415zm8.337 0h-.812v4.113h.811v-4.113zm8.114 2.716l-1.55-2.716h-.81v4.113h.737v-2.716l1.623 2.716h.738v-4.113h-.738v2.716zm7.377-.388h1.992v-.698H53.63v-.931h2.14v-.699h-2.95v4.113h3.024v-.698h-2.213v-1.087zm17.262-.698h-1.55v-1.63h-.737v4.113h.738v-1.785h1.55v1.785h.81v-4.113h-.81v1.63zm7.451.698h1.918v-.698h-1.918v-.931h2.066v-.699h-2.877v4.113h2.95v-.698h-2.139v-1.087zm10.033 0c.664-.077 1.032-.465 1.032-1.164 0-.465-.147-.776-.368-.931-.222-.155-.664-.233-1.18-.233h-1.697v4.113h.811v-1.707h.148c.22 0 .368 0 .516.078.074.077.221.155.295.31l.885 1.319h.96l-.443-.776c-.443-.543-.738-.853-.96-1.009zm-.812-.62h-.59v-1.009h.59c.443 0 .664 0 .812.077.147.078.147.233.147.388 0 .233-.073.388-.221.466-.074.078-.369.078-.738.078zm8.336.62h1.992v-.698h-1.992v-.931h2.14v-.699h-2.877v4.113h2.95v-.698h-2.213v-1.087zM45.664 61.182v1.629h-.074v.078H22.722l.368-1.94c.074-.31.148-.698.222-1.009l.221-.93.074-.156.074-.155.22-.698c.075-.155.148-.388.148-.543.074-.233.148-.388.222-.621.073-.233.221-.543.295-.776.074-.233.147-.465.295-.698 0-.078.074-.155.148-.31.073-.233.147-.466.294-.621.074-.078.074-.155.148-.233.074-.233.221-.388.295-.62 0-.078.074-.156.148-.31.147-.234.295-.466.369-.7.147-.232.22-.465.368-.697l.074-.078c.074-.077.074-.155.148-.233l.073-.077.443-.699c.148-.232.369-.543.517-.775.147-.155.295-.388.442-.621l.074-.078c.074-.077.147-.155.147-.232.148-.233.296-.388.443-.621l.074-.078c.147-.232.369-.388.516-.62.074-.078.074-.155.148-.155.147-.233.369-.388.59-.699a27.978 27.978 0 016.344-4.965h-11.36a36.396 36.396 0 00-7.009 10.94c-1.77 4.344-2.655 8.921-2.655 13.654v3.645h36.737V7.804h23.016l-.368 1.94c-1.033 5.353-3.541 10.241-7.23 14.12-.811.854-1.623 1.552-2.434 2.25h9.737a33.587 33.587 0 004.722-8.301c1.77-4.345 2.656-8.922 2.656-13.655V.512H45.663v60.67z" fill="#DBDBDB"/><path d="M22.574 31.39V7.415l1.77.388c5.09 1.086 9.812 3.724 13.5 7.603.222.233.517.543.738.854V6.64c-1.992-1.552-4.205-2.794-6.492-3.802C28.033.977 23.68.046 19.18.046h-3.467V36.51h22.943v-5.12H22.574zm52.524 5.12v26.144l-1.844-.388c-5.09-1.086-9.738-3.724-13.5-7.603l-.221-.233v9.388a32.762 32.762 0 005.975 3.413c4.131 1.862 8.484 2.716 12.984 2.716h3.467v-38.56H59.533v5.121h15.566z" fill="#DBDBDB"/></svg>