<svg width="90" height="108" fill="none" xmlns="http://www.w3.org/2000/svg"><path d="M76.513 9.184C71.495 3.841 64.742.909 57.555.909c-7.187 0-13.94 2.932-19.02 8.275A28.433 28.433 0 0031.04 24.3c-.124.587-.186 1.173-.248 1.76-.062.586-.124 1.172-.124 1.759 0 .456-.062.912-.062 1.368v28.277H53.9c0-.456.062-.977.062-1.433v-3.78H35.685v-23c0-.455 0-.976.062-1.433.062-.586.062-1.172.186-1.694a13.64 13.64 0 01.31-1.694c.93-4.365 2.974-8.34 5.947-11.402 3.842-4.3 9.355-6.906 15.365-6.906 12.081 0 21.87 10.36 21.87 23 0 6.32-2.478 12.119-6.444 16.288-2.911 3.063-6.629 5.278-10.841 6.256v5.342c5.39-.977 10.408-3.714 14.373-7.884 5.08-5.342 7.868-12.444 7.868-20.002 0-7.493-2.788-14.595-7.868-19.938z" fill="#DBDBDB"/><path d="M35.685 32.966H53.9V55.9c0 .456 0 .977-.062 1.433-.062.587-.062 1.173-.186 1.694a13.606 13.606 0 01-.31 1.694c-.929 4.366-3.035 8.34-5.947 11.403-3.965 4.17-9.417 6.776-15.489 6.776-12.08 0-21.87-10.36-21.87-23 0-6.32 2.479-12.12 6.444-16.29 2.912-3.061 6.629-5.277 10.842-6.254v-5.343c-5.39.977-10.409 3.714-14.374 7.884-4.956 5.408-7.744 12.51-7.744 20.068 0 7.558 2.788 14.66 7.868 19.938 5.08 5.343 11.834 8.275 19.02 8.275 7.187 0 13.94-2.932 19.02-8.275 4.77-5.017 7.496-11.533 7.806-18.57V27.687H35.685c0 .456-.062.978-.062 1.434l.063 3.844zM5.7 98.057a2.568 2.568 0 01-1.673.651c-1.363 0-2.478-1.172-2.478-2.606 0-1.433 1.115-2.606 2.478-2.606.62 0 1.24.26 1.673.716l1.177-1.238c-.744-.716-1.735-1.172-2.788-1.172-2.23 0-4.089 1.954-4.089 4.3s1.859 4.301 4.089 4.301a3.832 3.832 0 002.788-1.173L5.7 98.057zm15.984-1.89c0-2.345-1.859-4.3-4.09-4.3-2.23 0-4.088 1.955-4.088 4.3 0 2.346 1.858 4.301 4.089 4.301 2.292 0 4.089-1.955 4.089-4.3zm-4.09 2.541c-1.362 0-2.477-1.172-2.477-2.606 0-1.433 1.115-2.606 2.478-2.606 1.363 0 2.416 1.173 2.416 2.606.062 1.499-1.053 2.606-2.416 2.606zm19.64 1.76v-8.6h-1.796l-2.355 6.254-2.416-6.255h-1.734v8.601h1.61v-4.3l1.611 4.3h1.797l1.61-4.3v4.3h1.673zm9.48-8.601H44.42v8.601h1.611v-3.454h.682c1.363 0 2.416-1.172 2.416-2.54.062-1.434-1.053-2.607-2.416-2.607zm0 3.453h-.682v-1.694h.682c.433 0 .805.391.805.847 0 .457-.372.847-.805.847zm13.258-3.453h-1.735l-2.974 8.601h1.735l.805-2.411h2.54l.806 2.411h1.734l-2.911-8.6zm-1.487 4.43l.681-1.954.682 1.955h-1.363zM75.15 97.6l-3.284-5.733h-1.92v8.601h1.61v-5.734l3.284 5.734h1.92v-8.6h-1.61V97.6zm12.39 2.868v-4.105l2.107-4.496h-1.796l-1.115 2.346-1.178-2.346h-1.796l2.168 4.496v4.105h1.61zm-81.345 3.648l-1.301 3.649h.558l.247-.782h1.302l.247.782h.558l-1.24-3.649h-.37zm-.31 2.346l.496-1.564.496 1.564h-.992zm5.763-1.564c.062-.065.124-.13.248-.195.062-.065.185-.065.31-.065.185 0 .31.065.433.13.124.13.186.26.248.391h.557c-.061-.326-.185-.587-.371-.782a1.149 1.149 0 00-.806-.326c-.247 0-.495.065-.681.196-.186.13-.31.26-.434.456-.062.065-.062.195-.124.325 0 .131-.062.457-.062.847 0 .391 0 .717.062.847 0 .065 0 .131.062.196 0 .065.062.13.062.13.062.195.248.326.434.456s.434.196.681.196c.372 0 .62-.131.868-.391.248-.261.372-.522.372-.912v-.717h-1.24v.521h.682v.196c0 .26-.062.39-.186.521a.685.685 0 01-.496.195c-.123 0-.247 0-.31-.065-.061-.065-.185-.13-.247-.195a.514.514 0 01-.124-.326c0-.13-.062-.391-.062-.717 0-.325 0-.586.062-.716-.062 0 0-.131.062-.196zm5.327-.782v3.649h2.168v-.521h-1.672v-3.128h-.496zm6.072 0h-.496v3.649h.496v-3.649zm5.762 2.607l-1.55-2.607h-.495v3.649h.496v-2.606l1.61 2.606h.496v-3.649h-.557v2.607zm6.381-2.085v-.522h-2.168v3.649h2.168v-.521h-1.673v-1.043h1.425v-.521h-1.425v-1.042h1.673zm7.93-.326c-.186.13-.31.26-.434.456-.062.065-.062.195-.124.326 0 .13-.061.456-.061.847 0 .391 0 .716.061.847 0 .065 0 .13.062.195 0 .065.062.13.062.13.062.196.248.326.434.457.186.13.434.195.681.195.372 0 .62-.13.868-.391s.372-.521.372-.912v-.717H43.8v.521h.744v.196c0 .261-.062.391-.186.521a.686.686 0 01-.495.196c-.124 0-.248 0-.31-.066-.062-.065-.186-.13-.248-.195a.51.51 0 01-.124-.326c0-.13-.062-.391-.062-.716 0-.326 0-.587.062-.717 0-.13.062-.196.124-.326.062-.065.124-.13.248-.195.062-.066.186-.066.31-.066.185 0 .31.066.433.131.124.13.186.26.248.391h.558c-.062-.326-.186-.587-.372-.782a1.145 1.145 0 00-.806-.326c-.371.13-.62.196-.805.326zm5.514.456c-.062.065-.062.195-.124.326 0 .13-.062.456-.062.847 0 .391 0 .716.062.847 0 .065 0 .13.062.195 0 .065.062.131.062.131.062.195.248.325.434.456.186.13.434.195.681.195.248 0 .496-.065.682-.195.186-.131.31-.261.372-.456a.515.515 0 00.123-.326v-1.694a.51.51 0 00-.123-.326c-.063-.195-.186-.326-.372-.456a1.206 1.206 0 00-.682-.196c-.248 0-.495.066-.681.196-.248.13-.372.261-.434.456zm.372.456c0-.13.062-.195.124-.326.062-.065.124-.13.248-.195.062-.065.185-.065.31-.065.123 0 .247 0 .31.065.061.065.185.13.185.195a.513.513 0 01.124.326c0 .13.062.391.062.717 0 .326 0 .586-.062.716a.51.51 0 01-.124.326l-.186.196c-.062.065-.186.065-.31.065s-.247 0-.31-.065c-.061-.065-.185-.131-.247-.196a.51.51 0 01-.124-.326c0-.13-.062-.39-.062-.716.062-.326.062-.587.062-.717zm5.452 2.541h2.23v-.521h-1.673v-1.043h1.425v-.521h-1.425v-1.042h1.673v-.522h-2.23v3.649zm6.691-.521c-.372 0-.682-.13-.992-.391l-.371.391c.371.326.805.521 1.3.521.806 0 1.178-.391 1.24-1.042 0-.261-.062-.456-.248-.652-.186-.195-.372-.326-.744-.391-.185 0-.31-.065-.371-.065-.186-.065-.31-.065-.372-.195a.509.509 0 01-.124-.261c0-.196.062-.326.186-.391s.248-.13.434-.13c.31 0 .62.13.867.26l.31-.456a1.679 1.679 0 00-1.115-.391c-.372 0-.62.131-.806.326-.186.196-.31.456-.31.782 0 .261.062.521.248.651.186.196.372.326.682.326.186 0 .31.065.434.065.31.066.433.196.433.522 0 .325-.248.521-.681.521zm8.735.521h.557v-1.564h1.363v1.564h.496v-3.649h-.496v1.564h-1.363v-1.564h-.557v3.649zm8.302-3.127v-.522h-2.23v3.649h2.23v-.521h-1.673v-1.043h1.425v-.521h-1.425v-1.042h1.673zm5.824.521a.946.946 0 00-.372-.782c-.186-.13-.434-.261-.682-.261h-1.363v3.649h.496v-1.564h.681l.744 1.564h.62l-.806-1.629c.434-.13.62-.521.681-.977zm-1.921.586v-1.107h.805c.186 0 .31.065.372.13.124.065.186.195.186.391 0 .13-.062.261-.124.391a.55.55 0 01-.434.195h-.805zm5.39 2.02h2.168v-.521h-1.672v-1.043h1.487v-.521h-1.487v-1.042h1.672v-.522H87.48v3.649z" fill="#DBDBDB"/></svg>