<svg width="129" height="106" fill="none" xmlns="http://www.w3.org/2000/svg"><path d="M26.552 100.403H20.79c.051.607.347 1.171.825 1.574a2.546 2.546 0 001.739.589c.405.01.807-.06 1.183-.206a2.96 2.96 0 00.998-.638l.572.589a3.727 3.727 0 01-1.29.855 3.877 3.877 0 01-1.546.268c-2.058 0-3.506-1.39-3.506-3.396 0-2.006 1.444-3.396 3.494-3.396 2.276-.031 3.4 1.476 3.293 3.761zm-.943-.817a2.012 2.012 0 00-.172-.846 2.098 2.098 0 00-.514-.708 2.218 2.218 0 00-.77-.451 2.296 2.296 0 00-.894-.119 2.45 2.45 0 00-1.683.577 2.231 2.231 0 00-.787 1.532l4.82.015zm3.357-3.34v.844h1.865v.795h-1.865v5.551h-.95v-5.551h-.84v-.795h.84v-.722a2.07 2.07 0 01.562-1.56 2.047 2.047 0 011.524-.637c.501.005.99.165 1.398.459l-.38.783a1.737 1.737 0 00-.988-.336 1.088 1.088 0 00-1.098.709 1.106 1.106 0 00-.068.46zm4.332 0v.844h1.87v.795h-1.87v5.551h-.956v-5.551H31.5v-.795h.842v-.722a2.064 2.064 0 011.263-2.04 2.05 2.05 0 01.832-.157c.498.007.981.165 1.387.455l-.381.783a1.738 1.738 0 00-.99-.336 1.09 1.09 0 00-1.09.715 1.099 1.099 0 00-.065.458zm8.078 4.176h-5.235c.051.602.32 1.16.753 1.559.432.399.994.608 1.57.585.367.01.733-.059 1.074-.204a2.67 2.67 0 00.907-.64l.524.589a3.381 3.381 0 01-1.173.855 3.237 3.237 0 01-1.404.268c-1.87 0-3.186-1.39-3.186-3.396 0-2.007 1.313-3.397 3.171-3.397 2.075-.011 3.096 1.496 3 3.781zm-.864-.816a2.191 2.191 0 00-.162-.843 2.104 2.104 0 00-.47-.703 1.987 1.987 0 00-.7-.447 1.914 1.914 0 00-.81-.116 2.1 2.1 0 00-1.53.577 2.313 2.313 0 00-.714 1.532h4.386zm7.57-1.976l-.503.703a2.514 2.514 0 00-1.852-.785 2.22 2.22 0 00-1.563.761c-.41.463-.64 1.08-.64 1.721s.23 1.258.64 1.72c.41.463.97.736 1.563.761a2.26 2.26 0 001.05-.199c.333-.15.63-.378.87-.668l.53.612a3.139 3.139 0 01-1.118.898 2.904 2.904 0 01-1.368.279c-1.812 0-3.073-1.389-3.073-3.393 0-2.005 1.282-3.394 3.073-3.394.44-.025.88.05 1.291.22.412.17.787.43 1.1.765zm5.035 5.313a2.33 2.33 0 01-1.34.493c-.87 0-1.51-.565-1.51-1.846v-3.71h-.855v-.757h.855v-1.717h.856v1.713h1.88v.788h-1.88v3.536c0 .788.284 1.083.79 1.083.337-.01.665-.126.945-.333l.26.75zm2.47-8.087a.664.664 0 01-.121.347.62.62 0 01-.285.22.592.592 0 01-.353.022.612.612 0 01-.307-.185.674.674 0 01-.118-.698.64.64 0 01.228-.284.599.599 0 01.583-.053.623.623 0 01.205.15.656.656 0 01.168.48zm-1.079 8.556v-6.639h.934v6.663l-.934-.024zm4.912.024l-2.596-6.795h1.025l2.092 5.751 2.076-5.75H63l-2.574 6.794H59.42zm10.368-3.014h-5.236a2.4 2.4 0 00.755 1.561c.433.399.996.608 1.572.583.367.01.733-.06 1.074-.206.341-.145.65-.362.907-.638l.52.589a3.381 3.381 0 01-1.172.855 3.237 3.237 0 01-1.404.268c-1.87 0-3.186-1.39-3.186-3.396 0-2.007 1.312-3.397 3.175-3.397 2.071-.011 3.092 1.496 2.995 3.781zm-.853-.816a2.187 2.187 0 00-.16-.842 2.1 2.1 0 00-.47-.704 1.984 1.984 0 00-.698-.447 1.91 1.91 0 00-.81-.116 2.104 2.104 0 00-1.529.578 2.318 2.318 0 00-.716 1.53h4.383zm6.705-1.426c.18-.47.485-.87.875-1.145s.847-.411 1.309-.392v1.013a1.836 1.836 0 00-.814.112 1.987 1.987 0 00-.707.46c-.205.206-.37.456-.483.734a2.44 2.44 0 00-.18.886v3.588h-.905v-6.753h.904v1.498zm8.972 2.223h-5.23c.047.604.314 1.167.746 1.57.43.403.994.615 1.57.593.368.01.733-.06 1.074-.205.34-.145.649-.363.906-.639l.523.589c-.328.37-.728.662-1.173.855a3.209 3.209 0 01-1.404.267c-1.868 0-3.183-1.389-3.183-3.395 0-2.006 1.315-3.396 3.171-3.396 2.077-.031 3.097 1.476 3 3.761zm-.852-.817a2.19 2.19 0 00-.156-.847 2.102 2.102 0 00-.468-.709c-.2-.2-.439-.353-.7-.45a1.905 1.905 0 00-.812-.118 2.097 2.097 0 00-1.528.577 2.314 2.314 0 00-.713 1.531l4.377.016zm9.505.254c0 1.864-1.296 3.163-3.194 3.163a2.954 2.954 0 01-1.517-.338 2.718 2.718 0 01-1.09-1.046v3.67h-.993v-8.608h.994v1.357a2.692 2.692 0 011.075-1.049c.458-.246.98-.366 1.508-.345 1.894 0 3.217 1.313 3.217 3.196zm-1.006-.022a2.16 2.16 0 00-.45-1.226 2.386 2.386 0 00-1.096-.79 2.55 2.55 0 00-1.379-.09c-.46.097-.878.318-1.204.637-.325.318-.544.72-.629 1.154-.084.434-.03.882.155 1.288.185.405.494.751.887.994.393.242.854.371 1.325.37a2.5 2.5 0 00.947-.167c.3-.117.57-.29.795-.51.225-.22.398-.481.51-.766a2.08 2.08 0 00.139-.894zm6.351 2.531a2.59 2.59 0 01-.952.842c-.371.188-.777.27-1.181.238-1.203 0-1.977-.888-1.977-2.046s.808-1.91 2.177-1.92h1.912v-.392c0-.978-.533-1.565-1.559-1.565a2.98 2.98 0 00-1.844.763l-.363-.724c.684-.595 1.52-.913 2.377-.903 1.433 0 2.231.876 2.241 2.316v4.424h-.839l.007-1.033zm0-1.283v-.782h-1.825c-.97 0-1.477.34-1.477 1.079 0 .74.52 1.209 1.342 1.209.978 0 1.728-.579 1.949-1.506h.01zm4.536-6.21a.663.663 0 01-.122.347.62.62 0 01-.284.22.59.59 0 01-.353.022.612.612 0 01-.307-.185.655.655 0 01-.159-.331.679.679 0 01.041-.368.646.646 0 01.227-.283.601.601 0 01.79.096.651.651 0 01.167.482zm-1.075 8.556v-6.639h.93v6.663l-.93-.024zm4.013-5.232a2.587 2.587 0 011.051-1.146 2.9 2.9 0 011.571-.39v1.013a2.616 2.616 0 00-.977.111 2.487 2.487 0 00-.848.46 2.265 2.265 0 00-.58.734 2.1 2.1 0 00-.217.886v3.588H105v-6.753h1.084v1.498z" fill="#EBB000"/><path d="M7.19 86.966c.72.014 1.431-.14 2.078-.451a4.555 4.555 0 001.646-1.336l1.98 2.025c-1.574 1.76-3.425 2.64-5.555 2.64a7.28 7.28 0 01-2.84-.472 7.232 7.232 0 01-2.43-1.535A7.22 7.22 0 010 82.753a7.22 7.22 0 012.11-5.066 7.114 7.114 0 012.37-1.542 7.161 7.161 0 012.787-.502 7.354 7.354 0 013.144.648 7.294 7.294 0 012.56 1.924l-1.92 2.16a4.495 4.495 0 00-1.605-1.333 4.533 4.533 0 00-2.038-.47 4.275 4.275 0 00-2.981 1.132 3.91 3.91 0 00-1.24 3.017 4.116 4.116 0 001.171 3.073 3.883 3.883 0 002.833 1.173zm17.977 2.881l-1.279-3.063h-5.76l-1.261 3.063h-3.279l5.92-14.205h2.97l5.934 14.19-3.245.016zm-4.15-9.965l-1.728 4.12h3.437l-1.709-4.12zm20.094.488c0 2.272-.896 3.74-2.69 4.403L42 89.84h-3.881l-3.136-4.517H32.81v4.525h-3.163V75.641h5.36c2.196 0 3.763.372 4.7 1.118.936.746 1.404 1.949 1.404 3.61zm-3.803 1.683a2.137 2.137 0 00.586-1.676c0-.78-.202-1.29-.605-1.56-.404-.268-1.11-.428-2.123-.428H32.81v4.19h2.305c1.074 0 1.805-.175 2.193-.526zm10.208-3.333a1.156 1.156 0 00-.45.96c-.002.191.048.38.146.548a1.1 1.1 0 00.408.403c.367.233 1.214.51 2.543.831a7.25 7.25 0 013.077 1.441c.74.645 1.111 1.58 1.111 2.803a3.627 3.627 0 01-.346 1.656 3.71 3.71 0 01-1.065 1.332 5.72 5.72 0 01-3.716 1.147 8.692 8.692 0 01-5.989-2.411l1.862-2.235c1.508 1.294 2.903 1.941 4.185 1.941.481.025.958-.108 1.354-.376a1.17 1.17 0 00.492-.978 1.11 1.11 0 00-.13-.556 1.138 1.138 0 00-.393-.423 6.785 6.785 0 00-2.062-.752c-1.63-.377-2.823-.87-3.577-1.479-.769-.606-1.13-1.561-1.13-2.86a3.486 3.486 0 01.333-1.678c.25-.525.626-.982 1.097-1.331a5.86 5.86 0 013.577-1.058 8.806 8.806 0 012.804.47 7.49 7.49 0 012.443 1.333l-1.581 2.235a6.238 6.238 0 00-3.766-1.351 1.925 1.925 0 00-1.227.387zm18.98-3.078v2.824h-6.693v2.927h6.017v2.703h-6.017v2.946h6.903v2.805h-9.882V75.642h9.672zm14.189 4.73c0 2.274-.85 3.743-2.551 4.406l3.395 5.07h-3.687l-2.975-4.528h-2.072v4.528h-3.001V75.641h5.088c2.087 0 3.575.373 4.465 1.119.89.746 1.336 1.95 1.338 3.61zm-3.61 1.684a2.227 2.227 0 00.557-1.677c0-.78-.192-1.29-.575-1.56-.383-.268-1.058-.428-2.017-.428h-2.245v4.192h2.186c1.025 0 1.723-.176 2.095-.527zm11.868 2.645l3.484-9.06h3.308l-5.503 14.206H87.65l-5.503-14.205h3.308l3.488 9.06zm8.645-9.059h3.089v14.206h-3.089V75.641zm12.754 11.326a4.612 4.612 0 002.08-.451 4.566 4.566 0 001.648-1.336l1.983 2.024c-1.571 1.759-3.425 2.638-5.562 2.638a7.304 7.304 0 01-2.843-.472 7.238 7.238 0 01-2.43-1.533 7.215 7.215 0 01-2.071-5.08 7.215 7.215 0 012.109-5.065 7.12 7.12 0 012.365-1.543 7.178 7.178 0 012.786-.507 7.386 7.386 0 013.146.644 7.311 7.311 0 012.565 1.915l-1.904 2.17a4.499 4.499 0 00-1.606-1.333 4.552 4.552 0 00-2.041-.472 4.284 4.284 0 00-2.985 1.13 3.934 3.934 0 00-1.241 3.046 4.136 4.136 0 001.172 3.072 3.859 3.859 0 002.829 1.153zm17.919-11.326v2.824h-6.677v2.927h6.006v2.703h-6.006v2.946h6.887v2.805h-9.883V75.642h9.673z" fill="#666"/><path d="M74.334 2.517c-10.21-6.48-24.924 1.652-32.856 18.162-.493 1.027-1.563 3.352-1.98 4.394 0 0 3.222-1.561 3.356-1.84a113 113 0 011.147-2.348C51.314 6.565 63.967-.56 72.288 4.733c8.548 5.422 8.877 21.932 1.667 36.944C66.745 56.69 54.693 64.55 46.15 59.131c-3.494-2.216-5.776-6.343-6.77-11.46a7.604 7.604 0 01-2.32-.098c1.093 6.486 3.976 11.826 8.544 14.723 10.214 6.479 24.923-1.652 32.855-18.162 7.932-16.51 6.086-35.138-4.124-41.617z" fill="#4BB0EB"/><path d="M39.146 33.024a6.283 6.283 0 00-3.583 1.183 6.745 6.745 0 00-2.355 3.065 7.097 7.097 0 00-.339 3.919 6.895 6.895 0 001.792 3.459 6.395 6.395 0 003.322 1.837 6.212 6.212 0 003.736-.4 6.563 6.563 0 002.899-2.502 7.027 7.027 0 001.088-3.767 7.002 7.002 0 00-1.938-4.82c-1.23-1.273-2.892-1.983-4.622-1.974z" fill="#1C75BC"/><path d="M38.895 31.833a8.174 8.174 0 015.79 2.374 8.202 8.202 0 012.422 5.776 8.016 8.016 0 01-1.132 4.09h20.243c-6.63 11.098-14.677 13.344-19.488 10.77A11.24 11.24 0 0141.292 48c.316 1.437.731 2.85 1.241 4.23 1.804 4.257 5.091 7.353 9.597 7.353 8.552 0 16.31-10.135 20.19-18.353 6.83-14.458 6.521-30.214-1.068-35.113-6.589-4.256-16.4.824-23.22 11.34 11.895-16.246 23.224-13.026 25.3-2.018.248 1.38.374 2.781.377 4.184a95.976 95.976 0 00-7.925-.782c-9.276-.552-9.276.96-23.02 8.777-17.594.174-23.617 7.213-23.617 7.213v1.807a24.117 24.117 0 018.68-1.667l-2.895 5.67s-3.796.476-5.781.85v2.582H31.82a8.016 8.016 0 01-1.133-4.09 8.202 8.202 0 012.422-5.775 8.174 8.174 0 015.786-2.375zm21.45-10.153c2.235-.454 7.14-.257 13.273.657a41.266 41.266 0 01-.894 5.954c-5.804.083-11.13-.106-16.265-.023.377-.63.585-1.42-.117-1.89-.921-.612-2.529.378-3.733 2.023a76.06 76.06 0 00-5.411.46s8.793-6.29 13.148-7.181z" fill="#1C75BC"/><path d="M94.5 33.024a6.794 6.794 0 100 13.589 6.794 6.794 0 000-13.59z" fill="#EBB000"/><path d="M109.254 33.964a12.95 12.95 0 01-3.571-.095c-2.236-.398-3.262-2.932-3.262-2.932h6.247a58.782 58.782 0 00-.628-2.208A173.698 173.698 0 0087.942 22.1c-.424-8.479-3.534-15.687-9.126-19.25a14.255 14.255 0 00-2.687-1.327c5.4 4.04 7.927 11.002 8.585 17.762a46.962 46.962 0 01-1.827 17.576 54.68 54.68 0 01-3.027 8.001c-5.221 11.06-13.436 18.798-21.8 20.896 8.364-.22 19.057-7.39 25.542-21.882h3.806a8.271 8.271 0 013.02-11.27 8.216 8.216 0 0111.242 3.018 8.27 8.27 0 01.006 8.252h3.481c1.025-4.2 3.783-4.788 4.026-6.647.16-1.081.184-2.178.071-3.266zM89.251 27.01l-1.355-.273c.038-.596.065-1.191.076-1.78 1.94.524 3.897 1.1 5.846 1.742-1.71.38-1.574.933-4.567.311z" fill="#EBB000"/></svg>