<svg width="92" height="102" fill="none" xmlns="http://www.w3.org/2000/svg"><path d="M4.186 93.601a3.936 3.936 0 002.851-1.212l-1.152-1.212a2.553 2.553 0 01-1.699.638c-1.395 0-2.487-1.149-2.487-2.616 0-1.468 1.152-2.617 2.487-2.617.667 0 1.274.256 1.699.702l1.152-1.276a3.937 3.937 0 00-2.85-1.212C1.88 84.796 0 86.774 0 89.199 0 91.623 1.88 93.6 4.186 93.6zm18.018-4.402c0-2.425-1.88-4.403-4.186-4.403-2.305 0-4.186 1.978-4.186 4.403 0 2.424 1.881 4.402 4.186 4.402 2.306 0 4.186-1.978 4.186-4.402zm-4.125 2.616c-1.395 0-2.487-1.213-2.487-2.616 0-1.468 1.152-2.617 2.487-2.617 1.395 0 2.487 1.213 2.487 2.617 0 1.467-1.152 2.616-2.487 2.616zm19.961 1.786v-8.805h-1.76l-2.427 6.444-2.427-6.444h-1.82V93.6h1.638v-4.4l1.699 4.402h1.82l1.638-4.402v4.4h1.638zm9.039-3.509h.667c1.395 0 2.487-1.213 2.487-2.617 0-1.467-1.092-2.616-2.487-2.616h-2.305v8.806h1.638v-3.573zm0-3.51h.667c.485 0 .85.383.85.894 0 .446-.365.893-.85.893h-.667v-1.787zm14.257-1.786h-1.76L56.543 93.6h1.76l.849-2.424h2.547l.85 2.424h1.76l-2.973-8.805zm-1.578 4.594l.667-1.978.668 1.978h-1.335zm18.686 4.211v-8.805h-1.638v5.87l-3.337-5.87h-1.941V93.6h1.638v-5.87l3.336 5.87h1.942zm9.039-8.805h-1.88l2.184 4.594v4.211h1.638V89.39l2.184-4.594h-1.82l-1.153 2.425-1.153-2.425zM.97 101.066h.547v-3.19h.97v-.511H0v.51h.97v3.191zm5.4-3.701l-1.274 3.701h.546l.243-.83H7.28l.303.83h.546l-1.274-3.701H6.37zm-.303 2.36l.485-1.595.485 1.596h-.97zm5.884-1.595c.061-.063.122-.127.243-.19.06-.064.182-.064.303-.064.182 0 .304.063.425.127.121.128.182.255.243.383h.546c-.061-.319-.182-.574-.425-.766-.243-.191-.485-.319-.85-.319-.303 0-.485.064-.667.192-.182.127-.303.319-.424.446-.061.064-.122.192-.122.383 0 .128-.06.447-.06.894 0 .446 0 .702.06.893 0 .064 0 .128.06.191 0 .064.062.128.062.192.06.191.242.319.424.446.182.128.425.192.668.192.364 0 .667-.128.91-.383.242-.255.364-.574.364-.957v-.766h-1.274v.51h.728v.192c0 .255-.061.447-.182.574a.752.752 0 01-.546.256c-.122 0-.243 0-.304-.064a.845.845 0 01-.242-.192.498.498 0 01-.122-.319c0-.127-.06-.383-.06-.765 0-.383 0-.638.06-.766s.122-.192.182-.32zm5.461-.765v3.701h2.245v-.511h-1.76v-3.19h-.485zm6.248 0h-.545v3.701h.546v-3.701zm5.825 2.615l-1.578-2.615h-.485v3.701h.485v-2.617h.061l1.578 2.617h.485v-3.701h-.546v2.616zm6.552-2.105v-.51h-2.245v3.701h2.245v-.511h-1.76V99.47h1.517v-.51h-1.516v-1.085h1.759zm8.069-.319c-.182.128-.304.32-.425.447-.06.064-.121.192-.121.383 0 .128-.061.447-.061.894 0 .446 0 .701.06.893 0 .064 0 .128.061.191 0 .064.061.128.061.192.06.191.243.319.425.447.182.127.424.191.667.191.364 0 .667-.128.91-.383s.364-.574.364-.957v-.766h-1.274v.51h.728v.192c0 .255-.06.447-.182.574a.753.753 0 01-.546.256c-.121 0-.243 0-.303-.064-.122-.064-.182-.128-.243-.192a.498.498 0 01-.121-.319c0-.127-.061-.383-.061-.766 0-.382 0-.638.06-.765 0-.128.061-.256.122-.32a.826.826 0 01.243-.19c.06-.065.182-.065.303-.065.182 0 .303.064.425.128.121.128.182.255.242.383h.546c-.06-.32-.182-.575-.424-.766-.243-.191-.486-.319-.85-.319-.182-.064-.424 0-.606.191zm7.826 2.872c.06-.064.121-.192.121-.383 0-.128.061-.447.061-.894 0-.446 0-.701-.06-.893 0-.127-.061-.255-.122-.383-.06-.191-.243-.319-.425-.446-.182-.128-.424-.192-.728-.192-.303 0-.485.064-.667.192-.182.127-.303.319-.425.446-.06.064-.121.192-.121.383 0 .128-.06.447-.06.893 0 .447 0 .702.06.894 0 .064 0 .127.06.191 0 .064.061.128.061.192.061.191.243.319.425.446.182.128.425.192.667.192.304 0 .486-.064.728-.192.243-.127.364-.255.425-.446zm-.546-.192a.828.828 0 01-.243.192c-.12.063-.182.063-.303.063s-.243 0-.303-.063a.843.843 0 01-.243-.192.5.5 0 01-.121-.319c0-.127-.06-.383-.06-.766 0-.382 0-.638.06-.765a.5.5 0 01.121-.32.844.844 0 01.243-.19c.06-.065.182-.064.303-.064s.243 0 .303.063c.061.064.182.128.243.192a.5.5 0 01.121.319c0 .127.061.383.061.765 0 .383 0 .639-.06.766 0 .192-.061.255-.122.319zm6.552-2.361v-.51h-2.245v3.701h2.245v-.511H56.24V99.47h1.456v-.51H56.24v-1.085h1.7zm4.55 2.681c-.364 0-.728-.128-1.031-.383l-.364.446c.364.319.85.511 1.334.511.79 0 1.214-.383 1.214-1.085 0-.255-.06-.51-.243-.702a1.361 1.361 0 00-.728-.383c-.182 0-.303-.063-.425-.063-.181-.064-.303-.064-.363-.192a.5.5 0 01-.122-.319c0-.191.06-.319.182-.383a.844.844 0 01.425-.127c.303 0 .607.127.85.255l.303-.447c-.304-.255-.729-.383-1.153-.383-.364 0-.667.128-.85.32a1.084 1.084 0 00-.303.765c0 .255.06.51.243.702.182.191.364.319.667.383.182 0 .303.064.485.064.304.063.486.191.486.51.06.319-.121.511-.607.511zm11.406.51v-3.701h-.547v1.595h-1.395v-1.595h-.485v3.701h.485V99.47h1.395v1.596h.547zm6.006-3.191v-.51h-2.245v3.701H79.9v-.511h-1.699V99.47h1.456v-.51h-1.456v-1.085H79.9zm4.004 1.595h.667l.728 1.596h.667l-.849-1.66c.425-.19.667-.51.667-1.02 0-.32-.12-.638-.364-.766-.181-.192-.424-.255-.728-.255h-1.395v3.701h.546V99.47h.06zm0-1.595h.85c.181 0 .302.064.363.128.121.064.182.255.182.447 0 .19-.06.319-.121.382a.539.539 0 01-.425.192h-.788v-1.149h-.061zm7.766 0v-.51h-2.306v3.701h2.306v-.511h-1.76V99.47h1.456v-.51H89.91v-1.085h1.76zM11.648 31.137v.573c0 .128 0 .255-.06.383 0 .127 0 .191-.061.319v.127c0 .128 0 .255-.06.383v4.021c.12 6.89 2.73 13.399 7.4 18.248 4.672 4.849 10.921 7.528 17.473 7.528 1.032 0 2.063-.063 3.094-.191.486-.064.91-.128 1.396-.191-3.58-2.042-6.552-4.977-8.858-8.423-.85-1.276-1.577-2.616-2.245-3.955-.12-.32-.303-.638-.424-.957 0-.064-.06-.064-.06-.128-1.639-3.828-2.428-7.975-2.428-12.25 0-6.19 1.76-12.123 5.157-17.227a43.216 43.216 0 012.548-3.318c2.973-3.318 6.552-5.934 10.617-7.593 1.213-.51 2.487-.893 3.762-1.212a27.935 27.935 0 016.552-.765c5.217 0 10.192 1.467 14.56 4.147l-.121-.128-.182-.191-.06-.064-.122-.128c-.06-.063-.122-.127-.182-.127l-.182-.192-.061-.064-.06-.063-.243-.256c-.122-.063-.182-.19-.304-.255-.06 0-.06-.064-.121-.064l-.182-.191-.121-.128-.061-.063-.06-.064c-.061-.064-.183-.128-.243-.192-.061-.063-.122-.127-.182-.127-.182-.128-.364-.32-.607-.447-.06-.064-.121-.064-.182-.127l-.06-.064h-.061l-.122-.064h-.06l-.122-.128s-.06 0-.06-.063l-.061-.064-.06-.064c-.061-.064-.122-.064-.183-.128h-.06c-.122-.127-.304-.191-.425-.319-.06-.063-.121-.063-.182-.127 0 0-.06 0-.06-.064-.122-.064-.183-.128-.304-.191 0 0-.06 0-.06-.064-.061-.064-.122-.128-.183-.128-.121-.064-.182-.128-.303-.191-.121-.064-.243-.128-.303-.192l-.182-.127-.061-.064c-.06 0-.06-.064-.121-.064 0 0-.061 0-.061-.064a.446.446 0 00-.243-.127l-.06-.064-.061-.064c-.06-.064-.121-.064-.243-.128a11.72 11.72 0 00-1.517-.829h-.06l-.364-.191-.304-.128a11.631 11.631 0 00-.97-.447c-.06-.063-.122-.063-.243-.127h-.06l-.122-.064c-.06 0-.121-.064-.121-.064h-.06a11.594 11.594 0 01-.85-.383l-.122-.063-.606-.447c-.425-.192-.85-.32-1.274-.447-.06 0-.182-.064-.243-.064-.06 0-.182-.063-.243-.063-.06 0-.12-.064-.182-.064l-.546-.192h-.06c-.061 0-.061 0-.122-.063h-.06c-.364-.128-.728-.192-1.092-.256-.243-.063-.425-.127-.668-.127-.364-.064-.728-.192-1.092-.255-.121 0-.303-.064-.424-.064-.122 0-.304-.064-.425-.064h-.182c-.06 0-.182 0-.243-.064-.424-.064-.788-.127-1.213-.127-.85-.192-1.638-.256-2.427-.32h-1.274c-.728 0-1.456 0-2.184.064h-.243C42.65.447 41.8.511 41.012.64c-.122 0-.304.063-.425.063L11.648 31.137z" fill="#DBDBDB"/><path d="M80.022 42.176v-.957c0-.128.06-.32.06-.447s0-.255.06-.383v-3.892c-.12-6.89-2.73-13.398-7.4-18.247-4.672-4.85-10.92-7.53-17.473-7.53-1.517 0-3.033.129-4.49.448 3.64 1.914 6.553 4.785 8.858 8.294 3.337 5.04 5.157 11.038 5.157 17.227s-1.76 12.123-5.157 17.227c-3.276 4.976-7.826 8.74-13.165 10.91a27.32 27.32 0 01-10.314 2.042c-5.217 0-10.192-1.468-14.56-4.147l.06.063.061.064.182.192c.122.063.183.191.304.319.06.063.121.127.243.191l.363.383c.061.064.183.127.243.255l.06.064.244.191.06.064.182.191.182.192c.06.064.122.064.182.127.182.128.364.32.546.447l.122.128c.06.064.12.064.12.127l.062.064.06.064c.06.064.182.128.243.191l.06.064c.061 0 .061.064.122.064.06.064.121.064.182.128l.06.063c.122.128.304.192.425.32.06.063.122.063.182.127l.06.064.183.127.182.128c.06.064.182.128.243.191a.845.845 0 01.242.192h.243l.364.383c.06.063.121.063.182.127l.364.192c.121.064.182.127.303.191.486.32 1.032.574 1.517.83l.364.19h.06c.122.065.243.129.304.192.303.192.667.32.97.447.061.064.183.064.243.127 0 0 .061 0 .061.064.121.064.243.064.303.128.243.128.546.255.85.319.121.064.182.064.303.128.425.191.85.319 1.274.446.06 0 .182.064.243.064.121.064.242.064.364.128l.121.063c.182.064.303.064.486.128.06 0 .181.064.242.064.97.255 1.941.51 2.852.702.12 0 .242.064.424.064s.304.063.425.063.243.064.425.064c1.577.255 3.215.383 4.853.383s3.276-.128 4.853-.383h.061c.121 0 .243-.064.364-.064l29.546-30.37s0 .064 0 0z" fill="#DBDBDB"/></svg>