<svg width="99" height="107" fill="none" xmlns="http://www.w3.org/2000/svg"><path d="M9.462 101.14v1.215h.023a1.88 1.88 0 01.662-.979c.31-.233.68-.341 1.05-.306v.635a1.416 1.416 0 00-.683.115 1.56 1.56 0 00-.534.371c-.15.17-.268.374-.345.598a2.184 2.184 0 00-.124.743v2.757h-.553v-5.149h.504zm2.447 3.378c.057.227.159.44.298.629.137.187.312.344.513.461.228.127.486.189.747.181.382.02.757-.107 1.046-.355.262-.248.445-.568.524-.919h.61a2.422 2.422 0 01-.718 1.303c-.41.326-.928.493-1.454.468a2.326 2.326 0 01-1.024-.206 1.863 1.863 0 01-.719-.564 2.477 2.477 0 01-.402-.834 3.79 3.79 0 01-.133-1.001 3.62 3.62 0 01.133-.959 2.57 2.57 0 01.402-.837 2.02 2.02 0 01.719-.597 2.194 2.194 0 011.024-.223 1.983 1.983 0 011.72.866c.182.271.311.573.38.891.08.335.112.679.098 1.022h-3.854c0 .228.03.454.09.674zm3.027-1.845a1.835 1.835 0 00-.316-.561 1.627 1.627 0 00-.495-.391 1.437 1.437 0 00-.658-.149 1.47 1.47 0 00-.671.149c-.19.096-.357.229-.492.391-.14.17-.251.362-.327.568-.08.212-.133.432-.158.657h3.232a2.174 2.174 0 00-.114-.661v-.003zm1.13-.697c.095-.203.233-.381.405-.52.183-.137.388-.238.607-.296.25-.067.507-.1.766-.097.213.001.427.022.637.061.203.039.396.119.568.235.177.124.319.292.413.489.116.254.171.533.16.813v2.639a.326.326 0 00.087.267.301.301 0 00.259.09.463.463 0 00.187-.036v.51l-.184.029a1.683 1.683 0 01-.2 0 .857.857 0 01-.347-.061.471.471 0 01-.208-.178.681.681 0 01-.1-.275 2.654 2.654 0 01-.025-.357c-.099.15-.206.293-.322.428a1.666 1.666 0 01-.364.311 1.528 1.528 0 01-.46.192 2.36 2.36 0 01-.614.068 2.279 2.279 0 01-.63-.082 1.338 1.338 0 01-.514-.26 1.194 1.194 0 01-.38-.403 1.518 1.518 0 01-.129-.653 1.319 1.319 0 01.225-.813c.154-.208.36-.368.596-.464.267-.108.547-.181.832-.217l.939-.121c.116-.01.232-.025.346-.047a.559.559 0 00.233-.103.471.471 0 00.145-.196.867.867 0 00.052-.329 1.179 1.179 0 00-.097-.506.753.753 0 00-.274-.31 1.054 1.054 0 00-.402-.161 2.705 2.705 0 00-.492-.042 1.454 1.454 0 00-.915.274 1.096 1.096 0 00-.374.881h-.589c.006-.262.06-.52.163-.76zm2.949 1.484a.344.344 0 01-.218.153 1.701 1.701 0 01-.281.068c-.25.046-.506.086-.77.121a4.528 4.528 0 00-.727.157 1.421 1.421 0 00-.537.307.713.713 0 00-.212.56.902.902 0 00.09.41c.06.119.14.225.24.31a1.174 1.174 0 00.748.264c.22.001.437-.035.645-.107.197-.064.38-.169.537-.307.155-.135.28-.303.367-.492.093-.205.14-.429.135-.656v-.788h-.017zm2.633-3.89v6.719H20.9V99.57h.747zm4.334 4.943c.046.232.13.45.248.643.116.185.261.342.427.461.19.126.405.189.623.181.318.02.631-.107.873-.355.219-.248.37-.568.437-.919h.508a2.56 2.56 0 01-.598 1.302 1.591 1.591 0 01-1.223.458 1.663 1.663 0 01-1.45-.77 2.638 2.638 0 01-.336-.834 4.332 4.332 0 01-.11-1 4.107 4.107 0 01.11-.959 2.73 2.73 0 01.335-.837c.157-.252.362-.456.598-.596a1.58 1.58 0 01.853-.224c.297-.011.592.071.855.238.232.152.43.367.577.628.154.27.263.572.32.891.066.335.093.678.081 1.022h-3.206c.002.226.028.452.078.67zm2.518-1.845a1.952 1.952 0 00-.26-.56 1.414 1.414 0 00-.413-.391 1.027 1.027 0 00-.55-.149 1.047 1.047 0 00-.557.149 1.414 1.414 0 00-.412.391 2.002 2.002 0 00-.27.567 3.066 3.066 0 00-.134.657h2.692a2.565 2.565 0 00-.096-.66v-.004zm4.828-.517a1.018 1.018 0 00-.315-.356 1.404 1.404 0 00-.453-.2 2.427 2.427 0 00-.994-.018 1.466 1.466 0 00-.422.146.85.85 0 00-.307.264.663.663 0 00-.119.403.526.526 0 00.11.357.974.974 0 00.285.235c.117.066.24.12.37.161.138.039.26.075.395.1l.894.182c.195.029.385.077.568.143.182.061.352.15.5.264.15.11.27.247.356.403.098.175.147.37.142.567a1.17 1.17 0 01-.206.692 1.567 1.567 0 01-.516.46 2.439 2.439 0 01-.706.257c-.259.05-.523.075-.788.075a2.719 2.719 0 01-1.577-.414 1.815 1.815 0 01-.5-.597 1.646 1.646 0 01-.186-.73h.67c.001.178.047.354.133.515.085.16.21.301.364.412.324.217.72.328 1.124.314.17-.001.338-.018.504-.05.17-.03.334-.085.485-.164a1.09 1.09 0 00.367-.292.667.667 0 00.146-.439.663.663 0 00-.103-.357.816.816 0 00-.272-.249 1.833 1.833 0 00-.394-.168 4.421 4.421 0 00-.442-.118l-.86-.171a5.025 5.025 0 01-.606-.178 2.007 2.007 0 01-.485-.25 1.043 1.043 0 01-.323-.357 1.093 1.093 0 01-.119-.535 1.13 1.13 0 01.186-.646c.123-.175.289-.322.484-.431.207-.113.432-.194.667-.243.239-.049.484-.074.73-.075.26-.002.518.031.768.097.23.06.444.16.63.296.174.135.314.301.41.488.114.225.175.467.182.714h-.67a1.088 1.088 0 00-.107-.507zm3.25-1.025v.526h-.913v3.457c-.006.164.02.329.074.481.051.114.174.181.37.195.156 0 .313-.01.469-.029v.526h-.485a.985.985 0 01-.765-.243 1.353 1.353 0 01-.21-.897v-3.509h-.78v-.526h.78V99.57h.547v1.537l.913.019zm1.085.85a1.43 1.43 0 01.41-.52c.184-.137.39-.238.611-.296.254-.067.516-.099.779-.097.215.001.43.021.642.061.206.04.403.12.579.235.176.126.32.294.417.489.116.254.171.533.162.813v2.639a.321.321 0 00.209.343c.045.016.094.02.141.014a.457.457 0 00.19-.036v.51l-.183.029a1.727 1.727 0 01-.203 0 .878.878 0 01-.35-.061.488.488 0 01-.215-.178.67.67 0 01-.098-.275 2.145 2.145 0 01-.025-.356 3.9 3.9 0 01-.33.428c-.1.121-.218.225-.35.31-.144.088-.3.153-.463.192a2.45 2.45 0 01-.621.068 2.296 2.296 0 01-.639-.082 1.397 1.397 0 01-.523-.26 1.27 1.27 0 01-.35-.45 1.551 1.551 0 01-.127-.652c-.017-.29.063-.577.228-.813.157-.201.365-.355.6-.446.27-.109.554-.182.842-.218l.954-.121c.111-.01.221-.025.33-.046a.6.6 0 00.239-.104.464.464 0 00.147-.196.934.934 0 00.05-.328 1.12 1.12 0 00-.099-.506.784.784 0 00-.274-.311 1.093 1.093 0 00-.407-.16 2.686 2.686 0 00-.498-.043 1.503 1.503 0 00-.93.275 1.087 1.087 0 00-.379.88h-.596c0-.249.044-.497.13-.731zm2.982 1.484a.35.35 0 01-.217.153c-.093.03-.188.053-.284.068-.253.046-.513.086-.783.121a4.71 4.71 0 00-.733.157 1.425 1.425 0 00-.544.307.713.713 0 00-.214.56.893.893 0 00.091.41c.06.118.14.223.239.31a1.202 1.202 0 00.758.264c.223.001.444-.035.656-.107.199-.065.384-.169.544-.306a1.494 1.494 0 00.505-1.149v-.788h-.018zm3.397-2.334v.526h-.91v3.457a1.23 1.23 0 00.074.482c.048.114.17.18.366.195.157-.001.314-.011.47-.03v.526h-.486a.995.995 0 01-.765-.243 1.356 1.356 0 01-.206-.897v-3.509h-.782v-.525h.782V99.57h.547v1.538l.91.018zm1.466 3.388c.058.231.16.449.301.642.138.186.313.343.514.461.228.127.486.189.747.181.382.02.757-.107 1.046-.355.264-.247.447-.567.525-.919h.61a2.421 2.421 0 01-.718 1.303 2.149 2.149 0 01-1.47.457 2.328 2.328 0 01-1.024-.206 1.885 1.885 0 01-.718-.564 2.461 2.461 0 01-.403-.834 3.774 3.774 0 010-1.958c.082-.301.218-.585.403-.838.19-.25.435-.454.718-.596a2.2 2.2 0 011.024-.223 1.97 1.97 0 011.721.866c.183.27.314.572.385.89.075.336.108.679.097 1.022h-3.848c0 .226.031.452.09.671zm3.028-1.845a1.833 1.833 0 00-.316-.561 1.608 1.608 0 00-.496-.39 1.413 1.413 0 00-.657-.149 1.445 1.445 0 00-.669.149c-.19.096-.358.229-.495.39-.14.17-.251.362-.327.568-.08.211-.133.432-.158.656h3.233a2.285 2.285 0 00-.115-.66v-.003zm7.191-.506a1.019 1.019 0 00-.315-.356 1.37 1.37 0 00-.453-.199 2.382 2.382 0 00-.54-.06c-.15.004-.298.022-.444.053a1.5 1.5 0 00-.422.146.846.846 0 00-.307.263.663.663 0 00-.118.403.53.53 0 00.114.356c.074.094.17.174.28.234.117.067.243.12.374.161.134.039.256.074.37.099l.894.182c.194.029.385.076.567.142.182.062.352.151.5.264.149.111.27.247.359.402.095.171.145.36.146.552.008.243-.062.482-.201.69a1.58 1.58 0 01-.52.459 2.4 2.4 0 01-.705.257c-.26.05-.523.075-.788.074a2.689 2.689 0 01-1.575-.412 1.788 1.788 0 01-.505-.595 1.613 1.613 0 01-.185-.73h.674c0 .178.045.353.13.513.085.161.21.302.362.413.325.216.72.326 1.123.313.17-.001.338-.018.504-.05.17-.03.334-.085.484-.163a1.1 1.1 0 00.367-.292.666.666 0 00.145-.438.658.658 0 00-.102-.356.817.817 0 00-.272-.249 1.824 1.824 0 00-.394-.168 5.132 5.132 0 00-.44-.117l-.86-.182a4.848 4.848 0 01-.606-.178 1.968 1.968 0 01-.484-.249 1.031 1.031 0 01-.323-.356 1.09 1.09 0 01-.118-.534 1.124 1.124 0 01.185-.644 1.45 1.45 0 01.484-.431 2.48 2.48 0 01.666-.242 3.7 3.7 0 01.728-.075c.267-.003.532.03.788.097.228.06.44.161.626.295.178.138.32.309.418.502.115.223.176.466.18.712h-.669a1.09 1.09 0 00-.122-.506zm4.736-.889c.315.135.594.327.82.565.226.245.397.527.504.831a3.089 3.089 0 010 2.024 2.334 2.334 0 01-1.324 1.389 3.116 3.116 0 01-1.118.206c-.384 0-.765-.07-1.118-.206a2.334 2.334 0 01-.82-.561 2.427 2.427 0 01-.504-.828 3.089 3.089 0 010-2.024c.108-.303.279-.585.503-.831.227-.238.507-.43.821-.565a3.051 3.051 0 012.236 0zm-1.982.479c-.24.118-.447.281-.607.48a2.136 2.136 0 00-.364.678 2.48 2.48 0 000 1.542c.078.242.201.472.364.678.162.196.369.36.607.479.261.12.55.182.844.182.294 0 .583-.062.845-.182.237-.12.443-.284.606-.479.163-.206.287-.436.365-.678a2.48 2.48 0 000-1.542 2.138 2.138 0 00-.365-.678 1.827 1.827 0 00-.606-.48 2.043 2.043 0 00-.845-.181c-.293 0-.583.062-.844.181zm4.969-2.183v6.719h-.746V99.57h.747zm4.608 6.58v-.914a1.82 1.82 0 01-.793.782 2.377 2.377 0 01-1.13.27 2.687 2.687 0 01-.891-.131 1.48 1.48 0 01-.599-.364 1.493 1.493 0 01-.34-.601 2.773 2.773 0 01-.107-.805v-3.295h.677v3.303c-.018.374.103.743.345 1.045.148.132.326.234.52.297.196.063.404.085.61.067.262.006.52-.053.749-.171a1.57 1.57 0 00.507-.499c.14-.2.24-.421.297-.652.067-.247.1-.5.1-.754v-2.665h.673v5.072l-.618.015zm3.604-5.024v.526h-1.217v3.457c-.008.165.026.329.099.482.064.114.227.18.493.194.208 0 .417-.01.625-.029v.526h-.651a1.618 1.618 0 01-1.015-.243 1.096 1.096 0 01-.279-.897v-3.509h-1.041v-.525h1.041V99.57h.728v1.538l1.217.018zm.746-1.556v.949h-.746v-.949h.746zm0 1.862v4.857h-.746v-4.857h.746zm4.673-.165c.27.135.51.327.704.565.2.246.353.53.449.838a3.574 3.574 0 010 2.024c-.09.303-.237.584-.432.828a2.023 2.023 0 01-.704.561 2.34 2.34 0 01-1.918 0 1.977 1.977 0 01-.7-.561 2.406 2.406 0 01-.432-.828 3.574 3.574 0 010-2.024 2.44 2.44 0 01.431-.831 2.1 2.1 0 01.701-.565 2.294 2.294 0 011.918 0l-.017-.007zm-1.7.479a1.634 1.634 0 00-.52.48 2.175 2.175 0 00-.31.678 2.87 2.87 0 000 1.541c.065.244.17.473.31.679.14.195.317.359.52.479.222.125.472.187.724.181.254.006.504-.057.728-.181a1.66 1.66 0 00.517-.479c.14-.206.247-.435.313-.679a2.87 2.87 0 000-1.541 2.169 2.169 0 00-.313-.678 1.595 1.595 0 00-.517-.48 1.442 1.442 0 00-.728-.181 1.42 1.42 0 00-.707.181h-.017zm4.941-.551v.876h.016c.088-.305.248-.561.453-.727a1.07 1.07 0 01.72-.28c.22-.009.438.038.644.139.16.077.304.21.417.385.109.177.185.388.221.614.045.267.067.541.066.815v3.272h-.45V103.1a3.934 3.934 0 00-.043-.603 1.598 1.598 0 00-.15-.487.858.858 0 00-.288-.324.827.827 0 00-.451-.116.884.884 0 00-.483.131 1.184 1.184 0 00-.356.363 1.98 1.98 0 00-.227.549 3.018 3.018 0 00-.09.695v2.952h-.448v-5.065h.449zm6.912.965a.988.988 0 00-.263-.355 1.095 1.095 0 00-.378-.198 1.676 1.676 0 00-.45-.061 1.766 1.766 0 00-.368.054 1.09 1.09 0 00-.352.145.759.759 0 00-.256.263.755.755 0 00-.099.401.596.596 0 00.096.355.802.802 0 00.233.234c.103.067.213.121.328.16.112.039.214.075.31.099l.745.182c.162.028.32.076.473.142.152.061.293.15.418.262.123.111.225.247.299.401a1.462 1.462 0 01-.056 1.254 1.381 1.381 0 01-.43.458c-.182.12-.381.206-.589.255a2.91 2.91 0 01-.657.075 1.99 1.99 0 01-1.314-.412 1.767 1.767 0 01-.417-.594 1.895 1.895 0 01-.155-.727h.562c0 .177.037.352.109.512.07.16.174.3.302.411.27.216.6.326.936.313.141-.002.282-.018.42-.05.143-.03.28-.085.405-.163a.967.967 0 00.305-.291.754.754 0 00.122-.437.755.755 0 00-.086-.355.765.765 0 00-.226-.249 1.392 1.392 0 00-.329-.166 3.486 3.486 0 00-.368-.118l-.73-.195a3.673 3.673 0 01-.505-.177 1.59 1.59 0 01-.404-.249 1.055 1.055 0 01-.27-.355 1.267 1.267 0 01-.098-.532 1.288 1.288 0 01.154-.643 1.33 1.33 0 01.404-.43c.172-.111.36-.193.555-.241a2.6 2.6 0 01.608-.075c.222-.003.444.03.657.096.19.061.368.161.523.295.148.138.267.308.348.501.096.222.148.464.151.71h-.558c0-.175-.036-.347-.105-.505z" fill="#878C91"/><path d="M35.085 53.289a7.96 7.96 0 00-4.562 1.446 8.514 8.514 0 00-3.025 3.853 8.947 8.947 0 00-.467 4.96 8.712 8.712 0 002.247 4.395 8.107 8.107 0 004.205 2.35 7.88 7.88 0 004.744-.489 8.302 8.302 0 003.685-3.162 8.865 8.865 0 001.384-4.769 8.92 8.92 0 00-.624-3.286 8.617 8.617 0 00-1.78-2.785 8.193 8.193 0 00-2.665-1.86 7.897 7.897 0 00-3.142-.653zm0 11.286c-.514 0-1.015-.16-1.442-.457a2.689 2.689 0 01-.955-1.218 2.826 2.826 0 01-.148-1.567c.1-.526.347-1.009.71-1.388.363-.38.825-.638 1.328-.743a2.49 2.49 0 011.5.155c.473.205.879.553 1.164.999a2.8 2.8 0 01.437 1.506 2.82 2.82 0 01-.195 1.042c-.13.33-.32.63-.561.883a2.591 2.591 0 01-.843.59 2.496 2.496 0 01-.995.208v-.01zm25.757-11.286a8.585 8.585 0 10-.008 17.17 8.585 8.585 0 00.008-17.17zm0 11.286a2.713 2.713 0 112.712-2.713 2.712 2.712 0 01-2.712 2.723v-.01zm13.052-13.528H22.24a3.515 3.515 0 01-1.36-.228 3.475 3.475 0 01-1.164-.734 3.42 3.42 0 01-.78-1.123 3.38 3.38 0 01.78-3.79c.334-.32.73-.57 1.163-.735a3.515 3.515 0 011.361-.228h48.857l8.417-38.24a3.41 3.41 0 011.213-1.938 3.497 3.497 0 012.177-.757h12.27a3.497 3.497 0 012.383 1.04c.626.638.977 1.491.977 2.38 0 .888-.35 1.742-.977 2.38a3.493 3.493 0 01-2.382 1.039H85.7l-8.417 38.24a3.414 3.414 0 01-1.213 1.937 3.5 3.5 0 01-2.176.757z" fill="#939393"/><path d="M48.464 8.743a1.007 1.007 0 00-1.313 0L29.859 24.048v17.297h36.578V24.048L48.464 8.743zm-1.505 24.764a.95.95 0 01-.281.674.964.964 0 01-.68.279h-3.526c-.255 0-.5-.1-.68-.279a.953.953 0 01-.284-.674v-3.503a.953.953 0 01.284-.674.967.967 0 01.68-.279h3.527c.254 0 .498.1.679.28.18.178.28.42.28.673v3.503zm0-7.644a.95.95 0 01-.281.674.964.964 0 01-.68.28h-3.526a.965.965 0 01-.68-.28.953.953 0 01-.284-.674V22.36a.953.953 0 01.284-.674.967.967 0 01.68-.279h3.527c.254 0 .498.1.679.28a.95.95 0 01.28.673v3.503zm7.829 7.644a.95.95 0 01-.282.674.964.964 0 01-.679.279h-3.53a.964.964 0 01-.679-.28.95.95 0 01-.281-.673v-3.503a.95.95 0 01.281-.674.964.964 0 01.68-.279h3.53a.958.958 0 01.96.953v3.503zm0-7.644a.95.95 0 01-.282.674.964.964 0 01-.679.28h-3.53a.964.964 0 01-.679-.28.95.95 0 01-.281-.674V22.36a.95.95 0 01.281-.674.964.964 0 01.68-.279h3.53c.254 0 .498.1.678.28a.95.95 0 01.282.673v3.503z" fill="#FBD10D"/><path d="M70.972 17.742L52.162 1.72A6.336 6.336 0 0048.147.29a6.336 6.336 0 00-4.014 1.43L25.326 17.742c-1.46 1.246-.458 3.43 1.574 3.43h1.14S40.867 9.792 45.177 6.08c2.125-1.831 3.366-1.663 5.221-.048C54.814 9.873 68.254 21.19 68.254 21.19h1.14c2.032-.027 3.034-2.202 1.578-3.448zM37.324 3.96V2.313a1.253 1.253 0 00-.41-.904 1.428 1.428 0 00-.969-.374h-4.703a1.47 1.47 0 00-.53.099c-.167.065-.32.16-.448.28-.128.12-.23.264-.3.42a1.22 1.22 0 00-.105.496v7.663l7.465-6.033zM0 89.396h2.985c.115.868.442 1.475.982 1.82a3.975 3.975 0 002.348.606c.7.046 1.398-.12 2.006-.477.225-.152.407-.36.528-.606.12-.246.176-.52.161-.794 0-.933-1.28-1.683-3.84-2.25l-.086-.045-.345-.088c-1.452-.315-2.42-.646-2.902-.994a2.582 2.582 0 01-1.192-1.4 4.674 4.674 0 01-.339-2.836 4.629 4.629 0 011.373-2.494c.965-.777 2.372-1.167 4.222-1.17 1.735 0 3.072.406 4.012 1.215a4.8 4.8 0 011.126 1.588c.264.602.403 1.253.408 1.912H9.724a1.434 1.434 0 01-.845-.23 1.468 1.468 0 01-.562-.68 2.149 2.149 0 00-.6-.735 3.461 3.461 0 00-2.088-.563c-.855 0-1.466.158-1.834.476a1.566 1.566 0 00-.488.59 1.592 1.592 0 00-.153.754c0 .779.825 1.356 2.475 1.732a7.45 7.45 0 001.065.26c.513.174.962.31 1.344.412l.917.238 1.196.518a3.717 3.717 0 011.324 1.344c.313.615.474 1.299.469 1.992 0 1.56-.513 2.774-1.538 3.64-1.022.81-2.472 1.214-4.35 1.214-1.937 0-3.385-.42-4.353-1.257C.655 92.277.087 91.046 0 89.396zm20.272 4.258a5.326 5.326 0 01-1.917.582c-.594.066-1.191.102-1.789.108a4.52 4.52 0 01-2.714-.843c-.772-.56-1.162-1.487-1.162-2.786 0-1.209.348-2.069 1.044-2.588a6.13 6.13 0 012.693-1.045c.174-.003.348-.024.518-.062.23-.05.462-.086.696-.108 1.264-.175 1.895-.548 1.893-1.122a.816.816 0 00-.654-.822 4.31 4.31 0 00-1.225-.195 3.127 3.127 0 00-1.078.17 1.169 1.169 0 00-.696.649H13a3.313 3.313 0 011.204-2.198c.774-.662 1.88-.993 3.315-.993 1.608 0 2.814.273 3.619.819a2.785 2.785 0 011.249 2.413v3.926a4.964 4.964 0 01-.623 2.692 3.83 3.83 0 01-1.492 1.403zm-.696-5.304a8.023 8.023 0 01-1.68.56l-.992.217c-.415.09-.8.283-1.12.56a1.77 1.77 0 00-.3.948 1.394 1.394 0 00.386 1.045c.318.25.717.375 1.12.348a2.382 2.382 0 002.586-2.598v-1.08zm4.311-8.934h1.536a1.421 1.421 0 011.033.41 1.365 1.365 0 01.417 1.023v13.496h-2.986v-14.93zM35.772 90.59H37.9a4.701 4.701 0 01-1.788 2.759 5.389 5.389 0 01-3.326.992c-1.608 0-2.87-.532-3.789-1.595-.912-1.044-1.377-2.514-1.377-4.44 0-1.838.44-3.275 1.319-4.31.88-1.035 2.142-1.567 3.788-1.595 1.704 0 3.025.518 3.964 1.553.94 1.036 1.398 2.515 1.378 4.44v.473a.75.75 0 01-.042.3h-7.373c.027.891.24 1.553.64 1.984a2.015 2.015 0 001.664.697c.431.013.858-.092 1.236-.303a.638.638 0 00.234-.15l.235-.237a.909.909 0 01.32-.348 1.24 1.24 0 01.789-.22zm-5.118-3.363h4.35c0-.631-.21-1.245-.596-1.74a2.063 2.063 0 00-1.578-.586 2.046 2.046 0 00-1.536.603 2.484 2.484 0 00-.64 1.723zm8.909 7.118v-13.37c0-.204.039-.407.114-.597.076-.19.187-.362.327-.507a1.5 1.5 0 01.49-.338 1.46 1.46 0 01.576-.118h1.467v5.554h5.953v-5.554h3.017v14.93H48.49v-6.64h-5.953v6.64h-2.974zm14.47-1.247a4.238 4.238 0 01-1.37-2.089 9.108 9.108 0 01-.41-2.735 8.188 8.188 0 01.344-2.325 4.656 4.656 0 011.07-1.938 4.827 4.827 0 013.065-1.528 7.422 7.422 0 013.383.278c1.127.408 2.044 1.211 2.558 2.242a6.812 6.812 0 01.776 3.316c.017.8-.092 1.597-.322 2.367a5.908 5.908 0 01-.82 1.68 4.595 4.595 0 01-2.787 1.769 6.61 6.61 0 01-3.043.062 5.486 5.486 0 01-2.444-1.1zm2.197-7.584c-.642.661-.93 1.646-.871 2.951.059 1.305.321 2.217.779 2.736.254.276.587.478.96.581.446.16.935.175 1.392.045a2.342 2.342 0 001.259-.97c.367-.52.564-1.353.59-2.5 0-1.034-.174-1.81-.524-2.324a2.346 2.346 0 00-1.21-.992 2.344 2.344 0 00-1.37-.021 2.431 2.431 0 00-1.005.494zm17.671-3.102v6.868c0 2.084-.516 3.449-1.549 4.094a6.25 6.25 0 01-3.382.97 6.502 6.502 0 01-3.288-1.066c-.992-.645-1.487-1.98-1.485-4.005v-6.86h2.93v7.468c-.024.288.016.578.119.846.102.268.263.507.469.698.374.322.843.498 1.326.498.49.002.966-.169 1.353-.484.21-.188.375-.426.48-.694.106-.269.149-.56.125-.85V83.91a1.542 1.542 0 01.097-.576c.069-.183.172-.35.302-.491.13-.144.289-.258.463-.334.175-.076.363-.112.552-.107l1.489.01zm.747 7.934h3.006a1.55 1.55 0 00.172.727c.115.225.284.42.492.57a3.22 3.22 0 001.785.429c.476.013.947-.09 1.372-.3a.932.932 0 00.384-.336.9.9 0 00.144-.484c0-.52-.619-.908-1.857-1.164a8.674 8.674 0 01-1.192-.262c-1.562-.374-2.608-.819-3.138-1.335a2.656 2.656 0 01-.677-.942 2.6 2.6 0 01-.205-1.132 3.36 3.36 0 01.321-1.502c.222-.47.55-.886.96-1.215a5.594 5.594 0 013.446-.993c1.533 0 2.756.331 3.67.993a3.8 3.8 0 01.989 1.253c.235.48.365 1.004.379 1.537h-1.9a1.43 1.43 0 01-.748-.187 1.384 1.384 0 01-.534-.545l-.357-.35c-.43-.28-.94-.417-1.456-.39a2.669 2.669 0 00-1.329.262.873.873 0 00-.304.335.847.847 0 00-.092.439c0 .46.764.85 2.3 1.168.174.056.328.101.46.129.124.027.251.04.379.042 1.504.372 2.549.804 3.134 1.297a2.67 2.67 0 01.843 2.071 3.375 3.375 0 01-.339 1.64 3.467 3.467 0 01-1.09 1.292c-.885.635-2.21.952-3.977.952-1.681 0-2.931-.331-3.76-.994-.828-.662-1.278-1.624-1.278-2.89l-.003-.115zm19.343.244h2.131a4.708 4.708 0 01-1.79 2.759 5.383 5.383 0 01-3.323.992c-1.622 0-2.885-.532-3.787-1.595-.909-1.044-1.377-2.514-1.377-4.44 0-1.838.44-3.275 1.322-4.31.882-1.035 2.144-1.567 3.787-1.595 1.706 0 3.027.518 3.963 1.553.937 1.036 1.396 2.515 1.377 4.44v.473a.74.74 0 01-.044.3h-7.372c.028.891.241 1.553.64 1.984a1.992 1.992 0 001.66.696c.432.014.858-.091 1.236-.302a.587.587 0 00.234-.15l.234-.236a.94.94 0 01.32-.349c.232-.16.51-.237.79-.22zm-5.113-3.363h4.345a2.806 2.806 0 00-.595-1.74 2.064 2.064 0 00-1.577-.603 2.045 2.045 0 00-1.532.602 2.485 2.485 0 00-.64 1.741z" fill="#FBD10D"/></svg>