<svg width="77" height="104" fill="none" xmlns="http://www.w3.org/2000/svg"><path d="M32.297 6.003h.28c.49 0 .98.074 1.541.074 2.312.147 4.554.516 6.726 1.031v-5.6C38.602.92 36.29.479 33.908.33c-.91-.074-1.891-.147-2.872-.147h-.77c-4.555 0-9.248.663-13.942 1.915-5.325 1.4-10.439 3.537-14.783 6.263v56.438c4.274-2.432 9.108-4.42 14.082-5.747 3.923-1.032 7.917-1.695 11.84-1.916h.14c.7 0 1.331-.073 2.032-.073v-5.747c-5.045.073-10.229.736-15.343 2.136-1.892.516-3.643 1.032-5.324 1.621l-1.892.663V11.75l.84-.442a49.321 49.321 0 019.809-3.684c3.433-.884 6.795-1.473 10.158-1.62h.14c.771-.074 1.542-.074 2.312-.074h.911c.28.073.7.073 1.05.073z" fill="#DBDBDB"/><path d="M45.888 11.971c-1.261 0-2.522-.073-3.713-.147-1.471-.148-2.942-.295-4.344-.516-.84-.147-1.681-.295-2.522-.516v55.775c3.223.884 6.796 1.326 10.58 1.326 4.553 0 9.247-.663 13.94-1.842 5.325-1.4 10.44-3.61 14.783-6.262V4.235c-4.274 2.431-9.108 4.42-14.082 5.747-4.974 1.326-9.878 1.99-14.642 1.99zm21.298.958l1.891-.663v44.06l-.84.442a49.32 49.32 0 01-9.809 3.684c-4.273 1.105-8.477 1.694-12.61 1.694-1.261 0-2.522-.073-3.713-.147l-1.331-.147V16.613l1.541.074c1.121.073 2.242.147 3.503.147 5.254 0 10.649-.737 15.973-2.137 1.822-.59 3.643-1.105 5.395-1.768zM5.254 84.103c-.56-.59-1.26-.884-2.171-.884-.42 0-.841.074-1.262.221-.35.147-.7.368-.98.663-.28.295-.49.59-.63 1.032A3.6 3.6 0 000 86.387v7.515c0 .663.07 1.18.28 1.547.21.369.42.737.7.958.281.221.631.442.982.516.35.074.7.147 1.05.147.42 0 .771-.073 1.191-.294a2.3 2.3 0 00.911-.737c.28-.295.49-.663.63-1.032.14-.368.21-.81.21-1.178v-.81h-1.68v.662c0 .295-.07.516-.14.663-.07.148-.14.295-.28.442l-.421.221c-.14.074-.28.074-.42.074-.42 0-.701-.147-.911-.368-.14-.295-.28-.59-.28-1.032v-7c0-.441.07-.81.21-1.178.14-.295.49-.442.91-.442.35 0 .63.147.841.442.21.295.28.59.28 1.031v.664h1.892v-.737c0-.442-.07-.884-.21-1.326 0-.442-.21-.737-.49-1.032zm11.21-.147c-.28-.295-.63-.443-.981-.59a3.035 3.035 0 00-1.121-.221c-.35 0-.77.074-1.121.221-.35.147-.7.368-.98.59-.281.294-.561.663-.701 1.031-.21.442-.28.884-.28 1.474v7.22c0 .59.07 1.105.28 1.474.21.442.42.736.7 1.031a2.926 2.926 0 002.102.884c.35 0 .77-.074 1.12-.22.351-.148.701-.37.982-.664.28-.295.56-.59.7-1.032.21-.442.28-.884.28-1.473v-7.22c0-.516-.07-1.032-.28-1.474-.14-.368-.42-.737-.7-1.031zm-.911 9.799c0 .442-.14.81-.35 1.031-.28.221-.56.368-.911.368-.35 0-.63-.147-.911-.368-.28-.22-.35-.59-.35-1.031v-7.22c0-.443.14-.811.35-1.032.28-.221.56-.369.91-.369.351 0 .631.148.912.369.28.22.35.59.35 1.031v7.22zm15.623 3.241V83.292h-1.822l-2.382 7.22h-.07l-2.382-7.22h-1.75v13.704h1.821v-8.325h.07l1.822 5.894h.91l1.892-5.894v8.325h1.892zM41.755 84.25a3.05 3.05 0 00-1.051-.737 3.895 3.895 0 00-1.331-.22H36.57v13.703h1.892v-5.378h.98c.701 0 1.262-.148 1.682-.369.42-.22.77-.59 1.05-1.031a3.35 3.35 0 00.421-1.179c.07-.442.07-.958.07-1.547 0-.81-.07-1.474-.21-1.916-.14-.59-.35-.958-.7-1.326zm-.911 4.2c0 .294-.07.515-.14.736-.07.221-.28.369-.49.516-.21.147-.491.147-.911.147h-.911v-4.641h.98c.35 0 .631.073.841.147.21.147.35.295.42.516.07.22.14.442.14.737v.884c.07.294.07.663.07.958zm9.738-5.158H49.04l-2.873 13.704h1.892l.56-2.947h2.522l.56 2.947h1.892l-3.012-13.704zM48.9 92.207l.91-4.936h.07l.911 4.936H48.9zm13.732-.663l-2.803-8.252h-1.821v13.704h1.891v-8.252l2.873 8.252h1.751V83.292h-1.891v8.252zm11.419-8.252l-1.471 5.452h-.07l-1.471-5.452h-1.962l2.522 7.884v5.82h1.892v-5.82l2.522-7.884H74.05zM.07 100.828h.91v2.653h.631v-2.653h.841v-.516H.07v.516zm7.567-.516l-1.191 3.169h.63l.28-.737h1.191l.28.737h.701l-1.19-3.169h-.701zm-.14 1.916l.42-1.179.42 1.179h-.84zm7.565.074h.7v.442c-.21.147-.49.295-.7.295-.28 0-.49-.074-.63-.295-.14-.221-.21-.442-.21-.811 0-.737.28-1.031.84-1.031.35 0 .56.147.7.515l.631-.147c-.14-.59-.56-.958-1.26-.958-.421 0-.771.147-1.051.442-.28.295-.42.663-.42 1.253 0 .516.14.884.42 1.179.28.295.63.442 1.12.442.49 0 .981-.147 1.261-.516v-1.252h-1.33v.442h-.07zm8.618-1.99h-.631v3.169h2.172v-.516h-1.542v-2.653zm6.445 0h-.63v3.169h.63v-3.169zm6.305 2.137l-1.261-2.137h-.56v3.169h.56v-2.064l1.19 2.064h.631v-3.169h-.56v2.137zm5.675-.368h1.54v-.516h-1.54v-.737h1.681v-.516h-2.242v3.169h2.312v-.516h-1.751v-.884zm12.89-.516h-1.19v-1.253h-.631v3.169h.63v-1.4h1.191v1.4h.63v-3.169h-.63v1.253zm5.745.516h1.471v-.516h-1.47v-.737h1.61v-.516H60.11v3.169h2.312v-.516H60.74v-.884zm7.777 0c.56-.074.77-.368.77-.884 0-.369-.07-.59-.28-.737-.21-.148-.49-.221-.91-.221h-1.262v3.168h.631v-1.326h.14c.14 0 .28 0 .35.074l.21.221.631 1.031h.7l-.35-.589c-.21-.369-.42-.663-.63-.737zm-.63-.442h-.421v-.811h.49c.35 0 .56 0 .63.074.071.074.141.147.141.295 0 .147-.07.294-.14.294-.21.148-.42.148-.7.148zm6.445.442h1.54v-.516h-1.54v-.737h1.68v-.516h-2.241v3.169h2.312v-.516h-1.751v-.884z" fill="#DBDBDB"/></svg>