<svg width="118" height="107" fill="none" xmlns="http://www.w3.org/2000/svg"><path d="M5.268 73.623v4.541a4.722 4.722 0 011.782-1.757 4.923 4.923 0 012.447-.57 5.104 5.104 0 012.412.57 5.21 5.21 0 011.877 1.645c1.118 1.476 1.675 3.389 1.672 5.737-.002 2.349-.56 4.26-1.671 5.733a4.676 4.676 0 01-2.255 1.562 8.79 8.79 0 01-2.818.482 9.25 9.25 0 01-4.95-1.416c-1.528-.948-2.292-2.766-2.292-5.455V71.692h1.9a1.793 1.793 0 011.338.569 1.887 1.887 0 01.559 1.363zm6.353 9.996c0-1.368-.278-2.43-.836-3.182a2.683 2.683 0 00-.991-.895c-.4-.208-.844-.31-1.292-.298-.46-.025-.92.065-1.338.263a2.828 2.828 0 00-1.06.871 5.552 5.552 0 00-.815 3.24c0 1.588.257 2.743.779 3.462.259.383.609.693 1.017.902.409.208.862.308 1.32.29a2.72 2.72 0 001.348-.282 2.79 2.79 0 001.049-.91c.549-.793.822-1.946.82-3.461zm6.046-11.928h1.892c.473.001.927.208 1.262.576.335.367.524.865.526 1.386v1.213h-3.68V71.69zm0 4.506h1.892c.473.004.926.212 1.261.58.335.367.524.865.527 1.386v13.403h-3.68V76.197zm5.893 15.361v-7.475a10.173 10.173 0 01.62-3.816 6.28 6.28 0 011.701-2.463 6.498 6.498 0 012.4-1.272 9.973 9.973 0 012.835-.424h.537v4.16h-1.24c-1.052 0-1.826.27-2.32.813-.496.543-.747 1.391-.755 2.544v7.941l-3.778-.008zm19.02-19.867h1.9a1.76 1.76 0 011.34.599 1.879 1.879 0 01.555 1.333v11.072c0 2.69-.763 4.507-2.287 5.455a9.278 9.278 0 01-4.971 1.416 8.702 8.702 0 01-2.86-.482 4.689 4.689 0 01-2.234-1.562c-1.09-1.398-1.634-3.31-1.634-5.733 0-2.423.544-4.336 1.634-5.737a5.1 5.1 0 011.858-1.723 5 5 0 014.873.064 5.11 5.11 0 011.814 1.771l.012-6.473zM36.216 83.62c0 1.512.273 2.665.817 3.46.268.39.628.703 1.048.911.42.209.884.306 1.35.282.458.02.913-.08 1.324-.289.41-.208.761-.52 1.02-.904.523-.794.785-1.948.785-3.46a5.544 5.544 0 00-.817-3.24 2.928 2.928 0 00-1.067-.86 2.878 2.878 0 00-1.335-.275 2.623 2.623 0 00-1.295.297c-.4.208-.741.516-.992.895-.559.757-.838 1.817-.838 3.183z" fill="#C6C6C6"/><path d="M63.632 91.566h-3.918L57.417 80.52l-2.293 11.046h-3.919l-4.094-15.448h3.808l2.37 10.686 2.125-10.686h3.976l2.015 10.686 2.071-9.292a1.71 1.71 0 01.63-1.064 1.595 1.595 0 011.16-.33h2.456l-4.09 15.448z" fill="url(#paint0_linear_0_15718)"/><path d="M69.194 71.691h1.894c.474 0 .929.207 1.264.575.335.368.523.866.523 1.387v1.213h-3.68V71.69zm0 4.506h1.894c.474.002.928.21 1.263.579.335.368.523.867.524 1.387v13.403h-3.68V76.197z" fill="url(#paint1_linear_0_15718)"/><path d="M87.597 91.564h-2a1.863 1.863 0 01-1.817-1.18 1.843 1.843 0 01-.124-.753v-7.728a2.323 2.323 0 00-.835-1.987 3.005 3.005 0 00-1.853-.627 2.88 2.88 0 00-1.824.627 2.367 2.367 0 00-.802 1.987v9.661h-3.995v-8.867c0-2.571.676-4.294 2.029-5.167a8.843 8.843 0 014.48-1.421 8.632 8.632 0 014.654 1.305c1.391.873 2.087 2.634 2.087 5.283v8.867z" fill="url(#paint2_linear_0_15718)"/><path d="M99.257 90.352v-.945a4.26 4.26 0 01-1.16 1.249 4.295 4.295 0 01-1.559.697 5.618 5.618 0 01-3.392-.277 6.286 6.286 0 01-2.87-2.475c-.805-1.205-1.207-2.79-1.207-4.758 0-2.3.532-4.163 1.596-5.594 1.063-1.43 2.774-2.144 5.13-2.14a9.19 9.19 0 014.964 1.444c1.528.966 2.294 2.747 2.296 5.341v7.849c0 2.597-.765 4.36-2.296 5.291a9.311 9.311 0 01-4.992 1.421c-3.437 0-5.567-1.596-6.39-4.787h4.101c.332.531.816.95 1.392 1.204a3.15 3.15 0 001.832.217 3.045 3.045 0 001.682-1.087c.496-.574.783-1.462.873-2.65zm-6.39-6.4c0 2.56.747 3.979 2.24 4.258 1.493.28 2.596-.063 3.31-1.03.401-.569.65-1.23.726-1.92.15-.855.16-1.728.028-2.586a5.165 5.165 0 00-.922-2.284 2.477 2.477 0 00-2.133-1.001c-1.272 0-2.13.464-2.576 1.392a7.168 7.168 0 00-.685 3.171h.012z" fill="url(#paint3_linear_0_15718)"/><path d="M103.808 86.396h3.815a2.04 2.04 0 00.841 1.674 4.006 4.006 0 002.243.56 3.598 3.598 0 001.735-.408 1.184 1.184 0 00.673-1.062c0-.67-.785-1.172-2.354-1.507a10.176 10.176 0 01-1.514-.335c-1.982-.482-3.309-1.058-3.979-1.728a3.429 3.429 0 01-1.124-2.683 4.433 4.433 0 011.641-3.516c1.121-.856 2.579-1.283 4.373-1.283 1.944 0 3.494.427 4.651 1.282a4.91 4.91 0 011.261 1.63c.3.626.463 1.308.478 2.001h-2.412a1.785 1.785 0 01-1.64-.951l-.447-.445a3.046 3.046 0 00-1.854-.503 3.32 3.32 0 00-1.678.335 1.127 1.127 0 00-.509 1.005c0 .596.972 1.098 2.917 1.507.193.067.39.123.59.167.156.036.316.056.476.057 1.914.482 3.241 1.04 3.979 1.675a3.51 3.51 0 011.066 2.679 4.461 4.461 0 01-1.792 3.794c-1.124.817-2.807 1.225-5.049 1.225-2.131 0-3.718-.427-4.763-1.282-1.044-.855-1.591-2.102-1.64-3.741l.016-.147z" fill="url(#paint4_linear_0_15718)"/><path d="M26.677 99.752a1.743 1.743 0 00-1.105-.31 2.095 2.095 0 00-.903.178 1.94 1.94 0 00-.636.472 2.052 2.052 0 00-.384.665 2.284 2.284 0 000 1.512c.082.238.212.463.384.665.17.193.386.354.636.472.277.125.588.188.903.181.212 0 .422-.036.618-.105.193-.067.37-.165.519-.288.154-.126.281-.274.374-.438.1-.176.161-.365.18-.559h.71c-.057.523-.332 1.013-.777 1.383a2.387 2.387 0 01-.753.385 2.686 2.686 0 01-.871.114 3.18 3.18 0 01-1.178-.204 2.586 2.586 0 01-.866-.552 2.386 2.386 0 01-.528-.82 2.836 2.836 0 010-1.991c.111-.298.29-.575.528-.817.238-.235.533-.426.866-.559a3.085 3.085 0 011.178-.207 2.89 2.89 0 011.583.415c.226.154.41.345.543.562.133.216.211.453.229.696h-.708a1.595 1.595 0 00-.542-.85zm2.698-.74v1.178c.16-.393.471-.729.884-.956a2.55 2.55 0 011.394-.3v.62a2.583 2.583 0 00-.934.11 2.121 2.121 0 00-.704.392 1.666 1.666 0 00-.467.581c-.11.237-.165.488-.163.742v2.701h-.677v-5.064l.668-.004zm2.964 3.319a1.8 1.8 0 00.292.619c.137.184.312.339.513.454.224.126.48.188.739.181.378.022.75-.1 1.04-.34a1.78 1.78 0 00.52-.906h.608a2.396 2.396 0 01-.708 1.284 2.135 2.135 0 01-1.46.453 2.351 2.351 0 01-1.013-.204 1.852 1.852 0 01-.701-.559 2.395 2.395 0 01-.385-.82 3.6 3.6 0 01-.131-.985 3.397 3.397 0 01.13-.945c.077-.296.208-.576.386-.827a1.99 1.99 0 01.72-.585c.314-.154.662-.23 1.013-.223.331-.007.658.068.953.217.294.15.545.368.73.637.184.267.315.565.386.88.076.329.108.667.096 1.004h-3.82c0 .225.032.448.092.665zm3.004-1.817a1.732 1.732 0 00-.312-.551 1.537 1.537 0 00-.493-.378 1.46 1.46 0 00-.655-.143 1.483 1.483 0 00-1.156.521 1.822 1.822 0 00-.32.555 2.7 2.7 0 00-.16.65h3.215a2.069 2.069 0 00-.12-.665v.011zm1.954-.685c.108-.2.268-.376.467-.511.206-.138.44-.239.69-.296.28-.064.57-.096.858-.094.245 0 .49.02.73.06.233.039.454.119.651.235.201.12.364.285.472.477.135.249.198.523.184.799v2.593a.279.279 0 00.013.143.31.31 0 00.084.123.36.36 0 00.136.078.423.423 0 00.162.016.575.575 0 00.214-.038v.499l-.205.027a2.236 2.236 0 01-.232 0 1.11 1.11 0 01-.429-.064.556.556 0 01-.244-.175.62.62 0 01-.112-.268 2.154 2.154 0 01-.025-.345h-.022a4.391 4.391 0 01-.369.42 1.978 1.978 0 01-.952.496 3.37 3.37 0 01-1.428 0 1.702 1.702 0 01-.587-.253 1.249 1.249 0 01-.545-1.083 1.167 1.167 0 01.257-.803c.18-.197.415-.348.682-.439.307-.106.629-.178.957-.212l1.076-.117c.142 0 .266-.03.373-.049a.766.766 0 00.27-.099.52.52 0 00.167-.193.768.768 0 00.056-.322.96.96 0 00-.111-.5.833.833 0 00-.31-.306 1.328 1.328 0 00-.462-.155 3.297 3.297 0 00-.562-.042 1.855 1.855 0 00-1.05.269 1.076 1.076 0 00-.331.389.946.946 0 00-.099.478h-.63c.014-.256.084-.507.206-.738zm3.375 1.457a.408.408 0 01-.244.152 2.678 2.678 0 01-.322.064c-.288.045-.583.083-.884.117-.282.032-.56.085-.831.159a1.715 1.715 0 00-.618.296.715.715 0 00-.188.255.644.644 0 00-.052.301.776.776 0 00.103.401 1 1 0 00.27.303c.119.085.254.15.399.193.147.045.302.068.459.068.252 0 .502-.036.741-.106a1.9 1.9 0 00.618-.302c.18-.133.325-.297.429-.481a1.33 1.33 0 00.154-.644v-.776h-.034zm3.495-2.296v.515h-.893v3.396a1.24 1.24 0 00.071.473c.048.113.17.179.361.191a3.54 3.54 0 00.46-.027v.515h-.476a.692.692 0 01-.408-.007.78.78 0 01-.35-.239.947.947 0 01-.2-.407 1.031 1.031 0 01.003-.467v-3.448h-.777v-.515h.767v-1.515h.538v1.515l.904.02zm2.208-2.27v1.035h-.736V96.72h.736zm0 2.055v5.305h-.736v-5.305h.736zm.838.153l1.792 4.521 1.792-4.521h.73l-2.163 5.152h-.749l-2.24-5.152h.838zm5.113 3.403c.067.223.182.433.341.62.16.184.363.338.597.453.262.126.56.188.861.181.44.022.874-.1 1.211-.34.305-.245.515-.56.606-.906h.709c-.11.489-.4.938-.826 1.284a2.775 2.775 0 01-1.7.453 3.13 3.13 0 01-1.18-.204 2.134 2.134 0 01-.816-.559 2.267 2.267 0 01-.449-.819 3.137 3.137 0 010-1.93c.09-.296.241-.577.449-.827a2.27 2.27 0 01.816-.585 2.9 2.9 0 011.18-.223c.39-.011.778.06 1.127.21.348.15.646.37.865.643.214.267.366.566.448.88.09.329.127.667.113 1.005h-4.455c0 .224.035.447.103.664zm3.5-1.816a1.685 1.685 0 00-.364-.552 1.786 1.786 0 00-.574-.377 1.938 1.938 0 00-.763-.144 1.97 1.97 0 00-.771.144c-.22.091-.416.22-.575.377a1.75 1.75 0 00-.372.556 2.41 2.41 0 00-.188.649h3.745a1.812 1.812 0 00-.139-.665v.012zm8.43 3.423v-.991h-.019a1.52 1.52 0 01-.272.465 1.795 1.795 0 01-.417.356 2.145 2.145 0 01-.5.231 1.991 1.991 0 01-1.48-.138 1.947 1.947 0 01-.674-.598 2.648 2.648 0 01-.402-.878 4.35 4.35 0 010-2.115c.08-.318.217-.616.402-.878a2 2 0 01.675-.602c.297-.156.624-.232.954-.223a1.907 1.907 0 011.006.287c.148.099.283.22.399.36.115.147.205.316.265.498v-2.993h.585v7.219h-.522zm-3.217-1.808c.052.256.147.498.28.716.126.207.293.381.488.51.217.136.465.205.716.198.274.008.547-.06.79-.198.206-.127.384-.301.522-.51.134-.218.231-.461.287-.716a3.644 3.644 0 000-1.617 2.23 2.23 0 00-.287-.712 1.534 1.534 0 00-.57-.541 1.393 1.393 0 00-.742-.167c-.25-.008-.498.06-.716.194-.196.13-.363.305-.488.514a2.145 2.145 0 00-.28.712 3.644 3.644 0 000 1.617zm5.903.201a1.721 1.721 0 00.804 1.073c.226.125.482.188.742.181.377.022.75-.1 1.038-.34.26-.245.441-.56.519-.906h.592a2.35 2.35 0 01-.707 1.284c-.41.325-.929.486-1.454.453a2.331 2.331 0 01-1.015-.204 1.835 1.835 0 01-.696-.559 2.332 2.332 0 01-.384-.819 3.619 3.619 0 010-1.93 2.44 2.44 0 01.384-.827 1.97 1.97 0 01.696-.585 2.181 2.181 0 011.015-.223 2.01 2.01 0 01.966.21c.299.15.554.37.741.643.182.268.312.566.385.88.076.329.109.667.096 1.005H66.85c.003.224.034.447.092.664zm3-1.816a1.732 1.732 0 00-.312-.552 1.468 1.468 0 00-1.142-.521 1.495 1.495 0 00-.665.144c-.188.092-.354.22-.489.377a1.877 1.877 0 00-.323.556 2.55 2.55 0 00-.157.649h3.21a2.078 2.078 0 00-.123-.665v.012zm4.899-.468a.996.996 0 00-.307-.335 1.428 1.428 0 00-.451-.192 2.416 2.416 0 00-.982 0 1.43 1.43 0 00-.421.14.934.934 0 00-.308.26.664.664 0 00-.114.376.527.527 0 00.11.336c.076.091.17.169.278.23.116.064.24.116.37.154.131.042.258.076.367.102l.885.177c.193.028.383.073.565.136a2.1 2.1 0 01.497.26c.144.103.263.232.35.377.096.173.144.365.139.558.008.237-.062.471-.202.672a1.52 1.52 0 01-.51.452 2.419 2.419 0 01-.7.253 4.236 4.236 0 01-.77.075 2.7 2.7 0 01-1.552-.407 1.767 1.767 0 01-.5-.584 1.58 1.58 0 01-.182-.717h.666c0 .175.043.347.128.504.084.158.208.296.36.405.322.211.714.32 1.113.309.168-.002.336-.019.501-.049a1.7 1.7 0 00.476-.159c.144-.072.269-.171.367-.29a.652.652 0 00.14-.426.66.66 0 00-.098-.377.88.88 0 00-.27-.245 1.775 1.775 0 00-.383-.162 4.642 4.642 0 00-.421-.113l-.843-.17a5.531 5.531 0 01-.598-.177 1.966 1.966 0 01-.48-.245 1.016 1.016 0 01-.439-.879 1.089 1.089 0 01.185-.633c.12-.174.284-.319.48-.422.203-.112.425-.192.658-.238a3.62 3.62 0 01.72-.075c.26-.003.518.029.767.094.227.06.437.16.62.294.18.133.323.3.421.49.111.216.173.449.181.686h-.665a.977.977 0 00-.148-.445zm2.451-3.327v1.035h-.736V96.72h.736zm0 2.055v5.305h-.736v-5.305h.736zm5.741 6.07a1.88 1.88 0 01-.446.781 1.97 1.97 0 01-.79.493c-.38.121-.782.178-1.186.169a3.95 3.95 0 01-.848-.089 2.652 2.652 0 01-.74-.28 1.781 1.781 0 01-.544-.489 1.336 1.336 0 01-.255-.706h.705a1 1 0 00.219.485c.103.129.235.237.388.317.158.083.33.143.508.176.187.037.376.056.567.056.263.022.53-.012.775-.099a1.7 1.7 0 00.644-.402c.322-.423.479-.931.446-1.443v-.701h-.023a1.869 1.869 0 01-.718.769 2.095 2.095 0 01-1.129.309c-.406.011-.81-.06-1.182-.208a2.155 2.155 0 01-.807-.566 2.252 2.252 0 01-.446-.845 3.726 3.726 0 01-.143-1.039 2.911 2.911 0 01.174-1.006 2.332 2.332 0 011.312-1.395c.349-.14.728-.21 1.11-.204.206-.001.41.026.607.08.186.05.362.126.522.225.155.096.296.209.42.336.115.12.21.256.28.401h.023v-.89h.705v4.75c0 .343-.05.684-.148 1.015zm-1.61-1.379c.228-.114.426-.271.58-.461.161-.197.28-.418.352-.654.08-.247.118-.504.116-.761 0-.257-.032-.512-.098-.762a2.038 2.038 0 00-.326-.694 1.658 1.658 0 00-.575-.5 1.743 1.743 0 00-.852-.189 1.822 1.822 0 00-.857.184 1.77 1.77 0 00-.593.485 1.96 1.96 0 00-.34.686 2.938 2.938 0 00-.106.802c-.001.257.036.513.111.761.07.235.189.457.348.654.163.204.38.368.63.479.25.112.528.166.807.158.281.002.558-.063.803-.188zm3.152-4.39v.86h.022c.13-.306.367-.564.675-.732.32-.182.688-.278 1.064-.276.326-.007.65.039.959.136.237.08.45.213.616.388.16.175.27.382.325.604.067.265.1.535.097.807v3.217h-.667v-3.12a2.656 2.656 0 00-.063-.597 1.196 1.196 0 00-.22-.481 1.054 1.054 0 00-.422-.318 1.676 1.676 0 00-.667-.116 1.86 1.86 0 00-.714.128 1.583 1.583 0 00-.528.36 1.63 1.63 0 00-.337.543c-.084.219-.128.45-.131.682v2.919h-.667v-5l.658-.004z" fill="#7D8789"/><path d="M103.056 5.08C89.385-4.406 65.417-.525 55.092 23.182c-5.656 12.973-7.27 32.9-31.536 39.422 6.692-.057 43.376 3.873 56.384-17.324 9.068-14.756.889-39.181 23.116-40.202z" fill="url(#paint5_radial_0_15718)"/><path d="M0 28.156c22.193-31.638 67.256-34.4 79.476-6.163C91.02 48.647 68.18 69.45 23.368 63.218c19.08-.962 38.508-10.54 32.225-29.083C50.19 18.196 26.48 13.282 0 28.156z" fill="url(#paint6_linear_0_15718)"/><defs><linearGradient id="paint0_linear_0_15718" x1="38.03" y1="77.18" x2="143.465" y2="107.61" gradientUnits="userSpaceOnUse"><stop offset=".22" stop-color="#10D6F9"/><stop offset=".43" stop-color="#10D6F9"/><stop offset=".49" stop-color="#11D0F4"/><stop offset=".58" stop-color="#13BEE8"/><stop offset=".68" stop-color="#17A2D2"/><stop offset=".79" stop-color="#1D7BB6"/><stop offset="1" stop-color="#0D3375"/></linearGradient><linearGradient id="paint1_linear_0_15718" x1="41.625" y1="72.207" x2="141.586" y2="99.475" gradientUnits="userSpaceOnUse"><stop offset=".22" stop-color="#10D6F9"/><stop offset=".43" stop-color="#10D6F9"/><stop offset=".49" stop-color="#11D0F4"/><stop offset=".58" stop-color="#13BEE8"/><stop offset=".68" stop-color="#17A2D2"/><stop offset=".79" stop-color="#1D7BB6"/><stop offset="1" stop-color="#0D3375"/></linearGradient><linearGradient id="paint2_linear_0_15718" x1="39.005" y1="72.126" x2="145.795" y2="104.24" gradientUnits="userSpaceOnUse"><stop offset=".22" stop-color="#10D6F9"/><stop offset=".43" stop-color="#10D6F9"/><stop offset=".49" stop-color="#11D0F4"/><stop offset=".58" stop-color="#13BEE8"/><stop offset=".68" stop-color="#17A2D2"/><stop offset=".79" stop-color="#1D7BB6"/><stop offset="1" stop-color="#0D3375"/></linearGradient><linearGradient id="paint3_linear_0_15718" x1="40.581" y1="70.38" x2="145.449" y2="102.025" gradientUnits="userSpaceOnUse"><stop offset=".22" stop-color="#10D6F9"/><stop offset=".43" stop-color="#10D6F9"/><stop offset=".49" stop-color="#11D0F4"/><stop offset=".58" stop-color="#13BEE8"/><stop offset=".68" stop-color="#17A2D2"/><stop offset=".79" stop-color="#1D7BB6"/><stop offset="1" stop-color="#0D3375"/></linearGradient><linearGradient id="paint4_linear_0_15718" x1="42.434" y1="63.68" x2="147.364" y2="95.242" gradientUnits="userSpaceOnUse"><stop offset=".22" stop-color="#10D6F9"/><stop offset=".43" stop-color="#10D6F9"/><stop offset=".49" stop-color="#11D0F4"/><stop offset=".58" stop-color="#13BEE8"/><stop offset=".68" stop-color="#17A2D2"/><stop offset=".79" stop-color="#1D7BB6"/><stop offset="1" stop-color="#0D3375"/></linearGradient><linearGradient id="paint6_linear_0_15718" x1="-.716" y1="20.098" x2="97.032" y2="52.401" gradientUnits="userSpaceOnUse"><stop offset=".22" stop-color="#10D6F9"/><stop offset=".43" stop-color="#10D6F9"/><stop offset=".49" stop-color="#11D0F4"/><stop offset=".58" stop-color="#13BEE8"/><stop offset=".68" stop-color="#17A2D2"/><stop offset=".79" stop-color="#1D7BB6"/><stop offset="1" stop-color="#0D3375"/></linearGradient><radialGradient id="paint5_radial_0_15718" cx="0" cy="0" r="1" gradientUnits="userSpaceOnUse" gradientTransform="matrix(53.01367 -1.05649 1.05272 52.82461 69.894 30.806)"><stop stop-color="#8D8D8D"/><stop offset=".15" stop-color="#A7A7A7"/><stop offset=".39" stop-color="#C7C7C7"/><stop offset=".61" stop-color="#DFDFDF"/><stop offset=".82" stop-color="#EDEDED"/><stop offset="1" stop-color="#F2F2F2"/></radialGradient></defs></svg>