<svg width="84" height="104" fill="none" xmlns="http://www.w3.org/2000/svg"><path d="M27.848 61.015l5.87 3.539 7.23-4.292-5.87-3.613V4.323L28.206.183l-.573.376L.501 16.972v8.733L27.848 9.142v51.873z" fill="#DBDBDB"/><path d="M48.752 4.323v54.885L28.206 71.706 7.66 59.208v-34.03L.501 29.47v31.545L28.206 77.88 55.91 61.015V9.142l27.347 16.563v-8.733L55.552.182l-6.8 4.141z" fill="#DBDBDB"/><path d="M52.188 67.038l-7.159 4.367 10.523 6.475 27.705-16.865V29.47l-7.159-4.367v31.546L55.553 69.146l-3.365-2.108zm-33.361 34.105h.788v2.485h.573v-2.485h.859v-.602h-2.22v.602zm5.441-.602l-1.073 3.087h.644l.286-.828h.93l.287.828h.645l-1.074-3.087h-.645zm.072 1.581l.215-.677.215.677h-.43zm6.228-.15h-.859v.603h.716a.87.87 0 01-.716.376c-.501 0-.859-.376-.859-.903s.358-.904.86-.904c.214 0 .429.075.572.226l.43-.452c-.287-.226-.645-.451-1.003-.451-.787 0-1.432.677-1.432 1.505 0 .828.645 1.506 1.432 1.506.788 0 1.432-.678 1.432-1.506v-.075h-.573v.075zm4.367-1.431h-.573v3.087h1.647v-.678h-1.074v-2.409zm4.224 0h-.573v3.087h.573v-3.087zm4.438 2.033l-1.217-2.033h-.644v3.087h.572v-2.033l1.146 2.033h.716v-3.087h-.573v2.033zm3.15 1.054h1.718v-.678h-1.146v-.602h1.146v-.602h-1.146v-.603h1.146v-.602h-1.718v3.087zm7.66-1.882h-1.074v-1.205h-.573v3.087h.573v-1.28h1.074v1.28h.573v-3.087h-.573v1.205zm3.15 1.882h1.79v-.678h-1.218v-.602h1.217v-.602H58.13v-.603h1.217v-.602h-1.79v3.087zm6.085-2.183c0-.528-.358-.904-.86-.904h-.858v3.087h.572v-1.205h.143l.502 1.205h.644l-.573-1.355c.286-.151.43-.452.43-.828zm-.86.301h-.286v-.603h.287c.143 0 .286.151.286.302 0 .15-.143.301-.286.301zm3.508 1.882h1.718v-.678h-1.145v-.602h1.145v-.602h-1.145v-.603h1.145v-.602H66.29v3.087zM4.438 89.474c.716 0 1.36.301 1.79.753l1.289-1.356c-.788-.828-1.862-1.28-3.079-1.28C2.004 87.592 0 89.7 0 92.26c0 2.56 2.004 4.668 4.438 4.668 1.217 0 2.291-.528 3.079-1.28l-1.289-1.356c-.501.452-1.145.753-1.79.753-1.503 0-2.648-1.28-2.648-2.785 0-1.506 1.217-2.786 2.648-2.786zm12.457-1.882c-2.434 0-4.439 2.108-4.439 4.668s2.005 4.668 4.439 4.668 4.438-2.109 4.438-4.668c.072-2.56-1.933-4.668-4.438-4.668zm0 7.529c-1.504 0-2.649-1.28-2.649-2.786 0-1.581 1.217-2.786 2.649-2.786 1.503 0 2.649 1.28 2.649 2.786.071 1.506-1.146 2.786-2.65 2.786zm19.042 1.881v-9.41h-1.861l-2.649 6.85-2.577-6.85h-1.933v9.41h1.79V92.26l1.79 4.743h1.932l1.718-4.743v4.743h1.79zm8.018-9.41h-2.434v9.41h1.79v-3.764h.716c1.503 0 2.649-1.28 2.649-2.785 0-1.582-1.217-2.861-2.72-2.861zm0 3.764h-.716v-1.882h.716c.501 0 .86.451.86.903a.872.872 0 01-.86.979zm10.237-3.764l-3.221 9.41h1.861l.93-2.634h2.793l.93 2.635h1.862l-3.222-9.411h-1.933zm.287 4.893l.716-2.108.715 2.108h-1.43zM70.3 93.84l-3.58-6.248h-2.076v9.41h1.79v-6.248l3.579 6.248h2.076v-9.41h-1.79v6.248zm10.308-3.689l-1.288-2.56h-1.933l2.29 4.894v4.517h1.79v-4.517l2.291-4.893h-1.933l-1.217 2.56z" fill="#DBDBDB"/></svg>