<svg width="56" height="57" fill="none" xmlns="http://www.w3.org/2000/svg"><path d="M21.372 27.902h-.186a1.263 1.263 0 00-.42 0c-6.767-.21-11.877-5.53-11.877-12.086 0-6.674 5.437-12.11 12.11-12.11 6.673 0 12.11 5.436 12.11 12.11-.023 6.556-5.157 11.876-11.667 12.086h-.07zM21 7.206c-4.737 0-8.61 3.873-8.61 8.61a8.548 8.548 0 008.283 8.586c.14-.023.444-.023.747 0 4.573-.21 8.166-3.966 8.19-8.586 0-4.737-3.874-8.61-8.61-8.61zm17.592 21c-.07 0-.14 0-.21-.024-.956.094-1.936-.583-2.03-1.54-.093-.956.49-1.82 1.447-1.936.28-.024.583-.024.84-.024a6.408 6.408 0 006.067-6.416 6.413 6.413 0 00-6.417-6.417c-.957.023-1.75-.77-1.75-1.727 0-.956.793-1.75 1.75-1.75 5.46 0 9.917 4.457 9.917 9.917 0 5.367-4.2 9.707-9.544 9.917h-.07zm-17.196 25.2c-4.574 0-9.17-1.167-12.647-3.5-3.243-2.147-5.017-5.087-5.017-8.284 0-3.196 1.774-6.16 5.017-8.33 7-4.643 18.34-4.643 25.293 0 3.22 2.147 5.017 5.087 5.017 8.284 0 3.196-1.773 6.16-5.017 8.33-3.5 2.333-8.073 3.5-12.646 3.5zm-10.71-17.174c-2.24 1.494-3.454 3.407-3.454 5.414 0 1.983 1.237 3.896 3.454 5.366 5.81 3.897 15.61 3.897 21.42 0 2.24-1.493 3.453-3.406 3.453-5.413 0-1.983-1.237-3.897-3.453-5.367-5.81-3.873-15.61-3.873-21.42 0zm32.107 12.974c-.817 0-1.54-.56-1.704-1.4a1.774 1.774 0 011.354-2.077c1.47-.303 2.823-.887 3.873-1.703 1.33-1.004 2.053-2.264 2.053-3.594s-.723-2.59-2.03-3.57c-1.026-.793-2.31-1.353-3.826-1.703a1.764 1.764 0 01-1.33-2.1 1.764 1.764 0 012.1-1.33c2.006.443 3.756 1.237 5.18 2.333 2.17 1.634 3.406 3.944 3.406 6.37 0 2.427-1.26 4.737-3.43 6.394-1.446 1.12-3.266 1.936-5.273 2.333-.14.047-.257.047-.373.047z" fill="#fff"/></svg>