<svg width="64" height="52" viewBox="0 0 64 52" fill="none" xmlns="http://www.w3.org/2000/svg">
<path d="M5.92006 41.7693H7.46971C7.28964 42.5331 6.82774 43.2087 6.16918 43.6716C5.5284 44.1282 4.72219 44.3565 3.75055 44.3565C2.5736 44.3565 1.65427 43.9895 0.992561 43.2557C0.330854 42.5432 0 41.5221 0 40.1925C0 38.9243 0.320392 37.9327 0.961176 37.2177C1.62811 36.4851 2.55006 36.1188 3.72701 36.1188C4.96673 36.1188 5.92791 36.4757 6.61054 37.1895C7.27225 37.9233 7.6031 38.9444 7.6031 40.2527V40.5801C7.60722 40.6504 7.59654 40.7208 7.57171 40.7871H2.2009C2.22051 41.403 2.37548 41.859 2.66579 42.155C2.93518 42.4724 3.33796 42.631 3.87413 42.631C4.18803 42.6395 4.49867 42.5681 4.7745 42.4241C4.83896 42.4018 4.8973 42.3657 4.94515 42.3187L5.11385 42.155C5.1705 42.06 5.25067 41.9799 5.34728 41.9217C5.5153 41.8113 5.7168 41.7577 5.92006 41.7693ZM2.19305 39.4493H5.36297C5.32112 38.9149 5.17662 38.5185 4.92946 38.2601C4.77981 38.1168 4.60011 38.0056 4.40228 37.9339C4.20445 37.8622 3.993 37.8316 3.78193 37.8443C3.57618 37.837 3.37106 37.8702 3.17913 37.9417C2.98721 38.0132 2.81253 38.1216 2.66579 38.2601C2.35587 38.5836 2.18917 39.01 2.2009 39.4493H2.19305Z" fill="#6C6D6D"/>
<path d="M8.23767 34.218H9.21559C9.4583 34.2139 9.69257 34.3145 9.86696 34.4977C9.95461 34.5858 10.0241 34.6929 10.0709 34.8122C10.1177 34.9314 10.1407 35.0601 10.1385 35.1897V44.3564H8.23767V34.218Z" fill="#6C6D6D"/>
<path d="M16.7 41.7693H18.2512C18.071 42.5336 17.6078 43.2094 16.9474 43.6716C16.3073 44.1282 15.501 44.3565 14.5284 44.3565C13.3503 44.3565 12.4294 43.9895 11.7658 43.2557C11.1034 42.5432 10.7722 41.5221 10.7722 40.1925C10.7722 38.9243 11.0929 37.9333 11.7343 37.2196C12.3967 36.4857 13.3176 36.1188 14.497 36.1188C15.7379 36.1188 16.6994 36.4757 17.3814 37.1895C18.0437 37.9233 18.3749 38.9444 18.3749 40.2527V40.5801C18.3801 40.6504 18.3694 40.721 18.3435 40.7871H12.9753C12.9975 41.403 13.1526 41.859 13.4406 42.155C13.709 42.4724 14.1128 42.631 14.6521 42.631C14.9657 42.6398 15.2761 42.5683 15.5514 42.4241C15.6164 42.4026 15.675 42.3665 15.7222 42.3187L15.893 42.155C15.9488 42.0599 16.0284 41.9797 16.1247 41.9217C16.2937 41.8113 16.496 41.7577 16.7 41.7693ZM12.9694 39.4493H16.1404C16.0992 38.9149 15.9559 38.5085 15.7065 38.2601C15.5567 38.1168 15.3768 38.0056 15.1788 37.9339C14.9808 37.8622 14.7691 37.8316 14.5579 37.8443C14.3519 37.8374 14.1467 37.8707 13.9547 37.9422C13.7626 38.0137 13.5877 38.1218 13.4406 38.2601C13.1325 38.5849 12.966 39.0104 12.9753 39.4493H12.9694Z" fill="#6C6D6D"/>
<path d="M25.0363 41.7693H26.6138C26.4305 42.5331 25.9603 43.2087 25.2899 43.6716C24.6363 44.1282 23.8156 44.3565 22.8278 44.3565C21.6297 44.3565 20.6939 43.9895 20.0203 43.2557C19.3454 42.5432 19.0086 41.5221 19.0099 40.1925C19.0099 38.9243 19.336 37.9333 19.9883 37.2196C20.6619 36.4857 21.5978 36.1188 22.7959 36.1188C24.0579 36.1188 25.0363 36.4757 25.7312 37.1895C26.1145 37.6353 26.3941 38.1519 26.5519 38.706H24.3534C24.2724 38.5434 24.1661 38.3931 24.0379 38.2601C23.8855 38.1169 23.7026 38.0057 23.5012 37.9341C23.2998 37.8624 23.0846 37.8318 22.8698 37.8443C22.6603 37.837 22.4515 37.8702 22.2561 37.9417C22.0608 38.0132 21.883 38.1216 21.7336 38.2601C21.3502 38.6577 21.1585 39.3138 21.1585 40.2282C21.1585 41.1427 21.3475 41.7868 21.7256 42.1606C21.9998 42.478 22.4098 42.6367 22.9556 42.6367C23.2752 42.6451 23.5914 42.5737 23.8722 42.4297C23.9374 42.4078 23.9963 42.3717 24.0439 42.3243L24.2176 42.1606C24.2917 42.0722 24.3768 41.9926 24.4712 41.9236C24.6347 41.8115 24.8346 41.7569 25.0363 41.7693Z" fill="#6C6D6D"/>
<path d="M31.0495 44.3331C30.2255 44.3717 29.3993 44.3624 28.5767 44.3052C27.6906 44.2456 27.2476 43.7649 27.2476 42.8631V34.2178H28.4894C28.6384 34.218 28.7857 34.2442 28.9223 34.2948C29.0589 34.3453 29.182 34.4192 29.2839 34.5118C29.3948 34.6031 29.4826 34.7127 29.5419 34.834C29.6012 34.9553 29.6308 35.0857 29.6287 35.2171V36.5401H31.043V36.9513C31.0483 37.0853 31.0203 37.2187 30.9609 37.3428C30.9015 37.4669 30.8119 37.5789 30.6982 37.6715C30.5885 37.7625 30.4587 37.8341 30.3163 37.882C30.174 37.93 30.0218 37.9533 29.8688 37.9506H29.6287V42.303C29.6287 42.6379 29.8579 42.8035 30.3184 42.8035H31.043L31.0495 44.3331Z" fill="#6C6D6D"/>
<path d="M31.052 44.3486V40.3571C31.0297 39.6645 31.1621 38.975 31.4411 38.3309C31.6733 37.8183 32.0405 37.3664 32.51 37.0154C32.9539 36.6991 33.4629 36.468 34.0066 36.3361C34.5847 36.1908 35.1816 36.1177 35.7811 36.1188H36.1189V38.3153H35.3514C34.6993 38.3153 34.214 38.4601 33.8997 38.7479C33.5854 39.0357 33.4272 39.4918 33.4272 40.1182V44.3565L31.052 44.3486Z" fill="#6C6D6D"/>
<path d="M37.3302 43.4968C36.8778 43.1155 36.5538 42.6139 36.3996 42.0557C36.2121 41.4448 36.1175 40.8111 36.1188 40.1743C36.1202 39.6317 36.1988 39.0918 36.3524 38.5695C36.4854 38.0761 36.7346 37.6185 37.0809 37.2318C37.6105 36.6415 38.3531 36.2646 39.1602 36.1763C39.9298 36.0582 40.718 36.1228 41.4555 36.3645C42.2221 36.6436 42.8453 37.1975 43.1932 37.9091C43.5584 38.6207 43.7395 39.406 43.7213 40.1988C43.7339 40.7502 43.6618 41.3005 43.5073 41.8318C43.3853 42.2441 43.1972 42.6357 42.9497 42.9926C42.5025 43.6139 41.8261 44.0495 41.0569 44.2118C40.3832 44.3887 39.6744 44.4036 38.9933 44.2551C38.3796 44.1451 37.8064 43.8838 37.3302 43.4968ZM38.8186 38.2647C38.3846 38.7219 38.1883 39.3935 38.2295 40.3022C38.2707 41.2109 38.4455 41.8318 38.7577 42.1836C38.9293 42.3746 39.1551 42.5138 39.4076 42.5844C39.711 42.6938 40.0436 42.7044 40.354 42.6145C40.7129 42.4968 41.0159 42.2599 41.2081 41.9466C41.4555 41.5891 41.6008 41.0059 41.6106 40.2213C41.6106 39.5083 41.4928 38.9721 41.2552 38.6165C41.0715 38.3042 40.7809 38.0623 40.4325 37.9317C40.1316 37.8336 39.8061 37.8284 39.5018 37.9166C39.2485 37.9791 39.0143 38.0984 38.8186 38.2647Z" fill="#6C6D6D"/>
<path d="M49.8807 41.7693H51.3267C51.1587 42.5336 50.7269 43.2094 50.1113 43.6716C49.5146 44.1282 48.7629 44.3565 47.8562 44.3565C46.758 44.3565 45.9001 43.9895 45.2826 43.2557C44.664 42.5432 44.3552 41.5221 44.3564 40.1925C44.3564 38.9243 44.6554 37.9333 45.2534 37.2196C45.8708 36.4857 46.7287 36.1188 47.827 36.1188C48.9838 36.1188 49.8807 36.4757 50.5177 37.1895C50.8685 37.6354 51.1241 38.152 51.2682 38.706H49.2437C49.1701 38.543 49.0726 38.3926 48.9545 38.2601C48.8153 38.1167 48.6479 38.0055 48.4636 37.9338C48.2793 37.8621 48.0822 37.8316 47.8855 37.8443C47.6935 37.837 47.5021 37.8702 47.323 37.9417C47.1439 38.0132 46.9809 38.1216 46.844 38.2601C46.4962 38.6577 46.3223 39.3119 46.3223 40.2226C46.3223 41.1333 46.4962 41.7774 46.844 42.155C47.0954 42.4724 47.4712 42.631 47.9716 42.631C48.2645 42.6395 48.5543 42.5681 48.8117 42.4241C48.8715 42.4022 48.9255 42.3661 48.9691 42.3187L49.1284 42.155C49.1957 42.0661 49.2738 41.9864 49.3609 41.9179C49.5119 41.8074 49.6958 41.7548 49.8807 41.7693Z" fill="#6C6D6D"/>
<path d="M57.4102 43.8798C56.9835 44.0961 56.5178 44.2321 56.0379 44.2806C55.6109 44.3268 55.1817 44.3519 54.752 44.3558C54.0534 44.3693 53.3691 44.1654 52.8014 43.7745C52.2408 43.3894 51.9604 42.7503 51.9604 41.8573C51.9604 41.0257 52.2133 40.4311 52.7191 40.0736C53.2954 39.6897 53.9599 39.4451 54.6559 39.3606C54.7813 39.3579 54.9062 39.3428 55.0284 39.3154C55.1915 39.2823 55.3564 39.2578 55.5224 39.242C56.432 39.1216 56.8946 38.8658 56.8946 38.4688C56.9008 38.3328 56.8556 38.1994 56.7673 38.0929C56.6791 37.9864 56.5537 37.9141 56.4143 37.8893C56.1278 37.8042 55.8301 37.7585 55.5302 37.7538C55.2635 37.7493 54.998 37.7901 54.7461 37.8742C54.6357 37.9116 54.5347 37.9705 54.4493 38.0472C54.364 38.124 54.2961 38.2169 54.2501 38.3201H52.1761C52.2468 37.7252 52.5579 37.1808 53.0425 36.8037C53.6019 36.3484 54.3971 36.1201 55.4283 36.1188C56.5849 36.1188 57.452 36.307 58.0296 36.6833C58.3166 36.8627 58.5503 37.1103 58.708 37.4021C58.8657 37.6939 58.9419 38.0199 58.9294 38.3484V41.0558C58.9294 41.8485 58.7791 42.4675 58.4785 42.9128C58.2211 43.3227 57.8516 43.6571 57.4102 43.8798ZM56.9162 40.2279C56.5288 40.3984 56.1233 40.5278 55.7066 40.6136L54.995 40.7623C54.6971 40.8251 54.4201 40.9583 54.1893 41.1498C54.0524 41.3433 53.9768 41.5707 53.9717 41.8046C53.9656 41.9353 53.987 42.0659 54.0349 42.1885C54.0827 42.311 54.1559 42.423 54.2501 42.5177C54.479 42.6895 54.766 42.7739 55.0558 42.7547C55.3055 42.776 55.557 42.7445 55.7927 42.6624C56.0283 42.5803 56.2423 42.4496 56.4197 42.2796C56.597 42.1096 56.7334 41.9043 56.8192 41.6782C56.905 41.4521 56.9381 41.2108 56.9162 40.9711V40.2279Z" fill="#6C6D6D"/>
<path d="M59.5666 44.3486V40.3571C59.5465 39.6646 59.6617 38.9752 59.9053 38.3309C60.1085 37.8183 60.43 37.3664 60.841 37.0154C61.2297 36.6994 61.6752 36.4684 62.151 36.3361C62.6571 36.191 63.1795 36.1179 63.7043 36.1188H64V38.3153H63.3188C62.748 38.3153 62.3232 38.4601 62.0481 38.7479C61.773 39.0357 61.6345 39.4918 61.6345 40.1182V44.3565L59.5666 44.3486Z" fill="#6C6D6D"/>
<path d="M12.8794 48.7127C12.9332 48.5891 13.0131 48.4813 13.1124 48.398C13.2148 48.3143 13.3311 48.2533 13.4549 48.2184C13.5976 48.1767 13.7449 48.1565 13.8927 48.1586C14.0142 48.1591 14.1353 48.172 14.2546 48.1972C14.3705 48.2206 14.4809 48.2692 14.5794 48.3401C14.6793 48.4143 14.7602 48.5153 14.8142 48.6335C14.8794 48.7875 14.9102 48.9562 14.9042 49.1258V50.7243C14.9002 50.7539 14.9024 50.7841 14.9109 50.8126C14.9193 50.8411 14.9337 50.867 14.9529 50.8883C14.9721 50.9097 14.9955 50.9258 15.0214 50.9356C15.0472 50.9453 15.0748 50.9483 15.102 50.9444C15.1384 50.945 15.1745 50.9371 15.2079 50.9213V51.2224L15.1055 51.2398C15.0673 51.2421 15.029 51.2421 14.9907 51.2398C14.9203 51.2427 14.8501 51.2302 14.7842 51.2031C14.7361 51.1802 14.695 51.1427 14.6659 51.095C14.6356 51.0452 14.6162 50.9884 14.6094 50.929C14.5999 50.8587 14.5951 50.7877 14.5953 50.7166H14.5865C14.5329 50.807 14.4739 50.8934 14.4099 50.9753C14.3501 51.0511 14.2798 51.1162 14.2016 51.1684C14.1205 51.2206 14.0332 51.2602 13.9421 51.2861C13.8262 51.3144 13.7078 51.328 13.589 51.3267C13.4699 51.3267 13.3512 51.3098 13.236 51.2765C13.1292 51.2467 13.0294 51.1928 12.9429 51.1182C12.8587 51.0445 12.7911 50.9507 12.7452 50.844C12.6962 50.7225 12.6721 50.5907 12.6746 50.4579C12.6646 50.2828 12.7094 50.1092 12.8017 49.9656C12.8906 49.8436 13.0076 49.7496 13.1406 49.6934C13.2929 49.6288 13.4518 49.5848 13.6138 49.5621L14.1434 49.4907C14.214 49.483 14.2758 49.4733 14.3287 49.4617C14.3772 49.4526 14.4231 49.4315 14.4629 49.4C14.4993 49.3683 14.5278 49.3271 14.5459 49.2803C14.5664 49.2185 14.576 49.1529 14.5741 49.0872C14.578 48.9822 14.5592 48.8777 14.5194 48.7822C14.4837 48.7042 14.4302 48.6377 14.364 48.5891C14.2941 48.5407 14.2161 48.5079 14.1345 48.4926C14.0425 48.4744 13.9491 48.4653 13.8556 48.4656C13.6671 48.455 13.4808 48.5134 13.326 48.6316C13.2549 48.6965 13.1986 48.7786 13.1615 48.8714C13.1244 48.9642 13.1076 49.0652 13.1124 49.1664H12.777C12.7844 49.0094 12.8192 48.8554 12.8794 48.7127ZM14.5582 49.6104C14.5446 49.6339 14.5268 49.6543 14.5059 49.6702C14.485 49.6861 14.4614 49.6973 14.4364 49.7031C14.3837 49.7202 14.33 49.7337 14.2758 49.7436C14.1345 49.7726 13.988 49.7957 13.8362 49.817C13.6962 49.8362 13.558 49.8685 13.4231 49.9135C13.3095 49.9524 13.2052 50.0183 13.1177 50.1065C13.0761 50.1504 13.0437 50.2038 13.023 50.2628C13.0022 50.3219 12.9936 50.3852 12.9977 50.4483C12.9958 50.5338 13.0128 50.6185 13.0471 50.6954C13.0805 50.7688 13.1267 50.8343 13.183 50.8884C13.2417 50.9407 13.3088 50.9806 13.3807 51.0062C13.4544 51.0346 13.5321 51.049 13.6102 51.0487C13.7351 51.0495 13.8593 51.0273 13.9774 50.983C14.0904 50.9413 14.1947 50.8757 14.2846 50.79C14.3715 50.7076 14.4419 50.6064 14.4911 50.4927C14.5449 50.3692 14.5715 50.2336 14.5688 50.0969V49.6181L14.5582 49.6104Z" fill="#9E9E9E"/>
<path d="M16.1767 46.8911V48.6935H16.1873C16.2204 48.5837 16.2719 48.4823 16.339 48.3951C16.4044 48.3112 16.4805 48.2392 16.5647 48.1814C16.6513 48.1234 16.7445 48.0793 16.8417 48.0503C16.9393 48.0235 17.0393 48.0093 17.1397 48.008C17.3288 48.0034 17.5161 48.0497 17.6865 48.1431C17.837 48.2293 17.9689 48.3526 18.0728 48.504C18.1777 48.6624 18.2549 48.8424 18.3004 49.0342C18.4015 49.4503 18.4015 49.8901 18.3004 50.3063C18.2549 50.4981 18.1777 50.6781 18.0728 50.8365C17.9689 50.9873 17.8369 51.1099 17.6865 51.1954C17.5154 51.2862 17.3284 51.3311 17.1397 51.3264C16.9301 51.3298 16.7235 51.2685 16.5418 51.149C16.3682 51.0347 16.2338 50.8562 16.1608 50.643H16.1502V51.2478H15.8416V46.8911H16.1767ZM17.9899 49.1894C17.959 49.0366 17.9046 48.8912 17.8294 48.76C17.7577 48.6348 17.6625 48.5294 17.5507 48.4515C17.4259 48.3694 17.2837 48.3282 17.1397 48.3326C16.9834 48.3275 16.8285 48.3684 16.69 48.4515C16.5715 48.5273 16.4696 48.6327 16.3919 48.76C16.3141 48.8901 16.2584 49.0358 16.2278 49.1894C16.1933 49.3476 16.1761 49.5102 16.1767 49.6733C16.1763 49.8363 16.1935 49.9988 16.2278 50.1571C16.2588 50.31 16.3144 50.455 16.3919 50.5845C16.4691 50.7122 16.5711 50.8178 16.69 50.893C16.8307 50.9743 16.9875 51.0125 17.145 51.0039C17.289 51.0083 17.4312 50.9671 17.556 50.8849C17.6681 50.8075 17.7634 50.702 17.8347 50.5765C17.9096 50.4458 17.9639 50.3011 17.9952 50.1491C18.0282 49.9905 18.0447 49.8281 18.0446 49.6652C18.0427 49.5047 18.0243 49.345 17.9899 49.1894Z" fill="#9E9E9E"/>
<path d="M20.995 48.8239C20.9527 48.743 20.8919 48.6724 20.8172 48.6175C20.7408 48.5622 20.654 48.5216 20.5616 48.498C20.4612 48.4723 20.3579 48.4593 20.2541 48.4594C20.1674 48.4599 20.0811 48.4689 19.9964 48.4864C19.9129 48.5029 19.8327 48.5322 19.7588 48.5732C19.6885 48.6125 19.629 48.6673 19.585 48.7333C19.5377 48.8065 19.514 48.8918 19.5171 48.9782C19.5151 49.0518 19.5375 49.1241 19.581 49.1846C19.6243 49.2416 19.6785 49.2901 19.7408 49.3273C19.8074 49.3671 19.8784 49.3994 19.9525 49.4237C20.0284 49.4488 20.0983 49.47 20.1522 49.4854L20.6595 49.5954C20.7696 49.6116 20.8775 49.6401 20.981 49.6802C21.0838 49.7184 21.1796 49.7725 21.2646 49.8403C21.3477 49.908 21.4156 49.9913 21.4643 50.0852C21.5203 50.1914 21.5478 50.3094 21.5441 50.4285C21.549 50.5748 21.5087 50.7192 21.4283 50.8432C21.3543 50.9565 21.2546 51.0522 21.1367 51.1229C21.0143 51.1971 20.879 51.2494 20.7373 51.2771C20.5932 51.3091 20.4458 51.3253 20.298 51.3254C19.9812 51.3391 19.6686 51.251 19.4093 51.0746C19.2866 50.9764 19.1873 50.8536 19.1184 50.7148C19.0494 50.5759 19.0124 50.4243 19.0099 50.2704H19.4173C19.4179 50.3784 19.4433 50.4849 19.4917 50.5823C19.54 50.6796 19.6101 50.7655 19.6969 50.8336C19.881 50.9647 20.1052 51.0326 20.3339 51.0264C20.4299 51.026 20.5256 51.0164 20.6195 50.9975C20.716 50.9774 20.8089 50.9436 20.8951 50.8972C20.9733 50.8516 21.0412 50.7912 21.0948 50.7198C21.1502 50.6423 21.1782 50.5496 21.1747 50.4555C21.1781 50.3774 21.1587 50.2999 21.1188 50.2318C21.0803 50.1703 21.0277 50.1181 20.965 50.0795C20.8965 50.0366 20.8227 50.0023 20.7453 49.9772C20.6614 49.9502 20.5796 49.9271 20.4937 49.9078L20.0064 49.8037C19.8895 49.7752 19.7748 49.7391 19.6629 49.6957C19.5639 49.6581 19.471 49.6068 19.3873 49.5433C19.3103 49.4837 19.2476 49.4087 19.2036 49.3234C19.1567 49.2216 19.1341 49.1108 19.1377 48.9994C19.1348 48.8638 19.1715 48.7301 19.2435 48.6137C19.3121 48.5066 19.4058 48.4168 19.5171 48.3514C19.6344 48.2845 19.7617 48.2357 19.8946 48.2067C20.03 48.1756 20.1687 48.1594 20.308 48.1585C20.456 48.1571 20.6035 48.1773 20.7453 48.2183C20.8749 48.2549 20.9957 48.3158 21.1008 48.3977C21.2034 48.4807 21.2864 48.584 21.3444 48.7005C21.4074 48.8339 21.442 48.9782 21.4463 49.1248H21.0668C21.0667 49.0205 21.0421 48.9177 20.995 48.8239Z" fill="#9E9E9E"/>
<path d="M22.8119 47.9077V48.2552H22.2962V50.5359C22.2927 50.6452 22.3071 50.7542 22.3385 50.8552C22.3661 50.9312 22.4361 50.9725 22.5467 50.9834C22.6353 50.9826 22.7239 50.9754 22.8119 50.9617V51.3092H22.6752H22.5369C22.4596 51.3345 22.3787 51.3324 22.3021 51.3032C22.2256 51.2739 22.1561 51.2184 22.1006 51.1423C22.045 51.0661 22.0053 50.9719 21.9854 50.869C21.9655 50.7661 21.9661 50.658 21.9871 50.5555V48.2552H21.5446V47.9077H21.9871V46.8911H22.2962V47.9077H22.8119Z" fill="#9E9E9E"/>
<path d="M23.8738 48.1955V48.781H23.8886C23.9895 48.5869 24.188 48.4203 24.4524 48.308C24.7168 48.1958 25.0316 48.1443 25.3465 48.1618V48.4666C25.1479 48.4581 24.9487 48.4772 24.7624 48.5227C24.595 48.5642 24.4427 48.6277 24.3149 48.7091C24.1871 48.7906 24.0867 48.8882 24.0198 48.9959C23.9493 49.1124 23.914 49.2366 23.9159 49.3617V50.6931H23.4456V48.1955H23.8738Z" fill="#9E9E9E"/>
<path d="M25.5486 48.7127C25.6023 48.5896 25.6813 48.4819 25.7794 48.398C25.8846 48.3127 26.0045 48.2516 26.1318 48.2184C26.2736 48.1767 26.4201 48.1566 26.5669 48.1586C26.6887 48.159 26.8103 48.1719 26.9299 48.1972C27.0455 48.2206 27.1558 48.2692 27.254 48.3401C27.3531 48.4151 27.4336 48.5159 27.4883 48.6335C27.5534 48.7875 27.5842 48.9562 27.5782 49.1258V50.7243C27.5741 50.7539 27.5764 50.7841 27.5848 50.8126C27.5933 50.841 27.6076 50.867 27.6267 50.8883C27.6459 50.9096 27.6693 50.9258 27.6951 50.9356C27.7209 50.9453 27.7484 50.9483 27.7755 50.9444C27.8118 50.9449 27.8479 50.937 27.8812 50.9212V51.2224L27.7773 51.2398C27.7391 51.2421 27.7009 51.2421 27.6628 51.2398C27.5931 51.243 27.5235 51.2305 27.4584 51.2031C27.4099 51.1803 27.3683 51.1428 27.3386 51.095C27.3089 51.0448 27.2897 50.9882 27.2822 50.9289C27.2733 50.8586 27.2692 50.7876 27.2699 50.7166H27.2593C27.2058 50.807 27.147 50.8934 27.0831 50.9753C27.0226 51.0502 26.9526 51.1152 26.8752 51.1683C26.7937 51.2206 26.7059 51.2602 26.6145 51.2861C26.4989 51.3146 26.3806 51.3282 26.2621 51.3266C26.1432 51.3267 26.0248 51.3099 25.9098 51.2764C25.8031 51.2471 25.7034 51.1931 25.6173 51.1181C25.5321 51.0458 25.4644 50.9517 25.42 50.844C25.3705 50.7226 25.3458 50.5908 25.3478 50.4579C25.3383 50.2825 25.3837 50.1089 25.4764 49.9656C25.5648 49.844 25.6808 49.7501 25.8129 49.6934C25.9655 49.6288 26.1246 49.5847 26.2868 49.5621L26.8153 49.4907C26.8858 49.4907 26.9492 49.4733 27.0021 49.4617C27.0498 49.4523 27.095 49.4312 27.1342 49.3999C27.1711 49.3688 27.1997 49.3275 27.217 49.2802C27.2382 49.2186 27.2484 49.1531 27.247 49.0872C27.2503 48.9821 27.231 48.8776 27.1906 48.7822C27.1562 48.7039 27.1033 48.6372 27.0373 48.5891C26.9674 48.541 26.8896 48.5082 26.8083 48.4926C26.7159 48.4743 26.6221 48.4652 26.5282 48.4655C26.3401 48.4556 26.1543 48.5139 25.9996 48.6316C25.9292 48.6969 25.8735 48.7791 25.8368 48.8718C25.8001 48.9646 25.7835 49.0654 25.7882 49.1663H25.4517C25.4583 49.0099 25.4912 48.8561 25.5486 48.7127ZM27.2241 49.6104C27.2103 49.6341 27.1923 49.6546 27.1711 49.6705C27.1499 49.6865 27.126 49.6975 27.1007 49.703C27.0488 49.7204 26.9958 49.7339 26.9422 49.7436C26.7995 49.7725 26.6533 49.7957 26.5035 49.8169C26.3638 49.8357 26.2258 49.868 26.0913 49.9135C25.9774 49.9524 25.8727 50.0183 25.7847 50.1065C25.7435 50.1507 25.7115 50.2041 25.6909 50.2631C25.6702 50.322 25.6613 50.3852 25.6649 50.4482C25.6636 50.5339 25.6812 50.6186 25.716 50.6953C25.75 50.7681 25.7969 50.8326 25.8541 50.885C25.9114 50.9374 25.9776 50.9767 26.049 51.0004C26.1219 51.0288 26.1988 51.0432 26.2762 51.0429C26.4015 51.0437 26.5259 51.0215 26.6445 50.9772C26.7566 50.9354 26.8602 50.8698 26.9492 50.7842C27.0371 50.7024 27.108 50.601 27.1571 50.4868C27.2099 50.363 27.2365 50.2277 27.2346 50.0911V49.6123L27.2241 49.6104Z" fill="#9E9E9E"/>
<path d="M30.4191 48.6592C30.2666 48.5216 30.0685 48.4525 29.8677 48.4668C29.7151 48.464 29.5644 48.5024 29.4302 48.5784C29.3061 48.6496 29.1987 48.7488 29.1159 48.869C29.0323 48.9933 28.9701 49.132 28.9321 49.2788C28.8464 49.5833 28.8464 49.9073 28.9321 50.2119C28.9701 50.3587 29.0323 50.4974 29.1159 50.6217C29.1987 50.7418 29.3061 50.8411 29.4302 50.9122C29.5644 50.9882 29.7151 51.0267 29.8677 51.0238C29.9727 51.0251 30.0767 51.0028 30.1728 50.9584C30.2684 50.9178 30.3552 50.8576 30.4283 50.7814C30.5041 50.7035 30.5663 50.6124 30.6121 50.512C30.6607 50.4043 30.6906 50.2883 30.7003 50.1696H31.0495C31.0211 50.4911 30.8858 50.7921 30.6672 51.02C30.4495 51.228 30.1623 51.3379 29.8677 51.3259C29.6682 51.3294 29.4705 51.2867 29.2887 51.2008C29.1249 51.1214 28.98 51.0051 28.8641 50.8603C28.7466 50.7123 28.6579 50.5417 28.6031 50.3581C28.4855 49.9589 28.4855 49.5318 28.6031 49.1325C28.6579 48.9489 28.7466 48.7783 28.8641 48.6304C28.9804 48.4855 29.1252 48.3687 29.2887 48.2879C29.4699 48.1999 29.6679 48.1558 29.8677 48.159C30.1475 48.1504 30.422 48.2405 30.647 48.4149C30.7572 48.5092 30.8478 48.6262 30.9132 48.7585C30.9787 48.8909 31.0175 49.0358 31.0275 49.1845H30.6783C30.6447 48.986 30.5543 48.8028 30.4191 48.6592Z" fill="#9E9E9E"/>
<path d="M32.9506 47.9077V48.2552H32.177V50.5359C32.1711 50.645 32.1919 50.754 32.238 50.8552C32.2819 50.9312 32.3844 50.9725 32.5528 50.9834C32.6857 50.9826 32.8185 50.9753 32.9506 50.9617V51.3092C32.8822 51.3092 32.8115 51.3092 32.7431 51.3092C32.6748 51.3092 32.6065 51.3092 32.5381 51.3092C32.4222 51.3345 32.3007 51.3324 32.1859 51.3032C32.0711 51.2739 31.9669 51.2184 31.8836 51.1423C31.8002 51.0661 31.7407 50.9719 31.7108 50.869C31.681 50.7661 31.6818 50.658 31.7133 50.5555V48.2552H31.0496V47.9077H31.7133V46.8911H32.177V47.9077H32.9506Z" fill="#9E9E9E"/>
<path d="M35.2256 48.1584L36.1224 50.3838H36.1334L37.0193 48.1584H37.3861L36.3187 50.6931H35.9519L34.8514 48.1584H35.2256Z" fill="#9E9E9E"/>
<path d="M37.7858 50.2461C37.8182 50.3845 37.8752 50.5151 37.9537 50.6311C38.0309 50.7453 38.1305 50.8405 38.2457 50.9103C38.3747 50.9873 38.521 51.0259 38.6691 51.022C38.8856 51.0352 39.0986 50.9601 39.264 50.8121C39.4137 50.6614 39.5173 50.467 39.5615 50.2538H39.9082C39.8552 50.5554 39.7142 50.8321 39.5049 51.0451C39.2688 51.2445 38.9709 51.344 38.6691 51.3243C38.4692 51.3295 38.2707 51.2867 38.0888 51.1992C37.9313 51.1206 37.7942 51.003 37.6891 50.8564C37.5829 50.7047 37.5055 50.5327 37.461 50.35C37.4099 50.1524 37.3847 49.9483 37.3862 49.7435C37.3858 49.5482 37.4109 49.3539 37.461 49.1659C37.5062 48.9829 37.5836 48.8104 37.6891 48.6576C37.7938 48.5057 37.9307 48.3818 38.0888 48.2956C38.2686 48.2005 38.4679 48.1535 38.6691 48.1589C38.8725 48.1533 39.0738 48.2037 39.2531 48.3052C39.4117 48.3985 39.5469 48.5305 39.6472 48.6903C39.7509 48.8541 39.8245 49.037 39.8644 49.2294C39.9082 49.4327 39.9266 49.6411 39.9192 49.8494H37.7293C37.7328 49.9836 37.7518 50.1168 37.7858 50.2461ZM39.5049 49.1274C39.4641 49.0031 39.4022 48.8876 39.3224 48.7866C39.2455 48.6872 39.1498 48.6059 39.0414 48.5478C38.9255 48.4861 38.7971 48.455 38.6673 48.4573C38.5357 48.4549 38.4055 48.4859 38.2877 48.5478C38.1793 48.6059 38.0836 48.6872 38.0066 48.7866C37.9283 48.8894 37.8666 49.0052 37.8241 49.1293C37.7786 49.2578 37.7479 49.3916 37.7329 49.5279H39.5724C39.5696 49.3921 39.5468 49.2577 39.5049 49.1293V49.1274Z" fill="#9E9E9E"/>
<path d="M40.9351 46.8911V48.4204H40.9471C41.022 48.2522 41.158 48.1106 41.3338 48.0178C41.5172 47.9173 41.7291 47.8647 41.9449 47.8659C42.131 47.8618 42.3163 47.8875 42.4919 47.9418C42.6283 47.9844 42.7503 48.0567 42.8465 48.152C42.9381 48.2487 43.0026 48.363 43.0349 48.4857C43.0726 48.6305 43.0908 48.7787 43.089 48.9272V50.6931H42.7083V48.9766C42.7095 48.8668 42.6967 48.7573 42.6702 48.6499C42.6497 48.5548 42.6067 48.4646 42.544 48.3851C42.4814 48.3084 42.3971 48.2476 42.2996 48.2085C42.1786 48.1612 42.0471 48.1389 41.9149 48.1431C41.777 48.1423 41.6405 48.167 41.5142 48.2155C41.3988 48.2622 41.2957 48.3295 41.2116 48.4133C41.1238 48.5006 41.0558 48.6019 41.0113 48.7118C40.9636 48.8328 40.9379 48.9598 40.9351 49.0879V50.6913H40.5544V46.8911H40.9351Z" fill="#9E9E9E"/>
<path d="M44.3564 46.8911V47.4287H43.7228V46.8911H44.3564ZM44.3564 47.9487V50.6931H43.7228V47.9452L44.3564 47.9487Z" fill="#9E9E9E"/>
<path d="M46.7275 48.6592C46.5369 48.5216 46.2893 48.4525 46.0382 48.4668C45.8475 48.464 45.6592 48.5024 45.4914 48.5784C45.3363 48.6495 45.202 48.7488 45.0985 48.8689C44.994 48.9933 44.9162 49.132 44.8688 49.2787C44.7616 49.5833 44.7616 49.9073 44.8688 50.2119C44.9162 50.3587 44.994 50.4973 45.0985 50.6217C45.202 50.7418 45.3363 50.8411 45.4914 50.9122C45.6592 50.9882 45.8475 51.0267 46.0382 51.0238C46.1695 51.0251 46.2995 51.0028 46.4196 50.9584C46.5391 50.9178 46.6477 50.8576 46.739 50.7814C46.8338 50.7035 46.9116 50.6124 46.9688 50.512C47.0295 50.4043 47.0669 50.2883 47.079 50.1696H47.5248C47.4892 50.4911 47.3201 50.7921 47.0469 51.02C46.7747 51.228 46.4156 51.3379 46.0474 51.3259C45.7981 51.3296 45.5509 51.2869 45.3237 51.2008C45.119 51.1214 44.9378 51.0051 44.793 50.8603C44.6461 50.7123 44.5353 50.5417 44.4667 50.3581C44.3197 49.9588 44.3197 49.5318 44.4667 49.1325C44.5353 48.9489 44.6461 48.7783 44.793 48.6304C44.9383 48.4855 45.1194 48.3687 45.3237 48.2879C45.5502 48.1996 45.7976 48.1556 46.0474 48.159C46.3979 48.1507 46.7416 48.2407 47.0239 48.4149C47.1609 48.5096 47.2735 48.6267 47.3549 48.759C47.4362 48.8913 47.4847 49.036 47.4972 49.1845H47.0652C47.0195 48.9846 46.9016 48.8012 46.7275 48.6592Z" fill="#9E9E9E"/>
<path d="M48.1584 46.8911V50.6931H47.5248V46.8911H48.1584Z" fill="#9E9E9E"/>
<path d="M49.1918 50.2461C49.2241 50.3845 49.2811 50.5152 49.3596 50.6312C49.4368 50.7453 49.5364 50.8405 49.6516 50.9103C49.7805 50.9873 49.9268 51.0259 50.0749 51.022C50.2914 51.0352 50.5043 50.9601 50.6698 50.8121C50.8194 50.6614 50.923 50.467 50.9672 50.2538H51.3157C51.2613 50.5554 51.1198 50.8318 50.9106 51.0451C50.6746 51.2445 50.3767 51.344 50.0749 51.3243C49.875 51.3292 49.6767 51.2864 49.4947 51.1992C49.3372 51.1206 49.2001 51.003 49.0951 50.8564C48.9896 50.7042 48.9123 50.5324 48.867 50.35C48.8159 50.1524 48.7907 49.9484 48.7922 49.7435C48.7918 49.5483 48.8169 49.3539 48.867 49.1659C48.9128 48.9831 48.9901 48.8108 49.0951 48.6576C49.1998 48.5058 49.3366 48.3818 49.4947 48.2956C49.6746 48.2007 49.8738 48.1538 50.0749 48.1589C50.2783 48.1531 50.4796 48.2035 50.6588 48.3052C50.8175 48.3985 50.9526 48.5306 51.0529 48.6903C51.1566 48.8542 51.2302 49.037 51.2701 49.2294C51.3147 49.4325 51.3332 49.6411 51.3248 49.8494H49.1352C49.1387 49.9836 49.1577 50.1168 49.1918 50.2461ZM50.9106 49.1274C50.8699 49.0031 50.808 48.8876 50.7281 48.7866C50.6505 48.6881 50.5549 48.6069 50.4471 48.5478C50.3292 48.4882 50.2002 48.4573 50.0694 48.4573C49.9387 48.4573 49.8096 48.4882 49.6917 48.5478C49.5837 48.6064 49.4881 48.6877 49.4107 48.7866C49.3324 48.8894 49.2707 49.0052 49.2283 49.1293C49.1827 49.2578 49.1521 49.3916 49.137 49.5279H50.9763C50.974 49.3922 50.9519 49.2578 50.9106 49.1293V49.1274Z" fill="#9E9E9E"/>
<path d="M57.2565 11.5674C56.43 6.46063 55.621 3.29867 53.9835 2.14437C49.857 -0.964259 29.6069 0.222429 29.6069 0.222429C26.668 0.34624 25.1831 0.854821 23.0165 2.24532C22.4031 2.65983 21.8115 3.10486 21.2439 3.57868C27.8922 3.04915 33.1908 2.89867 40.1211 3.32534C40.7235 3.36153 41.0247 3.32534 40.3837 4.59013C39.7426 5.85491 37.5838 9.75593 37.5838 9.75593C37.5838 9.75593 37.0373 10.3274 35.7358 10.2397C33.7894 10.114 20.3981 10.4893 15.4819 9.97498C10.5753 11.5693 9.21394 12.7084 9.03436 13.6189C9.03436 13.6341 8.63272 14.7236 10.2972 15.1884C11.4365 15.5065 21.9892 15.6322 21.9892 15.6322C21.9892 15.6322 25.3704 15.6875 27.1237 15.2265C29.3134 14.6551 32.9514 13.8112 33.6542 13.655C35.0272 13.3541 35.5582 14.1827 35.0909 15.5179C34.4247 17.4227 34.1157 17.7027 31.3487 17.8304C18.5232 18.4228 7.84875 17.2456 7.90088 16.878C7.48603 17.1099 7.17763 17.4906 7.03967 17.9408C6.93154 18.3408 6.96436 19.6552 7.03967 20.9999C7.58034 21.3409 7.5591 21.6628 12.3962 21.9657C20.6356 22.48 28.541 22.7276 29.5818 22.7276C30.3677 22.7124 31.086 22.64 30.669 23.5486C30.2519 24.4571 29.912 25.0953 25.8686 25.2629C21.8251 25.4305 13.8 24.741 11.4461 24.5238C8.31218 24.2324 7.48186 23.5467 7.21539 23.2666C7.30228 24.299 7.26559 24.7524 8.10943 25.3353C8.32763 26.4953 8.85285 27.981 10.0192 28.642C10.6928 29.0144 11.4381 29.2436 12.207 29.3148C12.9759 29.386 13.7514 29.2976 14.4836 29.0553C15.3216 28.7963 16.0419 27.9658 16.5497 26.8153C21.2922 27.2153 25.8415 27.2115 27.1333 27.2115C28.3827 27.2115 30.8659 27.2801 32.6385 27.0858C32.8625 28.2401 33.3878 29.701 34.5425 30.3525C35.2159 30.7247 35.9607 30.9539 36.7292 31.0254C37.4977 31.0969 38.2729 31.0091 39.005 30.7677C40.4628 30.3144 41.5712 28.1486 41.801 25.5486L51.6702 23.859C51.8169 24.5143 52.1085 25.2114 52.6685 25.5829C53.5316 26.1543 54.4855 26.3181 55.6538 26.0667C55.6904 26.0624 55.7248 26.0471 55.7523 26.0229C57.0808 25.4305 57.8937 22.179 57.326 19.798C57.5326 18.899 58.0038 16.1903 57.2565 11.5674ZM40.739 24.8457C40.6752 26.9696 39.8044 28.6686 38.7925 28.6401C37.7807 28.6115 37.0045 26.8572 37.0721 24.7391C37.1396 22.6209 38.0066 20.9161 39.0185 20.9447C40.0303 20.9733 40.8027 22.72 40.739 24.8457ZM41.4689 21.5485C40.7312 18.857 39.4703 18.2247 37.0315 18.4761C38.9277 15.7865 41.5674 17.4494 41.4998 20.5028C41.494 20.8514 41.4824 21.2038 41.4689 21.5485ZM48.2871 11.3179C46.5029 11.3807 44.4039 11.5236 42.892 11.6379C42.892 11.4474 42.8823 11.276 42.8727 11.0874C43.759 10.9979 45.4525 10.8188 46.1553 10.6969C47.1363 10.5293 46.949 9.65498 46.7346 8.114C46.5203 6.57302 45.576 6.82636 44.6608 6.80731C43.7455 6.78826 43.7358 7.08731 43.6219 7.32922C43.508 7.57113 43.5273 9.13306 43.4153 9.30069C43.3361 9.41878 42.9499 9.4264 42.7259 9.42069C42.5888 8.14067 42.388 6.8835 42.2355 6.01491C42.6699 5.24157 42.9943 4.69489 42.9943 4.69489C42.9943 4.69489 43.5968 3.27963 44.9253 3.13105C46.2538 2.98248 46.9625 3.13105 46.9625 3.13105C46.9625 3.13105 48.515 8.48924 48.2871 11.3179ZM50.7646 11.095C50.7993 9.19021 48.963 3.06438 48.963 3.06438C49.2101 3.1482 51.8324 2.63961 53.4042 3.9444C54.6477 4.98061 55.2753 9.75974 55.2753 10.8283C54.5473 11.0017 53.8464 10.8931 50.7646 11.095ZM56.7815 22.1238C56.6656 23.5295 56.0535 24.6267 55.4143 24.5752C54.7752 24.5238 54.3504 23.3447 54.4662 21.939C54.5821 20.5333 55.1923 19.4342 55.8314 19.4856C56.4706 19.5371 56.8935 20.718 56.7815 22.1238ZM56.3007 18.0646C56.3007 18.0646 55.8314 17.638 54.2577 17.8208C54.9683 16.0284 56.8027 16.2722 57.1773 19.2932C56.9668 18.6932 56.6637 18.2551 56.3007 18.0646Z" fill="#84AB44"/>
</svg>
