<svg width="67" height="53" viewBox="0 0 67 53" fill="none" xmlns="http://www.w3.org/2000/svg">
<path d="M50.3388 21.7246C49.8892 21.5003 49.398 21.3756 48.8976 21.3588C48.3972 21.3419 47.899 21.4333 47.4358 21.6269C46.687 21.948 45.8468 21.9696 45.083 21.6872L41.6976 20.3881C41.1597 20.1753 40.6924 19.8109 40.3502 19.3376C40.0081 18.8643 39.8051 18.3016 39.765 17.7152C39.6073 15.8851 38.8605 14.1593 37.6407 12.8063C37.1953 12.3109 36.8936 11.6994 36.769 11.0398C36.6445 10.3801 36.7021 9.69821 36.9354 9.06992L37.0482 8.76814C37.3618 7.92501 37.9737 7.23193 38.7635 6.82524C39.37 6.49715 39.8704 5.99723 40.2042 5.38583C40.538 4.77442 40.6909 4.07767 40.6446 3.37966C40.5982 2.68165 40.3546 2.01222 39.943 1.45218C39.5314 0.892138 38.9696 0.465418 38.3252 0.223526C37.6808 -0.0183652 36.9815 -0.0650889 36.3117 0.0889948C35.6418 0.243079 35.03 0.591383 34.5502 1.09187C34.0704 1.59235 33.743 2.22363 33.6075 2.90949C33.4721 3.59536 33.5344 4.30649 33.787 4.95707C34.1009 5.78965 34.1009 6.71119 33.787 7.54377L33.6854 7.83118C33.4544 8.46019 33.0575 9.01203 32.5383 9.42585C32.0191 9.83967 31.3978 10.0994 30.7429 10.1764C29.2451 10.3435 27.8221 10.9305 26.6322 11.8722C25.4424 12.814 24.5323 14.0735 24.0031 15.5108C23.7004 16.3293 23.528 17.1919 23.4925 18.0659C23.4676 18.737 23.2603 19.388 22.8937 19.9462C22.5271 20.5044 22.0156 20.9479 21.4161 21.2274L21.055 21.397C20.2611 21.7443 19.3698 21.7831 18.5498 21.5062C17.8941 21.3025 17.1946 21.2963 16.5356 21.4884C15.8765 21.6804 15.2861 22.0624 14.8353 22.5885C14.3845 23.1146 14.0926 23.7622 13.9948 24.4534C13.8969 25.1445 13.9974 25.8498 14.284 26.4841C14.5705 27.1185 15.031 27.6549 15.61 28.0288C16.1889 28.4027 16.8617 28.598 17.5471 28.5913C18.2325 28.5846 18.9014 28.3762 19.4733 27.9911C20.0451 27.606 20.4954 27.0607 20.77 26.4209C21.0991 25.622 21.7072 24.9759 22.4768 24.6073L22.8436 24.4378C23.4436 24.1617 24.107 24.0607 24.76 24.146C25.4129 24.2312 26.0299 24.4994 26.5422 24.9206C28.0939 26.1869 30.0468 26.831 32.0325 26.7315C34.0183 26.632 35.8997 25.7957 37.3219 24.3803C37.7181 23.9717 38.2214 23.6877 38.7716 23.5624C39.3218 23.437 39.8958 23.4755 40.4252 23.6733L44.0278 25.0499C44.7192 25.3284 45.2775 25.8693 45.5851 26.5589C45.9015 27.2311 46.4138 27.7875 47.0522 28.1521C47.6905 28.5166 48.4237 28.6716 49.1517 28.5958C49.8797 28.5201 50.567 28.2172 51.1198 27.7287C51.6726 27.2402 52.0639 26.5897 52.2403 25.8662C52.4354 25.0584 52.3531 24.207 52.0071 23.4535C51.6612 22.7 51.0724 22.0899 50.3388 21.7246Z" fill="url(#paint0_linear_0_6085)"/>
<path d="M41.8327 14.7499L41.9387 15.1039C42.0951 15.6 42.0878 16.1433 41.9181 16.6337C41.8173 16.9189 41.7906 17.2307 41.8412 17.5324C41.8918 17.8341 42.0176 18.1132 42.2037 18.3368C42.3898 18.5604 42.6286 18.7192 42.8918 18.7945C43.1551 18.8699 43.4319 18.8586 43.6896 18.762C43.9474 18.6655 44.1754 18.4876 44.3468 18.2495C44.5183 18.0113 44.6259 17.7227 44.6572 17.4177C44.6885 17.1126 44.6421 16.8038 44.5234 16.5276C44.4047 16.2514 44.2188 16.0193 43.9874 15.8586C43.5818 15.5825 43.2764 15.1522 43.126 14.6446L43.0588 14.4281C42.9483 14.0832 42.9077 13.7147 42.9399 13.3497C42.9721 12.9847 43.0764 12.6325 43.245 12.3191C43.449 11.9655 43.5721 11.5601 43.6033 11.1394C43.6344 10.7187 43.5726 10.2958 43.4235 9.90873C43.1944 9.32937 42.7853 8.86521 42.2737 8.60426C41.7621 8.3433 41.1837 8.30369 40.648 8.49293C40.1988 8.6578 39.8065 8.97744 39.5259 9.40707C39.2454 9.83671 39.0908 10.3548 39.0836 10.8888C39.0765 11.4228 39.2173 11.946 39.4862 12.385C39.7551 12.824 40.1388 13.1569 40.5833 13.3371C40.872 13.4515 41.1342 13.6379 41.3504 13.8824C41.5667 14.127 41.7315 14.4235 41.8327 14.7499Z" fill="url(#paint1_linear_0_6085)"/>
<path d="M22.2437 14.7848L22.402 14.458C22.6164 13.9988 22.9975 13.6288 23.4752 13.4159C23.7569 13.2946 23.9963 13.0989 24.165 12.852C24.3336 12.6052 24.4246 12.3174 24.427 12.0229C24.4294 11.7283 24.3432 11.4392 24.1786 11.1899C24.014 10.9405 23.7779 10.7413 23.4982 10.6157C23.2185 10.4902 22.9069 10.4436 22.6003 10.4815C22.2937 10.5194 22.0049 10.6402 21.7681 10.8295C21.5312 11.0189 21.3563 11.2689 21.2639 11.55C21.1715 11.8312 21.1656 12.1316 21.2468 12.4158C21.3875 12.9097 21.3407 13.435 21.1148 13.8992L21.0181 14.0976C20.8717 14.4189 20.6509 14.7045 20.3721 14.9329C20.0932 15.1613 19.7638 15.3265 19.4083 15.4162C18.9967 15.51 18.6158 15.6994 18.2997 15.9675C17.9835 16.2356 17.7418 16.574 17.5963 16.9526C17.3844 17.524 17.3999 18.1496 17.6398 18.7109C17.8798 19.2721 18.3275 19.7299 18.8981 19.9977C19.3809 20.2191 19.9244 20.2909 20.4522 20.2031C20.9801 20.1153 21.4658 19.8722 21.8413 19.508C22.2168 19.1438 22.4631 18.6768 22.5458 18.1724C22.6285 17.668 22.5434 17.1516 22.3024 16.6956C22.1412 16.4022 22.0522 16.0777 22.042 15.7466C22.0319 15.4156 22.1008 15.0867 22.2437 14.7848Z" fill="url(#paint2_linear_0_6085)"/>
<path d="M5.73938 35.7202C6.76719 35.7202 7.59457 36.018 8.22153 36.6136C8.85877 37.2091 9.17739 38.0925 9.17739 39.2638V43.8496H6.77232V39.6211C6.77232 38.9859 6.62843 38.5144 6.34065 38.2067C6.05286 37.889 5.6366 37.7302 5.09186 37.7302C4.48546 37.7302 4.00239 37.9139 3.64266 38.2811C3.28293 38.6384 3.10306 39.1744 3.10306 39.8891V43.8496H0.697998V32.802H3.10306V36.6731C3.42168 36.3654 3.80711 36.1322 4.25934 35.9733C4.71158 35.8046 5.20492 35.7202 5.73938 35.7202Z" fill="#122428"/>
<path d="M19.7135 35.8393V43.8496H17.4318V42.8967C17.1132 43.2441 16.7329 43.5121 16.2909 43.7007C15.849 43.8793 15.371 43.9687 14.8571 43.9687C13.7677 43.9687 12.9043 43.6659 12.2671 43.0604C11.6298 42.455 11.3112 41.5567 11.3112 40.3656V35.8393H13.7163V40.0231C13.7163 41.3135 14.2764 41.9587 15.3967 41.9587C15.9723 41.9587 16.4348 41.78 16.7843 41.4227C17.1337 41.0554 17.3084 40.5144 17.3084 39.7998V35.8393H19.7135Z" fill="#122428"/>
<path d="M26.8443 35.7202C27.6151 35.7202 28.314 35.8939 28.941 36.2413C29.5782 36.5788 30.0767 37.0602 30.4364 37.6856C30.7962 38.301 30.976 39.0206 30.976 39.8444C30.976 40.6683 30.7962 41.3929 30.4364 42.0182C30.0767 42.6336 29.5782 43.115 28.941 43.4624C28.314 43.7999 27.6151 43.9687 26.8443 43.9687C25.7034 43.9687 24.8349 43.6213 24.2388 42.9264V43.8496H21.9416V32.802H24.3467V36.688C24.9531 36.0428 25.7856 35.7202 26.8443 35.7202ZM26.428 42.0629C27.0447 42.0629 27.5483 41.8644 27.9389 41.4673C28.3397 41.0604 28.5401 40.5194 28.5401 39.8444C28.5401 39.1695 28.3397 38.6335 27.9389 38.2364C27.5483 37.8295 27.0447 37.626 26.428 37.626C25.8113 37.626 25.3026 37.8295 24.9017 38.2364C24.5112 38.6335 24.3159 39.1695 24.3159 39.8444C24.3159 40.5194 24.5112 41.0604 24.9017 41.4673C25.3026 41.8644 25.8113 42.0629 26.428 42.0629Z" fill="#122428"/>
<path d="M37.6274 35.7202C38.6552 35.7202 39.4826 36.018 40.1096 36.6136C40.7468 37.2091 41.0654 38.0925 41.0654 39.2638V43.8496H38.6604V39.6211C38.6604 38.9859 38.5165 38.5144 38.2287 38.2067C37.9409 37.889 37.5246 37.7302 36.9799 37.7302C36.3735 37.7302 35.8904 37.9139 35.5307 38.2811C35.171 38.6384 34.9911 39.1744 34.9911 39.8891V43.8496H32.586V35.8393H34.8832V36.7773C35.2018 36.4399 35.5975 36.1818 36.0703 36.0031C36.5431 35.8145 37.0621 35.7202 37.6274 35.7202Z" fill="#122428"/>
<path d="M47.5139 42.1076C47.9455 42.1076 48.3258 42.048 48.6547 41.9289C48.9939 41.7999 49.3074 41.6013 49.5952 41.3333L50.8748 42.6733C50.0937 43.5369 48.9528 43.9687 47.4522 43.9687C46.5169 43.9687 45.6895 43.795 44.97 43.4476C44.2506 43.0902 43.6956 42.5989 43.305 41.9736C42.9144 41.3482 42.7192 40.6385 42.7192 39.8444C42.7192 39.0603 42.9093 38.3556 43.2896 37.7302C43.6802 37.095 44.2095 36.6036 44.8775 36.2562C45.5559 35.8989 46.3165 35.7202 47.1593 35.7202C47.9507 35.7202 48.6701 35.884 49.3177 36.2116C49.9652 36.5292 50.4791 36.9957 50.8594 37.6111C51.2499 38.2166 51.4452 38.9362 51.4452 39.77L45.3092 40.9164C45.4839 41.3135 45.7563 41.6113 46.1263 41.8098C46.5066 42.0083 46.9691 42.1076 47.5139 42.1076ZM47.1593 37.4771C46.5529 37.4771 46.0595 37.6657 45.6792 38.0429C45.2989 38.4201 45.0985 38.9412 45.078 39.6062L49.1172 38.8469C49.0042 38.43 48.7729 38.0975 48.4235 37.8493C48.074 37.6012 47.6526 37.4771 47.1593 37.4771Z" fill="#122428"/>
<path d="M58.1086 43.8496L56.2894 41.3929L54.4086 43.8496H51.7876L54.979 39.8147L51.8956 35.8393H54.5936L56.3511 38.1769L58.1549 35.8393H60.7141L57.6307 39.7551L60.8375 43.8496H58.1086Z" fill="#122428"/>
<path d="M67.0001 43.4624C66.7637 43.6312 66.4708 43.7602 66.1213 43.8496C65.7821 43.929 65.4275 43.9687 65.0575 43.9687C64.0606 43.9687 63.2948 43.7255 62.7604 43.2391C62.2259 42.7527 61.9587 42.0381 61.9587 41.0951V34.0676H64.3638V36.018H66.4142V37.8047H64.3638V41.0653C64.3638 41.4028 64.4511 41.6659 64.6259 41.8544C64.8006 42.0331 65.0524 42.1224 65.3813 42.1224C65.7513 42.1224 66.0802 42.0232 66.368 41.8247L67.0001 43.4624Z" fill="#122428"/>
<path d="M0.0979573 48.9117H0.651128V52.3053H0.0979573V48.9117ZM0.374543 48.2586C0.266982 48.2586 0.176707 48.2202 0.103719 48.1434C0.0345732 48.0666 0 47.9726 0 47.8617C0 47.7507 0.0345732 47.6568 0.103719 47.5799C0.176707 47.4988 0.266982 47.4583 0.374543 47.4583C0.482103 47.4583 0.570457 47.4967 0.639603 47.5735C0.712591 47.6461 0.749085 47.7379 0.749085 47.8489C0.749085 47.9641 0.712591 48.0623 0.639603 48.1434C0.570457 48.2202 0.482103 48.2586 0.374543 48.2586Z" fill="#122428"/>
<path d="M3.33802 48.8797C3.72601 48.8797 4.03332 49.0057 4.25997 49.2575C4.49046 49.5051 4.6057 49.87 4.6057 50.3524V52.3053H4.05253V50.4228C4.05253 50.0941 3.98147 49.8466 3.83933 49.6801C3.6972 49.5136 3.4936 49.4304 3.22854 49.4304C2.9289 49.4304 2.69265 49.5286 2.51979 49.7249C2.34692 49.917 2.26049 50.1945 2.26049 50.5573V52.3053H1.70732V48.9117H2.23744V49.424C2.34884 49.249 2.49866 49.1145 2.68689 49.0206C2.87897 48.9267 3.09601 48.8797 3.33802 48.8797Z" fill="#122428"/>
<path d="M6.97739 52.3437C6.66623 52.3437 6.38772 52.269 6.14187 52.1196C5.89986 51.9702 5.7097 51.7653 5.57141 51.5049C5.43312 51.2403 5.36397 50.9415 5.36397 50.6085C5.36397 50.2756 5.43312 49.9789 5.57141 49.7185C5.7097 49.4539 5.89986 49.249 6.14187 49.1038C6.38772 48.9544 6.66623 48.8797 6.97739 48.8797C7.25397 48.8797 7.49982 48.9416 7.71495 49.0654C7.93391 49.1892 8.10293 49.3685 8.22202 49.6033L7.80138 49.9042C7.70534 49.742 7.58626 49.6203 7.44412 49.5392C7.30199 49.4581 7.14449 49.4176 6.97162 49.4176C6.77187 49.4176 6.59132 49.4667 6.42998 49.5648C6.27248 49.663 6.14763 49.8039 6.05543 49.9874C5.96708 50.1667 5.9229 50.3737 5.9229 50.6085C5.9229 50.8476 5.96708 51.0588 6.05543 51.2424C6.14763 51.4217 6.27248 51.5604 6.42998 51.6586C6.59132 51.7568 6.77187 51.8059 6.97162 51.8059C7.14449 51.8059 7.30199 51.7653 7.44412 51.6842C7.58626 51.6031 7.70534 51.4814 7.80138 51.3192L8.22202 51.6138C8.10293 51.8485 7.93391 52.03 7.71495 52.158C7.49982 52.2818 7.25397 52.3437 6.97739 52.3437Z" fill="#122428"/>
<path d="M9.46832 49.4816C9.56435 49.2852 9.70649 49.1358 9.89472 49.0334C10.083 48.931 10.3115 48.8797 10.5804 48.8797V49.4752C10.5497 49.4709 10.5074 49.4688 10.4537 49.4688C10.154 49.4688 9.91777 49.5691 9.7449 49.7697C9.57588 49.9661 9.49137 50.2478 9.49137 50.6149V52.3053H8.9382V48.9117H9.46832V49.4816Z" fill="#122428"/>
<path d="M12.6112 51.8059C12.9762 51.8059 13.27 51.6693 13.4928 51.3961L13.7925 51.793C13.658 51.9723 13.4871 52.1089 13.2796 52.2028C13.076 52.2967 12.8475 52.3437 12.5939 52.3437C12.2713 52.3437 11.9851 52.2711 11.7354 52.126C11.4857 51.9766 11.2917 51.7696 11.1534 51.5049C11.0189 51.2403 10.9517 50.9415 10.9517 50.6085C10.9517 50.2798 11.017 49.9832 11.1476 49.7185C11.2821 49.4539 11.4646 49.249 11.695 49.1038C11.9294 48.9544 12.1925 48.8797 12.4845 48.8797C12.7611 48.8797 13.0127 48.9502 13.2393 49.091C13.466 49.2276 13.6465 49.4218 13.781 49.6737C13.9154 49.9255 13.9846 50.2158 13.9884 50.5445L11.5625 51.0695C11.6393 51.3043 11.768 51.4857 11.9486 51.6138C12.133 51.7418 12.3539 51.8059 12.6112 51.8059ZM12.4845 49.3984C12.2924 49.3984 12.1195 49.4475 11.9659 49.5456C11.8161 49.6438 11.6989 49.7825 11.6144 49.9618C11.5299 50.1368 11.4876 50.3417 11.4876 50.5765V50.6405L13.441 50.2307C13.3911 49.9832 13.2796 49.7825 13.1068 49.6289C12.9339 49.4752 12.7265 49.3984 12.4845 49.3984Z" fill="#122428"/>
<path d="M17.6434 47.5543V52.3053H17.1133V51.7674C16.9903 51.9553 16.8348 52.0983 16.6465 52.1964C16.4583 52.2946 16.2509 52.3437 16.0242 52.3437C15.7284 52.3437 15.4634 52.2711 15.229 52.126C14.9947 51.9809 14.8103 51.7781 14.6759 51.5177C14.5452 51.2531 14.4799 50.95 14.4799 50.6085C14.4799 50.267 14.5452 49.9661 14.6759 49.7057C14.8103 49.4453 14.9947 49.2426 15.229 49.0974C15.4634 48.9523 15.7284 48.8797 16.0242 48.8797C16.2432 48.8797 16.4448 48.9267 16.6292 49.0206C16.8136 49.1102 16.9673 49.2447 17.0902 49.424V47.5543H17.6434ZM16.0703 51.8059C16.2624 51.8059 16.4372 51.7568 16.5947 51.6586C16.7522 51.5561 16.8751 51.4153 16.9634 51.236C17.0518 51.0524 17.096 50.8433 17.096 50.6085C17.096 50.3737 17.0518 50.1667 16.9634 49.9874C16.8751 49.8039 16.7522 49.663 16.5947 49.5648C16.4372 49.4667 16.2624 49.4176 16.0703 49.4176C15.8744 49.4176 15.6977 49.4667 15.5402 49.5648C15.3865 49.663 15.2636 49.8039 15.1714 49.9874C15.083 50.1667 15.0389 50.3737 15.0389 50.6085C15.0389 50.8433 15.083 51.0524 15.1714 51.236C15.2636 51.4153 15.3865 51.5561 15.5402 51.6586C15.6977 51.7568 15.8744 51.8059 16.0703 51.8059Z" fill="#122428"/>
<path d="M18.69 48.9117H19.2432V52.3053H18.69V48.9117ZM18.9666 48.2586C18.8591 48.2586 18.7688 48.2202 18.6958 48.1434C18.6266 48.0666 18.5921 47.9726 18.5921 47.8617C18.5921 47.7507 18.6266 47.6568 18.6958 47.5799C18.7688 47.4988 18.8591 47.4583 18.9666 47.4583C19.0742 47.4583 19.1625 47.4967 19.2317 47.5735C19.3047 47.6461 19.3412 47.7379 19.3412 47.8489C19.3412 47.9641 19.3047 48.0623 19.2317 48.1434C19.1625 48.2202 19.0742 48.2586 18.9666 48.2586Z" fill="#122428"/>
<path d="M21.9186 48.8797C22.2144 48.8797 22.4794 48.9523 22.7138 49.0974C22.9481 49.2426 23.1306 49.4453 23.2612 49.7057C23.3956 49.9661 23.4628 50.267 23.4628 50.6085C23.4628 50.95 23.3956 51.2531 23.2612 51.5177C23.1306 51.7781 22.9481 51.9809 22.7138 52.126C22.4794 52.2711 22.2144 52.3437 21.9186 52.3437C21.6919 52.3437 21.4845 52.2946 21.2963 52.1964C21.108 52.0983 20.9524 51.9553 20.8295 51.7674V52.3053H20.2994V47.5543H20.8526V49.424C20.9755 49.2447 21.1292 49.1102 21.3135 49.0206C21.4979 48.9267 21.6996 48.8797 21.9186 48.8797ZM21.8725 51.8059C22.0684 51.8059 22.2432 51.7568 22.3968 51.6586C22.5543 51.5561 22.6773 51.4153 22.7656 51.236C22.8578 51.0524 22.9039 50.8433 22.9039 50.6085C22.9039 50.3737 22.8578 50.1667 22.7656 49.9874C22.6773 49.8039 22.5543 49.663 22.3968 49.5648C22.2432 49.4667 22.0684 49.4176 21.8725 49.4176C21.6804 49.4176 21.5056 49.4667 21.3481 49.5648C21.1906 49.663 21.0677 49.8039 20.9793 49.9874C20.891 50.1667 20.8468 50.3737 20.8468 50.6085C20.8468 50.8433 20.891 51.0524 20.9793 51.236C21.0677 51.4153 21.1906 51.5561 21.3481 51.6586C21.5056 51.7568 21.6804 51.8059 21.8725 51.8059Z" fill="#122428"/>
<path d="M25.1549 52.3437C24.8591 52.3437 24.6305 52.2541 24.4692 52.0748C24.3078 51.8912 24.2271 51.6351 24.2271 51.3064V47.5543H24.7803V51.2552C24.7803 51.4388 24.8187 51.5796 24.8956 51.6778C24.9762 51.776 25.0953 51.8251 25.2528 51.8251C25.3488 51.8251 25.4391 51.8037 25.5236 51.761L25.5524 52.2669C25.4257 52.3181 25.2931 52.3437 25.1549 52.3437Z" fill="#122428"/>
<path d="M27.3994 51.8059C27.7643 51.8059 28.0582 51.6693 28.281 51.3961L28.5806 51.793C28.4462 51.9723 28.2752 52.1089 28.0678 52.2028C27.8642 52.2967 27.6356 52.3437 27.3821 52.3437C27.0594 52.3437 26.7732 52.2711 26.5235 52.126C26.2738 51.9766 26.0798 51.7696 25.9415 51.5049C25.8071 51.2403 25.7398 50.9415 25.7398 50.6085C25.7398 50.2798 25.8052 49.9832 25.9358 49.7185C26.0702 49.4539 26.2527 49.249 26.4832 49.1038C26.7175 48.9544 26.9806 48.8797 27.2726 48.8797C27.5492 48.8797 27.8008 48.9502 28.0274 49.091C28.2541 49.2276 28.4346 49.4218 28.5691 49.6737C28.7035 49.9255 28.7727 50.2158 28.7765 50.5445L26.3506 51.0695C26.4275 51.3043 26.5562 51.4857 26.7367 51.6138C26.9211 51.7418 27.142 51.8059 27.3994 51.8059ZM27.2726 49.3984C27.0805 49.3984 26.9077 49.4475 26.754 49.5456C26.6042 49.6438 26.487 49.7825 26.4025 49.9618C26.318 50.1368 26.2757 50.3417 26.2757 50.5765V50.6405L28.2291 50.2307C28.1792 49.9832 28.0678 49.7825 27.8949 49.6289C27.722 49.4752 27.5146 49.3984 27.2726 49.3984Z" fill="#122428"/>
<path d="M32.4289 52.3437C32.1178 52.3437 31.8393 52.269 31.5934 52.1196C31.3514 51.9702 31.1613 51.7653 31.023 51.5049C30.8847 51.2403 30.8155 50.9415 30.8155 50.6085C30.8155 50.2756 30.8847 49.9789 31.023 49.7185C31.1613 49.4539 31.3514 49.249 31.5934 49.1038C31.8393 48.9544 32.1178 48.8797 32.4289 48.8797C32.7055 48.8797 32.9514 48.9416 33.1665 49.0654C33.3855 49.1892 33.5545 49.3685 33.6736 49.6033L33.2529 49.9042C33.1569 49.742 33.0378 49.6203 32.8957 49.5392C32.7535 49.4581 32.596 49.4176 32.4232 49.4176C32.2234 49.4176 32.0429 49.4667 31.8815 49.5648C31.724 49.663 31.5992 49.8039 31.507 49.9874C31.4186 50.1667 31.3745 50.3737 31.3745 50.6085C31.3745 50.8476 31.4186 51.0588 31.507 51.2424C31.5992 51.4217 31.724 51.5604 31.8815 51.6586C32.0429 51.7568 32.2234 51.8059 32.4232 51.8059C32.596 51.8059 32.7535 51.7653 32.8957 51.6842C33.0378 51.6031 33.1569 51.4814 33.2529 51.3192L33.6736 51.6138C33.5545 51.8485 33.3855 52.03 33.1665 52.158C32.9514 52.2818 32.7055 52.3437 32.4289 52.3437Z" fill="#122428"/>
<path d="M35.6528 52.3437C35.3493 52.3437 35.0765 52.269 34.8345 52.1196C34.5925 51.9702 34.4024 51.7653 34.2641 51.5049C34.1296 51.2403 34.0624 50.9415 34.0624 50.6085C34.0624 50.2756 34.1296 49.9789 34.2641 49.7185C34.4024 49.4539 34.5925 49.249 34.8345 49.1038C35.0765 48.9544 35.3493 48.8797 35.6528 48.8797C35.9562 48.8797 36.2271 48.9544 36.4652 49.1038C36.7072 49.249 36.8955 49.4539 37.0299 49.7185C37.1682 49.9789 37.2374 50.2756 37.2374 50.6085C37.2374 50.9415 37.1682 51.2403 37.0299 51.5049C36.8955 51.7653 36.7072 51.9702 36.4652 52.1196C36.2271 52.269 35.9562 52.3437 35.6528 52.3437ZM35.6528 51.8059C35.8487 51.8059 36.0235 51.7568 36.1771 51.6586C36.3346 51.5561 36.4575 51.4153 36.5459 51.236C36.6343 51.0524 36.6784 50.8433 36.6784 50.6085C36.6784 50.3737 36.6343 50.1667 36.5459 49.9874C36.4575 49.8039 36.3346 49.663 36.1771 49.5648C36.0235 49.4667 35.8487 49.4176 35.6528 49.4176C35.4568 49.4176 35.2801 49.4667 35.1226 49.5648C34.969 49.663 34.8461 49.8039 34.7539 49.9874C34.6655 50.1667 34.6213 50.3737 34.6213 50.6085C34.6213 50.8433 34.6655 51.0524 34.7539 51.236C34.8461 51.4153 34.969 51.5561 35.1226 51.6586C35.2801 51.7568 35.4568 51.8059 35.6528 51.8059Z" fill="#122428"/>
<path d="M39.6331 48.8797C40.0211 48.8797 40.3284 49.0057 40.555 49.2575C40.7855 49.5051 40.9008 49.87 40.9008 50.3524V52.3053H40.3476V50.4228C40.3476 50.0941 40.2765 49.8466 40.1344 49.6801C39.9923 49.5136 39.7887 49.4304 39.5236 49.4304C39.224 49.4304 38.9877 49.5286 38.8148 49.7249C38.642 49.917 38.5555 50.1945 38.5555 50.5573V52.3053H38.0024V48.9117H38.5325V49.424C38.6439 49.249 38.7937 49.1145 38.982 49.0206C39.174 48.9267 39.3911 48.8797 39.6331 48.8797Z" fill="#122428"/>
<path d="M43.5552 48.8797C43.9432 48.8797 44.2505 49.0057 44.4771 49.2575C44.7076 49.5051 44.8229 49.87 44.8229 50.3524V52.3053H44.2697V50.4228C44.2697 50.0941 44.1986 49.8466 44.0565 49.6801C43.9144 49.5136 43.7108 49.4304 43.4457 49.4304C43.1461 49.4304 42.9098 49.5286 42.737 49.7249C42.5641 49.917 42.4777 50.1945 42.4777 50.5573V52.3053H41.9245V48.9117H42.4546V49.424C42.566 49.249 42.7158 49.1145 42.9041 49.0206C43.0961 48.9267 43.3132 48.8797 43.5552 48.8797Z" fill="#122428"/>
<path d="M47.2407 51.8059C47.6056 51.8059 47.8995 51.6693 48.1223 51.3961L48.4219 51.793C48.2875 51.9723 48.1165 52.1089 47.9091 52.2028C47.7055 52.2967 47.4769 52.3437 47.2234 52.3437C46.9007 52.3437 46.6145 52.2711 46.3648 52.126C46.1151 51.9766 45.9211 51.7696 45.7828 51.5049C45.6484 51.2403 45.5812 50.9415 45.5812 50.6085C45.5812 50.2798 45.6465 49.9832 45.7771 49.7185C45.9115 49.4539 46.094 49.249 46.3245 49.1038C46.5588 48.9544 46.8219 48.8797 47.1139 48.8797C47.3905 48.8797 47.6421 48.9502 47.8687 49.091C48.0954 49.2276 48.2759 49.4218 48.4104 49.6737C48.5448 49.9255 48.614 50.2158 48.6178 50.5445L46.1919 51.0695C46.2688 51.3043 46.3975 51.4857 46.578 51.6138C46.7624 51.7418 46.9833 51.8059 47.2407 51.8059ZM47.1139 49.3984C46.9218 49.3984 46.749 49.4475 46.5953 49.5456C46.4455 49.6438 46.3283 49.7825 46.2438 49.9618C46.1593 50.1368 46.117 50.3417 46.117 50.5765V50.6405L48.0704 50.2307C48.0205 49.9832 47.9091 49.7825 47.7362 49.6289C47.5633 49.4752 47.3559 49.3984 47.1139 49.3984Z" fill="#122428"/>
<path d="M50.7228 52.3437C50.4116 52.3437 50.1331 52.269 49.8873 52.1196C49.6453 51.9702 49.4551 51.7653 49.3168 51.5049C49.1785 51.2403 49.1094 50.9415 49.1094 50.6085C49.1094 50.2756 49.1785 49.9789 49.3168 49.7185C49.4551 49.4539 49.6453 49.249 49.8873 49.1038C50.1331 48.9544 50.4116 48.8797 50.7228 48.8797C50.9994 48.8797 51.2452 48.9416 51.4603 49.0654C51.6793 49.1892 51.8483 49.3685 51.9674 49.6033L51.5468 49.9042C51.4507 49.742 51.3317 49.6203 51.1895 49.5392C51.0474 49.4581 50.8899 49.4176 50.717 49.4176C50.5173 49.4176 50.3367 49.4667 50.1754 49.5648C50.0179 49.663 49.893 49.8039 49.8008 49.9874C49.7125 50.1667 49.6683 50.3737 49.6683 50.6085C49.6683 50.8476 49.7125 51.0588 49.8008 51.2424C49.893 51.4217 50.0179 51.5604 50.1754 51.6586C50.3367 51.7568 50.5173 51.8059 50.717 51.8059C50.8899 51.8059 51.0474 51.7653 51.1895 51.6842C51.3317 51.6031 51.4507 51.4814 51.5468 51.3192L51.9674 51.6138C51.8483 51.8485 51.6793 52.03 51.4603 52.158C51.2452 52.2818 50.9994 52.3437 50.7228 52.3437Z" fill="#122428"/>
<path d="M54.2519 52.1068C54.1712 52.1836 54.0713 52.2434 53.9522 52.2861C53.8331 52.3245 53.7102 52.3437 53.5834 52.3437C53.2761 52.3437 53.038 52.2519 52.8689 52.0684C52.6999 51.8848 52.6154 51.6223 52.6154 51.2808V48.169H53.1686V48.9117H54.0444V49.4176H53.1686V51.2552C53.1686 51.4388 53.2089 51.5796 53.2896 51.6778C53.3741 51.776 53.4932 51.8251 53.6468 51.8251C53.8158 51.8251 53.9599 51.7717 54.079 51.665L54.2519 52.1068Z" fill="#122428"/>
<path d="M54.9176 48.9117H55.4707V52.3053H54.9176V48.9117ZM55.1942 48.2586C55.0866 48.2586 54.9963 48.2202 54.9233 48.1434C54.8542 48.0666 54.8196 47.9726 54.8196 47.8617C54.8196 47.7507 54.8542 47.6568 54.9233 47.5799C54.9963 47.4988 55.0866 47.4583 55.1942 47.4583C55.3017 47.4583 55.3901 47.4967 55.4592 47.5735C55.5322 47.6461 55.5687 47.7379 55.5687 47.8489C55.5687 47.9641 55.5322 48.0623 55.4592 48.1434C55.3901 48.2202 55.3017 48.2586 55.1942 48.2586Z" fill="#122428"/>
<path d="M57.8349 52.3437C57.5315 52.3437 57.2587 52.269 57.0167 52.1196C56.7747 51.9702 56.5845 51.7653 56.4463 51.5049C56.3118 51.2403 56.2446 50.9415 56.2446 50.6085C56.2446 50.2756 56.3118 49.9789 56.4463 49.7185C56.5845 49.4539 56.7747 49.249 57.0167 49.1038C57.2587 48.9544 57.5315 48.8797 57.8349 48.8797C58.1384 48.8797 58.4092 48.9544 58.6474 49.1038C58.8894 49.249 59.0777 49.4539 59.2121 49.7185C59.3504 49.9789 59.4196 50.2756 59.4196 50.6085C59.4196 50.9415 59.3504 51.2403 59.2121 51.5049C59.0777 51.7653 58.8894 51.9702 58.6474 52.1196C58.4092 52.269 58.1384 52.3437 57.8349 52.3437ZM57.8349 51.8059C58.0309 51.8059 58.2057 51.7568 58.3593 51.6586C58.5168 51.5561 58.6397 51.4153 58.7281 51.236C58.8164 51.0524 58.8606 50.8433 58.8606 50.6085C58.8606 50.3737 58.8164 50.1667 58.7281 49.9874C58.6397 49.8039 58.5168 49.663 58.3593 49.5648C58.2057 49.4667 58.0309 49.4176 57.8349 49.4176C57.639 49.4176 57.4623 49.4667 57.3048 49.5648C57.1512 49.663 57.0282 49.8039 56.936 49.9874C56.8477 50.1667 56.8035 50.3737 56.8035 50.6085C56.8035 50.8433 56.8477 51.0524 56.936 51.236C57.0282 51.4153 57.1512 51.5561 57.3048 51.6586C57.4623 51.7568 57.639 51.8059 57.8349 51.8059Z" fill="#122428"/>
<path d="M61.8153 48.8797C62.2033 48.8797 62.5106 49.0057 62.7372 49.2575C62.9677 49.5051 63.083 49.87 63.083 50.3524V52.3053H62.5298V50.4228C62.5298 50.0941 62.4587 49.8466 62.3166 49.6801C62.1744 49.5136 61.9709 49.4304 61.7058 49.4304C61.4062 49.4304 61.1699 49.5286 60.997 49.7249C60.8242 49.917 60.7377 50.1945 60.7377 50.5573V52.3053H60.1846V48.9117H60.7147V49.424C60.8261 49.249 60.9759 49.1145 61.1641 49.0206C61.3562 48.9267 61.5733 48.8797 61.8153 48.8797Z" fill="#122428"/>
<path d="M64.9825 52.3437C64.7328 52.3437 64.4928 52.3074 64.2623 52.2348C64.0318 52.158 63.8512 52.062 63.7206 51.9467L63.9511 51.4601C64.0856 51.5668 64.2488 51.6522 64.4409 51.7162C64.633 51.7802 64.827 51.8123 65.0229 51.8123C65.5069 51.8123 65.7489 51.6586 65.7489 51.3512C65.7489 51.2488 65.7163 51.1677 65.651 51.1079C65.5856 51.0482 65.5031 51.0055 65.4032 50.9799C65.3071 50.95 65.1689 50.918 64.9883 50.8838C64.7424 50.8412 64.5408 50.7921 64.3833 50.7366C64.2296 50.6811 64.0971 50.5872 63.9857 50.4548C63.8743 50.3225 63.8186 50.1368 63.8186 49.8978C63.8186 49.5904 63.9338 49.345 64.1643 49.1615C64.3948 48.9736 64.704 48.8797 65.092 48.8797C65.2956 48.8797 65.4992 48.9075 65.7028 48.963C65.9064 49.0185 66.0735 49.0932 66.2041 49.1871L65.9679 49.6737C65.7182 49.4944 65.4243 49.4048 65.0863 49.4048C64.8519 49.4048 64.6733 49.4475 64.5504 49.5328C64.4275 49.6182 64.366 49.7313 64.366 49.8722C64.366 49.9832 64.4006 50.0707 64.4697 50.1347C64.5389 50.1987 64.6234 50.2457 64.7232 50.2756C64.827 50.3054 64.971 50.3396 65.1554 50.378C65.4013 50.425 65.5991 50.4762 65.7489 50.5317C65.9026 50.5829 66.0332 50.6725 66.1407 50.8006C66.2483 50.9287 66.3021 51.1079 66.3021 51.3384C66.3021 51.6458 66.183 51.8912 65.9448 52.0748C65.7105 52.2541 65.3897 52.3437 64.9825 52.3437Z" fill="#122428"/>
<defs>
<linearGradient id="paint0_linear_0_6085" x1="18.8341" y1="11.0646" x2="53.0532" y2="23.6699" gradientUnits="userSpaceOnUse">
<stop stop-color="#71B6FF"/>
<stop offset="1" stop-color="#006DE0"/>
</linearGradient>
<linearGradient id="paint1_linear_0_6085" x1="41.9284" y1="12.5941" x2="45.4338" y2="20.3913" gradientUnits="userSpaceOnUse">
<stop stop-color="#EB9B00"/>
<stop offset="1" stop-color="#FF3670"/>
</linearGradient>
<linearGradient id="paint2_linear_0_6085" x1="23.962" y1="11.9521" x2="15.8478" y2="25.1606" gradientUnits="userSpaceOnUse">
<stop stop-color="#EB9B00"/>
<stop offset="1" stop-color="#FF3670"/>
</linearGradient>
</defs>
</svg>
