<svg width="106" height="89" viewBox="0 0 106 89" fill="none" xmlns="http://www.w3.org/2000/svg">
<path d="M10.7124 77.5635V63.6464H20.2447V66.2761H13.8899V69.0004H19.5321V71.5785H13.8899V74.9324H20.7136V77.5635H10.7124Z" fill="#808184"/>
<path d="M40.4937 74.8721V77.5635H31.0618V63.6464H34.2392V74.8721H40.4937Z" fill="#808184"/>
<path d="M50.5352 63.6464H53.714V77.5635H50.5352V63.6464Z" fill="#808184"/>
<path d="M75.4485 63.6464V66.3163H71.1914V77.5635H68.0125V66.3163H63.7554V63.6464H75.4485Z" fill="#808184"/>
<path d="M85.4915 77.5635V63.6464H95.0238V66.2761H88.6689V69.0004H94.3112V71.5785H88.6689V74.9324H95.4955V77.5635H85.4915Z" fill="#808184"/>
<path d="M35.4409 87.2795C35.4522 87.5144 35.3806 87.7458 35.2387 87.9333C35.1423 88.0603 35.0067 88.152 34.853 88.1943C34.7519 88.223 34.647 88.2365 34.5419 88.2345C34.3669 88.2429 34.1935 88.1977 34.0449 88.105C33.8963 88.0122 33.7795 87.8763 33.7102 87.7154C33.6366 87.5517 33.5948 87.3756 33.5869 87.1963L34.1203 87.1591C34.1273 87.3282 34.1875 87.4908 34.2924 87.6236C34.321 87.657 34.3567 87.6835 34.3969 87.7014C34.4371 87.7192 34.4807 87.7279 34.5247 87.7269C34.5849 87.7246 34.6435 87.7069 34.695 87.6756C34.7464 87.6442 34.789 87.6001 34.8186 87.5476C34.8602 87.4739 34.8796 87.3898 34.8745 87.3053C34.8657 87.1322 34.7902 86.9693 34.6637 86.8508L34.1648 86.3862C34.0109 86.247 33.8781 86.0862 33.7704 85.9087C33.6871 85.75 33.6443 85.5732 33.6457 85.394C33.6368 85.2493 33.6632 85.1047 33.7227 84.9726C33.7821 84.8404 33.8728 84.7247 33.987 84.6355C34.1396 84.5287 34.3227 84.4744 34.5089 84.4806C34.6891 84.4748 34.8672 84.5205 35.0222 84.6125C35.1354 84.6826 35.228 84.7816 35.2903 84.8993C35.3618 85.0296 35.4039 85.174 35.4137 85.3223L34.8774 85.4183C34.8705 85.2912 34.825 85.1691 34.7469 85.0685C34.719 85.0377 34.6846 85.0136 34.6461 84.998C34.6076 84.9823 34.5661 84.9756 34.5247 84.9782C34.477 84.9766 34.4298 84.9883 34.3884 85.0118C34.3469 85.0353 34.3127 85.0698 34.2895 85.1115C34.244 85.1939 34.2217 85.287 34.225 85.3811C34.2346 85.5724 34.3124 85.754 34.4444 85.893C34.5195 85.979 34.6031 86.0573 34.6939 86.1267C34.8243 86.2342 34.9104 86.3088 34.952 86.3518C35.0765 86.469 35.1846 86.6026 35.2731 86.749C35.3056 86.8049 35.3343 86.8628 35.3592 86.9225C35.4084 87.0354 35.4361 87.1564 35.4409 87.2795Z" fill="#808184"/>
<path d="M40.2315 85.0828H39.635V84.5279H41.3843V85.0828H40.7921V88.1914H40.2315V85.0828Z" fill="#808184"/>
<path d="M46.529 88.2315C46.4124 88.2341 46.2964 88.213 46.1882 88.1693C46.08 88.1257 45.9818 88.0605 45.8996 87.9777C45.8164 87.8983 45.7505 87.8025 45.7061 87.6964C45.6617 87.5903 45.6397 87.4762 45.6415 87.3612V84.5279H46.1906V87.3554C46.19 87.3973 46.1981 87.4387 46.2144 87.4772C46.2307 87.5158 46.2548 87.5505 46.2853 87.5791C46.3153 87.6087 46.351 87.632 46.3901 87.6478C46.4292 87.6635 46.4711 87.6714 46.5133 87.6709C46.5552 87.6715 46.5969 87.6637 46.6358 87.648C46.6747 87.6322 46.7101 87.6088 46.7398 87.5791C46.7702 87.5505 46.7944 87.5158 46.8107 87.4772C46.827 87.4387 46.8351 87.3973 46.8344 87.3554V84.5279H47.418V87.3612C47.4202 87.4769 47.3981 87.5919 47.3532 87.6985C47.3082 87.8052 47.2414 87.9013 47.1571 87.9806C47.0744 88.0622 46.9762 88.1264 46.8684 88.1695C46.7605 88.2125 46.6451 88.2337 46.529 88.2315Z" fill="#808184"/>
<path d="M53.4832 87.3138C53.483 87.4292 53.4601 87.5435 53.4157 87.6501C53.3714 87.7566 53.3065 87.8534 53.2247 87.9349C53.143 88.0164 53.046 88.081 52.9393 88.125C52.8326 88.169 52.7182 88.1915 52.6028 88.1913H51.7224V84.5235H52.6028C52.7181 84.5229 52.8324 84.5451 52.9391 84.5888C53.0458 84.6325 53.1428 84.6968 53.2246 84.7781C53.3064 84.8593 53.3713 84.9559 53.4157 85.0623C53.4601 85.1688 53.483 85.2829 53.4832 85.3982V87.3138ZM52.2831 87.6436H52.6229C52.6649 87.6443 52.7067 87.6363 52.7454 87.62C52.7842 87.6037 52.8191 87.5795 52.848 87.549C52.8773 87.5196 52.9005 87.4847 52.9163 87.4463C52.932 87.4079 52.94 87.3668 52.9398 87.3253V85.4068C52.9398 85.3226 52.9064 85.2418 52.847 85.1822C52.7877 85.1225 52.7071 85.0888 52.6229 85.0885H52.2845L52.2831 87.6436Z" fill="#808184"/>
<path d="M58.3484 88.1914H57.7849V84.5279H58.3456L58.3484 88.1914Z" fill="#808184"/>
<path d="M63.5389 84.4806C63.6559 84.4786 63.7721 84.5003 63.8806 84.5445C63.989 84.5886 64.0874 84.6542 64.1698 84.7373C64.2531 84.8176 64.3192 84.9141 64.3638 85.0209C64.4084 85.1276 64.4307 85.2424 64.4293 85.3582V87.3656C64.431 87.4815 64.4088 87.5965 64.3639 87.7033C64.3189 87.8102 64.2524 87.9066 64.1683 87.9864C64.086 88.0691 63.9878 88.1344 63.8796 88.1782C63.7715 88.2221 63.6556 88.2436 63.5389 88.2417C63.4231 88.2426 63.3082 88.2207 63.201 88.1771C63.0937 88.1335 62.9961 88.0692 62.9137 87.9878C62.8314 87.9064 62.7659 87.8095 62.7211 87.7027C62.6764 87.5959 62.6531 87.4814 62.6527 87.3656V85.3582C62.6506 85.242 62.6727 85.1266 62.7176 85.0195C62.7626 84.9124 62.8293 84.8158 62.9137 84.7359C62.9953 84.6534 63.0927 84.5882 63.2002 84.5443C63.3076 84.5005 63.4228 84.4788 63.5389 84.4806ZM63.8443 85.3409C63.8451 85.2992 63.8372 85.2578 63.8212 85.2193C63.8051 85.1808 63.7812 85.1461 63.7511 85.1173C63.7207 85.0874 63.6846 85.0642 63.6449 85.0489C63.6052 85.0336 63.5627 85.0266 63.5202 85.0284C63.4777 85.0279 63.4355 85.036 63.3962 85.052C63.3568 85.068 63.321 85.0916 63.2908 85.1216C63.2601 85.1501 63.2359 85.1847 63.2196 85.2233C63.2032 85.2618 63.1953 85.3034 63.1962 85.3453V87.3527C63.1953 87.3945 63.2032 87.4361 63.2196 87.4746C63.2359 87.5132 63.2601 87.5478 63.2908 87.5763C63.321 87.6063 63.3568 87.6299 63.3962 87.6459C63.4355 87.6619 63.4777 87.67 63.5202 87.6695C63.5623 87.6701 63.6041 87.6622 63.643 87.6462C63.682 87.6302 63.7173 87.6064 63.7468 87.5763C63.7769 87.5476 63.8008 87.5128 63.8169 87.4743C63.8329 87.4358 63.8408 87.3944 63.84 87.3527L63.8443 85.3409Z" fill="#808184"/>
<path d="M70.5464 87.2795C70.5569 87.5141 70.4859 87.7451 70.3456 87.9333C70.2489 88.06 70.1134 88.1516 69.9599 88.1943C69.8583 88.223 69.7529 88.2365 69.6473 88.2344C69.453 88.2422 69.2615 88.1857 69.1025 88.0739C68.9774 87.9812 68.8786 87.8577 68.8157 87.7154C68.7427 87.5515 68.7009 87.3755 68.6924 87.1963L69.2272 87.159C69.2328 87.3284 69.2931 87.4915 69.3993 87.6236C69.4273 87.6573 69.4627 87.6842 69.5027 87.7021C69.5427 87.72 69.5863 87.7284 69.6301 87.7269C69.6904 87.7249 69.7492 87.7073 69.8007 87.6759C69.8522 87.6445 69.8947 87.6003 69.9241 87.5476C69.9657 87.4739 69.9851 87.3898 69.98 87.3053C69.9712 87.1322 69.8956 86.9693 69.7692 86.8508L69.2717 86.3862C69.117 86.2478 68.984 86.0868 68.8773 85.9087C68.794 85.75 68.7512 85.5732 68.7526 85.394C68.7435 85.2493 68.7698 85.1046 68.8292 84.9724C68.8887 84.8402 68.9795 84.7246 69.0939 84.6354C69.2465 84.5287 69.4296 84.4743 69.6158 84.4806C69.7959 84.4752 69.9739 84.5209 70.1291 84.6125C70.242 84.683 70.3345 84.7819 70.3972 84.8993C70.4674 85.0301 70.5094 85.1742 70.5206 85.3223L69.9829 85.4183C69.9759 85.2912 69.9304 85.1691 69.8524 85.0685C69.8246 85.0376 69.7901 85.0135 69.7516 84.9978C69.7131 84.9822 69.6716 84.9755 69.6301 84.9781C69.5826 84.9764 69.5356 84.988 69.4943 85.0115C69.453 85.0351 69.4191 85.0697 69.3964 85.1115C69.3498 85.1935 69.327 85.2868 69.3305 85.3811C69.34 85.5724 69.4179 85.754 69.5498 85.8929C69.6257 85.9783 69.7092 86.0565 69.7993 86.1267C69.9298 86.2342 70.0158 86.3088 70.0574 86.3518C70.1819 86.4709 70.2895 86.6064 70.3772 86.7547C70.4096 86.8106 70.4383 86.8686 70.4632 86.9282C70.5129 87.039 70.5411 87.1582 70.5464 87.2795Z" fill="#808184"/>
<path d="M62.7432 37.1816C62.7432 37.1816 69.5325 27.0327 77.142 30.7421C84.7516 34.4515 87.0085 35.7535 89.892 35.1871C89.892 35.1871 84.4017 40.9484 74.6801 36.2682C71.1757 29.7026 64.0652 35.7334 62.7432 37.1816Z" fill="url(#paint0_linear_0_6617)"/>
<path d="M42.3506 37.1816C42.3506 37.1816 35.5598 27.0327 27.946 30.7421C20.3322 34.4515 18.0795 35.7535 15.196 35.1871C15.196 35.1871 20.6863 40.9484 30.4079 36.2682C33.918 29.7026 41.0286 35.7334 42.3506 37.1816Z" fill="url(#paint1_linear_0_6617)"/>
<path d="M81.5267 16.3819C78.8267 25.7422 73.6605 28.283 74.1709 28.1941C104.75 25.292 97.9989 0 97.9989 0C97.9989 0 96.0159 11.7979 81.5267 16.3819Z" fill="url(#paint2_linear_0_6617)"/>
<path d="M23.5671 16.3819C26.267 25.7422 31.4332 28.283 30.9228 28.1941C0.345597 25.292 7.09624 0 7.09624 0C7.09624 0 9.07784 11.7979 23.5671 16.3819Z" fill="url(#paint3_linear_0_6617)"/>
<path d="M87.5102 27.0312C85.1061 28.1573 82.3932 29.0176 79.3716 29.6122C91.4304 37.1486 101.334 27.6277 101.334 27.6277C97.2734 30.4725 89.6811 28.0736 87.5102 27.0312Z" fill="url(#paint4_linear_0_6617)"/>
<path d="M17.5834 27.0312C19.9885 28.1573 22.7013 29.0176 25.722 29.6122C13.6632 37.1486 5.3855 27.6277 5.3855 27.6277C9.44621 30.4725 15.4125 28.0736 17.5834 27.0312Z" fill="url(#paint5_linear_0_6617)"/>
<path d="M80.1774 9.63123C80.1774 9.63123 80.2964 22.6436 67.8247 29.9921C55.3529 37.3407 56.3423 52.9641 55.7587 54.9414C55.7587 54.9414 54.9572 30.2531 66.398 23.805C66.398 23.7935 77.9721 17.4386 80.1774 9.63123Z" fill="url(#paint6_linear_0_6617)"/>
<path d="M24.9178 9.63123C24.9178 9.63123 24.7988 22.6436 37.2691 29.9921C49.7394 37.3407 48.7515 52.9641 49.3351 54.9414C49.3351 54.9414 50.1366 30.2531 38.6958 23.805C38.6958 23.7935 27.1231 17.4386 24.9178 9.63123Z" fill="url(#paint7_linear_0_6617)"/>
<path d="M96.6884 19.5594C94.9497 21.9978 92.7298 24.0542 90.1658 25.6017C92.6349 26.1752 102.873 27.5216 106 16.2199C102.378 20.6721 97.9517 20.0039 96.6884 19.5594Z" fill="url(#paint8_linear_0_6617)"/>
<path d="M8.40532 19.5594C10.1441 21.9978 12.3639 24.0542 14.928 25.6017C12.4603 26.1738 3.12583 27.5216 0 16.2199C3.62051 20.6721 7.14352 20.0039 8.40532 19.5594Z" fill="url(#paint9_linear_0_6617)"/>
<path d="M42.616 23.0724C42.616 23.0724 51.2894 30.4539 51.5719 59.1657L52.4322 5.61075C52.4322 5.61075 49.4125 18.9271 42.616 23.0724Z" fill="url(#paint10_linear_0_6617)"/>
<path d="M52.428 5.61075L53.2883 59.1657C53.3657 32.0283 62.2442 23.0724 62.2442 23.0724C55.4434 18.9271 52.428 5.61075 52.428 5.61075Z" fill="url(#paint11_linear_0_6617)"/>
<defs>
<linearGradient id="paint0_linear_0_6617" x1="62.7432" y1="34.0171" x2="89.8977" y2="34.0171" gradientUnits="userSpaceOnUse">
<stop stop-color="#EC1C24"/>
<stop offset="1" stop-color="#BE1E2D"/>
</linearGradient>
<linearGradient id="paint1_linear_0_6617" x1="15.196" y1="34.0171" x2="42.3506" y2="34.0171" gradientUnits="userSpaceOnUse">
<stop stop-color="#EC1C24"/>
<stop offset="1" stop-color="#BE1E2D"/>
</linearGradient>
<linearGradient id="paint2_linear_0_6617" x1="74.1365" y1="14.0978" x2="98.6313" y2="14.0978" gradientUnits="userSpaceOnUse">
<stop stop-color="#EC1C24"/>
<stop offset="1" stop-color="#BE1E2D"/>
</linearGradient>
<linearGradient id="paint3_linear_0_6617" x1="6.46247" y1="14.0978" x2="30.9572" y2="14.0978" gradientUnits="userSpaceOnUse">
<stop stop-color="#EC1C24"/>
<stop offset="1" stop-color="#BE1E2D"/>
</linearGradient>
<linearGradient id="paint4_linear_0_6617" x1="79.3716" y1="29.7756" x2="101.334" y2="29.7756" gradientUnits="userSpaceOnUse">
<stop stop-color="#EC1C24"/>
<stop offset="1" stop-color="#BE1E2D"/>
</linearGradient>
<linearGradient id="paint5_linear_0_6617" x1="5.3855" y1="29.7756" x2="25.722" y2="29.7756" gradientUnits="userSpaceOnUse">
<stop stop-color="#EC1C24"/>
<stop offset="1" stop-color="#BE1E2D"/>
</linearGradient>
<linearGradient id="paint6_linear_0_6617" x1="55.7472" y1="32.2806" x2="80.1774" y2="32.2806" gradientUnits="userSpaceOnUse">
<stop stop-color="#EC1C24"/>
<stop offset="1" stop-color="#BE1E2D"/>
</linearGradient>
<linearGradient id="paint7_linear_0_6617" x1="24.9178" y1="32.2806" x2="49.348" y2="32.2806" gradientUnits="userSpaceOnUse">
<stop stop-color="#EC1C24"/>
<stop offset="1" stop-color="#BE1E2D"/>
</linearGradient>
<linearGradient id="paint8_linear_0_6617" x1="90.1658" y1="21.0951" x2="106" y2="21.0951" gradientUnits="userSpaceOnUse">
<stop stop-color="#EC1C24"/>
<stop offset="1" stop-color="#BE1E2D"/>
</linearGradient>
<linearGradient id="paint9_linear_0_6617" x1="0" y1="21.0951" x2="14.928" y2="21.0951" gradientUnits="userSpaceOnUse">
<stop stop-color="#EC1C24"/>
<stop offset="1" stop-color="#BE1E2D"/>
</linearGradient>
<linearGradient id="paint10_linear_0_6617" x1="42.616" y1="32.3882" x2="52.4279" y2="32.3882" gradientUnits="userSpaceOnUse">
<stop stop-color="#EC1C24"/>
<stop offset="1" stop-color="#BE1E2D"/>
</linearGradient>
<linearGradient id="paint11_linear_0_6617" x1="52.428" y1="32.3882" x2="62.2385" y2="32.3882" gradientUnits="userSpaceOnUse">
<stop stop-color="#EC1C24"/>
<stop offset="1" stop-color="#BE1E2D"/>
</linearGradient>
</defs>
</svg>
