<svg width="56" height="55" viewBox="0 0 56 55" fill="none" xmlns="http://www.w3.org/2000/svg">
<path d="M5.02889 38.696H6.83685V46.7961H5.02889V43.6099H1.80797V46.7961H0V38.696H1.80797V42.0797H5.02889V38.696Z" fill="#768589"/>
<path d="M13.7084 45.8933C13.0471 46.5377 12.1573 46.8936 11.2341 46.883C10.3717 46.9121 9.53264 46.6002 8.8987 46.0148C8.27941 45.436 7.97048 44.654 7.97193 43.6686C7.97338 42.6832 8.2823 41.9026 8.8987 41.3267C9.50117 40.7581 10.3015 40.4466 11.1299 40.4585C11.9317 40.4374 12.7125 40.716 13.3199 41.2399C13.6201 41.5053 13.8567 41.8349 14.0122 42.2043C14.1678 42.5736 14.2382 42.9732 14.2184 43.3734V44.3002H9.67572C9.70211 44.4666 9.76233 44.6258 9.85267 44.7681C9.94301 44.9103 10.0615 45.0325 10.201 45.1271C10.4971 45.3426 10.8549 45.4568 11.2211 45.4527C11.5011 45.4611 11.7798 45.4107 12.0392 45.3049C12.2986 45.1992 12.533 45.0403 12.7273 44.8384L13.7084 45.8933ZM12.0393 42.2035C11.7952 42.0028 11.4871 41.8965 11.1711 41.904C10.8309 41.9031 10.4995 42.0128 10.227 42.2166C10.0887 42.3142 9.97281 42.4402 9.8871 42.5861C9.80138 42.7321 9.74782 42.8947 9.72998 43.063H12.4582C12.45 42.8977 12.4088 42.7356 12.3368 42.5865C12.2648 42.4373 12.1637 42.3042 12.0393 42.1949V42.2035Z" fill="#768589"/>
<path d="M20.4195 46.7961H18.7852V46.043C18.5949 46.3056 18.3449 46.5193 18.0559 46.6664C17.7668 46.8136 17.447 46.89 17.1227 46.8895C16.5169 46.9089 15.9252 46.705 15.4601 46.3165C15.2409 46.1302 15.0665 45.8968 14.95 45.6337C14.8335 45.3707 14.7779 45.0847 14.7873 44.7972C14.7701 44.5188 14.8249 44.2408 14.9466 43.9898C15.0683 43.7389 15.2526 43.5236 15.4818 43.3647C15.9463 43.0478 16.58 42.8894 17.3831 42.8894H18.6854V42.8546C18.6854 42.1905 18.3338 41.8584 17.6305 41.8584C17.3035 41.8634 16.9798 41.9244 16.6734 42.0386C16.3683 42.1426 16.0813 42.2935 15.8226 42.4857L15.0455 41.3614C15.8592 40.7685 16.8431 40.4555 17.8497 40.4693C18.5119 40.4376 19.165 40.6329 19.7011 41.0228C20.1786 41.4026 20.4195 42.0017 20.4195 42.8199V46.7961ZM18.6658 44.4217V44.12H17.5806C16.8839 44.12 16.5366 44.337 16.5366 44.7711C16.5315 44.871 16.5516 44.9705 16.5953 45.0604C16.6389 45.1504 16.7046 45.2278 16.7862 45.2855C16.9986 45.4192 17.2478 45.4822 17.4981 45.4657C17.7959 45.4705 18.0858 45.3698 18.3164 45.1813C18.4303 45.0912 18.5214 44.9754 18.5821 44.8434C18.6429 44.7114 18.6715 44.5669 18.6658 44.4217Z" fill="#768589"/>
<path d="M23.3972 46.7961H21.6609V38.2012H23.3972V46.7961Z" fill="#768589"/>
<path d="M26.7701 41.8128V44.6061C26.7575 44.8102 26.8236 45.0113 26.9545 45.1683C27.0083 45.2309 27.0749 45.2813 27.1498 45.3161C27.2246 45.3509 27.3061 45.3693 27.3886 45.3701C27.5506 45.3694 27.7099 45.3296 27.8532 45.254C27.9964 45.1784 28.1192 45.0693 28.2112 44.936L28.8623 46.1515C28.4088 46.6094 27.7963 46.8752 27.152 46.8938C26.8632 46.9031 26.5756 46.852 26.3076 46.7437C26.0397 46.6354 25.7973 46.4723 25.596 46.2649C25.3948 46.0575 25.2391 45.8104 25.1389 45.5393C25.0387 45.2682 24.9962 44.9792 25.0142 44.6908V41.8128H24.2849V40.5626H25.0142V38.696H26.7657V40.5626H28.272V41.8128H26.7701Z" fill="#768589"/>
<path d="M31.1846 43.4363V46.7961H29.4482V38.2012H31.1846V41.2615C31.4082 41.0139 31.6805 40.8151 31.9845 40.6777C32.2886 40.5403 32.6177 40.4671 32.9513 40.4628C33.2599 40.4566 33.5664 40.5151 33.8509 40.6348C34.1354 40.7544 34.3916 40.9324 34.603 41.1574C34.8319 41.4066 35.009 41.6987 35.1241 42.0169C35.2393 42.3351 35.2901 42.6729 35.2737 43.0109V46.7961H33.5373V43.3886C33.5373 42.4321 33.1857 41.9532 32.4825 41.9517C32.3133 41.9503 32.1456 41.9831 31.9893 42.048C31.8331 42.1128 31.6915 42.2086 31.5731 42.3294C31.4357 42.4772 31.3302 42.6519 31.2634 42.8423C31.1965 43.0328 31.1697 43.235 31.1846 43.4363Z" fill="#768589"/>
<path d="M36.6802 46.7961V38.696H38.4881V45.1856H41.9413V46.7961H36.6802Z" fill="#768589"/>
<path d="M42.8834 39.7683C42.7118 39.6005 42.6038 39.3782 42.578 39.1395C42.5522 38.9008 42.6102 38.6606 42.7419 38.46C42.8737 38.2593 43.0711 38.1106 43.3004 38.0395C43.5296 37.9683 43.7765 37.979 43.9988 38.0698C44.221 38.1605 44.4048 38.3257 44.5187 38.537C44.6326 38.7484 44.6695 38.9927 44.6231 39.2282C44.5767 39.4638 44.4499 39.6759 44.2644 39.8282C44.0789 39.9806 43.8462 40.0638 43.6061 40.0635C43.4719 40.0661 43.3386 40.0413 43.2143 39.9906C43.09 39.9398 42.9774 39.8642 42.8834 39.7683ZM44.4765 46.7962H42.7401V40.5627H44.4765V46.7962Z" fill="#768589"/>
<path d="M47.8472 40.2024V40.6191H49.3665V41.8714H47.8472V46.7962H46.0978V41.8714H45.3621V40.6191H46.0913V40.2371C46.0735 39.9454 46.117 39.6533 46.2192 39.3795C46.3213 39.1057 46.4798 38.8564 46.6844 38.6477C46.889 38.4391 47.1351 38.2757 47.4068 38.1681C47.6785 38.0605 47.9698 38.0112 48.2618 38.0233C48.8896 38.0289 49.4906 38.2788 49.9373 38.72L49.3101 39.8898C49.2099 39.7593 49.082 39.6527 48.9356 39.5776C48.7893 39.5026 48.628 39.4609 48.4636 39.4558C48.3817 39.454 48.3004 39.4702 48.2254 39.5032C48.1505 39.5362 48.0836 39.5852 48.0295 39.6468C47.9013 39.8026 47.8362 40.0009 47.8472 40.2024Z" fill="#768589"/>
<path d="M55.4848 45.8932C54.8246 46.54 53.9347 46.8983 53.0106 46.8894C52.1445 46.9214 51.301 46.6093 50.6643 46.0213C50.0465 45.4425 49.7375 44.6604 49.7375 43.675C49.7375 42.6897 50.0523 41.909 50.6817 41.3331C51.284 40.7643 52.0845 40.4528 52.9129 40.465C53.7115 40.4441 54.4895 40.7202 55.0963 41.2398C55.396 41.5044 55.6326 41.8328 55.7884 42.201C55.9443 42.5691 56.0156 42.9675 55.9971 43.3668V44.2936H51.4522C51.4788 44.4616 51.5397 44.6224 51.6312 44.7658C51.7227 44.9092 51.8428 45.0322 51.9839 45.1271C52.2802 45.3422 52.6379 45.4564 53.004 45.4526C53.2841 45.4614 53.5629 45.4113 53.8224 45.3055C54.0819 45.1997 54.3163 45.0405 54.5103 44.8384L55.4848 45.8932ZM53.8158 42.2035C53.5716 42.0029 53.2635 41.8966 52.9476 41.904C52.6073 41.9027 52.2758 42.0124 52.0035 42.2165C51.8653 42.3144 51.7493 42.4404 51.6633 42.5863C51.5772 42.7322 51.5231 42.8946 51.5043 43.063H54.239C54.2313 42.8981 54.1909 42.7365 54.1201 42.5874C54.0493 42.4384 53.9495 42.3049 53.8266 42.1948L53.8158 42.2035Z" fill="#768589"/>
<path d="M10.1208 53.6113C10.082 53.7744 10.0079 53.927 9.90373 54.0584C9.79515 54.1845 9.65621 54.2809 9.50003 54.3384C9.30533 54.4086 9.0992 54.4417 8.89231 54.436C8.74604 54.4364 8.60027 54.4189 8.45822 54.3839C8.32357 54.3519 8.19521 54.2976 8.0784 54.2233C7.96597 54.1515 7.86985 54.0568 7.79624 53.9455C7.71941 53.8251 7.67528 53.6867 7.66819 53.544H8.03065C8.04416 53.6389 8.0794 53.7294 8.13361 53.8084C8.18781 53.8875 8.25954 53.953 8.34319 53.9998C8.42396 54.0471 8.51195 54.0808 8.60364 54.0996C8.69903 54.1215 8.79661 54.1324 8.89448 54.1322C9.02928 54.1442 9.16504 54.1246 9.2909 54.0749C9.41677 54.0251 9.52926 53.9466 9.6194 53.8457C9.7818 53.6035 9.85823 53.3138 9.83645 53.0231V52.6216C9.75598 52.7976 9.62825 52.9479 9.46747 53.0556C9.29957 53.1684 9.10103 53.2267 8.89882 53.2228C8.69083 53.2285 8.48411 53.1885 8.29327 53.1056C8.13134 53.0323 7.98922 52.9214 7.87872 52.7822C7.76691 52.6388 7.68565 52.4741 7.63997 52.2982C7.59049 52.1053 7.56569 51.9069 7.56618 51.7078C7.5654 51.5126 7.59543 51.3185 7.65516 51.1326C7.71007 50.9596 7.79694 50.7984 7.91128 50.6573C8.02562 50.5213 8.16868 50.4124 8.33017 50.3383C8.50864 50.2574 8.70291 50.2174 8.89882 50.2211C9.00401 50.2202 9.1087 50.2356 9.20919 50.2666C9.30398 50.296 9.39393 50.3391 9.47615 50.3947C9.55639 50.4488 9.62934 50.513 9.6932 50.5857C9.75296 50.6546 9.80199 50.7322 9.83862 50.8158V50.3057H10.2011V53.0166C10.2011 53.2175 10.1741 53.4175 10.1208 53.6113ZM9.29601 52.8256C9.41234 52.7597 9.51362 52.6703 9.59336 52.563C9.67434 52.449 9.73526 52.322 9.7735 52.1875C9.81272 52.0461 9.83243 51.9001 9.83211 51.7534C9.83159 51.6073 9.81485 51.4617 9.78219 51.3193C9.74904 51.1792 9.69255 51.0456 9.61506 50.9243C9.53984 50.8075 9.43887 50.7095 9.31988 50.6378C9.18779 50.5627 9.03768 50.5252 8.8858 50.5293C8.7343 50.5262 8.58465 50.5629 8.45171 50.6356C8.33143 50.705 8.22773 50.7998 8.14785 50.9134C8.06718 51.0323 8.00838 51.1646 7.97422 51.3041C7.93776 51.4511 7.91954 51.602 7.91996 51.7534C7.92 51.8999 7.93897 52.0458 7.97639 52.1875C8.01206 52.3225 8.0724 52.4498 8.15436 52.563C8.23492 52.6719 8.33871 52.7617 8.45822 52.8256C8.59205 52.8953 8.74147 52.9297 8.89231 52.9254C9.03378 52.9253 9.17283 52.8886 9.29601 52.8191V52.8256Z" fill="#8C9799"/>
<path d="M11.2103 50.3057V51.0067H11.2211C11.3029 50.78 11.455 50.5853 11.6552 50.4511C11.8591 50.3187 12.1008 50.2569 12.3432 50.2753V50.6356C12.1919 50.625 12.0402 50.6472 11.8983 50.7007C11.7693 50.7493 11.6512 50.8231 11.551 50.9177C11.4566 51.0156 11.3828 51.1315 11.334 51.2585C11.2798 51.3968 11.2526 51.5441 11.2537 51.6926V53.2661H10.8782V50.3143L11.2103 50.3057Z" fill="#8C9799"/>
<path d="M12.8425 52.2808C12.8787 52.416 12.9398 52.5434 13.0226 52.6562C13.1025 52.7679 13.2054 52.8611 13.3243 52.9297C13.4565 53.0047 13.6066 53.0422 13.7584 53.0382C13.9831 53.0515 14.2043 52.9785 14.377 52.8342C14.5305 52.6847 14.6376 52.494 14.6852 52.2851H15.0455C14.9903 52.5819 14.8429 52.8538 14.6244 53.0621C14.3794 53.2586 14.0696 53.3561 13.7563 53.3356C13.5486 53.3404 13.3425 53.2989 13.1529 53.214C12.9893 53.1365 12.847 53.0203 12.7383 52.8755C12.6283 52.7265 12.548 52.5578 12.5017 52.3784C12.4489 52.1839 12.4227 51.9831 12.4236 51.7816C12.4234 51.5879 12.4497 51.3951 12.5017 51.2086C12.5494 51.0291 12.6296 50.8599 12.7383 50.7094C12.8481 50.56 12.9916 50.4388 13.1572 50.3556C13.344 50.2612 13.5514 50.2149 13.7606 50.221C13.96 50.2128 14.1582 50.256 14.3361 50.3464C14.5139 50.4369 14.6656 50.5716 14.7764 50.7376C14.8809 50.8999 14.9545 51.0802 14.9934 51.2693C15.0393 51.4692 15.0583 51.6743 15.0498 51.8792H12.7882C12.7899 52.0148 12.8081 52.1496 12.8425 52.2808ZM14.6266 51.1804C14.5848 51.0591 14.5224 50.946 14.4421 50.8461C14.3618 50.7485 14.262 50.6686 14.1491 50.6117C14.0286 50.5513 13.8954 50.5208 13.7606 50.5227C13.6237 50.5208 13.4884 50.5513 13.3656 50.6117C13.2537 50.6692 13.1547 50.749 13.0747 50.8461C12.9927 50.9476 12.9281 51.062 12.8837 51.1847C12.8359 51.3105 12.8038 51.4417 12.7882 51.5754H14.6982C14.6944 51.4408 14.6702 51.3077 14.6266 51.1804Z" fill="#8C9799"/>
<path d="M15.8093 52.2807C15.8442 52.4157 15.9038 52.543 15.9851 52.6562C16.063 52.7665 16.1628 52.8596 16.2781 52.9297C16.4104 53.0044 16.5604 53.0419 16.7122 53.0382C16.9369 53.0515 17.1581 52.9785 17.3308 52.8342C17.4855 52.6856 17.5928 52.4945 17.639 52.2851H18.0145C17.9592 52.5819 17.8119 52.8537 17.5934 53.0621C17.3484 53.2585 17.0386 53.3561 16.7252 53.3356C16.5176 53.3404 16.3115 53.2989 16.1219 53.214C15.9583 53.1365 15.816 53.0203 15.7073 52.8754C15.5982 52.7259 15.5179 52.5574 15.4707 52.3784C15.4179 52.1839 15.3916 51.9831 15.3926 51.7815C15.3924 51.5879 15.4187 51.3951 15.4707 51.2085C15.5192 51.0294 15.5994 50.8603 15.7073 50.7093C15.8165 50.5603 15.9592 50.4391 16.124 50.3556C16.3108 50.2612 16.5182 50.2149 16.7274 50.221C16.938 50.2151 17.1466 50.2637 17.333 50.3621C17.4973 50.4533 17.6378 50.5819 17.7432 50.7376C17.8478 50.8999 17.9213 51.0802 17.9602 51.2693C18.0062 51.4692 18.0251 51.6743 18.0167 51.8792H15.7551C15.7567 52.0148 15.775 52.1496 15.8093 52.2807ZM17.5934 51.1803C17.5525 51.0587 17.49 50.9455 17.4089 50.8461C17.3286 50.7484 17.2288 50.6686 17.1159 50.6117C16.9955 50.551 16.8622 50.5205 16.7274 50.5227C16.5906 50.5208 16.4552 50.5513 16.3324 50.6117C16.2205 50.6692 16.1216 50.749 16.0416 50.8461C15.9595 50.9475 15.8949 51.062 15.8506 51.1847C15.8027 51.3105 15.7707 51.4417 15.7551 51.5753H17.665C17.6622 51.4407 17.6381 51.3074 17.5934 51.1803Z" fill="#8C9799"/>
<path d="M18.8652 50.3057V50.8157H18.8826C18.9521 50.6343 19.0805 50.4815 19.2472 50.3817C19.4205 50.2742 19.6206 50.2178 19.8245 50.2189C20.0007 50.2141 20.1763 50.2405 20.3433 50.297C20.4706 50.3413 20.5853 50.4157 20.6775 50.5141C20.7651 50.6164 20.8262 50.7386 20.8555 50.87C20.89 51.0261 20.9068 51.1855 20.9054 51.3453V53.2445H20.5408V51.4018C20.5415 51.2838 20.5306 51.166 20.5082 51.0502C20.4879 50.9486 20.4465 50.8525 20.3867 50.768C20.3277 50.6862 20.2484 50.6211 20.1566 50.5792C20.0415 50.53 19.9171 50.5063 19.792 50.5097C19.659 50.5072 19.5272 50.5339 19.4056 50.5879C19.2968 50.6397 19.2 50.7136 19.1213 50.8049C19.041 50.9 18.9786 51.0088 18.9368 51.1261C18.8923 51.2562 18.8681 51.3924 18.8652 51.5298V53.251H18.5071V50.2992L18.8652 50.3057Z" fill="#8C9799"/>
<path d="M25.5938 53.6112C25.5542 53.7741 25.4802 53.9265 25.3768 54.0584C25.2674 54.1836 25.1287 54.2798 24.9731 54.3383C24.7776 54.4085 24.5708 54.4416 24.3632 54.436C24.2169 54.4362 24.0712 54.4187 23.9291 54.3839C23.7946 54.3515 23.6663 54.2972 23.5493 54.2233C23.437 54.1519 23.3415 54.0572 23.2693 53.9455C23.1925 53.825 23.1483 53.6867 23.1412 53.544H23.5015C23.5151 53.6386 23.5501 53.7288 23.6039 53.8078C23.6577 53.8868 23.7289 53.9524 23.8119 53.9998C23.8927 54.0471 23.9806 54.0808 24.0723 54.0996C24.1678 54.1213 24.2653 54.1323 24.3632 54.1321C24.4983 54.1446 24.6345 54.1251 24.7608 54.0753C24.8871 54.0256 24.9999 53.9469 25.0903 53.8457C25.2527 53.6035 25.3291 53.3138 25.3073 53.0231V52.6215H25.2943C25.2146 52.7974 25.0876 52.9477 24.9275 53.0556C24.7589 53.1687 24.5596 53.227 24.3567 53.2227C24.1487 53.2282 23.942 53.1882 23.7511 53.1055C23.5895 53.0317 23.4475 52.9209 23.3366 52.7821C23.2254 52.6387 23.1449 52.474 23.1 52.2981C23.0494 52.1055 23.0246 51.907 23.0262 51.7078C23.0247 51.5127 23.054 51.3186 23.113 51.1326C23.1687 50.9594 23.2563 50.7982 23.3713 50.6573C23.4853 50.5219 23.6275 50.413 23.788 50.3382C23.9666 50.2576 24.1608 50.2175 24.3567 50.221C24.4626 50.2203 24.5679 50.2357 24.6692 50.2666C24.7635 50.2955 24.8528 50.3387 24.934 50.3947C25.0142 50.4488 25.0872 50.513 25.151 50.5857C25.2115 50.6541 25.2607 50.7317 25.2965 50.8157H25.3095V50.3057H25.6698V53.0165C25.6712 53.2173 25.6457 53.4173 25.5938 53.6112ZM24.7669 52.8256C24.8836 52.7603 24.985 52.6707 25.0642 52.5629C25.1469 52.4499 25.2079 52.3226 25.2444 52.1874C25.2854 52.0464 25.3058 51.9002 25.3051 51.7534C25.305 51.6071 25.2875 51.4614 25.2531 51.3193C25.2207 51.1793 25.1649 51.0457 25.0881 50.9243C25.0117 50.8084 24.911 50.7106 24.7929 50.6378C24.6607 50.5631 24.5107 50.5256 24.3588 50.5292C24.2073 50.5262 24.0577 50.5629 23.9248 50.6356C23.804 50.7044 23.7002 50.7993 23.6209 50.9134C23.5385 51.0313 23.4795 51.1639 23.4473 51.3041C23.4108 51.451 23.3926 51.6019 23.393 51.7534C23.392 51.8999 23.4109 52.046 23.4494 52.1874C23.484 52.3229 23.5444 52.4504 23.6274 52.5629C23.7077 52.6714 23.8106 52.761 23.9291 52.8256C24.0629 52.8953 24.2123 52.9296 24.3632 52.9254C24.5047 52.9254 24.6438 52.8888 24.7669 52.819V52.8256Z" fill="#8C9799"/>
<path d="M26.6159 52.2808C26.6508 52.4157 26.7104 52.543 26.7917 52.6562C26.8721 52.7674 26.9749 52.8606 27.0934 52.9297C27.2256 53.0045 27.3756 53.042 27.5275 53.0382C27.7521 53.0515 27.9734 52.9785 28.146 52.8342C28.3008 52.6857 28.408 52.4946 28.4542 52.2851H28.8145C28.7593 52.5819 28.612 52.8538 28.3935 53.0621C28.1484 53.2586 27.8387 53.3561 27.5253 53.3356C27.3176 53.3404 27.1115 53.2989 26.9219 53.214C26.7583 53.1365 26.616 53.0203 26.5074 52.8755C26.3982 52.726 26.318 52.5574 26.2708 52.3784C26.218 52.1839 26.1917 51.9831 26.1927 51.7816C26.1924 51.5879 26.2187 51.3951 26.2708 51.2086C26.3193 51.0294 26.3994 50.8604 26.5074 50.7094C26.6159 50.5606 26.7579 50.4394 26.9219 50.3556C27.1087 50.2612 27.3161 50.2149 27.5253 50.221C27.7247 50.2128 27.9229 50.256 28.1008 50.3464C28.2786 50.4369 28.4303 50.5716 28.5411 50.7376C28.6456 50.8999 28.7192 51.0802 28.7581 51.2693C28.804 51.4692 28.823 51.6743 28.8145 51.8792H26.5616C26.5633 52.0148 26.5815 52.1496 26.6159 52.2808ZM28.4 51.1804C28.3591 51.0587 28.2966 50.9455 28.2155 50.8461C28.1352 50.7485 28.0354 50.6686 27.9225 50.6117C27.8021 50.5511 27.6688 50.5205 27.534 50.5227C27.3971 50.5208 27.2618 50.5513 27.139 50.6117C27.0271 50.6692 26.9281 50.749 26.8481 50.8461C26.7661 50.9476 26.7015 51.062 26.6571 51.1847C26.6093 51.3105 26.5772 51.4417 26.5616 51.5754H28.4716C28.4677 51.4408 28.4436 51.3077 28.4 51.1804Z" fill="#8C9799"/>
<path d="M29.6718 50.3057V50.8157H29.6848C29.753 50.6335 29.8818 50.4803 30.0495 50.3817C30.2228 50.2742 30.4229 50.2178 30.6268 50.2189C30.803 50.2141 30.9786 50.2405 31.1455 50.297C31.2729 50.3413 31.3876 50.4157 31.4798 50.5141C31.5666 50.6169 31.6276 50.7389 31.6578 50.87C31.6923 51.0261 31.709 51.1855 31.7077 51.3453V53.2445H31.3474V51.4018C31.3485 51.2837 31.3369 51.1658 31.3127 51.0502C31.2931 50.9488 31.2524 50.8526 31.1933 50.768C31.134 50.6856 31.0538 50.6204 30.961 50.5792C30.8468 50.5295 30.7231 50.5058 30.5986 50.5097C30.4656 50.5072 30.3338 50.5339 30.2123 50.5879C30.1034 50.6397 30.0066 50.7136 29.9279 50.8049C29.8477 50.9 29.7852 51.0088 29.7434 51.1261C29.6989 51.2562 29.6747 51.3924 29.6718 51.5298V53.251H29.3115V50.2992L29.6718 50.3057Z" fill="#8C9799"/>
<path d="M32.6542 52.2808C32.6891 52.4157 32.7487 52.543 32.83 52.6562C32.9099 52.7679 33.0128 52.8611 33.1317 52.9297C33.2638 53.0047 33.4139 53.0422 33.5658 53.0382C33.7904 53.0515 34.0117 52.9785 34.1844 52.8342C34.3379 52.6847 34.4449 52.494 34.4926 52.2851H34.8529C34.7976 52.5819 34.6503 52.8538 34.4318 53.0621C34.1867 53.2586 33.877 53.3561 33.5636 53.3356C33.356 53.3404 33.1498 53.2989 32.9602 53.214C32.7966 53.1365 32.6544 53.0203 32.5457 52.8755C32.4357 52.7265 32.3554 52.5578 32.3091 52.3784C32.2563 52.1839 32.23 51.9831 32.231 51.7816C32.2308 51.5879 32.2571 51.3951 32.3091 51.2086C32.3568 51.0291 32.437 50.8599 32.5457 50.7094C32.6567 50.5595 32.8018 50.4382 32.9689 50.3556C33.1557 50.2612 33.3631 50.2149 33.5723 50.221C33.7717 50.2128 33.9699 50.256 34.1478 50.3464C34.3257 50.4369 34.4773 50.5716 34.5881 50.7376C34.6926 50.8999 34.7662 51.0802 34.8051 51.2693C34.851 51.4692 34.87 51.6743 34.8615 51.8792H32.6C32.6016 52.0148 32.6198 52.1496 32.6542 52.2808ZM34.4383 51.1804C34.3966 51.0591 34.3341 50.946 34.2538 50.8461C34.1735 50.7485 34.0737 50.6686 33.9608 50.6117C33.8403 50.5513 33.7071 50.5208 33.5723 50.5227C33.4355 50.5208 33.3001 50.5513 33.1773 50.6117C33.0654 50.6692 32.9664 50.749 32.8865 50.8461C32.8044 50.9476 32.7398 51.062 32.6955 51.1847C32.6476 51.3105 32.6156 51.4417 32.6 51.5754H34.5099C34.5061 51.4408 34.4819 51.3077 34.4383 51.1804Z" fill="#8C9799"/>
<path d="M35.6885 50.3057V51.0067C35.7665 50.778 35.9186 50.5818 36.1207 50.4493C36.3228 50.3168 36.5633 50.2556 36.8041 50.2753V50.6356C36.6521 50.6251 36.4997 50.6473 36.357 50.7007C36.2289 50.7498 36.1117 50.8236 36.0119 50.9177C35.9168 51.0151 35.8429 51.1311 35.7949 51.2585C35.7397 51.3964 35.7124 51.544 35.7146 51.6926V53.2661H35.3564V50.3143L35.6885 50.3057Z" fill="#8C9799"/>
<path d="M37.2315 50.7636C37.288 50.6419 37.3738 50.536 37.4811 50.4554C37.5906 50.3727 37.7152 50.3123 37.8479 50.2775C38.0009 50.2376 38.1586 50.2187 38.3167 50.221C38.4478 50.2204 38.5787 50.2327 38.7074 50.2579C38.8313 50.2805 38.9494 50.3278 39.0547 50.3968C39.1618 50.47 39.2485 50.5694 39.3064 50.6855C39.3773 50.8367 39.4108 51.0027 39.4041 51.1695V52.7431C39.4041 52.8885 39.4736 52.9601 39.6211 52.9601C39.6607 52.9604 39.7 52.9522 39.7362 52.9362V53.2401L39.6255 53.2574C39.5843 53.2601 39.543 53.2601 39.5018 53.2574C39.4275 53.2603 39.3534 53.2469 39.2847 53.2184C39.2319 53.1975 39.1865 53.1612 39.1545 53.1142C39.1228 53.0651 39.1028 53.0094 39.0959 52.9514C39.0845 52.8797 39.0794 52.807 39.0807 52.7344H39.0677C39.0073 52.8238 38.9414 52.9094 38.8702 52.9905C38.807 53.062 38.7339 53.1241 38.6531 53.175C38.5663 53.2275 38.4718 53.2663 38.3731 53.29C38.2507 53.318 38.1254 53.3311 37.9998 53.3291C37.8695 53.3305 37.7396 53.3144 37.6135 53.2813C37.4994 53.2514 37.3924 53.199 37.2988 53.1272C37.2069 53.0552 37.1326 52.9632 37.0817 52.8581C37.0287 52.7363 37.0028 52.6045 37.0058 52.4718C36.9954 52.3003 37.0436 52.1304 37.1425 51.9899C37.2378 51.8706 37.3628 51.7785 37.505 51.723C37.6688 51.6587 37.8402 51.6157 38.015 51.5949C38.2039 51.5689 38.3949 51.545 38.5902 51.5233C38.6662 51.5233 38.7313 51.5059 38.7899 51.4951C38.8412 51.4846 38.8899 51.4639 38.9331 51.4343C38.9723 51.4035 39.003 51.3631 39.0221 51.3171C39.0439 51.2551 39.0542 51.1896 39.0525 51.1239C39.0566 51.0199 39.0358 50.9165 38.9917 50.8222C38.9543 50.7471 38.8973 50.6834 38.8268 50.6377C38.752 50.5903 38.6687 50.5578 38.5815 50.5422C38.482 50.5243 38.381 50.5156 38.2798 50.5162C38.0804 50.5077 37.8836 50.5649 37.7198 50.679C37.6436 50.7423 37.5833 50.8226 37.5437 50.9134C37.5041 51.0043 37.4864 51.1031 37.492 51.2021H37.1143C37.1248 51.0497 37.1646 50.9009 37.2315 50.7636ZM39.033 51.6448C39.0021 51.691 38.9547 51.7237 38.9006 51.736C38.8445 51.7536 38.7872 51.7666 38.7291 51.775C38.5772 51.8011 38.4187 51.8271 38.2581 51.8467C38.1109 51.8654 37.9656 51.8974 37.824 51.9422C37.7022 51.9774 37.5896 52.0389 37.4941 52.1223C37.4502 52.1657 37.4161 52.218 37.394 52.2756C37.372 52.3333 37.3624 52.3949 37.3661 52.4566C37.3642 52.5408 37.3829 52.6242 37.4203 52.6997C37.4573 52.7707 37.508 52.8338 37.5695 52.8852C37.6309 52.9366 37.702 52.9753 37.7785 52.9992C37.8576 53.0253 37.9404 53.0385 38.0237 53.0382C38.158 53.0394 38.2915 53.0181 38.4187 52.9753C38.539 52.937 38.6505 52.875 38.7465 52.793C38.8374 52.7114 38.9111 52.6125 38.9635 52.5021C39.0195 52.3804 39.0477 52.2477 39.046 52.1136V51.6448H39.033Z" fill="#8C9799"/>
<path d="M41.2967 50.3057V50.6096H40.6955V52.5999C40.6913 52.6943 40.7083 52.7885 40.7454 52.8755C40.778 52.9428 40.8583 52.9797 40.9885 52.9884C41.0915 52.988 41.1943 52.9822 41.2967 52.971V53.2727C41.2424 53.2727 41.1903 53.2727 41.1361 53.2727C41.0818 53.2727 41.0297 53.2727 40.9755 53.2727C40.8861 53.2938 40.7929 53.2916 40.7047 53.2661C40.6165 53.2407 40.5363 53.1929 40.472 53.1275C40.4076 53.062 40.3612 52.9811 40.3372 52.8925C40.3133 52.8038 40.3126 52.7106 40.3352 52.6216V50.6031H39.8208V50.2992H40.3352V49.4137H40.6955V50.2992L41.2967 50.3057Z" fill="#8C9799"/>
<path d="M42.1823 49.175V49.7523H41.822V49.175H42.1823ZM42.1823 50.3058V53.2576H41.822V50.3058H42.1823Z" fill="#8C9799"/>
<path d="M44.711 50.3557C44.8782 50.4353 45.0263 50.55 45.1451 50.6921C45.2666 50.8377 45.358 51.0059 45.4142 51.187C45.5358 51.58 45.5358 52.0006 45.4142 52.3937C45.358 52.5748 45.2666 52.743 45.1451 52.8886C45.0262 53.03 44.8781 53.144 44.711 53.2228C44.5218 53.303 44.3185 53.3443 44.113 53.3443C43.9076 53.3443 43.7042 53.303 43.5151 53.2228C43.3476 53.1446 43.1995 53.0305 43.081 52.8886C42.9595 52.743 42.868 52.5748 42.8119 52.3937C42.6903 52.0006 42.6903 51.58 42.8119 51.187C42.868 51.0059 42.9595 50.8377 43.081 50.6921C43.1993 50.5495 43.3475 50.4347 43.5151 50.3557C43.7035 50.2726 43.9071 50.2297 44.113 50.2297C44.3189 50.2297 44.5226 50.2726 44.711 50.3557ZM43.6605 50.64C43.534 50.7121 43.4239 50.8096 43.3371 50.9265C43.2499 51.0489 43.1846 51.1855 43.1439 51.3302C43.0571 51.6308 43.0571 51.9499 43.1439 52.2505C43.1852 52.3949 43.2505 52.5314 43.3371 52.6542C43.4234 52.7709 43.5337 52.8679 43.6605 52.9385C43.8003 53.0098 43.955 53.0469 44.112 53.0469C44.2689 53.0469 44.4236 53.0098 44.5634 52.9385C44.6911 52.8691 44.8016 52.7719 44.8868 52.6542C44.9748 52.5319 45.0409 52.3953 45.0821 52.2505C45.169 51.9499 45.169 51.6308 45.0821 51.3302C45.0415 51.1851 44.9754 51.0484 44.8868 50.9265C44.8011 50.8086 44.6907 50.7109 44.5634 50.64C44.4236 50.5687 44.2689 50.5316 44.112 50.5316C43.955 50.5316 43.8003 50.5687 43.6605 50.64Z" fill="#8C9799"/>
<path d="M46.4081 50.3057V50.8158H46.419C46.4891 50.634 46.6183 50.4811 46.7858 50.3817C46.9591 50.2742 47.1592 50.2178 47.3631 50.2189C47.5386 50.214 47.7135 50.2405 47.8797 50.297C48.0076 50.3401 48.1225 50.4148 48.2139 50.5141C48.3015 50.6164 48.3626 50.7386 48.3919 50.87C48.4283 51.0258 48.4458 51.1854 48.444 51.3453V53.2445H48.0837V51.4018C48.0849 51.2837 48.0732 51.1658 48.049 51.0502C48.0294 50.9488 47.9888 50.8526 47.9296 50.768C47.8698 50.6861 47.7898 50.621 47.6974 50.5792C47.5829 50.5303 47.4593 50.5066 47.3349 50.5097C47.202 50.5072 47.0701 50.5339 46.9486 50.5879C46.8386 50.6389 46.7409 50.7129 46.6621 50.8049C46.5817 50.8996 46.5199 51.0086 46.4798 51.1261C46.4352 51.2562 46.4111 51.3924 46.4081 51.5298V53.251H46.0479V50.2992L46.4081 50.3057Z" fill="#8C9799"/>
<path d="M42.8552 8.33395C42.4197 7.65219 41.8107 7.09859 41.0906 6.73001L30.6725 0.711403C29.8608 0.24528 28.9411 0 28.0051 0C27.069 0 26.1493 0.24528 25.3376 0.711403L14.9109 6.73001C14.0883 7.20316 12.9857 8.08218 12.8989 9.18693C12.6927 11.8175 16.0786 13.4583 18.3402 14.6673C22.2469 16.7422 24.7603 17.9446 26.6637 19.8937C27.0848 20.3278 27.749 21.0852 28.0007 21.6821C28.2503 21.0852 28.9167 20.3256 29.3399 19.8937C31.2434 17.9403 33.7632 16.7422 37.6613 14.6673C39.8903 13.4822 43.1655 11.9759 43.1048 9.19344C43.0862 8.892 43.0009 8.59844 42.8552 8.33395ZM27.9986 15.6288C27.3451 15.6283 26.7065 15.4341 26.1634 15.0707C25.6204 14.7073 25.1973 14.1909 24.9478 13.587C24.6982 12.9831 24.6333 12.3188 24.7614 11.678C24.8895 11.0372 25.2047 10.4488 25.6672 9.98722C26.1297 9.52562 26.7187 9.21156 27.3597 9.08477C28.0008 8.95797 28.665 9.02414 29.2684 9.27489C29.8718 9.52565 30.3873 9.94973 30.7497 10.4935C31.112 11.0373 31.305 11.6763 31.3041 12.3297C31.303 13.2055 30.9541 14.0449 30.3343 14.6635C29.7144 15.2822 28.8743 15.6293 27.9986 15.6288Z" fill="url(#paint0_linear_0_6358)"/>
<path d="M37.6766 16.4036C33.0405 18.8649 29.7892 20.013 28.526 24.0001C28.3002 24.6368 28.1231 25.2899 27.9964 25.9535C27.8705 25.2899 27.6942 24.6369 27.469 24.0001C26.2058 20.0217 22.9524 18.8735 18.3185 16.4036C13.511 13.8599 12.4865 12.5901 12.3064 12.041V23.388C12.308 24.3234 12.5555 25.2418 13.0241 26.0513C13.4926 26.8608 14.1658 27.5329 14.976 28.0002L25.3941 34.0101C25.7359 34.2179 26.0999 34.3867 26.4793 34.5137C26.3534 34.0666 26.2037 33.5934 26.0235 33.0899C22.7679 23.9741 17.0162 21.7342 17.0162 21.7342C17.0162 21.7342 19.6989 21.9512 23.5275 25.9057C25.3854 27.8244 26.8418 30.1185 28.0051 32.5082C28.0051 32.5082 30.5619 27.8852 32.4871 25.8949C36.3179 21.9382 38.9983 21.7233 38.9983 21.7233C38.9983 21.7233 33.2424 23.9654 29.9911 33.079C29.8131 33.5847 29.6633 34.0557 29.5374 34.505C29.9161 34.3762 30.2799 34.2074 30.6227 34.0014L41.0212 28.0002C41.8298 27.5311 42.5012 26.8581 42.9685 26.0484C43.4358 25.2388 43.6826 24.3207 43.6843 23.3859V12.0323C43.5085 12.5706 42.4841 13.8512 37.6766 16.4036Z" fill="url(#paint1_linear_0_6358)"/>
<defs>
<linearGradient id="paint0_linear_0_6358" x1="12.8902" y1="10.8408" x2="43.1048" y2="10.8408" gradientUnits="userSpaceOnUse">
<stop stop-color="#2B88D9"/>
<stop offset="1" stop-color="#26E0F5"/>
</linearGradient>
<linearGradient id="paint1_linear_0_6358" x1="31.6731" y1="7.05772" x2="21.6458" y2="37.2831" gradientUnits="userSpaceOnUse">
<stop stop-color="#39B54A"/>
<stop offset="1" stop-color="#ACDF23"/>
</linearGradient>
</defs>
</svg>
