<svg width="72" height="53" viewBox="0 0 72 53" fill="none" xmlns="http://www.w3.org/2000/svg">
<path d="M32.1918 35.6718L31.9897 35.9311C31.7902 35.7427 31.5249 35.6399 31.2505 35.6449C31.0076 35.6449 30.7746 35.7414 30.6028 35.9132C30.431 36.0849 30.3345 36.3179 30.3345 36.5609C30.3345 36.8038 30.431 37.0368 30.6028 37.2086C30.7746 37.3804 31.0076 37.4769 31.2505 37.4769C31.3942 37.4837 31.5376 37.4586 31.6704 37.4032C31.8032 37.3479 31.922 37.2638 32.0183 37.1569L32.2305 37.3826C32.1077 37.5245 31.9544 37.6368 31.7821 37.7111C31.6097 37.7855 31.4229 37.8199 31.2354 37.812C30.9108 37.8001 30.6036 37.6628 30.3782 37.429C30.1528 37.1952 30.0269 36.8831 30.0269 36.5584C30.0269 36.2336 30.1528 35.9215 30.3782 35.6877C30.6036 35.4539 30.9108 35.3166 31.2354 35.3047C31.4115 35.2959 31.5876 35.324 31.7523 35.3872C31.917 35.4505 32.0667 35.5474 32.1918 35.6718Z" fill="#6C6D6D"/>
<path d="M33.266 35.8655C33.3396 35.692 33.4642 35.545 33.6233 35.444C33.7824 35.3429 33.9684 35.2926 34.1567 35.2997V35.6719C34.0445 35.6629 33.9317 35.677 33.8251 35.7132C33.7186 35.7495 33.6206 35.8072 33.5371 35.8827C33.4537 35.9583 33.3866 36.0501 33.34 36.1525C33.2933 36.255 33.2682 36.3659 33.266 36.4784V37.7968H32.8989V35.3149H33.266V35.8655Z" fill="#6C6D6D"/>
<path d="M36.7905 36.7074H34.7699C34.7896 36.9295 34.8939 37.1355 35.0613 37.2828C35.2286 37.4301 35.4462 37.5074 35.669 37.4988C35.8117 37.5026 35.9536 37.477 36.0859 37.4237C36.2183 37.3704 36.3383 37.2905 36.4385 37.1889L36.6406 37.4045C36.5136 37.5412 36.3588 37.6492 36.1865 37.7209C36.0143 37.7927 35.8286 37.8266 35.6421 37.8204C35.3176 37.8085 35.0103 37.6712 34.7849 37.4374C34.5595 37.2036 34.4336 36.8915 34.4336 36.5668C34.4336 36.242 34.5595 35.9299 34.7849 35.6961C35.0103 35.4623 35.3176 35.3251 35.6421 35.3132C36.4335 35.2997 36.8292 35.8554 36.7905 36.7074ZM36.4537 36.406C36.4544 36.2993 36.4331 36.1937 36.391 36.0957C36.349 35.9977 36.2871 35.9095 36.2093 35.8366C36.1315 35.7637 36.0394 35.7077 35.9389 35.6721C35.8384 35.6365 35.7316 35.6221 35.6253 35.6297C35.4086 35.6226 35.1975 35.6993 35.0359 35.8439C34.8744 35.9885 34.7749 36.1898 34.7581 36.406H36.4537Z" fill="#6C6D6D"/>
<path d="M38.9626 37.4161C38.8546 37.5512 38.7155 37.6581 38.5571 37.7276C38.3987 37.7971 38.2259 37.8271 38.0533 37.8152C37.5398 37.8152 37.2114 37.4784 37.2114 37.0574C37.2114 36.6365 37.5482 36.3502 38.1409 36.3469H38.9559V36.202C38.9559 35.8383 38.7286 35.6228 38.2908 35.6228C38.0055 35.6327 37.7306 35.7316 37.5044 35.9057L37.3495 35.6363C37.6402 35.4161 37.9952 35.2978 38.3598 35.2995C38.9727 35.2995 39.3112 35.6245 39.3162 36.1583V37.7966H38.9626V37.4161ZM38.9626 36.9396V36.6432H38.1914C37.7755 36.6432 37.56 36.7695 37.56 37.044C37.56 37.3184 37.7806 37.4952 38.1291 37.4952C38.5433 37.4952 38.8633 37.2831 38.9575 36.9396H38.9626Z" fill="#6C6D6D"/>
<path d="M41.4209 37.6285C41.2562 37.744 41.0613 37.8089 40.8602 37.8154C40.4965 37.8154 40.2288 37.5998 40.2288 37.1098V35.6971H39.8718V35.394H40.2305V34.739H40.5925V35.394H41.3805V35.6971H40.5925V37.0442C40.5925 37.3456 40.7104 37.4584 40.9293 37.4584C41.0707 37.4544 41.208 37.41 41.325 37.3304L41.4209 37.6285Z" fill="#6C6D6D"/>
<path d="M42.3975 34.6026C42.3948 34.6496 42.3785 34.6948 42.3505 34.7326C42.3225 34.7703 42.284 34.7991 42.2399 34.8153C42.1957 34.8314 42.1478 34.8343 42.102 34.8236C42.0562 34.8128 42.0146 34.7889 41.9822 34.7547C41.9499 34.7206 41.9282 34.6777 41.92 34.6314C41.9117 34.5851 41.9172 34.5374 41.9358 34.4942C41.9543 34.451 41.9851 34.4141 42.0244 34.3882C42.0637 34.3623 42.1096 34.3485 42.1567 34.3484C42.1895 34.3483 42.2219 34.355 42.252 34.3679C42.2822 34.3808 42.3093 34.3998 42.3319 34.4236C42.3544 34.4474 42.3719 34.4756 42.3831 34.5064C42.3944 34.5371 42.3993 34.5699 42.3975 34.6026ZM41.9782 37.8019V35.3149H42.3419V37.7969L41.9782 37.8019Z" fill="#6C6D6D"/>
<path d="M43.7917 37.7968L42.8083 35.3148H43.199L43.9904 37.4162L44.7767 35.3148H45.1489L44.1739 37.7968H43.7917Z" fill="#6C6D6D"/>
<path d="M47.6408 36.7074H45.6202C45.6403 36.9296 45.745 37.1356 45.9127 37.2829C46.0803 37.4302 46.2981 37.5074 46.5211 37.4988C46.6634 37.5024 46.805 37.4768 46.9371 37.4235C47.0692 37.3702 47.1889 37.2904 47.2889 37.1889L47.4909 37.4045C47.364 37.5412 47.2091 37.6492 47.0369 37.7209C46.8646 37.7927 46.6789 37.8266 46.4924 37.8204C46.1679 37.8085 45.8606 37.6712 45.6353 37.4374C45.4099 37.2036 45.2839 36.8915 45.2839 36.5668C45.2839 36.242 45.4099 35.9299 45.6353 35.6961C45.8606 35.4623 46.1679 35.3251 46.4924 35.3132C47.2838 35.2997 47.6795 35.8554 47.6408 36.7074ZM47.304 36.406C47.3048 36.2993 47.2834 36.1937 47.2414 36.0957C47.1993 35.9977 47.1374 35.9095 47.0596 35.8366C46.9818 35.7637 46.8898 35.7077 46.7892 35.6721C46.6887 35.6365 46.5819 35.6221 46.4756 35.6297C46.2589 35.6226 46.0478 35.6993 45.8863 35.8439C45.7247 35.9885 45.6252 36.1898 45.6084 36.406H47.304Z" fill="#6C6D6D"/>
<path d="M49.5874 37.7967V34.3011H49.9545V37.7967H49.5874Z" fill="#6C6D6D"/>
<path d="M53.0124 36.7074H50.9918C51.0119 36.9296 51.1166 37.1356 51.2842 37.2829C51.4519 37.4302 51.6697 37.5074 51.8926 37.4988C52.035 37.5024 52.1766 37.4768 52.3087 37.4235C52.4408 37.3702 52.5605 37.2904 52.6605 37.1889L52.8625 37.4045C52.7356 37.5412 52.5807 37.6492 52.4085 37.7209C52.2362 37.7927 52.0505 37.8266 51.864 37.8204C51.5395 37.8085 51.2322 37.6712 51.0068 37.4374C50.7815 37.2036 50.6555 36.8915 50.6555 36.5668C50.6555 36.242 50.7815 35.9299 51.0068 35.6961C51.2322 35.4623 51.5395 35.3251 51.864 35.3132C52.6554 35.2997 53.0511 35.8554 53.0124 36.7074ZM52.6756 36.406C52.6764 36.2993 52.655 36.1937 52.613 36.0957C52.5709 35.9977 52.509 35.9095 52.4312 35.8366C52.3534 35.7637 52.2613 35.7077 52.1608 35.6721C52.0603 35.6365 51.9535 35.6221 51.8472 35.6297C51.6305 35.6226 51.4194 35.6993 51.2579 35.8439C51.0963 35.9885 50.9968 36.1898 50.98 36.406H52.6756Z" fill="#6C6D6D"/>
<path d="M54.9253 37.6285C54.7606 37.744 54.5657 37.8089 54.3646 37.8154C54.0026 37.8154 53.7349 37.5998 53.7349 37.1098V35.6971H53.3762V35.394H53.7349V34.739H54.0969V35.394H54.8832V35.6971H54.0969V37.0442C54.0969 37.3456 54.2148 37.4584 54.4337 37.4584C54.575 37.4541 54.7123 37.4097 54.8294 37.3304L54.9253 37.6285Z" fill="#6C6D6D"/>
<path d="M56.7639 37.6285C56.599 37.7436 56.4042 37.8085 56.2032 37.8154C55.8395 37.8154 55.5718 37.5998 55.5718 37.1098V35.6971H55.2131V35.394H55.5651V34.739H55.9271V35.394H56.7151V35.6971H55.9271V37.0442C55.9271 37.3456 56.0449 37.4584 56.2638 37.4584C56.4053 37.4544 56.5426 37.41 56.6595 37.3304L56.7639 37.6285Z" fill="#6C6D6D"/>
<path d="M59.421 36.7074H57.4005C57.4202 36.9295 57.5245 37.1355 57.6919 37.2828C57.8592 37.4301 58.0768 37.5074 58.2996 37.4988C58.442 37.5027 58.5837 37.4772 58.7158 37.4239C58.848 37.3706 58.9677 37.2906 59.0674 37.1889L59.2712 37.4045C59.144 37.5414 58.9888 37.6494 58.8163 37.7211C58.6437 37.7929 58.4578 37.8267 58.271 37.8204C57.9465 37.8085 57.6392 37.6712 57.4138 37.4374C57.1884 37.2036 57.0625 36.8915 57.0625 36.5668C57.0625 36.242 57.1884 35.9299 57.4138 35.6961C57.6392 35.4623 57.9465 35.3251 58.271 35.3132C59.0624 35.2997 59.4581 35.8554 59.421 36.7074ZM59.0843 36.406C59.085 36.2993 59.0637 36.1937 59.0216 36.0957C58.9796 35.9977 58.9177 35.9095 58.8399 35.8366C58.7621 35.7637 58.67 35.7077 58.5695 35.6721C58.469 35.6365 58.3622 35.6221 58.2558 35.6297C58.0392 35.6226 57.8281 35.6993 57.6665 35.8439C57.505 35.9885 57.4055 36.1898 57.3887 36.406H59.0843Z" fill="#6C6D6D"/>
<path d="M60.4193 35.8655C60.4929 35.692 60.6175 35.545 60.7766 35.444C60.9357 35.3429 61.1217 35.2926 61.3101 35.2997V35.6719C61.1979 35.6629 61.085 35.677 60.9785 35.7132C60.8719 35.7495 60.7739 35.8072 60.6904 35.8827C60.607 35.9583 60.5399 36.0501 60.4933 36.1525C60.4467 36.255 60.4215 36.3659 60.4193 36.4784V37.7968H60.0522V35.3149H60.4193V35.8655Z" fill="#6C6D6D"/>
<path d="M63.2568 35.5288L63.1154 35.8201C62.9135 35.6925 62.6806 35.6226 62.4419 35.618C62.164 35.618 61.9519 35.7174 61.9519 35.9548C61.9519 36.5054 63.336 36.2225 63.336 37.1132C63.336 37.6032 62.9032 37.8204 62.4267 37.8204C62.0772 37.8269 61.738 37.7026 61.4753 37.4719L61.6168 37.1924C61.8443 37.3945 62.1375 37.507 62.4419 37.5089C62.7332 37.5089 62.9689 37.4012 62.9739 37.1553C62.9874 36.5576 61.5983 36.864 61.6033 35.9767C61.6033 35.5018 62.0125 35.3031 62.4654 35.3031C62.7456 35.2994 63.0207 35.3779 63.2568 35.5288Z" fill="#6C6D6D"/>
<path d="M33.1921 23.6442V22.6104C33.1921 22.1389 32.9614 21.9048 32.5018 21.9048H32.2559C31.8063 21.9048 31.5824 22.1389 31.5824 22.6104V24.5636C31.5728 24.6427 31.5795 24.723 31.6021 24.7994C31.6247 24.8759 31.6627 24.9469 31.7137 25.0081C31.8485 25.1172 31.9915 25.2157 32.1414 25.3028L33.635 26.1077C33.8756 26.2396 34.1089 26.3847 34.3338 26.5421C34.4671 26.6432 34.5764 26.7726 34.6537 26.921C34.7491 27.1908 34.788 27.4774 34.7682 27.7629V30.2751C34.7682 31.6009 34.1334 32.2632 32.8638 32.262H31.8939C30.6355 32.262 30.0063 31.5397 30.0063 30.095V29.5023H31.5824V30.1404C31.5824 30.6007 31.8176 30.8302 32.2879 30.8291H32.5674C32.9839 30.8291 33.1921 30.5996 33.1921 30.1404V28.1367C33.202 28.0578 33.1954 27.9777 33.1728 27.9015C33.1502 27.8253 33.1121 27.7546 33.0608 27.6938C32.9262 27.5841 32.7832 27.485 32.6331 27.3975L31.1395 26.5556C30.8889 26.4295 30.6499 26.2813 30.4256 26.1127C30.2765 25.9904 30.1655 25.828 30.1057 25.6446C30.0327 25.4024 29.9991 25.1499 30.0063 24.897V22.4959C30.0063 21.1488 30.6355 20.4753 31.8939 20.4753H32.8789C34.1384 20.4753 34.7682 21.1488 34.7682 22.4959V23.6442H33.1921Z" fill="#565757"/>
<path d="M41.2037 20.4753V30.0327C41.2037 31.5212 40.5689 32.2654 39.2993 32.2654H37.9691C36.7119 32.2654 36.0827 31.5155 36.0815 30.0158V20.4753H37.6576V30.0731C37.6576 30.5883 37.8883 30.8443 38.348 30.8443H38.9878C39.4155 30.8443 39.6277 30.5883 39.6277 30.0731V20.4753H41.2037Z" fill="#565757"/>
<path d="M42.6819 20.4753H45.5562C46.8258 20.4753 47.4606 21.1488 47.4606 22.4959V25.9932C47.4606 27.329 46.8308 27.9964 45.5713 27.9952H44.2579V32.2654H42.6819V20.4753ZM44.2579 26.5674H45.2598C45.6752 26.5674 45.8828 26.3372 45.8828 25.877V22.5935C45.8828 22.1338 45.6488 21.9048 45.1773 21.9048H44.2579V26.5674Z" fill="#565757"/>
<path d="M48.7085 20.4753H51.7949C52.9983 20.4753 53.6006 21.1488 53.6017 22.4959V25.4021C53.6017 26.4304 53.2896 27.0815 52.6655 27.3554L53.765 32.2654H52.2715L51.2359 27.5036H50.2846V32.2654H48.7085V20.4753ZM50.2846 26.1565H51.3184C51.7899 26.1565 52.0239 25.8719 52.0239 25.3028V22.7585C52.0239 22.1894 51.7899 21.9048 51.3184 21.9048H50.2846V26.1565Z" fill="#565757"/>
<path d="M54.915 32.2654V20.4786H58.8232V21.9082H56.4911V25.4863H58.5588V26.9159H56.4911V30.8392H58.8232V32.2688L54.915 32.2654Z" fill="#565757"/>
<path d="M63.1574 27.4042L64.619 20.4753H66.3584V32.262H64.7823L64.9507 24.5451L63.772 30.127H62.5563L61.3776 24.5451L61.546 32.262H59.9683V20.4753H61.7093L63.1574 27.4042Z" fill="#565757"/>
<path d="M67.8367 32.2654V20.4786H71.7448V21.9082H69.4127V25.4863H71.4821V26.9159H69.4127V30.8392H71.7448V32.2688L67.8367 32.2654Z" fill="#565757"/>
<path d="M25.4396 5.96579C25.5255 9.06739 24.2273 11.0711 21.587 12.6203C18.3558 14.5146 15.0201 16.4661 11.7602 18.3453C8.15349 20.413 7.25601 22.9505 9.84573 26.2963C9.00382 28.1485 6.06891 27.8117 4.4575 27.5356C2.64402 26.4327 2.1153 24.0214 2.21801 22.048C2.3645 19.2444 3.85132 16.5756 5.88875 14.6779C12.3883 9.77459 18.9002 4.88197 25.4245 0C25.4245 1.98916 25.4295 3.97775 25.4396 5.96579Z" fill="url(#paint0_linear_0_6573)"/>
<path d="M9.84583 26.2962C9.84583 26.2962 9.45181 25.9763 8.80354 25.3987C5.72383 22.6575 1.71464 18.4176 5.88042 14.6778C4.54629 15.7147 3.36448 16.9339 2.36965 18.2997C-0.57704 22.2466 -0.00117239 28.5946 0.138585 33.3396C0.205938 35.6162 2.89669 36.1213 4.60745 35.2121C6.48997 34.2018 8.50045 33.0837 10.3325 32.1037C13.1192 30.5883 11.7435 27.8234 9.84583 26.2962Z" fill="url(#paint1_linear_0_6573)"/>
<path d="M0.234471 47.0342C0.148596 43.9326 1.44514 41.9272 4.08706 40.3814C7.32 38.4854 10.654 36.5339 13.9139 34.6564C17.5189 32.582 18.4181 30.0444 15.8284 26.6987C16.6703 24.8465 19.6052 25.1933 21.225 25.4611C23.0385 26.564 23.5655 28.9752 23.4628 30.947C23.318 33.7505 21.8295 36.4194 19.7938 38.3171C13.2897 43.2237 6.77556 48.118 0.251309 53C0.251309 51.0063 0.245696 49.0177 0.234471 47.0342Z" fill="url(#paint2_linear_0_6573)"/>
<path d="M15.8269 26.7038C15.8269 26.7038 16.2209 27.0237 16.8691 27.6013C19.9455 30.3442 23.958 34.5807 19.7923 38.3222C21.1263 37.2857 22.3076 36.0664 23.3013 34.7003C26.2497 30.7534 25.6772 24.4037 25.5341 19.6688C25.4651 17.3923 22.7777 16.8871 21.0652 17.7981C19.181 18.8084 17.1722 19.9247 15.3487 20.9064C12.5552 22.4117 13.9309 25.1766 15.8269 26.7038Z" fill="url(#paint3_linear_0_6573)"/>
<defs>
<linearGradient id="paint0_linear_0_6573" x1="28.4065" y1="14.7166" x2="2.54804" y2="12.9755" gradientUnits="userSpaceOnUse">
<stop stop-color="#00C4FF"/>
<stop offset="1" stop-color="#001973"/>
</linearGradient>
<linearGradient id="paint1_linear_0_6573" x1="14.0992" y1="25.8146" x2="-0.0112756" y2="24.865" gradientUnits="userSpaceOnUse">
<stop stop-color="#001973"/>
<stop offset="1" stop-color="#00C4FF"/>
</linearGradient>
<linearGradient id="paint2_linear_0_6573" x1="-2.73074" y1="38.2834" x2="23.1261" y2="40.0245" gradientUnits="userSpaceOnUse">
<stop stop-color="#00C4FF"/>
<stop offset="1" stop-color="#001973"/>
</linearGradient>
<linearGradient id="paint3_linear_0_6573" x1="11.5735" y1="27.1854" x2="25.684" y2="28.135" gradientUnits="userSpaceOnUse">
<stop stop-color="#001973"/>
<stop offset="1" stop-color="#00C4FF"/>
</linearGradient>
</defs>
</svg>
