<svg width="181" height="48" viewBox="0 0 181 48" fill="none" xmlns="http://www.w3.org/2000/svg">
<path d="M68.5473 38.8252C66.4339 38.8252 64.5401 38.4795 62.8659 37.7881C61.1917 37.0968 59.8468 36.0736 58.8313 34.7185C57.8432 33.3635 57.3217 31.7318 57.2668 29.8237H64.7597C64.8695 30.9022 65.24 31.7318 65.8713 32.3126C66.5026 32.8657 67.326 33.1422 68.3415 33.1422C69.3844 33.1422 70.2078 32.9072 70.8116 32.437C71.4155 31.9393 71.7174 31.2617 71.7174 30.4044C71.7174 29.6854 71.4704 29.0909 70.9763 28.6207C70.5097 28.1506 69.9196 27.7635 69.206 27.4593C68.5199 27.1551 67.5318 26.8094 66.2418 26.4222C64.3755 25.8415 62.8522 25.2607 61.672 24.68C60.4918 24.0993 59.4763 23.242 58.6254 22.1081C57.7746 20.9743 57.3492 19.4948 57.3492 17.6696C57.3492 14.9595 58.3235 12.844 60.2722 11.323C62.2209 9.77432 64.7597 9 67.8886 9C71.0724 9 73.6386 9.77432 75.5873 11.323C77.536 12.844 78.579 14.9733 78.7162 17.7111H71.0998C71.0449 16.7709 70.7019 16.038 70.0706 15.5126C69.4393 14.9595 68.6297 14.683 67.6416 14.683C66.7907 14.683 66.1046 14.918 65.5831 15.3881C65.0616 15.8306 64.8009 16.4805 64.8009 17.3378C64.8009 18.278 65.24 19.0109 66.1183 19.5363C66.9966 20.0617 68.3689 20.6286 70.2353 21.237C72.1016 21.8731 73.6112 22.4815 74.7639 23.0622C75.9441 23.643 76.9596 24.4864 77.8105 25.5926C78.6613 26.6988 79.0867 28.123 79.0867 29.8652C79.0867 31.5244 78.6613 33.0316 77.8105 34.3867C76.9871 35.7417 75.7794 36.8202 74.1876 37.6222C72.5957 38.4242 70.7156 38.8252 68.5473 38.8252Z" fill="#122428"/>
<path d="M82.0194 26.92C82.0194 24.5417 82.4586 22.4538 83.3369 20.6563C84.2426 18.8588 85.464 17.476 87.001 16.5081C88.538 15.5402 90.2534 15.0563 92.1472 15.0563C93.7665 15.0563 95.18 15.3881 96.3876 16.0518C97.6227 16.7156 98.5696 17.5867 99.2283 18.6652V15.3881H106.268V38.5348H99.2283V35.2578C98.5422 36.3363 97.5815 37.2074 96.3465 37.8711C95.1388 38.5348 93.7253 38.8667 92.106 38.8667C90.2396 38.8667 88.538 38.3827 87.001 37.4148C85.464 36.4193 84.2426 35.0227 83.3369 33.2252C82.4586 31.4 82.0194 29.2983 82.0194 26.92ZM99.2283 26.9615C99.2283 25.1916 98.7343 23.7951 97.7462 22.7719C96.7856 21.7486 95.6054 21.237 94.2056 21.237C92.8059 21.237 91.6119 21.7486 90.6239 22.7719C89.6633 23.7674 89.1829 25.1501 89.1829 26.92C89.1829 28.6899 89.6633 30.1002 90.6239 31.1511C91.6119 32.1743 92.8059 32.6859 94.2056 32.6859C95.6054 32.6859 96.7856 32.1743 97.7462 31.1511C98.7343 30.1279 99.2283 28.7314 99.2283 26.9615Z" fill="#122428"/>
<path d="M120.707 38.8667C118.703 38.8667 116.919 38.521 115.355 37.8296C113.79 37.1383 112.555 36.198 111.65 35.0089C110.744 33.7921 110.236 32.437 110.126 30.9437H117.084C117.166 31.7457 117.537 32.3956 118.196 32.8933C118.854 33.3911 119.664 33.64 120.625 33.64C121.503 33.64 122.175 33.4741 122.642 33.1422C123.136 32.7827 123.383 32.3264 123.383 31.7733C123.383 31.1096 123.04 30.6257 122.354 30.3215C121.668 29.9896 120.556 29.6301 119.019 29.243C117.372 28.8558 116 28.4548 114.902 28.04C113.804 27.5975 112.857 26.92 112.061 26.0074C111.265 25.0672 110.867 23.8089 110.867 22.2326C110.867 20.9052 111.224 19.7022 111.938 18.6237C112.679 17.5175 113.749 16.6464 115.149 16.0104C116.576 15.3743 118.264 15.0563 120.213 15.0563C123.095 15.0563 125.359 15.7753 127.006 17.2133C128.68 18.6514 129.641 20.5595 129.888 22.9378H123.383C123.273 22.1358 122.916 21.4998 122.313 21.0296C121.736 20.5595 120.968 20.3244 120.007 20.3244C119.184 20.3244 118.552 20.4904 118.113 20.8222C117.674 21.1264 117.455 21.5551 117.455 22.1081C117.455 22.7719 117.798 23.2696 118.484 23.6015C119.197 23.9333 120.295 24.2652 121.777 24.597C123.479 25.0395 124.865 25.482 125.936 25.9244C127.006 26.3393 127.939 27.0306 128.735 27.9985C129.558 28.9388 129.984 30.2109 130.011 31.8148C130.011 33.1699 129.627 34.3867 128.859 35.4652C128.117 36.516 127.033 37.3457 125.606 37.9541C124.206 38.5625 122.573 38.8667 120.707 38.8667Z" fill="#122428"/>
<path d="M147.904 38.5348L143.499 32.1052L139.794 38.5348H132.178L139.753 26.7126L131.972 15.3881H139.876L144.281 21.7763L147.987 15.3881H155.603L147.904 27.0444L155.809 38.5348H147.904Z" fill="#122428"/>
<path d="M168.979 38.8667C166.728 38.8667 164.697 38.3827 162.886 37.4148C161.102 36.4469 159.688 35.0642 158.645 33.2667C157.63 31.4691 157.122 29.3674 157.122 26.9615C157.122 24.5832 157.643 22.4953 158.686 20.6978C159.729 18.8726 161.156 17.476 162.968 16.5081C164.779 15.5402 166.81 15.0563 169.061 15.0563C171.312 15.0563 173.343 15.5402 175.154 16.5081C176.966 17.476 178.393 18.8726 179.436 20.6978C180.479 22.4953 181 24.5832 181 26.9615C181 29.3398 180.465 31.4415 179.395 33.2667C178.352 35.0642 176.911 36.4469 175.072 37.4148C173.26 38.3827 171.229 38.8667 168.979 38.8667ZM168.979 32.7274C170.324 32.7274 171.463 32.2296 172.396 31.2341C173.356 30.2385 173.837 28.8143 173.837 26.9615C173.837 25.1086 173.37 23.6844 172.437 22.6889C171.531 21.6933 170.406 21.1956 169.061 21.1956C167.689 21.1956 166.55 21.6933 165.644 22.6889C164.738 23.6568 164.285 25.081 164.285 26.9615C164.285 28.8143 164.724 30.2385 165.603 31.2341C166.508 32.2296 167.634 32.7274 168.979 32.7274Z" fill="#122428"/>
<rect width="48" height="48" rx="14" fill="#1CB779"/>
<path d="M26.2771 20.6083L36.9042 11C31.3206 11.0034 25.9327 13.0882 21.764 16.8583L11 26.5917H22.4947L12.1084 36C17.3996 35.9983 22.4965 33.9764 26.3865 30.3361L30.3878 26.5917L37 20.6083H26.2771Z" fill="white"/>
</svg>
