<svg width="144" height="43" viewBox="0 0 144 43" fill="none" xmlns="http://www.w3.org/2000/svg">
<path d="M60.8109 9L65.1479 37.7025H57.3916L57.0137 32.5435H54.2962L53.8463 37.7025H46L49.8512 9H60.8109ZM56.7977 27.4554C56.4138 24.2052 56.0299 20.1926 55.646 15.4177C54.8781 20.9018 54.3982 24.9143 54.2063 27.4554H56.7977Z" fill="black"/>
<path d="M74.5671 23.2892H67.7466V21.7114C67.7466 19.8912 67.9565 18.4907 68.3764 17.5097C68.8084 16.5169 69.6662 15.6423 70.9499 14.8859C72.2336 14.1295 73.9013 13.7512 75.9528 13.7512C78.4123 13.7512 80.2659 14.1826 81.5137 15.0454C82.7614 15.8964 83.5112 16.9483 83.7632 18.2011C84.0151 19.4421 84.1411 22.0068 84.1411 25.8953V37.7025H77.0686V35.6105C76.6247 36.4497 76.0488 37.082 75.341 37.5075C74.6451 37.9211 73.8113 38.128 72.8395 38.128C71.5678 38.128 70.398 37.7793 69.3302 37.082C68.2745 36.3729 67.7466 34.8305 67.7466 32.4548V30.5224C67.7466 28.7614 68.0285 27.5618 68.5924 26.9235C69.1563 26.2853 70.554 25.5407 72.7855 24.6898C75.173 23.7679 76.4507 23.1474 76.6187 22.8283C76.7867 22.5091 76.8706 21.8591 76.8706 20.8781C76.8706 19.6489 76.7747 18.8512 76.5827 18.4848C76.4027 18.1066 76.0968 17.9175 75.6649 17.9175C75.173 17.9175 74.8671 18.077 74.7471 18.3961C74.6271 18.7034 74.5671 19.513 74.5671 20.8249V23.2892ZM76.8706 26.5158C75.7069 27.3549 75.029 28.0582 74.8371 28.6255C74.6571 29.1928 74.5671 30.0083 74.5671 31.072C74.5671 32.2894 74.6451 33.0753 74.8011 33.4299C74.9691 33.7845 75.293 33.9618 75.7729 33.9618C76.2288 33.9618 76.5227 33.8259 76.6547 33.554C76.7987 33.2704 76.8706 32.5376 76.8706 31.3557V26.5158Z" fill="black"/>
<path d="M103.71 14.1767L101.623 31.1961C101.299 33.8909 101.023 35.7287 100.795 36.7097C100.579 37.6907 100.213 38.5003 99.697 39.1385C99.1811 39.7767 98.4613 40.2436 97.5375 40.5391C96.6257 40.8464 95.162 41 93.1464 41H88.7373V37.2416C89.8651 37.2416 90.5909 37.1884 90.9149 37.082C91.2388 36.9638 91.4008 36.7097 91.4008 36.3197C91.4008 36.1306 91.2508 35.3091 90.9509 33.8554L86.9737 14.1767H93.5783L95.9538 30.0438L97.1056 14.1767H103.71Z" fill="black"/>
<path d="M123.297 22.4382V28.2C123.297 30.3156 123.189 31.8698 122.973 32.8626C122.757 33.8436 122.295 34.7655 121.588 35.6283C120.88 36.4792 119.968 37.1115 118.852 37.5252C117.748 37.9271 116.477 38.128 115.037 38.128C113.429 38.128 112.068 37.9566 110.952 37.6138C109.836 37.2593 108.966 36.7333 108.342 36.036C107.73 35.3269 107.293 34.4759 107.029 33.4831C106.765 32.4785 106.633 30.9775 106.633 28.9801V22.9524C106.633 20.7658 106.873 19.058 107.353 17.8288C107.832 16.5996 108.696 15.6127 109.944 14.8681C111.192 14.1235 112.787 13.7512 114.731 13.7512C116.363 13.7512 117.76 13.9935 118.924 14.4781C120.1 14.9509 121.006 15.5714 121.642 16.3396C122.277 17.1078 122.709 17.8997 122.937 18.7152C123.177 19.5307 123.297 20.7717 123.297 22.4382ZM116.027 20.6654C116.027 19.4598 115.961 18.7034 115.829 18.3961C115.697 18.077 115.415 17.9175 114.983 17.9175C114.551 17.9175 114.263 18.077 114.119 18.3961C113.975 18.7034 113.903 19.4598 113.903 20.6654V31.2848C113.903 32.3958 113.975 33.1226 114.119 33.4654C114.263 33.7963 114.545 33.9618 114.965 33.9618C115.397 33.9618 115.679 33.8081 115.811 33.5008C115.955 33.1935 116.027 32.5317 116.027 31.5152V20.6654Z" fill="black"/>
<path d="M144 22.4382V28.2C144 30.3156 143.892 31.8698 143.676 32.8626C143.46 33.8436 142.998 34.7655 142.29 35.6283C141.583 36.4792 140.671 37.1115 139.555 37.5252C138.451 37.9271 137.179 38.128 135.74 38.128C134.132 38.128 132.77 37.9566 131.655 37.6138C130.539 37.2593 129.669 36.7333 129.045 36.036C128.433 35.3269 127.995 34.4759 127.731 33.4831C127.468 32.4785 127.336 30.9775 127.336 28.9801V22.9524C127.336 20.7658 127.575 19.058 128.055 17.8288C128.535 16.5996 129.399 15.6127 130.647 14.8681C131.895 14.1235 133.49 13.7512 135.434 13.7512C137.065 13.7512 138.463 13.9935 139.627 14.4781C140.803 14.9509 141.708 15.5714 142.344 16.3396C142.98 17.1078 143.412 17.8997 143.64 18.7152C143.88 19.5307 144 20.7717 144 22.4382ZM136.73 20.6654C136.73 19.4598 136.664 18.7034 136.532 18.3961C136.4 18.077 136.118 17.9175 135.686 17.9175C135.254 17.9175 134.966 18.077 134.822 18.3961C134.678 18.7034 134.606 19.4598 134.606 20.6654V31.2848C134.606 32.3958 134.678 33.1226 134.822 33.4654C134.966 33.7963 135.248 33.9618 135.668 33.9618C136.1 33.9618 136.382 33.8081 136.514 33.5008C136.658 33.1935 136.73 32.5317 136.73 31.5152V20.6654Z" fill="black"/>
<path fill-rule="evenodd" clip-rule="evenodd" d="M18.5 0C28.7175 0 37 9.41519 37 21.0303C37.0047 24.2589 36.3512 27.4458 35.0898 30.3455C34.0755 32.6735 31.07 32.4691 30.3159 30.0191L24.9732 12.661C24.1687 10.0465 20.8837 10.0465 20.0793 12.661L12.4869 37.3271C11.9391 39.107 10.0582 39.8404 8.64626 38.8299C3.45102 35.1075 0 28.5266 0 21.0303C0 9.41519 8.28251 0 18.5 0ZM26.712 35.4055C28.1032 36.8075 27.7613 39.361 26.0596 40.2286C23.6845 41.4394 21.1068 42.0639 18.4994 42.0603H18.4395C16.0888 42.0518 14.9865 38.7836 16.7378 37.0191L20.7984 32.9279C21.2733 32.4493 21.8884 32.1847 22.5258 32.1847C23.1633 32.1847 23.7783 32.4493 24.2532 32.9279L26.712 35.4055Z" fill="#FE5656"/>
</svg>
