<svg width="189" height="56" viewBox="0 0 189 56" fill="none" xmlns="http://www.w3.org/2000/svg">
<g filter="url(#filter0_d_0_1523)">
<path d="M72.5472 38.8252C70.4338 38.8252 68.54 38.4795 66.8658 37.7881C65.1916 37.0968 63.8467 36.0736 62.8312 34.7185C61.8431 33.3635 61.3216 31.7318 61.2667 29.8237H68.7596C68.8694 30.9022 69.2399 31.7318 69.8712 32.3126C70.5024 32.8657 71.3258 33.1422 72.3413 33.1422C73.3843 33.1422 74.2077 32.9072 74.8115 32.437C75.4153 31.9393 75.7173 31.2617 75.7173 30.4044C75.7173 29.6854 75.4702 29.0909 74.9762 28.6207C74.5096 28.1506 73.9195 27.7635 73.2059 27.4593C72.5197 27.1551 71.5317 26.8094 70.2417 26.4222C68.3753 25.8415 66.8521 25.2607 65.6719 24.68C64.4917 24.0993 63.4762 23.242 62.6253 22.1081C61.7745 20.9743 61.3491 19.4948 61.3491 17.6696C61.3491 14.9595 62.3234 12.844 64.2721 11.323C66.2208 9.77432 68.7596 9 71.8885 9C75.0723 9 77.6385 9.77432 79.5872 11.323C81.5359 12.844 82.5789 14.9733 82.7161 17.7111H75.0997C75.0448 16.7709 74.7017 16.038 74.0705 15.5126C73.4392 14.9595 72.6295 14.683 71.6415 14.683C70.7906 14.683 70.1045 14.918 69.583 15.3881C69.0615 15.8306 68.8008 16.4805 68.8008 17.3378C68.8008 18.278 69.2399 19.0109 70.1182 19.5363C70.9965 20.0617 72.3688 20.6286 74.2352 21.237C76.1015 21.8731 77.6111 22.4815 78.7638 23.0622C79.944 23.643 80.9595 24.4864 81.8104 25.5926C82.6612 26.6988 83.0866 28.123 83.0866 29.8652C83.0866 31.5244 82.6612 33.0316 81.8104 34.3867C80.987 35.7417 79.7793 36.8202 78.1874 37.6222C76.5955 38.4242 74.7155 38.8252 72.5472 38.8252Z" fill="#122428"/>
<path d="M86.0193 26.92C86.0193 24.5417 86.4584 22.4538 87.3367 20.6563C88.2425 18.8588 89.4638 17.476 91.0008 16.5081C92.5378 15.5402 94.2532 15.0563 96.147 15.0563C97.7664 15.0563 99.1799 15.3881 100.388 16.0518C101.623 16.7156 102.569 17.5867 103.228 18.6652V15.3881H110.268V38.5348H103.228V35.2578C102.542 36.3363 101.581 37.2074 100.346 37.8711C99.1387 38.5348 97.7252 38.8667 96.1059 38.8667C94.2395 38.8667 92.5378 38.3827 91.0008 37.4148C89.4638 36.4193 88.2425 35.0227 87.3367 33.2252C86.4584 31.4 86.0193 29.2983 86.0193 26.92ZM103.228 26.9615C103.228 25.1916 102.734 23.7951 101.746 22.7719C100.785 21.7486 99.6053 21.237 98.2055 21.237C96.8057 21.237 95.6118 21.7486 94.6238 22.7719C93.6631 23.7674 93.1828 25.1501 93.1828 26.92C93.1828 28.6899 93.6631 30.1002 94.6238 31.1511C95.6118 32.1743 96.8057 32.6859 98.2055 32.6859C99.6053 32.6859 100.785 32.1743 101.746 31.1511C102.734 30.1279 103.228 28.7314 103.228 26.9615Z" fill="#122428"/>
<path d="M124.707 38.8667C122.703 38.8667 120.919 38.521 119.355 37.8296C117.79 37.1383 116.555 36.198 115.65 35.0089C114.744 33.7921 114.236 32.437 114.126 30.9437H121.084C121.166 31.7457 121.537 32.3956 122.195 32.8933C122.854 33.3911 123.664 33.64 124.624 33.64C125.503 33.64 126.175 33.4741 126.642 33.1422C127.136 32.7827 127.383 32.3264 127.383 31.7733C127.383 31.1096 127.04 30.6257 126.354 30.3215C125.667 29.9896 124.556 29.6301 123.019 29.243C121.372 28.8558 120 28.4548 118.902 28.04C117.804 27.5975 116.857 26.92 116.061 26.0074C115.265 25.0672 114.867 23.8089 114.867 22.2326C114.867 20.9052 115.224 19.7022 115.938 18.6237C116.679 17.5175 117.749 16.6464 119.149 16.0104C120.576 15.3743 122.264 15.0563 124.213 15.0563C127.095 15.0563 129.359 15.7753 131.006 17.2133C132.68 18.6514 133.641 20.5595 133.888 22.9378H127.383C127.273 22.1358 126.916 21.4998 126.312 21.0296C125.736 20.5595 124.968 20.3244 124.007 20.3244C123.184 20.3244 122.552 20.4904 122.113 20.8222C121.674 21.1264 121.454 21.5551 121.454 22.1081C121.454 22.7719 121.798 23.2696 122.484 23.6015C123.197 23.9333 124.295 24.2652 125.777 24.597C127.479 25.0395 128.865 25.482 129.935 25.9244C131.006 26.3393 131.939 27.0306 132.735 27.9985C133.558 28.9388 133.984 30.2109 134.011 31.8148C134.011 33.1699 133.627 34.3867 132.858 35.4652C132.117 36.516 131.033 37.3457 129.606 37.9541C128.206 38.5625 126.573 38.8667 124.707 38.8667Z" fill="#122428"/>
<path d="M151.904 38.5348L147.499 32.1052L143.794 38.5348H136.177L143.753 26.7126L135.972 15.3881H143.876L148.281 21.7763L151.987 15.3881H159.603L151.904 27.0444L159.809 38.5348H151.904Z" fill="#122428"/>
<path d="M172.979 38.8667C170.728 38.8667 168.697 38.3827 166.885 37.4148C165.101 36.4469 163.688 35.0642 162.645 33.2667C161.629 31.4691 161.122 29.3674 161.122 26.9615C161.122 24.5832 161.643 22.4953 162.686 20.6978C163.729 18.8726 165.156 17.476 166.968 16.5081C168.779 15.5402 170.81 15.0563 173.061 15.0563C175.311 15.0563 177.342 15.5402 179.154 16.5081C180.965 17.476 182.393 18.8726 183.436 20.6978C184.479 22.4953 185 24.5832 185 26.9615C185 29.3398 184.465 31.4415 183.394 33.2667C182.351 35.0642 180.911 36.4469 179.072 37.4148C177.26 38.3827 175.229 38.8667 172.979 38.8667ZM172.979 32.7274C174.323 32.7274 175.462 32.2296 176.396 31.2341C177.356 30.2385 177.837 28.8143 177.837 26.9615C177.837 25.1086 177.37 23.6844 176.437 22.6889C175.531 21.6933 174.406 21.1956 173.061 21.1956C171.689 21.1956 170.55 21.6933 169.644 22.6889C168.738 23.6568 168.285 25.081 168.285 26.9615C168.285 28.8143 168.724 30.2385 169.603 31.2341C170.508 32.2296 171.634 32.7274 172.979 32.7274Z" fill="#122428"/>
<rect x="4" width="48" height="48" rx="14" fill="#7D51F8"/>
<path d="M30.2771 20.6083L40.9042 11C35.3206 11.0034 29.9327 13.0882 25.764 16.8583L15 26.5917H26.4947L16.1084 36C21.3996 35.9983 26.4965 33.9764 30.3865 30.3361L34.3878 26.5917L41 20.6083H30.2771Z" fill="white"/>
</g>
<defs>
<filter id="filter0_d_0_1523" x="0" y="0" width="189" height="56" filterUnits="userSpaceOnUse" color-interpolation-filters="sRGB">
<feFlood flood-opacity="0" result="BackgroundImageFix"/>
<feColorMatrix in="SourceAlpha" type="matrix" values="0 0 0 0 0 0 0 0 0 0 0 0 0 0 0 0 0 0 127 0" result="hardAlpha"/>
<feOffset dy="4"/>
<feGaussianBlur stdDeviation="2"/>
<feComposite in2="hardAlpha" operator="out"/>
<feColorMatrix type="matrix" values="0 0 0 0 0 0 0 0 0 0 0 0 0 0 0 0 0 0 0.25 0"/>
<feBlend mode="normal" in2="BackgroundImageFix" result="effect1_dropShadow_0_1523"/>
<feBlend mode="normal" in="SourceGraphic" in2="effect1_dropShadow_0_1523" result="shape"/>
</filter>
</defs>
</svg>
