<svg width="136" height="35" viewBox="0 0 136 35" fill="none" xmlns="http://www.w3.org/2000/svg">
<path d="M53.2253 28.7475C51.6843 28.7475 50.3034 28.4955 49.0827 27.9914C47.8619 27.4872 46.8812 26.7411 46.1407 25.7531C45.4203 24.765 45.04 23.5753 45 22.1839H50.4636C50.5436 22.9704 50.8138 23.5753 51.2741 23.9988C51.7344 24.4021 52.3348 24.6037 53.0752 24.6037C53.8357 24.6037 54.4361 24.4323 54.8764 24.0895C55.3167 23.7265 55.5368 23.2325 55.5368 22.6074C55.5368 22.0831 55.3567 21.6496 54.9965 21.3068C54.6563 20.964 54.226 20.6817 53.7057 20.4599C53.2053 20.2381 52.4849 19.986 51.5443 19.7037C50.1834 19.2802 49.0726 18.8568 48.2121 18.4333C47.3515 18.0099 46.611 17.3848 45.9906 16.558C45.3702 15.7313 45.06 14.6525 45.06 13.3216C45.06 11.3455 45.7705 9.80288 47.1914 8.69383C48.6123 7.56461 50.4636 7 52.745 7C55.0665 7 56.9378 7.56461 58.3587 8.69383C59.7796 9.80288 60.5401 11.3556 60.6402 13.3519H55.0866C55.0465 12.6663 54.7964 12.1319 54.3361 11.7488C53.8758 11.3455 53.2854 11.1438 52.5649 11.1438C51.9445 11.1438 51.4442 11.3152 51.0639 11.658C50.6837 11.9807 50.4936 12.4545 50.4936 13.0796C50.4936 13.7652 50.8138 14.2996 51.4542 14.6827C52.0946 15.0658 53.0953 15.4792 54.4561 15.9228C55.817 16.3866 56.9177 16.8302 57.7583 17.2537C58.6189 17.6772 59.3593 18.2922 59.9797 19.0988C60.6001 19.9053 60.9103 20.9438 60.9103 22.2142C60.9103 23.4241 60.6001 24.523 59.9797 25.5111C59.3793 26.4992 58.4988 27.2856 57.338 27.8704C56.1773 28.4551 54.8064 28.7475 53.2253 28.7475Z" fill="black"/>
<path d="M63.0488 20.0667C63.0488 18.3325 63.369 16.8101 64.0094 15.4994C64.6698 14.1887 65.5604 13.1805 66.6811 12.4747C67.8018 11.7689 69.0527 11.416 70.4336 11.416C71.6143 11.416 72.645 11.658 73.5256 12.142C74.4262 12.6259 75.1166 13.2611 75.5969 14.0475V11.658H80.7303V28.5358H75.5969V26.1463C75.0966 26.9327 74.3961 27.5679 73.4955 28.0519C72.615 28.5358 71.5843 28.7778 70.4035 28.7778C69.0427 28.7778 67.8018 28.4249 66.6811 27.7191C65.5604 26.9932 64.6698 25.9749 64.0094 24.6642C63.369 23.3333 63.0488 21.8008 63.0488 20.0667ZM75.5969 20.0969C75.5969 18.8064 75.2367 17.7881 74.5162 17.042C73.8158 16.2959 72.9552 15.9228 71.9345 15.9228C70.9139 15.9228 70.0433 16.2959 69.3228 17.042C68.6224 17.7679 68.2722 18.7761 68.2722 20.0667C68.2722 21.3572 68.6224 22.3856 69.3228 23.1518C70.0433 23.8979 70.9139 24.271 71.9345 24.271C72.9552 24.271 73.8158 23.8979 74.5162 23.1518C75.2367 22.4058 75.5969 21.3874 75.5969 20.0969Z" fill="black"/>
<path d="M91.2584 28.7778C89.7975 28.7778 88.4966 28.5257 87.3559 28.0216C86.2151 27.5175 85.3146 26.8319 84.6541 25.9648C83.9937 25.0776 83.6235 24.0895 83.5434 23.0006H88.6167C88.6767 23.5854 88.9469 24.0593 89.4272 24.4222C89.9075 24.7852 90.4979 24.9667 91.1984 24.9667C91.8388 24.9667 92.3291 24.8457 92.6693 24.6037C93.0296 24.3416 93.2097 24.0088 93.2097 23.6056C93.2097 23.1216 92.9595 22.7687 92.4592 22.5469C91.9589 22.3049 91.1483 22.0428 90.0276 21.7605C88.8268 21.4782 87.8262 21.1858 87.0257 20.8833C86.2252 20.5607 85.5347 20.0667 84.9543 19.4012C84.3739 18.7156 84.0838 17.7981 84.0838 16.6488C84.0838 15.6809 84.3439 14.8037 84.8643 14.0173C85.4046 13.2107 86.1851 12.5755 87.2058 12.1117C88.2465 11.6479 89.4773 11.416 90.8982 11.416C92.9995 11.416 94.6506 11.9403 95.8514 12.9889C97.0722 14.0374 97.7727 15.4288 97.9528 17.163H93.2097C93.1296 16.5782 92.8695 16.1144 92.4292 15.7716C92.0089 15.4288 91.4485 15.2574 90.7481 15.2574C90.1477 15.2574 89.6874 15.3784 89.3672 15.6204C89.047 15.8422 88.8869 16.1547 88.8869 16.558C88.8869 17.042 89.137 17.4049 89.6374 17.6469C90.1577 17.8889 90.9582 18.1309 92.0389 18.3728C93.2797 18.6955 94.2904 19.0181 95.0709 19.3407C95.8514 19.6432 96.5318 20.1473 97.1122 20.8531C97.7126 21.5387 98.0228 22.4663 98.0428 23.6358C98.0428 24.6239 97.7626 25.5111 97.2023 26.2975C96.6619 27.0638 95.8714 27.6687 94.8307 28.1123C93.8101 28.556 92.6193 28.7778 91.2584 28.7778Z" fill="black"/>
<path d="M111.09 28.5358L107.878 23.8475L105.176 28.5358H99.6224L105.146 19.9154L99.4723 11.658H105.236L108.448 16.316L111.15 11.658H116.703L111.09 20.1574L116.854 28.5358H111.09Z" fill="black"/>
<path d="M126.457 28.7778C124.815 28.7778 123.334 28.4249 122.014 27.7191C120.713 27.0134 119.682 26.0051 118.922 24.6944C118.181 23.3837 117.811 21.8512 117.811 20.0969C117.811 18.3628 118.191 16.8403 118.952 15.5296C119.712 14.1988 120.753 13.1805 122.074 12.4747C123.395 11.7689 124.875 11.416 126.517 11.416C128.158 11.416 129.639 11.7689 130.959 12.4747C132.28 13.1805 133.321 14.1988 134.081 15.5296C134.842 16.8403 135.222 18.3628 135.222 20.0969C135.222 21.8311 134.832 23.3636 134.051 24.6944C133.291 26.0051 132.24 27.0134 130.899 27.7191C129.579 28.4249 128.098 28.7778 126.457 28.7778ZM126.457 24.3012C127.437 24.3012 128.268 23.9383 128.948 23.2123C129.649 22.4864 129.999 21.4479 129.999 20.0969C129.999 18.7459 129.659 17.7074 128.978 16.9815C128.318 16.2556 127.497 15.8926 126.517 15.8926C125.516 15.8926 124.685 16.2556 124.025 16.9815C123.365 17.6872 123.034 18.7257 123.034 20.0969C123.034 21.4479 123.354 22.4864 123.995 23.2123C124.655 23.9383 125.476 24.3012 126.457 24.3012Z" fill="black"/>
<path d="M0 10.2083C0 4.57043 4.57043 0 10.2083 0H24.7917C30.4296 0 35 4.57043 35 10.2083V24.7917C35 30.4296 30.4296 35 24.7917 35H10.2083C4.57043 35 0 30.4296 0 24.7917V10.2083Z" fill="#1E78FF"/>
<path d="M19.1604 15.0268L26.9094 8.02075C22.838 8.02324 18.9093 9.54339 15.8696 12.2925L8.02087 19.3897H16.4025L8.8291 26.2499C12.6872 26.2487 16.4037 24.7744 19.2402 22.12L22.1578 19.3897L26.9792 15.0268H19.1604Z" fill="white"/>
</svg>
