<svg width="117" height="43" viewBox="0 0 117 43" fill="none" xmlns="http://www.w3.org/2000/svg">
<path d="M57.6006 3.97987C58.1341 3.90777 58.7686 3.85009 59.504 3.80683C60.2394 3.76357 60.8811 3.74194 61.429 3.74194C61.9626 3.74194 62.597 3.76357 63.3325 3.80683C64.0823 3.85009 64.7168 3.92219 65.2359 4.02313L74.6016 33.0936C74.1401 33.3531 73.5489 33.5478 72.8279 33.6776C72.1069 33.8218 71.4292 33.8939 70.7947 33.8939C69.7565 33.8939 68.9418 33.656 68.3506 33.1801C67.7593 32.6898 67.2619 31.7381 66.8581 30.325L63.5487 18.7963C63.2027 17.5706 62.8061 16.1574 62.3591 14.5568C61.9265 12.9562 61.5372 11.4566 61.1911 10.0578H60.9315C60.7152 11.2259 60.398 12.5669 59.9798 14.081C59.5761 15.5807 59.2084 16.8929 58.8767 18.0176L54.2479 33.5694C53.8442 33.6704 53.4044 33.7353 52.9285 33.7641C52.4527 33.7929 51.9624 33.8074 51.4577 33.8074C50.953 33.8074 50.3906 33.7713 49.7706 33.6992C49.1505 33.6271 48.6458 33.519 48.2565 33.3748L48.0186 33.0287L57.6006 3.97987ZM57.9899 27.2103C57.788 27.2103 57.5429 27.2103 57.2545 27.2103C56.9661 27.1959 56.6777 27.1886 56.3893 27.1886C56.1153 27.1742 55.8774 27.167 55.6755 27.167H52.2364L54.2696 21.9975H57.2761C57.478 21.9975 57.7159 21.9975 57.9899 21.9975C58.2639 21.9831 58.5378 21.9759 58.8118 21.9759C59.0858 21.9614 59.3165 21.9542 59.504 21.9542H62.8133C63.0152 21.9542 63.2531 21.9614 63.5271 21.9759C63.8011 21.9759 64.0751 21.9831 64.3491 21.9975C64.623 21.9975 64.861 21.9975 65.0628 21.9975H68.1775L69.843 27.167H66.4255C66.2236 27.167 65.9785 27.1742 65.6901 27.1886C65.4017 27.1886 65.1133 27.1959 64.8249 27.2103C64.5509 27.2103 64.313 27.2103 64.1111 27.2103H57.9899Z" fill="white"/>
<path d="M90.0936 32.9422C89.56 34.9321 88.8967 36.6841 88.1036 38.1982C87.325 39.7123 86.2651 40.8875 84.9241 41.7239C83.583 42.5746 81.8094 43 79.6031 43C78.7668 43 77.8511 42.9063 76.8561 42.7188C75.8612 42.5314 75.0753 42.3367 74.4985 42.1348C74.4264 41.3994 74.5201 40.5703 74.7797 39.6474C75.0392 38.7245 75.3853 38.018 75.8179 37.5277C76.2649 37.6719 76.8345 37.8161 77.5267 37.9603C78.2188 38.1045 78.911 38.1766 79.6031 38.1766C80.3674 38.1766 81.0307 38.0252 81.5931 37.7224C82.1554 37.4195 82.6313 36.9869 83.0206 36.4246C83.4244 35.8622 83.7416 35.1917 83.9723 34.413L84.1454 33.8074C83.0062 33.7929 82.0689 33.5983 81.3335 33.2234C80.5981 32.834 80.0862 32.1419 79.7978 31.1469L74.6932 12.4804C75.3565 12.1776 76.0486 11.9541 76.7696 11.8099C77.4906 11.6657 78.1179 11.5936 78.6514 11.5936C79.4301 11.5936 80.079 11.7882 80.5981 12.1776C81.1172 12.5669 81.5138 13.2951 81.7877 14.3622L83.9291 22.9059C84.0733 23.4106 84.2103 24.0235 84.34 24.7445C84.4698 25.4655 84.5924 26.1793 84.7078 26.8858C84.8231 27.5924 84.9168 28.1908 84.9889 28.6811C85.0178 28.883 85.1331 28.9839 85.335 28.9839L89.25 12.0045C89.6105 11.8892 90.0215 11.8171 90.4829 11.7882C90.9588 11.745 91.3986 11.7233 91.8023 11.7233C92.3503 11.7233 92.9127 11.7522 93.4895 11.8099C94.0807 11.8675 94.6647 11.9973 95.2415 12.1992L95.4794 12.6102L90.0936 32.9422Z" fill="white"/>
<path d="M116.415 22.7545C116.415 25.0473 116.04 27.0517 115.29 28.7676C114.54 30.4692 113.43 31.7958 111.959 32.7475C110.488 33.6848 108.671 34.1534 106.508 34.1534C104.345 34.1534 102.528 33.6776 101.058 32.7259C99.5867 31.7742 98.4764 30.4475 97.7265 28.746C96.9911 27.03 96.6234 25.0329 96.6234 22.7545C96.6234 20.4474 96.9983 18.443 97.7482 16.7415C98.498 15.0255 99.6083 13.6989 101.079 12.7616C102.55 11.8099 104.36 11.334 106.508 11.334C108.686 11.334 110.51 11.8099 111.981 12.7616C113.451 13.7133 114.555 15.0471 115.29 16.7631C116.04 18.4646 116.415 20.4618 116.415 22.7545ZM103.242 22.7545C103.242 23.9658 103.321 25.0689 103.48 26.0639C103.639 27.0589 103.949 27.852 104.41 28.4432C104.886 29.0344 105.593 29.33 106.53 29.33C107.467 29.33 108.167 29.0344 108.628 28.4432C109.089 27.852 109.399 27.0589 109.558 26.0639C109.717 25.0689 109.796 23.9658 109.796 22.7545C109.796 21.5433 109.717 20.4401 109.558 19.4452C109.399 18.4358 109.089 17.6355 108.628 17.0443C108.167 16.4531 107.467 16.1574 106.53 16.1574C105.593 16.1574 104.886 16.4531 104.41 17.0443C103.949 17.6355 103.639 18.4358 103.48 19.4452C103.321 20.4401 103.242 21.5433 103.242 22.7545Z" fill="white"/>
<path d="M25.0127 37.3048C25.3199 38.3662 26.4344 38.987 27.4598 38.5755C30.3991 37.3958 33.0258 35.5311 35.1147 33.1253C37.6424 30.2143 39.2752 26.635 39.8168 22.8179C40.3583 19.0009 39.7855 15.1087 38.1673 11.6095C36.549 8.11024 33.9543 5.15309 30.6951 3.09369C27.436 1.0343 23.6512 -0.0396178 19.7962 0.00111729C15.9411 0.0418524 12.1799 1.19551 8.96501 3.32331C5.7501 5.45111 3.21842 8.46244 1.67448 11.9951C0.398496 14.9146 -0.157925 18.0874 0.0385168 21.2485C0.107053 22.3513 1.14622 23.0914 2.23672 22.9131C3.32723 22.7348 4.05345 21.7049 4.0125 20.6006C3.92366 18.2046 4.37408 15.8102 5.3411 13.5976C6.57625 10.7715 8.6016 8.3624 11.1735 6.66016C13.7454 4.95792 16.7544 4.03499 19.8384 4.00241C22.9225 3.96982 25.9503 4.82895 28.5576 6.47647C31.1649 8.12398 33.2407 10.4897 34.5353 13.2891C35.8299 16.0884 36.2882 19.2022 35.8549 22.2559C35.4217 25.3095 34.1155 28.173 32.0933 30.5018C30.5101 32.325 28.5409 33.7598 26.3388 34.7082C25.3239 35.1453 24.7056 36.2433 25.0127 37.3048Z" fill="#FB9638"/>
<path d="M4.72914 29.1351C3.68098 29.7613 3.32961 31.1277 4.0676 32.1004C5.40414 33.8621 7.02669 35.3942 8.87237 36.6305C10.718 37.8667 12.7523 38.7841 14.8901 39.3497C16.0705 39.6619 17.2003 38.817 17.3805 37.6094C17.5607 36.4018 16.7206 35.2919 15.5506 34.9428C14.0571 34.4972 12.6349 33.8289 11.333 32.9569C10.0312 32.0849 8.87193 31.024 7.89147 29.8125C7.12336 28.8634 5.7773 28.5089 4.72914 29.1351Z" fill="#FB9638"/>
<path d="M29.3029 20.299C30.3841 20.355 31.3237 19.5181 31.1891 18.444C30.9805 16.7795 30.3966 15.1749 29.4712 13.7555C28.1869 11.7856 26.3109 10.2738 24.1131 9.43745C21.9152 8.60113 19.5088 8.48341 17.2398 9.10123C14.9708 9.71904 12.9562 11.0405 11.4858 12.8757C10.0153 14.7108 9.1648 16.9651 9.0565 19.3142C8.9482 21.6632 9.5877 23.9862 10.8831 25.9488C12.1784 27.9115 14.0628 29.4128 16.2653 30.2367C17.8524 30.8304 19.5456 31.0505 21.2155 30.8912C22.2932 30.7884 22.9051 29.6889 22.6148 28.646C22.3245 27.6031 21.2355 27.0221 20.1529 27.0211C19.2996 27.0202 18.448 26.8676 17.639 26.5649C16.2133 26.0316 14.9935 25.0598 14.155 23.7894C13.3165 22.5189 12.9026 21.0153 12.9727 19.4947C13.0428 17.9741 13.5933 16.515 14.5451 15.3271C15.497 14.1392 16.801 13.2837 18.2697 12.8838C19.7385 12.4839 21.2962 12.5601 22.7188 13.1015C24.1415 13.6428 25.3559 14.6214 26.1872 15.8966C26.6589 16.6201 26.9936 17.418 27.1804 18.2506C27.4175 19.3069 28.2218 20.2431 29.3029 20.299Z" fill="white"/>
<path d="M22.9721 20.0075C22.9721 21.6446 21.645 22.9716 20.008 22.9716C18.371 22.9716 17.0439 21.6446 17.0439 20.0075C17.0439 18.3705 18.371 17.0435 20.008 17.0435C21.645 17.0435 22.9721 18.3705 22.9721 20.0075Z" fill="#FB9638"/>
</svg>
