<svg width="181" height="48" viewBox="0 0 181 48" fill="none" xmlns="http://www.w3.org/2000/svg">
<path d="M68.5472 38.8252C66.4338 38.8252 64.54 38.4795 62.8658 37.7881C61.1916 37.0968 59.8467 36.0736 58.8312 34.7185C57.8431 33.3635 57.3216 31.7318 57.2667 29.8237H64.7596C64.8694 30.9022 65.2399 31.7318 65.8712 32.3126C66.5024 32.8657 67.3258 33.1422 68.3413 33.1422C69.3843 33.1422 70.2077 32.9072 70.8115 32.437C71.4153 31.9393 71.7173 31.2617 71.7173 30.4044C71.7173 29.6854 71.4702 29.0909 70.9762 28.6207C70.5096 28.1506 69.9195 27.7635 69.2059 27.4593C68.5197 27.1551 67.5317 26.8094 66.2417 26.4222C64.3753 25.8415 62.8521 25.2607 61.6719 24.68C60.4917 24.0993 59.4762 23.242 58.6253 22.1081C57.7745 20.9743 57.3491 19.4948 57.3491 17.6696C57.3491 14.9595 58.3234 12.844 60.2721 11.323C62.2208 9.77432 64.7596 9 67.8885 9C71.0723 9 73.6385 9.77432 75.5872 11.323C77.5359 12.844 78.5789 14.9733 78.7161 17.7111H71.0997C71.0448 16.7709 70.7017 16.038 70.0705 15.5126C69.4392 14.9595 68.6295 14.683 67.6415 14.683C66.7906 14.683 66.1045 14.918 65.583 15.3881C65.0615 15.8306 64.8008 16.4805 64.8008 17.3378C64.8008 18.278 65.2399 19.0109 66.1182 19.5363C66.9965 20.0617 68.3688 20.6286 70.2352 21.237C72.1015 21.8731 73.6111 22.4815 74.7638 23.0622C75.944 23.643 76.9595 24.4864 77.8104 25.5926C78.6612 26.6988 79.0866 28.123 79.0866 29.8652C79.0866 31.5244 78.6612 33.0316 77.8104 34.3867C76.987 35.7417 75.7793 36.8202 74.1874 37.6222C72.5955 38.4242 70.7155 38.8252 68.5472 38.8252Z" fill="white"/>
<path d="M82.0193 26.92C82.0193 24.5417 82.4584 22.4538 83.3367 20.6563C84.2425 18.8588 85.4638 17.476 87.0008 16.5081C88.5378 15.5402 90.2532 15.0563 92.147 15.0563C93.7664 15.0563 95.1799 15.3881 96.3875 16.0518C97.6226 16.7156 98.5695 17.5867 99.2282 18.6652V15.3881H106.268V38.5348H99.2282V35.2578C98.542 36.3363 97.5814 37.2074 96.3463 37.8711C95.1387 38.5348 93.7252 38.8667 92.1059 38.8667C90.2395 38.8667 88.5378 38.3827 87.0008 37.4148C85.4638 36.4193 84.2425 35.0227 83.3367 33.2252C82.4584 31.4 82.0193 29.2983 82.0193 26.92ZM99.2282 26.9615C99.2282 25.1916 98.7342 23.7951 97.7461 22.7719C96.7855 21.7486 95.6053 21.237 94.2055 21.237C92.8057 21.237 91.6118 21.7486 90.6238 22.7719C89.6631 23.7674 89.1828 25.1501 89.1828 26.92C89.1828 28.6899 89.6631 30.1002 90.6238 31.1511C91.6118 32.1743 92.8057 32.6859 94.2055 32.6859C95.6053 32.6859 96.7855 32.1743 97.7461 31.1511C98.7342 30.1279 99.2282 28.7314 99.2282 26.9615Z" fill="white"/>
<path d="M120.707 38.8667C118.703 38.8667 116.919 38.521 115.355 37.8296C113.79 37.1383 112.555 36.198 111.65 35.0089C110.744 33.7921 110.236 32.437 110.126 30.9437H117.084C117.166 31.7457 117.537 32.3956 118.195 32.8933C118.854 33.3911 119.664 33.64 120.624 33.64C121.503 33.64 122.175 33.4741 122.642 33.1422C123.136 32.7827 123.383 32.3264 123.383 31.7733C123.383 31.1096 123.04 30.6257 122.354 30.3215C121.667 29.9896 120.556 29.6301 119.019 29.243C117.372 28.8558 116 28.4548 114.902 28.04C113.804 27.5975 112.857 26.92 112.061 26.0074C111.265 25.0672 110.867 23.8089 110.867 22.2326C110.867 20.9052 111.224 19.7022 111.938 18.6237C112.679 17.5175 113.749 16.6464 115.149 16.0104C116.576 15.3743 118.264 15.0563 120.213 15.0563C123.095 15.0563 125.359 15.7753 127.006 17.2133C128.68 18.6514 129.641 20.5595 129.888 22.9378H123.383C123.273 22.1358 122.916 21.4998 122.312 21.0296C121.736 20.5595 120.968 20.3244 120.007 20.3244C119.184 20.3244 118.552 20.4904 118.113 20.8222C117.674 21.1264 117.454 21.5551 117.454 22.1081C117.454 22.7719 117.798 23.2696 118.484 23.6015C119.197 23.9333 120.295 24.2652 121.777 24.597C123.479 25.0395 124.865 25.482 125.935 25.9244C127.006 26.3393 127.939 27.0306 128.735 27.9985C129.558 28.9388 129.984 30.2109 130.011 31.8148C130.011 33.1699 129.627 34.3867 128.858 35.4652C128.117 36.516 127.033 37.3457 125.606 37.9541C124.206 38.5625 122.573 38.8667 120.707 38.8667Z" fill="white"/>
<path d="M147.904 38.5348L143.499 32.1052L139.794 38.5348H132.177L139.753 26.7126L131.972 15.3881H139.876L144.281 21.7763L147.987 15.3881H155.603L147.904 27.0444L155.809 38.5348H147.904Z" fill="white"/>
<path d="M168.979 38.8667C166.728 38.8667 164.697 38.3827 162.885 37.4148C161.101 36.4469 159.688 35.0642 158.645 33.2667C157.629 31.4691 157.122 29.3674 157.122 26.9615C157.122 24.5832 157.643 22.4953 158.686 20.6978C159.729 18.8726 161.156 17.476 162.968 16.5081C164.779 15.5402 166.81 15.0563 169.061 15.0563C171.311 15.0563 173.342 15.5402 175.154 16.5081C176.965 17.476 178.393 18.8726 179.436 20.6978C180.479 22.4953 181 24.5832 181 26.9615C181 29.3398 180.465 31.4415 179.394 33.2667C178.351 35.0642 176.911 36.4469 175.072 37.4148C173.26 38.3827 171.229 38.8667 168.979 38.8667ZM168.979 32.7274C170.323 32.7274 171.462 32.2296 172.396 31.2341C173.356 30.2385 173.837 28.8143 173.837 26.9615C173.837 25.1086 173.37 23.6844 172.437 22.6889C171.531 21.6933 170.406 21.1956 169.061 21.1956C167.689 21.1956 166.55 21.6933 165.644 22.6889C164.738 23.6568 164.285 25.081 164.285 26.9615C164.285 28.8143 164.724 30.2385 165.603 31.2341C166.508 32.2296 167.634 32.7274 168.979 32.7274Z" fill="white"/>
<rect width="48" height="48" rx="14" fill="#F40C60"/>
<path d="M26.2771 20.6083L36.9042 11C31.3206 11.0034 25.9327 13.0882 21.764 16.8583L11 26.5917H22.4947L12.1084 36C17.3996 35.9983 22.4965 33.9764 26.3865 30.3361L30.3878 26.5917L37 20.6083H26.2771Z" fill="white"/>
</svg>
