<svg width="136" height="36" viewBox="0 0 136 36" fill="none" xmlns="http://www.w3.org/2000/svg">
<path d="M53.2253 29.0356C51.6843 29.0356 50.3034 28.7836 49.0827 28.2794C47.8619 27.7753 46.8812 27.0292 46.1407 26.0412C45.4203 25.0531 45.04 23.8634 45 22.472H50.4636C50.5436 23.2585 50.8138 23.8634 51.2741 24.2868C51.7344 24.6901 52.3348 24.8918 53.0752 24.8918C53.8357 24.8918 54.4361 24.7204 54.8764 24.3776C55.3167 24.0146 55.5368 23.5206 55.5368 22.8955C55.5368 22.3712 55.3567 21.9377 54.9965 21.5949C54.6563 21.2521 54.226 20.9698 53.7057 20.748C53.2053 20.5262 52.4849 20.2741 51.5443 19.9918C50.1834 19.5683 49.0726 19.1449 48.2121 18.7214C47.3515 18.298 46.611 17.6729 45.9906 16.8461C45.3702 16.0194 45.06 14.9406 45.06 13.6097C45.06 11.6336 45.7705 10.091 47.1914 8.98191C48.6123 7.85269 50.4636 7.28809 52.745 7.28809C55.0665 7.28809 56.9378 7.85269 58.3587 8.98191C59.7796 10.091 60.5401 11.6436 60.6402 13.6399H55.0866C55.0465 12.9543 54.7964 12.42 54.3361 12.0369C53.8758 11.6336 53.2854 11.4319 52.5649 11.4319C51.9445 11.4319 51.4442 11.6033 51.0639 11.9461C50.6837 12.2687 50.4936 12.7426 50.4936 13.3677C50.4936 14.0533 50.8138 14.5877 51.4542 14.9708C52.0946 15.3539 53.0953 15.7673 54.4561 16.2109C55.817 16.6747 56.9177 17.1183 57.7583 17.5418C58.6189 17.9652 59.3593 18.5803 59.9797 19.3869C60.6001 20.1934 60.9103 21.2319 60.9103 22.5023C60.9103 23.7122 60.6001 24.8111 59.9797 25.7992C59.3793 26.7873 58.4988 27.5737 57.338 28.1585C56.1773 28.7432 54.8064 29.0356 53.2253 29.0356Z" fill="white"/>
<path d="M63.0488 20.3548C63.0488 18.6206 63.369 17.0982 64.0094 15.7875C64.6698 14.4768 65.5604 13.4685 66.6811 12.7628C67.8018 12.057 69.0527 11.7041 70.4336 11.7041C71.6143 11.7041 72.645 11.9461 73.5256 12.4301C74.4262 12.914 75.1166 13.5492 75.5969 14.3356V11.9461H80.7303V28.8239H75.5969V26.4344C75.0966 27.2208 74.3961 27.856 73.4955 28.3399C72.615 28.8239 71.5843 29.0659 70.4035 29.0659C69.0427 29.0659 67.8018 28.713 66.6811 28.0072C65.5604 27.2813 64.6698 26.263 64.0094 24.9523C63.369 23.6214 63.0488 22.0889 63.0488 20.3548ZM75.5969 20.385C75.5969 19.0945 75.2367 18.0762 74.5162 17.3301C73.8158 16.584 72.9552 16.2109 71.9345 16.2109C70.9139 16.2109 70.0433 16.584 69.3228 17.3301C68.6224 18.056 68.2722 19.0642 68.2722 20.3548C68.2722 21.6453 68.6224 22.6737 69.3228 23.4399C70.0433 24.186 70.9139 24.5591 71.9345 24.5591C72.9552 24.5591 73.8158 24.186 74.5162 23.4399C75.2367 22.6938 75.5969 21.6755 75.5969 20.385Z" fill="white"/>
<path d="M91.2584 29.0659C89.7975 29.0659 88.4966 28.8138 87.3559 28.3097C86.2151 27.8056 85.3146 27.12 84.6541 26.2529C83.9937 25.3657 83.6235 24.3776 83.5434 23.2887H88.6167C88.6767 23.8735 88.9469 24.3473 89.4272 24.7103C89.9075 25.0733 90.4979 25.2548 91.1984 25.2548C91.8388 25.2548 92.3291 25.1338 92.6693 24.8918C93.0296 24.6296 93.2097 24.2969 93.2097 23.8936C93.2097 23.4097 92.9595 23.0568 92.4592 22.835C91.9589 22.593 91.1483 22.3309 90.0276 22.0486C88.8268 21.7663 87.8262 21.4739 87.0257 21.1714C86.2252 20.8488 85.5347 20.3548 84.9543 19.6893C84.3739 19.0037 84.0838 18.0862 84.0838 16.9369C84.0838 15.9689 84.3439 15.0918 84.8643 14.3054C85.4046 13.4988 86.1851 12.8636 87.2058 12.3998C88.2465 11.936 89.4773 11.7041 90.8982 11.7041C92.9995 11.7041 94.6506 12.2284 95.8514 13.277C97.0722 14.3255 97.7727 15.7169 97.9528 17.451H93.2097C93.1296 16.8663 92.8695 16.4025 92.4292 16.0597C92.0089 15.7169 91.4485 15.5455 90.7481 15.5455C90.1477 15.5455 89.6874 15.6665 89.3672 15.9085C89.047 16.1303 88.8869 16.4428 88.8869 16.8461C88.8869 17.3301 89.137 17.693 89.6374 17.935C90.1577 18.177 90.9582 18.4189 92.0389 18.6609C93.2797 18.9836 94.2904 19.3062 95.0709 19.6288C95.8514 19.9313 96.5318 20.4354 97.1122 21.1412C97.7126 21.8268 98.0228 22.7543 98.0428 23.9239C98.0428 24.912 97.7626 25.7992 97.2023 26.5856C96.6619 27.3519 95.8714 27.9568 94.8307 28.4004C93.8101 28.8441 92.6193 29.0659 91.2584 29.0659Z" fill="white"/>
<path d="M111.09 28.8239L107.878 24.1356L105.176 28.8239H99.6224L105.146 20.2035L99.4723 11.9461H105.236L108.448 16.6041L111.15 11.9461H116.703L111.09 20.4455L116.854 28.8239H111.09Z" fill="white"/>
<path d="M126.457 29.0659C124.815 29.0659 123.334 28.713 122.014 28.0072C120.713 27.3015 119.682 26.2932 118.922 24.9825C118.181 23.6718 117.811 22.1393 117.811 20.385C117.811 18.6508 118.191 17.1284 118.952 15.8177C119.712 14.4869 120.753 13.4685 122.074 12.7628C123.395 12.057 124.875 11.7041 126.517 11.7041C128.158 11.7041 129.639 12.057 130.959 12.7628C132.28 13.4685 133.321 14.4869 134.081 15.8177C134.842 17.1284 135.222 18.6508 135.222 20.385C135.222 22.1192 134.832 23.6517 134.051 24.9825C133.291 26.2932 132.24 27.3015 130.899 28.0072C129.579 28.713 128.098 29.0659 126.457 29.0659ZM126.457 24.5893C127.437 24.5893 128.268 24.2264 128.948 23.5004C129.649 22.7745 129.999 21.736 129.999 20.385C129.999 19.034 129.659 17.9955 128.978 17.2696C128.318 16.5436 127.497 16.1807 126.517 16.1807C125.516 16.1807 124.685 16.5436 124.025 17.2696C123.365 17.9753 123.034 19.0138 123.034 20.385C123.034 21.736 123.354 22.7745 123.995 23.5004C124.655 24.2264 125.476 24.5893 126.457 24.5893Z" fill="white"/>
<path d="M0 10.4964C0 4.85851 4.57043 0.288086 10.2083 0.288086H24.7917C30.4296 0.288086 35 4.85851 35 10.4964V25.0798C35 30.7177 30.4296 35.2881 24.7917 35.2881H10.2083C4.57043 35.2881 0 30.7177 0 25.0798V10.4964Z" fill="#7D51F8"/>
<path d="M19.1605 15.3152L26.9095 8.30908C22.8381 8.31157 18.9095 9.83172 15.8697 12.5808L8.021 19.678H16.4026L8.82922 26.5382C12.6874 26.537 16.4039 25.0627 19.2403 22.4083L22.1579 19.678L26.9793 15.3152H19.1605Z" fill="white"/>
</svg>
