<svg width="136" height="35" viewBox="0 0 136 35" fill="none" xmlns="http://www.w3.org/2000/svg">
<path d="M53.2253 28.748C51.6843 28.748 50.3034 28.496 49.0827 27.9918C47.8619 27.4877 46.8812 26.7416 46.1407 25.7536C45.4203 24.7655 45.04 23.5758 45 22.1844H50.4636C50.5436 22.9709 50.8138 23.5758 51.2741 23.9993C51.7344 24.4025 52.3348 24.6042 53.0752 24.6042C53.8357 24.6042 54.4361 24.4328 54.8764 24.09C55.3167 23.727 55.5368 23.233 55.5368 22.6079C55.5368 22.0836 55.3567 21.6501 54.9965 21.3073C54.6563 20.9645 54.226 20.6822 53.7057 20.4604C53.2053 20.2386 52.4849 19.9865 51.5443 19.7042C50.1834 19.2807 49.0726 18.8573 48.2121 18.4338C47.3515 18.0104 46.611 17.3853 45.9906 16.5585C45.3702 15.7318 45.06 14.653 45.06 13.3221C45.06 11.346 45.7705 9.80337 47.1914 8.69432C48.6123 7.5651 50.4636 7.00049 52.745 7.00049C55.0665 7.00049 56.9378 7.5651 58.3587 8.69432C59.7796 9.80337 60.5401 11.356 60.6402 13.3523H55.0866C55.0465 12.6667 54.7964 12.1324 54.3361 11.7493C53.8758 11.346 53.2854 11.1443 52.5649 11.1443C51.9445 11.1443 51.4442 11.3157 51.0639 11.6585C50.6837 11.9811 50.4936 12.455 50.4936 13.0801C50.4936 13.7657 50.8138 14.3001 51.4542 14.6832C52.0946 15.0663 53.0953 15.4797 54.4561 15.9233C55.817 16.3871 56.9177 16.8307 57.7583 17.2542C58.6189 17.6776 59.3593 18.2927 59.9797 19.0993C60.6001 19.9058 60.9103 20.9443 60.9103 22.2147C60.9103 23.4246 60.6001 24.5235 59.9797 25.5116C59.3793 26.4997 58.4988 27.2861 57.338 27.8709C56.1773 28.4556 54.8064 28.748 53.2253 28.748Z" fill="white"/>
<path d="M63.0488 20.0672C63.0488 18.333 63.369 16.8106 64.0094 15.4999C64.6698 14.1892 65.5604 13.1809 66.6811 12.4752C67.8018 11.7694 69.0527 11.4165 70.4336 11.4165C71.6143 11.4165 72.645 11.6585 73.5256 12.1425C74.4262 12.6264 75.1166 13.2616 75.5969 14.048V11.6585H80.7303V28.5363H75.5969V26.1468C75.0966 26.9332 74.3961 27.5684 73.4955 28.0523C72.615 28.5363 71.5843 28.7783 70.4035 28.7783C69.0427 28.7783 67.8018 28.4254 66.6811 27.7196C65.5604 26.9937 64.6698 25.9754 64.0094 24.6647C63.369 23.3338 63.0488 21.8013 63.0488 20.0672ZM75.5969 20.0974C75.5969 18.8069 75.2367 17.7886 74.5162 17.0425C73.8158 16.2964 72.9552 15.9233 71.9345 15.9233C70.9139 15.9233 70.0433 16.2964 69.3228 17.0425C68.6224 17.7684 68.2722 18.7766 68.2722 20.0672C68.2722 21.3577 68.6224 22.3861 69.3228 23.1523C70.0433 23.8984 70.9139 24.2715 71.9345 24.2715C72.9552 24.2715 73.8158 23.8984 74.5162 23.1523C75.2367 22.4062 75.5969 21.3879 75.5969 20.0974Z" fill="white"/>
<path d="M91.2584 28.7783C89.7975 28.7783 88.4966 28.5262 87.3559 28.0221C86.2151 27.518 85.3146 26.8324 84.6541 25.9653C83.9937 25.0781 83.6235 24.09 83.5434 23.0011H88.6167C88.6767 23.5859 88.9469 24.0597 89.4272 24.4227C89.9075 24.7857 90.4979 24.9672 91.1984 24.9672C91.8388 24.9672 92.3291 24.8462 92.6693 24.6042C93.0296 24.3421 93.2097 24.0093 93.2097 23.606C93.2097 23.1221 92.9595 22.7692 92.4592 22.5474C91.9589 22.3054 91.1483 22.0433 90.0276 21.761C88.8268 21.4787 87.8262 21.1863 87.0257 20.8838C86.2252 20.5612 85.5347 20.0672 84.9543 19.4017C84.3739 18.7161 84.0838 17.7986 84.0838 16.6493C84.0838 15.6814 84.3439 14.8042 84.8643 14.0178C85.4046 13.2112 86.1851 12.576 87.2058 12.1122C88.2465 11.6484 89.4773 11.4165 90.8982 11.4165C92.9995 11.4165 94.6506 11.9408 95.8514 12.9894C97.0722 14.0379 97.7727 15.4293 97.9528 17.1634H93.2097C93.1296 16.5787 92.8695 16.1149 92.4292 15.7721C92.0089 15.4293 91.4485 15.2579 90.7481 15.2579C90.1477 15.2579 89.6874 15.3789 89.3672 15.6209C89.047 15.8427 88.8869 16.1552 88.8869 16.5585C88.8869 17.0425 89.137 17.4054 89.6374 17.6474C90.1577 17.8894 90.9582 18.1314 92.0389 18.3733C93.2797 18.696 94.2904 19.0186 95.0709 19.3412C95.8514 19.6437 96.5318 20.1478 97.1122 20.8536C97.7126 21.5392 98.0228 22.4667 98.0428 23.6363C98.0428 24.6244 97.7626 25.5116 97.2023 26.298C96.6619 27.0643 95.8714 27.6692 94.8307 28.1128C93.8101 28.5565 92.6193 28.7783 91.2584 28.7783Z" fill="white"/>
<path d="M111.09 28.5363L107.878 23.848L105.176 28.5363H99.6224L105.146 19.9159L99.4723 11.6585H105.236L108.448 16.3165L111.15 11.6585H116.703L111.09 20.1579L116.854 28.5363H111.09Z" fill="white"/>
<path d="M126.457 28.7783C124.815 28.7783 123.334 28.4254 122.014 27.7196C120.713 27.0139 119.682 26.0056 118.922 24.6949C118.181 23.3842 117.811 21.8517 117.811 20.0974C117.811 18.3632 118.191 16.8408 118.952 15.5301C119.712 14.1993 120.753 13.1809 122.074 12.4752C123.395 11.7694 124.875 11.4165 126.517 11.4165C128.158 11.4165 129.639 11.7694 130.959 12.4752C132.28 13.1809 133.321 14.1993 134.081 15.5301C134.842 16.8408 135.222 18.3632 135.222 20.0974C135.222 21.8316 134.832 23.3641 134.051 24.6949C133.291 26.0056 132.24 27.0139 130.899 27.7196C129.579 28.4254 128.098 28.7783 126.457 28.7783ZM126.457 24.3017C127.437 24.3017 128.268 23.9388 128.948 23.2128C129.649 22.4869 129.999 21.4484 129.999 20.0974C129.999 18.7464 129.659 17.7079 128.978 16.982C128.318 16.256 127.497 15.8931 126.517 15.8931C125.516 15.8931 124.685 16.256 124.025 16.982C123.365 17.6877 123.034 18.7262 123.034 20.0974C123.034 21.4484 123.354 22.4869 123.995 23.2128C124.655 23.9388 125.476 24.3017 126.457 24.3017Z" fill="white"/>
<path d="M0 10.2088C0 4.57092 4.57043 0.000488281 10.2083 0.000488281H24.7917C30.4296 0.000488281 35 4.57092 35 10.2088V24.7922C35 30.4301 30.4296 35.0005 24.7917 35.0005H10.2083C4.57043 35.0005 0 30.4301 0 24.7922V10.2088Z" fill="#1CB779"/>
<path d="M19.1603 15.0273L26.9092 8.02124C22.8379 8.02373 18.9092 9.54388 15.8695 12.2929L8.02075 19.3902H16.4023L8.82898 26.2504C12.6871 26.2491 16.4036 24.7749 19.2401 22.1205L22.1577 19.3902L26.9791 15.0273H19.1603Z" fill="white"/>
</svg>
