<svg width="150" height="40" viewBox="0 0 150 40" fill="none" xmlns="http://www.w3.org/2000/svg">
<path d="M56.807 32.3543C55.0556 32.3543 53.4862 32.0662 52.0987 31.4901C50.7112 30.914 49.5967 30.0613 48.7551 28.9321C47.9362 27.8029 47.5041 26.4432 47.4586 24.8531H53.6681C53.7591 25.7518 54.0662 26.4432 54.5893 26.9272C55.1125 27.3881 55.7949 27.6185 56.6365 27.6185C57.5008 27.6185 58.1832 27.4226 58.6836 27.0309C59.184 26.616 59.4342 26.0514 59.4342 25.337C59.4342 24.7379 59.2295 24.2424 58.82 23.8506C58.4334 23.4588 57.9443 23.1362 57.3529 22.8827C56.7843 22.6292 55.9655 22.3411 54.8964 22.0185C53.3497 21.5346 52.0873 21.0506 51.1093 20.5667C50.1312 20.0827 49.2896 19.3683 48.5845 18.4235C47.8794 17.4786 47.5268 16.2457 47.5268 14.7247C47.5268 12.4663 48.3343 10.7033 49.9492 9.4358C51.5642 8.14527 53.6681 7.5 56.2611 7.5C58.8996 7.5 61.0264 8.14527 62.6413 9.4358C64.2562 10.7033 65.1206 12.4778 65.2343 14.7593H58.9224C58.8769 13.9757 58.5926 13.365 58.0694 12.9272C57.5463 12.4663 56.8753 12.2358 56.0564 12.2358C55.3513 12.2358 54.7827 12.4317 54.3505 12.8235C53.9183 13.1922 53.7023 13.7337 53.7023 14.4481C53.7023 15.2317 54.0662 15.8424 54.7941 16.2802C55.5219 16.7181 56.6592 17.1905 58.2059 17.6975C59.7526 18.2276 61.0036 18.7346 61.9589 19.2185C62.937 19.7025 63.7786 20.4053 64.4837 21.3272C65.1888 22.249 65.5414 23.4358 65.5414 24.8876C65.5414 26.2704 65.1888 27.5263 64.4837 28.6555C63.8013 29.7848 62.8005 30.6835 61.4813 31.3518C60.162 32.0202 58.6039 32.3543 56.807 32.3543Z" fill="#122428"/>
<path d="M67.9718 22.4333C67.9718 20.4514 68.3357 18.7115 69.0636 17.2136C69.8142 15.7156 70.8263 14.5634 72.1001 13.7568C73.3739 12.9502 74.7955 12.5469 76.3649 12.5469C77.7069 12.5469 78.8783 12.8235 79.8791 13.3765C80.9027 13.9296 81.6874 14.6556 82.2333 15.5543V12.8235H88.0675V32.1123H82.2333V29.3815C81.6646 30.2802 80.8685 31.0062 79.845 31.5593C78.8442 32.1123 77.6728 32.3889 76.3308 32.3889C74.7841 32.3889 73.3739 31.9856 72.1001 31.179C70.8263 30.3494 69.8142 29.1856 69.0636 27.6876C68.3357 26.1667 67.9718 24.4152 67.9718 22.4333ZM82.2333 22.4679C82.2333 20.993 81.8239 19.8292 81.005 18.9765C80.2089 18.1239 79.2309 17.6975 78.0708 17.6975C76.9108 17.6975 75.9214 18.1239 75.1025 18.9765C74.3064 19.8062 73.9084 20.9584 73.9084 22.4333C73.9084 23.9082 74.3064 25.0835 75.1025 25.9593C75.9214 26.8119 76.9108 27.2383 78.0708 27.2383C79.2309 27.2383 80.2089 26.8119 81.005 25.9593C81.8239 25.1066 82.2333 23.9428 82.2333 22.4679Z" fill="#122428"/>
<path d="M100.033 32.3889C98.3728 32.3889 96.8943 32.1008 95.5978 31.5247C94.3013 30.9486 93.2778 30.165 92.5272 29.1741C91.7766 28.1601 91.3558 27.0309 91.2648 25.7864H97.0308C97.0991 26.4547 97.4061 26.9963 97.952 27.4111C98.4979 27.8259 99.1689 28.0333 99.965 28.0333C100.693 28.0333 101.25 27.8951 101.637 27.6185C102.046 27.3189 102.251 26.9387 102.251 26.4778C102.251 25.9247 101.967 25.5214 101.398 25.2679C100.829 24.9914 99.9081 24.6918 98.6344 24.3691C97.2697 24.0465 96.1324 23.7123 95.2225 23.3667C94.3127 22.9979 93.528 22.4333 92.8684 21.6728C92.2087 20.8893 91.8789 19.8407 91.8789 18.5272C91.8789 17.421 92.1746 16.4185 92.766 15.5197C93.3802 14.5979 94.2672 13.872 95.4273 13.342C96.61 12.8119 98.0089 12.5469 99.6238 12.5469C102.012 12.5469 103.889 13.1461 105.253 14.3444C106.641 15.5428 107.437 17.1329 107.642 19.1148H102.251C102.16 18.4465 101.864 17.9165 101.364 17.5247C100.886 17.1329 100.249 16.937 99.4532 16.937C98.7709 16.937 98.2477 17.0753 97.8838 17.3518C97.5199 17.6053 97.3379 17.9625 97.3379 18.4235C97.3379 18.9765 97.6222 19.3914 98.1909 19.6679C98.7822 19.9444 99.6921 20.221 100.92 20.4975C102.331 20.8663 103.479 21.235 104.366 21.6037C105.253 21.9494 106.027 22.5255 106.686 23.3321C107.369 24.1156 107.721 25.1757 107.744 26.5123C107.744 27.6416 107.426 28.6555 106.789 29.5543C106.175 30.43 105.276 31.1214 104.093 31.6284C102.933 32.1354 101.58 32.3889 100.033 32.3889Z" fill="#122428"/>
<path d="M122.572 32.1123L118.922 26.7543L115.851 32.1123H109.539L115.817 22.2605L109.369 12.8235H115.919L119.57 18.1469L122.641 12.8235H128.953L122.572 22.537L129.123 32.1123H122.572Z" fill="#122428"/>
<path d="M140.037 32.3889C138.172 32.3889 136.489 31.9856 134.988 31.179C133.509 30.3724 132.338 29.2202 131.474 27.7222C130.632 26.2243 130.211 24.4728 130.211 22.4679C130.211 20.486 130.643 18.7461 131.508 17.2481C132.372 15.7272 133.555 14.5634 135.056 13.7568C136.557 12.9502 138.24 12.5469 140.106 12.5469C141.971 12.5469 143.654 12.9502 145.155 13.7568C146.656 14.5634 147.839 15.7272 148.703 17.2481C149.568 18.7461 150 20.486 150 22.4679C150 24.4498 149.556 26.2012 148.669 27.7222C147.805 29.2202 146.611 30.3724 145.087 31.179C143.586 31.9856 141.903 32.3889 140.037 32.3889ZM140.037 27.2728C141.152 27.2728 142.096 26.858 142.869 26.0284C143.665 25.1988 144.063 24.0119 144.063 22.4679C144.063 20.9239 143.677 19.737 142.903 18.9074C142.153 18.0778 141.22 17.663 140.106 17.663C138.968 17.663 138.024 18.0778 137.274 18.9074C136.523 19.714 136.148 20.9008 136.148 22.4679C136.148 24.0119 136.512 25.1988 137.24 26.0284C137.99 26.858 138.923 27.2728 140.037 27.2728Z" fill="#122428"/>
<rect width="39.779" height="40" rx="14" fill="#7D51F8"/>
<path d="M21.7766 17.1749L30.5836 9.16797C25.9563 9.17082 21.4912 10.9081 18.0365 14.0499L9.11603 22.161H18.642L10.0346 30.0013C14.4195 29.9998 18.6435 28.315 21.8673 25.2814L25.1833 22.161L30.663 17.1749H21.7766Z" fill="white"/>
</svg>
