<svg width="66" height="66" viewBox="0 0 66 66" fill="none" xmlns="http://www.w3.org/2000/svg">
<rect width="65.4182" height="65.4182" rx="32.7091" fill="#19AE93"/>
<path d="M24.5885 38.4912C24.0438 38.4912 23.5114 38.6601 23.0585 38.9764C22.6056 39.2928 22.2527 39.7424 22.0442 40.2685C21.8358 40.7946 21.7812 41.3735 21.8875 41.932C21.9938 42.4905 22.256 43.0035 22.6412 43.4062C23.0263 43.8088 23.517 44.083 24.0513 44.1941C24.5855 44.3052 25.1392 44.2482 25.6424 44.0303C26.1456 43.8124 26.5757 43.4433 26.8783 42.9699C27.1809 42.4964 27.3425 41.9398 27.3425 41.3703C27.3426 40.9922 27.2715 40.6177 27.1331 40.2684C26.9948 39.919 26.7919 39.6015 26.5362 39.3341C26.2804 39.0668 25.9768 38.8547 25.6426 38.7101C25.3084 38.5654 24.9502 38.4911 24.5885 38.4912ZM24.5885 42.2764C24.4164 42.2764 24.2482 42.2231 24.1051 42.1231C23.962 42.0232 23.8505 41.8811 23.7847 41.7149C23.7188 41.5487 23.7016 41.3658 23.7352 41.1893C23.7687 41.0129 23.8516 40.8508 23.9733 40.7236C24.095 40.5964 24.25 40.5097 24.4188 40.4746C24.5876 40.4395 24.7625 40.4575 24.9215 40.5264C25.0805 40.5952 25.2164 40.7118 25.312 40.8614C25.4076 41.011 25.4586 41.1869 25.4586 41.3668C25.459 41.4865 25.4369 41.6052 25.3933 41.716C25.3498 41.8267 25.2858 41.9274 25.205 42.0123C25.1241 42.0971 25.0281 42.1644 24.9223 42.2104C24.8165 42.2563 24.7031 42.28 24.5885 42.28V42.2764Z" fill="black"/>
<path d="M33.2271 38.4912C32.6576 38.491 32.1009 38.6596 31.6272 38.9759C31.1536 39.2921 30.7844 39.7416 30.5663 40.2677C30.3482 40.7938 30.291 41.3727 30.402 41.9313C30.5129 42.4899 30.7871 43.003 31.1897 43.4058C31.5923 43.8085 32.1053 44.0828 32.6638 44.194C33.2223 44.3052 33.8013 44.2483 34.3274 44.0304C34.8536 43.8125 35.3033 43.4435 35.6197 42.97C35.9361 42.4965 36.105 41.9398 36.105 41.3703C36.105 40.6069 35.8019 39.8748 35.2622 39.3349C34.7225 38.795 33.9905 38.4915 33.2271 38.4912ZM33.2271 42.2764C33.0472 42.2764 32.8713 42.2231 32.7217 42.1231C32.5721 42.0232 32.4556 41.8811 32.3867 41.7149C32.3179 41.5487 32.2999 41.3658 32.335 41.1893C32.37 41.0129 32.4567 40.8508 32.5839 40.7236C32.7111 40.5964 32.8732 40.5097 33.0496 40.4746C33.2261 40.4395 33.409 40.4575 33.5752 40.5264C33.7414 40.5952 33.8835 40.7118 33.9834 40.8614C34.0834 41.011 34.1367 41.1869 34.1367 41.3668C34.1372 41.4865 34.114 41.6052 34.0685 41.716C34.023 41.8267 33.9561 41.9274 33.8716 42.0123C33.7871 42.0971 33.6866 42.1644 33.576 42.2104C33.4654 42.2563 33.3469 42.28 33.2271 42.28V42.2764Z" fill="black"/>
<path d="M37.6046 37.7396H20.2812C20.1254 37.7445 19.9702 37.7184 19.8247 37.663C19.6793 37.6076 19.5467 37.5239 19.4347 37.4169C19.3227 37.3099 19.2336 37.1819 19.1728 37.0403C19.112 36.8988 19.0807 36.7466 19.0807 36.5929C19.0807 36.4391 19.112 36.287 19.1728 36.1454C19.2336 36.0038 19.3227 35.8758 19.4347 35.7688C19.5467 35.6618 19.6793 35.5781 19.8247 35.5227C19.9702 35.4673 20.1254 35.4412 20.2812 35.4461H36.6671L39.4901 22.6208C39.5463 22.3648 39.6898 22.1355 39.8966 21.9711C40.1034 21.8068 40.3611 21.7172 40.6268 21.7173H44.7423C45.0443 21.7267 45.3308 21.8517 45.5411 22.0657C45.7514 22.2798 45.869 22.5661 45.869 22.864C45.869 23.162 45.7514 23.4483 45.5411 23.6624C45.3308 23.8764 45.0443 24.0014 44.7423 24.0108H41.5642L38.7413 36.8361C38.6848 37.092 38.5413 37.3211 38.3345 37.4855C38.1278 37.6499 37.8702 37.7395 37.6046 37.7396Z" fill="black"/>
<path d="M29.0757 23.5514C29.0146 23.4988 28.9365 23.4698 28.8556 23.4698C28.7747 23.4698 28.6965 23.4988 28.6354 23.5514L22.836 28.6844V34.4856H35.1035V28.6844L29.0757 23.5514ZM28.571 31.8569C28.571 31.9417 28.5371 32.023 28.4767 32.0829C28.4163 32.1428 28.3343 32.1765 28.2489 32.1765H27.0661C26.9806 32.1765 26.8985 32.1429 26.8379 32.083C26.7774 32.0231 26.7432 31.9418 26.7429 31.8569V30.682C26.7432 30.5972 26.7774 30.5159 26.8379 30.456C26.8985 30.3961 26.9806 30.3625 27.0661 30.3625H28.2489C28.3343 30.3625 28.4163 30.3961 28.4767 30.4561C28.5371 30.516 28.571 30.5973 28.571 30.682V31.8569ZM28.571 29.2933C28.571 29.3781 28.5371 29.4594 28.4767 29.5193C28.4163 29.5792 28.3343 29.6129 28.2489 29.6129H27.0661C26.9806 29.6129 26.8985 29.5793 26.8379 29.5194C26.7774 29.4595 26.7432 29.3782 26.7429 29.2933V28.1184C26.7432 28.0336 26.7774 27.9523 26.8379 27.8924C26.8985 27.8325 26.9806 27.7989 27.0661 27.7989H28.2489C28.3343 27.7989 28.4163 27.8325 28.4767 27.8925C28.5371 27.9524 28.571 28.0337 28.571 28.1184V29.2933ZM31.1967 31.8569C31.1967 31.9417 31.1627 32.023 31.1023 32.0829C31.0419 32.1428 30.96 32.1765 30.8746 32.1765H29.6906C29.6052 32.1765 29.5233 32.1428 29.4629 32.0829C29.4025 32.023 29.3685 31.9417 29.3685 31.8569V30.682C29.3685 30.5973 29.4025 30.516 29.4629 30.4561C29.5233 30.3961 29.6052 30.3625 29.6906 30.3625H30.8746C30.96 30.3625 31.0419 30.3961 31.1023 30.4561C31.1627 30.516 31.1967 30.5973 31.1967 30.682V31.8569ZM31.1967 29.2933C31.1967 29.3781 31.1627 29.4594 31.1023 29.5193C31.0419 29.5792 30.96 29.6129 30.8746 29.6129H29.6906C29.6052 29.6129 29.5233 29.5792 29.4629 29.5193C29.4025 29.4594 29.3685 29.3781 29.3685 29.2933V28.1184C29.3685 28.0337 29.4025 27.9524 29.4629 27.8925C29.5233 27.8325 29.6052 27.7989 29.6906 27.7989H30.8746C30.96 27.7989 31.0419 27.8325 31.1023 27.8925C31.1627 27.9524 31.1967 28.0337 31.1967 28.1184V29.2933Z" fill="#FBF3D0"/>
<path d="M36.6247 26.5697L30.316 21.1958C29.9373 20.8857 29.4611 20.7159 28.9696 20.7159C28.478 20.7159 28.0019 20.8857 27.6232 21.1958L21.3156 26.5697C20.8262 26.9874 21.1622 27.7202 21.8435 27.7202H22.226C22.226 27.7202 26.5279 23.9029 27.9732 22.6581C28.6859 22.0437 29.1021 22.1001 29.7242 22.642C31.2054 23.9305 35.7131 27.726 35.7131 27.726H36.0957C36.777 27.7168 37.113 26.9874 36.6247 26.5697Z" fill="#FBF3D0"/>
<path d="M25.3396 21.9472V21.3949C25.3383 21.2808 25.289 21.1717 25.2024 21.0915C25.1158 21.0112 24.9989 20.9662 24.8771 20.9662H23.2997C23.2388 20.9662 23.1785 20.9774 23.1222 20.9993C23.066 21.0211 23.0149 21.0531 22.9718 21.0934C22.9287 21.1338 22.8946 21.1817 22.8713 21.2344C22.848 21.2871 22.836 21.3436 22.836 21.4007V23.9705L25.3396 21.9472Z" fill="#FBF3D0"/>
</svg>
