<svg width="66" height="66" viewBox="0 0 66 66" fill="none" xmlns="http://www.w3.org/2000/svg">
<rect width="65.4182" height="65.4182" rx="32.7091" fill="white"/>
<path d="M44.5876 26.056C44.245 25.5299 43.7657 25.1028 43.1991 24.8184L35.0017 20.1742C34.363 19.8145 33.6393 19.6252 32.9028 19.6252C32.1663 19.6252 31.4426 19.8145 30.8039 20.1742L22.5997 24.8184C21.9524 25.1835 21.0848 25.8617 21.0165 26.7142C20.8543 28.744 23.5185 30.0102 25.298 30.943C28.372 32.5441 30.3497 33.472 31.8474 34.9759C32.1787 35.3109 32.7013 35.8954 32.8994 36.3559C33.0958 35.8954 33.6201 35.3092 33.9531 34.9759C35.4509 33.4686 37.4336 32.5441 40.5008 30.943C42.2547 30.0286 44.8318 28.8663 44.784 26.7192C44.7694 26.4866 44.7023 26.2601 44.5876 26.056ZM32.8977 31.685C32.3835 31.6846 31.881 31.5348 31.4537 31.2543C31.0264 30.9739 30.6935 30.5755 30.4972 30.1095C30.3008 29.6435 30.2498 29.1308 30.3505 28.6364C30.4513 28.142 30.6993 27.6879 31.0633 27.3317C31.4272 26.9756 31.8906 26.7332 32.395 26.6354C32.8994 26.5375 33.4221 26.5886 33.8969 26.7821C34.3717 26.9756 34.7773 27.3028 35.0624 27.7224C35.3475 28.142 35.4993 28.6351 35.4987 29.1393C35.4978 29.815 35.2233 30.4628 34.7356 30.9401C34.2478 31.4175 33.5868 31.6854 32.8977 31.685Z" fill="url(#paint0_linear_0_4497)"/>
<path d="M40.4135 32.0915C36.8141 33.9874 34.2897 34.8719 33.3089 37.9432C33.1336 38.4337 32.9961 38.9367 32.8978 39.4479C32.8 38.9368 32.6631 38.4337 32.4883 37.9432C31.5075 34.8786 28.9815 33.9941 25.3837 32.0915C21.6511 30.132 20.8557 29.1539 20.7158 28.7309V37.4717C20.7171 38.1922 20.9092 38.8997 21.273 39.5233C21.6368 40.1469 22.1595 40.6646 22.7886 41.0245L30.8773 45.6541C31.1427 45.8141 31.4253 45.9442 31.7199 46.042C31.6221 45.6975 31.5058 45.3331 31.366 44.9452C28.8382 37.9231 24.3726 36.1977 24.3726 36.1977C24.3726 36.1977 26.4554 36.3649 29.428 39.4111C30.8705 40.8891 32.0013 42.6563 32.9045 44.4971C32.9045 44.4971 34.8896 40.9359 36.3843 39.4028C39.3586 36.3549 41.4398 36.1894 41.4398 36.1894C41.4398 36.1894 36.9708 37.9164 34.4464 44.9368C34.3082 45.3264 34.192 45.6892 34.0942 46.0353C34.3882 45.9361 34.6707 45.8061 34.9368 45.6474L43.0104 41.0245C43.6382 40.6632 44.1595 40.1448 44.5223 39.5211C44.8851 38.8974 45.0767 38.1902 45.078 37.47V28.7242C44.9415 29.1389 44.1461 30.1253 40.4135 32.0915Z" fill="url(#paint1_linear_0_4497)"/>
<defs>
<linearGradient id="paint0_linear_0_4497" x1="21.0097" y1="27.9904" x2="44.784" y2="27.9904" gradientUnits="userSpaceOnUse">
<stop stop-color="#2B88D9"/>
<stop offset="1" stop-color="#26E0F5"/>
</linearGradient>
<linearGradient id="paint1_linear_0_4497" x1="35.7524" y1="24.8922" x2="28.0769" y2="48.2115" gradientUnits="userSpaceOnUse">
<stop stop-color="#39B54A"/>
<stop offset="1" stop-color="#ACDF23"/>
</linearGradient>
</defs>
</svg>
