<svg width="65" height="65" viewBox="0 0 65 65" fill="none" xmlns="http://www.w3.org/2000/svg">
<rect width="65" height="65" rx="32.5" fill="white"/>
<path d="M36.5853 19.8889C32.3219 17.1835 26.1781 20.5786 22.866 27.4726C22.6601 27.9015 22.2132 28.8725 22.0392 29.3077C22.0392 29.3077 23.3848 28.6556 23.4406 28.5394C23.5109 28.3901 23.8413 27.7051 23.9195 27.559C26.973 21.5794 32.2564 18.6038 35.7314 20.8143C39.3005 23.0782 39.4377 29.9722 36.4273 36.2409C33.4169 42.5096 28.3841 45.7916 24.8166 43.5292C23.3576 42.6038 22.4047 40.8804 21.9897 38.7437C21.6665 38.7797 21.3396 38.766 21.0208 38.7028C21.4773 41.4114 22.6808 43.6408 24.5883 44.8505C28.8533 47.5559 34.9955 44.1608 38.3076 37.2668C41.6197 30.3729 40.8488 22.5944 36.5853 19.8889Z" fill="#4BB0EB"/>
<path d="M21.8924 32.6274C21.3581 32.6338 20.8377 32.8057 20.3965 33.1213C19.9552 33.4369 19.613 33.8822 19.4128 34.4012C19.2126 34.9201 19.1634 35.4895 19.2714 36.0377C19.3794 36.5858 19.6397 37.0883 20.0197 37.4818C20.3996 37.8753 20.8822 38.1423 21.4066 38.2491C21.931 38.356 22.4739 38.2979 22.9669 38.0823C23.46 37.8666 23.8811 37.503 24.1773 37.0372C24.4735 36.5713 24.6315 36.0241 24.6316 35.4644C24.627 34.7078 24.336 33.984 23.8224 33.452C23.3088 32.9201 22.6146 32.6234 21.8924 32.6274Z" fill="#1C75BC"/>
<path d="M21.7876 32.1304C22.6926 32.127 23.5619 32.4834 24.2048 33.1215C24.8477 33.7595 25.2116 34.627 25.2166 35.5334C25.2152 36.135 25.0519 36.725 24.7438 37.2413H33.1965C30.4278 41.8756 27.0681 42.8132 25.059 41.7383C24.5093 41.4379 24.0252 41.0304 23.6352 40.5398C23.2452 40.0491 22.9572 39.4852 22.7882 38.8813C22.9205 39.4812 23.0937 40.0714 23.3067 40.6476C24.0599 42.4249 25.4324 43.7176 27.314 43.7176C30.8848 43.7176 34.1246 39.4858 35.7446 36.0543C38.5968 30.0168 38.4676 23.4379 35.2986 21.3923C32.5472 19.615 28.4501 21.7364 25.6026 26.1276C30.5696 19.3435 35.3002 20.6883 36.1669 25.2847C36.2705 25.8614 36.3233 26.4461 36.3245 27.032C35.1032 26.8631 34.0033 26.7589 33.0153 26.7053C29.1419 26.4748 29.1419 27.1062 23.4028 30.3704C16.0563 30.443 13.5413 33.382 13.5413 33.382V34.1365C14.6964 33.6832 15.9251 33.4472 17.1657 33.4404L15.9571 35.8081C15.9571 35.8081 14.3718 36.007 13.5429 36.1632V37.2413H18.8329C18.5248 36.725 18.3615 36.135 18.3602 35.5334C18.3652 34.6272 18.7288 33.76 19.3714 33.122C20.0139 32.4841 20.8829 32.1274 21.7876 32.1304ZM30.7445 27.8907C31.6774 27.7013 33.726 27.7833 36.2867 28.1653C36.2229 29.002 36.098 29.8329 35.9132 30.6514C33.4896 30.6861 31.2661 30.6072 29.1214 30.6419C29.279 30.3783 29.3657 30.0484 29.0726 29.8527C28.6881 29.597 28.0168 30.0105 27.5141 30.6971C26.7561 30.7366 26.006 30.7966 25.2544 30.8897C25.2544 30.8897 28.926 28.2632 30.7445 27.8907Z" fill="#1C75BC"/>
<path d="M45.0062 32.6273C44.445 32.6273 43.8965 32.7937 43.43 33.1054C42.9635 33.4172 42.5998 33.8602 42.3851 34.3786C42.1704 34.897 42.1142 35.4675 42.2237 36.0178C42.3331 36.5681 42.6033 37.0736 43.0001 37.4704C43.3969 37.8671 43.9024 38.1373 44.4527 38.2468C45.003 38.3562 45.5734 38.3001 46.0918 38.0853C46.6102 37.8706 47.0533 37.507 47.365 37.0405C47.6767 36.5739 47.8431 36.0254 47.8431 35.4643C47.8431 34.7119 47.5442 33.9903 47.0122 33.4583C46.4802 32.9262 45.7586 32.6273 45.0062 32.6273Z" fill="#EBB000"/>
<path d="M51.167 33.0201C50.6704 33.0759 50.1685 33.0625 49.6756 32.9805C48.7419 32.8142 48.3137 31.756 48.3137 31.756H50.9221C50.8479 31.4756 50.7641 31.1746 50.6599 30.834C47.921 29.7417 45.1183 28.8175 42.2675 28.0666C42.0906 24.526 40.7919 21.5162 38.4568 20.0287C38.1034 19.8049 37.7274 19.6191 37.3351 19.4742C39.5896 21.1613 40.645 24.0682 40.9199 26.8911C41.1322 29.3639 40.8733 31.8547 40.1568 34.2304C39.8233 35.3755 39.4007 36.4925 38.8929 37.5713C36.7126 42.189 33.2827 45.4207 29.7896 46.2967C33.2827 46.2048 37.7475 43.2108 40.4554 37.1594H42.0447C41.7436 36.6354 41.5854 36.0411 41.5858 35.4363C41.5862 34.8315 41.7453 34.2374 42.0472 33.7138C42.349 33.1902 42.783 32.7554 43.3054 32.4531C43.8279 32.1508 44.4204 31.9917 45.0236 31.9917C45.6268 31.9917 46.2194 32.1508 46.7418 32.4531C47.2643 32.7554 47.6982 33.1902 48.0001 33.7138C48.3019 34.2374 48.461 34.8315 48.4614 35.4363C48.4619 36.0411 48.3036 36.6354 48.0025 37.1594H49.456C49.8841 35.4058 51.0359 35.1603 51.137 34.3841C51.2038 33.9325 51.2139 33.4742 51.167 33.0201ZM42.8141 30.1164L42.2486 30.0024C42.2643 29.7536 42.2754 29.5049 42.2801 29.2594C43.0906 29.478 43.9074 29.7188 44.7211 29.9865C44.007 30.1449 44.0638 30.3762 42.8141 30.1164Z" fill="#EBB000"/>
</svg>
