<svg width="94" height="94" viewBox="0 0 94 94" fill="none" xmlns="http://www.w3.org/2000/svg">
<rect width="93.4545" height="93.4545" rx="46.7273" fill="#C5EEA6"/>
<path d="M52.6013 28.5951C46.4715 24.7053 37.6383 29.5867 32.8762 39.4986C32.5802 40.1153 31.9376 41.5112 31.6874 42.1369C31.6874 42.1369 33.6221 41.1995 33.7024 41.0324C33.8034 40.8178 34.2784 39.8329 34.3909 39.6228C38.7811 31.0256 46.3774 26.7473 51.3735 29.9255C56.5051 33.1806 56.7024 43.0924 52.3741 52.1053C48.0459 61.1182 40.8099 65.837 35.6807 62.5842C33.5831 61.2537 32.213 58.7757 31.6163 55.7037C31.1517 55.7556 30.6817 55.7358 30.2233 55.645C30.8796 59.5392 32.61 62.7446 35.3525 64.4839C41.4846 68.3737 50.3156 63.4923 55.0776 53.5804C59.8396 43.6685 58.7312 32.4848 52.6013 28.5951Z" fill="#4BB0EB"/>
<path d="M31.4759 46.9107C30.7078 46.92 29.9595 47.167 29.3252 47.6209C28.6908 48.0747 28.1988 48.7149 27.9109 49.461C27.6231 50.2071 27.5524 51.0258 27.7076 51.8139C27.8629 52.602 28.2372 53.3244 28.7834 53.8902C29.3297 54.456 30.0235 54.8398 30.7775 54.9935C31.5315 55.1471 32.3121 55.0636 33.0209 54.7535C33.7298 54.4435 34.3352 53.9207 34.7611 53.2509C35.187 52.5812 35.4142 51.7945 35.4143 50.9897C35.4078 49.9019 34.9893 48.8612 34.2508 48.0964C33.5124 47.3315 32.5143 46.9051 31.4759 46.9107Z" fill="#1C75BC"/>
<path d="M31.326 46.1958C32.6271 46.191 33.8771 46.7035 34.8014 47.6208C35.7257 48.5381 36.2488 49.7853 36.256 51.0886C36.2541 51.9535 36.0193 52.8018 35.5763 53.5441H47.7293C43.7485 60.2071 38.9182 61.5552 36.0295 60.0097C35.2392 59.5779 34.5431 58.992 33.9824 58.2865C33.4217 57.5811 33.0077 56.7703 32.7647 55.9021C32.9549 56.7646 33.2039 57.6131 33.5101 58.4415C34.5931 60.9969 36.5664 62.8555 39.2716 62.8555C44.4056 62.8555 49.0637 56.7712 51.3928 51.8375C55.4937 43.1571 55.3079 33.6982 50.7517 30.757C46.7958 28.2017 40.9051 31.2517 36.8111 37.5652C43.9524 27.8113 50.7539 29.7448 52 36.3534C52.149 37.1825 52.2249 38.0232 52.2266 38.8656C50.4707 38.6228 48.8893 38.473 47.4687 38.3958C41.8998 38.0645 41.8998 38.9723 33.6483 43.6654C23.0858 43.7698 19.4698 47.9954 19.4698 47.9954V49.0802C21.1306 48.4284 22.8972 48.0891 24.6808 48.0794L22.9431 51.4835C22.9431 51.4835 20.6638 51.7695 19.4721 51.9941V53.5441H27.0779C26.6349 52.8018 26.4001 51.9535 26.3982 51.0886C26.4054 49.7857 26.9283 48.5389 27.8521 47.6216C28.7759 46.7043 30.0252 46.1916 31.326 46.1958ZM44.2039 40.1002C45.5452 39.8278 48.4905 39.9458 52.1722 40.495C52.0805 41.698 51.901 42.8926 51.6353 44.0694C48.1507 44.1193 44.9539 44.0058 41.8703 44.0557C42.0969 43.6768 42.2215 43.2024 41.8001 42.921C41.2473 42.5534 40.2821 43.148 39.5594 44.1352C38.4696 44.1919 37.3911 44.2781 36.3104 44.412C36.3104 44.412 41.5894 40.6357 44.2039 40.1002Z" fill="#1C75BC"/>
<path d="M64.7087 46.9106C63.9019 46.9106 63.1133 47.1499 62.4426 47.5981C61.7718 48.0463 61.249 48.6833 60.9403 49.4286C60.6315 50.174 60.5508 50.9941 60.7081 51.7853C60.8655 52.5765 61.254 53.3033 61.8244 53.8738C62.3949 54.4442 63.1217 54.8327 63.9129 54.9901C64.7042 55.1475 65.5243 55.0667 66.2696 54.758C67.0149 54.4493 67.652 53.9265 68.1002 53.2557C68.5484 52.5849 68.7876 51.7963 68.7876 50.9896C68.7876 49.9078 68.3579 48.8703 67.5929 48.1053C66.828 47.3404 65.7905 46.9106 64.7087 46.9106Z" fill="#EBB000"/>
<path d="M73.5666 47.4749C72.8526 47.555 72.1311 47.5359 71.4223 47.418C70.0799 47.1788 69.4643 45.6574 69.4643 45.6574H73.2145C73.1078 45.2542 72.9874 44.8215 72.8375 44.3318C68.8996 42.7614 64.8701 41.4326 60.7713 40.3528C60.5168 35.2624 58.6497 30.935 55.2924 28.7963C54.7842 28.4746 54.2436 28.2074 53.6796 27.9991C56.9211 30.4248 58.4384 34.6042 58.8337 38.6629C59.139 42.2182 58.7666 45.7993 57.7365 49.215C57.2571 50.8613 56.6495 52.4674 55.9193 54.0184C52.7847 60.6576 47.8532 65.3039 42.831 66.5634C47.8532 66.4313 54.2725 62.1267 58.1658 53.4263H60.451C60.0181 52.6728 59.7905 51.8183 59.7911 50.9488C59.7917 50.0792 60.0205 49.2251 60.4545 48.4722C60.8885 47.7194 61.5124 47.0942 62.2635 46.6596C63.0147 46.225 63.8666 45.9962 64.7339 45.9962C65.6011 45.9962 66.4531 46.225 67.2043 46.6596C67.9554 47.0942 68.5793 47.7194 69.0133 48.4722C69.4473 49.2251 69.676 50.0792 69.6767 50.9488C69.6773 51.8183 69.4497 52.6728 69.0168 53.4263H71.1066C71.7221 50.905 73.3781 50.5519 73.5235 49.4359C73.6195 48.7866 73.634 48.1278 73.5666 47.4749ZM61.5572 43.3001L60.744 43.1361C60.7667 42.7785 60.7826 42.4209 60.7894 42.0679C61.9547 42.3822 63.1291 42.7284 64.2989 43.1133C63.2722 43.3411 63.354 43.6736 61.5572 43.3001Z" fill="#EBB000"/>
</svg>
