<svg width="91" height="90" viewBox="0 0 91 90" fill="none" xmlns="http://www.w3.org/2000/svg">
<rect x="0.417969" width="90" height="90" rx="45" fill="white"/>
<path d="M62.2484 51.9804C61.8179 51.7689 61.3477 51.6514 60.8686 51.6355C60.3896 51.6196 59.9126 51.7058 59.4691 51.8883C58.7522 52.191 57.9477 52.2113 57.2165 51.9452L53.9753 50.7204C53.4604 50.5198 53.013 50.1763 52.6854 49.7301C52.3578 49.2839 52.1635 48.7534 52.1251 48.2006C51.9741 46.4753 51.2591 44.8483 50.0913 43.5727C49.6649 43.1057 49.376 42.5292 49.2568 41.9074C49.1376 41.2855 49.1927 40.6426 49.4161 40.0503L49.5241 39.7658C49.8243 38.971 50.4101 38.3176 51.1663 37.9342C51.747 37.6249 52.226 37.1536 52.5456 36.5772C52.8651 36.0008 53.0116 35.3439 52.9672 34.6859C52.9228 34.0278 52.6896 33.3968 52.2955 32.8688C51.9015 32.3408 51.3636 31.9385 50.7466 31.7105C50.1297 31.4824 49.4602 31.4384 48.8189 31.5837C48.1776 31.7289 47.5919 32.0573 47.1325 32.5291C46.6731 33.0009 46.3596 33.5961 46.23 34.2426C46.1003 34.8892 46.16 35.5597 46.4018 36.173C46.7023 36.9579 46.7023 37.8267 46.4018 38.6116L46.3045 38.8825C46.0834 39.4755 45.7033 39.9957 45.2063 40.3859C44.7092 40.776 44.1144 41.0209 43.4874 41.0935C42.0534 41.2509 40.691 41.8044 39.5519 42.6922C38.4127 43.58 37.5413 44.7674 37.0347 46.1224C36.7449 46.8941 36.5799 47.7072 36.5459 48.5311C36.5221 49.1639 36.3236 49.7775 35.9726 50.3038C35.6216 50.83 35.1319 51.2482 34.5579 51.5116L34.2122 51.6715C33.4522 51.9989 32.5989 52.0356 31.8137 51.7745C31.186 51.5825 30.5163 51.5766 29.8854 51.7577C29.2544 51.9387 28.6891 52.2989 28.2575 52.7948C27.8259 53.2907 27.5464 53.9013 27.4528 54.5529C27.3592 55.2045 27.4553 55.8693 27.7297 56.4674C28.004 57.0654 28.4449 57.5711 28.9992 57.9236C29.5535 58.276 30.1976 58.4602 30.8538 58.4539C31.51 58.4476 32.1504 58.2511 32.6979 57.8881C33.2454 57.525 33.6765 57.0109 33.9394 56.4077C34.2545 55.6546 34.8367 55.0455 35.5735 54.698L35.9246 54.5382C36.4991 54.278 37.1342 54.1827 37.7593 54.2631C38.3845 54.3435 38.9752 54.5963 39.4656 54.9934C40.9512 56.1872 42.8209 56.7944 44.7221 56.7006C46.6232 56.6067 48.4245 55.8183 49.7861 54.484C50.1655 54.0988 50.6472 53.8311 51.174 53.7129C51.7008 53.5947 52.2504 53.631 52.7572 53.8174L56.2063 55.1153C56.8683 55.3778 57.4028 55.8878 57.6973 56.5378C58.0002 57.1716 58.4907 57.6961 59.1018 58.0398C59.7129 58.3835 60.4149 58.5296 61.1119 58.4581C61.8089 58.3867 62.4669 58.1012 62.9961 57.6407C63.5254 57.1801 63.9 56.5669 64.0689 55.8848C64.2556 55.1233 64.1769 54.3206 63.8456 53.6103C63.5144 52.8999 62.9508 52.3247 62.2484 51.9804Z" fill="url(#paint0_linear_0_4491)"/>
<path d="M53.7633 45.2709L53.8747 45.6013C54.039 46.0645 54.0312 46.5717 53.853 47.0297C53.7471 47.2959 53.7191 47.587 53.7723 47.8687C53.8254 48.1503 53.9575 48.4109 54.153 48.6197C54.3485 48.8284 54.5993 48.9767 54.8758 49.047C55.1523 49.1174 55.443 49.1069 55.7137 49.0167C55.9845 48.9265 56.224 48.7605 56.404 48.5382C56.5841 48.3158 56.6972 48.0464 56.73 47.7616C56.7629 47.4768 56.7141 47.1885 56.5895 46.9306C56.4648 46.6727 56.2695 46.456 56.0265 46.3059C55.6005 46.0482 55.2798 45.6464 55.1218 45.1726L55.0511 44.9705C54.9351 44.6484 54.8924 44.3044 54.9263 43.9636C54.9601 43.6228 55.0696 43.294 55.2467 43.0014C55.461 42.6713 55.5903 42.2928 55.6231 41.9C55.6558 41.5072 55.5909 41.1123 55.4342 40.751C55.1936 40.2101 54.7639 39.7767 54.2265 39.5331C53.6892 39.2895 53.0817 39.2525 52.519 39.4292C52.0472 39.5831 51.6351 39.8815 51.3405 40.2826C51.0458 40.6838 50.8834 41.1675 50.8759 41.6661C50.8684 42.1646 51.0163 42.6531 51.2987 43.0629C51.5812 43.4728 51.9841 43.7836 52.4511 43.9518C52.7543 44.0586 53.0296 44.2326 53.2568 44.461C53.484 44.6893 53.6571 44.9661 53.7633 45.2709Z" fill="url(#paint1_linear_0_4491)"/>
<path d="M34.8446 45.419L34.9865 45.1052C35.1786 44.6643 35.5202 44.309 35.9484 44.1045C36.2009 43.988 36.4154 43.8001 36.5666 43.563C36.7178 43.3259 36.7992 43.0496 36.8014 42.7667C36.8036 42.4839 36.7263 42.2063 36.5788 41.9668C36.4313 41.7274 36.2197 41.536 35.969 41.4155C35.7183 41.2949 35.439 41.2502 35.1642 41.2866C34.8894 41.323 34.6305 41.439 34.4183 41.6208C34.206 41.8026 34.0492 42.0427 33.9664 42.3127C33.8836 42.5827 33.8783 42.8712 33.951 43.1441C34.0771 43.6184 34.0352 44.1228 33.8328 44.5686L33.7461 44.7591C33.6149 45.0677 33.4169 45.342 33.167 45.5613C32.9171 45.7806 32.6218 45.9392 32.3033 46.0253C31.9343 46.1154 31.593 46.2973 31.3096 46.5548C31.0262 46.8122 30.8096 47.1372 30.6791 47.5008C30.4892 48.0495 30.5031 48.6503 30.7182 49.1893C30.9332 49.7282 31.3345 50.1679 31.846 50.425C32.2787 50.6376 32.7658 50.7066 33.2389 50.6223C33.712 50.538 34.1474 50.3045 34.4839 49.9548C34.8204 49.605 35.0413 49.1565 35.1154 48.6721C35.1895 48.1878 35.1132 47.6919 34.8971 47.254C34.7527 46.9722 34.6729 46.6606 34.6638 46.3427C34.6547 46.0248 34.7165 45.709 34.8446 45.419Z" fill="url(#paint2_linear_0_4491)"/>
<defs>
<linearGradient id="paint0_linear_0_4491" x1="32.0859" y1="41.9308" x2="64.725" y2="54.1409" gradientUnits="userSpaceOnUse">
<stop stop-color="#71B6FF"/>
<stop offset="1" stop-color="#006DE0"/>
</linearGradient>
<linearGradient id="paint1_linear_0_4491" x1="53.8639" y1="43.2581" x2="56.8794" y2="50.8041" gradientUnits="userSpaceOnUse">
<stop stop-color="#EB9B00"/>
<stop offset="1" stop-color="#FF3670"/>
</linearGradient>
<linearGradient id="paint2_linear_0_4491" x1="36.3846" y1="42.6988" x2="28.3612" y2="54.8888" gradientUnits="userSpaceOnUse">
<stop stop-color="#EB9B00"/>
<stop offset="1" stop-color="#FF3670"/>
</linearGradient>
</defs>
</svg>
