<svg width="90" height="90" viewBox="0 0 90 90" fill="none" xmlns="http://www.w3.org/2000/svg">
<rect width="90" height="90" rx="45" fill="#57B8FF"/>
<path d="M33.8277 52.9551C33.0783 52.9551 32.3458 53.1874 31.7227 53.6226C31.0997 54.0579 30.6141 54.6765 30.3273 55.4003C30.0405 56.124 29.9655 56.9205 30.1117 57.6888C30.2579 58.4572 30.6187 59.163 31.1486 59.7169C31.6785 60.2709 32.3536 60.6481 33.0885 60.8009C33.8235 60.9538 34.5853 60.8753 35.2776 60.5755C35.9699 60.2757 36.5616 59.7681 36.9779 59.1167C37.3942 58.4653 37.6164 57.6995 37.6164 56.9161C37.6166 56.3958 37.5188 55.8807 37.3284 55.4C37.1381 54.9193 36.859 54.4826 36.5072 54.1147C36.1553 53.7469 35.7376 53.4551 35.2778 53.2562C34.818 53.0572 34.3253 52.9549 33.8277 52.9551ZM33.8277 58.1626C33.5909 58.1626 33.3595 58.0892 33.1626 57.9517C32.9658 57.8142 32.8124 57.6188 32.7218 57.3901C32.6312 57.1614 32.6075 56.9098 32.6536 56.667C32.6998 56.4243 32.8138 56.2013 32.9812 56.0263C33.1486 55.8513 33.3619 55.7321 33.5941 55.6838C33.8263 55.6355 34.067 55.6603 34.2857 55.755C34.5045 55.8497 34.6914 56.0101 34.823 56.2159C34.9545 56.4217 35.0247 56.6637 35.0247 56.9112C35.0253 57.0759 34.9948 57.2392 34.9349 57.3916C34.875 57.544 34.787 57.6825 34.6757 57.7992C34.5645 57.916 34.4324 58.0086 34.2868 58.0718C34.1413 58.135 33.9853 58.1675 33.8277 58.1675V58.1626Z" fill="#939393"/>
<path d="M45.7119 52.9551C44.9284 52.9548 44.1625 53.1868 43.5109 53.6218C42.8593 54.0569 42.3513 54.6754 42.0513 55.3991C41.7512 56.1229 41.6726 56.9194 41.8252 57.6878C41.9779 58.4563 42.355 59.1622 42.9089 59.7163C43.4628 60.2704 44.1685 60.6479 44.9369 60.8008C45.7053 60.9538 46.5018 60.8754 47.2257 60.5757C47.9496 60.2759 48.5683 59.7683 49.0036 59.1168C49.4389 58.4654 49.6713 57.6995 49.6713 56.9161C49.6713 55.8658 49.2542 54.8586 48.5117 54.1158C47.7692 53.373 46.7621 52.9555 45.7119 52.9551ZM45.7119 58.1626C45.4644 58.1626 45.2224 58.0892 45.0167 57.9517C44.8109 57.8142 44.6505 57.6188 44.5557 57.3901C44.461 57.1614 44.4362 56.9098 44.4845 56.667C44.5328 56.4243 44.652 56.2013 44.827 56.0263C45.002 55.8513 45.225 55.7321 45.4678 55.6838C45.7105 55.6355 45.9621 55.6603 46.1908 55.755C46.4195 55.8497 46.6149 56.0101 46.7524 56.2159C46.89 56.4217 46.9633 56.6637 46.9633 56.9112C46.964 57.0759 46.9321 57.2392 46.8695 57.3916C46.8069 57.544 46.7148 57.6825 46.5985 57.7992C46.4823 57.916 46.3441 58.0086 46.1919 58.0718C46.0398 58.135 45.8767 58.1675 45.7119 58.1675V58.1626Z" fill="#939393"/>
<path d="M51.7345 51.9206H27.9017C27.6873 51.9274 27.4737 51.8915 27.2736 51.8152C27.0736 51.739 26.8911 51.6238 26.737 51.4767C26.5829 51.3295 26.4604 51.1533 26.3768 50.9586C26.2931 50.7638 26.25 50.5545 26.25 50.343C26.25 50.1315 26.2931 49.9221 26.3768 49.7274C26.4604 49.5326 26.5829 49.3564 26.737 49.2092C26.8911 49.0621 27.0736 48.947 27.2736 48.8707C27.4737 48.7944 27.6873 48.7586 27.9017 48.7653H50.4448L54.3285 31.1208C54.4059 30.7686 54.6033 30.4531 54.8878 30.2269C55.1723 30.0008 55.5268 29.8775 55.8923 29.8777H61.5543C61.9699 29.8907 62.364 30.0626 62.6533 30.3571C62.9426 30.6515 63.1044 31.0454 63.1044 31.4554C63.1044 31.8653 62.9426 32.2592 62.6533 32.5537C62.364 32.8481 61.9699 33.02 61.5543 33.033H57.1821L53.2983 50.6776C53.2207 51.0296 53.0232 51.3449 52.7388 51.571C52.4543 51.7972 52.0999 51.9205 51.7345 51.9206Z" fill="#939393"/>
<path d="M40.0009 32.4012C39.9168 32.3289 39.8093 32.2891 39.698 32.2891C39.5867 32.2891 39.4792 32.3289 39.3951 32.4012L31.4164 39.463V47.4441H48.2937V39.463L40.0009 32.4012ZM39.3065 43.8277C39.3065 43.9443 39.2598 44.0561 39.1767 44.1386C39.0936 44.221 38.9809 44.2674 38.8634 44.2674H37.2361C37.1184 44.2674 37.0055 44.2211 36.9222 44.1387C36.8388 44.0563 36.7918 43.9445 36.7914 43.8277V42.2113C36.7918 42.0946 36.8388 41.9828 36.9222 41.9003C37.0055 41.8179 37.1184 41.7717 37.2361 41.7717H38.8634C38.9809 41.7717 39.0936 41.818 39.1767 41.9004C39.2598 41.9829 39.3065 42.0947 39.3065 42.2113V43.8277ZM39.3065 40.3008C39.3065 40.4174 39.2598 40.5292 39.1767 40.6117C39.0936 40.6941 38.9809 40.7405 38.8634 40.7405H37.2361C37.1184 40.7405 37.0055 40.6942 36.9222 40.6118C36.8388 40.5294 36.7918 40.4175 36.7914 40.3008V38.6844C36.7918 38.5677 36.8388 38.4558 36.9222 38.3734C37.0055 38.291 37.1184 38.2448 37.2361 38.2448H38.8634C38.9809 38.2448 39.0936 38.2911 39.1767 38.3735C39.2598 38.456 39.3065 38.5678 39.3065 38.6844V40.3008ZM42.9187 43.8277C42.9187 43.9443 42.8721 44.0561 42.789 44.1386C42.7059 44.221 42.5932 44.2674 42.4757 44.2674H40.8468C40.7292 44.2674 40.6165 44.221 40.5335 44.1386C40.4504 44.0561 40.4037 43.9443 40.4037 43.8277V42.2113C40.4037 42.0947 40.4504 41.9829 40.5335 41.9004C40.6165 41.818 40.7292 41.7717 40.8468 41.7717H42.4757C42.5932 41.7717 42.7059 41.818 42.789 41.9004C42.8721 41.9829 42.9187 42.0947 42.9187 42.2113V43.8277ZM42.9187 40.3008C42.9187 40.4174 42.8721 40.5292 42.789 40.6117C42.7059 40.6941 42.5932 40.7405 42.4757 40.7405H40.8468C40.7292 40.7405 40.6165 40.6941 40.5335 40.6117C40.4504 40.5292 40.4037 40.4174 40.4037 40.3008V38.6844C40.4037 38.5678 40.4504 38.456 40.5335 38.3735C40.6165 38.2911 40.7292 38.2448 40.8468 38.2448H42.4757C42.5932 38.2448 42.7059 38.2911 42.789 38.3735C42.8721 38.456 42.9187 38.5678 42.9187 38.6844V40.3008Z" fill="white"/>
<path d="M50.3866 36.5534L41.7073 29.1602C41.1863 28.7335 40.5312 28.5 39.855 28.5C39.1787 28.5 38.5236 28.7335 38.0027 29.1602L29.325 36.5534C28.6515 37.128 29.1138 38.1362 30.0512 38.1362H30.5774C30.5774 38.1362 36.4959 32.8845 38.4841 31.1719C39.4647 30.3267 40.0373 30.4043 40.8931 31.1498C42.931 32.9225 49.1325 38.1441 49.1325 38.1441H49.6588C50.5961 38.1315 51.0584 37.128 50.3866 36.5534Z" fill="white"/>
<path d="M34.8608 30.1945V29.4346C34.859 29.2776 34.7912 29.1276 34.672 29.0172C34.5529 28.9068 34.3921 28.8448 34.2245 28.8448H32.0544C31.9706 28.8448 31.8877 28.8603 31.8103 28.8903C31.7329 28.9204 31.6625 28.9644 31.6033 29.0199C31.5441 29.0754 31.4971 29.1413 31.465 29.2138C31.4329 29.2864 31.4164 29.3641 31.4164 29.4426V32.9781L34.8608 30.1945Z" fill="white"/>
</svg>
