<svg width="94" height="94" viewBox="0 0 94 94" fill="none" xmlns="http://www.w3.org/2000/svg">
<rect width="93.4545" height="93.4545" rx="46.7273" fill="white"/>
<path d="M75.5425 31.4943C67.8974 26.1906 54.4943 28.3609 48.7204 41.618C45.5575 48.8729 44.6551 60.0167 31.0849 63.6636C34.8273 63.6317 55.3418 65.8294 62.6159 53.9758C67.6867 45.7236 63.1129 32.0649 75.5425 31.4943Z" fill="url(#paint0_radial_0_4486)"/>
<path d="M17.912 44.3989C30.3228 26.7062 55.5226 25.1621 62.3563 40.9523C68.8118 55.8579 56.039 67.4914 30.9799 64.0057C41.6501 63.4681 52.5138 58.112 49.0002 47.7422C45.9799 38.8292 32.7206 36.081 17.912 44.3989Z" fill="url(#paint1_linear_0_4486)"/>
<defs>
<radialGradient id="paint0_radial_0_4486" cx="0" cy="0" r="1" gradientUnits="userSpaceOnUse" gradientTransform="translate(56.9982 45.8812) rotate(-1.14167) scale(29.6519 29.5462)">
<stop stop-color="#8D8D8D"/>
<stop offset="0.15" stop-color="#A7A7A7"/>
<stop offset="0.39" stop-color="#C7C7C7"/>
<stop offset="0.61" stop-color="#DFDFDF"/>
<stop offset="0.82" stop-color="#EDEDED"/>
<stop offset="1" stop-color="#F2F2F2"/>
</radialGradient>
<linearGradient id="paint1_linear_0_4486" x1="17.5115" y1="39.8928" x2="72.1739" y2="57.9571" gradientUnits="userSpaceOnUse">
<stop offset="0.22" stop-color="#10D6F9"/>
<stop offset="0.43" stop-color="#10D6F9"/>
<stop offset="0.49" stop-color="#11D0F4"/>
<stop offset="0.58" stop-color="#13BEE8"/>
<stop offset="0.68" stop-color="#17A2D2"/>
<stop offset="0.79" stop-color="#1D7BB6"/>
<stop offset="1" stop-color="#0D3375"/>
</linearGradient>
</defs>
</svg>
