<svg width="90" height="90" viewBox="0 0 90 90" fill="none" xmlns="http://www.w3.org/2000/svg">
<rect width="90" height="90" rx="45" fill="#C0F9FD"/>
<path d="M70.2066 50.6797C69.9638 50.4425 69.6442 50.2987 69.3046 50.2738C68.9651 50.2489 68.6277 50.3446 68.3525 50.5438C66.0603 52.1751 63.6834 53.6857 61.2317 55.0693C60.9535 55.2287 60.6272 55.2845 60.3113 55.2266C59.9955 55.1687 59.7107 55.0009 59.508 54.7533C59.3857 54.6093 59.2961 54.4407 59.2454 54.2591C59.1947 54.0774 59.1841 53.8871 59.2143 53.701C59.2445 53.515 59.3148 53.3376 59.4204 53.181C59.526 53.0244 59.6643 52.8924 59.826 52.7939C62.2287 51.4422 64.5578 49.9653 66.8037 48.3695C67.129 48.1267 67.3448 47.7662 67.4043 47.3662C67.4639 46.9663 67.3623 46.5591 67.1217 46.2331C67.0147 46.0684 66.8759 45.9263 66.7134 45.8151C66.5509 45.7038 66.3678 45.6257 66.1747 45.5852C65.9817 45.5446 65.7824 45.5425 65.5885 45.5788C65.3946 45.6152 65.2099 45.6893 65.0449 45.797C62.8787 47.3395 60.6324 48.7678 58.3154 50.076C58.0154 50.2294 57.6681 50.2646 57.3432 50.1745C57.0182 50.0845 56.7394 49.8758 56.5625 49.5903C56.3857 49.3047 56.3239 48.9634 56.3894 48.6345C56.455 48.3056 56.6431 48.0135 56.916 47.8164C59.2163 46.5236 61.4457 45.11 63.5947 43.5816C63.8612 43.3873 64.0496 43.1053 64.1265 42.7859C64.2033 42.4664 64.1637 42.1303 64.0145 41.8372C63.6106 41.0313 62.6756 40.7563 62.0491 41.2051C59.0611 43.3506 55.9118 45.265 52.629 46.9316C51.0992 47.7343 50.5522 49.7411 51.4364 51.4729L51.7735 52.1366C36.2885 58.8048 26.5122 54.7786 23.0138 39.015C22.7131 39.4288 22.438 39.8605 22.1901 40.3076C21.8433 40.9157 21.6239 41.5874 21.5452 42.282C21.4665 42.9767 21.5301 43.68 21.7322 44.3496C22.6545 47.3456 24.5754 51.5456 28.4713 54.2698C28.4713 54.2698 22.7022 52.1113 20.1579 46.072C19.7645 48.5467 20.1106 51.0817 21.1534 53.3628C24.5658 60.7736 31.7915 57.8851 31.7915 57.8851C38.0727 60.701 45.6577 59.7181 54.1746 56.8201C54.3145 57.0982 54.4672 57.3953 54.6453 57.7429C54.8523 58.1571 55.1399 58.5264 55.4914 58.8295C55.8429 59.1325 56.2514 59.3633 56.6933 59.5085C57.1351 59.6537 57.6015 59.7103 58.0656 59.6753C58.5296 59.6402 58.982 59.514 59.3967 59.3041C63.0966 57.4272 66.6466 55.2719 70.0158 52.8571C70.1858 52.7363 70.3275 52.5804 70.4311 52.4C70.5347 52.2195 70.5977 52.019 70.6159 51.8121C70.634 51.6051 70.6068 51.3968 70.5362 51.2013C70.4655 51.0058 70.3531 50.8278 70.2066 50.6797Z" fill="#394D37"/>
<path d="M31.5811 40.8907C31.5811 40.8907 32.2921 47.4547 35.0409 50.7751C35.6503 48.3983 36.5867 43.8272 35.5996 40.9803C34.2252 37.001 31.9271 34.8386 32.6857 31C32.6857 31 26.4422 35.8302 27.7817 43.2994C28.5784 47.7202 30.8161 50.0681 32.5175 51.2485C30.4289 46.2295 31.5811 40.8907 31.5811 40.8907Z" fill="#58AD53"/>
<path d="M44.4786 46.5296C44.4786 46.5296 40.2469 49.4116 38.9742 52.514C40.8236 52.0762 44.3031 51.0589 45.8704 49.3423C48.0897 46.9422 48.7323 44.561 51.6381 43.6917C51.6381 43.6917 46.0553 41.1215 41.4318 44.7657C38.6952 46.9233 37.9053 49.3328 37.7172 50.9392C40.4036 47.6729 44.4786 46.5296 44.4786 46.5296Z" fill="#58AD53"/>
</svg>
