<svg width="1920" height="450" fill="none" xmlns="http://www.w3.org/2000/svg"><path fill="#fff" d="M0 0h1920v450H0z"/><mask id="mask0_0_854" style="mask-type:alpha" maskUnits="userSpaceOnUse" x="0" y="0" width="1920" height="450"><path fill="#fff" d="M0 0h1920v450H0z"/></mask><g mask="url(#mask0_0_854)"><g filter="url(#filter0_f_0_854)"><path d="M895 310c0 251.842-204.158 456-456 456S-17 561.842-17 310s204.158-456 456-456S895 58.158 895 310z" fill="#EAFFEC" fill-opacity=".5"/></g><g filter="url(#filter1_f_0_854)"><path d="M1899 268c0 251.842-204.16 456-456 456S987 519.842 987 268s204.16-456 456-456 456 204.158 456 456z" fill="#F0FDFF"/></g></g><defs><filter id="filter0_f_0_854" x="-577" y="-706" width="2032" height="2032" filterUnits="userSpaceOnUse" color-interpolation-filters="sRGB"><feFlood flood-opacity="0" result="BackgroundImageFix"/><feBlend in="SourceGraphic" in2="BackgroundImageFix" result="shape"/><feGaussianBlur stdDeviation="280" result="effect1_foregroundBlur_0_854"/></filter><filter id="filter1_f_0_854" x="427" y="-748" width="2032" height="2032" filterUnits="userSpaceOnUse" color-interpolation-filters="sRGB"><feFlood flood-opacity="0" result="BackgroundImageFix"/><feBlend in="SourceGraphic" in2="BackgroundImageFix" result="shape"/><feGaussianBlur stdDeviation="280" result="effect1_foregroundBlur_0_854"/></filter></defs></svg>