<svg width="788" height="771" fill="none" xmlns="http://www.w3.org/2000/svg"><path d="M55.993 321.254v-.001a47.32 47.32 0 011.532-2.417l-.415-.281a47.807 47.807 0 013.523-4.583l.377.328a47.196 47.196 0 014.008-4.08l-.335-.372a47.849 47.849 0 014.52-3.604l.287.409a47.118 47.118 0 014.87-3.001l-.237-.441a47.61 47.61 0 015.252-2.416l.18.466a46.365 46.365 0 012.698-.955l.013-.005 2.271-.798-.166-.472 4.542-1.595.166.472 4.541-1.596-.166-.472 4.542-1.595.166.471 4.541-1.595-.165-.472 4.541-1.596.166.472 4.542-1.596-.166-.471 4.541-1.596.166.472 2.271-.798.004-.002a119.82 119.82 0 002.369-.884l-.179-.466c1.57-.604 3.125-1.237 4.665-1.9l.197.459a125.606 125.606 0 004.604-2.091l-.216-.451c1.516-.725 3.016-1.48 4.499-2.263l.234.442a128.452 128.452 0 004.423-2.449l-.251-.432a126.097 126.097 0 004.306-2.613l.268.422a129.075 129.075 0 004.215-2.791l-.284-.412a126.24 126.24 0 004.085-2.945l.301.4a127.51 127.51 0 003.981-3.117l-.316-.387a128.042 128.042 0 003.84-3.26l.331.375a128.095 128.095 0 003.722-3.422l-.346-.361a125.858 125.858 0 003.569-3.553l.36.347a128.323 128.323 0 003.44-3.706l-.374-.333a127.192 127.192 0 003.278-3.824l.386.317a128.1 128.1 0 003.135-3.966l-.399-.303a126.628 126.628 0 002.964-4.071l.41.286c.963-1.38 1.9-2.782 2.811-4.203l-.421-.27a126.318 126.318 0 002.632-4.294l.431.253c.426-.726.844-1.457 1.256-2.192l.001-.002.066-.115-.434-.249.137-.239.434.249.069-.12.005-.009v-.001l.001-.001.003-.007.014-.026.056-.103.221-.404.853-1.567-.439-.239 2.378-4.365.439.239 2.385-4.379-.439-.239 2.361-4.334.439.239 2.371-4.354-.439-.239 2.373-4.356.439.239 2.373-4.356-.439-.239 2.373-4.357.439.239 2.375-4.358-.44-.24 2.375-4.359.439.239 2.374-4.356-.439-.24a7243.3 7243.3 0 012.368-4.347l.439.239 2.371-4.352-.439-.24 2.373-4.355.439.239 2.372-4.354-.439-.239 2.37-4.351.439.24 2.369-4.347-.439-.24 2.375-4.359.439.239 2.375-4.359-.439-.239 2.375-4.358.439.239 2.374-4.356-.439-.239 2.374-4.355.439.239 2.37-4.349-.439-.239 2.357-4.324.439.24 2.399-4.4-.439-.239 2.38-4.36.439.239a525.3 525.3 0 01.831-1.519l.226-.413.063-.115.018-.032.005-.009h.001l.001-.002c.398-.671.802-1.336 1.213-1.997l-.424-.264a115.022 115.022 0 012.562-3.94l.414.281a115.658 115.658 0 012.708-3.816l-.402-.298a116.8 116.8 0 012.874-3.719l.39.314c.979-1.216 1.983-2.41 3.01-3.583l-.377-.33a116.709 116.709 0 013.167-3.473l.363.345a114.083 114.083 0 013.291-3.327l-.349-.359a115.493 115.493 0 013.439-3.204l.333.373a115.492 115.492 0 013.55-3.049l-.317-.386a115.42 115.42 0 013.687-2.914l.302.398a115.515 115.515 0 013.786-2.75l-.285-.41a114.448 114.448 0 013.912-2.605l.268.422a115.204 115.204 0 013.998-2.433l-.252-.433a116.157 116.157 0 014.111-2.278l.233.442a114.954 114.954 0 014.182-2.1l-.215-.452c1.412-.673 2.84-1.32 4.282-1.937l.197.46a116.162 116.162 0 014.339-1.754l-.178-.467a115.532 115.532 0 014.425-1.582l.159.474c1.481-.496 2.97-.961 4.466-1.396l-.139-.48c1.506-.437 3.02-.843 4.539-1.218l.12.486c1.516-.374 3.038-.716 4.565-1.028l-.1-.49a115.65 115.65 0 014.624-.844l.079.493a115.23 115.23 0 014.634-.653l-.06-.497c1.556-.187 3.115-.342 4.677-.466l.039.498a115.23 115.23 0 014.672-.274l-.019-.5a116.83 116.83 0 014.699-.085l-.001.5c1.559.004 3.119.04 4.678.106l.021-.5c1.565.068 3.128.167 4.691.298l-.042.498c1.553.13 3.105.292 4.654.486l.062-.496c1.553.194 3.104.42 4.651.677l-.082.493c1.537.256 3.07.544 4.599.863l.102-.49c1.532.32 3.059.67 4.58 1.053l-.121.485a116.985 116.985 0 014.514 1.233l.141-.48c1.505.445 2.998.92 4.48 1.423l-.161.473c1.478.503 2.945 1.035 4.399 1.596l.18-.467c1.463.565 2.913 1.159 4.349 1.781l-.199.46c1.432.62 2.851 1.27 4.254 1.947l.218-.45c1.411.681 2.808 1.391 4.19 2.129l-.236.44c1.377.736 2.738 1.498 4.082 2.288l.254-.431a116.34 116.34 0 014.003 2.462l-.271.42c1.312.845 2.607 1.715 3.883 2.612l.287-.41c1.282.901 2.546 1.828 3.79 2.78l-.304.397c1.239.948 2.458 1.92 3.658 2.919l.32-.385a114.703 114.703 0 013.551 3.078l-.335.371a114.535 114.535 0 013.409 3.206l.35-.357a114.58 114.58 0 013.289 3.357l-.364.342a114.257 114.257 0 013.137 3.473l.378-.328a114.778 114.778 0 013.005 3.613l-.39.312a118.154 118.154 0 012.844 3.715l.403-.295a116.605 116.605 0 012.703 3.845l-.415.279a115.839 115.839 0 012.533 3.935l.425-.263a116.954 116.954 0 012.382 4.052l-.437.245a114.259 114.259 0 012.205 4.127l.446-.226c.71 1.397 1.392 2.808 2.044 4.232l-.455.208c.65 1.419 1.271 2.85 1.862 4.293l.463-.189a116.27 116.27 0 011.693 4.384l-.47.17a116.006 116.006 0 011.507 4.43l.477-.151c.474 1.493.918 2.996 1.331 4.507l-.482.132c.411 1.504.792 3.017 1.142 4.538l.487-.112c.351 1.526.672 3.06.961 4.6l-.492.093c.288 1.532.545 3.07.77 4.615l.495-.072c.226 1.549.42 3.104.583 4.664l-.497.052c.162 1.549.293 3.104.392 4.662l.499-.031c.099 1.561.167 3.126.203 4.695l-.5.012c.018.779.028 1.559.03 2.339v.238l.05.04c-.027.491-.025 1.217.002 2.115l.5-.014c.037 1.23.121 2.825.25 4.662l-.499.035c.1 1.426.226 2.998.377 4.658l.498-.045c.136 1.489.292 3.05.467 4.641l-.497.054c.168 1.531.354 3.091.557 4.642l.496-.065c.204 1.56.424 3.112.661 4.617l-.494.078a133.985 133.985 0 00.839 4.791l.491-.095c.32 1.648.672 3.288 1.056 4.918l-.487.115c.386 1.64.804 3.271 1.254 4.892l.482-.133c.448 1.617.928 3.224 1.439 4.82l-.476.153a129.253 129.253 0 001.633 4.779l.47-.171c.574 1.576 1.178 3.14 1.813 4.692l-.463.19a129.995 129.995 0 002.004 4.635l.455-.207a127.44 127.44 0 002.176 4.536l-.447.225a128.481 128.481 0 002.362 4.464l.437-.242a130.072 130.072 0 002.525 4.351l-.427.259a129.21 129.21 0 002.705 4.265l.417-.276a127.878 127.878 0 002.859 4.139l-.406.293c.491.682.99 1.361 1.496 2.034a120.65 120.65 0 001.535 2.005l.394-.307a129.495 129.495 0 003.175 3.902l-.381.323a127.832 127.832 0 003.339 3.789l.368-.338a126.985 126.985 0 003.472 3.641l-.355.352a127.84 127.84 0 003.626 3.515l.341-.366a127.93 127.93 0 003.746 3.357l-.326.379a128.71 128.71 0 003.891 3.22l.311-.392a127.086 127.086 0 003.999 3.053l-.296.403a129.28 129.28 0 004.132 2.905l.279-.415c1.39.937 2.799 1.847 4.226 2.729l-.263.425c1.431.885 2.881 1.742 4.347 2.572l.246-.436c1.459.825 2.935 1.621 4.428 2.389l-.229.445c.748.385 1.5.762 2.257 1.133l.22-.449-.22.449 2.401 1.176.22-.449 4.804 2.352-.22.449 4.803 2.353.22-.449 4.803 2.352-.22.449 4.804 2.352.219-.449 4.804 2.352-.22.449 4.803 2.352.22-.449 4.803 2.353-.22.449 4.804 2.352.22-.449 4.803 2.352-.22.449 4.803 2.352.22-.449 4.803 2.353-.22.449 4.804 2.352.22-.449 4.803 2.352-.22.449 2.402 1.176.017.009.019.007c.852.336 1.7.68 2.544 1.033l.193-.461c1.696.708 3.377 1.45 5.043 2.224l-.211.454c1.66.772 3.305 1.577 4.933 2.414l.228-.445c1.634.841 3.251 1.714 4.851 2.619l-.247.435a130.82 130.82 0 014.444 2.628l.263-.425c1.378.852 2.739 1.727 4.082 2.625l-.278.416c1.341.897 2.665 1.816 3.97 2.758l.293-.406c1.313.948 2.608 1.918 3.884 2.909l-.307.395c1.274.99 2.529 2.001 3.765 3.034l.32-.384a137.275 137.275 0 013.667 3.178l-.334.372c1.2 1.078 2.38 2.176 3.539 3.295l.347-.36a135.399 135.399 0 013.432 3.431l-.36.347c1.119 1.16 2.218 2.34 3.295 3.538l.372-.334a136.511 136.511 0 013.178 3.666l-.383.321a135.24 135.24 0 013.035 3.764l.395-.307a137.673 137.673 0 012.909 3.883l-.405.293c.943 1.306 1.863 2.63 2.759 3.97l.416-.278a136.817 136.817 0 012.626 4.081l-.426.263a133.257 133.257 0 012.47 4.156l.434-.248a134.772 134.772 0 012.329 4.258l-.443.232c.748 1.426 1.47 2.867 2.168 4.321l.451-.216a135.3 135.3 0 012.019 4.413l-.458.2a134.3 134.3 0 011.854 4.464l.465-.183a136.62 136.62 0 011.701 4.545l-.472.167a136.779 136.779 0 011.532 4.586l.477-.149c.486 1.545.944 3.097 1.373 4.654l-.482.133c.429 1.556.829 3.117 1.202 4.683l.486-.116c.375 1.576.721 3.157 1.038 4.741l-.49.098c.317 1.582.605 3.168.865 4.757l.493-.081c.262 1.598.494 3.199.698 4.803l-.496.063c.203 1.6.378 3.202.524 4.806l.498-.045c.147 1.612.265 3.225.354 4.84l-.499.027c.089 1.61.149 3.221.18 4.832l.5-.01c.032 1.618.035 3.235.009 4.853l-.5-.008a134.35 134.35 0 01-.164 4.832l.5.026a137.553 137.553 0 01-.337 4.841l-.498-.044c-.141 1.605-.31 3.208-.507 4.808l.496.062a134.688 134.688 0 01-.681 4.804l-.493-.079a135.07 135.07 0 01-.848 4.76l.49.097a135.746 135.746 0 01-1.021 4.744l-.486-.114a136.134 136.134 0 01-1.185 4.687l.482.132a137.46 137.46 0 01-1.356 4.66l-.477-.149a137.637 137.637 0 01-1.516 4.591l.472.165a135.173 135.173 0 01-1.684 4.551l-.466-.181a134.542 134.542 0 01-1.839 4.472l.459.199a136.314 136.314 0 01-2.004 4.42l-.451-.215a136.132 136.132 0 01-2.152 4.329l.443.231a136.822 136.822 0 01-2.313 4.266l-.435-.246a137.331 137.331 0 01-2.455 4.165l.426.262a136.809 136.809 0 01-2.611 4.09l-.417-.276a137.668 137.668 0 01-2.745 3.98l.406.291a136.281 136.281 0 01-2.895 3.894l-.396-.306a135.63 135.63 0 01-3.022 3.775l.385.32a138.399 138.399 0 01-3.166 3.678l-.373-.333a137.58 137.58 0 01-3.282 3.55l.361.346a133.764 133.764 0 01-3.42 3.443l-.348-.358a137.715 137.715 0 01-3.527 3.307l.335.371a135.21 135.21 0 01-3.655 3.191l-.322-.382a137.82 137.82 0 01-3.754 3.048l.309.393a136.294 136.294 0 01-3.874 2.923l-.294-.404a136.882 136.882 0 01-3.961 2.773l.28.415a137.556 137.556 0 01-4.073 2.64l-.264-.425c-1.366.852-2.749 1.68-4.148 2.484l.249.434c-1.4.805-2.817 1.586-4.25 2.343l-.233-.442a135.956 135.956 0 01-4.315 2.183l.217.45a136.72 136.72 0 01-4.405 2.035l-.202-.458a135.067 135.067 0 01-4.458 1.87l.185.464c-1.504.6-3.018 1.172-4.54 1.717l-.168-.471a136.896 136.896 0 01-4.58 1.547l.151.477a133.86 133.86 0 01-4.649 1.388l-.135-.481c-1.553.434-3.113.84-4.679 1.217l.117.486c-1.573.38-3.152.731-4.737 1.054l-.099-.489c-1.58.322-3.165.616-4.754.881l.082.493c-1.596.267-3.196.505-4.8.714l-.065-.495c-1.598.208-3.2.389-4.804.54l.047.498c-1.61.153-3.223.276-4.839.371l-.029-.499c-1.608.094-3.219.16-4.831.197l.012.5c-1.617.038-3.235.046-4.853.026l.006-.5c-1.61-.02-3.221-.069-4.832-.147l-.024.499a135.327 135.327 0 01-4.842-.32l.041-.498a134.296 134.296 0 01-4.809-.491l-.06.497a137.692 137.692 0 01-4.807-.664l.077-.494c-1.59-.249-3.178-.526-4.762-.832l-.095.491a134.928 134.928 0 01-4.748-1.005l.112-.487a138.13 138.13 0 01-2.349-.563l-.002-.001-.038-.01-.126.484-.086-.022.126-.484-.043-.011-.004-.001c-.241-.06-.481-.122-.721-.183-.364-.094-.727-.189-1.09-.285l-.128.483c-1.21-.322-2.415-.661-3.615-1.016l.142-.479a136.46 136.46 0 01-3.572-1.111l-.155.475a135.011 135.011 0 01-3.552-1.213l.168-.471c-.587-.21-1.173-.424-1.757-.642l-.013-.004-.014-.005-2.293-.712-.148.478-4.586-1.425.148-.477-4.586-1.424-.148.477-4.586-1.424.148-.478-4.586-1.424-.148.478-4.587-1.425.149-.477-4.586-1.425-.149.478-4.586-1.424.149-.478-4.587-1.424-.148.477-4.586-1.424.148-.478-4.586-1.424-.148.478-4.586-1.425.148-.477-4.586-1.424-.148.477-4.587-1.424.149-.478-4.586-1.424-.149.477-4.586-1.424.148-.477-2.293-.713-.148.478.148-.478c-.779-.241-1.559-.476-2.342-.702l-.139.48c-1.562-.452-3.13-.874-4.703-1.266l.12-.485a128.758 128.758 0 00-4.767-1.091l-.102.49a128.372 128.372 0 00-4.786-.905l.083-.493c-1.608-.272-3.22-.514-4.836-.725l-.064.496a127.21 127.21 0 00-4.841-.538l.045-.498c-1.624-.15-3.25-.268-4.877-.356l-.027.5a125.414 125.414 0 00-4.868-.169l.008-.5c-1.63-.026-3.26-.02-4.89.016l.011.5c-1.623.036-3.245.104-4.867.202l-.03-.499c-1.626.098-3.252.227-4.874.388l.049.497c-1.615.16-3.228.35-4.838.571l-.068-.495c-1.614.221-3.224.474-4.831.757l.087.493c-1.598.281-3.191.594-4.78.937l-.105-.489a128.81 128.81 0 00-4.76 1.122l.124.485c-1.571.402-3.136.834-4.695 1.297l-.142-.479c-.78.231-1.558.47-2.334.717l-.004.001-2.592.767.142.48-5.204 1.54-.142-.48-5.204 1.54.142.48-5.204 1.54-.142-.48-5.204 1.54.141.48-5.204 1.54-.142-.48-5.204 1.54.142.48-5.204 1.54-.142-.48-5.204 1.54.142.48-5.204 1.539-.142-.479-2.602.77-.014.004-.014.005c-.854.309-1.711.605-2.571.889l.156.475a93.985 93.985 0 01-5.244 1.556l-.128-.484a91.987 91.987 0 01-5.297 1.238l.099.49a91.923 91.923 0 01-5.39.929l-.07-.495a92.49 92.49 0 01-5.406.607l.041.498c-1.817.15-3.638.246-5.462.289l-.011-.5a93.097 93.097 0 01-5.44-.033l-.018.5a93.302 93.302 0 01-5.458-.356l.047-.498a91.528 91.528 0 01-5.398-.672l-.076.494a92.703 92.703 0 01-5.379-.994l.106-.489a92.26 92.26 0 01-5.282-1.302l-.134.482a92.784 92.784 0 01-5.224-1.62l.162-.473a92.227 92.227 0 01-5.092-1.914l-.19.462a92.735 92.735 0 01-4.997-2.222l.217-.451a92.33 92.33 0 01-4.832-2.499l-.243.437a92.579 92.579 0 01-4.701-2.795l.268-.422a93.595 93.595 0 01-4.504-3.05l-.293.405a92.466 92.466 0 01-4.34-3.328l.316-.387a92.447 92.447 0 01-4.115-3.559l-.338.369a92.822 92.822 0 01-3.919-3.816l.359-.347a92.943 92.943 0 01-3.667-4.018l-.379.326a92.934 92.934 0 01-3.443-4.249l.397-.303a92.758 92.758 0 01-3.17-4.421l-.415.279a93.223 93.223 0 01-2.919-4.625l.43-.254a91.636 91.636 0 01-2.628-4.763l-.445.229a93.62 93.62 0 01-2.356-4.936l.458-.202a91.787 91.787 0 01-2.05-5.039l-.469.174a93.016 93.016 0 01-1.759-5.178l.478-.147a92.444 92.444 0 01-1.444-5.245l-.486.118a93.617 93.617 0 01-1.138-5.349l.492-.09a92.493 92.493 0 01-.817-5.378l-.496.06a92.402 92.402 0 01-.502-5.446l.499-.031c-.056-.903-.1-1.807-.129-2.713a68.049 68.049 0 00-.082-2.528l-.5.025a66.185 66.185 0 00-.441-4.968l.496-.063a67.555 67.555 0 00-.819-4.96l-.49.1a67.872 67.872 0 00-1.177-4.85l.482-.136a70.695 70.695 0 00-1.537-4.791l-.47.169a73.565 73.565 0 00-1.852-4.639l.458-.201a79.125 79.125 0 00-2.167-4.534l-.444.229a83.347 83.347 0 00-2.429-4.363l.43-.256a90.722 90.722 0 00-2.692-4.241l-.415.28a96.57 96.57 0 00-2.899-4.068l.399-.3a104.801 104.801 0 00-3.112-3.938l-.385.319a113.527 113.527 0 00-3.275-3.773l.371-.336a123.51 123.51 0 00-3.444-3.646l-.357.35a133.624 133.624 0 00-3.569-3.495l.343-.364a145.718 145.718 0 00-3.706-3.377l-.33.376a152.526 152.526 0 00-3.804-3.241l.318-.386a170.776 170.776 0 00-3.913-3.132l-.307.395a186.851 186.851 0 00-3.99-3.009l.296-.403a198.128 198.128 0 00-4.079-2.908l-.286.41c-1.38-.957-2.761-1.89-4.139-2.798l.275-.417a220.996 220.996 0 00-4.212-2.706l-.266.424a225.962 225.962 0 00-4.261-2.607l.256-.429a243.51 243.51 0 00-4.325-2.524l-.247.435a263.285 263.285 0 00-4.367-2.435l.239-.439a289.145 289.145 0 00-4.422-2.358l-.231.444a287.823 287.823 0 00-4.455-2.275l.224-.448a312.41 312.41 0 00-4.488-2.198l-.216.45a357.452 357.452 0 00-4.514-2.126l.21-.453a430.268 430.268 0 00-4.559-2.073l-.204.456c-.828-.371-1.594-.712-2.295-1.025-.849-.378-1.601-.713-2.247-1.005l.206-.455c-1.04-.47-1.782-.82-2.21-1.055l-.029-.016-.031-.012a49.065 49.065 0 01-1.853-.761l-.2.458a48.751 48.751 0 01-3.641-1.766l.236-.44a48.944 48.944 0 01-1.745-.984 47.744 47.744 0 01-1.972-1.239l-.276.416a47.806 47.806 0 01-3.79-2.792l.316-.387a47.568 47.568 0 01-3.462-3.118l-.352.355a48.026 48.026 0 01-3.173-3.478l.386-.318a47.54 47.54 0 01-2.788-3.733l-.415.279a47.953 47.953 0 01-2.433-4.029l.44-.237a47.478 47.478 0 01-2.006-4.205l-.461.193a47.885 47.885 0 01-1.601-4.427l.478-.147a47.086 47.086 0 01-1.148-4.515l-.49.1a47.997 47.997 0 01-.707-4.655l.497-.051a47.465 47.465 0 01-.245-4.652l-.5.002a48.036 48.036 0 01.215-4.703l.497.048c.147-1.547.37-3.086.667-4.611l-.49-.096c.3-1.539.676-3.065 1.126-4.571l.48.144a47.462 47.462 0 011.552-4.392l-.462-.19a47.834 47.834 0 011.996-4.263l.442.234a47.21 47.21 0 011.141-2.032zm406.912-146.46l.028-.034.034.028-.009.011-.053-.005z" stroke="#DDD" stroke-dasharray="5 5"/><path d="M67.642 324.538a46.84 46.84 0 0016.314 64.185 47.913 47.913 0 007.103 3.445c7.134 3.93 96.147 36.747 96.993 99.021a90.634 90.634 0 0079.379 86.952 90.64 90.64 0 0042.059-4.719l50.798-15.032a125 125 0 0174.91-.252l71.626 22.245c4.579 1.707 9.25 3.16 13.99 4.351l.168.044a132.98 132.98 0 0092.168-10.375 132.981 132.981 0 0066.109-160.8 132.97 132.97 0 00-58.221-72.198 135.303 135.303 0 00-19.309-9.452l-65.64-32.144a124.989 124.989 0 01-68.147-90.817c-1.846-10.576-2.855-24.737-2.61-27.159l-.067-.054A112.789 112.789 0 00310.207 77.49a112.8 112.8 0 00-54.717 46.982c-.433.739-60.168 110.413-60.168 110.413l-.267.467a124.049 124.049 0 01-66.044 56.062l-35.465 12.46a46.636 46.636 0 00-25.904 20.664z" fill="url(#paint0_linear_0_4716)"/><defs><linearGradient id="paint0_linear_0_4716" x1="551.273" y1="197.897" x2="244.3" y2="577.021" gradientUnits="userSpaceOnUse"><stop stop-color="#CBFFF6"/><stop offset="1" stop-color="#FEF3ED" stop-opacity="0"/></linearGradient></defs></svg>