<svg width="634" height="621" fill="none" xmlns="http://www.w3.org/2000/svg"><path d="M44.876 258.569v-.001c.392-.661.801-1.308 1.23-1.941l-.415-.28a38.492 38.492 0 012.835-3.688l.377.328a37.907 37.907 0 013.217-3.275l-.335-.372a38.392 38.392 0 013.637-2.9l.287.409a37.771 37.771 0 013.909-2.409l-.236-.441a38.421 38.421 0 014.226-1.944l.18.466a37.469 37.469 0 012.166-.767h0l.013-.004 2.436-.856-.165-.472 4.873-1.712.165.472 4.873-1.712-.165-.472 4.873-1.712.165.471 4.873-1.712-.166-.471 4.873-1.712.166.471 2.436-.856.005-.001c.822-.298 1.639-.605 2.45-.922l-.181-.466a102.351 102.351 0 004.803-2.02l.205.456a103.32 103.32 0 004.717-2.273l-.228-.445a102.422 102.422 0 004.572-2.498l.251.433a102.45 102.45 0 004.461-2.742l-.272-.419a102.595 102.595 0 004.295-2.95l.293.404a101.962 101.962 0 004.159-3.18l-.313-.39a102.003 102.003 0 003.972-3.372l.333.373a103.32 103.32 0 003.814-3.587l-.352-.355a102.429 102.429 0 003.609-3.759l.37.337a102.617 102.617 0 003.429-3.957l-.386-.318a101.543 101.543 0 003.207-4.106l.402.298c1.038-1.4 2.041-2.829 3.009-4.285l-.416-.277c.96-1.444 1.884-2.915 2.773-4.411l.43.255c.445-.749.88-1.505 1.307-2.267l.001-.002.053-.092-.434-.248.11-.192.434.248.055-.096.005-.009h0v-.001l.001-.002.004-.007.015-.028.061-.111.238-.438.918-1.684-.439-.239 2.459-4.516.439.239 2.495-4.58-.439-.24 2.469-4.533.439.24 2.49-4.57-.439-.239 2.483-4.559.439.239 2.477-4.547-.439-.239 2.48-4.552.439.239 2.481-4.555-.439-.239 2.482-4.556.439.239 2.482-4.556-.439-.239 2.482-4.555.439.239 2.481-4.553-.439-.239a6741.06 6741.06 0 012.479-4.551l.439.24 2.478-4.548-.439-.239 2.489-4.569.439.24 2.486-4.562-.439-.239 2.465-4.523.439.24 2.499-4.583-.439-.239 2.474-4.535.439.24.892-1.633.243-.443.067-.122.019-.034a93.6 93.6 0 011.314-2.147l-.423-.267a93.22 93.22 0 012.806-4.189l.408.29a92.124 92.124 0 013.013-4.01l-.391-.311a92.58 92.58 0 013.243-3.862l.374.332a92.097 92.097 0 013.429-3.66l-.356-.351a93.2 93.2 0 013.643-3.488l.335.37a92.554 92.554 0 013.806-3.267l-.316-.388a93.371 93.371 0 013.999-3.072l.293.404a92.675 92.675 0 014.137-2.836l-.272-.42a93.353 93.353 0 014.308-2.622l.248.434a92.558 92.558 0 014.419-2.372l-.224-.446a93.106 93.106 0 014.565-2.14l.2.458a93.255 93.255 0 014.651-1.88l-.175-.468a93.145 93.145 0 014.77-1.634l.149.478c1.599-.5 3.208-.955 4.827-1.365l-.123-.485a92.892 92.892 0 014.919-1.108l.096.491a92.369 92.369 0 014.946-.834l-.07-.495a93.003 93.003 0 015.01-.569l.043.498a92.475 92.475 0 015.007-.294l-.016-.5a93.029 93.029 0 015.042-.023l-.011.5c1.67.038 3.341.121 5.009.25l.038-.499a92.91 92.91 0 015.015.523l-.065.496c1.655.218 3.307.482 4.953.79l.092-.491c1.649.31 3.293.663 4.929 1.063l-.119.486a92.02 92.02 0 014.839 1.322l.144-.479a92.92 92.92 0 014.785 1.59l-.17.47a92.265 92.265 0 014.666 1.838l.196-.46a93.047 93.047 0 014.584 2.099l-.22.449a92.579 92.579 0 014.44 2.332l.244-.436a93.365 93.365 0 014.331 2.583l-.268.422c1.412.895 2.8 1.828 4.161 2.799l.291-.407a93.637 93.637 0 014.025 3.036l-.312.391a92.275 92.275 0 013.834 3.233l.333-.373a92.819 92.819 0 013.672 3.454l-.352.355a92.688 92.688 0 013.462 3.63l.371-.336a93.925 93.925 0 013.277 3.832l-.389.314a91.667 91.667 0 013.049 3.983l.405-.293a92.782 92.782 0 012.843 4.164l-.42.271a92.556 92.556 0 012.599 4.29l.435-.248a92.162 92.162 0 012.375 4.448l-.447.223a92.72 92.72 0 012.12 4.545l.458-.199a92.993 92.993 0 011.881 4.679l-.469.174a92.394 92.394 0 011.615 4.748l.478-.148a93.612 93.612 0 011.362 4.854l-.485.122a92.703 92.703 0 011.092 4.895l.491-.095c.321 1.648.598 3.306.829 4.973l-.495.069c.23 1.654.415 3.316.555 4.985l.499-.042c.14 1.672.236 3.35.285 5.034l-.499.015c.024.834.038 1.67.04 2.507l.001.238.037.031c-.027.56-.011 1.468.04 2.605l.5-.022c.067 1.498.197 3.443.385 5.619l-.498.043c.152 1.759.341 3.669.565 5.616l.496-.057c.214 1.86.459 3.754.733 5.583l-.495.074c.143.952.293 1.886.451 2.79.139.802.288 1.602.446 2.399l.491-.097c.315 1.59.668 3.171 1.057 4.741l-.485.121c.391 1.581.82 3.151 1.285 4.709l.479-.143c.464 1.552.964 3.093 1.499 4.62l-.472.166a104.101 104.101 0 001.724 4.567l.463-.188c.608 1.502 1.25 2.989 1.928 4.46l-.454.209c.68 1.477 1.396 2.939 2.145 4.384l.444-.23a102.919 102.919 0 002.339 4.258l-.433.251a105.065 105.065 0 002.549 4.163l.421-.271a103.155 103.155 0 002.729 4.018l-.407.291a101.17 101.17 0 002.93 3.904l.393-.309a102.93 102.93 0 003.095 3.744l-.378.327a102.254 102.254 0 003.285 3.611l.362-.345a102.074 102.074 0 003.434 3.436l-.345.362a103.84 103.84 0 003.609 3.286l.328-.378a102.593 102.593 0 003.743 3.097l-.31.393a105.058 105.058 0 003.903 2.931l.291-.407a102.76 102.76 0 004.018 2.731l-.272.42c1.366.882 2.754 1.733 4.162 2.551l.251-.433a103.22 103.22 0 004.257 2.341l-.23.443c.721.375 1.448.742 2.179 1.1l.22-.449-.22.449 2.255 1.104.22-.449 4.509 2.209-.22.449 4.51 2.208.22-.449 4.509 2.208-.22.449 4.51 2.209.22-.449 4.509 2.208-.22.449 4.51 2.208.22-.449 4.509 2.209-.22.449 4.51 2.208.22-.449 4.509 2.208-.22.449 4.51 2.209.22-.449 4.509 2.208-.22.449 2.255 1.104.018.009.018.007c.685.271 1.367.547 2.046.831l.193-.461c1.364.569 2.717 1.166 4.058 1.79l-.211.453a111.8 111.8 0 013.966 1.941l.229-.444c1.314.676 2.615 1.378 3.903 2.106l-.247.436a106.502 106.502 0 013.986 2.369l.264-.424c1.383.864 2.744 1.756 4.082 2.677l-.283.412c1.336.919 2.65 1.867 3.94 2.843l.302-.399a108.91 108.91 0 013.827 3.029l-.319.385a108.115 108.115 0 013.672 3.182l.336-.371a111.302 111.302 0 013.543 3.358l-.352.355a110.111 110.111 0 013.374 3.496l.367-.339a108.821 108.821 0 013.23 3.66l-.382.322a108.37 108.37 0 013.05 3.782l.396-.305c.993 1.289 1.957 2.6 2.892 3.932l-.409.288a108.71 108.71 0 012.702 4.038l.421-.269a109.748 109.748 0 012.531 4.174l-.433.25a108.357 108.357 0 012.331 4.263l.444-.23a109.678 109.678 0 012.15 4.382l-.454.21c.68 1.468 1.327 2.952 1.943 4.453l.463-.189c.616 1.503 1.2 3.022 1.751 4.556l-.471.169a110.952 110.952 0 011.539 4.608l.478-.147c.482 1.557.928 3.122 1.339 4.694l-.484.126c.411 1.57.785 3.146 1.124 4.727l.489-.104c.341 1.593.647 3.191.916 4.794l-.493.083c.269 1.599.501 3.202.698 4.809l.497-.061c.198 1.616.36 3.235.486 4.857l-.499.038c.126 1.616.215 3.234.268 4.852l.5-.017c.054 1.627.071 3.255.052 4.881l-.5-.005a110.805 110.805 0 01-.164 4.856l.499.028a110.049 110.049 0 01-.382 4.866l-.498-.05a108.639 108.639 0 01-.595 4.822l.494.073a109.568 109.568 0 01-.813 4.813l-.491-.095c-.305 1.59-.646 3.173-1.022 4.751l.486.116a109.56 109.56 0 01-1.238 4.721l-.481-.137a109.45 109.45 0 01-1.44 4.64l.474.159a110.408 110.408 0 01-1.654 4.593l-.466-.18a111.513 111.513 0 01-1.848 4.494l.458.2a108.519 108.519 0 01-2.055 4.428l-.449-.221a107.203 107.203 0 01-2.24 4.312l.439.241a109.065 109.065 0 01-2.441 4.227l-.427-.26a108.845 108.845 0 01-2.615 4.096l.415.278a107.988 107.988 0 01-2.807 3.994l-.402-.297a108.68 108.68 0 01-2.969 3.847l.389.314a108.825 108.825 0 01-3.151 3.728l-.375-.331a109.065 109.065 0 01-3.299 3.568l.36.347a109.057 109.057 0 01-3.47 3.433l-.344-.363a108.045 108.045 0 01-3.603 3.26l.327.378a108.835 108.835 0 01-3.761 3.111l-.31-.392a109.931 109.931 0 01-3.879 2.927l.292.405c-1.319.95-2.66 1.872-4.023 2.764l-.274-.418a108.897 108.897 0 01-4.124 2.57l.255.43a109.13 109.13 0 01-4.253 2.395l-.236-.441a109.833 109.833 0 01-4.336 2.194l.216.451a109.935 109.935 0 01-4.45 2.007l-.195-.46a108.41 108.41 0 01-4.514 1.799l.175.468c-1.526.57-3.064 1.104-4.61 1.604l-.154-.476c-1.543.499-3.095.962-4.656 1.39l.133.483c-1.571.431-3.149.826-4.735 1.187l-.111-.488c-1.58.359-3.167.683-4.761.971l.089.492c-1.601.29-3.209.543-4.821.761l-.067-.495c-1.605.217-3.215.398-4.829.543l.045.498c-1.62.146-3.244.256-4.87.33l-.022-.5c-1.618.074-3.238.111-4.858.112v.5c-1.626.002-3.253-.033-4.88-.104l.022-.5a109.336 109.336 0 01-4.848-.32l-.044.498a110.347 110.347 0 01-4.852-.539l.066-.495a110.715 110.715 0 01-4.8-.751l-.088.492a110.113 110.113 0 01-4.785-.968l.11-.488c-.788-.178-1.575-.364-2.361-.56l-.003-.001-.029-.007-.126.483-.069-.017.125-.484-.034-.009-.004-.001c-.972-.245-1.941-.503-2.906-.774l-.135.482a108.723 108.723 0 01-5.77-1.795l.162-.473a109.56 109.56 0 01-2.832-1.011l-.013-.005-.013-.004-2.461-.765-.148.478-4.921-1.528.148-.478-4.92-1.528-.149.478-4.92-1.529.148-.477-4.921-1.528-.148.477-4.921-1.528.149-.478-4.921-1.528-.148.478-4.921-1.529.148-.477-4.921-1.528-.148.477-4.921-1.528.149-.477-4.921-1.529-.148.478-4.921-1.528.148-.478-2.46-.764-.148.477.148-.477a102.14 102.14 0 00-2.518-.747l-.136.481a103.161 103.161 0 00-5.063-1.294l.111-.487a103.492 103.492 0 00-5.147-1.041l-.087.492c-1.717-.302-3.441-.56-5.168-.774l.061-.497a104.158 104.158 0 00-5.226-.514l-.036.499a102.25 102.25 0 00-5.22-.247l.01-.5c-1.75-.039-3.501-.033-5.251.017l.014.5c-1.741.05-3.481.144-5.218.283l-.04-.499c-1.744.139-3.485.322-5.222.549l.064.496c-1.725.226-3.447.496-5.163.81l-.089-.492c-1.721.314-3.435.673-5.141 1.075l.115.487c-1.693.399-3.378.842-5.054 1.328l-.14-.48a101.777 101.777 0 00-2.513.763l-2.607.772.142.479-5.235 1.549-.142-.479-5.235 1.549.142.48-5.235 1.549-.142-.48-5.234 1.549.141.48-5.234 1.549-.142-.48-5.235 1.549.142.48-5.235 1.549-.142-.48-2.617.775-.014.004-.015.005a71.96 71.96 0 01-2.066.714l.156.475a74.403 74.403 0 01-4.219 1.252l-.128-.483c-1.41.374-2.83.705-4.257.995l.099.49a74.257 74.257 0 01-4.337.747l-.071-.495a74.536 74.536 0 01-4.344.488l.041.498a74.098 74.098 0 01-4.396.232l-.011-.499a74.118 74.118 0 01-4.372-.027l-.018.5a75.201 75.201 0 01-4.392-.286l.047-.498a75.912 75.912 0 01-4.338-.54l-.077.494a75.724 75.724 0 01-4.327-.8l.105-.489a74.874 74.874 0 01-4.245-1.047l-.134.482a75.08 75.08 0 01-4.204-1.303l.162-.473a74.891 74.891 0 01-4.092-1.539l-.189.463a73.986 73.986 0 01-4.022-1.789l.217-.45a74.23 74.23 0 01-3.883-2.009l-.243.437a74.11 74.11 0 01-3.783-2.249l.268-.422a72.679 72.679 0 01-3.62-2.451l-.293.405a74.526 74.526 0 01-3.492-2.678l.315-.387a75.1 75.1 0 01-3.306-2.86l-.338.368a74.878 74.878 0 01-3.154-3.07l.359-.348a73.773 73.773 0 01-2.947-3.229l-.379.326a73.959 73.959 0 01-2.771-3.419l.397-.303a74.468 74.468 0 01-2.547-3.553l-.415.279a74.439 74.439 0 01-2.349-3.721l.43-.255a75.528 75.528 0 01-2.112-3.828l-.445.229a74.371 74.371 0 01-1.896-3.972l.458-.202a73.832 73.832 0 01-1.648-4.05l-.468.175a74.805 74.805 0 01-1.416-4.167l.478-.147a73.983 73.983 0 01-1.16-4.215l-.486.118a74.16 74.16 0 01-.916-4.305l.492-.089a74.732 74.732 0 01-.657-4.323l-.496.061a75.334 75.334 0 01-.404-4.383l.499-.031a75.184 75.184 0 01-.104-2.18 53.367 53.367 0 00-.094-2.543l-.499.03a53.901 53.901 0 00-.538-4.991l.494-.077a54.728 54.728 0 00-1.012-4.964l-.485.122a56.206 56.206 0 00-1.447-4.807l.472-.165a59.836 59.836 0 00-1.878-4.704l-.456.204a63.98 63.98 0 00-2.237-4.497l.438-.24a70.097 70.097 0 00-2.589-4.347l-.42.271a75.907 75.907 0 00-2.862-4.129l.401-.298a84.39 84.39 0 00-3.134-3.965l-.383.321a92.58 92.58 0 00-3.334-3.76l.366-.341c-1.15-1.23-2.332-2.43-3.54-3.602l-.348.359a113.032 113.032 0 00-3.685-3.417l.332-.374a125.743 125.743 0 00-3.84-3.273l-.317.387a137.475 137.475 0 00-3.945-3.11l.302-.398a148.84 148.84 0 00-4.064-2.98l-.289.408a164.862 164.862 0 00-4.15-2.842l.276-.417a177.898 177.898 0 00-4.244-2.727l-.265.424a194.186 194.186 0 00-4.303-2.6l.253-.432c-1.48-.868-2.94-1.699-4.37-2.491l-.242.437a219.17 219.17 0 00-4.427-2.387l.232-.443a242.26 242.26 0 00-4.493-2.295l-.222.448a251.498 251.498 0 00-4.52-2.193l.213-.452a303.63 303.63 0 00-4.563-2.11l-.206.456c-1.208-.547-2.29-1.029-3.225-1.446a426.25 426.25 0 01-1.376-.614l.204-.456c-1.062-.477-1.804-.82-2.201-1.039l-.03-.016-.031-.012c-.5-.194-.996-.398-1.488-.612l-.2.459a39.346 39.346 0 01-2.93-1.421l.237-.441c-.472-.253-.94-.516-1.401-.789a38.156 38.156 0 01-2.099-1.344l-.283.412a38.479 38.479 0 01-3.965-3.126l.335-.372a38.088 38.088 0 01-3.478-3.57l-.38.325a38.605 38.605 0 01-3.022-4.046l.42-.272a38.13 38.13 0 01-2.436-4.348l-.451.215a38.54 38.54 0 01-1.872-4.69l.476-.154a38.092 38.092 0 01-1.228-4.831l-.492.091a38.623 38.623 0 01-.595-5.014l.5-.026a38.13 38.13 0 01.064-4.984l-.499-.039c.132-1.68.373-3.35.723-4.998l.489.104a38.09 38.09 0 011.35-4.798l-.47-.167a38.648 38.648 0 011.99-4.64l.446.227a38.1 38.1 0 011.203-2.184zm327.366-117.91l.022-.027.027.023-.007.009-.042-.005z" stroke="#DDD" stroke-dasharray="5 5"/><path d="M60.284 261.332a36.373 36.373 0 0012.667 49.836 37.35 37.35 0 005.515 2.674c5.54 3.052 74.652 28.532 75.309 76.883a70.378 70.378 0 0030.874 55.951 70.38 70.38 0 0063.415 7.898l39.441-11.671a97.054 97.054 0 0158.163-.196l55.612 17.272a102.86 102.86 0 0010.863 3.379l.13.033a103.245 103.245 0 0071.563-8.055 103.255 103.255 0 0051.329-124.851 103.241 103.241 0 00-45.204-56.057 105.111 105.111 0 00-14.993-7.339l-50.965-24.958a97.033 97.033 0 01-52.911-70.513c-1.434-8.211-2.218-19.207-2.027-21.088l-.052-.042a87.576 87.576 0 00-162.877-44.495c-.336.574-46.716 85.729-46.716 85.729l-.208.362a96.316 96.316 0 01-51.279 43.529l-27.536 9.675a36.205 36.205 0 00-20.113 16.044z" fill="url(#paint0_linear_0_4868)"/><defs><linearGradient id="paint0_linear_0_4868" x1="435.792" y1="163.004" x2="197.448" y2="457.368" gradientUnits="userSpaceOnUse"><stop stop-color="#FEF3ED"/><stop offset="1" stop-color="#FEF3ED" stop-opacity="0"/></linearGradient></defs></svg>