<svg width="634" height="622" fill="none" xmlns="http://www.w3.org/2000/svg"><path d="M44.876 258.985h0c.391-.662.801-1.31 1.229-1.944l-.414-.28a38.322 38.322 0 012.835-3.694l.377.328a37.976 37.976 0 013.217-3.281l-.335-.371a38.306 38.306 0 013.637-2.906l.287.409a37.797 37.797 0 013.909-2.412l-.236-.441a38.257 38.257 0 014.226-1.948l.18.467a37.495 37.495 0 012.166-.769v.001l.013-.005 2.436-.857-.165-.472 4.873-1.715.165.472 4.873-1.715-.165-.472 4.873-1.715.165.472 4.873-1.715-.166-.472 4.873-1.715.166.472 2.437-.857.004-.002a99.101 99.101 0 002.45-.923l-.181-.466c1.621-.635 3.223-1.31 4.803-2.024l.206.457c1.594-.72 3.167-1.479 4.717-2.277l-.229-.445a102.528 102.528 0 004.573-2.502l.251.433a103.135 103.135 0 004.461-2.746l-.272-.42a102.018 102.018 0 004.294-2.955l.294.405c1.413-1.027 2.8-2.089 4.159-3.186l-.314-.389a102.185 102.185 0 003.973-3.378l.333.373a101.78 101.78 0 003.813-3.593l-.351-.355a103.445 103.445 0 003.609-3.765l.369.337a102.048 102.048 0 003.429-3.963l-.386-.318a102.462 102.462 0 003.208-4.112l.401.298a103.048 103.048 0 003.009-4.292l-.416-.277a103.37 103.37 0 002.773-4.419l.43.256c.444-.751.88-1.507 1.306-2.27l.002-.002.052-.093-.433-.248.11-.193.433.249.055-.097h0l.005-.009h.001l.001-.002.004-.007.015-.028.061-.112.238-.438.917-1.687-.438-.24 2.459-4.523.439.239 2.495-4.587-.439-.24 2.469-4.54.439.239 2.489-4.577-.438-.239 2.483-4.566.439.239 2.476-4.554-.438-.239 2.48-4.56.438.239 2.482-4.562-.439-.239 2.482-4.564.439.24 2.482-4.563-.439-.24 2.482-4.562.438.24 2.481-4.561-.439-.24 2.48-4.557.439.239 2.477-4.555-.438-.239 2.489-4.576.439.239 2.486-4.568-.439-.24 2.465-4.53.439.24 2.499-4.59-.439-.24 2.474-4.542.439.24.892-1.635.242-.444.067-.122.02-.034.005-.01c.427-.72.864-1.434 1.309-2.14l-.423-.267a93.314 93.314 0 012.806-4.197l.408.29a92.255 92.255 0 013.013-4.016l-.392-.311a92.712 92.712 0 013.244-3.868l.373.332a93 93 0 013.429-3.665l-.355-.352a93.24 93.24 0 013.642-3.493l.336.37a92.574 92.574 0 013.805-3.272l-.315-.388a92.75 92.75 0 013.998-3.078l.294.405a92.654 92.654 0 014.136-2.841l-.271-.42a92.61 92.61 0 014.307-2.627l.248.435a92.566 92.566 0 014.42-2.376l-.225-.447c1.5-.755 3.022-1.47 4.566-2.144l.2.459a93.3 93.3 0 014.651-1.883l-.175-.469a92.751 92.751 0 014.77-1.636l.149.478c1.598-.5 3.207-.956 4.826-1.367l-.124-.485a93.158 93.158 0 014.919-1.11l.097.492a92.41 92.41 0 014.945-.836l-.07-.496a92.805 92.805 0 015.01-.569l.043.498a92.434 92.434 0 015.007-.294l-.016-.5a92.155 92.155 0 015.043-.023l-.011.5c1.67.038 3.34.12 5.009.25l.038-.5a93.02 93.02 0 015.015.525l-.065.496a92.23 92.23 0 014.953.791l.092-.491c1.65.31 3.293.664 4.929 1.064l-.118.487a93.54 93.54 0 014.839 1.324l.144-.48a92.85 92.85 0 014.785 1.593l-.17.47a92.207 92.207 0 014.666 1.841l.196-.46a93.004 93.004 0 014.584 2.102l-.22.45a92.46 92.46 0 014.44 2.335l.244-.436a92.713 92.713 0 014.33 2.587l-.267.423c1.412.896 2.8 1.831 4.161 2.803l.29-.407a92.995 92.995 0 014.026 3.041l-.312.391a92.248 92.248 0 013.834 3.238l.333-.373a93.594 93.594 0 013.672 3.46l-.352.355a92.04 92.04 0 013.462 3.635l.371-.335a94.039 94.039 0 013.277 3.838l-.388.314a94.815 94.815 0 013.048 3.99l.405-.293a92.987 92.987 0 012.843 4.17l-.42.272a91.88 91.88 0 012.6 4.296l.434-.248a93.311 93.311 0 012.376 4.456l-.447.223a92.508 92.508 0 012.12 4.553l.458-.199a93.218 93.218 0 011.88 4.686l-.468.174a93.316 93.316 0 011.615 4.756l.477-.148a93.63 93.63 0 011.363 4.862l-.485.122a92.77 92.77 0 011.092 4.903l.49-.096c.321 1.651.598 3.312.829 4.982l-.495.068a92.36 92.36 0 01.556 4.993l.498-.042c.14 1.675.236 3.356.285 5.042l-.499.014c.025.836.038 1.674.04 2.512l.001.238.037.03c-.027.562-.01 1.471.041 2.61l.499-.022c.067 1.501.197 3.449.385 5.628l-.498.043c.152 1.762.341 3.675.565 5.625l.496-.057c.214 1.864.459 3.761.733 5.592l-.494.074c.142.953.292 1.89.45 2.795.139.803.288 1.604.447 2.403l.49-.097c.315 1.592.668 3.176 1.057 4.748l-.485.121c.392 1.583.82 3.155 1.285 4.716l.479-.143c.464 1.555.963 3.098 1.499 4.628l-.471.166a103.575 103.575 0 001.723 4.574l.463-.188c.607 1.504 1.25 2.993 1.927 4.467l-.453.209c.68 1.48 1.396 2.944 2.145 4.392l.444-.231a102.008 102.008 0 002.339 4.265l-.433.251a104.62 104.62 0 002.55 4.17l.419-.271a103.062 103.062 0 002.73 4.025l-.407.291a105.789 105.789 0 002.93 3.911l.393-.31a102.278 102.278 0 003.095 3.75l-.377.328a104.22 104.22 0 003.284 3.617l.361-.346a104.196 104.196 0 003.435 3.442l-.345.361a103.137 103.137 0 003.61 3.292l.327-.378a103.769 103.769 0 003.743 3.102l-.31.393a103.308 103.308 0 003.904 2.936l.29-.407c1.317.942 2.656 1.854 4.018 2.735l-.271.42c1.366.884 2.753 1.736 4.162 2.555l.25-.433c1.399.814 2.818 1.596 4.257 2.344l-.23.444c.722.376 1.448.743 2.179 1.102l.22-.449-.22.449 2.255 1.106.22-.449 4.509 2.211-.22.45 4.51 2.212.22-.45 4.509 2.212-.22.45 4.51 2.212.22-.45 4.509 2.212-.22.449 4.51 2.212.22-.449 4.509 2.212-.22.449 4.51 2.212.22-.449 4.509 2.212-.22.449 4.51 2.212.22-.449 4.509 2.212-.22.449 2.255 1.106.018.009.019.007c.684.271 1.366.548 2.045.832l.193-.462a113.57 113.57 0 014.058 1.793l-.211.454c1.335.621 2.657 1.27 3.966 1.944l.228-.445c1.315.678 2.616 1.381 3.904 2.11l-.246.436a110.134 110.134 0 013.985 2.373l.264-.424c1.383.865 2.744 1.759 4.082 2.681l-.283.412c1.337.921 2.65 1.871 3.941 2.848l.301-.399c1.3.984 2.576 1.995 3.827 3.034l-.318.385a110.396 110.396 0 013.672 3.187l.335-.37a108.213 108.213 0 013.543 3.363l-.352.355a108.196 108.196 0 013.375 3.502l.367-.339a109.984 109.984 0 013.23 3.665l-.382.323a108.578 108.578 0 013.05 3.788l.396-.305a110.223 110.223 0 012.892 3.938l-.409.288c.93 1.327 1.831 2.676 2.701 4.045l.422-.269a110.473 110.473 0 012.53 4.18l-.433.25a108.655 108.655 0 012.332 4.27l.444-.23a111.327 111.327 0 012.149 4.389l-.454.21c.68 1.47 1.328 2.957 1.943 4.46l.463-.189c.616 1.505 1.2 3.026 1.751 4.563l-.471.169a107.497 107.497 0 011.54 4.616l.477-.148c.482 1.56.928 3.128 1.339 4.702l-.483.127c.41 1.572.785 3.151 1.124 4.735l.488-.105c.341 1.596.647 3.198.916 4.803l-.493.083c.269 1.601.502 3.207.699 4.816l.496-.06c.198 1.619.36 3.241.486 4.865l-.498.038c.125 1.619.214 3.239.268 4.86l.499-.017c.054 1.63.071 3.26.052 4.889l-.5-.006a108.078 108.078 0 01-.164 4.864l.499.029a110.412 110.412 0 01-.383 4.874l-.497-.051a108.994 108.994 0 01-.595 4.83l.494.073a109.626 109.626 0 01-.813 4.82l-.491-.094a109.39 109.39 0 01-1.022 4.757l.486.117a110.29 110.29 0 01-1.238 4.729l-.481-.138a109.748 109.748 0 01-1.44 4.647l.473.159a109.653 109.653 0 01-1.653 4.6l-.466-.18a111.848 111.848 0 01-1.848 4.501l.458.201a109.435 109.435 0 01-2.055 4.435l-.448-.221a110.857 110.857 0 01-2.24 4.319l.438.24a109.38 109.38 0 01-2.441 4.235l-.427-.26a109.892 109.892 0 01-2.615 4.102l.415.279a109.022 109.022 0 01-2.807 3.999l-.402-.297a107.717 107.717 0 01-2.969 3.853l.389.315a110.003 110.003 0 01-3.151 3.734l-.374-.332a109.263 109.263 0 01-3.299 3.574l.359.348a110.29 110.29 0 01-3.47 3.438l-.343-.363a111.378 111.378 0 01-3.603 3.265l.327.379a110.143 110.143 0 01-3.762 3.115l-.31-.392a108.825 108.825 0 01-3.879 2.931l.292.406c-1.318.952-2.66 1.875-4.023 2.769l-.274-.419a108.195 108.195 0 01-4.124 2.574l.255.431c-1.397.83-2.815 1.629-4.253 2.399l-.236-.442a109.907 109.907 0 01-4.336 2.197l.216.452a110.584 110.584 0 01-4.449 2.01l-.195-.461a109.02 109.02 0 01-4.514 1.802l.175.469c-1.526.57-3.063 1.106-4.61 1.606l-.154-.476a108.98 108.98 0 01-4.655 1.393l.132.482c-1.57.432-3.148.828-4.734 1.189l-.111-.488c-1.58.36-3.168.684-4.761.973l.089.492c-1.601.29-3.209.544-4.821.763l-.067-.496c-1.605.217-3.215.399-4.829.544l.045.499c-1.62.146-3.244.256-4.87.33l-.023-.5c-1.617.074-3.237.111-4.857.112v.501c-1.626.001-3.253-.034-4.88-.105l.022-.5a109.384 109.384 0 01-4.849-.321l-.044.499a110.353 110.353 0 01-4.852-.54l.066-.496a107.773 107.773 0 01-4.801-.752l-.088.493a108.66 108.66 0 01-4.785-.97l.11-.488c-.788-.178-1.574-.365-2.36-.561l-.004-.001-.03-.008-.125.485-.069-.018.125-.485-.035-.009-.003-.001a107.1 107.1 0 01-2.906-.774l-.135.482a108.755 108.755 0 01-5.77-1.798l.162-.473c-.949-.325-1.893-.663-2.832-1.013l-.013-.005-.014-.004-2.46-.766-.148.478-4.921-1.531.148-.477-4.921-1.531-.148.478-4.92-1.531.148-.478-4.921-1.53-.148.477-4.921-1.53.148-.478-4.92-1.531-.148.478-4.921-1.531.148-.478-4.921-1.53-.148.478-4.921-1.531.148-.478-4.92-1.531-.148.478-4.921-1.53.148-.478-2.46-.766c-.837-.26-1.677-.509-2.519-.748l-.135.482c-1.68-.476-3.368-.908-5.064-1.296l.111-.488a103.51 103.51 0 00-5.147-1.043l-.087.493a103.043 103.043 0 00-5.168-.776l.061-.497a103.11 103.11 0 00-5.226-.514l-.037.499c-1.738-.127-3.479-.21-5.22-.248l.011-.5a103.324 103.324 0 00-5.252.017l.015.501c-1.741.05-3.481.144-5.219.283l-.039-.499c-1.744.139-3.486.322-5.223.55l.065.496c-1.726.226-3.447.497-5.163.811l-.09-.492c-1.72.315-3.433.674-5.14 1.077l.115.487c-1.693.4-3.378.843-5.054 1.33l-.139-.481c-.838.244-1.674.498-2.507.764l-.006.001-2.607.773.141.48-5.234 1.551-.142-.479-5.235 1.551.142.48-5.235 1.551-.142-.479-5.235 1.551.142.48-5.234 1.552-.142-.48-5.235 1.551.142.48-5.235 1.552-.142-.48-2.617.776-.015.004-.014.005c-.685.249-1.374.487-2.066.715l.157.475a74.7 74.7 0 01-4.22 1.254l-.128-.483c-1.41.374-2.83.706-4.257.996l.1.491a75.147 75.147 0 01-4.338.748l-.07-.495a74.473 74.473 0 01-4.345.488l.041.499a74.923 74.923 0 01-4.395.233l-.012-.501a73.265 73.265 0 01-4.372-.026l-.017.5a75.179 75.179 0 01-4.393-.286l.047-.499a72.479 72.479 0 01-4.338-.541l-.076.495a74.06 74.06 0 01-4.328-.802l.105-.489a74.038 74.038 0 01-4.245-1.048l-.133.482a73.783 73.783 0 01-4.204-1.306l.162-.473a73.83 73.83 0 01-4.093-1.541l-.189.463a74.71 74.71 0 01-4.022-1.791l.217-.451a74.277 74.277 0 01-3.883-2.012l-.243.437a74.163 74.163 0 01-3.783-2.252l.267-.423a74.624 74.624 0 01-3.62-2.455l-.292.406a74.106 74.106 0 01-3.492-2.683l.315-.387a74.571 74.571 0 01-3.307-2.865l-.337.369a75.012 75.012 0 01-3.154-3.075l.359-.349a73.976 73.976 0 01-2.948-3.234l-.378.327a74.654 74.654 0 01-2.771-3.425l.397-.304a73.906 73.906 0 01-2.547-3.558l-.415.279a74.613 74.613 0 01-2.349-3.727l.43-.255a75.743 75.743 0 01-2.113-3.834l-.444.229a74.582 74.582 0 01-1.896-3.979l.457-.202a74.006 74.006 0 01-1.647-4.056l-.469.175a74.237 74.237 0 01-1.415-4.175l.477-.146a74.44 74.44 0 01-1.16-4.222l-.485.118a74.214 74.214 0 01-.916-4.312l.491-.089a73.978 73.978 0 01-.656-4.33l-.496.061a74.706 74.706 0 01-.404-4.39l.499-.031a75.391 75.391 0 01-.104-2.183 54.891 54.891 0 00-.094-2.547l-.499.03a54.053 54.053 0 00-.538-4.998l.493-.077a54.898 54.898 0 00-1.011-4.972l-.484.123a56.277 56.277 0 00-1.448-4.815l.472-.166c-.56-1.6-1.187-3.17-1.877-4.711l-.456.205a63.947 63.947 0 00-2.237-4.505l.438-.24a70.262 70.262 0 00-2.589-4.354l-.42.271a76.47 76.47 0 00-2.862-4.136l.401-.298a85.741 85.741 0 00-3.133-3.972l-.383.322a94.294 94.294 0 00-3.334-3.766l.365-.342a103.819 103.819 0 00-3.54-3.607l-.348.359a113.223 113.223 0 00-3.685-3.423l.332-.374a126.93 126.93 0 00-3.84-3.278l-.317.387a137.676 137.676 0 00-3.945-3.115l.302-.399a152.19 152.19 0 00-4.064-2.984l-.289.408a162.573 162.573 0 00-4.15-2.848l.276-.417a177.996 177.996 0 00-4.245-2.731l-.264.425a187.017 187.017 0 00-4.303-2.605l.252-.432a204.91 204.91 0 00-4.37-2.496l-.242.438a224.639 224.639 0 00-4.427-2.391l.232-.443a237.41 237.41 0 00-4.493-2.299l-.222.448a252.805 252.805 0 00-4.52-2.196l.213-.452a297.16 297.16 0 00-4.563-2.114l-.206.456c-1.208-.548-2.29-1.03-3.225-1.448l-1.376-.615.204-.457c-1.062-.477-1.804-.821-2.202-1.04l-.03-.016-.03-.013c-.5-.193-.997-.397-1.488-.612l-.2.459a39.743 39.743 0 01-2.93-1.423l.237-.441a37.01 37.01 0 01-1.401-.791 38.148 38.148 0 01-2.1-1.346l-.282.413a38.682 38.682 0 01-3.965-3.132l.334-.372a38.02 38.02 0 01-3.478-3.576l-.38.325a38.693 38.693 0 01-3.02-4.052l.418-.273a38.14 38.14 0 01-2.436-4.355l-.45.215a38.69 38.69 0 01-1.872-4.696l.475-.155a38.054 38.054 0 01-1.228-4.839l-.49.091a38.705 38.705 0 01-.596-5.022l.5-.027a38.24 38.24 0 01.063-4.992l-.498-.039a38.77 38.77 0 01.723-5.005l.489.104a38.207 38.207 0 011.35-4.806l-.47-.167a38.675 38.675 0 011.99-4.647l.446.227c.376-.74.777-1.469 1.203-2.188zm327.366-118.099l.022-.027.027.022-.007.009-.042-.004z" stroke="#DDD" stroke-dasharray="5 5"/><path d="M60.284 261.753a36.483 36.483 0 00-3.983 27.585 36.423 36.423 0 0016.65 22.331 37.277 37.277 0 005.514 2.679c5.54 3.057 74.652 28.578 75.309 77.007a70.575 70.575 0 008.72 31.733 70.433 70.433 0 0022.155 24.308 70.274 70.274 0 0063.414 7.911l39.441-11.69a96.899 96.899 0 0158.163-.196l55.613 17.299a102.564 102.564 0 0010.862 3.384l.131.034c24.047 6 49.447 3.137 71.562-8.068a103.361 103.361 0 0048.893-52.962 103.577 103.577 0 002.437-72.09 103.376 103.376 0 00-45.205-56.148 105.014 105.014 0 00-14.993-7.35l-50.965-24.999a97.084 97.084 0 01-34.925-28.947 97.273 97.273 0 01-17.986-41.68c-1.434-8.224-2.217-19.237-2.027-21.121l-.052-.042a87.809 87.809 0 00-18.033-53.096 87.565 87.565 0 00-46.462-31.3 87.447 87.447 0 00-55.898 3.292 87.627 87.627 0 00-42.484 36.537c-.336.575-46.716 85.867-46.716 85.867l-.207.363a96.36 96.36 0 01-51.28 43.599l-27.536 9.69a36.22 36.22 0 00-20.112 16.07z" fill="url(#paint0_linear_0_4546)"/><defs><linearGradient id="paint0_linear_0_4546" x1="435.791" y1="163.266" x2="196.983" y2="457.729" gradientUnits="userSpaceOnUse"><stop stop-color="#EDEFFE"/><stop offset="1" stop-color="#FEF3ED" stop-opacity="0"/></linearGradient></defs></svg>