<svg width="1920" height="5120" fill="none" xmlns="http://www.w3.org/2000/svg"><g filter="url(#filter0_f_0_1046)"><path d="M432 4369c0 105.49-85.514 191-191 191s-191-85.51-191-191 85.514-191 191-191 191 85.51 191 191z" fill="#F7FFC2"/></g><g filter="url(#filter1_f_0_1046)"><path d="M585 3598c0 156.85-127.151 284-284 284S17 3754.85 17 3598s127.151-284 284-284 284 127.15 284 284z" fill="#D3CCFF"/></g><g filter="url(#filter2_f_0_1046)"><path d="M1165 2389c0 105.49-85.51 191-191 191-105.486 0-191-85.51-191-191s85.514-191 191-191c105.49 0 191 85.51 191 191z" fill="#F7FFE7"/></g><g filter="url(#filter3_f_0_1046)"><path d="M1209 1048.5c0 137.24-111.26 248.5-248.5 248.5-137.243 0-248.5-111.26-248.5-248.5C712 911.257 823.257 800 960.5 800c137.24 0 248.5 111.257 248.5 248.5z" fill="#C2B8FF" fill-opacity=".7"/></g><defs><filter id="filter0_f_0_1046" x="-510" y="3618" width="1502" height="1502" filterUnits="userSpaceOnUse" color-interpolation-filters="sRGB"><feFlood flood-opacity="0" result="BackgroundImageFix"/><feBlend in="SourceGraphic" in2="BackgroundImageFix" result="shape"/><feGaussianBlur stdDeviation="280" result="effect1_foregroundBlur_0_1046"/></filter><filter id="filter1_f_0_1046" x="-783" y="2514" width="2168" height="2168" filterUnits="userSpaceOnUse" color-interpolation-filters="sRGB"><feFlood flood-opacity="0" result="BackgroundImageFix"/><feBlend in="SourceGraphic" in2="BackgroundImageFix" result="shape"/><feGaussianBlur stdDeviation="400" result="effect1_foregroundBlur_0_1046"/></filter><filter id="filter2_f_0_1046" x="223" y="1638" width="1502" height="1502" filterUnits="userSpaceOnUse" color-interpolation-filters="sRGB"><feFlood flood-opacity="0" result="BackgroundImageFix"/><feBlend in="SourceGraphic" in2="BackgroundImageFix" result="shape"/><feGaussianBlur stdDeviation="280" result="effect1_foregroundBlur_0_1046"/></filter><filter id="filter3_f_0_1046" x="-88" y="0" width="2097" height="2097" filterUnits="userSpaceOnUse" color-interpolation-filters="sRGB"><feFlood flood-opacity="0" result="BackgroundImageFix"/><feBlend in="SourceGraphic" in2="BackgroundImageFix" result="shape"/><feGaussianBlur stdDeviation="400" result="effect1_foregroundBlur_0_1046"/></filter></defs></svg>