<svg width="1920" height="743" fill="none" xmlns="http://www.w3.org/2000/svg"><path d="M-34.718 805.934c6.358-138.076 94.38-238.768 165.119-319.671l5.014-5.731c8.193-8.64 27.132-31.743 25.654-59.636-.895-17.013-9.312-32.37-24.982-45.712-9.447-7.969-17.909-15.446-26.416-22.386A1227.25 1227.25 0 00-.691 265.493c-16.387-11.372-32.505-22.385-48.264-32.235v1.567a1721.047 1721.047 0 0147.503 31.743 1229.985 1229.985 0 01110.273 87.26c8.282 7.119 16.968 14.596 26.37 22.386 15.402 13.073 23.64 28.162 24.535 44.772 1.478 27.221-17.192 50.1-25.117 58.561l-5.059 5.776C58.497 566.45-29.703 667.321-36.06 805.889c-.717 14.73-6.448 23.774-12.895 26.863v1.612c6.984-2.91 13.431-12.044 14.237-28.43z" fill="#fff" fill-opacity=".03"/><path d="M-3.422 807.366C2.443 680.214 86.48 584.134 153.995 506.902l5.06-5.775a520.219 520.219 0 0034.116-42.713c10.521-15.043 30.086-43.025-16.118-87.573a1283.175 1283.175 0 00-159.88-131.316c-22.953-15.879-44.996-30.266-66.128-43.16v1.567c20.893 12.805 42.682 27.042 65.367 42.712a1284.103 1284.103 0 01159.701 131.137c45.354 43.787 26.236 71.142 15.983 85.872a526.578 526.578 0 01-34.071 42.623l-5.059 5.776C85.36 583.417 1.1 679.721-4.765 807.321c-2.732 59.188-13.432 93.618-33.087 108.393a22.788 22.788 0 01-11.103 4.88v1.388a24.042 24.042 0 0011.91-5.194c20.191-14.998 30.847-49.786 33.623-109.422zm546.484-909.449c-8.73-34.385-78.932-43.563-160.193-54.129-20.103-2.597-40.877-5.328-61.024-8.507-89.141-14.058-170.715-58.83-249.603-102.08C32.71-288.558-7.63-310.675-48.955-328.897v3.447c40.742 17.909 80.59 39.892 119.675 61.293 79.112 43.428 161.178 88.29 250.722 102.438 20.192 3.178 41.011 5.909 61.114 8.551 76.783 10.029 149.358 19.521 157.552 51.846 6.357 25.162-26.416 63.352-100.2 116.72-103.826 74.858-190.549 109.736-273.556 109.736A302.979 302.979 0 0127.157 90.346a533.273 533.273 0 01-76.112-49.563v3.94a526.787 526.787 0 0074.903 48.354 305.885 305.885 0 00140.404 35.146c83.679 0 171.163-35.057 275.258-110.363 76.022-54.89 108.258-93.035 101.452-119.943z" fill="#fff" fill-opacity=".03"/><path d="M-37.36 604.594a446.053 446.053 0 0142.847-59.099c21.804-26.863 44.37-54.622 56.547-88.738C83.435 396.629 41.44 368.825-2.975 339.41l-12.357-8.238c-7.342-4.969-14.237-9.626-21.042-14.372-3.358-2.328-7.477-5.283-12.581-8.954v1.567c4.716 3.463 8.656 6.283 11.82 8.462 6.805 4.477 13.7 9.402 21.087 14.372l12.312 8.506c44.011 29.102 85.56 56.637 64.472 115.78-12.044 33.893-34.564 61.606-56.278 88.335a445.807 445.807 0 00-42.981 59.278 199.174 199.174 0 00-10.432 23.147v3.627l1.074-2.731a203.76 203.76 0 0110.522-23.595z" fill="#fff" fill-opacity=".03"/><path d="M71.929 506.005l6.044-7.164c28.833-33.892 58.651-68.948 24.759-110.899-26.192-32.415-65.725-59.144-100.603-82.739-7.118-4.745-13.924-9.491-20.64-14.148-4.477-3.134-10.655-7.611-17.908-12.76l-12.536-9.178v1.657l11.91 8.686c7.118 5.193 13.43 9.625 17.908 12.76 6.76 4.701 13.431 9.312 20.819 14.192 34.787 23.55 74.276 50.234 100.333 82.47 33.176 41.056 3.716 75.709-24.714 109.198a431.598 431.598 0 00-6.089 7.164c-25.027 29.818-56.994 69.799-82.29 114.257a475.884 475.884 0 00-37.877 84.395v4.478a469.69 469.69 0 0138.862-88.246c25.206-44.413 57.129-84.305 82.022-114.123zM46.543 52.871c34.027 17.461 62.949 25.565 90.976 25.565 29.371 0 55.473-8.955 85.694-19.028 17.147-5.776 36.578-12.357 58.651-17.909a111.92 111.92 0 0127.266-3.134c4.477 0 8.372 0 12.312.358 3.94.358 7.298.269 10.835.269 17.909 0 32.549-4.477 48.353-25.654a121.862 121.862 0 0018.133-35.236c5.283-14.685 9.447-26.28 32.639-42.891a110.754 110.754 0 0122.833-10.835c13.432-5.238 24.714-9.76 25.207-17.372.358-6.178-6.85-13.118-22.7-21.714-18.983-10.342-46.115-11.73-70.157-11.73-10.7 0-21.938.313-32.818.672-10.879.358-22.386.626-33.086.626a209.612 209.612 0 01-54.801-5.551c-77.903-21.043-150.97-61.338-215.397-96.573-33.847-18.491-66.665-36.4-99.438-51.98v2.507c32.415 15.312 64.874 33.086 98.498 51.443 64.561 35.414 137.718 75.53 215.889 96.796a214.28 214.28 0 0055.383 5.463c10.88 0 22.386-.314 33.131-.627 10.746-.314 22.118-.672 32.773-.672 23.774 0 50.503 1.343 69.083 11.417 14.596 7.969 21.849 14.55 21.535 19.655-.402 6.223-11.775 10.656-23.818 15.401a112.827 112.827 0 00-23.416 11.193c-23.774 16.969-28.251 29.46-33.444 43.922a121.293 121.293 0 01-17.909 34.832c-15.267 20.595-29.147 24.714-46.563 24.714-3.492 0-6.984 0-10.745-.269-3.761-.268-8.014-.224-12.223-.224a113.14 113.14 0 00-27.848 3.224c-22.117 5.552-41.593 12.133-58.785 17.909-30.042 10.118-55.965 18.894-85.067 18.894-27.669 0-56.233-8.06-89.946-25.296C16.77 35.096-10.944 13.92-37.762-6.229l-11.193-8.462v2.821l9.85 7.432c26.863 20.371 54.666 41.459 85.648 57.308z" fill="#fff" fill-opacity=".03"/><path d="M67.183 12.621a213.203 213.203 0 0099.169 25.207c18.849 0 59.502-7.701 95.006-20.55 31.072-11.283 68.143-29.998 68.188-55.16 0-29.638-57.129-46.114-91.335-55.964-7.432-2.15-13.879-3.985-17.908-5.552a1341.588 1341.588 0 01-191.58-88.156c-26.414-14.55-52.248-28.698-77.678-41.413v1.522c25.206 12.625 50.816 26.863 77.052 41.011A1343.858 1343.858 0 00219.676-98.01c4.477 1.612 10.79 3.448 18.267 5.597 33.847 9.715 90.483 26.012 90.394 54.666 0 43.518-122.854 74.366-161.94 74.366a212.575 212.575 0 01-98.498-25.027C40.544-2.422 14.442-22.256-10.854-41.418c-12.223-9.268-24.804-18.804-37.967-28.072v1.656c12.85 8.955 25.162 18.402 37.16 27.49C13.726-21.27 39.694-1.437 67.184 12.621z" fill="#fff" fill-opacity=".03"/><path d="M81.465-15.272a182.713 182.713 0 0085.067 21.759c24.803 0 57.263-7.343 69.709-23.505a26.86 26.86 0 004.477-24.535c-5.641-21.715-51.129-37.027-84.305-48.264-10.745-3.627-20.013-6.76-25.699-9.402-38.37-17.909-76.112-38.594-113.049-58.741l-4.074-2.239c-21.311-11.64-42.085-22.878-62.546-33.578v1.477c20.237 10.477 40.787 21.759 61.785 33.265l4.119 2.239c36.713 20.147 74.724 40.877 113.183 58.785 5.776 2.642 15.088 5.776 25.833 9.447 31.072 10.477 77.993 26.326 83.455 47.324a25.661 25.661 0 01-4.477 23.326c-12.133 15.85-44.1 22.879-68.68 22.879a181.906 181.906 0 01-84.216-21.58C57.154-29.196 32.127-48.18 7.95-66.67c-17.506-13.118-36.31-27.356-56.905-40.787v1.611c20.281 13.432 38.817 27.311 56.099 40.295 24.221 18.49 49.294 37.474 74.321 50.279zm293.256 588.301c-2.239 3.671-4.478 7.208-6.179 9.76-22.655 31.923-49.249 60.219-79.604 91.29-4.074 4.164-8.238 8.417-12.492 12.671-24.893 25.161-50.681 51.174-66.083 81.932-5.954 11.954-7.79 21.267-5.328 26.863a8.964 8.964 0 005.686 5.149c1.242.332 2.521.497 3.806.492a44.77 44.77 0 0021.177-7.7 488.9 488.9 0 0047.503-34.385c12.581-9.805 25.565-19.879 38.817-28.833 53.726-35.504 89.051-58.965 105.572-125.361 3.448-13.745 5.462-45.041-5.149-58.607a16.34 16.34 0 00-14.371-6.626c-13.79.94-25.073 19.655-33.355 33.355zm34.384-31.788a14.964 14.964 0 0112.268 6.089c10.342 13.432 8.327 43.966 4.925 57.442-16.432 65.725-51.667 89.096-104.99 124.421-13.432 8.955-26.236 19.028-38.728 28.833a479.181 479.181 0 01-47.413 34.295c-10.029 6.089-18.581 8.641-23.908 7.074a7.424 7.424 0 01-4.97-4.477c-2.283-5.193-.403-14.372 5.283-25.744 15.312-30.579 41.011-56.502 65.859-81.619l12.447-12.67c30.221-31.34 57.084-59.457 79.783-91.424 1.836-2.642 3.985-6.179 6.224-9.895 8.103-13.431 19.162-31.788 32.235-32.459l.985.134zM28.321 808.843c5.373-116.048 85.335-207.517 149.583-280.988l5.059-5.82c76.425-87.439 73.336-118.019 37.474-153.388A1386.42 1386.42 0 0035.305 213.423c-28.654-19.834-56.95-38.011-84.26-54.129v2.597c26.863 15.938 54.8 33.802 82.962 53.368a1384.678 1384.678 0 01184.863 155c34.832 34.34 37.653 64.202-37.564 150.343l-5.059 5.776C111.731 600.117 31.455 692.034 26.082 808.754 21.023 918.31-20.257 950.591-48.955 959.635v2.328c29.37-8.91 72.127-41.28 77.276-153.12z" fill="#fff" fill-opacity=".03"/><path d="M401.718 498.486c-19.655 4.88-36.803 32.056-50.637 53.726-4.791 7.656-9.357 14.864-13.432 20.013a949.918 949.918 0 01-71.635 79.515c-6.312 6.492-14.282 13.879-22.699 21.669-24.983 23.147-56.054 51.936-65.501 78.306-7.925 22.386-3.268 43.339 1.254 63.8 3.716 16.79 7.566 34.116 4.477 52.159-1.881 11.193-8.641 22.386-15.805 33.848-8.596 13.969-17.461 28.385-17.908 43.921a41.72 41.72 0 002.417 15.491c5.91 16.565 12.089 24.311 19.431 24.311 7.343 0 15.178-7.566 26.863-26.057 11.193-17.685 15.581-38.146 19.834-57.98 4.254-19.834 8.686-40.294 19.968-58.203 21.491-33.848 59.368-58.83 92.768-80.813l8.372-5.552c55.517-36.757 99.304-65.77 118.869-143.986 5.194-20.685 3.806-73.426-17.237-100.378a36.036 36.036 0 00-39.399-13.79zm37.742 15.357c18.849 24.176 22.386 75.261 16.835 98.498-19.342 77.365-62.681 106.154-117.974 142.687l-8.328 5.507c-33.623 22.118-71.635 47.234-93.438 81.485-11.507 18.133-15.939 38.862-20.282 58.964-4.343 20.103-8.551 39.713-19.521 57.174-7.835 12.357-16.923 25.027-24.982 25.027-6.179 0-11.865-7.476-17.327-22.833a38.236 38.236 0 01-2.283-14.685c.492-14.909 9.223-29.102 17.64-42.802 7.298-11.82 14.193-23.013 16.162-34.654 3.09-18.446-.805-36.041-4.477-53.009-4.477-21.088-8.954-40.967-1.343-62.681 9.268-25.833 40.295-54.442 64.919-77.455 8.462-7.79 16.432-15.178 22.789-21.714a955.753 955.753 0 0071.635-79.694c4.074-5.239 8.641-12.536 13.432-20.192 13.431-21.536 30.489-48.309 49.249-52.921a40.688 40.688 0 019.849-1.253 33.842 33.842 0 0127.445 14.551z" fill="#fff" fill-opacity=".03"/><path d="M422.313 401.286a40.55 40.55 0 00-12.625-13.142 40.553 40.553 0 00-17.103-6.289 48.884 48.884 0 01-21.804-8.955l-.672-.806c-22.834-25.564-99.393-108.929-125.361-108.929a8.416 8.416 0 00-7.074 3.223c-3.447 4.477-3.268 13.432.537 27.804 2.284 8.461 23.953 20.057 46.921 32.414 19.118 10.253 38.907 20.864 45.623 28.833 5.999 7.119 13.924 17.014 13.431 20.461 0 .94-1.209 1.478-2.955 2.328-4.029 2.015-10.073 5.015-6.85 19.163a101.271 101.271 0 0014.148 28.833 99.784 99.784 0 0112.67 25.027c5.731 22.028-30.355 62.457-54.218 89.186-7.88 8.954-14.685 16.476-19.028 22.385a612.366 612.366 0 01-59.994 65.099c-40.788 40.294-82.963 81.753-97.782 139.106-22.431 85.603-26.908 161.313-13.476 224.889 7.163 33.934 31.877 81.264 55.83 81.264 14.909 0 25.789-17.91 32.281-53.28 25.072-136.243 93.483-181.552 159.611-225.383 58.606-38.818 113.944-75.486 137.763-170.715 8.954-35.818-4.835-91.201-22.789-121.78a96.3 96.3 0 00-27.848-28.743 87.57 87.57 0 01-22.923-22.386c-4.477-6.94-3.627-15.043-2.821-23.64.806-8.596 1.925-18.177-3.492-25.967zm3.806 51.174a88.563 88.563 0 0023.684 23.281 94.037 94.037 0 0126.863 27.848c17.64 30.042 31.34 84.261 22.386 119.452-23.505 94.02-78.351 130.42-136.465 168.879-66.441 44.19-135.39 89.902-160.82 227.4-6.089 33.17-16.207 50.72-29.191 50.72-20.371 0-45.085-42.35-52.786-78.751-13.432-63.084-8.955-138.345 13.118-223.591 14.596-56.547 56.457-97.781 96.931-137.673a610.589 610.589 0 0060.397-65.412c4.254-5.641 11.014-13.431 18.849-21.983 25.789-28.877 61.069-68.456 54.935-92.051a100.753 100.753 0 00-13.073-25.922 99.568 99.568 0 01-13.745-27.893c-2.642-11.73 1.522-13.79 5.193-15.626 2.015-.985 4.119-2.059 4.478-4.477.716-3.268-1.388-8.283-13.88-23.102-7.074-8.417-27.131-19.207-46.518-29.594-20.371-10.925-43.428-23.326-45.354-30.445-4.477-16.207-2.999-22.386-1.074-25.072a5.329 5.329 0 014.477-2.015c19.565 0 76.381 55.741 123.033 107.9l.94.985a52.751 52.751 0 0023.192 9.716 37.519 37.519 0 0127.848 17.908c4.477 6.85 3.94 15.044 3.089 23.729-.85 8.686-1.477 17.909 3.493 26.013v-.224z" fill="#fff" fill-opacity=".03"/><path d="M-48.955 110.671c150.97 85.425 313.671 221.352 343.31 288.912 17.909 40.564-25.341 89.052-79.918 150.434-61.919 69.754-139.285 156.567-144.075 260.84C64.497 937.785 1.547 989.945-48.955 1005.7v3.32C2.71 993.258 67.45 940.427 73.495 810.947c4.746-102.975 81.575-189.43 143.271-258.826 55.338-62.233 99.035-111.392 80.589-153.791-29.997-68.053-194.086-205.324-346.31-291.017v3.358z" fill="#fff" fill-opacity=".03"/><path d="M32.485 446.281c11.64-32.728 0-45.847-52.786-80.589l-12.67-8.462c-5.508-3.896-10.79-7.522-15.984-11.059v1.657l15.267 10.387 12.67 8.417c51.98 34.474 63.576 47.368 52.25 79.201-10.254 28.788-30.088 53.234-51.085 79.067-9.805 12.044-19.745 24.311-29.102 37.429v2.284c9.626-13.7 19.968-26.46 30.131-38.907 21.088-25.923 40.966-50.413 51.309-79.425zm353.16 168.745h-.314c-6.357 0-12.804 8.103-17.505 13.969-1.03 1.298-1.926 2.417-2.731 3.313-4.478 5.104-8.686 10.432-12.85 15.58a558.287 558.287 0 01-8.059 9.984l-.358.359c-8.954 10.61-12.581 17.505-11.148 21.132a4.2 4.2 0 001.534 1.813 4.2 4.2 0 002.271.694h1.299c17.908-.358 32.415-16.61 39.488-26.236a75.807 75.807 0 0013.432-27.221 16.792 16.792 0 00-1.074-11.552 5.07 5.07 0 00-3.985-1.835zm2.641 12.984a72.622 72.622 0 01-12.849 26.146c-6.805 9.313-20.729 24.983-37.698 25.341h-.806c-1.612 0-1.88-.85-1.97-1.074-.492-1.254-.448-5.552 10.79-18.849l.314-.403c2.775-3.313 5.417-6.671 8.103-10.029 4.119-5.104 8.373-10.432 12.805-15.491.806-.896 1.746-2.06 2.776-3.358 4.164-5.238 10.476-13.163 15.983-13.163a2.5 2.5 0 011.155.265c.359.179.669.441.905.765a13.97 13.97 0 01.492 9.85z" fill="#fff" fill-opacity=".03"/><path d="M857.987 1068.61c59.413-6.76 123.123-75.576 123.929-133.869 1.253-89.543-50.1-160.775-99.797-229.814-8.462-11.685-17.192-23.818-25.43-35.817l-4.925-7.164c-23.416-33.668-49.921-71.634-58.517-113.093-7.298-34.967-18.446-116.407-6.313-144.434 8.955-20.55 34.251-32.325 58.741-43.742 16.924-7.835 32.952-15.267 44.19-25.475l.492-.448c38.415-34.832 38.415-34.832 64.606-35.817 7.925-.269 17.909-.583 31.698-1.926a233.544 233.544 0 0037.739-6.447 54.218 54.218 0 0112.14-2.149c8.06 0 14.82 5.686 37.16 24.625 66.04 55.92 64.78 153.164 63.57 247.23-1.52 118.332-3.09 240.738 130.87 279.465a201.976 201.976 0 0055.74 8.373c50.37 0 93.22-22.386 123.98-65.054 45.13-62.412 57.12-159.88 29.86-242.484-63-190.638-213.52-299.658-375.46-403.528C955.142 42.618 814.962 16.605 695.152-.363A179.077 179.077 0 00670.617-2.2c-48.577 0-71.635 24.714-100.915 55.965a509.303 509.303 0 01-37.161 37.026c-16.476 14.462-37.429 24.401-57.666 33.982-33.042 15.625-64.248 30.355-77.142 63.173-27.356 69.62 39.847 123.839 99.17 171.7 27.445 22.386 53.368 43.115 68.545 64.024 60.263 82.917 42.22 222.74-12.402 301.314-17.058 24.49-49.741 54.846-84.305 86.947-57.308 53.189-122.272 113.497-133.733 164.133-5.418 23.864-3.985 40.295 4.477 50.865 6.94 8.68 18.625 12.89 35.817 12.89 28.162 0 68.501-11.6 111.169-23.91 52.159-15 111.302-32.009 161.716-32.009a144.693 144.693 0 0160.844 11.461 262.215 262.215 0 0151.801 33.978c26.281 20.42 51.085 39.72 86.186 39.72 3.662.03 7.323-.12 10.969-.45zm-148.329-75.128a147.025 147.025 0 00-61.785-11.641c-50.771 0-110.049 17.058-162.342 32.099-42.534 12.27-82.694 23.82-110.542 23.82-16.342 0-27.445-3.94-33.937-12.04-7.835-9.85-8.954-25.836-3.895-48.938 11.327-50.01 76.112-110.049 133.106-163.014 34.654-32.191 67.427-62.681 84.619-87.35 55.069-79.157 73.202-220.188 12.402-303.911-15.357-21.133-41.414-42.175-68.993-64.427-58.696-47.369-125.362-101.05-98.498-169.148 12.58-31.967 43.383-46.563 76.112-61.964 20.416-9.671 41.503-19.61 58.203-34.295a522.074 522.074 0 0037.295-37.16C600.281 24.62 623.114.218 670.707.218c8.107.026 16.202.64 24.221 1.836C814.514 18.978 954.605 44.946 1101.19 139.1c161.53 103.647 311.74 212.398 374.47 402.364 27.09 81.933 15.22 178.595-29.51 240.47-30.31 41.951-72.57 64.113-122.18 64.113a199.398 199.398 0 01-55.2-8.327c-59.37-17.193-96.89-52.428-114.8-107.766-15.98-49.607-15.22-110.587-14.46-169.551 1.21-94.558 2.47-192.519-64.38-248.931-31.97-27.087-32.82-27.49-51.26-22.924a230.634 230.634 0 01-37.388 6.403c-13.879 1.298-23.684 1.612-31.564 1.88-26.863.94-26.863.94-66.038 36.31l-.537.448c-10.969 9.939-26.864 17.327-43.608 25.117-24.893 11.551-50.637 23.55-59.86 44.772-12.357 28.609-1.164 110.541 6.178 145.732 8.686 41.683 35.325 80.052 58.875 113.944l4.925 7.119c8.238 11.954 16.969 24.087 25.431 35.817 49.249 68.725 100.647 139.823 99.393 228.337-.806 57.352-63.486 125.002-121.958 131.672-3.658.41-7.334.62-11.014.63-34.34 0-58.875-19.03-84.798-39.22-16.028-12.18-32.594-25.07-52.249-34.028zM1904.84 379.169c-2.24-1.656-5.77-4.701-10.21-8.596-17.05-14.819-45.57-39.713-65.63-39.713-3.71-.089-7.37.945-10.48 2.966a18.402 18.402 0 00-6.98 8.362c-4.7 9.447 5.59 31.34 12.4 45.712 1.66 3.537 3.09 6.581 3.98 8.954a716.46 716.46 0 014.93 12.357 754.21 754.21 0 0126.64 78.53c.76 2.91 1.48 6.178 2.28 9.671 3.31 14.909 7.48 33.444 17.91 42.533a31.626 31.626 0 0011.6 6.939c1.61.49 3.28.746 4.97.762 12.17 0 20.55-13.835 28.65-27.222 1.84-3.044 3.76-6.178 5.64-8.954l1.84-2.776c30.84-46.966 49.47-75.306-7.26-114.705-5.64-3.985-12.8-9.358-20.28-14.82zm25.52 128.003l-1.79 2.731c-1.92 2.955-3.85 6.134-5.73 9.178-7.74 12.85-15.8 26.147-26.86 26.147-1.52.002-3.03-.224-4.48-.672a29.436 29.436 0 01-10.74-6.492c-9.77-8.596-13.84-26.863-17.11-41.279-.76-3.537-1.52-6.85-2.28-9.805a740.97 740.97 0 00-26.86-78.754c-1.44-3.671-3.14-7.88-4.97-12.357-.94-2.283-2.38-5.373-4.03-8.954-6.23-13.208-16.61-35.325-12.41-43.787a16.237 16.237 0 016.15-7.456 16.166 16.166 0 019.3-2.618c19.25 0 47.37 24.535 64.16 39.176 4.48 3.895 8.01 6.984 10.39 8.954 7.47 5.462 14.64 10.656 20.19 14.506 55.34 37.967 37.16 65.636 7.07 111.482z" fill="#fff" fill-opacity=".03"/><path d="M1941.56 328.934c-9.9-7.209-19.75-15.268-30.18-23.819-31.92-26.057-68.1-55.562-100.6-55.562a51.464 51.464 0 00-18.58 3.448c-57.4 21.669-49.25 82.38-39.18 116.406 6.13 20.909 14.06 41.638 21.72 61.651a697.754 697.754 0 0124.53 72.038 357.957 357.957 0 017.7 45.533c5.78 46.339 11.24 90.081 73.02 90.081 4.88 0 10.17-.269 15.67-.806 6.08-.49 12.08-1.63 17.91-3.403 16.43-5.283 21.36-15.222 28.79-30.31 2.24-4.477 4.79-9.76 7.97-15.312 4.74-8.341 9.9-16.44 15.45-24.267v-2.328a307.854 307.854 0 00-16.79 26.102c-3.18 5.597-5.73 10.79-8.02 15.357-7.29 14.775-12.09 24.535-27.98 29.684a85.434 85.434 0 01-17.46 3.313c-5.46.537-10.7.806-15.54.806-60.62 0-65.72-41.19-71.63-88.917a353.646 353.646 0 00-7.75-45.712 706.266 706.266 0 00-24.58-72.172c-7.65-20.013-15.58-40.653-21.67-61.517-9.89-33.847-17.9-93.707 38.33-115.019a49.982 49.982 0 0118.13-3.357c32.06 0 68.01 29.37 99.75 55.293 10.44 8.506 20.33 16.565 30.22 23.818 7.48 5.463 14.06 10.253 18.99 13.656l6.04 4.164v-1.657l-5.28-3.626c-4.97-3.358-11.55-8.149-18.98-13.566zm-136.74-651.116h-33.22c-30.53 0-54.8 1.657-81.62 9.805a247.178 247.178 0 00-39.8 17.372c-21.22 10.79-41.23 20.998-65.19 20.998-4 .008-7.99-.276-11.95-.851-17.69-2.552-30.94-12.984-43.74-23.057-14.38-11.328-27.94-22.028-47.01-22.028-1.77.001-3.53.091-5.29.269-11.73 1.208-30.58 11.775-48.75 22.027a254.706 254.706 0 01-30.63 15.67c-8.55 3.143-17.3 5.73-26.19 7.746-18.85 4.477-21.22 6.134-30.35 40.787a415.798 415.798 0 00-6.14 27.177c-6.58 32.146-11.77 57.352-46.02 81.395-23.15 16.342-52.48 24.266-89.55 24.266s-75.44-7.701-109.46-14.551c-17.91-3.537-34.61-6.895-47.06-8.238-7.25-.761-18.45-1.253-29.91-1.253-32.859 0-71.363 12.043-74.049 29.325-1.299 8.149 5.103 20.46 42.801 32.504l4.164 1.344C1129.44-15.45 1229.59 44.679 1331.54 145.953c28.07 27.937 49.56 40.966 67.56 40.966 4.19-.001 8.35-.76 12.27-2.239 19.12-7.119 33.04-31.34 49.25-59.188 8.32-14.417 17.91-30.758 28.96-46.518a407.763 407.763 0 01218.49-156.702 270.76 270.76 0 0174.14-10.969c77.32 0 131.9 37.877 183.57 76.829v-2.82c-51.58-38.818-106.16-76.113-183.57-76.113a273.65 273.65 0 00-74.95 11.148 410.055 410.055 0 00-219.69 157.687c-11.24 15.804-20.73 32.191-29.06 46.652-15.94 27.579-29.68 51.398-48.04 58.203a33.51 33.51 0 01-11.5 2.06c-17.38 0-38.33-12.805-66-40.295C1230.76 43.112 1130.38-17.151 986.438-63.311l-4.208-1.343c-28.207-8.955-42.892-19.7-41.28-29.997 2.239-14.372 36.489-27.445 71.86-27.445 11.37 0 22.38.492 29.64 1.253 12.4 1.299 29.14 4.477 46.87 8.238 34.12 6.671 72.8 14.596 109.92 14.596 37.11 0 67.47-8.059 90.97-24.669 34.97-24.759 40.3-50.503 46.93-83.142 1.79-8.641 3.58-17.55 6.13-26.863 8.95-34.519 10.92-34.967 28.65-39.22a208.877 208.877 0 0026.46-7.79 250.073 250.073 0 0030.94-15.849c17.19-9.626 36.62-20.551 47.91-21.715 1.68-.177 3.37-.267 5.06-.268 18.26 0 31.56 10.476 45.66 21.535 13.03 10.253 26.46 20.864 44.78 23.505 4.07.586 8.19.885 12.31.896 24.49 0 45.66-10.79 66.17-21.222a244.227 244.227 0 0139.49-17.237c26.5-8.059 50.64-9.716 80.95-9.716h33.22a270.363 270.363 0 0174.81 9.76 568.162 568.162 0 0186.1 33.266v-2.507a571.526 571.526 0 00-85.52-33.087 271.757 271.757 0 00-75.44-9.85z" fill="#fff" fill-opacity=".03"/><path d="M1942.63 368.288c-5.19-3.581-12.22-8.685-19.57-14.058-10.52-7.701-20.68-15.983-31.34-24.848-2.41-1.97-5.1-4.209-7.92-6.626-17.91-15.312-42.76-36.266-65.46-36.266a32.517 32.517 0 00-17.32 4.881c-39.27 24.266-15.67 82.29-1.53 116.988 1.71 4.209 3.32 8.194 4.48 11.731a713.74 713.74 0 0125.61 75.306c1.3 4.925 2.6 10.745 3.94 16.879 6.27 28.116 14.87 66.665 36.4 80.589a27.65 27.65 0 0011.1 4.253c1.16.143 2.33.218 3.5.224 26.32 0 52.56-39.981 71.63-69.217 3.49-5.283 6.63-10.074 9.54-14.238v-2.328c-3.18 4.477-6.72 9.85-10.66 15.85-18.98 28.967-44.99 68.59-70.6 68.59a26.895 26.895 0 01-3.32-.224 25.83 25.83 0 01-10.56-4.029c-21.05-13.432-29.55-51.801-35.82-79.739-1.39-6.134-2.69-11.954-3.99-16.924a706.144 706.144 0 00-25.65-75.44c-1.34-3.537-2.95-7.522-4.7-11.73-13.92-34.296-37.3-91.648 1.03-115.377a31.326 31.326 0 0116.61-4.478c22.39 0 46.7 20.775 64.61 35.818 2.82 2.418 5.46 4.477 7.96 6.716 10.79 8.954 20.96 17.103 31.35 24.803 7.34 5.373 14.37 10.477 19.61 14.103 6.98 4.836 14.01 9.626 21.58 14.73l2.32 1.567v-1.611l-1.65-1.12c-6.99-5.149-14.2-9.939-21.18-14.775z" fill="#fff" fill-opacity=".03"/><path d="M1709.91 686.035c2.5 3.313 7.29 7.88 19.25 8.954 44.77 3.672 112.37 9.223 169.46 61.248l.67.582a197.273 197.273 0 0147.1 67.158c3.27 7.342 8.55 11.596 14.46 11.596 1.7-.014 3.37-.364 4.93-1.03v-1.612c-1.52.81-3.21 1.255-4.93 1.299-5.37 0-10.21-3.94-13.21-10.79a198.874 198.874 0 00-47.45-67.516l-.68-.627c-57.44-52.294-125.36-57.845-170.13-61.561-11.42-.896-15.89-5.149-18.31-8.283a34.48 34.48 0 01-5.73-22.386c6.22-27.4 13.97-61.516 11.06-98.856-4.93-63.173-30.18-117.437-54.62-170.133-19.61-42.13-41.82-89.902-34.12-111.661 13.74-38.772 69.89-94.289 93.39-116.407a74.867 74.867 0 0152.7-21.132c9.4.068 18.73 1.578 27.67 4.477 41.19 13.432 99.48 43.697 164.49 85.47v-1.523c-64.78-41.593-122.94-71.903-164.09-85.066a92.52 92.52 0 00-28.07-4.477 76.123 76.123 0 00-53.73 21.535c-23.55 22.117-79.87 77.858-93.7 116.899-7.88 22.386 14.46 70.292 34.16 112.691 24.4 52.383 49.6 106.557 54.48 169.506 2.87 37.116-4.83 71.098-11.05 98.498a36.359 36.359 0 006 23.147z" fill="#fff" fill-opacity=".03"/><path d="M1794.17 645.47c10.2 5.597 24.17 7.97 37.74 10.253a175.589 175.589 0 0128.79 6.537 181.752 181.752 0 0117.46 7.88c12.8 6.312 27.35 13.431 40.65 13.431 2.45.005 4.9-.251 7.3-.761l1.83-.493c18.99-5.641 29.11-29.459 37.84-51.308v-3.716.358c-8.96 22.386-18.9 47.593-38.06 53.279l-1.7.447c-2.31.528-4.67.784-7.03.761-12.94 0-27.36-7.074-40.07-13.431a185.51 185.51 0 00-17.6-7.97c-9.46-3-19.17-5.186-29.01-6.536-13.43-2.284-27.31-4.477-37.29-10.119-22.12-12.133-19.84-34.34-17.37-57.845 1.2-9.08 1.62-18.248 1.25-27.4-5.78-74.501-33.45-134.002-60.22-191.534a99.951 99.951 0 01-9.74-40.031 99.999 99.999 0 017.23-40.558 113.494 113.494 0 0126.36-37.817 113.326 113.326 0 0139.23-24.192 82.05 82.05 0 0129.2-5.373c43.2 0 83.76 33.131 119.54 62.322 10.16 8.283 19.74 16.118 28.92 22.789l6.36 4.97v-1.657l-5.78-4.208c-8.95-6.671-18.67-14.461-28.83-22.744-35.82-29.371-76.7-62.681-120.39-62.681a83.578 83.578 0 00-29.69 5.462 114.585 114.585 0 00-39.68 24.451 114.574 114.574 0 00-26.67 38.23 101.34 101.34 0 002.55 81.664c26.87 57.397 54.36 116.809 60.09 191.041a156.29 156.29 0 01-1.26 27.177c-2.37 23.236-4.83 46.741 18.05 59.322zm10.65-922.568c-37.65 0-77.72 6.85-120.17 14.103-47.77 8.148-97.2 16.566-149.8 16.566h-11.2a274.953 274.953 0 01-47.41-6.089 168.578 168.578 0 00-31.83-4.478c-23.24 0-40.3 12.268-59.01 42.265a284.918 284.918 0 00-21.94 48.533c-11.24 29.594-22.83 60.173-48.53 78.306-8.96 6.268-25.75 11.103-43.65 16.207-31.34 8.954-66.8 19.073-71.64 40.295-6 26.46 48.4 62.68 77.64 82.2 5.46 3.627 10.16 6.761 13.43 8.955 34.25 25.162 62.68 41.906 89.54 41.906 3.65.004 7.29-.31 10.88-.94 21.54-3.895 41.06-19.073 61.47-47.86a453.802 453.802 0 01242.89-174.118 316.023 316.023 0 0186.72-12.581c77.23 0 134.32 31.34 183.57 65.949v-1.657c-49.25-34.653-106.34-65.635-183.57-65.635a317.076 317.076 0 00-87.17 12.894 454.878 454.878 0 00-243.65 174.61c-20.19 28.475-39.44 43.473-60.57 47.279-3.52.628-7.09.942-10.66.94-26.59 0-54.75-16.655-88.83-41.638-3.09-2.283-7.79-5.417-13.43-8.954-28.97-19.297-82.92-55.204-77.09-80.813 4.47-20.371 39.71-30.355 70.65-39.175 17.9-5.15 35.05-10.03 44.05-16.387 26.01-18.356 37.7-49.249 49.03-78.977a286.557 286.557 0 0121.8-48.264c18.4-29.55 35.19-41.638 57.89-41.638 10.64.501 21.21 2 31.56 4.477a273.229 273.229 0 0047.69 6.134h11.19c52.74 0 102.21-8.417 150.07-16.611 42.36-7.208 82.34-14.058 119.9-14.058a225.87 225.87 0 0162.68 8.059 578.617 578.617 0 0198.5 40.295v-1.523a572.36 572.36 0 00-97.96-39.847 226.535 226.535 0 00-63.04-8.73z" fill="#fff" fill-opacity=".03"/><path d="M1765.2 669.604c8.95 2.283 17.91 4.477 26.86 6.357 46.83 10.88 87.26 20.237 127.69 56.816l.81.761c9.26 8.417 16.61 12.491 22.38 12.491.88.012 1.75-.094 2.6-.313 8.95-2.015 13.16-14.282 17.91-30.087.71-2.417 1.52-4.88 2.33-7.298v-4.477a437.225 437.225 0 00-3.63 11.372c-4.7 15.357-8.95 27.266-16.97 29.147-5.82 1.388-13.43-2.508-23.86-11.91l-.81-.716c-40.7-36.847-81.26-46.249-128.27-57.129-8.64-2.014-17.59-4.074-26.86-6.357-32.86-8.238-27.31-39.131-21.94-68.994a157.302 157.302 0 003.89-37.832c-5.32-68.814-31.78-125.719-57.39-180.744-3.05-6.581-6.32-13.028-9.49-19.252-16.48-32.235-30.67-60.128-10.35-94.423 15.27-25.789 38.15-46.921 60.31-67.158 3.99-3.671 7.97-7.343 11.87-11.014a48.73 48.73 0 0134.56-12.088c55.16 0 140 58.695 188.8 94.02v-1.656c-49.11-35.594-133.42-94.021-188.67-94.021a50.172 50.172 0 00-35.5 12.447c-3.9 3.671-7.88 7.342-11.86 11.014-22.39 20.505-45.18 41.682-60.54 67.65-20.68 34.922-5.64 64.471 10.3 95.722 3.18 6.223 6.45 12.626 9.49 19.207 25.57 54.89 51.98 111.706 57.31 180.296.19 12.601-1.12 25.18-3.89 37.474-5.47 30.624-11.15 62.143 22.92 70.695zM822.976 1314.36c-11.327 17.06-25.386 38.33-20.55 53.01a22.392 22.392 0 0014.864 13.43c1.553.55 3.189.82 4.835.81 17.327 0 44.772-26.86 68.859-50.28 15.402-15 29.908-29.15 38.639-33.13 41.772-18.94 99.307-27.94 150.077-35.82 20.06-3.13 38.95-6.13 56.45-9.53a599.284 599.284 0 01114.35-11.78c117.89 0 216.92 42.44 294.29 126.12 8.64 9.41 21.26 14.15 37.47 14.15 50.5 0 137.14-49.25 198.16-140.27 36.49-54.49 89.55-165.92 34.39-299.746-22.12-53.727-54.94-78.62-103.29-78.62-36.85 0-78.85 13.432-127.47 29.191-59.81 19.297-127.64 41.146-200.58 41.146a331.329 331.329 0 01-159.52-40.071c-155.76-83.052-160.33-234.649-146.85-357.369 5.19-47.771-3.27-85.559-24.58-109.288a77.105 77.105 0 00-59.232-25.654c-44.772 0-101.05 34.922-121.287 101.587-19.028 62.681 26.102 119.854 78.396 185.938 58.923 74.5 125.723 158.94 112.783 271.63-6.45 55.876-26.87 109.466-54.58 143.266-21.043 25.75-39.623 28.03-59.323 30.45-15.043 1.88-30.579 3.76-48.801 15.36-13.924 8.95-18.267 23.81-22.923 39.75a100.23 100.23 0 01-13.163 31.57c-3.671 5.1-10.074 6.22-16.834 7.38-8.955 1.57-18.983 3.32-24.356 14.82-3.716 8.02 1.209 17.47 5.955 26.6 3.94 7.61 8.059 15.49 6.85 22.03-.985 5.19-6.582 13.61-13.029 23.32zm8.462-46.61c-4.477-8.95-8.954-17.41-5.91-24.31 4.791-10.25 13.79-11.82 22.386-13.43 6.984-1.21 14.193-2.46 18.491-8.41a104.147 104.147 0 0013.431-32.37c4.477-15.45 8.686-30 21.804-38.33 17.909-11.24 32.952-13.12 47.727-14.95 20.192-2.47 39.31-4.84 60.983-31.34 28.07-34.3 48.66-88.43 55.16-144.751 13.07-113.765-54.09-198.653-113.322-273.556-51.846-65.501-96.573-122.093-77.948-183.564 19.878-65.501 74.814-99.752 118.824-99.752a74.615 74.615 0 0131.366 6.1 74.664 74.664 0 0125.94 18.659c20.82 23.192 29.06 60.308 23.91 107.452-13.43 123.571-8.95 276.153 148.24 359.966a333.254 333.254 0 00160.73 40.294c73.34 0 141.39-21.893 201.47-41.234 48.4-15.626 90.22-29.102 126.66-29.102 47.82 0 78.94 23.774 100.87 77.052 54.67 132.706 2.11 243.246-34.11 297.326-58.21 87.09-145.47 139.11-196.01 139.11-15.45 0-27.45-4.48-35.6-13.43-77.72-84.22-177.38-126.84-296.03-126.84a601.04 601.04 0 00-114.84 11.77c-17.41 3.45-36.35 6.41-56.37 9.54-50.95 7.97-108.656 17.01-150.742 36.09-8.954 4.12-23.147 17.91-39.354 33.62-23.819 23.24-50.816 49.52-67.158 49.52-1.355.03-2.704-.19-3.985-.63a19.394 19.394 0 01-8.129-4.22 19.463 19.463 0 01-5.302-7.46c-4.478-13.44 9.223-34.16 20.236-50.77 6.627-9.99 12.313-18.59 13.432-24.36 1.612-7.39-2.686-15.67-6.85-23.69z" fill="#fff" fill-opacity=".03"/><path d="M1905.07 1008.79a51.18 51.18 0 0026.32 5.69c11.67-.15 23.25-1.99 34.39-5.46v-3.31a117.135 117.135 0 01-34.39 5.64 48.74 48.74 0 01-24.62-5.2c-26.28-16.786-37.92-46.47-50.24-77.855-10.61-27.087-21.58-55.114-42.93-74.858v-.941h-.94c-24.49-21.625-57.53-32.146-100.96-32.146-42.36 0-86.91 10.163-122.68 18.357-24.49 5.551-45.58 10.387-59.19 10.387-7.97 0-12.85-1.657-14.86-5.015-2.64-4.477-.63-12.939 6-25.072 30.94-56.457 93.39-191.131 89.09-246.872-3.4-43.966-24.53-89.544-44.99-133.33-29.64-63.532-60.22-129.391-38.06-192.071 25.43-71.635 137.41-199.817 217.1-210.697 4.94-.645 9.93-.959 14.91-.94 51.8 0 127.64 30.893 206.67 75.62v-3.358c-79.07-44.772-154.82-75.396-206.67-75.396-5.14-.027-10.27.303-15.36.985-80.59 11.014-193.95 140.36-219.6 212.711-22.7 64.024 8.19 130.376 38.05 194.578 20.33 43.653 41.33 88.828 44.78 132.212 3.85 49.696-50.64 175.684-88.7 245.17-7.43 13.432-9.31 22.386-5.95 28.161 2.64 4.478 8.37 6.537 17.55 6.537 13.97 0 35.23-4.835 59.86-10.476 35.82-8.149 80.01-18.267 122-18.267 42.89 0 75.4 10.387 99.35 31.788 21.13 19.296 32.06 47.144 42.62 74.142 12.49 31.833 24.31 61.964 51.45 79.286z" fill="#fff" fill-opacity=".03"/><path d="M886.776 1267.53c4.777.93 9.642 1.32 14.506 1.16 13.655 0 64.203-2.01 142.998-28.07a711.257 711.257 0 01217.01-33.76c121.87 0 202.86 18.27 307.14 118.11a41.03 41.03 0 0029.46 10.66c45.35 0 113.9-49.25 156.07-112.33 32.95-49.25 80.81-149.68 31.34-269.8-21.31-51.666-48.04-58.83-73.74-58.83-31.79 0-71.63 12.805-117.66 27.669-62.05 20.013-132.39 42.668-210.43 42.668a362.689 362.689 0 01-174.61-43.787c-174.61-93.126-176.98-266.661-163.59-389.067 4.16-37.922-1.75-67.919-16.57-84.485a45.587 45.587 0 00-16.07-11.423 45.588 45.588 0 00-19.387-3.575c-33.176 0-74.993 27.131-90.707 78.888-14.193 46.831 26.146 97.781 72.843 156.701C1035.1 743.7 1109.38 837.72 1094.92 963.082a326.094 326.094 0 01-28.61 101.858 389.47 389.47 0 01-92.677 126.52 471.687 471.687 0 01-68.456 49.25c-16.7 10.39-26.863 16.66-26.057 21.4.313 2.38 2.731 3.94 7.656 5.42zm19.207-25.21a476.325 476.325 0 0068.635-49.25 391.713 391.713 0 0093.032-126.97 328.57 328.57 0 0028.7-102.257c14.28-126.749-60.04-220.905-120.031-296.524-46.473-58.741-86.588-109.467-72.619-155.582 15.535-51.174 56.725-77.948 89.543-77.948a44.43 44.43 0 0134.477 14.551c14.55 16.297 20.32 45.891 16.2 83.455-13.43 122.764-11.05 296.881 164.32 390.41a363.978 363.978 0 00175.19 43.966c78.22 0 148.64-22.744 210.87-42.802 45.94-14.775 85.56-27.58 117.17-27.58 25.25 0 51.49 7.03 72.49 58.204 49.25 119.537 1.52 219.377-31.34 268.627-41.28 61.61-110.77 111.71-154.96 111.71a39.654 39.654 0 01-28.52-10.3c-50.54-48.4-97.6-79.15-148.01-96.79-43.43-15.18-91.29-21.67-160.06-21.67a712.307 712.307 0 00-217.41 33.84c-78.668 25.97-129.036 27.99-142.602 27.99a66.23 66.23 0 01-14.193-1.12c-4.119-1.08-6.312-2.38-6.536-3.9-.448-4.12 10.432-10.92 25.564-20.28l.09.22z" fill="#fff" fill-opacity=".03"/><path d="M993.288 463.338c-23.998 0-50.368 24.311-59.009 46.07-5.731 14.462-1.388 39.176 11.64 66.083 12.313 25.386 28.654 44.772 40.743 48.533a19.84 19.84 0 005.507.851 18.569 18.569 0 005.999-1.03c15.582-5.462 15.222-14.999 14.462-35.817a342.334 342.334 0 011.52-54.801c3.58-32.549-1.52-57.353-8.42-65.009a14.52 14.52 0 00-5.63-3.943 14.635 14.635 0 00-6.812-.937zm18.852 69.531a345.077 345.077 0 00-1.53 55.114c.77 20.998 1.08 28.833-12.979 33.713a15.803 15.803 0 01-10.074 0c-11.551-3.447-27.355-22.386-39.399-47.369-12.76-26.37-17.103-50.368-11.596-64.247 8.372-21.132 33.848-44.772 56.95-44.772a12.805 12.805 0 0110.788 3.985c6.31 7.611 11.11 31.698 7.84 63.576zM688.347 383.198c3.85 0 6.895-5.462 9.939-17.64 11.238-45.712 48.354-106.199 105.975-138.39 58.204-32.549 97.245-41.011 118.108-45.533 10.387-2.238 15.581-3.402 16.835-6.134a4.08 4.08 0 00-.448-3.716c-4.03-7.342-76.112-47.771-180.251-56.188l-4.478-.358c-9.357-.761-17.461-1.433-25.206-1.433-27.087 0-48.981 7.611-100.02 50.726-8.059 6.806-16.297 13.119-24.267 19.207-24.669 18.939-45.98 35.281-44.772 53.727 1.075 14.237 15.133 28.385 44.369 44.458 32.325 17.909 52.025 53.189 65.054 76.56 8.551 14.909 14.013 24.714 19.162 24.714zm-83.32-102.348c-28.386-15.671-42.668-29.863-43.653-43.384-1.343-17.909 19.7-33.982 44.056-52.652 8.014-6.134 16.252-12.447 24.356-19.297 50.681-42.801 72.351-50.368 99.124-50.368 7.701 0 15.76.672 25.117 1.433l4.478.358c101.542 8.193 175.326 48.488 179.087 55.472.806 1.433.627 2.149.447 2.552-.984 2.105-6.581 3.313-15.894 5.373-20.953 4.477-59.994 13.028-118.466 45.667-58.472 32.639-95.364 93.26-106.691 139.196-2.731 11.237-5.552 16.655-8.596 16.655-4.477 0-10.253-10.566-17.909-23.908-12.939-23.55-32.773-59.099-65.456-77.097z" fill="#fff" fill-opacity=".03"/><path d="M696.809 460.07c3.895 0 6.582-4.477 8.462-14.685 11.641-61.651 36.802-148.956 120.884-195.519a385.074 385.074 0 0189.812-34.877 79.371 79.371 0 0021.535-11.685c9.268-6.224 18.894-12.716 27.759-12.716a17.05 17.05 0 013 .269 28.52 28.52 0 0112.536 6.626 21.305 21.305 0 0013.118 6.089 16.98 16.98 0 006.175-1.298 16.719 16.719 0 007.66-7.253 12.132 12.132 0 0112.76-7.074c7.57.627 11.64 6.402 15.94 12.491a35.572 35.572 0 0010.56 11.148 32.553 32.553 0 0014.2 3.716 8.943 8.943 0 007.56-2.82 8.469 8.469 0 001.23-3.682 8.266 8.266 0 00-.56-3.84c-2.91-10.566-25.56-20.416-40.51-26.863-4.48-1.925-8.29-3.582-10.7-4.88-22.39-11.82-44.776-21.849-63.401-30.087-79.336-34.698-151.642-55.875-221.083-64.74a166.599 166.599 0 00-20.73-1.477c-34.205 0-60.71 14.954-113.451 64.023-12.939 12.044-26.281 22.386-39.131 32.37-28.878 22.386-51.667 40.071-51.129 62.323.447 17.595 15.715 36.31 47.995 58.919 52.025 36.4 86.589 91.693 109.422 128.272 14.104 22.386 23.327 37.25 30.087 37.25zM558.016 293.25c-31.967-22.386-47.01-40.697-47.458-57.8-.492-21.58 22.028-39.086 50.592-61.248 12.895-10.029 26.237-20.371 39.221-32.46 52.472-48.801 78.753-63.665 112.556-63.665 6.874.06 13.738.553 20.55 1.477 69.307 8.955 141.524 29.997 220.725 64.651 18.804 8.238 41.011 18.222 63.308 29.997 2.46 1.343 6.31 3 10.79 4.925 14.73 6.447 37.03 16.162 39.76 26.102a7.14 7.14 0 01.52 3.231 7.057 7.057 0 01-.97 3.126 8.229 8.229 0 01-3 1.852 8.217 8.217 0 01-3.49.432 31.079 31.079 0 01-13.43-3.582 33.551 33.551 0 01-10.12-10.701c-4.48-6.088-8.96-12.357-16.93-13.073a13.41 13.41 0 00-8.27 1.538 13.391 13.391 0 00-5.74 6.163 15.505 15.505 0 01-7.029 6.716 15.19 15.19 0 01-5.686 1.164 20.239 20.239 0 01-12.312-5.776 29.32 29.32 0 00-12.85-6.76 15.37 15.37 0 00-3.223-.314c-9.313 0-19.073 6.582-28.52 12.939a76.814 76.814 0 01-21.088 11.507 389.87 389.87 0 00-90.17 34.966c-84.708 46.876-110.049 134.584-121.735 196.459-1.701 9.178-4.029 13.432-7.118 13.432-6.045 0-15.67-15.447-29.013-36.803-22.878-36.489-57.666-91.916-109.87-128.495z" fill="#fff" fill-opacity=".03"/><path d="M862.196 1021.82a96.064 96.064 0 0043.519-17.61 96.132 96.132 0 0029.996-36.113c12.805-26.549 19.745-71.635-20.013-135.345-17.058-27.355-35.817-55.024-53.726-81.753-51.487-76.426-100.11-148.643-120.212-221.084-22.699-81.932-4.477-149.537 57.397-212.71 53.726-54.712 124.376-86.097 194.265-86.097 52.518 0 99.398 18.491 131.938 52.025 35.82 36.892 53.73 90.797 51.72 155.985-.45 15.133-1.17 30.758-1.93 47.279-2.73 58.83-5.77 125.361 3.72 180.968 10.92 63.8 36.84 102.975 79.2 120.481a171.302 171.302 0 0063.98 14.058c17.28.19 34.35-3.832 49.74-11.719a106.512 106.512 0 0038.55-33.545c37.2-50.368 46.11-136.599 22.16-214.591-51.35-167.357-174.61-267.288-357.32-374.248C936.383 86.541 819.394 61.468 713.464 46.469a160.183 160.183 0 00-22.386-1.7c-44.19 0-65.277 22.385-91.916 51.039-10.253 10.969-20.819 22.386-33.938 33.847a267.952 267.952 0 01-39.936 28.52c-18.67 11.506-34.788 21.401-52.517 47.906-35.191 52.607 11.909 85.066 61.74 119.048 26.371 17.909 53.726 36.713 68.188 58.83 91.692 138.793 54.711 287.122-10.522 379.486-18.625 26.371-45.846 51.309-74.679 77.724-35.236 32.281-71.635 65.636-92.499 102.975-8.954 16.029-11.506 26.864-7.79 33.266 2.731 4.477 8.954 6.939 18.401 6.939 17.192 0 44.503-7.118 76.112-15.401 44.369-11.551 99.573-25.968 148.374-25.968a158.974 158.974 0 0165.859 12.268 240.441 240.441 0 0147.369 31.071c23.908 18.621 46.518 36.221 78.485 36.221 3.473-.04 6.942-.27 10.387-.72zm-135.569-67.692a158.145 158.145 0 00-66.397-12.357c-48.98 0-104.273 14.417-148.732 26.013-31.564 8.238-58.785 15.357-75.798 15.357-8.955 0-14.775-2.06-17.237-6.269-3.493-5.909-.941-16.341 7.79-31.922 20.729-37.071 57.084-70.381 92.275-102.572 28.877-26.46 56.143-51.443 74.858-77.948a354.139 354.139 0 0065.053-178.774c5.104-71.635-13.431-139.732-54.711-202.458-14.73-22.386-42.085-41.056-68.545-59.188-49.249-33.803-95.857-65.68-61.383-117.213 17.596-26.236 33.579-36.086 52.07-47.458a265.65 265.65 0 0040.295-28.699 460.363 460.363 0 0034.071-33.937c26.415-28.25 47.324-50.592 90.932-50.592 7.418.046 14.824.614 22.162 1.702 105.795 14.953 222.739 40.026 361.17 121.152 182.27 106.781 305.53 206.532 356.79 373.442 23.82 77.634 15 163.417-21.98 213.427a105.086 105.086 0 01-87.22 44.772 169.347 169.347 0 01-63.39-13.835c-41.91-17.058-67.57-56.143-78.4-119.451-9.49-55.338-6.45-121.913-3.72-180.654.76-16.566 1.48-32.191 1.93-47.369 1.97-65.501-16.03-119.764-52.07-156.925-32.82-33.803-80.01-52.428-132.928-52.428-70.247 0-141.39 31.341-195.205 86.5-32.863 33.578-53.189 68.187-62.054 105.885-7.925 33.668-6.537 69.038 4.477 108.124 20.147 72.664 68.814 144.926 120.391 221.486 17.909 26.863 36.624 54.353 53.727 81.709 39.444 63.262 32.594 107.81 19.923 134.046a94.927 94.927 0 01-29.585 35.526 94.865 94.865 0 01-42.856 17.35c-3.36.37-6.737.56-10.118.58-31.34 0-53.726-17.46-77.679-35.816a240.811 240.811 0 00-47.906-31.206z" fill="#fff" fill-opacity=".03"/><path d="M891.566 966.306a49.246 49.246 0 0020.416-35.504c5.373-44.011-33.668-108.259-68.769-149.852-43.742-51.935-87.171-107.452-108.393-161.178a199.726 199.726 0 01-4.745-19.342c-6.806-31.832-18.267-85.066-34.788-85.066a9.175 9.175 0 00-4.477 1.388c-6.85 4.074-8.955 12.088-6.179 24.535a188.052 188.052 0 0011.73 32.191c4.701 10.969 8.955 20.416 8.731 25.788 0 13.79-6.626 19.879-12.85 25.789a33.534 33.534 0 00-11.73 17.64c-2.328 10.656 2.06 18.67 6.313 26.415 4.253 7.746 8.014 14.551 6.716 24.088-2.373 17.461-57.801 80.589-106.692 136.24-40.294 46.07-75.395 85.873-74.768 93.484a1.922 1.922 0 00.626 1.343c3.358 2.821 9.402 4.164 18.581 4.164a417.887 417.887 0 0057.89-6.985c28.251-4.477 60.262-9.67 88.066-9.67 21.714 0 37.966 3.089 49.652 9.446 6.402 3.493 13.431 7.567 20.953 11.955 33.4 19.386 74.948 43.563 110.139 43.563a55.88 55.88 0 0033.578-10.432zm-164.178-46.429c-11.909-6.492-28.34-9.626-50.279-9.626-27.892 0-59.994 5.149-88.29 9.716a421.94 421.94 0 01-57.666 6.94c-8.954 0-14.64-1.254-17.908-3.851v-.403c-.582-7.074 35.817-48.577 74.455-92.498 49.025-55.831 104.542-119.093 106.96-136.957 1.388-9.984-2.776-17.596-6.805-24.938-4.03-7.343-8.417-15.267-6.224-25.475a32.146 32.146 0 0111.328-16.924c6.447-6.089 13.118-12.402 13.431-26.863 0-5.642-4.074-15.223-8.954-26.326a190.698 190.698 0 01-11.641-31.967c-2.552-11.775-.761-19.297 5.597-23.058a7.468 7.468 0 013.94-1.208c15.446 0 27.176 54.755 33.489 84.171a193.018 193.018 0 004.746 19.744c21.311 53.726 64.829 109.378 108.616 161.179 34.922 41.413 73.784 105.213 68.501 148.821a48.31 48.31 0 01-19.923 34.609 54.537 54.537 0 01-32.908 9.984c-34.832 0-76.112-24.088-109.467-43.384a871.677 871.677 0 00-20.998-11.686z" fill="#fff" fill-opacity=".03"/><path d="M876.255 910.117c3.984-36.847-35.549-94.737-55.294-116.989a1137.178 1137.178 0 01-73.515-92.723c-15.625-21.445-24.222-33.265-29.773-33.265-3.806 0-5.91 4.925-7.208 17.058-9.761 91.155-68.725 140.494-103.961 170.133-15.401 12.939-25.609 21.446-26.012 28.475a7.312 7.312 0 002.104 5.552 21.006 21.006 0 0016.073 5.014c10.88-.6 21.692-2.098 32.326-4.477a299.69 299.69 0 0154.308-6.403c26.057 0 47.055 6.492 64.292 19.879 24.177 18.804 60.039 38.862 88.066 38.862a42.715 42.715 0 0025.789-7.656 31.88 31.88 0 0012.805-23.46zM837.527 939.8c-27.669 0-63.218-19.923-87.26-38.593-17.461-13.431-38.728-20.147-65.099-20.147a300.683 300.683 0 00-54.532 6.492 197.051 197.051 0 01-32.101 4.477 19.746 19.746 0 01-15.088-4.477 5.729 5.729 0 01-1.746-4.477c.358-6.448 10.924-15.312 25.565-27.535 35.369-29.639 94.558-79.202 104.407-170.894 1.164-10.969 3-15.849 5.865-15.849 4.881 0 13.835 12.312 28.654 32.728a1150.928 1150.928 0 0073.65 92.812c19.61 22.117 58.875 79.559 54.935 115.959a30.577 30.577 0 01-12.267 22.386 41.376 41.376 0 01-24.983 7.118zm421.253-398.065c-4.47 70.023 15.5 118.243 35.82 140.002 9.31 9.939 19.57 15.401 28.79 15.446 13.03 0 22.83-10.253 27.58-28.878 30.58-119.854-73.56-246.245-86.32-256.766-3.72-3.045-6.22-3.448-7.88-1.657-3 3.269-2.06 13.969-.36 33.4a624.896 624.896 0 012.37 98.453zm-.4-130.331c.1-.109.21-.198.34-.26.14-.062.28-.095.42-.098.63 0 1.84.403 4.03 2.194 12.67 10.477 115.92 135.704 85.61 254.528-4.48 17.506-13.44 27.176-25.43 27.176-8.6 0-18.27-5.238-27.14-14.774-20.05-21.401-39.84-68.949-35.28-138.3a630.659 630.659 0 00-2.32-98.812c-1.39-16.879-2.47-29.102-.23-31.654zm546.44-657.161c-35.01 0-73.83 6.626-114.88 13.432-49.25 8.372-99.8 17.013-155.09 17.013h-11.91l-9.76-.269c-8.37 0-16.25-.447-23.87-.447-47.63 0-77.09 9.715-96.57 60.934-12.27 32.37-26.19 69.038-59.63 92.678-9.45 6.715-18.9 12.446-27.27 17.46-19.34 11.686-34.61 20.91-35.19 33.67-.49 11.73 11.33 25.833 38.46 45.711 25.97 19.073 47.37 28.34 65.37 28.34h4.83c26.15-2.417 43.7-24.042 65.9-51.397a508.24 508.24 0 0134.93-39.937 480.972 480.972 0 01206.62-122.63 345.694 345.694 0 0195.45-13.969c76.11 0 134.94 27.535 183.57 59.413v-1.612c-48.63-31.743-107.46-59.144-183.57-59.144-32.44.213-64.69 4.96-95.81 14.103a482.704 482.704 0 00-207.2 122.989 500.112 500.112 0 00-35.02 40.026c-22.02 27.131-39.39 48.532-65 50.905h-4.7c-17.69 0-38.82-8.954-64.61-28.072-26.86-19.61-38.37-33.355-37.88-44.772.54-11.998 15.58-21.087 34.57-32.549 8.37-5.059 17.91-10.79 27.35-17.505 33.76-23.909 47.73-60.801 60.09-93.35 19.16-50.144 48.3-59.681 95.31-59.681 7.62 0 15.5.224 23.82.448l9.76.269h11.96c55.38 0 106.2-8.686 155.31-17.058 41.01-6.985 79.74-13.432 114.66-13.432 18.25-.23 36.43 2.075 54.04 6.85 34.7 9.85 70.25 26.102 106.92 45.309v-1.522c-36.54-18.894-71.95-35.011-106.56-44.772a195.794 195.794 0 00-54.4-7.432z" fill="#fff" fill-opacity=".03"/><path d="M1224.13 537.748c-5.19 67.919 8.24 122.899 37.79 154.776 15.44 16.7 34.43 25.878 53.46 25.878 27.13 0 48.84-18.849 55.29-47.995 18.85-85.067-10.34-161.895-38.15-211.234-32.63-57.934-74.45-98.945-94.55-112.377-7.39-4.88-12.54-7.924-15.72-7.924-.51-.016-1.02.08-1.49.281s-.9.502-1.24.883c-2.6 2.91-1.52 11.237.58 27.713a774.451 774.451 0 014.03 169.999zm-3.63-196.996c.22-.244.49-.436.79-.56.31-.124.63-.178.96-.156 2.82 0 8.01 3.089 14.95 7.7 45.45 30.311 166.15 168.432 132.13 322.357-6.32 28.565-27.49 46.966-53.73 46.966-18.63 0-37.29-8.954-52.47-25.43-29.33-31.609-42.58-86.231-37.43-153.791a772.596 772.596 0 00-4.08-170.133c-2.1-15.223-3.26-24.356-1.12-26.953z" fill="#fff" fill-opacity=".03"/><path d="M1198.39 542.228c-5.2 84.574 11.01 151.329 45.53 188.042 17.91 19.028 39.58 29.057 62.68 29.057 44.33 0 81.84-35.818 93.44-89.23 17.06-78.709 2.37-156.209-43.61-230.307-46.61-75.082-111.08-123.659-145.37-145.911-17.46-11.327-24.94-16.028-27.81-12.626-2.86 3.403-.8 11.014 2.24 27.222 6.72 35.011 20.55 108.123 12.9 233.753zm-14.06-260.079a2.006 2.006 0 011.61-.672c3.63 0 11.46 5.104 24.45 13.432 114.25 74.187 223.86 211.591 188.35 374.829-11.42 52.742-48.44 88.156-92.09 88.156-22.79 0-44.15-9.895-61.74-28.609-34.3-36.444-50.33-102.975-45.18-187.057 7.66-125.674-6.18-198.921-12.85-234.067-2.82-14.864-4.61-23.818-2.55-26.147v.135zm-501.177-20.956c12.671 0 21.76-12.223 31.341-30.579 17.013-32.057 52.428-47.548 71.635-55.875 9.626-4.254 13.431-5.821 12.76-8.462-.672-2.642-2.866-3.179-16.029-4.074-39.668-2.687-128.674 35.146-138.792 63.62a14.64 14.64 0 005.104 17.327c15.267 12.626 25.475 17.909 34.161 17.909l-.18.134zm-36.309-34.295c9.357-26.012 92.095-61.696 131.763-61.696h3.985c4.25.096 8.48.621 12.625 1.567a103.334 103.334 0 01-10.387 4.97c-19.431 8.462-55.517 24.266-72.978 57.308-11.014 20.774-19.073 28.878-28.699 28.878-7.879 0-17.505-5.194-32.19-17.327a11.503 11.503 0 01-4.119-13.7z" fill="#fff" fill-opacity=".03"/><path d="M722.105 259.582c30.49-55.562 86.231-74.948 131.361-85.648 4.477-1.03 4.745-3.224 4.477-4.478-1.03-8.954-43.295-26.37-106.378-26.37-7.119 0-14.417.224-21.67.671-28.788 1.746-96.752 41.951-121.197 71.635-6.358 7.701-9.223 14.148-8.551 19.073 1.701 12.357 12.715 17.909 25.43 24.177 13.432 6.716 28.788 14.327 36.22 32.101 4.478 10.298 10.029 15.536 16.879 15.536 11.82.09 26.371-15.625 43.429-46.697zm-58.203 30.355c-7.746-18.491-23.416-26.281-37.251-33.176-12.177-6.089-22.699-11.327-24.221-22.386-.582-4.253 2.194-10.297 8.059-17.416 24.132-29.415 91.2-69.172 119.63-70.874a347.181 347.181 0 0121.491-.671c62.009 0 103.333 17.147 104.184 24.401 0 1.164-1.746 1.79-2.911 2.059-45.577 10.79-101.855 30.4-132.793 86.723-25.833 46.697-44.951 58.024-56.144 31.34h-.044zm647.268 353.564c2.33 0 4.48-1.612 6.13-4.836 8.73-16.386 8.55-72.933-14.55-107.452-3.04-4.477-7.39-3.85-10.65 1.791-8.69 14.954-12.32 62.681 11.32 103.96 2.51 4.388 5.11 6.537 7.75 6.537zm-16.3-108.885c1.12-2.015 2.37-3.179 3.31-3.179s1.62.985 1.97 1.612c22.17 32.952 22.61 88.738 14.42 104.139-1.07 2.06-2.28 3.224-3.36 3.224-1.07 0-3.22-1.836-5.01-4.925-22.75-39.892-19.48-86.858-11.33-100.871zm307.54 246.289c3.18 4.477 11.01 6.582 26.1 6.582 9.4 0 20.68-.761 33.71-1.657 16.12-1.074 34.43-2.283 53.33-2.283 59.9 0 100.24 12.715 127.15 40.294 25.03 19.252 38.86 50.637 51.04 78.306 14.77 33.669 27.58 62.681 55.83 62.681 3.16-.011 6.31-.341 9.4-.985 2.3-.478 4.57-1.076 6.81-1.791v-2.328a76.073 76.073 0 01-7.26 1.925c-2.94.607-5.94.922-8.95.94-26.86 0-39.31-28.43-53.73-61.382-12.31-27.937-26.23-59.591-51.57-79.112-27.27-27.758-68.15-40.697-128.68-40.697-18.98 0-37.29 1.209-53.46 2.328-13.02.851-24.22 1.612-33.57 1.612-13.93 0-21.63-1.791-24.27-5.642a8.939 8.939 0 01-1.11-4.32c0-1.511.38-2.997 1.11-4.321 28.52-76.112 52.34-172.55 50.05-202.234-4.03-51.98-26.86-101.095-48.98-148.553-26.86-58.203-52.56-112.959-36.35-158.716 22.38-63.576 125.36-173.938 181.32-181.55a67.27 67.27 0 018.96-.537c43.43 0 119.94 31.072 206.67 82.515v-2.597c-86.64-51.219-163.11-82.156-206.67-82.156-3.09-.026-6.17.169-9.22.582-56.42 7.656-160.38 118.914-183.12 183.027-16.52 46.607 9.18 101.856 36.4 160.373 22.03 47.279 44.77 96.214 48.8 147.747 2.01 26.012-19.34 119.585-49.88 201.473a11.28 11.28 0 00-1.24 5.255c.03 1.827.5 3.62 1.38 5.221zm202.41-995.636c-32.37 0-69.93 6.403-109.69 13.208-50.32 8.596-102.39 17.461-160.28 17.461h-12.63l-9.89-.269c-8.11 0-15.81-.447-23.02-.447-62.68 0-65.81 34.474-69.12 71.008-1.79 20.013-3.63 40.697-14.69 58.203-3.94 6.313-14.5 14.238-25.7 22.655-23.86 17.908-50.9 38.235-37.92 57.263 2 3.587 4.89 6.601 8.38 8.757a24.077 24.077 0 0011.59 3.555 29.8 29.8 0 0013.43-3.716c21.18-10.924 43.79-43.205 61.97-69.172 10.34-14.775 19.25-27.49 24.13-30.4a29.889 29.889 0 0115.71-3.448h11.6a30.47 30.47 0 0011.92-1.4 30.415 30.415 0 0010.46-5.898c8.47-7.7 9.54-17.909 10.57-27.355.94-8.955 1.79-16.924 7.57-23.819 17.46-20.864 78.71-35.459 119.22-45.085 11.96-2.866 22.39-5.283 29.91-7.522a377.78 377.78 0 01103.87-14.998c74.86 0 134.72 24.535 183.57 53.726v-2.642c-48.89-29.191-108.75-53.726-183.57-53.726a380.519 380.519 0 00-104.58 15.715c-7.62 2.194-17.91 4.477-29.78 7.477-43.25 10.297-102.48 24.401-120.43 45.846-6.23 7.432-7.17 16.342-8.11 24.983-1.03 9.67-1.97 18.849-9.85 25.968a28.332 28.332 0 01-20.68 6.716h-11.6c-5.86-.32-11.7.982-16.88 3.76-5.28 3.179-13.88 15.446-24.8 31.027-17.06 24.4-40.3 57.845-61.11 68.5-12.63 6.493-22.61 3.94-30.67-7.879-11.78-17.282 14.37-36.892 37.43-54.219 11.86-8.954 22.11-16.61 26.28-23.236 11.28-17.909 13.16-39.041 15-59.323 3.35-36.981 6.22-68.948 66.88-68.948 7.21 0 14.87 0 22.97.447l9.85.269h12.72c58.2 0 110.23-8.954 160.68-17.506 39.63-6.76 77.1-13.163 109.29-13.163a165.04 165.04 0 0145.31 5.641c36.58 10.208 75.35 28.878 115.65 50.503v-2.686c-40.3-21.267-78.58-39.668-115.02-50.1a166.12 166.12 0 00-45.94-5.731z" fill="#fff" fill-opacity=".03"/><path d="M1670.01 722.568c8.33 11.999 25.93 13.432 50.28 15.178l8.15.672c7.7.626 15.76.895 24.27 1.164 39.58 1.388 84.44 2.91 124.96 39.802l.49.448c22.38 19.654 35.82 54.308 47.64 85.066 11.81 30.758 22.11 57.398 38.45 57.398h1.53v-1.388a9.09 9.09 0 01-1.53 0c-15.4 0-25.52-26.192-37.2-56.547-11.69-30.355-25.3-65.501-48-85.425l-.49-.403c-40.88-37.25-86.01-38.772-125.81-40.294-8.5-.269-16.56-.538-24.22-1.165l-8.15-.626c-24-1.881-41.28-3.179-49.25-14.641-7.97-11.461-6.49-31.34 3.45-65.814a250.729 250.729 0 0010.43-89.544c-4.47-57.532-28.52-109.243-51.8-159.253-24.26-52.159-47.19-101.453-35.19-135.301 19.97-56.367 116.41-155.85 156.34-161.178 1.58-.203 3.16-.292 4.75-.269 33.35 0 108.8 27.759 206.67 87.663v-1.567c-97.79-59.77-173.23-87.439-206.67-87.439-1.65-.024-3.29.066-4.93.269-40.29 5.507-137.36 105.527-157.46 162.163-12.18 34.34 10.88 83.903 35.33 136.375 23.19 49.697 47.19 101.229 51.66 158.537a249.194 249.194 0 01-10.38 89.186c-10.21 35.548-11.2 55.606-3.32 66.933zM853.645 1127.44c66.665-7.57 146.045-86.77 167.315-147.299 36.98-105.125-28.702-189.743-92.233-271.542-61.338-79.022-119.227-153.612-91.066-244.454 24.535-79.112 103.781-121.824 165.879-121.824 33.49 0 62.41 11.865 81.53 33.445 22.7 25.609 31.61 64.516 25.79 112.511-20.01 164.895-25.97 345.281 157.86 398.47a222.148 222.148 0 0061.92 9.178c77.37 0 126.8-44.369 154.6-81.53 53.32-71.321 71.86-178.012 46.07-265.497-21.85-74.142-64.87-146.045-131.45-219.829-99.03-109.691-233.84-204.025-412.213-288.33l-7.701-3.672c-75.038-35.46-152.627-72.172-234.336-92.41-4.835-1.208-10.208-2.64-15.939-4.163-25.251-6.67-56.636-15.043-83.589-15.043a83.004 83.004 0 00-27.758 4.119c-11.641 4.164-18.177 12.133-24.535 19.834a66.416 66.416 0 01-16.61 15.938 175.757 175.757 0 01-22.7 9.806c-15.088 5.82-30.713 11.864-35.817 17.64-9.537 11.193-6.94 17.908-4.477 24.445a20.237 20.237 0 011.298 15.67l-1.746 5.194c-13.432 39.891-13.432 39.891-44.772 48.935-6.044 1.746-13.431 3.895-22.386 6.76-25.744 8.194-36.31 20.82-46.518 33.042a89.548 89.548 0 01-29.28 25.431h-1.254c-16.118 0-138.345 8.059-147.747 38.101-2.552 8.103 2.955 16.923 16.342 26.146a62.675 62.675 0 0037.518 12.939c3.94 0 7.477-.358 10.925-.671a80.54 80.54 0 018.372-.582c9.85 0 19.789 2.82 33.445 36.399 3.357 8.283 5.954 15.088 8.103 20.685 10.566 27.669 10.88 28.027 37.743 39.489 6.671 2.865 14.954 6.402 25.475 11.237 34.564 15.939 41.638 34.072 50.592 56.995a205.955 205.955 0 0020.282 41.235 297.53 297.53 0 0035.817 42.667c21.894 22.789 42.578 44.324 49.249 80.276 11.417 62.278-22.386 121.735-60.621 176.715-18.535 26.639-56.636 57.71-96.975 90.573-68.233 55.741-145.867 118.959-146.136 177.561 0 33.45 8.417 59.1 25.52 76.12 18.625 18.71 46.921 27.84 86.544 27.84 57.398 0 128.003-19.38 190.28-36.48 49.249-13.44 91.335-25.03 118.422-25.03 5.195-.14 10.383.48 15.401 1.83 26.102 7.75 46.832 24.31 66.845 40.3 26.549 21.26 51.666 41.32 87.529 41.32 3.737.06 7.475-.11 11.193-.49zm-164.671-83.77a56.738 56.738 0 00-16.297-1.97c-27.49 0-70.023 11.64-119.272 25.16-62.099 17.02-132.435 36.31-189.43 36.36-38.727 0-66.307-8.96-84.35-26.86-16.476-16.57-24.759-41.46-24.58-74.06.448-57.126 77.276-120.12 145.24-175.458 40.295-32.997 78.754-64.158 97.513-91.2 38.638-55.562 72.754-115.691 61.158-179.088-6.76-36.847-27.758-58.696-49.965-81.843a298.503 298.503 0 01-35.817-42.219 205.213 205.213 0 01-19.969-40.698c-9.223-23.55-16.476-42.175-52.204-58.651-10.566-4.88-18.848-8.417-25.519-11.283-25.879-11.058-25.879-11.058-36.087-37.742a1106.243 1106.243 0 00-8.103-20.73c-13.029-32.056-23.192-38.369-36.355-38.369a85.801 85.801 0 00-8.686.582c-3.358.313-6.85.672-10.611.672a59.554 59.554 0 01-35.817-12.357c-12.088-8.417-17.192-16.029-15.133-22.655 8.193-26.102 122.093-35.817 144.747-35.817h1.12l.358-1.433.671 1.343a92.048 92.048 0 0030.759-26.46c10.387-12.447 20.192-24.132 45.085-32.102 8.954-2.82 16.386-4.97 22.386-6.715 32.549-9.402 32.952-9.895 46.921-50.95l1.791-5.194a23.253 23.253 0 00-1.388-17.909c-2.373-6.178-4.478-11.506 3.85-21.266 4.477-5.194 20.371-11.372 34.43-16.79a180.194 180.194 0 0023.236-10.029 70.093 70.093 0 0017.551-16.7c6.357-7.745 12.357-14.998 23.147-18.893a80.59 80.59 0 0126.863-3.94c26.549 0 57.711 8.282 82.783 14.953 5.731 1.523 11.103 2.955 15.983 4.164 81.396 20.148 158.851 56.77 233.754 92.23l7.701 3.627c177.972 84.171 312.512 178.236 411.232 287.569 66.26 73.471 109.06 144.971 130.78 218.666 25.52 86.588 7.16 192.116-45.58 262.721-27.4 36.623-76.11 80.276-152.23 80.276a219.457 219.457 0 01-61.07-8.955c-181.32-52.428-175.46-231.381-155.62-395.156 5.95-48.891-3.23-88.648-26.55-114.929-19.7-22.386-49.47-34.519-83.86-34.519-63.217 0-143.896 43.473-168.879 124.063-28.654 92.364 32.46 171.117 91.603 247.229C989.258 791.517 1054.4 875.464 1018 978.976c-20.996 59.724-99.123 137.804-164.714 145.284-3.597.41-7.214.62-10.834.63-34.788 0-59.457-19.75-85.559-40.66-20.282-16.11-41.235-32.86-67.919-40.56z" fill="#fff" fill-opacity=".03"/><path d="M1262.86-161.586c-15.18 10.746-35.82 15.939-63.53 15.939-32.42 0-68.64-7.253-100.6-13.431-18.81-3.761-36.63-7.343-51.13-8.955a486.432 486.432 0 00-49.79-2.552c-43.608 0-99.573 5.91-118.332 34.072-8.193 12.267-8.507 27.624-1.03 45.756 3.537 8.462 12.671 13.119 21.491 17.551a51.22 51.22 0 0118.177 12.491 85.072 85.072 0 0110.253 24.267c3.626 11.685 7.342 23.729 15.804 30.847a53.726 53.726 0 0036.31 12.94 156.523 156.523 0 0029.777-3.94 153.06 153.06 0 0129.32-3.896 51.996 51.996 0 0124.63 5.642c17.91 8.954 25.29 21.49 32.55 33.444 9.44 15.58 18.35 30.266 47.72 37.16 61.52 14.373 78.35 29.416 119.05 65.726 5.24 4.477 10.88 9.715 17.06 15.133a249.687 249.687 0 0135.82 41.727 283.918 283.918 0 0031.34 37.743 138.897 138.897 0 0043.6 27.579c18.54 8.462 36.05 16.431 51.94 43.697l2.51 4.478c20.01 34.564 40.29 66.575 52.65 66.575.97.012 1.93-.19 2.81-.593a6.532 6.532 0 002.29-1.735c4.48-4.88 5.69-17.908 3.72-39.847-1.17-12.804-10.43-24.311-19.43-35.414-9.67-11.954-18.81-23.237-18.27-35.818.67-14.998 9.72-22.386 19.3-30.131a60.327 60.327 0 0018.53-20.774c10.21-21.983 12.67-41.638 15.09-60.666 3.31-26.505 6.45-51.488 30.13-79.784a343.856 343.856 0 01167.58-107.72c20.12-6.05 41-9.215 62.01-9.402 67.16 0 115.16 36.489 166.11 75.082l17.46 13.163v-3.985c-5.24-3.895-10.44-7.835-15.58-11.73-51.36-38.952-99.89-75.71-167.99-75.71a225.457 225.457 0 00-62.68 9.447 346.608 346.608 0 00-169.06 108.706c-24.31 28.968-27.49 54.443-30.89 81.396-2.37 18.804-4.79 38.235-14.77 59.725a57.582 57.582 0 01-17.69 19.655c-9.67 7.925-19.74 16.073-20.46 32.46-.58 13.655 9.36 25.967 18.98 37.832 8.69 10.745 17.64 21.849 18.72 33.758 2.33 25.744-.27 34.564-2.87 37.429-.35.407-.78.734-1.27.958-.48.224-1.01.34-1.55.34-12.35 0-38.68-45.532-49.96-65.008l-2.47-4.477c-16.38-28.162-34.38-36.31-53.36-44.996a137.399 137.399 0 01-42.76-26.863 285.645 285.645 0 01-31.07-37.34 252.48 252.48 0 00-36.36-42.264c-6.18-5.373-11.82-10.432-17.06-15.089-41.14-36.712-58.2-51.89-120.43-66.44-28.12-6.582-36.67-20.775-45.76-35.818-7.48-12.313-15.18-25.073-33.8-34.654a55.768 55.768 0 00-26.06-5.954 158.407 158.407 0 00-29.95 3.94 151.903 151.903 0 01-29.147 3.895 50.548 50.548 0 01-34.295-12.223c-7.746-6.537-11.372-17.909-14.82-29.326a85.982 85.982 0 00-10.745-25.206 52.291 52.291 0 00-19.296-13.432c-8.955-4.477-16.924-8.551-20.013-15.983-7.074-17.103-6.851-31.341.716-42.802 17.909-26.863 72.888-32.684 115.735-32.684a482.971 482.971 0 0149.245 2.508c14.42 1.567 32.15 5.104 50.91 8.954 32.1 6.402 68.46 13.7 101.18 13.7 28.21 0 49.61-5.372 65.33-16.521 39.17-27.669 27.93-69.441 17.1-109.87-11.64-43.16-23.64-87.797 24.62-116.899a44.304 44.304 0 0122.97-5.283c28.88 0 69.53 15.805 108.84 31.072 34.25 13.431 66.58 25.833 87.62 26.326h8.95c45.22 0 90.94-7.791 135.13-15.357 44.19-7.567 89.76-15.312 134.85-15.312a313.434 313.434 0 0186.99 11.461 573.894 573.894 0 0174.28 27.446v-3.448a577.37 577.37 0 00-73.12-26.863 316.2 316.2 0 00-87.84-11.596c-45.35 0-91.11 7.835-135.34 15.357-44.24 7.522-89.55 15.312-134.63 15.312h-8.96c-20.5-.493-52.6-12.939-86.54-26.147-39.62-15.357-80.59-31.34-110-31.34a46.53 46.53 0 00-24.58 5.731c-50.28 30.355-37.97 76.112-26.06 120.391 11.01 41.145 21.44 80.052-15.85 106.467z" fill="#fff" fill-opacity=".03"/></svg>