<svg width="304" height="658" fill="none" xmlns="http://www.w3.org/2000/svg"><path fill-rule="evenodd" clip-rule="evenodd" d="M299.892 151.242h.703c.776 0 1.405.679 1.405 1.516v72.727c0 .837-.629 1.515-1.405 1.515h-.703v-75.758zM2 196.697c0-.837.63-1.515 1.405-1.515h.703v47.727h-.703c-.776 0-1.405-.678-1.405-1.515v-44.697zm0-59.848c0-.837.63-1.516 1.405-1.516h.703v47.728h-.703c-.776 0-1.405-.679-1.405-1.515v-44.697zm0-46.213c0-.836.63-1.515 1.405-1.515h.703v25h-.703c-.776 0-1.405-.678-1.405-1.515v-21.97z" fill="#121515"/><g filter="url(#filter0_dd_0_15659)"><path fill-rule="evenodd" clip-rule="evenodd" d="M4.108 49.727C4.108 23.368 23.925 2 48.37 2h207.26c24.446 0 44.262 21.368 44.262 47.727v554.546c0 26.359-19.816 47.727-44.262 47.727H48.37c-24.445 0-44.262-21.368-44.262-47.727V49.727z" fill="#3A4245"/></g><path fill-rule="evenodd" clip-rule="evenodd" d="M7.62 49.727c0-24.267 18.245-43.939 40.75-43.939h207.26c22.505 0 40.749 19.672 40.749 43.94v554.545c0 24.267-18.244 43.939-40.749 43.939H48.37c-22.505 0-40.75-19.672-40.75-43.939V49.727z" fill="#121515"/><path fill-rule="evenodd" clip-rule="evenodd" d="M183.967 32.303c3.104 0 5.621-2.713 5.621-6.06 0-3.348-2.517-6.061-5.621-6.061-3.104 0-5.62 2.713-5.62 6.06 0 3.348 2.516 6.061 5.62 6.061z" fill="#262C2D"/><path fill-rule="evenodd" clip-rule="evenodd" d="M183.967 30.03c1.94 0 3.513-1.696 3.513-3.788 0-2.091-1.573-3.787-3.513-3.787s-3.513 1.696-3.513 3.788c0 2.091 1.573 3.787 3.513 3.787z" fill="#121515"/><path opacity=".4" fill-rule="evenodd" clip-rule="evenodd" d="M183.967 25.485c.388 0 .703-.34.703-.758s-.315-.757-.703-.757c-.388 0-.702.339-.702.757 0 .419.314.758.702.758z" fill="#636F73"/><path fill-rule="evenodd" clip-rule="evenodd" d="M134.084 26.242a2.273 2.273 0 012.273-2.272h31.286a2.273 2.273 0 010 4.545h-31.286a2.273 2.273 0 01-2.273-2.273z" fill="#262C2D"/><defs><filter id="filter0_dd_0_15659" x=".108" y="0" width="303.785" height="658" filterUnits="userSpaceOnUse" color-interpolation-filters="sRGB"><feFlood flood-opacity="0" result="BackgroundImageFix"/><feColorMatrix in="SourceAlpha" values="0 0 0 0 0 0 0 0 0 0 0 0 0 0 0 0 0 0 127 0" result="hardAlpha"/><feOffset/><feGaussianBlur stdDeviation="1"/><feColorMatrix values="0 0 0 0 0 0 0 0 0 0.0823529 0 0 0 0 0.25098 0 0 0 0.14 0"/><feBlend in2="BackgroundImageFix" result="effect1_dropShadow_0_15659"/><feColorMatrix in="SourceAlpha" values="0 0 0 0 0 0 0 0 0 0 0 0 0 0 0 0 0 0 127 0" result="hardAlpha"/><feOffset dy="2"/><feGaussianBlur stdDeviation="2"/><feColorMatrix values="0 0 0 0 0 0 0 0 0 0.0823529 0 0 0 0 0.25098 0 0 0 0.05 0"/><feBlend in2="effect1_dropShadow_0_15659" result="effect2_dropShadow_0_15659"/><feBlend in="SourceGraphic" in2="effect2_dropShadow_0_15659" result="shape"/></filter></defs></svg>