<svg width="84" height="104" viewBox="0 0 84 104" fill="none" xmlns="http://www.w3.org/2000/svg">
<path d="M27.8478 61.0153L33.718 64.5538L40.9484 60.2624L35.0782 56.6486V4.32345L28.2058 0.182617L27.6331 0.559057L0.501221 16.9718V25.7052L27.8478 9.14188V61.0153Z" fill="#DBDBDB"/>
<path d="M48.7515 4.32345V59.2082L28.2058 71.706L7.66002 59.2082V25.1782L0.501221 29.4696V61.0151L28.2058 77.8796L55.9103 61.0151V9.14186L83.2569 25.7052V16.9718L55.5524 0.182617L48.7515 4.32345Z" fill="#DBDBDB"/>
<path d="M52.1878 67.0384L45.0291 71.4051L55.5525 77.8798L83.257 61.0154V29.4697L76.0982 25.103V56.6487L55.5525 69.1464L52.1878 67.0384Z" fill="#DBDBDB"/>
<path d="M18.8274 101.143H19.6149V103.628H20.1875V101.143H21.0466V100.541H18.8274V101.143Z" fill="#DBDBDB"/>
<path d="M24.2684 100.541L23.1946 103.628H23.8389L24.1252 102.8H25.0559L25.3422 103.628H25.9865L24.9127 100.541H24.2684ZM24.34 102.122L24.5548 101.445L24.7695 102.122H24.34Z" fill="#DBDBDB"/>
<path d="M30.5682 101.972H29.9955H29.7091V102.575H30.425C30.2818 102.8 29.9955 102.951 29.7091 102.951C29.208 102.951 28.85 102.575 28.85 102.048C28.85 101.521 29.208 101.144 29.7091 101.144C29.9239 101.144 30.1386 101.219 30.2818 101.37L30.7113 100.918C30.425 100.692 30.0671 100.467 29.7091 100.467C28.9216 100.467 28.2773 101.144 28.2773 101.972C28.2773 102.8 28.9216 103.478 29.7091 103.478C30.4966 103.478 31.1409 102.8 31.1409 101.972V101.897H30.5682V101.972Z" fill="#DBDBDB"/>
<path d="M34.935 100.541H34.3623V103.628H36.0088V102.95H34.935V100.541Z" fill="#DBDBDB"/>
<path d="M39.1586 100.541H38.5859V103.628H39.1586V100.541Z" fill="#DBDBDB"/>
<path d="M43.5969 102.574L42.3799 100.541H41.7356V103.628H42.3083V101.595L43.4537 103.628H44.1696V100.541H43.5969V102.574Z" fill="#DBDBDB"/>
<path d="M46.7466 103.628H48.4647V102.95H47.3193V102.348H48.4647V101.746H47.3193V101.143H48.4647V100.541H46.7466V103.628Z" fill="#DBDBDB"/>
<path d="M54.4068 101.746H53.333V100.541H52.7603V103.628H53.333V102.348H54.4068V103.628H54.9795V100.541H54.4068V101.746Z" fill="#DBDBDB"/>
<path d="M57.5566 103.628H59.3464V102.95H58.1293V102.348H59.3464V101.746H58.1293V101.143H59.3464V100.541H57.5566V103.628Z" fill="#DBDBDB"/>
<path d="M63.6417 101.445C63.6417 100.917 63.2837 100.541 62.7826 100.541H61.9236V103.628H62.4963V102.423H62.6395L63.1406 103.628H63.7849L63.2122 102.273C63.4985 102.122 63.6417 101.821 63.6417 101.445ZM62.7826 101.746H62.4963V101.143H62.7826C62.9258 101.143 63.069 101.294 63.069 101.445C63.069 101.595 62.9258 101.746 62.7826 101.746Z" fill="#DBDBDB"/>
<path d="M66.2903 103.628H68.0084V102.95H66.863V102.348H68.0084V101.746H66.863V101.143H68.0084V100.541H66.2903V103.628Z" fill="#DBDBDB"/>
<path d="M4.43846 89.4738C5.15434 89.4738 5.79863 89.775 6.22816 90.2267L7.51674 88.8715C6.72927 88.0433 5.65545 87.5916 4.43846 87.5916C2.00446 87.5916 0 89.6997 0 92.2596C0 94.8194 2.00446 96.9276 4.43846 96.9276C5.65545 96.9276 6.72927 96.4005 7.51674 95.6476L6.22816 94.2924C5.72704 94.7441 5.08275 95.0453 4.43846 95.0453C2.93511 95.0453 1.7897 93.7654 1.7897 92.2596C1.7897 90.7538 3.0067 89.4738 4.43846 89.4738Z" fill="#DBDBDB"/>
<path d="M16.8947 87.5916C14.4608 87.5916 12.4563 89.6997 12.4563 92.2596C12.4563 94.8194 14.4608 96.9276 16.8947 96.9276C19.3287 96.9276 21.3332 94.8194 21.3332 92.2596C21.4048 89.6997 19.4003 87.5916 16.8947 87.5916ZM16.8947 95.1206C15.3914 95.1206 14.246 93.8407 14.246 92.3348C14.246 90.7538 15.463 89.5491 16.8947 89.5491C18.3981 89.5491 19.5435 90.829 19.5435 92.3348C19.6151 93.8407 18.3981 95.1206 16.8947 95.1206Z" fill="#DBDBDB"/>
<path d="M35.9371 97.0025V87.5916H34.0758L31.427 94.4427L28.8499 87.5916H26.917V97.0025H28.7067V92.2594L30.4964 97.0025H32.4293L34.1474 92.2594V97.0025H35.9371Z" fill="#DBDBDB"/>
<path d="M43.9552 87.5916H41.5212V97.0025H43.3109V93.2381H44.0268C45.5302 93.2381 46.6756 91.9583 46.6756 90.4525C46.6756 88.8714 45.4586 87.5916 43.9552 87.5916ZM43.9552 91.3559H43.2394V89.4737H43.9552C44.4564 89.4737 44.8143 89.9255 44.8143 90.3772C44.8859 90.9042 44.4564 91.3559 43.9552 91.3559Z" fill="#DBDBDB"/>
<path d="M54.1924 87.5916L50.9709 97.0025H52.8322L53.7629 94.3675H56.5548L57.4855 97.0025H59.3467L56.1253 87.5916H54.1924ZM54.4788 92.4853L55.1946 90.3772L55.9105 92.4853H54.4788Z" fill="#DBDBDB"/>
<path d="M70.2992 93.8404L66.7198 87.5916H64.6438V97.0025H66.4335V90.7536L70.0129 97.0025H72.0889V87.5916H70.2992V93.8404Z" fill="#DBDBDB"/>
<path d="M80.6082 90.1513L79.3196 87.5916H77.3867L79.6775 92.4853V97.0025H81.4672V92.4853L83.758 87.5916H81.8252L80.6082 90.1513Z" fill="#DBDBDB"/>
</svg>
