<svg width="139" height="107" viewBox="0 0 139 107" fill="none" xmlns="http://www.w3.org/2000/svg">
<path d="M117.571 34.7811C117.146 34.3654 116.585 34.1133 115.99 34.0696C115.395 34.026 114.804 34.1937 114.322 34.5429C110.304 37.4022 106.138 40.0498 101.841 42.4748C101.353 42.7542 100.781 42.8519 100.228 42.7504C99.6742 42.6489 99.1751 42.3548 98.8199 41.9209C98.6055 41.6684 98.4484 41.3729 98.3596 41.0546C98.2708 40.7363 98.2522 40.4027 98.3051 40.0766C98.358 39.7505 98.4812 39.4396 98.6663 39.1652C98.8513 38.8907 99.0939 38.6593 99.3773 38.4867C103.588 36.1176 107.671 33.5291 111.607 30.732C112.177 30.3064 112.555 29.6746 112.66 28.9736C112.764 28.2726 112.586 27.559 112.164 26.9876C111.977 26.6989 111.734 26.4498 111.449 26.2549C111.164 26.06 110.843 25.923 110.505 25.852C110.166 25.7809 109.817 25.7771 109.477 25.8409C109.137 25.9046 108.813 26.0345 108.524 26.2233C104.728 28.9268 100.791 31.4302 96.7296 33.7231C96.2037 33.9919 95.5952 34.0536 95.0256 33.8957C94.4559 33.7379 93.9673 33.3721 93.6574 32.8717C93.3475 32.3712 93.2391 31.7729 93.354 31.1965C93.4688 30.6201 93.7985 30.108 94.277 29.7627C98.3086 27.4967 102.216 25.0191 105.983 22.3404C106.45 21.9998 106.78 21.5056 106.915 20.9457C107.049 20.3858 106.98 19.7966 106.718 19.2829C106.01 17.8704 104.372 17.3885 103.274 18.1751C98.0366 21.9355 92.5169 25.2909 86.7631 28.2118C84.0819 29.6187 83.1232 33.136 84.6728 36.1713L85.2636 37.3345C58.1232 49.0219 40.9884 41.9652 34.8568 14.3365C34.3297 15.0618 33.8476 15.8184 33.4131 16.602C32.8052 17.6679 32.4207 18.8451 32.2827 20.0626C32.1448 21.2801 32.2562 22.5128 32.6105 23.6864C34.227 28.9374 37.5937 36.2987 44.422 41.0734C44.422 41.0734 34.3106 37.2902 29.8513 26.7052C29.1617 31.0425 29.7683 35.4857 31.596 39.4837C37.577 52.4727 50.2414 47.41 50.2414 47.41C61.2503 52.3453 74.5446 50.6227 89.4721 45.5434C89.7173 46.0308 89.9849 46.5515 90.297 47.1608C90.6598 47.8867 91.1639 48.534 91.78 49.0651C92.3961 49.5963 93.112 50.0008 93.8865 50.2552C94.6609 50.5097 95.4784 50.6091 96.2917 50.5476C97.105 50.4861 97.898 50.265 98.6248 49.897C105.11 46.6074 111.332 42.8299 117.237 38.5974C117.535 38.3857 117.783 38.1124 117.965 37.7962C118.146 37.48 118.257 37.1285 118.289 36.7658C118.32 36.4031 118.273 36.0379 118.149 35.6953C118.025 35.3527 117.828 35.0408 117.571 34.7811Z" fill="#394D37"/>
<path d="M49.8722 17.624C49.8722 17.624 51.1184 29.1286 55.9362 34.9482C57.0043 30.7826 58.6455 22.7708 56.9153 17.781C54.5064 10.8065 50.4786 7.01648 51.8082 0.288635C51.8082 0.288635 40.8653 8.7545 43.213 21.8458C44.6093 29.594 48.5315 33.7092 51.5134 35.778C47.8527 26.9813 49.8722 17.624 49.8722 17.624Z" fill="#58AD53"/>
<path d="M72.478 27.5072C72.478 27.5072 65.0611 32.5584 62.8305 37.9961C66.072 37.2287 72.1704 35.4456 74.9174 32.4369C78.8071 28.2303 79.9334 24.0569 85.0264 22.5332C85.0264 22.5332 75.2415 18.0285 67.1379 24.4157C62.3416 28.1972 60.9571 32.4204 60.6274 35.2358C65.3358 29.5111 72.478 27.5072 72.478 27.5072Z" fill="#58AD53"/>
<path d="M11.3629 74.1718C11.8287 73.244 12.2946 72.3271 12.7604 71.4213C13.2262 70.4934 13.6477 69.6318 14.0248 68.8365C14.4019 68.0411 14.7235 67.3342 14.9897 66.7156C15.2559 66.0749 15.4112 65.5668 15.4555 65.1912C15.4999 64.7935 15.4666 64.4511 15.3557 64.1639C15.2448 63.8767 15.0563 63.6447 14.7901 63.468C14.5461 63.2912 14.2466 63.1587 13.8917 63.0703C13.5589 62.9599 13.1818 62.8936 12.7604 62.8715C12.0284 62.8273 11.1522 62.8494 10.1318 62.9378C9.13357 63.004 8.16864 63.1476 7.23698 63.3686C6.30533 63.5674 5.49567 63.8546 4.80802 64.2302C4.14255 64.6058 3.78763 65.0697 3.74327 65.622C3.72109 65.9313 3.77654 66.2075 3.90964 66.4505C4.02055 66.6493 4.22019 66.8371 4.50856 67.0138C4.81911 67.1906 5.27385 67.2569 5.87277 67.2127C5.98368 67.2127 6.11678 67.2016 6.27205 67.1795C6.40515 67.1574 6.57151 67.1354 6.77116 67.1133C6.9708 67.0691 7.20371 67.0138 7.4699 66.9476L5.8395 69.1347C5.52894 69.5766 5.19621 69.8417 4.84129 69.9301C4.48638 70.0184 4.16473 70.0405 3.87636 69.9963C3.72109 69.9742 3.41053 69.8969 2.9447 69.7644C2.50106 69.6318 2.04632 69.433 1.58049 69.1679C1.13684 68.9028 0.748654 68.5493 0.415919 68.1074C0.0831837 67.6435 -0.0499102 67.0691 0.0166367 66.3842C0.105366 65.5889 0.449192 64.8598 1.04812 64.197C1.64704 63.5122 2.47888 62.9267 3.54363 62.4407C4.63056 61.9546 5.91714 61.5791 7.40335 61.314C8.91175 61.0488 10.6087 60.9163 12.4942 60.9163C13.9139 60.9163 15.0452 61.0709 15.8881 61.3802C16.731 61.6674 17.341 62.0541 17.7181 62.5401C18.1174 63.004 18.306 63.5564 18.2838 64.197C18.2838 64.8156 18.1507 65.4563 17.8845 66.1191C17.7514 66.4284 17.5518 66.8592 17.2856 67.4115C17.0416 67.9417 16.7421 68.5714 16.3872 69.3004C16.0323 70.0074 15.6552 70.7917 15.2559 71.6533C14.8566 72.5149 14.4573 73.4096 14.058 74.3375C14.657 74.3817 15.2004 74.4369 15.6884 74.5032C16.1986 74.5695 16.5979 74.6247 16.8863 74.6689C17.219 74.7573 17.3299 74.9009 17.219 75.0997C17.0194 75.4974 16.8197 75.7956 16.6201 75.9945C16.4426 76.1933 16.243 76.3369 16.0212 76.4253C15.7994 76.4916 15.5554 76.5247 15.2892 76.5247C15.023 76.5026 14.7235 76.4805 14.3908 76.4584C14.1911 76.4584 13.9915 76.4584 13.7919 76.4584C13.5922 76.4363 13.3815 76.4142 13.1597 76.3921C12.7382 77.3863 12.3278 78.3694 11.9285 79.3415C11.5514 80.3136 11.1965 81.2415 10.8638 82.1252C10.5532 82.9868 10.276 83.7821 10.032 84.5112C9.78795 85.2402 9.62158 85.8478 9.53286 86.3338C9.39976 87.0187 9.29994 87.6594 9.23339 88.2559C9.18903 88.764 9.16685 89.2942 9.16685 89.8465C9.16685 90.3988 9.25558 90.8407 9.43303 91.1721C8.96721 91.3046 8.55683 91.4151 8.20191 91.5035C7.86918 91.5918 7.58081 91.6581 7.3368 91.7023C7.07062 91.7686 6.84879 91.8238 6.67133 91.868C6.05023 92.0226 5.60658 92.0006 5.34039 91.8017C5.09639 91.625 5.02984 91.1831 5.14075 90.4762C5.18512 89.9901 5.25167 89.4378 5.34039 88.8192C5.45131 88.2227 5.60658 87.5378 5.80622 86.7646C6.02805 86.0135 6.30533 85.1739 6.63806 84.2461C6.99298 83.2961 7.43662 82.2467 7.969 81.0979C8.27955 80.4351 8.63447 79.706 9.03375 78.9107C9.43303 78.0933 9.8545 77.2206 10.2981 76.2927C9.32212 76.2927 8.26846 76.359 7.13716 76.4916C6.51606 76.5799 5.90604 76.6793 5.30712 76.7898C4.79693 76.9003 4.24237 77.0328 3.64345 77.1875C3.06671 77.32 2.52324 77.4747 2.01305 77.6514C1.9465 77.4747 1.90213 77.2979 1.87995 77.1212C1.87995 76.9445 1.89104 76.7788 1.91323 76.6241C1.93541 76.4695 1.96868 76.3148 2.01305 76.1602C2.05741 76.0055 2.12396 75.8509 2.21269 75.6962C2.34578 75.4311 2.55651 75.0997 2.84488 74.7021C3.88745 74.5695 4.88566 74.4701 5.8395 74.4038C6.79334 74.3375 7.63627 74.2823 8.36828 74.2381C9.23339 74.1939 10.043 74.1718 10.7972 74.1718C10.9082 74.1497 10.9969 74.1497 11.0634 74.1718C11.1522 74.1718 11.252 74.1718 11.3629 74.1718Z" fill="#58AD53"/>
<path d="M17.3189 85.671C17.1636 85.914 16.9972 86.0687 16.8197 86.135C16.6201 86.2233 16.4537 86.2344 16.3206 86.1681C16.1654 86.1239 16.0655 86.0135 16.0212 85.8367C15.9768 85.66 16.0212 85.4391 16.1543 85.1739C16.2208 85.0414 16.3761 84.7431 16.6201 84.2792C16.8419 83.8152 17.1192 83.2629 17.4519 82.6222C17.7625 81.9595 18.1063 81.2525 18.4834 80.5014C18.8605 79.7281 19.2154 78.9991 19.5482 78.3142C19.9031 77.6293 20.2247 77.0218 20.5131 76.4916C20.8015 75.9392 21.0122 75.5416 21.1453 75.2986C20.9013 75.0776 20.7349 74.923 20.6462 74.8346C20.5575 74.7242 20.4909 74.5032 20.4466 74.1718C20.4022 73.8846 20.4687 73.5091 20.6462 73.0451C20.8237 72.5812 21.0566 72.1393 21.3449 71.7196C21.6333 71.2777 21.955 70.9021 22.3099 70.5928C22.6648 70.2835 23.0086 70.1289 23.3414 70.1289C23.9625 70.1289 24.395 70.3277 24.639 70.7254C24.9052 71.1231 25.0605 71.5318 25.1048 71.9515C25.1492 72.2387 25.127 72.6033 25.0383 73.0451C24.9496 73.487 24.7832 73.8846 24.5392 74.2381C24.6057 74.2823 24.6945 74.3375 24.8054 74.4038C24.9163 74.448 25.0938 74.4701 25.3378 74.4701C25.6927 74.4701 25.9367 74.448 26.0698 74.4038C26.2251 74.3596 26.458 74.3375 26.7685 74.3375C27.1456 74.3375 27.4562 74.4369 27.7002 74.6358C27.9442 74.8125 28.1438 75.0445 28.2991 75.3317C28.4544 75.5968 28.5653 75.8951 28.6318 76.2264C28.7206 76.5357 28.776 76.8229 28.7982 77.0881C28.8648 77.6404 28.7206 78.2148 28.3656 78.8113C28.0107 79.4078 27.5782 80.0595 27.068 80.7665C26.7574 81.2083 26.4469 81.7054 26.1363 82.2577C25.8258 82.81 25.6927 83.3071 25.737 83.749C25.7814 84.0362 25.859 84.2681 25.97 84.4449C26.0809 84.6216 26.3914 84.71 26.9016 84.71C27.2787 84.71 27.6891 84.5774 28.1327 84.3123C28.5986 84.0251 29.0644 83.6716 29.5302 83.2519C30.0182 82.81 30.4952 82.335 30.961 81.8269C31.4268 81.2967 31.8594 80.7886 32.2586 80.3025C32.6579 79.7944 32.9907 79.3415 33.2569 78.9438C33.5452 78.5462 33.756 78.259 33.889 78.0822C34 77.9055 34.1441 77.784 34.3216 77.7177C34.4991 77.6514 34.6543 77.6514 34.7874 77.7177C34.9205 77.784 34.9982 77.9165 35.0203 78.1154C35.0647 78.3142 34.9871 78.5793 34.7874 78.9107C34.6543 79.1316 34.4214 79.4851 34.0887 79.9711C33.7781 80.4572 33.3899 80.9984 32.9241 81.5949C32.4805 82.1914 31.9814 82.81 31.4268 83.4507C30.8723 84.0693 30.2844 84.6437 29.6633 85.1739C29.0644 85.6821 28.4544 86.1018 27.8333 86.4332C27.2344 86.7646 26.6576 86.9303 26.1031 86.9303C25.5263 86.9303 25.0494 86.8198 24.6723 86.5989C24.2952 86.378 23.9846 86.1129 23.7406 85.8036C23.5188 85.4722 23.3524 85.1187 23.2415 84.7431C23.1528 84.3455 23.1195 83.9809 23.1417 83.6496C23.1639 83.3844 23.2304 83.1083 23.3414 82.8211C23.4744 82.5118 23.6186 82.2025 23.7739 81.8932C23.9514 81.5618 24.1288 81.2415 24.3063 80.9322C24.5059 80.6008 24.6834 80.2804 24.8387 79.9711C25.2158 79.3305 25.5152 78.7892 25.737 78.3473C25.981 77.8834 26.1031 77.4968 26.1031 77.1875C26.1031 76.9886 26.0587 76.8119 25.97 76.6573C25.8812 76.5026 25.737 76.4253 25.5374 76.4253C25.4043 76.4253 25.3045 76.4363 25.2379 76.4584C25.1936 76.4584 25.1381 76.4584 25.0716 76.4584C25.0272 76.4584 24.9496 76.4695 24.8387 76.4916C24.7499 76.4916 24.6057 76.4916 24.4061 76.4916C24.1177 76.4916 23.8737 76.4474 23.6741 76.359C23.4744 76.2706 23.2859 76.2044 23.1084 76.1602C23.0197 76.3148 22.8201 76.6462 22.5095 77.1543C22.199 77.6625 21.833 78.259 21.4115 78.9438C21.0122 79.6287 20.5797 80.3467 20.1138 81.0979C19.6702 81.849 19.2487 82.556 18.8494 83.2187C18.4501 83.8594 18.1174 84.4117 17.8512 84.8757C17.5629 85.3175 17.3854 85.5827 17.3189 85.671Z" fill="#58AD53"/>
<path d="M47.4979 78.9438C46.8324 79.9159 46.0782 80.8659 45.2353 81.7938C44.3924 82.6996 43.494 83.517 42.5402 84.2461C41.6085 84.953 40.6436 85.5274 39.6454 85.9693C38.6693 86.4111 37.7155 86.6321 36.7838 86.6321C36.2958 86.6321 35.7635 86.5105 35.1867 86.2675C34.6322 86.0466 34.122 85.6931 33.6561 85.2071C33.1903 84.721 32.8132 84.0914 32.5248 83.3182C32.2586 82.5449 32.181 81.606 32.2919 80.5014C32.3806 79.5956 32.6579 78.6456 33.1238 77.6514C33.6118 76.6352 34.1996 75.7073 34.8873 74.8678C35.5971 74.0282 36.3846 73.3323 37.2497 72.78C38.137 72.2277 39.0243 71.9515 39.9116 71.9515C40.7545 71.9515 41.3645 72.1614 41.7416 72.5812C42.1187 73.0009 42.2851 73.5201 42.2407 74.1387C42.1741 74.8236 41.9745 75.4532 41.6418 76.0276C41.3312 76.602 40.9541 77.1212 40.5105 77.5851C40.0668 78.0491 39.5899 78.4688 39.0797 78.8444C38.5917 79.22 38.1259 79.5624 37.6822 79.8717C37.1942 80.2031 36.7284 80.5235 36.2847 80.8328C35.8411 81.12 35.4529 81.3851 35.1202 81.6281C35.1423 82.1804 35.2422 82.6443 35.4196 83.0199C35.5971 83.3955 35.8189 83.7048 36.0851 83.9478C36.3513 84.1687 36.6508 84.3344 36.9835 84.4449C37.3384 84.5333 37.6933 84.5774 38.0482 84.5774C38.8024 84.5774 39.5899 84.3455 40.4107 83.8815C41.2314 83.3955 42.03 82.8211 42.8063 82.1583C43.6049 81.4734 44.3369 80.7665 45.0024 80.0374C45.69 79.3084 46.2557 78.6787 46.6993 78.1485C46.8546 77.9718 47.0099 77.8723 47.1652 77.8503C47.3426 77.8061 47.4757 77.8282 47.5645 77.9165C47.6754 77.9828 47.7308 78.1154 47.7308 78.3142C47.7308 78.4909 47.6532 78.7008 47.4979 78.9438ZM38.9799 73.8404C38.7137 73.8404 38.3921 73.973 38.015 74.2381C37.66 74.5032 37.3051 74.8898 36.9502 75.398C36.5953 75.884 36.2626 76.4916 35.952 77.2206C35.6415 77.9276 35.4085 78.745 35.2533 79.6729C35.5194 79.4741 35.8078 79.2752 36.1184 79.0764C36.4289 78.8555 36.7395 78.6235 37.05 78.3805C38.0039 77.6514 38.6693 77.0107 39.0464 76.4584C39.4235 75.9061 39.6343 75.4311 39.6786 75.0334C39.723 74.6137 39.6786 74.3154 39.5455 74.1387C39.4124 73.9399 39.2239 73.8404 38.9799 73.8404Z" fill="#58AD53"/>
<path d="M49.7938 84.71C49.9269 84.7984 50.0932 84.8426 50.2929 84.8426C50.5147 84.8426 50.7254 84.7984 50.9251 84.71C51.1469 84.6216 51.3465 84.5001 51.524 84.3455C51.7236 84.1908 51.8678 83.992 51.9566 83.749C52.0453 83.506 52.0453 83.1635 51.9566 82.7217C51.8678 82.2577 51.7236 81.7717 51.524 81.2636C51.3465 80.7333 51.1469 80.2031 50.9251 79.6729C50.7033 79.1427 50.5147 78.6566 50.3594 78.2148C50.2263 77.8834 50.1154 77.5741 50.0267 77.2869C49.938 77.0439 49.8492 76.8119 49.7605 76.591C49.694 76.348 49.6385 76.1823 49.5941 76.0939C49.4832 76.2706 49.2836 76.5578 48.9952 76.9555C48.729 77.3532 48.4296 77.7729 48.0968 78.2148C47.7863 78.6345 47.4868 79.0322 47.1984 79.4078C46.9101 79.7613 46.7104 80.0043 46.5995 80.1368C46.4221 80.3357 46.2446 80.4572 46.0671 80.5014C45.9119 80.5235 45.7788 80.4903 45.6679 80.4019C45.557 80.2915 45.4904 80.1479 45.4682 79.9711C45.4682 79.7723 45.557 79.5403 45.7344 79.2752C45.8675 79.0985 46.0671 78.8223 46.3333 78.4468C46.5995 78.0491 46.8657 77.6514 47.1319 77.2538C47.3981 76.834 47.6421 76.4695 47.8639 76.1602C48.0857 75.8288 48.2077 75.6299 48.2299 75.5637C48.2743 75.3869 48.2077 75.155 48.0303 74.8678C47.875 74.5806 47.8528 74.2492 47.9637 73.8736C48.0525 73.5643 48.2521 73.2108 48.5627 72.8131C48.8732 72.3934 49.2392 72.0178 49.6607 71.6864C50.0822 71.355 50.5147 71.112 50.9584 70.9574C51.402 70.7806 51.8013 70.7806 52.1562 70.9574C52.4446 71.1341 52.6775 71.3329 52.8549 71.5539C53.0324 71.7527 53.0989 71.9626 53.0546 72.1835C53.0102 72.294 52.9437 72.4376 52.8549 72.6143C52.7662 72.7911 52.6331 73.012 52.4557 73.2771C52.2782 73.5201 52.0231 73.8404 51.6904 74.2381C51.7569 74.7462 51.8456 75.2102 51.9566 75.6299C52.0896 76.0497 52.2117 76.4142 52.3226 76.7235C52.4557 77.0991 52.5998 77.4415 52.7551 77.7508C52.9548 78.1485 53.1655 78.5572 53.3873 78.977C53.6091 79.3967 53.8088 79.8165 53.9862 80.2363C54.1637 80.6339 54.3079 81.0095 54.4188 81.363C54.5297 81.7165 54.563 82.0147 54.5186 82.2577C54.4521 82.6333 54.2524 83.0862 53.9197 83.6164C53.6091 84.1466 53.2099 84.6658 52.7218 85.1739C52.256 85.66 51.7126 86.0797 51.0914 86.4332C50.4925 86.7867 49.8603 86.9634 49.1949 86.9634C48.729 86.9634 48.2743 86.8198 47.8306 86.5326C47.4092 86.2454 47.0432 85.914 46.7326 85.5385C46.4442 85.1408 46.2224 84.7542 46.0671 84.3786C45.9341 84.003 45.923 83.7158 46.0339 83.517C46.167 83.2519 46.289 83.042 46.3999 82.8874C46.5108 82.7327 46.6772 82.556 46.899 82.3571C46.9877 82.2909 47.0986 82.2135 47.2317 82.1252C47.3426 82.0589 47.4979 81.9926 47.6975 81.9263C47.8972 81.8601 48.1301 81.7827 48.3963 81.6944C48.6181 82.3792 48.8178 82.9205 48.9952 83.3182C49.1727 83.6937 49.3169 83.992 49.4278 84.2129C49.5609 84.4559 49.6829 84.6216 49.7938 84.71Z" fill="#58AD53"/>
<path d="M74.2498 78.5462C74.4051 78.3694 74.5603 78.2811 74.7156 78.2811C74.8931 78.259 75.0262 78.3032 75.1149 78.4136C75.2258 78.502 75.2702 78.6456 75.248 78.8444C75.248 79.0433 75.1593 79.2642 74.9818 79.5072C74.5603 80.0816 74.0723 80.6781 73.5178 81.2967C72.9632 81.8932 72.3643 82.4786 71.721 83.0531C71.0999 83.6275 70.4677 84.1687 69.8244 84.6769C69.1811 85.185 68.56 85.6047 67.9611 85.9361C67.2956 86.3117 66.73 86.4995 66.2642 86.4995C65.8205 86.4995 65.3769 86.2123 64.9332 85.6379C64.5339 85.1298 64.3343 84.5885 64.3343 84.0141C64.3565 83.4176 64.4896 82.6775 64.7336 81.7938C64.8889 81.2415 65.0996 80.5897 65.3658 79.8386C65.6541 79.0653 65.876 78.3252 66.0312 77.6183C66.2087 76.9113 66.2642 76.3148 66.1976 75.8288C66.1311 75.3207 65.8427 75.0666 65.3325 75.0666C64.9776 75.0666 64.5894 75.1881 64.1679 75.4311C63.7686 75.6741 63.3583 75.9945 62.9368 76.3921C62.5375 76.7677 62.1493 77.1985 61.7722 77.6846C61.3951 78.1706 61.0624 78.6456 60.774 79.1095C60.5966 79.9711 60.4191 80.8217 60.2417 81.6612C60.0864 82.3682 59.92 83.1414 59.7426 83.9809C59.5873 84.7984 59.432 85.5274 59.2767 86.1681C59.1436 86.2786 58.9994 86.3559 58.8442 86.4001C58.6889 86.4443 58.5447 86.4664 58.4116 86.4664C58.2563 86.4664 58.1011 86.4553 57.9458 86.4332C57.7683 86.389 57.602 86.3228 57.4467 86.2344C57.3136 86.146 57.1805 86.0245 57.0474 85.8699C56.9143 85.7373 56.8145 85.5495 56.7479 85.3065C57.7461 81.2194 58.5336 77.9386 59.1104 75.4643C59.6871 72.9899 60.1307 71.101 60.4413 69.7975C60.7962 68.251 61.0402 67.1795 61.1733 66.583C61.2399 66.1633 61.2953 65.7546 61.3397 65.3569C61.384 65.0034 61.4062 64.6389 61.4062 64.2633C61.4062 63.8877 61.373 63.5453 61.3064 63.236C61.4839 63.1255 61.6724 63.0372 61.8721 62.9709C62.0939 62.9046 62.3046 62.8494 62.5042 62.8052C62.7483 62.7389 62.9923 62.6837 63.2363 62.6395C63.4803 62.5953 63.7021 62.5732 63.9017 62.5732C64.0792 62.5732 64.2456 62.5953 64.4008 62.6395C64.5561 62.6616 64.6559 62.7279 64.7003 62.8383C64.8334 62.9488 64.8889 63.1697 64.8667 63.5011C64.8667 63.8325 64.8445 64.1749 64.8001 64.5284C64.7114 64.9482 64.6116 65.4011 64.5007 65.8871C64.0348 67.6766 63.5135 69.4219 62.9368 71.1231C62.3601 72.8021 61.8277 74.6026 61.3397 76.5247C61.628 76.0828 61.9719 75.6299 62.3712 75.166C62.7704 74.7021 63.203 74.2823 63.6688 73.9067C64.1568 73.5091 64.667 73.1887 65.1994 72.9457C65.7318 72.6806 66.2974 72.548 66.8963 72.548C67.2069 72.548 67.4953 72.6033 67.7615 72.7137C68.0498 72.8021 68.2938 72.9678 68.4935 73.2108C68.7153 73.4317 68.8817 73.741 68.9926 74.1387C69.1035 74.5143 69.1479 74.9893 69.1257 75.5637C69.1257 75.9172 69.0813 76.2817 68.9926 76.6573C68.926 77.0328 68.8262 77.4526 68.6931 77.9165C68.56 78.3584 68.3826 78.8555 68.1607 79.4078C67.9611 79.9601 67.7171 80.6008 67.4287 81.3298C67.2291 81.838 67.0738 82.2688 66.9629 82.6222C66.852 82.9757 66.8742 83.285 67.0294 83.5501C67.2291 83.9036 67.6173 83.992 68.194 83.8153C68.7929 83.6164 69.6802 83.042 70.8559 82.092C71.1221 81.8711 71.4215 81.5949 71.7543 81.2636C72.087 80.9322 72.4087 80.6008 72.7192 80.2694C73.0298 79.9159 73.3181 79.5845 73.5843 79.2752C73.8505 78.9659 74.0723 78.7229 74.2498 78.5462Z" fill="#58AD53"/>
<path d="M85.6959 74.1718C86.1617 73.244 86.6275 72.3271 87.0934 71.4213C87.5592 70.4934 87.9806 69.6318 88.3577 68.8365C88.7348 68.0411 89.0565 67.3342 89.3227 66.7156C89.5889 66.0749 89.7441 65.5668 89.7885 65.1912C89.8329 64.7935 89.7996 64.4511 89.6887 64.1639C89.5778 63.8767 89.3892 63.6447 89.123 63.468C88.879 63.2912 88.5796 63.1587 88.2246 63.0703C87.8919 62.9599 87.5148 62.8936 87.0934 62.8715C86.3613 62.8273 85.4851 62.8494 84.4647 62.9378C83.4665 63.004 82.5016 63.1476 81.5699 63.3686C80.6383 63.5674 79.8286 63.8546 79.141 64.2302C78.4755 64.6058 78.1206 65.0697 78.0762 65.622C78.0541 65.9313 78.1095 66.2075 78.2426 66.4505C78.3535 66.6493 78.5532 66.8371 78.8415 67.0138C79.1521 67.1906 79.6068 67.2569 80.2057 67.2127C80.3167 67.2127 80.4497 67.2016 80.605 67.1795C80.7381 67.1574 80.9045 67.1354 81.1041 67.1133C81.3038 67.0691 81.5367 67.0138 81.8029 66.9476L80.1725 69.1347C79.8619 69.5766 79.5292 69.8417 79.1743 69.9301C78.8193 70.0184 78.4977 70.0405 78.2093 69.9963C78.0541 69.9742 77.7435 69.8969 77.2777 69.7644C76.834 69.6318 76.3793 69.433 75.9135 69.1679C75.4698 68.9028 75.0816 68.5493 74.7489 68.1074C74.4162 67.6435 74.2831 67.0691 74.3496 66.3842C74.4383 65.5889 74.7822 64.8598 75.3811 64.197C75.98 63.5122 76.8119 62.9267 77.8766 62.4407C78.9635 61.9546 80.2501 61.5791 81.7363 61.314C83.2447 61.0488 84.9417 60.9163 86.8272 60.9163C88.2468 60.9163 89.3781 61.0709 90.2211 61.3802C91.064 61.6674 91.674 62.0541 92.0511 62.5401C92.4504 63.004 92.6389 63.5564 92.6168 64.197C92.6168 64.8156 92.4837 65.4563 92.2175 66.1191C92.0844 66.4284 91.8847 66.8592 91.6186 67.4115C91.3745 67.9417 91.0751 68.5714 90.7202 69.3004C90.3652 70.0074 89.9881 70.7917 89.5889 71.6533C89.1896 72.5149 88.7903 73.4096 88.391 74.3375C88.9899 74.3817 89.5334 74.4369 90.0214 74.5032C90.5316 74.5695 90.9309 74.6247 91.2193 74.6689C91.552 74.7573 91.6629 74.9009 91.552 75.0997C91.3524 75.4974 91.1527 75.7956 90.9531 75.9945C90.7756 76.1933 90.576 76.3369 90.3542 76.4253C90.1323 76.4916 89.8883 76.5247 89.6221 76.5247C89.356 76.5026 89.0565 76.4805 88.7238 76.4584C88.5241 76.4584 88.3245 76.4584 88.1248 76.4584C87.9252 76.4363 87.7145 76.4142 87.4926 76.3921C87.0712 77.3863 86.6608 78.3694 86.2615 79.3415C85.8844 80.3136 85.5295 81.2415 85.1968 82.1252C84.8862 82.9868 84.6089 83.7821 84.3649 84.5112C84.1209 85.2402 83.9546 85.8478 83.8658 86.3338C83.7327 87.0187 83.6329 87.6594 83.5664 88.2559C83.522 88.764 83.4998 89.2942 83.4998 89.8465C83.4998 90.3988 83.5885 90.8407 83.766 91.1721C83.3002 91.3046 82.8898 91.4151 82.5349 91.5035C82.2021 91.5918 81.9138 91.6581 81.6698 91.7023C81.4036 91.7686 81.1818 91.8238 81.0043 91.868C80.3832 92.0226 79.9396 92.0006 79.6734 91.8017C79.4294 91.625 79.3628 91.1831 79.4737 90.4762C79.5181 89.9901 79.5846 89.4378 79.6734 88.8192C79.7843 88.2227 79.9396 87.5378 80.1392 86.7646C80.361 86.0135 80.6383 85.1739 80.971 84.2461C81.3259 83.2961 81.7696 82.2467 82.302 81.0979C82.6125 80.4351 82.9674 79.706 83.3667 78.9107C83.766 78.0933 84.1875 77.2206 84.6311 76.2927C83.6551 76.2927 82.6014 76.359 81.4701 76.4916C80.849 76.5799 80.239 76.6793 79.6401 76.7898C79.1299 76.9003 78.5753 77.0328 77.9764 77.1875C77.3997 77.32 76.8562 77.4747 76.346 77.6514C76.2795 77.4747 76.2351 77.2979 76.2129 77.1212C76.2129 76.9445 76.224 76.7788 76.2462 76.6241C76.2684 76.4695 76.3017 76.3148 76.346 76.1602C76.3904 76.0055 76.4569 75.8509 76.5457 75.6962C76.6787 75.4311 76.8895 75.0997 77.1778 74.7021C78.2204 74.5695 79.2186 74.4701 80.1725 74.4038C81.1263 74.3375 81.9692 74.2823 82.7013 74.2381C83.5664 74.1939 84.376 74.1718 85.1302 74.1718C85.2411 74.1497 85.3299 74.1497 85.3964 74.1718C85.4851 74.1718 85.585 74.1718 85.6959 74.1718Z" fill="#58AD53"/>
<path d="M102.765 80.5676C102.543 81.4072 102.244 82.1914 101.867 82.9205C101.49 83.6496 101.035 84.2792 100.503 84.8094C99.9924 85.3396 99.4045 85.7484 98.7391 86.0356C98.0958 86.3449 97.386 86.4995 96.6096 86.4995C95.7001 86.4995 94.9792 86.3007 94.4468 85.903C93.9366 85.5274 93.5484 85.0524 93.2822 84.478C93.0382 83.9036 92.894 83.274 92.8497 82.5891C92.7831 81.9042 92.7498 81.2636 92.7498 80.6671C92.7498 80.2473 92.8053 79.7834 92.9162 79.2752C93.0049 78.7671 93.138 78.2479 93.3155 77.7177C93.493 77.1875 93.7148 76.6573 93.981 76.127C94.2693 75.5968 94.6021 75.1108 94.9792 74.6689C95.1123 74.2933 95.3119 73.962 95.5781 73.6748C95.8665 73.3876 96.1881 73.1556 96.543 72.9788C96.9201 72.78 97.3194 72.6364 97.7409 72.548C98.1623 72.4376 98.5727 72.3823 98.972 72.3823C99.0385 72.3823 99.094 72.3934 99.1384 72.4155C99.2049 72.4376 99.2715 72.4597 99.338 72.4818C99.6264 72.5038 99.9813 72.6143 100.403 72.8131C100.846 73.012 101.268 73.3102 101.667 73.7079C102.089 74.1056 102.444 74.6137 102.732 75.2323C103.02 75.8288 103.164 76.5578 103.164 77.4194C103.164 77.5962 103.153 77.8171 103.131 78.0822C103.109 78.3252 103.087 78.5351 103.065 78.7119C103.575 78.513 104.107 78.27 104.662 77.9828C105.216 77.6956 105.749 77.3974 106.259 77.0881C106.791 76.7567 107.279 76.4253 107.723 76.0939C108.167 75.7625 108.521 75.4643 108.788 75.1991C109.009 75.0003 109.198 74.8898 109.353 74.8678C109.509 74.8457 109.62 74.8898 109.686 75.0003C109.753 75.1108 109.764 75.2654 109.719 75.4643C109.675 75.6631 109.553 75.884 109.353 76.127C109.242 76.2596 108.954 76.5247 108.488 76.9224C108.045 77.32 107.512 77.7508 106.891 78.2148C106.27 78.6787 105.593 79.1316 104.861 79.5735C104.129 80.0153 103.431 80.3467 102.765 80.5676ZM97.1419 75.5305C97.0754 75.7294 97.0421 75.9392 97.0421 76.1602C97.0421 76.5137 97.0643 76.8892 97.1087 77.2869C97.153 77.6625 97.264 78.0049 97.4414 78.3142C97.6189 78.6235 97.8961 78.8886 98.2732 79.1095C98.6725 79.3084 99.216 79.4078 99.9036 79.4078C100.015 79.4078 100.125 79.4078 100.236 79.4078C100.347 79.3857 100.458 79.3636 100.569 79.3415C100.636 79.0543 100.691 78.8002 100.735 78.5793C100.802 78.3363 100.835 78.1264 100.835 77.9497C100.88 77.5299 100.88 77.0991 100.835 76.6573C100.791 76.2154 100.702 75.8177 100.569 75.4643C100.458 75.0887 100.303 74.7904 100.103 74.5695C99.9258 74.3265 99.704 74.205 99.4378 74.205C99.0163 74.205 98.606 74.3265 98.2067 74.5695C97.8296 74.7904 97.4747 75.1108 97.1419 75.5305ZM95.0124 81.363C95.0124 81.7606 95.0346 82.1583 95.079 82.556C95.1234 82.9315 95.2121 83.274 95.3452 83.5833C95.4783 83.8705 95.6557 84.1135 95.8775 84.3123C96.0994 84.4891 96.3877 84.5774 96.7427 84.5774C97.1419 84.5774 97.508 84.4891 97.8407 84.3123C98.1734 84.1135 98.4729 83.8705 98.7391 83.5833C99.0053 83.274 99.2382 82.9315 99.4378 82.556C99.6596 82.1583 99.8482 81.7496 100.003 81.3298C99.8482 81.3519 99.6929 81.374 99.5376 81.3961C99.4045 81.3961 99.2493 81.3961 99.0718 81.3961C98.2289 81.3961 97.4969 81.1531 96.8758 80.6671C96.2768 80.1589 95.811 79.5182 95.4783 78.745C95.3452 79.2089 95.2343 79.6618 95.1455 80.1037C95.0568 80.5455 95.0124 80.9653 95.0124 81.363Z" fill="#58AD53"/>
<path d="M116.174 80.5676C115.953 81.4072 115.653 82.1914 115.276 82.9205C114.899 83.6496 114.444 84.2792 113.912 84.8094C113.402 85.3396 112.814 85.7484 112.148 86.0356C111.505 86.3449 110.795 86.4995 110.019 86.4995C109.109 86.4995 108.388 86.3007 107.856 85.903C107.346 85.5274 106.958 85.0524 106.691 84.478C106.447 83.9036 106.303 83.274 106.259 82.5891C106.192 81.9042 106.159 81.2636 106.159 80.6671C106.159 80.2473 106.215 79.7834 106.325 79.2752C106.414 78.7671 106.547 78.2479 106.725 77.7177C106.902 77.1875 107.124 76.6573 107.39 76.127C107.679 75.5968 108.011 75.1108 108.388 74.6689C108.521 74.2933 108.721 73.962 108.987 73.6748C109.276 73.3876 109.597 73.1556 109.952 72.9788C110.329 72.78 110.729 72.6364 111.15 72.548C111.572 72.4376 111.982 72.3823 112.381 72.3823C112.448 72.3823 112.503 72.3934 112.548 72.4155C112.614 72.4376 112.681 72.4597 112.747 72.4818C113.036 72.5038 113.391 72.6143 113.812 72.8131C114.256 73.012 114.677 73.3102 115.076 73.7079C115.498 74.1056 115.853 74.6137 116.141 75.2323C116.429 75.8288 116.574 76.5578 116.574 77.4194C116.574 77.5962 116.563 77.8171 116.54 78.0822C116.518 78.3252 116.496 78.5351 116.474 78.7119C116.984 78.513 117.516 78.27 118.071 77.9828C118.626 77.6956 119.158 77.3974 119.668 77.0881C120.2 76.7567 120.688 76.4253 121.132 76.0939C121.576 75.7625 121.931 75.4643 122.197 75.1991C122.419 75.0003 122.607 74.8898 122.763 74.8678C122.918 74.8457 123.029 74.8898 123.095 75.0003C123.162 75.1108 123.173 75.2654 123.129 75.4643C123.084 75.6631 122.962 75.884 122.763 76.127C122.652 76.2596 122.363 76.5247 121.897 76.9224C121.454 77.32 120.921 77.7508 120.3 78.2148C119.679 78.6787 119.003 79.1316 118.271 79.5735C117.539 80.0153 116.84 80.3467 116.174 80.5676ZM110.551 75.5305C110.485 75.7294 110.451 75.9392 110.451 76.1602C110.451 76.5137 110.474 76.8892 110.518 77.2869C110.562 77.6625 110.673 78.0049 110.851 78.3142C111.028 78.6235 111.305 78.8886 111.682 79.1095C112.082 79.3084 112.625 79.4078 113.313 79.4078C113.424 79.4078 113.535 79.4078 113.646 79.4078C113.757 79.3857 113.867 79.3636 113.978 79.3415C114.045 79.0543 114.1 78.8002 114.145 78.5793C114.211 78.3363 114.245 78.1264 114.245 77.9497C114.289 77.5299 114.289 77.0991 114.245 76.6573C114.2 76.2154 114.111 75.8177 113.978 75.4643C113.867 75.0887 113.712 74.7904 113.513 74.5695C113.335 74.3265 113.113 74.205 112.847 74.205C112.426 74.205 112.015 74.3265 111.616 74.5695C111.239 74.7904 110.884 75.1108 110.551 75.5305ZM108.422 81.363C108.422 81.7606 108.444 82.1583 108.488 82.556C108.533 82.9315 108.621 83.274 108.754 83.5833C108.887 83.8705 109.065 84.1135 109.287 84.3123C109.509 84.4891 109.797 84.5774 110.152 84.5774C110.551 84.5774 110.917 84.4891 111.25 84.3123C111.583 84.1135 111.882 83.8705 112.148 83.5833C112.414 83.274 112.647 82.9315 112.847 82.556C113.069 82.1583 113.257 81.7496 113.413 81.3298C113.257 81.3519 113.102 81.374 112.947 81.3961C112.814 81.3961 112.658 81.3961 112.481 81.3961C111.638 81.3961 110.906 81.1531 110.285 80.6671C109.686 80.1589 109.22 79.5182 108.887 78.745C108.754 79.2089 108.643 79.6618 108.555 80.1037C108.466 80.5455 108.422 80.9653 108.422 81.363Z" fill="#58AD53"/>
<path d="M130.316 79.5072C130.205 80.1921 130.094 80.8438 129.983 81.4624C129.894 82.081 129.839 82.5781 129.817 82.9536C129.794 83.506 129.894 83.9036 130.116 84.1466C130.338 84.3897 130.582 84.5112 130.848 84.5112C131.159 84.5112 131.536 84.3565 131.979 84.0472C132.445 83.7379 132.933 83.3513 133.443 82.8874C133.954 82.4234 134.464 81.9153 134.974 81.363C135.484 80.8107 135.95 80.2915 136.371 79.8054C136.815 79.2973 137.181 78.8555 137.469 78.4799C137.78 78.1043 137.991 77.8613 138.102 77.7508C138.235 77.6183 138.368 77.541 138.501 77.5189C138.656 77.4968 138.778 77.5189 138.867 77.5851C138.956 77.6514 139 77.7729 139 77.9497C139 78.1264 138.911 78.3473 138.734 78.6124C138.468 79.0322 138.124 79.5293 137.702 80.1037C137.281 80.656 136.815 81.2304 136.305 81.8269C135.795 82.4234 135.251 83.0089 134.674 83.5833C134.12 84.1577 133.554 84.6658 132.977 85.1077C132.423 85.5495 131.879 85.903 131.347 86.1681C130.837 86.4553 130.371 86.5989 129.95 86.5989C129.639 86.5989 129.34 86.5105 129.051 86.3338C128.785 86.1571 128.541 85.9251 128.319 85.6379C128.097 85.3507 127.92 85.0303 127.787 84.6769C127.676 84.3234 127.632 83.9699 127.654 83.6164C127.676 83.4618 127.709 83.1967 127.754 82.8211C126.822 83.8594 125.879 84.6879 124.925 85.3065C123.994 85.903 123.095 86.2012 122.23 86.2012C121.92 86.2012 121.587 86.1239 121.232 85.9693C120.877 85.8146 120.555 85.5606 120.267 85.2071C120.001 84.8536 119.779 84.3897 119.602 83.8153C119.424 83.2408 119.358 82.5449 119.402 81.7275C119.468 80.4461 119.724 79.231 120.167 78.0822C120.611 76.9334 121.165 75.9392 121.831 75.0997C122.519 74.2381 123.284 73.5643 124.127 73.0783C124.992 72.5701 125.857 72.3161 126.722 72.3161C127.099 72.3161 127.443 72.4155 127.754 72.6143C128.064 72.7911 128.33 73.0341 128.552 73.3434C128.774 73.6306 128.951 73.9509 129.085 74.3044C129.24 74.6579 129.351 74.9893 129.417 75.2986C129.573 74.6579 129.717 74.0282 129.85 73.4096C129.983 72.7911 130.116 72.2056 130.249 71.6533C130.471 70.8359 130.704 69.9522 130.948 69.0022C131.17 68.1847 131.425 67.2458 131.713 66.1854C132.001 65.1249 132.323 64.0093 132.678 62.8383C132.9 62.6616 133.111 62.529 133.31 62.4407C133.51 62.3523 133.698 62.286 133.876 62.2418C134.076 62.1756 134.264 62.1424 134.442 62.1424C134.663 62.1424 134.863 62.1756 135.04 62.2418C135.218 62.286 135.362 62.4296 135.473 62.6727C135.606 62.8936 135.695 63.236 135.739 63.7C135.784 64.1639 135.784 64.7935 135.739 65.5889C135.695 66.5609 135.517 67.6214 135.207 68.7702C134.918 69.919 134.53 71.112 134.042 72.3492C133.554 73.5643 132.989 74.7904 132.345 76.0276C131.724 77.2427 131.048 78.4026 130.316 79.5072ZM128.352 79.938C128.441 79.5182 128.519 79.0985 128.585 78.6787C128.674 78.259 128.774 77.8282 128.885 77.3863C128.84 77.4084 128.796 77.4305 128.752 77.4526C128.73 77.4747 128.696 77.4968 128.652 77.5189C128.408 77.6293 128.242 77.6293 128.153 77.5189C128.064 77.3863 128.02 77.1875 128.02 76.9224C128.02 76.7898 128.009 76.5578 127.986 76.2264C127.964 75.873 127.898 75.5195 127.787 75.166C127.698 74.7904 127.554 74.4701 127.354 74.205C127.155 73.9178 126.877 73.7742 126.522 73.7742C126.012 73.7742 125.491 74.0393 124.959 74.5695C124.426 75.0776 123.927 75.7073 123.461 76.4584C122.995 77.1875 122.607 77.9718 122.297 78.8113C121.986 79.6508 121.809 80.4019 121.764 81.0647C121.72 82.1252 121.853 82.8874 122.164 83.3513C122.474 83.8152 122.896 84.0472 123.428 84.0472C123.827 84.0472 124.26 83.8926 124.726 83.5833C125.214 83.274 125.68 82.8984 126.123 82.4566C126.589 82.0147 127.01 81.5618 127.388 81.0979C127.787 80.6339 128.108 80.2473 128.352 79.938Z" fill="#58AD53"/>
<path d="M21.4668 104.433L19.9629 98.7998H20.6397L21.7891 103.388H21.8428L23.0137 98.7998H23.7657L24.9366 103.388H24.9903L26.1398 98.7998H26.8165L25.3126 104.433H24.6251L23.4112 99.944H23.3682L22.1543 104.433H21.4668Z" fill="#939A9A"/>
<path d="M27.5605 104.433V100.208H28.1943V104.433H27.5605ZM27.8827 99.5039C27.7592 99.5039 27.6527 99.4608 27.5631 99.3747C27.4754 99.2885 27.4316 99.1849 27.4316 99.0638C27.4316 98.9428 27.4754 98.8392 27.5631 98.753C27.6527 98.6668 27.7592 98.6237 27.8827 98.6237C28.0063 98.6237 28.1119 98.6668 28.1996 98.753C28.2892 98.8392 28.3339 98.9428 28.3339 99.0638C28.3339 99.1849 28.2892 99.2885 28.1996 99.3747C28.1119 99.4608 28.0063 99.5039 27.8827 99.5039Z" fill="#939A9A"/>
<path d="M31.1491 100.208V100.758H29.0114V100.208H31.1491ZM29.6344 99.1959H30.2682V103.223C30.2682 103.406 30.2942 103.544 30.3461 103.635C30.3998 103.725 30.4678 103.786 30.5502 103.817C30.6344 103.846 30.723 103.861 30.8161 103.861C30.8859 103.861 30.9432 103.857 30.988 103.85C31.0327 103.841 31.0685 103.833 31.0954 103.828L31.2243 104.411C31.1813 104.428 31.1213 104.444 31.0444 104.461C30.9674 104.479 30.8698 104.488 30.7516 104.488C30.5726 104.488 30.3971 104.449 30.2252 104.37C30.0552 104.291 29.9137 104.171 29.8009 104.009C29.6899 103.848 29.6344 103.645 29.6344 103.399V99.1959Z" fill="#939A9A"/>
<path d="M32.8249 101.891V104.433H32.1911V98.7998H32.8249V100.868H32.8786C32.9753 100.65 33.1203 100.477 33.3137 100.348C33.5088 100.218 33.7685 100.153 34.0925 100.153C34.3736 100.153 34.6198 100.211 34.8311 100.326C35.0423 100.44 35.2061 100.615 35.3225 100.852C35.4407 101.086 35.4998 101.385 35.4998 101.748V104.433H34.866V101.792C34.866 101.457 34.7809 101.197 34.6108 101.014C34.4425 100.829 34.2089 100.736 33.9099 100.736C33.7022 100.736 33.516 100.781 33.3513 100.871C33.1884 100.961 33.0595 101.092 32.9646 101.264C32.8715 101.437 32.8249 101.646 32.8249 101.891Z" fill="#939A9A"/>
<path d="M41.3859 102.706V100.208H42.0197V104.433H41.3859V103.718H41.343C41.2463 103.932 41.0959 104.115 40.8918 104.265C40.6877 104.414 40.4299 104.488 40.1183 104.488C39.8605 104.488 39.6313 104.43 39.4308 104.315C39.2303 104.197 39.0727 104.021 38.9582 103.787C38.8436 103.55 38.7863 103.252 38.7863 102.893V100.208H39.4201V102.849C39.4201 103.157 39.5042 103.402 39.6725 103.586C39.8426 103.769 40.0592 103.861 40.3224 103.861C40.48 103.861 40.6402 103.82 40.8032 103.737C40.9679 103.655 41.1057 103.528 41.2167 103.358C41.3295 103.187 41.3859 102.97 41.3859 102.706Z" fill="#939A9A"/>
<path d="M46.1025 101.154L45.5332 101.319C45.4974 101.222 45.4446 101.128 45.3747 101.036C45.3067 100.943 45.2136 100.865 45.0954 100.805C44.9773 100.744 44.826 100.714 44.6416 100.714C44.3891 100.714 44.1787 100.774 44.0104 100.893C43.8439 101.01 43.7607 101.16 43.7607 101.341C43.7607 101.503 43.818 101.63 43.9326 101.724C44.0471 101.817 44.2262 101.895 44.4697 101.957L45.082 102.112C45.4508 102.203 45.7256 102.343 45.9065 102.532C46.0873 102.719 46.1777 102.961 46.1777 103.256C46.1777 103.498 46.1097 103.714 45.9736 103.905C45.8393 104.096 45.6513 104.246 45.4096 104.356C45.1679 104.466 44.8868 104.521 44.5664 104.521C44.1456 104.521 43.7974 104.428 43.5217 104.24C43.2459 104.053 43.0714 103.78 42.998 103.421L43.5995 103.267C43.6568 103.494 43.7652 103.665 43.9245 103.778C44.0856 103.892 44.296 103.949 44.5556 103.949C44.851 103.949 45.0856 103.885 45.2592 103.756C45.4347 103.626 45.5224 103.47 45.5224 103.289C45.5224 103.142 45.4723 103.019 45.372 102.92C45.2718 102.819 45.1178 102.744 44.9101 102.695L44.2226 102.53C43.8448 102.438 43.5673 102.296 43.3901 102.103C43.2146 101.909 43.1269 101.666 43.1269 101.374C43.1269 101.136 43.1922 100.925 43.3229 100.742C43.4554 100.558 43.6354 100.414 43.8627 100.31C44.0919 100.205 44.3515 100.153 44.6416 100.153C45.0498 100.153 45.3703 100.245 45.603 100.428C45.8375 100.612 46.0041 100.854 46.1025 101.154Z" fill="#939A9A"/>
<path d="M49.667 106.017C49.5596 106.017 49.4638 106.008 49.3796 105.99C49.2955 105.973 49.2373 105.957 49.2051 105.94L49.3662 105.368C49.5202 105.409 49.6562 105.423 49.7744 105.412C49.8926 105.401 49.9973 105.347 50.0886 105.25C50.1817 105.155 50.2668 105 50.3438 104.785L50.4619 104.455L48.9365 100.208H49.624L50.7627 103.575H50.8057L51.9444 100.208H52.6319L50.8809 105.049C50.8021 105.267 50.7045 105.448 50.5882 105.591C50.4718 105.736 50.3366 105.843 50.1826 105.913C50.0304 105.983 49.8586 106.017 49.667 106.017Z" fill="#939A9A"/>
<path d="M54.9966 104.521C54.6242 104.521 54.2974 104.43 54.0163 104.249C53.737 104.067 53.5186 103.813 53.361 103.487C53.2053 103.16 53.1274 102.779 53.1274 102.343C53.1274 101.902 53.2053 101.518 53.361 101.19C53.5186 100.862 53.737 100.607 54.0163 100.425C54.2974 100.244 54.6242 100.153 54.9966 100.153C55.369 100.153 55.6948 100.244 55.9741 100.425C56.2552 100.607 56.4737 100.862 56.6294 101.19C56.787 101.518 56.8657 101.902 56.8657 102.343C56.8657 102.779 56.787 103.16 56.6294 103.487C56.4737 103.813 56.2552 104.067 55.9741 104.249C55.6948 104.43 55.369 104.521 54.9966 104.521ZM54.9966 103.938C55.2795 103.938 55.5122 103.864 55.6948 103.715C55.8774 103.567 56.0126 103.371 56.1003 103.129C56.1881 102.887 56.2319 102.625 56.2319 102.343C56.2319 102.06 56.1881 101.797 56.1003 101.553C56.0126 101.309 55.8774 101.112 55.6948 100.962C55.5122 100.811 55.2795 100.736 54.9966 100.736C54.7137 100.736 54.4809 100.811 54.2983 100.962C54.1157 101.112 53.9805 101.309 53.8928 101.553C53.8051 101.797 53.7612 102.06 53.7612 102.343C53.7612 102.625 53.8051 102.887 53.8928 103.129C53.9805 103.371 54.1157 103.567 54.2983 103.715C54.4809 103.864 54.7137 103.938 54.9966 103.938Z" fill="#939A9A"/>
<path d="M60.4329 102.706V100.208H61.0667V104.433H60.4329V103.718H60.3899C60.2932 103.932 60.1429 104.115 59.9387 104.265C59.7346 104.414 59.4768 104.488 59.1653 104.488C58.9075 104.488 58.6783 104.43 58.4778 104.315C58.2773 104.197 58.1197 104.021 58.0051 103.787C57.8905 103.55 57.8332 103.252 57.8332 102.893V100.208H58.467V102.849C58.467 103.157 58.5512 103.402 58.7195 103.586C58.8896 103.769 59.1062 103.861 59.3694 103.861C59.527 103.861 59.6872 103.82 59.8501 103.737C60.0148 103.655 60.1527 103.528 60.2637 103.358C60.3765 103.187 60.4329 102.97 60.4329 102.706Z" fill="#939A9A"/>
<path d="M64.3545 104.433V100.208H64.9669V100.846H65.0098C65.085 100.637 65.2211 100.468 65.4181 100.337C65.615 100.207 65.837 100.142 66.0841 100.142C66.1306 100.142 66.1888 100.143 66.2586 100.145C66.3285 100.147 66.3813 100.149 66.4171 100.153V100.813C66.3956 100.808 66.3464 100.799 66.2694 100.788C66.1942 100.776 66.1145 100.769 66.0304 100.769C65.8298 100.769 65.6508 100.812 65.4932 100.898C65.3375 100.983 65.2139 101.1 65.1226 101.251C65.0331 101.399 64.9884 101.569 64.9884 101.759V104.433H64.3545Z" fill="#939A9A"/>
<path d="M68.7724 104.521C68.3749 104.521 68.032 104.431 67.7438 104.251C67.4573 104.07 67.2362 103.817 67.0804 103.492C66.9265 103.166 66.8495 102.786 66.8495 102.354C66.8495 101.921 66.9265 101.539 67.0804 101.209C67.2362 100.877 67.4528 100.619 67.7304 100.434C68.0097 100.247 68.3355 100.153 68.7079 100.153C68.9228 100.153 69.1349 100.19 69.3444 100.263C69.5539 100.336 69.7446 100.456 69.9164 100.621C70.0883 100.784 70.2253 101 70.3273 101.27C70.4294 101.539 70.4804 101.871 70.4804 102.266V102.541H67.3007V101.979H69.8359C69.8359 101.741 69.7893 101.528 69.6962 101.341C69.6049 101.154 69.4742 101.007 69.3041 100.898C69.1358 100.79 68.9371 100.736 68.7079 100.736C68.4555 100.736 68.237 100.8 68.0526 100.929C67.87 101.055 67.7295 101.22 67.631 101.424C67.5325 101.627 67.4833 101.846 67.4833 102.079V102.453C67.4833 102.772 67.537 103.042 67.6444 103.264C67.7536 103.484 67.9049 103.652 68.0983 103.767C68.2916 103.881 68.5163 103.938 68.7724 103.938C68.9389 103.938 69.0893 103.914 69.2235 103.866C69.3596 103.817 69.4769 103.744 69.5754 103.646C69.6738 103.547 69.7499 103.424 69.8036 103.278L70.416 103.454C70.3515 103.667 70.2432 103.854 70.091 104.015C69.9388 104.174 69.7508 104.299 69.527 104.389C69.3032 104.477 69.0517 104.521 68.7724 104.521Z" fill="#939A9A"/>
<path d="M71.4445 104.433V100.208H72.0569V100.868H72.1106C72.1965 100.643 72.3353 100.468 72.5268 100.343C72.7184 100.216 72.9485 100.153 73.217 100.153C73.4892 100.153 73.7157 100.216 73.8965 100.343C74.0791 100.468 74.2215 100.643 74.3235 100.868H74.3665C74.4721 100.65 74.6306 100.477 74.8418 100.348C75.0531 100.218 75.3064 100.153 75.6018 100.153C75.9707 100.153 76.2724 100.271 76.5069 100.508C76.7414 100.743 76.8587 101.108 76.8587 101.605V104.433H76.2249V101.605C76.2249 101.294 76.1417 101.071 75.9751 100.937C75.8086 100.803 75.6126 100.736 75.387 100.736C75.097 100.736 74.8723 100.826 74.7129 101.006C74.5536 101.184 74.4739 101.409 74.4739 101.682V104.433H73.8293V101.539C73.8293 101.299 73.7533 101.106 73.6011 100.959C73.4489 100.81 73.2528 100.736 73.0129 100.736C72.8482 100.736 72.6942 100.781 72.551 100.871C72.4096 100.961 72.295 101.086 72.2072 101.245C72.1213 101.403 72.0783 101.585 72.0783 101.792V104.433H71.4445Z" fill="#939A9A"/>
<path d="M79.2314 104.532C78.97 104.532 78.7328 104.482 78.5198 104.381C78.3067 104.278 78.1375 104.13 78.0122 103.938C77.8869 103.744 77.8242 103.509 77.8242 103.234C77.8242 102.992 77.8707 102.795 77.9638 102.645C78.0569 102.493 78.1814 102.374 78.3371 102.288C78.4929 102.201 78.6648 102.137 78.8528 102.095C79.0426 102.051 79.2332 102.016 79.4248 101.99C79.6755 101.957 79.8787 101.933 80.0344 101.916C80.192 101.898 80.3066 101.868 80.3782 101.825C80.4516 101.783 80.4883 101.71 80.4883 101.605V101.583C80.4883 101.312 80.4158 101.101 80.2708 100.951C80.1275 100.8 79.91 100.725 79.6182 100.725C79.3156 100.725 79.0784 100.793 78.9065 100.929C78.7346 101.064 78.6138 101.209 78.5439 101.363L77.9424 101.143C78.0498 100.887 78.193 100.687 78.372 100.544C78.5529 100.399 78.7498 100.298 78.9629 100.241C79.1777 100.182 79.389 100.153 79.5967 100.153C79.7292 100.153 79.8814 100.17 80.0532 100.203C80.2269 100.234 80.3943 100.299 80.5554 100.398C80.7184 100.497 80.8535 100.646 80.961 100.846C81.0684 101.046 81.1221 101.314 81.1221 101.649V104.433H80.4883V103.861H80.4561C80.4131 103.953 80.3415 104.051 80.2412 104.155C80.141 104.26 80.0076 104.349 79.8411 104.422C79.6746 104.495 79.4714 104.532 79.2314 104.532ZM79.3281 103.949C79.5788 103.949 79.7901 103.898 79.9619 103.798C80.1356 103.697 80.2663 103.567 80.354 103.407C80.4435 103.248 80.4883 103.08 80.4883 102.904V102.31C80.4614 102.343 80.4024 102.373 80.3111 102.4C80.2215 102.426 80.1177 102.449 79.9995 102.469C79.8831 102.487 79.7695 102.504 79.6585 102.519C79.5492 102.531 79.4606 102.542 79.3926 102.552C79.2279 102.574 79.0739 102.609 78.9307 102.659C78.7892 102.707 78.6746 102.779 78.5869 102.876C78.501 102.972 78.458 103.102 78.458 103.267C78.458 103.492 78.5395 103.663 78.7024 103.778C78.8671 103.892 79.0757 103.949 79.3281 103.949Z" fill="#939A9A"/>
<path d="M82.2789 104.433V100.208H82.9127V104.433H82.2789ZM82.6012 99.5039C82.4777 99.5039 82.3711 99.4608 82.2816 99.3747C82.1939 99.2885 82.15 99.1849 82.15 99.0638C82.15 98.9428 82.1939 98.8392 82.2816 98.753C82.3711 98.6668 82.4777 98.6237 82.6012 98.6237C82.7247 98.6237 82.8304 98.6668 82.9181 98.753C83.0076 98.8392 83.0524 98.9428 83.0524 99.0638C83.0524 99.1849 83.0076 99.2885 82.9181 99.3747C82.8304 99.4608 82.7247 99.5039 82.6012 99.5039Z" fill="#939A9A"/>
<path d="M84.7074 101.891V104.433H84.0736V100.208H84.6859V100.868H84.7396C84.8363 100.654 84.9831 100.481 85.1801 100.351C85.377 100.219 85.6312 100.153 85.9428 100.153C86.2221 100.153 86.4665 100.212 86.6759 100.329C86.8854 100.445 87.0483 100.621 87.1647 100.857C87.2811 101.092 87.3393 101.389 87.3393 101.748V104.433H86.7055V101.792C86.7055 101.461 86.6213 101.202 86.453 101.017C86.2847 100.83 86.0538 100.736 85.7601 100.736C85.5578 100.736 85.377 100.781 85.2177 100.871C85.0601 100.961 84.9357 101.092 84.8444 101.264C84.753 101.437 84.7074 101.646 84.7074 101.891Z" fill="#939A9A"/>
<path d="M91.2582 101.891V104.433H90.6244V98.7998H91.2582V100.868H91.312C91.4086 100.65 91.5536 100.477 91.747 100.348C91.9422 100.218 92.2018 100.153 92.5258 100.153C92.8069 100.153 93.0531 100.211 93.2644 100.326C93.4756 100.44 93.6395 100.615 93.7558 100.852C93.874 101.086 93.9331 101.385 93.9331 101.748V104.433H93.2993V101.792C93.2993 101.457 93.2142 101.197 93.0442 101.014C92.8759 100.829 92.6422 100.736 92.3432 100.736C92.1355 100.736 91.9493 100.781 91.7846 100.871C91.6217 100.961 91.4928 101.092 91.3979 101.264C91.3048 101.437 91.2582 101.646 91.2582 101.891Z" fill="#939A9A"/>
<path d="M96.8221 104.521C96.4247 104.521 96.0818 104.431 95.7935 104.251C95.5071 104.07 95.286 103.817 95.1302 103.492C94.9762 103.166 94.8992 102.786 94.8992 102.354C94.8992 101.921 94.9762 101.539 95.1302 101.209C95.286 100.877 95.5026 100.619 95.7801 100.434C96.0594 100.247 96.3853 100.153 96.7577 100.153C96.9725 100.153 97.1847 100.19 97.3942 100.263C97.6036 100.336 97.7943 100.456 97.9662 100.621C98.1381 100.784 98.275 101 98.3771 101.27C98.4791 101.539 98.5302 101.871 98.5302 102.266V102.541H95.3504V101.979H97.8856C97.8856 101.741 97.8391 101.528 97.746 101.341C97.6547 101.154 97.524 101.007 97.3539 100.898C97.1856 100.79 96.9868 100.736 96.7577 100.736C96.5052 100.736 96.2868 100.8 96.1024 100.929C95.9198 101.055 95.7792 101.22 95.6807 101.424C95.5823 101.627 95.533 101.846 95.533 102.079V102.453C95.533 102.772 95.5868 103.042 95.6942 103.264C95.8034 103.484 95.9547 103.652 96.148 103.767C96.3414 103.881 96.5661 103.938 96.8221 103.938C96.9886 103.938 97.139 103.914 97.2733 103.866C97.4094 103.817 97.5266 103.744 97.6251 103.646C97.7236 103.547 97.7997 103.424 97.8534 103.278L98.4657 103.454C98.4013 103.667 98.2929 103.854 98.1408 104.015C97.9886 104.174 97.8006 104.299 97.5768 104.389C97.353 104.477 97.1014 104.521 96.8221 104.521Z" fill="#939A9A"/>
<path d="M100.708 104.532C100.447 104.532 100.21 104.482 99.9965 104.381C99.7835 104.278 99.6143 104.13 99.4889 103.938C99.3636 103.744 99.3009 103.509 99.3009 103.234C99.3009 102.992 99.3475 102.795 99.4406 102.645C99.5337 102.493 99.6581 102.374 99.8139 102.288C99.9697 102.201 100.142 102.137 100.33 102.095C100.519 102.051 100.71 102.016 100.902 101.99C101.152 101.957 101.355 101.933 101.511 101.916C101.669 101.898 101.783 101.868 101.855 101.825C101.928 101.783 101.965 101.71 101.965 101.605V101.583C101.965 101.312 101.893 101.101 101.748 100.951C101.604 100.8 101.387 100.725 101.095 100.725C100.792 100.725 100.555 100.793 100.383 100.929C100.211 101.064 100.091 101.209 100.021 101.363L99.4191 101.143C99.5265 100.887 99.6698 100.687 99.8488 100.544C100.03 100.399 100.227 100.298 100.44 100.241C100.654 100.182 100.866 100.153 101.073 100.153C101.206 100.153 101.358 100.17 101.53 100.203C101.704 100.234 101.871 100.299 102.032 100.398C102.195 100.497 102.33 100.646 102.438 100.846C102.545 101.046 102.599 101.314 102.599 101.649V104.433H101.965V103.861H101.933C101.89 103.953 101.818 104.051 101.718 104.155C101.618 104.26 101.484 104.349 101.318 104.422C101.151 104.495 100.948 104.532 100.708 104.532ZM100.805 103.949C101.056 103.949 101.267 103.898 101.439 103.798C101.612 103.697 101.743 103.567 101.831 103.407C101.92 103.248 101.965 103.08 101.965 102.904V102.31C101.938 102.343 101.879 102.373 101.788 102.4C101.698 102.426 101.594 102.449 101.476 102.469C101.36 102.487 101.246 102.504 101.135 102.519C101.026 102.531 100.937 102.542 100.869 102.552C100.705 102.574 100.551 102.609 100.407 102.659C100.266 102.707 100.151 102.779 100.064 102.876C99.9777 102.972 99.9347 103.102 99.9347 103.267C99.9347 103.492 100.016 103.663 100.179 103.778C100.344 103.892 100.552 103.949 100.805 103.949Z" fill="#939A9A"/>
<path d="M104.389 98.7998V104.433H103.756V98.7998H104.389Z" fill="#939A9A"/>
<path d="M107.344 100.208V100.758H105.207V100.208H107.344ZM105.83 99.1959H106.463V103.223C106.463 103.406 106.489 103.544 106.541 103.635C106.595 103.725 106.663 103.786 106.745 103.817C106.83 103.846 106.918 103.861 107.011 103.861C107.081 103.861 107.138 103.857 107.183 103.85C107.228 103.841 107.264 103.833 107.291 103.828L107.42 104.411C107.377 104.428 107.317 104.444 107.24 104.461C107.163 104.479 107.065 104.488 106.947 104.488C106.768 104.488 106.592 104.449 106.42 104.37C106.25 104.291 106.109 104.171 105.996 104.009C105.885 103.848 105.83 103.645 105.83 103.399V99.1959Z" fill="#939A9A"/>
<path d="M109.02 101.891V104.433H108.386V98.7998H109.02V100.868H109.074C109.171 100.65 109.316 100.477 109.509 100.348C109.704 100.218 109.964 100.153 110.288 100.153C110.569 100.153 110.815 100.211 111.026 100.326C111.238 100.44 111.401 100.615 111.518 100.852C111.636 101.086 111.695 101.385 111.695 101.748V104.433H111.061V101.792C111.061 101.457 110.976 101.197 110.806 101.014C110.638 100.829 110.404 100.736 110.105 100.736C109.897 100.736 109.711 100.781 109.547 100.871C109.384 100.961 109.255 101.092 109.16 101.264C109.067 101.437 109.02 101.646 109.02 101.891Z" fill="#939A9A"/>
<path d="M113.115 106.017C113.008 106.017 112.912 106.008 112.828 105.99C112.743 105.973 112.685 105.957 112.653 105.94L112.814 105.368C112.968 105.409 113.104 105.423 113.222 105.412C113.341 105.401 113.445 105.347 113.537 105.25C113.63 105.155 113.715 105 113.792 104.785L113.91 104.455L112.385 100.208H113.072L114.211 103.575H114.254L115.392 100.208H116.08L114.329 105.049C114.25 105.267 114.153 105.448 114.036 105.591C113.92 105.736 113.785 105.843 113.631 105.913C113.478 105.983 113.307 106.017 113.115 106.017Z" fill="#939A9A"/>
</svg>
