<svg width="109" height="107" viewBox="0 0 109 107" fill="none" xmlns="http://www.w3.org/2000/svg">
<path d="M9.81427 75.1557H13.3427V91.4634H9.81427V85.0487H3.52839V91.4634H0V75.1557H3.52839V81.968H9.81427V75.1557Z" fill="#768589"/>
<path d="M27.1328 89.5193C25.7995 90.7827 24.0054 91.4805 22.1439 91.4597C20.4051 91.5168 18.7133 90.9052 17.4351 89.7576C16.1864 88.6229 15.5635 87.0896 15.5664 85.1577C15.5693 83.2258 16.1922 81.6954 17.4351 80.5663C18.6498 79.4514 20.2636 78.8409 21.9338 78.8642C23.5505 78.8228 25.1249 79.369 26.3495 80.3961C26.9547 80.9166 27.4318 81.5628 27.7455 82.2868C28.0591 83.0109 28.2012 83.7943 28.1612 84.579V86.396H19.0018C19.055 86.7223 19.1764 87.0344 19.3586 87.3133C19.5407 87.5921 19.7797 87.8317 20.0608 88.0172C20.6579 88.4397 21.3793 88.6635 22.1176 88.6555C22.6823 88.672 23.2442 88.5733 23.7672 88.3659C24.2903 88.1585 24.7629 87.847 25.1547 87.4513L27.1328 89.5193ZM23.7675 82.2854C23.2753 81.8919 22.654 81.6834 22.017 81.6982C21.3309 81.6963 20.6628 81.9114 20.1133 82.3109C19.8344 82.5023 19.6008 82.7493 19.428 83.0355C19.2551 83.3217 19.1471 83.6405 19.1112 83.9705H24.6121C24.5956 83.6463 24.5124 83.3285 24.3673 83.0362C24.2222 82.7438 24.0182 82.4827 23.7675 82.2684V82.2854Z" fill="#768589"/>
<path d="M40.0281 91.2779H36.8034V89.8007C36.4279 90.3157 35.9347 90.7348 35.3644 91.0235C34.7941 91.3121 34.1631 91.462 33.5231 91.4609C32.328 91.499 31.1605 91.099 30.2428 90.337C29.8103 89.9716 29.4663 89.5139 29.2364 88.9979C29.0066 88.482 28.8968 87.9211 28.9153 87.3571C28.8813 86.8112 28.9896 86.2658 29.2297 85.7736C29.4697 85.2814 29.8334 84.8591 30.2856 84.5475C31.2021 83.9259 32.4525 83.6152 34.037 83.6152H36.6064V83.547C36.6064 82.2444 35.9127 81.5931 34.5252 81.5931C33.88 81.6029 33.2413 81.7224 32.6367 81.9464C32.0348 82.1505 31.4684 82.4463 30.958 82.8234L29.4249 80.6182C31.0302 79.4554 32.9716 78.8415 34.9577 78.8685C36.2642 78.8063 37.5529 79.1893 38.6106 79.9541C39.5527 80.6991 40.0281 81.874 40.0281 83.4789V91.2779ZM36.5679 86.6206V86.0289H34.4267C33.0521 86.0289 32.3669 86.4546 32.3669 87.306C32.3567 87.5018 32.3965 87.697 32.4826 87.8734C32.5687 88.0498 32.6983 88.2017 32.8593 88.3149C33.2783 88.5771 33.77 88.7007 34.264 88.6683C34.8515 88.6777 35.4234 88.4802 35.8784 88.1106C36.1033 87.9338 36.2829 87.7067 36.4027 87.4477C36.5226 87.1888 36.5791 86.9054 36.5679 86.6206Z" fill="#768589"/>
<path d="M45.958 91.4634H42.2517V74.4145H45.958V91.4634Z" fill="#768589"/>
<path d="M52.2699 81.355V86.9111C52.2456 87.3169 52.3739 87.717 52.6284 88.0292C52.733 88.1537 52.8623 88.254 53.0078 88.3232C53.1533 88.3925 53.3115 88.4291 53.472 88.4307C53.7867 88.4292 54.0964 88.35 54.3747 88.1996C54.653 88.0493 54.8917 87.8324 55.0705 87.5673L56.3358 89.9848C55.4543 90.8956 54.2642 91.4243 53.0122 91.4612C52.4509 91.4798 51.892 91.3781 51.3713 91.1627C50.8506 90.9474 50.3797 90.623 49.9885 90.2105C49.5974 89.798 49.2948 89.3064 49.1001 88.7672C48.9054 88.228 48.8229 87.6531 48.8578 87.0794V81.355H47.4407V78.8684H48.8578V75.1557H52.2615V78.8684H55.1886V81.355H52.2699Z" fill="#768589"/>
<path d="M60.3893 84.7988V91.4634H57.0769V74.4145H60.3893V80.4849C60.8159 79.9937 61.3354 79.5994 61.9154 79.3268C62.4954 79.0542 63.1233 78.9091 63.7597 78.9006C64.3484 78.8881 64.933 79.0043 65.4758 79.2417C66.0186 79.479 66.5074 79.8321 66.9106 80.2783C67.3472 80.7726 67.6852 81.3521 67.9048 81.9833C68.1244 82.6144 68.2214 83.2846 68.19 83.955V91.4634H64.8776V84.7041C64.8776 82.8069 64.2069 81.8569 62.8653 81.854C62.5426 81.8512 62.2226 81.9161 61.9245 82.0449C61.6265 82.1736 61.3564 82.3634 61.1305 82.6031C60.8683 82.8964 60.6672 83.2428 60.5397 83.6206C60.4121 83.9984 60.3609 84.3995 60.3893 84.7988Z" fill="#768589"/>
<path d="M71.1609 91.4634V75.1557H74.9819V88.2211H82.2798V91.4634H71.1609Z" fill="#768589"/>
<path d="M83.6898 77.2611C83.3212 76.9218 83.0893 76.4726 83.0339 75.9903C82.9785 75.508 83.1029 75.0225 83.3859 74.617C83.669 74.2115 84.093 73.9111 84.5855 73.7673C85.0779 73.6234 85.6082 73.6451 86.0856 73.8285C86.5629 74.0119 86.9577 74.3457 87.2023 74.7728C87.447 75.1998 87.5263 75.6936 87.4266 76.1696C87.327 76.6456 87.0547 77.0742 86.6562 77.3821C86.2577 77.6901 85.7579 77.8581 85.2423 77.8576C84.954 77.8629 84.6675 77.8127 84.4006 77.7101C84.1336 77.6076 83.8917 77.4547 83.6898 77.2611ZM87.1117 91.4634H83.3821V78.8664H87.1117V91.4634Z" fill="#768589"/>
<path d="M93.0413 78.0949V78.9397H95.995V81.4788H93.0413V91.4634H89.6402V81.4788H88.2097V78.9397H89.6275V78.1653C89.5928 77.5739 89.6775 76.9815 89.8761 76.4264C90.0747 75.8713 90.3829 75.3659 90.7806 74.9429C91.1783 74.5198 91.6568 74.1885 92.1851 73.9704C92.7133 73.7523 93.2796 73.6523 93.8472 73.6768C95.0679 73.6883 96.2362 74.1949 97.1048 75.0894L95.8853 77.4612C95.6906 77.1966 95.442 76.9804 95.1574 76.8282C94.8728 76.676 94.5593 76.5916 94.2396 76.5811C94.0804 76.5776 93.9224 76.6105 93.7766 76.6774C93.6308 76.7443 93.5008 76.8436 93.3957 76.9683C93.1464 77.2843 93.0199 77.6863 93.0413 78.0949Z" fill="#768589"/>
<path d="M107.99 89.506C106.739 90.7739 105.054 91.4764 103.304 91.459C101.663 91.5217 100.066 90.9098 98.8602 89.757C97.69 88.6223 97.105 87.0891 97.105 85.1573C97.105 83.2256 97.701 81.6952 98.893 80.5662C100.034 79.451 101.55 78.8404 103.119 78.8642C104.631 78.8233 106.105 79.3645 107.254 80.3832C107.821 80.9019 108.269 81.5458 108.565 82.2675C108.86 82.9892 108.995 83.7702 108.96 84.5531V86.37H100.352C100.403 86.6994 100.518 87.0145 100.691 87.2956C100.865 87.5768 101.092 87.8179 101.359 88.0039C101.92 88.4258 102.598 88.6496 103.291 88.6422C103.822 88.6594 104.35 88.5611 104.841 88.3537C105.333 88.1463 105.776 87.8343 106.144 87.438L107.99 89.506ZM104.829 82.2724C104.366 81.8792 103.783 81.6709 103.184 81.6852C102.54 81.6828 101.912 81.8979 101.396 82.298C101.135 82.4899 100.915 82.7369 100.752 83.0229C100.589 83.309 100.486 83.6274 100.451 83.9574H105.63C105.616 83.6343 105.539 83.3174 105.405 83.0252C105.271 82.7329 105.082 82.4713 104.849 82.2554L104.829 82.2724Z" fill="#768589"/>
<path d="M19.1372 104.692C19.0718 105.008 18.9467 105.303 18.7708 105.557C18.5876 105.801 18.353 105.987 18.0894 106.098C17.7608 106.234 17.4129 106.298 17.0636 106.287C16.8167 106.288 16.5707 106.254 16.3309 106.187C16.1036 106.125 15.887 106.02 15.6898 105.876C15.5 105.737 15.3378 105.554 15.2136 105.339C15.0839 105.106 15.0094 104.838 14.9974 104.562H15.6092C15.632 104.746 15.6915 104.921 15.783 105.074C15.8745 105.226 15.9956 105.353 16.1368 105.444C16.2731 105.535 16.4216 105.6 16.5764 105.637C16.7374 105.679 16.9021 105.7 17.0673 105.7C17.2948 105.723 17.524 105.685 17.7364 105.589C17.9489 105.493 18.1388 105.341 18.2909 105.146C18.565 104.677 18.694 104.117 18.6573 103.555V102.778C18.5215 103.118 18.3059 103.409 18.0345 103.618C17.7511 103.836 17.4159 103.948 17.0746 103.941C16.7235 103.952 16.3746 103.874 16.0525 103.714C15.7792 103.572 15.5393 103.358 15.3528 103.089C15.164 102.811 15.0269 102.493 14.9498 102.153C14.8663 101.779 14.8244 101.396 14.8252 101.011C14.8239 100.633 14.8746 100.258 14.9754 99.8983C15.0681 99.5636 15.2147 99.2517 15.4077 98.979C15.6007 98.7159 15.8422 98.5052 16.1148 98.3619C16.416 98.2055 16.7439 98.128 17.0746 98.1352C17.2522 98.1335 17.4289 98.1632 17.5985 98.2233C17.7585 98.2801 17.9103 98.3636 18.0491 98.471C18.1846 98.5756 18.3077 98.6998 18.4155 98.8404C18.5164 98.9738 18.5991 99.1238 18.6609 99.2854V98.2989H19.2727V103.542C19.2728 103.931 19.2272 104.318 19.1372 104.692ZM17.7451 103.173C17.9414 103.045 18.1124 102.872 18.247 102.665C18.3836 102.444 18.4865 102.199 18.551 101.938C18.6172 101.665 18.6505 101.383 18.6499 101.099C18.6491 100.816 18.6208 100.535 18.5657 100.259C18.5097 99.9883 18.4144 99.73 18.2836 99.4953C18.1566 99.2694 17.9862 99.0799 17.7854 98.9412C17.5624 98.796 17.309 98.7234 17.0526 98.7313C16.7969 98.7254 16.5443 98.7963 16.3199 98.937C16.1169 99.0712 15.9419 99.2546 15.807 99.4743C15.6709 99.7042 15.5716 99.9601 15.514 100.23C15.4524 100.514 15.4217 100.806 15.4224 101.099C15.4224 101.382 15.4545 101.664 15.5176 101.938C15.5778 102.2 15.6797 102.446 15.818 102.665C15.954 102.875 16.1292 103.049 16.3309 103.173C16.5568 103.307 16.809 103.374 17.0636 103.366C17.3024 103.365 17.5371 103.295 17.7451 103.16V103.173Z" fill="#8C9799"/>
<path d="M21.4272 98.2012V99.5897H21.4492C21.6147 99.1406 21.9225 98.7551 22.3277 98.4892C22.7403 98.227 23.2296 98.1046 23.7202 98.141V98.8546C23.414 98.8338 23.1069 98.8778 22.8197 98.9836C22.5586 99.0799 22.3197 99.226 22.1168 99.4135C21.9257 99.6074 21.7763 99.8369 21.6776 100.088C21.568 100.362 21.5129 100.654 21.5151 100.948V104.065H20.7551V98.2184L21.4272 98.2012Z" fill="#8C9799"/>
<path d="M24.6654 102.054C24.7471 102.311 24.8849 102.553 25.0719 102.768C25.2521 102.98 25.4842 103.157 25.7526 103.288C26.0507 103.43 26.3894 103.502 26.732 103.494C27.2389 103.519 27.7381 103.381 28.1277 103.106C28.4741 102.822 28.7156 102.459 28.8231 102.062H29.6361C29.5114 102.626 29.179 103.143 28.686 103.54C28.1331 103.913 27.4343 104.099 26.7271 104.06C26.2586 104.069 25.7935 103.99 25.3657 103.829C24.9966 103.681 24.6755 103.46 24.4304 103.185C24.1821 102.901 24.0009 102.58 23.8966 102.239C23.7774 101.869 23.7181 101.488 23.7203 101.104C23.7198 100.736 23.7791 100.369 23.8966 100.015C24.0042 99.6734 24.1851 99.3516 24.4304 99.0653C24.678 98.7813 25.0019 98.5508 25.3755 98.3925C25.797 98.213 26.2649 98.1251 26.7369 98.1366C27.1868 98.1209 27.634 98.203 28.0353 98.3751C28.4367 98.5471 28.7788 98.8033 29.0288 99.119C29.2648 99.4277 29.4308 99.7706 29.5185 100.13C29.6222 100.51 29.665 100.9 29.6458 101.29H24.543C24.5468 101.548 24.5879 101.804 24.6654 102.054ZM28.6909 99.961C28.5967 99.7305 28.4559 99.5154 28.2746 99.3254C28.0934 99.1397 27.8683 98.9878 27.6135 98.8796C27.3417 98.7647 27.041 98.7067 26.7369 98.7104C26.4282 98.7068 26.1228 98.7648 25.8456 98.8796C25.5932 98.989 25.3699 99.1407 25.1894 99.3254C25.0042 99.5183 24.8586 99.7359 24.7585 99.9693C24.6506 100.208 24.5782 100.458 24.543 100.712H28.8525C28.8438 100.456 28.7893 100.203 28.6909 99.961Z" fill="#8C9799"/>
<path d="M31.2151 102.053C31.2839 102.31 31.4017 102.552 31.5624 102.768C31.7164 102.977 31.9134 103.154 32.1414 103.288C32.4026 103.43 32.6991 103.501 32.9991 103.494C33.443 103.519 33.8801 103.381 34.2213 103.106C34.5271 102.824 34.739 102.46 34.8303 102.062H35.5722C35.4631 102.626 35.172 103.143 34.7403 103.54C34.2561 103.913 33.6441 104.099 33.0248 104.06C32.6145 104.069 32.2072 103.99 31.8326 103.829C31.5093 103.681 31.2282 103.46 31.0135 103.185C30.7978 102.9 30.6393 102.58 30.546 102.239C30.4417 101.869 30.3898 101.487 30.3917 101.104C30.3912 100.736 30.4432 100.369 30.546 100.014C30.6419 99.6733 30.8002 99.3518 31.0135 99.0646C31.2291 98.7811 31.5113 98.5505 31.8369 98.3917C32.206 98.2121 32.6158 98.1242 33.0291 98.1357C33.4453 98.1246 33.8574 98.217 34.2256 98.4041C34.5503 98.5776 34.8279 98.8223 35.0362 99.1183C35.2428 99.427 35.3882 99.7699 35.465 100.13C35.5558 100.51 35.5933 100.9 35.5765 101.29H31.1078C31.1111 101.548 31.1471 101.804 31.2151 102.053ZM34.7403 99.9604C34.6595 99.7291 34.536 99.5137 34.3757 99.3247C34.217 99.1389 34.0199 98.9871 33.7968 98.8788C33.5589 98.7635 33.2955 98.7054 33.0291 98.7096C32.7587 98.706 32.4913 98.764 32.2486 98.8788C32.0275 98.9882 31.832 99.14 31.6739 99.3247C31.5118 99.5176 31.3842 99.7353 31.2965 99.9687C31.2021 100.208 31.1387 100.457 31.1078 100.712H34.8818C34.8762 100.456 34.8285 100.202 34.7403 99.9604Z" fill="#8C9799"/>
<path d="M36.9859 98.3056V99.3029H37.0181C37.147 98.9482 37.3851 98.6493 37.6942 98.4541C38.0157 98.2441 38.3867 98.1338 38.7648 98.1358C39.0915 98.1264 39.4172 98.1781 39.7268 98.2886C39.9629 98.3751 40.1756 98.5208 40.3466 98.713C40.509 98.913 40.6223 99.1521 40.6766 99.409C40.7407 99.7142 40.7717 100.026 40.7692 100.339V104.052H40.093V100.449C40.0944 100.218 40.0742 99.9878 40.0326 99.7613C39.9951 99.5628 39.9183 99.3748 39.8073 99.2096C39.6978 99.0496 39.5508 98.9223 39.3806 98.8403C39.1672 98.7442 38.9365 98.6979 38.7045 98.7045C38.4579 98.6996 38.2134 98.7518 37.988 98.8573C37.7863 98.9587 37.6067 99.1032 37.4608 99.2817C37.312 99.4678 37.1961 99.6805 37.1187 99.9099C37.0361 100.164 36.9913 100.43 36.9859 100.699V104.065H36.3218V98.2929L36.9859 98.3056Z" fill="#8C9799"/>
<path d="M49.5365 104.692C49.4698 105.007 49.3453 105.302 49.1713 105.557C48.9873 105.799 48.754 105.985 48.4922 106.098C48.1633 106.234 47.8154 106.298 47.4661 106.287C47.2201 106.288 46.9749 106.254 46.7359 106.187C46.5096 106.124 46.2937 106.019 46.0969 105.876C45.9081 105.738 45.7474 105.555 45.6259 105.339C45.4966 105.106 45.4224 104.838 45.4104 104.562H46.0166C46.0394 104.745 46.0984 104.92 46.1888 105.072C46.2793 105.225 46.399 105.352 46.5387 105.444C46.6746 105.535 46.8226 105.6 46.9769 105.637C47.1374 105.679 47.3015 105.7 47.4661 105.7C47.6935 105.724 47.9226 105.686 48.135 105.59C48.3475 105.494 48.5373 105.341 48.6893 105.146C48.9625 104.677 49.0911 104.117 49.0545 103.555V102.778H49.0326C48.8985 103.118 48.6849 103.409 48.4155 103.618C48.1319 103.836 47.7966 103.949 47.4552 103.941C47.1053 103.951 46.7576 103.874 46.4365 103.714C46.1646 103.571 45.9257 103.357 45.7391 103.089C45.5521 102.811 45.4166 102.493 45.3411 102.152C45.256 101.78 45.2143 101.396 45.2169 101.011C45.2144 100.633 45.2637 100.258 45.363 99.8982C45.4566 99.5633 45.604 99.2515 45.7975 98.9789C45.9893 98.717 46.2285 98.5064 46.4985 98.3618C46.7989 98.2058 47.1256 98.1284 47.4552 98.1351C47.6333 98.1338 47.8106 98.1635 47.981 98.2233C48.1396 98.2792 48.2898 98.3627 48.4264 98.471C48.5614 98.5756 48.6841 98.6998 48.7916 98.8404C48.8934 98.9727 48.976 99.1229 49.0362 99.2854H49.0581V98.2989H49.6643V103.542C49.6667 103.93 49.6237 104.317 49.5365 104.692ZM48.1453 103.173C48.3417 103.046 48.5123 102.873 48.6455 102.665C48.7846 102.446 48.8873 102.2 48.9486 101.938C49.0175 101.666 49.052 101.383 49.0508 101.099C49.0505 100.816 49.0211 100.534 48.9632 100.259C48.9087 99.9885 48.8149 99.7302 48.6857 99.4952C48.5572 99.2712 48.3878 99.0821 48.1891 98.9411C47.9666 98.7967 47.7143 98.7242 47.4588 98.7312C47.204 98.7254 46.9522 98.7963 46.7286 98.9369C46.5255 99.0701 46.3509 99.2536 46.2174 99.4743C46.0787 99.7022 45.9795 99.9588 45.9253 100.23C45.8639 100.514 45.8333 100.806 45.834 101.099C45.8323 101.382 45.8642 101.665 45.9289 101.938C45.9871 102.2 46.0888 102.447 46.2283 102.665C46.3633 102.874 46.5366 103.048 46.7359 103.173C46.961 103.307 47.2124 103.374 47.4661 103.366C47.7042 103.366 47.9382 103.295 48.1453 103.16V103.173Z" fill="#8C9799"/>
<path d="M51.984 102.054C52.0529 102.31 52.1708 102.552 52.3316 102.768C52.4907 102.979 52.6939 103.156 52.9283 103.288C53.1897 103.43 53.4864 103.501 53.7867 103.494C54.2309 103.519 54.6684 103.381 55.0099 103.106C55.3159 102.824 55.528 102.46 55.6194 102.062H56.3319C56.2227 102.626 55.9313 103.143 55.4992 103.54C55.0146 103.913 54.4021 104.099 53.7824 104.06C53.3717 104.069 52.9641 103.99 52.5892 103.829C52.2656 103.681 51.9843 103.46 51.7694 103.185C51.5535 102.9 51.3949 102.58 51.3015 102.239C51.1971 101.869 51.1451 101.488 51.147 101.104C51.1466 100.736 51.1986 100.369 51.3015 100.015C51.3975 99.674 51.5559 99.3525 51.7694 99.0653C51.984 98.7823 52.2648 98.5519 52.5892 98.3925C52.9585 98.213 53.3687 98.1251 53.7824 98.1366C54.1767 98.1209 54.5686 98.203 54.9204 98.3751C55.2722 98.5471 55.572 98.8033 55.7911 99.119C55.9979 99.4277 56.1434 99.7706 56.2203 100.13C56.3111 100.51 56.3487 100.9 56.3319 101.29H51.8767C51.88 101.548 51.916 101.804 51.984 102.054ZM55.5121 99.961C55.4313 99.7297 55.3077 99.5144 55.1473 99.3254C54.9885 99.1397 54.7911 98.9878 54.5678 98.8796C54.3297 98.7643 54.0661 98.7062 53.7995 98.7104C53.5289 98.7068 53.2613 98.7648 53.0184 98.8796C52.7971 98.989 52.6014 99.1407 52.4432 99.3254C52.2809 99.5183 52.1533 99.7359 52.0655 99.9693C51.971 100.208 51.9075 100.458 51.8767 100.712H55.6537C55.6461 100.456 55.5984 100.203 55.5121 99.961Z" fill="#8C9799"/>
<path d="M57.7456 98.3056V99.3029H57.7698C57.8964 98.9466 58.1353 98.647 58.4466 98.4541C58.7683 98.2441 59.1397 98.1338 59.5181 98.1358C59.8451 98.1264 60.1711 98.1781 60.4809 98.2886C60.7173 98.3751 60.9302 98.5208 61.1013 98.713C61.2624 98.9141 61.3756 99.1527 61.4317 99.409C61.4958 99.7142 61.5268 100.026 61.5243 100.339V104.052H60.8556V100.449C60.8577 100.218 60.8361 99.9874 60.7911 99.7613C60.7548 99.5631 60.6794 99.3751 60.5696 99.2096C60.4595 99.0484 60.3107 98.921 60.1385 98.8403C59.9266 98.7432 59.6968 98.6968 59.4658 98.7045C59.219 98.6996 58.9743 98.7518 58.7487 98.8573C58.5467 98.9587 58.367 99.1032 58.221 99.2817C58.072 99.4678 57.956 99.6805 57.8786 99.9099C57.7959 100.164 57.751 100.43 57.7456 100.699V104.065H57.0769V98.2929L57.7456 98.3056Z" fill="#8C9799"/>
<path d="M63.0999 102.054C63.1686 102.31 63.2861 102.552 63.4464 102.768C63.6038 102.98 63.8066 103.157 64.041 103.288C64.3015 103.43 64.5973 103.502 64.8966 103.494C65.3394 103.519 65.7755 103.381 66.1158 103.106C66.4184 102.822 66.6294 102.459 66.7233 102.062H67.4335C67.3246 102.626 67.0342 103.143 66.6035 103.54C66.1205 103.913 65.5101 104.099 64.8923 104.06C64.483 104.069 64.0768 103.99 63.7031 103.829C63.3806 103.681 63.1001 103.46 62.886 103.185C62.6691 102.901 62.5108 102.58 62.4197 102.239C62.3156 101.869 62.2638 101.488 62.2657 101.104C62.2652 100.736 62.3171 100.369 62.4197 100.015C62.5137 99.6734 62.6717 99.3516 62.886 99.0653C63.1047 98.7803 63.3907 98.5497 63.7202 98.3925C64.0883 98.213 64.4971 98.1251 64.9095 98.1366C65.3025 98.1209 65.6931 98.203 66.0437 98.3751C66.3943 98.5471 66.6932 98.8033 66.9115 99.119C67.1177 99.4277 67.2627 99.7706 67.3393 100.13C67.4299 100.51 67.4673 100.9 67.4506 101.29H62.9929C62.9962 101.548 63.0321 101.804 63.0999 102.054ZM66.6164 99.961C66.5341 99.7305 66.411 99.5154 66.2527 99.3254C66.0944 99.1397 65.8977 98.9878 65.6752 98.8796C65.4377 98.7647 65.1751 98.7067 64.9095 98.7104C64.6397 98.7068 64.3729 98.7648 64.1309 98.8796C63.9103 98.989 63.7153 99.1407 63.5576 99.3254C63.3959 99.5183 63.2686 99.7359 63.1812 99.9693C63.0869 100.208 63.0237 100.458 62.9929 100.712H66.7575C66.7499 100.456 66.7023 100.203 66.6164 99.961Z" fill="#8C9799"/>
<path d="M69.4471 98.2021V99.5904C69.5669 99.1374 69.8005 98.749 70.1109 98.4866C70.4214 98.2242 70.7908 98.1029 71.1608 98.1419V98.8554C70.9273 98.8346 70.6931 98.8786 70.474 98.9843C70.2772 99.0817 70.0972 99.2277 69.9439 99.4141C69.7978 99.607 69.6843 99.8368 69.6105 100.089C69.5257 100.362 69.4838 100.654 69.4871 100.949V104.065H68.937V98.2192L69.4471 98.2021Z" fill="#8C9799"/>
<path d="M72.3335 99.1703C72.4408 98.938 72.6037 98.736 72.8076 98.5823C73.0155 98.4245 73.2522 98.3092 73.5043 98.2428C73.7949 98.1668 74.0945 98.1306 74.3948 98.1351C74.6438 98.1339 74.8924 98.1575 75.1368 98.2055C75.3721 98.2487 75.5964 98.3388 75.7964 98.4705C75.9999 98.6102 76.1645 98.7997 76.2746 99.0212C76.4093 99.3096 76.4729 99.6263 76.4602 99.9445V102.946C76.4602 103.224 76.5921 103.361 76.8724 103.361C76.9476 103.361 77.0221 103.346 77.0909 103.315V103.895L76.8807 103.928C76.8024 103.933 76.7239 103.933 76.6457 103.928C76.5045 103.933 76.3639 103.908 76.2334 103.853C76.133 103.813 76.0469 103.744 75.9861 103.655C75.9259 103.561 75.8879 103.455 75.8748 103.344C75.8531 103.207 75.8435 103.069 75.8459 102.93H75.8212C75.7065 103.101 75.5812 103.264 75.446 103.418C75.326 103.555 75.1871 103.673 75.0338 103.77C74.8688 103.871 74.6894 103.945 74.5019 103.99C74.2694 104.043 74.0313 104.068 73.7929 104.064C73.5453 104.067 73.2985 104.036 73.059 103.973C72.8423 103.916 72.6391 103.816 72.4613 103.679C72.2867 103.542 72.1457 103.366 72.049 103.166C71.9483 102.934 71.8991 102.682 71.9047 102.429C71.885 102.102 71.9766 101.778 72.1645 101.51C72.3454 101.282 72.5828 101.106 72.8529 101C73.1642 100.878 73.4897 100.796 73.8217 100.756C74.1804 100.706 74.5432 100.661 74.9142 100.619C75.0585 100.619 75.1822 100.586 75.2935 100.566C75.391 100.546 75.4835 100.506 75.5656 100.45C75.6401 100.391 75.6983 100.314 75.7346 100.226C75.7761 100.108 75.7956 99.9829 75.7923 99.8576C75.8002 99.6592 75.7606 99.4619 75.6769 99.282C75.6057 99.1387 75.4975 99.0171 75.3636 98.9301C75.2215 98.8395 75.0633 98.7777 74.8977 98.7479C74.7086 98.7137 74.5168 98.6971 74.3247 98.6982C73.9458 98.682 73.5722 98.7911 73.261 99.0088C73.1162 99.1295 73.0017 99.2827 72.9265 99.456C72.8513 99.6293 72.8176 99.8179 72.8282 100.007H72.1109C72.1308 99.7161 72.2064 99.4321 72.3335 99.1703ZM75.7552 100.851C75.6966 100.939 75.6066 101.002 75.5037 101.025C75.3973 101.059 75.2884 101.084 75.178 101.1C74.8895 101.149 74.5885 101.199 74.2834 101.236C74.0037 101.272 73.7278 101.333 73.4589 101.419C73.2276 101.486 73.0137 101.603 72.8323 101.762C72.749 101.845 72.6841 101.945 72.6422 102.055C72.6003 102.165 72.5821 102.282 72.5891 102.4C72.5856 102.561 72.621 102.72 72.6921 102.864C72.7624 102.999 72.8587 103.12 72.9754 103.218C73.0922 103.316 73.2271 103.39 73.3724 103.435C73.5226 103.485 73.6799 103.51 73.8382 103.51C74.0932 103.512 74.3468 103.471 74.5885 103.39C74.817 103.316 75.0287 103.198 75.211 103.042C75.3837 102.886 75.5238 102.697 75.6233 102.487C75.7296 102.255 75.7831 102.001 75.7799 101.746V100.851H75.7552Z" fill="#8C9799"/>
<path d="M80.0559 98.3594V98.9409H78.848V102.75C78.8396 102.931 78.8739 103.111 78.9483 103.277C79.0137 103.406 79.1751 103.477 79.4367 103.493C79.6435 103.493 79.8502 103.481 80.0559 103.46V104.037C79.9468 104.037 79.8422 104.037 79.7332 104.037C79.6242 104.037 79.5195 104.037 79.4105 104.037C79.2311 104.078 79.0437 104.073 78.8665 104.025C78.6893 103.976 78.5283 103.885 78.399 103.759C78.2697 103.634 78.1765 103.479 78.1284 103.31C78.0802 103.14 78.0788 102.962 78.1242 102.791V98.9284H77.0908V98.3469H78.1242V96.6522H78.848V98.3469L80.0559 98.3594Z" fill="#8C9799"/>
<path d="M82.2796 95.9109V97.064H80.7971V95.9109H82.2796ZM82.2796 98.1694V104.065H80.7971V98.1694H82.2796Z" fill="#8C9799"/>
<path d="M87.4708 98.3745C87.7824 98.5261 88.0583 98.7446 88.2797 99.0151C88.506 99.2922 88.6765 99.6125 88.7811 99.9573C89.0076 100.706 89.0076 101.507 88.7811 102.255C88.6765 102.6 88.506 102.92 88.2797 103.197C88.0581 103.466 87.7822 103.683 87.4708 103.834C87.1183 103.986 86.7394 104.065 86.3566 104.065C85.9738 104.065 85.5949 103.986 85.2424 103.834C84.9304 103.685 84.6543 103.467 84.4336 103.197C84.2072 102.92 84.0368 102.6 83.9321 102.255C83.7056 101.507 83.7056 100.706 83.9321 99.9573C84.0368 99.6125 84.2072 99.2922 84.4336 99.0151C84.654 98.7436 84.9302 98.525 85.2424 98.3745C85.5935 98.2164 85.9729 98.1347 86.3566 98.1347C86.7403 98.1347 87.1197 98.2164 87.4708 98.3745ZM85.5134 98.9159C85.2777 99.0531 85.0725 99.2388 84.9108 99.4614C84.7483 99.6944 84.6265 99.9545 84.5508 100.23C84.3891 100.802 84.3891 101.41 84.5508 101.982C84.6277 102.257 84.7494 102.517 84.9108 102.751C85.0716 102.973 85.277 103.158 85.5134 103.292C85.7739 103.428 86.0622 103.499 86.3546 103.499C86.647 103.499 86.9353 103.428 87.1958 103.292C87.4337 103.16 87.6396 102.975 87.7984 102.751C87.9623 102.518 88.0855 102.258 88.1624 101.982C88.3242 101.41 88.3242 100.802 88.1624 100.23C88.0867 99.9537 87.9635 99.6934 87.7984 99.4614C87.6387 99.237 87.4331 99.0508 87.1958 98.9159C86.9353 98.7802 86.647 98.7094 86.3546 98.7094C86.0622 98.7094 85.7739 98.7802 85.5134 98.9159Z" fill="#8C9799"/>
<path d="M90.3611 98.3056V99.303H90.3812C90.5113 98.9476 90.7511 98.6486 91.062 98.4541C91.3837 98.2441 91.7551 98.1338 92.1336 98.1358C92.4592 98.1264 92.7839 98.1781 93.0923 98.2886C93.3297 98.3729 93.543 98.5189 93.7127 98.713C93.8752 98.9131 93.9887 99.1521 94.043 99.4091C94.1106 99.7137 94.143 100.026 94.1397 100.339V104.052H93.471V100.449C93.4731 100.218 93.4515 99.9874 93.4065 99.7613C93.3703 99.5631 93.2948 99.3751 93.185 99.2096C93.0739 99.0494 92.9254 98.9222 92.7539 98.8403C92.5415 98.7448 92.3121 98.6985 92.0812 98.7045C91.8345 98.6996 91.5897 98.7518 91.3642 98.8573C91.1601 98.9571 90.9788 99.1018 90.8324 99.2817C90.6833 99.4669 90.5685 99.68 90.494 99.9099C90.4113 100.164 90.3665 100.43 90.3611 100.699V104.065H89.6924V98.2929L90.3611 98.3056Z" fill="#8C9799"/>
<path d="M84.0057 16.5289C83.1405 15.2003 81.9303 14.1215 80.4994 13.4033L59.7975 1.67488C58.1845 0.76655 56.357 0.288574 54.497 0.288574C52.637 0.288574 50.8094 0.76655 49.1964 1.67488L28.4773 13.4033C26.8428 14.3253 24.6518 16.0383 24.4793 18.1911C24.0696 23.3172 30.7977 26.5147 35.2917 28.8706C43.0549 32.914 48.0492 35.2571 51.8316 39.0552C52.6683 39.9011 53.9881 41.3772 54.4883 42.5403C54.9843 41.3772 56.3084 39.8969 57.1494 39.0552C60.9318 35.2487 65.9391 32.914 73.685 28.8706C78.1143 26.5613 84.6225 23.626 84.5017 18.2038C84.4648 17.6164 84.2954 17.0443 84.0057 16.5289ZM54.484 30.7442C53.1856 30.7434 51.9165 30.3649 50.8374 29.6567C49.7583 28.9485 48.9177 27.9423 48.4218 26.7655C47.9258 25.5887 47.797 24.294 48.0514 23.0454C48.3059 21.7967 48.9323 20.6501 49.8513 19.7506C50.7704 18.8511 51.9408 18.2391 53.2146 17.992C54.4884 17.7449 55.8083 17.8738 57.0073 18.3625C58.2064 18.8511 59.2307 19.6775 59.9508 20.7372C60.6708 21.7968 61.0543 23.042 61.0526 24.3154C61.0503 26.0219 60.3571 27.6578 59.1254 28.8633C57.8937 30.0688 56.2242 30.7454 54.484 30.7442Z" fill="url(#paint0_linear_0_15690)"/>
<path d="M73.4649 31.7713C64.3748 36.5593 57.9998 38.7929 55.523 46.5492C55.0801 47.7879 54.733 49.0583 54.4846 50.3492C54.2377 49.0583 53.8919 47.788 53.4504 46.5492C50.9736 38.8098 44.5944 36.5762 35.5085 31.7713C26.0821 26.8228 24.0734 24.3527 23.7202 23.2845V45.3585C23.7234 47.1781 24.2087 48.9648 25.1274 50.5396C26.0461 52.1144 27.366 53.4218 28.9547 54.3308L49.382 66.0223C50.0523 66.4264 50.766 66.755 51.5099 67.0019C51.263 66.1321 50.9694 65.2116 50.6162 64.2321C44.2326 46.4985 32.9551 42.1412 32.9551 42.1412C32.9551 42.1412 38.2151 42.5634 45.7221 50.2564C49.365 53.9888 52.2206 58.4518 54.5016 63.1005C54.5016 63.1005 59.5148 54.1071 63.2896 50.2352C70.8009 42.538 76.0567 42.12 76.0567 42.12C76.0567 42.12 64.7706 46.4816 58.3956 64.211C58.0466 65.1947 57.7529 66.111 57.5061 66.985C58.2485 66.7345 58.9618 66.4062 59.634 66.0054L80.023 54.3308C81.6084 53.4182 82.925 52.109 83.8412 50.534C84.7575 48.9589 85.2414 47.1729 85.2447 45.3543V23.2676C84.9 24.3147 82.8913 26.8059 73.4649 31.7713Z" fill="url(#paint1_linear_0_15690)"/>
<defs>
<linearGradient id="paint0_linear_0_15690" x1="24.462" y1="21.414" x2="84.5017" y2="21.414" gradientUnits="userSpaceOnUse">
<stop stop-color="#2B88D9"/>
<stop offset="1" stop-color="#26E0F5"/>
</linearGradient>
<linearGradient id="paint1_linear_0_15690" x1="61.6937" y1="13.5902" x2="42.3099" y2="72.4808" gradientUnits="userSpaceOnUse">
<stop stop-color="#39B54A"/>
<stop offset="1" stop-color="#ACDF23"/>
</linearGradient>
</defs>
</svg>
