<svg width="118" height="107" viewBox="0 0 118 107" fill="none" xmlns="http://www.w3.org/2000/svg">
<path d="M5.2684 73.6233V78.1641C5.6965 77.4258 6.31207 76.8187 7.0503 76.4068C7.80505 76.0082 8.6471 75.8123 9.49685 75.8376C10.3343 75.8261 11.1619 76.0216 11.909 76.4072C12.656 76.7928 13.3003 77.3572 13.7865 78.0519C14.9037 79.5281 15.461 81.4406 15.4583 83.7892C15.4556 86.1378 14.8983 88.0489 13.7865 89.5223C13.2038 90.2596 12.4188 90.8034 11.5316 91.0844C10.6238 91.3979 9.67244 91.5606 8.71395 91.5663C6.96658 91.5731 5.25207 91.0825 3.76377 90.1496C2.23603 89.2024 1.47217 87.3842 1.47217 84.6949V71.6915H3.37232C3.6216 71.6881 3.86892 71.7369 4.09896 71.8348C4.32901 71.9327 4.53689 72.0776 4.70977 72.2607C4.8894 72.4368 5.03166 72.6486 5.12774 72.883C5.22383 73.1174 5.2717 73.3693 5.2684 73.6233ZM11.6213 83.6189C11.6213 82.2507 11.3426 81.1899 10.7854 80.4366C10.5339 80.0582 10.1928 79.7506 9.79364 79.5422C9.39451 79.3338 8.95023 79.2313 8.50192 79.2442C8.04171 79.2191 7.58247 79.3093 7.16446 79.5071C6.74645 79.7048 6.38243 80.004 6.1043 80.3784C5.50708 81.3453 5.22191 82.4785 5.28878 83.6189C5.28878 85.2058 5.54567 86.3608 6.0676 87.0795C6.32667 87.463 6.67677 87.7734 7.0853 87.9819C7.49383 88.1903 7.9475 88.2901 8.40406 88.2718C8.86998 88.2953 9.33416 88.1983 9.75338 87.9898C10.1726 87.7814 10.5332 87.4682 10.8017 87.0795C11.3508 86.2874 11.624 85.1338 11.6213 83.6189Z" fill="#C6C6C6"/>
<path d="M17.6667 71.6913H19.5589C20.0323 71.6925 20.486 71.8993 20.821 72.2668C21.1561 72.6342 21.3453 73.1324 21.3473 73.6526V74.8658H17.6667V71.6913ZM17.6667 76.1972H19.5589C20.0323 76.2006 20.4854 76.4087 20.8202 76.7766C21.1549 77.1445 21.3443 77.6425 21.3473 78.1628V91.5663H17.6667V76.1972Z" fill="#C6C6C6"/>
<path d="M23.5601 91.5579V84.0831C23.5216 82.7791 23.7325 81.4804 24.1799 80.2673C24.5492 79.308 25.1337 78.4618 25.8814 77.804C26.5932 77.2102 27.4097 76.7775 28.2816 76.532C29.2043 76.2545 30.1577 76.1119 31.116 76.1081H31.6529V80.2673H30.4133C29.3606 80.2673 28.5869 80.5387 28.0921 81.0814C27.5973 81.6241 27.346 82.472 27.3381 83.6252V91.5664L23.5601 91.5579Z" fill="#C6C6C6"/>
<path d="M42.5803 71.6914H44.4797C44.7319 71.6892 44.9817 71.7414 45.2127 71.8445C45.4436 71.9476 45.6504 72.0993 45.8195 72.2897C45.9943 72.4635 46.1334 72.6708 46.2288 72.8998C46.3241 73.1287 46.3738 73.3746 46.375 73.6232V84.6948C46.375 87.3841 45.6125 89.2023 44.0876 90.1496C42.5931 91.0846 40.8711 91.5754 39.1165 91.5662C38.1438 91.5667 37.1777 91.4039 36.2572 91.0843C35.3774 90.7987 34.6001 90.2553 34.0228 89.5222C32.9335 88.1236 32.3889 86.2125 32.3889 83.7891C32.3889 81.3657 32.9335 79.4533 34.0228 78.0518C34.4902 77.3278 35.1294 76.7352 35.8815 76.3288C36.6335 75.9223 37.4741 75.7151 38.3257 75.7263C39.1772 75.7374 40.0123 75.9666 40.7537 76.3927C41.4952 76.8188 42.1192 77.428 42.5681 78.164L42.5803 71.6914ZM36.2163 83.6188C36.2163 85.131 36.4886 86.2845 37.0333 87.0794C37.301 87.4684 37.6614 87.7818 38.0808 87.9903C38.5002 88.1989 38.9648 88.2957 39.431 88.2718C39.8891 88.2911 40.3445 88.1919 40.7546 87.9833C41.1647 87.7748 41.516 87.4638 41.7756 87.0794C42.2985 86.2845 42.5599 85.131 42.5599 83.6188C42.6269 82.4784 42.3412 81.3453 41.7429 80.3783C41.4588 80.0102 41.0931 79.7156 40.6757 79.5185C40.2583 79.3214 39.801 79.2274 39.3411 79.2442C38.8918 79.2301 38.4464 79.3321 38.0463 79.5406C37.6463 79.7491 37.3048 80.0573 37.0537 80.4365C36.4954 81.1926 36.2163 82.2534 36.2163 83.6188Z" fill="#C6C6C6"/>
<path d="M63.6319 91.5664H59.7136L57.4166 80.5197L55.1238 91.5664H51.2055L47.1111 76.118H50.9189L53.2895 86.8036L55.4145 76.118H59.3901L61.4046 86.8036L63.4763 77.5116C63.5487 77.0871 63.7737 76.7071 64.1059 76.4483C64.4381 76.1896 64.8526 76.0715 65.2656 76.118H67.7222L63.6319 91.5664Z" fill="url(#paint0_linear_0_15718)"/>
<path d="M69.1943 71.6913H71.0885C71.5623 71.6913 72.0167 71.898 72.3517 72.2658C72.6867 72.6336 72.8749 73.1325 72.8749 73.6526V74.8658H69.1943V71.6913ZM69.1943 76.1972H71.0885C71.5623 76.1995 72.0161 76.4074 72.3508 76.7757C72.6855 77.1439 72.8739 77.6425 72.8749 78.1628V91.5663H69.1943V76.1972Z" fill="url(#paint1_linear_0_15718)"/>
<path d="M87.5972 91.5644H85.5976C85.3395 91.5763 85.0818 91.5344 84.8409 91.4414C84.6 91.3485 84.3812 91.2065 84.1985 91.0246C84.0159 90.8427 83.8733 90.6248 83.7799 90.3849C83.6866 90.145 83.6445 89.8884 83.6564 89.6314V81.9035C83.6879 81.5298 83.6285 81.1541 83.4831 80.8082C83.3378 80.4623 83.1108 80.1564 82.8215 79.9164C82.2916 79.5064 81.639 79.2854 80.968 79.2887C80.3054 79.2821 79.6609 79.5038 79.1437 79.9164C78.8626 80.1615 78.6435 80.4692 78.5042 80.8144C78.365 81.1597 78.3094 81.5328 78.3422 81.9035V91.5644H74.3472V82.6974C74.3472 80.1256 75.0234 78.4032 76.376 77.5302C77.7123 76.6613 79.2605 76.17 80.8553 76.1085C82.5002 76.0916 84.1156 76.5446 85.5099 77.4138C86.9014 78.2868 87.5972 80.048 87.5972 82.6974V91.5644Z" fill="url(#paint2_linear_0_15718)"/>
<path d="M99.2575 90.3517V89.4073C98.9596 89.8966 98.5651 90.3212 98.0979 90.6556C97.6306 90.9899 97.1001 91.2272 96.5382 91.3531C95.4061 91.6138 94.2202 91.517 93.1462 91.0763C91.9552 90.5645 90.9525 89.7001 90.2752 88.6013C89.4713 87.3963 89.0693 85.8101 89.0693 83.8425C89.0693 81.5439 89.6012 79.6795 90.6648 78.2493C91.7285 76.8191 93.4388 76.1054 95.7958 76.1081C97.5557 76.1056 99.279 76.6074 100.759 77.5532C102.287 78.5193 103.053 80.2996 103.055 82.894V90.7425C103.055 93.3396 102.29 95.1036 100.759 96.0345C99.2654 96.971 97.5334 97.464 95.7671 97.4552C92.33 97.4552 90.2 95.8594 89.3769 92.668H93.4784C93.8096 93.199 94.2944 93.6186 94.8695 93.872C95.4445 94.1255 96.0833 94.201 96.7022 94.0886C97.3705 93.9255 97.9632 93.5423 98.3838 93.0018C98.8801 92.4278 99.1672 91.5403 99.2575 90.3517ZM92.8673 83.9524C92.8673 86.5116 93.6138 87.9309 95.1067 88.2105C96.5997 88.49 97.703 88.1467 98.4167 87.1806C98.8181 86.6111 99.0678 85.9501 99.1426 85.2592C99.2936 84.4048 99.3032 83.5317 99.1713 82.6742C99.0527 81.8505 98.7362 81.0673 98.2485 80.3905C98.006 80.0597 97.6836 79.7946 97.3109 79.6196C96.9382 79.4446 96.5273 79.3654 96.1157 79.3891C94.8442 79.3891 93.9857 79.8532 93.54 80.7813C93.0721 81.773 92.8379 82.8575 92.855 83.9524H92.8673Z" fill="url(#paint3_linear_0_15718)"/>
<path d="M103.808 86.3959H107.623C107.619 86.7216 107.693 87.0435 107.839 87.3348C107.985 87.626 108.2 87.8783 108.464 88.0704C109.14 88.4731 109.92 88.6678 110.707 88.6299C111.311 88.6413 111.908 88.5008 112.442 88.2215C112.643 88.1255 112.813 87.9749 112.932 87.787C113.051 87.5992 113.115 87.3817 113.115 87.1597C113.115 86.4899 112.33 85.9875 110.761 85.6526C110.248 85.5795 109.742 85.4676 109.247 85.3177C107.265 84.8358 105.938 84.2599 105.268 83.5901C104.895 83.2521 104.601 82.8366 104.407 82.3729C104.213 81.9093 104.123 81.4088 104.144 80.9069C104.133 80.2354 104.275 79.57 104.559 78.9609C104.843 78.3518 105.262 77.8148 105.785 77.3905C106.906 76.5355 108.364 76.1081 110.158 76.1081C112.102 76.1081 113.652 76.5355 114.809 77.3905C115.34 77.8387 115.77 78.3941 116.07 79.02C116.37 79.6459 116.533 80.328 116.548 81.0212H114.136C113.801 81.033 113.468 80.9498 113.178 80.7814C112.888 80.613 112.651 80.3663 112.496 80.0696L112.049 79.6245C111.502 79.2615 110.851 79.0853 110.195 79.1221C109.616 79.0852 109.037 79.2007 108.517 79.457C108.351 79.5652 108.217 79.715 108.127 79.8914C108.038 80.0678 107.997 80.2645 108.008 80.4617C108.008 81.058 108.98 81.5603 110.925 81.9688C111.118 82.036 111.315 82.0919 111.515 82.1362C111.671 82.1724 111.831 82.1915 111.991 82.1934C113.905 82.6753 115.232 83.2335 115.97 83.8679C116.328 84.2138 116.608 84.6315 116.792 85.0934C116.976 85.5552 117.059 86.0507 117.036 86.547C117.072 87.2773 116.928 88.0051 116.615 88.6667C116.303 89.3283 115.832 89.9033 115.244 90.3412C114.12 91.158 112.437 91.5664 110.195 91.5664C108.064 91.5664 106.477 91.1389 105.432 90.284C104.388 89.429 103.841 88.182 103.792 86.543L103.808 86.3959Z" fill="url(#paint4_linear_0_15718)"/>
<path d="M26.6771 99.7522C26.3712 99.5318 25.9744 99.4206 25.5717 99.4423C25.2575 99.4347 24.9465 99.4959 24.6693 99.6199C24.4194 99.7375 24.2024 99.8986 24.0331 100.092C23.8608 100.294 23.7311 100.519 23.6495 100.757C23.4778 101.251 23.4778 101.775 23.6495 102.269C23.7311 102.507 23.8608 102.732 24.0331 102.934C24.2024 103.127 24.4194 103.288 24.6693 103.406C24.9461 103.531 25.2571 103.594 25.5717 103.587C25.7841 103.587 25.9943 103.551 26.1898 103.482C26.3833 103.415 26.5595 103.317 26.7087 103.194C26.8633 103.068 26.9901 102.92 27.0832 102.756C27.1832 102.58 27.2443 102.391 27.2637 102.197H27.9721C27.916 102.72 27.6412 103.21 27.196 103.58C26.9778 103.748 26.722 103.879 26.4432 103.965C26.1645 104.05 25.8683 104.089 25.5717 104.079C25.1658 104.085 24.7634 104.016 24.394 103.875C24.0616 103.745 23.7662 103.556 23.5277 103.323C23.2915 103.08 23.1124 102.802 22.9998 102.503C22.7592 101.855 22.7592 101.16 22.9998 100.512C23.1114 100.214 23.2906 99.9366 23.5277 99.6955C23.7657 99.4597 24.0611 99.269 24.394 99.1363C24.7623 98.9921 25.1653 98.921 25.5717 98.9285C26.1403 98.9146 26.698 99.061 27.1554 99.3441C27.3807 99.4979 27.5656 99.6891 27.6983 99.9057C27.8311 100.122 27.909 100.359 27.927 100.602H27.2186C27.1425 100.28 26.9541 99.9845 26.6771 99.7522Z" fill="#7D8789"/>
<path d="M29.3755 99.012V100.19C29.5356 99.7974 29.8462 99.461 30.2585 99.2336C30.6707 99.0061 31.1612 98.9005 31.6527 98.9334V99.5537C31.3358 99.5332 31.0174 99.5707 30.7194 99.6637C30.4547 99.752 30.2148 99.8857 30.0148 100.056C29.8114 100.219 29.6523 100.418 29.5482 100.637C29.4381 100.874 29.3827 101.125 29.3849 101.379V104.08H28.7083V99.0159L29.3755 99.012Z" fill="#7D8789"/>
<path d="M32.3385 102.331C32.3955 102.554 32.4948 102.764 32.6312 102.95C32.7684 103.134 32.9428 103.289 33.1435 103.404C33.3683 103.53 33.6242 103.592 33.883 103.585C34.2613 103.607 34.6337 103.485 34.923 103.245C35.1841 103 35.3651 102.685 35.4429 102.339H36.0515C35.9566 102.828 35.709 103.277 35.3428 103.623C34.9314 103.948 34.4103 104.11 33.883 104.076C33.534 104.084 33.1876 104.014 32.87 103.872C32.593 103.745 32.3522 103.553 32.169 103.313C31.9894 103.066 31.8587 102.788 31.7839 102.493C31.6949 102.172 31.6508 101.841 31.6529 101.508C31.6518 101.189 31.6959 100.871 31.7839 100.563C31.8603 100.267 31.9908 99.987 32.169 99.7364C32.3585 99.4881 32.6054 99.2875 32.8893 99.151C33.2033 98.9966 33.5511 98.9201 33.9023 98.9281C34.2332 98.9214 34.5605 98.996 34.8545 99.1451C35.1485 99.2942 35.3998 99.513 35.5854 99.7817C35.7691 100.049 35.8998 100.347 35.9706 100.662C36.047 100.991 36.0794 101.329 36.0669 101.666H32.2461C32.2475 101.891 32.2786 102.114 32.3385 102.331ZM35.3428 100.514C35.2739 100.313 35.1682 100.127 35.0308 99.963C34.8945 99.8053 34.7267 99.6768 34.5378 99.5853C34.3341 99.4874 34.1098 99.4383 33.883 99.4418C33.6538 99.4379 33.4268 99.4871 33.2205 99.5853C33.0316 99.6768 32.8638 99.8053 32.7275 99.963C32.5883 100.128 32.4801 100.316 32.4078 100.518C32.3273 100.727 32.273 100.946 32.2461 101.168H35.4622C35.4591 100.941 35.4188 100.717 35.3428 100.503V100.514Z" fill="#7D8789"/>
<path d="M37.297 99.8286C37.405 99.6281 37.5651 99.453 37.7644 99.3175C37.9702 99.1798 38.2049 99.0795 38.4548 99.0223C38.7348 98.9578 39.0232 98.926 39.3125 98.9276C39.5572 98.9271 39.8013 98.9474 40.0415 98.9882C40.2745 99.0268 40.4962 99.1067 40.6934 99.2229C40.8943 99.3436 41.0567 99.5079 41.1651 99.6999C41.2999 99.9488 41.3632 100.223 41.3495 100.499V103.092C41.3412 103.14 41.3455 103.189 41.3622 103.235C41.3788 103.281 41.4074 103.323 41.4456 103.358C41.4838 103.393 41.5306 103.42 41.5824 103.436C41.6342 103.452 41.6895 103.457 41.744 103.452C41.8178 103.453 41.8911 103.44 41.9584 103.414V103.913L41.7526 103.94C41.6755 103.944 41.5981 103.944 41.521 103.94C41.3745 103.947 41.228 103.925 41.0922 103.876C40.9936 103.839 40.9088 103.779 40.8478 103.701C40.7891 103.62 40.7511 103.528 40.7363 103.433C40.7184 103.318 40.7098 103.203 40.7105 103.088H40.6891C40.5759 103.235 40.4528 103.375 40.3203 103.508C40.194 103.627 40.0497 103.731 39.8914 103.815C39.7283 103.9 39.5521 103.964 39.3683 104.004C38.8992 104.106 38.4093 104.106 37.9402 104.004C37.7267 103.956 37.5267 103.87 37.3527 103.751C37.1815 103.632 37.0448 103.479 36.9539 103.304C36.8529 103.104 36.8031 102.887 36.8081 102.668C36.7893 102.382 36.8799 102.1 37.0654 101.865C37.2448 101.668 37.48 101.517 37.7473 101.426C38.0545 101.32 38.3758 101.248 38.7036 101.214L39.7799 101.097C39.9215 101.097 40.0458 101.067 40.153 101.048C40.2499 101.032 40.3419 100.998 40.4232 100.949C40.4959 100.898 40.5532 100.831 40.5905 100.756C40.6321 100.653 40.651 100.544 40.6462 100.434C40.6552 100.262 40.617 100.091 40.5347 99.9346C40.4641 99.8102 40.3576 99.7044 40.2259 99.628C40.0851 99.549 39.9275 99.4961 39.7628 99.4728C39.5775 99.4429 39.3894 99.429 39.201 99.4311C38.8267 99.4154 38.4571 99.5099 38.1504 99.6999C38.0075 99.805 37.8943 99.9381 37.8199 100.089C37.7454 100.239 37.7117 100.403 37.7215 100.567H37.0911C37.1045 100.311 37.1745 100.06 37.297 99.8286ZM40.6719 101.286C40.6154 101.362 40.5279 101.417 40.4275 101.438C40.3221 101.466 40.2146 101.487 40.1059 101.502C39.8185 101.547 39.5226 101.585 39.2225 101.619C38.9404 101.651 38.6621 101.704 38.3905 101.778C38.163 101.836 37.9523 101.937 37.773 102.074C37.6903 102.146 37.626 102.233 37.5846 102.329C37.5432 102.425 37.5255 102.528 37.5328 102.63C37.5298 102.769 37.5652 102.907 37.6358 103.031C37.702 103.147 37.7939 103.25 37.9059 103.334C38.0248 103.419 38.1599 103.484 38.3047 103.527C38.4524 103.572 38.6074 103.595 38.7636 103.595C39.0157 103.595 39.2661 103.559 39.5055 103.489C39.7319 103.425 39.9417 103.322 40.123 103.187C40.3021 103.054 40.4481 102.89 40.5519 102.706C40.6576 102.504 40.7104 102.284 40.7062 102.062V101.286H40.6719Z" fill="#7D8789"/>
<path d="M44.1666 98.9896V99.5049H43.2737V102.901C43.2671 103.063 43.2915 103.224 43.3453 103.374C43.393 103.487 43.5157 103.553 43.7065 103.565C43.8602 103.566 44.0138 103.557 44.1666 103.538V104.053H43.928H43.6895C43.5553 104.092 43.4147 104.089 43.2817 104.046C43.1486 104.003 43.0278 103.92 42.9312 103.807C42.8347 103.694 42.7658 103.553 42.7314 103.4C42.697 103.246 42.6983 103.085 42.7353 102.933V99.4854H41.9583V98.9701H42.725V97.4553H43.2635V98.9701L44.1666 98.9896Z" fill="#7D8789"/>
<path d="M46.375 96.7191V97.7554H45.6389V96.7191H46.375ZM46.375 98.7753V104.08H45.6389V98.7753H46.375Z" fill="#7D8789"/>
<path d="M47.2129 98.9276L49.0052 103.449L50.7974 98.9276H51.5278L49.3636 104.08H48.6153L46.375 98.9276H47.2129Z" fill="#7D8789"/>
<path d="M52.3264 102.331C52.3928 102.554 52.5085 102.764 52.6673 102.951C52.8271 103.135 53.0302 103.289 53.2639 103.404C53.5257 103.53 53.8237 103.592 54.1252 103.585C54.5658 103.607 54.9995 103.485 55.3363 103.245C55.6405 103 55.8513 102.685 55.9419 102.339H56.6507C56.5402 102.828 56.2518 103.277 55.8253 103.623C55.3461 103.948 54.7393 104.11 54.1252 104.076C53.7187 104.084 53.3153 104.014 52.9454 103.872C52.6228 103.745 52.3423 103.553 52.129 103.313C51.9198 103.066 51.7676 102.788 51.6804 102.494C51.5768 102.172 51.5255 101.841 51.5279 101.508C51.5267 101.189 51.578 100.871 51.6804 100.564C51.7694 100.268 51.9214 99.9874 52.129 99.7368C52.3433 99.4909 52.6229 99.2905 52.9454 99.1515C53.3111 98.9972 53.7162 98.9207 54.1252 98.9287C54.5158 98.9175 54.9034 98.9899 55.2518 99.1392C55.6001 99.2884 55.8977 99.5097 56.1169 99.7821C56.3308 100.049 56.483 100.348 56.5654 100.662C56.6544 100.991 56.6921 101.329 56.6776 101.667H52.2232C52.2234 101.891 52.2581 102.114 52.3264 102.331ZM55.8253 100.515C55.745 100.314 55.6219 100.127 55.4619 99.9634C55.3032 99.8058 55.1078 99.6773 54.8878 99.5858C54.6506 99.4879 54.3893 99.4388 54.1252 99.4423C53.8582 99.4384 53.5939 99.4876 53.3536 99.5858C53.1336 99.6773 52.9381 99.8058 52.7794 99.9634C52.6174 100.128 52.4913 100.316 52.4071 100.519C52.3134 100.728 52.2501 100.946 52.2187 101.168H55.9643C55.9608 100.942 55.9138 100.717 55.8253 100.503V100.515Z" fill="#7D8789"/>
<path d="M64.256 103.938V102.947H64.2373C64.1737 103.119 64.0815 103.277 63.9652 103.412C63.8432 103.553 63.7025 103.673 63.5478 103.768C63.3907 103.867 63.2229 103.944 63.0484 103.999C62.8774 104.051 62.7006 104.078 62.5229 104.08C62.1935 104.088 61.8668 104.013 61.5687 103.861C61.3043 103.721 61.0734 103.516 60.8941 103.263C60.7089 103.001 60.5722 102.703 60.4916 102.385C60.3176 101.693 60.3176 100.962 60.4916 100.27C60.5722 99.9519 60.7089 99.6538 60.8941 99.3923C61.0742 99.1388 61.3049 98.9328 61.5687 98.7897C61.8659 98.6341 62.193 98.5578 62.5229 98.5673C62.7002 98.5665 62.8769 98.591 63.0484 98.6401C63.2178 98.6843 63.38 98.7566 63.5292 98.8544C63.6774 98.9529 63.8117 99.0741 63.928 99.2143C64.0433 99.3613 64.133 99.5299 64.1926 99.7118V96.7191H64.7778V103.938H64.256ZM61.0395 102.13C61.0908 102.386 61.1856 102.628 61.319 102.846C61.4451 103.053 61.6118 103.227 61.8073 103.356C62.0244 103.492 62.272 103.561 62.5229 103.554C62.7975 103.562 63.0696 103.494 63.313 103.356C63.5191 103.229 63.6972 103.055 63.8348 102.846C63.969 102.628 64.0662 102.385 64.1218 102.13C64.2429 101.599 64.2429 101.044 64.1218 100.513C64.067 100.258 63.9697 100.017 63.8348 99.8008C63.6908 99.5702 63.4943 99.3839 63.2645 99.26C63.0346 99.136 62.7792 99.0785 62.5229 99.093C62.2724 99.085 62.0248 99.1522 61.8073 99.2871C61.6109 99.4162 61.4439 99.5918 61.319 99.8008C61.185 100.017 61.0902 100.258 61.0395 100.513C60.9184 101.044 60.9184 101.599 61.0395 102.13Z" fill="#7D8789"/>
<path d="M66.9422 102.331C67.0005 102.554 67.1009 102.764 67.2382 102.951C67.3747 103.134 67.5473 103.288 67.7458 103.404C67.9717 103.529 68.2283 103.592 68.4878 103.585C68.8655 103.607 69.2372 103.485 69.526 103.245C69.7867 103 69.9674 102.685 70.045 102.339H70.6371C70.5457 102.83 70.2979 103.279 69.9297 103.623C69.5202 103.948 69.0015 104.109 68.4763 104.076C68.1266 104.085 67.7795 104.015 67.4612 103.872C67.1858 103.745 66.9467 103.553 66.7653 103.313C66.5846 103.067 66.454 102.789 66.3808 102.494C66.292 102.172 66.248 101.841 66.2501 101.508C66.249 101.189 66.293 100.871 66.3808 100.564C66.4556 100.267 66.586 99.9867 66.7653 99.7369C66.9476 99.4911 67.1859 99.2906 67.4612 99.1515C67.7759 98.9967 68.1245 98.9202 68.4763 98.9287C68.8111 98.9175 69.1434 98.9899 69.4419 99.1392C69.7405 99.2884 69.9956 99.5097 70.1834 99.7822C70.3651 100.05 70.4954 100.348 70.5679 100.662C70.6442 100.991 70.6765 101.329 70.6641 101.667H66.8499C66.8531 101.891 66.8841 102.114 66.9422 102.331ZM69.9412 100.515C69.8724 100.314 69.7669 100.127 69.6298 99.9634C69.4949 99.8062 69.3287 99.6777 69.1415 99.5858C68.938 99.4884 68.7141 99.4392 68.4878 99.4423C68.2577 99.4384 68.0299 99.4876 67.8226 99.5858C67.6354 99.6777 67.4693 99.8062 67.3343 99.9634C67.1953 100.129 67.0861 100.317 67.0114 100.519C66.9305 100.728 66.8775 100.946 66.8537 101.168H70.0642C70.0599 100.942 70.0184 100.717 69.9412 100.503V100.515Z" fill="#7D8789"/>
<path d="M74.8413 100.047C74.7687 99.9161 74.6634 99.8013 74.5337 99.7119C74.398 99.6233 74.2451 99.5581 74.0828 99.5196C73.7598 99.4524 73.4239 99.4524 73.101 99.5196C72.9529 99.5452 72.8106 99.5923 72.6796 99.6591C72.5569 99.7245 72.4519 99.8133 72.372 99.9193C72.296 100.033 72.2566 100.164 72.2582 100.296C72.2545 100.416 72.2928 100.533 72.3678 100.632C72.4435 100.723 72.5379 100.801 72.6459 100.862C72.7624 100.926 72.8868 100.978 73.0167 101.016C73.1473 101.058 73.2737 101.092 73.3833 101.118L74.2682 101.295C74.4613 101.323 74.6506 101.368 74.8328 101.431C75.0117 101.496 75.1792 101.584 75.3301 101.691C75.4742 101.794 75.5933 101.923 75.6798 102.068C75.7764 102.241 75.8242 102.433 75.8189 102.626C75.827 102.863 75.7566 103.097 75.6166 103.298C75.4877 103.481 75.3132 103.636 75.1067 103.75C74.8912 103.869 74.6547 103.954 74.4073 104.003C74.1538 104.051 73.8954 104.077 73.6361 104.078C73.0829 104.101 72.5371 103.957 72.0855 103.671C71.874 103.511 71.7035 103.311 71.5857 103.087C71.4679 102.862 71.4056 102.618 71.4028 102.37H72.0686C72.0682 102.545 72.1119 102.717 72.1966 102.874C72.2812 103.032 72.4046 103.17 72.5574 103.279C72.8792 103.49 73.2708 103.599 73.6698 103.588C73.8384 103.586 74.0063 103.569 74.1713 103.539C74.3385 103.509 74.4993 103.456 74.6474 103.38C74.7909 103.308 74.9158 103.209 75.014 103.09C75.1104 102.965 75.1592 102.816 75.1531 102.664C75.1598 102.533 75.1263 102.402 75.0562 102.287C74.9864 102.189 74.8945 102.106 74.7865 102.042C74.6668 101.974 74.538 101.919 74.403 101.88C74.2648 101.836 74.1242 101.798 73.9817 101.767L73.1389 101.597C72.9355 101.549 72.7356 101.49 72.5406 101.42C72.368 101.36 72.2061 101.277 72.0602 101.175C71.9235 101.08 71.8138 100.957 71.7399 100.817C71.655 100.654 71.6146 100.476 71.622 100.296C71.616 100.074 71.6802 99.8542 71.8074 99.6629C71.9264 99.4891 72.0914 99.344 72.2877 99.2406C72.4903 99.1288 72.7125 99.0485 72.9451 99.0031C73.1814 98.9543 73.4231 98.929 73.6656 98.9277C73.9251 98.9252 74.1835 98.957 74.4325 99.0219C74.6587 99.0824 74.8692 99.1824 75.052 99.316C75.2315 99.4492 75.3755 99.6167 75.4733 99.8062C75.5842 100.022 75.6458 100.255 75.6545 100.492H74.9888C74.9772 100.336 74.9268 100.184 74.8413 100.047Z" fill="#7D8789"/>
<path d="M77.2918 96.7191V97.7554H76.5557V96.7191H77.2918ZM77.2918 98.7753V104.08H76.5557V98.7753H77.2918Z" fill="#7D8789"/>
<path d="M83.0334 104.845C82.953 105.132 82.8004 105.4 82.5873 105.626C82.3736 105.847 82.1023 106.016 81.7976 106.119C81.4169 106.24 81.0146 106.297 80.6109 106.288C80.3255 106.289 80.0409 106.259 79.7633 106.199C79.5012 106.142 79.2512 106.048 79.0227 105.919C78.8054 105.792 78.62 105.625 78.4785 105.43C78.3262 105.219 78.2385 104.975 78.2242 104.724H78.9291C78.9558 104.9 79.0309 105.067 79.1476 105.209C79.2511 105.338 79.3833 105.446 79.5358 105.526C79.6936 105.609 79.8654 105.669 80.0444 105.702C80.2305 105.739 80.4204 105.758 80.6109 105.758C80.8745 105.78 81.1401 105.746 81.3865 105.659C81.6328 105.572 81.8531 105.435 82.0296 105.257C82.352 104.834 82.5089 104.326 82.4757 103.814V103.113H82.4534C82.2997 103.425 82.0507 103.692 81.7352 103.882C81.4037 104.088 81.0092 104.196 80.6065 104.191C80.2 104.202 79.7961 104.131 79.4242 103.983C79.1089 103.855 78.8321 103.661 78.6168 103.417C78.4065 103.165 78.2548 102.878 78.1706 102.572C78.0741 102.232 78.0261 101.884 78.0279 101.533C78.0259 101.192 78.0846 100.852 78.2019 100.527C78.3067 100.223 78.4764 99.9397 78.7015 99.6936C78.9229 99.455 79.2001 99.2634 79.5135 99.1324C79.8625 98.9916 80.2418 98.9218 80.6243 98.9279C80.8299 98.9269 81.0345 98.954 81.231 99.0081C81.4169 99.0583 81.5929 99.134 81.753 99.2326C81.908 99.3285 82.0489 99.4416 82.1724 99.5693C82.2876 99.6897 82.3823 99.8248 82.4534 99.9701H82.4757V99.0802H83.1806V103.83C83.1813 104.173 83.1318 104.514 83.0334 104.845ZM81.4229 103.466C81.6514 103.352 81.8494 103.195 82.0028 103.005C82.1641 102.808 82.2836 102.587 82.3553 102.351C82.4341 102.104 82.4731 101.847 82.4713 101.59C82.4719 101.333 82.439 101.078 82.3731 100.828C82.311 100.581 82.2007 100.347 82.0474 100.134C81.9021 99.9291 81.705 99.7575 81.472 99.6334C81.2131 99.5004 80.9179 99.4351 80.6199 99.445C80.3211 99.4364 80.0253 99.5001 79.7633 99.6294C79.5277 99.7493 79.325 99.915 79.17 100.114C79.0109 100.322 78.896 100.555 78.8309 100.8C78.7583 101.062 78.7223 101.331 78.7238 101.602C78.7227 101.859 78.7602 102.115 78.8354 102.363C78.9056 102.598 79.0235 102.82 79.1833 103.017C79.3463 103.221 79.5625 103.385 79.813 103.496C80.0635 103.608 80.3406 103.662 80.6199 103.654C80.9013 103.656 81.1784 103.591 81.4229 103.466Z" fill="#7D8789"/>
<path d="M84.5754 99.0757V99.9363H84.5965C84.7263 99.6296 84.9641 99.3717 85.2721 99.2036C85.5915 99.0217 85.9603 98.9264 86.3361 98.9283C86.6619 98.9208 86.9864 98.9668 87.2946 99.064C87.5323 99.1437 87.7443 99.277 87.911 99.4517C88.0704 99.6266 88.1818 99.8339 88.2362 100.056C88.3032 100.321 88.3358 100.591 88.3333 100.863V104.08H87.6662V100.96C87.6677 100.759 87.6464 100.559 87.6028 100.363C87.5672 100.19 87.4924 100.026 87.3833 99.882C87.2749 99.7442 87.1294 99.6347 86.961 99.5641C86.7507 99.4807 86.5229 99.4409 86.2939 99.4478C86.0488 99.4434 85.8056 99.487 85.5803 99.5757C85.3789 99.6607 85.199 99.7835 85.0525 99.9363C84.9034 100.096 84.7888 100.28 84.7148 100.479C84.6313 100.698 84.5871 100.929 84.5839 101.161V104.08H83.9167V99.0795L84.5754 99.0757Z" fill="#7D8789"/>
<path d="M103.056 5.07946C89.3845 -4.40479 65.417 -0.523754 55.0919 23.1828C49.4359 36.1563 47.8222 56.0838 23.5557 62.6052C30.2479 62.5481 66.9323 66.4781 79.94 45.2814C89.0077 30.5245 80.8288 6.09971 103.056 5.07946Z" fill="url(#paint5_radial_0_15718)"/>
<path d="M0 28.1562C22.1933 -3.48232 67.256 -6.24351 79.4761 21.9929C91.0201 48.6474 68.1795 69.4507 23.3683 63.2175C42.4488 62.2561 61.8757 52.6782 55.5925 34.1347C50.1915 18.1963 26.481 13.282 0 28.1562Z" fill="url(#paint6_linear_0_15718)"/>
<defs>
<linearGradient id="paint0_linear_0_15718" x1="38.0297" y1="77.1802" x2="143.465" y2="107.61" gradientUnits="userSpaceOnUse">
<stop offset="0.22" stop-color="#10D6F9"/>
<stop offset="0.43" stop-color="#10D6F9"/>
<stop offset="0.49" stop-color="#11D0F4"/>
<stop offset="0.58" stop-color="#13BEE8"/>
<stop offset="0.68" stop-color="#17A2D2"/>
<stop offset="0.79" stop-color="#1D7BB6"/>
<stop offset="1" stop-color="#0D3375"/>
</linearGradient>
<linearGradient id="paint1_linear_0_15718" x1="41.6248" y1="72.207" x2="141.586" y2="99.4746" gradientUnits="userSpaceOnUse">
<stop offset="0.22" stop-color="#10D6F9"/>
<stop offset="0.43" stop-color="#10D6F9"/>
<stop offset="0.49" stop-color="#11D0F4"/>
<stop offset="0.58" stop-color="#13BEE8"/>
<stop offset="0.68" stop-color="#17A2D2"/>
<stop offset="0.79" stop-color="#1D7BB6"/>
<stop offset="1" stop-color="#0D3375"/>
</linearGradient>
<linearGradient id="paint2_linear_0_15718" x1="39.0055" y1="72.1261" x2="145.795" y2="104.24" gradientUnits="userSpaceOnUse">
<stop offset="0.22" stop-color="#10D6F9"/>
<stop offset="0.43" stop-color="#10D6F9"/>
<stop offset="0.49" stop-color="#11D0F4"/>
<stop offset="0.58" stop-color="#13BEE8"/>
<stop offset="0.68" stop-color="#17A2D2"/>
<stop offset="0.79" stop-color="#1D7BB6"/>
<stop offset="1" stop-color="#0D3375"/>
</linearGradient>
<linearGradient id="paint3_linear_0_15718" x1="40.5814" y1="70.3805" x2="145.449" y2="102.025" gradientUnits="userSpaceOnUse">
<stop offset="0.22" stop-color="#10D6F9"/>
<stop offset="0.43" stop-color="#10D6F9"/>
<stop offset="0.49" stop-color="#11D0F4"/>
<stop offset="0.58" stop-color="#13BEE8"/>
<stop offset="0.68" stop-color="#17A2D2"/>
<stop offset="0.79" stop-color="#1D7BB6"/>
<stop offset="1" stop-color="#0D3375"/>
</linearGradient>
<linearGradient id="paint4_linear_0_15718" x1="42.4336" y1="63.6801" x2="147.364" y2="95.2417" gradientUnits="userSpaceOnUse">
<stop offset="0.22" stop-color="#10D6F9"/>
<stop offset="0.43" stop-color="#10D6F9"/>
<stop offset="0.49" stop-color="#11D0F4"/>
<stop offset="0.58" stop-color="#13BEE8"/>
<stop offset="0.68" stop-color="#17A2D2"/>
<stop offset="0.79" stop-color="#1D7BB6"/>
<stop offset="1" stop-color="#0D3375"/>
</linearGradient>
<radialGradient id="paint5_radial_0_15718" cx="0" cy="0" r="1" gradientUnits="userSpaceOnUse" gradientTransform="translate(69.8944 30.8063) rotate(-1.14167) scale(53.0242 52.8351)">
<stop stop-color="#8D8D8D"/>
<stop offset="0.15" stop-color="#A7A7A7"/>
<stop offset="0.39" stop-color="#C7C7C7"/>
<stop offset="0.61" stop-color="#DFDFDF"/>
<stop offset="0.82" stop-color="#EDEDED"/>
<stop offset="1" stop-color="#F2F2F2"/>
</radialGradient>
<linearGradient id="paint6_linear_0_15718" x1="-0.716139" y1="20.0983" x2="97.0321" y2="52.4013" gradientUnits="userSpaceOnUse">
<stop offset="0.22" stop-color="#10D6F9"/>
<stop offset="0.43" stop-color="#10D6F9"/>
<stop offset="0.49" stop-color="#11D0F4"/>
<stop offset="0.58" stop-color="#13BEE8"/>
<stop offset="0.68" stop-color="#17A2D2"/>
<stop offset="0.79" stop-color="#1D7BB6"/>
<stop offset="1" stop-color="#0D3375"/>
</linearGradient>
</defs>
</svg>
