<svg width="129" height="106" viewBox="0 0 129 106" fill="none" xmlns="http://www.w3.org/2000/svg">
<path d="M26.5518 100.403H20.7895C20.8411 101.01 21.1369 101.574 21.6149 101.977C22.093 102.38 22.7161 102.591 23.3537 102.566C23.7586 102.576 24.1612 102.506 24.5365 102.36C24.9118 102.215 25.2517 101.998 25.5352 101.722L26.1073 102.311C25.7462 102.68 25.3062 102.972 24.817 103.166C24.3278 103.359 23.8008 103.451 23.2714 103.434C21.2134 103.434 19.7646 102.044 19.7646 100.038C19.7646 98.0317 21.2093 96.642 23.2591 96.642C25.5352 96.6106 26.6588 98.1181 26.5518 100.403ZM25.6092 99.5863C25.614 99.296 25.5554 99.008 25.4374 98.7404C25.3193 98.4729 25.1442 98.2316 24.9233 98.032C24.7023 97.8323 24.4403 97.6786 24.1539 97.5806C23.8674 97.4825 23.5627 97.4423 23.2591 97.4624C22.6408 97.4385 22.0371 97.6453 21.5761 98.0389C21.115 98.4325 20.8329 98.9819 20.7895 99.5706L25.6092 99.5863Z" fill="#EBB000"/>
<path d="M28.9657 96.2459V97.0902H30.8311V97.8848H28.9657V103.436H28.0159V97.8848H27.1763V97.0902H28.0159V96.3681C27.9969 96.0831 28.037 95.7973 28.1338 95.5287C28.2305 95.2602 28.3818 95.0148 28.578 94.8082C28.7742 94.6016 29.0109 94.4383 29.2732 94.3287C29.5356 94.2191 29.8177 94.1655 30.1017 94.1715C30.6034 94.1765 31.0915 94.3365 31.4998 94.6299L31.1199 95.4131C30.8324 95.2023 30.4877 95.085 30.1321 95.0769C29.9765 95.0662 29.8204 95.0891 29.6744 95.144C29.5283 95.1989 29.3956 95.2846 29.2851 95.3953C29.1747 95.506 29.0891 95.6392 29.034 95.7859C28.9789 95.9326 28.9556 96.0894 28.9657 96.2459Z" fill="#EBB000"/>
<path d="M33.298 96.246V97.0902H35.1683V97.8849H33.298V103.436H32.3419V97.8849H31.5V97.0902H32.3419V96.3682C32.3227 96.0829 32.3631 95.7967 32.4603 95.5279C32.5576 95.259 32.7096 95.0135 32.9067 94.8068C33.1038 94.6002 33.3417 94.437 33.6051 94.3276C33.8686 94.2182 34.1519 94.1651 34.437 94.1715C34.9345 94.1778 35.4183 94.3365 35.8235 94.6262L35.4426 95.4093C35.1546 95.1981 34.8089 95.0808 34.4522 95.0731C34.2969 95.064 34.1415 95.0883 33.9964 95.1442C33.8512 95.2001 33.7196 95.2865 33.6103 95.3975C33.5011 95.5085 33.4167 95.6416 33.3629 95.7879C33.309 95.9342 33.2869 96.0904 33.298 96.246Z" fill="#EBB000"/>
<path d="M41.3762 100.422H36.1409C36.1923 101.024 36.4619 101.582 36.8941 101.981C37.3264 102.38 37.8881 102.589 38.4631 102.566C38.8311 102.576 39.1971 102.507 39.5382 102.362C39.8793 102.216 40.1881 101.999 40.4451 101.722L40.9686 102.311C40.6406 102.68 40.2408 102.972 39.7964 103.166C39.3519 103.359 38.873 103.451 38.3921 103.434C36.5224 103.434 35.2061 102.044 35.2061 100.038C35.2061 98.0314 36.5186 96.6415 38.3771 96.6415C40.4525 96.6298 41.4734 98.1374 41.3762 100.422ZM40.5124 99.6057C40.5141 99.3162 40.4588 99.0294 40.3499 98.7634C40.2411 98.4974 40.081 98.2579 39.8798 98.0599C39.6786 97.862 39.4406 97.7098 39.1807 97.613C38.9208 97.5162 38.6447 97.4769 38.3696 97.4974C37.808 97.4735 37.2595 97.6803 36.8406 98.0739C36.4217 98.4675 36.1654 99.017 36.126 99.6057H40.5124Z" fill="#EBB000"/>
<path d="M48.0823 97.6308L47.5786 98.333C47.0806 97.8182 46.4154 97.5363 45.7269 97.5484C45.1347 97.5739 44.5747 97.8465 44.1641 98.309C43.7535 98.7716 43.5242 99.3882 43.5242 100.03C43.5242 100.671 43.7535 101.288 44.1641 101.75C44.5747 102.213 45.1347 102.486 45.7269 102.511C46.0864 102.53 46.4453 102.462 46.7776 102.312C47.1098 102.162 47.407 101.934 47.6474 101.644L48.1765 102.256C47.8714 102.643 47.4892 102.95 47.0586 103.154C46.628 103.358 46.1602 103.453 45.6906 103.433C43.8787 103.433 42.6177 102.044 42.6177 100.04C42.6177 98.0349 43.9005 96.6461 45.6906 96.6461C46.1306 96.6214 46.5705 96.6961 46.9823 96.8657C47.3941 97.0352 47.7687 97.2958 48.0823 97.6308Z" fill="#EBB000"/>
<path d="M53.1175 102.943C52.7243 103.247 52.2583 103.418 51.7772 103.436C50.9078 103.436 50.2671 102.871 50.2671 101.59V97.8807H49.4116V97.1229H50.2671V95.4063H51.1226V97.1191H53.0032V97.9072H51.1226V101.443C51.1226 102.231 51.4066 102.526 51.9122 102.526C52.25 102.516 52.578 102.4 52.8577 102.193L53.1175 102.943Z" fill="#EBB000"/>
<path d="M55.5874 94.8556C55.5802 94.9813 55.5378 95.1021 55.4657 95.2031C55.3936 95.304 55.2947 95.3807 55.1814 95.4236C55.0681 95.4666 54.9452 95.474 54.8279 95.4448C54.7107 95.4157 54.6041 95.3513 54.5214 95.2597C54.4387 95.168 54.3834 95.0531 54.3624 94.929C54.3415 94.8049 54.3557 94.6772 54.4033 94.5614C54.451 94.4457 54.53 94.3471 54.6306 94.2777C54.7313 94.2083 54.8491 94.1712 54.9697 94.171C55.0539 94.1714 55.1371 94.1897 55.2143 94.2247C55.2916 94.2598 55.3612 94.3109 55.419 94.3749C55.4767 94.4389 55.5214 94.5145 55.5504 94.5971C55.5794 94.6798 55.592 94.7677 55.5874 94.8556ZM54.5082 103.412V96.7731H55.4423V103.436L54.5082 103.412Z" fill="#EBB000"/>
<path d="M59.4205 103.436L56.8237 96.6415H57.8487L59.9406 102.392L62.0173 96.6415H63.0002L60.4264 103.436H59.4205Z" fill="#EBB000"/>
<path d="M69.7878 100.422H64.5525C64.6039 101.025 64.8741 101.583 65.3071 101.983C65.7401 102.382 66.3028 102.591 66.8785 102.566C67.2463 102.576 67.6121 102.506 67.9531 102.36C68.2941 102.215 68.6029 101.998 68.8604 101.722L69.3802 102.311C69.0522 102.68 68.6524 102.972 68.208 103.166C67.7635 103.359 67.2847 103.451 66.8037 103.434C64.934 103.434 63.6177 102.044 63.6177 100.038C63.6177 98.0314 64.9302 96.6415 66.7925 96.6415C68.8642 96.6298 69.885 98.1374 69.7878 100.422ZM68.9352 99.6057C68.9375 99.3164 68.8826 99.0297 68.7742 98.7637C68.6658 98.4977 68.5061 98.2582 68.3052 98.0601C68.1042 97.8621 67.8665 97.7099 67.6068 97.613C67.3471 97.5162 67.0711 97.4768 66.7962 97.4974C66.2348 97.4745 65.6868 97.6816 65.2682 98.075C64.8495 98.4684 64.5929 99.0173 64.5525 99.6057H68.9352Z" fill="#EBB000"/>
<path d="M75.6391 98.1808C75.8193 97.7091 76.1248 97.3094 76.515 97.0348C76.9052 96.7601 77.3617 96.6236 77.8236 96.6434V97.6565C77.5483 97.6316 77.2714 97.6696 77.0099 97.768C76.7484 97.8663 76.5078 98.0231 76.3031 98.2285C76.0984 98.4339 75.9339 98.6836 75.8197 98.9622C75.7054 99.2408 75.644 99.5423 75.6391 99.8483V103.436H74.7354V96.6828H75.6391V98.1808Z" fill="#EBB000"/>
<path d="M84.6115 100.403H79.3826C79.4294 101.007 79.6962 101.57 80.1276 101.973C80.5589 102.376 81.1216 102.588 81.6983 102.566C82.0657 102.576 82.4312 102.506 82.7718 102.361C83.1125 102.216 83.4209 101.998 83.6778 101.722L84.2007 102.311C83.8726 102.681 83.4728 102.973 83.0282 103.166C82.5836 103.36 82.1046 103.451 81.6236 103.433C79.7561 103.433 78.4414 102.044 78.4414 100.038C78.4414 98.0317 79.7561 96.642 81.6124 96.642C83.689 96.6106 84.7087 98.118 84.6115 100.403ZM83.76 99.5862C83.7643 99.2956 83.7111 99.0072 83.6037 98.7394C83.4963 98.4716 83.3371 98.2301 83.1362 98.0304C82.9353 97.8307 82.6971 97.6771 82.4367 97.5793C82.1763 97.4815 81.8994 97.4417 81.6236 97.4624C81.0626 97.4385 80.5148 97.6453 80.0964 98.0389C79.678 98.4324 79.422 98.9818 79.3826 99.5705L83.76 99.5862Z" fill="#EBB000"/>
<path d="M93.2648 99.8398C93.2648 101.704 91.9694 103.003 90.0713 103.003C89.5417 103.027 89.0157 102.91 88.5544 102.665C88.093 102.42 87.7152 102.057 87.4648 101.619V105.289H86.4707V96.6806H87.4648V98.0382C87.71 97.6 88.083 97.2363 88.5404 96.9894C88.9977 96.7426 89.5205 96.6227 90.0478 96.6439C91.942 96.6439 93.2648 97.9574 93.2648 99.8398ZM92.259 99.8177C92.2406 99.3767 92.0842 98.9506 91.8093 98.5923C91.5344 98.234 91.1531 97.9595 90.713 97.8029C90.2729 97.6463 89.7933 97.6146 89.3341 97.7117C88.8749 97.8087 88.4563 98.0303 88.1304 98.3488C87.8045 98.6673 87.5858 99.0687 87.5015 99.5029C87.4172 99.9371 87.471 100.385 87.6562 100.791C87.8414 101.196 88.1498 101.542 88.5431 101.785C88.9363 102.027 89.397 102.156 89.8678 102.155C90.1923 102.161 90.5147 102.104 90.8146 101.988C91.1144 101.871 91.3853 101.698 91.61 101.478C91.8347 101.258 92.0084 100.997 92.1201 100.712C92.2318 100.426 92.2791 100.121 92.259 99.8177Z" fill="#EBB000"/>
<path d="M98.6092 102.349C98.3559 102.714 98.0296 103.003 97.6582 103.191C97.2867 103.379 96.8812 103.461 96.4765 103.429C95.2743 103.429 94.5 102.541 94.5 101.383C94.5 100.225 95.3082 99.4739 96.6768 99.4621H98.5888V99.071C98.5888 98.093 98.0556 97.5062 97.03 97.5062C96.3616 97.5346 95.7174 97.8011 95.186 98.269L94.8226 97.5453C95.5068 96.9502 96.3426 96.6325 97.1998 96.6417C98.6329 96.6417 99.431 97.5179 99.4412 98.9575V103.382H98.6024L98.6092 102.349ZM98.6092 101.066V100.284H96.7855C95.8143 100.284 95.3082 100.624 95.3082 101.363C95.3082 102.103 95.8278 102.572 96.6497 102.572C97.6277 102.572 98.3782 101.993 98.599 101.066H98.6092Z" fill="#EBB000"/>
<path d="M103.146 94.8556C103.139 94.9813 103.096 95.1021 103.024 95.2031C102.952 95.304 102.853 95.3807 102.74 95.4236C102.627 95.4666 102.504 95.474 102.387 95.4448C102.269 95.4157 102.163 95.3513 102.08 95.2597C101.997 95.168 101.942 95.0531 101.921 94.929C101.9 94.8049 101.915 94.6772 101.962 94.5614C102.01 94.4457 102.089 94.3471 102.189 94.2777C102.29 94.2083 102.408 94.1713 102.528 94.171C102.613 94.1709 102.696 94.1888 102.774 94.2236C102.851 94.2585 102.921 94.3095 102.979 94.3737C103.037 94.4378 103.081 94.5136 103.11 94.5965C103.139 94.6794 103.151 94.7676 103.146 94.8556ZM102.071 103.412V96.7731H103.001V103.436L102.071 103.412Z" fill="#EBB000"/>
<path d="M106.084 98.1809C106.3 97.7089 106.667 97.3088 107.135 97.0342C107.603 96.7595 108.151 96.6232 108.706 96.6435V97.6566C108.376 97.6317 108.043 97.6697 107.729 97.7681C107.416 97.8664 107.127 98.0232 106.881 98.2285C106.636 98.4339 106.438 98.6836 106.301 98.9622C106.164 99.2408 106.09 99.5424 106.084 99.8483V103.436H105V96.6829H106.084V98.1809Z" fill="#EBB000"/>
<path d="M7.19089 86.9662C7.90949 86.98 8.62123 86.8254 9.26812 86.5148C9.91502 86.2042 10.4788 85.7465 10.9135 85.1789L12.8945 87.2037C11.3203 88.9633 9.46855 89.8431 7.33919 89.8431C6.36993 89.8766 5.40378 89.7163 4.49835 89.3717C3.59291 89.0271 2.76671 88.5052 2.06901 87.8372C0.735039 86.4764 -0.00775892 84.6512 6.11253e-05 82.7535C0.00788117 80.8558 0.765696 79.0367 2.11084 77.6868C2.78796 77.0204 3.59344 76.4961 4.47928 76.1449C5.36512 75.7938 6.31317 75.6232 7.26694 75.6431C8.35052 75.6251 9.42456 75.8465 10.4111 76.2913C11.3977 76.7361 12.272 77.3931 12.9706 78.2147L11.0504 80.3752C10.6286 79.8122 10.0791 79.3556 9.44617 79.0424C8.81329 78.7293 8.11491 78.5684 7.40763 78.5729C6.30355 78.552 5.23455 78.9577 4.42652 79.704C4.01499 80.0901 3.69147 80.5591 3.47768 81.0793C3.26388 81.5996 3.16475 82.1591 3.18693 82.7205C3.16081 83.2848 3.25122 83.8485 3.45261 84.3769C3.65399 84.9053 3.96212 85.3874 4.35808 85.7935C4.72412 86.1709 5.16443 86.4697 5.65172 86.6714C6.13902 86.8732 6.6629 86.9735 7.19089 86.9662Z" fill="#666666"/>
<path d="M25.1673 89.8475L23.8883 86.7841H18.1271L16.867 89.8475H13.5884L19.508 75.6416H22.4772L28.4119 89.8319L25.1673 89.8475ZM21.0171 79.8819L19.2892 84.0014H22.7262L21.0171 79.8819Z" fill="#666666"/>
<path d="M41.1112 80.3691C41.1112 82.6425 40.2147 84.1105 38.4217 84.7731L41.9999 89.8397H38.119L34.9832 85.3226H32.8099V89.8475H29.647V75.6416H35.0065C37.2031 75.6416 38.7697 76.0144 39.7063 76.7601C40.6429 77.5058 41.1112 78.7088 41.1112 80.3691ZM37.3079 82.0527C37.5196 81.832 37.6815 81.568 37.7826 81.2789C37.8837 80.9897 37.9217 80.6821 37.8939 80.3769C37.8939 79.5974 37.6921 79.0868 37.2885 78.8179C36.8849 78.549 36.1786 78.3892 35.1656 78.3892H32.8099V82.5789H35.1152C36.1889 82.5789 36.9198 82.4035 37.3079 82.0527Z" fill="#666666"/>
<path d="M47.5164 78.7193C47.3702 78.8339 47.2535 78.9804 47.1753 79.1469C47.0972 79.3135 47.0599 79.4956 47.0664 79.6787C47.0643 79.8712 47.1145 80.0607 47.2118 80.2279C47.3091 80.3951 47.4501 80.5341 47.6203 80.6307C47.9869 80.8639 48.8344 81.1411 50.1627 81.4622C51.2919 81.6938 52.3474 82.1881 53.2398 82.9032C53.9809 83.5479 54.3515 84.4822 54.3515 85.7063C54.3682 86.2771 54.2494 86.8439 54.0045 87.3623C53.7595 87.8806 53.3951 88.3364 52.9398 88.6938C51.8802 89.4963 50.5628 89.9032 49.2242 89.8413C46.9828 89.8322 44.8337 88.9668 43.2354 87.4295L45.097 85.1946C46.6048 86.4889 47.9998 87.1361 49.2819 87.1361C49.7634 87.1608 50.2396 87.0284 50.6358 86.7598C50.7934 86.6485 50.9207 86.5012 51.0065 86.3306C51.0923 86.1601 51.1341 85.9716 51.1282 85.7816C51.1339 85.5883 51.0888 85.3969 50.9972 85.2256C50.9056 85.0543 50.7706 84.9089 50.6051 84.8033C49.965 84.4429 49.2684 84.1886 48.5434 84.0508C46.9125 83.6745 45.7201 83.1816 44.9662 82.5721C44.197 81.9664 43.8354 81.0107 43.8354 79.7126C43.8053 79.1348 43.9199 78.5586 44.1692 78.034C44.4186 77.5094 44.7952 77.0524 45.2663 76.7026C46.3057 75.9717 47.5641 75.5998 48.8434 75.6453C49.7982 75.6493 50.7458 75.8082 51.6474 76.1156C52.5403 76.4047 53.3691 76.8566 54.0899 77.4476L52.509 79.6825C51.4432 78.8336 50.1176 78.358 48.7434 78.3317C48.3007 78.3168 47.8666 78.4539 47.5164 78.7193Z" fill="#666666"/>
<path d="M66.4957 75.6416V78.4664H59.8028V81.3926H65.8201V84.0964H59.8028V87.0422H66.7061V89.8475H56.8237V75.6416H66.4957Z" fill="#666666"/>
<path d="M80.685 80.3717C80.685 82.6464 79.8345 84.1152 78.1336 84.7781L81.5292 89.8475H77.8424L74.8671 85.3201H72.7951V89.8475H69.7939V75.6416H74.8818C76.9686 75.6416 78.4569 76.0146 79.3466 76.7607C80.2364 77.5068 80.6825 78.7105 80.685 80.3717ZM77.0755 82.0563C77.2766 81.8354 77.4304 81.5713 77.5265 81.282C77.6226 80.9926 77.6586 80.6848 77.6322 80.3795C77.6322 79.5996 77.4405 79.0887 77.0571 78.8197C76.6736 78.5506 75.9989 78.3907 75.0404 78.3907H72.7951V82.5827H74.9814C76.0063 82.5827 76.7044 82.4072 77.0755 82.0563Z" fill="#666666"/>
<path d="M88.943 84.7012L92.4274 75.6416H95.7352L90.2323 89.8475H87.6499L82.147 75.6416H85.4548L88.943 84.7012Z" fill="#666666"/>
<path d="M97.5884 75.6416H100.677V89.8475H97.5884V75.6416Z" fill="#666666"/>
<path d="M110.342 86.9677C111.062 86.9816 111.774 86.827 112.422 86.5166C113.07 86.2061 113.634 85.7487 114.07 85.1814L116.053 87.2051C114.482 88.9639 112.628 89.8432 110.491 89.8432C109.521 89.8762 108.554 89.7157 107.648 89.3713C106.742 89.0269 105.916 88.5055 105.218 87.8383C103.883 86.4778 103.14 84.6541 103.147 82.7579C103.154 80.8617 103.911 79.0436 105.256 77.6929C105.932 77.0269 106.736 76.5022 107.621 76.15C108.506 75.7978 109.453 75.6253 110.407 75.6428C111.491 75.6242 112.565 75.8441 113.553 76.2866C114.541 76.7291 115.417 77.3833 116.118 78.2017L114.214 80.3725C113.792 79.8095 113.242 79.3527 112.608 79.0391C111.975 78.7255 111.275 78.5639 110.567 78.5673C109.461 78.5465 108.391 78.9519 107.582 79.6979C107.166 80.0872 106.84 80.5608 106.626 81.0863C106.411 81.6118 106.314 82.1769 106.341 82.743C106.315 83.307 106.405 83.8704 106.607 84.3986C106.808 84.9267 107.117 85.4086 107.513 85.8145C107.88 86.1879 108.321 86.4829 108.807 86.6812C109.294 86.8796 109.816 86.9771 110.342 86.9677Z" fill="#666666"/>
<path d="M128.261 75.6416V78.4664H121.584V81.3926H127.59V84.0964H121.584V87.0422H128.471V89.8475H118.588V75.6416H128.261Z" fill="#666666"/>
<path d="M74.3336 2.51679C64.1233 -3.96227 49.41 4.16854 41.478 20.6785C40.9849 21.7056 39.9146 24.0309 39.4979 25.0731C39.4979 25.0731 42.7204 23.5116 42.8542 23.2332C43.0224 22.8758 43.8137 21.2353 44.001 20.8854C51.3137 6.56526 63.9666 -0.56095 72.2884 4.73291C80.8358 10.1547 81.1646 26.6646 73.9551 41.6771C66.7456 56.6895 54.6929 64.5494 46.1493 59.1314C42.6554 56.9153 40.3733 52.7878 39.3794 47.6708C38.6055 47.7572 37.8226 47.7242 37.0591 47.573C38.1524 54.0595 41.0346 59.3986 45.6027 62.2957C55.8167 68.7748 70.5262 60.644 78.4582 44.134C86.3901 27.6241 84.5438 8.99585 74.3336 2.51679Z" fill="#4BB0EB"/>
<path d="M39.146 33.0239C37.8666 33.0394 36.6201 33.4509 35.5635 34.2068C34.5069 34.9627 33.6873 36.0291 33.2078 37.2719C32.7284 38.5147 32.6106 39.8783 32.8692 41.191C33.1278 42.5038 33.7513 43.7071 34.6612 44.6495C35.5711 45.5919 36.7267 46.2313 37.9826 46.4871C39.2386 46.743 40.5387 46.604 41.7194 46.0875C42.9001 45.571 43.9086 44.7002 44.618 43.5847C45.3273 42.4691 45.7059 41.1587 45.7059 39.8182C45.6951 38.0062 44.9981 36.2728 43.7681 34.9988C42.538 33.7249 40.8756 33.0146 39.146 33.0239Z" fill="#1C75BC"/>
<path d="M38.8954 31.8331C41.0627 31.825 43.1446 32.6787 44.6842 34.2067C46.2238 35.7346 47.0952 37.8121 47.1072 39.9829C47.104 41.4235 46.7129 42.8365 45.975 44.073H66.2178C59.5872 55.1713 51.5414 57.4167 46.7298 54.8425C45.4134 54.1232 44.254 53.1473 43.3201 51.9723C42.3861 50.7972 41.6965 49.4468 41.2917 48.0005C41.6085 49.4373 42.0234 50.8506 42.5333 52.2304C44.3372 56.4868 47.6242 59.5827 52.1301 59.5827C60.6816 59.5827 68.4406 49.4483 72.3201 41.2304C79.1507 26.7716 78.8412 11.0162 71.2521 6.11718C64.663 1.8608 54.8511 6.94124 48.0318 17.4574C59.9269 1.21063 71.2559 4.43126 73.3315 15.4389C73.5797 16.8199 73.706 18.2202 73.7088 19.6234C70.7841 19.2189 68.15 18.9695 65.7838 18.8409C56.5078 18.289 56.5078 19.8011 42.7635 27.6183C25.17 27.7922 19.147 34.8307 19.147 34.8307V36.6376C21.9132 35.5519 24.8558 34.9868 27.8268 34.9706L24.9322 40.6407C24.9322 40.6407 21.1358 41.117 19.1507 41.4912V44.073H31.8195C31.0816 42.8365 30.6905 41.4235 30.6873 39.9829C30.6993 37.8127 31.5702 35.7359 33.109 34.208C34.6477 32.6801 36.7287 31.826 38.8954 31.8331ZM60.3457 21.6798C62.5798 21.2262 67.4858 21.4227 73.6183 22.3375C73.4655 24.3413 73.1666 26.3311 72.7239 28.2912C66.9197 28.3743 61.5949 28.1853 56.4587 28.2685C56.8361 27.6372 57.0437 26.8472 56.3417 26.3784C55.4209 25.7661 53.8133 26.7564 52.6094 28.4008C50.7942 28.4953 48.9979 28.6389 47.1978 28.8619C47.1978 28.8619 55.9908 22.5719 60.3457 21.6798Z" fill="#1C75BC"/>
<path d="M94.5002 33.0238C93.1564 33.0238 91.8429 33.4223 90.7256 34.1688C89.6083 34.9154 88.7375 35.9765 88.2232 37.218C87.709 38.4594 87.5745 39.8255 87.8366 41.1434C88.0988 42.4613 88.7458 43.6719 89.696 44.6221C90.6462 45.5723 91.8568 46.2194 93.1747 46.4815C94.4926 46.7437 95.8587 46.6091 97.1002 46.0949C98.3416 45.5807 99.4027 44.7099 100.149 43.5926C100.896 42.4753 101.294 41.1617 101.294 39.818C101.294 38.016 100.578 36.2879 99.3044 35.0138C98.0302 33.7396 96.3021 33.0238 94.5002 33.0238Z" fill="#EBB000"/>
<path d="M109.254 33.964C108.065 34.0975 106.863 34.0656 105.683 33.8692C103.447 33.4708 102.421 30.9366 102.421 30.9366H108.668C108.49 30.2652 108.29 29.5443 108.04 28.7287C101.481 26.1129 94.7689 23.8995 87.9417 22.1011C87.5179 13.6221 84.4078 6.41401 78.8157 2.8517C77.9692 2.31585 77.0688 1.8708 76.1294 1.5239C81.5285 5.56421 84.0559 12.5257 84.7143 19.2861C85.2228 25.2081 84.6026 31.173 82.8868 36.8624C82.0882 39.6047 81.0762 42.2799 79.86 44.8634C74.6387 55.9221 66.4245 63.6613 58.0591 65.7592C66.4245 65.5392 77.1169 58.3691 83.6019 43.877H87.4082C86.6871 42.622 86.308 41.1988 86.3091 39.7504C86.3101 38.3019 86.6912 36.8793 87.414 35.6253C88.1369 34.3713 89.1761 33.33 90.4273 32.6061C91.6784 31.8822 93.0976 31.5011 94.5421 31.5011C95.9866 31.5011 97.4057 31.8822 98.6569 32.6061C99.9081 33.33 100.947 34.3713 101.67 35.6253C102.393 36.8793 102.774 38.3019 102.775 39.7504C102.776 41.1988 102.397 42.622 101.676 43.877H105.157C106.182 39.6774 108.94 39.0894 109.183 37.2304C109.343 36.1489 109.367 35.0516 109.254 33.964ZM89.2508 27.0101L87.8963 26.737C87.9341 26.1414 87.9606 25.5458 87.9719 24.9577C89.9129 25.4813 91.869 26.0579 93.8175 26.699C92.1074 27.0784 92.2436 27.6323 89.2508 27.0101Z" fill="#EBB000"/>
</svg>
