<svg width="99" height="105" viewBox="0 0 99 105" fill="none" xmlns="http://www.w3.org/2000/svg">
<path d="M9.44259 92.5247V92.4472L7.89341 92.0592V92.1368C7.6721 92.9902 7.37701 93.6885 6.86062 94.154C6.34423 94.6195 5.68029 94.8522 4.94259 94.8522C4.35242 94.8522 3.76226 94.697 3.24586 94.3867C2.72947 94.0764 2.36062 93.5333 2.06554 92.9126C1.77045 92.2144 1.69668 91.4386 1.69668 90.5852C1.69668 89.8869 1.77045 89.1887 1.99176 88.568C2.21308 87.9474 2.58193 87.4043 3.09832 87.0164C3.61472 86.6285 4.27865 86.4733 5.09013 86.4733C5.75406 86.4733 6.34423 86.6285 6.78685 87.0164C7.22947 87.3267 7.59833 87.9474 7.81964 88.6456V88.7232L9.36882 88.3353V88.2577C9.07374 87.2491 8.55734 86.4733 7.81964 85.8527C7.08193 85.3096 6.19669 84.9993 5.1639 84.9993C4.20488 84.9993 3.3934 85.232 2.58193 85.6199C1.84422 86.0854 1.18029 86.7061 0.737665 87.5595C0.295042 88.4129 0.0737305 89.4214 0.0737305 90.5076C0.0737305 91.5162 0.295042 92.5247 0.663895 93.4557C1.03275 94.3867 1.62291 95.0849 2.28685 95.5504C3.02455 96.0159 3.9098 96.2487 5.09013 96.2487C6.19669 96.2487 7.1557 95.9384 7.89341 95.3177C8.63111 94.6195 9.14751 93.6885 9.44259 92.5247Z" fill="#DBDBDB"/>
<path d="M22.0572 85.6194C21.2457 85.1539 20.3604 84.9211 19.4014 84.9211C17.926 84.9211 16.6719 85.4642 15.7129 86.4728C14.7539 87.4814 14.3113 88.9555 14.3113 90.7399C14.3113 91.6709 14.5326 92.6019 14.9014 93.4553C15.2703 94.3088 15.9342 95.007 16.6719 95.4725C17.4834 96.0156 18.3686 96.2484 19.3277 96.2484C20.2867 96.2484 21.0981 96.0156 21.9096 95.5501C22.7211 95.0846 23.3113 94.4639 23.7539 93.5329C24.1965 92.6795 24.4178 91.6709 24.4178 90.5847C24.4178 89.4986 24.1965 88.49 23.8276 87.6366C23.4588 86.7832 22.7949 86.0849 22.0572 85.6194ZM21.8358 93.6881C21.1719 94.3863 20.3604 94.7743 19.3277 94.7743C18.3686 94.7743 17.4834 94.3863 16.8195 93.6881C16.1555 92.9898 15.8605 91.9813 15.8605 90.6623C15.8605 89.1107 16.2293 87.9469 16.8932 87.2487C17.5572 86.5504 18.4424 86.2401 19.3277 86.2401C19.9916 86.2401 20.5818 86.3952 21.1719 86.7832C21.6883 87.0935 22.1309 87.6366 22.426 88.2572C22.7211 88.8779 22.8686 89.6537 22.8686 90.5072C22.8686 91.9037 22.4998 92.9898 21.8358 93.6881Z" fill="#DBDBDB"/>
<path d="M39.9835 85.2317H38.5081V96.2484H39.9835V85.2317Z" fill="#DBDBDB"/>
<path d="M35.0407 94.2314L34.5981 92.9125L32.0899 85.2317H31.9424V89.1884L34.2293 96.171H35.6309L37.9916 89.1884V85.3093L35.4834 92.7573C35.262 93.378 35.1145 93.8435 35.0407 94.2314Z" fill="#DBDBDB"/>
<path d="M31.4259 85.2317H29.8767V96.2484H31.4259V85.2317Z" fill="#DBDBDB"/>
<path d="M46.9918 85.2317H45.4426V96.2484H46.9918V85.2317Z" fill="#DBDBDB"/>
<path d="M52.4507 85.8524C52.0818 85.6196 51.6392 85.3869 51.1228 85.3093C50.754 85.2317 50.2376 85.2317 49.4999 85.2317H47.5818V86.7058H49.5736C50.1638 86.7058 50.6064 86.7058 50.8277 86.7834C51.1966 86.861 51.4179 87.0938 51.6392 87.4041C51.8605 87.7145 51.9343 88.1024 51.9343 88.4903C51.9343 89.111 51.7867 89.499 51.4179 89.8869C51.049 90.1973 50.4589 90.3524 49.5736 90.3524H47.5081V91.8266H49.5736C51.049 91.8266 52.1556 91.5162 52.672 90.818C53.2621 90.1973 53.5572 89.3438 53.5572 88.4128C53.5572 87.8696 53.4835 87.3265 53.2621 86.861C53.0408 86.4731 52.8195 86.0851 52.4507 85.8524Z" fill="#DBDBDB"/>
<path d="M64.6964 85.2317H63.0735L59.0161 96.2484H60.6391L61.0817 94.9295L62.262 91.5935L62.4833 90.8952L63.4423 88.4902C63.6637 87.9471 63.8112 87.404 63.885 86.8609C64.0325 87.404 64.2538 88.0247 64.5489 88.7229L65.5817 91.5935H62.926L62.4096 92.9124H66.0243L67.2784 96.1708H69.0489L64.6964 85.2317Z" fill="#DBDBDB"/>
<path d="M76.3523 88.7231L80.631 95.3952V92.6022L76.3523 85.9302V88.7231Z" fill="#DBDBDB"/>
<path d="M81.2212 93.4554V96.2484H82.7704V85.2317H81.2212V93.4554Z" fill="#DBDBDB"/>
<path d="M75.8355 85.2317H74.3601V96.2484H75.8355V85.2317Z" fill="#DBDBDB"/>
<path d="M94.2044 88.4904C93.8356 89.111 93.4667 89.7316 93.1716 90.2747L92.2864 91.6711V96.3259H93.8356V91.6711L98.1143 85.3096H96.27L94.2044 88.4904Z" fill="#DBDBDB"/>
<path d="M92.2132 88.5681L90.0738 85.2317H88.1558L91.9919 91.0511L92.8771 89.6544L92.2132 88.5681Z" fill="#DBDBDB"/>
<path d="M0 101.214H1.18032V104.628H1.91803V101.214H3.09835V100.515H0V101.214Z" fill="#DBDBDB"/>
<path d="M10.6231 100.515H9.81166L8.26245 104.628H9.07394L9.36903 103.697H10.9182L11.2871 104.628H12.1724L10.6231 100.515ZM9.66411 102.999L10.1805 101.447L10.6969 102.999H9.66411Z" fill="#DBDBDB"/>
<path d="M19.4015 103.154H20.2868V103.697C19.9917 103.93 19.6966 104.007 19.3278 104.007C18.9589 104.007 18.6638 103.852 18.5163 103.619C18.295 103.386 18.2212 102.999 18.2212 102.533C18.2212 101.602 18.59 101.136 19.3278 101.136C19.7704 101.136 20.0655 101.369 20.213 101.757L21.0245 101.602C20.877 100.826 20.2868 100.36 19.3278 100.36C18.8114 100.36 18.295 100.516 17.9261 100.904C17.5573 101.291 17.3359 101.757 17.3359 102.455C17.3359 103.076 17.4835 103.619 17.8523 104.007C18.2212 104.395 18.6638 104.628 19.3278 104.628C19.9917 104.628 20.5819 104.395 21.0245 104.007V102.455H19.3278V103.154H19.4015Z" fill="#DBDBDB"/>
<path d="M29.8031 100.515H29.0654V104.628H31.795V103.93H29.8031V100.515Z" fill="#DBDBDB"/>
<path d="M38.1392 100.515H37.3276V104.628H38.1392V100.515Z" fill="#DBDBDB"/>
<path d="M46.254 103.231L44.7048 100.515H43.8933V104.628H44.631V101.912L46.254 104.628H46.9917V100.515H46.254V103.231Z" fill="#DBDBDB"/>
<path d="M53.6311 102.843H55.6229V102.145H53.6311V101.214H55.7704V100.515H52.8196V104.628H55.8442V103.93H53.6311V102.843Z" fill="#DBDBDB"/>
<path d="M70.8931 102.145H69.3439V100.515H68.6062V104.628H69.3439V102.843H70.8931V104.628H71.7046V100.515H70.8931V102.145Z" fill="#DBDBDB"/>
<path d="M78.3442 102.843H80.2622V102.145H78.3442V101.214H80.4098V100.515H77.5327V104.628H80.4835V103.93H78.3442V102.843Z" fill="#DBDBDB"/>
<path d="M88.3767 102.843C89.0406 102.766 89.4095 102.378 89.4095 101.679C89.4095 101.214 89.2619 100.903 89.0406 100.748C88.8193 100.593 88.3767 100.515 87.8603 100.515H86.1636V104.628H86.975V102.921H87.1226C87.3439 102.921 87.4914 102.921 87.639 102.999C87.7128 103.076 87.8603 103.154 87.9341 103.309L88.8193 104.628H89.7783L89.3357 103.852C88.8931 103.309 88.598 102.999 88.3767 102.843ZM87.5652 102.223H86.975V101.214H87.5652C88.0078 101.214 88.2292 101.214 88.3767 101.291C88.5242 101.369 88.5242 101.524 88.5242 101.679C88.5242 101.912 88.4505 102.067 88.3029 102.145C88.2291 102.223 87.9341 102.223 87.5652 102.223Z" fill="#DBDBDB"/>
<path d="M95.9013 102.843H97.8931V102.145H95.9013V101.214H98.0406V100.515H95.1636V104.628H98.1144V103.93H95.9013V102.843Z" fill="#DBDBDB"/>
<path d="M45.6641 61.1816V62.8109H45.5904V62.8885H44.0412H24.5658H22.7216L23.0904 60.9489C23.1642 60.6386 23.238 60.2506 23.3118 59.9403C23.3855 59.63 23.4593 59.3196 23.5331 59.0093L23.6068 58.8542L23.6806 58.699C23.7544 58.4662 23.8281 58.2335 23.9019 58.0007C23.9757 57.8456 24.0495 57.6128 24.0495 57.4577C24.1232 57.2249 24.197 57.0697 24.2708 56.837C24.3445 56.6042 24.4921 56.2939 24.5658 56.0612C24.6396 55.8284 24.7134 55.5957 24.8609 55.3629C24.8609 55.2853 24.9347 55.2078 25.0085 55.0526C25.0822 54.8198 25.156 54.5871 25.3035 54.4319C25.3773 54.3543 25.3773 54.2768 25.4511 54.1992C25.5249 53.9664 25.6724 53.8113 25.7462 53.5785C25.7462 53.5009 25.8199 53.4233 25.8937 53.2682C26.0413 53.0354 26.1888 52.8027 26.2626 52.5699C26.4101 52.3372 26.4839 52.1044 26.6314 51.8717L26.7052 51.7941C26.779 51.7165 26.779 51.6389 26.8527 51.5613L26.9265 51.4838C27.074 51.251 27.2216 51.0183 27.3691 50.7855C27.5167 50.5528 27.738 50.2424 27.8855 50.0097C28.033 49.8545 28.1806 49.6218 28.3281 49.389L28.4019 49.3114C28.4757 49.2339 28.5494 49.1563 28.5494 49.0787C28.697 48.8459 28.8445 48.6908 28.9921 48.458C29.0658 48.3804 29.0658 48.3804 29.0658 48.3804C29.2134 48.1477 29.4347 47.9925 29.5822 47.7598C29.656 47.6822 29.656 47.6046 29.7298 47.6046C29.8773 47.3719 30.0986 47.2167 30.3199 46.9064C32.238 44.8892 34.3773 43.26 36.6642 41.9411H25.3035C22.3527 45.122 19.9921 48.7684 18.2954 52.8803C16.5249 57.2249 15.6396 61.8023 15.6396 66.5349V69.6382V70.1813H52.3772V40.2342V38.605V37.674V32.7863V9.43377V7.80452H52.451H54.0002H73.5493H75.3935L75.0247 9.7441C73.9919 15.0973 71.4837 19.9851 67.7952 23.8642C66.9837 24.7176 66.1723 25.4159 65.3608 26.1141H75.0985C77.0165 23.6315 78.6394 20.8385 79.8198 17.8127C81.5902 13.4681 82.4755 8.89069 82.4755 4.15812V0.511719H45.6641V61.1816Z" fill="#DBDBDB"/>
<path d="M22.574 31.3892V29.76V9.3558V7.41624L24.3445 7.80415C29.4346 8.89031 34.1559 11.5281 37.8444 15.4072C38.0657 15.64 38.3608 15.9503 38.5821 16.2606V6.64041C36.5903 5.08876 34.3772 3.84744 32.0904 2.83887C28.033 0.976889 23.6806 0.0458984 19.1806 0.0458984H15.7134V36.5097H38.6559V31.3892H24.0494H22.574Z" fill="#DBDBDB"/>
<path d="M75.0983 36.5094V38.1386V60.7153V62.6548L73.254 62.2669C68.1639 61.1808 63.5163 58.5429 59.754 54.6638C59.6803 54.5862 59.6065 54.5086 59.5327 54.431V63.8186C61.377 65.1375 63.3688 66.3012 65.5081 67.2322C69.6393 69.0942 73.9917 69.9476 78.4917 69.9476H81.9589V31.3889H59.5327V36.5094H73.5491H75.0983Z" fill="#DBDBDB"/>
</svg>
