<svg width="120" height="103" viewBox="0 0 120 103" fill="none" xmlns="http://www.w3.org/2000/svg">
<path d="M13.7964 98.678H14.6635V102.243H15.2942V98.678H16.1613V98.0977H13.7964V98.678Z" fill="#DBDBDB"/>
<path d="M21.2849 102.243H21.9156L22.3886 101.248H24.0441L24.4383 102.243H25.0689L23.1769 97.8486L21.2849 102.243ZM22.6251 100.668L23.2558 99.2582L23.8076 100.668H22.6251Z" fill="#DBDBDB"/>
<path d="M32.5582 98.5946C33.0312 98.5946 33.4254 98.8434 33.7407 99.258L34.1349 98.8434C33.8984 98.5117 33.6619 98.3458 33.3465 98.18C33.11 98.0142 32.7947 98.0142 32.4794 98.0142C31.9275 98.0142 31.4545 98.2629 30.9815 98.6775C30.5873 99.0921 30.3508 99.5896 30.3508 100.17C30.3508 100.751 30.5085 101.248 30.9027 101.663C31.2968 102.077 31.7698 102.326 32.3217 102.326C32.8735 102.326 33.3465 102.077 33.7407 101.663C33.8984 101.497 34.056 101.248 34.056 100.999C34.1349 100.751 34.1349 100.502 34.1349 100.17V100.004H32.4794V100.585H33.4254C33.4254 100.916 33.2677 101.165 33.0312 101.331C32.7947 101.58 32.5582 101.663 32.2428 101.663C31.9275 101.663 31.6122 101.497 31.2968 101.248C30.9815 100.916 30.8238 100.585 30.8238 100.087C30.8238 99.6726 30.9815 99.258 31.218 99.0092C31.7698 98.7604 32.0852 98.5946 32.5582 98.5946Z" fill="#DBDBDB"/>
<path d="M41.1516 98.0977V102.243H42.8859V101.662H41.7034V98.0977H41.1516Z" fill="#DBDBDB"/>
<path d="M49.3504 98.0977H48.7197V102.243H49.3504V98.0977Z" fill="#DBDBDB"/>
<path d="M58.9674 102.491V98.0975H58.3367V100.999L55.4988 97.7659V102.243H56.0506V99.341L58.9674 102.491Z" fill="#DBDBDB"/>
<path d="M67.3243 98.678V98.0977H65.1169V102.243H67.3243V101.662H65.7476V100.253H67.2454V99.6728H65.7476V98.678H67.3243Z" fill="#DBDBDB"/>
<path d="M80.8045 102.243V98.0977H80.2527V99.6728H78.5184V98.0977H77.9666V102.243H78.5184V100.253H80.2527V102.243H80.8045Z" fill="#DBDBDB"/>
<path d="M89.1607 98.678V98.0977H87.0322V102.243H89.1607V101.662H87.584V100.253H89.1607V99.6728H87.584V98.678H89.1607Z" fill="#DBDBDB"/>
<path d="M97.4386 99.2578C97.4386 98.8433 97.2809 98.5945 97.0444 98.3458C96.8079 98.18 96.4137 98.0142 95.9407 98.0142H95.2312V102.16H95.8619V100.501H95.9407L97.0444 102.16H97.7539L96.4925 100.419C96.729 100.336 96.9655 100.253 97.1232 100.004C97.3597 99.8382 97.4386 99.5895 97.4386 99.2578ZM96.0195 100.004H95.8619V98.6774H96.0984C96.6502 98.6774 96.8867 98.9262 96.8867 99.3407C96.8079 99.7553 96.5714 100.004 96.0195 100.004Z" fill="#DBDBDB"/>
<path d="M103.587 102.243H105.795V101.662H104.218V100.253H105.716V99.6728H104.218V98.678H105.795V98.0977H103.587V102.243Z" fill="#DBDBDB"/>
<path d="M9.14498 90.6357C8.90847 90.8844 8.75081 91.1331 8.43547 91.3819C8.19897 91.5477 7.88364 91.7135 7.48947 91.8793C7.17413 92.0451 6.77996 92.0451 6.30696 92.0451C5.75512 92.0451 5.20329 91.9622 4.80912 91.7135C4.33612 91.4648 3.94195 91.1331 3.62661 90.7186C3.31128 90.3041 3.07478 89.8066 2.83828 89.2263C2.68061 88.6459 2.60177 88.0655 2.60177 87.4023C2.60177 86.6561 2.68061 85.9928 2.83828 85.3296C2.99594 84.7492 3.23244 84.2518 3.54778 83.8373C3.86311 83.4227 4.25728 83.0911 4.65145 82.9253C5.12445 82.6765 5.51862 82.5936 6.07046 82.5936C6.54346 82.5936 6.93763 82.6765 7.25296 82.8424C7.5683 83.0082 7.88364 83.2569 8.12014 83.5885C8.35664 83.9202 8.51431 84.2518 8.67197 84.6663C8.82964 85.0809 8.98731 85.4954 9.06614 85.827H9.69681L9.77565 82.262H9.14498L8.82964 82.7594C8.43547 82.5107 8.0413 82.3449 7.5683 82.262C7.0953 82.0962 6.6223 82.0962 6.07046 82.0962C5.36096 82.0962 4.65145 82.262 4.02078 82.5107C3.39011 82.7595 2.83828 83.174 2.36527 83.6714C1.89227 84.1689 1.4981 84.7492 1.2616 85.4125C1.0251 86.0758 0.867432 86.8219 0.867432 87.651C0.867432 88.4801 1.0251 89.2263 1.2616 89.8895C1.57694 90.5528 1.89227 91.1331 2.36527 91.5477C2.83828 92.0451 3.39011 92.3767 3.94195 92.6255C4.57262 92.8742 5.20329 92.9571 5.83396 92.9571C6.8588 92.9571 7.72597 92.7084 8.51431 92.2938C9.22381 91.8793 9.85448 91.1331 10.3275 90.0553L9.77565 89.8066C9.53914 90.0553 9.38148 90.387 9.14498 90.6357Z" fill="#DBDBDB"/>
<path d="M27.7496 89.6408C28.0649 88.9775 28.1437 88.2313 28.1437 87.4022C28.1437 86.5731 27.9861 85.8269 27.7496 85.1636C27.4342 84.5004 27.1189 83.92 26.5671 83.4226C26.0941 82.9251 25.5422 82.5935 24.9116 82.3447C24.2809 82.096 23.5714 81.9302 22.8619 81.9302C22.1524 81.9302 21.4429 82.096 20.8122 82.3447C20.1816 82.5935 19.6297 82.9251 19.0779 83.4226C18.6049 83.92 18.2107 84.5004 17.8954 85.1636C17.5801 85.8269 17.5012 86.5731 17.5012 87.4022C17.5012 88.1484 17.6589 88.8946 17.8954 89.5579C18.1319 90.2211 18.5261 90.8015 18.9991 91.299C19.4721 91.7964 20.0239 92.1281 20.6546 92.4597C21.2852 92.7084 21.9947 92.8742 22.7831 92.8742C23.4926 92.8742 24.2021 92.7084 24.8327 92.4597C25.4634 92.211 26.0152 91.8793 26.4882 91.3819C27.0401 90.9673 27.4342 90.387 27.7496 89.6408ZM26.0941 89.3091C25.9364 89.8895 25.7787 90.387 25.4634 90.8015C25.1481 91.216 24.8327 91.5477 24.3597 91.7964C23.8867 92.0451 23.4137 92.1281 22.8619 92.1281C22.2312 92.1281 21.7582 92.0451 21.3641 91.7964C20.9699 91.5477 20.5757 91.216 20.3392 90.8015C20.0239 90.387 19.8662 89.8895 19.7086 89.3091C19.5509 88.7288 19.4721 88.1484 19.4721 87.4022C19.4721 86.7389 19.5509 86.1586 19.6297 85.5782C19.7874 84.9978 19.9451 84.5004 20.1816 84.0858C20.4969 83.6713 20.8122 83.2567 21.2852 83.008C21.7582 82.7593 22.2312 82.5935 22.8619 82.5935C23.4137 82.5935 23.8867 82.6764 24.3597 82.9251C24.7539 83.1738 25.1481 83.5055 25.4634 83.92C25.7787 84.3346 25.9364 84.832 26.0941 85.4124C26.2517 85.9927 26.3306 86.656 26.3306 87.4022C26.2517 88.1484 26.1729 88.7288 26.0941 89.3091Z" fill="#DBDBDB"/>
<path d="M37.2883 91.1334C37.2095 91.3822 37.1306 91.6309 36.8941 91.7967C36.7365 91.8796 36.5788 91.9626 36.2635 92.0455C36.027 92.1284 35.7905 92.1284 35.554 92.1284V92.6259H40.0475V92.1284C39.9686 92.1284 39.7321 92.0455 39.338 91.9625C38.9438 91.8796 38.7073 91.7967 38.6285 91.6309C38.4708 91.4651 38.3131 91.2992 38.2343 90.9676C38.1555 90.6359 38.0766 90.2214 38.0766 89.5581V83.3396H38.1555L41.7818 92.3771H42.176L45.96 83.5054H46.0388V91.0505C46.0388 91.2163 46.0388 91.3822 45.96 91.4651C45.8811 91.548 45.8023 91.7138 45.5658 91.7967C45.487 91.8796 45.2505 91.8796 45.014 91.9625C44.6986 91.9625 44.541 92.0455 44.3045 92.0455V92.5429H49.1921V92.0455C49.0345 92.0455 48.8768 92.0455 48.6403 91.9625C48.4038 91.9625 48.2461 91.8796 48.1673 91.7967C48.0096 91.7138 47.852 91.6309 47.7731 91.4651C47.6943 91.3822 47.6943 91.2163 47.6943 91.0505V83.5883C47.6943 83.4225 47.6943 83.2567 47.7731 83.1738C47.852 83.0079 47.9308 82.925 48.1673 82.8421C48.2461 82.8421 48.4038 82.7592 48.6403 82.7592C48.8768 82.7592 49.0345 82.6763 49.1921 82.6763V82.2617H45.7235C45.7235 82.3446 45.6446 82.5105 45.6446 82.7592C45.5658 83.0079 45.487 83.2567 45.4081 83.5054L42.7278 90.0555L39.4168 82.2617H35.6328V82.7592C35.8693 82.7592 36.1058 82.8421 36.3423 82.8421C36.5788 82.8421 36.7365 83.0079 36.973 83.1738C37.1306 83.2567 37.2095 83.4225 37.2883 83.6712C37.3671 83.8371 37.3671 84.0858 37.3671 84.4175V89.7239C37.3671 90.3872 37.3671 90.8018 37.2883 91.1334Z" fill="#DBDBDB"/>
<path d="M65.3529 86.2411C65.5894 85.8266 65.6683 85.3291 65.6683 84.8317C65.6683 84.0855 65.3529 83.4223 64.7223 83.0077C64.0916 82.5103 63.2245 82.3445 62.1996 82.3445H57.1543V82.8419C57.312 82.8419 57.4696 82.8419 57.6273 82.9248C57.785 82.9248 58.0215 83.0077 58.1791 83.0906C58.3368 83.1735 58.4945 83.2565 58.5733 83.4223C58.6521 83.5881 58.6521 83.7539 58.6521 83.9197V91.3813C58.6521 91.5471 58.6521 91.7129 58.5733 91.8787C58.4945 91.9616 58.4156 92.1275 58.258 92.1275C58.1791 92.1275 58.0215 92.2104 57.785 92.2104C57.5485 92.2104 57.3908 92.2933 57.2331 92.2933V92.7907H61.9631V92.2933C61.7266 92.2933 61.569 92.2933 61.3325 92.2104C61.096 92.2104 60.9383 92.1275 60.8595 92.1275C60.7018 92.0445 60.5441 91.9616 60.4653 91.7958C60.3865 91.63 60.3865 91.5471 60.3865 91.3813V88.065H61.6478C62.1996 88.065 62.6726 87.9821 63.1456 87.8992C63.6186 87.7334 64.0916 87.5676 64.4858 87.3189C64.8011 86.9872 65.1164 86.6556 65.3529 86.2411ZM63.6975 85.8266C63.6186 86.0753 63.5398 86.324 63.3821 86.5727C63.2245 86.8214 62.9091 86.9872 62.5938 87.1531C62.2785 87.3189 61.8055 87.4018 61.2536 87.4018H60.4653V82.8419H61.4901C61.9631 82.8419 62.2785 82.9248 62.5938 83.0077C62.9091 83.1735 63.1456 83.3394 63.3033 83.5052C63.461 83.7539 63.6186 84.0026 63.6975 84.2513C63.7763 84.5001 63.7763 84.8317 63.7763 85.0804C63.7763 85.3291 63.7763 85.5778 63.6975 85.8266Z" fill="#DBDBDB"/>
<path d="M83.7209 92.1278C83.5633 92.1278 83.4056 92.1278 83.2479 92.0449C83.0903 91.962 82.9326 91.962 82.7749 91.8791C82.6173 91.7961 82.4596 91.6303 82.3808 91.5474C82.3019 91.4645 82.2231 91.2987 82.1443 91.05L78.4391 82.0962H77.8084C77.2566 83.3398 76.7048 84.8321 75.9953 86.4073C75.2858 88.0654 74.7339 89.4748 74.1821 90.8013C74.1033 91.05 73.9456 91.2158 73.8668 91.3816C73.7879 91.5474 73.5514 91.6303 73.3938 91.7961C73.2361 91.8791 73.0784 91.962 72.9208 91.962C72.6843 92.0449 72.5266 92.0449 72.4478 92.0449V92.5423H76.4683V92.0449C76.0741 92.0449 75.6799 91.962 75.3646 91.8791C75.0493 91.7961 74.8916 91.6303 74.8916 91.4645C74.8916 91.3816 74.8916 91.2987 74.8916 91.1329C74.8916 90.9671 74.9704 90.8013 75.0493 90.6355C75.1281 90.3868 75.2069 90.2209 75.2858 89.9722C75.3646 89.7235 75.5223 89.3919 75.6799 89.0603H79.5428L80.4888 91.3816C80.4888 91.4645 80.4888 91.4645 80.5676 91.5474C80.5676 91.6303 80.5676 91.6303 80.5676 91.7132C80.5676 91.7962 80.4099 91.8791 80.1734 91.962C79.9369 92.0449 79.5428 92.0449 79.1486 92.1278V92.6252H83.7998V92.1278H83.7209ZM75.9164 88.397L77.5719 84.3346L79.2274 88.397H75.9164Z" fill="#DBDBDB"/>
<path d="M100.119 92.709V85.0808C100.119 84.5833 100.119 84.0859 100.198 83.7542C100.277 83.4225 100.356 83.1738 100.592 83.0909C100.75 83.008 100.907 82.925 101.223 82.8421C101.538 82.7592 101.775 82.7592 101.932 82.7592V82.2617H97.4387V82.7592C97.5964 82.7592 97.8329 82.8421 98.2271 82.925C98.5424 83.008 98.7789 83.0909 98.9366 83.1738C99.0942 83.2567 99.2519 83.5054 99.3307 83.8371C99.4096 84.1688 99.4884 84.6663 99.4884 85.2467V90.2216L93.2605 82.2617H90.1072V82.7592C90.3437 82.7592 90.5802 82.8421 90.8955 82.925C91.2109 83.008 91.4474 83.1738 91.6839 83.3396C91.8415 83.4225 91.9203 83.6713 91.9992 83.8371C92.078 84.0858 92.1569 84.2517 92.1569 84.5004V89.6412C92.1569 90.3045 92.1569 90.802 92.078 91.0507C91.9992 91.2995 91.9204 91.5482 91.6839 91.714C91.605 91.7969 91.3685 91.8799 91.0532 91.9628C90.7378 92.0457 90.5013 92.1286 90.3437 92.1286V92.6261H94.916V92.1286C94.7584 92.1286 94.5219 92.0457 94.2065 91.9628C93.8124 91.8799 93.5759 91.7969 93.497 91.6311C93.3394 91.4653 93.1817 91.2995 93.1029 90.9678C93.024 90.6361 92.9452 90.2216 92.9452 89.5582V84.1688L99.6461 92.709H100.119Z" fill="#DBDBDB"/>
<path d="M114.86 82.2617V82.7592C115.018 82.7592 115.176 82.7592 115.333 82.7592C115.491 82.7592 115.649 82.7592 115.806 82.8421C115.964 82.8421 116.043 82.925 116.122 83.0079C116.2 83.0909 116.279 83.1738 116.279 83.2567C116.279 83.4225 116.043 83.8371 115.649 84.5004C115.254 85.1637 114.624 86.1586 113.757 87.4023C113.362 86.739 113.047 86.1586 112.732 85.7441C112.495 85.3295 112.259 84.9149 111.943 84.4175C111.865 84.2516 111.786 84.0858 111.707 83.92C111.628 83.7542 111.549 83.5883 111.47 83.5054C111.392 83.4225 111.392 83.3396 111.313 83.2567C111.313 83.1738 111.234 83.1738 111.234 83.0908C111.234 83.0079 111.313 82.925 111.549 82.8421C111.786 82.7592 112.18 82.7592 112.653 82.7592V82.2617H107.923V82.7592C108.081 82.7592 108.238 82.7592 108.396 82.8421C108.554 82.8421 108.711 82.925 108.869 83.0079C109.027 83.0909 109.184 83.2567 109.342 83.4225C109.5 83.5883 109.657 83.7542 109.815 84.0858C110.13 84.5833 110.446 85.0808 110.84 85.7441C111.234 86.4074 111.549 86.9878 111.865 87.5682C112.022 87.8169 112.101 88.0656 112.259 88.2315C112.338 88.4802 112.416 88.5631 112.416 88.646V91.1334C112.416 91.2992 112.416 91.4651 112.338 91.6309C112.259 91.7967 112.101 91.8796 111.943 91.9625C111.865 92.0455 111.628 92.0455 111.313 92.0455C110.997 92.0455 110.84 92.1284 110.682 92.1284V92.6259H115.885V92.1284C115.727 92.1284 115.491 92.1284 115.176 92.0455C114.86 91.9626 114.703 91.9625 114.624 91.8796C114.466 91.7967 114.308 91.7138 114.23 91.548C114.151 91.3822 114.151 91.2992 114.151 91.0505V89.0606C114.151 88.7289 114.151 88.3973 114.23 88.2315C114.308 88.0656 114.387 87.8169 114.624 87.4852C115.176 86.6561 115.57 85.9099 115.885 85.4124C116.2 84.832 116.595 84.3345 116.989 83.7542C117.225 83.5054 117.304 83.3396 117.383 83.2567C117.462 83.1738 117.619 83.0909 117.777 83.0079C117.856 82.925 118.014 82.925 118.171 82.8421C118.329 82.7592 118.487 82.7592 118.565 82.7592V82.2617H114.86Z" fill="#DBDBDB"/>
<path d="M119.512 21.9046H83.327H82.9328L101.222 0.182617H60.7018H55.0258H18.2894L36.5787 21.9046H0L20.2602 45.948L41.4664 71.0692L59.7558 49.3472L78.0452 71.0692L97.99 47.4403L119.512 21.9046ZM55.0258 4.74257L41.4664 20.7439L27.9071 4.74257H55.0258ZM109.894 26.4646L96.4134 42.4659L82.854 26.3816H109.894V26.4646ZM41.4664 27.6253L54.9469 43.6266H27.9859L41.4664 27.6253ZM46.2753 26.4646H73.3152L59.7558 42.4659L46.2753 26.4646ZM78.0452 27.6253L91.5257 43.6266H64.6435L78.0452 27.6253ZM46.2753 21.9046L59.7558 5.90329L73.2363 21.9046H46.2753ZM78.0452 20.7439L64.5646 4.74257H91.6045L78.0452 20.7439ZM36.6576 26.4646L23.177 42.4659L9.61769 26.4646H36.6576ZM55.0258 48.1865L41.4664 64.1878L27.9071 48.1865H55.0258ZM91.6045 48.1865L78.0452 64.1878L64.5646 48.1865H91.6045Z" fill="#DBDBDB"/>
</svg>
