<svg width="99" height="107" viewBox="0 0 99 107" fill="none" xmlns="http://www.w3.org/2000/svg">
<path d="M9.46229 101.14V102.355H9.48507C9.60375 101.953 9.8368 101.608 10.1471 101.376C10.4574 101.143 10.827 101.035 11.1972 101.07V101.705C10.9647 101.686 10.7315 101.725 10.5137 101.82C10.3158 101.902 10.1343 102.028 9.97983 102.191C9.82956 102.361 9.71203 102.565 9.6348 102.789C9.55125 103.025 9.50922 103.278 9.51111 103.532V106.289H8.95776V101.14H9.46229Z" fill="#878C91"/>
<path d="M11.9085 104.518C11.9663 104.745 12.0675 104.958 12.2066 105.147C12.3437 105.334 12.5186 105.491 12.7203 105.608C12.948 105.735 13.2063 105.797 13.4674 105.789C13.8492 105.809 14.2239 105.682 14.5126 105.434C14.7754 105.186 14.9579 104.866 15.037 104.515H15.6477C15.5516 105.013 15.3004 105.468 14.9293 105.818C14.5187 106.144 14.0011 106.311 13.4746 106.286C13.1219 106.296 12.7717 106.225 12.4509 106.08C12.1676 105.954 11.9207 105.76 11.7325 105.516C11.5468 105.265 11.4103 104.982 11.3302 104.682C11.2414 104.355 11.1967 104.019 11.1973 103.681C11.1981 103.357 11.2428 103.035 11.3302 102.722C11.4118 102.421 11.5482 102.138 11.7325 101.885C11.9212 101.633 12.1673 101.429 12.4509 101.288C12.7685 101.132 13.12 101.056 13.4746 101.065C13.8124 101.051 14.1481 101.124 14.4494 101.276C14.7507 101.427 15.0075 101.653 15.1951 101.931C15.3771 102.202 15.5062 102.504 15.5758 102.822C15.6546 103.157 15.6872 103.501 15.6728 103.844H11.8187C11.8196 104.072 11.8498 104.298 11.9085 104.518ZM14.9365 102.673C14.8651 102.469 14.7581 102.279 14.6204 102.112C14.4828 101.951 14.3143 101.818 14.1247 101.721C13.921 101.62 13.6955 101.569 13.4674 101.572C13.2346 101.568 13.004 101.619 12.7957 101.721C12.6065 101.817 12.439 101.95 12.3036 102.112C12.1635 102.282 12.053 102.474 11.9767 102.68C11.8975 102.892 11.8444 103.112 11.8187 103.337H15.0514C15.0475 103.112 15.0088 102.889 14.9365 102.676V102.673Z" fill="#878C91"/>
<path d="M16.0661 101.976C16.1605 101.773 16.2993 101.595 16.4715 101.456C16.6537 101.319 16.8594 101.218 17.0779 101.16C17.3279 101.093 17.5854 101.06 17.8437 101.063C18.0575 101.064 18.2709 101.085 18.4813 101.124C18.684 101.163 18.8771 101.243 19.0495 101.359C19.2258 101.483 19.3679 101.651 19.4619 101.848C19.5784 102.102 19.6331 102.381 19.6213 102.661V105.3C19.615 105.349 19.6196 105.398 19.6348 105.444C19.65 105.49 19.6754 105.532 19.7089 105.567C19.7424 105.601 19.7832 105.627 19.8281 105.643C19.873 105.659 19.9208 105.663 19.9678 105.657C20.0319 105.658 20.0956 105.646 20.1549 105.621V106.131L19.9712 106.16C19.9043 106.164 19.8372 106.164 19.7703 106.16C19.652 106.164 19.5341 106.143 19.4238 106.099C19.3389 106.062 19.2666 106 19.2159 105.921C19.163 105.838 19.1286 105.744 19.1154 105.646C19.0993 105.528 19.0912 105.409 19.0911 105.289C18.9922 105.439 18.8846 105.582 18.7689 105.717C18.6626 105.838 18.5401 105.943 18.405 106.028C18.2623 106.117 18.1068 106.182 17.9442 106.22C17.7434 106.27 17.5372 106.292 17.3308 106.288C17.118 106.29 16.9058 106.263 16.7002 106.206C16.5131 106.158 16.3382 106.069 16.1874 105.946C16.031 105.844 15.9004 105.706 15.8062 105.543C15.7158 105.338 15.672 105.115 15.678 104.89C15.6623 104.601 15.7416 104.314 15.9032 104.077C16.0569 103.869 16.2631 103.709 16.4992 103.613C16.7664 103.505 17.0458 103.432 17.3308 103.396L18.2699 103.275C18.3861 103.265 18.5018 103.25 18.6164 103.228C18.7003 103.212 18.7797 103.177 18.8486 103.125C18.9133 103.074 18.9635 103.006 18.9941 102.929C19.0325 102.824 19.0502 102.712 19.0461 102.6C19.0514 102.426 19.0182 102.253 18.949 102.094C18.8876 101.966 18.7928 101.859 18.6753 101.784C18.5534 101.703 18.4166 101.648 18.2733 101.623C18.1109 101.594 17.9462 101.58 17.7813 101.581C17.4554 101.566 17.1339 101.663 16.8665 101.855C16.7417 101.962 16.6428 102.097 16.5779 102.25C16.5129 102.403 16.4836 102.569 16.4923 102.736H15.9032C15.9086 102.474 15.9639 102.216 16.0661 101.976ZM19.0149 103.46C18.9647 103.539 18.8862 103.594 18.7966 103.613C18.7049 103.644 18.6111 103.666 18.5159 103.681C18.2664 103.727 18.01 103.767 17.7467 103.802C17.5003 103.834 17.257 103.887 17.019 103.959C16.8205 104.02 16.6373 104.125 16.4819 104.266C16.4092 104.338 16.3526 104.425 16.3161 104.522C16.2796 104.619 16.2641 104.722 16.2705 104.826C16.2679 104.968 16.2989 105.109 16.3606 105.236C16.4191 105.355 16.5005 105.461 16.5997 105.546C16.7026 105.633 16.82 105.699 16.9462 105.742C17.0756 105.788 17.2114 105.811 17.3482 105.81C17.5673 105.811 17.785 105.775 17.9927 105.703C18.1897 105.639 18.3723 105.534 18.5298 105.396C18.6849 105.261 18.8102 105.093 18.8971 104.904C18.99 104.699 19.0362 104.475 19.0322 104.248V103.46H19.0149Z" fill="#878C91"/>
<path d="M21.6478 99.5703V106.289H20.9014V99.5703H21.6478Z" fill="#878C91"/>
<path d="M25.9816 104.513C26.0282 104.745 26.1125 104.963 26.2298 105.156C26.3458 105.341 26.491 105.498 26.6575 105.617C26.8472 105.743 27.0622 105.806 27.2796 105.798C27.5984 105.818 27.9113 105.691 28.1529 105.443C28.3718 105.195 28.5237 104.875 28.5896 104.524H29.098C29.0192 105.022 28.8099 105.478 28.4999 105.826C28.1547 106.155 27.7183 106.318 27.2766 106.284C26.983 106.294 26.6914 106.223 26.4242 106.078C26.1882 105.953 25.9825 105.759 25.8261 105.514C25.6703 105.264 25.5566 104.981 25.4911 104.68C25.4157 104.354 25.3785 104.018 25.3804 103.68C25.3797 103.356 25.4169 103.033 25.4911 102.721C25.5575 102.42 25.6711 102.136 25.8261 101.884C25.983 101.632 26.188 101.428 26.4242 101.288C26.6887 101.132 26.9814 101.055 27.2766 101.064C27.5744 101.053 27.8694 101.135 28.132 101.302C28.3637 101.454 28.5616 101.669 28.7092 101.93C28.863 102.2 28.9716 102.502 29.0292 102.821C29.0948 103.156 29.122 103.499 29.11 103.843H25.9038C25.9059 104.069 25.9321 104.295 25.9816 104.513ZM28.4999 102.668C28.4416 102.465 28.3535 102.275 28.2397 102.108C28.1251 101.946 27.9848 101.814 27.8269 101.717C27.6564 101.615 27.4675 101.564 27.2766 101.568C27.0838 101.564 26.8929 101.615 26.7203 101.717C26.5624 101.814 26.4222 101.946 26.3076 102.108C26.1908 102.277 26.0997 102.469 26.0384 102.675C25.9701 102.886 25.9249 103.107 25.9038 103.332H28.5956C28.5923 103.107 28.5601 102.885 28.4999 102.672V102.668Z" fill="#878C91"/>
<path d="M33.3283 102.151C33.2553 102.012 33.1473 101.89 33.0129 101.795C32.877 101.703 32.7232 101.635 32.5596 101.595C32.2342 101.521 31.8945 101.514 31.5661 101.577C31.4175 101.604 31.2749 101.654 31.1443 101.723C31.0194 101.787 30.9137 101.878 30.8368 101.987C30.7539 102.108 30.7127 102.248 30.7185 102.39C30.7099 102.517 30.7488 102.643 30.8289 102.747C30.9058 102.841 31.0022 102.921 31.1128 102.982C31.2295 103.048 31.3537 103.102 31.4833 103.143C31.6213 103.182 31.7435 103.218 31.8776 103.243L32.7724 103.425C32.9668 103.454 33.1571 103.502 33.3401 103.568C33.5225 103.629 33.6918 103.718 33.8408 103.832C33.9891 103.942 34.11 104.079 34.1956 104.235C34.2941 104.41 34.3429 104.605 34.3375 104.802C34.3447 105.046 34.2735 105.286 34.1325 105.494C34.0007 105.68 33.8242 105.838 33.6161 105.954C33.3984 106.075 33.1598 106.161 32.9104 106.211C32.6512 106.261 32.387 106.286 32.122 106.286C31.56 106.311 31.0049 106.165 30.5451 105.872C30.3334 105.707 30.1628 105.504 30.0446 105.275C29.9263 105.046 29.8631 104.797 29.8591 104.545H30.5293C30.5304 104.723 30.5755 104.899 30.6615 105.06C30.7474 105.22 30.872 105.361 31.026 105.472C31.3504 105.689 31.7466 105.8 32.1496 105.786C32.3192 105.785 32.4883 105.768 32.6542 105.736C32.8246 105.706 32.9884 105.651 33.1391 105.572C33.2836 105.5 33.4088 105.401 33.5057 105.28C33.6063 105.152 33.6576 104.998 33.6516 104.841C33.6525 104.716 33.6172 104.593 33.5491 104.484C33.4805 104.383 33.3875 104.298 33.2771 104.235C33.1537 104.164 33.0213 104.108 32.8828 104.067C32.7382 104.02 32.5908 103.981 32.4413 103.949L31.5819 103.778C31.3752 103.731 31.1723 103.672 30.9748 103.6C30.8006 103.538 30.6372 103.454 30.4899 103.35C30.3533 103.255 30.2426 103.133 30.1666 102.993C30.082 102.826 30.0415 102.642 30.0484 102.458C30.0424 102.231 30.1066 102.008 30.2336 101.812C30.357 101.637 30.5228 101.49 30.7185 101.381C30.925 101.268 31.1499 101.187 31.3848 101.138C31.624 101.089 31.8687 101.064 32.1141 101.063C32.3742 101.061 32.6331 101.094 32.8828 101.16C33.1126 101.22 33.327 101.32 33.5136 101.456C33.6868 101.591 33.8265 101.757 33.9236 101.944C34.0368 102.169 34.0985 102.411 34.1049 102.658H33.4347C33.4408 102.484 33.4045 102.311 33.3283 102.151Z" fill="#878C91"/>
<path d="M36.5776 101.126V101.652H35.6651V105.109C35.6591 105.273 35.6843 105.438 35.739 105.59C35.7904 105.704 35.9125 105.771 36.1085 105.785C36.2652 105.785 36.4217 105.775 36.5776 105.756V106.282C36.4972 106.282 36.4137 106.282 36.3334 106.282C36.2531 106.282 36.1727 106.282 36.0924 106.282C35.8199 106.315 35.5466 106.228 35.3277 106.039C35.1576 105.783 35.0825 105.461 35.1189 105.142V101.633H34.3381V101.107H35.1189V99.5703H35.6651V101.107L36.5776 101.126Z" fill="#878C91"/>
<path d="M37.6631 101.976C37.7576 101.772 37.8982 101.594 38.0736 101.456C38.2568 101.319 38.4639 101.218 38.684 101.16C38.9384 101.093 39.2002 101.061 39.4629 101.063C39.6782 101.064 39.8931 101.084 40.1049 101.124C40.311 101.164 40.5076 101.244 40.6837 101.359C40.8604 101.485 41.0039 101.653 41.1012 101.848C41.2171 102.102 41.2724 102.381 41.2626 102.661V105.3C41.2562 105.349 41.2609 105.398 41.2763 105.444C41.2917 105.49 41.3173 105.532 41.3513 105.567C41.3852 105.601 41.4265 105.627 41.472 105.643C41.5174 105.659 41.5658 105.663 41.6134 105.657C41.6783 105.659 41.7428 105.646 41.8028 105.621V106.131L41.6204 106.16C41.5527 106.164 41.4847 106.164 41.4169 106.16C41.2972 106.164 41.1779 106.143 41.0661 106.099C40.9792 106.062 40.9049 106 40.8521 105.921C40.7997 105.838 40.7661 105.744 40.7539 105.646C40.7358 105.528 40.7276 105.409 40.7293 105.29C40.6291 105.44 40.519 105.583 40.3996 105.718C40.2989 105.839 40.1806 105.943 40.0487 106.028C39.9052 106.116 39.749 106.181 39.5857 106.22C39.3823 106.269 39.1737 106.292 38.9647 106.288C38.7492 106.291 38.5343 106.263 38.3262 106.206C38.136 106.157 37.9579 106.069 37.8035 105.946C37.6543 105.825 37.5343 105.671 37.4527 105.496C37.3641 105.291 37.321 105.068 37.3264 104.844C37.3087 104.554 37.3892 104.267 37.5544 104.031C37.7113 103.83 37.9186 103.676 38.1543 103.585C38.4248 103.476 38.7077 103.403 38.9963 103.367L39.9505 103.246C40.0611 103.236 40.1712 103.221 40.2803 103.2C40.3663 103.183 40.4478 103.148 40.5188 103.096C40.5844 103.045 40.6353 102.978 40.6662 102.9C40.702 102.795 40.7186 102.683 40.7153 102.572C40.7223 102.398 40.6887 102.224 40.6171 102.066C40.555 101.939 40.4605 101.832 40.3434 101.755C40.2197 101.675 40.0813 101.62 39.9365 101.595C39.772 101.565 39.6053 101.551 39.4383 101.552C39.1073 101.538 38.7809 101.635 38.5086 101.827C38.3822 101.933 38.2822 102.068 38.2164 102.221C38.1506 102.374 38.1209 102.541 38.1297 102.707H37.5333C37.5328 102.458 37.5768 102.21 37.6631 101.976ZM40.6451 103.46C40.5951 103.538 40.517 103.593 40.4276 103.613C40.3346 103.643 40.2397 103.666 40.1435 103.681C39.8909 103.727 39.6313 103.767 39.3611 103.802C39.113 103.835 38.8678 103.887 38.6279 103.959C38.4266 104.02 38.241 104.124 38.0841 104.266C38.0105 104.338 37.9533 104.425 37.9163 104.522C37.8794 104.619 37.8636 104.722 37.8701 104.826C37.8675 104.968 37.8988 105.109 37.9613 105.236C38.0205 105.354 38.1015 105.459 38.1999 105.546C38.3045 105.632 38.4233 105.699 38.5507 105.742C38.6818 105.788 38.8193 105.811 38.9577 105.81C39.1806 105.811 39.4022 105.775 39.6137 105.703C39.8129 105.638 39.9976 105.534 40.1575 105.397C40.3199 105.255 40.4494 105.079 40.5367 104.88C40.6241 104.681 40.6671 104.466 40.6627 104.248V103.46H40.6451Z" fill="#878C91"/>
<path d="M44.0422 101.126V101.652H43.1316V105.109C43.1244 105.274 43.1497 105.438 43.2056 105.591C43.2539 105.705 43.3761 105.771 43.5724 105.786C43.7293 105.785 43.8861 105.775 44.0422 105.756V106.282C43.9617 106.282 43.8813 106.282 43.8009 106.282H43.5563C43.2834 106.314 43.01 106.227 42.7905 106.039C42.6216 105.783 42.5476 105.46 42.5846 105.142V101.633H41.8027V101.108H42.5846V99.5703H43.1316V101.108L44.0422 101.126Z" fill="#878C91"/>
<path d="M45.5075 104.514C45.5663 104.745 45.6687 104.963 45.8093 105.156C45.9473 105.342 46.1221 105.499 46.323 105.617C46.5509 105.744 46.8092 105.806 47.0704 105.798C47.4523 105.818 47.8271 105.691 48.1159 105.443C48.38 105.196 48.5628 104.876 48.6405 104.524H49.2513C49.1552 105.022 48.9039 105.477 48.5327 105.827C48.1177 106.155 47.5937 106.318 47.0632 106.284C46.7104 106.294 46.3602 106.223 46.0392 106.078C45.7565 105.951 45.5098 105.758 45.3206 105.514C45.1349 105.264 44.9984 104.981 44.9182 104.68C44.8306 104.354 44.7871 104.018 44.7889 103.68C44.7885 103.356 44.832 103.034 44.9182 102.722C44.9999 102.421 45.1363 102.137 45.3206 101.884C45.5103 101.634 45.7563 101.43 46.0392 101.288C46.3569 101.132 46.7085 101.056 47.0632 101.065C47.4012 101.051 47.737 101.124 48.0383 101.275C48.3397 101.427 48.5966 101.653 48.7842 101.931C48.9674 102.201 49.0978 102.503 49.1687 102.821C49.2439 103.157 49.2765 103.5 49.2657 103.843H45.4176C45.4189 104.069 45.4491 104.295 45.5075 104.514ZM48.5363 102.669C48.4649 102.465 48.3579 102.275 48.2201 102.108C48.0825 101.947 47.914 101.814 47.7243 101.718C47.5206 101.616 47.2949 101.565 47.0668 101.569C46.8351 101.564 46.6058 101.616 46.3985 101.718C46.2088 101.814 46.0403 101.947 45.9027 102.108C45.7625 102.278 45.652 102.47 45.5757 102.676C45.4965 102.887 45.4434 103.108 45.4176 103.332H48.6513C48.6456 103.108 48.6069 102.885 48.5363 102.672V102.669Z" fill="#878C91"/>
<path d="M55.7273 102.163C55.6543 102.024 55.5464 101.902 55.4122 101.807C55.2769 101.715 55.1231 101.647 54.9592 101.608C54.7829 101.568 54.6016 101.547 54.4197 101.548C54.2697 101.552 54.1206 101.57 53.9746 101.601C53.8263 101.629 53.684 101.678 53.5532 101.747C53.4283 101.811 53.3228 101.901 53.2459 102.01C53.1631 102.131 53.122 102.271 53.1278 102.413C53.1206 102.539 53.1608 102.665 53.242 102.769C53.3163 102.863 53.4115 102.943 53.5217 103.003C53.6392 103.07 53.7648 103.123 53.8958 103.164C54.0297 103.203 54.1518 103.238 54.2661 103.263L55.1601 103.445C55.3543 103.474 55.5445 103.521 55.7273 103.587C55.9094 103.649 56.0786 103.738 56.2275 103.851C56.3757 103.962 56.4976 104.098 56.5859 104.253C56.6814 104.424 56.7314 104.613 56.7316 104.805C56.74 105.048 56.6702 105.287 56.5308 105.495C56.3976 105.681 56.2199 105.838 56.0109 105.954C55.7937 106.075 55.5553 106.162 55.3058 106.211C55.0469 106.261 54.7829 106.286 54.5181 106.285C53.9565 106.312 53.4014 106.167 52.9427 105.873C52.7291 105.71 52.557 105.507 52.438 105.278C52.3191 105.05 52.2561 104.801 52.2534 104.548H52.9269C52.9275 104.726 52.972 104.901 53.0572 105.061C53.1424 105.222 53.2661 105.363 53.4192 105.474C53.7437 105.69 54.1392 105.8 54.5418 105.787C54.7112 105.786 54.8801 105.769 55.0459 105.737C55.2162 105.707 55.3798 105.652 55.5303 105.574C55.6747 105.502 55.7998 105.402 55.8966 105.282C55.9972 105.154 56.0484 105 56.0424 104.844C56.0433 104.719 56.008 104.596 55.94 104.488C55.8714 104.387 55.7785 104.302 55.6682 104.239C55.5451 104.168 55.4128 104.112 55.2743 104.071C55.1286 104.025 54.9789 103.986 54.8332 103.954L53.9746 103.772C53.7681 103.726 53.5654 103.666 53.368 103.594C53.194 103.533 53.0308 103.449 52.8836 103.345C52.7471 103.251 52.6366 103.129 52.5606 102.989C52.4761 102.822 52.4356 102.639 52.4425 102.455C52.4365 102.229 52.5007 102.006 52.6276 101.811C52.7508 101.636 52.9165 101.489 53.112 101.38C53.3186 101.269 53.5432 101.187 53.7777 101.138C54.0167 101.089 54.2611 101.064 54.5063 101.063C54.7727 101.06 55.0381 101.093 55.294 101.16C55.5221 101.22 55.7348 101.321 55.9203 101.455C56.098 101.593 56.2404 101.764 56.3378 101.957C56.4527 102.18 56.5145 102.423 56.5189 102.669H55.8494C55.8505 102.494 55.8088 102.322 55.7273 102.163Z" fill="#878C91"/>
<path d="M60.4631 101.274C60.7777 101.409 61.0572 101.601 61.2838 101.839C61.5094 102.084 61.6804 102.366 61.7873 102.67C62.0146 103.329 62.0146 104.035 61.7873 104.694C61.6816 104.997 61.5105 105.278 61.2838 105.522C61.0604 105.761 60.78 105.953 60.4631 106.083C60.1099 106.219 59.7295 106.289 59.3451 106.289C58.9607 106.289 58.5803 106.219 58.2271 106.083C57.9102 105.953 57.6298 105.761 57.4064 105.522C57.1812 105.277 57.0103 104.996 56.9029 104.694C56.6756 104.035 56.6756 103.329 56.9029 102.67C57.0112 102.367 57.182 102.085 57.4064 101.839C57.633 101.601 57.9125 101.409 58.2271 101.274C58.5794 101.135 58.9601 101.063 59.3451 101.063C59.73 101.063 60.1108 101.135 60.4631 101.274ZM58.4808 101.753C58.2413 101.871 58.034 102.034 57.8742 102.233C57.7105 102.439 57.5872 102.668 57.5095 102.911C57.3456 103.414 57.3456 103.949 57.5095 104.453C57.588 104.695 57.7113 104.925 57.8742 105.131C58.0363 105.327 58.243 105.491 58.4808 105.61C58.7424 105.73 59.0318 105.792 59.3253 105.792C59.6188 105.792 59.9081 105.73 60.1697 105.61C60.4066 105.49 60.6131 105.326 60.7763 105.131C60.9393 104.925 61.0626 104.695 61.1411 104.453C61.3049 103.949 61.3049 103.414 61.1411 102.911C61.0633 102.668 60.94 102.439 60.7763 102.233C60.6156 102.035 60.4085 101.872 60.1697 101.753C59.9081 101.634 59.6188 101.572 59.3253 101.572C59.0318 101.572 58.7424 101.634 58.4808 101.753Z" fill="#878C91"/>
<path d="M63.4506 99.5703V106.289H62.7041V99.5703H63.4506Z" fill="#878C91"/>
<path d="M68.0579 106.15V105.236C67.8887 105.566 67.6116 105.84 67.2652 106.018C66.9214 106.199 66.5315 106.292 66.1356 106.288C65.8322 106.295 65.5299 106.25 65.2439 106.157C65.0145 106.083 64.8088 105.958 64.6454 105.793C64.4842 105.618 64.3677 105.413 64.3046 105.192C64.2295 104.929 64.1935 104.659 64.1976 104.387V101.092H64.8753V104.395C64.8568 104.769 64.9785 105.138 65.2201 105.44C65.368 105.572 65.5458 105.674 65.7409 105.737C65.9361 105.8 66.1439 105.822 66.3497 105.804C66.6117 105.81 66.8707 105.751 67.0987 105.633C67.3074 105.504 67.481 105.334 67.606 105.134C67.7454 104.934 67.8459 104.713 67.9033 104.482C67.9699 104.235 68.0031 103.982 68.0024 103.728V101.063H68.6761V106.135L68.0579 106.15Z" fill="#878C91"/>
<path d="M71.6619 101.126V101.652H70.4453V105.109C70.4373 105.274 70.4709 105.438 70.5438 105.591C70.6081 105.705 70.7709 105.771 71.0365 105.785C71.2454 105.785 71.4542 105.775 71.6619 105.756V106.282C71.5506 106.282 71.4435 106.282 71.3364 106.282C71.2293 106.282 71.1222 106.282 71.0108 106.282C70.6488 106.314 70.286 106.227 69.9955 106.039C69.7686 105.783 69.6685 105.461 69.717 105.142V101.633H68.676V101.108H69.717V99.5703H70.4453V101.108L71.6619 101.126Z" fill="#878C91"/>
<path d="M72.4083 99.5703V100.519H71.6619V99.5703H72.4083ZM72.4083 101.432V106.289H71.6619V101.432H72.4083Z" fill="#878C91"/>
<path d="M77.0811 101.267C77.351 101.402 77.5908 101.594 77.7851 101.832C77.9855 102.078 78.138 102.362 78.234 102.67C78.429 103.329 78.429 104.035 78.234 104.694C78.1433 104.997 77.9966 105.278 77.8021 105.522C77.6105 105.761 77.3699 105.953 77.0981 106.083C76.7951 106.219 76.4688 106.289 76.1391 106.289C75.8094 106.289 75.4831 106.219 75.1801 106.083C74.9088 105.954 74.6692 105.762 74.4795 105.522C74.2838 105.279 74.137 104.997 74.0476 104.694C73.8526 104.035 73.8526 103.329 74.0476 102.67C74.1377 102.366 74.2845 102.083 74.4795 101.839C74.6719 101.6 74.9107 101.408 75.1801 101.274C75.4823 101.135 75.8089 101.063 76.1391 101.063C76.4693 101.063 76.7959 101.135 77.0981 101.274L77.0811 101.267ZM75.3807 101.746C75.1759 101.865 74.9983 102.028 74.8604 102.226C74.7196 102.431 74.6148 102.661 74.5509 102.904C74.4104 103.407 74.4104 103.942 74.5509 104.445C74.6157 104.689 74.7204 104.918 74.8604 105.124C75.0004 105.319 75.1776 105.483 75.3807 105.603C75.6032 105.728 75.8527 105.79 76.1051 105.784C76.3585 105.79 76.609 105.727 76.8329 105.603C77.0359 105.484 77.2121 105.32 77.3498 105.124C77.4909 104.918 77.5968 104.689 77.6627 104.445C77.8032 103.942 77.8032 103.407 77.6627 102.904C77.5978 102.66 77.4918 102.431 77.3498 102.226C77.214 102.028 77.0373 101.864 76.8329 101.746C76.609 101.622 76.3585 101.56 76.1051 101.565C75.8585 101.562 75.6151 101.625 75.3977 101.746H75.3807Z" fill="#878C91"/>
<path d="M80.3217 101.195V102.071H80.3375C80.4258 101.766 80.5855 101.51 80.7912 101.344C81.0066 101.157 81.2567 101.06 81.5113 101.064C81.7302 101.055 81.9485 101.102 82.1549 101.203C82.3154 101.28 82.4589 101.413 82.5716 101.588C82.6809 101.765 82.757 101.976 82.7932 102.202C82.8383 102.469 82.8605 102.743 82.8592 103.017V106.289H82.4081V103.1C82.4095 102.898 82.3953 102.695 82.3659 102.497C82.3404 102.322 82.2892 102.156 82.2156 102.01C82.141 101.87 82.0421 101.759 81.928 101.686C81.7854 101.603 81.6317 101.564 81.477 101.57C81.3112 101.565 81.1465 101.61 80.9943 101.701C80.8587 101.787 80.7374 101.91 80.6382 102.064C80.5388 102.226 80.4619 102.413 80.4114 102.613C80.3551 102.837 80.3248 103.071 80.3217 103.308V106.26H79.8733V101.195H80.3217Z" fill="#878C91"/>
<path d="M87.2336 102.16C87.1727 102.022 87.0827 101.9 86.9707 101.805C86.8575 101.714 86.7293 101.647 86.5929 101.607C86.4457 101.566 86.2945 101.546 86.1427 101.546C86.0187 101.551 85.8955 101.569 85.7747 101.6C85.6509 101.627 85.532 101.676 85.4232 101.745C85.319 101.809 85.231 101.899 85.1669 102.008C85.0978 102.128 85.0635 102.268 85.0683 102.409C85.0623 102.536 85.0959 102.661 85.1636 102.764C85.2256 102.859 85.305 102.938 85.3969 102.998C85.5002 103.065 85.6105 103.119 85.7255 103.158C85.8372 103.197 85.939 103.233 86.0343 103.257L86.7801 103.439C86.9422 103.467 87.1008 103.515 87.2533 103.581C87.4052 103.642 87.5464 103.731 87.6706 103.843C87.7942 103.954 87.8959 104.09 87.9696 104.244C88.0538 104.443 88.0927 104.66 88.083 104.878C88.0733 105.096 88.0152 105.309 87.9137 105.498C87.8051 105.684 87.6577 105.841 87.4833 105.956C87.3018 106.076 87.103 106.162 86.8951 106.211C86.6791 106.261 86.4589 106.286 86.238 106.286C85.7697 106.311 85.307 106.166 84.9238 105.874C84.7474 105.71 84.6052 105.508 84.5066 105.28C84.4081 105.052 84.3554 104.805 84.3521 104.553H84.9139C84.9144 104.73 84.9515 104.905 85.0226 105.065C85.0936 105.225 85.1968 105.365 85.3246 105.476C85.595 105.692 85.9252 105.802 86.261 105.789C86.4024 105.787 86.5433 105.771 86.6816 105.739C86.8236 105.709 86.9601 105.654 87.0857 105.576C87.2062 105.504 87.3105 105.405 87.3913 105.285C87.4751 105.157 87.5179 105.004 87.5128 104.848C87.5136 104.724 87.4842 104.601 87.4274 104.493C87.3703 104.393 87.2927 104.308 87.2007 104.244C87.098 104.174 86.9877 104.118 86.8721 104.078C86.7506 104.031 86.6257 103.992 86.5042 103.96L85.7747 103.765C85.6025 103.719 85.4334 103.659 85.2688 103.588C85.1236 103.526 84.9874 103.443 84.8646 103.339C84.752 103.243 84.66 103.122 84.5952 102.984C84.5246 102.817 84.4909 102.635 84.4966 102.452C84.4917 102.226 84.5452 102.003 84.651 101.809C84.7539 101.635 84.8921 101.488 85.0552 101.379C85.2272 101.268 85.4147 101.186 85.6105 101.138C85.8099 101.089 86.0138 101.064 86.2183 101.063C86.4405 101.06 86.6619 101.093 86.8754 101.159C87.0657 101.22 87.2431 101.32 87.3979 101.454C87.5461 101.592 87.6649 101.762 87.7461 101.955C87.842 102.177 87.8935 102.419 87.8973 102.665H87.3387C87.3386 102.49 87.3027 102.318 87.2336 102.16Z" fill="#878C91"/>
<path d="M35.0846 53.2886C33.4605 53.2886 31.873 53.792 30.5226 54.7353C29.1723 55.6786 28.1198 57.0193 27.4983 58.5879C26.8768 60.1565 26.7142 61.8826 27.0311 63.5478C27.3479 65.2131 28.13 66.7427 29.2783 67.9432C30.4267 69.1438 31.8898 69.9614 33.4826 70.2926C35.0754 70.6239 36.7265 70.4539 38.2269 69.8041C39.7273 69.1544 41.0097 68.0541 41.912 66.6424C42.8142 65.2307 43.2958 63.5709 43.2958 61.8731C43.2963 60.7456 43.0842 59.6291 42.6717 58.5874C42.2592 57.5457 41.6544 56.5991 40.8918 55.8019C40.1292 55.0046 39.2238 54.3723 38.2274 53.9411C37.231 53.5098 36.163 53.2881 35.0846 53.2886ZM35.0846 64.5747C34.5715 64.5747 34.0699 64.4156 33.6433 64.1176C33.2166 63.8196 32.8841 63.396 32.6878 62.9004C32.4914 62.4048 32.44 61.8595 32.5401 61.3334C32.6402 60.8073 32.8873 60.324 33.2501 59.9447C33.6129 59.5654 34.0752 59.3071 34.5784 59.2024C35.0817 59.0978 35.6033 59.1515 36.0773 59.3568C36.5514 59.562 36.9566 59.9097 37.2416 60.3557C37.5267 60.8017 37.6788 61.3261 37.6788 61.8625C37.6802 62.2196 37.614 62.5734 37.4843 62.9037C37.3545 63.2339 37.1636 63.5342 36.9226 63.7872C36.6815 64.0401 36.3951 64.2409 36.0797 64.3778C35.7643 64.5148 35.4261 64.5853 35.0846 64.5853V64.5747Z" fill="#939393"/>
<path d="M60.8415 53.2886C59.1434 53.2879 57.4834 53.7908 56.0712 54.7336C54.659 55.6765 53.5582 57.0169 52.9079 58.5855C52.2576 60.154 52.0871 61.8802 52.4179 63.5457C52.7488 65.2111 53.5661 66.7411 54.7665 67.942C55.9669 69.1429 57.4965 69.9609 59.1619 70.2924C60.8272 70.6239 62.5534 70.4541 64.1223 69.8045C65.6911 69.1548 67.032 68.0545 67.9754 66.6427C68.9189 65.231 69.4224 63.5711 69.4224 61.8731C69.4224 59.5969 68.5185 57.414 66.9093 55.8042C65.3002 54.1944 63.1176 53.2895 60.8415 53.2886ZM60.8415 64.5747C60.305 64.5747 59.7807 64.4156 59.3346 64.1176C58.8886 63.8196 58.541 63.396 58.3357 62.9004C58.1304 62.4048 58.0767 61.8595 58.1814 61.3334C58.286 60.8073 58.5443 60.324 58.9236 59.9447C59.3029 59.5654 59.7862 59.3071 60.3123 59.2024C60.8384 59.0978 61.3838 59.1515 61.8794 59.3568C62.375 59.562 62.7985 59.9097 63.0966 60.3557C63.3946 60.8017 63.5536 61.3261 63.5536 61.8625C63.555 62.2196 63.4859 62.5734 63.3502 62.9037C63.2146 63.2339 63.015 63.5342 62.763 63.7872C62.511 64.0401 62.2116 64.2409 61.8818 64.3778C61.5521 64.5148 61.1985 64.5853 60.8415 64.5853V64.5747Z" fill="#939393"/>
<path d="M73.8936 51.0474H22.2415C21.7769 51.0619 21.314 50.9843 20.8803 50.819C20.4467 50.6537 20.0512 50.4042 19.7173 50.0852C19.3834 49.7663 19.1179 49.3844 18.9366 48.9623C18.7553 48.5402 18.6619 48.0865 18.6619 47.6282C18.6619 47.1698 18.7553 46.7161 18.9366 46.294C19.1179 45.8719 19.3834 45.49 19.7173 45.1711C20.0512 44.8521 20.4467 44.6026 20.8803 44.4373C21.314 44.272 21.7769 44.1944 22.2415 44.2089H71.0984L79.5154 5.96853C79.6831 5.20523 80.1109 4.52158 80.7276 4.03141C81.3442 3.54123 82.1126 3.2741 82.9046 3.27448H95.1756C96.0763 3.30267 96.9305 3.67526 97.5575 4.31342C98.1845 4.95157 98.5351 5.80522 98.5351 6.69372C98.5351 7.58222 98.1845 8.43586 97.5575 9.07402C96.9305 9.71217 96.0763 10.0848 95.1756 10.113H85.6999L77.2828 48.3533C77.1145 49.1163 76.6866 49.7996 76.07 50.2897C75.4535 50.7798 74.6855 51.0471 73.8936 51.0474Z" fill="#939393"/>
<path d="M48.4639 8.74291C48.2817 8.58615 48.0486 8.49985 47.8074 8.49985C47.5662 8.49985 47.3332 8.58615 47.1509 8.74291L29.8591 24.0477V41.3449H66.4366V24.0477L48.4639 8.74291ZM46.9589 33.5071C46.9589 33.7598 46.8577 34.0022 46.6776 34.1809C46.4975 34.3596 46.2533 34.46 45.9986 34.46H42.4718C42.2168 34.46 41.9722 34.3597 41.7916 34.1811C41.6109 34.0025 41.509 33.7602 41.508 33.5071V30.004C41.509 29.751 41.6109 29.5086 41.7916 29.33C41.9722 29.1514 42.2168 29.0512 42.4718 29.0512H45.9986C46.2533 29.0512 46.4975 29.1516 46.6776 29.3303C46.8577 29.509 46.9589 29.7513 46.9589 30.004V33.5071ZM46.9589 25.8634C46.9589 26.1161 46.8577 26.3585 46.6776 26.5372C46.4975 26.7159 46.2533 26.8163 45.9986 26.8163H42.4718C42.2168 26.8163 41.9722 26.716 41.7916 26.5374C41.6109 26.3588 41.509 26.1164 41.508 25.8634V22.3603C41.509 22.1073 41.6109 21.8649 41.7916 21.6863C41.9722 21.5077 42.2168 21.4074 42.4718 21.4074H45.9986C46.2533 21.4074 46.4975 21.5078 46.6776 21.6865C46.8577 21.8652 46.9589 22.1076 46.9589 22.3603V25.8634ZM54.7877 33.5071C54.7877 33.7598 54.6865 34.0022 54.5064 34.1809C54.3263 34.3596 54.0821 34.46 53.8274 34.46H50.2971C50.0424 34.46 49.7982 34.3596 49.6181 34.1809C49.438 34.0022 49.3368 33.7598 49.3368 33.5071V30.004C49.3368 29.7513 49.438 29.509 49.6181 29.3303C49.7982 29.1516 50.0424 29.0512 50.2971 29.0512H53.8274C54.0821 29.0512 54.3263 29.1516 54.5064 29.3303C54.6865 29.509 54.7877 29.7513 54.7877 30.004V33.5071ZM54.7877 25.8634C54.7877 26.1161 54.6865 26.3585 54.5064 26.5372C54.3263 26.7159 54.0821 26.8163 53.8274 26.8163H50.2971C50.0424 26.8163 49.7982 26.7159 49.6181 26.5372C49.438 26.3585 49.3368 26.1161 49.3368 25.8634V22.3603C49.3368 22.1076 49.438 21.8652 49.6181 21.6865C49.7982 21.5078 50.0424 21.4074 50.2971 21.4074H53.8274C54.0821 21.4074 54.3263 21.5078 54.5064 21.6865C54.6865 21.8652 54.7877 22.1076 54.7877 22.3603V25.8634Z" fill="#FBD10D"/>
<path d="M70.9721 17.7425L52.1618 1.7194C51.0328 0.794599 49.613 0.288574 48.1473 0.288574C46.6817 0.288574 45.2619 0.794599 44.1329 1.7194L25.326 17.7425C23.8666 18.9877 24.8684 21.1728 26.8999 21.1728H28.0405C28.0405 21.1728 40.8673 9.79098 45.1764 6.07936C47.3015 4.24756 48.5425 4.41565 50.3972 6.03133C54.8138 9.87331 68.2542 21.19 68.2542 21.19H69.3948C71.4263 21.1625 72.4281 18.9877 70.9721 17.7425Z" fill="#FBD10D"/>
<path d="M37.3239 3.96011V2.31327C37.32 1.973 37.1731 1.64791 36.9149 1.40859C36.6567 1.16927 36.3081 1.03505 35.945 1.03506H31.2418C31.0602 1.03506 30.8804 1.06857 30.7127 1.13367C30.5449 1.19877 30.3925 1.2942 30.2641 1.41449C30.1357 1.53478 30.0339 1.67759 29.9644 1.83475C29.8949 1.99192 29.8591 2.16037 29.8591 2.33049V9.99281L37.3239 3.96011Z" fill="#FBD10D"/>
<path d="M0 89.3961H2.98502C3.09991 90.264 3.42737 90.8707 3.96738 91.216C4.66999 91.6579 5.4896 91.8693 6.31472 91.8215C7.01513 91.8685 7.71346 91.7028 8.32082 91.3455C8.54594 91.1934 8.72799 90.9842 8.84891 90.7386C8.96984 90.4931 9.02544 90.2197 9.0102 89.9455C9.0102 89.0122 7.73025 88.2621 5.17035 87.6951L5.08418 87.6496L4.73949 87.5621C3.2872 87.2471 2.31977 86.9158 1.8372 86.5681C1.28359 86.2663 0.858983 85.7679 0.644571 85.1682C0.238707 84.283 0.120153 83.2898 0.305998 82.3319C0.491844 81.3739 0.972489 80.5006 1.67864 79.8378C2.64377 79.0608 4.05126 78.6712 5.9011 78.6689C7.63604 78.6689 8.97344 79.0737 9.91329 79.8833C10.3918 80.3286 10.775 80.8691 11.0388 81.4712C11.3027 82.0734 11.4417 82.7242 11.4472 83.3832H9.72371C9.4256 83.3968 9.13061 83.3167 8.87895 83.1538C8.6273 82.991 8.4312 82.7533 8.31738 82.4732C8.17405 82.1858 7.96911 81.9347 7.71761 81.7383C7.09726 81.3315 6.36616 81.1343 5.62879 81.1748C4.77396 81.1748 4.16271 81.3334 3.79504 81.6508C3.58677 81.8032 3.41913 82.0059 3.30721 82.2405C3.19529 82.4751 3.14261 82.7343 3.15392 82.9947C3.15392 83.774 3.97887 84.3515 5.62879 84.7272C5.97717 84.8396 6.33314 84.9262 6.69388 84.9862C7.20747 85.1612 7.65557 85.2977 8.03818 85.3992L8.95505 85.6372L10.1511 86.1551C10.6988 86.4801 11.1547 86.943 11.4747 87.4991C11.7883 88.1143 11.9492 88.7979 11.9435 89.4905C11.9435 91.0515 11.4311 92.2648 10.4062 93.1304C9.38362 93.9401 7.93362 94.3449 6.05621 94.3449C4.11905 94.3449 2.67135 93.9249 1.70277 93.0884C0.654911 92.2765 0.0873215 91.0457 0 89.3961Z" fill="#FBD10D"/>
<path d="M20.2716 93.6545C19.675 93.9679 19.0245 94.1653 18.3545 94.2361C17.7606 94.3023 17.1637 94.3383 16.5661 94.3441C15.5945 94.3623 14.643 94.0667 13.8523 93.5013C13.0799 92.9405 12.6902 92.0141 12.6902 90.7149C12.6902 89.5064 13.0381 88.6461 13.734 88.1271C14.5358 87.5692 15.459 87.211 16.4269 87.0823C16.6014 87.0786 16.7751 87.0576 16.9454 87.0196C17.175 86.97 17.4074 86.934 17.6412 86.9116C18.9054 86.7375 19.5363 86.3636 19.534 85.7901C19.5393 85.5979 19.4766 85.4099 19.3569 85.2595C19.2372 85.1091 19.0682 85.0059 18.8798 84.9681C18.4831 84.8444 18.0706 84.7787 17.6551 84.7731C17.2884 84.7663 16.9233 84.8241 16.5766 84.9438C16.4217 84.997 16.2798 85.0821 16.1599 85.1937C16.04 85.3053 15.9449 85.4408 15.8807 85.5916H12.9998C13.0981 84.7294 13.5303 83.9403 14.2037 83.3939C14.9784 82.7321 16.0837 82.4012 17.5194 82.4012C19.1269 82.4012 20.333 82.6741 21.1379 83.2197C21.5347 83.4818 21.8578 83.8412 22.0764 84.2637C22.2951 84.6862 22.402 85.1578 22.387 85.6334V89.5586C22.4384 90.497 22.2224 91.4307 21.7642 92.2509C21.4032 92.8458 20.8872 93.3311 20.2716 93.6545ZM19.5757 88.35C19.0379 88.5984 18.4743 88.7865 17.8952 88.9108L16.9036 89.1267C16.4893 89.2172 16.1042 89.41 15.7833 89.6875C15.5952 89.9682 15.4914 90.2969 15.4841 90.6348C15.4732 90.8262 15.5018 91.0178 15.5683 91.1976C15.6347 91.3774 15.7375 91.5415 15.8703 91.6797C16.1878 91.9305 16.587 92.0546 16.9906 92.028C17.3388 92.0591 17.6896 92.0132 18.018 91.8935C18.3465 91.7738 18.6447 91.5832 18.8914 91.3353C19.1381 91.0873 19.3272 90.7881 19.4455 90.4588C19.5638 90.1295 19.6082 89.7782 19.5757 89.4297V88.35Z" fill="#FBD10D"/>
<path d="M23.8872 79.4157H25.423C25.6132 79.4114 25.8025 79.4453 25.9798 79.5157C26.1571 79.5861 26.3189 79.6915 26.456 79.8258C26.592 79.9573 26.6993 80.1163 26.7711 80.2926C26.8429 80.4689 26.8775 80.6586 26.8727 80.8494V94.3449H23.8872V79.4157Z" fill="#FBD10D"/>
<path d="M35.7716 90.5908H37.9C37.6533 91.6982 37.0184 92.6779 36.1125 93.3486C35.1407 94.0381 33.9721 94.3867 32.7856 94.3409C31.1784 94.3409 29.9156 93.8093 28.9972 92.7462C28.0846 91.7016 27.6196 90.2322 27.6196 88.3067C27.6196 86.4682 28.0593 85.0313 28.9387 83.996C29.8181 82.9607 31.0809 82.4291 32.7271 82.4012C34.4307 82.4012 35.7521 82.9189 36.6911 83.9542C37.6302 84.9895 38.0894 86.4693 38.0687 88.3937V88.8673C38.0754 88.9689 38.0613 89.0708 38.0274 89.1667H30.6538C30.6814 90.0581 30.8949 90.7197 31.2944 91.1514C31.4993 91.39 31.7562 91.5771 32.0449 91.6979C32.3336 91.8188 32.6461 91.8701 32.9578 91.8478C33.3894 91.8606 33.8164 91.756 34.1942 91.5449C34.2822 91.5129 34.3621 91.4618 34.4284 91.3952L34.6626 91.1584C34.7371 91.0157 34.8476 90.8956 34.9829 90.8102C35.214 90.6497 35.4918 90.5725 35.7716 90.5908ZM30.6538 87.2273H35.0036C35.0044 86.5957 34.7945 85.9823 34.4078 85.4863C34.2 85.2825 33.9523 85.1252 33.6805 85.0244C33.4088 84.9236 33.1192 84.8817 32.8304 84.9013C32.5472 84.8898 32.2647 84.9374 32.0004 85.041C31.7362 85.1447 31.4959 85.3021 31.2944 85.5037C30.869 85.9732 30.6395 86.5907 30.6538 87.2273Z" fill="#FBD10D"/>
<path d="M39.5635 94.3449V80.9756C39.563 80.7706 39.6017 80.5675 39.6773 80.378C39.7529 80.1885 39.8638 80.0163 40.0039 79.8713C40.1439 79.7263 40.3102 79.6114 40.4932 79.5332C40.6762 79.4549 40.8724 79.4149 41.0704 79.4153H42.5367V84.9692H48.4899V79.4153H51.5071V94.3449H48.4899V87.7041H42.5367V94.3449H39.5635Z" fill="#FBD10D"/>
<path d="M54.0332 93.0976C53.3694 92.5431 52.8931 91.8169 52.6633 91.0094C52.3878 90.1209 52.2498 89.1996 52.2535 88.274C52.2554 87.4879 52.3709 86.7058 52.5969 85.9492C52.7889 85.2333 53.1555 84.5695 53.6677 84.0107C54.4475 83.1544 55.5425 82.6085 56.7323 82.4829C57.8669 82.3133 59.0283 82.4089 60.1145 82.7613C61.2424 83.169 62.1593 83.9721 62.6732 85.0026C63.2104 86.0334 63.4763 87.171 63.4486 88.3192C63.4656 89.1187 63.3573 89.9161 63.1274 90.6858C62.947 91.2823 62.6705 91.8492 62.3077 92.3667C61.65 93.268 60.6535 93.9 59.52 94.1347C58.5269 94.3919 57.4816 94.4134 56.4775 94.1973C55.576 94.0347 54.7342 93.656 54.0332 93.0976ZM56.2301 85.5141C55.5877 86.1754 55.2997 87.1603 55.3587 88.4654C55.4178 89.7705 55.68 90.6823 56.1378 91.2009C56.3923 91.4771 56.7255 91.6788 57.0978 91.782C57.5439 91.9413 58.0332 91.9572 58.4898 91.8273C59.0181 91.654 59.4641 91.31 59.7489 90.8563C60.1157 90.3366 60.3126 89.5037 60.3397 88.3575C60.3397 87.3227 60.1649 86.5478 59.8154 86.0327C59.5455 85.58 59.1176 85.2295 58.6043 85.0408C58.1615 84.8976 57.6819 84.8903 57.2344 85.02C56.8623 85.106 56.5178 85.2756 56.2301 85.5141Z" fill="#FBD10D"/>
<path d="M73.9015 82.4124V89.2802C73.9015 91.3643 73.3851 92.7289 72.3523 93.3738C71.3309 94.0176 70.1607 94.3535 68.9699 94.3447C67.8046 94.2944 66.6717 93.9268 65.6822 93.2778C64.69 92.6328 64.195 91.2979 64.1973 89.2731V82.4124H67.1265V89.8812C67.1026 90.169 67.1434 90.4587 67.2457 90.7268C67.3479 90.9949 67.5087 91.234 67.715 91.4248C68.0891 91.7467 68.5575 91.9226 69.0409 91.9227C69.5306 91.9247 70.0068 91.7544 70.3939 91.439C70.6046 91.2512 70.7695 91.013 70.8748 90.7445C70.9801 90.476 71.0228 90.1849 70.9994 89.8955V83.9097C70.9948 83.7129 71.0278 83.5171 71.0964 83.3338C71.1649 83.1506 71.2676 82.9836 71.3985 82.8427C71.5289 82.6987 71.6866 82.5851 71.8614 82.5091C72.0362 82.4332 72.2242 82.3966 72.4132 82.4017L73.9015 82.4124Z" fill="#FBD10D"/>
<path d="M74.6479 90.3458H77.6542C77.6514 90.598 77.7101 90.8472 77.8256 91.0727C77.9411 91.2983 78.11 91.4937 78.3183 91.6428C78.8567 91.9554 79.4781 92.1046 80.1035 92.0717C80.5789 92.0847 81.0502 91.9817 81.4745 91.7718C81.6321 91.697 81.7651 91.5806 81.8585 91.4358C81.9519 91.291 82.0019 91.1236 82.0029 90.9525C82.0029 90.4318 81.3841 90.0436 80.1463 89.7879C79.7429 89.7288 79.3444 89.6414 78.9538 89.5264C77.3924 89.1522 76.3463 88.7071 75.8155 88.1911C75.5222 87.9292 75.2913 87.6077 75.139 87.2493C74.9866 86.8909 74.9165 86.5043 74.9336 86.1166C74.9232 85.5987 75.0331 85.0852 75.2551 84.6148C75.4771 84.1444 75.8054 83.7292 76.2153 83.4005C77.2175 82.7019 78.4307 82.352 79.6608 82.4068C81.1936 82.4068 82.4171 82.7381 83.3311 83.4005C83.7472 83.7453 84.0841 84.172 84.3197 84.6526C84.5554 85.1333 84.6845 85.6571 84.6986 86.1898H82.7991C82.5367 86.197 82.2775 86.1323 82.0509 86.0028C81.8243 85.8734 81.6395 85.6845 81.5174 85.4576L81.1603 85.1089C80.7309 84.8281 80.2197 84.691 79.7036 84.7184C79.245 84.6901 78.7869 84.7803 78.3754 84.9799C78.2456 85.0636 78.1406 85.1792 78.071 85.315C78.0014 85.4509 77.9697 85.6023 77.9791 85.754C77.9791 86.2142 78.7432 86.6047 80.2784 86.922C80.4534 86.9778 80.6069 87.0231 80.739 87.051C80.8633 87.0777 80.9902 87.0917 81.1175 87.0928C82.6218 87.4647 83.6667 87.897 84.2523 88.3898C84.5349 88.6571 84.7562 88.9799 84.9014 89.3369C85.0467 89.694 85.1126 90.0771 85.0949 90.4609C85.1217 91.0266 85.0054 91.59 84.7563 92.1014C84.5073 92.6128 84.133 93.0564 83.6667 93.3931C82.7813 94.0276 81.4555 94.3449 79.6893 94.3449C78.0077 94.3449 76.758 94.0137 75.9297 93.3512C75.1014 92.6888 74.6515 91.7265 74.6515 90.4609L74.6479 90.3458Z" fill="#FBD10D"/>
<path d="M93.9911 90.5909H96.1223C95.8742 91.6986 95.2383 92.6781 94.3319 93.3486C93.3614 94.0377 92.1944 94.3862 91.0094 94.341C89.3867 94.341 88.1242 93.8094 87.2222 92.7462C86.3132 91.7016 85.845 90.2322 85.845 88.3067C85.845 86.4682 86.2857 85.0313 87.1671 83.996C88.0485 82.9607 89.3109 82.4291 90.9544 82.4012C92.6598 82.4012 93.9807 82.9189 94.9172 83.9542C95.8537 84.9895 96.3128 86.4694 96.2944 88.3938V88.8673C96.3003 88.9692 96.2851 89.0712 96.2497 89.1668H88.8782C88.9058 90.0581 89.1193 90.7197 89.5186 91.1515C89.7229 91.3898 89.9792 91.5767 90.2672 91.6976C90.5552 91.8184 90.8671 91.8699 91.1782 91.8479C91.6096 91.8607 92.0364 91.756 92.4142 91.545C92.5029 91.5146 92.5832 91.4633 92.6483 91.3952L92.8824 91.1585C92.958 91.0167 93.0683 90.8968 93.2026 90.8103C93.4339 90.6503 93.7114 90.5731 93.9911 90.5909ZM88.8782 87.2273H93.2233C93.2257 86.5954 93.0157 85.9815 92.6277 85.4863C92.4215 85.2794 92.1744 85.1188 91.9027 85.015C91.631 84.9112 91.3407 84.8666 91.0508 84.8839C90.7682 84.8729 90.4864 84.9207 90.2229 85.0243C89.9594 85.128 89.7197 85.2852 89.5186 85.4863C89.0892 85.9602 88.8594 86.5848 88.8782 87.2273Z" fill="#FBD10D"/>
</svg>
