<svg width="87" height="105" viewBox="0 0 87 105" fill="none" xmlns="http://www.w3.org/2000/svg">
<path d="M1.03653 104.629H1.61958V101.085H2.6561V100.54H0V101.085H1.03653V104.629Z" fill="#DBDBDB"/>
<path d="M9.06947 100.54H8.5512L7.12598 104.56H7.77381L8.09772 103.674H9.58773L9.91165 104.56H10.4947L9.06947 100.54ZM8.22729 103.129L8.81034 101.358L9.39338 103.129H8.22729Z" fill="#DBDBDB"/>
<path d="M16.2606 101.426C16.3254 101.358 16.3902 101.29 16.5198 101.221C16.6493 101.153 16.7141 101.153 16.8437 101.153C17.038 101.153 17.1676 101.221 17.2972 101.29C17.4267 101.426 17.4915 101.562 17.5563 101.698H18.2041C18.1393 101.358 18.0098 101.085 17.7506 100.881C17.4915 100.676 17.2324 100.54 16.8437 100.54C16.5198 100.54 16.2606 100.608 16.0663 100.744C15.8719 100.881 15.7424 101.085 15.6128 101.221C15.548 101.29 15.4832 101.426 15.4832 101.63C15.4832 101.767 15.4185 102.107 15.4185 102.584C15.4185 103.061 15.4185 103.334 15.4832 103.538C15.4832 103.606 15.4832 103.675 15.548 103.743C15.548 103.811 15.6128 103.879 15.6128 103.947C15.6776 104.152 15.8719 104.288 16.0663 104.424C16.2606 104.56 16.5198 104.629 16.8437 104.629C17.2324 104.629 17.5563 104.492 17.8154 104.22C18.0745 103.947 18.2041 103.606 18.2041 103.198V102.38H16.8437V102.993H17.6211V103.198C17.6211 103.47 17.5563 103.675 17.3619 103.811C17.2324 103.947 17.038 104.083 16.7789 104.083C16.6493 104.083 16.5198 104.083 16.455 104.015C16.3254 103.947 16.2606 103.879 16.1959 103.811C16.1311 103.743 16.0663 103.606 16.0663 103.47C16.0663 103.334 16.0015 103.061 16.0015 102.652C16.0015 102.244 16.0015 101.971 16.0663 101.835C16.1311 101.63 16.1959 101.494 16.2606 101.426Z" fill="#DBDBDB"/>
<path d="M25.4595 100.54V104.629H27.9212V104.015H26.0425V100.54H25.4595Z" fill="#DBDBDB"/>
<path d="M33.9463 100.54H33.3633V104.56H33.9463V100.54Z" fill="#DBDBDB"/>
<path d="M39.5825 100.54V104.629H40.1656V101.767L41.9147 104.629H42.4978V100.54H41.9147V103.47H41.8499L40.1656 100.54H39.5825Z" fill="#DBDBDB"/>
<path d="M50.5955 101.153V100.54H48.1338V104.629H50.5955V104.015H48.7168V102.857H50.3364V102.312H48.7168V101.153H50.5955Z" fill="#DBDBDB"/>
<path d="M62.3211 104.629V100.54H61.7381V102.312H60.2481V100.54H59.665V104.629H60.2481V102.857H61.7381V104.629H62.3211Z" fill="#DBDBDB"/>
<path d="M70.4837 101.153V100.54H68.022V104.629H70.4837V104.015H68.605V102.857H70.1598V102.312H68.605V101.153H70.4837Z" fill="#DBDBDB"/>
<path d="M77.8045 102.789C78.3227 102.584 78.5171 102.243 78.5819 101.698C78.5819 101.358 78.4523 101.017 78.1932 100.813C77.9988 100.608 77.7397 100.54 77.4158 100.54H75.9258V104.56H76.5088V102.857H77.2214L77.9988 104.56H78.7114L77.8045 102.789ZM76.444 102.312V101.085H77.351C77.5454 101.085 77.6749 101.153 77.8045 101.221C77.934 101.29 77.9988 101.494 77.9988 101.698C77.9988 101.903 77.934 102.039 77.8045 102.175C77.6749 102.312 77.5454 102.38 77.2862 102.38H76.444V102.312Z" fill="#DBDBDB"/>
<path d="M86.4857 101.153V100.54H84.0239V104.629H86.4857V104.015H84.607V102.857H86.1618V102.312H84.607V101.153H86.4857Z" fill="#DBDBDB"/>
<path d="M4.08133 95.8388C4.98829 95.8388 5.76569 95.5662 6.41352 95.0893C7.12613 94.6124 7.57961 93.931 7.83874 93.0452H5.57134C5.24742 93.6585 4.79394 93.931 4.14611 93.931C3.49828 93.931 2.98002 93.7266 2.59132 93.2496C2.20262 92.8408 2.00827 92.2276 2.00827 91.4781C2.00827 90.7286 2.20262 90.1835 2.59132 89.7066C2.98002 89.2978 3.49828 89.0252 4.14611 89.0252C4.79394 89.0252 5.31221 89.2978 5.57134 89.911H7.90353C7.64439 89.0252 7.12613 88.3439 6.4783 87.8669C5.76569 87.39 4.98829 87.1174 4.14611 87.1174C2.98002 87.1174 2.07306 87.5262 1.23088 88.3439C0.388698 89.2978 0 90.3198 0 91.5462C0 92.7727 0.388698 93.7947 1.16609 94.6124C1.94349 95.43 2.91524 95.8388 4.08133 95.8388Z" fill="#DBDBDB"/>
<path d="M21.2487 91.5469C21.2487 90.3205 20.86 89.2985 20.0827 88.4808C19.3053 87.6632 18.3335 87.2544 17.2322 87.2544C16.0661 87.2544 15.1592 87.6632 14.317 88.4808C13.5396 89.2985 13.1509 90.3205 13.1509 91.5469C13.1509 92.7734 13.5396 93.7954 14.317 94.613C15.0944 95.4307 16.0661 95.8395 17.2322 95.8395C18.3983 95.8395 19.3053 95.4307 20.0827 94.613C20.86 93.7954 21.2487 92.7734 21.2487 91.5469ZM18.7222 93.3185C18.3335 93.7273 17.8153 93.9998 17.1674 93.9998C16.5196 93.9998 16.0013 93.7954 15.6126 93.3185C15.2239 92.9096 15.0296 92.2964 15.0296 91.5469C15.0296 90.7974 15.2239 90.2524 15.6126 89.7754C16.0013 89.3666 16.5196 89.0941 17.1674 89.0941C17.8153 89.0941 18.3335 89.2985 18.7222 89.7754C19.1109 90.1842 19.3053 90.7974 19.3053 91.5469C19.3053 92.2964 19.1109 92.8415 18.7222 93.3185Z" fill="#DBDBDB"/>
<path d="M35.9547 87.3906H33.7521L31.4847 93.1143L29.2173 87.3906H27.0146V95.7035H28.9581V91.002L30.7721 95.7035H32.1973L34.076 91.002V95.7035H35.9547V87.3906Z" fill="#DBDBDB"/>
<path d="M44.117 92.501H45.3479C45.8661 92.501 46.3844 92.4329 46.7731 92.2285C47.1618 92.0922 47.4857 91.8196 47.68 91.5471C48.0687 91.002 48.2631 90.4568 48.2631 89.9117C48.2631 89.2304 48.004 88.6171 47.4857 88.1402C46.9674 87.6632 46.2548 87.3906 45.3479 87.3906H42.2383V95.7035H44.1818V92.501H44.117ZM44.117 88.9578H45.3479C45.607 88.9578 45.8661 89.0259 46.0605 89.2304C46.2548 89.4348 46.3196 89.6392 46.3196 89.9799C46.3196 90.2524 46.2548 90.525 46.0605 90.7294C45.8661 90.9338 45.6718 91.002 45.3479 91.002H44.1818V88.9578H44.117Z" fill="#DBDBDB"/>
<path d="M55.9077 87.3906L53.1221 95.7715H55.1951L55.6486 94.3406H58.4991L58.9525 95.7715H61.0256L58.3047 87.3906H55.9077ZM56.1669 92.7734L57.0738 89.7754L57.9808 92.7734H56.1669Z" fill="#DBDBDB"/>
<path d="M73.5934 95.7035V87.3906H71.6499V92.6373L68.4108 87.3906H66.4673V95.7035H68.4108V90.4569L71.6499 95.7035H73.5934Z" fill="#DBDBDB"/>
<path d="M81.821 93.0461V95.7035H83.7645V93.0461L86.4854 87.3906H84.3475L82.7927 91.1382L81.3027 87.3906H79.1001L81.821 93.0461Z" fill="#DBDBDB"/>
<path d="M48.5228 10.1292C49.7536 11.9006 50.7254 13.9445 51.438 16.0565C52.345 16.1928 53.1871 16.3291 54.0293 16.5335C54.1589 16.6016 54.2884 16.6016 54.4828 16.6697C54.5476 16.6697 54.5476 16.6697 54.6124 16.6697C54.8067 16.7378 55.0011 16.7379 55.1306 16.806C55.325 16.8741 55.4545 16.9422 55.6489 16.9422C55.7785 17.0104 55.9728 17.0104 56.1024 17.0785C56.2319 17.1466 56.4263 17.2148 56.5559 17.2148C56.6854 17.2829 56.815 17.351 57.0093 17.351C57.1389 17.4192 57.2685 17.4873 57.398 17.4873C58.2402 17.8279 59.0176 18.1686 59.795 18.6455C59.9893 18.7136 60.1837 18.8499 60.378 18.9862C60.702 19.1906 61.0259 19.3268 61.285 19.5312C61.4146 19.5993 61.5441 19.6675 61.6737 19.8037C61.7385 19.8719 61.8033 19.8719 61.868 19.94C61.9976 20.0081 62.1272 20.1444 62.2567 20.2125C62.3863 20.2807 62.5159 20.4169 62.6454 20.4851C64.1354 21.5751 65.4959 22.8015 66.7268 24.1641C66.8563 24.3004 66.9859 24.5048 67.1802 24.641C67.3098 24.7773 67.3746 24.9136 67.5042 25.0498C67.6985 25.2542 67.8929 25.4586 68.0224 25.7311C68.152 25.8674 68.2168 26.0037 68.3463 26.1399C68.4759 26.3443 68.6055 26.4806 68.735 26.685C68.8646 26.8894 68.9942 27.0256 69.1237 27.23C69.2533 27.4344 69.3829 27.5707 69.4476 27.7751C69.7068 28.1157 69.9011 28.5245 70.0955 28.8652C70.225 29.0695 70.2898 29.2058 70.4194 29.4102C70.549 29.6146 70.6137 29.819 70.7433 29.9552C70.9377 30.364 71.132 30.7728 71.3264 31.1816C71.3911 31.3179 71.4559 31.5223 71.5207 31.6585C71.5855 31.7948 71.6503 31.9992 71.715 32.1354C71.7798 32.2717 71.8446 32.408 71.9094 32.6124C71.9742 32.7486 72.039 32.8849 72.039 33.0211C72.1685 33.3618 72.2981 33.7024 72.4277 34.1112C72.4924 34.3156 72.5572 34.52 72.622 34.7244C72.6868 34.9288 72.7516 35.1332 72.8164 35.3376C72.9459 35.9508 73.1403 36.4958 73.2051 37.109C73.2051 37.2453 73.2698 37.3815 73.2698 37.5859C73.2698 37.654 73.2698 37.7903 73.3346 37.8584C73.3346 37.9947 73.3994 38.0628 73.3994 38.1991C73.3994 38.3354 73.4642 38.5397 73.4642 38.676C73.4642 38.8123 73.529 39.0167 73.529 39.1529C73.529 39.2211 73.529 39.2892 73.529 39.3573C73.529 39.4936 73.529 39.6298 73.5938 39.7661C73.5938 39.9024 73.5938 40.0386 73.5938 40.1068C73.5938 40.3111 73.6585 40.4474 73.6585 40.6518C73.6585 40.8562 73.6585 41.0606 73.7233 41.3331C73.7233 41.5375 73.7233 41.81 73.7233 42.0144C73.7233 42.2188 73.7233 42.4913 73.7233 42.6957C73.7233 57.6845 62.1272 69.8118 47.9397 69.8118C47.7454 69.8118 47.4862 69.8118 47.2919 69.8118C47.0975 69.8118 46.8384 69.8118 46.6441 69.8118C46.4497 69.8118 46.1906 69.8118 45.9962 69.7437C45.8019 69.7437 45.6075 69.6756 45.4132 69.6756C45.2188 69.6756 45.0893 69.6074 44.8949 69.6074C44.7654 69.6074 44.7006 69.6074 44.571 69.5393C44.4414 69.5393 44.2471 69.4712 44.1175 69.4712C44.1175 69.4712 44.1175 69.4712 44.0527 69.4712C43.9232 69.4712 43.7288 69.4031 43.5993 69.4031C43.4697 69.4031 43.3401 69.3349 43.2106 69.3349C43.0162 69.2668 42.8219 69.2668 42.6275 69.1987C41.591 68.9943 40.6193 68.7217 39.6475 68.313C39.4532 68.2448 39.2588 68.1767 39.0645 68.1086C38.8701 68.0404 38.6758 67.9723 38.5462 67.9042C38.2871 67.7679 38.0279 67.6998 37.8336 67.5635C37.704 67.4954 37.5097 67.4273 37.3801 67.3591C37.1858 67.291 37.0562 67.2229 36.8618 67.0866C36.6675 66.9503 36.4731 66.8822 36.214 66.7459C36.0197 66.6778 35.8901 66.5416 35.6957 66.4734C35.5014 66.3372 35.3071 66.269 35.1127 66.1328C34.9184 65.9965 34.724 65.9284 34.5944 65.7921C34.2705 65.5877 33.9466 65.3833 33.6227 65.1108L33.5579 65.0427C33.3636 64.9064 33.234 64.7701 33.0397 64.702C32.8453 64.5658 32.7157 64.4295 32.5214 64.2932C32.327 64.157 32.1975 64.0207 32.0031 63.8844C31.8736 63.7482 31.744 63.68 31.6144 63.5438C31.4201 63.3394 31.2257 63.2031 30.9666 62.9987C30.837 62.8625 30.7075 62.7262 30.5779 62.59C30.4483 62.4537 30.254 62.3174 30.1244 62.113C29.9949 61.9768 29.8005 61.8405 29.6709 61.6361C29.4118 61.3636 29.0879 61.0229 28.8288 60.7504C28.6992 60.6142 28.5696 60.4098 28.3753 60.2054C28.1161 59.8647 27.857 59.5241 27.5979 59.1834C27.4683 58.979 27.274 58.7746 27.1444 58.5702C27.0796 58.434 26.9501 58.2977 26.8853 58.2296C26.8853 58.1614 26.8205 58.1614 26.8205 58.0933C26.6909 57.9571 26.6261 57.7527 26.4966 57.6164C26.367 57.4801 26.3022 57.2757 26.1727 57.1395C26.0431 56.9351 25.9135 56.7307 25.784 56.4582C25.5896 56.1175 25.3953 55.7087 25.2009 55.3681C24.8122 54.6186 24.4883 53.9373 24.1644 53.1198C24.0996 52.9154 24.0348 52.7791 23.97 52.5747C23.9053 52.4385 23.8405 52.3022 23.8405 52.1659C23.7757 52.0297 23.7757 51.8934 23.7109 51.8253C23.6461 51.689 23.6461 51.5528 23.5813 51.4165C23.5166 51.2121 23.4518 51.0758 23.387 50.8714C23.3222 50.667 23.2574 50.5308 23.1926 50.3264V50.2583C23.1279 50.0539 23.0631 49.9176 23.0631 49.7132C22.9983 49.5088 22.9335 49.3044 22.9335 49.1C22.804 48.4869 22.6744 47.8737 22.5448 47.2605C22.48 47.0561 22.48 46.8517 22.4153 46.6473C22.4153 46.4429 22.3505 46.2385 22.3505 46.0341C20.3422 45.2847 18.4635 44.2627 16.7144 42.9683C17.0383 60.8186 30.837 75.1942 47.9397 75.1942C65.172 75.1942 79.1651 60.4779 79.1651 42.3551C79.2947 24.9817 65.5607 10.4017 48.5228 10.1292ZM22.3505 40.3793C22.3505 40.1749 22.4153 39.9705 22.4153 39.7661C22.4153 39.5617 22.48 39.3573 22.48 39.1529C22.48 38.9485 22.5448 38.7441 22.5448 38.5397C22.5448 38.3354 22.6096 38.131 22.6096 37.9266C22.7392 37.109 22.9335 36.3596 23.1279 35.6101C23.1926 35.4057 23.2574 35.2013 23.2574 35.0651C23.3222 34.9288 23.3222 34.7925 23.387 34.6563C23.387 34.5882 23.4518 34.52 23.4518 34.4519C23.5166 34.3156 23.5813 34.1112 23.5813 33.975C23.6461 33.8387 23.6461 33.7024 23.7109 33.5662C23.7109 33.4981 23.7757 33.3618 23.7757 33.2937C23.9053 32.953 24.0348 32.6805 24.1644 32.3398C24.294 31.9992 24.4883 31.5904 24.6179 31.2497C24.6827 31.0453 24.7474 30.9091 24.877 30.7728C24.9418 30.6366 25.0066 30.5684 25.0066 30.4322C25.0714 30.2959 25.1361 30.1596 25.2009 30.0234C25.2009 29.9552 25.2657 29.9552 25.2657 29.8871C25.3305 29.6827 25.4601 29.5465 25.5248 29.4102C25.5896 29.2739 25.7192 29.1377 25.784 28.9333C25.8487 28.797 25.9135 28.6608 25.9783 28.5245C26.0431 28.3882 26.1079 28.3201 26.1727 28.1838C26.4966 27.7069 26.7557 27.23 27.0796 26.7531C27.2092 26.6168 27.274 26.4124 27.4035 26.2762C27.4683 26.1399 27.5979 26.0718 27.6627 25.9355C27.9218 25.5949 28.1809 25.2542 28.4401 24.9136C28.5696 24.7773 28.6992 24.641 28.764 24.5048C29.0231 24.2323 29.2822 23.9597 29.5414 23.6872C29.6709 23.5509 29.7357 23.4828 29.8653 23.3465C30.0596 23.1422 30.1892 23.0059 30.3836 22.8696C30.5131 22.7334 30.6427 22.6652 30.7722 22.529C30.9666 22.3246 31.2257 22.1202 31.4849 21.9158C31.6144 21.8477 31.744 21.7114 31.8736 21.6433C32.3918 21.2345 32.9101 20.8257 33.4931 20.4169C33.6227 20.2807 33.817 20.2125 33.9466 20.0763C34.0762 20.0081 34.2057 19.8719 34.3353 19.8037C34.4001 19.7356 34.5297 19.6675 34.6592 19.5993C34.7888 19.5312 34.9184 19.395 35.1127 19.3268C35.3071 19.1906 35.5014 19.1224 35.631 18.9862C35.8253 18.8499 36.0197 18.7818 36.214 18.6455C36.4084 18.5774 36.6027 18.4411 36.7971 18.373C37.121 18.2367 37.4449 18.0323 37.8336 17.8961C38.0927 17.7598 38.3518 17.6917 38.611 17.5554C38.8053 17.4873 38.9349 17.4192 39.1292 17.351C39.2588 17.2829 39.4532 17.2148 39.5827 17.1466C39.6475 17.1466 39.7123 17.0785 39.8419 17.0785C40.0362 17.0104 40.1658 16.9422 40.3601 16.8741C40.5545 16.806 40.7488 16.7378 40.9432 16.6697C41.1375 16.6016 41.3319 16.5335 41.5262 16.4653C41.7206 16.3972 41.9149 16.3972 42.0445 16.3291C42.174 16.3291 42.3036 16.2609 42.4332 16.2609C42.498 16.2609 42.5627 16.2609 42.6275 16.1928C42.7571 16.1928 42.8219 16.1247 42.9514 16.1247C43.1458 16.0565 43.3401 16.0565 43.5345 15.9884C43.664 15.9884 43.7936 15.9203 43.9232 15.9203C44.0527 15.9203 44.1823 15.8521 44.3119 15.8521C44.7006 15.784 45.0245 15.784 45.4132 15.7159C44.5062 13.7401 43.2754 12.0368 41.7853 10.5379C29.4766 13.1269 19.7592 23.3465 17.2974 36.3596C18.8522 38.131 20.5365 39.4254 22.3505 40.3793Z" fill="#DBDBDB"/>
<path d="M52.3448 19.5995C50.9843 19.327 49.5591 19.1907 48.0691 19.1907C47.6156 19.1907 47.1621 19.1907 46.7087 19.2589C47.0974 20.7577 47.2917 22.3929 47.2917 24.028C47.2917 34.1114 39.5178 42.2872 29.9299 42.2872C28.3751 42.2872 26.8851 42.0828 25.4599 41.674C25.4599 42.1509 25.3951 42.5597 25.3951 43.0366C25.3951 44.6036 25.5246 46.1025 25.7838 47.6014C27.1442 47.8739 28.5047 48.0102 29.9299 48.0102C42.4978 48.0102 52.6687 37.3136 52.6687 24.0962C52.7335 22.461 52.6039 20.9621 52.3448 19.5995ZM29.9947 0.0458984C17.4268 0.0458984 7.25586 10.7425 7.25586 23.9599C7.25586 30.5005 9.71761 36.4279 13.7989 40.7201C13.9285 38.1312 14.382 35.5422 15.0298 33.0895C13.5398 30.4324 12.6976 27.2983 12.6976 23.9599C12.6976 13.8765 20.4716 5.70078 30.0595 5.70078C33.2338 5.70078 36.149 6.58648 38.6756 8.15349C41.0078 7.47218 43.4695 6.99527 45.9313 6.859C41.7852 2.63488 36.149 0.0458984 29.9947 0.0458984Z" fill="#DBDBDB"/>
</svg>
