<svg width="77" height="104" viewBox="0 0 77 104" fill="none" xmlns="http://www.w3.org/2000/svg">
<path d="M32.2969 6.00323C32.3669 6.00323 32.437 6.00323 32.5771 6.00323C33.0675 6.00323 33.5579 6.07691 34.1184 6.07691C36.4303 6.22427 38.6721 6.59266 40.8439 7.10841V1.50883C38.6021 0.919404 36.2902 0.477332 33.9082 0.329975C32.9975 0.256296 32.0167 0.182617 31.0358 0.182617C30.7556 0.182617 30.5454 0.182617 30.2652 0.182617C25.7114 0.182617 21.0176 0.845725 16.3237 2.09826C10.9993 3.49816 5.88509 5.63484 1.5415 8.36095V64.7988C5.81503 62.3674 10.649 60.3781 15.6231 59.0519C19.5464 58.0204 23.5397 57.3573 27.4629 57.1362H27.533C27.603 57.1362 27.603 57.1362 27.603 57.1362C28.3036 57.1362 28.9341 57.0626 29.6347 57.0626V51.3156C24.5905 51.3893 19.4062 52.0524 14.292 53.4523C12.4005 53.9681 10.649 54.4838 8.96763 55.0732L7.07607 55.7363V53.5997V12.708V11.7502L7.91676 11.3081C10.9993 9.76085 14.292 8.50831 17.7249 7.62416C21.1577 6.74002 24.5205 6.15059 27.8832 6.00323C27.9533 6.00323 28.0234 6.00323 28.0234 6.00323C28.794 5.92955 29.5646 5.92955 30.3353 5.92955C30.6155 5.92955 30.8957 5.92955 31.176 5.92955H31.246C31.5262 6.00323 31.9466 6.00323 32.2969 6.00323Z" fill="#DBDBDB"/>
<path d="M45.8881 11.9711C44.627 11.9711 43.366 11.8975 42.175 11.8238C40.7038 11.6764 39.2326 11.5291 37.8314 11.308C36.9907 11.1607 36.15 11.0133 35.3093 10.7923V66.5672C38.532 67.4513 42.1049 67.8934 45.8881 67.8934C50.4418 67.8934 55.1357 67.2303 59.8296 66.0514C65.154 64.6515 70.2682 62.4411 74.6118 59.7887V4.23486C70.3383 6.66627 65.5043 8.65559 60.5302 9.98181C55.5561 11.308 50.652 11.9711 45.8881 11.9711ZM67.1857 12.929L69.0772 12.2659V14.4025V55.368V56.3258L68.2365 56.7679C65.154 58.3151 61.8613 59.5677 58.4284 60.4518C54.1549 61.557 49.9514 62.1464 45.818 62.1464C44.557 62.1464 43.2959 62.0728 42.1049 61.9991L40.7738 61.8517V60.4518V60.3045V56.5468V18.2338V16.6129L42.3151 16.6866C43.436 16.7603 44.557 16.8339 45.818 16.8339C51.0724 16.8339 56.4668 16.0972 61.7912 14.6973C63.6127 14.1078 65.4342 13.5921 67.1857 12.929Z" fill="#DBDBDB"/>
<path d="M5.25434 84.1031C4.69387 83.5137 3.9933 83.219 3.08254 83.219C2.6622 83.219 2.24185 83.2927 1.8215 83.44C1.47121 83.5874 1.12093 83.8084 0.840694 84.1031C0.560463 84.3978 0.350289 84.6926 0.210173 85.1346C0.0700578 85.503 0 85.9451 0 86.3871V93.9023C0 94.5654 0.0700578 95.0812 0.280231 95.4495C0.490405 95.8179 0.700578 96.1863 0.98081 96.4074C1.26104 96.6284 1.61133 96.8494 1.96162 96.9231C2.31191 96.9968 2.6622 97.0705 3.01249 97.0705C3.43283 97.0705 3.78312 96.9968 4.20347 96.7757C4.55376 96.6284 4.90405 96.3337 5.11422 96.039C5.39445 95.7443 5.60463 95.3759 5.74474 95.0075C5.88486 94.6391 5.95492 94.197 5.95492 93.8286V93.0182H4.27353V93.6813C4.27353 93.976 4.20347 94.197 4.13341 94.3444C4.06335 94.4917 3.9933 94.6391 3.85318 94.7864C3.71306 94.8601 3.57295 94.9338 3.43283 95.0075C3.29272 95.0811 3.1526 95.0812 3.01249 95.0812C2.59214 95.0812 2.31191 94.9338 2.10173 94.7128C1.96162 94.4181 1.8215 94.1233 1.8215 93.6813V86.6819C1.8215 86.2398 1.89156 85.8714 2.03168 85.503C2.17179 85.2083 2.52208 85.0609 2.94243 85.0609C3.29272 85.0609 3.57295 85.2083 3.78312 85.503C3.9933 85.7977 4.06335 86.0924 4.06335 86.5345V87.1976H5.95492V86.4608C5.95492 86.0188 5.88486 85.5767 5.74474 85.1346C5.74474 84.6926 5.53457 84.3978 5.25434 84.1031Z" fill="#DBDBDB"/>
<path d="M16.4636 83.9555C16.1834 83.6608 15.8331 83.5134 15.4828 83.3661C15.1325 83.2187 14.7121 83.145 14.3618 83.145C14.0116 83.145 13.5912 83.2187 13.2409 83.3661C12.8906 83.5134 12.5403 83.7344 12.2601 83.9555C11.9799 84.2502 11.6996 84.6186 11.5595 84.987C11.3494 85.429 11.2793 85.8711 11.2793 86.4605V93.6809C11.2793 94.2704 11.3494 94.7861 11.5595 95.1545C11.7697 95.5966 11.9799 95.8913 12.2601 96.186C12.5403 96.4807 12.8906 96.7017 13.2409 96.8491C13.5912 96.9964 14.0116 97.0701 14.3618 97.0701C14.7121 97.0701 15.1325 96.9964 15.4828 96.8491C15.8331 96.7017 16.1834 96.4807 16.4636 96.186C16.7438 95.8913 17.024 95.5966 17.1642 95.1545C17.3743 94.7124 17.4444 94.2704 17.4444 93.6809V86.4605C17.4444 85.9448 17.3743 85.429 17.1642 84.987C17.024 84.6186 16.7438 84.2502 16.4636 83.9555ZM15.5528 93.7546C15.5528 94.1967 15.4127 94.5651 15.2025 94.7861C14.9223 95.0071 14.6421 95.1545 14.2918 95.1545C13.9415 95.1545 13.6613 95.0071 13.381 94.7861C13.1008 94.5651 13.0307 94.1967 13.0307 93.7546V86.5342C13.0307 86.0921 13.1709 85.7237 13.381 85.5027C13.6613 85.2817 13.9415 85.1343 14.2918 85.1343C14.6421 85.1343 14.9223 85.2817 15.2025 85.5027C15.4828 85.7237 15.5528 86.0921 15.5528 86.5342V93.7546Z" fill="#DBDBDB"/>
<path d="M31.1757 96.9961V83.2922H29.3542L26.9723 90.5125H26.9022L24.5202 83.2922H22.7688V96.9961H24.5903V88.6706H24.6604L26.4819 94.5647H27.3926L29.2842 88.6706V96.9961H31.1757Z" fill="#DBDBDB"/>
<path d="M41.7546 84.25C41.4043 83.8816 41.054 83.6606 40.7037 83.5133C40.2834 83.3659 39.863 83.2922 39.3726 83.2922H36.5703V96.9961H38.4619V91.6177H39.4427C40.1433 91.6177 40.7037 91.4703 41.1241 91.2493C41.5444 91.0283 41.8947 90.6599 42.1749 90.2178C42.3851 89.8494 42.5252 89.4811 42.5953 89.039C42.6654 88.5969 42.6654 88.0812 42.6654 87.4918C42.6654 86.6814 42.5953 86.0183 42.4552 85.5762C42.3151 84.9868 42.1049 84.6184 41.7546 84.25ZM40.8438 88.4496C40.8438 88.7443 40.7738 88.9653 40.7037 89.1864C40.6337 89.4074 40.4235 89.5547 40.2133 89.7021C40.0031 89.8494 39.7229 89.8494 39.3026 89.8494H38.3918V85.2078H39.3726C39.7229 85.2078 40.0031 85.2815 40.2133 85.3552C40.4235 85.5025 40.5636 85.6499 40.6337 85.8709C40.7037 86.0919 40.7738 86.313 40.7738 86.6077C40.7738 86.9024 40.7738 87.1971 40.7738 87.4918C40.8438 87.7865 40.8438 88.1549 40.8438 88.4496Z" fill="#DBDBDB"/>
<path d="M50.5819 83.2922H49.0406L46.1682 96.9961H48.0598L48.6202 94.049H51.1423L51.7028 96.9961H53.5943L50.5819 83.2922ZM48.9005 92.2071L49.8112 87.2708H49.8813L50.792 92.2071H48.9005Z" fill="#DBDBDB"/>
<path d="M62.6316 91.544L59.8293 83.2922H58.0078V96.9961H59.8994V88.7443L62.7717 96.9961H64.5232V83.2922H62.6316V91.544Z" fill="#DBDBDB"/>
<path d="M74.0513 83.2922L72.58 88.7443H72.51L71.0388 83.2922H69.0771L71.5992 91.1756V96.9961H73.4908V91.1756L76.0129 83.2922H74.0513Z" fill="#DBDBDB"/>
<path d="M0.0700684 100.828H0.980823V103.481H1.61135V100.828H2.45204V100.312H0.0700684V100.828Z" fill="#DBDBDB"/>
<path d="M7.63654 100.312L6.44556 103.481H7.07608L7.35631 102.744H8.5473L8.82753 103.481H9.52811L8.33712 100.312H7.63654ZM7.49643 102.228L7.91677 101.049L8.33712 102.228H7.49643Z" fill="#DBDBDB"/>
<path d="M15.0623 102.302H15.7629V102.744C15.5527 102.891 15.2725 103.039 15.0623 103.039C14.7821 103.039 14.5719 102.965 14.4318 102.744C14.2917 102.523 14.2216 102.302 14.2216 101.933C14.2216 101.196 14.5018 100.902 15.0623 100.902C15.4126 100.902 15.6228 101.049 15.7629 101.417L16.3934 101.27C16.2533 100.68 15.8329 100.312 15.1324 100.312C14.712 100.312 14.3617 100.459 14.0815 100.754C13.8013 101.049 13.6611 101.417 13.6611 102.007C13.6611 102.523 13.8013 102.891 14.0815 103.186C14.3617 103.481 14.712 103.628 15.2024 103.628C15.6928 103.628 16.1832 103.481 16.4635 103.112V101.86H15.1324V102.302H15.0623Z" fill="#DBDBDB"/>
<path d="M23.6793 100.312H23.0488V103.481H25.2206V102.965H23.6793V100.312Z" fill="#DBDBDB"/>
<path d="M30.1247 100.312H29.4941V103.481H30.1247V100.312Z" fill="#DBDBDB"/>
<path d="M36.4299 102.449L35.1689 100.312H34.6084V103.481H35.1689V101.417L36.3598 103.481H36.9904V100.312H36.4299V102.449Z" fill="#DBDBDB"/>
<path d="M42.1047 102.081H43.6459V101.565H42.1047V100.828H43.786V100.312H41.5442V103.481H43.8561V102.965H42.1047V102.081Z" fill="#DBDBDB"/>
<path d="M54.9953 101.565H53.8043V100.312H53.1738V103.481H53.8043V102.081H54.9953V103.481H55.6259V100.312H54.9953V101.565Z" fill="#DBDBDB"/>
<path d="M60.7401 102.081H62.2114V101.565H60.7401V100.828H62.3515V100.312H60.1096V103.481H62.4215V102.965H60.7401V102.081Z" fill="#DBDBDB"/>
<path d="M68.5168 102.081C69.0773 102.007 69.2875 101.713 69.2875 101.197C69.2875 100.828 69.2174 100.607 69.0073 100.46C68.7971 100.312 68.5168 100.239 68.0965 100.239H66.8354V103.407H67.466V102.081H67.6061C67.7462 102.081 67.8863 102.081 67.9564 102.155C68.0264 102.228 68.0965 102.302 68.1666 102.376L68.7971 103.407H69.4977L69.1474 102.818C68.9372 102.449 68.727 102.155 68.5168 102.081ZM67.8863 101.639H67.466V100.828H67.9564C68.3067 100.828 68.5169 100.828 68.5869 100.902C68.657 100.976 68.727 101.049 68.727 101.197C68.727 101.344 68.657 101.491 68.5869 101.491C68.3767 101.639 68.1666 101.639 67.8863 101.639Z" fill="#DBDBDB"/>
<path d="M74.3315 102.081H75.8727V101.565H74.3315V100.828H76.0129V100.312H73.771V103.481H76.0829V102.965H74.3315V102.081Z" fill="#DBDBDB"/>
</svg>
