<svg width="92" height="102" viewBox="0 0 92 102" fill="none" xmlns="http://www.w3.org/2000/svg">
<path d="M4.1861 93.6013C5.27812 93.6013 6.30948 93.1547 7.03749 92.389L5.8848 91.1766C5.46013 91.5595 4.85344 91.8147 4.1861 91.8147C2.79073 91.8147 1.69871 90.6662 1.69871 89.1986C1.69871 87.731 2.8514 86.5825 4.1861 86.5825C4.85344 86.5825 5.46013 86.8377 5.8848 87.2844L7.03749 86.0082C6.30948 85.2426 5.27812 84.7959 4.1861 84.7959C1.88071 84.7959 0 86.7739 0 89.1986C0 91.6233 1.88071 93.6013 4.1861 93.6013Z" fill="#DBDBDB"/>
<path d="M22.2045 89.1986C22.2045 86.7739 20.3238 84.7959 18.0184 84.7959C15.713 84.7959 13.8323 86.7739 13.8323 89.1986C13.8323 91.6233 15.713 93.6013 18.0184 93.6013C20.3238 93.6013 22.2045 91.6233 22.2045 89.1986ZM18.079 91.8147C16.6837 91.8147 15.5917 90.6024 15.5917 89.1986C15.5917 87.731 16.7443 86.5825 18.079 86.5825C19.4744 86.5825 20.5664 87.7949 20.5664 89.1986C20.5664 90.6662 19.4137 91.8147 18.079 91.8147Z" fill="#DBDBDB"/>
<path d="M38.0391 93.6013V84.7959H36.2797L33.853 91.2404L31.4262 84.7959H29.6062V93.6013H31.2442V89.1986L32.9429 93.6013H34.763L36.401 89.1986V93.6013H38.0391Z" fill="#DBDBDB"/>
<path d="M47.0787 90.0918H47.7461C49.1414 90.0918 50.2335 88.8793 50.2335 87.4755C50.2335 86.0078 49.1414 84.8591 47.7461 84.8591H45.4407V93.6653H47.0787V90.0918ZM47.0787 86.5821H47.7461C48.2314 86.5821 48.5954 86.965 48.5954 87.4755C48.5954 87.9221 48.2314 88.3688 47.7461 88.3688H47.0787V86.5821Z" fill="#DBDBDB"/>
<path d="M61.3355 84.7959H59.5761L56.5427 93.6013H58.3021L59.1515 91.1766H61.6995L62.5489 93.6013H64.3082L61.3355 84.7959ZM59.7581 89.39L60.4255 87.412L61.0928 89.39H59.7581Z" fill="#DBDBDB"/>
<path d="M78.4438 93.6013V84.7959H76.8057V90.6662L73.469 84.7959H71.5276V93.6013H73.1656V87.731L76.5024 93.6013H78.4438Z" fill="#DBDBDB"/>
<path d="M87.4832 84.7959H85.6025L87.7866 89.39V93.6013H89.4246V89.39L91.6087 84.7959H89.7886L88.6359 87.2206L87.4832 84.7959Z" fill="#DBDBDB"/>
<path d="M0.970687 101.066H1.5167V97.8752H2.48739V97.3647H0V97.8752H0.970687V101.066Z" fill="#DBDBDB"/>
<path d="M6.36998 97.3647L5.09595 101.066H5.64196L5.88463 100.236H7.28L7.58334 101.066H8.12935L6.85532 97.3647H6.36998ZM6.06664 99.7256L6.55198 98.1304L7.03733 99.7256H6.06664Z" fill="#DBDBDB"/>
<path d="M11.9513 98.1308C12.012 98.067 12.0726 98.0032 12.194 97.9394C12.2546 97.8756 12.376 97.8756 12.4973 97.8756C12.6793 97.8756 12.8006 97.9394 12.922 98.0032C13.0433 98.1308 13.104 98.2584 13.1646 98.386H13.7107C13.65 98.067 13.5287 97.8118 13.286 97.6203C13.0433 97.4289 12.8006 97.3013 12.4366 97.3013C12.1333 97.3013 11.9513 97.3651 11.7693 97.4927C11.5873 97.6203 11.4659 97.8118 11.3446 97.9394C11.2839 98.0032 11.2233 98.1308 11.2233 98.3222C11.2233 98.4499 11.1626 98.7689 11.1626 99.2156C11.1626 99.6623 11.1626 99.9175 11.2233 100.109C11.2233 100.173 11.2233 100.237 11.2839 100.3C11.2839 100.364 11.3446 100.428 11.3446 100.492C11.4053 100.683 11.5873 100.811 11.7693 100.938C11.9513 101.066 12.194 101.13 12.4366 101.13C12.8006 101.13 13.104 101.002 13.3467 100.747C13.5893 100.492 13.7107 100.173 13.7107 99.7899V99.0242H12.4366V99.5346H13.1646V99.7261C13.1646 99.9813 13.104 100.173 12.9826 100.3C12.8613 100.428 12.6793 100.556 12.4366 100.556C12.3153 100.556 12.194 100.556 12.1333 100.492C12.012 100.428 11.9513 100.364 11.8906 100.3C11.8299 100.237 11.7693 100.109 11.7693 99.9813C11.7693 99.8537 11.7086 99.5984 11.7086 99.2156C11.7086 98.8327 11.7086 98.5775 11.7693 98.4499C11.8299 98.3222 11.8906 98.2584 11.9513 98.1308Z" fill="#DBDBDB"/>
<path d="M17.4119 97.3647V101.066H19.6566V100.555H17.8972V97.3647H17.4119Z" fill="#DBDBDB"/>
<path d="M23.6607 97.3647H23.1147V101.066H23.6607V97.3647Z" fill="#DBDBDB"/>
<path d="M29.4848 99.9808L27.9075 97.3647H27.4221V101.066H27.9075V98.4495H27.9681L29.5455 101.066H30.0308V97.3647H29.4848V99.9808Z" fill="#DBDBDB"/>
<path d="M36.037 97.8752V97.3647H33.7922V101.066H36.037V100.555H34.2776V99.4704H35.7943V98.9599H34.2776V97.8752H36.037Z" fill="#DBDBDB"/>
<path d="M44.1057 97.5564C43.9237 97.6841 43.8024 97.8755 43.681 98.0032C43.6204 98.067 43.5597 98.1946 43.5597 98.386C43.5597 98.5137 43.499 98.8328 43.499 99.2795C43.499 99.7262 43.499 99.9814 43.5597 100.173C43.5597 100.237 43.5597 100.301 43.6204 100.364C43.6204 100.428 43.681 100.492 43.681 100.556C43.7417 100.747 43.9237 100.875 44.1057 101.003C44.2877 101.13 44.5304 101.194 44.7731 101.194C45.1371 101.194 45.4404 101.066 45.6831 100.811C45.9258 100.556 46.0471 100.237 46.0471 99.8538V99.088H44.7731V99.5986H45.5011V99.79C45.5011 100.045 45.4404 100.237 45.3191 100.364C45.1977 100.492 45.0157 100.62 44.7731 100.62C44.6517 100.62 44.5304 100.62 44.4697 100.556C44.3484 100.492 44.2877 100.428 44.227 100.364C44.1664 100.301 44.1057 100.173 44.1057 100.045C44.1057 99.9176 44.045 99.6624 44.045 99.2795C44.045 98.8966 44.045 98.6413 44.1057 98.5137C44.1057 98.386 44.1664 98.2584 44.227 98.1946C44.2877 98.1308 44.3484 98.067 44.4697 98.0032C44.5304 97.9393 44.6517 97.9393 44.7731 97.9393C44.9551 97.9393 45.0764 98.0032 45.1977 98.067C45.3191 98.1946 45.3797 98.3222 45.4404 98.4499H45.9864C45.9258 98.1308 45.8044 97.8755 45.5617 97.6841C45.3191 97.4926 45.0764 97.365 44.7124 97.365C44.5304 97.3012 44.2877 97.365 44.1057 97.5564Z" fill="#DBDBDB"/>
<path d="M51.9321 100.428C51.9928 100.364 52.0534 100.236 52.0534 100.045C52.0534 99.9171 52.1141 99.5981 52.1141 99.1514C52.1141 98.7048 52.1141 98.4496 52.0534 98.2582C52.0534 98.1306 51.9928 98.003 51.9321 97.8753C51.8714 97.6839 51.6894 97.5563 51.5074 97.4287C51.3254 97.3011 51.0827 97.2373 50.7794 97.2373C50.4761 97.2373 50.2941 97.3011 50.1121 97.4287C49.93 97.5563 49.8087 97.7477 49.6874 97.8753C49.6267 97.9392 49.566 98.0668 49.566 98.2582C49.566 98.3858 49.5054 98.7048 49.5054 99.1514C49.5054 99.5981 49.5054 99.8533 49.566 100.045C49.566 100.109 49.566 100.172 49.6267 100.236C49.6267 100.3 49.6874 100.364 49.6874 100.428C49.748 100.619 49.93 100.747 50.1121 100.874C50.2941 101.002 50.5367 101.066 50.7794 101.066C51.0827 101.066 51.2648 101.002 51.5074 100.874C51.7501 100.747 51.8714 100.619 51.9321 100.428ZM51.3861 100.236C51.3254 100.3 51.2648 100.364 51.1434 100.428C51.0221 100.491 50.9614 100.491 50.8401 100.491C50.7187 100.491 50.5974 100.491 50.5367 100.428C50.4154 100.364 50.3547 100.3 50.2941 100.236C50.2334 100.172 50.1727 100.045 50.1727 99.9171C50.1727 99.7895 50.1121 99.5343 50.1121 99.1514C50.1121 98.7686 50.1121 98.5134 50.1727 98.3858C50.1727 98.2582 50.2334 98.1306 50.2941 98.0668C50.3547 98.003 50.4154 97.9392 50.5367 97.8753C50.5974 97.8115 50.7187 97.8116 50.8401 97.8116C50.9614 97.8116 51.0828 97.8115 51.1434 97.8753C51.2041 97.9392 51.3254 98.003 51.3861 98.0668C51.4468 98.1306 51.5074 98.2582 51.5074 98.3858C51.5074 98.5134 51.5681 98.7686 51.5681 99.1514C51.5681 99.5343 51.5681 99.7895 51.5074 99.9171C51.5074 100.109 51.4468 100.172 51.3861 100.236Z" fill="#DBDBDB"/>
<path d="M57.9381 97.8752V97.3647H55.6934V101.066H57.9381V100.555H56.2394V99.4704H57.6954V98.9599H56.2394V97.8752H57.9381Z" fill="#DBDBDB"/>
<path d="M62.4881 100.556C62.1241 100.556 61.7601 100.428 61.4568 100.173L61.0928 100.619C61.4568 100.938 61.9421 101.13 62.4275 101.13C63.2162 101.13 63.6408 100.747 63.6408 100.045C63.6408 99.7899 63.5802 99.5346 63.3982 99.3432C63.2162 99.1518 62.9735 99.0242 62.6701 98.9603C62.4881 98.9603 62.3668 98.8965 62.2455 98.8965C62.0635 98.8327 61.9421 98.8327 61.8815 98.7051C61.8208 98.6413 61.7601 98.5137 61.7601 98.386C61.7601 98.1946 61.8208 98.067 61.9421 98.0032C62.0635 97.9394 62.1848 97.8756 62.3668 97.8756C62.6701 97.8756 62.9735 98.0032 63.2162 98.1308L63.5195 97.6841C63.2162 97.4289 62.7915 97.3013 62.3668 97.3013C62.0028 97.3013 61.6995 97.4289 61.5175 97.6203C61.3354 97.8118 61.2141 98.067 61.2141 98.386C61.2141 98.6413 61.2748 98.8965 61.4568 99.088C61.6388 99.2794 61.8208 99.407 62.1241 99.4708C62.3061 99.4708 62.4275 99.5346 62.6095 99.5346C62.9128 99.5984 63.0948 99.7261 63.0948 100.045C63.1555 100.364 62.9735 100.556 62.4881 100.556Z" fill="#DBDBDB"/>
<path d="M73.8935 101.066V97.3647H73.3475V98.9599H71.9521V97.3647H71.4668V101.066H71.9521V99.4704H73.3475V101.066H73.8935Z" fill="#DBDBDB"/>
<path d="M79.9 97.8752V97.3647H77.6553V101.066H79.9V100.555H78.2013V99.4704H79.6574V98.9599H78.2013V97.8752H79.9Z" fill="#DBDBDB"/>
<path d="M83.9038 99.4704H84.5711L85.2992 101.066H85.9665L85.1172 99.4066C85.5418 99.2152 85.7845 98.8961 85.7845 98.3857C85.7845 98.0666 85.6632 97.7476 85.4205 97.62C85.2385 97.4285 84.9958 97.3647 84.6925 97.3647H83.2971V101.066H83.8431V99.4704H83.9038ZM83.9038 97.8752H84.7531C84.9351 97.8752 85.0565 97.939 85.1172 98.0028C85.2385 98.0666 85.2992 98.258 85.2992 98.4495C85.2992 98.6409 85.2385 98.7685 85.1778 98.8323C85.0565 98.9599 84.9351 99.0237 84.7531 99.0237H83.9645V97.8752H83.9038Z" fill="#DBDBDB"/>
<path d="M91.6697 97.8752V97.3647H89.3643V101.066H91.6697V100.555H89.9103V99.4704H91.3663V98.9599H89.9103V97.8752H91.6697Z" fill="#DBDBDB"/>
<path d="M11.6483 31.1366V31.2004C11.6483 31.2642 11.6483 31.328 11.6483 31.3919C11.6483 31.3919 11.6483 31.3918 11.6483 31.4557C11.6483 31.5195 11.6483 31.5195 11.6483 31.5833V31.7109C11.6483 31.8385 11.6483 31.9661 11.5876 32.0937C11.5876 32.2213 11.5876 32.2851 11.527 32.4127C11.527 32.4765 11.527 32.4765 11.527 32.5403C11.527 32.6679 11.527 32.7955 11.4663 32.9231C11.4663 33.0507 11.4663 33.1145 11.4663 33.2421V33.3698C11.4663 33.4336 11.4663 33.4336 11.4663 33.4974C11.4663 33.5612 11.4663 33.5612 11.4663 33.625V33.6888V33.7526C11.4663 33.8164 11.4663 33.8164 11.4663 33.8802V33.944C11.4663 34.0716 11.4663 34.1992 11.4663 34.3906C11.4663 34.4544 11.4663 34.5182 11.4663 34.582C11.4663 34.6458 11.4663 34.7096 11.4663 34.7734C11.4663 34.7734 11.4663 34.7734 11.4663 34.8372C11.4663 34.901 11.4663 35.0286 11.4663 35.0924C11.4663 35.1563 11.4663 35.1563 11.4663 35.2201C11.4663 35.3477 11.4663 35.5391 11.4663 35.6667V35.7305V35.7943C11.4663 35.9219 11.4663 36.0495 11.4663 36.1133V36.1771V36.3047C11.4663 36.3685 11.4663 36.3685 11.4663 36.4323V36.4961V36.5599C11.4663 36.6237 11.4663 36.6237 11.4663 36.6875V36.8151V36.9427C11.5876 43.8335 14.1964 50.3415 18.8678 55.1905C23.5393 60.0396 29.7881 62.7193 36.3402 62.7193C37.3716 62.7193 38.403 62.6555 39.4343 62.5279C39.9197 62.4641 40.3443 62.4003 40.8297 62.3365C37.2503 60.2948 34.2775 57.3598 31.9721 53.9145C31.1228 52.6384 30.3948 51.2985 29.7274 49.9586C29.6061 49.6396 29.4241 49.3206 29.3027 49.0016C29.3027 48.9378 29.2421 48.9378 29.2421 48.874C27.604 45.0458 26.8154 40.8986 26.8154 36.6237C26.8154 30.4348 28.5747 24.5011 31.9721 19.3968C32.7608 18.2483 33.6102 17.1637 34.5202 16.079C37.4929 12.7612 41.0724 10.1453 45.1371 8.48642C46.3505 7.97599 47.6245 7.59317 48.8986 7.27415C51.0219 6.76373 53.206 6.50851 55.4507 6.50851C60.6682 6.50851 65.643 7.97599 70.0111 10.6557C69.9504 10.5919 69.9504 10.5919 69.8897 10.5281C69.8291 10.4643 69.7684 10.4005 69.7077 10.3367L69.6471 10.2729C69.5864 10.2091 69.5257 10.1453 69.5257 10.1453C69.4651 10.0815 69.4044 10.0177 69.3437 10.0177C69.2831 9.9539 69.2224 9.89009 69.1617 9.82629L69.101 9.76249C69.101 9.76249 69.101 9.76249 69.0404 9.69868C68.9797 9.63488 68.8584 9.50727 68.7977 9.44347C68.6764 9.37967 68.6157 9.25206 68.4944 9.18826C68.4337 9.18826 68.4337 9.12445 68.373 9.12445C68.3124 9.06065 68.2517 8.99685 68.191 8.93304L68.0697 8.80544L68.009 8.74163L67.9484 8.67783C67.8877 8.61403 67.7663 8.55022 67.7057 8.48642C67.645 8.42262 67.5843 8.35881 67.5237 8.35881C67.3417 8.23121 67.1597 8.03979 66.917 7.91219C66.8563 7.84838 66.7957 7.84838 66.735 7.78458L66.6743 7.72078H66.6137L66.4923 7.65697H66.4316L66.3103 7.52937C66.3103 7.52937 66.2496 7.52937 66.2496 7.46556L66.189 7.40176L66.1283 7.33796C66.0676 7.27415 66.007 7.27415 65.9463 7.21035C65.9463 7.21035 65.9463 7.21035 65.8856 7.21035C65.7643 7.08274 65.5823 7.01894 65.461 6.89133C65.4003 6.82753 65.3396 6.82753 65.279 6.76373C65.279 6.76373 65.2183 6.76373 65.2183 6.69992C65.0969 6.63612 65.0363 6.57232 64.9149 6.50851C64.9149 6.50851 64.8543 6.50851 64.8543 6.44471C64.7936 6.38091 64.7329 6.3171 64.6723 6.3171C64.5509 6.2533 64.4903 6.1895 64.3689 6.12569C64.2476 6.06189 64.1263 5.99809 64.0656 5.93428L63.8836 5.80668L63.8229 5.74287C63.7622 5.74287 63.7623 5.67907 63.7016 5.67907C63.7016 5.67907 63.6409 5.67907 63.6409 5.61526C63.5802 5.55146 63.4589 5.48766 63.3982 5.48766L63.3376 5.42385L63.2769 5.36005C63.2162 5.29625 63.1556 5.29625 63.0342 5.23244C62.5489 4.91343 62.0635 4.65821 61.5175 4.403C61.5175 4.403 61.5175 4.403 61.4569 4.403C61.3355 4.3392 61.2142 4.27539 61.0928 4.21159L60.7895 4.08398C60.4255 3.89257 60.1222 3.76497 59.8188 3.63736C59.7582 3.57355 59.6975 3.57355 59.5761 3.50975H59.5155L59.3941 3.44595C59.3335 3.44595 59.2728 3.38214 59.2728 3.38214H59.2121C58.9088 3.25454 58.6055 3.12693 58.3628 2.99932L58.2414 2.93552L57.6348 2.4889C57.2101 2.29749 56.7854 2.16988 56.3607 2.04227C56.3001 2.04227 56.1787 1.97847 56.1181 1.97847C56.0574 1.97847 55.9361 1.91467 55.8754 1.91467C55.8147 1.91467 55.7541 1.85086 55.6934 1.85086C55.5114 1.78706 55.3294 1.72326 55.1474 1.65945H55.0867C55.026 1.65945 55.026 1.65945 54.9654 1.59565H54.9047C54.5407 1.46804 54.1767 1.40424 53.8127 1.34043C53.57 1.27663 53.388 1.21283 53.1453 1.21283C52.7813 1.14902 52.4173 1.02142 52.0533 0.957614C51.932 0.957614 51.75 0.893811 51.6286 0.893811C51.5073 0.893811 51.3253 0.830008 51.2039 0.830008C51.1433 0.830008 51.0826 0.830008 51.0219 0.830008C50.9613 0.830008 50.8399 0.830007 50.7793 0.766204C50.3546 0.702401 49.9906 0.638597 49.5659 0.638597C48.7165 0.447187 47.9279 0.383384 47.1392 0.31958C46.7145 0.31958 46.2898 0.31958 45.8651 0.31958C45.1371 0.31958 44.4091 0.31958 43.6811 0.383384C43.6204 0.383384 43.4991 0.383384 43.4384 0.383384C42.6497 0.447187 41.8004 0.51099 41.0117 0.638597C40.8904 0.638597 40.7084 0.702401 40.587 0.702401L11.6483 31.1366Z" fill="#DBDBDB"/>
<path d="M80.0216 42.1759C80.0216 42.0483 80.0216 41.9845 80.0216 41.9845C80.0216 41.9207 80.0216 41.8569 80.0216 41.7931V41.7293V41.6655V41.6017V41.3465V41.2189C80.0216 41.0913 80.0822 40.8999 80.0822 40.7723C80.0822 40.6447 80.0822 40.517 80.1429 40.3894C80.1429 40.2618 80.1429 40.198 80.1429 40.0704V39.9428C80.1429 39.879 80.1429 39.8152 80.1429 39.7514C80.1429 39.6876 80.1429 39.56 80.1429 39.4962C80.1429 39.3686 80.1429 39.241 80.1429 39.0496C80.1429 38.922 80.1429 38.7944 80.1429 38.603V38.5391V38.4753V38.4115C80.1429 38.2839 80.1429 38.1563 80.1429 38.0925C80.1429 37.9649 80.1429 37.7735 80.1429 37.6459V37.5821C80.1429 37.4545 80.1429 37.3907 80.1429 37.2631V37.1355C80.1429 37.0717 80.1429 36.9441 80.1429 36.8803C80.1429 36.7527 80.1429 36.6889 80.1429 36.5612V36.4974C80.0216 29.6067 77.4128 23.0988 72.7414 18.2497C68.0699 13.4007 61.8211 10.7209 55.269 10.7209C53.7523 10.7209 52.2356 10.8486 50.7795 11.1676C54.4196 13.0817 57.3317 15.9528 59.6371 19.462C62.9738 24.5024 64.7939 30.4999 64.7939 36.6889C64.7939 42.8778 63.0345 48.8115 59.6371 53.9157C56.361 58.8924 51.8109 62.6568 46.4721 64.8261C43.196 66.1659 39.6773 66.8678 36.1585 66.8678C30.941 66.8678 25.9663 65.4003 21.5981 62.7206L21.6588 62.7844L21.7195 62.8482C21.7801 62.912 21.8408 62.9758 21.9015 63.0396C22.0228 63.1034 22.0835 63.231 22.2048 63.3586C22.2655 63.4224 22.3262 63.4862 22.4475 63.55C22.5688 63.6776 22.6902 63.8052 22.8115 63.9328C22.8722 63.9966 22.9935 64.0604 23.0542 64.188L23.1148 64.2518L23.3575 64.4433L23.4182 64.5071C23.4789 64.5709 23.5395 64.6347 23.6002 64.6985C23.6609 64.7623 23.7215 64.8261 23.7822 64.8899C23.8429 64.9537 23.9035 64.9537 23.9642 65.0175C24.1462 65.1451 24.3282 65.3365 24.5102 65.4641C24.5709 65.5279 24.5709 65.5279 24.6316 65.5917C24.6922 65.6555 24.7529 65.6555 24.7529 65.7193L24.8136 65.7831L24.8742 65.8469C24.9349 65.9107 25.0562 65.9745 25.1169 66.0383L25.1776 66.1021C25.2382 66.1021 25.2382 66.1659 25.2989 66.1659C25.3596 66.2297 25.4202 66.2297 25.4809 66.2936L25.5416 66.3573C25.6629 66.485 25.8449 66.5488 25.9663 66.6764C26.0269 66.7402 26.0876 66.7402 26.1483 66.804L26.2089 66.8678L26.3909 66.9954L26.5729 67.123C26.6336 67.1868 26.7549 67.2506 26.8156 67.3144C26.9369 67.3782 26.9976 67.442 27.0583 67.5058H27.301L27.665 67.8886C27.7256 67.9524 27.7863 67.9524 27.847 68.0162C27.9683 68.08 28.0896 68.1438 28.211 68.2076C28.3323 68.2715 28.393 68.3352 28.5143 68.399C28.9997 68.7181 29.5457 68.9733 30.031 69.2285C30.1524 69.2923 30.2737 69.3561 30.395 69.4199H30.4557C30.577 69.4837 30.6984 69.5475 30.759 69.6113C31.0624 69.8027 31.4264 69.9303 31.7297 70.0579C31.7904 70.1217 31.9117 70.1217 31.9724 70.1855C31.9724 70.1855 32.0331 70.1855 32.0331 70.2493C32.1544 70.3132 32.2757 70.3131 32.3364 70.377C32.5791 70.5046 32.8824 70.6322 33.1858 70.696C33.3071 70.7598 33.3678 70.7598 33.4891 70.8236C33.9138 71.015 34.3385 71.1426 34.7631 71.2702C34.8238 71.2702 34.9451 71.334 35.0058 71.334C35.1271 71.3978 35.2485 71.3978 35.3698 71.4616L35.4911 71.5254C35.6732 71.5892 35.7945 71.5892 35.9765 71.653C36.0372 71.653 36.1585 71.7168 36.2192 71.7168C37.1899 71.972 38.1605 72.2272 39.0706 72.4187C39.1919 72.4187 39.3132 72.4825 39.4952 72.4825C39.6773 72.4825 39.7986 72.5463 39.9199 72.5463C40.0413 72.5463 40.1626 72.6101 40.3446 72.6101C41.922 72.8653 43.56 72.9929 45.1981 72.9929C46.8361 72.9929 48.4741 72.8653 50.0515 72.6101H50.1122C50.2335 72.6101 50.3548 72.5463 50.4762 72.5463L80.0216 42.1759C80.0216 42.1759 80.0216 42.2397 80.0216 42.1759Z" fill="#DBDBDB"/>
</svg>
