<svg width="90" height="108" viewBox="0 0 90 108" fill="none" xmlns="http://www.w3.org/2000/svg">
<path d="M76.5129 9.18396C71.4946 3.84119 64.7416 0.90918 57.555 0.90918C50.3683 0.90918 43.6153 3.84119 38.5351 9.18396C34.57 13.3539 31.968 18.5664 31.0387 24.3001C30.9148 24.8865 30.8528 25.4729 30.7908 26.0593C30.7289 26.6457 30.6669 27.2321 30.6669 27.8185C30.6669 28.2746 30.605 28.7307 30.605 29.1868V33.031V34.7902V36.5494V57.4644H50.5542H52.2269H53.8997C53.8997 57.0083 53.9616 56.487 53.9616 56.0309V52.2519H52.3508H35.6852V36.4842V33.031V29.2519C35.6852 28.7958 35.6852 28.2746 35.7472 27.8185C35.8091 27.2321 35.8091 26.6457 35.933 26.1244C35.995 25.538 36.1189 24.9516 36.2428 24.4304C37.1721 20.065 39.2166 16.0905 42.1904 13.0281C46.0315 8.72787 51.5454 6.12164 57.555 6.12164C69.636 6.12164 79.4247 16.4814 79.4247 29.1216C79.4247 35.4417 76.9466 41.2406 72.9815 45.4105C70.0697 48.4729 66.3524 50.6882 62.1396 51.6655V52.1216V55.9658C62.1396 56.2916 62.1396 56.6173 62.1396 57.0083C67.5296 56.0309 72.5478 53.2944 76.5129 49.1244C81.5931 43.7817 84.381 36.6797 84.381 29.1216C84.381 21.6287 81.5931 14.5267 76.5129 9.18396Z" fill="#DBDBDB"/>
<path d="M35.6855 32.9659H37.2963H38.9071H53.9V48.7337V50.4278V52.1219V55.9009C53.9 56.357 53.9 56.8783 53.838 57.3344C53.776 57.9208 53.776 58.5072 53.6521 59.0284C53.5902 59.6148 53.4663 60.2012 53.3424 60.7225C52.4131 65.088 50.3066 69.0625 47.3948 72.1248C43.4297 76.2948 37.9778 78.9011 31.9063 78.9011C19.8252 78.9011 10.0365 68.5412 10.0365 55.9009C10.0365 49.5808 12.5147 43.7818 16.4797 39.6118C19.3916 36.5495 23.1088 34.3342 27.3217 33.3568V29.0565C27.3217 28.7307 27.3217 28.405 27.3217 28.014C21.9317 28.9914 16.9134 31.7279 12.9484 35.8979C7.99203 41.3059 5.2041 48.4079 5.2041 55.9661C5.2041 63.5242 7.99203 70.6262 13.0723 75.9039C18.1525 81.2467 24.9055 84.1788 32.0921 84.1788C39.2788 84.1788 46.0318 81.2467 51.112 75.9039C55.8825 70.8869 58.6085 64.3712 58.9182 57.3344C58.9182 57.1389 58.9182 56.8783 58.9182 56.6828C58.9182 56.5525 58.9182 56.4222 58.9182 56.2919C58.9182 56.1615 58.9182 56.0312 58.9182 55.9661V52.1219V27.6882H38.969H37.3582H35.6855C35.6855 28.1443 35.6235 28.6656 35.6235 29.1217L35.6855 32.9659Z" fill="#DBDBDB"/>
<path d="M5.69981 98.0569C5.26613 98.4479 4.64659 98.7085 4.02704 98.7085C2.66404 98.7085 1.54886 97.5356 1.54886 96.1021C1.54886 94.6686 2.66404 93.4957 4.02704 93.4957C4.64659 93.4957 5.26613 93.7563 5.69981 94.2124L6.87695 92.9744C6.13349 92.2576 5.14222 91.8015 4.089 91.8015C1.85863 91.8015 0 93.7563 0 96.1021C0 98.4479 1.85863 100.403 4.089 100.403C5.20418 100.403 6.19545 99.9466 6.87695 99.2298L5.69981 98.0569Z" fill="#DBDBDB"/>
<path d="M21.6838 96.1674C21.6838 93.8218 19.8252 91.8672 17.5948 91.8672C15.3645 91.8672 13.5059 93.8218 13.5059 96.1674C13.5059 98.513 15.3645 100.468 17.5948 100.468C19.8872 100.468 21.6838 98.513 21.6838 96.1674ZM17.5948 98.7085C16.2318 98.7085 15.1167 97.5357 15.1167 96.1023C15.1167 94.6689 16.2318 93.4961 17.5948 93.4961C18.9578 93.4961 20.0111 94.6689 20.0111 96.1023C20.073 97.6008 18.9578 98.7085 17.5948 98.7085Z" fill="#DBDBDB"/>
<path d="M37.2345 100.468V91.8672H35.4378L33.0835 98.1221L30.6673 91.8672H28.9326V100.468H30.5434V96.1674L32.1542 100.468H33.9509L35.5617 96.1674V100.468H37.2345Z" fill="#DBDBDB"/>
<path d="M46.7137 91.8672H44.4214V100.468H46.0322V97.0144H46.7137C48.0767 97.0144 49.1299 95.8417 49.1299 94.4734C49.1919 93.04 48.0767 91.8672 46.7137 91.8672ZM46.7137 95.3204H46.0322V93.6264H46.7137C47.1474 93.6264 47.5191 94.0173 47.5191 94.4734C47.5191 94.9295 47.1474 95.3204 46.7137 95.3204Z" fill="#DBDBDB"/>
<path d="M59.9717 91.8672H58.237L55.2632 100.468H56.9979L57.8033 98.0569H60.3434L61.1488 100.468H62.8835L59.9717 91.8672ZM58.4848 96.2977L59.1663 94.3431L59.8478 96.2977H58.4848Z" fill="#DBDBDB"/>
<path d="M75.1499 97.6008L71.8664 91.8672H69.9458V100.468H71.5566V94.734L74.8402 100.468H76.7607V91.8672H75.1499V97.6008Z" fill="#DBDBDB"/>
<path d="M87.5409 100.468V96.3629L89.6473 91.8672H87.8507L86.7355 94.2128L85.5584 91.8672H83.7617L85.9301 96.3629V100.468H87.5409Z" fill="#DBDBDB"/>
<path d="M6.1951 104.116L4.89404 107.765H5.45164L5.69946 106.983H7.00051L7.24833 107.765H7.80592L6.56683 104.116H6.1951ZM5.88532 106.462L6.38096 104.898L6.8766 106.462H5.88532Z" fill="#DBDBDB"/>
<path d="M11.6478 104.898C11.7098 104.833 11.7717 104.768 11.8956 104.703C11.9576 104.638 12.0815 104.638 12.2054 104.638C12.3913 104.638 12.5152 104.703 12.6391 104.768C12.763 104.898 12.825 105.028 12.8869 105.159H13.4445C13.3826 104.833 13.2587 104.572 13.0728 104.377C12.8869 104.182 12.5771 104.051 12.2674 104.051C12.0196 104.051 11.7717 104.116 11.5859 104.247C11.4 104.377 11.2761 104.507 11.1522 104.703C11.0902 104.768 11.0902 104.898 11.0283 105.028C11.0283 105.159 10.9663 105.485 10.9663 105.875C10.9663 106.266 10.9663 106.592 11.0283 106.722C11.0283 106.787 11.0283 106.853 11.0902 106.918C11.0902 106.983 11.1522 107.048 11.1522 107.048C11.2141 107.243 11.4 107.374 11.5859 107.504C11.7717 107.634 12.0196 107.7 12.2674 107.7C12.6391 107.7 12.8869 107.569 13.1347 107.309C13.3826 107.048 13.5065 106.787 13.5065 106.397V105.68H12.2674V106.201H12.9489V106.397C12.9489 106.657 12.8869 106.787 12.763 106.918C12.6391 107.048 12.4532 107.113 12.2674 107.113C12.1435 107.113 12.0196 107.113 11.9576 107.048C11.8956 106.983 11.7717 106.918 11.7098 106.853C11.6478 106.787 11.5859 106.657 11.5859 106.527C11.5859 106.397 11.5239 106.136 11.5239 105.81C11.5239 105.485 11.5239 105.224 11.5859 105.094C11.5239 105.094 11.5859 104.963 11.6478 104.898Z" fill="#DBDBDB"/>
<path d="M16.9751 104.116V107.765H19.1435V107.244H17.4707V104.116H16.9751Z" fill="#DBDBDB"/>
<path d="M23.0469 104.116H22.5513V107.765H23.0469V104.116Z" fill="#DBDBDB"/>
<path d="M28.8087 106.723L27.2598 104.116H26.7642V107.765H27.2598V105.159L28.8706 107.765H29.3663V104.116H28.8087V106.723Z" fill="#DBDBDB"/>
<path d="M35.1899 104.638V104.116H33.0215V107.765H35.1899V107.244H33.5171V106.201H34.9421V105.68H33.5171V104.638H35.1899Z" fill="#DBDBDB"/>
<path d="M43.12 104.312C42.9342 104.442 42.8103 104.572 42.6864 104.768C42.6244 104.833 42.6244 104.963 42.5624 105.094C42.5624 105.224 42.5005 105.55 42.5005 105.941C42.5005 106.332 42.5005 106.657 42.5624 106.788C42.5624 106.853 42.5624 106.918 42.6244 106.983C42.6244 107.048 42.6864 107.113 42.6864 107.113C42.7483 107.309 42.9342 107.439 43.12 107.57C43.3059 107.7 43.5537 107.765 43.8015 107.765C44.1733 107.765 44.4211 107.635 44.6689 107.374C44.9167 107.113 45.0406 106.853 45.0406 106.462V105.745H43.8015V106.266H44.545V106.462C44.545 106.723 44.483 106.853 44.3591 106.983C44.2352 107.113 44.0494 107.179 43.8635 107.179C43.7396 107.179 43.6157 107.179 43.5537 107.113C43.4918 107.048 43.3679 106.983 43.3059 106.918C43.2439 106.853 43.182 106.723 43.182 106.592C43.182 106.462 43.12 106.201 43.12 105.876C43.12 105.55 43.12 105.289 43.182 105.159C43.182 105.029 43.2439 104.963 43.3059 104.833C43.3679 104.768 43.4298 104.703 43.5537 104.638C43.6157 104.572 43.7396 104.572 43.8635 104.572C44.0494 104.572 44.1733 104.638 44.2972 104.703C44.4211 104.833 44.483 104.963 44.545 105.094H45.1026C45.0406 104.768 44.9167 104.507 44.7309 104.312C44.545 104.116 44.2352 103.986 43.9255 103.986C43.5537 104.116 43.3059 104.182 43.12 104.312Z" fill="#DBDBDB"/>
<path d="M48.6341 104.768C48.5721 104.833 48.5721 104.963 48.5102 105.094C48.5102 105.224 48.4482 105.55 48.4482 105.941C48.4482 106.332 48.4482 106.657 48.5102 106.788C48.5102 106.853 48.5102 106.918 48.5721 106.983C48.5721 107.048 48.6341 107.114 48.6341 107.114C48.6961 107.309 48.8819 107.439 49.0678 107.57C49.2536 107.7 49.5015 107.765 49.7493 107.765C49.9971 107.765 50.2449 107.7 50.4308 107.57C50.6166 107.439 50.7405 107.309 50.8025 107.114C50.8644 107.048 50.9264 106.918 50.9264 106.788C50.9264 106.657 50.9264 106.332 50.9264 105.941C50.9264 105.55 50.9264 105.224 50.9264 105.094C50.9264 104.963 50.8644 104.833 50.8025 104.768C50.7405 104.573 50.6166 104.442 50.4308 104.312C50.2449 104.182 49.9971 104.116 49.7493 104.116C49.5015 104.116 49.2536 104.182 49.0678 104.312C48.82 104.442 48.6961 104.573 48.6341 104.768ZM49.0058 105.224C49.0058 105.094 49.0678 105.029 49.1297 104.898C49.1917 104.833 49.2536 104.768 49.3776 104.703C49.4395 104.638 49.5634 104.638 49.6873 104.638C49.8112 104.638 49.9351 104.638 49.9971 104.703C50.059 104.768 50.183 104.833 50.183 104.898C50.2449 104.963 50.3069 105.094 50.3069 105.224C50.3069 105.354 50.3688 105.615 50.3688 105.941C50.3688 106.267 50.3688 106.527 50.3069 106.657C50.3069 106.788 50.2449 106.918 50.183 106.983C50.121 107.048 50.059 107.114 49.9971 107.179C49.9351 107.244 49.8112 107.244 49.6873 107.244C49.5634 107.244 49.4395 107.244 49.3776 107.179C49.3156 107.114 49.1917 107.048 49.1297 106.983C49.0678 106.918 49.0058 106.788 49.0058 106.657C49.0058 106.527 48.9439 106.267 48.9439 105.941C49.0058 105.615 49.0058 105.354 49.0058 105.224Z" fill="#DBDBDB"/>
<path d="M54.4575 107.765H56.6879V107.244H55.0151V106.201H56.4401V105.68H55.0151V104.638H56.6879V104.116H54.4575V107.765Z" fill="#DBDBDB"/>
<path d="M61.1487 107.244C60.7769 107.244 60.4672 107.114 60.1574 106.853L59.7856 107.244C60.1574 107.57 60.5911 107.765 61.0867 107.765C61.8921 107.765 62.2639 107.374 62.3258 106.723C62.3258 106.462 62.2639 106.267 62.078 106.071C61.8921 105.876 61.7063 105.745 61.3345 105.68C61.1487 105.68 61.0248 105.615 60.9628 105.615C60.7769 105.55 60.653 105.55 60.5911 105.42C60.5291 105.354 60.4672 105.224 60.4672 105.159C60.4672 104.963 60.5291 104.833 60.653 104.768C60.7769 104.703 60.9008 104.638 61.0867 104.638C61.3965 104.638 61.7063 104.768 61.9541 104.898L62.2639 104.442C61.9541 104.182 61.5824 104.051 61.1487 104.051C60.7769 104.051 60.5291 104.182 60.3432 104.377C60.1574 104.573 60.0335 104.833 60.0335 105.159C60.0335 105.42 60.0954 105.68 60.2813 105.81C60.4672 106.006 60.653 106.136 60.9628 106.136C61.1487 106.136 61.2726 106.201 61.3965 106.201C61.7063 106.267 61.8302 106.397 61.8302 106.723C61.8302 107.048 61.5824 107.244 61.1487 107.244Z" fill="#DBDBDB"/>
<path d="M69.8838 107.765H70.4414V106.201H71.8044V107.765H72.3V104.116H71.8044V105.68H70.4414V104.116H69.8838V107.765Z" fill="#DBDBDB"/>
<path d="M78.186 104.638V104.116H75.9556V107.765H78.186V107.244H76.5132V106.201H77.9381V105.68H76.5132V104.638H78.186Z" fill="#DBDBDB"/>
<path d="M84.0095 105.159C84.0095 104.833 83.8856 104.573 83.6378 104.377C83.4519 104.247 83.2041 104.116 82.9563 104.116H81.5933V107.765H82.0889V106.201H82.7704L83.5139 107.765H84.1334L83.328 106.136C83.7617 106.006 83.9476 105.615 84.0095 105.159ZM82.0889 105.745V104.638H82.8943C83.0802 104.638 83.2041 104.703 83.2661 104.768C83.39 104.833 83.4519 104.963 83.4519 105.159C83.4519 105.289 83.39 105.42 83.328 105.55C83.2041 105.68 83.0802 105.745 82.8943 105.745H82.0889Z" fill="#DBDBDB"/>
<path d="M87.479 107.765H89.6474V107.244H87.9746V106.201H89.4615V105.68H87.9746V104.638H89.6474V104.116H87.479V107.765Z" fill="#DBDBDB"/>
</svg>
