<svg width="60" height="61" fill="none" xmlns="http://www.w3.org/2000/svg"><path d="M16.748 23.52l13.25 7.675 13.15-7.625M30 44.794V31.169" stroke="#348AF5" stroke-width="2" stroke-linecap="round" stroke-linejoin="round"/><path d="M26.9 16.095l-8 4.45c-1.8 1-3.3 3.525-3.3 5.6v8.475c0 2.075 1.475 4.6 3.3 5.6l8 4.45c1.7.95 4.5.95 6.225 0l8-4.45c1.8-1 3.3-3.525 3.3-5.6v-8.5c0-2.075-1.475-4.6-3.3-5.6l-8-4.45c-1.725-.95-4.525-.95-6.225.025zM55 37.87c0 9.674-7.825 17.5-17.5 17.5l2.625-4.376M4.999 22.87c0-9.675 7.824-17.5 17.5-17.5l-2.625 4.375" stroke="#348AF5" stroke-width="2" stroke-linecap="round" stroke-linejoin="round"/></svg>