<svg width="28" height="28" fill="none" xmlns="http://www.w3.org/2000/svg"><path d="M27.987 24.42a3.268 3.268 0 00-1.164-2.233l-7.075-5.943a10.599 10.599 0 001.58-5.58c0-.902-.113-1.779-.325-2.616l1.726-1.726a2.464 2.464 0 003.521-2.22 2.464 2.464 0 00-2.46-2.461 2.464 2.464 0 00-2.221 3.521l-1.164 1.164C18.74 2.602 15 0 10.665 0 4.783 0 0 4.784 0 10.664s4.784 10.664 10.664 10.664a10.6 10.6 0 005.58-1.58l5.946 7.078a3.267 3.267 0 002.809 1.16 3.269 3.269 0 002.233-1.164 3.27 3.27 0 00.755-2.403zM23.789 3.28a.821.821 0 010 1.64.821.821 0 010-1.64zM10.664 19.7c-4.975 0-9.034-4.048-9.034-9.024 0-4.975 4.059-9.045 9.034-9.045 3.895 0 7.22 2.49 8.482 5.955l-2.5 2.5a2.445 2.445 0 00-2.12 0l-1.641-1.642a2.464 2.464 0 00-2.22-3.521 2.464 2.464 0 00-2.221 3.521l-1.641 1.641a2.464 2.464 0 00-3.521 2.22 2.464 2.464 0 002.46 2.462 2.464 2.464 0 002.22-3.521l1.642-1.642a2.446 2.446 0 002.12 0l1.642 1.642a2.464 2.464 0 002.22 3.521 2.464 2.464 0 002.22-3.521l1.8-1.8c.053.4.082.806.082 1.22 0 4.975-4.048 9.034-9.024 9.034zm5.743-7.394a.821.821 0 01-1.641 0 .821.821 0 011.64 0zm-4.922-4.922a.821.821 0 01-1.641 0 .821.821 0 011.64 0zm-4.922 4.922a.821.821 0 01-1.641 0 .821.821 0 011.64 0zm12.065 7.73l-1.054-1.255c.433-.37.837-.773 1.206-1.206l1.255 1.054c-.43.506-.901.976-1.407 1.407zm7.346 5.733a1.64 1.64 0 01-1.12.585 1.64 1.64 0 01-1.411-.585l-3.76-4.476a14.033 14.033 0 001.609-1.608l4.476 3.76c.338.283.546.68.584 1.12.04.439-.095.866-.378 1.204z" fill="#0EA8FF"/></svg>