<svg width="290" height="310" fill="none" xmlns="http://www.w3.org/2000/svg"><g filter="url(#filter0_d_0_1267)"><path d="M50 59.836C50 54.404 54.404 50 59.836 50H230c5.432 0 9.836 4.404 9.836 9.836v190.328c0 5.432-4.404 9.836-9.836 9.836H59.836c-5.432 0-9.836-4.404-9.836-9.836V59.836z" fill="#fff"/></g><path fill-rule="evenodd" clip-rule="evenodd" d="M230 50.492H59.836a9.344 9.344 0 00-9.344 9.344v190.328a9.344 9.344 0 009.344 9.344H230a9.343 9.343 0 009.344-9.344V59.836A9.344 9.344 0 00230 50.492zM59.836 50C54.404 50 50 54.404 50 59.836v190.328c0 5.432 4.404 9.836 9.836 9.836H230c5.432 0 9.836-4.404 9.836-9.836V59.836c0-5.432-4.404-9.836-9.836-9.836H59.836z" fill="#E9EDF7"/><path d="M71.95 74.59h-1.624l-.454-1.363h-3.019L66.4 74.59h-1.612l2.65-7.574h1.85l2.662 7.574zm-3.582-5.853l-1.039 3.094h2.078l-1.04-3.094zm7.259.292c.6 0 1.086.198 1.461.595.39.404.584.952.584 1.645v3.321h-1.395v-3.148c0-.354-.098-.628-.293-.823-.187-.194-.447-.292-.778-.292-.368 0-.66.116-.877.347-.21.223-.314.555-.314.995v2.921H72.62v-5.41h1.395v.606c.332-.505.87-.757 1.612-.757zm7.349.79v-.639h1.395v5.41h-1.395v-.638c-.419.526-1.007.79-1.764.79-.721 0-1.342-.274-1.86-.823-.513-.555-.77-1.233-.77-2.034 0-.793.257-1.468.77-2.023.518-.555 1.139-.833 1.86-.833.757 0 1.345.263 1.764.79zm-2.575 3.17c.28.281.638.422 1.07.422.433 0 .79-.14 1.072-.422.288-.289.433-.656.433-1.104 0-.447-.145-.811-.433-1.092-.281-.289-.639-.433-1.071-.433-.433 0-.79.144-1.071.433-.282.28-.422.645-.422 1.092 0 .448.14.815.422 1.104zm6.632 1.601h-1.396v-7.898h1.396v7.898zm3.603-1.774l1.202-3.636h1.493l-1.97 5.41c-.28.78-.656 1.342-1.125 1.688-.462.354-1.038.512-1.731.476v-1.298c.368.007.664-.072.887-.238.224-.166.4-.433.53-.8l-2.218-5.238h1.526l1.406 3.636zm6.454-3.636v1.342h-1.223v2.25c0 .188.046.325.14.412.094.086.231.137.411.151.18.007.404.004.671-.01v1.265c-.945.108-1.62.022-2.023-.26-.397-.288-.595-.807-.595-1.557v-2.25h-.941V69.18h.94v-1.092l1.397-.422v1.514h1.222zm1.676-.649a.848.848 0 01-.855-.855c0-.23.083-.432.249-.605a.83.83 0 01.606-.26c.238 0 .44.086.606.26a.83.83 0 01.26.606.83.83 0 01-.26.605.825.825 0 01-.606.25zm.703 6.06h-1.396v-5.41h1.396v5.41zm3.853.151c-.815 0-1.497-.274-2.045-.823-.541-.548-.812-1.226-.812-2.034 0-.808.271-1.486.812-2.034.548-.548 1.23-.822 2.045-.822a2.8 2.8 0 011.439.379c.432.252.761.591.984 1.017l-1.201.703a1.217 1.217 0 00-.497-.53 1.405 1.405 0 00-.736-.195c-.419 0-.765.14-1.039.422-.274.274-.411.628-.411 1.06 0 .419.137.772.411 1.06.274.275.62.412 1.039.412.281 0 .53-.061.746-.184.224-.13.39-.307.498-.53l1.212.692a2.627 2.627 0 01-1.017 1.028 2.784 2.784 0 01-1.428.379zm4.46-4.025c0 .23.328.429.985.595.23.05.44.112.627.184.188.065.375.162.563.292.195.123.346.288.454.498.108.209.163.45.163.725 0 .555-.21.984-.628 1.287-.418.296-.934.444-1.547.444-1.111 0-1.868-.43-2.272-1.288l1.211-.681c.166.468.52.703 1.061.703.497 0 .746-.155.746-.465 0-.231-.328-.43-.984-.596a6.596 6.596 0 01-.628-.194 3.396 3.396 0 01-.562-.282 1.371 1.371 0 01-.466-.486 1.553 1.553 0 01-.151-.704c0-.533.195-.952.584-1.255.397-.31.887-.465 1.472-.465.44 0 .84.1 1.201.303.36.195.645.476.854.844l-1.19.649c-.173-.368-.461-.552-.865-.552a.77.77 0 00-.455.13.366.366 0 00-.173.314zm.33 168.135h-.779l-.449-1.235h-2.479l-.448 1.235h-.779l2.054-5.508h.826l2.054 5.508zm-2.471-4.634l-.984 2.714h1.975l-.991-2.714zm4.806 4.737c-.592 0-1.085-.197-1.479-.59-.393-.399-.59-.892-.59-1.48 0-.587.197-1.078.59-1.471.394-.399.887-.598 1.479-.598.389 0 .738.094 1.047.283.31.184.54.433.692.747l-.574.331a1.16 1.16 0 00-.464-.504 1.31 1.31 0 00-.701-.188c-.393 0-.723.133-.991.401a1.389 1.389 0 00-.393.999c0 .388.131.719.393.992.268.267.598.401.991.401.263 0 .499-.06.709-.181.21-.126.37-.294.48-.504l.582.339a1.924 1.924 0 01-.732.747 2.022 2.022 0 01-1.039.276zm4.587-4.037v.661h-1.046v2.132c0 .195.036.334.11.417.079.079.197.121.354.126.157 0 .351-.005.582-.015v.613c-.603.079-1.044.029-1.322-.149-.273-.178-.409-.509-.409-.992v-2.132h-.779v-.661h.779v-.897l.685-.205v1.102h1.046zm1.157-.716a.453.453 0 01-.464-.456.44.44 0 01.133-.323c.09-.095.2-.142.331-.142.126 0 .233.047.323.142a.44.44 0 01.133.323.44.44 0 01-.133.322.443.443 0 01-.323.134zm.338 4.65h-.684v-3.934h.684v3.934zm2.563-.731l1.236-3.203h.739l-1.573 3.934h-.803l-1.574-3.934h.74l1.235 3.203zm6.178-.921h-3.297c.068.346.228.619.48.818.252.194.566.291.944.291.519 0 .897-.191 1.133-.574l.582.331c-.388.592-.965.889-1.731.889-.619 0-1.128-.194-1.526-.583-.388-.398-.583-.894-.583-1.487 0-.598.192-1.091.575-1.479.383-.394.879-.59 1.487-.59.577 0 1.047.204 1.409.613.367.399.55.887.55 1.464 0 .1-.007.202-.023.307zm-1.936-1.739c-.362 0-.666.102-.913.307-.241.204-.391.482-.448.834h2.628c-.058-.362-.202-.643-.433-.842a1.235 1.235 0 00-.834-.299z" fill="#122428"/><path d="M90.82 236.148a3.688 3.688 0 117.376-.001 3.688 3.688 0 01-7.376.001z" fill="#1A7DF0"/><path d="M160.884 238.955c-.84 0-1.529-.276-2.07-.827-.54-.545-.81-1.222-.81-2.03 0-.808.27-1.484.81-2.03.541-.551 1.23-.826 2.07-.826.498 0 .96.121 1.385.362.425.241.755.566.991.976l-.637.369a1.747 1.747 0 00-.708-.723 1.98 1.98 0 00-1.031-.276c-.64 0-1.16.205-1.558.614-.399.404-.598.915-.598 1.534 0 .614.199 1.123.598 1.527.398.409.918.614 1.558.614.378 0 .721-.09 1.031-.268.314-.184.55-.425.708-.724l.637.362a2.608 2.608 0 01-.983.984c-.42.241-.884.362-1.393.362zm6.439-.598a2 2 0 01-1.471.598 2 2 0 01-1.471-.598 2 2 0 01-.598-1.472c0-.582.199-1.073.598-1.471a1.997 1.997 0 011.471-.598c.582 0 1.073.199 1.471.598.404.404.606.894.606 1.471 0 .577-.202 1.068-.606 1.472zm-1.471-.071c.393 0 .724-.134.991-.401.268-.268.402-.601.402-1 0-.398-.134-.732-.402-.999a1.344 1.344 0 00-.991-.401c-.388 0-.716.133-.984.401a1.358 1.358 0 00-.401.999c0 .399.134.732.401 1 .268.267.596.401.984.401zm7.134-3.47c.446 0 .802.144 1.07.432.273.289.409.675.409 1.157v2.447h-.685v-2.423c0-.299-.078-.533-.236-.701-.152-.173-.362-.259-.629-.259-.304 0-.543.102-.716.307-.168.199-.252.495-.252.889v2.187h-.685v-2.423c0-.299-.076-.533-.228-.701-.147-.173-.349-.259-.606-.259a.94.94 0 00-.732.315c-.183.204-.275.498-.275.881v2.187h-.685v-3.934h.685v.527c.268-.419.658-.629 1.172-.629.53 0 .916.223 1.157.669.273-.446.685-.669 1.236-.669zm4.6 0c.551 0 1.02.202 1.409.606.388.404.582.891.582 1.463 0 .577-.194 1.068-.582 1.472a1.881 1.881 0 01-1.409.598c-.65 0-1.146-.26-1.487-.779v2.25h-.685v-5.508h.685v.677c.341-.52.837-.779 1.487-.779zm-.087 3.478c.394 0 .724-.134.992-.402a1.4 1.4 0 00.401-1.007c0-.398-.134-.732-.401-.999a1.334 1.334 0 00-.992-.409c-.398 0-.731.136-.999.409a1.358 1.358 0 00-.401.999c0 .394.134.729.401 1.007.268.268.601.402.999.402zm3.579.558h-.684v-5.744h.684v5.744zm4.822-1.652h-3.297c.068.346.228.619.48.818.252.194.566.291.944.291.519 0 .897-.191 1.133-.574l.582.331c-.388.592-.965.889-1.731.889-.619 0-1.128-.194-1.526-.583-.389-.398-.583-.894-.583-1.487 0-.598.192-1.091.575-1.479.383-.394.878-.59 1.487-.59.577 0 1.047.204 1.409.613.367.399.55.887.55 1.464 0 .1-.008.202-.023.307zm-1.936-1.739c-.362 0-.666.102-.913.307-.241.204-.391.482-.448.834h2.628c-.058-.362-.202-.643-.433-.842a1.235 1.235 0 00-.834-.299zm4.771-.543v.661h-1.046v2.132c0 .195.037.334.11.417.079.079.197.121.354.126.157 0 .352-.005.582-.015v.613c-.603.079-1.044.029-1.322-.149-.272-.178-.409-.509-.409-.992v-2.132h-.779v-.661h.779v-.897l.685-.205v1.102h1.046zm4.388 2.282h-3.297c.068.346.228.619.48.818.252.194.567.291.944.291.52 0 .897-.191 1.133-.574l.583.331c-.388.592-.966.889-1.731.889-.619 0-1.128-.194-1.527-.583-.388-.398-.582-.894-.582-1.487 0-.598.191-1.091.574-1.479.383-.394.879-.59 1.487-.59.577 0 1.047.204 1.409.613.367.399.551.887.551 1.464 0 .1-.008.202-.024.307zm-1.936-1.739c-.362 0-.666.102-.912.307-.242.204-.391.482-.449.834h2.628c-.057-.362-.202-.643-.433-.842a1.232 1.232 0 00-.834-.299zm5.997.134v-2.251h.684v5.508h-.684v-.676c-.336.519-.832.779-1.488.779-.556 0-1.025-.2-1.408-.598a2.047 2.047 0 01-.582-1.472c0-.572.194-1.059.582-1.463a1.882 1.882 0 011.408-.606c.656 0 1.152.259 1.488.779zm-1.401 2.699c.399 0 .732-.134.999-.402.268-.278.402-.613.402-1.007 0-.398-.134-.732-.402-.999a1.34 1.34 0 00-.999-.409c-.393 0-.724.136-.991.409a1.355 1.355 0 00-.402.999c0 .394.134.729.402 1.007.267.268.598.402.991.402z" fill="#122428"/><path d="M145.41 236.148a3.688 3.688 0 117.376-.002 3.688 3.688 0 01-7.376.002z" fill="#4ADAFA"/><path opacity=".4" fill-rule="evenodd" clip-rule="evenodd" d="M144.426 108.524c-25.803 0-46.721 20.918-46.721 46.722 0 25.803 20.918 46.721 46.721 46.721 25.804 0 46.722-20.918 46.722-46.721 0-25.804-20.918-46.722-46.722-46.722zm-51.64 46.722c0-28.52 23.121-51.64 51.64-51.64 28.52 0 51.64 23.12 51.64 51.64 0 28.519-23.12 51.639-51.64 51.639-28.519 0-51.64-23.12-51.64-51.639z" fill="#DEE0E6"/><path fill-rule="evenodd" clip-rule="evenodd" d="M140.055 100.338a55.075 55.075 0 0151.328 26.113 55.087 55.087 0 018.125 28.795 5.901 5.901 0 01-11.803 0 43.285 43.285 0 00-23.654-38.574 43.279 43.279 0 10-32.899 79.766 5.903 5.903 0 01-3.621 11.235 55.083 55.083 0 0112.524-107.335z" fill="#4ADAFA"/><path fill-rule="evenodd" clip-rule="evenodd" d="M127.405 102.86a55.083 55.083 0 0172.103 52.386 5.901 5.901 0 01-11.803 0 43.272 43.272 0 00-17.84-35.013 43.273 43.273 0 00-38.813-6.148 43.287 43.287 0 00-27.786 27.787 43.278 43.278 0 006.147 38.812 5.902 5.902 0 01-9.549 6.938 55.08 55.08 0 0127.541-84.762z" fill="#1A7DF0"/><path d="M132.082 148.754c1.59.951 2.385 2.336 2.385 4.156 0 1.59-.557 2.844-1.672 3.762-1.098.918-2.598 1.377-4.5 1.377-1.918 0-3.426-.459-4.524-1.377-1.099-.918-1.648-2.172-1.648-3.762 0-1.804.787-3.189 2.361-4.156-1.197-.852-1.795-2.041-1.795-3.566 0-1.59.532-2.827 1.598-3.713 1.082-.885 2.418-1.328 4.008-1.328 1.607 0 2.935.443 3.984 1.328 1.065.886 1.598 2.123 1.598 3.713 0 1.525-.598 2.714-1.795 3.566zm-1.574-3.393c0-.623-.205-1.115-.615-1.476-.409-.36-.942-.541-1.598-.541-.656 0-1.188.181-1.598.541-.41.361-.615.853-.615 1.476 0 .639.205 1.139.615 1.5.41.36.942.541 1.598.541.656 0 1.189-.181 1.598-.541.41-.361.615-.861.615-1.5zm-.172 8.852c.508-.426.762-1.008.762-1.746s-.254-1.311-.762-1.721c-.508-.426-1.188-.64-2.041-.64-.852 0-1.533.214-2.041.64-.508.41-.762.983-.762 1.721 0 .738.254 1.32.762 1.746.508.426 1.189.639 2.041.639.853 0 1.533-.213 2.041-.639zm12.206 3.836c-2.148 0-3.836-.811-5.066-2.434-1.213-1.656-1.82-3.828-1.82-6.517 0-2.688.607-4.852 1.82-6.492 1.23-1.639 2.918-2.459 5.066-2.459 2.18 0 3.869.82 5.065 2.459 1.213 1.64 1.82 3.804 1.82 6.492 0 2.689-.607 4.861-1.82 6.517-1.196 1.623-2.885 2.434-5.065 2.434zm3.516-8.951c0-1.836-.303-3.237-.91-4.205-.59-.967-1.459-1.45-2.606-1.45-1.148 0-2.017.483-2.607 1.45-.59.968-.885 2.369-.885 4.205 0 1.836.295 3.238.885 4.205.59.951 1.459 1.426 2.607 1.426 1.147 0 2.016-.483 2.606-1.45.607-.968.91-2.361.91-4.181zm11.468-1.992c-.804.771-1.787 1.156-2.951 1.156-1.18 0-2.172-.393-2.976-1.18-.786-.787-1.18-1.746-1.18-2.877 0-1.131.394-2.09 1.18-2.877.82-.787 1.812-1.181 2.976-1.181 1.18 0 2.164.394 2.951 1.181.787.754 1.18 1.713 1.18 2.877 0 1.147-.393 2.115-1.18 2.901zm-3.886 8.853l-1.475-.861 11.213-12.467 1.5.836-11.238 12.492zm-.196-10.623c.295.295.664.443 1.106.443.443 0 .812-.148 1.107-.443.295-.311.442-.689.442-1.131 0-.443-.147-.812-.442-1.107-.295-.295-.664-.442-1.107-.442-.442 0-.811.147-1.106.442-.279.295-.418.664-.418 1.107 0 .442.139.82.418 1.131zm13.574 8.607c0 1.131-.394 2.09-1.181 2.877-.787.786-1.77 1.18-2.951 1.18-1.18 0-2.164-.394-2.95-1.18-.787-.787-1.181-1.746-1.181-2.877 0-1.132.394-2.091 1.181-2.878.786-.786 1.77-1.18 2.95-1.18 1.181 0 2.164.394 2.951 1.18.787.787 1.181 1.746 1.181 2.878zm-3.05 1.131c.295-.312.443-.689.443-1.131 0-.443-.148-.812-.443-1.107-.278-.311-.639-.467-1.082-.467-.442 0-.811.156-1.106.467-.279.295-.418.664-.418 1.107 0 .442.139.819.418 1.131.295.295.664.442 1.106.442.443 0 .804-.147 1.082-.442z" fill="#122428"/><path d="M119.012 165.279h4.47v.779h-1.832v5.417h-.815v-5.417h-1.823v-.779zm5.37 1.77v.744c.254-.549.715-.824 1.381-.824v.806a1.394 1.394 0 00-.973.301c-.272.218-.408.569-.408 1.053v2.346h-.77v-4.426h.77zm5.558.761v-.761h.77v4.426h-.77v-.761c-.378.584-.936.876-1.673.876a2.114 2.114 0 01-1.585-.672 2.302 2.302 0 01-.655-1.656c0-.643.218-1.192.655-1.646a2.116 2.116 0 011.585-.682c.737 0 1.295.292 1.673.876zm-1.576 3.037c.449 0 .823-.151 1.124-.452.301-.312.452-.69.452-1.133 0-.448-.151-.823-.452-1.124a1.509 1.509 0 00-1.124-.46 1.5 1.5 0 00-1.115.46 1.527 1.527 0 00-.452 1.124c0 .443.151.821.452 1.133.301.301.673.452 1.115.452zm5.717-3.913c.52 0 .936.165 1.248.496.313.324.47.767.47 1.328v2.717h-.771v-2.673c0-.354-.097-.632-.292-.832-.194-.201-.463-.301-.805-.301-.396 0-.708.124-.939.372-.23.242-.345.604-.345 1.088v2.346h-.77v-4.426h.77v.637c.307-.501.785-.752 1.434-.752zm3.457 1.31c0 .283.292.505.876.664.218.047.401.097.549.151.153.047.319.121.496.221.183.1.321.233.416.398.094.166.141.36.141.585 0 .401-.156.722-.469.964-.313.242-.708.363-1.186.363-.425 0-.794-.091-1.107-.274a1.58 1.58 0 01-.655-.761l.664-.381a.938.938 0 00.399.505c.194.124.427.185.699.185.266 0 .478-.05.637-.15.16-.1.239-.251.239-.451 0-.301-.292-.52-.876-.656a33.96 33.96 0 01-.443-.123c-.1-.03-.239-.083-.416-.16a1.422 1.422 0 01-.389-.239 1.46 1.46 0 01-.248-.345 1.11 1.11 0 01-.106-.487c0-.384.147-.699.442-.947.301-.248.676-.372 1.125-.372.36 0 .678.083.956.248.283.159.495.383.637.673l-.646.363c-.16-.378-.475-.567-.947-.567a.972.972 0 00-.567.159.506.506 0 00-.221.434zm6.934-.434v-.761h.77v4.426h-.77v-.761c-.378.584-.935.876-1.673.876a2.114 2.114 0 01-1.585-.672 2.306 2.306 0 01-.655-1.656c0-.643.219-1.192.655-1.646a2.116 2.116 0 011.585-.682c.738 0 1.295.292 1.673.876zm-1.576 3.037c.449 0 .824-.151 1.125-.452.301-.312.451-.69.451-1.133 0-.448-.15-.823-.451-1.124a1.511 1.511 0 00-1.125-.46 1.5 1.5 0 00-1.115.46 1.527 1.527 0 00-.452 1.124c0 .443.151.821.452 1.133.301.301.673.452 1.115.452zm5.593.743c-.666 0-1.221-.221-1.664-.664-.442-.448-.664-1.003-.664-1.664s.222-1.213.664-1.655c.443-.449.998-.673 1.664-.673.437 0 .83.106 1.178.319.348.206.608.487.779.841l-.646.371a1.307 1.307 0 00-.523-.566 1.468 1.468 0 00-.788-.213c-.442 0-.814.151-1.115.452a1.562 1.562 0 00-.443 1.124c0 .437.148.809.443 1.116.301.301.673.451 1.115.451.296 0 .561-.068.797-.204.236-.141.416-.33.54-.566l.655.381a2.166 2.166 0 01-.823.841 2.283 2.283 0 01-1.169.309zm5.161-4.541v.744h-1.178v2.399c0 .218.041.374.124.469.089.088.221.136.398.142.178 0 .396-.006.656-.018v.69c-.679.089-1.175.033-1.488-.168-.307-.201-.46-.572-.46-1.115v-2.399h-.876v-.744h.876v-1.009l.77-.23v1.239h1.178zm1.301-.805a.506.506 0 01-.372-.151.494.494 0 01-.15-.363c0-.142.05-.263.15-.363a.49.49 0 01.372-.159c.142 0 .262.053.363.159.1.1.15.221.15.363s-.05.263-.15.363a.497.497 0 01-.363.151zm.381 5.231h-.771v-4.426h.771v4.426zm4.91-.557c-.448.448-1 .672-1.655.672s-1.207-.224-1.656-.672c-.448-.449-.672-1.001-.672-1.656s.224-1.207.672-1.655c.449-.449 1.001-.673 1.656-.673s1.207.224 1.655.673a2.25 2.25 0 01.682 1.655c0 .649-.227 1.201-.682 1.656zm-1.655-.08c.442 0 .814-.151 1.115-.452.301-.301.452-.675.452-1.124 0-.448-.151-.823-.452-1.124a1.516 1.516 0 00-1.115-.452c-.437 0-.806.151-1.107.452a1.526 1.526 0 00-.451 1.124c0 .449.15.823.451 1.124.301.301.67.452 1.107.452zm5.449-3.904c.519 0 .935.165 1.248.496.313.324.469.767.469 1.328v2.717h-.77v-2.673c0-.354-.097-.632-.292-.832-.195-.201-.463-.301-.805-.301-.396 0-.709.124-.939.372-.23.242-.345.604-.345 1.088v2.346h-.77v-4.426h.77v.637c.307-.501.785-.752 1.434-.752zm3.457 1.31c0 .283.292.505.876.664.218.047.401.097.549.151.153.047.318.121.495.221.183.1.322.233.417.398.094.166.141.36.141.585 0 .401-.156.722-.469.964-.313.242-.708.363-1.186.363-.425 0-.794-.091-1.107-.274a1.58 1.58 0 01-.655-.761l.664-.381a.94.94 0 00.398.505c.195.124.428.185.7.185.265 0 .478-.05.637-.15.16-.1.239-.251.239-.451 0-.301-.292-.52-.876-.656a29.979 29.979 0 01-.443-.123c-.1-.03-.239-.083-.416-.16a1.422 1.422 0 01-.389-.239 1.432 1.432 0 01-.248-.345 1.11 1.11 0 01-.106-.487c0-.384.147-.699.442-.947.301-.248.676-.372 1.124-.372.36 0 .679.083.956.248.284.159.496.383.638.673l-.646.363c-.16-.378-.475-.567-.948-.567a.97.97 0 00-.566.159.506.506 0 00-.221.434z" fill="#8F8E9E"/><path d="M220.164 67.705a.983.983 0 11-1.967 0 .983.983 0 011.967 0zm0 3.442a.984.984 0 11-1.968 0 .984.984 0 011.968 0zm0 3.443a.984.984 0 11-1.968 0 .984.984 0 011.968 0z" fill="#122428"/><defs><filter id="filter0_d_0_1267" x="0" y="0" width="289.836" height="310" filterUnits="userSpaceOnUse" color-interpolation-filters="sRGB"><feFlood flood-opacity="0" result="BackgroundImageFix"/><feColorMatrix in="SourceAlpha" values="0 0 0 0 0 0 0 0 0 0 0 0 0 0 0 0 0 0 127 0" result="hardAlpha"/><feOffset/><feGaussianBlur stdDeviation="25"/><feComposite in2="hardAlpha" operator="out"/><feColorMatrix values="0 0 0 0 0 0 0 0 0 0 0 0 0 0 0 0 0 0 0.05 0"/><feBlend in2="BackgroundImageFix" result="effect1_dropShadow_0_1267"/><feBlend in="SourceGraphic" in2="effect1_dropShadow_0_1267" result="shape"/></filter></defs></svg>