<svg width="318" height="304" fill="none" xmlns="http://www.w3.org/2000/svg"><g filter="url(#filter0_d_0_1252)"><path d="M50 170c0-66.274 53.726-120 120-120h68c16.569 0 30 13.431 30 30v144c0 16.569-13.431 30-30 30H80c-16.569 0-30-13.431-30-30v-54z" fill="#fff"/></g><path d="M124.812 229v-14h4.6c1.093 0 1.993.18 2.7.54.707.36 1.227.847 1.56 1.46.347.613.52 1.307.52 2.08 0 .76-.167 1.447-.5 2.06-.333.613-.853 1.107-1.56 1.48-.707.36-1.613.54-2.72.54h-2.92V229h-1.68zm1.68-7.26h2.88c1.12 0 1.913-.233 2.38-.7.48-.48.72-1.133.72-1.96 0-.84-.24-1.493-.72-1.96-.467-.48-1.26-.72-2.38-.72h-2.88v5.34zm13.676 7.5c-.947 0-1.787-.213-2.52-.64a4.767 4.767 0 01-1.74-1.82c-.413-.773-.62-1.687-.62-2.74 0-1.04.207-1.947.62-2.72a4.445 4.445 0 011.72-1.82c.747-.44 1.607-.66 2.58-.66.96 0 1.787.22 2.48.66a4.307 4.307 0 011.62 1.7c.373.707.56 1.467.56 2.28 0 .147-.007.293-.02.44v.5h-7.9c.04.76.213 1.393.52 1.9.32.493.713.867 1.18 1.12.48.253.987.38 1.52.38.693 0 1.273-.16 1.74-.48a2.74 2.74 0 001.02-1.3h1.66a4.508 4.508 0 01-1.54 2.3c-.747.6-1.707.9-2.88.9zm0-8.98c-.8 0-1.513.247-2.14.74-.613.48-.967 1.187-1.06 2.12h6.24c-.04-.893-.347-1.593-.92-2.1-.573-.507-1.28-.76-2.12-.76zm6.927 8.74v-9.92h1.52l.14 1.9a3.6 3.6 0 011.4-1.56c.627-.387 1.4-.58 2.32-.58v1.76h-.46c-.587 0-1.127.107-1.62.32-.493.2-.887.547-1.18 1.04-.293.493-.44 1.173-.44 2.04v5h-1.68zm12.658 0v-14h1.96l5.04 9.76 5-9.76h1.98v14h-1.68v-11l-4.68 9h-1.26l-4.68-8.98V229h-1.68zm21.354.24c-.933 0-1.773-.213-2.52-.64a4.714 4.714 0 01-1.78-1.8c-.427-.787-.64-1.707-.64-2.76 0-1.053.22-1.967.66-2.74a4.672 4.672 0 011.78-1.82c.76-.427 1.607-.64 2.54-.64s1.773.213 2.52.64a4.538 4.538 0 011.76 1.82c.44.773.66 1.687.66 2.74 0 1.053-.22 1.973-.66 2.76a4.675 4.675 0 01-1.8 1.8c-.747.427-1.587.64-2.52.64zm0-1.44c.573 0 1.107-.14 1.6-.42.493-.28.893-.7 1.2-1.26.307-.56.46-1.253.46-2.08 0-.827-.153-1.52-.46-2.08-.293-.56-.687-.98-1.18-1.26a3.15 3.15 0 00-1.58-.42c-.573 0-1.107.14-1.6.42-.493.28-.893.7-1.2 1.26-.307.56-.46 1.253-.46 2.08 0 .827.153 1.52.46 2.08.307.56.7.98 1.18 1.26.493.28 1.02.42 1.58.42zm7.316 1.2v-9.92h1.52l.1 1.78a3.6 3.6 0 011.38-1.48c.6-.36 1.28-.54 2.04-.54 1.173 0 2.107.36 2.8 1.08.707.707 1.06 1.8 1.06 3.28v5.8h-1.68v-5.62c0-2.067-.853-3.1-2.56-3.1-.853 0-1.567.313-2.14.94-.56.613-.84 1.493-.84 2.64V229h-1.68zm15.365 0c-.906 0-1.62-.22-2.14-.66-.52-.44-.78-1.233-.78-2.38v-5.46h-1.72v-1.42h1.72l.22-2.38h1.46v2.38h2.92v1.42h-2.92v5.46c0 .627.127 1.053.38 1.28.254.213.7.32 1.34.32h1.04V229h-1.52zm3.815 0v-14.4h1.68v6.18a3.463 3.463 0 011.42-1.42 3.992 3.992 0 012-.52c1.146 0 2.066.36 2.76 1.08.693.707 1.04 1.8 1.04 3.28v5.8h-1.66v-5.62c0-2.067-.834-3.1-2.5-3.1-.867 0-1.594.313-2.18.94-.587.613-.88 1.493-.88 2.64V229h-1.68z" fill="#4CB908"/><path d="M112.33 219.675c2.7.233 3.802 1.62 3.802 4.658v.097c0 3.353-1.342 4.695-4.695 4.695h-4.882c-3.353 0-4.695-1.342-4.695-4.695v-.097c0-3.015 1.087-4.403 3.742-4.65M109 214.5v9.66" stroke="#4CB908" stroke-linecap="round" stroke-linejoin="round"/><path d="M111.512 222.488L109 225l-2.513-2.512" stroke="#4CB908" stroke-linecap="round" stroke-linejoin="round"/><path d="M84.95 198l4.32-14h2.96l4.32 14h-1.74l-1.08-3.54h-5.96L86.69 198h-1.74zm3.24-5.06h5.1l-2.4-7.92h-.28l-2.42 7.92zM98.706 202v-13.78h1.54v1.62h.28c.253-.493.66-.933 1.22-1.32.573-.387 1.367-.58 2.38-.58.84 0 1.607.207 2.3.62a4.34 4.34 0 011.68 1.72c.427.747.64 1.647.64 2.7v.26c0 1.04-.207 1.94-.62 2.7-.413.76-.973 1.34-1.68 1.74-.693.4-1.467.6-2.32.6-.68 0-1.26-.093-1.74-.28-.467-.173-.847-.4-1.14-.68a3.577 3.577 0 01-.68-.86h-.28V202h-1.58zm5-5.12c1.013 0 1.833-.32 2.46-.96.64-.653.96-1.56.96-2.72v-.18c0-1.16-.32-2.06-.96-2.7-.627-.653-1.447-.98-2.46-.98-1 0-1.827.327-2.48.98-.64.64-.96 1.54-.96 2.7v.18c0 1.16.32 2.067.96 2.72.653.64 1.48.96 2.48.96zm7.871 5.12v-13.78h1.54v1.62h.28c.253-.493.66-.933 1.22-1.32.573-.387 1.367-.58 2.38-.58.84 0 1.607.207 2.3.62a4.34 4.34 0 011.68 1.72c.427.747.64 1.647.64 2.7v.26c0 1.04-.207 1.94-.62 2.7-.413.76-.973 1.34-1.68 1.74-.693.4-1.467.6-2.32.6-.68 0-1.26-.093-1.74-.28-.467-.173-.847-.4-1.14-.68a3.577 3.577 0 01-.68-.86h-.28V202h-1.58zm5-5.12c1.013 0 1.833-.32 2.46-.96.64-.653.96-1.56.96-2.72v-.18c0-1.16-.32-2.06-.96-2.7-.627-.653-1.447-.98-2.46-.98-1 0-1.827.327-2.48.98-.64.64-.96 1.54-.96 2.7v.18c0 1.16.32 2.067.96 2.72.653.64 1.48.96 2.48.96zm11.811 1.4c-1.213 0-2.24-.28-3.08-.84-.827-.56-1.327-1.447-1.5-2.66l1.5-.34c.107.64.307 1.147.6 1.52.293.36.653.62 1.08.78.44.147.907.22 1.4.22.733 0 1.313-.147 1.74-.44.427-.293.64-.687.64-1.18 0-.507-.207-.86-.62-1.06-.4-.213-.953-.387-1.66-.52l-.82-.14a7.392 7.392 0 01-1.72-.5c-.52-.227-.933-.533-1.24-.92-.307-.387-.46-.873-.46-1.46 0-.88.34-1.567 1.02-2.06.68-.493 1.58-.74 2.7-.74 1.107 0 2 .253 2.68.76.693.493 1.14 1.193 1.34 2.1l-1.48.38c-.12-.707-.407-1.2-.86-1.48-.453-.293-1.013-.44-1.68-.44s-1.193.127-1.58.38c-.387.24-.58.6-.58 1.08 0 .467.18.813.54 1.04.373.213.867.373 1.48.48l.82.14c.693.12 1.313.287 1.86.5.56.2 1 .493 1.32.88.333.387.5.893.5 1.52 0 .96-.36 1.7-1.08 2.22-.707.52-1.66.78-2.86.78zm11.024-.28v-1.5h1.96v-11h-1.96V184h5.46c1.84 0 3.26.467 4.26 1.4 1.013.933 1.52 2.367 1.52 4.3v2.6c0 1.947-.507 3.387-1.52 4.32-1 .92-2.42 1.38-4.26 1.38h-5.46zm3.64-1.52h1.82c1.36 0 2.386-.333 3.08-1 .693-.667 1.04-1.7 1.04-3.1v-2.74c0-1.427-.347-2.467-1.04-3.12-.694-.653-1.72-.98-3.08-.98h-1.82v10.94zm14.861 1.8c-.986 0-1.86-.207-2.62-.62a4.508 4.508 0 01-1.76-1.74c-.413-.76-.62-1.653-.62-2.68v-.26c0-1.013.207-1.9.62-2.66a4.473 4.473 0 011.76-1.76c.76-.413 1.634-.62 2.62-.62.987 0 1.854.207 2.6.62a4.3 4.3 0 011.76 1.76c.427.76.64 1.647.64 2.66v.26c0 1.027-.213 1.92-.64 2.68a4.33 4.33 0 01-1.76 1.74c-.746.413-1.613.62-2.6.62zm0-1.42c1.04 0 1.867-.327 2.48-.98.627-.667.94-1.56.94-2.68v-.18c0-1.12-.313-2.007-.94-2.66-.613-.667-1.44-1-2.48-1-1.026 0-1.853.333-2.48 1-.626.653-.94 1.54-.94 2.66v.18c0 1.12.314 2.013.94 2.68.627.653 1.454.98 2.48.98zm9.008 1.14l-1.96-9.78h1.6l1.62 8.72h.28l2.14-8.72h2.62l2.14 8.72h.28l1.62-8.72h1.6l-1.96 9.78h-2.7l-2.16-8.72h-.26l-2.16 8.72h-2.7zm14.656 0v-9.78h1.54v1.66h.28c.213-.467.573-.887 1.08-1.26.52-.387 1.28-.58 2.28-.58.733 0 1.387.153 1.96.46.587.307 1.053.76 1.4 1.36.347.6.52 1.34.52 2.22V198h-1.58v-5.8c0-.973-.247-1.68-.74-2.12-.48-.44-1.133-.66-1.96-.66-.947 0-1.72.307-2.32.92-.587.613-.88 1.527-.88 2.74V198h-1.58zm12.266 0v-14h1.58v14h-1.58zm9.422.28c-.987 0-1.86-.207-2.62-.62a4.501 4.501 0 01-1.76-1.74c-.413-.76-.62-1.653-.62-2.68v-.26c0-1.013.207-1.9.62-2.66a4.467 4.467 0 011.76-1.76c.76-.413 1.633-.62 2.62-.62.987 0 1.853.207 2.6.62a4.3 4.3 0 011.76 1.76c.427.76.64 1.647.64 2.66v.26c0 1.027-.213 1.92-.64 2.68a4.33 4.33 0 01-1.76 1.74c-.747.413-1.613.62-2.6.62zm0-1.42c1.04 0 1.867-.327 2.48-.98.627-.667.94-1.56.94-2.68v-.18c0-1.12-.313-2.007-.94-2.66-.613-.667-1.44-1-2.48-1-1.027 0-1.853.333-2.48 1-.627.653-.94 1.54-.94 2.66v.18c0 1.12.313 2.013.94 2.68.627.653 1.453.98 2.48.98zm10.843 1.42c-.68 0-1.3-.12-1.86-.36s-1-.587-1.32-1.04c-.32-.453-.48-1.007-.48-1.66 0-.667.16-1.213.48-1.64.32-.44.76-.767 1.32-.98.56-.227 1.187-.34 1.88-.34h3.3v-.72c0-.693-.206-1.24-.62-1.64-.4-.4-1-.6-1.8-.6-.786 0-1.4.193-1.84.58-.44.373-.74.88-.9 1.52l-1.48-.48c.16-.547.414-1.04.76-1.48a3.633 3.633 0 011.38-1.08c.587-.28 1.287-.42 2.1-.42 1.254 0 2.227.327 2.92.98.694.64 1.04 1.547 1.04 2.72v4.42c0 .4.187.6.56.6h.9V198h-1.38c-.44 0-.793-.12-1.06-.36-.266-.253-.4-.587-.4-1v-.1h-.24c-.146.253-.346.52-.6.8-.24.267-.573.487-1 .66-.426.187-.98.28-1.66.28zm.18-1.36c.934 0 1.687-.273 2.26-.82.587-.56.88-1.34.88-2.34v-.22h-3.24c-.626 0-1.146.14-1.56.42-.4.267-.6.673-.6 1.22 0 .547.207.973.62 1.28.427.307.974.46 1.64.46zm12.191 1.36c-.84 0-1.614-.2-2.32-.6-.707-.4-1.267-.98-1.68-1.74-.414-.76-.62-1.66-.62-2.7v-.26c0-1.04.206-1.933.62-2.68.413-.76.966-1.34 1.66-1.74a4.55 4.55 0 012.34-.62c.68 0 1.253.093 1.72.28.48.173.866.4 1.16.68.293.267.52.553.68.86h.28V184h1.58v14h-1.54v-1.62h-.28c-.267.493-.68.933-1.24 1.32-.56.387-1.347.58-2.36.58zm.42-1.4c1.013 0 1.833-.32 2.46-.96.64-.653.96-1.56.96-2.72v-.18c0-1.16-.32-2.06-.96-2.7-.627-.653-1.447-.98-2.46-.98-1 0-1.827.327-2.48.98-.64.64-.96 1.54-.96 2.7v.18c0 1.16.32 2.067.96 2.72.653.64 1.48.96 2.48.96z" fill="#434343"/><path d="M132.207 169.42c-1.58 0-2.98-.28-4.2-.84-1.22-.56-2.18-1.36-2.88-2.4-.68-1.06-1.02-2.31-1.02-3.75v-.54h3.84v.42c0 1.12.39 2.02 1.17 2.7.78.66 1.81.99 3.09.99 1.3 0 2.3-.31 3-.93.72-.62 1.08-1.4 1.08-2.34v-.3c0-.64-.16-1.16-.48-1.56-.32-.4-.75-.69-1.29-.87-.54-.2-1.15-.3-1.83-.3h-4.2v-4.2l6.78-3.6v-.48h-10.62V148h14.88v5.1l-6.33 3.36v.48h1.11c.94 0 1.85.19 2.73.57.9.38 1.64.97 2.22 1.77.58.78.87 1.8.87 3.06v.36c0 1.36-.33 2.55-.99 3.57-.66 1-1.59 1.78-2.79 2.34-1.18.54-2.56.81-4.14.81zm13.062-.42v-.78c0-.78.06-1.44.18-1.98.12-.56.38-1.19.78-1.89l7.05-12.45v-.48h-11.16V148h15.12v4.56l-7.44 13.29c-.26.46-.44.87-.54 1.23-.1.36-.15.8-.15 1.32v.6h-3.84zm15.1.42c-.8 0-1.48-.26-2.04-.78-.54-.54-.81-1.23-.81-2.07 0-.84.27-1.52.81-2.04.56-.54 1.24-.81 2.04-.81.82 0 1.5.27 2.04.81.54.52.81 1.2.81 2.04 0 .84-.27 1.53-.81 2.07-.54.52-1.22.78-2.04.78zm13.556 0c-1.64 0-3.06-.29-4.26-.87-1.18-.58-2.09-1.4-2.73-2.46-.64-1.06-.96-2.29-.96-3.69v-.3h3.9v.27c0 1 .33 1.86.99 2.58.68.7 1.68 1.05 3 1.05s2.33-.35 3.03-1.05c.72-.72 1.08-1.65 1.08-2.79v-.3c0-1.12-.36-2.01-1.08-2.67-.7-.66-1.58-.99-2.64-.99-.58 0-1.06.08-1.44.24-.38.16-.69.36-.93.6-.24.24-.44.48-.6.72h-4.65V148h14.34v3.48h-10.5v5.13h.54c.2-.26.47-.51.81-.75.34-.24.78-.44 1.32-.6.54-.16 1.18-.24 1.92-.24 1.24 0 2.37.26 3.39.78s1.83 1.29 2.43 2.31c.62 1 .93 2.24.93 3.72v.36c0 1.48-.32 2.76-.96 3.84-.62 1.08-1.52 1.92-2.7 2.52-1.18.58-2.59.87-4.23.87zm10.618-.42v-14h1.28v6.32h.24l6.48-6.32h1.8l-7.24 6.92 7.48 7.08h-1.82l-6.7-6.44h-.24V169h-1.28z" fill="#122428"/><circle cx="159" cy="103" r="30" fill="#FFBA09"/><path d="M153.09 104.28h3.09v7.2c0 1.68.91 2.02 2.02.76l7.57-8.6c.93-1.05.54-1.92-.87-1.92h-3.09v-7.2c0-1.68-.91-2.02-2.02-.76l-7.57 8.6c-.92 1.06-.53 1.92.87 1.92z" stroke="#122428" stroke-width="1.5" stroke-miterlimit="10" stroke-linecap="round" stroke-linejoin="round"/><defs><filter id="filter0_d_0_1252" x="0" y="0" width="318" height="304" filterUnits="userSpaceOnUse" color-interpolation-filters="sRGB"><feFlood flood-opacity="0" result="BackgroundImageFix"/><feColorMatrix in="SourceAlpha" values="0 0 0 0 0 0 0 0 0 0 0 0 0 0 0 0 0 0 127 0" result="hardAlpha"/><feOffset/><feGaussianBlur stdDeviation="25"/><feComposite in2="hardAlpha" operator="out"/><feColorMatrix values="0 0 0 0 0 0 0 0 0 0 0 0 0 0 0 0 0 0 0.05 0"/><feBlend in2="BackgroundImageFix" result="effect1_dropShadow_0_1252"/><feBlend in="SourceGraphic" in2="effect1_dropShadow_0_1252" result="shape"/></filter></defs></svg>