<svg width="51" height="31" fill="none" xmlns="http://www.w3.org/2000/svg"><path d="M40.26 14.333c-3.765.101-7.437.244-11.112.29-7.976.13-15.954-.21-23.9-1.014a25.03 25.03 0 01-3.2-.592c-.577-.134-1.294-.425-1.254-1.196.062-.94.89-.787 1.451-.772 5.568.158 11.137.467 16.697.494 6.654.04 13.28.682 19.942.736a2.07 2.07 0 001.317-.211c-2.988-1.78-6.183-3.046-8.84-5.453-1.543-1.401-2.018-3.136-1.389-5.203.095-.307.178-.612.514-.63 1.803 5.883 6.406 7.509 10.908 9.205a32.76 32.76 0 008.013 1.819c.42.046.83.135.892.705.063.57-.263.709-.647.81-5.165 1.367-9.394 4.766-13.602 8.14-2.646 2.147-4.78 4.872-7 7.494-.448.53-.936 1.567-1.593 1.008-.658-.559.105-1.353.422-1.985 2.865-5.622 7.058-10.22 12.102-13.274.107-.11.2-.235.28-.37z" fill="#C2C2C2"/></svg>