<svg width="152" height="142" fill="none" xmlns="http://www.w3.org/2000/svg"><path fill-rule="evenodd" clip-rule="evenodd" d="M71.354 50.524c-6.933-4.75-15.04-5.201-22.687-2.97a42.72 42.72 0 00-21.4 14.975 42.087 42.087 0 00-4.019 7.537 66.067 66.067 0 00-3.436 11.97.73.73 0 00.517.885.74.74 0 00.893-.51 68.68 68.68 0 013.764-9.313 40.498 40.498 0 015.323-8.295 38.71 38.71 0 0119.505-13.195c6.367-1.797 13.108-1.545 18.881 2.307a30.224 30.224 0 00-2.734 4.654 21.63 21.63 0 00-2.11 10.518 18.05 18.05 0 002.94 8.97 6.84 6.84 0 006.822 3.099c5.836-.9 8.118-5.336 8.033-10.8-.091-6.158-3.417-13.626-6.936-17.167 1.152-1.343 2.374-2.642 3.58-3.914a31.37 31.37 0 0119.313-9.282c7.392-.76 14.84.753 21.35 4.337 5.647 2.928 9.983 7.703 13.212 12.6a56.048 56.048 0 015.207 10.024 30.328 30.328 0 012.219 7.328.162.162 0 00.151.16.16.16 0 00.16-.15 22.99 22.99 0 00-.261-7.989 38.452 38.452 0 00-4.41-11.251 38.18 38.18 0 00-14.281-14.41 40.741 40.741 0 00-23.795-4.879 35.59 35.59 0 00-21.978 10.579c-1.301 1.36-2.596 2.742-3.823 4.182zm.666 6.126a26.37 26.37 0 00-2.168 3.739 17.42 17.42 0 00-1.678 8.437 14.731 14.731 0 001.519 5.763c.714 1.36 1.682 2.536 3.246 2.301 3.384-.517 4.425-3.293 4.382-6.464A23.5 23.5 0 0072.02 56.65z" fill="#122428"/><path fill-rule="evenodd" clip-rule="evenodd" d="M21.71 81.995c-.105-1.397-.19-2.786-.302-4.19-.147-1.618-.258-3.284-.477-4.89-.514-4.182-1.257-8.26-1.972-12.321a.71.71 0 00-1.417.07c-.215 3.494-.563 6.936-.75 10.474a50.447 50.447 0 00-.12 4.503c.051 3.37.385 6.719.72 10.04.067.54.233 1.063.49 1.543a2.8 2.8 0 001.202 1.148 2.38 2.38 0 001.909.06 6.62 6.62 0 001.889-1.363c2.718-2.555 8.494-9.711 9.72-11.166l2.29-3.055a2.43 2.43 0 00.397-.745 3.08 3.08 0 00.188-1.26c-.056-.25-.364-.125-.212-.226.151-.102-.144-.153-.133-.04.153.31-.296-.051-.301.118-.006.417-.233-.248-.446.008-.088.082-.045-.136-.14-.061-.094.075.021-.212-.157-.168-.178.044.082-.16-.08-.158-.163.002.216-.12.026-.148-.19-.027.156-.037.156-.037s-.11-.117.24.05a.17.17 0 00.126.237.15.15 0 00.16-.15c1.01-.182.096-.09.427-.292.102-.096-.075-.08-.03-.15.31-.414-.32.012-.35-.37-.016-.15-.11.102-.183-.035s-.065.281-.37.073c-.13-.138.042.235-.33.16-.373-.075-.076-.08-.512.083-.437.163-.725.791-1.02.959l-2.535 2.574c-1.047 1.12-5.152 5.733-8.104 8.725z" fill="#122428"/></svg>