<svg width="109" height="75" fill="none" xmlns="http://www.w3.org/2000/svg"><path d="M17.058 66.717C14.52 61.66 4.924 56.257 1.534 53.799.54 53.075-.506 54.6.27 55.437c4.358 4.716 8.429 11.585 14.818 13.886 1.525.575 2.606-1.316 1.97-2.606zm19.255-3.252c-3.487-4.28-8.778-4.602-7.845-3.757 2.615 2.319 6.101 11.419 7.47 12.988 2.214 2.44 5.78-2.606.375-9.231zm-19.429-22.48c-2.52-2.711-2.938-2.153-4.263-3.356a1.072 1.072 0 00-1.682 1.299c.087.148 2.118 7.252 6.102 8.237 2.135.558 3.469-2.258-.157-6.18zM49.048 45.5c-5.78-5.343-10.015-4.663-6.372 1.36 6.25 10.338 13.406 5.134 6.372-1.36zm11.889 26.716c-.714-3.835-7.984-6.825-8.429-7.077-1.813-1.012-.601 2.615 1.412 5.709 3.905 6.058 7.523 4.132 7.017 1.368zM23.325 15.524a1.238 1.238 0 00-1.804 1.386c9.405 23.474 22.297 13.354 1.804-1.386zM68.8 35.982c-1.055-4.358-8.447-8.141-12.03-10.408-2.17-1.368-4.357 1.674-2.675 3.487 1.909 2.022 3.643 4.236 5.735 6.102 6.416 5.657 9.632 3.6 8.97.819zM81.064 61.39c-4.515-7.147-14.818-10.921-5.901.872 3.93 5.204 7.252 1.264 5.9-.871zM39.425.889c-1.203-.21-2.17 1.499-.872 2.127 2.885 1.438 2.92 5.09 5.23 7.173 2.685 2.406 6.433-7.409-4.358-9.3zm40.889 20.24c-4.096-7.549-7.13-4.271-6.668-2.127 2.79 12.996 10.765 9.701 6.668 2.127zm22.428 29.209a11.071 11.071 0 00-4.881-1.5c-1.796-.287.427 4.812 4.515 6.617 6.808 3.007 3.67-3.138.366-5.117zm3.748-26.115c-1.177-1.665-2.458-3.225-3.696-4.838a2.115 2.115 0 00-2.84-.668 2.118 2.118 0 00-.812 2.804c1.621 3.338 3.173 8.542 6.869 10.032 1.464.593 4.89-1.107.479-7.33z" fill="#FFA012"/></svg>