<svg width="101" height="83" fill="none" xmlns="http://www.w3.org/2000/svg"><path d="M78.192 66.308c3.353 5.878 12.387 6.567 17.488 3.907 2.049-1.084 3.38-2.925 5.156-4.336.437-.348-.096-1.145-.567-.818-5.593 3.832-19.331-1.112-19.932-1.248-1.4-.32-2.978 1.036-2.145 2.495zm3.408-19.8c-2.683.681-.567 4.26 5.961 4.772 6.528.512 4.132-.545 6.829-.525a.245.245 0 00.089-.47c-1.1-.477-1.694-1.418-2.69-1.998-.998-.58-6.33-2.789-10.189-1.78zm-12.79 28.89a13.247 13.247 0 004.222 5.053 13.273 13.273 0 006.137 2.4c3.141.483 2.834-.362 4.234-.274 2.574.15-3.114-2.25-12.66-8.918-1.134-.791-2.459.573-1.933 1.739zm-6.541-23.483c2.3 6.464 11.526 5.57 9.976 4.841-.457-.211-.341-.62-.628-.9a24.658 24.658 0 01-2.902-2.509c-1.332-1.227-2.431-2.652-3.9-3.723-1.597-1.18-3.079.832-2.546 2.291zm8.426-16.024c.936.485 1.844.41 2.848.682a.755.755 0 001.03-.937.754.754 0 00-.389-.427c-1.584-1.11-3.817-6.04-5.75-6.818-2.348-.88-3.85 4.296 2.261 7.5zM48.059 60.124c.423 3.15 5.155 6.696 6.569 8.203 1.079 1.18 3.318-.219 2.39-1.65-1.878-2.892-3.107-7.235-6.604-8.626-1.392-.545-2.512.819-2.355 2.073zm1.788-26.571c1.018 7.677 1.96 6.634 5.525 11.011.314.389 1.12.164 1.086-.375-.342-5.557 1.18-5.325-3.585-12.143-1.093-1.582-3.217 0-3.026 1.507zM44.235 9.607c3.803 1.643 8.016 4.895 9.71 8.74a.724.724 0 001.365-.286c-.225-6.136-4.595-10.963-10.98-10.302-1.024.109-.867 1.514-.095 1.848zM32.34 32.114c9.095 9.641 8.248 8.864 8.549 9.32.485.724 2.322.683.191-3.517-1.973-3.88-3.093-5.312-7.259-7.542-1.092-.58-2.41.73-1.481 1.74zm-4.774-19.841a1.044 1.044 0 00.143 1.896c2.384.58 4.61 1.022 6.692 2.427 4.166 2.796 6.371 6.614 6.392 4.398.075-6.873-8.201-10.766-13.227-8.72zM23.312 2.127c1.823 1.48 6.521 2.128 8.57 2.434.901.13 1.4-1.302.573-1.718-10.652-5.36-10.317-1.67-9.143-.716zM8.323 22.282a1.621 1.621 0 001.236 2.482c2.322.28 2.206-.839 8.256-.593.587 0 1.461-.307 1.96-.061.683.34 1.31-.56.683-1.003-.629-.443-1.025-1.452-1.85-1.97-2.903-1.732-8.516-1.657-10.285 1.145zM.061 9.818a.919.919 0 00.78 1.19.925.925 0 00.524-.099c2.227-1.411 5.15-2.386 7.764-1.363 1.223.47 2.015-1.303.977-2.046C6.753 5.237 1.802 5.775.06 9.818z" fill="#AA5DF8"/></svg>