<svg width="991" height="586" fill="none" xmlns="http://www.w3.org/2000/svg"><path d="M554.957 23.544a11.659 11.659 0 00-10.769 7.196 11.663 11.663 0 002.527 12.702 11.656 11.656 0 108.242-19.898zM531.025 46.7c6.33 0 11.461-5.131 11.461-11.461s-5.131-11.461-11.461-11.461-11.462 5.131-11.462 11.46c0 6.33 5.132 11.462 11.462 11.462z" fill="#000" fill-opacity=".02"/><path d="M542.992 25.992c6.329 0 11.461-5.132 11.461-11.461 0-6.33-5.132-11.462-11.461-11.462-6.33 0-11.462 5.132-11.462 11.462s5.132 11.46 11.462 11.46zM566.924 3.03a11.656 11.656 0 100 23.313 11.656 11.656 0 000-23.312z" fill="#000" fill-opacity=".02"/><path d="M578.891 23.777a11.656 11.656 0 10-.389 23.31 11.656 11.656 0 00.389-23.31z" fill="#000" fill-opacity=".02"/><path d="M566.924 44.485a11.655 11.655 0 10-.001 23.31 11.655 11.655 0 00.001-23.31zm-23.932 22.922c6.329 0 11.461-5.131 11.461-11.46 0-6.33-5.132-11.462-11.461-11.462-6.33 0-11.462 5.131-11.462 11.461s5.132 11.461 11.462 11.461zm-35.899-43.28a11.11 11.11 0 00-10.898 13.279 11.113 11.113 0 0015.15 8.098 11.11 11.11 0 003.605-18.123 11.115 11.115 0 00-7.857-3.254zM513.504.194a11.11 11.11 0 00-8.015 18.927 11.108 11.108 0 0012.123 2.461 11.117 11.117 0 006.887-10.276A11.112 11.112 0 00513.504.194zm82.909 22.185c6.115 0 11.073-4.958 11.073-11.073S602.528.233 596.413.233 585.34 5.191 585.34 11.306s4.958 11.073 11.073 11.073zm6.41 23.932c6.115 0 11.072-4.958 11.072-11.073s-4.957-11.072-11.072-11.072c-6.116 0-11.073 4.957-11.073 11.072 0 6.115 4.957 11.073 11.073 11.073zm-6.41 23.932c6.115 0 11.073-4.957 11.073-11.072 0-6.116-4.958-11.073-11.073-11.073S585.34 53.055 585.34 59.17c0 6.115 4.958 11.072 11.073 11.072z" fill="#000" fill-opacity=".02"/><path d="M578.89 87.766c6.115 0 11.072-4.957 11.072-11.072 0-6.116-4.957-11.073-11.072-11.073-6.116 0-11.073 4.957-11.073 11.073 0 6.115 4.957 11.072 11.073 11.072zm-23.932 6.411c6.116 0 11.073-4.958 11.073-11.073s-4.957-11.073-11.073-11.073c-6.115 0-11.072 4.958-11.072 11.073s4.957 11.073 11.072 11.073zm-23.933-6.411c6.115 0 11.073-4.957 11.073-11.072 0-6.116-4.958-11.073-11.073-11.073s-11.073 4.957-11.073 11.073c0 6.115 4.958 11.072 11.073 11.072zm-17.522-17.523c6.116 0 11.073-4.957 11.073-11.072 0-6.116-4.957-11.073-11.073-11.073-6.115 0-11.072 4.957-11.072 11.073 0 6.115 4.957 11.072 11.072 11.072zM483.16 45.884c5.879 0 10.645-4.766 10.645-10.645 0-5.88-4.766-10.646-10.645-10.646s-10.645 4.766-10.645 10.646c0 5.879 4.766 10.645 10.645 10.645zM487.47 0a10.682 10.682 0 00-9.871 6.596 10.691 10.691 0 002.316 11.644 10.687 10.687 0 0016.439-1.62A10.685 10.685 0 00487.47 0zm134.934 21.33c5.879 0 10.645-4.767 10.645-10.646 0-5.88-4.766-10.645-10.645-10.645-5.88 0-10.646 4.766-10.646 10.645 0 5.88 4.766 10.646 10.646 10.646zm4.352 24.554c5.879 0 10.645-4.766 10.645-10.645 0-5.88-4.766-10.646-10.645-10.646-5.88 0-10.646 4.766-10.646 10.646 0 5.879 4.766 10.645 10.646 10.645zm-4.352 24.554c5.879 0 10.645-4.766 10.645-10.646 0-5.879-4.766-10.645-10.645-10.645-5.88 0-10.646 4.766-10.646 10.645 0 5.88 4.766 10.646 10.646 10.646zm-12.431.35a10.609 10.609 0 00-9.807 6.477 10.602 10.602 0 002.188 11.547 10.61 10.61 0 0016.302-1.38 10.598 10.598 0 001.884-5.844 10.571 10.571 0 00-3.011-7.623 10.572 10.572 0 00-7.556-3.177zm-19.118 37.259c5.88 0 10.646-4.766 10.646-10.645 0-5.88-4.766-10.646-10.646-10.646-5.879 0-10.645 4.766-10.645 10.645 0 5.88 4.766 10.646 10.645 10.646zm-23.426 8.547c5.879 0 10.645-4.766 10.645-10.645s-4.766-10.645-10.645-10.645c-5.88 0-10.646 4.766-10.646 10.645s4.766 10.645 10.646 10.645zm-24.943 0c5.879 0 10.646-4.766 10.646-10.645s-4.767-10.645-10.646-10.645c-5.879 0-10.645 4.766-10.645 10.645s4.766 10.645 10.645 10.645zm-23.429-8.547c5.88 0 10.646-4.766 10.646-10.645 0-5.88-4.766-10.646-10.646-10.646-5.879 0-10.645 4.766-10.645 10.645 0 5.88 4.766 10.646 10.645 10.646zM499.943 92.04c5.879 0 10.646-4.767 10.646-10.646 0-5.88-4.767-10.645-10.646-10.645-5.879 0-10.645 4.766-10.645 10.645 0 5.88 4.766 10.645 10.645 10.645zm-12.471-21.602c5.879 0 10.645-4.766 10.645-10.646 0-5.879-4.766-10.645-10.645-10.645s-10.645 4.766-10.645 10.645c0 5.88 4.766 10.646 10.645 10.646zm-28.246-24.982c5.644 0 10.218-4.575 10.218-10.218S464.87 25.02 459.226 25.02c-5.643 0-10.218 4.575-10.218 10.218 0 5.644 4.575 10.218 10.218 10.218zm3.265-24.786c5.643 0 10.218-4.575 10.218-10.219 0-5.643-4.575-10.218-10.218-10.218s-10.218 4.575-10.218 10.218c0 5.644 4.575 10.218 10.218 10.218zM647.423.273a10.18 10.18 0 10-.078 20.358 10.18 10.18 0 00.078-20.358zm3.266 24.787a10.18 10.18 0 10-.078 20.358 10.18 10.18 0 00.078-20.359zm-3.266 24.787a10.18 10.18 0 10-.077 20.36 10.18 10.18 0 00.077-20.36zm-9.595 23.078a10.18 10.18 0 1010.179 10.179 10.139 10.139 0 00-6.278-9.415 10.139 10.139 0 00-3.901-.764zm-15.19 19.815a10.18 10.18 0 10-.001 20.36 10.18 10.18 0 00.001-20.36zm-19.816 15.229a10.183 10.183 0 00-9.404 6.283 10.18 10.18 0 007.418 13.879 10.175 10.175 0 0010.45-4.328 10.183 10.183 0 00-1.266-12.853 10.179 10.179 0 00-7.198-2.981zm-23.117 9.557a10.176 10.176 0 00-9.404 6.284 10.18 10.18 0 007.418 13.879 10.18 10.18 0 0012.165-9.983 10.136 10.136 0 00-6.278-9.415 10.136 10.136 0 00-3.901-.765zm-24.749 3.264a10.176 10.176 0 00-9.404 6.284 10.18 10.18 0 109.404-6.284zm-24.787-3.264a10.176 10.176 0 00-9.404 6.284 10.18 10.18 0 1019.584 3.896 10.18 10.18 0 00-10.18-10.18zm-23.077-9.557a10.183 10.183 0 00-9.405 6.283 10.183 10.183 0 002.207 11.094 10.177 10.177 0 0011.093 2.206 10.176 10.176 0 003.302-16.602 10.178 10.178 0 00-7.197-2.981zm-19.815-15.23a10.178 10.178 0 00-2.199 20.149 10.186 10.186 0 0012.223-9.97 10.18 10.18 0 00-10.024-10.18zm-15.228.583c5.643 0 10.218-4.575 10.218-10.218 0-5.644-4.575-10.218-10.218-10.218-5.644 0-10.218 4.575-10.218 10.218s4.574 10.218 10.218 10.218zm-9.558-23.078c5.643 0 10.218-4.575 10.218-10.218s-4.575-10.218-10.218-10.218-10.218 4.575-10.218 10.218 4.575 10.218 10.218 10.218zm-27.352-44.757a9.75 9.75 0 00-9.564 11.654 9.748 9.748 0 007.662 7.662 9.75 9.75 0 0011.654-9.564 9.75 9.75 0 00-9.752-9.752zM437.898.621a9.755 9.755 0 00-9.009 6.02 9.755 9.755 0 002.114 10.628A9.751 9.751 0 10437.898.62zm234.08 19.465c5.364 0 9.713-4.349 9.713-9.713 0-5.364-4.349-9.713-9.713-9.713-5.364 0-9.713 4.349-9.713 9.713 0 5.364 4.349 9.713 9.713 9.713zm2.603 24.866c5.364 0 9.713-4.349 9.713-9.713 0-5.364-4.349-9.713-9.713-9.713-5.364 0-9.713 4.349-9.713 9.713 0 5.364 4.349 9.713 9.713 9.713zm-2.447 5.555a9.711 9.711 0 00-6.868 16.581 9.712 9.712 0 106.868-16.58zm-7.888 43.126c5.364 0 9.713-4.349 9.713-9.713 0-5.364-4.349-9.713-9.713-9.713-5.364 0-9.713 4.349-9.713 9.713 0 5.364 4.349 9.713 9.713 9.713zm-12.509 2.214a9.711 9.711 0 00-9.526 11.607 9.715 9.715 0 0017.602 3.502 9.714 9.714 0 00-8.076-15.11zm-16.706 38.036c5.365 0 9.713-4.349 9.713-9.713 0-5.364-4.348-9.713-9.713-9.713-5.364 0-9.713 4.349-9.713 9.713 0 5.364 4.349 9.713 9.713 9.713zm-20.241-4.74a9.714 9.714 0 10.001 19.428 9.714 9.714 0 00-.001-19.428zm-22.884 10.179a9.706 9.706 0 00-5.396 1.637 9.706 9.706 0 00-4.13 9.97 9.715 9.715 0 0017.602 3.502 9.716 9.716 0 001.637-5.396 9.676 9.676 0 00-9.713-9.713zm-24.438 5.206a9.714 9.714 0 10.001 19.428 9.714 9.714 0 00-.001-19.428zm-25.02 0a9.714 9.714 0 10.001 19.428 9.714 9.714 0 00-.001-19.428zm-24.476-5.206a9.719 9.719 0 00-5.397 1.636 9.721 9.721 0 00-4.13 9.971 9.717 9.717 0 007.632 7.632 9.713 9.713 0 101.895-19.239zm-22.846-10.179a9.72 9.72 0 00-8.974 5.996 9.713 9.713 0 108.974-5.996zm-20.242-14.725a9.747 9.747 0 00-8.994 5.985 9.754 9.754 0 006.998 13.312 9.759 9.759 0 0010.029-4.015 9.755 9.755 0 00-1.082-12.371 9.749 9.749 0 00-6.951-2.911zm-16.745-18.61a9.75 9.75 0 00-9.564 11.654 9.748 9.748 0 007.662 7.662 9.754 9.754 0 0011.654-9.564 9.791 9.791 0 00-9.752-9.752zm-12.511-21.64a9.755 9.755 0 00-9.009 6.02 9.755 9.755 0 002.114 10.627 9.751 9.751 0 106.895-16.647zm-7.73-23.661a9.755 9.755 0 00-9.009 6.02 9.755 9.755 0 002.114 10.627 9.75 9.75 0 0016.647-6.895 9.789 9.789 0 00-9.752-9.752zm-26.536-24.554a9.288 9.288 0 00-9.107 11.097 9.288 9.288 0 0012.661 6.767 9.287 9.287 0 00-3.554-17.864zm2.174-24.943a9.288 9.288 0 00-9.107 11.097 9.288 9.288 0 007.296 7.296 9.282 9.282 0 009.532-3.948 9.288 9.288 0 00-1.155-11.725 9.281 9.281 0 00-6.566-2.72zm282.803.04a9.244 9.244 0 00-9.069 11.05 9.243 9.243 0 007.265 7.265 9.248 9.248 0 0011.051-9.07 9.289 9.289 0 00-9.247-9.246zm2.175 24.941a9.247 9.247 0 100 18.494 9.247 9.247 0 000-18.494zm-2.175 43.436a9.247 9.247 0 100-18.493 9.247 9.247 0 100 18.493zm-6.451 5.673a9.249 9.249 0 00-8.57 5.682 9.24 9.24 0 00-.542 5.345 9.24 9.24 0 007.255 7.286 9.247 9.247 0 101.857-18.312zm-10.606 22.69a9.246 9.246 0 100 18.492 9.246 9.246 0 000-18.493zm-14.336 20.513a9.25 9.25 0 00-9.069 11.051 9.247 9.247 0 0018.316-1.804 9.211 9.211 0 00-2.697-6.55 9.197 9.197 0 00-6.55-2.697zm-17.716 36.171a9.247 9.247 0 10-.001-18.493 9.247 9.247 0 00.001 18.493zm-20.474-4.118a9.25 9.25 0 00-8.543 5.708 9.252 9.252 0 002.004 10.077 9.25 9.25 0 0010.077 2.004 9.248 9.248 0 005.708-8.543 9.207 9.207 0 00-9.246-9.246zm-22.69 10.567a9.245 9.245 0 00-8.543 5.709 9.241 9.241 0 002.005 10.077 9.245 9.245 0 0014.226-1.402 9.245 9.245 0 001.559-5.137 9.212 9.212 0 00-9.247-9.247zm-24.165 6.488a9.253 9.253 0 00-8.574 5.691 9.24 9.24 0 001.997 10.094 9.243 9.243 0 0014.242-1.425 9.253 9.253 0 001.543-5.152 9.212 9.212 0 00-9.208-9.208zm-24.945 2.176a9.25 9.25 0 00-8.553 5.736 9.25 9.25 0 002.057 10.09 9.25 9.25 0 0010.116 1.93 9.247 9.247 0 005.627-8.626 9.205 9.205 0 00-9.247-9.13zm-24.941-2.175a9.247 9.247 0 10-.001 18.495 9.247 9.247 0 00.001-18.495zm-24.165-6.489a9.248 9.248 0 109.247 9.247 9.21 9.21 0 00-9.247-9.247zm-22.691-10.567a9.244 9.244 0 00-9.069 11.05 9.248 9.248 0 007.265 7.265 9.241 9.241 0 009.492-3.931 9.247 9.247 0 00-7.688-14.384zm-20.512-14.375a9.25 9.25 0 00-8.543 5.708 9.245 9.245 0 1017.789 3.539 9.285 9.285 0 00-9.246-9.247zm-17.68-17.678a9.25 9.25 0 00-9.069 11.051 9.247 9.247 0 0018.316-1.804 9.211 9.211 0 00-2.697-6.55 9.197 9.197 0 00-6.55-2.697zM430.594 97.79a9.244 9.244 0 00-8.543 5.707 9.245 9.245 0 0012.081 12.082 9.244 9.244 0 005.709-8.543 9.247 9.247 0 00-9.247-9.247zM420.026 75.1a9.25 9.25 0 00-8.543 5.709 9.25 9.25 0 006.739 12.608 9.245 9.245 0 0011.05-9.07 9.284 9.284 0 00-9.246-9.246zm-6.49-5.633a9.286 9.286 0 100-18.572 9.286 9.286 0 000 18.572zM387.43 44.058a8.82 8.82 0 10-.001-17.64 8.82 8.82 0 00.001 17.64zm1.865-24.981a8.819 8.819 0 008.819-8.82 8.819 8.819 0 10-17.638 0 8.82 8.82 0 008.819 8.82zm331.286-.04a8.78 8.78 0 100-17.561 8.78 8.78 0 000 17.56zm2.061 7.421a8.782 8.782 0 00-1.713 17.392 8.779 8.779 0 0010.494-8.611 8.78 8.78 0 00-8.781-8.781zm-2.061 24.982a8.782 8.782 0 00-1.713 17.392 8.78 8.78 0 101.713-17.392zm-5.71 24.399a8.782 8.782 0 00-1.713 17.392 8.779 8.779 0 0010.494-8.612 8.78 8.78 0 00-8.781-8.78zm-9.014 23.311a8.785 8.785 0 00-4.879 1.479 8.785 8.785 0 00-1.33 13.51 8.78 8.78 0 106.209-14.99zm-12.509 21.679a8.778 8.778 0 00-8.112 5.42 8.776 8.776 0 001.903 9.569 8.784 8.784 0 0013.51-1.33 8.788 8.788 0 00-1.092-11.087 8.78 8.78 0 00-6.209-2.572zm-15.621 19.581a8.78 8.78 0 100 17.56 8.78 8.78 0 000-17.56zm-18.336 17.017a8.789 8.789 0 00-8.057 5.474 8.792 8.792 0 00-.468 5.067 8.786 8.786 0 0011.98 6.344 8.78 8.78 0 00-3.455-16.885zm-20.669 14.103a8.778 8.778 0 00-8.112 5.42 8.776 8.776 0 001.903 9.569 8.784 8.784 0 0013.51-1.331 8.785 8.785 0 00-1.092-11.086 8.78 8.78 0 00-6.209-2.572zm-22.573 11.073a8.778 8.778 0 00-8.112 5.42 8.784 8.784 0 001.903 9.569 8.784 8.784 0 0013.51-1.331 8.778 8.778 0 00-7.301-13.658zm-23.933 7.188a8.785 8.785 0 00-8.116 5.429 8.785 8.785 0 001.921 9.574 8.78 8.78 0 106.195-15.003zm-24.75 3.73a8.78 8.78 0 00-1.712 17.392 8.776 8.776 0 009.013-3.734 8.778 8.778 0 00-7.301-13.658zm-25.02 0a8.78 8.78 0 00-1.713 17.392 8.778 8.778 0 009.014-3.734 8.778 8.778 0 00-7.301-13.658zm-24.787-3.73a8.776 8.776 0 00-8.115 5.429 8.785 8.785 0 001.92 9.574 8.779 8.779 0 0013.515-1.373 8.776 8.776 0 00-1.125-11.072 8.78 8.78 0 00-6.195-2.558zm-23.893-7.188a8.78 8.78 0 100 17.56 8.78 8.78 0 000-17.56zm-22.573-11.073a8.778 8.778 0 00-8.112 5.42 8.784 8.784 0 001.903 9.569 8.784 8.784 0 0013.51-1.331 8.778 8.778 0 00-7.301-13.658zm-20.513-14.103a8.78 8.78 0 100 17.56 8.78 8.78 0 000-17.56zm-18.533-17.094a8.853 8.853 0 00-8.211 5.441 8.857 8.857 0 0015.535 8.342 8.857 8.857 0 00-7.324-13.783zm-15.617-19.504a8.781 8.781 0 100 17.562 8.781 8.781 0 000-17.562zM404.057 99.11a8.824 8.824 0 00-8.148 5.445 8.824 8.824 0 006.428 12.025 8.816 8.816 0 009.053-3.75 8.82 8.82 0 00-7.333-13.72zm-9.168-23.31a8.817 8.817 0 00-8.65 10.54 8.819 8.819 0 0017.469-1.72 8.772 8.772 0 00-2.572-6.249 8.783 8.783 0 00-6.247-2.571zm-5.594-6.76a8.819 8.819 0 008.819-8.82 8.819 8.819 0 10-17.638 0 8.82 8.82 0 008.819 8.82zm-25.799-25.487a8.315 8.315 0 100-16.63 8.315 8.315 0 000 16.63zm1.632-24.982a8.314 8.314 0 008.314-8.314 8.315 8.315 0 10-8.314 8.314zm379.62-16.59a8.27 8.27 0 00-7.645 5.109 8.268 8.268 0 001.794 9.018 8.27 8.27 0 009.018 1.794 8.274 8.274 0 00-3.167-15.92zm1.631 24.982a8.276 8.276 0 108.276 8.275 8.241 8.241 0 00-5.103-7.656 8.233 8.233 0 00-3.173-.619zm-1.631 24.982a8.27 8.27 0 00-7.645 5.109 8.269 8.269 0 006.031 11.283 8.275 8.275 0 009.89-8.117 8.317 8.317 0 00-8.276-8.275zm-4.897 24.593a8.278 8.278 0 00-7.649 5.117 8.272 8.272 0 001.811 9.023 8.277 8.277 0 0014.113-5.904 8.242 8.242 0 00-2.426-5.838 8.233 8.233 0 00-5.849-2.398zm-8.041 23.7a8.273 8.273 0 00-8.116 9.889 8.27 8.27 0 006.502 6.502 8.276 8.276 0 007.466-13.968 8.275 8.275 0 00-5.852-2.423zm-11.073 22.456a8.271 8.271 0 00-7.646 5.108 8.283 8.283 0 006.031 11.284 8.282 8.282 0 008.496-3.519 8.278 8.278 0 00-1.03-10.449 8.272 8.272 0 00-5.851-2.424zm-13.909 20.824a8.273 8.273 0 00-8.116 9.89 8.272 8.272 0 006.502 6.502 8.28 8.28 0 008.495-3.519 8.274 8.274 0 00-6.881-12.873zm-16.513 18.805a8.277 8.277 0 00-7.645 5.108 8.28 8.28 0 001.794 9.019 8.274 8.274 0 0012.732-1.255 8.266 8.266 0 001.395-4.597 8.314 8.314 0 00-8.276-8.275zm-18.842 16.394a8.275 8.275 0 10.313 16.546 8.275 8.275 0 00-.313-16.546zm-20.786 14.066a8.275 8.275 0 108.237 8.236 8.237 8.237 0 00-8.237-8.236zm-22.494 11.072a8.276 8.276 0 108.275 8.236 8.243 8.243 0 00-2.426-5.838 8.245 8.245 0 00-5.849-2.398zm-23.7 8.042a8.28 8.28 0 00-7.646 5.109 8.28 8.28 0 001.794 9.018 8.268 8.268 0 009.019 1.794 8.27 8.27 0 002.684-13.497 8.275 8.275 0 00-5.851-2.424zm-24.554 4.896a8.278 8.278 0 00-7.649 5.117 8.278 8.278 0 0010.843 10.792 8.278 8.278 0 005.081-7.673 8.243 8.243 0 00-2.426-5.838 8.245 8.245 0 00-5.849-2.398zm-24.981 1.631a8.28 8.28 0 00-7.562 5.188 8.276 8.276 0 107.562-5.188zm-24.982-1.631a8.273 8.273 0 00-8.157 9.88 8.274 8.274 0 0015.015 2.968 8.275 8.275 0 001.378-4.612 8.236 8.236 0 00-8.236-8.236zm-24.593-4.896a8.278 8.278 0 00-8.116 9.89 8.268 8.268 0 002.265 4.237 8.268 8.268 0 009.018 1.794 8.272 8.272 0 005.109-7.645 8.24 8.24 0 00-8.276-8.276zm-23.623-8.12a8.31 8.31 0 00-7.681 5.132 8.307 8.307 0 00-.473 4.804 8.306 8.306 0 006.532 6.532 8.307 8.307 0 008.535-3.535 8.31 8.31 0 00-1.034-10.498 8.315 8.315 0 00-5.879-2.435zm-22.533 5.556a8.314 8.314 0 008.314-8.314 8.314 8.314 0 00-8.314-8.314 8.314 8.314 0 00-8.314 8.314 8.314 8.314 0 008.314 8.314zm-20.824-13.909a8.314 8.314 0 008.314-8.314 8.314 8.314 0 00-8.314-8.314 8.314 8.314 0 00-8.314 8.314 8.314 8.314 0 008.314 8.314zm-18.843-16.512a8.314 8.314 0 008.314-8.314 8.314 8.314 0 00-8.314-8.314 8.314 8.314 0 00-8.314 8.314 8.314 8.314 0 008.314 8.314zm-16.474-18.804a8.314 8.314 0 100-16.629 8.314 8.314 0 000 16.629zm-13.948-37.453a8.313 8.313 0 00-5.879 14.193 8.316 8.316 0 0011.759-11.758 8.317 8.317 0 00-5.88-2.435zm-11.073-5.828a8.314 8.314 0 008.314-8.314 8.314 8.314 0 10-8.314 8.314zm-8.041-23.739a8.314 8.314 0 008.314-8.314 8.315 8.315 0 10-8.314 8.314zm-4.896-24.554a8.314 8.314 0 008.314-8.315 8.315 8.315 0 10-8.314 8.314zm-25.564-25.486a7.809 7.809 0 100-15.618 7.809 7.809 0 000 15.618zm1.477-40.678a7.77 7.77 0 100 15.54 7.77 7.77 0 000-15.54zm427.834 15.658a7.809 7.809 0 100-15.619 7.809 7.809 0 100 15.619zm1.437 25.02a7.809 7.809 0 100-15.619 7.81 7.81 0 100 15.619zm-1.437 25.02a7.809 7.809 0 100-15.618 7.809 7.809 0 000 15.618zM764.523 92.7a7.809 7.809 0 100-15.618 7.809 7.809 0 000 15.618zm-7.189 8.314a7.77 7.77 0 00-5.494 13.265 7.77 7.77 0 105.494-13.265zm-9.906 23.078a7.77 7.77 0 10.001 15.54 7.77 7.77 0 00-.001-15.54zm-12.549 21.757a7.77 7.77 0 00-5.494 13.265 7.767 7.767 0 0011.955-1.177 7.77 7.77 0 00-6.461-12.088zm-14.958 20.008a7.77 7.77 0 00-5.495 13.265 7.774 7.774 0 008.468 1.685 7.777 7.777 0 003.488-2.862 7.776 7.776 0 00-.967-9.812 7.77 7.77 0 00-5.494-2.276zm-17.172 18.262a7.768 7.768 0 00-5.495 13.264 7.774 7.774 0 008.468 1.685 7.77 7.77 0 00-2.973-14.949zm-19.193 16.123a7.768 7.768 0 00-5.494 13.264 7.767 7.767 0 0011.955-1.177 7.768 7.768 0 00-.967-9.811 7.765 7.765 0 00-5.494-2.276zm-20.902 13.753a7.77 7.77 0 100 15.539 7.77 7.77 0 000-15.539zm-22.417 11.345a7.77 7.77 0 10.001 15.54 7.77 7.77 0 00-.001-15.54zm-23.505 24.049a7.81 7.81 0 10-.002-15.62 7.81 7.81 0 00.002 15.62zm-24.399-9.869a7.77 7.77 0 100 15.539 7.77 7.77 0 000-15.539zm-24.865 2.914a7.77 7.77 0 100 15.539 7.77 7.77 0 000-15.539zm-25.06 0a7.767 7.767 0 00-7.179 4.797 7.768 7.768 0 005.663 10.594 7.768 7.768 0 009.286-7.621 7.771 7.771 0 00-7.77-7.77zm-24.865-2.914a7.77 7.77 0 100 15.539 7.77 7.77 0 000-15.539zm-24.361 9.869a7.81 7.81 0 10-.001-15.62 7.81 7.81 0 00.001 15.62zm-23.543-24.049a7.77 7.77 0 10.001 15.54 7.77 7.77 0 00-.001-15.54zm-22.379 4.235a7.81 7.81 0 10-.001-15.62 7.81 7.81 0 00.001 15.62zm-20.942-13.754a7.81 7.81 0 100-15.62 7.81 7.81 0 000 15.62zm-19.153-31.742a7.77 7.77 0 10.001 15.54 7.77 7.77 0 00-.001-15.54zm-17.21-18.222a7.77 7.77 0 00-5.495 13.265 7.774 7.774 0 008.468 1.685 7.768 7.768 0 002.521-12.674 7.77 7.77 0 00-5.494-2.276zm-14.96-4.467a7.81 7.81 0 10-.001-15.619 7.81 7.81 0 00.001 15.619zm-12.51-37.298a7.77 7.77 0 10.001 15.54 7.77 7.77 0 00-.001-15.54zm-9.905-7.382a7.809 7.809 0 100-15.618 7.809 7.809 0 100 15.618zm-7.188-24.01a7.809 7.809 0 100-15.618 7.809 7.809 0 000 15.618zm-4.351-40.328a7.77 7.77 0 100 15.54 7.77 7.77 0 000-15.54zm-25.409-24.477a7.344 7.344 0 00-5.193 12.535 7.346 7.346 0 0011.298-1.112 7.342 7.342 0 00-6.105-11.423zm1.319-25.02a7.34 7.34 0 00-6.784 4.533 7.348 7.348 0 005.352 10.012 7.34 7.34 0 007.538-3.123 7.341 7.341 0 00-.913-9.271 7.344 7.344 0 00-5.193-2.151zm475.973.039a7.301 7.301 0 00-6.664 4.589 7.303 7.303 0 106.664-4.59zm1.32 39.628a7.304 7.304 0 100-14.608 7.304 7.304 0 000 14.608zm-1.32 25.021a7.304 7.304 0 100-14.608 7.304 7.304 0 000 14.608zm-3.884 10.14a7.305 7.305 0 10.233 14.608 7.305 7.305 0 00-.233-14.608zm-6.49 38.774a7.304 7.304 0 100-14.608 7.304 7.304 0 000 14.608zm-8.974 23.389a7.304 7.304 0 100-14.608 7.305 7.305 0 100 14.608zm-11.384 7.77a7.308 7.308 0 00-6.748 4.509 7.305 7.305 0 106.748-4.509zm-13.637 20.98a7.296 7.296 0 00-4.061 1.234 7.297 7.297 0 00-3.099 7.509 7.302 7.302 0 009.983 5.298 7.307 7.307 0 004.482-6.776 7.309 7.309 0 00-7.305-7.265zm-15.773 34.034a7.304 7.304 0 100-14.608 7.304 7.304 0 000 14.608zm-17.718 3.264a7.3 7.3 0 00-6.752 4.518 7.308 7.308 0 001.601 7.965 7.305 7.305 0 0012.455-5.218 7.275 7.275 0 00-2.141-5.151 7.275 7.275 0 00-5.163-2.114zm-19.463 30.226a7.304 7.304 0 100-14.608 7.304 7.304 0 000 14.608zm-20.981 13.638a7.305 7.305 0 10-.001-14.609 7.305 7.305 0 00.001 14.609zm-22.34-3.226a7.308 7.308 0 00-6.748 4.509 7.305 7.305 0 106.748-4.509zm-23.388 23.584a7.305 7.305 0 100-14.61 7.305 7.305 0 000 14.61zm-24.206-8.121a7.307 7.307 0 00-7.163 8.729 7.3 7.3 0 005.738 5.739 7.307 7.307 0 008.73-7.164 7.303 7.303 0 00-7.305-7.304zm-24.708 3.925a7.3 7.3 0 00-6.776 4.482 7.306 7.306 0 0012.808 6.884 7.307 7.307 0 00-6.032-11.366zm-25.021 1.321a7.303 7.303 0 00-7.16 8.743 7.305 7.305 0 009.983 5.298 7.295 7.295 0 003.269-2.708 7.3 7.3 0 00-.941-9.208 7.303 7.303 0 00-5.151-2.125zm-25.021-1.321a7.299 7.299 0 00-4.057 1.231 7.297 7.297 0 00-3.106 7.498 7.304 7.304 0 107.163-8.729zm-24.864-3.925a7.31 7.31 0 00-6.748 4.509 7.31 7.31 0 001.583 7.96 7.304 7.304 0 105.165-12.469zm-24.089 8.121a7.304 7.304 0 100-14.608 7.304 7.304 0 000 14.608zm-23.349-23.583a7.3 7.3 0 00-6.776 4.482 7.304 7.304 0 106.776-4.482zm-22.495-11.384a7.308 7.308 0 00-6.748 4.509 7.305 7.305 0 106.748-4.509zm-20.864.971a7.304 7.304 0 100-14.608 7.304 7.304 0 000 14.608zm-19.464-30.226a7.3 7.3 0 00-6.751 4.518 7.3 7.3 0 001.6 7.965 7.308 7.308 0 0011.243-1.149 7.305 7.305 0 001.212-4.069 7.275 7.275 0 00-2.141-5.151 7.27 7.27 0 00-5.163-2.114zm-17.716-17.833a7.3 7.3 0 00-6.752 4.518 7.308 7.308 0 001.601 7.965 7.303 7.303 0 0012.455-5.218 7.257 7.257 0 00-2.142-5.151 7.26 7.26 0 00-5.162-2.114zm-15.774-19.543a7.343 7.343 0 100 14.686 7.343 7.343 0 000-14.686zm-13.598-20.901a7.342 7.342 0 102.762 14.13 7.344 7.344 0 004.542-6.787 7.306 7.306 0 00-7.304-7.343zm-11.383-22.418a7.339 7.339 0 00-6.784 4.533 7.342 7.342 0 0012.889 6.889 7.34 7.34 0 00-.913-9.272 7.34 7.34 0 00-5.192-2.15zm-8.976-23.389a7.34 7.34 0 00-6.784 4.533 7.345 7.345 0 0012.89 6.89 7.345 7.345 0 00-6.106-11.423zm-6.487-24.127a7.344 7.344 0 100 14.687 7.344 7.344 0 000-14.687zm-3.926-24.787a7.341 7.341 0 00-7.202 8.776 7.348 7.348 0 005.77 5.77 7.34 7.34 0 007.538-3.123 7.341 7.341 0 00-.913-9.272 7.344 7.344 0 00-5.193-2.15zM291.698 28.4a6.836 6.836 0 00-6.707 8.173 6.835 6.835 0 005.373 5.372 6.839 6.839 0 008.172-6.706 6.804 6.804 0 00-6.838-6.838zm1.204-25.02a6.84 6.84 0 00-6.317 4.222 6.833 6.833 0 001.482 7.452 6.842 6.842 0 007.452 1.482 6.839 6.839 0 00-2.617-13.155zm524.071.04a6.797 6.797 0 00-4.965 11.563 6.798 6.798 0 0011.648-4.764 6.8 6.8 0 00-6.683-6.8zm1.205 38.656a6.838 6.838 0 100-13.676 6.838 6.838 0 000 13.676zm-1.205 11.384a6.798 6.798 0 00-4.965 11.564 6.798 6.798 0 104.965-11.564zm-3.536 24.826a6.8 6.8 0 106.76 6.76 6.76 6.76 0 00-6.76-6.76zm-5.906 24.321a6.803 6.803 0 00-6.309 4.17 6.805 6.805 0 001.449 7.423 6.801 6.801 0 0010.472-1.013 6.802 6.802 0 00-.829-8.575 6.798 6.798 0 00-4.783-2.005zm-8.197 23.7a6.798 6.798 0 106.76 6.76 6.754 6.754 0 00-1.98-4.78 6.754 6.754 0 00-4.78-1.98zm-10.412 22.767a6.798 6.798 0 00-6.668 8.126 6.801 6.801 0 005.342 5.342 6.797 6.797 0 008.125-6.668 6.798 6.798 0 00-6.799-6.8zm-12.51 21.874a6.793 6.793 0 00-6.309 4.17 6.794 6.794 0 001.449 7.422 6.795 6.795 0 007.414 1.492 6.803 6.803 0 004.206-6.285 6.8 6.8 0 00-6.76-6.799zm-14.531 20.241a6.802 6.802 0 00-6.293 4.136 6.795 6.795 0 004.82 9.309 6.8 6.8 0 008.233-6.49 6.764 6.764 0 00-6.76-6.955zm-16.434 18.921a6.8 6.8 0 106.8 6.799 6.765 6.765 0 00-6.8-6.799zm-18.105 17.289a6.798 6.798 0 00-4.583 11.672 6.797 6.797 0 0010.421-1.141 6.805 6.805 0 001.117-3.771 6.766 6.766 0 00-2.048-4.85 6.753 6.753 0 00-4.907-1.91zm-19.698 15.463a6.79 6.79 0 00-3.788 1.127 6.794 6.794 0 00-2.924 6.974 6.801 6.801 0 005.332 5.363 6.792 6.792 0 006.991-2.884 6.798 6.798 0 00-5.611-10.58zm-21.096 13.559a6.801 6.801 0 00-6.669 8.125 6.794 6.794 0 005.342 5.342 6.797 6.797 0 008.126-6.668 6.766 6.766 0 00-6.799-6.799zm-22.263 25.059a6.799 6.799 0 100-13.598 6.799 6.799 0 000 13.598zm-23.231-4.273a6.792 6.792 0 00-6.309 4.17 6.794 6.794 0 001.448 7.423 6.803 6.803 0 007.415 1.491 6.798 6.798 0 00-2.554-13.084zm-24.05 7.071a6.798 6.798 0 00-1.303 13.472 6.806 6.806 0 006.975-2.924 6.809 6.809 0 001.127-3.788 6.765 6.765 0 00-6.799-6.76zm-24.594 4.74a6.798 6.798 0 00-4.793 11.621 6.795 6.795 0 007.422 1.448 6.792 6.792 0 004.17-6.309 6.796 6.796 0 00-6.799-6.76zm-24.943 2.37a6.8 6.8 0 106.8 6.799 6.758 6.758 0 00-1.98-4.82 6.752 6.752 0 00-4.82-1.979zm-25.058 13.636a6.838 6.838 0 100-13.676 6.838 6.838 0 000 13.676zm-24.905-2.408a6.838 6.838 0 100-13.676 6.838 6.838 0 000 13.676zm-24.631-4.741a6.838 6.838 0 100-13.676 6.838 6.838 0 000 13.676zm-24.011-7.032a6.838 6.838 0 100-13.676 6.838 6.838 0 000 13.676zm-23.272-9.324a6.838 6.838 0 100-13.676 6.838 6.838 0 000 13.676zm-22.106-25.098a6.838 6.838 0 10-.001 13.676 6.838 6.838 0 00.001-13.676zm-21.213.078a6.838 6.838 0 100-13.676 6.838 6.838 0 000 13.676zm-19.699-15.502a6.838 6.838 0 100-13.676 6.838 6.838 0 000 13.676zm-18.143-30.926a6.836 6.836 0 00-6.706 8.172 6.837 6.837 0 106.706-8.172zm-16.396-18.96a6.836 6.836 0 00-6.296 4.179 6.838 6.838 0 106.296-4.179zm-14.53-20.397a6.837 6.837 0 100 13.674 6.837 6.837 0 000-13.674zm-12.511-21.679a6.84 6.84 0 00-6.75 8.148 6.84 6.84 0 0013.55-1.31 6.84 6.84 0 00-6.8-6.838zm-10.411-22.806a6.843 6.843 0 00-3.799 1.152 6.843 6.843 0 00-2.907 7.02 6.833 6.833 0 005.372 5.372 6.834 6.834 0 007.02-2.907 6.843 6.843 0 00-.851-8.634 6.834 6.834 0 00-4.835-2.003zm-8.199-23.661a6.837 6.837 0 106.838 6.838 6.838 6.838 0 00-6.838-6.838zm-5.905-24.36a6.835 6.835 0 00-6.318 4.22 6.841 6.841 0 001.482 7.453 6.841 6.841 0 007.452 1.482 6.833 6.833 0 004.221-6.317 6.83 6.83 0 00-4.221-6.318 6.83 6.83 0 00-2.616-.52zm-3.575-24.788a6.84 6.84 0 00-6.706 8.173 6.84 6.84 0 005.372 5.372 6.839 6.839 0 101.334-13.544zm-25.135-24.554a6.372 6.372 0 100 12.745 6.372 6.372 0 000-12.744zm1.125-24.981a6.372 6.372 0 106.333 6.372 6.335 6.335 0 00-6.333-6.372zm572.13 12.665a6.333 6.333 0 100-12.666 6.333 6.333 0 000 12.667zm1.089 25.021a6.333 6.333 0 100-12.666 6.333 6.333 0 000 12.666zm-1.089 25.02a6.333 6.333 0 100-12.666 6.333 6.333 0 000 12.666zm-3.263 24.827a6.332 6.332 0 100-12.665 6.332 6.332 0 000 12.665zm-5.439 24.477a6.333 6.333 0 10-.002-12.666 6.333 6.333 0 00.002 12.666zm-7.537 23.893a6.333 6.333 0 100-12.666 6.333 6.333 0 000 12.666zm-9.558 23.156a6.333 6.333 0 100-12.666 6.333 6.333 0 000 12.666zm-11.578 9.596a6.288 6.288 0 00-5.853 3.886 6.291 6.291 0 004.645 8.592 6.293 6.293 0 101.208-12.478zm-13.483 21.136a6.298 6.298 0 00-5.819 3.894 6.297 6.297 0 004.615 8.578 6.302 6.302 0 003.64-.374 6.302 6.302 0 003.858-5.843 6.254 6.254 0 00-6.294-6.255zm-15.228 32.479a6.333 6.333 0 100-12.666 6.333 6.333 0 000 12.666zm-16.941 18.455a6.333 6.333 0 100-12.666 6.333 6.333 0 000 12.666zm-18.454 16.94a6.334 6.334 0 10-.002-12.668 6.334 6.334 0 00.002 12.668zm-19.892 2.642a6.297 6.297 0 00-5.814 3.885 6.294 6.294 0 1012.108 2.409 6.25 6.25 0 00-3.879-5.826 6.25 6.25 0 00-2.415-.468zm-21.135 13.481a6.256 6.256 0 10.079 12.511 6.256 6.256 0 00-.079-12.511zm-22.224 24.166a6.333 6.333 0 100-12.666 6.333 6.333 0 000 12.666zm-23.115 9.596a6.333 6.333 0 100-12.666 6.333 6.333 0 000 12.666zm-23.895 7.499a6.333 6.333 0 100-12.666 6.333 6.333 0 000 12.666zm-24.476 5.438a6.332 6.332 0 100-12.665 6.333 6.333 0 000 12.665zm-24.827 3.264a6.332 6.332 0 10.001-12.665 6.332 6.332 0 00-.001 12.665zm-25.02 1.088a6.333 6.333 0 100-12.666 6.333 6.333 0 000 12.666zm-25.02-1.088a6.333 6.333 0 100-12.666 6.333 6.333 0 000 12.666zm-24.865-3.264a6.332 6.332 0 100-12.665 6.333 6.333 0 000 12.665zm-24.437-18.066a6.328 6.328 0 00-5.882 3.891 6.337 6.337 0 001.365 6.92 6.332 6.332 0 104.517-10.811zm-23.894 5.129a6.333 6.333 0 100-12.666 6.333 6.333 0 000 12.666zm-23.158-9.596a6.333 6.333 0 100-12.666 6.333 6.333 0 000 12.666zm-22.222-11.578a6.333 6.333 0 100-12.666 6.334 6.334 0 000 12.666zm-21.135-13.443a6.333 6.333 0 10.001-12.665 6.333 6.333 0 00-.001 12.665zm-19.852-15.268a6.334 6.334 0 10-.002-12.668 6.334 6.334 0 00.002 12.668zm-18.494-16.94a6.333 6.333 0 10-.002-12.666 6.333 6.333 0 00.002 12.666zm-16.901-18.455a6.333 6.333 0 100-12.666 6.333 6.333 0 000 12.666zm-15.268-19.891a6.333 6.333 0 100-12.666 6.333 6.333 0 000 12.666zm-13.443-21.097a6.333 6.333 0 100-12.666 6.333 6.333 0 000 12.666zm-11.578-34.928a6.37 6.37 0 00-5.887 3.934 6.371 6.371 0 105.887-3.934zm-9.598-23.155a6.37 6.37 0 10-.154 12.74 6.37 6.37 0 00.154-12.74zm-7.536-23.894a6.374 6.374 0 00-6.249 7.615 6.363 6.363 0 005.006 5.006 6.37 6.37 0 101.243-12.621zm-5.4-24.437a6.372 6.372 0 106.372 6.333 6.328 6.328 0 00-1.869-4.492 6.335 6.335 0 00-4.503-1.841zm-3.264-24.865a6.373 6.373 0 10-.076 12.745 6.373 6.373 0 00.076-12.745zm-25.019-12.86a5.79 5.79 0 100-11.579 5.79 5.79 0 000 11.579zm1.009-25.02a5.79 5.79 0 100-11.579 5.79 5.79 0 000 11.579zm620.15-11.579a5.788 5.788 0 10-.077 11.576 5.788 5.788 0 00.077-11.576zm1.009 25.059a5.748 5.748 0 00-5.312 3.55 5.753 5.753 0 007.512 7.513 5.75 5.75 0 00-2.2-11.063zm-1.009 24.904a5.784 5.784 0 00-5.379 3.556 5.79 5.79 0 1011.129 2.194 5.751 5.751 0 00-5.75-5.75zm-3.031 24.982a5.79 5.79 0 00-4.079 9.896 5.784 5.784 0 006.322 1.23 5.785 5.785 0 003.546-5.376 5.757 5.757 0 00-1.698-4.08 5.747 5.747 0 00-4.091-1.67zm-5.011 24.555a5.746 5.746 0 00-5.285 3.576 5.745 5.745 0 001.271 6.253 5.743 5.743 0 008.836-.889 5.75 5.75 0 00-4.822-8.94zm-6.954 24.048a5.797 5.797 0 00-5.376 3.547 5.79 5.79 0 105.376-3.547zm-8.896 23.545a5.79 5.79 0 10.078 11.579 5.79 5.79 0 00-.078-11.579zm-10.725 22.534a5.75 5.75 0 10-.002 11.498 5.75 5.75 0 00.002-11.498zm-12.549 21.678a5.79 5.79 0 10.002 11.579 5.79 5.79 0 00-.002-11.579zm-14.219 20.631a5.789 5.789 0 105.75 5.75 5.751 5.751 0 00-5.75-5.75zm-15.851 30.925a5.75 5.75 0 100-11.5 5.75 5.75 0 000 11.5zm-17.328 6.566a5.753 5.753 0 00-5.64 6.872 5.75 5.75 0 0011.39-1.121 5.792 5.792 0 00-5.75-5.751zm-18.766 16.59a5.785 5.785 0 00-5.268 3.662 5.786 5.786 0 004.321 7.816 5.787 5.787 0 006.852-5.728 5.75 5.75 0 00-5.905-5.75zm-20.046 15.075a5.755 5.755 0 00-5.273 3.55 5.754 5.754 0 004.134 7.828 5.751 5.751 0 101.139-11.378zm-21.176 13.364a5.797 5.797 0 00-5.352 3.583 5.786 5.786 0 0010.184 5.394 5.792 5.792 0 00-4.832-8.977zm-22.184 11.656a5.75 5.75 0 10.08 11.5 5.75 5.75 0 00-.08-11.5zm-23.039 21.33a5.75 5.75 0 100-11.5 5.75 5.75 0 000 11.5zm-23.737 7.926a5.75 5.75 0 100-11.5 5.75 5.75 0 000 11.5zm-24.362-5.673a5.787 5.787 0 00-5.352 3.583 5.793 5.793 0 001.272 6.313 5.793 5.793 0 006.322 1.23 5.787 5.787 0 001.838-9.444 5.791 5.791 0 00-4.08-1.682zm-24.709 4.196a5.754 5.754 0 00-5.228 3.629 5.754 5.754 0 001.32 6.226 5.752 5.752 0 006.251 1.195 5.748 5.748 0 00-2.343-11.05zm-24.982 1.981a5.787 5.787 0 00-5.721 6.895 5.793 5.793 0 004.539 4.569 5.785 5.785 0 005.954-2.455 5.788 5.788 0 00-4.772-9.009zm-25.058 0a5.793 5.793 0 00-5.349 3.574 5.794 5.794 0 001.255 6.309 5.786 5.786 0 008.907-.878 5.788 5.788 0 00-4.813-9.005zm-24.944-1.98a5.752 5.752 0 00-5.64 6.871 5.752 5.752 0 0011.39-1.121 5.789 5.789 0 00-5.75-5.75zm-24.749 7.459a5.75 5.75 0 100-11.5 5.75 5.75 0 000 11.5zm-24.319-5.983a5.75 5.75 0 100-11.5 5.75 5.75 0 000 11.5zm-23.779-19.426a5.757 5.757 0 00-5.285 3.576 5.753 5.753 0 004.216 7.816 5.742 5.742 0 003.317-.334 5.742 5.742 0 002.574-2.118 5.742 5.742 0 00.525-5.4 5.75 5.75 0 00-5.347-3.54zm-23.039-9.83a5.75 5.75 0 10.08 11.5 5.75 5.75 0 00-.08-11.5zm-22.184-11.655a5.786 5.786 0 00-5.719 6.908 5.787 5.787 0 0010.509 2.072 5.794 5.794 0 00.96-3.23 5.748 5.748 0 00-5.75-5.75zm-21.174-1.826a5.788 5.788 0 005.788-5.789 5.788 5.788 0 10-11.577 0 5.789 5.789 0 005.789 5.789zm-20.008-26.614a5.784 5.784 0 00-5.718 6.909 5.788 5.788 0 105.718-6.909zm-18.766-5.05a5.79 5.79 0 100-11.578 5.79 5.79 0 000 11.578zm-17.366-18.067a5.79 5.79 0 100-11.578 5.79 5.79 0 000 11.578zm-15.852-19.425a5.79 5.79 0 100-11.578 5.79 5.79 0 000 11.578zm-14.219-32.207a5.824 5.824 0 00-5.384 3.597 5.828 5.828 0 105.384-3.597zm-12.51-10.102a5.79 5.79 0 100-11.578 5.79 5.79 0 000 11.578zm-10.762-22.612a5.79 5.79 0 100-11.578 5.79 5.79 0 000 11.578zm-8.86-35.044a5.824 5.824 0 00-5.411 3.57 5.831 5.831 0 001.238 6.364 5.826 5.826 0 108.269-8.214 5.825 5.825 0 00-4.096-1.72zm-6.992-12.472a5.79 5.79 0 100-11.578 5.79 5.79 0 000 11.578zm-5.013-36.132a5.827 5.827 0 105.827 5.789 5.796 5.796 0 00-1.709-4.107 5.789 5.789 0 00-4.118-1.682zm-2.991-13.287a5.79 5.79 0 100-11.578 5.79 5.79 0 000 11.578zm-24.943-25.526a5.284 5.284 0 100-10.568 5.284 5.284 0 000 10.568zm.931-35.627a5.32 5.32 0 00-4.945 3.26 5.321 5.321 0 006.934 6.984 5.319 5.319 0 003.295-4.92 5.322 5.322 0 00-5.284-5.324zm668.174 0a5.321 5.321 0 00-3.817 9.073 5.327 5.327 0 005.806 1.171 5.33 5.33 0 003.295-4.92 5.28 5.28 0 00-5.284-5.323zm.931 25.06a5.282 5.282 0 00-3.736 9.02 5.283 5.283 0 107.472-7.473 5.28 5.28 0 00-3.736-1.547zm-.931 25.02a5.323 5.323 0 105.283 5.284 5.283 5.283 0 00-5.283-5.284zm-2.799 24.943a5.242 5.242 0 00-4.846 3.238 5.248 5.248 0 001.137 5.716 5.243 5.243 0 008.07-.795 5.248 5.248 0 00-.653-6.623 5.242 5.242 0 00-3.708-1.536zm-4.661 24.631a5.247 5.247 0 00-5.144 6.269 5.243 5.243 0 009.505 1.89 5.245 5.245 0 00.884-2.914 5.206 5.206 0 00-5.245-5.245zm-6.488 24.205a5.245 5.245 0 105.245 5.245 5.206 5.206 0 00-5.245-5.245zm-8.276 34.151a5.284 5.284 0 100-10.569 5.284 5.284 0 000 10.569zm-10.023 12.432a5.283 5.283 0 00-5.223 6.305 5.272 5.272 0 001.448 2.715 5.278 5.278 0 008.145-.825 5.285 5.285 0 00.875-2.95 5.241 5.241 0 00-1.537-3.708 5.241 5.241 0 00-3.708-1.537zm-11.696 32.675a5.245 5.245 0 100-10.49 5.245 5.245 0 000 10.49zm-13.325 21.213a5.245 5.245 0 100-10.49 5.245 5.245 0 000 10.49zm-14.88 9.635a5.285 5.285 0 00-3.775 9.02 5.286 5.286 0 005.776 1.138 5.28 5.28 0 003.244-4.913 5.249 5.249 0 00-1.536-3.709 5.249 5.249 0 00-3.709-1.536zm-16.357 18.999a5.242 5.242 0 00-4.845 3.238 5.247 5.247 0 001.137 5.716 5.243 5.243 0 008.953-3.709 5.244 5.244 0 00-5.245-5.245zm-17.716 28.205a5.245 5.245 0 100-10.49 5.245 5.245 0 000 10.49zm-19 5.868a5.246 5.246 0 10.39 10.484 5.246 5.246 0 00-.39-10.484zm-20.164 14.996a5.247 5.247 0 00-5.1 6.292 5.242 5.242 0 007.155 3.795 5.246 5.246 0 00-2.055-10.087zm-21.018 13.209a5.245 5.245 0 100 10.49 5.245 5.245 0 000-10.49zm-22.34 22.186a5.245 5.245 0 100-10.49 5.245 5.245 0 000 10.49zm-22.961-.428a5.29 5.29 0 00-2.936.89 5.279 5.279 0 00-2.246 5.424 5.286 5.286 0 004.151 4.152 5.283 5.283 0 101.031-10.466zm-23.621 18.727a5.245 5.245 0 100-10.49 5.245 5.245 0 000 10.49zm-24.206 6.488a5.246 5.246 0 10-.002-10.492 5.246 5.246 0 00.002 10.492zm-24.632 4.661a5.245 5.245 0 100-10.49 5.245 5.245 0 000 10.49zm-24.903-7.731a5.284 5.284 0 10.079 10.568 5.284 5.284 0 00-.079-10.568zm-25.021.932a5.28 5.28 0 00-4.881 3.262 5.282 5.282 0 009.274 4.958 5.283 5.283 0 00-4.393-8.22zm-25.059-.932a5.29 5.29 0 00-2.925.909 5.296 5.296 0 00-1.929 2.38 5.275 5.275 0 00-.284 3.049 5.278 5.278 0 004.161 4.131 5.28 5.28 0 006.3-5.185 5.285 5.285 0 00-5.323-5.284zm-24.826-2.72a5.28 5.28 0 00-4.881 3.262 5.283 5.283 0 104.881-3.262zm-24.67-4.739a5.282 5.282 0 00-5.226 6.291 5.285 5.285 0 0010.471-1.007 5.283 5.283 0 00-5.245-5.284zm-24.206-6.489a5.28 5.28 0 00-4.881 3.262 5.282 5.282 0 006.903 6.903 5.278 5.278 0 003.262-4.881 5.283 5.283 0 00-5.284-5.284zm-23.661-8.197a5.29 5.29 0 00-4.854 3.288 5.288 5.288 0 001.17 5.745 5.282 5.282 0 009.007-3.749 5.282 5.282 0 00-5.323-5.284zm-22.961-10.102a5.29 5.29 0 00-5.139 6.338 5.288 5.288 0 007.209 3.824 5.287 5.287 0 002.847-6.909 5.277 5.277 0 00-2.883-2.862 5.293 5.293 0 00-2.034-.391zM387.429 320.1a5.29 5.29 0 00-4.882 3.261 5.283 5.283 0 001.146 5.759 5.283 5.283 0 103.736-9.02zm-21.214-13.172a5.333 5.333 0 00-2.968.878 5.33 5.33 0 00-2.296 5.459 5.323 5.323 0 105.264-6.337zm-20.164-15.036a5.283 5.283 0 00-5.139 6.338 5.288 5.288 0 007.209 3.824 5.285 5.285 0 00-2.07-10.162zm-18.958-5.789a5.284 5.284 0 100-10.567 5.284 5.284 0 000 10.567zm-17.718-28.284a5.32 5.32 0 00-4.921 3.295 5.317 5.317 0 001.172 5.805 5.32 5.32 0 008.194-.848c.58-.881.886-1.914.878-2.968a5.285 5.285 0 00-5.323-5.284zm-16.355-18.998a5.328 5.328 0 00-4.949 3.268 5.32 5.32 0 009.352 4.988 5.327 5.327 0 00.88-2.972 5.283 5.283 0 00-5.283-5.284zm-14.882-20.164a5.329 5.329 0 00-4.805 3.391 5.32 5.32 0 007.032 6.833 5.328 5.328 0 003.251-4.901 5.28 5.28 0 00-5.478-5.323zm-13.326-10.606a5.284 5.284 0 100-10.569 5.284 5.284 0 000 10.569zm-11.693-32.753a5.328 5.328 0 00-4.949 3.268 5.322 5.322 0 1010.233 2.016 5.284 5.284 0 00-5.284-5.284zm-10.024-12.393a5.284 5.284 0 100-10.569 5.284 5.284 0 000 10.569zm-8.275-34.229a5.328 5.328 0 00-4.946 3.259 5.328 5.328 0 001.129 5.814 5.32 5.32 0 005.806 1.171 5.326 5.326 0 003.294-4.921 5.322 5.322 0 00-5.283-5.323zm-6.488-24.166a5.283 5.283 0 00-5.183 6.315 5.286 5.286 0 007.205 3.851 5.288 5.288 0 003.262-4.882 5.284 5.284 0 00-5.284-5.284zm-4.663-24.63a5.28 5.28 0 00-4.882 3.26 5.29 5.29 0 001.146 5.76 5.283 5.283 0 107.472-7.473 5.284 5.284 0 00-3.736-1.548zm-2.796-24.905a5.323 5.323 0 105.283 5.284 5.283 5.283 0 00-5.283-5.284zM196.006 30.46a4.78 4.78 0 100 9.56 4.78 4.78 0 000-9.56zm.855-25.06a4.817 4.817 0 104.778 4.78 4.779 4.779 0 00-4.778-4.78zm716.154 9.519a4.74 4.74 0 100-9.48 4.74 4.74 0 000 9.48zm.892 25.06a4.74 4.74 0 100-9.48 4.74 4.74 0 000 9.48zM913.015 65a4.74 4.74 0 100-9.48 4.74 4.74 0 000 9.48zm-2.605 24.942a4.74 4.74 0 100-9.48 4.74 4.74 0 000 9.48zm-4.349 24.671a4.74 4.74 0 100-9.48 4.74 4.74 0 000 9.48zm-6.063 24.321a4.74 4.74 0 100-9.48 4.74 4.74 0 000 9.48zm-7.731 14.336a4.738 4.738 0 00-4.379 2.926 4.744 4.744 0 001.028 5.165 4.74 4.74 0 103.351-8.091zm-9.402 23.233a4.74 4.74 0 10.001 9.48 4.74 4.74 0 00-.001-9.48zm-10.995 31.975a4.74 4.74 0 100-9.48 4.74 4.74 0 000 9.48zm-12.511 21.718a4.74 4.74 0 100-9.48 4.74 4.74 0 000 9.48zm-14.024 20.786a4.741 4.741 0 10-.002-9.482 4.741 4.741 0 00.002 9.482zm-15.424 19.736a4.74 4.74 0 100-9.48 4.74 4.74 0 000 9.48zm-16.745 18.611a4.74 4.74 0 100-9.48 4.74 4.74 0 000 9.48zm-18.028 17.405a4.74 4.74 0 100-9.48 4.74 4.74 0 000 9.48zm-19.193 16.124a4.74 4.74 0 100-9.48 4.74 4.74 0 000 9.48zm-20.279 14.724a4.74 4.74 0 100-9.48 4.74 4.74 0 000 9.48zm-21.368 3.768a4.739 4.739 0 00-3.352 8.092 4.739 4.739 0 008.091-3.352 4.74 4.74 0 00-4.739-4.74zm-21.991 21.253a4.74 4.74 0 100-9.48 4.74 4.74 0 000 9.48zm-22.884 10.179a4.74 4.74 0 10-.001-9.48 4.74 4.74 0 00.001 9.48zm-23.544 8.586a4.74 4.74 0 10-.001-9.48 4.74 4.74 0 00.001 9.48zm-24.089 6.916a4.741 4.741 0 10-.002-9.482 4.741 4.741 0 00.002 9.482zm-24.514 5.205a4.74 4.74 0 100-9.48 4.74 4.74 0 000 9.48zm-24.787 3.458a4.74 4.74 0 100-9.48 4.74 4.74 0 000 9.48zm-25.022-7.692a4.744 4.744 0 00-4.646 5.679 4.737 4.737 0 006.487 3.428 4.738 4.738 0 00-1.841-9.107zm-25.058 0a4.744 4.744 0 00-4.646 5.679 4.737 4.737 0 006.487 3.428 4.738 4.738 0 00-1.841-9.107zm-24.983 7.692a4.74 4.74 0 100-9.48 4.74 4.74 0 000 9.48zm-24.825-3.458a4.74 4.74 0 100-9.48 4.74 4.74 0 000 9.48zm-24.477-5.205a4.741 4.741 0 10-.002-9.482 4.741 4.741 0 00.002 9.482zm-24.089-6.916a4.74 4.74 0 100-9.48 4.74 4.74 0 000 9.48zm-23.544-8.586a4.74 4.74 0 100-9.48 4.74 4.74 0 000 9.48zm-22.882-10.179a4.74 4.74 0 10-.001-9.48 4.74 4.74 0 00.001 9.48zm-22.147-21.253a4.74 4.74 0 100 9.48 4.74 4.74 0 000-9.48zm-21.251-3.768a4.74 4.74 0 100-9.48 4.74 4.74 0 000 9.48zm-20.241-14.724a4.74 4.74 0 100-9.48 4.74 4.74 0 000 9.48zm-19.271-25.643a4.781 4.781 0 00-4.687 5.711 4.775 4.775 0 006.515 3.483 4.776 4.776 0 002.95-4.415 4.817 4.817 0 00-4.778-4.779zm-17.951-17.483a4.774 4.774 0 00-4.415 2.95 4.779 4.779 0 104.415-2.95zM279.966 261.2a4.78 4.78 0 00-3.379 8.158 4.773 4.773 0 005.208 1.035 4.776 4.776 0 00-1.829-9.193zm-15.425-19.776a4.826 4.826 0 00-4.479 2.947 4.812 4.812 0 001.019 5.263 4.82 4.82 0 005.255 1.062 4.814 4.814 0 002.983-4.454 4.817 4.817 0 00-4.778-4.818zm-13.987-20.746a4.773 4.773 0 00-4.676 5.754 4.773 4.773 0 003.817 3.725 4.776 4.776 0 005.638-4.817 4.816 4.816 0 00-4.779-4.662zm-12.55-21.719a4.819 4.819 0 104.779 4.779 4.778 4.778 0 00-4.779-4.779zm-10.994-22.495a4.783 4.783 0 00-4.387 2.977 4.775 4.775 0 001.06 5.195 4.777 4.777 0 007.342-.742 4.775 4.775 0 00-2.174-7.077 4.782 4.782 0 00-1.841-.353zm-9.44-23.233a4.78 4.78 0 00-3.379 8.158 4.786 4.786 0 002.446 1.308 4.779 4.779 0 10.933-9.466zm-7.77-23.855a4.814 4.814 0 00-5.25 4.798 4.814 4.814 0 005.25 4.798 4.814 4.814 0 004.385-4.798 4.815 4.815 0 00-4.385-4.798zm-5.944-24.282a4.78 4.78 0 00-3.379 8.158 4.785 4.785 0 005.208 1.036 4.779 4.779 0 002.95-4.415 4.816 4.816 0 00-4.779-4.779zm-4.352-24.671a4.78 4.78 0 104.779 4.779 4.821 4.821 0 00-4.779-4.78zm-2.643-24.943a4.817 4.817 0 104.778 4.78 4.779 4.779 0 00-4.778-4.78zm-24.787-24.399a4.271 4.271 0 00-3.948 2.639 4.277 4.277 0 00.926 4.657 4.274 4.274 0 103.022-7.296zm.815-25.175a4.274 4.274 0 100 8.547 4.274 4.274 0 000-8.547zm764.135.078a4.238 4.238 0 00-3.916 2.623 4.234 4.234 0 108.151 1.573 4.202 4.202 0 00-1.243-2.981 4.192 4.192 0 00-2.992-1.215zm.815 33.489a4.235 4.235 0 100-8.47 4.235 4.235 0 000 8.47zm-.815 25.059a4.235 4.235 0 100-8.47 4.235 4.235 0 000 8.47zm-2.447 24.905a4.235 4.235 0 100-8.47 4.235 4.235 0 000 8.47zm-4.08 16.278a4.236 4.236 0 00-.88 8.385 4.229 4.229 0 005.076-4.15 4.236 4.236 0 00-4.196-4.235zm-5.711 32.869a4.235 4.235 0 100-8.47 4.235 4.235 0 000 8.47zm-7.266 15.501a4.236 4.236 0 10.003 8.471 4.236 4.236 0 00-.003-8.471zm-8.818 31.898a4.235 4.235 0 10-.001-8.47 4.235 4.235 0 00.001 8.47zm-10.336 14.374a4.238 4.238 0 00-3.94 2.587 4.24 4.24 0 00.893 4.629 4.234 4.234 0 007.243-2.981 4.235 4.235 0 00-4.196-4.235zm-11.809 30.578a4.235 4.235 0 10-.001-8.47 4.235 4.235 0 00.001 8.47zm-13.249 21.251a4.235 4.235 0 10-.001-8.47 4.235 4.235 0 00.001 8.47zm-14.686 12.006a4.233 4.233 0 00-2.73 7.063 4.238 4.238 0 005.982.287 4.235 4.235 0 00-3.252-7.35zm-15.812 19.425a4.231 4.231 0 00-4.226 5.071 4.232 4.232 0 005.861 3.037 4.231 4.231 0 002.522-4.029 4.237 4.237 0 00-4.157-4.079zm-17.135 26.613a4.235 4.235 0 100-8.47 4.235 4.235 0 000 8.47zm-18.259 17.095a4.234 4.234 0 10-.001-8.469 4.234 4.234 0 00.001 8.469zm-19.386 15.929a4.235 4.235 0 100-8.47 4.235 4.235 0 000 8.47zm-20.36 6.1a4.238 4.238 0 00-3.916 2.623 4.234 4.234 0 103.916-2.623zm-21.291 13.249a4.236 4.236 0 104.235 4.235 4.199 4.199 0 00-4.235-4.235zm-22.068 20.281a4.235 4.235 0 100-8.47 4.235 4.235 0 000 8.47zm-22.844 1.748c-.837 0-1.656.248-2.352.714a4.226 4.226 0 00-1.801 4.347 4.234 4.234 0 104.153-5.061zm-23.429 17.405a4.235 4.235 0 100-8.47 4.235 4.235 0 000 8.47zm-24.009 7.265a4.235 4.235 0 100-8.47 4.235 4.235 0 000 8.47zm-24.4 5.712a4.235 4.235 0 100-8.47 4.235 4.235 0 000 8.47zm-24.709 4.079a4.235 4.235 0 100-8.47 4.235 4.235 0 000 8.47zm-24.942-6.023a4.239 4.239 0 00-3.912 2.614 4.23 4.23 0 003.086 5.775 4.244 4.244 0 002.447-.241 4.242 4.242 0 002.614-3.913 4.206 4.206 0 00-1.229-3.006 4.198 4.198 0 00-3.006-1.229zm-25.021.817a4.231 4.231 0 00-3.912 2.614 4.227 4.227 0 00.918 4.615 4.227 4.227 0 004.615.918 4.234 4.234 0 00-1.621-8.147zm-25.06-.816a4.239 4.239 0 00-3.913 2.615 4.24 4.24 0 00.918 4.615 4.244 4.244 0 004.616.918 4.242 4.242 0 002.614-3.913 4.23 4.23 0 00-1.241-2.994 4.23 4.23 0 00-2.994-1.241zm-24.942 6.022a4.235 4.235 0 10-.001-8.47 4.235 4.235 0 00.001 8.47zm-24.709-12.549a4.237 4.237 0 00-.827 8.389 4.243 4.243 0 004.348-1.801 4.236 4.236 0 00-3.521-6.588zm-24.398-5.711a4.236 4.236 0 10-.002 8.471 4.236 4.236 0 00.002-8.471zm-23.973 1.204a4.235 4.235 0 100-8.47 4.235 4.235 0 000 8.47zm-23.465-8.819a4.235 4.235 0 10-.001-8.47 4.235 4.235 0 00.001 8.47zm-22.807-10.334a4.235 4.235 0 100-8.47 4.235 4.235 0 000 8.47zm-22.107-20.281a4.23 4.23 0 00-4.154 5.061 4.241 4.241 0 003.327 3.327 4.236 4.236 0 004.739-5.774 4.248 4.248 0 00-2.292-2.292 4.248 4.248 0 00-1.62-.322zm-21.251-13.287a4.278 4.278 0 00-3.948 2.638 4.276 4.276 0 003.115 5.827 4.276 4.276 0 004.387-1.817 4.278 4.278 0 00-.532-5.396 4.27 4.27 0 00-3.022-1.252zm-20.398-6.062a4.235 4.235 0 100-8.47 4.235 4.235 0 000 8.47zm-19.349-24.437a4.278 4.278 0 00-3.948 2.638 4.282 4.282 0 00.926 4.658 4.282 4.282 0 004.658.926 4.278 4.278 0 002.638-3.948 4.27 4.27 0 00-1.252-3.022 4.27 4.27 0 00-3.022-1.252zm-18.299-17.094a4.276 4.276 0 00-4.192 5.107 4.276 4.276 0 003.358 3.358 4.275 4.275 0 005.108-4.191 4.274 4.274 0 00-4.274-4.274zm-17.132-18.106a4.278 4.278 0 00-3.948 2.638 4.271 4.271 0 00.926 4.658 4.272 4.272 0 004.658.926 4.271 4.271 0 001.386-6.97 4.27 4.27 0 00-3.022-1.252zm-15.892-19.426a4.278 4.278 0 00-4.274 4.274 4.274 4.274 0 104.274-4.274zm-14.569-20.514a4.272 4.272 0 00-4.192 5.108 4.273 4.273 0 104.192-5.108zm-13.247-21.251a4.271 4.271 0 00-4.192 5.107 4.27 4.27 0 003.358 3.358 4.276 4.276 0 004.387-1.817 4.271 4.271 0 00-.531-5.396 4.274 4.274 0 00-3.022-1.252zm-11.811-22.107a4.272 4.272 0 00-4.192 5.108 4.273 4.273 0 104.192-5.108zm-10.335-22.845a4.278 4.278 0 00-3.948 2.638 4.271 4.271 0 00.926 4.658 4.28 4.28 0 004.658.926 4.271 4.271 0 001.386-6.97 4.27 4.27 0 00-3.022-1.252zm-8.82-23.428a4.274 4.274 0 00-.834 8.466c.829.165 1.688.08 2.469-.244a4.269 4.269 0 001.387-6.97 4.278 4.278 0 00-3.022-1.252zm-7.266-23.971a4.274 4.274 0 100 8.547 4.274 4.274 0 000-8.547zm-5.71-24.399a4.271 4.271 0 00-3.948 2.638 4.271 4.271 0 00.926 4.658 4.273 4.273 0 103.022-7.296zm-4.078-24.748a4.275 4.275 0 100 8.55 4.275 4.275 0 000-8.55zm-2.45-24.904a4.274 4.274 0 100 8.547 4.274 4.274 0 000-8.547zM148.142 31.51a3.884 3.884 0 10-.39 7.759 3.884 3.884 0 00.39-7.76zm.776-25.061a3.885 3.885 0 100 7.77 3.885 3.885 0 000-7.77zm812.079.039a3.886 3.886 0 100 7.771 3.886 3.886 0 000-7.771zm.776 25.022a3.884 3.884 0 10-.39 7.759 3.884 3.884 0 00.39-7.76zm-.776 25.058a3.886 3.886 0 100 7.772 3.886 3.886 0 000-7.772zm-2.332 25.02a3.888 3.888 0 00-3.589 2.399 3.885 3.885 0 103.589-2.399zm-3.807 24.75a3.656 3.656 0 00-3.374 2.254 3.655 3.655 0 002.662 4.98c.708.14 1.442.068 2.11-.208a3.656 3.656 0 001.184-5.957 3.648 3.648 0 00-2.582-1.069zm-5.361 24.475c-.723 0-1.429.214-2.029.616a3.646 3.646 0 00-.554 5.619 3.646 3.646 0 005.619-.554 3.652 3.652 0 00-3.036-5.681zm-6.877 24.049a3.885 3.885 0 100 7.77 3.885 3.885 0 000-7.77zm-8.315 31.004a3.652 3.652 0 100-7.304 3.652 3.652 0 000 7.304zm-9.636 15.735a3.694 3.694 0 00-3.414 2.288 3.69 3.69 0 006.502 3.425c.4-.612.61-1.329.603-2.061a3.646 3.646 0 00-1.084-2.596 3.654 3.654 0 00-2.607-1.056zm-11.305 22.378a3.885 3.885 0 100 7.77 3.885 3.885 0 000-7.77zm-12.549 21.758a3.69 3.69 0 10.756 7.342 3.69 3.69 0 00-.756-7.342zm-13.832 28.206a3.652 3.652 0 100-7.304 3.652 3.652 0 000 7.304zm-15.074 20.009a3.652 3.652 0 100-7.304 3.652 3.652 0 000 7.304zm-16.317 18.998a3.653 3.653 0 100-7.306 3.653 3.653 0 000 7.306zm-17.444 17.989a3.652 3.652 0 100-7.304 3.652 3.652 0 000 7.304zm-18.378 9.558a3.687 3.687 0 00-3.388 2.237 3.694 3.694 0 00.717 3.996 3.686 3.686 0 005.647-.353 3.694 3.694 0 00-.295-4.732 3.695 3.695 0 00-2.681-1.148zm-19.658 15.734a3.65 3.65 0 10-.002 7.302 3.65 3.65 0 00.002-7.302zm-20.437 14.453a3.686 3.686 0 00-3.414 2.21 3.69 3.69 0 107.066 1.675 3.658 3.658 0 00-.983-2.735 3.663 3.663 0 00-2.669-1.15zm-21.329 20.514a3.652 3.652 0 100-7.304 3.652 3.652 0 000 7.304zm-22.069 4.507a3.883 3.883 0 00-2.747 6.632 3.888 3.888 0 005.978-.589 3.883 3.883 0 00-.484-4.905 3.881 3.881 0 00-2.747-1.138zm-22.767 10.49a3.686 3.686 0 00-3.387 2.237 3.686 3.686 0 00.717 3.996 3.687 3.687 0 005.647-.353 3.692 3.692 0 00-2.977-5.88zm-23.348 9.013a3.885 3.885 0 100 7.77 3.885 3.885 0 000-7.77zm-23.896 14.957a3.652 3.652 0 100-7.304 3.652 3.652 0 000 7.304zm-24.282-1.203a3.692 3.692 0 00-3.751 5.171 3.696 3.696 0 003.751 2.172 3.693 3.693 0 002.362-6.145 3.687 3.687 0 00-2.362-1.198zm-24.632 4.545a3.884 3.884 0 10.001 7.769 3.884 3.884 0 00-.001-7.769zm-24.864 10.452a3.652 3.652 0 100-7.304 3.652 3.652 0 000 7.304zm-25.02 1.631a3.73 3.73 0 100-7.46 3.73 3.73 0 000 7.46zm-25.06 0a3.73 3.73 0 10-.002-7.46 3.73 3.73 0 00.002 7.46zm-24.982-1.554a3.73 3.73 0 10-.002-7.46 3.73 3.73 0 00.002 7.46zm-24.865-10.53a3.89 3.89 0 00-3.725 2.259 3.888 3.888 0 002.698 5.417 3.892 3.892 0 004.047-1.613 3.886 3.886 0 00-3.02-6.063zm-24.63-4.584a3.897 3.897 0 00-3.457.582 3.884 3.884 0 00-1.163 4.881 3.884 3.884 0 007.352-1.753 3.884 3.884 0 00-2.732-3.71zm-24.323-6.099a3.885 3.885 0 102.306 7.42 3.885 3.885 0 00-2.306-7.42zm-24.011-7.615a3.884 3.884 0 10-2.305 7.418 3.884 3.884 0 002.305-7.418zm-23.31-9.052a3.882 3.882 0 00-3.589 2.398 3.886 3.886 0 103.589-2.398zm-22.689-10.452a3.885 3.885 0 102.304 7.42 3.885 3.885 0 00-2.304-7.42zm-22.068-11.888a3.885 3.885 0 10.002 7.769 3.885 3.885 0 00-.002-7.769zm-21.291-13.171a3.883 3.883 0 00-2.747 6.632 3.888 3.888 0 005.978-.589 3.891 3.891 0 00-.484-4.906 3.884 3.884 0 00-2.747-1.137zm-20.435-14.492a3.884 3.884 0 10.001 7.769 3.884 3.884 0 00-.001-7.769zm-19.543-15.696a3.884 3.884 0 10.001 7.769 3.884 3.884 0 00-.001-7.769zm-18.493-9.441a3.73 3.73 0 10.002-7.458 3.73 3.73 0 00-.002 7.458zm-17.445-25.408a3.885 3.885 0 100 7.77 3.885 3.885 0 000-7.77zm-16.318-19.038a3.885 3.885 0 100 7.77 3.885 3.885 0 000-7.77zm-15.113-20.009a3.883 3.883 0 00-2.747 6.632 3.891 3.891 0 004.234.842 3.885 3.885 0 00-1.487-7.474zm-13.832-20.863a3.885 3.885 0 102.306 7.42 3.885 3.885 0 00-2.306-7.42zm-12.509-21.718a3.883 3.883 0 00-4.62 1.958 3.877 3.877 0 000 3.505 3.89 3.89 0 002.822 2.078 3.883 3.883 0 003.774-1.527 3.889 3.889 0 000-4.608 3.883 3.883 0 00-1.976-1.406zm-11.188-22.418a3.885 3.885 0 102.306 7.42 3.885 3.885 0 00-2.306-7.42zm-9.753-23.078a3.884 3.884 0 10.001 7.769 3.884 3.884 0 00-.001-7.769zm-8.315-23.62a3.88 3.88 0 00-3.725 2.258 3.889 3.889 0 002.698 5.417 3.892 3.892 0 004.047-1.613 3.886 3.886 0 00-3.02-6.062zm-6.876-16.669a3.73 3.73 0 100-7.458 3.73 3.73 0 000 7.458zm-5.361-31.935a3.882 3.882 0 00-3.589 2.398 3.886 3.886 0 103.589-2.398zm-3.848-24.672a3.885 3.885 0 100 7.77 3.885 3.885 0 000-7.77zm-2.292-25.02a3.885 3.885 0 100 7.77 3.885 3.885 0 000-7.77zm-24.593-24.554a3.225 3.225 0 100 6.45 3.225 3.225 0 000-6.45zm.623-25.021a3.227 3.227 0 00-3.203 3.844 3.22 3.22 0 002.545 2.545 3.227 3.227 0 003.317-1.397 3.225 3.225 0 00-2.659-4.992zm860.02 6.333a3.147 3.147 0 100-6.294 3.147 3.147 0 000 6.294zm.737 25.059a3.147 3.147 0 100-6.294 3.147 3.147 0 000 6.294zm-.737 25.06a3.147 3.147 0 100-6.294 3.147 3.147 0 000 6.294zm-2.176 24.942a3.146 3.146 0 000-6.294 3.146 3.146 0 100 6.294zm-3.652 24.788a3.147 3.147 0 100-6.294 3.147 3.147 0 000 6.294zm-5.051 24.555a3.147 3.147 0 100-6.294 3.147 3.147 0 000 6.294zm-6.487 24.204a3.147 3.147 0 100-6.294 3.147 3.147 0 000 6.294zm-7.888 23.776a3.146 3.146 0 10.001-6.293 3.146 3.146 0 00-.001 6.293zm-9.246 23.273a3.147 3.147 0 100-6.294 3.147 3.147 0 000 6.294zm-10.607 22.728a3.146 3.146 0 10.001-6.293 3.146 3.146 0 00-.001 6.293zm-11.889 22.029a3.147 3.147 0 100-6.294 3.147 3.147 0 000 6.294zm-13.131 21.329a3.147 3.147 0 100-6.294 3.147 3.147 0 000 6.294zm-14.376 20.553a3.147 3.147 0 100-6.294 3.147 3.147 0 000 6.294zm-15.541 19.659a3.147 3.147 0 100-6.294 3.147 3.147 0 000 6.294zm-16.667 12.393a3.148 3.148 0 10.002 6.296 3.148 3.148 0 00-.002-6.296zm-17.717 24.011a3.147 3.147 0 100-6.294 3.147 3.147 0 000 6.294zm-18.725 16.667a3.146 3.146 0 000-6.294 3.147 3.147 0 100 6.294zm-19.66 15.541a3.147 3.147 0 100-6.294 3.147 3.147 0 000 6.294zm-20.513 14.376a3.147 3.147 0 100-6.294 3.147 3.147 0 000 6.294zm-21.33 13.17a3.147 3.147 0 100-6.294 3.147 3.147 0 000 6.294zm-22.028 11.888a3.147 3.147 0 100-6.294 3.147 3.147 0 000 6.294zm-22.729 10.569a3.147 3.147 0 100-6.294 3.147 3.147 0 000 6.294zm-23.272 9.246a3.147 3.147 0 100-6.294 3.147 3.147 0 000 6.294zm-23.777 7.887a3.147 3.147 0 100-6.294 3.147 3.147 0 000 6.294zm-24.205 6.489a3.147 3.147 0 100-6.294 3.147 3.147 0 000 6.294zm-24.553 5.05a3.147 3.147 0 100-6.294 3.147 3.147 0 000 6.294zm-24.789 3.652a3.147 3.147 0 100-6.294 3.147 3.147 0 000 6.294zm-24.982 2.176a3.147 3.147 0 100-6.294 3.147 3.147 0 000 6.294zm-25.019.738a3.147 3.147 0 100-6.294 3.147 3.147 0 000 6.294zm-25.06-.738a3.147 3.147 0 100-6.294 3.147 3.147 0 000 6.294zm-24.942-2.176a3.147 3.147 0 100-6.294 3.147 3.147 0 000 6.294zm-24.788-3.652a3.147 3.147 0 100-6.294 3.147 3.147 0 000 6.294zm-24.554-11.384a3.225 3.225 0 103.186 3.186 3.19 3.19 0 00-3.186-3.186zm-24.205-.155a3.147 3.147 0 100-6.294 3.147 3.147 0 000 6.294zm-23.778-7.887a3.147 3.147 0 100-6.294 3.147 3.147 0 000 6.294zm-23.311-15.58a3.229 3.229 0 00-2.983 2 3.228 3.228 0 002.378 4.392 3.224 3.224 0 003.83-3.206 3.193 3.193 0 00-.947-2.267 3.184 3.184 0 00-2.278-.919zm-22.688-10.606a3.208 3.208 0 00-1.338.135 3.216 3.216 0 00-1.96 1.755 3.222 3.222 0 00.793 3.717 3.218 3.218 0 002.505.803 3.226 3.226 0 002.048-5.356 3.222 3.222 0 00-2.048-1.054zm-22.069-11.888a3.224 3.224 0 100 6.448 3.224 3.224 0 000-6.448zm-21.329-13.171a3.225 3.225 0 00-3.186 3.225 3.225 3.225 0 006.41 0 3.224 3.224 0 00-3.224-3.225zm-20.514-14.336a3.225 3.225 0 103.224 3.185 3.179 3.179 0 00-.947-2.266 3.176 3.176 0 00-2.277-.919zm-19.658-15.541a3.225 3.225 0 103.225 3.186 3.18 3.18 0 00-.947-2.267 3.196 3.196 0 00-2.278-.919zm-18.728-16.668a3.22 3.22 0 00-3.159 3.868 3.217 3.217 0 002.554 2.524 3.228 3.228 0 003.306-1.404 3.224 3.224 0 00.524-1.802 3.193 3.193 0 00-.947-2.266 3.184 3.184 0 00-2.278-.92zm-17.714-17.715a3.23 3.23 0 00-2.983 2 3.227 3.227 0 002.378 4.392 3.224 3.224 0 003.83-3.206 3.18 3.18 0 00-.947-2.267 3.196 3.196 0 00-2.278-.919zm-16.63-18.727a3.224 3.224 0 10-.08 6.448 3.224 3.224 0 00.08-6.448zm-15.541-19.659a3.224 3.224 0 10-.08 6.448 3.224 3.224 0 00.08-6.448zm-14.376-20.515a3.223 3.223 0 00-3.087 1.88 3.224 3.224 0 103.087-1.88zm-13.169-21.329a3.224 3.224 0 103.225 3.186 3.193 3.193 0 00-.947-2.267 3.196 3.196 0 00-2.278-.919zm-11.889-22.067a3.224 3.224 0 100 6.448 3.224 3.224 0 000-6.448zm-10.723-22.69a3.224 3.224 0 10-.078 6.448 3.224 3.224 0 00.078-6.448zm-9.13-23.311a3.223 3.223 0 00-3.186 3.225 3.222 3.222 0 003.205 2.871 3.224 3.224 0 003.206-2.871 3.225 3.225 0 00-3.225-3.225zm-7.849-23.932a3.23 3.23 0 00-1.802.524 3.23 3.23 0 00-1.404 3.306 3.221 3.221 0 002.524 2.554 3.218 3.218 0 001.868-.177 3.217 3.217 0 002-2.982 3.223 3.223 0 00-3.186-3.225zm-6.332-24.049a3.23 3.23 0 00-1.802.524 3.23 3.23 0 00-1.404 3.306 3.227 3.227 0 002.524 2.554 3.22 3.22 0 003.322-1.364 3.224 3.224 0 00-2.64-5.02zm-5.244-24.516a3.226 3.226 0 00-2.266 5.519 3.223 3.223 0 005.49-2.333 3.175 3.175 0 00-.946-2.266 3.187 3.187 0 00-2.278-.92zm-3.615-24.787a3.224 3.224 0 10-.077 6.448 3.224 3.224 0 00.077-6.448zm-2.176-24.982a3.227 3.227 0 00-3.206 3.83 3.227 3.227 0 004.392 2.378 3.223 3.223 0 001.069-5.25 3.223 3.223 0 00-2.255-.958zm-24.669-24.516a2.68 2.68 0 100 5.361 2.68 2.68 0 000-5.36zm.737-25.059a2.72 2.72 0 102.681 2.681 2.684 2.684 0 00-2.681-2.68zm891.451 148.803a2.68 2.68 0 00-1.934 4.576 2.685 2.685 0 002.94.573 2.678 2.678 0 001.636-2.508 2.643 2.643 0 00-2.642-2.641zm-7.458 29.216a2.642 2.642 0 100-5.284 2.642 2.642 0 000 5.284zm-8.82 18.182a2.643 2.643 0 10.078 5.284 2.643 2.643 0 00-.078-5.284zm-10.062 28.246a2.642 2.642 0 100-5.284 2.642 2.642 0 000 5.284zm-11.306 22.339a2.642 2.642 0 100-5.284 2.642 2.642 0 000 5.284zm-12.512 16.395a2.68 2.68 0 000 5.323 2.685 2.685 0 001.684-.883 2.685 2.685 0 000-3.557 2.685 2.685 0 00-1.684-.883zm-13.713 26.264a2.641 2.641 0 10.001-5.283 2.641 2.641 0 00-.001 5.283zm-14.842 20.203a2.642 2.642 0 100-5.283 2.642 2.642 0 000 5.283zm-15.928 14.065a2.643 2.643 0 102.641 2.642 2.59 2.59 0 00-.762-1.88 2.588 2.588 0 00-1.879-.762zm-16.979 23.699a2.642 2.642 0 100-5.284 2.642 2.642 0 000 5.284zm-17.949 12.2a2.645 2.645 0 00-2.441 1.631 2.64 2.64 0 00.573 2.879 2.644 2.644 0 004.065-.401c.29-.434.445-.945.445-1.467a2.609 2.609 0 00-1.625-2.452 2.588 2.588 0 00-1.017-.19zm-18.882 16.434a2.678 2.678 0 00-2.505 1.628 2.68 2.68 0 003.482 3.533 2.676 2.676 0 001.664-2.48 2.677 2.677 0 00-2.641-2.681zm-19.777 20.708a2.642 2.642 0 100-5.284 2.642 2.642 0 000 5.284zm-20.591 14.258a2.642 2.642 0 100-5.284 2.642 2.642 0 000 5.284zm-21.368 13.132a2.642 2.642 0 100-5.284 2.642 2.642 0 000 5.284zm-22.029 11.928a2.642 2.642 0 100-5.284 2.642 2.642 0 000 5.284zm-22.65 5.4a2.643 2.643 0 100 5.285 2.643 2.643 0 000-5.285zm-23.234 14.725a2.642 2.642 0 100-5.284 2.642 2.642 0 000 5.284zm-23.7 8.12a2.642 2.642 0 100-5.284 2.642 2.642 0 000 5.284zm-24.086 1.553a2.642 2.642 0 10.001 5.285 2.642 2.642 0 00-.001-5.285zm-24.478 10.763a2.642 2.642 0 100-5.284 2.642 2.642 0 000 5.284zm-24.71 4.118a2.642 2.642 0 100-5.283 2.642 2.642 0 000 5.283zm-24.901 2.758a2.64 2.64 0 10-2.642-2.641 2.64 2.64 0 002.642 2.641zm-25.023 1.361a2.642 2.642 0 100-5.284 2.642 2.642 0 000 5.284zm-25.06 0a2.642 2.642 0 100-5.284 2.642 2.642 0 000 5.284zm-25.019-1.361a2.64 2.64 0 100-5.283 2.64 2.64 0 100 5.283zm-24.904-2.758a2.642 2.642 0 100-5.284 2.642 2.642 0 000 5.284zm-24.711-9.402a2.647 2.647 0 00-2.441 1.631 2.64 2.64 0 00.573 2.879 2.647 2.647 0 002.879.572 2.637 2.637 0 001.631-2.44 2.642 2.642 0 00-2.642-2.642zm-24.436-5.479a2.64 2.64 0 00-2.591 3.158 2.644 2.644 0 004.788.952c.29-.434.445-.945.445-1.468a2.606 2.606 0 00-.762-1.879 2.592 2.592 0 00-1.88-.763zm-24.129-1.553a2.642 2.642 0 100-5.284 2.642 2.642 0 000 5.284zm-23.697-8.12a2.641 2.641 0 100-5.283 2.641 2.641 0 000 5.283zm-23.196-14.725a2.643 2.643 0 100 5.285 2.643 2.643 0 000-5.285zm-22.651-5.4a2.642 2.642 0 100-5.284 2.642 2.642 0 000 5.284zm-22.067-11.928a2.642 2.642 0 100-5.283 2.642 2.642 0 000 5.283zm-21.329-13.132a2.642 2.642 0 100-5.284 2.642 2.642 0 000 5.284zm-20.592-19.62a2.715 2.715 0 00-2.54 1.652 2.721 2.721 0 001.956 3.732 2.728 2.728 0 001.577-.148 2.727 2.727 0 001.688-2.516 2.687 2.687 0 00-.772-1.921 2.67 2.67 0 00-1.909-.799zm-19.774-15.346a2.678 2.678 0 00-2.504 1.628 2.68 2.68 0 105.146 1.053 2.654 2.654 0 00-.76-1.894 2.647 2.647 0 00-1.882-.787zm-18.884-16.435a2.64 2.64 0 00-1.868 4.51 2.636 2.636 0 002.879.573 2.637 2.637 0 001.631-2.441 2.642 2.642 0 00-2.642-2.642zm-17.795-17.444a2.725 2.725 0 00-2.516 1.688 2.719 2.719 0 004.797 2.514c.294-.452.447-.982.439-1.521a2.687 2.687 0 00-1.682-2.488 2.672 2.672 0 00-1.038-.193zm-17.132-18.493a2.682 2.682 0 10-.001 5.364 2.682 2.682 0 00.001-5.364zm-15.929-19.348a2.68 2.68 0 100 5.36 2.68 2.68 0 000-5.36zm-14.841-20.203a2.718 2.718 0 00-2.708 3.241 2.721 2.721 0 003.728 1.984 2.726 2.726 0 001.66-2.544 2.68 2.68 0 00-2.68-2.681zm-13.714-20.98a2.72 2.72 0 102.681 2.68 2.68 2.68 0 00-2.681-2.68zm-12.55-21.679a2.678 2.678 0 00-2.449 1.681 2.678 2.678 0 003.522 3.472 2.678 2.678 0 001.439-3.507 2.685 2.685 0 00-1.474-1.453 2.676 2.676 0 00-1.038-.193zm-11.307-22.379a2.72 2.72 0 102.72 2.719 2.687 2.687 0 00-1.673-2.523 2.661 2.661 0 00-1.047-.196zm-10.063-22.923a2.677 2.677 0 00-2.477 1.655 2.684 2.684 0 001.954 3.655 2.676 2.676 0 002.752-1.14 2.677 2.677 0 00-.333-3.385 2.685 2.685 0 00-1.896-.785zm-8.779-23.466a2.677 2.677 0 00-2.476 1.655 2.684 2.684 0 00.581 2.921 2.683 2.683 0 002.921.581 2.676 2.676 0 001.655-2.476 2.68 2.68 0 00-2.681-2.681zm-7.498-23.932a2.715 2.715 0 00-2.516 1.688 2.72 2.72 0 105.235.993 2.678 2.678 0 00-2.719-2.681zm-6.138-24.166a2.68 2.68 0 10-.001 5.362 2.68 2.68 0 00.001-5.362zm-4.779-24.71a2.715 2.715 0 00-2.544 1.661 2.72 2.72 0 105.225 1.02 2.68 2.68 0 00-2.681-2.681zm-3.458-24.826a2.719 2.719 0 102.68 2.68 2.675 2.675 0 00-1.655-2.476 2.676 2.676 0 00-1.025-.204zm-2.021-24.982a2.72 2.72 0 10-.077 5.44 2.72 2.72 0 00.077-5.44zm-24.67-20.203a2.137 2.137 0 100-4.273 2.137 2.137 0 000 4.273zm.66-29.333a2.137 2.137 0 00-2.136 2.137 2.096 2.096 0 002.136 2.137 2.137 2.137 0 000-4.274zm915.189 223.981a2.098 2.098 0 100-4.196 2.098 2.098 0 000 4.196zm-10.8 18.415a2.1 2.1 0 00-2.057 2.507 2.099 2.099 0 102.057-2.507zm-11.966 22.028a2.093 2.093 0 00-1.942 1.305 2.094 2.094 0 00.473 2.291 2.1 2.1 0 003.567-1.537 2.099 2.099 0 00-2.098-2.059zm-13.094 21.331a2.137 2.137 0 00-2.098 2.098c0 .556.221 1.09.615 1.483a2.095 2.095 0 002.967 0 2.098 2.098 0 00-1.484-3.581zm-14.18 24.864a2.098 2.098 0 100-4.195 2.098 2.098 0 000 4.195zm-15.268 15.697a2.098 2.098 0 102.098 2.059 2.062 2.062 0 00-.617-1.47 2.065 2.065 0 00-1.481-.589zm-16.28 23.233a2.098 2.098 0 100-4.196 2.098 2.098 0 000 4.196zm-17.016 13.987a2.102 2.102 0 00-1.484.614 2.103 2.103 0 00-.614 1.484 2.091 2.091 0 001.21 2.194 2.096 2.096 0 002.878-1.308c.086-.287.109-.59.069-.886a2.098 2.098 0 00-2.059-2.098zm-18.378 17.25a2.1 2.1 0 00-2.057 2.507 2.091 2.091 0 001.648 1.648 2.095 2.095 0 002.507-2.057 2.1 2.1 0 00-2.098-2.098zm-19.074 20.474a2.098 2.098 0 100-4.196 2.098 2.098 0 000 4.196zm-19.854 11.035a2.095 2.095 0 00-2.101 2.482 2.103 2.103 0 001.639 1.67 2.095 2.095 0 002.165-.885 2.1 2.1 0 00-1.703-3.267zm-20.669 18.375a2.098 2.098 0 100-4.196 2.098 2.098 0 000 4.196zm-21.369 13.094a2.098 2.098 0 100-4.195 2.098 2.098 0 000 4.195zm-22.03 11.967a2.098 2.098 0 100-4.196 2.098 2.098 0 000 4.196zm-22.611 6.605a2.092 2.092 0 00-1.938 1.295 2.095 2.095 0 001.529 2.86 2.096 2.096 0 002.507-2.057 2.097 2.097 0 00-2.098-2.098zm-23.155 13.792a2.099 2.099 0 10-.002-4.198 2.099 2.099 0 00.002 4.198zm-23.584 4.157a2.092 2.092 0 00-1.966 1.267 2.096 2.096 0 002.721 2.772 2.1 2.1 0 001.304-1.941 2.098 2.098 0 00-2.059-2.098zm-24.049 11.306a2.099 2.099 0 10-.002-4.198 2.099 2.099 0 00.002 4.198zm-24.359 1.554a2.097 2.097 0 00-1.484 3.581 2.098 2.098 0 101.484-3.581zm-24.632 4.623a2.142 2.142 0 00-1.511.625 2.122 2.122 0 00-.463.694 2.134 2.134 0 001.974 2.954 2.136 2.136 0 100-4.273zm-24.866 7.499a2.098 2.098 0 100-4.196 2.098 2.098 0 000 4.196zm-24.941 2.02a2.137 2.137 0 100-4.275 2.137 2.137 0 000 4.275zm-25.06-3.613a2.078 2.078 0 00-.824.152 2.084 2.084 0 00-1.161 1.161 2.106 2.106 0 00-.152.823 2.125 2.125 0 00.626 1.511c.199.199.434.356.693.464a2.136 2.136 0 10.818-4.111zm-25.061-.661a2.14 2.14 0 00-1.974 1.319 2.14 2.14 0 00.463 2.329 2.142 2.142 0 002.329.463 2.138 2.138 0 00-.818-4.111zm-24.825-2.098a2.138 2.138 0 100 4.275 2.138 2.138 0 000-4.275zm-24.981-3.147a2.142 2.142 0 00-1.511.625 2.122 2.122 0 00-.463.694 2.123 2.123 0 00-.163.817 2.093 2.093 0 00.614 1.523 2.093 2.093 0 001.523.614c.28 0 .558-.055.818-.162a2.148 2.148 0 001.156-1.157 2.143 2.143 0 000-1.635 2.138 2.138 0 00-1.974-1.319zm-24.634-4.623a2.114 2.114 0 00-1.523.614 2.115 2.115 0 00-.614 1.523 2.136 2.136 0 102.137-2.137zm-24.203-5.789a2.136 2.136 0 100 4.272 2.136 2.136 0 000-4.272zm-24.206-7.111a2.14 2.14 0 00-1.974 1.319 2.14 2.14 0 00.463 2.329 2.135 2.135 0 003.288-.324 2.133 2.133 0 00-.266-2.698 2.136 2.136 0 00-1.511-.626zm-23.621-4.079a2.136 2.136 0 10.002-4.272 2.136 2.136 0 00-.002 4.272zm-23.155-13.869a2.136 2.136 0 102.137 2.137 2.093 2.093 0 00-.614-1.523c-.2-.2-.437-.357-.699-.462a2.078 2.078 0 00-.824-.152zm-22.613-6.527a2.137 2.137 0 100-4.275 2.137 2.137 0 000 4.275zm-22.028-16.241a2.136 2.136 0 100 4.274 2.114 2.114 0 001.523-.614 2.114 2.114 0 00.614-1.523 2.136 2.136 0 00-2.137-2.137zm-21.369-13.092a2.14 2.14 0 00-1.511.625 2.138 2.138 0 001.511 3.648 2.093 2.093 0 001.523-.614 2.093 2.093 0 00.614-1.523 2.138 2.138 0 00-2.137-2.136zm-20.631-14.182a2.138 2.138 0 000 4.274 2.134 2.134 0 002.137-2.137 2.136 2.136 0 00-2.137-2.137zm-19.892-10.956a2.136 2.136 0 10.002-4.272 2.136 2.136 0 00-.002 4.272zm-19.036-20.552a2.136 2.136 0 100 4.272 2.136 2.136 0 000-4.272zm-18.182-17.251a2.136 2.136 0 100 4.272 2.136 2.136 0 000-4.272zm-17.25-17.988a2.14 2.14 0 00-1.974 1.319 2.14 2.14 0 00.463 2.329 2.142 2.142 0 002.329.463 2.132 2.132 0 001.319-1.974 2.136 2.136 0 00-2.137-2.137zm-16.281-19.426a2.138 2.138 0 000 4.274 2.093 2.093 0 001.523-.614 2.096 2.096 0 00.614-1.523 2.136 2.136 0 00-2.137-2.137zm-15.229-19.697a2.078 2.078 0 00-.824.152 2.092 2.092 0 00-1.313 1.984 2.138 2.138 0 003.648 1.511 2.134 2.134 0 000-3.021 2.136 2.136 0 00-1.511-.626zm-14.22-20.67a2.134 2.134 0 00-2.137 2.137 2.136 2.136 0 002.137 2.137 2.11 2.11 0 001.985-1.313c.105-.262.157-.542.151-.824a2.14 2.14 0 00-2.136-2.137zm-13.092-21.368a2.138 2.138 0 000 4.273c.282.006.563-.046.824-.152.262-.105.5-.262.699-.462a2.088 2.088 0 00.614-1.522 2.134 2.134 0 00-2.137-2.137zm-11.928-21.99a2.096 2.096 0 00-2.137 2.137 2.136 2.136 0 102.137-2.137zm-10.801-18.338a2.137 2.137 0 100-4.275 2.137 2.137 0 000 4.275zm-9.594-27.429a2.134 2.134 0 00-2.137 2.137 2.136 2.136 0 104.273 0 2.095 2.095 0 00-2.136-2.137zM99.77 181.01a2.14 2.14 0 00-2.137 2.137 2.135 2.135 0 002.137 2.137 2.136 2.136 0 100-4.274zm-7.109-24.05a2.14 2.14 0 00-2.137 2.137 2.096 2.096 0 002.137 2.137 2.136 2.136 0 100-4.274zm-5.866-24.36a2.136 2.136 0 00-1.511 3.648c.4.401.944.626 1.51.626a2.095 2.095 0 001.986-1.313 2.1 2.1 0 00.151-.824 2.137 2.137 0 00-2.136-2.137zm-4.545-24.631a2.136 2.136 0 10-.001 4.271 2.136 2.136 0 000-4.271zm-3.303-24.827a2.136 2.136 0 102.137 2.137 2.097 2.097 0 00-2.137-2.136zm-1.943-24.864a2.096 2.096 0 00-2.136 2.137 2.137 2.137 0 102.136-2.137zM52.41 33.606a1.632 1.632 0 100 3.265 1.632 1.632 0 000-3.265zm.623-25.059a1.632 1.632 0 100 3.263 1.632 1.632 0 000-3.263zm930.729 290.338a1.593 1.593 0 100-3.185 1.593 1.593 0 000 3.185zm-13.597 21.02a1.593 1.593 0 100-3.187 1.593 1.593 0 000 3.187zm-14.608 20.358a1.593 1.593 0 100-3.185 1.593 1.593 0 000 3.185zm-15.658 19.581a1.593 1.593 0 100-3.187 1.593 1.593 0 000 3.187zm-16.55 18.805a1.593 1.593 0 100-3.185 1.593 1.593 0 000 3.185zm-17.521 17.949a1.593 1.593 0 100-3.187 1.593 1.593 0 000 3.187zm-18.339 17.018a1.593 1.593 0 100-3.187 1.593 1.593 0 000 3.187zm-19.231 16.123a1.593 1.593 0 100-3.187 1.593 1.593 0 000 3.187zm-19.972 15.112a1.593 1.593 0 100-3.185 1.593 1.593 0 000 3.185zm-20.668 14.143a1.593 1.593 0 100-3.185 1.593 1.593 0 000 3.185zm-21.407 13.054a1.593 1.593 0 100-3.187 1.593 1.593 0 000 3.187zm-21.991 11.966a1.593 1.593 0 100-3.185 1.593 1.593 0 000 3.185zm-22.572 10.879a1.593 1.593 0 10-.002-3.186 1.593 1.593 0 00.002 3.186zm-23.118 9.752a1.593 1.593 0 100-3.187 1.593 1.593 0 000 3.187zm-23.542 8.547a1.593 1.593 0 100-3.187 1.593 1.593 0 000 3.187zm-23.934 7.381a1.593 1.593 0 100-3.185 1.593 1.593 0 000 3.185zm-24.282 6.178a1.593 1.593 0 100-3.187 1.593 1.593 0 000 3.187zm-24.553 4.973a1.593 1.593 0 100-3.185 1.593 1.593 0 000 3.185zm-24.789 3.73a1.593 1.593 0 100-3.187 1.593 1.593 0 000 3.187zm-24.943-.661a1.594 1.594 0 101.593 1.593 1.54 1.54 0 00-.454-1.138 1.55 1.55 0 00-1.139-.455zm-25.02 4.429a1.593 1.593 0 100-3.185 1.593 1.593 0 000 3.185zm-25.058 0a1.593 1.593 0 100-3.185 1.593 1.593 0 000 3.185zm-25.023-4.429a1.594 1.594 0 101.593 1.593 1.54 1.54 0 00-.454-1.138 1.55 1.55 0 00-1.139-.455zm-24.942.661a1.593 1.593 0 100-3.187 1.593 1.593 0 000 3.187zm-24.749-3.73a1.593 1.593 0 100-3.185 1.593 1.593 0 000 3.185zm-24.553-4.973a1.593 1.593 0 100-3.187 1.593 1.593 0 000 3.187zm-24.282-6.178a1.593 1.593 0 10-.001-3.185 1.593 1.593 0 00.001 3.185zm-23.972-7.381a1.593 1.593 0 100-3.187 1.593 1.593 0 000 3.187zm-23.545-8.547a1.593 1.593 0 100-3.187 1.593 1.593 0 000 3.187zm-23.076-9.752a1.594 1.594 0 10-.002-3.188 1.594 1.594 0 00.002 3.188zm-22.574-10.879a1.593 1.593 0 100-3.185 1.593 1.593 0 000 3.185zm-22.029-11.966a1.593 1.593 0 100-3.187 1.593 1.593 0 000 3.187zm-21.368-13.054a1.593 1.593 0 100-3.185 1.593 1.593 0 000 3.185zm-20.708-14.143a1.593 1.593 0 100-3.185 1.593 1.593 0 000 3.185zm-19.969-15.112a1.593 1.593 0 100-3.187 1.593 1.593 0 000 3.187zm-19.194-16.123a1.593 1.593 0 100-3.187 1.593 1.593 0 000 3.187zm-18.377-17.018a1.593 1.593 0 100-3.185 1.593 1.593 0 000 3.185zm-17.56-21.175a1.63 1.63 0 00-1.154 2.786 1.637 1.637 0 001.779.354 1.636 1.636 0 001.007-1.508 1.632 1.632 0 00-1.632-1.632zm-16.512-18.803a1.629 1.629 0 00-1.6 1.95 1.632 1.632 0 101.6-1.95zm-15.619-16.357a1.593 1.593 0 100-3.187 1.593 1.593 0 000 3.187zm-14.491-23.544a1.638 1.638 0 00-1.538.99 1.631 1.631 0 103.131.603 1.592 1.592 0 00-1.593-1.593zm-13.716-21.057a1.63 1.63 0 100 3.263 1.632 1.632 0 100-3.263zm-12.549-21.719a1.633 1.633 0 00-1.153 2.786 1.632 1.632 0 101.153-2.786zm-11.421-22.3a1.626 1.626 0 00-1.508 1.007 1.636 1.636 0 00.354 1.778 1.634 1.634 0 001.778.354 1.636 1.636 0 001.007-1.508 1.631 1.631 0 00-1.631-1.631zm-10.296-22.845a1.634 1.634 0 00-1.6 1.95 1.635 1.635 0 001.282 1.282 1.627 1.627 0 001.675-.694 1.628 1.628 0 00-.203-2.06 1.632 1.632 0 00-1.154-.478zm-9.169-23.311a1.634 1.634 0 00-1.6 1.95 1.634 1.634 0 001.282 1.282 1.627 1.627 0 001.675-.694 1.628 1.628 0 00-.203-2.06 1.632 1.632 0 00-1.154-.478zm-7.965-23.739a1.634 1.634 0 00-1.601 1.95 1.631 1.631 0 101.6-1.95zm-6.799-24.127a1.635 1.635 0 00-1.507 1.008 1.63 1.63 0 00.353 1.778 1.634 1.634 0 001.779.354 1.638 1.638 0 001.007-1.508 1.63 1.63 0 00-1.632-1.632zm-5.595-24.438a1.634 1.634 0 00-1.6 1.95 1.63 1.63 0 002.957.589c.18-.269.275-.584.275-.907a1.595 1.595 0 00-1.632-1.632zm-4.351-24.67a1.634 1.634 0 00-1.6 1.95 1.635 1.635 0 001.282 1.282 1.627 1.627 0 001.675-.694 1.63 1.63 0 00.275-.906 1.593 1.593 0 00-1.632-1.632zm-3.108-24.865a1.632 1.632 0 100 3.264 1.632 1.632 0 000-3.264zm-1.864-24.982a1.632 1.632 0 100 3.264 1.632 1.632 0 000-3.264zM28.477 36.327a1.088 1.088 0 100-2.176 1.088 1.088 0 000 2.176zm.585-27.197a1.05 1.05 0 00-1.05 1.05 1.086 1.086 0 001.532 1.188 1.089 1.089 0 00.605-1.189 1.048 1.048 0 00-1.087-1.049zm954.741 330.473a1.008 1.008 0 00-1.01 1.01.96.96 0 00.284.727.962.962 0 00.726.283 1.006 1.006 0 001.01-1.01 1 1 0 00-.296-.714 1.016 1.016 0 00-.714-.296zm-15.036 20.047a1.045 1.045 0 00-.848 1.029 1.054 1.054 0 00.848 1.03 1.061 1.061 0 00.868-.22 1.05 1.05 0 00-.868-1.839zm-15.93 19.348a1.001 1.001 0 00-.739.282 1.003 1.003 0 00-.31.728 1.052 1.052 0 001.03.848 1.048 1.048 0 001.029-.848 1.003 1.003 0 00-.296-.714 1.005 1.005 0 00-.714-.296zm-16.861 18.533a1.006 1.006 0 00-1.01 1.01.976.976 0 00.283.726.976.976 0 00.727.284 1.006 1.006 0 001.01-1.01 1.006 1.006 0 00-1.01-1.01zm-17.716 17.715a1.015 1.015 0 00-1.011 1.01.977.977 0 00.618.945.957.957 0 00.393.065 1.013 1.013 0 001.01-1.01 1.01 1.01 0 00-1.01-1.01zm-18.533 16.862a1.018 1.018 0 00-.739.282 1.003 1.003 0 00-.31.728 1.052 1.052 0 001.03.848 1.048 1.048 0 001.029-.848 1.008 1.008 0 00-1.01-1.01zm-19.349 17.989a1.01 1.01 0 100-2.02 1.01 1.01 0 000 2.02zm-20.048 12.976a1.006 1.006 0 00-1.01 1.01 1.006 1.006 0 001.01 1.01 1.006 1.006 0 001.01-1.01 1.008 1.008 0 00-1.01-1.01zm-20.745 14.026a1.05 1.05 0 000 2.059 1.052 1.052 0 00.848-1.03 1.048 1.048 0 00-.848-1.029zm-21.408 13.054a1.052 1.052 0 00-.848 1.03 1.045 1.045 0 00.848 1.029 1.045 1.045 0 00.848-1.029 1.048 1.048 0 00-.848-1.03zm-21.989 12.005a1.05 1.05 0 00-.609 1.696c.155.188.37.316.609.363a1.052 1.052 0 00.848-1.03 1.05 1.05 0 00-.848-1.029zm-22.535 10.956a1.01 1.01 0 00-1.01 1.01.96.96 0 00.284.727.962.962 0 00.726.284 1.01 1.01 0 000-2.021zm-23.039 9.868a1.01 1.01 0 100 2.02.96.96 0 00.726-.283.976.976 0 00.284-.727 1.01 1.01 0 00-1.01-1.01zm-23.466 8.741a1.05 1.05 0 000 2.06 1.052 1.052 0 00.848-1.03 1.048 1.048 0 00-.848-1.03zm-23.932 7.616a1.05 1.05 0 100 2.099 1.05 1.05 0 000-2.099zm-24.167 6.488a1.046 1.046 0 00-.969.647 1.051 1.051 0 00.764 1.431 1.055 1.055 0 001.077-.446 1.046 1.046 0 00-.471-1.552 1.04 1.04 0 00-.401-.08zm-24.477 5.362a1.006 1.006 0 00-1.01 1.01 1.052 1.052 0 001.03.848 1.048 1.048 0 001.029-.848 1.019 1.019 0 00-.309-.728 1.012 1.012 0 00-.74-.282zm-24.709 4.118a1.048 1.048 0 00-.204 2.078 1.057 1.057 0 001.077-.447 1.048 1.048 0 00-.873-1.631zm-24.864 2.991a1.05 1.05 0 000 2.059 1.045 1.045 0 00.848-1.029 1.048 1.048 0 00-.848-1.03zm-24.982 1.787a1.052 1.052 0 00-1.068 1.244 1.045 1.045 0 00.835.835 1.051 1.051 0 001.244-1.069 1.05 1.05 0 00-1.011-1.01zm-25.059.583a1.041 1.041 0 00-.867.22 1.039 1.039 0 00-.383.81 1.05 1.05 0 001.859.667 1.048 1.048 0 00-.609-1.697zm-25.059-.583a1.047 1.047 0 00-1.069 1.244 1.046 1.046 0 00.835.835 1.042 1.042 0 001.083-.472c.113-.178.168-.386.161-.597a1.01 1.01 0 00-1.01-1.01zm-24.827-1.787a1.04 1.04 0 00-.597.161 1.042 1.042 0 00-.472 1.083 1.046 1.046 0 00.835.835 1.051 1.051 0 001.244-1.069 1.05 1.05 0 00-1.01-1.01zm-25.059-2.991a1.048 1.048 0 00-.204 2.078 1.057 1.057 0 001.077-.447 1.048 1.048 0 00-.873-1.631zm-24.709-4.118a1.01 1.01 0 00-1.011 1.01 1.052 1.052 0 001.03.848 1.048 1.048 0 001.03-.848 1.02 1.02 0 00-.31-.728 1.012 1.012 0 00-.739-.282zm-24.478-3.303a1.01 1.01 0 100-2.02 1.01 1.01 0 000 2.02zm-24.204-8.547a1.05 1.05 0 000 2.059 1.05 1.05 0 00.609-1.696 1.052 1.052 0 00-.609-.363zm-23.856-5.555a1.049 1.049 0 100-2.098 1.049 1.049 0 000 2.098zm-23.467-8.782a1.01 1.01 0 100-2.02 1.01 1.01 0 000 2.02zm-23.037-11.927a1.055 1.055 0 00-.767.293 1.053 1.053 0 00-.321.756 1.089 1.089 0 102.137 0 1.049 1.049 0 00-1.049-1.049zm-22.574-10.956a1.084 1.084 0 00-.633 1.761 1.083 1.083 0 001.108.361c.155-.04.3-.113.423-.216a1.077 1.077 0 00.395-.838 1.091 1.091 0 00-1.293-1.068zm-21.989-11.966a1.052 1.052 0 00-.848 1.03 1.044 1.044 0 00.848 1.029 1.041 1.041 0 00.868-.22 1.048 1.048 0 00-.41-1.826 1.041 1.041 0 00-.458-.013zm-21.369-10.956a1.049 1.049 0 100-2.098 1.049 1.049 0 000 2.098zm-20.746-16.164a1.046 1.046 0 00-1.005.639 1.05 1.05 0 00-.083.41 1.088 1.088 0 102.137 0 1.05 1.05 0 00-1.049-1.049zm-20.087-12.859a1.087 1.087 0 100-2.175 1.087 1.087 0 000 2.175zm-19.309-16.007a1.049 1.049 0 100-2.098 1.049 1.049 0 000 2.098zm-18.534-16.823a1.088 1.088 0 100-2.176 1.088 1.088 0 000 2.176zm-17.715-17.716a1.088 1.088 0 100-2.176 1.088 1.088 0 000 2.176zm-16.862-20.708a1.128 1.128 0 00-1.088 1.088 1.085 1.085 0 001.088 1.049 1.049 1.049 0 001.049-1.049 1.088 1.088 0 00-1.049-1.088zm-15.968-19.309a1.089 1.089 0 10.41 2.139 1.089 1.089 0 00-.41-2.139zm-14.996-20.048a1.092 1.092 0 00-1.088 1.049 1.129 1.129 0 001.088 1.088 1.085 1.085 0 001.049-1.088 1.05 1.05 0 00-1.049-1.049zm-14.065-20.746a1.045 1.045 0 00-.742.307 1.054 1.054 0 00-.307.742 1.087 1.087 0 001.049 1.088 1.128 1.128 0 001.087-1.088 1.085 1.085 0 00-1.087-1.049zm-13.015-19.27a1.089 1.089 0 10-.001-2.178 1.089 1.089 0 000 2.178zM86.99 275.42a1.047 1.047 0 00-1.05 1.049 1.087 1.087 0 102.137 0 1.052 1.052 0 00-.674-.981 1.042 1.042 0 00-.414-.068zm-10.92-20.397a1.088 1.088 0 100-2.176 1.088 1.088 0 000 2.176zm-9.867-23.04a1.088 1.088 0 100-2.176 1.088 1.088 0 000 2.176zm-8.781-25.642a1.087 1.087 0 00-1.049 1.087 1.086 1.086 0 001.762.634c.195-.161.327-.385.375-.634a1.088 1.088 0 00-1.088-1.087zm-7.614-23.738a1.086 1.086 0 00-1.292 1.069 1.088 1.088 0 101.292-1.069zm-6.489-22.184a1.05 1.05 0 100-2.098 1.05 1.05 0 000 2.098zm-5.322-26.614a1.086 1.086 0 00-1.293 1.069 1.088 1.088 0 101.293-1.069zm-4.158-24.71a1.091 1.091 0 00-.883 1.069 1.088 1.088 0 10.883-1.069zM30.848 84.23a1.049 1.049 0 00-1.049 1.05 1.09 1.09 0 001.907.897 1.088 1.088 0 00.23-.898 1.05 1.05 0 00-1.088-1.049zm-1.787-25.02a1.088 1.088 0 00-1.049 1.088 1.088 1.088 0 002.137 0 1.088 1.088 0 00-1.088-1.088zM4.546 34.733a.505.505 0 100 1.01.505.505 0 000-1.01zm.582-25.098a.583.583 0 00-.583.544.583.583 0 00.583.583.583.583 0 00.544-.583.544.544 0 00-.544-.544zm976.771 372.432a.504.504 0 100 1.008.504.504 0 000-1.008zm-16.242 19.115a.463.463 0 00-.329.137.463.463 0 00.151.76.453.453 0 00.357 0 .466.466 0 00.287-.431.506.506 0 00-.466-.466zm-17.092 18.416a.469.469 0 00-.33.136.469.469 0 000 .66.469.469 0 00.33.136.466.466 0 00.427-.466.415.415 0 00-.11-.328.433.433 0 00-.317-.138zm-17.95 17.445a.463.463 0 00-.467.427.47.47 0 00.467.466.466.466 0 00.466-.466.426.426 0 00-.466-.427zm-18.69 16.628a.51.51 0 00-.466.312.512.512 0 00-.029.292.501.501 0 00.397.396.504.504 0 00.456-.852.506.506 0 00-.358-.148zm-19.424 15.852a.47.47 0 00-.329.136.454.454 0 00-.101.152.453.453 0 000 .356.454.454 0 00.252.253.47.47 0 00.178.035.509.509 0 00.467-.466.47.47 0 00-.467-.466zm-20.165 15.889a.505.505 0 100-1.01.505.505 0 000 1.01zm-20.785 13.016a.463.463 0 00-.329.137.463.463 0 00-.137.329.502.502 0 00.466.467.465.465 0 100-.933zm-21.407 12.976a.502.502 0 00-.505.505.502.502 0 00.505.505.504.504 0 100-1.01zm-22.029 12.044a.505.505 0 00-.467.467.455.455 0 00.288.43.463.463 0 00.508-.101.463.463 0 000-.659.467.467 0 00-.329-.137zm-22.456 11.035a.469.469 0 00-.33.136.469.469 0 000 .66.469.469 0 00.66 0 .469.469 0 000-.66.469.469 0 00-.33-.136zm-22.963 9.945a.498.498 0 00-.358.148.5.5 0 00-.148.357.517.517 0 00.148.357.504.504 0 00.863-.357.508.508 0 00-.505-.505zm-23.427 9.946a.505.505 0 100-1.01.505.505 0 000 1.01zm-23.816 7.848a.505.505 0 100-1.01.505.505 0 000 1.01zm-24.126 6.76a.505.505 0 100-1.01.505.505 0 000 1.01zm-24.398 4.624a.507.507 0 000 1.011.508.508 0 00.505-.505.506.506 0 00-.505-.506zm-24.634 4.546a.504.504 0 10-.002 1.008.504.504 0 00.002-1.008zm-24.826 3.418a.51.51 0 00-.467.312.503.503 0 00.11.551.509.509 0 00.55.109.504.504 0 00.164-.824.508.508 0 00-.357-.148zm-24.942 3.303a.506.506 0 10-.001-1.011.506.506 0 00.001 1.011zm-25.06.117a.506.506 0 00-.358.862.506.506 0 00.715-.714.506.506 0 00-.357-.148zm-25.059 0a.504.504 0 100 1.008.504.504 0 000-1.008zm-25.02-.117a.505.505 0 100-1.01.505.505 0 000 1.01zm-24.943-2.293a.505.505 0 100-1.01.505.505 0 000 1.01zm-24.826-3.418a.505.505 0 100-1.01.505.505 0 000 1.01zm-24.672-4.545a.506.506 0 100-1.013.506.506 0 000 1.013zm-24.397-6.645a.506.506 0 00-.358.862.506.506 0 00.715-.714.5.5 0 00-.357-.148zm-24.127-6.76c-.1 0-.197.03-.281.085a.503.503 0 00-.076.777.51.51 0 00.55.11.499.499 0 00.312-.467.504.504 0 00-.505-.505zm-23.778-6.838a.505.505 0 100-1.01.505.505 0 000 1.01zm-23.427-9.946a.51.51 0 00-.467.312.503.503 0 00.11.55.503.503 0 00.862-.357.504.504 0 00-.505-.505zm-23.002-9.984a.514.514 0 00-.357.148.49.49 0 00-.109.164.493.493 0 000 .386.5.5 0 00.466.312.512.512 0 00.358-.148.5.5 0 00.148-.357.493.493 0 00-.039-.193.49.49 0 00-.273-.274.512.512 0 00-.194-.038zm-22.493-11.034a.502.502 0 00-.505.505.504.504 0 10.505-.505zm-21.99-12.005a.51.51 0 00-.358.147.51.51 0 000 .715.506.506 0 00.358.148.512.512 0 00.382-.134.506.506 0 00-.382-.876zm-21.41-13.054a.503.503 0 00-.505.544.51.51 0 00.148.357.51.51 0 00.357.148.514.514 0 00.383-.134.506.506 0 00.161-.371.543.543 0 00-.544-.544zm-20.785-12.939a.505.505 0 100-1.01.505.505 0 000 1.01zm-20.124-14.919a.505.505 0 100-1.01.505.505 0 000 1.01zm-19.27-16.822a.502.502 0 00-.505.505.504.504 0 10.505-.505zm-18.884-15.696a.506.506 0 100-1.011.506.506 0 000 1.011zm-17.909-17.484a.505.505 0 100-1.01.505.505 0 000 1.01zm-17.095-19.348a.508.508 0 00-.505.505.506.506 0 00.862.358.506.506 0 00-.357-.863zm-16.046-19.076a.51.51 0 00-.502.303.543.543 0 00.705.704.5.5 0 00.302-.502.504.504 0 00-.505-.505zm-15.539-19.775a.502.502 0 00-.467.312.508.508 0 00.109.55.501.501 0 00.551.109.509.509 0 00.312-.466.49.49 0 00-.039-.193.49.49 0 00-.273-.274.51.51 0 00-.193-.038zm-14.492-19.465a.505.505 0 100-1.01.505.505 0 000 1.01zM84.697 320.72a.51.51 0 00-.502.303.504.504 0 00.12.574.513.513 0 00.382.133.504.504 0 100-1.01zm-12.55-20.707a.506.506 0 10-.001-1.011.506.506 0 00.001 1.011zM60.61 276.74a.505.505 0 00-.506.544.503.503 0 00.505.505.504.504 0 00.505-.505.506.506 0 00-.505-.544zm-10.492-22.728a.5.5 0 00-.466.312.502.502 0 00.368.688.504.504 0 10.099-1zm-9.44-23.194a.51.51 0 00-.502.303.497.497 0 000 .405.51.51 0 00.297.276.493.493 0 00.205.026.512.512 0 00.357-.148.506.506 0 00-.357-.862zm-8.392-23.622a.504.504 0 100 1.01.507.507 0 00.505-.505.505.505 0 00-.505-.505zm-7.343-23.972a.508.508 0 00-.505.505.508.508 0 00.505.506.508.508 0 00.505-.506.505.505 0 00-.505-.505zm-6.177-24.321a.585.585 0 00-.583.544.583.583 0 00.583.583.58.58 0 00.536-.186.581.581 0 00.124-.553.546.546 0 00-.66-.388zm-5.128-23.427a.544.544 0 100-1.087.544.544 0 000 1.087zm-3.964-25.798a.509.509 0 00-.467.312.505.505 0 10.467-.312zM6.838 85.823a.544.544 0 100-1.087.544.544 0 000 1.087zm-1.71-26.107a.583.583 0 00-.583.582.583.583 0 00.583.544.544.544 0 00.544-.544.583.583 0 00-.544-.582zm769.613 506.158a.038.038 0 00.038-.039.038.038 0 00-.038-.038.038.038 0 00-.039.038c0 .022.017.039.039.039z" fill="#000" fill-opacity=".02"/></svg>