<svg width="30" height="30" fill="none" xmlns="http://www.w3.org/2000/svg"><path d="M3.75 11.25a2.5 2.5 0 100-5 2.5 2.5 0 000 5zm22.5 0a2.5 2.5 0 100-5 2.5 2.5 0 000 5zm-2.5-2.5h-5m-7.5 0h-5m3.125 11.875v2.5a1.85 1.85 0 01-1.113 1.7A1.75 1.75 0 017.5 25H5a1.872 1.872 0 01-1.875-1.875v-2.5c0-1.038.837-1.875 1.875-1.875h2.5c1.037 0 1.875.837 1.875 1.875zm17.5 0v2.5A1.872 1.872 0 0125 25h-2.5a1.75 1.75 0 01-.762-.175 1.848 1.848 0 01-1.113-1.7v-2.5c0-1.038.837-1.875 1.875-1.875H25c1.038 0 1.875.837 1.875 1.875zM18.75 6.875v3.75c0 1.025-.85 1.875-1.875 1.875h-3.75a1.889 1.889 0 01-1.875-1.875v-3.75C11.25 5.85 12.1 5 13.125 5h3.75c1.025 0 1.875.85 1.875 1.875z" stroke="#fff" stroke-width="1.5" stroke-miterlimit="10" stroke-linecap="round" stroke-linejoin="round"/><path d="M18.75 9.662c2.962 1.5 5 4.725 5 8.463 0 .212-.012.413-.038.625m-17.425 0a5.241 5.241 0 01-.037-.625c0-3.738 2.037-6.963 5-8.463" stroke="#fff" stroke-width="1.5" stroke-miterlimit="10" stroke-linecap="round" stroke-linejoin="round"/></svg>