<svg width="43" height="43" fill="none" xmlns="http://www.w3.org/2000/svg"><path d="M5.375 16.125a3.583 3.583 0 100-7.167 3.583 3.583 0 000 7.167zm32.25 0a3.583 3.583 0 100-7.167 3.583 3.583 0 000 7.167zM13.437 29.563v3.583a2.65 2.65 0 01-1.594 2.437 2.51 2.51 0 01-1.093.25H7.167a2.684 2.684 0 01-2.688-2.687v-3.584c0-1.487 1.2-2.687 2.688-2.687h3.583c1.487 0 2.687 1.2 2.687 2.688zm25.083 0v3.583c0 1.487-1.2 2.687-2.687 2.687H32.25a2.51 2.51 0 01-1.093-.25 2.65 2.65 0 01-1.595-2.437v-3.584c0-1.487 1.2-2.687 2.688-2.687h3.583c1.487 0 2.688 1.2 2.688 2.688zM26.875 9.854v5.375a2.707 2.707 0 01-2.688 2.688h-5.375a2.707 2.707 0 01-2.687-2.688V9.854a2.707 2.707 0 012.688-2.687h5.375a2.707 2.707 0 012.687 2.687z" fill="#fff"/><path opacity=".4" d="M16.125 11.198H8.96c-.735 0-1.344.609-1.344 1.343 0 .735.609 1.344 1.344 1.344h4.604C9.89 16.61 7.615 21.124 7.615 25.98c0 .358.018.699.071 1.057a1.336 1.336 0 001.326 1.183h.162a1.346 1.346 0 001.182-1.488c-.036-.25-.036-.483-.036-.734 0-4.658 2.526-8.959 6.432-10.93.663-.34.932-1.146.591-1.809-.017-.018-.035-.036-.035-.054.107-.197.197-.412.197-.645-.036-.752-.645-1.361-1.38-1.361zm13.312 2.687h4.605c.734 0 1.343-.609 1.343-1.344 0-.734-.609-1.343-1.343-1.343h-7.167c-.735 0-1.344.609-1.344 1.343 0 .233.072.448.197.646-.018.017-.036.035-.036.053-.34.663-.071 1.47.592 1.81 3.906 1.97 6.432 6.27 6.432 10.929 0 .25-.018.484-.036.735a1.346 1.346 0 001.182 1.487h.162c.68 0 1.254-.502 1.326-1.183.035-.358.071-.699.071-1.057-.036-4.837-2.311-9.352-5.984-12.076z" fill="#fff"/></svg>