<svg width="25" height="25" fill="none" xmlns="http://www.w3.org/2000/svg"><path d="M3.125 9.375a2.083 2.083 0 100-4.167 2.083 2.083 0 000 4.167zm18.75 0a2.083 2.083 0 100-4.166 2.083 2.083 0 000 4.166zm-2.083-2.083h-4.167m-6.25 0H5.208m2.605 9.896v2.083a1.54 1.54 0 01-.927 1.416 1.46 1.46 0 01-.636.146H4.167a1.56 1.56 0 01-1.563-1.562v-2.084a1.56 1.56 0 011.563-1.562H6.25a1.56 1.56 0 011.563 1.563zm14.583 0v2.083a1.56 1.56 0 01-1.563 1.562H18.75c-.23 0-.438-.052-.635-.145a1.54 1.54 0 01-.927-1.417v-2.084a1.56 1.56 0 011.562-1.562h2.083a1.56 1.56 0 011.563 1.563zM15.625 5.73v3.124c0 .854-.708 1.563-1.563 1.563h-3.124a1.574 1.574 0 01-1.563-1.563V5.73c0-.854.708-1.562 1.563-1.562h3.124c.855 0 1.563.708 1.563 1.562z" stroke="#FF4980" stroke-width="1.5" stroke-miterlimit="10" stroke-linecap="round" stroke-linejoin="round"/><path d="M15.625 8.052c2.469 1.25 4.167 3.938 4.167 7.052 0 .177-.01.344-.032.521m-14.52 0a4.37 4.37 0 01-.032-.52c0-3.115 1.698-5.803 4.167-7.053" stroke="#FF4980" stroke-width="1.5" stroke-miterlimit="10" stroke-linecap="round" stroke-linejoin="round"/></svg>