<svg width="70" height="70" fill="none" xmlns="http://www.w3.org/2000/svg"><path d="M48.2 25.1c0 12.771-10.329 23.1-23.1 23.1-1.056 0-2.079-.066-3.069-.231C10.712 46.484 2 36.815 2 25.1 2 12.329 12.329 2 25.1 2c11.715 0 21.384 8.712 22.869 20.031.165.99.23 2.013.23 3.069z" stroke="#6E7CFD" stroke-width="3" stroke-linecap="round" stroke-linejoin="round"/><path d="M68 44.9C68 57.671 57.673 68 44.902 68c-11.715 0-21.384-8.712-22.869-20.031.99.165 2.013.231 3.069.231 12.771 0 23.1-10.329 23.1-23.1 0-1.056-.066-2.079-.231-3.069C59.289 23.516 68 33.185 68 44.9zm-25.906-2.905l4.323 4.258M51.5 35l-3.3-3.3M35 51.5l-3.3-3.3" stroke="#6E7CFD" stroke-width="3" stroke-linecap="round" stroke-linejoin="round"/></svg>