<svg width="42" height="42" fill="none" xmlns="http://www.w3.org/2000/svg"><path opacity=".5" d="M33.617 11.13c-1.82-3.675-5.337-6.387-9.415-7.28-4.27-.945-8.645.07-11.987 2.765-3.36 2.678-5.268 6.685-5.268 10.973 0 4.532 2.713 9.275 6.808 12.022v1.453c-.018.49-.035 1.242.56 1.855.612.63 1.522.7 2.24.7h8.977c.945 0 1.663-.263 2.153-.753.665-.682.647-1.557.63-2.03V29.61c5.425-3.657 8.837-11.375 5.302-18.48z" fill="#fff"/><path d="M26.705 38.5c-.105 0-.227-.017-.332-.053a19.602 19.602 0 00-10.728 0c-.647.175-1.33-.192-1.505-.84a1.208 1.208 0 01.84-1.505 22.117 22.117 0 0112.075 0c.648.193 1.032.858.84 1.506a1.266 1.266 0 01-1.19.892zM21 24.238c-.227 0-.455-.053-.647-.175a1.32 1.32 0 01-.49-1.785l1.487-2.59h-1.47c-.875 0-1.592-.385-1.977-1.033-.385-.665-.35-1.47.087-2.24l1.873-3.255a1.32 1.32 0 011.785-.49c.63.368.84 1.173.49 1.785l-1.488 2.608h1.47c.875 0 1.593.385 1.978 1.032.385.665.35 1.47-.088 2.24l-1.872 3.255c-.245.42-.683.648-1.138.648z" fill="#fff"/></svg>