<svg width="72" height="72" fill="none" xmlns="http://www.w3.org/2000/svg"><path d="M65.01 20.85c-1.92-6.51-7.35-11.94-13.86-13.86-4.95-1.44-8.37-1.32-10.74.45-2.85 2.13-3.18 5.97-3.18 8.7v7.47c0 7.38 3.36 11.13 9.96 11.13h8.61c2.7 0 6.57-.33 8.7-3.18 1.83-2.34 1.98-5.76.51-10.71z" fill="#F84436"/><path opacity=".1" d="M56.73 40.08c-.78-.9-1.92-1.41-3.09-1.41H42.9c-5.28 0-9.57-4.29-9.57-9.57V18.36c0-1.17-.51-2.31-1.41-3.09a4.066 4.066 0 00-3.21-.99c-7.05.9-13.53 4.77-17.76 10.59C6.69 30.72 5.13 37.86 6.48 45c1.95 10.32 10.2 18.57 20.55 20.52 1.65.33 3.3.48 4.95.48 5.43 0 10.68-1.68 15.15-4.95 5.82-4.23 9.69-10.71 10.59-17.76.15-1.17-.21-2.34-.99-3.21z" fill="#F84436"/></svg>