<svg width="10" height="10" viewBox="0 0 10 10" fill="none" xmlns="http://www.w3.org/2000/svg">
<path fill-rule="evenodd" clip-rule="evenodd" d="M1.57129 2.14287C1.88688 2.14287 2.14272 1.88704 2.14272 1.57145C2.14272 1.25585 1.88688 1.00002 1.57129 1.00002C1.2557 1.00002 0.999865 1.25585 0.999865 1.57145C0.999865 1.88704 1.2557 2.14287 1.57129 2.14287ZM1.57129 2.7143C2.20248 2.7143 2.71415 2.20263 2.71415 1.57145C2.71415 0.940264 2.20248 0.428589 1.57129 0.428589C0.940111 0.428589 0.428436 0.940264 0.428436 1.57145C0.428436 2.20263 0.940111 2.7143 1.57129 2.7143Z" fill="#5356FB"/>
<path fill-rule="evenodd" clip-rule="evenodd" d="M1.57129 5.57143C1.88688 5.57143 2.14272 5.3156 2.14272 5C2.14272 4.68441 1.88688 4.42858 1.57129 4.42858C1.2557 4.42858 0.999865 4.68441 0.999865 5C0.999865 5.3156 1.2557 5.57143 1.57129 5.57143ZM1.57129 6.14286C2.20248 6.14286 2.71415 5.63119 2.71415 5C2.71415 4.36882 2.20248 3.85715 1.57129 3.85715C0.940111 3.85715 0.428436 4.36882 0.428436 5C0.428436 5.63119 0.940111 6.14286 1.57129 6.14286Z" fill="#5356FB"/>
<path fill-rule="evenodd" clip-rule="evenodd" d="M1.57129 9.00002C1.88688 9.00002 2.14272 8.74418 2.14272 8.42859C2.14272 8.113 1.88688 7.85716 1.57129 7.85716C1.2557 7.85716 0.999865 8.113 0.999865 8.42859C0.999865 8.74418 1.2557 9.00002 1.57129 9.00002ZM1.57129 9.57145C2.20248 9.57145 2.71415 9.05978 2.71415 8.42859C2.71415 7.79741 2.20248 7.28574 1.57129 7.28574C0.940111 7.28574 0.428436 7.79741 0.428436 8.42859C0.428436 9.05978 0.940111 9.57145 1.57129 9.57145Z" fill="#5356FB"/>
<path fill-rule="evenodd" clip-rule="evenodd" d="M4.99987 2.14287C5.31546 2.14287 5.5713 1.88704 5.5713 1.57145C5.5713 1.25585 5.31546 1.00002 4.99987 1.00002C4.68428 1.00002 4.42844 1.25585 4.42844 1.57145C4.42844 1.88704 4.68428 2.14287 4.99987 2.14287ZM4.99987 2.7143C5.63105 2.7143 6.14272 2.20263 6.14272 1.57145C6.14272 0.940264 5.63105 0.428589 4.99987 0.428589C4.36868 0.428589 3.85701 0.940264 3.85701 1.57145C3.85701 2.20263 4.36868 2.7143 4.99987 2.7143Z" fill="#5356FB"/>
<path fill-rule="evenodd" clip-rule="evenodd" d="M4.99987 5.57143C5.31546 5.57143 5.5713 5.3156 5.5713 5C5.5713 4.68441 5.31546 4.42858 4.99987 4.42858C4.68428 4.42858 4.42844 4.68441 4.42844 5C4.42844 5.3156 4.68428 5.57143 4.99987 5.57143ZM4.99987 6.14286C5.63105 6.14286 6.14272 5.63119 6.14272 5C6.14272 4.36882 5.63105 3.85715 4.99987 3.85715C4.36868 3.85715 3.85701 4.36882 3.85701 5C3.85701 5.63119 4.36868 6.14286 4.99987 6.14286Z" fill="#5356FB"/>
<path fill-rule="evenodd" clip-rule="evenodd" d="M4.99987 9.00002C5.31546 9.00002 5.5713 8.74418 5.5713 8.42859C5.5713 8.113 5.31546 7.85716 4.99987 7.85716C4.68428 7.85716 4.42844 8.113 4.42844 8.42859C4.42844 8.74418 4.68428 9.00002 4.99987 9.00002ZM4.99987 9.57145C5.63105 9.57145 6.14272 9.05978 6.14272 8.42859C6.14272 7.79741 5.63105 7.28574 4.99987 7.28574C4.36868 7.28574 3.85701 7.79741 3.85701 8.42859C3.85701 9.05978 4.36868 9.57145 4.99987 9.57145Z" fill="#5356FB"/>
<path fill-rule="evenodd" clip-rule="evenodd" d="M8.42844 2.14287C8.74403 2.14287 8.99987 1.88704 8.99987 1.57145C8.99987 1.25585 8.74403 1.00002 8.42844 1.00002C8.11285 1.00002 7.85701 1.25585 7.85701 1.57145C7.85701 1.88704 8.11285 2.14287 8.42844 2.14287ZM8.42844 2.7143C9.05962 2.7143 9.5713 2.20263 9.5713 1.57145C9.5713 0.940264 9.05962 0.428589 8.42844 0.428589C7.79726 0.428589 7.28558 0.940264 7.28558 1.57145C7.28558 2.20263 7.79726 2.7143 8.42844 2.7143Z" fill="#5356FB"/>
<path fill-rule="evenodd" clip-rule="evenodd" d="M8.42844 5.57143C8.74403 5.57143 8.99987 5.3156 8.99987 5C8.99987 4.68441 8.74403 4.42858 8.42844 4.42858C8.11285 4.42858 7.85701 4.68441 7.85701 5C7.85701 5.3156 8.11285 5.57143 8.42844 5.57143ZM8.42844 6.14286C9.05962 6.14286 9.5713 5.63119 9.5713 5C9.5713 4.36882 9.05962 3.85715 8.42844 3.85715C7.79726 3.85715 7.28558 4.36882 7.28558 5C7.28558 5.63119 7.79726 6.14286 8.42844 6.14286Z" fill="#5356FB"/>
<path fill-rule="evenodd" clip-rule="evenodd" d="M8.42844 9.00002C8.74403 9.00002 8.99987 8.74418 8.99987 8.42859C8.99987 8.113 8.74403 7.85716 8.42844 7.85716C8.11285 7.85716 7.85701 8.113 7.85701 8.42859C7.85701 8.74418 8.11285 9.00002 8.42844 9.00002ZM8.42844 9.57145C9.05962 9.57145 9.5713 9.05978 9.5713 8.42859C9.5713 7.79741 9.05962 7.28574 8.42844 7.28574C7.79726 7.28574 7.28558 7.79741 7.28558 8.42859C7.28558 9.05978 7.79726 9.57145 8.42844 9.57145Z" fill="#5356FB"/>
</svg>
