<svg width="38" height="38" fill="none" xmlns="http://www.w3.org/2000/svg"><path d="M20.336 11.125a.807.807 0 00.192-.265.771.771 0 00-.192-.897.901.901 0 00-.618-.242.901.901 0 00-.62.242.818.818 0 00-.187.267.782.782 0 000 .628c.043.1.107.19.188.267.178.127.395.195.619.195.222 0 .44-.068.618-.195z" fill="#FF7A7A"/><path d="M35.208 25.127V8.157a2.62 2.62 0 001.802-.71 2.36 2.36 0 00.747-1.71 2.36 2.36 0 00-.747-1.712 2.62 2.62 0 00-1.802-.708h-13.73v-.84c0-.656-.275-1.287-.764-1.751A2.683 2.683 0 0018.868 0a2.68 2.68 0 00-1.845.726 2.416 2.416 0 00-.765 1.752v.839H2.583c-.685 0-1.342.258-1.827.718A2.39 2.39 0 000 5.769c0 .65.272 1.274.756 1.734.485.46 1.142.718 1.827.718v16.97a2.66 2.66 0 00-1.827.718A2.39 2.39 0 000 27.643c0 .65.272 1.274.756 1.734.485.46 1.142.718 1.827.718h14.484l-5.696 6.582a.862.862 0 00.136 1.162.998.998 0 001.237-.13L18.1 31.45v4.969c0 .224.094.44.261.598a.915.915 0 00.63.247.92.92 0 00.63-.247.824.824 0 00.26-.598V31.45l5.356 6.26a.983.983 0 001.237.13.839.839 0 00.136-1.162l-5.764-6.776h14.485c.345.019.692-.03 1.017-.143.325-.114.622-.29.873-.517.25-.227.449-.5.583-.804a2.288 2.288 0 00-.028-1.912 2.406 2.406 0 00-.605-.789 2.554 2.554 0 00-.887-.494 2.648 2.648 0 00-1.021-.116h-.055zM1.706 5.769a.838.838 0 01.267-.59.929.929 0 01.623-.25h14.627a.929.929 0 00.624-.248.837.837 0 00.267-.59V2.478a.837.837 0 01.287-.554.924.924 0 01.607-.224c.224 0 .44.08.606.224a.836.836 0 01.287.554V4.09a.838.838 0 00.267.59.93.93 0 00.624.249h14.62c.234 0 .46.088.625.246.166.157.259.37.259.593a.818.818 0 01-.26.593.908.908 0 01-.624.246H2.787c-.64-.065-1.054-.452-1.054-.84h-.027zm2.61 2.387h29.172V9.77h-11.16a.925.925 0 00-.625.246.838.838 0 00-.191.272.802.802 0 00.191.914.891.891 0 00.625.246h11.188v13.744H4.343L4.316 8.156zm30.892 20.197H2.583a.908.908 0 01-.625-.246.818.818 0 01-.259-.593c0-.222.093-.436.259-.593a.908.908 0 01.625-.246h32.625a.928.928 0 01.623.25.837.837 0 01.267.59.89.89 0 01-.28.576.982.982 0 01-.61.262z" fill="#FF7A7A"/><path d="M29.193 12.996h-2.542a.908.908 0 00-.625.245.818.818 0 00-.259.594.82.82 0 00.26.593c.165.157.39.245.624.245h.483l-4.84 4.582a2.513 2.513 0 00-.958-.476 2.594 2.594 0 00-1.08-.04l-2.72-2.517c.386-.434.604-.98.619-1.549 0-.657-.275-1.287-.765-1.752a2.682 2.682 0 00-1.845-.725c-.692 0-1.356.26-1.846.725a2.416 2.416 0 00-.764 1.752c.002.652.273 1.278.754 1.743L11.65 19.06a2.674 2.674 0 00-1.23-.322 2.679 2.679 0 00-1.535.46c-.447.306-.78.738-.95 1.235a2.334 2.334 0 00.006 1.53c.174.495.51.925.959 1.228.449.302.988.46 1.538.45a2.671 2.671 0 001.521-.502c.438-.317.757-.759.912-1.26a2.334 2.334 0 00-.052-1.528c2.542-3.227 2.474-3.033 2.542-3.162h.68l2.678 2.516a2.423 2.423 0 00-.618 1.55c.001.323.07.643.202.941.133.299.325.57.568.797.242.228.53.408.845.53a2.7 2.7 0 00.995.183c.373 0 .741-.077 1.08-.226.339-.149.639-.366.88-.636.242-.27.418-.587.517-.928.1-.342.12-.7.058-1.049l5.22-4.904v.258c0 .224.094.44.26.598a.915.915 0 00.63.247.915.915 0 00.63-.247.824.824 0 00.26-.598v-2.388a1.083 1.083 0 00-.38-.585 1.183 1.183 0 00-.673-.253zM10.318 21.9a.918.918 0 01-.489-.144.85.85 0 01-.322-.378.8.8 0 01-.048-.484.827.827 0 01.244-.428.927.927 0 01.962-.179.875.875 0 01.395.31.803.803 0 01.149.464.837.837 0 01-.268.59.928.928 0 01-.623.25zm5.18-8.065a.918.918 0 01.488.144.85.85 0 01.323.378.8.8 0 01.047.484.828.828 0 01-.243.428.9.9 0 01-.452.228.929.929 0 01-.51-.05.875.875 0 01-.396-.308.81.81 0 01-.148-.466.837.837 0 01.267-.59.929.929 0 01.623-.248zm5.145 8.065a.917.917 0 01-.488-.147.848.848 0 01-.319-.38.8.8 0 01-.045-.483.827.827 0 01.245-.426.9.9 0 01.453-.226.927.927 0 01.508.05.876.876 0 01.395.309c.096.137.148.3.148.464a.823.823 0 01-.077.329.861.861 0 01-.205.275.948.948 0 01-.65.235h.035zM6.885 33.967H3.452v1.614h3.433v-1.614zm3.433-1.613H6.885v1.613h3.433v-1.613zm21.485 1.613H28.37v1.614h3.433v-1.614zm3.432-1.613h-3.432v1.613h3.432v-1.613z" fill="#FF7A7A"/></svg>