<svg width="35" height="34" fill="none" xmlns="http://www.w3.org/2000/svg"><path d="M12.386 15.885a.75.75 0 000-1.5 2.192 2.192 0 110-4.385.75.75 0 000-1.5 3.675 3.675 0 00-3.692 3.635 3.738 3.738 0 003.692 3.75z" fill="#C275FF"/><path d="M12.132 11.789a.745.745 0 00-1.21.238.733.733 0 00.16.8l.755.75a.744.744 0 001.05 0l2.215-2.192a.732.732 0 000-1.038.744.744 0 00-1.05 0l-1.667 1.673-.253-.231zm4.603.519h2.913a.75.75 0 100-1.5h-2.913a.75.75 0 100 1.5zm5.065 0h.762a.75.75 0 100-1.5H21.8a.767.767 0 00-.761.75.813.813 0 00.761.75zm-5.065 2.135h8.74a.75.75 0 100-1.5h-8.74a.75.75 0 100 1.5zm-4.349 9.403a.75.75 0 000-1.5 2.192 2.192 0 010-4.384.75.75 0 000-1.5 3.674 3.674 0 00-3.67 3.634 3.738 3.738 0 003.67 3.75z" fill="#C275FF"/><path d="M13.995 18.25l-1.69 1.673-.23-.231a.744.744 0 00-1.05 0 .721.721 0 000 1.038l.784.75a.744.744 0 001.05 0l2.215-2.192a.732.732 0 000-1.038.743.743 0 00-1.079 0zm2.74 1.961h2.913a.75.75 0 100-1.5h-2.913a.75.75 0 100 1.5zm5.065-1.442a.75.75 0 000 1.5h.762a.75.75 0 100-1.5H21.8zm-5.065 3.635h5.827a.75.75 0 000-1.5h-5.827a.75.75 0 100 1.5zM2.17 28.172a2.191 2.191 0 102.214 2.192 2.244 2.244 0 00-2.215-2.192zm0 2.885a.75.75 0 11.755-.75.86.86 0 01-.756.75zM3.22 7.982A1.788 1.788 0 105.024 9.77a1.806 1.806 0 00-1.806-1.788zm0 2.134a.346.346 0 11.345-.346c.058.173-.115.346-.346.346zM32.346 6.54A2.538 2.538 0 1029.784 4a2.573 2.573 0 002.562 2.538zm0-3.635a1.102 1.102 0 011.107 1.096 1.108 1.108 0 01-2.215 0 1.1 1.1 0 011.108-1.096z" fill="#C275FF"/><path d="M29.116 20.961V7.058a2.725 2.725 0 00-2.74-2.71h-1.731a2.913 2.913 0 00-2.798-2.193H20.23a2.884 2.884 0 00-5.595.058H13.06a2.885 2.885 0 00-2.792 2.192h-1.73a2.723 2.723 0 00-2.741 2.711v24.172a2.723 2.723 0 002.74 2.71h17.826c.256-.005.51-.043.755-.114a6.538 6.538 0 007.765-6.404 6.444 6.444 0 00-5.768-6.519zM13.09 3.655h2.18a.767.767 0 00.756-.75 1.46 1.46 0 012.913 0 .767.767 0 00.762.75h2.21a1.442 1.442 0 010 2.884h-8.729a1.436 1.436 0 01-1.46-1.442 1.337 1.337 0 011.339-1.442h.029zM8.55 32.499a1.286 1.286 0 01-1.287-1.27V7.06a1.286 1.286 0 011.258-1.27h1.73a2.885 2.885 0 002.712 2.135h9.091c.1.009.2-.011.289-.058a2.884 2.884 0 002.307-2.134h1.731A1.286 1.286 0 0127.661 7v13.903a6.525 6.525 0 00-5.826 6.46 6.345 6.345 0 002.452 5.02H8.521l.029.115zm19.867 0a5.076 5.076 0 115.123-5.077 5.111 5.111 0 01-5.15 5.078h.028z" fill="#C275FF"/><path d="M18.19 25.288h-8.043a.75.75 0 100 1.5h8.042a.767.767 0 00.756-.75.802.802 0 00-.756-.75zm0 2.134h-8.043a.752.752 0 00-.692 1.037.75.75 0 00.692.463h8.042a.768.768 0 00.756-.75.854.854 0 00-.756-.75zm12.875-1.153l-2.62.865-2.624-1.73a.727.727 0 00-.992.172.703.703 0 00.179.981l2.913 1.904a.628.628 0 00.64.058l2.913-.981a.71.71 0 00.468-.923.727.727 0 00-.877-.346z" fill="#C275FF"/></svg>