<svg width="25" height="26" fill="none" xmlns="http://www.w3.org/2000/svg"><path d="M6.635 10.208c-4.25.311-4.24 6.655 0 6.966h10.063A4.776 4.776 0 0020 15.864c2.98-2.683 1.385-8.05-2.542-8.565-1.406-8.737-13.687-5.42-10.78 2.909m5.822 6.966v3.22m0 4.293c1.15 0 2.083-.96 2.083-2.146s-.932-2.147-2.083-2.147c-1.15 0-2.083.96-2.083 2.147 0 1.185.932 2.146 2.083 2.146zm6.25-2.147h-4.167m-4.166 0H6.25" stroke="#2707EF" stroke-width="1.5" stroke-miterlimit="10" stroke-linecap="round" stroke-linejoin="round"/></svg>