<svg width="42" height="42" fill="none" xmlns="http://www.w3.org/2000/svg"><path opacity=".4" d="M21 38.5c9.665 0 17.5-7.835 17.5-17.5S30.665 3.5 21 3.5 3.5 11.335 3.5 21 11.335 38.5 21 38.5z" fill="#fff"/><path d="M14 25.812c-.333 0-.665-.122-.928-.385l-3.5-3.5a1.32 1.32 0 010-1.855l3.5-3.5a1.32 1.32 0 011.855 0 1.32 1.32 0 010 1.855L12.355 21l2.572 2.572a1.32 1.32 0 010 1.855 1.298 1.298 0 01-.927.385zm14 0c-.333 0-.665-.122-.928-.385a1.32 1.32 0 010-1.855L29.645 21l-2.573-2.573a1.32 1.32 0 010-1.855 1.32 1.32 0 011.855 0l3.5 3.5a1.32 1.32 0 010 1.855l-3.5 3.5a1.298 1.298 0 01-.927.385zm-8.75.578a1.304 1.304 0 01-1.19-1.838l3.5-8.172a1.29 1.29 0 011.715-.683c.665.28.98 1.05.683 1.733l-3.5 8.172c-.21.49-.7.788-1.208.788z" fill="#fff"/></svg>