<svg width="29" height="29" fill="none" xmlns="http://www.w3.org/2000/svg"><path d="M14.326 15.472v-3.459a.63.63 0 00-1.258 0v3.46a1.471 1.471 0 00-.875 1.344 1.505 1.505 0 103.004-.077 1.504 1.504 0 00-.87-1.268zm-.63 1.634a.289.289 0 11.001-.577.289.289 0 010 .577z" fill="#473BEF"/><path d="M22.345 8.362l.144-.24a2.109 2.109 0 00-3.397-2.498l-.197.288a13.233 13.233 0 00-3.055-.961V3.558h.629a1.83 1.83 0 001.845-1.826A1.797 1.797 0 0016.42.002h-5.443a1.826 1.826 0 100 3.652h.634v1.393a13.49 13.49 0 00-4.03 1.441l-.337-.72a.644.644 0 00-.827-.288.63.63 0 00-.293.816l.438.865a11.766 11.766 0 00-4.997 9.657 12.131 12.131 0 1020.779-8.456zm-2.402-1.826l.096-.144a.878.878 0 011.258-.192.908.908 0 01.197 1.25l-.096.095a13.25 13.25 0 00-1.456-1.009zm-9.61-4.708a.64.64 0 01.63-.624h5.482a.625.625 0 010 1.249h-5.467a.716.716 0 01-.644-.625zm3.364 25.8a10.805 10.805 0 01-1.441-21.524.62.62 0 00.533-.576V3.606h1.845v1.922a.576.576 0 00.533.576 10.805 10.805 0 01-1.441 21.523h-.03zM1.806 24.024a1.826 1.826 0 10.039 3.651 1.826 1.826 0 00-.039-3.651zm0 2.402a.624.624 0 11.635-.624.639.639 0 01-.635.624zM26.361 1.828a2.114 2.114 0 102.133 2.114 2.143 2.143 0 00-2.133-2.114zm0 2.979a.918.918 0 01-.922-.913.922.922 0 11.922.913z" fill="#473BEF"/><path d="M23.06 16.721a9.128 9.128 0 00-2.666-6.341.753.753 0 00-.197-.192A9.455 9.455 0 007 10.284a9.253 9.253 0 006.601 15.854 9.551 9.551 0 006.548-2.643.404.404 0 00.197-.192 9.287 9.287 0 002.667-6.341v-.096c.096-.096.096-.145.048-.145zm-2.084.721h.888a7.966 7.966 0 01-1.921 4.66l-.635-.624a.62.62 0 00-1.007.198.61.61 0 00.133.667l.634.624a7.936 7.936 0 01-4.756 1.922v-.865a.63.63 0 10-1.259 0v.865a8.09 8.09 0 01-4.708-1.922l.63-.624a.601.601 0 000-.865.62.62 0 00-.875 0l-.533.624a7.793 7.793 0 01-1.922-4.66h.846a.625.625 0 000-1.249h-.875a8.013 8.013 0 011.99-4.66l.633.624a.615.615 0 00.87 0 .6.6 0 000-.864l-.63-.625a7.922 7.922 0 014.709-1.922v.865a.63.63 0 001.259 0v-.865c1.74.137 3.39.827 4.708 1.97l-.654.625a.6.6 0 000 .864.615.615 0 00.87 0l.634-.624a7.764 7.764 0 011.922 4.66h-.875a.64.64 0 00-.629.625.52.52 0 00.553.576zM2.44 4.23H.015v1.201h2.427v-1.2zm2.427-1.2H2.44v1.2h2.426v-1.2zm0 2.402H2.44v1.2h2.426v-1.2zM2.44 1.828H.015V3.03h2.427v-1.2zM4.867.627H2.44v1.201h2.426v-1.2z" fill="#473BEF"/></svg>