<svg width="35" height="35" fill="none" xmlns="http://www.w3.org/2000/svg"><path d="M32.358 0H20.986c-.566 0-1.025.46-1.025 1.025V5.74a1.025 1.025 0 001.71.764c.271-.243.623-.37.99-.355A1.404 1.404 0 0124 7.49a1.39 1.39 0 01-.39 1.026 1.396 1.396 0 01-1.941.072 1.026 1.026 0 00-1.71.765v4.66c0 .566.46 1.025 1.026 1.025h3.067a3.464 3.464 0 003.402 4.042c.898 0 1.742-.34 2.392-.965a3.455 3.455 0 001.007-3.077h3.12c.567 0 1.026-.459 1.026-1.025V2.642A2.645 2.645 0 0032.358 0zm.591 12.988h-3.688a1.025 1.025 0 00-.764 1.71 1.396 1.396 0 01-.073 1.941c-.276.266-.64.404-1.026.39a1.404 1.404 0 01-1.343-1.34 1.395 1.395 0 01.355-.991 1.025 1.025 0 00-.764-1.71h-3.634v-2.042c.194.034.391.051.59.051h.001c.947 0 1.83-.376 2.486-1.057a3.424 3.424 0 00.962-2.526 3.464 3.464 0 00-4.04-3.268V2.051h10.347c.326 0 .591.265.591.591v10.346z" fill="#FF760E"/><path d="M27.002 19.96h-4.714a1.025 1.025 0 00-.764 1.71 1.397 1.397 0 01-.072 1.942c-.277.266-.64.404-1.026.39a1.404 1.404 0 01-1.344-1.341 1.395 1.395 0 01.356-.99 1.025 1.025 0 00-.764-1.71h-3.635v-2.042c.239.041.483.058.73.048a3.464 3.464 0 003.31-3.315 3.424 3.424 0 00-.963-2.526 3.455 3.455 0 00-3.077-1.006V7.998c0-.566-.459-1.025-1.025-1.025H2.642A2.645 2.645 0 000 9.615v22.743A2.645 2.645 0 002.642 35h22.743a2.645 2.645 0 002.642-2.642V20.986c0-.566-.459-1.025-1.025-1.025zM2.051 9.616c0-.326.265-.592.591-.592h10.346v3.689a1.025 1.025 0 001.71.764 1.396 1.396 0 011.941.072c.266.277.405.641.39 1.026a1.404 1.404 0 01-1.34 1.344 1.396 1.396 0 01-.991-.356 1.025 1.025 0 00-1.71.764v3.635h-2.042c.034-.194.051-.392.051-.591a3.42 3.42 0 00-1.057-2.486 3.42 3.42 0 00-2.526-.963 3.464 3.464 0 00-3.268 4.04H2.051V9.615zm0 22.743V22.012h3.688a1.025 1.025 0 00.764-1.71 1.395 1.395 0 01-.355-.99A1.404 1.404 0 017.49 17.97a1.397 1.397 0 011.455 1.399c0 .344-.126.676-.356.932a1.026 1.026 0 00.764 1.71h3.634v2.041a3.464 3.464 0 00-4.04 3.267 3.424 3.424 0 00.963 2.527 3.455 3.455 0 003.077 1.007v2.095H2.642a.592.592 0 01-.591-.591zm23.926 0a.592.592 0 01-.592.591H15.04v-3.688a1.025 1.025 0 00-1.71-.764 1.397 1.397 0 01-1.94-.073 1.39 1.39 0 01-.39-1.026 1.404 1.404 0 011.34-1.343c.366-.014.718.112.99.355a1.025 1.025 0 001.71-.764v-3.634h2.042a3.464 3.464 0 003.267 4.04 3.42 3.42 0 002.526-.963 3.455 3.455 0 001.007-3.077h2.096v10.346z" fill="#FF760E"/></svg>