<svg width="26" height="26" fill="none" xmlns="http://www.w3.org/2000/svg"><path d="M14.55 16.25H4.766c-1.972 0-3.228-2.113-2.275-3.846l2.524-4.593L7.378 3.51c.986-1.788 3.564-1.788 4.55 0l2.372 4.3 1.138 2.07 1.386 2.524c.954 1.733-.303 3.846-2.275 3.846z" stroke="#fff" stroke-width="1.5" stroke-linecap="round" stroke-linejoin="round"/><path d="M23.833 16.791a7.041 7.041 0 11-14.083 0c0-.184.01-.357.022-.541h4.777c1.972 0 3.229-2.113 2.275-3.846L15.437 9.88a7.041 7.041 0 018.396 6.912z" stroke="#fff" stroke-width="1.5" stroke-linecap="round" stroke-linejoin="round"/></svg>