<svg width="32" height="32" fill="none" xmlns="http://www.w3.org/2000/svg"><path d="M18.982 10.8a.945.945 0 00-.882-.032.938.938 0 00-.521.71L17.068 15h-2.135l-.511-3.523a.938.938 0 00-.521-.71.945.945 0 00-.882.033 5.953 5.953 0 00-2.98 5.137 5.885 5.885 0 002.824 5.044v10.081a.94.94 0 00.941.938h4.393a.94.94 0 00.94-.938v-10.08a5.885 5.885 0 002.824-5.045 5.953 5.953 0 00-2.979-5.137zm-1.198 8.786a.937.937 0 00-.529.842v9.697h-2.51v-9.697a.937.937 0 00-.528-.842 4.035 4.035 0 01-2.295-3.649c0-.922.32-1.806.88-2.513l.384 2.647a.94.94 0 00.932.804h3.765a.94.94 0 00.931-.804l.384-2.647c.56.707.88 1.59.88 2.513 0 1.562-.879 2.96-2.294 3.649z" fill="#FF0E82"/><path d="M31.244 12.518l-2.342-.466c-.258-.851-.6-1.672-1.02-2.454l1.324-1.98a.935.935 0 00-.117-1.182L25.539 2.9a.944.944 0 00-1.187-.117l-1.987 1.32A13.43 13.43 0 0019.9 3.087L19.433.754A.94.94 0 0018.51 0h-5.02a.94.94 0 00-.922.754l-.469 2.333c-.854.257-1.679.597-2.463 1.016l-1.987-1.32A.944.944 0 006.46 2.9L2.91 6.436a.935.935 0 00-.117 1.183l1.325 1.98c-.42.78-.762 1.602-1.02 2.453l-2.342.466a.938.938 0 00-.757.92v5a.94.94 0 00.757.92l2.342.466c.258.85.6 1.672 1.02 2.453l-1.325 1.98a.935.935 0 00.118 1.183l3.55 3.535a.944.944 0 001.187.117l2.468-1.639a.937.937 0 00.42-.78v-4.758a.936.936 0 00-.256-.642 7.748 7.748 0 01-2.124-5.335c0-4.308 3.518-7.813 7.843-7.813s7.843 3.505 7.843 7.813a7.748 7.748 0 01-2.124 5.335.936.936 0 00-.255.642v4.758c0 .314.157.606.42.78l2.468 1.64a.942.942 0 001.187-.118l3.55-3.535a.935.935 0 00.117-1.183l-1.324-1.98c.42-.78.762-1.602 1.02-2.453l2.342-.467a.939.939 0 00.757-.92v-5a.938.938 0 00-.757-.919zm-1.126 5.151l-2.153.43a.94.94 0 00-.727.688 11.45 11.45 0 01-1.269 3.051c-.186.31-.176.7.025 1l1.218 1.82-2.458 2.448-1.408-.935v-3.896a9.607 9.607 0 002.38-6.337c0-5.342-4.363-9.688-9.726-9.688s-9.725 4.346-9.725 9.688c0 2.34.842 4.576 2.379 6.337v3.896l-1.408.935-2.458-2.449 1.218-1.82a.932.932 0 00.025-.999 11.449 11.449 0 01-1.268-3.051.94.94 0 00-.728-.689l-2.153-.429v-3.463l2.153-.428a.94.94 0 00.728-.69 11.4 11.4 0 011.269-3.05.934.934 0 00-.026-1l-1.218-1.82L7.247 4.77l1.826 1.213c.302.2.692.21 1.004.025.953-.565 1.983-.99 3.063-1.264a.939.939 0 00.692-.724l.43-2.145h3.476l.431 2.145a.94.94 0 00.691.724c1.08.273 2.11.699 3.064 1.264a.944.944 0 001.003-.025l1.827-1.213 2.458 2.448-1.218 1.82a.935.935 0 00-.025 1c.568.949.995 1.975 1.269 3.05a.94.94 0 00.727.69l2.153.428v3.463z" fill="#FF0E82"/></svg>