<svg width="25" height="30" fill="none" xmlns="http://www.w3.org/2000/svg"><path d="M3.49 2.44h9.27c.771 0 1.406.745 1.406 1.648v1.805c0 .66-.354 1.477-.697 1.892l-3.021 3.123c-.417.415-.698 1.233-.698 1.892v3.538c0 .488-.281 1.147-.636 1.403l-.979.744c-.916.66-2.177-.085-2.177-1.403v-4.356c0-.573-.281-1.317-.562-1.732L2.729 7.699c-.354-.415-.635-1.147-.635-1.647V4.161c-.01-.976.625-1.72 1.395-1.72z" stroke="#518AF8" stroke-width="1.5" stroke-miterlimit="10" stroke-linecap="round" stroke-linejoin="round"/><path d="M2.083 14.642v3.66c0 6.101 2.084 8.541 7.292 8.541h6.25c5.208 0 7.292-2.44 7.292-8.54V10.98c0-3.806-.813-6.198-2.698-7.443-.532-.353-1.594-.622-2.563-.805m-4.114 13.13h5.208m-7.292 4.881h7.292" stroke="#518AF8" stroke-width="1.5" stroke-linecap="round" stroke-linejoin="round"/></svg>