<svg width="52" height="56" fill="none" xmlns="http://www.w3.org/2000/svg"><path d="M33.063 51.779H18.937c-10.639 0-15.189-4.813-15.189-16.065v-.298c0-10.175 3.792-15.079 12.285-15.927.867-.069 1.69.619 1.777 1.558.087.94-.563 1.788-1.473 1.88-6.804.664-9.339 4.056-9.339 12.512v.298c0 9.327 3.12 12.627 11.939 12.627h14.126c8.819 0 11.939-3.3 11.939-12.627v-.298c0-8.502-2.579-11.894-9.512-12.512-.888-.092-1.56-.917-1.473-1.857.086-.94.845-1.65 1.755-1.558 8.623.78 12.48 5.706 12.48 15.95v.298c0 11.206-4.55 16.019-15.189 16.019z" fill="#fff"/><path d="M26 36.608c-.888 0-1.625-.78-1.625-1.719V5.372c0-.94.737-1.718 1.625-1.718s1.625.779 1.625 1.718V34.89c0 .962-.737 1.719-1.625 1.719z" fill="#fff"/><path d="M26 39.175c-.412 0-.823-.16-1.148-.505l-7.259-7.677c-.628-.664-.628-1.764 0-2.429a1.572 1.572 0 012.297 0L26 35.027l6.11-6.463a1.572 1.572 0 012.297 0c.628.665.628 1.765 0 2.43l-7.259 7.676a1.563 1.563 0 01-1.148.505z" fill="#fff"/></svg>