<svg width="25" height="22" fill="none" xmlns="http://www.w3.org/2000/svg"><path d="M3.125 7.657c1.15 0 2.084-1.06 2.084-2.368 0-1.308-.933-2.368-2.084-2.368-1.15 0-2.083 1.06-2.083 2.368 0 1.308.933 2.368 2.083 2.368zm18.75 0c1.15 0 2.084-1.06 2.084-2.368 0-1.308-.933-2.368-2.084-2.368-1.15 0-2.083 1.06-2.083 2.368 0 1.308.933 2.368 2.083 2.368zM19.792 5.29h-4.167m-6.25 0H5.208m2.605 11.248v2.368c0 .723-.386 1.35-.927 1.61a1.315 1.315 0 01-.636.167H4.167c-.865 0-1.563-.794-1.563-1.777v-2.368c0-.983.698-1.776 1.563-1.776H6.25c.865 0 1.563.793 1.563 1.776zm14.583 0v2.368c0 .983-.698 1.777-1.563 1.777H18.75c-.23 0-.438-.06-.635-.166-.542-.26-.927-.888-.927-1.61v-2.369c0-.983.697-1.776 1.562-1.776h2.083c.865 0 1.563.793 1.563 1.776zM15.625 3.513v3.552c0 .971-.708 1.776-1.563 1.776h-3.124c-.855 0-1.563-.805-1.563-1.776V3.513c0-.971.708-1.776 1.563-1.776h3.124c.855 0 1.563.805 1.563 1.776zm0 2.64c2.469 1.421 4.167 4.476 4.167 8.017 0 .201-.01.39-.032.592" stroke="#fff" stroke-width="1.5" stroke-miterlimit="10" stroke-linecap="round" stroke-linejoin="round"/><path d="M5.24 14.762a5.635 5.635 0 01-.032-.592c0-3.54 1.698-6.596 4.167-8.017" stroke="#fff" stroke-width="1.5" stroke-miterlimit="10" stroke-linecap="round" stroke-linejoin="round"/></svg>