<svg width="25" height="29" fill="none" xmlns="http://www.w3.org/2000/svg"><path d="M3.49 2.368h9.27c.771 0 1.407.722 1.407 1.599v1.752c0 .64-.354 1.433-.698 1.836l-3.02 3.031c-.418.403-.699 1.196-.699 1.835v3.434c0 .474-.281 1.113-.635 1.362l-.98.723c-.916.639-2.177-.083-2.177-1.362V12.35c0-.556-.28-1.278-.562-1.681L2.729 7.472c-.354-.403-.635-1.113-.635-1.599V4.038c-.01-.948.625-1.67 1.396-1.67z" stroke="#fff" stroke-width="1.5" stroke-miterlimit="10" stroke-linecap="round" stroke-linejoin="round"/><path d="M2.083 14.21v3.552c0 5.92 2.084 8.289 7.292 8.289h6.25c5.209 0 7.292-2.368 7.292-8.29v-7.104c0-3.694-.813-6.015-2.698-7.223-.531-.344-1.594-.604-2.563-.782m-4.115 12.742h5.209m-7.291 4.736h7.291" stroke="#fff" stroke-width="1.5" stroke-linecap="round" stroke-linejoin="round"/></svg>