<svg width="25" height="25" fill="none" xmlns="http://www.w3.org/2000/svg"><path d="M21.781 11.583c0 5.094-3.698 9.865-8.75 11.26a2.044 2.044 0 01-1.062 0c-5.052-1.395-8.75-6.166-8.75-11.26V7.01c0-.854.646-1.822 1.448-2.145l5.802-2.375a5.404 5.404 0 014.073 0l5.802 2.375c.791.323 1.448 1.291 1.448 2.145l-.01 4.573z" stroke="#fff" stroke-width="1.5" stroke-linecap="round" stroke-linejoin="round"/><path d="M12.5 13.02a2.083 2.083 0 100-4.166 2.083 2.083 0 000 4.167zm0 0v3.126" stroke="#fff" stroke-width="1.5" stroke-miterlimit="10" stroke-linecap="round" stroke-linejoin="round"/></svg>