<svg width="36" height="36" fill="none" xmlns="http://www.w3.org/2000/svg"><path d="M25.366 11.25c4.067 4.066 4.067 10.666 0 14.733-4.066 4.067-10.666 4.067-14.733 0s-4.067-10.667 0-14.733c4.067-4.067 10.667-4.067 14.733 0zM11.75 34.066a16.483 16.483 0 01-8.183-7.1A16.485 16.485 0 011.483 16.55M7.749 5.466a16.56 16.56 0 0110.25-3.533c3.783 0 7.267 1.283 10.067 3.417M24.25 34.066a16.483 16.483 0 008.183-7.1 16.485 16.485 0 002.084-10.416" stroke="#F09205" stroke-width="2" stroke-linecap="round" stroke-linejoin="round"/></svg>