<svg width="24" height="25" fill="none" xmlns="http://www.w3.org/2000/svg"><path d="M20 12.232v1.705c0 3.158-1.8 4.511-4.5 4.511h-9c-2.7 0-4.5-1.353-4.5-4.511V8.521C2 5.363 3.8 4.01 6.5 4.01h2.7c-.13.38-.2.802-.2 1.253v3.91c0 .973.32 1.795.89 2.366.57.572 1.39.893 2.36.893v1.393c0 .512.58.822 1.01.542l2.89-1.935h2.6c.45 0 .87-.07 1.25-.201z" stroke="#AF49FF" stroke-width="1.5" stroke-miterlimit="10" stroke-linecap="round" stroke-linejoin="round"/><path d="M22 5.264v3.91c0 1.494-.76 2.617-2 3.058-.38.13-.8.2-1.25.2h-2.6l-2.89 1.935a.655.655 0 01-1.01-.54v-1.395c-.97 0-1.79-.32-2.36-.892-.57-.57-.89-1.393-.89-2.366v-3.91c0-.451.07-.872.2-1.253.44-1.244 1.56-2.006 3.05-2.006h6.5C20.7 2.005 22 3.31 22 5.264zM7.4 22.057h7.2M11 18.448v3.609" stroke="#AF49FF" stroke-width="1.5" stroke-miterlimit="10" stroke-linecap="round" stroke-linejoin="round"/><path d="M18.495 7.269h.01m-2.809 0h.009m-2.81 0h.01" stroke="#AF49FF" stroke-width="1.5" stroke-linecap="round" stroke-linejoin="round"/></svg>