<svg width="50" height="50" fill="none" xmlns="http://www.w3.org/2000/svg"><path d="M27.104 6.083l12.292 5.459c3.542 1.562 3.542 4.146 0 5.708l-12.292 5.458c-1.396.625-3.687.625-5.083 0L9.729 17.25c-3.541-1.563-3.541-4.146 0-5.708l12.292-5.459c1.396-.625 3.687-.625 5.083 0z" stroke="#2790F0" stroke-width="2" stroke-linecap="round" stroke-linejoin="round"/><path d="M6.25 22.917c0 1.75 1.313 3.77 2.917 4.479l14.146 6.292a4.143 4.143 0 003.375 0l14.145-6.292c1.605-.708 2.917-2.73 2.917-4.48" stroke="#2790F0" stroke-width="2" stroke-linecap="round" stroke-linejoin="round"/><path d="M6.25 33.333a4.91 4.91 0 002.917 4.48l14.146 6.291c1.083.48 2.312.48 3.375 0l14.145-6.292a4.91 4.91 0 002.917-4.479" stroke="#2790F0" stroke-width="2" stroke-linecap="round" stroke-linejoin="round"/></svg>