<svg width="50" height="50" fill="none" xmlns="http://www.w3.org/2000/svg"><path d="M21.855 4.646L11.459 8.542c-2.396.895-4.355 3.729-4.355 6.291v15.48c0 2.458 1.626 5.687 3.605 7.166l8.958 6.688c2.938 2.208 7.77 2.208 10.708 0l8.959-6.688c1.979-1.48 3.604-4.708 3.604-7.167V14.833c0-2.562-1.959-5.396-4.354-6.291L28.188 4.646c-1.771-.646-4.604-.646-6.333 0z" stroke="#2790F0" stroke-width="2" stroke-linecap="round" stroke-linejoin="round"/><path d="M25 22.75h-.27c-1.959-.062-3.521-1.688-3.521-3.667a3.672 3.672 0 013.666-3.666 3.672 3.672 0 013.667 3.666c-.021 2-1.584 3.605-3.542 3.667zm-4.145 5.833c-2 1.334-2 3.521 0 4.855 2.27 1.52 6 1.52 8.27 0 2-1.334 2-3.521 0-4.855-2.25-1.52-5.979-1.52-8.27 0z" stroke="#2790F0" stroke-width="2" stroke-linecap="round" stroke-linejoin="round"/></svg>