<svg width="25" height="25" fill="none" xmlns="http://www.w3.org/2000/svg"><path d="M20.688 8.427c0 .438-.032.865-.084 1.27a3.868 3.868 0 00-4.645 1.23 3.886 3.886 0 00-3.105-1.552c-2.135 0-3.864 1.74-3.864 3.896 0 2.791 1.479 4.927 3.125 6.375-.052.031-.104.041-.156.062-.313.115-.834.115-1.146 0-2.698-.927-8.73-4.76-8.73-11.281 0-2.875 2.313-5.198 5.167-5.198 1.698 0 3.198.813 4.136 2.073a5.164 5.164 0 014.135-2.073c2.854 0 5.167 2.323 5.167 5.198z" stroke="#fff" stroke-width="1.5" stroke-linecap="round" stroke-linejoin="round"/><path d="M22.917 13.27c0 4.876-4.51 7.75-6.531 8.438-.24.084-.625.084-.865 0-.865-.291-2.188-.99-3.406-2.062-1.646-1.448-3.125-3.584-3.125-6.375 0-2.156 1.729-3.896 3.864-3.896a3.89 3.89 0 013.105 1.552 3.869 3.869 0 014.646-1.23 3.89 3.89 0 012.312 3.574z" stroke="#fff" stroke-width="1.5" stroke-linecap="round" stroke-linejoin="round"/></svg>