<svg width="24" height="25" fill="none" xmlns="http://www.w3.org/2000/svg"><path d="M16.97 12.282v4.512c0 3.76-1.5 5.264-5.25 5.264h-4.5c-3.75 0-5.25-1.504-5.25-5.264v-4.512c0-3.76 1.5-5.263 5.25-5.263h4.5c3.75 0 5.25 1.503 5.25 5.263z" stroke="#FF4980" stroke-width="1.5" stroke-linecap="round" stroke-linejoin="round"/><path d="M21.97 7.52a5.494 5.494 0 01-5 5.484v-.722c0-3.76-1.5-5.264-5.25-5.264H11a5.491 5.491 0 015.47-5.013c2.79 0 5.09 2.076 5.44 4.783.04.23.06.481.06.732z" stroke="#FF4980" stroke-width="1.5" stroke-linecap="round" stroke-linejoin="round"/></svg>