<svg width="24" height="25" fill="none" xmlns="http://www.w3.org/2000/svg"><path d="M22 8.292v-4.05c0-1.595-.64-2.237-2.23-2.237h-4.04c-1.59 0-2.23.642-2.23 2.236v4.05c0 1.595.64 2.236 2.23 2.236h4.04c1.59 0 2.23-.641 2.23-2.235zm-11.5.25V3.991c0-1.414-.64-1.986-2.23-1.986H4.23C2.64 2.005 2 2.577 2 3.991v4.541c0 1.424.64 1.986 2.23 1.986h4.04c1.59.01 2.23-.562 2.23-1.976zm0 11.28v-4.05c0-1.595-.64-2.237-2.23-2.237H4.23c-1.59 0-2.23.642-2.23 2.236v4.05c0 1.595.64 2.236 2.23 2.236h4.04c1.59 0 2.23-.641 2.23-2.235z" stroke="#16D72A" stroke-width="1.5" stroke-linecap="round" stroke-linejoin="round"/><path d="M15 15.54h6m-6 4.011h6" stroke="#16D72A" stroke-width="1.5" stroke-linecap="round"/></svg>