<svg width="40" height="40" fill="none" xmlns="http://www.w3.org/2000/svg"><path d="M36.65 18.067a8.476 8.476 0 00-.417-2.334c-1.15-3.6-4.516-6.2-8.483-6.2H23.1c-.967 0-1.033-.1-1.55-.783l-2.333-3.1c-1.084-1.45-1.934-2.333-4.65-2.333h-3.884a7.369 7.369 0 00-7.366 7.366v17.05c0 4.917 4 8.917 8.916 8.917h15.5c4.917 0 8.917-4 8.917-8.917v-9.3c.017-.1.017-.25 0-.366z" fill="#fff" fill-opacity=".5"/><path d="M25.967 32.833c-3.517.25-3.517 5.35 0 5.6h8.35a4.034 4.034 0 002.733-1.05c2.467-2.15 1.15-6.483-2.1-6.883-1.167-7.033-11.35-4.367-8.933 2.333" fill="#fff"/></svg>