<svg width="37" height="37" fill="none" xmlns="http://www.w3.org/2000/svg"><path d="M36.303 15.8l-4.523-1.023a12.72 12.72 0 00-1.42-3.326l2.45-3.902a.863.863 0 00-.128-1.024l-2.386-2.367a.889.889 0 00-1.036-.128l-3.94 2.495a12.987 12.987 0 00-3.36-1.407L20.925.64a.768.768 0 00-.773-.64h-3.359a.761.761 0 00-.774.64l-1.036 4.478c-1.181.306-2.312.78-3.359 1.407L7.683 4.03a.902.902 0 00-1.036.128L4.254 6.525a.87.87 0 00-.128 1.024l2.457 3.902a12.513 12.513 0 00-1.42 3.326L.64 15.801a.761.761 0 00-.64.767v3.327a.761.761 0 00.64.767l4.522 1.024c.31 1.172.789 2.292 1.42 3.326l-2.456 3.902a.883.883 0 00.128 1.024l2.393 2.367a.89.89 0 001.036.128l3.94-2.431c1.047.627 2.178 1.1 3.359 1.407l.774 3.519H5.226a.832.832 0 100 1.663h27.456a.831.831 0 100-1.663H21.315l.806-3.519c1.18-.306 2.311-.78 3.358-1.407l3.94 2.43a.901.901 0 001.037-.127l2.386-2.367a.863.863 0 00.134-1.024l-2.558-3.902a12.72 12.72 0 001.42-3.326l4.522-1.024a.768.768 0 00.64-.767v-3.327a.767.767 0 00-.697-.767zm-.973 3.455l-4.388.96a.755.755 0 00-.582.575 13.057 13.057 0 01-1.555 3.774.672.672 0 000 .832l2.393 3.774-1.484 1.472-3.838-2.367a.69.69 0 00-.845 0 10.332 10.332 0 01-3.806 1.535.755.755 0 00-.582.576l-.972 4.35h-2.028l-.966-4.35a.773.773 0 00-.582-.576 13.244 13.244 0 01-3.838-1.535.69.69 0 00-.845 0l-3.806 2.367-1.478-1.472 2.393-3.774a.672.672 0 000-.832 10.146 10.146 0 01-1.548-3.774.761.761 0 00-.582-.575l-4.523-.96v-2.047l4.395-.96a.754.754 0 00.575-.575 13.056 13.056 0 011.555-3.774.672.672 0 000-.832L6 7.293l1.485-1.471 3.838 2.366a.69.69 0 00.844 0 13.273 13.273 0 013.838-1.599.754.754 0 00.582-.576l.973-4.35h2.002l.966 4.35a.774.774 0 00.582.576 11.79 11.79 0 013.838 1.6.691.691 0 00.845 0l3.838-2.367 1.445 1.47-2.392 3.775a.672.672 0 000 .832 10.145 10.145 0 011.548 3.774.774.774 0 00.582.575l4.395.96v2.047h.121z" fill="#46D7FF"/><path d="M18.602 9.02a9.18 9.18 0 109.276 9.212 9.345 9.345 0 00-9.276-9.212zM24.737 19h1.484a7.997 7.997 0 01-1.612 3.965l-1.1-1.087a.825.825 0 00-1.341.264.814.814 0 00.177.887l1.1 1.088a7.477 7.477 0 01-4.005 1.663v-1.535a.845.845 0 00-1.682 0v1.535a7.477 7.477 0 01-4.004-1.663l1.1-1.088a.812.812 0 000-1.151.825.825 0 00-1.164 0l-1.1 1.087A7.843 7.843 0 0110.912 19h1.485a.832.832 0 000-1.663h-1.485a7.325 7.325 0 011.676-3.966l1.037 1.023a.825.825 0 001.34-.264.811.811 0 00-.176-.887l-1.036-1.024a7.216 7.216 0 014.004-1.599v1.472a.844.844 0 001.683 0V10.62a7.677 7.677 0 014.004 1.663l-1.036 1.024a.811.811 0 000 1.151.825.825 0 001.164 0l1.036-1.023a7.843 7.843 0 011.676 3.966h-1.548a.85.85 0 00-.838.832.795.795 0 00.838.767z" fill="#46D7FF"/><path d="M20.924 17.08l-1.874 1.215-1.919-1.919a.825.825 0 00-1.341.264.813.813 0 00.177.888l2.456 2.43a.889.889 0 001.037.129l2.456-1.6a.756.756 0 00.192-1.087.839.839 0 00-1.184-.32zm13.568 17.911a.812.812 0 000 1.152.825.825 0 001.342-.264.811.811 0 00-.177-.888 1.08 1.08 0 00-1.164 0zm-32.304.001a.812.812 0 000 1.151.825.825 0 001.164 0 .799.799 0 000-1.151.825.825 0 00-1.164 0z" fill="#46D7FF"/></svg>