<svg width="80" height="80" fill="none" xmlns="http://www.w3.org/2000/svg"><path d="M40 26.3l-3.566 6.2c-.8 1.367-.134 2.5 1.433 2.5H42.1c1.6 0 2.233 1.133 1.433 2.5L40 43.7" stroke="#EE7F40" stroke-width="2" stroke-linecap="round" stroke-linejoin="round"/><path d="M27.666 60.134v-3.867C20 51.634 13.7 42.6 13.7 33 13.7 16.5 28.866 3.567 46 7.3c7.533 1.667 14.133 6.667 17.566 13.567 6.967 14-.366 28.867-11.133 35.367V60.1c0 .967.367 3.2-3.2 3.2H30.866c-3.666.034-3.2-1.4-3.2-3.166zm.668 13.199a42.694 42.694 0 0123.333 0" stroke="#EE7F40" stroke-width="2" stroke-linecap="round" stroke-linejoin="round"/></svg>