<svg width="33" height="30" fill="none" xmlns="http://www.w3.org/2000/svg"><path d="M31.753 23.246h-1.33V8.423a1.903 1.903 0 00-1.966-1.892H23.79v-.999a.6.6 0 00-.268-.368L16.462.118a.725.725 0 00-.793 0L8.447 5.164a.594.594 0 00-.263.63v.737H3.848a1.934 1.934 0 00-1.961 1.892v14.823H.694a.699.699 0 00-.694.683v2.47a.683.683 0 00.478.631c8.6 2.576 8.174 2.47 8.337 2.47 15.658 0 14.717 0 14.917-.052l8.173-2.47a.683.683 0 00.479-.631v-2.47a.683.683 0 00-.631-.631zM16.037 10.21l4.993 3.522H10.943c.368-.263 4.51-3.154 5.094-3.522zm6.423 2.891l-3.98-2.786c.847-.683 3.155-2.575 3.98-3.259v6.045zm-8.936-2.786l-4.089 2.839V7.056l4.09 3.26zm-5.361 3.943a.7.7 0 00.583.788h14.492a.72.72 0 00.478-.473c0-.053.053-.158.053-.21V10.42h2.68v10.513H6.003V10.42h2.181l-.021 3.838zM16.037 1.38l5.997 4.31-4.667 3.837c-.332-.21-.65-.438-.957-.683a.641.641 0 00-.741 0l-.957.683L9.934 5.69l6.103-4.31zM3.19 8.423a.6.6 0 01.636-.578h4.357v1.314h-2.87a.652.652 0 00-.636.683V21.67a.651.651 0 00.636.683H27.08a.7.7 0 00.689-.683V9.789a.7.7 0 00-.689-.683h-3.343V7.792h4.668a.636.636 0 01.641.578v14.823H3.138V8.423h.053zm9.235 16.137h7.595v.736h-7.595v-.736zm18.633 1.366l-7.643 2.26H8.926l-7.59-2.26v-1.314H11.1v1.367a.699.699 0 00.689.683h8.878a.7.7 0 00.688-.683v-1.367h9.766v1.314h-.063z" fill="#473BEF"/><path d="M13.167 18.357h-1.325v1.314h1.325v-1.314zm1.966 0h-1.325v1.314h1.325v-1.314zm2.018 0h-1.324v1.314h1.324v-1.314zm1.961 0h-1.325v1.314h1.325v-1.314zm2.018 0h-1.325v1.314h1.325v-1.314z" fill="#473BEF"/></svg>