<svg width="35" height="35" fill="none" xmlns="http://www.w3.org/2000/svg"><path d="M2.915 14.554v-1.43c0-7.29 2.917-10.207 10.208-10.207h8.75c7.292 0 10.209 2.916 10.209 10.208v8.75c0 7.292-2.917 10.208-10.209 10.208h-1.458" stroke="#fff" stroke-width="2" stroke-linecap="round" stroke-linejoin="round"/><path d="M18.96 16.041l7.306-7.32h-5.848m5.845-.001v5.849M16.04 23.552v3.938c0 3.28-1.313 4.593-4.594 4.593H7.51c-3.281 0-4.594-1.312-4.594-4.593v-3.938c0-3.281 1.313-4.594 4.594-4.594h3.937c3.281 0 4.594 1.313 4.594 4.594z" stroke="#fff" stroke-width="2" stroke-linecap="round" stroke-linejoin="round"/></svg>