<svg width="32" height="32" fill="none" xmlns="http://www.w3.org/2000/svg"><path d="M31.387 13.173a1.111 1.111 0 00-1.18.074l-10.905 7.83-2.65-1.904c-.393-.28-.91-.28-1.302 0l-2.652 1.903-9.448-6.782 4.196-2.611c.541-.337.716-1.064.392-1.626A1.12 1.12 0 006.27 9.65L.555 13.206C.22 13.414 0 13.845 0 14.223v14.222C0 30.405 1.538 32 3.429 32H28.57c1.891 0 3.43-1.595 3.43-3.555V14.223c0-.441-.237-.845-.613-1.05zM2.304 28.539c-.002-.033-.018-.061-.018-.095V16.486l8.404 6.034-8.386 6.02zm2.498 1.09L16 21.59l11.199 8.04H4.802zm24.912-1.184c0 .033-.016.061-.018.094l-8.386-6.02 8.404-6.034v11.96z" fill="#39DF7B"/><path d="M22.152 12.948a1.19 1.19 0 00.705-1.095V1.186c0-.479-.279-.911-.705-1.095a1.11 1.11 0 00-1.246.257c-1.95 2.023-4.98 2.023-7.192 2.023H12c-2.206 0-4 1.861-4 4.148 0 2.155 1.599 3.91 3.627 4.11l.967 5.011c.123.638.721 1.059 1.345.93.62-.128 1.02-.753.896-1.395l-.87-4.508c2.187.003 5.061.073 6.941 2.022.327.34.817.442 1.246.259zm-9.58-4.65H12c-.945 0-1.714-.799-1.714-1.779 0-.98.769-1.777 1.714-1.777h.571v3.555zm8 1.241c-1.88-1.01-3.976-1.196-5.715-1.231V4.73c1.74-.036 3.834-.222 5.714-1.231v6.04zm6.857-4.205h2.285c.631 0 1.143.531 1.143 1.185 0 .655-.512 1.186-1.143 1.186H27.43c-.631 0-1.143-.531-1.143-1.186 0-.654.512-1.185 1.143-1.185zM29.255.593c.315.567.128 1.292-.418 1.62l-1.98 1.184a1.12 1.12 0 01-1.56-.433c-.316-.567-.129-1.292.417-1.62L27.694.16a1.12 1.12 0 011.56.433zm-3.959 9.482a1.12 1.12 0 011.561-.434l1.98 1.185c.547.327.733 1.052.418 1.619-.318.57-1.02.758-1.561.434l-1.98-1.185c-.547-.328-.733-1.053-.418-1.62z" fill="#39DF7B"/></svg>