<svg width="80" height="80" fill="none" xmlns="http://www.w3.org/2000/svg"><path d="M28.333 63.233h-1.666c-13.334 0-20-3.333-20-20V26.567c0-13.334 6.666-20 20-20h26.666c13.334 0 20 6.666 20 20v16.666c0 13.334-6.666 20-20 20h-1.666A3.38 3.38 0 0049 64.567l-5 6.666c-2.2 2.934-5.8 2.934-8 0l-5-6.666c-.534-.734-1.733-1.334-2.667-1.334z" stroke="#FF5660" stroke-width="3" stroke-miterlimit="10" stroke-linecap="round" stroke-linejoin="round"/><path d="M26.667 29L20 35.666l6.667 6.667M53.334 29L60 35.666l-6.666 6.667M43.333 27.9l-6.666 15.534" stroke="#FF5660" stroke-width="3" stroke-miterlimit="10" stroke-linecap="round" stroke-linejoin="round"/></svg>