<svg width="72" height="72" fill="none" xmlns="http://www.w3.org/2000/svg"><path opacity=".4" d="M50.4 6H18.63c-6.96 0-12.6 5.64-12.6 12.57v19.11c0 6.96 5.64 12.57 12.57 12.57h10.8c1.65 0 3 1.35 3 3v2.46c0 1.65-1.35 3-3 3h-6.75c-1.17 0-2.13.96-2.13 2.13s.96 2.13 2.13 2.13h23.79c1.17 0 2.13-.96 2.13-2.13s-.96-2.13-2.13-2.13h-6.75c-1.65 0-3-1.35-3-3v-2.46c0-1.65 1.35-3 3-3H50.4c6.96 0 12.57-5.64 12.57-12.57V18.57C62.97 11.64 57.33 6 50.4 6z" fill="#A0FFBB"/><path d="M58.92 28.5H43.05c-5.19 0-7.08 1.89-7.08 7.14v23.19c0 5.28 1.86 7.14 7.08 7.14h15.87c5.19 0 7.08-1.89 7.08-7.14V35.64c0-5.28-1.86-7.14-7.08-7.14zM51 60.96a3.29 3.29 0 01-3.3-3.3c0-1.83 1.47-3.3 3.3-3.3 1.83 0 3.3 1.47 3.3 3.3 0 1.83-1.47 3.3-3.3 3.3z" fill="#36D763"/><path opacity=".4" d="M54.3 57.66c0 1.83-1.47 3.3-3.3 3.3a3.29 3.29 0 01-3.3-3.3c0-1.83 1.47-3.3 3.3-3.3 1.83 0 3.3 1.5 3.3 3.3z" fill="#D9FFE4"/></svg>