<svg width="35" height="35" fill="none" xmlns="http://www.w3.org/2000/svg"><path d="M11.947 13.695a.753.753 0 00.546.18H22.5a.973.973 0 00.547-.18A7.886 7.886 0 0021.593 1.08c-.06-.06-.06-.06-.12-.06A8.26 8.26 0 0017.467 0a7.844 7.844 0 00-4 1.081.06.06 0 00-.06.06 7.856 7.856 0 00-1.46 12.554zm1.64-10.932l.486.901a.758.758 0 00.667.36.769.769 0 00.667-1.14l-.493-.902a5.796 5.796 0 011.802-.48v1.02a.793.793 0 001.58 0v-1.02a5.796 5.796 0 011.802.48l-.487.901a.77.77 0 00.3 1.021.78.78 0 001.034-.3l.486-.901c.502.378.951.823 1.334 1.321l-.913.48a.769.769 0 00-.3 1.022.78.78 0 001.032.3l.907-.48c.26.57.425 1.178.487 1.802h-1.093a.781.781 0 000 1.562h1.033a6.548 6.548 0 01-.487 1.861l-.907-.54a.781.781 0 00-1.033.3.769.769 0 00.3 1.021l.914.541c-.167.213-.35.414-.547.6H12.8c-.186-.18-.367-.42-.547-.6l.907-.54a.769.769 0 00.307-1.022.787.787 0 00-1.034-.3l-.913.54a6.543 6.543 0 01-.48-1.861h.967a.78.78 0 100-1.562H10.98c.075-.62.237-1.227.48-1.802l.913.48a.787.787 0 001.034-.3.769.769 0 00-.307-1.021l-.907-.48a8.85 8.85 0 011.394-1.262z" fill="#45E476"/><path d="M17.467 9.67a1.754 1.754 0 001.76-1.741 1.801 1.801 0 00-1.033-1.622V4.985a.787.787 0 10-1.574 0v1.322a1.802 1.802 0 00-1.033 1.561 1.958 1.958 0 001.88 1.802zm0-1.501a.24.24 0 110-.481.24.24 0 010 .48zm-9.1 23.005a.799.799 0 00-.787-.78H.787a.78.78 0 100 1.56H7.64a.787.787 0 00.727-.78zm-7.58-1.502H3.79a.781.781 0 000-1.561H.787a.8.8 0 00-.787.78.841.841 0 00.787.781zm33.348.781h-6.781a.78.78 0 100 1.562h6.86a.8.8 0 00.786-.78.853.853 0 00-.865-.782zm0-2.283h-3.003a.78.78 0 100 1.562h3.003a.78.78 0 100-1.561z" fill="#45E476"/><path d="M32.333 4.145h-5.766a.78.78 0 100 1.561h5.766a1.057 1.057 0 011.027 1.021v13.995H9.094a.781.781 0 000 1.562H33.36v2.283a1.057 1.057 0 01-1.027 1.02H2.547a1.057 1.057 0 01-1.033-1.02v-2.403h4.39a.744.744 0 00.727-.78.787.787 0 00-.727-.782H1.538V6.667a1.057 1.057 0 011.033-1.02h5.82a.78.78 0 000-1.563h-5.76A2.553 2.553 0 00.084 6.607v17.78a2.553 2.553 0 002.547 2.522h9.52l-1.694 5.706H7.364a.78.78 0 100 1.562h18.902a.78.78 0 00.553-1.333.778.778 0 00-.553-.229h-3.093l-1.7-5.646h10.92a2.552 2.552 0 002.547-2.522V6.667a2.563 2.563 0 00-2.607-2.522zm-10.74 28.53h-9.61l1.73-5.706H19.9l1.693 5.706z" fill="#45E476"/><path d="M3.82 9.43h2.307a.78.78 0 000-1.561H3.82a.799.799 0 00-.787.78.84.84 0 00.787.781zm0 2.223h3.033a.78.78 0 100-1.562H3.82a.799.799 0 00-.787.78.84.84 0 00.787.782zm0 2.282h3.82a.78.78 0 100-1.562H3.82a.8.8 0 00-.787.781.84.84 0 00.787.781zm0 2.223h4.547a.78.78 0 100-1.562H3.82a.8.8 0 00-.787.78.84.84 0 00.787.782zM31.132 9.43a.781.781 0 000-1.561h-2.307a.78.78 0 100 1.561h2.307zm-3.778 1.502a.8.8 0 00.774.78h3.034a.781.781 0 000-1.561h-3.034a.76.76 0 00-.774.78zm-.787 2.222a.799.799 0 00.787.781h3.826a.78.78 0 100-1.562h-3.826a.847.847 0 00-.787.781zm-.727 2.283a.799.799 0 00.787.78h4.553a.781.781 0 000-1.561h-4.613a.746.746 0 00-.727.78zm-9.124 7.508a.78.78 0 11-.012 1.562.78.78 0 01.012-1.562z" fill="#45E476"/></svg>