<svg width="38" height="37" fill="none" xmlns="http://www.w3.org/2000/svg"><path d="M28.503 4.68h-1.868a3.152 3.152 0 00-3.02-2.366h-1.75a3.113 3.113 0 00-6.035.062h-1.7a3.114 3.114 0 00-3.02 2.367H9.198A2.94 2.94 0 006.246 7.67v26.093a2.94 2.94 0 002.952 2.927h19.305a2.94 2.94 0 002.959-2.927V7.607a2.937 2.937 0 00-2.959-2.926zM14.18 3.934h2.392a.828.828 0 00.815-.81 1.576 1.576 0 013.114 0 .828.828 0 00.822.81h2.385a1.557 1.557 0 010 3.114h-9.453a1.551 1.551 0 01-1.57-1.557 1.444 1.444 0 011.445-1.557h.05zm15.725 29.768a1.388 1.388 0 01-1.402 1.37H9.198a1.389 1.389 0 01-1.382-1.37V7.607a1.389 1.389 0 011.382-1.37h1.868a3.226 3.226 0 003.02 2.367h9.797A3.226 3.226 0 0026.635 6.3h1.868a1.389 1.389 0 011.383 1.37V33.7h.019zM2.348 30.4a2.366 2.366 0 102.385 2.367A2.416 2.416 0 002.348 30.4zm0 3.114a.81.81 0 11.816-.81.928.928 0 01-.816.81zM3.5 7.794a1.93 1.93 0 101.962 1.93A1.95 1.95 0 003.5 7.795zm0 2.367a.373.373 0 11.38-.374c.062.187-.125.374-.38.374zm31.45-8.594a2.74 2.74 0 102.764 2.74 2.778 2.778 0 00-2.765-2.74zm0 3.923a1.19 1.19 0 01-1.197-1.183A1.196 1.196 0 1134.95 5.49z" fill="#E8AC12"/><path d="M11.808 21.806h7.797a2.38 2.38 0 002.39-2.366v-6.166a2.38 2.38 0 00-2.39-2.366h-7.797a2.373 2.373 0 00-2.392 2.367v6.165a2.372 2.372 0 002.392 2.366zm-.822-8.532a.829.829 0 01.822-.81h7.797a.829.829 0 01.803.81v6.166a.828.828 0 01-.816.81h-7.784a.829.829 0 01-.822-.81v-6.166zm16.54-2.366h-3.96a.81.81 0 100 1.62h3.96a.829.829 0 00.822-.81.928.928 0 00-.822-.81zm0 2.367h-3.96a.81.81 0 100 1.619h3.96a.828.828 0 00.822-.81.871.871 0 00-.822-.81zm0 2.304h-3.96a.81.81 0 100 1.619h3.96a.828.828 0 00.822-.81.927.927 0 00-.822-.81zm0 2.366h-3.96a.81.81 0 100 1.62h3.96a.829.829 0 00.822-.81.871.871 0 00-.822-.81zm0 2.305h-3.96a.81.81 0 100 1.619h3.96a.829.829 0 00.822-.81.878.878 0 00-.822-.81zm0 2.366H10.232a.81.81 0 100 1.62h17.294a.828.828 0 00.822-.81.878.878 0 00-.822-.81zm0 2.304H10.232a.81.81 0 100 1.62h17.294a.828.828 0 00.822-.81.878.878 0 00-.822-.81zm0 2.367H10.232a.81.81 0 100 1.619h17.294a.829.829 0 00.822-.81.872.872 0 00-.822-.81zm0 2.303H10.232a.81.81 0 100 1.62h17.294a.829.829 0 00.822-.81.928.928 0 00-.822-.81zm0 2.367H10.232a.81.81 0 100 1.62h17.294a.828.828 0 00.822-.81.872.872 0 00-.822-.81z" fill="#E8AC12"/></svg>