<svg width="60" height="61" fill="none" xmlns="http://www.w3.org/2000/svg"><path d="M26.875 56.62h6.3c2.4 0 3.95-1.7 3.5-3.776L35.65 48.32H24.4l-1.025 4.524c-.45 1.95 1.25 3.775 3.5 3.775zm8.775-8.325l4.325-3.85c2.425-2.15 2.525-3.65.6-6.076l-7.625-9.674c-1.6-2.026-4.225-2.026-5.825 0L19.5 38.368c-1.925 2.425-1.925 4 .6 6.075l4.325 3.85m5.6-20.123v6.324m-2.15-21.149l-1.95-1.95a3.002 3.002 0 010-4.25l1.95-1.95a3.003 3.003 0 014.25 0l1.95 1.95a3.002 3.002 0 010 4.25l-1.95 1.95a3.003 3.003 0 01-4.25 0zm20.75 11.55h2.75c1.65 0 3 1.35 3 3v2.75c0 1.65-1.35 3-3 3h-2.75c-1.65 0-3-1.35-3-3v-2.75c0-1.65 1.35-3 3-3zm-37.25 0h-2.75c-1.65 0-3 1.35-3 3v2.75c0 1.65 1.35 3 3 3h2.75c1.65 0 3-1.35 3-3v-2.75c0-1.65-1.35-3-3-3zm34.975.725L33.1 12.37M13.65 25.62L26.9 12.37" stroke="#D02CAC" stroke-width="3" stroke-linecap="round" stroke-linejoin="round"/></svg>