<svg width="38" height="38" fill="none" xmlns="http://www.w3.org/2000/svg"><path d="M26.711 5.072l-8.033 7.996-4.637-4.615L22.075.457c.867-.839 2.603-.493 3.868.79 1.289 1.259 1.636 2.986.768 3.825zM6.875 9.44l2.257-2.764 22.34 22.236-2.95 2.073C26.76 32.737 22 33.848 19.05 33.848H9.43l-3.075 3.06c-1.463 1.456-3.819 1.456-5.257 0A3.678 3.678 0 010 34.292a3.662 3.662 0 011.098-2.616l3.075-3.06V19.04c0-2.79.991-7.873 2.702-9.6zm18.001 9.798l8.034-7.996c.843-.864 2.579-.518 3.843.765 1.29 1.259 1.637 2.986.769 3.825l-8.034 8.02-4.612-4.614z" fill="#28CCAE"/></svg>