<svg width="104" height="102" fill="none" xmlns="http://www.w3.org/2000/svg"><path d="M19.84 38.598l65-.306m-66.956 2.223l32.659 41.95a2.527 2.527 0 004.01-.019l32.26-42.256a2.581 2.581 0 00.135-2.93L75.854 19.538a2.535 2.535 0 00-2.16-1.194l-42.897.202a2.534 2.534 0 00-2.149 1.215L17.721 37.586a2.581 2.581 0 00.163 2.93z" stroke="#fff" stroke-width="4" stroke-linecap="round" stroke-linejoin="round"/><path d="M74.757 20.839L67.34 38.374m0 0L52.246 18.445 37.34 38.515m30-.14l-14.8 42.57-15.2-42.43m-7.582-17.464l7.582 17.465" stroke="#fff" stroke-width="4" stroke-linecap="round" stroke-linejoin="round"/></svg>