<svg width="50" height="50" fill="none" xmlns="http://www.w3.org/2000/svg"><path opacity=".4" d="M25 33.333v6.25" stroke="#66707B" stroke-width="2.5" stroke-miterlimit="10" stroke-linecap="round" stroke-linejoin="round"/><path d="M25 47.917a4.167 4.167 0 100-8.334 4.167 4.167 0 000 8.334z" stroke="#66707B" stroke-width="2.5" stroke-miterlimit="10" stroke-linecap="round" stroke-linejoin="round"/><path opacity=".4" d="M37.5 43.75h-8.334m-8.333 0H12.5" stroke="#66707B" stroke-width="2.5" stroke-miterlimit="10" stroke-linecap="round" stroke-linejoin="round"/><path d="M39.583 17.292v8.75c0 5.833-1.458 7.291-7.291 7.291H17.707c-5.833 0-7.291-1.458-7.291-7.291V11.458c0-5.833 1.458-7.291 7.291-7.291h2.188c2.187 0 2.666.645 3.5 1.75l2.187 2.916c.563.73.875 1.167 2.334 1.167h4.374c5.834 0 7.292 1.458 7.292 7.292z" stroke="#66707B" stroke-width="2.5" stroke-miterlimit="10"/></svg>