<svg width="48" height="48" fill="none" xmlns="http://www.w3.org/2000/svg"><path opacity=".4" d="M44 30c0 7.74-6.26 14-14 14l2.1-3.5M4.001 18c0-7.74 6.26-14 14-14l-2.1 3.5" stroke="#66707B" stroke-width="2.5" stroke-linecap="round" stroke-linejoin="round"/><path d="M27.402 8.9l7.96 4.6 7.88-4.58m-7.879 12.72v-8.16" stroke="#66707B" stroke-width="2.5" stroke-linecap="round" stroke-linejoin="round"/><path d="M33.48 4.42l-4.8 2.66c-1.08.6-1.98 2.12-1.98 3.36v5.08c0 1.24.88 2.76 1.98 3.36l4.8 2.66c1.02.58 2.7.58 3.74 0l4.8-2.66c1.08-.6 1.98-2.12 1.98-3.36v-5.08c0-1.24-.88-2.76-1.98-3.36l-4.8-2.66c-1.02-.56-2.7-.56-3.74 0zM4.697 30.9l7.94 4.6 7.9-4.58m-7.901 12.72v-8.16" stroke="#66707B" stroke-width="2.5" stroke-linecap="round" stroke-linejoin="round"/><path d="M10.778 26.42l-4.8 2.66c-1.08.6-1.98 2.12-1.98 3.36v5.08c0 1.24.88 2.76 1.98 3.36l4.8 2.66c1.02.58 2.7.58 3.74 0l4.8-2.66c1.08-.6 1.98-2.12 1.98-3.36v-5.08c0-1.24-.88-2.76-1.98-3.36l-4.8-2.66c-1.04-.56-2.72-.56-3.74 0z" stroke="#66707B" stroke-width="2.5" stroke-linecap="round" stroke-linejoin="round"/></svg>