<svg width="37" height="39" fill="none" xmlns="http://www.w3.org/2000/svg"><path d="M34.5 3.288H21.063v-.864a2.554 2.554 0 00-5.101 0v.864H2.527a2.527 2.527 0 000 5.055v16.428a4.41 4.41 0 004.43 4.39h9.89v7.05a2.081 2.081 0 104.164 0v-7.183h8.999a4.41 4.41 0 004.436-4.39V8.277A2.54 2.54 0 0037 5.749a2.468 2.468 0 00-2.5-2.46zm-15.112 32.79a.432.432 0 01-.406.4.446.446 0 01-.472-.4v-7.05h.878v7.05zM32.81 9.94H19.388a.865.865 0 100 1.73H32.81v13.1a2.747 2.747 0 01-2.754 2.727H6.957A2.753 2.753 0 014.21 24.77V8.277h28.547v1.662h.053zm1.683-3.325H2.567a.865.865 0 010-1.73h14.307a.885.885 0 00.871-.864V2.424a.882.882 0 011.763 0v1.663a.885.885 0 00.87.864h14.307a.885.885 0 01.878.865c-.259.399-.658.798-1.064.798h-.006z" fill="#3384F0"/><path d="M16.847 11.602a.864.864 0 10-.87-.864.931.931 0 00.87.864zm10.935 14.1h2.554a.885.885 0 00.871-.864v-9.112a.884.884 0 00-.871-.865h-2.554a.884.884 0 00-.872.865v9.178a.871.871 0 00.872.798zm.805-9.112h.897v7.516h-.878l-.02-7.516zm-5.84 9.112h2.48a.885.885 0 00.878-.864v-7.45a.885.885 0 00-.877-.864h-2.554a.885.885 0 00-.872.865v7.515a1.004 1.004 0 00.945.798zm.805-7.449h.87v5.853h-.87v-5.853zm-6.705.799v5.853a.884.884 0 00.871.864h2.555a.884.884 0 00.87-.864v-5.853a.885.885 0 00-.87-.865h-2.555a.938.938 0 00-.87.865zm1.676.864h.878v4.19h-.891l.013-4.19zm-6.731 1.064v3.924a.884.884 0 00.878.865h2.481a.884.884 0 00.878-.864V20.98a.885.885 0 00-.878-.864h-2.547a.878.878 0 00-.812.864zm1.683.799h.871v2.26h-.87v-2.26zm-4.163-3.526h-3.36v1.663h3.36v-1.663zm3.358-1.663H9.313v1.663h3.359v-1.662zm-3.358-1.662h-3.36v1.662h3.36v-1.662zm3.358-1.663H9.313v1.663h3.359v-1.663zm-3.358-1.663h-3.36v1.663h3.36v-1.663zM12.67 9.94H9.313v1.662h3.359V9.94z" fill="#3384F0"/></svg>