<svg width="40" height="26" fill="none" xmlns="http://www.w3.org/2000/svg"><path d="M17.349 9.706v0c0 5.495-3.684 10.52-8.188 14.06.66-1.253 1.262-2.705 1.555-4.2l.25-1.274-1.296.084a7.785 7.785 0 01-4.647-1.19 8.525 8.525 0 01-3.242-3.781 9.193 9.193 0 01-.677-5.09 8.92 8.92 0 012.138-4.601 8.066 8.066 0 014.172-2.51 7.713 7.713 0 014.761.403c1.516.637 2.826 1.745 3.752 3.189a9.089 9.089 0 011.422 4.91zm21.651 0v0c0 5.496-3.682 10.521-8.188 14.062.66-1.254 1.263-2.707 1.555-4.202l.25-1.274-1.295.084a7.785 7.785 0 01-4.648-1.19 8.516 8.516 0 01-3.241-3.781 9.193 9.193 0 01-.678-5.09 8.92 8.92 0 012.138-4.601 8.066 8.066 0 014.172-2.51 7.712 7.712 0 014.762.403c1.516.637 2.825 1.745 3.751 3.189A9.089 9.089 0 0139 9.706z" stroke="#122428" stroke-opacity=".25" stroke-width="2"/></svg>