<svg width="60" height="60" fill="none" xmlns="http://www.w3.org/2000/svg"><path d="M5 30.875h14.5c3.825 0 6.45 2.9 6.45 6.45v8.05c0 3.55-2.625 6.45-6.45 6.45h-8.05c-3.55 0-6.45-2.9-6.45-6.45v-14.5m0 0C5 15.75 7.825 13.25 16.325 8.2" stroke="#386FFB" stroke-width="3" stroke-linecap="round" stroke-linejoin="round"/><path d="M34.075 30.875h14.5c3.825 0 6.45 2.9 6.45 6.45v8.05c0 3.55-2.625 6.45-6.45 6.45h-8.05c-3.55 0-6.45-2.9-6.45-6.45v-14.5m0 0C34.075 15.75 36.9 13.25 45.4 8.2" stroke="#386FFB" stroke-opacity=".4" stroke-width="3" stroke-linecap="round" stroke-linejoin="round"/></svg>