<svg width="44" height="44" fill="none" xmlns="http://www.w3.org/2000/svg"><path d="M22 26.363a4.363 4.363 0 100-8.727 4.363 4.363 0 000 8.727z" fill="#fff"/><path opacity=".4" d="M36.667 34.375a1.376 1.376 0 01-1.1-2.2A16.81 16.81 0 0038.959 22a16.81 16.81 0 00-3.392-10.175 1.375 1.375 0 012.2-1.65c2.585 3.428 3.942 7.517 3.942 11.825 0 4.308-1.357 8.397-3.942 11.825-.275.367-.678.55-1.1.55zm-29.333 0c-.422 0-.825-.183-1.1-.55C3.649 30.397 2.292 26.308 2.292 22c0-4.308 1.357-8.397 3.942-11.825a1.376 1.376 0 012.2 1.65A16.81 16.81 0 005.042 22a16.81 16.81 0 003.392 10.175 1.375 1.375 0 01-1.1 2.2zm23.466-4.4a1.376 1.376 0 01-1.1-2.2A9.474 9.474 0 0031.625 22c0-2.108-.66-4.107-1.925-5.775a1.376 1.376 0 012.2-1.65A12.34 12.34 0 0134.375 22a12.3 12.3 0 01-2.475 7.425c-.275.367-.678.55-1.1.55zm-17.6 0c-.422 0-.825-.183-1.1-.55A12.34 12.34 0 019.625 22a12.3 12.3 0 012.475-7.425 1.376 1.376 0 012.2 1.65A9.475 9.475 0 0012.375 22c0 2.108.66 4.107 1.925 5.775a1.376 1.376 0 01-1.1 2.2z" fill="#fff"/></svg>