<svg width="80" height="80" fill="none" xmlns="http://www.w3.org/2000/svg"><path d="M79.2 40.16l.269-.235-.378-1.247.11 1.481zm-1.796-12.723c-.163-.251-.338-.564-.523-.882a15.846 15.846 0 00-.606-.948c-.387-.59-.791-1.018-1.06-.917.44.547.822 1.133 1.24 1.711-.124.37-.11.773.04 1.133.135.503.395 1.085.61 1.645a11.275 11.275 0 00-.44-1.283c.168.313.352 0 .52.33.156.768.388 1.518.689 2.24a5.51 5.51 0 01.343 2.206l-.066-.097.54 1.45c0 .485-.22.327-.312.186.198.652.387 1.234.554 1.878.163.754.26 1.522.29 2.293.17-.403.225-.846.158-1.279-.05-.5-.148-.993-.295-1.473-.144-.477-.26-.963-.347-1.455a2.572 2.572 0 01.022-1.283l.062.097a18.884 18.884 0 01-.628-2.778 12.052 12.052 0 00-.791-2.774z" fill="#D0EEFF"/><path d="M78.388 34.193l-.04-.114c-.022.013 0 .061.04.114zM22.041 4.322v.146c.07-.066.14-.176 0-.146zm22.154-2.477l-.101-.031c-.163.154-.084.123.1.03zM57.35 76.097l.478-.044a.408.408 0 00-.479.044zm11.364-11.725l-.154-.057c.031.106.084.115.154.057zm4.797-7.99c.147-.212.277-.436.387-.67a1.584 1.584 0 00-.387.67zm3.989-2.288c0-.093.023-.199.04-.305-.02.1-.032.202-.04.305zM57.735 73.02l-.514-.2c.07.12.299.16.514.2zm16.4-18.865c.13-.108.236-.242.312-.392a.727.727 0 00-.312.392zm2.553-28.587c.12.301.259.596.412.882a3.586 3.586 0 00-.412-.882zM10.9 62.86c.071.03.149.04.225.03-.14-.136-.202-.11-.224-.03zm25.925 14.216h.1a.627.627 0 00-.122-.075l.022.075zm-8.709-1.75a.755.755 0 00.14-.05.356.356 0 00-.14.05zm15.377 1.296c.104-.042.201-.098.29-.167-.101.061-.198.11-.29.167z" fill="#D0EEFF"/><path d="M49.836 75.877c-.316-.062-.057-.282.194-.494a6.224 6.224 0 00-.993.238c-.286.08-.536.172-.791.265a7.139 7.139 0 01-.813.238c-.353.056-.71.077-1.067.061l.8.062a7.09 7.09 0 01-1.982.582 4.763 4.763 0 01-1.981-.053l.285-.154a4.098 4.098 0 01-1.735.141c-.584-.062-1.085-.128-1.318 0 .44.168 0 .282.637.441-.44.062-.879.146-1.318.19l-1.318.136-.176-.56c-.439.049-.913.062-1.37.093.158.119-.3.048-.8 0-.5-.049-1.054-.11-1.107.145-.751-.295.378-.374.677-.55-.782.052-.83-.173-1.582.026l-.663-.609c-.677 0-1.345-.03-2.021-.07.11 0 0-.08.1-.106a1.868 1.868 0 01-.777-.031c-.272-.07-.553-.172-.843-.265-.287-.1-.58-.176-.879-.229a2.439 2.439 0 00-.962 0c.066 0 .057-.03.083-.057-.742.176-2.135-.68-2.636-.975-.984-.344-.584.247-.702.441-1.38-.674-1.81-.97-2.254-1.115-.444-.146-.879-.212-2.13-.618-.51-.666 0-.621.47-.617.47.004.851 0 .131-.653a2.19 2.19 0 01-1.116-.251c-.263-.11-.562-.23-.879-.392-.316-.164-.623-.349-.953-.547l-.413-.388-.44-.441c-.307-.313-.645-.63-.957-.975-.312-.344-.61-.697-.878-1.032a7.63 7.63 0 01-.655-.983l-.171.384-.782-.596-.752-.63c.4.136.782.273 1.178.392-.316-.114-1.156-.652-1.758-.992-1.585-1.323-.118-1.407-1.546-2.253a1.283 1.283 0 010-.194A2.64 2.64 0 019.92 62c-.36-.463-.782-1.04-1.23-1.663l.711.168c.141.3.308.582.466.882.088-.701-.97-1.297-1.458-2.134-.646-.78-.756-.137-1.16-.538a5.438 5.438 0 00-.347-.534 1.201 1.201 0 01-.216-.538c-.268-.882.492-.357.804-.216-.795-.44-.878-.692-1.783-2.178.189-.185.338-.11.474.075a1.491 1.491 0 00-.707-.63l.057-.658a2.736 2.736 0 00-.391-1.089 3.404 3.404 0 00-.571-.675 4.66 4.66 0 01-.615-.793 4.009 4.009 0 01-.492-1.323c.224.264.048-.216-.114-.882-.163-.666-.374-1.486-.26-1.879.224.785.664-.524 1.046-.101-.066-.917-.246-1.072-.44-1.177-.193-.106-.439-.168-.61-.913l.703.511c-.44-1.389-.378-.295-.76-1.764.224.384.097-.67.395.177-.057-.957-.079-1.323-.096-1.636a11.27 11.27 0 010-1.464L2.71 40.9a1.035 1.035 0 01.298-.948c0 .234 0 .6.075.564.505-.657-.281-1.084.21-1.838-.197.176-.47.388-.487-.322.347.238.44-1.059.58-1.098-.145.211-.15-.164-.162-.609-.014-.445 0-.961-.207-1.036.382-.776.26.29.44.357-.19-.357-.137-1.067 0-1.764.15-.554.222-1.127.215-1.702.04 0 .07-.035.096-.026a10.804 10.804 0 01.044-1.72c.093-.683.158-1.49.242-2.381.048.23.088.44.15.675.338-.808.254-1.112.135-1.398a1.291 1.291 0 010-1.235c.176.234.391-.335.594-.882.202-.547.439-.992.549-.586.048-.441.14-.909.202-1.323.069-.379.078-.766.026-1.147.628-.617-.114 1.724.54.759l.339-1.2.342-.066c-.153-.137.378-1.093.211-1.124.378 0 .817-.318 1.002-.142.338-.705 1.164-1.455 1.318-2.134l.162.044c-.074-.974 1.318-1.949 1.068-2.645l.575-.155c.73-.934.106-1.19.37-1.71.326-.42.683-.813 1.067-1.178-.4.714-.176.648.193.406a5.97 5.97 0 011.107-.68c.44-.44 1.758-1.644 1.955-2.204-.373.714.15.626-.83 1.504.47 0 .813-.358 1.204-.816a7.48 7.48 0 011.458-1.42l.159.238c1.577-1.38 1.401-1.764 1.915-2.703.4.159.264.353-.053.979.753-.376 1.486-.79 2.197-1.24a22.812 22.812 0 012.363-1.238c.554 0 .312.29-.11.604 1.35-.957 3.34-1.323 4.117-2.236-.303.362.672-.062 1.287-.097-.035-.123.031-.313.106-.313a10.015 10.015 0 014.235-1.208l-.391.251a15.023 15.023 0 001.757-.357c.264-.07.514-.154.764-.234l.765-.207a7.67 7.67 0 013.554-.247c.532.146-.554.494.532.507.268-.106.36-.282.562-.405.202-.124.514-.208 1.208-.084l-.145.401.98-.34c-.44-.37-2.039-.374-.914-.665a1.81 1.81 0 001.252.101c.483-.078.979.006 1.41.238-.396.05-.779.179-1.124.38 1.237.321 2.5.538 3.773.648.558.083 1.116.158 1.722.304.685.187 1.35.44 1.986.754 1.63.176 3.59.908 4.732 1.124a1.185 1.185 0 01-1.2.653c1.213.586 2.197.08 2.772 1.045.44-.097 1.292.309 2.144.675.852.366 1.66.745 2.008.529-.04.167 1.226.882-.215.388 1.717.882 1.594 2.033 2.267 2.549.386.29-.11-.746.742-.036.083.115.057.194.136.309l.44.141c.21.441-.62-.022-.778.106.242.264.513.499.808.701.273.199.545.384.84.56.294.177.592.362.904.587.333.248.649.52.945.81l-.317-.131c.207.229.44.44.629.688l.58.736-.106-.053c.4.317.804.635 1.178.983l-.185.088c.255.239.404.225.725.596l-.294.026c.2.064.388.164.553.296.229.178.444.373.646.582.22.225.44.467.633.697.168.204.323.42.465.643v.203l.769.74.725.755c.32 1.09-1.213-.93.04.882l-.725-.238c.33.419.6.882.803 1.376.158.378.352.74.58 1.08.044-.547-.342-1.177.115-.798a2.21 2.21 0 00.562 1.486c.162.19.351.37.536.564.193.212.37.438.531.675-.228-.556-.373-.94-.821-1.19-.25-.578.154-.318 0-.684-.21-.234-.413-.468-.633-.692l.198-.384-.949-1.248c.404-.11-.659-1.257 0-.944-.672-.882-.777-1.534-1.652-2.138-.189-.759.879.811.488.132a57.83 57.83 0 00-9.068-9.701l.44.128c-.44-.124-.997-.375-1.345-.441a7.309 7.309 0 00-1.63-1.64 7.899 7.899 0 00-1.19-.759 2.629 2.629 0 00-1.072-.295c-.11-.102.132-.067.246-.053-.659-.358-1.55-.913-2.526-1.508a45.92 45.92 0 00-1.533-.83 14.986 14.986 0 00-1.56-.66c-.531.123-1.26-.208-1.99-.539-.73-.33-1.49-.551-1.986-.238l.47-.057c.629.44-1.15.3-1.484.472-.44-.693.065-.441-.515-1.116l.782.388-.07-.507a6.093 6.093 0 01-2.016.022 13.333 13.333 0 01-1.758-.441A14.178 14.178 0 0043.941.23a2.684 2.684 0 00-1.406.15c.105-.04.083-.119.198-.154a2.312 2.312 0 00-.734-.137 3.3 3.3 0 00-.703.124c-.44.128-.852.309-1.26.38-.098-.24.491-.376.93-.548a8.045 8.045 0 00-1.704 0c-.628.049-1.318.097-1.968.208a30.77 30.77 0 01-3.81.41c-.702.44.352.37-.386.75-.667.03-1.19-.137-.404-.442a3.502 3.502 0 00-.835 0c-.33.043-.659.104-.984.181-.77.187-1.53.423-2.27.706-.4.132-.8.3-1.2.44l-1.195.442c-.738.3-1.495.551-2.267.75-1.235.965-.334.67-2.271 1.93.377-.44-.857-.44.369-1.097l.04-.296a23.515 23.515 0 00-3.296 1.843 11.04 11.04 0 00-1.318 1.08c-.32.304-.59.659-.795 1.05-.364-.38-.408.15-1.26.48-.247.27.074.04.206-.021-.396.882-1.028.78-1.441 1.243l.105-.211c-.351.44-.707.882-1.04 1.322-.247.142-.616.358-.77.283l.26.26c-.637.626-.655-.053-1.362.829h.355c-.606.397-1.111 1.468-1.489 1.323-.079-.031.04-.115.193-.313a3.706 3.706 0 00-1.436 1.446 9.612 9.612 0 01-1.318 1.817l.672.066c-.615 1.186-.567.59-.703.44a5.196 5.196 0 01-.676.786c-.298.309-.571.64-.818.992-.188.569 0 .37.062.617-.255.313-.483.644-.725.966l.11-.838a4.546 4.546 0 01-.44 1.508c-.223.49-.478.988-.742 1.46a9.658 9.658 0 00-.646 1.384 2.27 2.27 0 00-.18 1.2c-.404.586-.074-.719-.334-.353a7.75 7.75 0 00-.703 1.574c-.175.569-.298 1.164-.439 1.764a13.528 13.528 0 01-.795 3.091c-.132.349-.264.71-.37 1.08-.105.37-.184.759-.263 1.147a22.273 22.273 0 00-.356 2.403c-.087.82-.123 1.654-.188 2.487 0 .441-.036.834-.062 1.252-.026.42-.079.834-.079 1.248l.154-.061c0 .785-.057 1.574 0 2.363.205.46.34.95.4 1.451.096.583.276 1.15.536 1.68-.132-.062-.295.176-.413-.035.22.983.553 2.015.5 2.645l-.206-.3c.1.547.215 1.147.351 1.764.137.618.33 1.213.501 1.764.276.913.669 1.786 1.169 2.598.312.687.044.78-.062 1.04a9.106 9.106 0 001.7 2.725c.085.298.138.604.159.913l.575.238c.22.494-.215.265-.088.684.68.782 1.284 1.626 1.806 2.522a23.1 23.1 0 001.472 2.205l.026-.278c.47.366.962 1.415.382.996.364.516.774.998 1.226 1.438.417.401.878.736 1.318 1.098.922.71 1.963 1.446 3.347 2.686 0 .44.681.921 1.375 1.406.695.485 1.42.935 1.437 1.407.73.348 1.257.736 1.757 1.036a4.167 4.167 0 001.586.604c0 .084.097.181-.132.07.443.411.963.729 1.53.935.782.314 1.581.584 2.394.808v.25c.369-.136 1.16.111 1.968.287.808.177 1.612.366 1.96.186.135.154-.348.132-.585.145a1.317 1.317 0 001.09.401c.444-.023.89.028 1.317.15-.11.102.158.314-.079.353 1.648.706 3.835.983 6.15 1.067 2.316.084 4.719-.053 7.03-.088 1.27-.101-.506-.467 1.138-.63.51.198-.747.621.316.6.279-.173.585-.295.905-.362.285-.07.61-.106 1.12-.181-.154.203.035.282-.663.525a5.29 5.29 0 001.603-.358 5.225 5.225 0 012.056-.392c-.096-.137.088-.282.277-.441.4-.221.829-.386 1.274-.49a12.05 12.05 0 011.287-.273c.809-.119 1.428-.207 1.459-.353 0 0 .545-.29.03-.145.313-.124.635-.223.963-.296.285-.066.492-.075.47.075.234-.329.533-.606.878-.815l-.127.379c.242-.181.47-.48.712-.64-.163 0-.325 0-.488.027.773-.084 1.757-1.283 1.995-.759l-.216.124c.44-.124.879-.296 1.318-.441.184-.25.386-.484.607-.701.272-.273.585-.502.927-.68.628.31 2.038-1.203 2.978-1.891l.084.194c.575-.767 2.407-2.236 2.025-2.028.659-.6 1.62-1.345 1.428-.904.232-.287.606-.72.927-1.142a2.37 2.37 0 00.588-1.08l1.318-.79c0-.564.501-1.107.94-1.566.44-.458.778-.881.497-1.137.567-.595.606-.34 1.032-.732a6.386 6.386 0 01.69-1.618c.277-.516.593-1.01.914-1.508h.083c.314-.56.569-1.152.76-1.764.224-.675.44-1.411.743-2.17l.667-.097c.238-.85-.083-1.195.29-1.931.15-.15.119.03.08.251.207-.82.521-1.609.935-2.346-.044-1.323.299-2.205.092-3.369.334-.44.339-.057.308.322-.03.38-.07.776.26.441.167-.427.291-.87.368-1.323.09-.45.153-.905.185-1.362a23.16 23.16 0 000-2.862c.123-.159.197.066.316.154l-.189-.635a9.61 9.61 0 00-.488-1.323c-.395-.882-.878-1.67-1.155-1.322-.391-.477-.597-.988-.949.582.144.395.23.81.255 1.23.022.472-.057.882-.281 1.023l.4.123c0 1.067-.207 1.09-.44 1.164-.233.075-.514.195-.663 1.43l.198-.503c-.027.467.166.881-.062 1.384-.14.137-.136-.207-.189-.44.053.705.14 1.428.145 2.142-.25.035-.351-.07-.44-.507-.412 1.852.827-.216.12 2.029-.295.357-.19-.212-.255-.543a3.23 3.23 0 00-.497 1.358c-.053.441-.07.93-.15 1.495-.346-.106-.074-.776-.584 0 .238-.11.572-.119.383.564-.119-.224-.207-.114-.303.133-.117.311-.25.616-.4.913.167-.084.307.026.268.304a7.317 7.317 0 01-.48.992c.234-.207.44-.441.66-.644a2.461 2.461 0 01-.58 1.39c-.281.348-.584.639-.879 1.005a.821.821 0 01.066-.441c-.28.392-.597.771-.878 1.2-.32.454-.56.96-.712 1.494v-.115a2.45 2.45 0 00-.242.882c.022.11.128.088.229.07.193-.026.364-.026-.216 1.2-.544.692-.733-.992-1.533.882.4-.295.365.075.158.657a13.24 13.24 0 01-.948 1.843l.188-1.384c-.294.357-.628 1.124-.878 1.26l.162.058c.255.159 0 .441-.364.767-.18.172-.378.362-.563.552a1.88 1.88 0 00-.439.612c.127-1.322.255-1.256-.224-1.935-.087.48-.245.943-.47 1.376a5.217 5.217 0 01-.44.723 5.724 5.724 0 01-.711.714c.145-.44.299-.847.44-1.288a12.195 12.195 0 00-1.93 2.47c-.149.22-.29.44-.439.666l-.44.635c-.276.44-.526.833-.781 1.177.075-.635-.554-.37-.237-1.111-.47.405-.971.776-1.454 1.173l.136-.728c-.308.882-1.23 1.019-.752 1.526.123-.19.058-.238.374-.42.075.195.03.724-.817 1.231-.646.216.193-.44-.066-.494-.382.578-.655.199-1.112.697l.65-.04c-.206.56-.926.565-1.405 1.041.61-.52.268-.6-.092-.661l.061.026c-.4.234-.83.763-1.221.71l.11-.666-.44.67c-.263.058-.51-.04-.162-.322-1.033.3-.879.547-.853.825a.394.394 0 01-.149.441c-.372.246-.8.398-1.243.441-.031-.216.21-.441.953-.63 0-.362-.26-.442-1.006-.278 0 0 0-.036-.026-.053l-1.059.414c-.365.141-.742.265-1.098.406a8.983 8.983 0 00-1.736.86z" fill="#D0EEFF"/><path d="M53.764 74.192a7.587 7.587 0 001.542-.75c-.304.04-.6.129-.878.261-.391.168-.747.33-.663.49zM24.263 6.36a2.592 2.592 0 00-.242.167l.242-.167zm5.751-2.306a.818.818 0 00-.347-.027c.03.106.127.159.347.027zM8.14 21.6c.114-.552.092-.808 0-.883a.907.907 0 000 .882zM3.73 32.517c.005.079.015.157.03.234.005-.176-.004-.225-.03-.234zm3.527 24.328a3.829 3.829 0 01-.545-.723c-.163-.282-.32-.573-.488-.825.165.285.311.58.44.882.115.285.324.52.593.666zM37.425 2.193l-.606.317.642-.242-.035-.075zM31.63 3.22c-.272 0-1.234.393-.909.468.283-.193.589-.35.91-.468zM12.248 14.116l.044.384.193-.538-.237.154z" fill="#D0EEFF"/></svg>