<svg width="40" height="40" fill="none" xmlns="http://www.w3.org/2000/svg"><path d="M35.783 31.667V8.333c0-3.333-1.666-5-5-5h-6.666c-3.334 0-5 1.667-5 5v23.334c0 3.333 1.666 5 5 5h6.666c3.334 0 5-1.667 5-5zM19.117 10h8.333m-8.333 20h6.666m-6.666-6.75l8.333.083m-8.333-6.666h5M9.15 3.333c-2.717 0-4.934 2.217-4.934 4.917v21.6c0 .75.317 1.883.7 2.533l1.367 2.267c1.567 2.617 4.15 2.617 5.717 0l1.366-2.267c.384-.65.7-1.783.7-2.533V8.25c0-2.7-2.216-4.917-4.916-4.917zm4.916 8.334h-9.85" stroke="#6574FC" stroke-width="2" stroke-linecap="round"/></svg>