<svg width="50" height="51" fill="none" xmlns="http://www.w3.org/2000/svg"><path d="M4.168 21.268v-2.042c0-10.417 4.167-14.583 14.583-14.583h12.5c10.417 0 14.584 4.166 14.584 14.583v12.5c0 10.417-4.167 14.584-14.584 14.584h-2.083" stroke="#715AFF" stroke-opacity=".3" stroke-width="2" stroke-linecap="round" stroke-linejoin="round"/><path d="M27.082 23.393L37.52 12.935h-8.355m8.355 0v8.354M22.918 34.121v5.625c0 4.688-1.875 6.563-6.563 6.563H10.73c-4.687 0-6.562-1.875-6.562-6.563v-5.625c0-4.687 1.875-6.562 6.562-6.562h5.625c4.688 0 6.563 1.875 6.563 6.562z" stroke="#715AFF" stroke-width="2" stroke-linecap="round" stroke-linejoin="round"/></svg>