<svg width="38" height="34" fill="none" xmlns="http://www.w3.org/2000/svg"><path d="M22.863 11.596l.014.104.078-.133-.092.03zm.792.054c.052-.124.165-.212.136-.429l-.09.21c-.041-.16-.115-.14-.178-.076l.076-.02c-.016.022 0 .123 0 .148-.13-.067-.14.16-.272 0v-.018l-.084.113c-.031-.022-.024-.1-.017-.13-.075.092-.133.187-.25.18.103.298.238-.242.344.047v.018c.092-.124.236.05.335-.043zm3.438.418l.02-.043a.06.06 0 00-.02.043zm-1.009-.902c.017-.042.03-.058 0 0zm6.399 4.809l-.025.07c.038-.052.04-.07.025-.07zm1.285-.045l.036-.05c-.02.025-.036.038-.036.05zm.511.275a.075.075 0 00.015.052c.014-.032.005-.052-.015-.052zm-1.065-.892l.09-.133a.983.983 0 00-.09.133zm1.254.894a.102.102 0 00-.014.061c.016-.027.025-.05.014-.06zm-10.7-4.584a.104.104 0 00-.052.03c.023.009.039-.005.052-.03zm7.233 1.447a.351.351 0 00.047-.04c-.018.003-.033.02-.047.04zm1.373 1.27v-.023.023zm-.407-.352l.03-.02a.083.083 0 00-.03.02zm.815.515a.2.2 0 00.05-.025l-.05.025z" fill="#6C60F2"/><path d="M32.946 14.89a.25.25 0 01.129-.1c-.018-.123-.178 0-.156-.172l-.02.088c-.126.036-.225-.03-.167-.179l.05-.025c-.133.048-.04-.187-.135-.128-.03.067-.074.076-.09.151l-.205-.016.14-.162h-.11c-.044.076-.035-.127-.174.018.018-.088.124-.104.194-.152-.077.014-.019-.056-.133 0l.092-.167-.18.014c.016 0 .02-.025.036-.034-.149.077-.04-.165-.28-.014a.241.241 0 00.025-.02c-.128.08-.126-.063-.132-.11-.07-.016-.14.112-.194.169-.104-.158-.067-.11-.329-.048.088-.225.331-.207.354-.406a.346.346 0 01-.306.059 1.152 1.152 0 01-.036-.432l-.093.122-.144-.013.194-.124c-.047.027-.155.06-.225.092-.18.025.157-.3-.063-.183l.022-.043c-.097.07-.133-.015-.225-.038l.149-.133.022.072c.093-.17-.101-.038-.14-.086-.09.014-.164.158-.224.183-.012-.02-.072 0-.052-.052a1.05 1.05 0 01.202-.24c-.162.13-.157.1-.29.1.052-.079.083-.106.106-.113a.28.28 0 00-.133.088l.04-.11c0-.204-.313.225-.389.085.092-.063-.11-.054-.072-.178.058 0 .146-.246.24-.325-.053-.124-.172.16-.274.144l.171-.176c-.135.034-.094.093-.211.102.06-.043 0-.077.092-.108-.083-.09-.07-.052-.142-.136l-.14.19c-.042 0 0-.093.02-.133.014 0 .028.024.044 0 .078-.193-.12.056-.057-.125-.029.068-.076.163-.119.15.09-.114.016-.148.047-.2-.031.098-.103-.013-.193.116.015-.118.074-.086.119-.152-.133.134-.16-.072-.25 0l.016-.029c-.104.066-.192.043-.365.127l.102-.098c-.061-.103-.2.21-.275.165.112-.155-.13-.058.011-.225a1.005 1.005 0 00-.284.212c0-.118.212-.183.178-.264l-.112.054.038-.097c-.04.065-.1.04-.126.095.05-.116.065-.206.113-.29-.059.012-.064-.124-.15-.045l.026-.056c-.147.185-.151-.025-.28.178l.032-.129c-.074 0-.169.226-.225.251-.03 0-.07 0-.088-.025.149-.099.038-.187.056-.273a.168.168 0 00-.213.05c.09-.095.105-.197.182-.172.056-.226-.133 0-.203-.065l.045-.1c-.148.016-.225.188-.342.341a.626.626 0 01.144-.268c-.047-.109-.207-.07-.29-.12a.188.188 0 01.085-.174c-.13.063-.209-.097-.342.11.052-.083-.02-.07-.04-.123a.38.38 0 01-.043.097c-.088.074-.225.121-.282.022l.043-.06c-.15-.082-.313.3-.45.094-.02-.056.072-.185 0-.194-.047.079-.074.26-.144.196l.036-.153-.083.146c0 .131.096.102 0 .226-.043-.155-.086.133-.14-.052a.758.758 0 00.095-.185c-.156-.214-.275.11-.433-.104-.105.113-.225.127-.292.24.004-.141.029-.28.074-.414-.081-.024-.135.328-.18.095-.047.213-.225.127-.24.43 0-.062-.08 0 0-.17-.1.1-.143-.258-.194-.255-.052.002.04.19-.023.198a.565.565 0 00-.02-.056l-.018.072c-.03-.067.015-.149.015-.226-.096-.056-.135.183-.225.215l.014-.054h-.108v-.018l-.072.117v-.077c-.018.023-.016.073-.04.086v-.097a.272.272 0 01-.143.253l-.015-.04-.086.21c-.076-.093.043-.24-.067-.147v-.2c-.077.089-.106-.013-.156.064.043.093.081.072.066.165-.104-.212-.102.072-.158.174.036 0 .058 0 .065-.127.036 0 .027.1.052.107l.034-.118.034.131.07-.12c.017.156.08 0 .074.177.05-.075.099.031.128-.134.054.088-.045.124 0 .133a.794.794 0 01.675-.121l-.02.072c.02-.072.045-.131.06-.183.044.122.179.284.24.052v.065c.076-.022.213.145.32.131.067-.241.14.17.224-.162l-.031.067c-.027-.099.08-.225.11-.307 0 .226-.02.168-.011.375l-.034-.083-.014.183c.205-.452.226.25.356-.07a.168.168 0 01-.022.06c.036.111.119-.106.175-.158a.528.528 0 01-.092.204c.081.09.304-.113.376.058.07-.108.027-.162.092-.241a.168.168 0 01-.036.192c.027.244.354-.048.428.203.12-.104.092-.176.24-.226-.058.072-.078.291-.15.276l-.04.085a.252.252 0 00.4-.074c-.076.185 0 .045 0 .16.027-.013.011-.03 0-.043.11-.14.059.034.1.023l-.026.027.131-.077a.243.243 0 01-.018.129l.059-.127c.042.02-.055.17.013.163l.034-.1c0 .075.121-.029.063.111-.014.027-.014.014-.027 0-.043.226.164 0 .184.125l.086-.208c.097-.032.018.06-.02.129.04.02.015.09.058.142.054-.036.054-.066.093-.12l.031.08-.095.087c.244-.24.194.15.399-.077 0 .075-.097.1-.097.145.025.18.333-.052.331.145.047.225.288.185.371.374l.032-.052.077.111c.103-.092.137 0 .272-.088-.029.043-.06.085-.095.124.054.016.14 0 .117.08l-.045.03c.075.102.203.202.322.148.04.013-.027.099-.063.165.05.047.122.024.225-.016a.488.488 0 01-.029.113l.11-.1c.012.034-.07.1-.076.145.194-.072.194.128.257.17l.038-.064c.06-.025.043.095-.034.126.056.163.317-.034.45.13-.155.225.19.062.014.306.115 0 .074.127.225.036-.018.023-.023.039-.036.032-.05.106.092.12.207.122l-.058.07c.155-.122.225.02.382-.102-.02.039-.067.05-.101.068-.092.167.12 0 .133.06-.036.033-.061.085-.095.103 0 .286.45.225.532.505.044.055.126-.169.182-.092-.05.09-.174.113-.16.183.117-.057.11-.027.142.02-.052.04-.075.077-.135.081-.034.082.21-.013.142.15a.297.297 0 01.105-.08c.19-.056.039.278.11.226 0 0 .043 0 .037-.031a.104.104 0 01.006.122.104.104 0 01-.031.031c.052-.022.121-.07.153-.054l-.09.07c.03 0 .095-.043.115-.04l.027-.07c-.03.099.187-.012.04.148h-.016v.129c.084-.045.165-.09.185-.032-.128.185.072.125.108.185l-.052.06c.11-.05.18.072.187.026a.097.097 0 010 .154c.061 0 .124.05.225-.039l-.058.197c.225-.183.058.18.25-.043 0 .063-.045.108-.056.167.141-.072.173-.011.204.048l-.018.024c.032.06.185 0 .26.043l-.138.179c.054 0 .18-.113.178-.05-.002.063-.032.034-.048.034.059 0 .061.077.043.135.156-.074.147 0 .309-.08-.115.166-.11 0-.226.166-.01.066 0 .088.057.1.05.001.1-.004.148-.016l-.103.07s.027-.02.072-.048c.045-.027.121-.052.191-.09a.574.574 0 01.225-.077.895.895 0 00.207-.031c.064.005.128.005.192 0a.258.258 0 00.079-.03c.027 0 .05-.043.063-.106-.11-.072-.26-.097-.133-.21l-.135.08c-.147-.078.256-.2.128-.355l-.014.065c-.031-.025-.123.025-.11-.038.014-.064.059-.034.095-.045-.088 0-.171.02-.252.036a.41.41 0 01.169-.125c-.093-.085-.19.226-.25.066.029-.068.074-.061.126-.084.045-.146-.077-.092-.185-.079.095-.101.117-.056.135-.162-.04.06-.12.156-.162.135.113-.088.027-.079.02-.135a.226.226 0 01-.103.095c-.03 0 0-.05-.034-.064l-.054.138c-.142.05-.036-.128-.038-.212a.076.076 0 01.054-.02c0-.082.02-.208-.113-.165h.016c-.196.016-.122.205-.327.2-.02-.056.316-.331.118-.284-.034.129-.246.17-.331.167l.225-.162c-.02-.02-.104 0-.1-.023l-.035.048c-.142.18-.045-.082-.174 0 .163-.117.31-.254.437-.41-.146.1-.29.186-.335.105l.209-.138c-.056-.117-.387.07-.59.162.135-.12.146-.194.275-.284l-.106-.043.149-.129c-.165.125-.11-.013-.275.19.032-.018.05-.043.06-.023-.051.06-.17.17-.206.122.013-.072.083-.06.123-.124-.096.057 0-.072-.065-.04l-.047.106c-.117.095-.052-.036-.128 0 .076-.018.121-.095.168-.172v.016c-.024 0-.121.043-.076-.032l.155-.14-.13.086a.179.179 0 01.094-.101c0-.172-.301.33-.284.083.06-.052.106-.079.104-.018.09-.086.135-.147.14-.206l.015-.018c-.08-.06-.15-.15-.297-.092z" fill="#6C60F2"/><path d="M33.22 14.984c.028.027.053.05.082.04.03-.009.016-.135-.081-.04zm-6.206-4.015a.09.09 0 000 .051c.023-.04.027-.072 0-.051zm1.738.548a.427.427 0 00-.126.131c.027-.009.065-.043.126-.13zm.595.453l.03-.022a.051.051 0 00-.03.021zm1.348.782c-.067.034-.101 0-.155.012.05-.01.056.081.155-.012zm-4.185-1.689l.06-.092-.055.063-.005.03zm.358.027c0 .03.088-.018.088-.076a.254.254 0 01-.088.076zm1.22.58l.063-.094-.067.065.004.03zm-5.659 19.985l.024-.101-.107.1.083.001zm-.593-.37c-.103.079-.243.09-.34.284l.187-.124c-.058.156.016.176.1.156l-.073-.023c.027-.011.059-.11.086-.122.07.125.187-.07.211.138l-.013.014.117-.066c.016.032-.025.1-.043.122.101-.052.187-.115.272-.07.041-.305-.285.136-.243-.17l.014-.013c-.124.063-.144-.16-.275-.126zm-2.902-2.155l-.035.035c.011-.009.032-.018.035-.034zm.612 1.243c-.049.041-.035.03 0 0zm-4.463-6.353l.063-.036c-.063.02-.063.03-.063.036zm-1.006-.745l-.061.014a.124.124 0 00.06-.014zm-.197-.525a.09.09 0 00.023-.048c-.034.013-.038.034-.022.047zm1.025-.369a.076.076 0 01-.027-.014.051.051 0 00.027.014zm-.797 1.755l-.15.054a.929.929 0 00.15-.055zm-.376-1.5a.099.099 0 00.052-.036c-.025.011-.052.023-.052.036zm8.015 8.615a.114.114 0 00.056 0c-.014-.018-.034-.016-.056 0zm-6.365-4.094a.2.2 0 00-.054.027.078.078 0 00.054-.027zm-.936-1.677a.064.064 0 00-.02.015l.02-.016z" fill="#6C60F2"/><path d="M14.13 24.705c-.047.029-.104.04-.16.029-.033.129.163.095.075.248l.054-.076c.13.029.198.13.083.246h-.056c.14.013-.034.198.074.183.054-.052.102-.041.144-.104l.183.097-.19.097.102.052c.067-.056-.014.133.169.05-.05.076-.156.05-.225.067.076.02 0 .064.126.052l-.147.124.176.057c-.018 0-.027.016-.045.018.166-.02-.014.174.261.115l-.03.011c.147-.031.102.104.09.152.064.04.17-.064.24-.097.047.183.031.128.297.149-.153.198-.379.095-.45.28a.34.34 0 01.31.038 1.236 1.236 0 01-.081.43l.122-.093.137.052-.225.067c.054 0 .169-.016.252-.025.18.025-.225.251.016.197l-.034.036c.115-.043.128.05.225.097l-.176.093v-.075c-.132.14.088.063.115.118.093 0 .198-.113.266-.122 0 .022.072.013.038.06a.95.95 0 01-.252.186c.187-.086.178-.057.306-.027-.067.065-.106.086-.128.086a.265.265 0 00.15-.055l-.062.1c-.045.198.35-.145.396 0-.104.04.097.072.031.187-.056-.016-.198.206-.306.262.02.131.203-.12.295-.081l-.205.135c.135 0 .11-.072.225-.054-.067.027-.02.072-.114.084.058.103.054.067.1.164l.181-.15c.043 0-.025.085-.05.121-.013 0-.022-.03-.042 0-.122.167.128-.03.025.131.044-.059.112-.138.152-.115-.114.086-.053.138-.094.18.054-.085.097.039.225-.065-.045.11-.092.066-.153.117.162-.094.14.111.24.064l-.022.024c.117-.038.198 0 .383-.038l-.12.07c.032.117.244-.154.302-.093-.146.125.113.086-.063.213.116-.027.225-.074.325-.138-.039.113-.248.127-.226.212l.122-.022-.063.083c.056-.054.106-.013.146-.06-.079.096-.117.182-.184.248.06 0 .027.137.13.083l-.04.045c.191-.137.137.061.315-.099l-.068.115c.068.03.226-.16.284-.18.027.01.07.015.077.05-.17.053-.09.169-.133.245a.166.166 0 00.225.012c-.113.065-.158.158-.225.113-.122.203.126.038.17.12l-.071.08c.142.028.265-.112.427-.225a.648.648 0 01-.225.212c.012.115.172.129.226.201a.196.196 0 01-.138.136c.14-.019.153.155.351 0-.078.058 0 .072 0 .128.03-.038.075-.083.075-.074.106-.039.263-.032.265.079l-.063.04c.102.131.405-.155.437.086 0 .059-.142.138-.088.172.079-.052.178-.206.212-.118l-.097.124.137-.094c.054-.122-.045-.138.09-.226-.027.16.136-.081.104.108a.823.823 0 00-.164.127c.04.257.297.022.333.289.146-.048.259 0 .373-.066-.073.12-.164.23-.27.323.057.061.28-.214.2 0 .15-.158.255 0 .433-.24-.032.055.07.046-.09.145.142-.027-.018.296.025.321.042.025.074-.178.128-.151 0 .015-.014.043-.014.058l.057-.047c-.014.07-.1.113-.142.178.043.1.211-.072.313-.038l-.043.036.086.061-.014.014.126-.05-.04.066c.029 0 .056-.05.085-.043l-.056.079a.262.262 0 01.263-.116v.041l.192-.12c0 .12-.176.168-.036.159l-.117.16c.112-.03.076.07.157.038.023-.101-.02-.108.045-.171-.04.225.122 0 .225-.055-.031 0-.05-.022-.119.068-.03-.018.036-.1.02-.115l-.092.075-.016-.093-.121.056c.076-.137-.059-.054.047-.185-.083.032-.059-.081-.18.034 0-.102.108-.072.08-.106a.898.898 0 01-.634-.314l.056-.05c-.056.05-.112.082-.155.118.03-.129-.016-.346-.19-.18 0-.017.03-.04.044-.05-.084-.02-.113-.24-.226-.28-.182.178-.053-.226-.28.027l.058-.043c-.02.099-.18.16-.241.225.099-.198.094-.14.18-.33v.091l.097-.156c-.392.3-.097-.327-.367-.106.013-.011.031-.036.045-.047.013-.12-.158.043-.225.065a.535.535 0 01.168-.147c-.04-.12-.333-.027-.337-.225-.108.072-.088.14-.178.187a.165.165 0 01.106-.165c.06-.241-.356-.09-.345-.354-.148.052-.146.13-.301.12.079-.048.166-.25.225-.208l.067-.07c-.083-.09-.184-.226-.412-.066.126-.153 0-.043.043-.156-.03 0-.018.025-.022.04-.147.098-.048-.051-.088-.051l.031-.02-.15.036a.274.274 0 01.053-.122l-.092.106c-.038-.032.101-.149.032-.163l-.059.086c.014-.072-.128 0-.031-.124.018-.023.015 0 .029 0 .097-.196-.16-.052-.149-.174l-.137.178c-.104 0 0-.063.054-.12-.036-.03 0-.09-.022-.153-.063.02-.07.05-.122.09v-.083l.115-.06c-.297.166-.153-.2-.41-.03.018-.072.12-.072.13-.115.019-.183-.335-.034-.288-.226 0-.226-.225-.25-.27-.452l-.042.043-.048-.126c-.123.065-.133-.043-.286.022.039-.03.086-.088.122-.101-.05-.027-.14-.027-.099-.107l.052-.02c-.052-.115-.16-.242-.282-.212-.036-.02.048-.09.097-.145-.036-.054-.11-.047-.225-.029a.398.398 0 01.056-.102l-.133.07c0-.034.093-.079.108-.12-.2.028-.148-.164-.198-.225l-.051.052c-.066 0-.016-.097.065-.113 0-.163-.31-.04-.385-.226.212-.167-.16-.108.081-.289-.108-.03-.032-.135-.21-.097.025-.016.032-.03.043-.02.082-.084-.045-.131-.15-.17l.076-.047c-.184.068-.203-.084-.39-.023a.243.243 0 01.118-.03c.146-.121-.113-.026-.102-.096.046-.016.088-.057.124-.061.11-.255-.326-.348-.283-.63-.018-.066-.183.1-.203 0 .083-.059.203-.034.225-.102-.128 0-.112-.016-.12-.067.064-.016.102-.039.156-.02.065-.057-.189-.064-.056-.172a.305.305 0 01-.128.024c-.19-.029.114-.225.02-.203 0 0-.034-.022-.048 0 0-.032.014-.083.109-.097-.054 0-.14 0-.154-.02l.113-.014a.775.775 0 01-.117-.02l-.06.038c.082-.056-.156-.079.058-.124v.011l.08-.085c-.09 0-.182-.023-.161-.075.225-.059.025-.129.038-.194h.079c-.117-.03-.088-.16-.122-.133a.095.095 0 01.108-.104c-.05-.032-.058-.116-.191-.116l.175-.106c-.283 0 .077-.171-.225-.135.04-.05.106-.05.154-.088-.154-.04-.138-.109-.122-.179h.03c.015-.067-.143-.124-.172-.225l.225-.055c-.038-.043-.211-.029-.173-.083a.049.049 0 01.06 0c-.053-.038 0-.11.043-.156-.173-.045-.123-.11-.308-.142.182-.095.104.068.275-.016.083-.126-.05-.226-.174-.316a.345.345 0 01.124-.023 2.322 2.322 0 00-.32-.013 1.017 1.017 0 00-.45.06c-.15.017-.238.021-.333.139.09 0 .225.045.059.103l.153-.036c.096.097-.309.088-.275.215l.045-.039c.013.023.115.023.072.061-.043.039-.065 0-.104 0l.226.07a.49.49 0 01-.21.018c.027.102.277-.074.241.066-.063.036-.097 0-.15 0-.12.083 0 .102.1.151-.137.023-.128-.02-.207.045.07-.022.19-.05.21 0-.144 0-.07.043-.1.086a.225.225 0 01.14 0c.023.016-.029.04-.015.066l.128-.07c.142.05-.054.12-.106.178a.08.08 0 01-.054-.016c-.05.063-.153.136-.022.188h-.018c.155.113.225-.075.373.063-.02.054-.45.036-.277.13.113-.071.297.04.358.098l-.277-.032c0 .027.084.064.059.082h.059c.225-.037-.02.092.126.12a2.28 2.28 0 00-.57 0c.176.024.338.053.32.148l-.248-.038c-.036.129.335.226.552.273a2.89 2.89 0 01-.394.038l.056.109h-.198c.207 0 .08.088.335.032-.038 0-.067 0-.063-.02.077 0 .239-.023.239.035-.056.052-.104 0-.174.023.11.018-.053.052.027.077l.102-.057c.15 0 .02.063.101.086a.3.3 0 00-.239.036h.018c.016.027.127.04.045.08l-.207.022h.158a.157.157 0 01-.135.031c-.092.163.432-.106.29.109-.076.018-.133.011-.099-.048-.123.023-.193.052-.225.113h-.025c.025.066.048.215.198.23z" fill="#6C60F2"/><path d="M13.928 24.45c0-.05-.02-.093-.052-.107-.031-.013-.072.143.052.107zm4.696 5.74a.098.098 0 00.014-.05c-.025.034-.041.06-.014.05zm-1.438-1.005a.37.37 0 00.153-.095c-.025-.002-.07.02-.153.095zm-.456-.569l-.033.014c.016-.003.025-.005.032-.014zm-1.118-1.066c.072-.016.097.023.153.027-.05-.004-.036-.097-.153-.027zm3.508 2.737l-.093.063.077-.038.016-.025zm-.314-.157c0-.03-.085-.015-.108.04a.25.25 0 01.108-.04zm-.947-.927l-.086.074.081-.045.005-.03zm10.497-9.073l-.1-.034.08.137.02-.103zm-.502.73c.063.121.054.288.243.397l-.101-.226c.153.06.189-.027.182-.127l-.038.098c0-.032-.108-.068-.115-.1.142-.088-.04-.226.178-.26l.013.014-.047-.142c.038-.018.099.03.122.052-.034-.124-.084-.226-.018-.337-.309-.047.08.355-.226.305v-.016c.03.158-.207.194-.193.341zm-2.894 3.314l.024.038c.004-.018-.011-.033-.025-.038zm1.527-.576c.026.04.035.056 0 0zm-5.459 5.546l-.065.039c.063-.014.074-.027.065-.039zm1.004 1.041l.059-.013a.113.113 0 00-.059.013zm.275.558a.102.102 0 000 .06c.018-.024.018-.047 0-.06zm-.896.646h.032a.066.066 0 00-.032 0zm.604-2.202l.155-.038a.778.778 0 00-.155.038zm.468 1.66a.104.104 0 00-.038.054c.024-.018.042-.038.038-.054zm5.315-9.864a.125.125 0 00.013-.07c-.022.016-.022.041-.013.07zm-5.793 5.996h.035a.125.125 0 00-.035 0zm.23 1.124a.248.248 0 00.054.02l-.054-.02z" fill="#6C60F2"/><path d="M22.093 28.577a.225.225 0 01.162.014c.07-.118-.126-.147 0-.273l-.074.058c-.117-.072-.146-.226 0-.293l.052.02c-.128-.065.099-.205 0-.226-.068.039-.108 0-.171.059a4.165 4.165 0 00-.14-.19l.212-.027-.077-.095c-.085.027.059-.133-.142-.126.077-.059.163.016.246.031-.063-.051.027-.06-.097-.106l.182-.058-.135-.138h.047c-.157-.063.09-.163-.18-.246.01.002.022.002.032 0-.146-.045-.038-.158 0-.199-.034-.074-.178-.034-.257-.038.054-.226.04-.147-.17-.341.236-.1.366.144.535.016a.346.346 0 01-.225-.226.25.25 0 01.304-.048l-.146-.076a1.163 1.163 0 01-.077-.111c.066.062.136.12.21.172a1.187 1.187 0 01-.208-.201c-.06-.093.02-.034.086.029.065.063.12.122.013-.016l.045.047c-.105-.137-.063-.128-.097-.225.057.097.113.19.172.28l-.039-.041c.086.115.08.106.052.059a.594.594 0 01-.065-.134l-.025-.045c-.06-.13-.182-.336-.205-.408.02.02 0-.06.054.031.085.154.16.312.225.474-.13-.298-.103-.255-.092-.343.03.073.054.149.072.226 0-.032-.018-.086-.047-.199.022.054.045.109.063.163.054.12.027 0 .025-.118-.003-.117 0-.248.074-.176-.032.102.103.03.115.179-.02 0-.027.085-.039.174-.01.088-.029.185-.042.244-.014.058.058-.226.126-.247a1.92 1.92 0 00-.104.226c.072-.081.052-.12.135-.162-.045.056-.011.07-.072.124l.014.018.029.018.038.025a.885.885 0 01.095.07l.117-.204c.052 0 .02.098.011.14-.018 0-.04-.024-.052 0-.045.206.126-.063.1.13.02-.073.049-.175.105-.161-.079.12.02.158 0 .226 0-.106.133 0 .2-.133.018.126-.063.097-.098.167a.123.123 0 01.17-.032c.057.03.15.07.192.032v.034c.117-.075.28-.06.412-.192a.866.866 0 01-.038.13c.09.052.105-.015.108-.097a.364.364 0 01.038-.198c.043.226.13-.147.18.099a.805.805 0 00-.03-.418.225.225 0 01.082.167c.013.07.02.136.072.127 0-.054.013-.106.016-.156l.078.07c-.045-.066.016-.129-.029-.17.08.062.155.13.225.202.018-.066.153-.025.115-.138l.043.043c-.108-.21.099-.143-.032-.343l.108.076c.05-.07-.114-.248-.119-.318.02-.03.036-.077.077-.084.01.192.16.111.225.163a.207.207 0 00.08-.226c.035.129.122.188.055.255.182.152.079-.133.182-.174l.065.088c.077-.15-.036-.302-.099-.492a.53.53 0 01.156.267c.13 0 .2-.172.301-.226a.162.162 0 01.1.167c.029-.158.224-.154.13-.386.038.09.076.016.14.022-.032-.038-.066-.092-.057-.09 0-.122.057-.296.176-.289l.022.075c.178-.107-.04-.452.225-.486.064 0 .11.167.163.106-.036-.09-.176-.208-.07-.244l.108.113-.068-.158c-.119-.063-.16.045-.211-.108.164.036-.054-.154.14-.113a.71.71 0 00.096.187c.29-.045.092-.334.387-.386-.024-.165.045-.296 0-.427.117.08.218.183.297.3.077-.067-.177-.313.046-.225-.145-.165.049-.3-.185-.49.052.032.06-.084.14.095 0-.163.312 0 .346-.048.034-.047-.18-.074-.14-.142.016 0 .041.016.057.014l-.04-.064c.074.014.103.111.166.156.115-.056-.045-.246 0-.363l.034.047.076-.106v.016l-.034-.147.066.043c0-.032-.045-.061-.036-.095l.076.059a.291.291 0 01-.085-.305h.043l-.097-.226c.126-.014.148.197.162.032l.15.13c-.013-.133.084-.094.064-.191-.104-.02-.115.031-.174-.046.237.039.016-.144-.027-.257-.015.036-.029.061.057.14-.025.036-.1-.038-.12-.018l.066.106-.124-.05.04.143c-.133-.084-.065.072-.187-.045.02.097-.096.074 0 .212-.105 0-.06-.124-.099-.088-.053.28-.194.534-.403.727l-.042-.063c.042.063.067.126.099.174-.133-.027-.372.036-.226.225-.015 0-.033-.031-.044-.047-.036.097-.273.138-.338.262.155.2-.25.065-.023.32l-.036-.067c.104.022.138.203.19.27-.197-.11-.133-.105-.318-.2h.095l-.147-.106c.225.451-.364.092-.189.4 0-.019-.03-.037-.038-.055-.122-.022 0 .176.016.258a.47.47 0 01-.113-.197c-.135.036-.12.364-.322.35.045.124.124.11.146.226a.147.147 0 01-.146-.133c-.225-.093-.212.38-.495.338 0 .17.092.177.025.346-.025-.093-.226-.212-.147-.278l-.051-.083c-.133.083-.32.185-.226.451-.128-.153-.047-.011-.16-.058 0 .031.02.022.037.027.058.169-.075.047-.093.095v-.037l-.013.17a.224.224 0 01-.12-.066l.088.109c-.05.04-.135-.12-.173-.043l.076.072c-.078-.02-.05.142-.153.032-.02-.023 0-.018 0-.034-.193-.115-.114.183-.252.171l.165.156c-.027.115-.075 0-.122-.06-.05.042-.106 0-.187.033 0 .07.036.077.07.136a.54.54 0 01-.097 0 .683.683 0 01-.043-.125c.016.041.016.08.025.102a.116.116 0 010 .05.051.051 0 01-.038.04c-.038.018-.04 0 0 .167-.034-.054-.04-.146-.063-.178s-.018 0-.034.05c-.016.05-.05.09-.054 0a.352.352 0 00-.016-.082.543.543 0 00-.119-.056.464.464 0 01-.252-.163l-.025.057-.108-.113c-.076.113-.225-.04-.362.06.022-.04.027-.123.06-.144-.114-.043-.225-.034-.283-.153l.045-.036c-.239-.179-.597-.334-.676-.24-.07-.015-.11-.153-.162-.257-.146-.07-.225-.034-.263.052-.045-.048-.092-.097-.169-.19l.054.185c-.07-.054-.104-.178-.18-.253a.232.232 0 01-.02.034.816.816 0 010 .405 1.08 1.08 0 00-.068.248l.068.052c.045.124-.063.162-.122 0a.881.881 0 00.025.512c.063.182.086.376.068.567-.136 0-.124.109-.115.226v.061a.069.069 0 010 .04c-.014.026-.05.044-.124.048.07.117-.054.185.117.271h-.047c-.113.038-.034.194.04.307h-.09c.194.043.135.24.331.278-.043.013-.081-.02-.117-.036-.185.06.088.104.047.178-.047 0-.101.018-.137 0-.104.129-.063.287 0 .452.03.073.053.149.072.226a.452.452 0 01-.023.225c0 .088.205-.04.194.077-.097.036-.2-.05-.24.025.125.05.1.07.091.142-.065 0-.108 0-.155-.045-.08.045.162.17 0 .26a.245.245 0 01.13.02c.178.113-.155.291-.058.298 0 0 .03.04.047 0a.103.103 0 01-.034.084.103.103 0 01-.087.025c.054.02.14.033.15.07l-.114-.012c.04.017.078.036.115.057l.065-.036c-.088.058.146.142-.07.155v-.015l-.09.137c.09.032.18.061.158.131-.225.048-.032.172-.043.26h-.079c.115.054.09.226.126.192 0 .065-.031.16-.106.138.052.047.068.16.203.164l-.169.14c.286 0-.056.226.225.181-.033.068-.099.07-.142.122.033.01.064.026.093.045a.238.238 0 01.054.077c.02.049.032.1.034.154h-.03c.012.101.187.144.246.246l-.198.106c.05.043.225 0 .193.059a.045.045 0 01-.027.016.045.045 0 01-.031-.005c.06.031.033.12 0 .174.18.013.141.086.328.09-.17.115-.11-.05-.27.054-.07.127.056.167.162.213a1.066 1.066 0 01-.126.013c.1.002.2.01.3.025.162.016.34.113.45.108.057.03.116.053.178.07a.224.224 0 00.085 0c.03 0 .061-.024.1-.072-.075-.088-.192-.208-.034-.253l-.156.011c-.101-.164.32-.072.261-.304l-.038.058c-.02-.038-.124-.047-.088-.101.036-.055.068 0 .106 0a2.393 2.393 0 00-.257-.08.33.33 0 01.208-.036c-.059-.146-.257.12-.264-.072.054-.054.095-.022.151-.018.095-.128-.04-.137-.149-.183.129-.054.133 0 .192-.095-.063.041-.174.095-.205.05.14-.03.054-.065.067-.124a.208.208 0 01-.132.04c-.032-.015.013-.056 0-.083l-.106.108c-.155-.029.016-.15.05-.225a.094.094 0 01.058 0c.027-.082.112-.177-.023-.201h.018a.21.21 0 00-.189 0 .15.15 0 01-.191-.027c.016-.066.45-.075.261-.172-.104.09-.3-.03-.367-.102l.282.032c0-.034-.088-.075-.066-.097l-.058.016c-.225.047.013-.109-.135-.145.19.03.384.03.574 0-.178-.022-.345-.063-.327-.17l.25.046c.032-.138-.34-.246-.554-.341.132-.014.264-.019.397-.014l-.052-.126.198.016c-.205-.032-.074-.104-.333-.07.036 0 .067 0 .06.034-.076 0-.238 0-.225-.073.059-.054.102.018.174 0-.108-.036.058-.054-.02-.092l-.106.052c-.151-.02-.014-.077-.093-.118a.26.26 0 00.241 0h-.018c-.013-.034-.12-.07-.036-.1h.21l-.156-.035a.135.135 0 01.138 0c.114-.16-.45.038-.268-.179.079 0 .133.018.09.075.123 0 .198-.018.24-.075h.023c-.02-.11-.016-.246-.16-.307z" fill="#6C60F2"/><path d="M22.238 28.878c0 .054 0 .101.036.12.036.018.094-.132-.037-.12zm3.45-3.909a.117.117 0 000 .03v-.03zm.32-.355a.08.08 0 00-.05-.018c.027.041.052.06.05.018zm-1.506 1.477a.37.37 0 00-.077-.167c-.006.027.01.077.077.167zm-1.199.269a.16.16 0 00-.032.023c.023-.005.03-.011.032-.023zm-1.12-.39a.297.297 0 01-.031-.136c.011.052-.054-.059.031.135zm4.095-1.893l.039.108-.016-.088-.023-.02zm-.272.341c-.032 0-.046.093 0 .122a.259.259 0 010-.122zm-1.333.946l.059.1-.027-.093-.032-.007zm-10.448-3.936l.016-.113-.293-.038.277.151zm-2.201-1.556c-.264-.034-.676-.226-.808-.058l.466.083c-.04.172.202.32.45.413l-.246-.149c.073.023.09-.09.165-.068.32.308.536.177.783.545h-.03l.327.081c.075.075 0 .12-.045.127.3.057.587.174.842.343-.092-.418-.844-.269-.936-.678h.029c-.38-.104-.64-.499-.997-.639zm1.058.98h-.025s0 .003.025 0zM3.978 9.033h-.05c.023.012.047.025.05 0zm1.456 4.478v-.022c-.078.009-.056.013 0 .022zm10.55-7.998l.036.106c.02-.065.002-.095-.036-.106zm3.252 1.418l.03-.054c-.032.018-.039.034-.03.054zm1.587 1.346a.71.71 0 00.102.142.213.213 0 00-.102-.142zm-.231 1.303zm-3.749-4.672l.02-.176a.334.334 0 00-.02.176zm4.428 3.649c0 .041.012.082.034.117a.125.125 0 00-.034-.117zm-9.596 11.101c.057.036.117.067.18.092a.373.373 0 00-.18-.092zM5.882.827a.194.194 0 00.04-.058c-.049.013-.051.033-.04.058zm6.724 1.633h.024a.148.148 0 00-.017-.036l-.007.037zm-1.895-.675l.037-.023a.062.062 0 00-.037.023zM14.08 2.95a.25.25 0 00.087-.016l-.088.016z" fill="#6C60F2"/><path d="M15.308 3.785c-.03-.08.056-.092.144-.104-.284-.243-.486-.133-.754-.438l.12.156c-.266-.027-.676-.199-.816-.433l.086-.016c-.266 0-.495-.368-.635-.307.059.101-.05.097.059.226l-.595-.122.045-.213-.315-.06c.04.103-.362-.226-.45-.034-.137-.136.126-.125.225-.177-.187 0-.171-.099-.367-.045l-.097-.226c-.16-.013-.315-.031-.477-.038.03 0 0-.03.034-.04-.259.065-.484-.276-.826-.107.015 0 .015-.013.022-.025-.18.088-.49-.113-.61-.178-.225-.032-.144.145-.175.226-.635-.226-.433-.172-1.034-.093-.281-.305.484-.273.093-.533-.084.097-.401.115-.746.097-.295-.144-.81-.28-1.096-.472l.014.156-.45.043.272-.199c-.077.043-.309.12-.45.183-.464.104-.241-.347-.608-.135a.203.203 0 01-.032-.05c-.121.113-.416.061-.765.102l.124-.194.225.045c-.117-.192-.374.027-.61.018-.203.074-.095.226-.208.289-.072 0-.19.043-.25-.018-.184-.07 0-.226.057-.31-.169.19-.225.163-.599.204 0-.095.025-.134.074-.147a.285.285 0 00-.2.129l-.11-.127c-.388-.226-.466.305-.955.147.077-.038-.03-.052-.166-.086a.775.775 0 01-.239-.09.768.768 0 01-.212-.16c.106.033.086-.057.04-.17-.044-.113-.127-.255-.037-.278-.36-.21-.406-.14-.424-.07-.018.07-.018.167-.202.145A.992.992 0 011.486 0a.314.314 0 00-.174.038.07.07 0 00-.033.048c0 .033-.023.05-.174.08C1.157.094.9.1 1.063.015a1.028 1.028 0 00-.374.04C.594.085.503.124.414.169L.38.186a.675.675 0 00-.087.056L.45.418a.259.259 0 01-.148.089A.828.828 0 01.18.53C.21.471.286.405.257.394a.162.162 0 00-.142.058.19.19 0 00-.034.122C.081.662.101.75 0 .8.086.8.171.8.205.951c-.162-.11-.115.16-.178.15.054-.025.079.056.146.16.064.118.168.21.293.257-.016.084-.059.07-.126.02-.068-.05-.115-.128-.185-.144.172.134.324.292.45.47.086.097.172.194.253.277.042.043.078.082.115.111l.049.043a.245.245 0 01.06.047.079.079 0 01-.026.023h.047l.045-.018h.023l-.072.032.063.063c.046.048.089.1.128.153.088.115.182.255.31.411l-.166-.081c.04.364.335.142.403.452-.196-.027.117.508-.12.41.142.163.226.355.406.452-.079.194-.313-.296-.329-.043l.142.251-.095.063c.08 0 .12.226.178.21-.117.061-.187.18-.281.183.06.163-.018.422.115.547l-.059.022c.255.127.14.517.394.551l-.103.133c.083.256.31.145.394.247.048.101.085.208.11.318-.248-.276-.126.226-.187.314.036.126.176.497.322.562-.167-.115-.225 0-.329-.262-.173.226.187.402.261.72l-.103.032c.225.416.398.368.641.492-.108.097-.155.066-.328-.013.027.318.277.747.387 1.077-.05.138-.128.09-.207 0 .225.303.272.763.578.883-.121-.045 0 .158 0 .298.045-.018.113-.02.113 0 .233.231.4.521.482.84l-.102-.056c.214.562.698.602.86 1.244.014.126-.225 0-.105.196.132.057.27-.068.38.215l-.144.063.24.095c.057-.158-.152-.418.09-.294.014.305.242.124.269.488a.601.601 0 00-.29-.086c.227.662.661.698.886 1.375.302.208.588.545.824.66a.499.499 0 01-.436.117c.164.25.529.131.479.438.252-.025.63.538.9.389-.038.05.205.225-.121.12.333.225.16.564.286.7.076.07.058-.215.225-.048v.086l.113.015c.015.116-.178.03-.241.077.182.283.502.274.792.531H9.04l.279.282h-.03l.304.142-.058.05c.067.034.115 0 .196.072l-.088.05c.173-.04.502.15.641.258v.056c.154.038.302.077.45.11.12.226-.369 0 .034.226l-.186.073c.306.135.283.248.502.323-.025-.138-.156-.226-.014-.226.077.33.365.187.615.248a.301.301 0 00-.304-.07c-.106-.077.02-.113-.04-.165l-.212-.015.033-.14-.315-.102c.11-.113-.225-.19-.018-.248-.211-.08-.238-.244-.488-.249-.05-.165.245.059.14-.052a8.26 8.26 0 01-1.96-1.833l.111.015c-.11-.015-.225-.063-.317-.076-.014-.204-.284-.755-.597-.768 0-.03.047-.018.074-.011-.225-.226-.43-.75-.707-1.08-.31 0-.254-.614-.623-.555l.108.034c0 .176-.313-.039-.416-.043.112-.226.132-.102.225-.337l.031.185.128-.133c-.697-.199-.375-.969-.837-1.082.027 0 .05-.01.077 0-.03-.246-.307-.268-.45-.386.07-.06.177.014.28.055-.139-.38-.675-.84-.717-1.31-.176-.09-.124.124-.277.013-.025-.14.027-.268.15-.14.05-.435-.641-1.104-.655-1.734-.238-.241-.225-.038-.475-.451.12.074.241-.21.35.054h.1c-.148-.452-.321-1.055-.659-1.215.185-.077 0-.093.054-.298-.045-.061-.027.016-.03.05-.224-.113-.076-.253-.141-.364l.047.032-.225-.287c0-.064.016-.158.07-.188l-.13.045c-.057-.176.139-.146.04-.345l-.088.074c.023-.146-.175-.316-.034-.383.027 0 .023.015.039.06.148-.246-.192-.519-.142-.808l-.21.109c-.117-.256.018-.172.097-.174-.031-.176.036-.226.023-.47-.075-.108-.093-.047-.162-.077l.018-.253.144.14c-.378-.325-.108-.97-.45-1.178.036-.16.157.108.177 0a1.42 1.42 0 00-.2-.746 1.889 1.889 0 01-.27-.684.845.845 0 00-.025-.133 2.15 2.15 0 00-.043-.106v-.025a.206.206 0 00.014.025.084.084 0 000-.043.147.147 0 00-.05-.059.226.226 0 01-.058-.07c-.014-.02.016-.047.088-.016l-.118-.085a.317.317 0 01.153.054c-.08-.109-.071-.133-.058-.154.014-.02.03-.038.032-.122.018.061.063.163.07.204.022 0 .094-.043.112.051a.407.407 0 00-.018.048c.008.01.017.018.027.025l.117.038.106.03c.127.033.257.058.387.076.204.038.413.038.617 0 .162 0 .144.113.178.192.234.036.474.008.695-.079.07.03.133.07.192.118l.117-.145c.126.023.027.122.13.163a1.01 1.01 0 01.32-.084c.1-.01.2-.01.3 0 .202.02.387.063.526.063l-.036-.074c.117-.054.338.06.196.129.54.12.833-.183 1.576-.041.06.278.675.034.727.352.32-.011.484.154.738.039 0 .031.02.05-.029.042.092.14.516.177.844.192v.093c.17-.163.676.068.849-.08.02.053-.083.06-.137.078.099.225.303 0 .497.12-.031.038 0 .112-.045.13a3.78 3.78 0 001.164.475c.46.123.9.318 1.301.575.225.122 0-.225.306-.063.043.133-.238.106-.065.24.194-.039.225 0 .412.117-.065.038-.054.095-.203.063.066.129.518.109.646.368.02-.058.077-.068.133-.077.394.023.6.567.676.5 0 0 .119.04.038-.032.108.07.252.192.171.255a.45.45 0 01.27 0l-.108.066c.07-.003.142.001.212.01l-.038-.11c.072.163.45.138.31.312l-.045-.025.173.226a.45.45 0 01.415.12c-.075.225.35.32.526.48l-.056.057c.212.03.55.366.507.282.142.11.295.307.18.305.144.054.371.264.515.226l.1.336c.321-.095.366.468.578.264.088.147.016.17.063.285.237.061.442.21.574.418l-.018.027c.15.185.45.278.7.508l-.115.208c.142.106.297.018.376.174 0 .051-.031.031-.072 0 .14.105.244.25.297.417.29.077.37.267.651.319-.02.277-.261-.165-.288.086.157.338.482.54.806.785 0 .055-.066.043-.113.061.156.044.313.08.473.106.243.039.495.048.529-.079.178-.013.32.02.196-.325-.14-.034-.428-.226-.34-.368l-.133.086c-.351-.31.225-.24-.144-.664l.04.122c-.076-.075-.209-.072-.247-.194 0-.057.074-.014.133 0l-.466-.201c.054-.077.101-.095.225-.072-.284-.317-.155.255-.45-.177 0-.117.094-.038.177-.022-.056-.271-.263-.305-.493-.431.1-.098.2.033.127-.179-.027.081-.1.183-.226.077.156-.04-.027-.14-.105-.278a.092.092 0 01-.088.076.092.092 0 01-.04-.008c-.068-.04-.068-.129-.152-.197l.032.226c-.275-.101-.239-.345-.335-.53a.135.135 0 01.1.029c-.11-.192-.184-.429-.45-.533h.03c-.464-.248-.052.273-.565-.034-.122-.153.378-.269-.059-.451.072.225-.4 0-.628-.111l.376-.03c-.074-.07-.259-.13-.281-.187l-.032.054c-.137.186-.225-.241-.45-.255.376-.09.347-.034.583-.244a.898.898 0 01-.738-.241h.364c-.31-.321-.932-.38-1.35-.43.184-.083.103-.225.324-.25l-.363-.226.212-.086c-.259.06-.329-.167-.45.061.056 0 .07-.029.13.027a.268.268 0 01-.373 0c-.082-.137.126-.029.137-.112-.174 0-.081-.143-.245-.163l.042.165c-.169.063-.2-.131-.362-.15.178.044.182-.058.18-.169v.02c-.092-.051-.266-.04-.277-.153l.191-.124-.225.04c-.034-.054-.029-.14.075-.117-.336-.375-.226.373-.658-.122.052-.06.14-.067.26.061.091-.092.096-.176-.028-.307v-.02c-.286-.172-.644-.416-.896-.398z" fill="#6C60F2"/><path d="M16.209 4.185c.109.076.226.142.348.194-.01-.056-.292-.314-.348-.194zM3.627 10.894a.131.131 0 00.016-.086c-.04.016-.061.045-.016.086zm-2.08-6.151c.083.11.146.147.2.144a.226.226 0 00-.2-.144zM1.06 2.365l-.015-.011-.032-.027-.04-.023c.025.02.05.04.072.063.011.005.011-.002.015-.002zM4.334.748c-.13.04-.264.062-.399.066.117-.023.315.06.399-.066zm.212 11.582l-.158-.074.135.095.023-.02zm-.618-1.138c0-.063-.15-.244-.175-.163a.643.643 0 01.175.163zM2.34 6.525l-.125-.023.117.088.007-.065zm25.003 11.62l.023.101.02-.137-.043.036zm.423.045a.905.905 0 00.04-.415l-.033.203c-.036-.163-.077-.145-.106-.086l.04-.016c0 .023.019.124 0 .147-.078-.072-.058.156-.148-.014v-.018l-.031.113a.292.292 0 01-.025-.128c-.03.092-.047.187-.108.187.09.29.094-.248.184.038v.018c.048-.12.144.073.187-.029zm2.123-.235v-.047a.1.1 0 000 .047zm-.815-.442c-.004-.061-.004-.046 0 0zm5.072-.777v-.059a.17.17 0 000 .059zm.338-.064c.002.014.01.026.02.034 0-.034-.009-.045-.02-.034zm-.804-.108v-.158a1.227 1.227 0 000 .158zm.907.002a.12.12 0 000 .057c.007-.03.007-.054 0-.057zM27.83 18.17a.053.053 0 00-.028.027c.014.012.021-.002.028-.027zm4.029-1.744v-.06a.11.11 0 000 .06zm.756.01v-.034.034z" fill="#6C60F2"/><path d="M33.395 16.422a.383.383 0 01.022-.16c-.054-.082-.083.113-.137-.025l.024.079c-.045.113-.114.135-.144-.016l.014-.052c-.043.124-.092-.108-.113 0 .003.058.009.115.018.172l-.092.128v-.212l-.05.068c.012.086-.065-.068-.067.133-.027-.077.014-.16.023-.244-.028.061-.03-.03-.057.093l-.027-.185-.07.135v-.05c-.029.16-.083-.09-.119.183a.152.152 0 000-.031c-.018.147-.076.043-.097 0-.036.038 0 .18 0 .257-.103-.045-.072-.034-.146.19-.063-.226.043-.377-.032-.538a.391.391 0 01-.094.256 1.033 1.033 0 01-.194-.29l.016.152-.06.09.022-.226c0 .052-.034.152-.05.226-.058.138-.07-.33-.103-.095v-.047c0 .117-.057.081-.104.13v-.195l.038.036c-.036-.188-.051.04-.087.031a1.76 1.76 0 000 .287c-.014 0-.027.052-.043 0a.86.86 0 01-.027-.312c0 .201-.016.179-.066.265l-.031-.111c-.088-.154-.023.368-.108.316 0-.106-.063.034-.104-.086.023-.036-.05-.282-.05-.402-.073-.06 0 .226-.037.287l-.014-.246c-.034.113 0 .133-.034.226 0-.07-.031-.061-.013-.142-.068-.014-.047 0-.11-.016l.031.225c-.016.03-.038-.072-.052-.112-.013-.041.023 0 .016-.03-.052-.198-.018.118-.072-.06.016.072.04.173.018.189-.014-.142-.056-.127-.068-.185.03.095-.045.052-.022.207-.045-.101 0-.112-.02-.191 0 .185-.093.043-.095.15v-.033c-.011.115-.054.15-.083.318v-.135c-.065-.048.013.284-.034.291-.022-.192-.074.03-.09-.185-.019.11-.025.223-.018.334-.047-.101 0-.268-.043-.316l-.022.106-.027-.1c.013.078-.02.091 0 .15-.03-.122-.061-.203-.077-.298-.018.043-.076-.068-.076.045l-.014-.06c.018.225-.07.06-.036.3l-.04-.125c-.034.03.02.267.013.328-.013 0-.027.04-.047.022.02-.16-.061-.176-.088-.26-.02 0-.074.032-.068.152 0-.127-.033-.226 0-.24-.07-.225-.053.068-.108.046l-.02-.109a1.06 1.06 0 00-.011.452 1.046 1.046 0 01-.043-.303c-.06-.07-.115.034-.169.03a.324.324 0 01-.027-.192c-.031.113-.123 0-.108.241 0-.095-.034-.056-.06-.097a.505.505 0 01-.041.127c-.011.101-.063.203-.12.128v-.072c-.094-.02-.049.39-.18.24-.026-.048-.022-.197-.053-.183 0 .09.042.266-.012.225l-.029-.153v.16c.04.124.081.07.076.226-.07-.136 0 .149-.087 0a1.349 1.349 0 000-.201c-.138-.16-.11.178-.25 0-.027.13-.088.17-.1.289a2.62 2.62 0 01-.058-.415c-.045 0 0 .338-.072.12.02.225-.094.157-.047.45-.014-.058-.047 0-.034-.164-.04.108-.128-.242-.153-.226-.025.016.052.183.018.194-.034.012-.013-.04-.02-.052v.073a1.382 1.382 0 01-.025-.226c-.06-.054-.047.185-.101.226v-.052h-.061v-.018l-.03.113-.01-.077c0 .025 0 .072-.016.083v-.095c0 .15-.032.24-.059.244l-.013-.04-.03.203c-.054-.095 0-.226-.051-.149l-.018-.197c-.034.084-.061-.018-.081.055.031.095.051.076.05.167-.078-.215-.05.067-.073.162.018 0 .032 0 .025-.122.02 0 .025.102.038.109v-.113l.032.13.029-.114c.025.155.047 0 .058.178.023-.072.061.036.063-.126.041.09-.015.12 0 .13a.37.37 0 01.406-.124v-.115c.047.12.17.26.157.02a.2.2 0 010 .066c.04-.036.158.11.225.072-.022-.25.129.134.086-.205v.07a1.032 1.032 0 01-.023-.32c.063.212.036.166.097.36l-.04-.07.042.177c-.01-.477.198.178.18-.165v.063c.055.095.032-.138.046-.203.014.074.019.15.015.226.075.056.124-.208.225-.08 0-.126-.042-.16-.038-.255a.26.26 0 01.05.19c.103.21.16-.185.288 0 .018-.144-.023-.196.031-.298 0 .088.075.29.036.307l.014.095c.074 0 .173.02.158-.253.04.194.02.034.067.136 0-.025 0-.03-.014-.043 0-.172.041 0 .052-.032v.036l.025-.13a.4.4 0 01.047.119l-.027-.138c.027 0 .048.172.072.131l-.027-.102c.034.06.04-.09.075.06v.022c.072.203.072-.084.13 0l-.052-.226c.027-.077.034.04.048.12.024 0 .045.063.083.08a.58.58 0 000-.148l.045.047v.124c0-.334.144 0 .128-.29.032.06 0 .137.023.17.09.134.11-.225.191-.08.081.144.192-.028.304.065v-.059l.074.039c0-.138.057-.082.063-.242 0 .048.02.12.02.156.028-.025.05-.095.077-.016v.052a.12.12 0 00.18-.097c.02-.016.034.092.048.165.038 0 .056-.061.076-.16a.472.472 0 01.036.103v-.149c.018.018.016.12.032.156.04-.18.126-.034.164-.047l-.014-.073c.014-.058.054.043.041.118.088.081.101-.24.214-.21.034.268.094-.086.128.212.043-.079.077.04.102-.135v.047c.024.11.078.025.123-.052v.09c0-.196.093-.142.106-.338a.344.344 0 01-.013.12c.027.184.04-.091.074-.05v.14c.101.205.252-.145.385 0 .036 0 0-.208.043-.19 0 .1-.032.199 0 .242.027-.122.033-.095.063-.084a.48.48 0 01-.03.154c.014.08.081-.156.106 0a.574.574 0 01.018-.13c.063-.166.104.182.115.087a.043.043 0 000-.048c.02 0 .043.036.031.131a.61.61 0 01.043-.142l-.016.113c0-.023.025-.093.034-.106v-.07c.014.095.077-.129.054.088l.03.102c.024-.089.05-.174.072-.143-.014.226.06.057.092.086l-.011.077c.04-.104.099-.048.092-.086.027 0 .052.06.032.129.024-.041.067-.034.099-.16l.01.191c.068-.273.066.111.118-.18a1.37 1.37 0 010 .167c.056-.14.085-.106.115-.077v.03c.027.031.094-.107.144-.114l-.036.226c.031-.027.072-.196.085-.144a.081.081 0 01-.018.056c.032-.038.05.023.057.081.07-.15.083-.088.153-.252-.018.198-.061.079-.08.264 0 .04.026.054.044.052l-.018-.633a.302.302 0 01.166-.038.306.306 0 01-.034-.136v.028-.411.029a.744.744 0 01-.015.115c-.043.147-.058.3-.045.452a.93.93 0 00.022.359c0-.088.056-.192.106-.032v-.156a.224.224 0 01.24.034.15.15 0 00.192-.038.369.369 0 00.104-.197.367.367 0 00.011-.115.389.389 0 00-.014-.097.285.285 0 01-.013.063c0 .018 0 .041-.018.075a.124.124 0 00-.023-.072.273.273 0 00-.038-.048c-.025-.02-.045-.034-.052-.058l-.281-.24v-.016a.206.206 0 01.027-.074l.344.293h.027l-.02-.013-.349-.298-.11.178a.69.69 0 01.06-.2c-.067 0-.051.281-.116.205.003-.051.02-.1.05-.143 0-.137-.062-.022-.118.052.03-.137.052-.115.038-.21 0 .073-.031.192-.056.201.04-.135 0-.076-.02-.117a.42.42 0 01-.034.135c-.016.02-.016-.036-.034-.031v.142c-.065.12-.047-.084-.067-.149a.09.09 0 01.025-.047c-.023-.064-.036-.181-.1-.07v-.016c-.1.12-.017.226-.128.345-.024-.034.093-.451 0-.298a.524.524 0 01-.137.328l.083-.262c-.016 0-.054.065-.058.036v.06c-.032.227-.043-.038-.093.096a3.7 3.7 0 00.126-.554c-.054.165-.108.316-.153.276l.075-.226c-.063-.063-.19.278-.266.472.036-.176.02-.242.063-.39l-.07.027.04-.192c-.049.196-.064.056-.087.316 0-.034.014-.064.025-.054 0 .076-.038.225-.07.225-.016-.065.023-.097.025-.171-.032.104-.016-.066-.045 0v.113c-.03.146-.036 0-.066.076a.569.569 0 00.032-.241v.02c-.018 0-.05.11-.052.025l.032-.208-.036.151a.279.279 0 010-.14c-.066-.133-.036.452-.117.249 0-.08.022-.131.045-.081a.484.484 0 000-.249v-.022c-.097-.005-.165-.02-.207.117z" fill="#6C60F2"/><path d="M33.556 16.31c.027 0 .052 0 .063-.023.012-.023-.054-.109-.063.022zm-3.916.597a.065.065 0 000-.022v.022zm-.19.102a.14.14 0 00.02.043c-.008-.039-.017-.07-.02-.043zm.91-.375a.642.642 0 000 .179.426.426 0 000-.179zm.412.015v-.033a.053.053 0 000 .033zm.838-.249c0 .07-.037.067-.053.11.014-.038.054.025.052-.11zm-2.36.885v-.107l-.007.077.007.03zm.175-.109c.014.025.032-.047 0-.1a.412.412 0 010 .1zm.741-.049l-.013-.113v.09l.013.023zm-.995 3.028l.092-.048-.126.045.034.003zm.039-.179a2.67 2.67 0 00-.381.14l.184-.063c-.146.075-.13.084-.076.075h-.016c.02 0 .115-.052.135-.06-.065.06.142-.033 0 .064h-.015l.103-.032a.815.815 0 01-.117.06c.083-.023.171-.053.171-.03.261-.145-.225.059.034-.086h.016c-.12.02.042-.084-.039-.068zm-.599-.273c-.055.026-.041.019 0 0zm-.365-1.739l.054-.043c-.052.036-.063.045-.054.043zm-.982.328s.018-.02.018-.025c0-.005-.03.025-.018.025zm-.114.056l.042-.038a.151.151 0 00-.043.038zm2.039 1.612h.025c.026 0-.002-.007-.025 0zm-1.581-.885l-.051.027a.386.386 0 00.051-.027z" fill="#6C60F2"/><path d="M27.375 18.642c-.044.03-.09.06-.137.085-.055.055.112-.047 0 .043l.06-.05c.102-.051.135-.047.014.044l-.045.024c.112-.056-.075.084.018.03.054-.04.09-.057.142-.097l.123-.046-.177.116.067-.025c.07-.048-.045.054.126-.052a1.73 1.73 0 01-.211.122c.056-.025-.02.025.087-.034l-.15.104.123-.05-.04.025c.14-.075-.065.07.173-.061l-.027.016c.128-.07.047 0 .023.022.077-.037.153-.079.225-.126-.023.054-.018.038.187-.05-.192.136-.334.174-.45.278a.828.828 0 01.224-.097 1.85 1.85 0 01-.225.2l.131-.076.085-.022-.198.099.203-.093c.128-.045-.281.176-.07.077l-.043.027c.106-.054.077-.02.122-.027l-.171.093.03-.032c-.163.1.037 0 .033.016.063-.023.2-.106.252-.129 0 0 .047-.016 0 .016-.088.056-.18.107-.274.151a.717.717 0 01.238-.097c-.044.027-.09.05-.137.072.047-.019.093-.04.137-.065l-.095.06c-.13.098.33-.157.289-.103-.097.045.031 0-.072.077-.034 0-.25.142-.356.194-.052.052.207-.104.257-.11l-.226.11c.102-.036.118-.059.192-.081-.04.025-.083.047-.126.067v.046l.207-.111c.027 0-.063.045-.1.068-.035.022 0 0-.026 0-.176.104.106-.043-.052.052a1.12 1.12 0 01.169-.088c-.058.03-.113.064-.165.103.086-.052.05 0 .187-.079a1.124 1.124 0 01-.17.088c.166-.08.038.016.134-.027l-.029.016c.101-.043.135-.04.286-.1l-.122.06c-.042.042.257-.122.262-.107-.171.086.027.018-.165.111.102-.043.151-.056.3-.126-.09.058-.241.103-.282.142l.095-.034-.09.05c.07-.037.08-.027.135-.057-.11.061-.185.106-.268.15.036 0-.063.056.038.01l-.054.03c.21-.1.054 0 .268-.104l-.11.066c.027 0 .24-.113.295-.134h.02a.94.94 0 00-.225.136s.027.015.135-.032a1.06 1.06 0 01-.225.088c-.203.115.06 0 .038.027l-.097.05c.143-.046.281-.103.415-.172-.118.064-.15.077-.275.134-.063.05.03.031.022.056a.757.757 0 01-.173.081c.101-.029 0 .05.225-.047-.088.038-.052.034-.09.06l.095-.044c.092-.032.184-.05.114 0l-.065.027c-.02.047.351-.122.212-.014-.043.027-.178.08-.167.088.081-.031.243-.115.205-.079l-.14.07.145-.06c.114-.062.065-.06.2-.111-.124.076.135-.052 0 .038-.018 0-.126.052-.185.077-.148.115.16-.02 0 .1.12-.037.153-.028.261-.066-.141.067-.265.128-.38.176 0 .022.31-.127.108-.016.196-.086.142-.02.414-.147a.482.482 0 01-.153.075c.1-.023-.225.14-.225.146 0 .007.169-.087.178-.078l-.047.027.065-.025c-.06.034-.137.059-.207.092-.07.034.169-.05.196-.038l-.05.02v.023h-.016l.104-.03-.072.034c.022 0 .065-.027.076-.027l-.085.04a.53.53 0 01.225-.067l-.036.02.185-.063c-.088.057-.214.086-.138.077l-.178.08c.077-.019-.018.03.048.013.048-.033.1-.06.153-.084-.196.11.06 0 .148-.031l-.11.036s.092-.048.097-.057l-.104.038.12-.06-.102.031c.14-.068 0-.022.162-.088-.065.018.032-.038-.114.02.08-.047.11-.038.119-.052-.135 0-.135-.045-.108-.115l.065-.027-.169.066c.108-.061.239-.163.02-.07l.061-.027c-.031 0 .104-.102.07-.113-.225.1.124-.102-.184.038l.065-.025a3.18 3.18 0 01-.293.127l.331-.172-.065.043.162-.084c-.435.179.166-.146-.146-.013l.058-.027c.086-.057-.124.038-.185.056a2.18 2.18 0 01.2-.085c.055-.053-.184.022-.067-.064-.112.048-.144.077-.225.109a.812.812 0 01.174-.09c.193-.12-.165 0 0-.12-.088.04-.178.072-.27.099.088-.043.179-.082.272-.115l.085-.04c0-.035.02-.082-.225.028.176-.092.032-.022.122-.08a.125.125 0 00-.036.022c-.158.068 0-.016-.03 0l.034-.014-.12.04c.036-.023.072-.045.109-.065l-.124.064s.155-.086.117-.08l-.092.05c.054-.038-.081.018.054-.054.027-.014.016 0 .02 0 .183-.106-.076 0 0-.056l-.198.108c-.07.018.036-.03.106-.066 0 0 .058-.045.074-.067a1.16 1.16 0 00-.133.063l.04-.038.113-.048c-.299.131 0-.065-.263.061.052-.036.122-.056.153-.079.117-.088-.225.052-.079-.045.147-.097-.031-.068.048-.154l-.054.03.029-.048c-.122.06-.074.014-.225.08.043-.023.106-.062.137-.075-.023 0-.085.02-.018-.027l.047-.02c.02-.041 0-.075-.101-.032-.016 0 .079-.052.142-.09 0-.016-.06 0-.151.04l.088-.06-.13.067c.015-.016.103-.061.134-.084-.164.066-.04-.036-.058-.045l-.066.036c-.053.023.03-.04.1-.07.058-.072-.226.075-.226.016.226-.14-.087 0 .167-.151-.076.022.02-.05-.135.03a.222.222 0 01.04-.026c.093-.063 0-.04-.067-.018l.076-.047c-.17.095-.14.038-.308.135a.678.678 0 01.104-.056c.153-.106-.086.032-.057 0 .03-.032.088-.056.12-.072.155-.147-.18 0-.086-.133 0-.019-.171.115-.171.09a1.76 1.76 0 00.218-.15c-.108.06-.087.044-.085.026a.988.988 0 01.135-.075c.063-.05-.149.059-.018-.043a1.146 1.146 0 01-.113.068c-.155.077.117-.136.036-.084a.107.107 0 00-.04.025s.018-.034.099-.086a.937.937 0 01-.128.07l.094-.06c-.022.01-.083.047-.097.051l-.054.043c.075-.058-.123.055.054-.067l.072-.07c-.076.045-.153.088-.135.063.183-.131.025-.052.036-.077l.063-.045c-.094.054-.072 0-.101.027-.03.027.03-.052.09-.088a.516.516 0 00-.16.074l.144-.124c-.225.154.059-.09-.18.084.032-.036.086-.073.122-.109-.124.075-.113.048-.104.023l.025-.02c0-.025-.12.05-.142.043l.176-.14c-.032.01-.171.115-.14.076a.135.135 0 01.047-.031c-.04.018 0-.027.034-.068-.137.088-.097.04-.243.138.149-.131.081-.041.225-.163.068-.084-.034-.034-.124 0 .032-.03.061-.05.097-.079 0 0-.45.305-.608.452a1.84 1.84 0 00-.274.226c.072-.052.164-.107.038 0l.122-.098c.072-.027-.248.204-.226.226l.037-.036s.092-.06.053-.025a.802.802 0 01-.08.059l.18-.113a1.847 1.847 0 01-.167.124c.018.014.225-.178.19-.12a.938.938 0 01-.12.086c-.097.09 0 .023.076-.02a2.08 2.08 0 00-.166.131c.053-.045.11-.087.168-.124-.114.083-.056.052-.078.079.035-.03.072-.058.11-.084.02 0-.022.027 0 .025l.104-.09c.112-.07-.045.06-.086.104a.327.327 0 01-.045.027c-.038.043-.124.117-.018.056h-.016c.126-.06.185-.144.306-.196-.018.025-.371.264-.225.185a1.18 1.18 0 01.293-.176l-.225.147s.067-.032.047-.014l.047-.036c.187-.133-.015.034.104-.04-.261.17-.214.137-.468.315.144-.092.277-.174.26-.142l-.204.129c-.031.047.272-.136.45-.226-.15.097-.198.14-.328.226h.042l-.164.106c.094-.052.186-.108.275-.17-.03.019-.054.034-.05.028a.863.863 0 01.196-.116c-.05.041-.086.052-.144.095.09-.054-.05.043.016 0l.09-.067c.123-.082 0 0 .076-.03a1.27 1.27 0 00-.2.133h.016c.01 0 .1-.054.031 0l-.175.113.13-.079a.628.628 0 01-.115.08c-.092.09.372-.251.225-.118-.065.043-.11.07-.076.036a2 2 0 00-.2.145l-.018.013c-.016.014-.005.036.119-.031z" fill="#6C60F2"/><path d="M27.24 18.671s0-.014-.034 0-.07.072.034 0zm.925 1.066l.04-.025c-.036.018-.065.034-.04.025zm-.32-.214a1.77 1.77 0 00.16-.073c-.055.02-.108.044-.16.073zm-.243-.353a.664.664 0 01.101-.032c-.036.014.018-.029-.101.032zm.808.544l-.097.041.07-.027.027-.014zm-.092-.029c.02-.016-.045 0-.093.032a.644.644 0 01.093-.032zm-.032-.28l-.103.05.08-.034.023-.016zM8.077 6.96l-.08-.065.044.145.036-.08zm-.545.506c.063.122.068.264.264.357a2.155 2.155 0 01-.117-.185c.15.063.173 0 .162-.086 0 .022-.018.047-.027.07 0-.03-.106-.072-.115-.102.13-.052-.03-.203.175-.185l.012.016-.034-.136c.036 0 .088.055.106.08-.018-.109-.045-.213.031-.283-.135-.074-.133.012-.128.09.004.08.013.159-.126.102v-.018c.02.154-.219.133-.203.28zm1.608 3.32l.016-.045c-.012.015-.023.031-.016.045zm-.851-1.09c.041-.04.041-.028 0 0zm2.035-3.824v-.075c-.018.057-.011.075 0 .075zm-.946.741l.012.058c0-.02-.004-.04-.012-.058zm-.317.214c-.016 0-.03-.018-.038-.014-.01.005.036.03.038.014zm-.684-.844a.138.138 0 010 .032.051.051 0 000-.032zm1.567.792l-.032.156c.014-.05.023-.104.032-.156zm-.896.201a.162.162 0 00-.04-.04c.017.024.033.042.04.04zm-1.565.604a.104.104 0 000-.064c-.011.013-.011.036 0 .063zm3.573.776a.38.38 0 00-.059 0c.02.004.04.004.059 0zm-.721-1.07a.178.178 0 00-.04.036l.04-.036z" fill="#6C60F2"/><path d="M10.214 7.014a.431.431 0 01-.086.138c0 .095.128-.068.11.084l.016-.082c.093-.074.183-.05.12.095l-.039.036c.106-.076.011.14.088.07.031-.063.07-.08.092-.149.054-.01.108-.018.167-.027l-.137.163.085-.014c.052-.067 0 .097.151-.036-.034.077-.126.097-.194.15.066-.023 0 .042.108-.019l-.114.142c.05-.01.099-.02.148-.027a.428.428 0 01-.04.027c.148-.065-.023.12.225 0l-.027.016c.137-.058.083.057.063.09.052.019.166-.07.236-.106.023.147 0 .09.26.122-.194.147-.375.068-.498.201a.305.305 0 01.272.037.58.58 0 01-.254.243l.148-.024c.031.02.061.041.09.065l-.225-.02c.076.011.152.029.225.052.137.08-.33.045-.099.104h-.05c.12.022.07.072.106.135l-.19-.045.046-.03c-.193 0 .027.055 0 .098.059.054.226.06.27.094-.01.016.039.052-.018.055a1.391 1.391 0 01-.303-.073c.189.075.162.082.225.176a.361.361 0 01-.149-.05c.04.036.088.062.14.078h-.117c-.18.027.32.185.225.277-.086-.065-.014.1-.144.077-.014-.045-.266-.106-.365-.174-.09.03.198.124.212.201l-.187-.13c.072.096.115.074.15.16-.051-.048-.07-.014-.119-.08-.058.046-.031.041-.085.077l.189.138c.011.036-.079-.018-.115-.038 0 0 .013-.018 0-.034-.176-.1.067.101-.097 0 .061.043.149.1.142.13-.106-.096-.128-.056-.176-.094.086.054 0 .07.113.183-.1-.054-.074-.086-.13-.142.114.146-.057.08 0 .176l-.023-.025c.05.11.02.158.043.339l-.077-.113c-.088-.012.113.273.045.302-.074-.176-.097.066-.162-.142 0 .115.007.23.02.345-.074-.088-.02-.268-.092-.302 0 .038-.011.074-.02.113l-.043-.095c.025.075-.022.097 0 .153a2.458 2.458 0 01-.113-.284c-.02.05-.092-.063-.092.05l-.016-.059c.014.226-.085.068-.07.303l-.038-.127c-.05.027-.02.269-.042.33-.025 0-.054.04-.081.02.072-.158-.048-.183-.061-.273-.027 0-.11.016-.142.133.043-.122.025-.226.085-.226-.022-.226-.09.057-.157.014l.013-.109c-.096.061-.13.249-.209.423a.815.815 0 01.079-.296c-.047-.095-.165-.018-.225-.059a.247.247 0 01.067-.18c-.097.076-.14-.064-.265.14.051-.084 0-.07-.014-.122a.453.453 0 01-.047.094c-.081.075-.225.104-.225 0l.05-.051c-.048-.046-.131.013-.226.05-.094.035-.164.06-.176-.057 0-.059.136-.145.093-.172-.072.057-.176.208-.203.124l.101-.12-.137.093c-.063.115.036.133-.101.21.036-.153-.142.073-.095-.115a.657.657 0 00.171-.11c0-.127-.063-.132-.13-.147-.068-.016-.133-.041-.11-.163-.142 0-.226-.065-.363-.065.12-.073.247-.134.378-.181 0-.059-.337.079-.157-.072-.214.072-.198-.12-.491-.043.056-.025-.03-.086.16-.057-.13-.079.225-.205.202-.241-.022-.036-.177.07-.198 0 0 0 .04-.018.052-.027h-.074c.065-.034.15 0 .225-.012.05-.076-.185-.1-.225-.205l.054.016a.72.72 0 01.013-.097h.018a1.367 1.367 0 01-.101-.089l.079.012c-.023-.02-.07-.032-.077-.059l.095.02a.225.225 0 01-.192-.225h.043a1.595 1.595 0 01-.15-.177c.119-.029.186.15.161 0l.176.093c-.043-.104.059-.077.018-.154-.101-.015-.103.03-.173-.033.225.022 0-.125-.054-.226-.014.034-.027.056.063.126-.018.032-.1-.031-.117-.013l.08.095-.13-.037.065.127c-.144-.059-.05.077-.193-.011.038.083-.074.101.063.2-.104.025-.095-.103-.122-.056.05.312.027.594.05.903l-.077-.013c.077.013.14.036.196.043-.117.076-.182.334.056.3 0 .014-.045.016-.063.016.068.07 0 .316.115.418.117-.048.115.013.124.074.009.061.034.104.176 0l-.07.027c.043-.095.225-.108.288-.156-.137.176-.122.116-.24.29l.02-.093-.124.133c.225-.093.24-.014.247.088.007.102 0 .21.149.106-.016 0-.034.034-.05.043 0 .124.171-.03.246-.054a.45.45 0 01-.174.145c.03.067.124.079.212.09.088.011.169.034.196.124.097-.088.06-.151.142-.215a.16.16 0 01-.07.183c0 .13.103.138.211.138s.226 0 .273.12c.124-.109.085-.174.225-.226-.05.079-.034.3-.12.291l-.033.09c.135.053.335.125.45-.14-.016.2.02.041.065.154.025-.02 0-.032 0-.045.066-.163.077.013.117-.011l-.013.034.106-.122c.025.037.04.08.045.126v-.14c.054 0 .027.18.099.14l-.02-.101c.047.06.108-.09.128.06 0 .03 0 .019-.02.025.092.204.175-.083.277 0l-.064-.226c.066-.085.059.037.07.116.054-.014.083.056.165.063.022-.068 0-.086 0-.154l.087.03-.013.133c.013-.176.08-.19.153-.201.072-.011.137-.032.106-.183.067.038.022.138.063.163.099.031.15-.055.187-.143.036-.088.07-.16.166-.133a.381.381 0 00.282-.156.825.825 0 01.238-.226l-.054-.038.124-.102c-.092-.106.016-.16-.101-.286.048.02.093.046.135.076 0-.065-.023-.153.067-.153l.04.04c.1-.11.15-.295.064-.392 0-.048.103-.018.18-.012.023-.072-.027-.135-.108-.225a.476.476 0 01.115-.028l-.14-.056c.027-.025.12.016.162 0-.15-.14.025-.273.014-.373h-.072c-.057-.038.047-.112.121-.065.048-.097-.018-.17-.088-.24-.07-.07-.153-.137-.153-.255.252-.094-.126-.185.144-.304-.105-.075-.018-.186-.209-.181.027-.014.034-.027.045-.014.088-.083-.05-.176-.164-.225l.074-.05c-.182.063-.225-.102-.405-.018.03-.034.076-.034.112-.043.127-.15-.121-.018-.123-.09.04-.025.074-.075.11-.086.018-.152-.101-.226-.225-.3-.124-.075-.27-.118-.338-.258-.056-.052-.101.183-.169.115.034-.097.156-.138.126-.208-.108.075-.105.046-.15 0 .045-.05.058-.092.121-.103.011-.093-.214.05-.196-.127a.292.292 0 01-.083.104c-.167.106-.144-.264-.196-.18 0 0-.045.01-.025.042-.033-.018-.076-.065-.033-.153-.039.043-.084.113-.115.11l.054-.099c-.027.016-.07.077-.092.084v.074c-.014-.104-.163.088-.1-.12h.018c-.018-.038-.036-.08-.058-.12-.056.077-.11.154-.158.114.025-.226-.14-.077-.207-.109v-.079c-.072.1-.225.045-.193.084-.057 0-.138-.054-.108-.125-.05.046-.156.043-.17.179a4.05 4.05 0 00-.119-.176c-.018.278-.225-.066-.168.226-.061-.034-.066-.1-.118-.143-.038.165-.114.16-.2.167l-.013-.027c-.086.012-.113.181-.194.249l-.12-.165c-.038.059.041.212-.029.203a.045.045 0 01-.02-.059c-.02.07-.11.064-.18.046.032.178-.05.176.016.35-.18-.104 0-.127-.155-.226-.165 0-.174.178-.176.334a.34.34 0 01-.092-.088c.045.097.1.19.162.278.084.131.196.242.328.325.074.1.184.167.307.187-.059-.068-.1-.187.033-.092l-.117-.102c0-.12.25.199.309.129l-.05-.02c0-.02-.056-.102 0-.082a.226.226 0 01.06.084 1.867 1.867 0 01-.085-.21c.05.049.094.105.129.167.047-.052-.203-.203-.09-.226.056.043.054.079.078.126.113.077.057-.027.045-.124.08.115.05.115.124.172-.045-.059-.117-.156-.101-.183.065.124.056.05.097.07a.364.364 0 01-.066-.122c0-.027.039.016.05 0a2.105 2.105 0 00-.097-.104c-.018-.142.106.02.16.063a.104.104 0 010 .055c.06.038.124.126.124 0v.018c.04-.158-.106-.213-.032-.373.045.018.102.452.135.271a.362.362 0 01.045-.355v.274c.018 0 .041-.077.054-.052v-.061c-.029-.226.068.022.095-.115a2.19 2.19 0 00-.027.57c0-.175.038-.331.1-.3-.019.08-.032.16-.044.242.032.025.063-.052.11-.153.046-.114.098-.226.156-.335-.045.177-.027.242-.074.391l.074-.027-.054.19c.06-.194.067-.05.117-.307-.016.033-.02.063-.034.052.016-.077.063-.226.106-.21.014.07-.04.094-.05.167.052-.095 0 .07.057 0v-.113c.058-.14.05 0 .097-.057a.398.398 0 00-.077.226v-.02c.02 0 .079-.095.065 0l-.078.194.072-.136a.249.249 0 01-.043.131c.034.147.148-.424.196-.198-.034.07-.063.115-.077.058a.516.516 0 00-.06.242v.023c.047.02.1.063.2-.046z" fill="#6C60F2"/><path d="M10.011 7.06c-.025-.012-.047-.02-.067 0-.02.02.02.122.067 0zm-.927 2.65a.093.093 0 000 .048c.01-.047.02-.079 0-.047zm1.148-.096c0 .06.008.12.022.178a.377.377 0 00-.022-.178zm.398-.128l-.013-.03a.06.06 0 00.014.03zm.333-.873c.061.036.052.066.084.102-.032-.032.042-.059-.084-.102zM8.67 9.74l.078-.074-.063.047-.016.027zm.276.072c0 .032.072-.013.081-.07a.25.25 0 01-.08.07zm1.016.301l.004-.115-.018.09.014.025zM30.2 21.916l-.097-.052-.09.248.187-.196zm-1.805 1.49c-.068.226-.286.576-.127.727.037-.135.07-.275.113-.408.158.076.315-.111.434-.3-.056.06-.112.119-.166.182.027-.06-.074-.106-.045-.167.33-.205.243-.452.623-.549v.028l.133-.267c.081-.038.106.04.106.081.107-.244.27-.46.475-.63-.394-.058-.405.655-.792.608v-.025c-.17.3-.577.424-.755.72z" fill="#6C60F2"/><path d="M29.463 22.733v.02s-.002-.004 0-.02zm.928 8.43h-.052a.119.119 0 00.052 0zm-2.661-.468v.018c.075-.029.054-.027 0-.018zm8.05-4.882l.086.052c-.061-.045-.072-.058-.086-.052zm-1.541-1.829l-.075.012c.054 0 .07-.003.075-.012zm-1.162-.835a.451.451 0 00-.099-.1.144.144 0 00.1.1zm-.023-1.267zm-.382 1.152a.16.16 0 00-.043-.093.1.1 0 00.043.093zm-4.532.646a.918.918 0 00.108-.145.305.305 0 00-.108.144zm7.864 7.212a.167.167 0 00-.068 0 .042.042 0 00.034.017.043.043 0 00.034-.017zm-2.824-4.855h-.016a.113.113 0 000 .035l.017-.035zm.993 1.321h-.04a.056.056 0 00.04 0zm-1.36-3.285a.225.225 0 00.066-.057l-.066.057z" fill="#6C60F2"/><path d="M33.768 24.278a1.186 1.186 0 01-.088-.179c-.034-.045-.018 0-.027 0-.009 0 .043.039-.189-.05l.167.093c-.284.097-.592.09-.872-.018l-.524-.293.099 1.341-.676-.075 1.126-.995.052-.048a.204.204 0 01-.054.027l-1.452.529 1.004.576c.173.099.196.42.32.41 0-.101.083-.065.054-.198.14.092.272.194.41.291l-.143.163c.072.05.142.101.212.155.03-.103.158.31.32.192.029.163-.165.052-.261.061.137.075.074.143.25.176l-.064.226c.108.075.226.147.325.226-.025 0-.023.023-.045.018.225.05.173.402.515.434h-.031c.187.018.265.323.292.431.133.145.194-.027.264-.063.263.503.168.345.605.643-.058.362-.49-.099-.45.292.122-.016.32.155.495.381.025.134.072.3.11.472.038.162.05.328.039.493l.126-.088c.079.094.15.194.225.29l-.284-.094c.12.07.235.144.347.226.27.291-.225.32.097.499a.36.36 0 01-.034.043.299.299 0 01.164.19l.07.16c.008.02.017.04.03.058a.301.301 0 00.026.039 1.032 1.032 0 00-.204 0v-.127a.123.123 0 00-.04.111v.025h.022c.033 0 .096.025.096.05a.831.831 0 00.178.074c.062.016.12.044.171.084 0 .034.095.133.032.13-.025.03-.1-.017-.18-.074-.081-.056-.165-.115-.225-.147.165.088.294.23.367.402a1.555 1.555 0 01-.183-.176l-.015-.018v.014c.037.059.079.115.126.167a3.316 3.316 0 01-.178-.145c-.147-.106-.08 0-.08.104s-.044.226-.224.154c.04-.046-.023-.052-.12-.068-.096-.016-.279-.048-.33-.122.153 0-.014-.296.099-.393-.32-.14-.18.199-.464.185l.162-.226c-.284.046-.092.116-.374.127.088-.05-.103-.09.07-.129-.34-.108-.257-.06-.552-.167l-.083.226c-.108 0-.12-.11-.137-.16.043 0 .106.031.108 0-.068-.226-.225.06-.31-.156.013.08.024.192-.106.169.078-.126-.154-.183-.147-.244.052.118-.279-.034-.342.11-.11-.148.079-.092.11-.166-.17.137-.506-.133-.646-.073v-.034a7.908 7.908 0 01-.797.028l.151-.086c-.275-.174-.286.192-.536.09.126-.156-.412-.165-.225-.314a1.53 1.53 0 00-.531.11c-.09-.162.374-.107.21-.25h-.248v-.11a.062.062 0 01-.054.025.646.646 0 01-.093 0c-.058 0-.11-.02-.112.013 0-.142-.104-.307-.086-.406a1.75 1.75 0 01-.33-.21.938.938 0 00-.167-.104c-.052-.032-.1-.052-.126-.039l-.045-.106c-.027.07-.086.066-.158.036-.09.048-.243 0-.153.176a4.954 4.954 0 00-.158-.187c-.067-.014-.058.04-.038.093l.027.072a.45.45 0 01.054.108.435.435 0 01-.18-.126.424.424 0 00-.036-.073c0-.022-.04-.063-.038-.06a.514.514 0 00-.079-.077c-.072-.064-.164-.134-.191-.156l-.063-.043c.045.132.105.258.177.377a1.095 1.095 0 01-.168-.316c-.014 0-.016.05.018.136.041.1.072.203.092.309l-.095-.095a.925.925 0 00.158.395c.106.142.225.274.353.395l.126.127a1.03 1.03 0 01-.184-.11 2.366 2.366 0 01-.225-.209 1.405 1.405 0 01-.086-.101.281.281 0 00-.02.027c.062.203.137.401.225.594.088.196.163.397.225.603-.056.14-.13.083-.225-.061.03.056.059.11.083.17.025.058.034.074.048.112.029.075.05.151.076.226a.511.511 0 00.248.334c-.092-.04-.052.081-.05.19l.45-.332a.365.365 0 01-.04-.043c-.025.043-.072.088-.081.074a1.124 1.124 0 01-.743-.327l.104-.018c-.39-.296-.813-.09-1.137-.576-.043-.101.2-.088.045-.21-.129 0-.225.167-.385-.045l.12-.104H27.8c-.025.156.225.325-.027.29-.068-.272-.259-.032-.333-.369a.484.484 0 00.279 0 1.724 1.724 0 00-.45-.54 1.007 1.007 0 01-.37-.605c-.25-.199-.423-.56-.578-.747a.588.588 0 01.45.036c-.02-.12-.124-.183-.2-.253-.077-.07-.11-.142 0-.242-.12-.045-.16-.226-.212-.395-.052-.17-.09-.345-.225-.395.063 0 .04-.291.169 0a.373.373 0 01.153-.373c.097-.074.194-.117.225-.192.032-.074-.225.05-.157-.15.018-.021.05-.019.07-.04l-.046-.096c.09-.057.115.133.19.16a.707.707 0 00.063-.377.941.941 0 01.056-.452l.02.077c.05-.104.11-.203.169-.303v.027c.013-.097.025-.198.047-.295l.06.047c.017-.065-.017-.104.023-.185l.066.075c-.084-.154.038-.477.133-.61h.051l.081-.425c.205-.097.018.348.212-.016l.088.204c.119-.267.225-.226.301-.42-.132 0-.209.113-.211-.02.315-.026.193-.306.274-.531-.072.083-.123.14-.09.27-.078.084-.103-.038-.16 0 0 .066-.017.13-.024.197l-.133-.052-.101.29c-.11-.116-.178.191-.239 0-.067.202-.225.225-.212.469-.155.056.032-.246-.063-.136-.369.737-.817 1.455-1.069 2.333l-.05-.102c.05.104.082.226.12.3a.875.875 0 00-.212.73.371.371 0 00.122.226c0 .03-.05-.014-.07-.034.02.154.016.37.032.61.013.24.07.477.166.697.155.034.18.201.225.355.045.154.124.305.313.271l-.108-.032c0-.169.31.039.408.032-.113.226-.136.104-.226.339-.013-.059-.024-.122-.036-.183l-.126.138a.774.774 0 01.56.503c.096.212.188.407.42.393-.027 0-.043.025-.07.025.09.226.36.142.515.194-.045.081-.164.054-.272.054.164.166.357.3.57.396.22.095.418.234.583.408.184-.027.042-.167.225-.167.085.095.108.226-.054.197.085.19.346.298.628.417l1.31.554-.437-1.163a2.286 2.286 0 01-.211-.904c-.17-.088-.194.025-.363-.203.068.032.14.054.214.066a.416.416 0 01.149.054l.103.013a3.808 3.808 0 01-.349-.343c.16.156.176.17.171.16-.004-.009-.033-.042.057.048a.706.706 0 00-.075-.075c-.153-.169-.16-.187-.128-.158.031.03.097.102.067.064l.07.083c-.083-.101-.175-.226-.274-.35l.022.027c.063.072.144.17.248.298l-.27-.34c.038.03.349.435.304.367l-.183-.237c.068.084.047.05.05.043.002-.007.02 0 .124.156.04.059.02.032.02.038.144.201.128.183.108.143-.02-.041-.04-.104-.016-.07l.018.031a6.154 6.154 0 00-.15-.343c.047-.05.071.095.11.206.031.02.067.121.087.16 0-.057 0-.088.018-.156.016.027.03.055.043.083a.34.34 0 00-.05.113.191.191 0 01.039-.085.079.079 0 01.023-.018h.033a1.3 1.3 0 01.273.128c.173.102.337.183.5.093.092.11-.158.077-.104.144.315.3.9.138 1.157.402.45.335 1.1.368 1.65.619v-.06c.133.051.266.103.398.15.145-.106.41.023.617-.097-.024.045 0 .124-.05.15.18.02.383 0 .471.094l-.067.04.15.041.08.02.13.03c.196.04.4.072.587.1.27.054.545.066.818.033.177.036.342.12.475.244.11.018.207.03.29.036a5.195 5.195 0 00-.367-.842.543.543 0 01.056-.2c-.072-.078-.144-.15-.211-.227-.02-.144.126.012.133-.106a3.288 3.288 0 01-.225-.485l-.08-.226-.037-.115-.018-.057-.012-.038a3.166 3.166 0 00-.126-.472l-.054.06c-.092-.076-.074-.306.043-.225-.115-.51-.507-.603-.77-1.226.194-.208-.351-.508-.142-.736-.205-.226-.196-.436-.45-.52.022-.02.02-.047.047 0 .04-.158-.225-.438-.45-.636l.067-.064c-.225.018-.45-.424-.675-.397.016-.05.1 0 .151 0 .067-.226-.225-.163-.297-.343.047-.016.058-.095.11-.084-.198-.643-1.033-1.158-1.472-1.863l-.378.928h.024c.2 0-.087-.203.183-.2.074.099-.122.203.04.243.117-.124.162-.097.32-.077-.034.064-.014.109-.122.15a.109.109 0 00.097.015h.106a.282.282 0 01.045 0h.043c.119.007.237.023.353.048.135.04.262.104.376.187-.025-.04-.022-.063 0-.079a.08.08 0 01.077-.025c.236.063.454.183.635.348.15-.014.302-.003.45.032.108.027.175.036.135-.014 0 0 .034-.063-.056-.068a.31.31 0 01.29.102c-.047-.068-.12-.154-.092-.163l.103.109a.594.594 0 00-.058-.093l-.032-.018-.065-.043.043.023h.047c.011 0 .038.015.099.065.045.023.07.048.095.059a.158.158 0 00-.027-.02.201.201 0 01.029-.052c.04 0 .094-.023.135-.082.04-.058.063-.146.121-.194l.086.057a.247.247 0 01.038-.172c-.101-.194-.17-.359-.182-.32-.088-.177-.158-.412 0-.28-.083-.096-.178-.227-.284-.355a1.128 1.128 0 00-.355-.294 1.88 1.88 0 00-.02-.34.969.969 0 01-.487-.414c-.12-.156-.225-.302-.356-.226a.494.494 0 01-.099-.203.312.312 0 00-.015-.129 1.005 1.005 0 01-.57-.356l.014-.028c-.165-.158-.466-.19-.739-.338l.059-.226c-.165-.061-.284.074-.401-.043-.018-.047.018-.043.063-.034a.972.972 0 01-.423-.273c-.293.056-.45-.066-.718.054-.147-.244.308-.014.191-.226-.333-.203-.783-.16-1.216 0-.042-.036 0-.081.018-.128a1.556 1.556 0 00-.369.379c-.146.226-.184.451-.079.52a.453.453 0 000 .207c.018.054.108.066.226.086a.295.295 0 01.137-.158c.067-.034.142-.027.17.05v-.159c.174-.05.186.032.201.122.016.09.036.179.225.199l-.074-.06c.072 0 .144-.098.225-.03.018.047-.038.058-.074.088.12-.055.244-.1.371-.133a.212.212 0 01-.119.185c.297.081.016-.303.376-.115.045.09-.059.079-.122.11.122.19.273.118.487.129-.061.124-.162.056-.066.205 0-.079.04-.198.158-.155-.117.097.047.11.135.198a.104.104 0 01.097-.104c.06 0 .076.086.153.122l-.059-.196c.255 0 .25.24.345.38a.1.1 0 01-.088 0c.106.146.173.331.412.372h-.025c.401.153.052-.269.502-.052.05.063-.04.138-.094.208a.117.117 0 00-.036.106c.02.043.018.036.087.043.019-.064.088-.1.203-.075.133.033.259.09.371.167a1.756 1.756 0 00-.423-.043c.025.03.18.08.165.107h.076c.144-.018.173.027.196.08.023.055.023.11.18.18a3.629 3.629 0 00-.529-.154 3.458 3.458 0 00-.437-.046c.135.012.268.043.394.09.117.048.214.114.225.154a3.819 3.819 0 00-.497-.196c-.043 0 .198.093.592.361.284.193.557.403.817.628-.247-.18-.4-.269-.55-.364-.148-.094-.292-.19-.499-.33.053.054.104.11.151.168a15.36 15.36 0 00-.547-.4c.134.086.263.18.387.28.07.063.162.142.536.43-.108-.096-.194-.159-.182-.17.112.086.283.226.432.348.067.057.132.118.193.183.045.047.1.121.05.072l-.486-.393c.252.203-.226-.185-.068-.054l.356.284c.182.15.153.124.099.084-.054-.04-.128-.102-.074-.054-.068-.064-.331-.271-.572-.468l.052.043s.175.156-.046-.023l-.45-.368.3.253-.068-.052-.184-.155-.046-.039-.024-.02c-.122-.095.099.095.281.255.068.055.132.114.194.176.018.025-.036 0-.178-.106s-.178-.178-.036-.075c-.225-.194-.367-.32-.462-.4l-.036-.033c-.027-.016-.05-.03-.045 0 .005.03.014.056.014.104z" fill="#6C60F2"/><path d="M33.797 24.174c.02 0 .034.018-.015-.025-.093-.074-.192-.167.015.025zm-3.703 7.736a.109.109 0 00.03.07c.02-.036.022-.07-.03-.07zm.763-2.018c-.175-.03-.225 0-.243.058a.2.2 0 00.243-.058zm2.062.978l.047-.017c-.034 0-.043.007-.047.016zm3.24.623a.806.806 0 01.162.194c-.058-.072.014-.072-.162-.194zm-7.364-.138l.155-.02h-.142l-.013.02zm.939.531c.027.045.225.083.205 0a.475.475 0 01-.205 0zm-.43-2.356l-.025-.065a.061.061 0 01-.023.025l.048.04z" fill="#6C60F2"/></svg>