<svg width="50" height="51" fill="none" xmlns="http://www.w3.org/2000/svg"><path d="M26.917 5.184l13.562 7.313c1.584.854 1.584 3.291 0 4.145l-13.562 7.313a4.034 4.034 0 01-3.834 0L9.522 16.642c-1.583-.854-1.583-3.291 0-4.145l13.563-7.313a4.034 4.034 0 013.833 0z" stroke="#715AFF" stroke-width="2" stroke-linecap="round" stroke-linejoin="round"/><path opacity=".4" d="M7.52 21.58l12.605 6.313a4.663 4.663 0 012.562 4.145v11.917c0 1.73-1.812 2.834-3.354 2.063L6.73 39.705a4.664 4.664 0 01-2.563-4.146V23.643c0-1.73 1.813-2.834 3.355-2.063zm34.959 0l-12.604 6.313a4.663 4.663 0 00-2.563 4.145v11.917c0 1.73 1.813 2.834 3.354 2.063l12.604-6.313a4.664 4.664 0 002.563-4.146V23.643c0-1.73-1.813-2.834-3.354-2.063z" stroke="#715AFF" stroke-width="2" stroke-linecap="round" stroke-linejoin="round"/></svg>