<svg width="59" height="59" fill="none" xmlns="http://www.w3.org/2000/svg"><path d="M21.314 34.417H9.834a4.931 4.931 0 00-4.917 4.916v14.75h16.397V34.417z" stroke="#227EF0" stroke-width="2" stroke-miterlimit="10" stroke-linecap="round" stroke-linejoin="round"/><path d="M32.77 24.583h-6.564a4.931 4.931 0 00-4.917 4.917v24.583h16.397V29.5a4.915 4.915 0 00-4.916-4.917zm16.397 17.209h-11.48v12.291h16.397v-7.375a4.931 4.931 0 00-4.917-4.916z" stroke="#227EF0" stroke-width="2" stroke-miterlimit="10" stroke-linecap="round" stroke-linejoin="round"/><path d="M30.78 5.089l1.303 2.606c.172.368.639.712 1.032.762l2.36.393c1.5.246 1.868 1.352.787 2.41l-1.844 1.843c-.32.32-.492.91-.393 1.327l.516 2.262c.418 1.795-.541 2.483-2.114 1.549l-2.213-1.303c-.393-.246-1.057-.246-1.45 0L26.55 18.24c-1.573.934-2.532.246-2.114-1.549l.516-2.262c.099-.418-.073-1.032-.393-1.327l-1.82-1.82c-1.08-1.081-.737-2.163.788-2.408l2.36-.394c.393-.073.86-.418 1.032-.762l1.303-2.606c.713-1.426 1.844-1.426 2.557-.024z" stroke="#227EF0" stroke-width="2" stroke-linecap="round" stroke-linejoin="round"/></svg>