<svg width="40" height="40" fill="none" xmlns="http://www.w3.org/2000/svg"><path d="M31.521 19.93a11.538 11.538 0 00-3.425-7.935 11.305 11.305 0 00-7.937-3.264 11.305 11.305 0 00-7.936 3.264 11.538 11.538 0 00-3.425 7.935 11.538 11.538 0 003.425 7.936 11.305 11.305 0 007.936 3.263c2.966 0 5.814-1.17 7.937-3.263a11.538 11.538 0 003.425-7.936zm-3.26 5.175a21.165 21.165 0 00-2.52-.77c.25-1.149.392-2.32.423-3.496h3.564a10.004 10.004 0 01-1.467 4.266zm-17.685-4.336h3.565a25.51 25.51 0 00.415 3.497c-.837.21-1.675.49-2.512.77a9.39 9.39 0 01-1.495-4.267h.027zm1.468-6.013a21.6 21.6 0 002.512.769 19.31 19.31 0 00-.415 3.496h-3.565c.15-1.514.643-2.974 1.44-4.266h.028zM21.042 29.3v-3.916c.837 0 1.675.14 2.512.21-.491 1.398-1.335 3.076-2.52 3.706h.008zm-4.34-3.636a15.37 15.37 0 012.52-.21v3.916c-1.198-.7-2.036-2.378-2.527-3.706h.007zm2.56-15.175v3.916c-.837 0-1.674-.14-2.512-.21.436-1.329 1.274-3.007 2.513-3.706zm0 5.664v2.867h-3.425c.063-1.058.204-2.11.422-3.147.997.14 1.98.21 3.004.28zm0 4.615v2.868c-1.044.07-2.027.14-3.003.28a22.955 22.955 0 01-.422-3.148h3.426zm1.752 2.937V20.84h3.426a22.598 22.598 0 01-.422 3.147 15.08 15.08 0 00-2.983-.28h-.02zm0-4.685v-2.867c1.045-.07 2.028-.14 3.004-.28.21 1.039.35 2.09.422 3.147h-3.426zm0-4.615V10.49c1.253.63 2.077 2.307 2.513 3.636-.822.161-1.655.255-2.492.28h-.02zm3.004-3.287a8.728 8.728 0 013.073 2.168 13.52 13.52 0 01-1.813.56 16.353 16.353 0 00-1.24-2.728h-.02zm-7.828 0a11.942 11.942 0 00-1.26 2.727 13.877 13.877 0 01-1.82-.559 10.304 10.304 0 013.1-2.168h-.02zM15 26.014c.287.966.711 1.884 1.259 2.727a8.728 8.728 0 01-3.073-2.168 13.47 13.47 0 011.834-.559H15zm8.997 2.727c.53-.852.954-1.769 1.26-2.727.617.144 1.223.33 1.813.56a11.594 11.594 0 01-3.031 2.167h-.042zm2.077-9.72a24.415 24.415 0 00-.422-3.496c.844-.21 1.681-.49 2.519-.77a9.153 9.153 0 011.467 4.336h-3.564v-.07z" fill="#473BEF"/><path d="M39.28 17.273l-4.894-1.119c-.34-1.28-.86-2.505-1.543-3.636l2.658-4.266a.96.96 0 00-.139-1.119l-2.588-2.587a.944.944 0 00-1.115-.14l-4.263 2.727a13.972 13.972 0 00-3.634-1.538L22.64.7a.841.841 0 00-.29-.507.825.825 0 00-.548-.193H18.17a.825.825 0 00-.552.19.84.84 0 00-.292.51L16.21 5.595a13.765 13.765 0 00-3.634 1.538L8.313 4.406a.967.967 0 00-1.121.14L4.603 7.133a.955.955 0 00-.138 1.12l2.657 4.265a13.755 13.755 0 00-1.536 3.636L.692 17.273a.822.822 0 00-.501.289.838.838 0 00-.19.55v3.636a.83.83 0 00.19.55.822.822 0 00.501.29l4.894 1.118a13.782 13.782 0 001.536 3.637l-2.657 4.265a.974.974 0 00.138 1.12l2.589 2.587a.959.959 0 001.121.14l4.264-2.658a13.764 13.764 0 003.633 1.539l.838 3.846H5.655a.895.895 0 00-.636.266.914.914 0 000 1.286c.169.17.397.266.636.266h29.707a.895.895 0 00.637-.266.914.914 0 000-1.286.895.895 0 00-.637-.266h-12.3l.838-3.846a13.89 13.89 0 003.634-1.539l4.264 2.658a.968.968 0 001.121-.14l2.582-2.588a.933.933 0 00.138-1.118l-2.768-4.266a14.007 14.007 0 001.543-3.637l4.894-1.118a.829.829 0 00.5-.29.845.845 0 00.192-.55v-3.636a.844.844 0 00-.203-.557.828.828 0 00-.517-.282zm-1.052 3.776l-4.755 1.05a.835.835 0 00-.63.628 14.145 14.145 0 01-1.675 4.126.739.739 0 000 .91l2.589 4.125-1.613 1.609-4.153-2.588a.742.742 0 00-.914 0 11.197 11.197 0 01-4.153 1.678.815.815 0 00-.622.63l-.963 4.755h-2.235l-1.052-4.755a.827.827 0 00-.63-.63 14.127 14.127 0 01-4.153-1.678.742.742 0 00-.914 0l-4.153 2.588-1.606-1.609 2.59-4.126a.74.74 0 000-.909 11.288 11.288 0 01-1.683-4.126.828.828 0 00-.623-.629L1.987 21.05v-2.238l4.748-1.049a.813.813 0 00.63-.629c.343-1.456.91-2.848 1.682-4.126a.74.74 0 000-.909L6.458 7.972l1.606-1.608 4.153 2.587a.735.735 0 00.906 0 14.405 14.405 0 014.153-1.748.814.814 0 00.63-.63l1.052-4.754h2.236l1.045 4.755a.834.834 0 00.63.63c1.476.329 2.882.92 4.153 1.747a.736.736 0 00.907 0l4.153-2.587 1.612 1.608-2.664 4.126a.739.739 0 000 .91 11.155 11.155 0 011.675 4.125.834.834 0 00.63.63l4.755 1.048v2.238h.138zm-.907 17.203a1.054 1.054 0 00-.284.63c.02.23.125.443.293.6a.908.908 0 001.235 0 .927.927 0 00.293-.6.77.77 0 00-.277-.63.888.888 0 00-1.26 0zm-34.954 0a.89.89 0 00-.191.97.89.89 0 101.451-.97.888.888 0 00-1.26 0z" fill="#473BEF"/></svg>