<svg width="60" height="60" fill="none" xmlns="http://www.w3.org/2000/svg"><path d="M54.525 9.85c-3.85 9.6-13.5 22.65-21.575 29.125l-4.925 3.95c-.625.45-1.25.85-1.95 1.125 0-.45-.025-.95-.1-1.425-.275-2.1-1.225-4.05-2.9-5.725-1.7-1.7-3.775-2.7-5.9-2.975-.5-.025-1-.075-1.5-.025.275-.775.7-1.5 1.225-2.1l3.9-4.925C27.25 18.8 40.35 9.1 49.925 5.275c1.475-.55 2.9-.15 3.8.775.95.925 1.4 2.35.8 3.8z" stroke="#7616F0" stroke-width="2" stroke-linecap="round" stroke-linejoin="round"/><path d="M26.075 44.05c0 2.75-1.05 5.375-3.025 7.375-1.525 1.525-3.6 2.575-6.075 2.9l-6.15.675C7.475 55.375 4.6 52.525 5 49.125l.675-6.15C6.275 37.5 10.85 34 15.7 33.9c.5-.025 1.025 0 1.5.025 2.125.275 4.2 1.25 5.9 2.975 1.675 1.675 2.625 3.625 2.9 5.725.025.475.075.95.075 1.425zm9.525-7.875c0-6.525-5.3-11.825-11.825-11.825" stroke="#7616F0" stroke-width="2" stroke-linecap="round" stroke-linejoin="round"/><path d="M50.3 31.825l1.85 1.825c3.725 3.725 3.725 7.4 0 11.125l-7.4 7.4c-3.675 3.675-7.4 3.675-11.075 0m-25.9-25.9c-3.675-3.725-3.675-7.4 0-11.125l7.4-7.4c3.675-3.675 7.4-3.675 11.075 0L28.1 9.6m.025.025l-9.25 9.25M50.3 31.825L42.9 39.2" stroke="#7616F0" stroke-width="2" stroke-linecap="round"/></svg>