<svg width="50" height="35" fill="none" xmlns="http://www.w3.org/2000/svg"><path d="M20.371 34.019l.117.027.151-.332-.268.305zm2.472-2.321c.137-.285.566-.63.476-.821a4.359 4.359 0 00-.336.452c-.157-.09-.439.145-.633.4.087-.081.17-.172.261-.245-.057.073.054.114 0 .19-.46.303-.396.57-.878.809v-.03l-.205.365c-.104.077-.124 0-.117-.06a3.584 3.584 0 01-.671.935c.486-.07.594-.948 1.063-1.005v.033c.238-.433.748-.68 1.04-1.023zm-1.436 1.061v-.031s.004.01 0 .03zm15.171-9.32h-.05c.023.017.044.044.05 0zm-2.588 5.429h.026c0-.087-.01-.063-.027 0zM13.185 25.83v.151a.121.121 0 000-.15zm3.897 2.294v-.06c-.02.023-.017.043 0 .06zm2.626.838c.002.112.011.224.027.335a.713.713 0 00-.027-.335zm-.885 1.301zm-4.555-4.49l.084-.164a.305.305 0 00-.084.164zm5.688 4.004a.333.333 0 00-.037.144.167.167 0 00.037-.144zm3.272 1.616a1.326 1.326 0 00-.181.154.548.548 0 00.181-.154zM21.33 16.27a.181.181 0 00-.033.067c.053-.024.05-.044.033-.067zm-6.81 4.225v.024h.041l-.041-.024zm1.55-1.791a.218.218 0 000 .049.08.08 0 000-.049zm-2.103 3.437c.008.03.02.06.036.088l-.036-.088z" fill="#09A6FF"/><path d="M13.671 23.714c.047-.077.108 0 .168.064.037-.39-.154-.527 0-.93-.037.061-.06.125-.09.185a1.117 1.117 0 01-.037-.526.928.928 0 01.214-.466l.027.087a.724.724 0 01.13-.423c.085-.127.159-.234.132-.305-.1.074-.098-.047-.218.084.044-.227.101-.45.17-.67l.212.056.12-.335c-.123.024.336-.362.172-.486.18-.124.08.164.107.271.064-.2.148-.164.171-.385l.268-.04c.07-.168.168-.336.252-.483 0 .033.027 0 .023.047.02-.145.154-.235.279-.336a.734.734 0 00.278-.429v.034a.554.554 0 01.248-.306c.127-.08.268-.14.335-.177.205-.198 0-.215-.047-.282.725-.43.477-.298.986-.842.473 0-.245.57.289.45 0-.138.291-.376.643-.6.192-.037.44-.101.671-.158a3.35 3.35 0 01.698-.057l-.08-.13c.157-.081.334-.155.482-.232l-.225.295c.064-.074.292-.238.446-.362.51-.255.38.248.745-.074l.05.04c.114-.13.476-.174.885-.268l-.117.211h-.272c.171.154.433-.097.698-.12.265-.101.11-.242.255-.312.1 0 .248-.068.335-.02.248.04.04.224-.027.311.195-.21.268-.2.735-.291.026.09 0 .134-.067.154a.335.335 0 00.23-.158l.165.107c.527.175.533-.368 1.184-.261-.09.047.05.05.235.06.176-.004.35.034.51.111-.225 0 .07.292-.074.392.49.128.228-.208.643-.188l-.2.212c.402-.04.113-.11.526-.12-.124.05.164.093-.084.13.51.117.379.08.822.201l.093-.218c.158 0 .188.13.222.181-.064 0-.158-.043-.158 0 .124.242.315-.033.466.201-.027-.084-.057-.198.134-.16-.097.113.242.214.235.278-.084-.134.402.084.48-.054.17.178-.104.08-.141.154.231-.11.73.245.919.225a.11.11 0 010 .034c.375.05.747.124 1.113.224l-.208.04c.389.275.396-.107.738.104-.088.06.057.145.187.222.131.077.242.17.111.204.231.078.474.12.718.124.057.114-.067.094-.181.08-.114-.013-.215 0-.104.098.11.037.214.087.335.13v.118c.06-.05.292.134.335.08-.037.125 0 .282-.074.336.175.12.312.4.503.453l-.033.053c.302 0 .463.436.7.376l-.02.184c.212.242.37.05.51.141.097.11.18.23.249.359-.363-.282-.037.282-.068.396.117.234.28.444.477.617-.188-.131-.228.027-.403-.285-.06.14.02.245.124.375.122.139.22.296.292.466l-.1.037c.261.5.429.466.694.67-.108.105-.158.058-.336-.06.037.386.262.95.309 1.379-.07.147-.141.067-.205-.064.075.217.121.442.138.67-.001.194.053.384.157.547-.087-.11-.073.175-.127.336.047 0 .107.04.1.06.08.396.016.807-.18 1.16l-.027-.13a8.595 8.595 0 00-.272.868c-.09.323-.3.6-.587.775-.14.06-.023-.242-.235-.04-.047.16.104.27-.234.469l-.07-.141a2.003 2.003 0 01-.125.275c.191.04.513-.275.336.033a.418.418 0 00-.286.192.436.436 0 01-.355.187.671.671 0 00.154-.335 5.04 5.04 0 00-.942.466c-.302.194-.648.31-1.006.335-.386.245-.942.396-1.227.557a.466.466 0 01.144-.45c-.366.051-.486.423-.778.239-.148.238-1.006.261-1.087.556-.02-.056-.409.03-.023-.167-.496.12-.677-.215-.912-.215-.13 0 .16.181-.14.201-.038 0-.048-.04-.088-.053l-.11.074c-.125-.064.123-.151.133-.229-.422-.05-.69.192-1.19.212l.084-.054h-.51.03l-.409.097v-.073c-.094.02-.117.067-.248.073l.044-.094a1.969 1.969 0 01-.808.269l-.05-.034-.242.131-.225.154c-.292-.033.285-.305-.228-.1a2.22 2.22 0 01.084-.225c-.362.188-.456.114-.67.295.153.034.314-.054.224.084-.376-.077-.42.268-.597.496.114-.09.201-.127.231-.278.138-.074.098.06.185.023l.147-.187.108.097c.097-.084.204-.151.311-.228.02.147.336-.064.235.127.232-.13.396-.033.61-.224.182.07-.261.154-.077.144a6.888 6.888 0 011.677-.121h1.81l-.113.077c.114-.077.268-.14.335-.201.208.114 1.033.204 1.284-.074.04 0-.016.05-.043.07.399-.073 1.16-.026 1.737-.194.174-.298.912-.087 1.006-.496l-.094.107c-.218-.02.195-.315.238-.42.235.142.07.155.335.262l-.248.02.114.151a1.62 1.62 0 01.93-.556c.335-.094.623-.195.72-.483v.087c.335-.117.362-.46.49-.67.087.046 0 .204-.05.335.29-.234.53-.524.707-.852.204-.359.372-.73.55-1.006-.034-.258-.181.02-.188-.228.1-.17.225-.285.215-.03.107-.15.18-.322.214-.503.04-.232.057-.466.054-.7a13.566 13.566 0 010-1.426c-.205-.402-.211-.138-.423-.745.118.128.259-.214.336.165l.1.027a6.849 6.849 0 00-.244-1.03 1.493 1.493 0 00-.473-.714c.174-.09 0-.124 0-.392-.06-.084-.024.02-.02.063-.252-.15-.131-.335-.242-.476l.06.037-.335-.355c0-.08-.033-.205 0-.249l-.117.07c-.134-.207.084-.19-.117-.438l-.05.11c-.051-.204-.336-.385-.252-.5 0-.026.03 0 .077.068-.02-.376-.54-.607-.731-.946l-.1.221c-.3-.224-.118-.198-.051-.241-.164-.188-.164-.265-.382-.516-.158-.07-.118 0-.198 0a4.082 4.082 0 00-.215-.262l.245.047a1.643 1.643 0 01-.771-.45c-.238-.184-.453-.368-.671-.335-.127-.154.221-.02.144-.114-.442-.453-1.264-.513-1.646-.858-.67-.493-1.627-.67-2.475-.986v.06c-.204-.067-.412-.124-.617-.188-.194.088-.617-.036-.905.074.03-.043-.017-.124.05-.15-.275-.027-.577.016-.728-.085l.098-.043a7.686 7.686 0 00-.986-.097 2.684 2.684 0 00-.775.077c-.208 0-.204-.09-.261-.165a2.04 2.04 0 00-.859.192.959.959 0 01-.248-.088l-.12.158c-.148 0-.044-.117-.165-.144a2.471 2.471 0 01-.828.184c-.275.034-.534.044-.721.084l.067.06c-.145.088-.466.064-.299-.053a2.28 2.28 0 00-.929.335 7.042 7.042 0 01-1.08.483c-.113-.094-.335 0-.533.117-.197.118-.412.228-.546.124-.366.255-.67.312-.845.607-.024-.02-.064 0 0-.05a.845.845 0 00-.443.235c-.187.144-.36.306-.516.483l-.074-.057c-.017.241-.63.67-.61.942-.064 0 0-.12.027-.188-.292.027-.232.336-.467.517-.02-.05-.117-.024-.1-.094a3.93 3.93 0 00-1.11 1.364 15.97 15.97 0 00-.802 1.851c-.093.36.225-.073.108.383-.128.117-.144-.272-.252.02.062.2.062.414 0 .614-.057-.06-.107 0-.124-.232-.114.171.087.751-.047 1.107.06-.024.098.04.134.1.09.25.13.514.118.778 0 .245 0 .433.05.443.05.01.08.164.054 0 .043.184.134.443.023.436a.931.931 0 01.265.251l-.137-.023c.06.067.17.124.22.191v-.148a.734.734 0 00.189.336c.083.1.137.18.043.235l-.043-.06c.047.13.087.267.144.392.193.077.36.207.483.375-.104.228.426.54.67.761l-.063.05c.268.101.798.514.717.416.215.131.487.356.336.336.204.064.597.271.747.19l.309.336c.335-.164.751.376.865.094.208.107.138.154.278.248a1.48 1.48 0 01.497 0l.12.024.098.023a.34.34 0 01.07.027v.027a.117.117 0 00.077 0h.074c.017 0 .044.027.064.067l.03.06c0 .047.023.098.03.151l-.211.118c.06.214.238.248.214.466-.03.053-.046 0-.063-.047.054.22.054.45 0 .67.194.312.164.574.372.845-.161.285-.134-.375-.288-.13a3.068 3.068 0 00.362 1.495c-.027.06-.078 0-.128 0 .131.162.28.31.443.44.245.194.51.298.56.16.094.027.178.064.225.037.047-.026.053-.127.036-.335-.137-.074-.335-.426-.21-.537l-.155.017c-.198-.54.288-.117.16-.774l-.026.147c-.03-.124-.147-.208-.117-.359.037-.05.07.037.114.088-.098-.175-.195-.336-.285-.537.087-.034.137-.017.218.087-.07-.523-.269.141-.282-.51.054-.127.097.03.158.111.1-.312-.04-.503-.158-.808.138 0 .14.191.201-.077-.063.06-.18.104-.218-.094.151.084.06-.158.07-.359-.043.047-.11.04-.144-.033-.033-.074 0-.185 0-.316l-.104.255c-.17-.295 0-.576-.026-1.006.027 0 .057.064.077.138v-.335a.855.855 0 00-.275-.101 2.127 2.127 0 00-.336-.067 1.782 1.782 0 00-.187 0h-.212.03c-.627 0 .145.268-.593.238-.225-.094.221-.41-.335-.4.104.091 0 .138-.171.155a2.906 2.906 0 01-.57-.05l.399-.141c-.118-.047-.336-.044-.4-.1v.063c-.063.215-.362-.181-.616-.164.385-.148.372-.104.543-.366a.977.977 0 01-.41.05.841.841 0 01-.462-.17c.13-.012.26-.03.389-.054-.42-.292-1.09-.329-1.556-.5.205-.053.114-.214.356-.211-.135-.094-.252-.205-.38-.305l.235-.044c-.285 0-.315-.255-.493-.057.064 0 .08 0 .138.067-.064.047-.242.088-.406-.12-.057-.181.141.02.168-.067-.185-.064-.054-.178-.218-.269v.188c-.191 0-.181-.225-.335-.335.164.144.197.037.234-.074-.07-.097-.255-.181-.214-.302h.228a2.453 2.453 0 01-.212-.084c0-.07.034-.144.121-.063-.07-.265-.16-.218-.261-.195-.101.024-.212.027-.252-.359.077 0 .148.047.181.245.13 0 .178-.09.151-.278h.02a5.154 5.154 0 00-.349-1.023z" fill="#09A6FF"/><path d="M14.02 24.734c.043.136.107.265.191.382.014-.05-.07-.436-.19-.382zm21.558-.809a.489.489 0 00-.033-.073l.033.073zm.12 1.634a.178.178 0 00.054-.08c-.044-.008-.07.016-.054.08zm-3.086-6.751c.157.04.228.044.271 0a.241.241 0 00-.271 0zm-2.653-1.757h-.067c.047.014.06.01.067 0zm-6.714-.982c.16-.064.328-.107.5-.128-.138.04-.41-.017-.5.128zM35.21 27.507a1.921 1.921 0 000-.198 1.707 1.707 0 01-.037.188l.037.01zm.563-1.462c.05-.064 0-.336-.047-.279a.628.628 0 01.047.279zm-1.315-5.825l-.127.007.147.07-.02-.077zm-2.484-4.396l.08.087.262-.208-.342.12zm2.9-.939c.205-.198.671-.399.617-.607-.137.104-.275.205-.405.315-.111-.137-.413-.023-.671.131l.295-.124c-.07.047 0 .127-.054.178-.48.094-.51.355-1.006.362v-.027l-.295.235c-.117.02-.104-.067-.08-.107a2.48 2.48 0 01-.906.492c.436.185.852-.536 1.268-.389l-.02.027c.389-.271.902-.271 1.257-.486z" fill="#09A6FF"/><path d="M33.308 15.24l.024-.02s-.014.004-.024.02zm15.749-5.17l-.045-.024c.014.042.028.07.045.024zm-3.958 3.651h.027c.013-.077 0-.053-.027 0zM28.268 7.695c-.02.04-.036.08-.053.121a.097.097 0 00.053-.12zm2.402 3.201l.034-.049c-.035.01-.042.032-.035.049zm1.76 1.313a.94.94 0 00.14.117.228.228 0 00-.14-.117zM29.291 7.98l.141-.107a.275.275 0 00-.14.107zm3.685 4.4a.502.502 0 00.14.138.272.272 0 00-.14-.138zm2.31 2.358c-.069.022-.136.05-.2.083a.472.472 0 00.2-.083zM37.65 1.25a.14.14 0 00-.036.06c.047-.016.05-.036.037-.06zm-6.656 2.354v.021h.038l-.038-.02zm1.69-1.207a.178.178 0 000 .045c.004-.024.004-.038 0-.045zm-2.528 2.468a.18.18 0 000 .084v-.084z" fill="#09A6FF"/><path d="M29.459 6.1c.07-.048.103.033.137.107.158-.309 0-.487.275-.768l-.14.124a.89.89 0 01.415-.782v.084c0-.265.416-.412.392-.55-.11.03-.08-.07-.221 0a5.7 5.7 0 01.295-.543l.185.114.177-.268c-.12 0 .359-.232.242-.39.187-.056.043.175.047.276.1-.158.164-.104.22-.302l.256.044c.094-.13.196-.255.305-.373 0 .027.02.024 0 .05.05-.123.174-.18.302-.244a.526.526 0 00.335-.335v.036c.064-.21.463-.264.594-.295.21-.134.026-.204 0-.281.704-.222.469-.151 1.006-.55.415.11-.302.49.184.503.023-.134.312-.292.67-.426h.621c.209.003.416.033.617.09l-.05-.144c.147-.053.301-.09.452-.134l-.241.242c.067-.057.292-.175.443-.262.48-.168.291.315.67.067a.12.12 0 01.037.047c.117-.127.436-.077.805-.117l-.134.19-.235-.043c.124.191.389-.033.62 0 .245-.05.135-.214.269-.265.087 0 .224-.037.291.03.208.08 0 .228-.073.306.2-.178.261-.148.67-.182 0 .098-.023.131-.08.145a.335.335 0 00.224-.118l.121.131c.43.231.52-.272 1.07-.094-.171.06.48.1.614.265-.195-.02 0 .295-.135.379.396.195.232-.168.59-.1l-.214.184c.359 0 .12-.1.48-.054-.114.03.124.118-.098.118.413.187.336.117.67.301l.122-.197c.137.03.14.147.157.2-.053-.02-.127-.063-.134-.033.057.252.285 0 .366.252 0-.087 0-.205.147-.138-.11.1.165.238.148.295-.047-.134.335.128.429 0 .11.191-.11.064-.158.124.228-.07.584.336.752.336v.033c.138.025.272.07.398.131.175.086.354.162.537.228h-.198c.275.309.376-.04.63.205-.093.043 0 .137.111.234.111.098.168.195.037.208.193.105.4.183.614.232.037.22-.433-.141-.309.11l.255.175-.053.104c.07-.037.23.167.271.127-.08.107-.094.255-.178.292.121.14.165.405.316.493l-.047.04c.281.057.285.473.526.473l-.08.154c.12.251.335.124.429.235.053.116.092.239.114.365-.245-.335-.127.235-.191.336.025.24.11.471.248.67-.148-.157-.228-.037-.292-.335-.097.104-.067.215 0 .335.071.146.113.304.124.466h-.107c.03.167.096.325.194.463.078.094.172.154.262.268-.134.06-.168 0-.302-.14-.03.198-.047.399-.05.6v.335c0 .117-.03.205-.054.295-.11.097-.15 0-.17-.114.046.396-.229.775-.105 1.083-.027-.063-.053-.033-.087.024-.04.065-.087.127-.137.184.04.024.083.077.07.087a1.323 1.323 0 01-.174.483 1.09 1.09 0 01-.37.39.732.732 0 00.024-.118 1.42 1.42 0 00-.281.312c-.084.097-.155.2-.232.301-.186.25-.463.418-.771.467-.137 0 .04-.228-.194-.124-.084.124.023.285-.316.352l-.027-.155-.17.218c.15.088.506-.077.295.145-.336-.047-.218.228-.63.154a.644.644 0 00.2-.252c-.778 0-1.026.39-1.827.285-.373.158-.872.215-1.14.336a.48.48 0 01.184-.42c-.335 0-.476.336-.71.121-.155.218-.916.141-1.007.433 0-.06-.359 0 0-.168-.456.09-.59-.271-.795-.271-.117 0 .128.19-.137.187-.034 0-.04-.043-.07-.057l-.104.067c-.104-.07.117-.144.13-.221-.368-.07-.613.154-1.053.164l.078-.05-.44-.034h.02l-.358.101v-.077c-.08.02-.101.07-.218.077l.04-.094c-.216.15-.472.234-.735.238l-.04-.04c-.157.067-.312.14-.462.218-.259-.084.301-.252-.188-.14.033-.071.074-.138.11-.205-.335.11-.415.02-.647.13.128.078.288.034.181.141-.312-.17-.419.148-.637.302.124-.04.208-.064.268-.191.138-.03.074.087.158.077l.171-.144.077.12c.104-.056.208-.1.315-.15 0 .15.316 0 .198.167.232-.087.376.024.59-.144.168.087-.255.124-.08.134a13.31 13.31 0 013.058 0l-.104.067c.104-.067.242-.12.336-.17.174.127.871.294 1.116.056.034 0-.02.047-.043.067.335-.03 1.006.121 1.512.06.1-.133.295-.11.486-.1.191.01.386 0 .46-.178l-.098.08c-.184-.07.218-.26.275-.354.175.194.034.164.238.335l-.218-.044.074.171a1.157 1.157 0 01.889-.288c.288 0 .563 0 .71-.225-.02.027 0 .05-.023.077.305 0 .413-.288.57-.432.06.067-.05.19-.127.292.303-.106.584-.268.828-.477.144-.107.275-.234.413-.335.12-.109.252-.205.392-.288.05-.235-.164-.057-.094-.275.137-.104.298-.138.198.067a.905.905 0 00.365-.336c.054-.08.111-.164.165-.258l.134-.305c.097-.201.144-.43.231-.634.055-.2.131-.393.228-.577a.806.806 0 00-.1-.315 1.338 1.338 0 01-.068-.45c.074.148.309-.106.285.246l.088.057c.097-.597.137-1.382-.161-1.677.194-.03.03-.104.117-.335-.027-.087-.027 0-.037.047-.18-.195-.023-.319-.077-.466l.044.046-.191-.388c0-.07.033-.182.083-.212l-.134.034c-.057-.215.145-.144.037-.41l-.084.088c.017-.191-.198-.42-.074-.5.027-.017.027.02.054.08.097-.335-.308-.67-.382-1.005l-.164.177c-.205-.264-.047-.2.026-.224-.094-.201-.06-.279-.19-.543-.125-.098-.111-.024-.188-.03-.04-.091-.07-.192-.118-.282.074.03.141.063.208.097a1.341 1.341 0 01-.573-.563c-.165-.212-.336-.413-.527-.423-.07-.171.198.024.158-.08a1.76 1.76 0 00-.64-.58 1.835 1.835 0 01-.628-.487c-.493-.573-1.308-.865-1.992-1.284v.06a6.064 6.064 0 00-.506-.265c-.191.067-.533-.13-.808-.047.033-.04 0-.124.07-.14-.234-.06-.503-.074-.62-.185l.09-.027A3.619 3.619 0 0040.39.345c-.18-.017-.16-.12-.198-.201a1.62 1.62 0 00-.778.053.967.967 0 01-.2-.124l-.128.138c-.128-.03-.02-.12-.12-.168-.49.141-1.044 0-1.386 0l.05.07c-.137.064-.412-.026-.248-.107-.67-.057-.979.289-1.864.393-.087-.121-.285-.06-.483 0s-.392.127-.496 0c-.356.16-.627.137-.832.382 0-.027-.053-.03 0-.054a.67.67 0 00-.426.108 3.5 3.5 0 00-.536.335l-.057-.074c-.024.12-.195.235-.36.335-.163.101-.334.255-.334.373-.057-.017.023-.108.053-.161-.268-.064-.265.245-.5.335 0-.05-.103-.054-.076-.114a3.32 3.32 0 00-1.238.922c-.396.423-.748.919-1.117 1.378-.177.272.225 0 0 .36-.147.06-.073-.282-.241-.065a.845.845 0 01-.158.517c-.04-.067-.097-.044-.06-.235-.148.11-.117.67-.335.909.063 0 .08.067.1.13.006.232-.04.461-.137.671-.074.202-.148.36-.1.383 0 0 .023.157.043.02 0 .167-.034.405-.131.365.05.09.144.161.161.292l-.117-.064c.046.073.088.15.124.228l.06-.124c-.09.201.205.527 0 .554V8.04a3.357 3.357 0 00-.023.365.885.885 0 01.275.466c-.195.158.15.587.261.856l-.074.023c.188.171.45.7.43.587.117.191.244.473.124.419.14.127.375.443.54.426.03.134.056.271.097.402.335-.023.446.597.67.396.114.174.04.188.114.335.28.092.535.25.741.46v.03c.305.17.624.314.953.43 0 .073 0 .163-.054.224.024-.024.171-.138.181-.084a.125.125 0 01-.067.03c.077 0 .067.04-.043.064.104 0 .114.027.127.057.02.056.035.113.047.17-.07 0-.1 0-.104-.026-.003-.027.02-.077 0-.08-.02-.004 0-.047-.104-.081l-.03.017c-.03.017-.07.074-.104.114-.066.08-.126.167-.178.258a5.18 5.18 0 00-.305.64c-.06 0-.057-.053-.087-.097-.02.189-.02.379 0 .567.03.282.134.53.265.49.087.17.12.298.379.03-.034-.138.053-.49.228-.453l-.118-.104c.228-.45.279.148.63-.335l-.116.07c.06-.097.04-.231.16-.305.057 0 .024.077.02.138l.074-.269c.012-.048.026-.095.044-.14l.064-.178c.1 0 .134.053.09.228.238-.336.13-.312.064-.336-.067-.023-.114-.026.13-.335.158-.12.085.04.078.15a1.342 1.342 0 00.375-.586c0-.017.02-.037 0-.05l-.08-.027-.336-.1c.148-.078.4.076.172-.148 0 .077-.124.154-.36.047.256-.024-.096-.138-.335-.289.02.064-.047.104-.144.08a.377.377 0 01-.144-.086.477.477 0 00-.117-.08c.035.076.077.15.124.22-.336-.03-.36-.291-.517-.449a.144.144 0 01.111 0 1.157 1.157 0 00-.597-.446h.03c-.506-.218 0 .295-.583 0-.141-.157.362-.275-.09-.466.083.238-.427 0-.651-.174l.385.02c-.073-.077-.255-.168-.275-.231l-.037.053c-.16.168-.207-.288-.435-.359.399 0 .358.044.623-.12a.798.798 0 01-.67-.406c.114.037.241.06.355.087-.214-.376-.771-.644-1.11-.932.205.023.198-.141.402-.057-.073-.12-.13-.252-.194-.38l.225.041c-.252-.084-.178-.312-.416-.208.047.037.074.02.09.104a.268.268 0 01-.305-.235c0-.164.121.06.178 0-.144-.11.023-.164-.084-.291l-.077.157c-.164-.07-.07-.244-.164-.382.094.171.167.09.244 0-.026-.1-.15-.231-.077-.315l.218.064c-.053-.044-.117-.088-.167-.135.02-.063.09-.11.134 0 .047-.241-.064-.231-.168-.241-.104-.01-.204-.044-.104-.372.077 0 .131.084.08.258.125.023.198-.02.245-.184h.024a3.588 3.588 0 00-.023-.943z" fill="#09A6FF"/><path d="M29.459 7.052a.838.838 0 00.05.368c.017-.033.077-.368-.05-.368zm18.493 3.128a.517.517 0 000-.07v.07zm-.402 1.331a.125.125 0 00.077-.04c-.037-.02-.074-.02-.077.04zm-.738-6.304c.124.067.191.08.241.057a.22.22 0 00-.241-.057zm-1.878-1.998h-.06c.06.01.06.006.06 0zm-5.6-1.858c.148-.034.3-.052.452-.054-.127.054-.355-.053-.452.054zm7.173 11.555a1.25 1.25 0 00.064-.167c-.027.05-.056.1-.088.147l.024.02zm.956-.972c.054-.033.138-.265.05-.238a.629.629 0 01-.05.238zm.593-5.127l-.124-.024.114.094.01-.07zM14.09 14.815l-.006-.111-.281.033.288.078zm-2.468-.862c-.255.06-.711.07-.741.285.144-.044.291-.09.442-.128.03.168.299.208.55.212l-.275-.05c.074 0 .05-.118.128-.125.395.175.56 0 .888.265h-.027.336c.084.054.023.114 0 .134.292-.023.586.017.862.118-.175-.376-.845-.054-1.033-.416h.027c-.4-.007-.765-.302-1.157-.295zm1.283.593h-.028s.01.007.028 0zM1.048 9.972H.999c.007.01.038.028.049 0zm1.861 3.606v-.018c-.073.042-.052.035 0 .018zm12.067-5.52l-.08.06c.063.007.083-.02.08-.06zm-.772 3.165l.05.034c-.016-.034-.033-.04-.05-.034zm-1.26 1.415a.197.197 0 00-.08.037c.046.003.073-.013.08-.037zm2.89-4.004l.174-.037a.315.315 0 00-.174.037zm-2.883 4.172c-.043 0-.077 0-.074.02a.282.282 0 00.074-.02zm-1.738 1.086c.068.004.137.004.205 0a.36.36 0 00-.205 0zM8.994.996a.15.15 0 00.06-.057c-.064.01-.07.033-.06.057zm5.993 2.934h.02a.135.135 0 000-.037l-.02.038zm-1.49-1.365h.041a.052.052 0 00-.041 0zm2.421 2.642c.023.022.049.04.077.054l-.077-.054z" fill="#09A6FF"/><path d="M16.136 6.716c.05-.073.107 0 .164.064a.937.937 0 00-.073-.45 1.229 1.229 0 01-.07-.462l-.028.201a1.381 1.381 0 01-.214-.446.898.898 0 01-.067-.473l.07.047c-.194-.177-.178-.617-.318-.67 0 .12-.091.05-.078.214-.127-.16-.281-.298-.419-.442l.151-.158-.248-.215c0 .057-.06-.037-.13-.13-.071-.094-.168-.175-.246-.111-.06-.185.171-.054.275-.057-.164-.094-.11-.168-.311-.208v-.258l-.433-.222c.03 0 0-.026.043-.026a.604.604 0 01-.335-.205.446.446 0 00-.419-.144h.03c-.201.037-.44-.242-.543-.335-.221-.084-.168.107-.215.17a1.394 1.394 0 00-.476-.244 2.77 2.77 0 00-.493 0c-.221-.336.503-.205.171-.507a1.083 1.083 0 01-.717 0 8.2 8.2 0 01-1.006-.573v.15h-.44l.299-.167c-.08.04-.309.1-.46.151-.452.06-.214-.369-.583-.164a.201.201 0 01-.03-.05c-.12.114-.41.04-.745.087l.141-.198.222.054C8.548.84 8.454.84 8.35.87c-.106.05-.22.08-.336.091-.221.077-.1.231-.214.295-.08 0-.191.057-.258 0-.202-.047-.047-.225 0-.308-.151.2-.212.197-.57.335-.034-.087 0-.134.033-.161a.282.282 0 00-.16.178l-.138-.094c-.46-.08-.336.453-.825.51.05-.064-.054-.037-.188 0a.754.754 0 01-.396.09c.154-.094-.18-.235-.12-.382-.42.087-.074.271-.363.436l.027-.272c-.255.221-.02.148-.282.362.05-.104-.157 0-.02-.15l-.637.301.094.215c-.087.094-.184.03-.235 0 .04-.034.114-.074.09-.094-.23-.087-.14.228-.385.17.077.038.175.098.054.195-.04-.147-.275.024-.335 0 .134 0-.235.252-.151.386-.205.034-.027-.124-.067-.191 0 .241-.48.422-.497.603h-.03c-.05.222-.258.46-.372.842a1.733 1.733 0 01-.02-.194c-.278.261.08.358-.104.597-.114-.165-.285.409-.379.18-.04.197-.032.4.02.594-.178.094-.057-.416-.225-.238l-.043.275h-.114c.064.047-.047.245 0 .262-.131-.02-.248.04-.336 0-.033.17-.238.335-.194.51h-.06a.41.41 0 010 .335c-.02.117-.04.22.06.298l-.15.057c-.055.248.187.272.21.396a1.677 1.677 0 01-.077.308c-.07-.335-.214.11-.308.161-.03.128-.087.503 0 .62C.262 8.223.144 8.3.19 8.022c-.258.11-.047.429-.087.74l-.08-.033c.046.463.214.48.409.67-.125.055-.171 0-.306-.113a1.59 1.59 0 000 .547c0 .1.03.2.044.298.013.097.047.184.06.268-.067.128-.137.07-.204-.037.084.175.15.358.198.547a.586.586 0 00.311.382c-.12-.047 0 .154 0 .295.044-.02.111-.023.111 0 .074.084.221.198.335.336.1.123.183.26.245.405l-.11-.027c.15.187.342.335.56.433.235.083.436.24.573.45.054.107-.211.083-.023.214.144 0 .218-.174.425.023l-.1.118.245-.024c0-.164-.295-.295-.037-.295.13.248.238 0 .419.282a.712.712 0 00-.282.077c.19.175.42.298.67.359.262.036.51.135.725.288.356-.047.751.054 1.006-.047a.503.503 0 01-.235.386c.285.06.457-.272.62 0 .155-.178.782-.1.846-.389 0 .064.288 0 0 .171.365-.1.5.231.67.225.098 0-.124-.181.094-.198.027 0 .037.04.067.05l.074-.074c.097.057-.077.155-.08.228.335.034.493-.244.845-.335l-.05.06.375-.043-.02.02c.096-.05.193-.096.292-.14v.076c.067-.027.08-.077.177-.097l-.023.097a.878.878 0 01.627-.265l.037.04c.137-.067.282-.13.426-.19.228.107-.295.217.157.157l-.12.191c.318-.06.358.044.576 0-.087-.11-.241-.107-.12-.184.228.241.402-.02.67-.07-.124 0-.208-.027-.305.073-.127-.02-.033-.107-.114-.124l-.194.09-.044-.137-.335.084c.027-.158-.292-.027-.165-.188-.224.06-.355-.047-.556.114-.154-.09.238-.12.077-.13l-1.358.217c-.412.081-.831.12-1.25.114l.076-.073c-.077.073-.18.137-.241.19-.151-.093-.67-.298-.882-.063-.024 0 .02-.047.04-.064a1.779 1.779 0 01-.526-.12l-.302-.09a1.981 1.981 0 00-.289-.085c-.107.104-.244.03-.375-.03-.13-.06-.248-.137-.376 0l.1-.037c.095.134-.257.154-.334.211-.024-.241.053-.157 0-.389l.117.125.033-.182a.523.523 0 01-.647-.18c-.157-.141-.245-.336-.462-.259.026 0 .036-.03.063-.033-.1-.198-.362-.07-.506-.131.047-.084.15-.05.258-.067a2.233 2.233 0 00-.493-.38 1.227 1.227 0 01-.422-.499c-.178-.037-.108.144-.259.077-.036-.124 0-.248.128-.16a.537.537 0 00-.097-.302c-.034-.054-.074-.104-.114-.158-.04-.054-.07-.12-.108-.181-.07-.124-.147-.255-.208-.39a1.006 1.006 0 01-.037-.415.641.641 0 00-.2-.16.281.281 0 01-.085-.091 1.08 1.08 0 01-.08-.212c.094.088.288-.13.315.108l.097.016a3.69 3.69 0 00-.05-.63.781.781 0 00-.184-.523c.2 0 .043-.07.16-.211 0-.067-.03 0-.043.023-.168-.17.044-.225.034-.335l.026.043-.057-.318c.034-.047.088-.11.148-.108l-.134-.03c.033-.16.184-.037.194-.241l-.11.017c.097-.111.023-.336.174-.336.03 0 0 .024 0 .07.13-.066.15-.194.164-.335.014-.14 0-.295.108-.385L1.34 6.67c.034-.251.104-.12.171-.083.064-.148.148-.155.252-.336 0-.12-.05-.087-.094-.147.043-.061.091-.118.144-.171.011.06.026.119.044.177a.637.637 0 01.154-.563c.107-.164.211-.309.164-.483.131-.067.04.168.118.13.166-.137.29-.32.355-.526a.828.828 0 01.386-.439c.476-.275.865-.768 1.428-1.006l-.04-.047c.13-.058.265-.107.402-.147.04-.168.319-.262.426-.466 0 .05.07.104.047.15.161-.083.336-.218.45-.18l-.047.063c.097-.023.197-.064.305-.09.107-.027.218-.054.318-.088a1.7 1.7 0 00.476-.21c.135-.038.151.07.198.137a1.12 1.12 0 00.544-.235.7.7 0 01.17.097l.078-.15c.097.016.03.12.107.153a.902.902 0 01.557-.09c.18.027.335.07.472.074l-.03-.077c.11-.05.305.063.175.13.213.047.434.047.647 0 .117-.019.236-.03.355-.03.149.013.295.043.436.09 0 .142.165.162.319.188.154.027.302.084.298.239.295.033.43.204.67.124 0 .03 0 .053-.033.037.057.15.43.22.708.305l-.03.084c.188-.125.57.197.764.11 0 .057-.094.034-.144.037 0 .238.258.09.386.245-.04.027-.034.104-.087.107.217.297.466.57.74.815.314.284.54.65.655 1.056.07.212.16-.154.251.131-.06.114-.238-.064-.211.12.167.085.144.148.184.336-.074 0-.107.024-.18-.08-.028.057.036.147.096.258a.388.388 0 01.02.335.144.144 0 01.138.047.516.516 0 010 .46c-.06.137-.128.234-.08.251.046.017.02.104.043.017 0 .11-.054.261-.148.221.044.064.114.124.108.215l-.1-.067c0 .053.073.12.08.174l.08-.064c-.104.104.04.406-.168.336V8.3l-.16.201a.36.36 0 01.046.383c-.224-.024-.204.355-.335.526l-.064-.047c.024.195-.248.513-.174.473-.087.13-.265.265-.271.16-.037.132-.219.336-.168.477l-.315.074c.09.308-.45.318-.252.536-.144.077-.164 0-.278.044a.946.946 0 01-.42.536l-.026-.02a.797.797 0 00-.124.134l-.057.084-.1.138a6.368 6.368 0 01-.434.58l-.358.05a.493.493 0 00-.054.084.457.457 0 00.084.074c.06.047.117.084.17.12a.67.67 0 01.25.252c0 .06-.044 0-.105-.047.11.114.207.24.288.376.044.067.084.14.115.197l.033.108c.275.097.335.278.61.335-.04.268-.241-.17-.288.07.169.327.424.6.738.792-.017.053-.07.04-.118.057-.047.017.896.285.98.04.174 0 .308.02.207-.312-.134-.033-.402-.208-.308-.355l-.134.08c-.336-.302.228-.224-.094-.637l.027.117c-.067-.07-.195-.073-.222-.19 0-.054.074 0 .128 0l-.43-.219a.178.178 0 01.215-.057c-.248-.311-.174.235-.422-.187 0-.111.094-.034.174 0a.373.373 0 00-.147-.269l-.064-.04h-.047a.57.57 0 01-.104-.03c.137-.047.144 0 .201-.084-.07.027-.174.09-.235.034.168 0 .05-.054.064-.098a.367.367 0 01-.191-.023c0-.03.087-.044.11-.08a1.36 1.36 0 00-.237.046c-.024-.07.06-.13.14-.154a1.68 1.68 0 01.232-.04.097.097 0 010 .064c.03 0 .043 0 .09-.024.049-.023.096-.049.141-.077a.553.553 0 00.218-.268v.027c.248-.426-.265-.068.044-.54.15-.108.251.385.442-.027-.228.057 0-.396.118-.607l.02.366c.07-.068.134-.245.19-.266l-.053-.03c-.18-.14.238-.21.242-.439.1.369.04.335.244.577a.949.949 0 01.225-.738c0 .117.02.238.024.359.335-.335.335-.966.291-1.358.114.164.238.064.299.271.06-.13.112-.265.157-.402l.125.195c-.104-.245.093-.37-.158-.44 0 .054.047.06 0 .134a.275.275 0 01-.104-.358c.11-.114.064.11.147.1-.05-.164.114-.117.08-.278l-.14.087c-.11-.14.06-.228.03-.379 0 .175.11.148.215.11h-.02c.017-.103-.037-.257.053-.311l.181.137c-.03-.063-.077-.127-.114-.19.034-.051.115-.081.135.026.204-.47-.42-.06-.161-.654.073.017.134.094.06.258.114.044.208 0 .262-.16h.023c.022-.185.029-.371.02-.557a1.08 1.08 0 00-.134-.48zm.119 1.026a3.057 3.057 0 00-.034.416c.05-.027.174-.409.034-.416zM.533 11.673a.148.148 0 000-.088c-.024.02-.044.05 0 .088z" fill="#09A6FF"/><path d="M.808 5.455c0 .134.037.205.08.232a.235.235 0 00-.08-.232zm1.637-2.072v-.057c-.007.037-.007.037 0 .057zM7.408.955a2.086 2.086 0 01-.396.165c.108-.054.332-.024.396-.165zM1.677 12.88a.847.847 0 01-.168-.024.63.63 0 00.15.05l.018-.026zm-.808-.942c0-.06-.185-.219-.198-.138a.71.71 0 01.198.137zM.56 7.317l-.093-.08.05.127.043-.047zm30.388 13.158l-.007-.1-.07.123.077-.023zm-.641-.145c-.063.115-.18.175-.198.39l.121-.185c0 .164.074.158.138.107h-.07c.02-.02 0-.124.033-.144.1.087.14-.134.228.047v.017l.08-.1c.024.026 0 .1 0 .13.074-.084.131-.171.221-.154-.056-.299-.214.218-.271-.08v-.017c-.074.124-.184-.084-.282-.01zm-3.364-.536v.049a.051.051 0 000-.049zm1.067.731c-.02.059-.013.045 0 0zm-7.394-1.368l-.023-.067c.006.064.013.077.023.067zm-.855.858v.06a.14.14 0 000-.06zm-.485.142a.066.066 0 00-.041-.024c.01.03.028.041.041.024zm-.266-1.034l-.02.024a.045.045 0 00.02-.023zm1.492 1.007v.157a1.337 1.337 0 000-.158zm-1.338.157a.124.124 0 00-.03-.054c.007.03.017.054.03.054zm11.043.05a.074.074 0 00.05-.02s-.033 0-.05.02zm-6.938.145a.452.452 0 000 .057.099.099 0 000-.057zm-1.137-.172v.035a.075.075 0 000-.034zm-.855.128a.166.166 0 00-.017.054l.017-.054z" fill="#09A6FF"/><path d="M20.945 20.26c.007.055 0 .11-.023.161.08.078.117-.117.2.024l-.04-.08c.064-.111.171-.128.215.026l-.02.047c.064-.12.134.117.164 0s0-.107-.023-.174l.147-.118v.212l.077-.067c0-.084.094.073.111-.125.037.078-.03.158-.05.239.047-.06.043.03.09-.088l.027.185.117-.12v.046c.06-.15.114.1.202-.16v.03c.047-.142.124-.028.15 0 .061-.03.04-.175.05-.252.159.06.105.043.263-.161.06.238-.131.362-.044.533a.334.334 0 01.191-.228c.1.095.18.209.235.335v-.15l.114-.071-.084.211c.02-.047.084-.137.127-.208.124-.12.024.336.135.114v.05c.043-.113.107-.063.194-.097l-.05.192-.05-.05c0 .19.093-.02.14 0 .064-.058.057-.219.09-.272.02 0 .058-.04.064 0a1.33 1.33 0 01-.047.305c.064-.191.078-.165.178-.235a.305.305 0 01-.033.15.271.271 0 00.063-.14v.114c.084.171.151-.335.269-.268-.047.097.107 0 .13.117-.047.024 0 .285-.057.396.088.084.067-.221.155-.255l-.064.235c.09-.094.037-.128.124-.191-.03.067.027.07-.03.14.056.015.11.033.164.054l.037-.231c.034-.024.034.08.037.124.003.043-.034 0-.037.023 0 .205.074-.104.09.084 0-.074 0-.178.044-.188-.033.141.037.141.034.201 0-.1.087-.036.11-.187.03.11-.026.107-.04.184.06-.174.154 0 .201-.1v.033c.06-.104.141-.12.255-.265l-.05.128c.084.07.094-.272.17-.259-.043.188.132 0 .068.208.07-.091.127-.193.168-.302.03.111-.118.249-.067.309l.08-.09v.127c0-.077.07-.074.077-.134.006.101.006.203 0 .305.047-.03.09.094.138 0v.06c.07-.221.13-.027.184-.258v.13c.067-.016.087-.254.127-.308.024 0 .06-.027.084 0-.104.141 0 .188.02.275a.151.151 0 00.172-.107c-.058.114-.047.215-.118.215 0 .234.114-.04.188 0v.107c.124-.057.15-.238.225-.416a.67.67 0 01-.07.295c.063.087.194 0 .274.044a.205.205 0 01-.043.184c.1-.087.19.05.278-.177-.037.09.023.067.05.117a.53.53 0 01.024-.104c.067-.087.198-.161.248-.07l-.034.067c.141.057.255-.336.39-.145.02.054-.054.188 0 .188.04-.08.053-.261.12-.201l-.027.15.07-.147c0-.13-.097-.097-.02-.231.047.15.074-.134.131.044a.882.882 0 00-.08.187c.144.201.251-.124.395.09.098-.11.208-.123.279-.227-.016.138-.05.273-.1.402.066.027.14-.315.164-.084.06-.207.214-.114.261-.409 0 .06.077 0 0 .168.107-.087.1.272.148.275.047.003 0-.191.047-.191a.339.339 0 000 .057l.026-.067c0 .07-.037.144-.047.218.074.073.148-.154.245-.165l-.02.05.094.017.087-.097v.077c.02-.02.03-.067.057-.073v.093c.037-.147.134-.218.181-.214v.04l.121-.181c.047.104-.09.218.027.158l-.044.19c.087-.07.09.034.148-.026 0-.1-.054-.09-.02-.174.047.224.104-.05.167-.135-.03 0-.05 0-.077.108-.033 0 0-.104-.023-.114l-.054.107v-.134l-.084.097c0-.154-.07-.023-.027-.184-.06.06-.084-.054-.144.1-.03-.097.067-.11.03-.127a.825.825 0 01-.67 0l.03-.067c-.03.067-.064.12-.087.17-.024-.127-.155-.301-.232-.073v-.064c-.077.024-.194-.157-.302-.147-.073.241-.144-.171-.224.157l.03-.063c.027.094-.077.224-.104.305 0-.221.02-.168 0-.372l.034.08v-.181c-.191.446-.225-.238-.352.084 0-.017 0-.044.016-.06-.043-.111-.11.113-.16.167a.546.546 0 01.073-.208c-.087-.084-.285.138-.375 0-.054.114 0 .161-.06.248a.181.181 0 010-.194c-.065-.235-.336.104-.447-.12-.094.123-.053.187-.184.26.04-.083 0-.298.084-.298l.023-.094c-.114-.033-.265-.09-.366.168.027-.194 0-.04-.043-.15-.02.02 0 .03 0 .043-.067.16-.064 0-.097 0v-.034l-.1.11a.269.269 0 01-.024-.13v.138c-.047 0 0-.178-.057-.151v.09c-.027-.067-.104.067-.09-.084 0-.03 0 0 .02 0-.024-.218-.152.047-.209-.06v.225c-.077.06-.033-.05-.02-.128-.043 0-.043-.08-.1-.11-.037.05-.027.077-.044.14l-.054-.063.057-.114c-.137.308-.228-.07-.335.218-.027-.067.05-.128.034-.168-.088-.157-.275.174-.336 0-.127-.178-.335-.047-.473-.178v.06l-.12-.073c-.05.13-.121.057-.192.204a1.3 1.3 0 01.024-.15c-.05 0-.114.067-.134-.017l.023-.047c-.107-.054-.261-.077-.335.03-.04 0-.027-.097-.027-.171-.064-.017-.114.04-.177.128a.362.362 0 01-.034-.111l-.04.144c-.027-.027 0-.12 0-.161-.121.161-.222 0-.292 0v.074c-.037.053-.08-.057-.037-.124-.13-.104-.235.204-.422.144 0-.265-.178.06-.178-.238-.087.067-.128-.057-.201.11v-.046c-.024-.115-.138-.04-.225.03v-.09c-.047.19-.184.12-.228.311 0-.043.023-.08.037-.114-.027-.188-.08.08-.134.034v-.138c-.168-.225-.46.117-.671-.043-.067 0 0 .204-.074.184-.02-.1.054-.195 0-.242-.047.121-.057.094-.11.081 0-.067 0-.11.046-.15-.026-.085-.14.147-.194-.018a.397.397 0 01-.023.131c-.098.168-.205-.178-.215-.084 0 0-.034.027 0 .047-.034 0-.08-.033-.067-.13-.02.053-.037.134-.064.144l.017-.114c-.017.023-.037.093-.05.107l.02.07c-.034-.094-.114.128-.108-.087l-.07-.1c-.03.087-.06.17-.107.144 0-.225-.124-.05-.185-.074v-.077c-.047.11-.17.06-.147.1a.097.097 0 01-.087-.124c-.04.047-.121.044-.138.175l-.08-.188c-.037.275-.158-.094-.151.198-.047-.044-.037-.107-.07-.158-.054.148-.115.124-.178.104v-.033c-.064-.02-.128.13-.215.15l-.03-.224c-.044.033-.04.208-.108.164-.067-.043 0-.047 0-.06a.158.158 0 01-.117.02c-.047 0-.06-.03-.087-.054-.034.171-.097.124-.117.305-.094-.177.06-.1-.027-.271-.121-.08-.198.05-.309.188-.027-.037-.02-.074-.03-.121-.01-.047 0 .037-.023.1-.024.064-.03.148-.057.259a.107.107 0 000 .077l.15.198v.003-.184.023a.3.3 0 010 .06.712.712 0 00-.033.202.982.982 0 00-.05.184.24.24 0 000 .084c0 .027 0 .057.06.094.04 0 .05 0 .178-.064l.047-.034s.033-.03.027-.026l-.118-.165.037.06c0 .03.047.095.037.071-.01-.023.023 0 .05.067l-.047-.147c.07-.098.1.301.201.268l-.033-.044s0-.114.047-.07a.209.209 0 010 .1c0-.077.03-.15.05-.227.021.067.03.137.027.207.09-.026-.08-.275.047-.238.037.06 0 .094 0 .148.07.117.107 0 .114-.097.002.07.013.14.034.207 0-.07-.037-.19 0-.207 0 .14 0 .073.06.107a.313.313 0 010-.138c0-.023.037.03.06.02l-.053-.134c.053-.13.104.067.154.125a.072.072 0 01-.02.05c.053.057.11.164.167.04v.02c.114-.144-.047-.231.088-.365.05.026 0 .452.097.285-.057-.114.057-.289.117-.336l-.057.269c.027 0 .067-.074.08-.047v-.06c0-.229.078.033.121-.108a2.3 2.3 0 00-.057.563c.037-.17.084-.335.161-.295l-.06.238c.1.054.221-.298.308-.5 0 .132-.01.263-.026.393l.097-.037-.027.195c.04-.202.084-.064.08-.336 0 .037 0 .067-.03.057 0-.077.024-.238.074-.224.05.013-.02.1 0 .17.037-.103.034.064.07 0l-.03-.11c.027-.148.057 0 .094-.077a.335.335 0 000 .238v-.017c.027 0 .06-.114.077-.027l-.026.208.047-.167a.178.178 0 010 .137c.11.128 0-.443.154-.248 0 .077-.024.127-.064.08a.335.335 0 00.037.245v.024a.188.188 0 00.228-.108z" fill="#09A6FF"/><path d="M20.713 20.377c-.04 0-.077 0-.093.024-.017.023.09.107.093-.024zm6.485.457a.116.116 0 000-.047c-.017.04-.017.07 0 .047zm-1.572-.034a.437.437 0 00.064-.168c-.02.017-.04.06-.064.168zm-.624-.168v.028a.062.062 0 000-.028zm-1.361-.053c.037-.064.074-.054.11-.087-.03.033-.073-.027-.11.087zm3.994.084l-.047.097.044-.067.003-.03zm-.322.027c0-.027-.074.03-.064.087a.295.295 0 01.064-.088zm-1.174-.262l-.03.11.04-.083-.01-.027zm5.258 2.716l.007-.104-.094.118.087-.014zm-.677-.234c-.084.1-.215.147-.255.361l.147-.17c0 .164.064.167.138.127h-.077c.023-.02.03-.124.053-.141.098.104.168-.114.242.08l.1-.087c.024.027 0 .1 0 .128.088-.07.161-.148.259-.121-.024-.305-.262.184-.285-.12-.131.09-.212-.118-.322-.058zm-3.645-.735v.045a.072.072 0 000-.045zm1.151.758c-.02.059-.014.041 0 0zm-7.874-1.483v-.07c-.017.064-.01.09 0 .07zm-1.003.752v.06a.128.128 0 000-.06zm-.549.054a.093.093 0 00-.042-.034c.021.034.021.045.042.034zm1.343.151v.157a.814.814 0 000-.157zm-1.493-.044a.103.103 0 00-.02-.06c0 .03.007.056.02.06zm11.959.537a.104.104 0 00.057 0c-.02-.027-.037-.02-.057 0zm-7.472-.007a.253.253 0 000 .06.08.08 0 000-.06zm-1.241-.192v.035a.075.075 0 000-.035zm-.925.084a.341.341 0 00-.026.05l.026-.05z" fill="#09A6FF"/><path d="M20.616 22.58a.262.262 0 01-.037.158c.084.087.137-.104.218.04l-.037-.08c.077-.104.194-.117.235.04l-.024.047c.074-.117.141.124.178.024v-.175l.164-.11v.207l.088-.06c0-.084.097.08.124-.117.037.08-.037.154-.064.235.054-.054.047.033.1-.08l.024.187.134-.117v.046c.07-.15.124.104.225-.154a.08.08 0 000 .03c.053-.14.134-.027.164 0 .064-.03.047-.174.057-.251.171.067.114.05.285-.151.064.238-.144.359-.05.53a.335.335 0 01.208-.221.962.962 0 01.255.335v-.151l.12-.07-.087.21a2.41 2.41 0 01.138-.207c.13-.117.026.335.144.117v.047c.04-.11.114-.06.208-.094l-.054.188-.054-.047c0 .191.101-.02.155 0 .063-.06.053-.218.09-.271.02 0 .057-.044.07 0 .014.043-.023.227-.046.308.067-.194.077-.168.187-.235a.305.305 0 01-.033.151.282.282 0 00.067-.144l.02.114c.094.174.151-.335.278-.268-.046.1.118 0 .145.117-.047.027 0 .285-.05.396.096.084.07-.222.16-.255l-.064.235c.098-.094.037-.128.131-.192-.033.068.03.068-.03.141.06.013.12.03.178.05l.033-.23c.037-.024.037.08.04.123.004.044-.033 0-.036.024 0 .204.077-.104.1.084 0-.074 0-.178.04-.188-.03.14.044.137.04.198 0-.1.095-.034.118-.188.034.11-.03.11-.04.188.06-.178.168 0 .215-.108v.037c.063-.104.147-.124.268-.268l-.05.127c.09.07.093-.271.174-.258-.04.185.14 0 .077.205.074-.09.132-.192.171-.302.037.11-.12.245-.06.308l.08-.09v.104c0-.077.074-.077.08-.138.006.102.006.204 0 .306.05-.03.098.093.148 0v.06c.07-.221.141-.027.191-.262v.131c.07 0 .087-.255.128-.305.04-.05.064-.03.09 0-.107.14.02.188.027.275a.158.158 0 00.181-.11c-.057.117-.043.217-.117.217 0 .235.12-.04.198 0v.108c.127-.057.154-.239.231-.42a.672.672 0 01-.07.299c.07.087.207 0 .295.043a.193.193 0 01-.047.185c.107-.087.204.05.295-.174-.037.09.027.063.057.113 0-.046.02-.11.023-.1.07-.087.208-.161.262-.067l-.034.067c.148.057.272-.335.416-.14.02.053-.06.187 0 .19.04-.08.057-.261.128-.201l-.027.15.074-.143c0-.131-.101-.1-.02-.235.05.154.08-.13.144.047a.7.7 0 00-.09.188c.15.208.27-.114.422.107.107-.11.228-.117.305-.221a1.338 1.338 0 01-.108.402c.074.034.161-.308.181-.074.07-.204.232-.1.296-.392 0 .06.083 0-.024.168.12-.08.097.275.148.281.05.007 0-.19.06-.184a.339.339 0 000 .057l.034-.067c0 .074-.047.14-.064.218.077.077.168-.148.275-.151l-.027.05.077.02.097-.09v.077c.024-.02.034-.067.064-.07l-.023.09c.05-.14.16-.201.207-.194v.043l.145-.17c.043.11-.114.21 0 .16l-.064.184c.097-.06.094.044.161 0 0-.1-.05-.093 0-.174.03.228.117-.04.198-.117-.034 0-.057 0-.097.1-.034 0 0-.104 0-.117l-.067.1v-.134l-.101.091c.03-.15-.074-.034 0-.188-.07.054-.084-.06-.164.084-.024-.097.08-.1.043-.124a1.05 1.05 0 01-.727-.07l.033-.064c-.034.064-.074.114-.1.164-.024-.13-.158-.312-.249-.09 0 0 0-.044.02-.06-.087 0-.207-.172-.335-.165-.084.238-.15-.178-.245.148l.034-.064c.027.097-.09.221-.117.302 0-.222.023-.168 0-.373l.033.084v-.18c-.215.435-.241-.252-.382.07a.477.477 0 01.02-.064c-.047-.107-.124.11-.178.168a.586.586 0 01.08-.208c-.097-.084-.308.134-.409-.027-.056.117 0 .164-.06.251a.161.161 0 010-.194c-.074-.238-.359.097-.486-.128-.1.124-.057.188-.195.262.04-.084 0-.299.088-.299l.02-.093c-.124-.034-.285-.091-.39.167.02-.198 0-.04-.05-.154-.023.02 0 .03 0 .044-.067.164-.07 0-.104 0v-.034l-.104.11a.242.242 0 01-.026-.127v.138c-.047 0 0-.178-.064-.151v.104c-.03-.067-.11.067-.1-.084 0-.03 0 0 .023 0-.034-.218-.164.047-.225-.057v.221c-.08.064-.037-.05-.027-.127-.047 0-.05-.077-.11-.11-.037.053-.024.08-.044.143l-.047-.06.057-.114c-.14.308-.248-.067-.335.221-.03-.067.05-.13.03-.17-.1-.158-.288.18-.369 0-.14-.178-.335-.044-.506-.172v.06l-.12-.063c-.048.13-.128.057-.199.208a.935.935 0 01.024-.154c-.057 0-.124.07-.148 0l.027-.05c-.117-.051-.282-.075-.355.033-.044 0-.03-.097-.034-.171-.067 0-.12.04-.188.127a.498.498 0 01-.033-.11l-.044.144c-.027-.024 0-.12 0-.161-.124.16-.235 0-.308 0v.074c-.037.053-.088-.054-.04-.124-.142-.104-.249.204-.443.14 0-.265-.191.057-.188-.238-.094.064-.134-.06-.215.104v-.047c-.02-.11-.144-.04-.238.024v-.09c-.053.19-.194.117-.244.308 0-.044.023-.08.04-.114-.024-.188-.087.077-.141.03a.767.767 0 01.017-.138c-.168-.228-.487.094-.718-.08-.067 0 0 .208-.084.184 0-.1.064-.194 0-.241-.057.114-.067.087-.12.07.016-.063 0-.107.056-.147-.023-.084-.154.14-.2-.03a.292.292 0 01-.034.127c-.114.158-.195-.194-.215-.1 0 0-.037.023 0 .046-.033 0-.08-.043-.06-.137-.024.05-.05.13-.077.137l.027-.11c-.02.023-.044.09-.064.1l.017.074c-.027-.097-.131.117-.104-.097l-.06-.104c-.041.08-.081.164-.128.13 0-.224-.12-.063-.181-.093V21.3c-.06.1-.181.037-.165.08a.098.098 0 01-.073-.134c-.044.04-.128.027-.161.154l-.057-.198c-.08.272-.145-.117-.185.175-.037-.05-.02-.114-.043-.171-.078.137-.138.104-.198.074v-.03c-.06-.034-.154.103-.245.11v-.225c-.05.027-.084.195-.12.145a.05.05 0 01.016-.058c-.047.037-.097-.026-.124-.083-.087.15-.13.084-.211.248-.027-.201.087-.074.067-.265-.08-.114-.191-.02-.309.064a.384.384 0 01.024-.121 2.16 2.16 0 00-.269.72c-.046.142-.087.222 0 .356.04-.08.138-.174.135 0l.023-.15c.13-.058-.03.315.114.335l-.033-.094c.03 0 .063-.1.087-.047a.16.16 0 01-.034.097l.144-.19a.468.468 0 01-.05.2c.11 0 .017-.285.141-.208 0 .074-.02.094-.044.145.044.137.101.023.178-.05 0 .137-.057.113 0 .207 0-.07 0-.191.05-.201-.036.137.02.077.057.117a.252.252 0 01.027-.134c.024-.02.034.037.06.034l-.03-.145c.084-.12.098.084.141.148a.072.072 0 01-.03.05c.047.064.09.181.174.07.148-.117 0-.234.155-.334.047.033-.077.445.057.298-.04-.124.107-.275.18-.319l-.1.259c.027 0 .08-.064.09-.034v-.054c.024-.228.085.04.148-.09a2.142 2.142 0 00-.14.55c.067-.165.137-.312.217-.272l-.097.232c.107.063.282-.269.396-.456a2.53 2.53 0 01-.084.372l.114-.024-.054.188c.067-.191.101-.05.124-.308-.016.033-.02.063-.04.053 0-.077.05-.231.104-.214.03.067-.033.097-.03.17.047-.1.03.068.077 0l-.02-.113c.044-.145.06 0 .107-.067a.3.3 0 00-.04.234v-.02c.027 0 .074-.104.084 0l-.047.205.057-.148a.17.17 0 01-.017.138c.11.14.05-.44.188-.235 0 .077-.034.127-.074.077-.02.124-.02.198.02.248v.024a.215.215 0 00.262-.104z" fill="#09A6FF"/><path d="M20.351 22.678h-.104c-.02 0 .091.134.104 0zm7.005.546a.095.095 0 000-.047c-.016.04-.016.07 0 .047zm-1.673-.026a.419.419 0 00.063-.168c-.02.017-.043.06-.063.168zm-2.136-.205c.037-.064.08-.053.117-.09-.033.033-.08-.037-.117.09zm4.275.067l-.05.1.046-.07.003-.03zm-.325.024c0-.027-.08.03-.07.087a.25.25 0 01.07-.087zm-1.277-.265l-.027.11.04-.08-.014-.03zm-4.282 1.193l.01-.1-.037.127.027-.027z" fill="#09A6FF"/><path d="M21.747 23.878a1.529 1.529 0 00-.104.39l.057-.188c0 .164 0 .157.033.107h-.023a.73.73 0 01.027-.144c.023.087.06-.138.067.043v.017l.037-.1a.462.462 0 010 .13c.033-.084.06-.17.09-.157 0-.296-.094.218-.08-.078v-.016c-.054.114-.054-.064-.104-.004zm-1.07-.291v.048a.12.12 0 000-.048zm.308.627c-.01.058-.007.041 0 0zm-2.264-.731v-.067c-.003.067-.003.067 0 .067zm-.351.831v.06c-.004-.033 0-.053 0-.06zm-.175.102a.049.049 0 000-.031c-.01.034-.003.045 0 .03zm.07-1.061v.024a.08.08 0 010-.024zm-.124 1.181a.302.302 0 000-.057.144.144 0 000 .057zm3.572-.653v-.021c0-.02.007 0 0 .02zm-2.243.79v.06a.226.226 0 000-.06z" fill="#09A6FF"/><path d="M18.725 24.583a.782.782 0 01-.02.157c.02.077.047-.114.064.024v-.078c.03-.11.067-.134.067 0v.05c.03-.12.037.111.053 0 .017-.11 0-.107 0-.17l.057-.124v.211l.03-.07c0-.084.024.07.044-.128-.002.08-.013.16-.034.238.02-.057 0 .03.037-.087v.218l.044-.13v.05c.03-.155.03.093.077-.171v.03c.027-.145.044-.037.05 0 .02-.083.03-.167.03-.252.047.05.034.037.095-.174 0 .231-.064.365-.044.53a.584.584 0 01.074-.242c.03.1.05.202.06.305v-.147l.04-.084-.037.218.037-.235c.047-.127 0 .336.037.104v.047c0-.114.037-.07.067-.11l-.027.19v-.04c0 .188.03-.03.047-.02.024-.064.027-.221.04-.278 0 0 .02-.047.02 0 .001.104-.009.207-.03.308a.51.51 0 01.07-.248.59.59 0 01-.02.151.781.781 0 00.031-.147v.11c0 .165.06-.355.094-.291.033.063.037-.02.04.104 0 .03 0 .281-.037.398-.037.118.034-.227.06-.271l-.03.241a1.76 1.76 0 01.05-.2 1.09 1.09 0 010 .14c.03.027.024 0 .051.034l.02-.232v.144c0 .205.027-.11.024.074a.672.672 0 01.02-.188.954.954 0 000 .191c0-.097.03-.04.043-.194a.712.712 0 01-.02.188c.027-.181.05-.024.07-.124v.033c.024-.11.05-.134.091-.291l-.02.134c.023.057.04-.282.067-.275-.023.187.04 0 0 .194.028-.104.05-.209.067-.315 0 .107-.047.258-.033.312l.03-.098v.101c0-.077.027-.08.03-.14v.305c0-.037.024.08.044-.027v.06c.03-.228.04-.044.067-.278v.127c.025-.104.043-.209.053-.315 0 0 .02-.034.027 0a.652.652 0 000 .268s.04 0 .057-.127c-.02.12-.023.218-.043.228 0 .231.036-.05.057 0v.107a1.8 1.8 0 00.01-.453 2.3 2.3 0 01-.034.302c0 .08.06 0 .084 0a.576.576 0 01-.024.188c.037-.097.06.03.098-.205v.004c.027-.094.07-.178.084-.094v.07c.04.04.097-.362.13-.184 0 .05-.027.191 0 .188 0-.084.03-.265.05-.215v.154l.03-.154c0-.127-.026-.084 0-.225 0 .145.031-.14.041.03 0 0-.027.131-.037.195.034.184.087-.144.12.054.041-.121.075-.141.105-.252 0 .154-.03.292-.054.413.02.02.067-.336.057-.098.034-.21.077-.127.114-.422 0 .06.024 0-.017.168.04-.094 0 .258.027.261.027.003 0-.191.03-.194v.057-.067a1.986 1.986 0 01-.033.22c.017.065.06-.167.09-.18v.05h.03l.034-.1v.073c0-.02 0-.067.024-.074v.094c.023-.147.06-.221.077-.221v.044l.057-.188c0 .104-.05.221 0 .154l-.03.191c.033-.074.023.03.05-.033a.699.699 0 010-.171c0 .224.04-.054.07-.141l-.037.114v-.114l-.026.107v-.134l-.037.104c.02-.154-.02-.024 0-.184-.027.063-.024-.047-.057.104 0-.094.03-.111.02-.128-.084.117-.151.087-.218.024v-.067l-.04.174c0-.124-.03-.288-.07-.057a.484.484 0 010-.064c-.028.027-.054-.144-.091-.12-.04.24-.037-.162-.084.174l.017-.07c-.01.105-.029.209-.054.311 0-.218.017-.164.023-.365v.077-.181c-.087.456-.06-.218-.12.114V23.6c0-.104-.044.124-.06.184a1.42 1.42 0 01.033-.214c-.024-.074-.1.164-.12.02-.024.12 0 .161-.034.252a.568.568 0 010-.192c0-.228-.111.135-.138-.073a1.307 1.307 0 01-.074.278c.007-.103.02-.204.04-.305v-.094c-.036-.02-.083-.06-.127.204v-.144a.064.064 0 000 .044c-.03.164-.02 0-.033 0v-.037l-.037.12a.735.735 0 010-.123v-.003.1c0-.064-.037.077-.027-.07v-.024c0-.208-.054.067-.067-.034v.225c-.027.067 0-.047 0-.127 0 0 0-.07-.027-.098a.918.918 0 00-.02.148l-.017-.057.024-.12c-.057.335-.07-.044-.114.254a1.524 1.524 0 010-.17c-.024-.149-.094.204-.111.036-.017-.168-.097 0-.14-.124v.06l-.034-.05c-.024.13-.04.067-.07.221v-.154c0-.034-.041.084-.041 0v-.05c-.034-.04-.08-.047-.107.063v-.167s-.037.053-.06.147v-.107l-.018.144v-.157c-.046.17-.07 0-.09.023v.07c0 .058-.023-.046 0-.117-.037-.09-.084.221-.138.178 0-.265-.06.074-.043-.221-.03.073-.037-.047-.067.124v-.047c0-.111-.04-.03-.07.04v-.087c-.027.19-.064.13-.091.335a.578.578 0 01.02-.117c0-.185-.034.087-.044.043-.01-.043 0-.104 0-.137-.033-.215-.147.134-.204 0-.02 0 0 .204-.037.188.011-.08.018-.161.02-.242-.023.12-.027.094-.04.08a.53.53 0 01.027-.147c0-.084-.057.148-.057 0 0 .057 0 .094-.02.128-.044.167-.044-.178-.058-.084a.11.11 0 00.078.067s-.02-.034 0-.128a.675.675 0 01-.034.141v-.11c0 .023-.02.093-.027.107v.067c0-.094-.047.127-.023-.084v-.097c-.017.084-.034.17-.047.14.02-.224-.03-.053-.044-.076v-.078c-.023.104-.057.054-.053.09.003.038-.027-.053 0-.123a.359.359 0 00-.06.168v-.192c-.048.275-.034-.104-.071.188v-.164c-.034.14-.047.117-.064.09v-.03c0-.027-.054.117-.08.13l.02-.22c0 .026-.04.198-.047.15a.247.247 0 010-.057c0 .044-.027 0-.03-.07-.037.154-.044.094-.084.265 0-.198.033-.084.043-.268 0-.108-.053 0-.097.09a.867.867 0 01.02-.124c-.062.243-.111.49-.147.738a1.21 1.21 0 00-.037.335c.02-.084.057-.184.043-.023l.02-.151c.044-.067-.036.315 0 .315v-.047s.027-.107.03-.053a.414.414 0 01-.02.097l.064-.205a1.373 1.373 0 01-.033.205c.033 0 .027-.282.06-.215a.44.44 0 01-.027.144c0 .134.03 0 .06-.067a1 1 0 00-.023.212.806.806 0 01.034-.205c-.024.138 0 .074 0 .11a.887.887 0 01.02-.137v.027-.137c.037-.128.023.073.03.134a.1.1 0 010 .05c0 .057 0 .17.05.054.054-.131 0-.232.074-.336 0 .03-.06.446 0 .289a.838.838 0 01.08-.336l-.05.262s.027-.067.03-.04v-.054c.027-.228.024.034.054-.1-.054.305-.047.247-.087.553.033-.165.067-.336.087-.285l-.047.234c.03.057.108-.288.154-.482-.026.174-.02.238-.05.389l.037-.034-.03.191c.029-.103.049-.209.06-.315v.053c0-.077.034-.234.047-.22a1.117 1.117 0 01-.02.17c.02-.104 0 .064.023 0v-.12c.024-.145.02 0 .037-.074a1.137 1.137 0 00-.026.234s.03-.11.026-.026l-.026.204.026-.147a.545.545 0 010 .137c.024.128.044-.442.07-.248 0 .077-.016.127-.026.08a1.113 1.113 0 000 .245v.024c-.003-.014.027.003.057-.134z" fill="#09A6FF"/><path d="M18.638 24.7s-.024 0-.03.023c-.007.024.02.101.03-.023zm2.072-.1a.168.168 0 000-.048c-.006.04-.006.07 0 .047zm-.5.144a1.25 1.25 0 00.03-.171.613.613 0 00-.03.17zm-.191-.098v.031a.125.125 0 000-.03zm-.435.091a.418.418 0 01.04-.097c-.01.033-.023-.034-.04.097zm1.274-.352l-.02.104.017-.074.003-.03zm-.105.06c0-.026-.026.037-.026.094a.588.588 0 01.026-.094zm-.362-.131l-.013.11.013-.083v-.027zM45.32 5.21l.01-.103-.09.117.08-.013zm-.62-.23c-.078.1-.198.15-.239.361l.138-.167c-.017.16.054.164.124.124h-.07c.023 0 .03-.12.05-.141.09.104.158-.114.221.08v.017l.098-.09c.02.027 0 .1 0 .127.083-.07.15-.15.241-.124-.017-.302-.245.188-.262-.114-.127.07-.194-.134-.301-.074zm-3.334-.722v.045a.076.076 0 000-.045zm1.04.758c-.02.059-.014.042 0 0zM35.21 3.524v-.07c-.027.06-.024.077 0 .07zm-.947.751v.06a.126.126 0 000-.06zm-.504.058c0-.017-.024-.031-.038-.034-.014-.004.02.044.038.034zm1.229.143v.158a.83.83 0 000-.158zM33.62 4.44a.127.127 0 00-.016-.058c0 .03.003.054.017.057zm10.98.533a.094.094 0 00.053 0s-.033-.02-.054 0zm-6.866-.011v.057a.073.073 0 000-.057zm-1.139-.194v.035a.075.075 0 000-.035zm-.852.084a.358.358 0 00-.024.05l.024-.05z" fill="#09A6FF"/><path d="M35.42 4.65a.288.288 0 01-.036.158c.077.084.127-.107.201.04l-.033-.083c.07-.104.18-.114.214.04l-.023.047c.07-.118.127.124.164.023.037-.1 0-.107 0-.174l.154-.11v.207l.084-.06c0-.084.087.08.114-.118.034.08-.037.155-.06.235.047-.054.04.034.094-.08l.02.187.12-.117v.047c.071-.15.115.104.212-.154a.109.109 0 000 .03c.053-.14.124-.024.15 0 .061-.03.048-.174.058-.248.154.067.104.047.268-.154.05.241-.144.358-.06.533a.334.334 0 01.194-.225.968.968 0 01.228.335v-.15l.114-.068L37.51 5c.023-.047.087-.137.13-.204.125-.118 0 .335.132.114v.05c.043-.11.107-.06.194-.094l-.054.188-.047-.047c0 .191.091-.02.141 0 .06-.06.054-.218.09-.272 0 0 .055-.043.061 0a1.29 1.29 0 01-.047.309c.064-.191.077-.164.178-.235a.33.33 0 01-.034.151.301.301 0 00.064-.14v.113c.08.171.148-.335.262-.268-.047.097.11 0 .13.117-.047.024 0 .282-.056.396.087.084.07-.221.154-.258l-.064.238c.09-.094.037-.128.124-.191-.03.067.027.067-.03.137.054.015.108.033.16.054l.038-.231c.033-.02.03.083.033.127.004.044-.03 0-.033.02 0 .205.073-.104.09.084 0-.074 0-.178.04-.185-.03.138.04.138.034.198 0-.1.084-.037.11-.187.03.11-.026.107-.04.184.06-.174.155 0 .198-.104v.034c.06-.104.138-.121.248-.265l-.047.127c.084.07.094-.272.168-.258-.04.184.128 0 .064.204a1.04 1.04 0 00.168-.301c.026.114-.118.248-.064.308l.077-.09v.104c0-.078.07-.074.077-.135v.306c.047-.03.087.093.134 0v.06c.07-.221.128-.03.181-.262v.131c.067 0 .088-.255.124-.305.037-.05.06-.03.084 0-.104.137 0 .188.02.275a.158.158 0 00.168-.11c-.054.113-.044.214-.114.214 0 .235.11-.037.184 0v.107c.118-.053.148-.238.222-.416a.67.67 0 01-.07.295c.06.091.187 0 .268.044a.21.21 0 01-.047.188c.1-.09.187.05.275-.178-.034.09.026.067.05.118a.3.3 0 01.027-.104c.063-.088.19-.158.241-.064l-.033.064c.134.06.258-.336.385-.138.02.054-.06.188 0 .191.044-.084.06-.261.124-.201l-.026.15.07-.147c0-.13-.09-.097 0-.231.043.154.077-.13.13.047a.839.839 0 00-.087.188c.135.204.252-.114.386.104.104-.108.211-.114.289-.218-.02.138-.057.273-.111.402.067.03.157-.308.168-.077.07-.205.218-.1.281-.392 0 .06.077 0-.023.167.11-.08.084.275.127.282.044.007 0-.191.06-.188a.339.339 0 000 .057l.03-.064c0 .07-.046.141-.063.218.07.074.158-.15.255-.15l-.024.047.09.026.095-.09-.017.077c.023-.02.034-.067.06-.07l-.023.09c.05-.14.154-.201.198-.194v.043l.137-.174c.037.11-.11.211 0 .16l-.063.185c.09-.06.083.044.15 0 0-.1-.046-.094 0-.174.02.228.108-.04.182-.118-.03 0-.05 0-.091.101-.03 0 0-.104 0-.117l-.064.1v-.134l-.097.09c.034-.15-.064-.03 0-.187-.064.057-.077-.06-.15.087-.021-.1.076-.104.04-.124a.872.872 0 01-.671-.067l.033-.064c-.033.064-.073.114-.097.165-.017-.131-.137-.312-.228-.088 0-.016 0-.047.02-.063-.077 0-.188-.171-.295-.161-.084.234-.137-.178-.228.147l.03-.067c.024.1-.087.225-.114.302 0-.218.024-.164.02-.369l.03.08.02-.177c-.207.436-.217-.252-.355.07a.473.473 0 01.02-.063c-.04-.108-.114.11-.164.167a.527.527 0 01.077-.208c-.087-.087-.288.134-.376-.023-.056.114 0 .16-.063.248a.181.181 0 010-.195c-.06-.238-.336.098-.443-.127-.094.12-.057.188-.184.258.04-.08.017-.295.087-.295l.02-.094c-.11-.033-.261-.09-.362.165.027-.195 0-.04-.044-.151-.02.02 0 .03 0 .043-.067.161-.063-.016-.097 0v-.033l-.1.11a.295.295 0 01-.02-.127l-.018.134c-.046 0 0-.178-.056-.147v.104c-.027-.07-.104.063-.091-.084 0-.03 0 0 .023-.02-.026-.215-.15.047-.207-.057v.22c-.074.065-.034-.05-.02-.127-.044 0-.044-.077-.098-.11-.037.053-.027.08-.047.144l-.05-.064.054-.114c-.134.309-.225-.067-.336.218-.027-.067.05-.127.034-.167-.087-.158-.272.177-.335 0-.125-.178-.316-.047-.463-.175v.057l-.111-.06c-.047.127-.117.054-.188.204.005-.051.013-.103.024-.154-.05 0-.114.07-.131 0l.023-.05c-.103-.05-.258-.074-.335.033-.04 0-.023-.097-.023-.17-.064-.017-.114.04-.178.127a.537.537 0 01-.03-.11l-.044.14c-.023-.024 0-.117 0-.158-.12.161-.215 0-.285 0v.074c-.033.05-.077-.057-.033-.127-.128-.1-.232.204-.413.14 0-.264-.178.058-.168-.24-.087.066-.124-.058-.197.106v-.047c0-.114-.131-.043-.218.024v-.09c-.054.187-.181.117-.235.305a.259.259 0 01.04-.114c0-.188-.08.08-.127.033a.81.81 0 010-.137c-.148-.232-.446.09-.67-.08-.065 0 0 .207-.085.18 0-.1.064-.19.017-.241-.054.117-.064.09-.114.074.02-.064 0-.108.057-.148-.02-.084-.144.137-.184-.03a.292.292 0 01-.034.127c-.107.158-.178-.194-.194-.1 0 0-.034.02 0 .047-.034 0-.074-.044-.054-.138-.024.05-.047.13-.074.138l.027-.111a.948.948 0 01-.06.104l.016.07c-.026-.097-.124.118-.097-.097l-.054-.104c-.04.084-.077.164-.12.13 0-.224-.108-.063-.165-.093v-.077c-.06.104-.167.04-.15.08a.09.09 0 01-.078-.09c0-.014.004-.028.01-.04-.043.04-.117.026-.15.154l-.05-.195c-.078.269-.132-.117-.172.171-.033-.05 0-.114-.04-.167-.074.137-.127.104-.181.073v-.033c-.054-.03-.14.107-.225.11v-.22c-.047.023-.08.194-.114.143a.05.05 0 010-.057c-.043.037-.09-.023-.114-.083-.08.15-.12.087-.198.251-.02-.201.084-.077.067-.265-.073-.114-.177-.017-.285.067a.424.424 0 01.024-.124c-.125.226-.212.47-.258.724-.04.141-.08.225 0 .356.037-.084.127-.178.12 0l.027-.154c.118-.057-.033.335.1.335l-.02-.054c.024 0 .058-.104.081-.05a.225.225 0 01.024.084l.134-.195a.526.526 0 01-.047.205c.1 0 .017-.285.13-.208 0 .07-.02.094-.043.14.04.142.094.024.164-.05 0 .138-.053.115 0 .208 0-.07 0-.19.047-.2-.033.137.02.076.054.117a.235.235 0 01.027-.138c.02-.017.027.04.053.034l-.026-.141c.077-.124.087.08.127.147a.087.087 0 01-.027.047c.044.064.08.181.158.067v.017c.137-.12 0-.235.147-.335.044.033-.077.446.047.298-.033-.124.104-.275.171-.335l-.097.258c.027 0 .077-.064.087-.033v-.06c.024-.229.074.04.134-.091a2.438 2.438 0 00-.134.55c.06-.165.131-.312.205-.272l-.094.228c.097.067.261-.268.372-.456-.047.174-.02.241-.074.386l.104-.024-.053.188c.067-.191.093-.05.117-.305 0 .03 0 .06-.034.05 0-.077.047-.231.098-.214.05.016-.034.097-.03.17.043-.1.026.068.07 0V4.31c.04-.145.057 0 .097-.068a.335.335 0 00-.04.235v-.02c.027 0 .07-.104.077 0l-.047.201.057-.144a.189.189 0 010 .138c.097.137.05-.443.178-.235 0 .077-.037.127-.07.074a.335.335 0 000 .248v.023c.016-.003.117.02.184-.11z" fill="#09A6FF"/><path d="M35.177 4.745c-.04 0-.074 0-.094.016-.02.017.08.114.094-.016zm6.425.563a.08.08 0 000-.047c-.02.04-.02.07 0 .047zm-1.541-.03a.475.475 0 00.064-.168c-.02.014-.04.057-.064.168zm-.613-.168v.031a.068.068 0 000-.03zm-1.344-.047c.037-.063.074-.053.11-.087-.03.03-.073-.04-.11.087zm3.926.081l-.047.097.047-.067v-.03zm-.312.023c0-.027-.074.03-.067.087a.22.22 0 01.067-.087zm-1.153-.268l-.03.11.04-.08-.01-.03zm3.883 2.059v-.104l-.077.124.077-.02zm-.607-.188c-.067.104-.184.161-.211.376l.124-.178c0 .164.06.16.124.117h-.067c.02-.02.024-.124.044-.14.09.093.144-.125.214.063v.017l.087-.097c.02.027 0 .104 0 .13.078-.077.138-.16.225-.137-.03-.302-.224.201-.255-.1-.11.083-.197-.105-.285-.05zm-3.223-.547v.049a.087.087 0 000-.049zm1.027.707c-.02.06-.014.046 0 0zm-6.952-1.25v-.07c-.017.064-.01.077 0 .07zm-.892.768v.057a.115.115 0 000-.057zm-.484.062c0-.018-.024-.032-.038-.035-.014-.004.02.048.038.034zm1.182.13v.157a1.219 1.219 0 000-.158zm-1.302-.021a.128.128 0 000-.057c-.033.03-.026.054 0 .057zm10.547.148a.07.07 0 00.05 0s-.033-.02-.05 0zm-6.593.285v.057a.097.097 0 000-.057zm-1.1-.155v.035a.078.078 0 000-.035zm-.822.104a.26.26 0 00-.02.05l.02-.05z" fill="#09A6FF"/><path d="M34.918 6.804a.336.336 0 01-.034.157c.074.084.121-.107.191.037l-.03-.08c.067-.108.171-.121.205.033l-.02.05c.067-.12.124.121.157 0 .034-.12 0-.107 0-.174l.148-.114v.211l.077-.063c0-.084.087.077.11-.121.034.08-.033.158-.056.238.047-.057.043.034.09-.084l.02.188.118-.12v.046c.063-.15.11.104.197-.157v.03c.047-.141.118-.027.145 0 .057-.03.04-.175.05-.252.15.064.1.047.255-.157.053.238-.131.358-.05.53a.335.335 0 01.184-.229c.098.096.175.21.228.336v-.151l.107-.074-.077.211c.02-.047.08-.137.12-.208.118-.12.028.336.128.111v.054c.037-.114.1-.064.185-.1l-.047.19-.047-.047c0 .192.087-.023.134 0 .06-.06.05-.22.084-.275.017 0 .05-.043.06 0 .01.044-.02.228-.04.309.057-.195.067-.168.164-.238a.335.335 0 01-.03.15.336.336 0 00.06-.147l.017.114c.084.171.134-.335.248-.275-.043.1.104 0 .128.114-.044.027 0 .285-.044.396.087.08.06-.221.141-.258l-.057.234c.087-.097.033-.127.114-.194-.027.067.027.067-.023.14.052.013.103.03.154.048l.03-.232c.034-.023.034.08.037.124.003.044-.03 0-.03.024 0 .204.067-.107.087.08 0-.073 0-.177.033-.187-.026.14.04.137.037.197 0-.1.084-.04.104-.19.03.107-.023.11-.037.184.054-.175.148 0 .191-.11v.033c.054-.104.128-.124.232-.275l-.044.13c.084.067.084-.275.154-.264-.033.187.125 0 .07.204.065-.095.116-.2.152-.308.03.11-.108.251-.054.308l.07-.09v.1c0-.074.068-.077.071-.137v.305c.044-.03.087.09.13 0v.06c.061-.225.125-.033.168-.268v.13c.06-.016.074-.258.108-.311.033-.054.057-.03.08 0-.094.144.02.188.027.275a.154.154 0 00.161-.118c-.05.114-.037.215-.104.218 0 .235.107-.043.178 0v.108c.114-.06.137-.245.201-.426a.722.722 0 01-.06.298c.063.087.184 0 .261.034a.23.23 0 01-.037.188c.09-.094.181.043.255-.188-.03.09.027.064.054.114a.419.419 0 01.02-.104c.06-.09.181-.168.231-.077l-.03.067c.13.053.235-.336.366-.158.02.054-.05.191 0 .191.033-.084.047-.265.11-.208l-.023.155.063-.151c0-.131-.09-.094-.02-.232.044.151.067-.134.124.04a.873.873 0 00-.073.192c.137.201.238-.128.375.084.09-.111.198-.124.265-.232a1.662 1.662 0 01-.087.406c.064.03.137-.315.158-.084.057-.208.204-.11.254-.406 0 .06.07 0-.02.168.104-.087.094.272.134.275.04.003 0-.191.05-.191.051 0 0 .043 0 .057l.028-.067c0 .07-.04.144-.05.221.066.07.144-.157.237-.164l-.023.05.09.02v.017l.088-.097v.077c.02-.02.03-.067.053-.074v.094c.04-.14.138-.211.178-.208v.044l.124-.178c.04.107-.094.215.02.158l-.05.187c.084-.063.08.04.14-.02 0-.1-.046-.09 0-.174.03.228.101-.044.168-.128-.03 0-.047 0-.08.108-.03 0 0-.104-.017-.114l-.057.1v-.15l-.087.097c.023-.155-.064-.027-.017-.188-.057.06-.074-.054-.14.097-.024-.097.07-.107.033-.127a.802.802 0 01-.64-.027l.026-.067c-.027.067-.064.117-.084.168-.023-.128-.147-.302-.22-.074 0 0 0-.047.016-.064-.077.02-.188-.158-.292-.148-.07.242-.137-.17-.211.161l.027-.067c.023.098-.074.228-.098.309v-.372l.034.08v-.18c-.181.448-.218-.239-.335.09V6.34c-.04-.107-.104.117-.151.174a.63.63 0 01.067-.211c-.084-.08-.272.148-.359 0-.05.117 0 .161-.05.248a.171.171 0 010-.191c-.067-.235-.312.114-.43-.107-.083.127-.046.19-.167.268.037-.084 0-.298.074-.302l.016-.094c-.107-.03-.251-.08-.335.181.02-.197 0-.04-.044-.15-.02.02 0 .03 0 .043-.06.164-.06 0-.093 0v-.033l-.091.114a.286.286 0 01-.023-.128v.138c-.044 0 0-.175-.06-.145v.101c-.028-.067-.095.07-.088-.077 0-.03 0-.017.02-.02-.03-.215-.144.053-.198-.05v.224c-.07.064-.033-.05-.023-.127-.044 0-.044-.077-.097-.108-.034.054-.024.08-.04.145l-.051-.06.047-.118c-.12.315-.215-.057-.305.231-.027-.067.043-.127.027-.167-.088-.155-.252.187-.336 0-.127-.171-.305-.034-.45-.158v.084l-.106-.06c-.044.13-.114.06-.178.21 0-.046 0-.12.02-.154-.047.017-.107.078-.127 0l.023-.05c-.104-.047-.248-.067-.315.04-.037 0-.027-.097-.027-.167-.06 0-.107.043-.168.134a.53.53 0 01-.03-.11l-.06.157c-.024-.024 0-.12 0-.161-.114.164-.208 0-.275 0v.074c-.034.053-.077-.054-.037-.121-.124-.1-.218.208-.392.15 0-.267-.168.061-.165-.237-.084.07-.117-.054-.188.114v-.047c0-.114-.123-.04-.207.027v-.09c-.047.19-.171.12-.222.31a.255.255 0 01.037-.113c-.02-.188-.077.08-.12.033a.565.565 0 010-.137c-.148-.228-.426.1-.63-.064-.061-.017 0 .205-.078.181 0-.1.06-.19 0-.238-.05.114-.06.087-.107.07 0-.06 0-.103.05-.144-.02-.083-.137.138-.174-.026a.288.288 0 01-.034.124c-.1.16-.171-.188-.188-.098 0 0-.03.024 0 .047-.03 0-.07-.04-.05-.134-.023.05-.047.131-.07.138l.026-.11c0 .023-.04.093-.057.103v.07c-.023-.097-.117.121-.09-.093l-.057-.104c-.034.083-.07.167-.11.134 0-.225-.105-.06-.158-.09v-.078c-.054.1-.161.04-.145.08a.09.09 0 01-.074-.09c0-.014.004-.028.01-.04-.04.04-.11.03-.144.157l-.047-.194c-.073.268-.127-.114-.164.174-.033-.05-.017-.114-.037-.167-.07.137-.124.107-.177.077v-.03c-.054-.03-.135.107-.215.114v-.225c-.044.027-.074.198-.107.144a.05.05 0 010-.057c-.044.04-.087-.023-.111-.08-.077.15-.114.087-.188.254-.023-.2.077-.08.06-.268-.066-.114-.167-.017-.271.07a.576.576 0 01.023-.123c-.084.23-.133.47-.147.714-.044.14-.08.224 0 .355.037-.084.124-.177.117 0l.024-.154c.114-.057-.03.319.097.335l-.02-.053c.023 0 .057-.1.077-.047a.16.16 0 01-.034.097l.135-.198a.528.528 0 01-.047.205c.097 0 0-.285.127-.208 0 .07-.02.094-.044.144.04.137.091.02.158-.054 0 .134-.05.114 0 .208 0-.074 0-.19.047-.201-.034.134.02.077.05.117a.266.266 0 01.027-.137c0-.02.027.037.05.03l-.023-.14c.074-.121.084.083.124.147a.087.087 0 01-.027.047c.04.063.077.177.151.067v.017c.13-.121 0-.235.14-.336.041.034-.073.446.048.299-.034-.124.1-.279.164-.336l-.094.259c.024 0 .074-.064.084-.034V6.38c.024-.228.07.04.13-.094a2.368 2.368 0 00-.13.55c.06-.164.124-.312.195-.271l-.088.228c.094.067.252-.272.356-.46-.032.13-.071.257-.117.382l.1-.026-.047.19c.06-.194.087-.053.11-.308 0 .034 0 .064-.033.054 0-.077.044-.235.094-.218.05.017-.03.097-.03.171.044-.1.027.067.067 0l-.017-.114c.04-.144.057 0 .098-.07a.366.366 0 00-.04.238v-.02c.026 0 .066-.108.077-.02l-.044.204.05-.148a.185.185 0 010 .138c.094.137.044-.443.168-.238 0 .077-.034.127-.067.077a.335.335 0 000 .248v.024a.184.184 0 00.228-.094z" fill="#09A6FF"/><path d="M34.684 6.904c-.04 0-.074 0-.091.017s.077.11.09-.017zm6.196.359a.082.082 0 000-.047c-.013.04-.013.07 0 .047zm-1.482.034a.487.487 0 00.057-.172c-.02.017-.037.06-.057.172zm-.594-.145v.031a.071.071 0 000-.03zm-1.294 0c.03-.067.067-.057.104-.094-.03.034-.057-.037-.104.094zm3.78-.074l-.044.101.043-.07v-.03zm-.302.037c0-.026-.067.034-.06.091a.274.274 0 01.06-.09zM39.871 6.9l-.023.111.033-.084-.01-.026zm-.144 1.925l.006-.104-.057.125.05-.02zm-.372-.164a.964.964 0 00-.157.386l.09-.184c0 .164.03.157.074.11h-.044c0-.02.02-.124.034-.144.053.09.097-.13.134.054v.016l.06-.097c.01.042.01.086 0 .128.054-.078.098-.165.151-.148 0-.298-.154.211-.158-.087v-.017c-.083.11-.12-.087-.184-.017zm-2.005-.446v.049a.136.136 0 000-.049zm.603.681c-.017.059-.014.045 0 0zM33.64 7.76v-.068c-.01.06-.006.077 0 .067zm-.63.774v.057a.387.387 0 000-.057zm-.321.068c0-.018 0-.031-.02-.035-.021-.003.01.045.02.035zm.079-1.064v.02a.05.05 0 000-.02zm.672 1.19v.155a.774.774 0 010-.155zm-.845-.02a.182.182 0 000-.057c-.01.03-.01.057 0 .057zm6.696-.043a.048.048 0 00.035 0s-.02-.021-.035 0zM35.09 9.1v.057a.09.09 0 000-.057zm-.686-.15v.034a.2.2 0 000-.034z" fill="#09A6FF"/><path d="M33.691 8.872a.49.49 0 01-.033.158c.04.08.087-.107.12.034v-.08c.054-.108.121-.122.131.03v.05c.05-.118.067.117.098.016a1.585 1.585 0 000-.174l.1-.114-.023.208.053-.06c0-.088.05.073.08-.125a.615.615 0 01-.053.239c.034-.057.023.03.064-.084v.184l.084-.12v.046c.053-.15.063.101.14-.16a.102.102 0 000 .03c.04-.141.078-.027.091 0 .04-.034.04-.175.05-.252.09.06.064.044.175-.16 0 .237-.111.361-.07.529a.359.359 0 01.133-.228.935.935 0 01.118.319v-.151l.074-.074-.064.211c0-.047.06-.137.09-.208.084-.124 0 .336.074.11v.048c.034-.114.07-.064.124-.1l-.043.187-.024-.044c0 .188.057-.026.084 0 .043-.06.047-.218.074-.275 0 0 .037-.043.037 0a.864.864 0 01-.05.306c.053-.192.056-.165.123-.239a.459.459 0 01-.03.151.433.433 0 00.05-.144v.128c.037.167.111-.336.175-.279-.034.1.067-.016.074.111-.03.027-.027.282-.057.396.047.077.053-.225.107-.262l-.05.238c.06-.1.026-.127.087-.198-.024.067 0 .067-.027.141.057.034.044 0 .094.044l.037-.228c.023-.024 0 .077 0 .12 0 .044 0 0-.02.024 0 .204.05-.107.047.08 0-.073 0-.177.036-.187-.026.14 0 .134 0 .194 0-.1.054-.037.078-.191 0 .11-.024.11-.034.188.047-.178.094 0 .127-.114v.033c.044-.107.091-.127.168-.278l-.037.13c.047.064.074-.274.118-.264-.034.188.077 0 .03.201a1.79 1.79 0 00.117-.308c0 .107-.084.251-.057.308l.054-.094v.104c0-.077.047-.077.054-.137 0 .12 0 .21-.024.301.03-.033.05.088.084-.016v.06c.057-.225.08-.037.127-.268v.127c.04-.017.067-.258.09-.312.024-.053.038-.03.051 0-.067.144 0 .185 0 .272 0 0 .077 0 .107-.12-.04.117-.037.217-.08.22 0 .235.07-.043.114 0l-.017.108c.077-.064.104-.245.158-.426a1.2 1.2 0 01-.057.298c.033.084.114 0 .16.027a.335.335 0 01-.036.188c.067-.097.114.037.178-.194-.027.093 0 .063.023.11a.748.748 0 01.02-.1c.047-.091.128-.171.151-.084l-.02.067c.08.05.171-.336.241-.165 0 .054-.043.192 0 .192.03-.084.047-.265.084-.208 0-.128-.053-.09 0-.228.02.147.054-.138.077.037a.966.966 0 00-.057.19c.074.195.158-.13.232.074.067-.114.134-.13.18-.238a2.455 2.455 0 01-.08.41c.04.023.108-.319.108-.091.047-.208.134-.117.184-.412 0 .06.047 0-.02.167.07-.09.04.265.067.268.027.004 0-.187.044-.19.043-.004 0 .043 0 .056l.02-.067c-.007.075-.022.15-.044.222.037.067.1-.161.158-.171v.05l.057.017.057-.098v.074c0-.017.023-.067.037-.074v.094c.033-.144.1-.214.127-.211v.04l.087-.18c.02.103-.074.217 0 .153l-.043.192c.057-.068.05.036.093-.027.044-.064-.026-.087 0-.171 0 .224.068-.05.115-.134 0 0-.03 0-.057.107-.02 0 0-.1 0-.11l-.044.103v-.134l-.06.1c.023-.154-.04-.026 0-.187-.04.06-.044-.05-.094.1 0-.097.05-.107.026-.127a.335.335 0 01-.402 0l.024-.067c-.027.067-.047.12-.064.171 0-.127-.074-.295-.138-.067a.243.243 0 010-.064c-.047.02-.107-.154-.174-.137-.06.241-.074-.168-.144.164l.023-.067a1.05 1.05 0 01-.084.308c0-.22.024-.167.027-.368v.077l.017-.178c-.14.45-.12-.231-.218.097v-.063c-.017-.108-.074.117-.104.174a.854.854 0 01.054-.208c-.047-.08-.181.15-.225 0-.04.117 0 .161-.05.252a.269.269 0 010-.195c-.027-.231-.205.12-.265-.097-.064.127-.044.19-.124.271.027-.083.023-.298.067-.301l.017-.094c-.067-.027-.155-.074-.228.187.023-.197 0-.04-.02-.147v.04c-.047.164-.037 0-.057 0v-.033l-.068.114a.585.585 0 010-.124v.137c-.026 0 0-.178-.026-.147v.103c0-.067-.067.07-.05-.077v-.02c0-.211-.095.054-.121-.047l-.02.222c-.05.067-.02-.047 0-.124-.027 0-.024-.074-.054-.104a.603.603 0 00-.037.144l-.027-.06.04-.118c-.1.315-.134-.054-.21.235 0-.064.036-.128.03-.168-.048-.15-.175.191-.209.02-.033-.17-.187-.03-.271-.15v.06l-.064-.057c-.037.127-.074.06-.127.21.006-.05.015-.102.026-.153-.033.016-.073.077-.08 0v-.05a.124.124 0 00-.201.046c-.027 0 0-.097 0-.17-.037 0-.07.046-.114.137a.64.64 0 010-.108l-.037.141v-.157c-.084.164-.13 0-.174 0v.074c-.027.053-.044-.05 0-.121-.07-.1-.155.208-.262.154.023-.265-.11.064-.084-.231-.057.067-.07-.054-.127.11v-.047c0-.11-.074-.037-.134.03V7.79c-.044.188-.118.121-.161.312a.38.38 0 01.03-.114c0-.184-.054.08-.08.034-.027-.047 0-.1.02-.134-.074-.225-.279.104-.393-.057-.037 0 0 .204-.064.18 0-.097.054-.19.027-.237-.04.117-.043.09-.074.073a.492.492 0 01.044-.144c0-.084-.097.141-.107-.027a.593.593 0 01-.03.128c-.078.16-.094-.188-.111-.094 0 0-.024.023 0 .047.023.023-.044-.04-.024-.134-.016.05-.036.13-.053.137l.023-.107a.997.997 0 01-.043.1v.07c0-.093-.084.122-.05-.09l-.027-.104c-.03.084-.06.168-.081.135.023-.222-.064-.057-.094-.088v-.077c-.043.104-.104.044-.097.084.007.04-.054-.06-.03-.127-.027.04-.074.03-.104.154v-.191c-.07.268-.067-.11-.118.177a.92.92 0 010-.167c-.057.137-.087.107-.117.077v-.03c-.03-.027-.094.11-.144.117l.03-.221c-.03.027-.067.194-.084.144a.128.128 0 010-.057c-.03.04-.05-.02-.057-.077-.063.15-.077.087-.14.251 0-.197.053-.077.07-.265-.024-.11-.09 0-.148.074 0-.043.02-.074.034-.12a2.858 2.858 0 00-.094.278.652.652 0 01-.1.224c-.035.06-.067.12-.095.182-.073.127-.137.19-.134.335.087-.054.175-.14.138.017l.043-.148c.094-.05-.07.312.027.335v-.053c.02 0 .054-.097.064-.044a.233.233 0 01-.037.094l.114-.191a.759.759 0 01-.054.201c.067 0 .044-.282.108-.204a.268.268 0 01-.044.14c0 .135.06.02.11-.053-.023.134-.046.114-.03.208 0-.074.024-.191.05-.201-.036.134 0 .077.02.114a.42.42 0 01.031-.135c0-.02 0 .037.03.03v-.137c.064-.124.047.08.067.144a.087.087 0 01-.023.047c.023.06.033.178.094.064v.017c.097-.121.017-.232.124-.336.023.034-.09.446 0 .295a.493.493 0 01.13-.318l-.08.258s.054-.067.057-.037v-.06c.034-.225.04.04.09-.094a3.92 3.92 0 00-.13.547c.054-.161.107-.312.148-.272l-.078.228c.057.064.185-.272.269-.463-.04.175-.03.238-.078.386l.068-.027-.047.191c.053-.194.06-.054.097-.312 0 .034 0 .064-.027.054 0-.077.05-.231.077-.215 0 .067-.027.098-.033.168.037-.1 0 .067.043 0v-.11c.037-.145.034 0 .067-.074a.56.56 0 00-.043.238v-.037s.053-.108.05-.02l-.044.2.044-.143a.293.293 0 01-.02.134c.05.134.067-.44.127-.238 0 .077-.033.127-.05.077a.534.534 0 000 .248v.02c.044.01.104.03.154-.1z" fill="#09A6FF"/><path d="M33.533 8.973c-.023 0-.047 0-.06.02-.014.02.06.11.06-.02zm3.913.268a.168.168 0 000-.047c-.01.04-.013.074 0 .047zm-.946.064a.627.627 0 00.048-.171.488.488 0 00-.047.171zm-.368-.135v.032a.055.055 0 000-.031zm-.822.014c.027-.063.05-.057.074-.09-.023.033-.044-.03-.074.09zm2.404-.134l-.03.1.03-.07v-.03zm-.19.044c0-.027-.047.033-.044.09a.335.335 0 01.044-.09zm-.694-.191l-.023.11.027-.084-.004-.026zM10.74 3.702l-.053-.09.01.14.044-.05zm-.529.13a.758.758 0 00.044.423v-.221c.08.14.127.107.15.036l-.046.034c0-.023-.05-.114-.047-.14.117.036.04-.175.187-.048v.017-.124c.027 0 .054.087.06.114 0-.1 0-.201.088-.225-.181-.241-.054.279-.235.04v-.006c-.017.13-.167-.004-.201.1zM7.602 4.926l.02.044c-.003-.02-.006-.038-.02-.044zm1.116.114c0 .027.017.044 0 0zM3.156 7.621l-.054-.043c.037.05.05.057.054.043zm-.068 1.107l.038.049c-.017-.031-.027-.049-.038-.049zm-.249.336a.066.066 0 00-.045 0c.027.02.045.02.045 0zm-.771-.748a.108.108 0 010 .028.045.045 0 000-.028zm1.58.151l.101.117a.812.812 0 00-.1-.117zm-.814.757a.14.14 0 00-.05-.033c.02.023.04.037.05.033zm7.303-5.344a.086.086 0 00.031-.04c-.02-.004-.027.013-.03.04zm-4.5 3.48a.396.396 0 00.027.054.09.09 0 00-.027-.054zm-1.297.976s0 .03.016.05l-.017-.05z" fill="#09A6FF"/><path d="M4.025 8.356c.037.04.063.088.077.14.1.024 0-.15.147-.076l-.07-.047c-.027-.121.034-.188.15-.088v.05c-.03-.13.155.024.112-.073-.044-.097-.057-.09-.118-.127l.027-.171.12.17v-.09c-.056-.064.105 0 0-.154.071.043.075.14.108.218 0-.07.05 0 0-.118l.127.138V7.97c0 .017.02.024.024.04-.05-.15.134.024.034-.23a.14.14 0 00.016.026c-.053-.138.06-.087.098-.07.02-.058-.078-.161-.118-.229.138-.03.094-.016.077-.261.178.16.128.359.285.45a.335.335 0 010-.279c.12.024.234.072.336.14l-.084-.127.03-.114.07.212c0-.05-.026-.155-.04-.232 0-.157.211.258.151.024l.03.04c-.04-.114.034-.104.067-.178l.08.181h-.06c.118.148.047-.067.088-.077 0-.08-.094-.204-.104-.265.02 0 0-.063.05-.02.05.044.117.195.147.272-.07-.191-.046-.175-.023-.282.033.041.056.09.067.14a.335.335 0 00-.043-.15l.08.084c.15.097-.107-.352 0-.352.03.104.067-.064.154.027-.017.047.154.241.195.335.104.02-.087-.215-.05-.288l.093.224c0-.124-.05-.12-.03-.218.02.07.057.04.06.128.088-.02.058-.027.135-.04l-.108-.205c0-.037.067.05.094.084.027.033-.023 0 0 .033.124.161 0-.12.108.024-.044-.06-.104-.144-.081-.171.06.127.104.09.134.144-.064-.077.037-.074-.033-.211.08.077.043.104.08.174-.064-.174.094-.084.067-.188l.02.03c-.02-.117.02-.17 0-.335l.04.127c.094.017-.093-.268-.036-.295.077.171.083-.063.16.135a1.341 1.341 0 00-.063-.336c.08.077.064.262.134.285v-.11l.057.083c-.033-.067 0-.097-.027-.147.06.082.117.167.168.255 0-.05.11.033.084-.077l.03.053c-.077-.218.07-.09-.027-.308l.077.104c.037-.044-.084-.252-.09-.316-.007-.063.023-.053.053-.043 0 .168.114.147.168.214.023 0 .084-.06.05-.174.027.12.09.201.044.235.134.191.054-.087.124-.087l.05.094c.047-.104-.037-.272-.087-.456a.838.838 0 01.117.281c.091.044.135-.08.205-.1a.272.272 0 01.074.177c0-.124.15-.05.08-.281.027.09.054.04.097.07a.558.558 0 01-.04-.097c0-.107.04-.228.124-.178l.017.07c.12-.016-.017-.402.174-.308.044.037.068.184.108.158-.02-.088-.108-.245-.03-.228l.063.14-.033-.157c-.074-.104-.114-.034-.138-.185.114.108-.02-.147.114-.026a.768.768 0 00.077.207c.202.104.104-.22.312-.107 0-.14.077-.201.07-.335.063.123.114.252.152.385.06 0-.07-.335.067-.147-.067-.201.087-.191-.03-.466.026.053.056-.024.073.15.03-.123.211.185.242.168.03-.016-.104-.157-.064-.184.011.015.024.03.037.044v-.07c.043.053.043.14.077.21.087.03.023-.2.084-.251v.05l.077-.023v.016-.12l.033.07v-.09l.037.09c-.047-.14 0-.248 0-.265l.027.037V3.99c.087.07.047.228.097.124l.064.184c.027-.094.08 0 .09-.083-.06-.08-.083-.057-.1-.145.144.178.05-.087.054-.187-.02 0-.037.02 0 .127-.027 0-.054-.087-.074-.09v.117l-.067-.118v.125c-.067-.141-.064 0-.11-.151 0 .08-.085 0-.054.147-.068-.07 0-.12-.04-.12a.617.617 0 01-.477.284l-.017-.07c0 .07.02.13.03.184-.083-.097-.264-.187-.197.04 0 0-.02-.043-.024-.06-.043.054-.218-.047-.285.017.074.238-.188-.08-.07.238v-.07c.067.067.064.228.09.305-.12-.184-.077-.148-.19-.315l.063.053-.077-.157c.107.466-.282-.094-.195.238 0 0-.016-.044-.02-.06-.09-.07 0 .147-.02.217a.6.6 0 01-.06-.207c-.108-.027-.118.254-.265.167.027.124.084.141.097.238a.211.211 0 01-.1-.167c-.172-.165-.165.248-.366.117 0 .15.07.184.023.309-.02-.088-.154-.255-.11-.289l-.037-.087c-.094.027-.225.057-.148.319-.094-.175-.033-.027-.114-.104 0 .026 0 .026.027.033.047.168-.05.02-.06.054v-.034.141a.298.298 0 01-.084-.094l.064.12c-.034.018-.098-.147-.124-.093l.057.087c-.054-.043-.03.107-.104-.023-.017-.027 0 0 0-.027-.141-.164-.074.117-.171.057l.117.191c0 .087-.05-.027-.087-.094-.03 0-.07-.043-.128-.04a.389.389 0 00.054.137l-.07-.023-.03-.12c.087.335-.188.056-.091.335-.057-.04-.04-.128-.074-.155-.15-.08-.077.285-.225.178-.147-.107-.234.124-.405.097l.03.05h-.107c.04.131-.047.108 0 .265a1.076 1.076 0 01-.07-.137c-.031.037-.038.117-.098.057v-.05c-.097 0-.211.073-.198.198-.02.026-.074-.068-.117-.128-.05.024-.047.094-.037.198a.436.436 0 01-.087-.074l.057.138c-.03 0-.064-.101-.101-.124.017.194-.144.107-.191.147l.047.057c0 .06-.087 0-.097-.08-.148-.017-.034.285-.185.335-.157-.215-.08.14-.255-.1 0 .1-.114.02-.063.194-.017-.027-.027-.034-.02-.044-.081-.08-.111.037-.128.134l-.054-.073c.084.177-.043.19.04.369a.282.282 0 01-.043-.111c-.127-.138 0 .107-.064.097-.063-.01-.063-.08-.073-.117-.239-.094-.228.315-.467.305-.046.023.131.16.064.188-.07-.07-.08-.185-.14-.195.04.118.016.104-.028.118-.03-.057-.06-.091-.057-.145-.067-.053 0 .188-.134.08a.406.406 0 01.057.118c.037.181-.234-.047-.187.034 0 0 0 .037.023.043-.023 0-.07 0-.12-.073.02.05.053.127.043.147l-.054-.1c0 .026.03.093.03.11l.054.047c-.077-.06 0 .161-.12-.017l-.105-.047c.03.084.06.171 0 .168-.14-.174-.107.017-.16.027L2.8 7.722c.03.11-.08.128-.04.148a.094.094 0 01-.131-.057c0 .05-.054.09 0 .204l-.158-.114c.134.245-.16 0 0 .228-.053 0-.084-.07-.134-.097.047.144 0 .15-.06.164l-.02-.023c-.054 0 0 .16-.057.214l-.148-.167c0 .047.087.19.03.174a.057.057 0 01-.027-.054c0 .057-.07.04-.124 0 .057.161 0 .138.06.302-.154-.127 0-.104-.147-.228-.124-.037-.117.097-.12.225a.557.557 0 01-.074-.1c.088.24.21.466.365.67.074.127.11.208.242.262-.037-.081-.054-.202.06-.081l-.094-.124c.024-.114.205.245.285.174l-.05-.026c0-.02-.037-.108 0-.081.023.024.04.054.047.087l-.057-.221a.77.77 0 01.114.174c.06-.057-.188-.211-.074-.228.057.044.054.08.077.131.117.074.067-.04.054-.137.084.11.05.117.134.16-.05-.05-.128-.144-.11-.174.073.12.063.044.107.054a.335.335 0 01-.044-.118c0-.026.04 0 .054 0l-.114-.087c-.037-.137.107 0 .174.03 0 .024.02.04.017.05.067.024.167.088.137-.04v.017c0-.167-.16-.167-.147-.335.047 0 .254.372.228.191a.403.403 0 01-.114-.335l.117.245s0-.091.023-.074l-.036-.047c-.138-.181.07 0 .016-.148.082.174.18.339.292.493-.074-.157-.134-.308-.064-.318l.098.22c.1 0-.024-.334-.08-.549.075.107.145.22.207.335l.047-.073.094.17c-.09-.18.02-.09-.134-.298 0 .034.03.057 0 .057-.044-.064-.124-.201-.08-.218.06.037.043.094.09.148-.037-.1.06.037.04-.04l-.084-.078c-.067-.134.034-.033.017-.11.02.08.065.15.127.204 0-.017-.026-.12.034-.057l.104.181-.06-.144a.221.221 0 01.077.114c.147.05-.255-.362-.044-.278.04.067.06.117 0 .097.067.107.114.161.168.181v.02a.151.151 0 00.114-.231z" fill="#09A6FF"/><path d="M3.933 8.564c-.03 0-.054.034-.047.064.007.03.138.04.047-.064zm4.202-2.713a.058.058 0 000 .024v-.024zm.212-.177a.081.081 0 00-.034-.034c.02.034.037.071.034.034zm-1.03.75a.466.466 0 00-.054-.17c.005.06.023.118.054.17zm-.493.175v.031a.07.07 0 000-.031zm-.892.651c-.016-.071 0-.084 0-.131.017.043-.053.006 0 .13zm2.609-1.929l.024.104-.01-.077-.014-.027zm-.195.178c-.023-.02-.033.06 0 .104a.278.278 0 010-.104zm-.912.359l.044.104-.02-.087-.024-.017zm2.502-.007l-.06-.087.034.134.026-.047zm-.416.118a.895.895 0 00.107.412l-.04-.201c.09.137.124.107.131.04l-.034.03c0-.023-.06-.107-.06-.134.1.037 0-.164.148-.044v.017-.117c.032.03.056.068.07.11 0-.097-.02-.19.037-.214-.191-.228 0 .268-.188.037v-.017c-.007.11-.16-.02-.17.08zm-1.985.948l.02.045a.135.135 0 00-.02-.045zm.935.135c.018.048.025.065 0 0zM4.108 9.063l-.05-.05c.036.05.05.05.05.05zm.013 1.007l.035.048c-.018-.024-.028-.048-.035-.048zm-.193.278a.059.059 0 00-.038 0c.024.017.038.017.038 0zm-.705-.802v.028a.083.083 0 000-.028zm1.357.363l.095.124a1.504 1.504 0 00-.094-.124zm-.645.587a.132.132 0 00-.048-.037c.02.024.041.041.048.037zM9.47 6.01a.042.042 0 000-.035s-.004.01 0 .035zM6.184 9.09l.023.054a.117.117 0 00-.023-.054z" fill="#09A6FF"/><path d="M4.886 9.855a.386.386 0 01.077.14c.087.034 0-.14.117-.053l-.05-.053c-.027-.114 0-.171.124-.064l.02.05c-.037-.124.131.044.09-.054-.04-.097-.056-.093-.11-.134V9.53l.117.174V9.62c-.053-.067.091.024 0-.147.064.05.074.144.111.218 0-.067.04 0 0-.108l.117.145v-.151s.017.027.024.043c-.054-.15.117.037 0-.214.004.01.01.018.017.027-.057-.135.043-.074.077-.057 0-.05-.08-.161-.118-.229.115 0 .078 0 .04-.238.165.171.138.352.28.453a.352.352 0 01-.034-.265c.109.038.211.095.301.168l-.08-.128V9.03l.08.208c-.016-.047-.037-.148-.057-.225 0-.147.202.265.131.037l.03.04c-.047-.11 0-.097.037-.16l.084.177-.05-.02c.114.154.033-.057.067-.064 0-.073-.1-.2-.114-.258 0 0 0-.06.04-.017.067.08.119.173.15.272-.076-.184-.056-.168-.046-.268.03.042.054.088.07.137a.45.45 0 00-.05-.144l.074.084c.137.104-.128-.335-.027-.335.034.1.047-.054.13.04 0 .04.155.235.202.335.09.027-.094-.211-.074-.275l.104.218c0-.117-.053-.117-.05-.208.023.067.054.044.067.124.07 0 .044-.02.107-.027l-.114-.204c0-.03.064.054.09.087.028.034-.02 0 0 .034.121.16-.026-.118.091.026-.043-.06-.1-.144-.087-.167.064.127.097.094.13.144-.063-.074.021-.064-.053-.198.077.077.047.1.087.168-.073-.168.07-.074.037-.171l.017.027c-.03-.111 0-.158-.03-.336l.05.124c.08.02-.114-.261-.07-.285.087.171.063-.053.15.141a1.52 1.52 0 00-.093-.335c.08.077.087.251.147.278v-.107l.057.084c-.037-.067 0-.09-.04-.141.067.1.128.168.171.248 0-.044.097.037.06-.067l.034.05c-.094-.208.044-.08-.064-.291l.08.103c.02-.04-.107-.244-.117-.305-.01-.06 0-.047.037-.037.03.158.114.145.168.212.02 0 .064-.054.02-.165.037.118.1.195.067.228.138.188.03-.083.09-.08l.054.094c.027-.097-.063-.258-.13-.436.057.084.102.175.134.271.084.044.104-.07.157-.087a.312.312 0 01.084.175c0-.118.12-.044.03-.269.037.091.05.044.09.07a.712.712 0 01-.046-.093c-.017-.097 0-.215.077-.161l.023.067c.101 0-.07-.382.104-.285.04.034.08.178.111.154-.03-.084-.124-.238-.06-.218l.077.134-.05-.15c-.08-.101-.101-.037-.145-.178.111.104-.04-.144.09-.024.017.065.04.128.068.188.184.107.054-.204.245-.09 0-.135.033-.188 0-.306.07.137.126.281.167.43.05 0-.107-.336.037-.141-.09-.195.04-.181-.1-.443.033.05.043-.023.087.144 0-.114.201.181.225.168.023-.013-.111-.154-.08-.178l.036.044-.023-.067a.98.98 0 01.097.201c.077.03 0-.191.03-.238l.017.05.06-.023v-.114l.04.067c0-.024-.023-.067 0-.084l.044.084c-.06-.134-.05-.232-.027-.248l.027.033-.04-.201c.083.07.073.218.1.12l.084.178c0-.09.064 0 .06-.08-.063-.077-.077-.054-.107-.137.148.17.027-.081 0-.178 0 0-.03.02.017.12-.02 0-.057-.083-.074-.083l.03.107-.077-.107v.117c-.077-.134-.05 0-.117-.144 0 .074-.07 0-.017.137-.07-.067-.027-.114-.057-.117a.376.376 0 01-.335.258l-.024-.067c.02.07.037.124.054.178-.084-.097-.248-.185-.158.033a.171.171 0 01-.03-.06c-.027.05-.184-.047-.231 0 .097.228-.168-.08-.02.225l-.024-.067c.067.067.087.218.12.295-.127-.181-.083-.144-.207-.309l.064.054-.098-.154c.158.446-.248-.101-.124.218l-.026-.057c-.084-.07 0 .14.016.207a.758.758 0 01-.08-.204c-.094-.027-.06.238-.195.15.04.118.09.135.114.229a.275.275 0 01-.107-.164c-.164-.161-.1.228-.285.097.027.14.084.177.064.292-.03-.084-.165-.245-.131-.279L7.49 6.83c-.073.024-.177.044-.08.295-.1-.17-.03-.026-.107-.104 0 .024 0 .027.026.034.06.161-.04.017-.043.05v-.037.135a.413.413 0 01-.084-.094l.07.117c-.023 0-.1-.144-.114-.094l.06.084c-.053-.044 0 .1-.09-.027-.017-.027 0-.017 0-.027-.134-.16-.043.108-.13.047l.12.185c0 .084-.047-.024-.084-.094-.023.017-.067-.044-.11-.044a.67.67 0 00.06.134l-.06-.026-.04-.118c.113.309-.148.044-.03.335-.054-.043-.051-.127-.085-.154-.13-.087-.026.265-.16.151-.135-.114-.182.104-.336.064l.034.05h-.09c.05.128-.024.1.026.252-.024-.044-.064-.101-.077-.134-.017.03 0 .107-.07.046l-.017-.05c-.08 0-.168.05-.145.168 0 .027-.067-.067-.11-.128-.04.017-.03.084 0 .181a.64.64 0 01-.08-.073l.063.134c-.027 0-.067-.104-.097-.128.033.181-.11.088-.144.121l.043.057c0 .06-.07 0-.09-.084-.121-.03 0 .265-.121.295-.151-.22-.054.121-.221-.12 0 .09-.094 0-.034.17-.017-.023-.027-.033-.023-.04-.074-.083-.091.024-.094.114l-.054-.08c.087.178-.02.174.067.335a.278.278 0 01-.047-.107c-.117-.144 0 .1-.047.084-.047-.017-.057-.084-.07-.118-.208-.12-.165.269-.37.229-.036 0 .125.164.071.18-.067-.073-.083-.184-.134-.2.04.117.02.1 0 .11a.392.392 0 01-.06-.144c-.06-.057 0 .174-.107.057a.406.406 0 01.057.117c.043.175-.202-.074-.155 0a.04.04 0 00.024.04c-.02 0-.06 0-.108-.083a.476.476 0 01.047.14l-.053-.097c0 .024.033.09.033.108l.047.05c-.07-.067 0 .147-.1-.034l-.09-.057c.03.084.063.168.023.158-.131-.181-.094 0-.138 0l-.04-.067c.033.107-.057.107-.027.134-.023 0-.087 0-.11-.074 0 .05-.04.077.02.191l-.145-.13c.131.248-.134-.03.024.218-.047-.024-.077-.081-.121-.114.047.14 0 .14-.044.144l-.016-.024c-.047 0 0 .151-.037.195l-.138-.178c0 .04.087.188.037.164-.05-.023-.027-.037-.027-.05 0 .05-.06.023-.107 0 .057.154 0 .127.067.292-.14-.141 0-.1-.14-.235-.111-.047-.098.077-.095.194a.59.59 0 01-.08-.087c.094.238.217.463.365.671a.62.62 0 00.232.272c-.04-.08-.064-.195.043-.067l-.09-.128c0-.097.194.252.258.201l-.044-.03c0-.017-.043-.104 0-.074a.293.293 0 01.05.087l-.07-.21a.832.832 0 01.111.177c.047-.044-.174-.221-.077-.218.034.036.06.08.074.128.104.087.053-.024.037-.115.08.111.05.114.127.168-.047-.057-.12-.15-.107-.178.07.121.057.05.094.067a.335.335 0 01-.07-.117c0-.023.033.017.043 0l-.1-.097c-.044-.13.09.023.147.057.01.014.017.03.02.047.057.03.147.104.11 0 0-.155-.147-.178-.144-.335.04 0 .238.385.205.214a.507.507 0 01-.118-.335l.114.245s0-.084.02-.064l-.036-.05c-.128-.188.06 0 0-.135.082.163.176.32.281.47-.07-.154-.127-.302-.07-.302l.097.221c.084 0-.043-.335-.104-.526.084.154.138.198.198.335l.034-.063.09.174c-.087-.184 0-.084-.13-.299 0 .034.03.057.016.057-.043-.067-.117-.204-.084-.214.054.043.044.09.087.15-.04-.1.054.041.03-.033l-.073-.084c-.067-.13.027-.023 0-.097a.54.54 0 00.124.205v-.017s-.027-.114.027-.047l.1.181-.063-.14c.036.03.062.07.073.117.131.067-.238-.376-.053-.265.04.067.057.114 0 .09a.511.511 0 00.154.191v.02c.06-.023.12-.05.074-.184z" fill="#09A6FF"/><path d="M4.829 10.04c-.024 0-.04.023-.037.053.003.03.107.054.037-.054zm3.428-2.38a.16.16 0 00-.034-.035c.02.038.041.062.034.035zm-.762.663a.759.759 0 00-.068-.165.44.44 0 00.068.165zM7.1 8.46v.031a.048.048 0 000-.031zm-.682.55c-.017-.067 0-.074 0-.12.007.043-.047.003 0 .12zm1.949-1.677l.033.1-.017-.073-.016-.027zm-.138.161c-.02-.017-.017.057.02.1a.302.302 0 01-.02-.1zm-.708.302l.047.1-.027-.083-.02-.017zm.101 1.593l-.054-.09.044.127.01-.037z" fill="#09A6FF"/><path d="M7.377 9.399c.027.133.07.262.128.386l-.054-.192c.077.145.094.124.087.067v.02c0-.02-.054-.11-.057-.134.07.057-.023-.147.087 0v.017l-.023-.107a.55.55 0 01.06.117c-.02-.087-.043-.177 0-.18-.157-.252.04.234-.114-.018V9.36c-.006.097-.114-.057-.114.04zm-1.13.315l.02.045a.28.28 0 00-.02-.045zm.604.382c.017.042.02.056 0 0zm-2.582.661l-.04-.054c.033.054.043.064.04.054zm.205.889l.033.05a.24.24 0 00-.033-.05zm-.07.191a.052.052 0 00-.028-.017c.024.028.031.031.028.017zm-.661-.835v.027a.056.056 0 000-.027zm.702.96l-.042-.041c.021.024.035.041.042.041zM7.35 9.4v-.028c0-.027-.006.028 0 .028zm-1.72 1.897l.023.053a.334.334 0 00-.023-.053z" fill="#09A6FF"/><path d="M4.93 11.636c.03.044.054.09.073.14.064.054-.026-.12.067-.017l-.04-.06c-.04-.107-.02-.147.067-.023l.02.047c-.047-.121.09.07.047-.027a1.53 1.53 0 00-.094-.144l-.04-.141.104.18v-.07c-.047-.073.06.044-.033-.134.042.069.077.142.104.218 0-.06.026.02-.02-.094l.1.155-.033-.131.023.04c-.06-.144.077.064-.027-.184v.027c-.053-.135.02-.054.044-.03a1.072 1.072 0 00-.11-.232c.07.017.05.017 0-.201.127.194.137.335.24.476a.63.63 0 01-.06-.245c.082.066.154.142.215.228l-.067-.137v-.09l.077.207c0-.05-.044-.144-.064-.215-.023-.134.161.289.087.067l.024.044c-.044-.11 0-.08 0-.134l.074.181-.034-.03c.09.168 0-.04.034-.04a2.653 2.653 0 00-.104-.262s0-.05.023 0c.053.09.097.183.13.282a.5.5 0 01-.063-.252.905.905 0 01.06.141.673.673 0 00-.05-.14l.057.097c.1.13-.12-.336-.053-.306.033.1.023-.037.087.07 0 .034.124.256.164.363.06.05-.084-.211-.077-.265l.09.225c-.02-.108-.046-.121-.053-.202.02.067.037.054.053.131h.064l-.094-.211c0-.03.047.064.067.1.02.037 0 0 0 .03.094.178-.026-.113.06.051a.734.734 0 01-.073-.178c.027.06.06.116.1.168-.05-.087 0-.054-.056-.194a.7.7 0 01.073.174c-.063-.171.037-.044 0-.144l.017.03c-.033-.107-.02-.144-.057-.302l.047.127c.05.04-.097-.264-.074-.275.074.178.034-.03.11.168a2.27 2.27 0 00-.093-.312c.06.09.08.248.12.289l-.02-.1.048.093c-.03-.07 0-.087-.04-.14.053.11.097.187.133.27 0-.036.064.061.03-.043l.027.057c-.08-.218.02-.06-.07-.282l.06.114a2.542 2.542 0 00-.104-.305s0-.04.02-.023c.037.15.088.16.128.238 0 0 .034-.034 0-.144.037.117.084.204.067.221.107.208 0-.064.05-.043l.044.097a1.766 1.766 0 00-.127-.43c.043.092.08.186.11.282.057.06.057-.037.09-.033a.496.496 0 01.071.177c0-.107.074 0 0-.231.03.087.037.05.064.087a.415.415 0 01-.037-.097c-.024-.094-.024-.194.03-.124l.024.067c.06 0-.088-.366.033-.231.03.043.07.18.087.167-.026-.084-.104-.245-.06-.211l.06.144-.047-.15c-.06-.115-.067-.061-.11-.202.08.124-.04-.137.053 0 0 .017.044.128.064.188.128.14 0-.171.144-.02-.023-.121 0-.161-.03-.272.064.141.12.265.161.382.03 0-.107-.315 0-.117-.08-.194 0-.15-.117-.422.027.053.027 0 .073.154 0-.104.148.214.161.208.014-.007-.087-.168-.073-.181l.03.047-.024-.064c.033.066.062.135.088.204.053.047-.03-.174 0-.204l.016.047h.034v.017l-.02-.108.03.07c0-.023-.024-.066-.017-.076l.037.083c-.057-.134-.064-.22-.05-.228l.023.037-.053-.188c.063.084.077.215.08.131l.077.181c0-.08.04 0 .027-.057-.013-.057-.057-.067-.084-.147.118.188 0-.067 0-.158 0 0-.017 0 .027.114 0 0-.047-.09-.057-.094l.034.104-.064-.117.023.107c-.067-.14-.03 0-.094-.16 0 .066-.043-.028 0 .12-.053-.08-.033-.11-.053-.12 0 .147-.087.157-.181.14l-.024-.067c.024.067.04.124.057.174-.067-.107-.178-.231-.097 0L6.92 9.54c0 .037-.12-.09-.144-.054.087.231-.114-.117 0 .194l-.023-.067c.045.096.082.194.11.296-.1-.195-.07-.151-.164-.336l.044.064-.077-.164c.15.442-.165-.158-.054.16l-.024-.056c-.057-.088.024.127.037.19a1.623 1.623 0 01-.077-.204c-.057-.05 0 .198-.104.08.037.118.07.148.098.239a.47.47 0 01-.084-.175c-.121-.194-.04.175-.168 0 .035.09.057.186.067.282-.027-.084-.127-.268-.11-.288l-.034-.088c-.047 0-.107 0-.02.245-.08-.18-.024-.033-.08-.124 0 .024 0 .027.02.037.056.161-.024 0-.02.034V9.77l.02.124c0-.023-.034-.054-.06-.107l.056.124s-.094-.144-.094-.104l.047.094c-.037-.054 0 .084-.06-.05v-.024c-.1-.184-.017.084-.08 0l.097.201c0 .074-.03-.037-.064-.107 0 0-.044-.057-.074-.07.014.046.031.092.05.137l-.04-.04-.037-.118c.104.309-.087 0 0 .282-.037-.054-.043-.127-.067-.16-.094-.115 0 .23-.087.093s-.107.04-.205-.034l.027.057-.057-.026c.044.124 0 .08.044.231-.02-.044-.054-.11-.064-.144 0 .027 0 .094-.043.023l-.017-.047c-.05-.016-.1 0-.074.114 0 .017-.05-.08-.084-.144-.023 0 0 .064 0 .161a.82.82 0 01-.06-.09l.053.137s-.053-.107-.077-.14c.044.174-.06.053-.08.073l.037.064c0 .053-.047-.027-.07-.1-.081-.058.033.237-.044.234-.124-.235-.02.097-.161-.164 0 .08-.06-.017 0 .147 0-.027-.024-.037-.02-.043-.06-.094-.057 0-.05.077l-.04-.078c.076.178 0 .151.09.336a.496.496 0 01-.047-.107c-.098-.155 0 .09-.02.063a.828.828 0 01-.064-.12c-.154-.155-.07.2-.211.114-.027 0 .104.177.07.177-.054-.08-.084-.18-.12-.208.046.114.03.094 0 .094a.605.605 0 01-.064-.137c-.05-.067.033.157-.064.027.022.036.04.074.057.114.057.164-.151-.111-.104-.027.002.017.01.032.023.043 0 0-.043 0-.087-.097.023.043.04.088.054.134l-.054-.1c0 .023.04.09.04.104l.044.053c-.06-.074.034.134-.077-.05l-.074-.07c.037.08.074.16.044.144-.124-.188-.064 0-.094-.027l-.04-.067c.04.104-.02.084 0 .114s-.064-.027-.094-.087c0 .06.018.12.05.17L3.87 10.8c.137.242-.1-.05.057.195-.037-.03-.07-.087-.107-.12.06.13.03.12 0 .113v-.023c-.03 0 .03.127 0 .157l-.134-.177c0 .033.1.177.06.147a.24.24 0 01-.03-.047c0 .044-.034 0-.077-.027.073.145.026.108.11.259-.13-.148-.03-.087-.15-.225-.091-.067-.054.044-.024.144a1.104 1.104 0 01-.074-.1c.121.218.257.429.406.63.06.102.136.195.225.275-.047-.074-.088-.171 0-.044l-.091-.127c0-.077.194.255.225.225l-.037-.034s-.054-.097 0-.06c.022.024.04.053.053.084l-.093-.192c.042.055.081.112.117.171.02-.023-.174-.224-.104-.197.032.036.06.077.08.12.091.098.03 0 0-.087.08.11.06.107.124.168a.968.968 0 01-.114-.171c.078.117.05.053.081.077a.858.858 0 01-.077-.114c0-.024.03.02.03 0l-.09-.104c-.058-.117.07.04.113.08.044.04.024.037.024.047 0 .01.124.121.074 0-.044-.134-.141-.184-.171-.315.03 0 .245.38.184.225a.804.804 0 01-.15-.309l.13.238s-.023-.073 0-.053l-.034-.05c-.127-.192.04 0-.023-.111.15.271.12.221.285.483-.08-.151-.15-.289-.11-.275l.107.211c.057.027-.098-.292-.175-.476.084.154.128.201.198.335v-.05l.094.17a1.516 1.516 0 00-.144-.287c.017.033.03.056.02.053-.037-.067-.117-.204-.097-.204a.98.98 0 01.087.147c-.044-.094.044.05 0-.02l-.064-.09c-.07-.128 0 0-.017-.084.033.073.073.143.121.207v-.016s-.043-.107 0-.037l.1.18-.066-.133a.474.474 0 01.07.117c.094.087-.228-.382-.087-.245.037.07.06.118.023.084a.777.777 0 00.138.201v.02c.084.014.117.007.064-.123z" fill="#09A6FF"/><path d="M4.926 11.78s-.02 0 0 .04.067.074 0-.04zm1.854-1.2a.162.162 0 00-.027-.04c.017.036.03.064.027.04zm-.408.388a1.4 1.4 0 00-.057-.168.62.62 0 00.057.168zm-.239.014v.03a.083.083 0 000-.03zm-.365.308a.379.379 0 010-.107c-.006.037-.05-.017 0 .107zm1.047-.975l.033.1-.02-.074-.013-.026zm-.072.107c0-.024 0 .047.024.093a.455.455 0 01-.024-.093zm-.415.077l.04.104-.027-.08-.013-.024z" fill="#09A6FF"/></svg>