<svg width="40" height="40" fill="none" xmlns="http://www.w3.org/2000/svg"><path d="M28.7 3.333H14.933c-.666 0-1.3.234-1.816.634l-3.65 2.916a2.903 2.903 0 000 4.55l3.65 2.917a2.904 2.904 0 001.816.633H28.7a2.91 2.91 0 002.917-2.916V6.233c0-1.6-1.3-2.9-2.917-2.9zM11.333 20H25.1c.666 0 1.3.233 1.817.633l3.65 2.917a2.903 2.903 0 010 4.55l-3.65 2.917a2.903 2.903 0 01-1.817.633H11.333a2.91 2.91 0 01-2.917-2.917V22.9c0-1.6 1.3-2.9 2.917-2.9zM20 20v-5m0 21.667v-5m-5 5h10" stroke="#FA4852" stroke-width="2" stroke-linecap="round" stroke-linejoin="round"/></svg>