<svg width="17" height="16" fill="none" xmlns="http://www.w3.org/2000/svg"><path d="M11.225 5.299l4.19.615a.955.955 0 01.76.645.87.87 0 01-.234.937l-3.046 3.018.732 4.277a.92.92 0 01-.38.908c-.294.235-.675.235-.997.088L8.5 13.766l-3.78 2.021c-.292.147-.702.147-.966-.088a.92.92 0 01-.38-.908l.702-4.277L1.03 7.496a.87.87 0 01-.234-.937.955.955 0 01.762-.645L5.775 5.3 7.65 1.402A.913.913 0 018.5.875a.9.9 0 01.82.527L11.225 5.3z" fill="#FFA51E"/><path d="M11.225 5.299l-.45.22.116.236.261.039.073-.495zm4.19.615l.081-.493-.01-.002-.072.495zm.76.645l-.474.158.005.012.47-.17zm-.234.937l-.332-.374-.01.01-.01.009.352.355zm-3.046 3.018l-.352-.356-.185.184.044.256.493-.084zm.732 4.277l.493-.082v-.002l-.493.084zm-.38.908l-.288-.41-.013.01-.012.01.312.39zm-.997.088l-.237.44.015.008.015.007.207-.455zM8.5 13.766l.237-.44-.236-.128-.237.127.236.44zm-3.78 2.021l.224.447.013-.006-.236-.44zm-.966-.088l.332-.373-.022-.02-.023-.016-.287.41zm-.38-.908l.492.082-.493-.082zm.702-4.277l.494.08.041-.254-.183-.182-.352.356zM1.03 7.496l.352-.355-.01-.01-.01-.009-.332.374zM.795 6.56l.47.17.004-.012-.474-.158zm.762-.645l-.073-.495-.01.002.083.493zM5.775 5.3l.073.495.263-.039.115-.24-.45-.216zM7.65 1.402l.451.217.005-.01-.456-.207zm1.67 0l-.455.207.006.013.45-.22zm1.832 4.392l4.19.615.145-.99-4.19-.615-.145.99zm4.18.613c.178.03.314.143.37.31l.948-.317a1.455 1.455 0 00-1.154-.98l-.164.987zm.374.322a.37.37 0 01-.097.393l.665.748a1.37 1.37 0 00.372-1.482l-.94.341zm-.116.412l-3.047 3.017.703.71 3.047-3.017-.703-.71zm-3.188 3.457l.732 4.277.986-.168-.733-4.278-.985.17zm.732 4.275a.42.42 0 01-.175.417l.574.819a1.42 1.42 0 00.587-1.4l-.986.164zm-.2.436c-.111.089-.281.112-.477.023l-.414.91c.449.204 1.04.228 1.515-.152l-.624-.781zm-.447.038l-3.75-2.021-.474.88 3.75 2.021.474-.88zm-4.223-2.022l-3.78 2.021.473.882 3.779-2.022-.472-.881zM4.497 15.34c-.161.08-.339.05-.41-.014l-.665.747c.455.404 1.098.374 1.522.161l-.447-.894zm-.456-.05a.42.42 0 01-.175-.417l-.986-.164a1.42 1.42 0 00.587 1.4l.574-.82zm-.175-.418l.704-4.277-.987-.162-.703 4.277.986.162zm.562-4.714L1.381 7.141l-.704.71 3.047 3.018.704-.71zM1.361 7.122a.37.37 0 01-.096-.393l-.94-.341A1.37 1.37 0 00.697 7.87l.664-.748zm-.092-.405a.455.455 0 01.37-.31l-.165-.986a1.455 1.455 0 00-1.153.98l.948.316zm.36-.308l4.219-.615-.145-.99-4.219.615.145.99zm4.597-.893L8.1 1.619l-.9-.433-1.875 3.896.9.434zm1.88-3.907c.06-.134.198-.234.394-.234v-1c-.566 0-1.073.31-1.305.82l.91.414zm.394-.234c.157 0 .3.092.365.234l.91-.414A1.402 1.402 0 008.5.375v1zm.371.247l1.904 3.896.899-.439L9.77 1.183l-.899.439z" fill="#122428"/></svg>