<svg width="31" height="31" fill="none" xmlns="http://www.w3.org/2000/svg"><path d="M4.875 13.022a1.641 1.641 0 001.62-1.62 1.683 1.683 0 00-1.62-1.672 1.635 1.635 0 00-1.636 1.62 1.683 1.683 0 001.636 1.672zm0-1.986a.313.313 0 110 .627.305.305 0 01-.314-.313.34.34 0 01.314-.314zM1.604 24.099a1.62 1.62 0 101.636 1.62 1.635 1.635 0 00-1.636-1.62zm0 1.985a.313.313 0 11.319-.313.34.34 0 01-.319.313zm27.39-11.129A1.985 1.985 0 1031 16.941a2.033 2.033 0 00-2.006-1.986zm0 2.613a.68.68 0 11.684-.68.737.737 0 01-.684.68zM22.692 5.184a2.3 2.3 0 10-2.32-2.299 2.33 2.33 0 002.32 2.3zm0-3.291a.998.998 0 011.045.992 1.003 1.003 0 11-1.045-.992zm-14.175 20.9a.695.695 0 00.69.679h2.795a3.035 3.035 0 002.853 1.985 2.89 2.89 0 002.743-1.985h2.795a.695.695 0 00.685-.68v-1.306h4.645a.695.695 0 00.684-.679.595.595 0 00-.157-.418l-5.125-7.001v-1.672a2.243 2.243 0 00-2.268-2.247 3.087 3.087 0 00-1.003.209V2.833a2.958 2.958 0 00-5.91 0v6.845a2.163 2.163 0 00-1.003-.21 2.237 2.237 0 00-2.268 2.248v1.672l-5.172 7.001a.659.659 0 00.522 1.045h4.645v1.359h-.151zm3.27-.627H9.84v-.94h1.949v.94zm4.635-2.247H13.11v-6.793a2.963 2.963 0 003.324 0l-.01 6.793zm-1.625-7.576a1.62 1.62 0 111.625-1.62 1.635 1.635 0 01-1.625 1.62zm1.625-4.076a2.962 2.962 0 00-3.323 0V4.82h3.323v3.448zM14.855 24.1a1.73 1.73 0 01-1.74-1.62v-1.202h3.307v1.307a1.567 1.567 0 01-1.567 1.515zm4.906-1.933h-2.006v-.94h1.948v.94h.058zm4.588-1.986h-3.324v-4.546l3.324 4.546zm-6.542-8.464a.95.95 0 011.896 0v8.15h-1.948l.052-8.15zm-4.645-8.83a1.635 1.635 0 113.27 0v.679H13.11v-.68h.052zm-3.323 8.882a.951.951 0 011.896 0l.053 8.203h-1.95v-8.203zm-1.322 3.866v4.546H5.194l3.323-4.546z" fill="#473BEF"/><path d="M24.782 27.86a2.613 2.613 0 00-4.645-1.514 2.69 2.69 0 00-3.48.47 2.66 2.66 0 00-3.328.366 2.199 2.199 0 00-1.897-.157 2.64 2.64 0 00-4.592.418 2.138 2.138 0 00-2.691 2.038.69.69 0 001.374 0 .826.826 0 01.841-.836.61.61 0 01.523.209.669.669 0 00.684.104.8.8 0 00.423-.575 1.364 1.364 0 011.322-1.254 1.296 1.296 0 011.265.94.664.664 0 001.107.262.836.836 0 011.27.105.627.627 0 001.108-.105 1.342 1.342 0 012.267-.209.68.68 0 001.134-.157 1.322 1.322 0 012.325-.313.679.679 0 001.16-.157 1.364 1.364 0 011.265-.888 1.333 1.333 0 011.264 1.724.627.627 0 00.162.68.669.669 0 00.685.104.843.843 0 011.16.731.69.69 0 001.374 0 2.398 2.398 0 00-2.08-1.985z" fill="#473BEF"/></svg>