<svg width="55" height="56" fill="none" xmlns="http://www.w3.org/2000/svg"><path d="M37.217 52.741c-.986 0-2.223-.298-3.758-1.214l-5.134-3.048c-.39-.23-1.26-.23-1.65 0l-5.133 3.048c-3.254 1.925-5.225 1.123-6.096.48-.87-.64-2.246-2.29-1.398-5.957l1.215-5.294c.091-.413-.138-1.192-.436-1.513l-4.262-4.262c-2.292-2.292-2.108-4.286-1.788-5.294.321-1.008 1.33-2.727 4.515-3.277l5.477-.917c.39-.069 1.008-.527 1.169-.87l3.025-6.05c1.49-2.957 3.46-3.415 4.514-3.415 1.055 0 3.025.435 4.515 3.414l3.025 6.05c.183.344.802.802 1.169.871l5.477.917c3.185.527 4.194 2.269 4.514 3.277.321 1.008.505 3.002-1.787 5.294l-4.263 4.262c-.297.298-.527 1.1-.435 1.513l1.215 5.27c.848 3.69-.505 5.317-1.398 5.959-.413.367-1.192.756-2.292.756zm-9.717-7.86c.917 0 1.834.206 2.567.641L35.2 48.57c1.352.802 2.154.802 2.315.665.183-.138.412-.894.069-2.406l-1.215-5.271c-.367-1.559.23-3.575 1.352-4.698l4.263-4.263c.848-.848 1.03-1.512.94-1.81-.092-.298-.62-.733-1.811-.917l-5.477-.916c-1.467-.252-3.025-1.398-3.69-2.727l-3.025-6.05c-.527-1.032-1.1-1.513-1.444-1.513-.343 0-.916.458-1.443 1.513l-3.025 6.05c-.665 1.329-2.223 2.475-3.69 2.727l-5.477.916c-1.192.207-1.719.62-1.81.917-.092.298.091.963.94 1.81l4.262 4.263c1.122 1.123 1.718 3.162 1.352 4.698l-1.215 5.294c-.344 1.535-.114 2.291.069 2.406.183.137.985.137 2.314-.665l5.134-3.048a5.398 5.398 0 012.612-.664zM13.75 23.133c-.94 0-1.719-.78-1.719-1.719V5.372c0-.94.78-1.718 1.719-1.718.94 0 1.719.779 1.719 1.718v16.042c0 .94-.78 1.719-1.719 1.719zm27.5 0c-.94 0-1.719-.78-1.719-1.719V5.372c0-.94.78-1.718 1.719-1.718.94 0 1.719.779 1.719 1.718v16.042c0 .94-.78 1.719-1.719 1.719zM27.5 11.675c-.94 0-1.719-.78-1.719-1.72V5.373c0-.94.78-1.718 1.719-1.718.94 0 1.719.779 1.719 1.718v4.584c0 .94-.78 1.719-1.719 1.719z" fill="#fff"/></svg>