<svg width="35" height="35" fill="none" xmlns="http://www.w3.org/2000/svg"><path d="M23.946 11.594c3.558 3.558 3.558 9.333 0 12.891-3.558 3.559-9.333 3.559-12.892 0-3.558-3.558-3.558-9.333 0-12.891 3.559-3.559 9.334-3.559 12.892 0zM12.031 31.558a14.423 14.423 0 01-7.16-6.212 14.424 14.424 0 01-1.823-9.115M8.53 6.533a14.49 14.49 0 018.97-3.091c3.31 0 6.358 1.123 8.808 2.99m-3.339 25.126a14.423 14.423 0 007.16-6.212 14.424 14.424 0 001.823-9.115" stroke="#fff" stroke-width="2" stroke-linecap="round" stroke-linejoin="round"/></svg>