<svg width="151" height="114" fill="none" xmlns="http://www.w3.org/2000/svg"><path d="M1.27 112.048c20.538 4.167 44.053-2.696 61.219-14.077 16.43-10.884 34.109-30.951 28.35-52.31-2.097-7.77-8.823-14.248-17.114-10.457-7.702 3.526-9.987 12.51-6.187 19.81 10.268 19.682 39.791 10.371 53.833.728a68.964 68.964 0 0021.453-23.764c4.775-8.788 8.814-20.032 7.333-30.138-.214-1.446-2.652-1.42-2.9 0-1.301 7.59-1.934 14.898-4.887 22.129a64.762 64.762 0 01-13.28 20.178C117.965 55.707 99.721 65.71 83.172 62.21c-8.771-1.806-19.648-12.836-11.33-21.487 3.38-3.517 8.78-4.45 12.357-.702 3.26 3.423 4.278 8.89 4.278 13.426.171 18.475-15.172 34.229-29.745 43.47a88.69 88.69 0 01-26.818 11.322c-10.157 2.439-20.058 2.405-30.404 2.019a.921.921 0 00-.872.794.915.915 0 00.633.995z" fill="#fff"/></svg>