<svg width="55" height="56" fill="none" xmlns="http://www.w3.org/2000/svg"><path d="M37.308 51.435H28.6c-1.283 0-4.08-.39-5.569-1.879l-6.944-5.362 2.109-2.728 7.104 5.5c.573.55 2.017 1.009 3.3 1.009h8.708c2.063 0 4.286-1.65 4.744-3.507l5.546-16.843c.367-1.009.298-1.925-.184-2.59-.504-.71-1.42-1.123-2.543-1.123h-9.167a4.013 4.013 0 01-3.048-1.375c-.779-.893-1.123-2.085-.94-3.323l1.146-7.356c.275-1.283-.595-2.727-1.833-3.14-1.123-.412-2.567.184-3.07.917l-9.397 13.98-2.841-1.903 9.396-13.979c1.443-2.154 4.606-3.185 7.08-2.246 2.865.94 4.699 4.102 4.057 7.036l-1.123 7.218c-.023.16-.023.39.138.573a.64.64 0 00.458.184h9.167c2.245 0 4.193.94 5.34 2.566 1.122 1.582 1.351 3.667.618 5.684L45.375 45.43c-.848 3.323-4.377 6.004-8.067 6.004z" fill="#fff"/><path d="M12.33 48.914h-2.292c-4.24 0-6.302-1.994-6.302-6.073V20.383c0-4.08 2.062-6.073 6.302-6.073h2.291c4.24 0 6.302 1.994 6.302 6.073v22.458c0 4.08-2.062 6.073-6.302 6.073zm-2.292-31.166c-2.498 0-2.865.595-2.865 2.635v22.458c0 2.04.367 2.636 2.865 2.636h2.291c2.498 0 2.865-.596 2.865-2.636V20.383c0-2.04-.367-2.635-2.865-2.635h-2.291z" fill="#fff"/></svg>