<svg width="72" height="72" fill="none" xmlns="http://www.w3.org/2000/svg"><path d="M56.19 44.01L43.74 56.46c-.48.48-.93 1.41-1.05 2.07L42 63.3c-.24 1.71.96 2.94 2.67 2.67l4.77-.69c.66-.09 1.59-.57 2.07-1.05l12.45-12.45c2.13-2.13 3.15-4.65 0-7.8-3.12-3.12-5.61-2.13-7.77.03z" fill="#FFBA0A"/><path d="M54.42 45.78c1.05 3.78 4.02 6.72 7.8 7.8l-7.8-7.8z" fill="#FFBA0A"/><path opacity=".2" d="M6.09 43.89c0 .09-.06.21-.06.3 2.76 5.52 7.26 10.05 12.78 12.78.09 0 .21-.06.3-.06-1.02-3.48-1.8-7.05-2.37-10.62-3.6-.6-7.17-1.38-10.65-2.4zm51.12-24.6c-2.82-5.91-7.59-10.68-13.47-13.47 1.08 3.57 1.98 7.23 2.58 10.89 3.66.6 7.32 1.47 10.89 2.58zm-51.42 0c3.6-1.08 7.26-1.98 10.92-2.58.6-3.57 1.35-7.11 2.37-10.59-.09 0-.21-.06-.3-.06-5.64 2.79-10.23 7.5-12.99 13.23zm35.67-3.21c-.72-3.9-1.62-7.8-2.91-11.58-.06-.21-.06-.39-.09-.63-2.22-.54-4.56-.9-6.96-.9-2.43 0-4.74.33-6.99.9-.03.21 0 .39-.06.63-1.26 3.78-2.19 7.68-2.91 11.58 6.63-.72 13.29-.72 19.92 0zm-25.38 5.46c-3.93.72-7.8 1.62-11.58 2.91-.21.06-.39.06-.63.09-.54 2.22-.9 4.56-.9 6.96 0 2.43.33 4.74.9 6.99.21.03.39 0 .63.06 3.78 1.26 7.65 2.19 11.58 2.91-.72-6.63-.72-13.29 0-19.92zm43.02 3c-.21 0-.39-.03-.63-.09-3.78-1.26-7.68-2.19-11.58-2.91.75 6.63.75 13.29 0 19.89 3.9-.72 7.8-1.62 11.58-2.91.21-.06.39-.03.63-.06.54-2.25.9-4.56.9-6.99 0-2.37-.33-4.68-.9-6.93zM21.54 46.92c.72 3.93 1.62 7.8 2.91 11.58.06.21.03.39.06.63 2.25.54 4.56.9 6.99.9 2.4 0 4.74-.33 6.96-.9.03-.21.03-.39.09-.63 1.26-3.78 2.19-7.65 2.91-11.58-3.3.36-6.63.63-9.96.63-3.33-.03-6.66-.27-9.96-.63zm-.69-26.07c-.9 7.08-.9 14.22 0 21.33 7.08.9 14.22.9 21.33 0 .9-7.08.9-14.22 0-21.33-7.11-.9-14.25-.9-21.33 0z" fill="#EEB72B"/></svg>