<svg width="72" height="72" fill="none" xmlns="http://www.w3.org/2000/svg"><path opacity=".1" d="M25.5 56.91H24c-12 0-18-3-18-18v-15c0-12 6-18 18-18h24c12 0 18 6 18 18v15c0 12-6 18-18 18h-1.5c-.93 0-1.83.45-2.4 1.2l-4.5 6c-1.98 2.64-5.22 2.64-7.2 0l-4.5-6c-.48-.66-1.56-1.2-2.4-1.2z" fill="#BF71FC"/><path d="M24 40.35c-.57 0-1.14-.21-1.59-.66l-6-6c-.87-.87-.87-2.31 0-3.18l6-6c.87-.87 2.31-.87 3.18 0 .87.87.87 2.31 0 3.18l-4.41 4.41 4.41 4.41c.87.87.87 2.31 0 3.18-.45.45-1.02.66-1.59.66zm24 0c-.57 0-1.14-.21-1.59-.66-.87-.87-.87-2.31 0-3.18l4.41-4.41-4.41-4.41c-.87-.87-.87-2.31 0-3.18.87-.87 2.31-.87 3.18 0l6 6c.87.87.87 2.31 0 3.18l-6 6c-.45.45-1.02.66-1.59.66zm-15 .99c-.3 0-.6-.06-.9-.18a2.235 2.235 0 01-1.17-2.97l6-14.01c.48-1.14 1.8-1.68 2.97-1.17 1.14.48 1.68 1.8 1.17 2.97l-6 14.01c-.36.84-1.2 1.35-2.07 1.35z" fill="#8F0EF3"/></svg>