<svg width="289" height="293" fill="none" xmlns="http://www.w3.org/2000/svg"><g filter="url(#filter0_d_0_1335)"><path d="M50 62.538C50 55.889 55.39 50.5 62.038 50.5H226.35c6.648 0 12.038 5.39 12.038 12.038v167.924c0 6.649-5.39 12.038-12.038 12.038H62.038C55.389 242.5 50 237.111 50 230.462V62.538z" fill="#fff"/></g><path d="M187.145 212.016a6.018 6.018 0 016.018-6.019h12.038a6.02 6.02 0 010 12.038h-12.038a6.018 6.018 0 01-6.018-6.019z" fill="#F4F4F4"/><path d="M187.145 212.016a6.018 6.018 0 116.018 6.019 6.018 6.018 0 01-6.018-6.019z" fill="#DBDBDB"/><path d="M95.395 216.831v-9.269h3.244c.724 0 1.324.124 1.801.371.477.238.83.569 1.059.993.239.415.358.887.358 1.417 0 .503-.115.967-.344 1.39-.221.415-.57.746-1.047.993-.476.248-1.085.371-1.827.371H96.8v3.734h-1.404zm1.404-4.886h1.774c.662 0 1.134-.141 1.417-.424.291-.291.437-.684.437-1.178 0-.512-.146-.909-.437-1.192-.283-.291-.755-.437-1.417-.437h-1.774v3.231zm7.187-2.926a.951.951 0 01-.662-.239.843.843 0 01-.252-.622c0-.247.084-.45.252-.609a.921.921 0 01.662-.252c.265 0 .481.084.649.252a.784.784 0 01.264.609.824.824 0 01-.264.622.906.906 0 01-.649.239zm-.702 7.812v-6.568h1.403v6.568h-1.403zm3.256 0v-6.568h1.245l.106 1.152a2.26 2.26 0 01.887-.953 2.602 2.602 0 011.364-.357c.794 0 1.417.247 1.867.741.459.494.689 1.232.689 2.211v3.774h-1.391v-3.628c0-1.271-.521-1.907-1.562-1.907-.521 0-.954.186-1.298.556-.335.371-.503.901-.503 1.589v3.39h-1.404zm10.565 0c-.645 0-1.157-.154-1.536-.463-.38-.318-.569-.879-.569-1.682v-3.244h-1.126v-1.179H115l.172-1.668h1.231v1.668h1.854v1.179h-1.854v3.244c0 .362.075.614.225.755.159.132.428.198.808.198h.755v1.192h-1.086zm5.503.159c-.644 0-1.218-.141-1.721-.424a3.12 3.12 0 01-1.166-1.205c-.282-.512-.423-1.107-.423-1.787 0-.689.136-1.293.41-1.814a3.098 3.098 0 011.165-1.218c.504-.292 1.086-.437 1.748-.437.645 0 1.205.145 1.682.437.477.282.847.662 1.112 1.138a3.19 3.19 0 01.397 1.576c0 .088-.004.185-.013.291 0 .097-.004.208-.013.331h-5.111c.044.636.251 1.121.622 1.457.38.327.817.49 1.311.49.397 0 .728-.088.993-.265.274-.185.477-.433.609-.742h1.404a2.975 2.975 0 01-1.059 1.55c-.521.415-1.17.622-1.947.622zm0-5.733a1.97 1.97 0 00-1.245.423c-.362.274-.582.689-.662 1.245h3.708c-.027-.512-.208-.918-.543-1.218-.335-.3-.755-.45-1.258-.45zm4.661 5.574v-6.568h1.258l.119 1.245c.229-.432.547-.772.953-1.019.415-.256.914-.384 1.497-.384v1.469h-.384c-.389 0-.738.067-1.047.199-.3.124-.542.34-.728.649-.176.3-.265.719-.265 1.258v3.151h-1.403zm7.921.159c-.644 0-1.218-.141-1.721-.424a3.12 3.12 0 01-1.166-1.205c-.282-.512-.423-1.107-.423-1.787 0-.689.136-1.293.41-1.814a3.098 3.098 0 011.165-1.218c.503-.292 1.086-.437 1.748-.437.645 0 1.205.145 1.682.437a3 3 0 011.112 1.138 3.19 3.19 0 01.397 1.576c0 .088-.004.185-.013.291 0 .097-.004.208-.013.331h-5.111c.044.636.251 1.121.622 1.457.38.327.817.49 1.311.49.397 0 .728-.088.993-.265.274-.185.477-.433.609-.742h1.404a2.97 2.97 0 01-1.06 1.55c-.52.415-1.169.622-1.946.622zm0-5.733a1.97 1.97 0 00-1.245.423c-.362.274-.582.689-.662 1.245h3.708c-.027-.512-.208-.918-.543-1.218-.336-.3-.755-.45-1.258-.45zm7.282 5.733c-.829 0-1.513-.203-2.052-.609a2.286 2.286 0 01-.927-1.615h1.417c.071.3.238.56.503.781.265.212.614.318 1.046.318.424 0 .733-.089.927-.265.194-.177.291-.38.291-.609 0-.336-.136-.561-.41-.676-.265-.123-.636-.234-1.112-.331a8.61 8.61 0 01-1.113-.318 2.545 2.545 0 01-.913-.556c-.239-.247-.358-.578-.358-.993 0-.574.221-1.05.662-1.43.442-.388 1.06-.582 1.854-.582.733 0 1.324.176 1.774.529.459.353.729.852.808 1.496h-1.35a.968.968 0 00-.398-.662c-.212-.158-.498-.238-.86-.238-.353 0-.627.075-.821.225a.656.656 0 00-.292.556c0 .23.133.411.398.543.273.133.631.252 1.072.358.442.097.848.212 1.218.344.38.124.684.309.914.556.229.247.344.609.344 1.086.009.6-.225 1.099-.702 1.496-.467.397-1.107.596-1.92.596zm6.663-.159c-.644 0-1.156-.154-1.536-.463-.38-.318-.569-.879-.569-1.682v-3.244h-1.126v-1.179h1.126l.172-1.668h1.231v1.668h1.854v1.179h-1.854v3.244c0 .362.075.614.225.755.159.132.429.198.808.198h.755v1.192h-1.086z" fill="#474B5B"/><path d="M88.661 212.317a5.83 5.83 0 01-5.83 5.831c-.612 0-1.2-.071-1.74-.259.235-.376.588-1.011.729-1.528.07-.259.352-1.387.352-1.387.189.376.753.682 1.34.682 1.764 0 3.034-1.623 3.034-3.621 0-1.928-1.576-3.386-3.598-3.386-2.515 0-3.855 1.693-3.855 3.527 0 .87.446 1.928 1.175 2.281.118.047.188.023.212-.094 0-.071.117-.471.164-.659 0-.047 0-.117-.047-.164-.235-.282-.423-.823-.423-1.34 0-1.27.964-2.516 2.633-2.516 1.41 0 2.422.964 2.422 2.374 0 1.576-.8 2.657-1.834 2.657-.564 0-.987-.47-.87-1.034.165-.706.494-1.458.494-1.952 0-.446-.235-.823-.729-.823-.588 0-1.058.612-1.058 1.411 0 .517.165.87.165.87s-.565 2.445-.682 2.892c-.118.517-.07 1.222-.024 1.669A5.803 5.803 0 0177 212.317a5.83 5.83 0 015.83-5.831 5.83 5.83 0 015.831 5.831z" fill="#E60023"/><path d="M186.815 185.533a6.018 6.018 0 016.019-6.018h12.038a6.018 6.018 0 110 12.037h-12.038a6.02 6.02 0 01-6.019-6.019z" fill="#F4F4F4"/><path d="M186.815 185.533a6.018 6.018 0 016.019-6.018 6.018 6.018 0 11-6.019 6.018z" fill="#DBDBDB"/><path d="M97.423 190.349v-3.417l-3.072-5.852h1.589l2.184 4.475 2.172-4.475h1.576l-3.046 5.852v3.417h-1.403zm7.463.158a3.411 3.411 0 01-1.695-.423 3.222 3.222 0 01-1.178-1.205c-.291-.521-.437-1.126-.437-1.814 0-.689.146-1.289.437-1.801.3-.521.702-.923 1.205-1.205a3.299 3.299 0 011.682-.437c.626 0 1.187.146 1.681.437.503.282.901.684 1.192 1.205.3.512.45 1.112.45 1.801 0 .688-.15 1.293-.45 1.814a3.193 3.193 0 01-1.192 1.205 3.406 3.406 0 01-1.695.423zm0-1.205a1.832 1.832 0 001.629-.993c.177-.335.265-.75.265-1.244 0-.495-.088-.905-.265-1.232a1.747 1.747 0 00-.688-.755 1.792 1.792 0 00-.927-.251c-.336 0-.649.084-.941.251-.282.168-.512.42-.688.755-.177.327-.265.737-.265 1.232 0 .494.088.909.265 1.244.176.327.406.574.688.742.283.168.592.251.927.251zm7.278 1.205c-.794 0-1.421-.247-1.88-.741-.45-.494-.675-1.232-.675-2.211v-3.774h1.403v3.628c0 1.271.521 1.907 1.563 1.907.521 0 .949-.186 1.284-.556.336-.371.503-.901.503-1.589v-3.39h1.404v6.568h-1.245l-.106-1.152a2.314 2.314 0 01-.9.966c-.389.23-.839.344-1.351.344zm8.142-.158c-.645 0-1.157-.155-1.536-.464-.38-.318-.57-.878-.57-1.682v-3.244h-1.125v-1.178h1.125l.172-1.669h1.232v1.669h1.854v1.178h-1.854v3.244c0 .362.075.614.225.755.159.133.428.199.808.199h.754v1.192h-1.085zm5.022.158c-.794 0-1.421-.247-1.88-.741-.45-.494-.676-1.232-.676-2.211v-3.774h1.404v3.628c0 1.271.521 1.907 1.563 1.907.52 0 .949-.186 1.284-.556.335-.371.503-.901.503-1.589v-3.39h1.404v6.568h-1.245l-.106-1.152a2.314 2.314 0 01-.9.966c-.389.23-.839.344-1.351.344zm9.082 0c-.512 0-.967-.101-1.364-.304a2.343 2.343 0 01-.927-.861l-.146 1.007h-1.258v-9.534h1.404v3.985c.212-.309.503-.582.874-.821.371-.238.847-.357 1.43-.357.635 0 1.196.15 1.681.45.486.3.866.711 1.139 1.232.283.52.424 1.112.424 1.774 0 .662-.141 1.253-.424 1.774a3.142 3.142 0 01-1.139 1.218c-.485.292-1.05.437-1.694.437zm-.239-1.218c.601 0 1.095-.203 1.483-.609.389-.415.583-.953.583-1.615 0-.433-.088-.817-.265-1.152a1.944 1.944 0 00-.728-.782 1.976 1.976 0 00-1.073-.291c-.6 0-1.094.208-1.483.622-.379.415-.569.949-.569 1.603 0 .662.19 1.2.569 1.615.389.406.883.609 1.483.609zm8.086 1.218c-.644 0-1.218-.141-1.721-.423a3.127 3.127 0 01-1.166-1.205c-.282-.512-.423-1.108-.423-1.788 0-.688.137-1.293.41-1.814a3.098 3.098 0 011.165-1.218c.504-.291 1.086-.437 1.748-.437.645 0 1.205.146 1.682.437.477.282.847.662 1.112 1.139.265.476.397 1.002.397 1.575 0 .089-.004.186-.013.292 0 .097-.004.207-.013.331h-5.111c.044.635.251 1.121.622 1.456.38.327.817.49 1.311.49.397 0 .728-.088.993-.265.274-.185.477-.432.609-.741h1.404a2.972 2.972 0 01-1.059 1.549c-.521.415-1.17.622-1.947.622zm0-5.733c-.468 0-.883.141-1.245.424-.362.273-.582.688-.662 1.244h3.708c-.027-.512-.208-.918-.543-1.218-.335-.3-.755-.45-1.258-.45z" fill="#474B5B"/><path d="M89.578 182.754a1.601 1.601 0 00-1.128-1.152c-1.011-.282-5.008-.282-5.008-.282s-4.02 0-5.031.282a1.601 1.601 0 00-1.129 1.152c-.282.988-.282 3.104-.282 3.104s0 2.092.282 3.103c.141.565.588.988 1.129 1.129 1.01.259 5.031.259 5.031.259s3.997 0 5.008-.259c.54-.141.987-.564 1.128-1.129.282-1.011.282-3.103.282-3.103s0-2.116-.282-3.104zm-7.453 5.008v-3.808l3.339 1.904-3.339 1.904z" fill="red"/><path d="M185.15 159.051a6.02 6.02 0 016.019-6.019h12.037a6.02 6.02 0 010 12.038h-12.037a6.02 6.02 0 01-6.019-6.019z" fill="#F1EFFF"/><path d="M197.187 159.051a6.02 6.02 0 1112.039 0 6.02 6.02 0 01-12.039 0z" fill="#432CF2"/><path d="M93.4 163.866v-9.269h5.813v1.139h-4.409v2.926h3.655v1.126h-3.655v4.078H93.4zm8.857.159c-.556 0-1.015-.093-1.377-.278-.362-.186-.631-.428-.808-.729a1.997 1.997 0 01-.264-1.006c0-.635.247-1.139.741-1.509.495-.371 1.201-.557 2.119-.557h1.721v-.119c0-.512-.141-.896-.424-1.152-.273-.256-.631-.384-1.072-.384a1.79 1.79 0 00-1.02.292c-.282.185-.454.463-.516.834h-1.404c.044-.477.203-.883.477-1.218a2.68 2.68 0 011.059-.782 3.568 3.568 0 011.417-.278c.918 0 1.629.243 2.132.729.503.476.755 1.129.755 1.959v4.039h-1.218l-.12-1.126a2.49 2.49 0 01-.807.914c-.353.247-.817.371-1.391.371zm.278-1.139c.38 0 .698-.088.954-.265a1.81 1.81 0 00.609-.728c.15-.3.243-.631.278-.993h-1.563c-.556 0-.953.097-1.191.291a.914.914 0 00-.345.728c0 .301.111.539.331.715.23.168.539.252.927.252zm8.006 1.139a3.45 3.45 0 01-1.735-.437 3.183 3.183 0 01-1.191-1.205c-.283-.521-.424-1.121-.424-1.801 0-.68.141-1.276.424-1.788.291-.52.688-.926 1.191-1.218a3.45 3.45 0 011.735-.437c.812 0 1.492.212 2.039.636.556.424.914.997 1.073 1.721h-1.47a1.38 1.38 0 00-.583-.847 1.844 1.844 0 00-1.059-.305 1.81 1.81 0 00-.953.265 1.813 1.813 0 00-.702.755c-.177.326-.265.733-.265 1.218 0 .486.088.896.265 1.231.176.327.41.579.702.755a1.8 1.8 0 00.953.265c.406 0 .759-.101 1.059-.304.3-.204.495-.49.583-.861h1.47a2.842 2.842 0 01-1.06 1.708c-.556.433-1.24.649-2.052.649zm7.706 0c-.644 0-1.218-.141-1.721-.424a3.12 3.12 0 01-1.166-1.205c-.282-.512-.423-1.108-.423-1.787 0-.689.136-1.294.41-1.815.283-.52.671-.926 1.165-1.218.504-.291 1.086-.437 1.748-.437.645 0 1.205.146 1.682.437.477.283.847.662 1.112 1.139a3.19 3.19 0 01.397 1.576c0 .088-.004.185-.013.291 0 .097-.004.207-.013.331h-5.111c.044.636.251 1.121.622 1.457.38.326.817.49 1.311.49.397 0 .728-.089.993-.265a1.67 1.67 0 00.609-.742h1.404a2.965 2.965 0 01-1.06 1.549c-.52.415-1.169.623-1.946.623zm0-5.734c-.468 0-.883.142-1.245.424-.362.274-.582.689-.662 1.245h3.708c-.027-.512-.208-.918-.543-1.219-.336-.3-.755-.45-1.258-.45zm8.355 5.734c-.512 0-.967-.102-1.364-.305a2.362 2.362 0 01-.927-.86l-.145 1.006h-1.258v-9.534h1.403v3.986c.212-.309.504-.583.874-.821.371-.239.848-.358 1.43-.358.636 0 1.196.15 1.682.45.486.301.865.711 1.139 1.232.282.521.423 1.112.423 1.774 0 .662-.141 1.254-.423 1.775a3.15 3.15 0 01-1.139 1.218c-.486.291-1.05.437-1.695.437zm-.238-1.218c.6 0 1.094-.203 1.483-.61.388-.414.582-.953.582-1.615a2.44 2.44 0 00-.264-1.152 1.95 1.95 0 00-.729-.781 1.973 1.973 0 00-1.072-.292c-.601 0-1.095.208-1.483.623-.38.415-.57.949-.57 1.602 0 .662.19 1.201.57 1.615.388.407.882.61 1.483.61zm8.086 1.218a3.396 3.396 0 01-1.695-.424 3.218 3.218 0 01-1.179-1.205c-.291-.521-.437-1.125-.437-1.814 0-.689.146-1.289.437-1.801.3-.521.702-.922 1.205-1.205a3.299 3.299 0 011.682-.437c.627 0 1.187.146 1.681.437.504.283.901.684 1.192 1.205.3.512.45 1.112.45 1.801 0 .689-.15 1.293-.45 1.814a3.178 3.178 0 01-1.192 1.205 3.395 3.395 0 01-1.694.424zm0-1.205c.335 0 .644-.084.926-.252a1.83 1.83 0 00.702-.741c.177-.336.265-.751.265-1.245 0-.494-.088-.905-.265-1.231a1.735 1.735 0 00-.688-.755 1.783 1.783 0 00-.927-.252c-.336 0-.649.084-.94.252a1.851 1.851 0 00-.689.755c-.176.326-.265.737-.265 1.231 0 .494.089.909.265 1.245.177.326.406.574.689.741.282.168.591.252.927.252zm7.926 1.205a3.401 3.401 0 01-1.695-.424 3.215 3.215 0 01-1.178-1.205c-.291-.521-.437-1.125-.437-1.814 0-.689.146-1.289.437-1.801.3-.521.702-.922 1.205-1.205a3.299 3.299 0 011.682-.437c.626 0 1.187.146 1.681.437a3.07 3.07 0 011.192 1.205c.3.512.45 1.112.45 1.801 0 .689-.15 1.293-.45 1.814a3.185 3.185 0 01-1.192 1.205 3.396 3.396 0 01-1.695.424zm0-1.205a1.836 1.836 0 001.629-.993c.177-.336.265-.751.265-1.245 0-.494-.088-.905-.265-1.231a1.737 1.737 0 00-.689-.755 1.777 1.777 0 00-.926-.252c-.336 0-.649.084-.941.252a1.85 1.85 0 00-.688.755c-.177.326-.265.737-.265 1.231 0 .494.088.909.265 1.245.176.326.406.574.688.741.283.168.592.252.927.252zm4.855 1.046v-9.534h1.404v5.681l2.515-2.715h1.682l-2.794 2.979 3.205 3.589h-1.775l-2.833-3.363v3.363h-1.404z" fill="#474B5B"/><path d="M88.661 159.352a5.83 5.83 0 00-5.83-5.831 5.83 5.83 0 00-5.832 5.831c0 2.915 2.117 5.337 4.914 5.76v-4.068h-1.48v-1.692h1.48v-1.27c0-1.458.87-2.281 2.187-2.281.658 0 1.316.118 1.316.118v1.434h-.728c-.73 0-.964.447-.964.917v1.082h1.622l-.259 1.692h-1.363v4.068a5.824 5.824 0 004.937-5.76z" fill="#1877F2"/><path d="M185.338 132.568a6.018 6.018 0 016.018-6.019h12.038a6.02 6.02 0 010 12.038h-12.038a6.018 6.018 0 01-6.018-6.019z" fill="#F1EFFF"/><path d="M197.375 132.568a6.019 6.019 0 1112.037 0 6.019 6.019 0 01-12.037 0z" fill="#432CF2"/><path d="M95.76 137.383v-8.13h-2.741v-1.139h6.872v1.139h-2.728v8.13H95.76zm5.978 0l-1.933-6.568h1.404l1.271 4.953 1.43-4.953h1.562l1.43 4.953 1.272-4.953h1.403l-1.933 6.568h-1.443l-1.51-5.164-1.509 5.164h-1.444zm9.79-7.812a.951.951 0 01-.662-.239.843.843 0 01-.252-.622c0-.247.084-.45.252-.609a.921.921 0 01.662-.252c.265 0 .481.084.649.252a.785.785 0 01.265.609.825.825 0 01-.265.622.906.906 0 01-.649.239zm-.702 7.812v-6.568h1.404v6.568h-1.404zm6.011 0c-.645 0-1.157-.154-1.536-.463-.38-.318-.57-.879-.57-1.682v-3.244h-1.125v-1.179h1.125l.173-1.668h1.231v1.668h1.854v1.179h-1.854v3.244c0 .362.075.613.225.755.159.132.428.198.808.198h.755v1.192h-1.086zm5.353 0c-.644 0-1.156-.154-1.536-.463-.379-.318-.569-.879-.569-1.682v-3.244h-1.126v-1.179h1.126l.172-1.668h1.231v1.668h1.854v1.179h-1.854v3.244c0 .362.076.613.226.755.158.132.428.198.807.198h.755v1.192h-1.086zm5.503.159c-.644 0-1.218-.141-1.721-.424a3.117 3.117 0 01-1.165-1.205c-.283-.512-.424-1.108-.424-1.787 0-.689.137-1.294.411-1.814.282-.521.67-.927 1.165-1.219.503-.291 1.086-.437 1.748-.437.644 0 1.205.146 1.681.437.477.283.848.662 1.113 1.139a3.2 3.2 0 01.397 1.576c0 .088-.005.185-.013.291 0 .097-.005.208-.014.331h-5.111c.044.636.252 1.121.623 1.457.379.326.816.49 1.31.49.398 0 .729-.089.994-.265.273-.186.476-.433.609-.742h1.403a2.963 2.963 0 01-1.059 1.55c-.521.414-1.17.622-1.947.622zm0-5.734a1.97 1.97 0 00-1.244.424c-.362.274-.583.689-.662 1.245h3.707c-.026-.512-.207-.918-.543-1.218-.335-.301-.754-.451-1.258-.451zm4.661 5.575v-6.568h1.258l.119 1.245c.23-.433.548-.772.954-1.02.415-.256.913-.384 1.496-.384v1.47h-.384c-.388 0-.737.066-1.046.199-.3.123-.543.34-.728.649-.177.3-.265.719-.265 1.258v3.151h-1.404z" fill="#474B5B"/><path d="M87.79 130.424v.329c0 3.268-2.468 7.006-7.006 7.006A6.88 6.88 0 0177 136.654c.188.024.376.047.588.047 1.152 0 2.21-.4 3.056-1.058a2.456 2.456 0 01-2.304-1.716c.165.023.306.047.47.047.212 0 .447-.047.635-.094a2.472 2.472 0 01-1.975-2.422v-.023c.33.188.73.282 1.129.305a2.428 2.428 0 01-1.105-2.045c0-.47.118-.894.33-1.246a7.164 7.164 0 005.101 2.586 2.318 2.318 0 01-.07-.564 2.468 2.468 0 012.468-2.469c.706 0 1.34.282 1.81.776a5.229 5.229 0 001.552-.611 2.41 2.41 0 01-1.081 1.363 4.63 4.63 0 001.41-.376 5.23 5.23 0 01-1.222 1.27z" fill="#1DA1F2"/><path d="M185.338 106.085a6.018 6.018 0 016.018-6.019h12.038a6.02 6.02 0 010 12.038h-12.038a6.018 6.018 0 01-6.018-6.019z" fill="#F1EFFF"/><path d="M197.375 106.085a6.019 6.019 0 1112.037 0 6.019 6.019 0 01-12.037 0z" fill="#432CF2"/><path d="M93.588 110.9v-9.269h1.404v8.157h4.21v1.112h-5.614zm7.867-7.812a.951.951 0 01-.662-.239.843.843 0 01-.252-.622c0-.247.084-.45.252-.609a.921.921 0 01.662-.252c.265 0 .481.084.649.252a.785.785 0 01.265.609.825.825 0 01-.265.622.906.906 0 01-.649.239zm-.702 7.812v-6.567h1.404v6.567h-1.404zm3.257 0v-6.567h1.244l.106 1.152c.203-.407.499-.724.887-.954a2.604 2.604 0 011.364-.357c.795 0 1.417.247 1.867.741.459.494.689 1.232.689 2.211v3.774h-1.391v-3.628c0-1.271-.52-1.907-1.562-1.907a1.7 1.7 0 00-1.298.556c-.335.371-.503.901-.503 1.589v3.39h-1.403zm7.81 0v-9.534h1.403v5.681l2.516-2.714h1.682l-2.794 2.979 3.204 3.588h-1.774l-2.834-3.363v3.363h-1.403zm9.667.159c-.645 0-1.218-.141-1.722-.424a3.124 3.124 0 01-1.165-1.205c-.282-.512-.424-1.107-.424-1.787 0-.689.137-1.293.411-1.814a3.092 3.092 0 011.165-1.218c.503-.292 1.086-.437 1.748-.437.644 0 1.205.145 1.682.437a3 3 0 011.112 1.138 3.19 3.19 0 01.397 1.576c0 .088-.004.185-.013.291 0 .097-.005.208-.013.331h-5.112c.045.636.252 1.122.623 1.457.379.327.816.49 1.311.49.397 0 .728-.088.993-.265a1.67 1.67 0 00.609-.741h1.404a2.972 2.972 0 01-1.06 1.549c-.521.415-1.169.622-1.946.622zm0-5.733a1.97 1.97 0 00-1.245.423c-.362.274-.583.689-.662 1.245h3.708c-.027-.512-.208-.918-.543-1.218-.336-.3-.755-.45-1.258-.45zm7.653 5.733c-.636 0-1.196-.15-1.682-.45a3.124 3.124 0 01-1.138-1.232c-.274-.52-.411-1.112-.411-1.774 0-.662.137-1.249.411-1.761a3.027 3.027 0 011.138-1.218c.495-.3 1.06-.45 1.695-.45.521 0 .976.101 1.364.304.397.203.706.49.927.861v-3.973h1.404v9.534h-1.258l-.146-1.019a3.023 3.023 0 01-.874.821c-.371.238-.847.357-1.43.357zm.252-1.218c.6 0 1.09-.208 1.469-.622.389-.415.583-.949.583-1.603 0-.662-.194-1.196-.583-1.602-.379-.415-.869-.622-1.469-.622-.601 0-1.095.207-1.483.622-.389.406-.583.94-.583 1.602 0 .433.088.817.265 1.152.176.336.419.601.728.795.318.185.675.278 1.073.278zm6.02-6.753a.951.951 0 01-.662-.239.843.843 0 01-.252-.622c0-.247.084-.45.252-.609a.921.921 0 01.662-.252c.265 0 .481.084.649.252a.784.784 0 01.264.609.824.824 0 01-.264.622.906.906 0 01-.649.239zm-.702 7.812v-6.567h1.404v6.567h-1.404zm3.256 0v-6.567h1.245l.106 1.152c.203-.407.499-.724.887-.954a2.602 2.602 0 011.364-.357c.795 0 1.417.247 1.867.741.459.494.689 1.232.689 2.211v3.774h-1.391v-3.628c0-1.271-.52-1.907-1.562-1.907-.521 0-.954.186-1.298.556-.335.371-.503.901-.503 1.589v3.39h-1.404z" fill="#474B5B"/><path d="M86.78 101.12h-9.052c-.4 0-.728.352-.728.775v9.005c0 .423.329.752.728.752h9.052c.4 0 .752-.329.752-.752v-9.005c0-.423-.352-.775-.752-.775zm-6.606 9.028h-1.552v-5.008h1.552v5.008zm-.776-5.713a.899.899 0 01-.917-.894c0-.494.4-.917.917-.917.493 0 .893.423.893.917 0 .494-.4.894-.893.894zm6.63 5.713h-1.576v-2.445c0-.565 0-1.317-.799-1.317-.823 0-.94.635-.94 1.293v2.469H81.16v-5.008h1.481v.682h.024c.211-.4.728-.823 1.48-.823 1.576 0 1.882 1.058 1.882 2.398v2.751z" fill="#0077B5"/><path d="M77 83.214V75.63h3.153c.433 0 .823.105 1.17.314a2.369 2.369 0 011.159 2.069c0 .456-.105.867-.314 1.236a2.43 2.43 0 01-.845.866 2.162 2.162 0 01-1.17.325h-1.745v2.774H77zm1.408-4.074h1.647a.83.83 0 00.488-.151 1.08 1.08 0 00.357-.401c.094-.166.141-.354.141-.564 0-.21-.047-.393-.14-.552a.983.983 0 00-.358-.39.83.83 0 00-.488-.152h-1.647v2.21zm8.836 4.182a3.77 3.77 0 01-2.72-1.105 3.78 3.78 0 01-.79-1.246 4.22 4.22 0 01-.282-1.56c0-.563.094-1.083.282-1.56a3.66 3.66 0 01.79-1.235 3.687 3.687 0 011.214-.823 3.834 3.834 0 011.506-.293c.549 0 1.055.097 1.517.293.462.194.863.469 1.202.823.34.354.603.77.791 1.246.188.47.282.986.282 1.549a4.19 4.19 0 01-.282 1.55 3.78 3.78 0 01-.79 1.245c-.34.354-.741.629-1.203.823a3.863 3.863 0 01-1.517.293zm0-1.343c.347 0 .66-.062.942-.184.29-.13.539-.311.748-.542a2.62 2.62 0 00.488-.824c.122-.31.184-.65.184-1.018s-.062-.708-.184-1.018a2.49 2.49 0 00-.488-.813 2.053 2.053 0 00-.748-.542 2.222 2.222 0 00-.942-.195c-.34 0-.654.065-.942.195-.29.123-.539.3-.748.531-.21.231-.372.502-.488.813a2.93 2.93 0 00-.173 1.029c0 .368.058.711.173 1.03.116.31.278.58.488.812.21.23.459.412.748.541.288.123.602.185.942.185zm7.724 1.343c-.44 0-.845-.054-1.213-.163a3.251 3.251 0 01-.997-.509 3.844 3.844 0 01-.79-.812l.92-1.04c.354.49.7.83 1.04 1.018.34.188.722.282 1.148.282.246 0 .47-.036.672-.108.203-.08.361-.185.477-.315a.74.74 0 00.097-.802.712.712 0 00-.205-.281 1.62 1.62 0 00-.347-.238 2.496 2.496 0 00-.466-.185 7.428 7.428 0 00-.574-.14 5.069 5.069 0 01-1.04-.315 2.703 2.703 0 01-.748-.498 1.91 1.91 0 01-.444-.672 2.445 2.445 0 01-.14-.856c0-.317.068-.61.205-.877.144-.267.34-.499.585-.694.246-.195.531-.346.856-.455a3.304 3.304 0 011.05-.162c.427 0 .806.05 1.138.152.34.1.636.252.889.455.26.195.473.433.639.715l-.932.92a2.286 2.286 0 00-.487-.552 1.838 1.838 0 00-.585-.336c-.21-.08-.43-.119-.661-.119-.26 0-.488.036-.683.108a1.014 1.014 0 00-.444.315.72.72 0 00-.162.476.78.78 0 00.097.39c.065.109.155.206.271.293.123.087.278.162.466.227s.4.123.64.174c.396.08.754.187 1.072.325.317.13.588.289.812.476.224.18.394.39.51.629.115.23.173.49.173.78 0 .498-.12.928-.358 1.289a2.27 2.27 0 01-.986.823c-.426.188-.924.282-1.495.282zm5.904-.108V76.93h-2.167v-1.3h5.807v1.3h-2.231v6.284h-1.409zm4.794 0v-1.246h1.246v-5.092h-1.246V75.63h3.9v1.246h-1.245v5.092h1.245v1.246h-3.9zm5.698 0V75.63h1.267l4.399 5.926-.239.044a16.506 16.506 0 01-.075-.618c-.022-.217-.044-.44-.065-.672-.015-.23-.029-.473-.044-.726l-.021-.79a31.468 31.468 0 01-.011-.889V75.63h1.397v7.584h-1.289l-4.42-5.84.282-.076c.036.405.065.752.086 1.04a30.843 30.843 0 01.098 1.246c.014.138.021.264.021.38.008.108.011.213.011.314v2.936h-1.397zm12.089.108a4.193 4.193 0 01-1.582-.293 3.988 3.988 0 01-1.268-.834 3.776 3.776 0 01-.823-1.235 4.053 4.053 0 01-.293-1.549c0-.549.098-1.058.293-1.528a3.842 3.842 0 012.113-2.058 4.244 4.244 0 011.581-.293c.398 0 .78.055 1.149.163.368.108.7.26.996.455.297.195.542.415.737.66l-.888.933a3.53 3.53 0 00-.629-.488 2.854 2.854 0 00-.661-.303 2.579 2.579 0 00-1.722.087 2.54 2.54 0 00-.802.541 2.594 2.594 0 00-.726 1.831c0 .354.065.69.195 1.008a2.683 2.683 0 001.387 1.398c.318.13.654.194 1.008.194.267 0 .516-.04.747-.119a2.2 2.2 0 00.618-.325c.18-.144.317-.31.411-.498.101-.188.152-.39.152-.607v-.238l.195.227h-2.243v-1.257h3.435a3.789 3.789 0 01.043.553 3.49 3.49 0 01-.249 1.593 3.069 3.069 0 01-.737 1.05c-.31.296-.675.528-1.094.694a3.698 3.698 0 01-1.343.238zm9.614-.108V76.93H130.9v-1.3h5.807v1.3h-2.232v6.284h-1.408zm7.965.108a3.832 3.832 0 01-1.505-.293 3.768 3.768 0 01-1.214-.812 3.792 3.792 0 01-.791-1.246 4.215 4.215 0 01-.281-1.56c0-.563.093-1.083.281-1.56a3.67 3.67 0 01.791-1.235 3.685 3.685 0 011.214-.823 3.832 3.832 0 011.505-.293c.549 0 1.055.097 1.517.293.462.194.863.469 1.203.823a3.8 3.8 0 01.791 1.246c.187.47.281.986.281 1.549a4.21 4.21 0 01-.281 1.55 3.792 3.792 0 01-.791 1.245c-.34.354-.741.629-1.203.823a3.863 3.863 0 01-1.517.293zm0-1.343c.347 0 .661-.062.943-.184a2.23 2.23 0 00.747-.542c.21-.239.372-.513.488-.824.123-.31.184-.65.184-1.018s-.061-.708-.184-1.018a2.487 2.487 0 00-.488-.813 2.047 2.047 0 00-.747-.542 2.225 2.225 0 00-.943-.195 2.27 2.27 0 00-.942.195c-.289.123-.538.3-.748.531a2.484 2.484 0 00-.487.813c-.116.31-.174.653-.174 1.029 0 .368.058.711.174 1.03.115.31.278.58.487.812.21.23.459.412.748.541.289.123.603.185.942.185zm5.379 1.354c-.26 0-.463-.076-.607-.228-.137-.151-.206-.364-.206-.639 0-.253.072-.459.217-.617a.769.769 0 01.596-.25c.26 0 .458.076.596.228.144.144.216.358.216.64a.899.899 0 01-.227.627c-.145.16-.34.239-.585.239zm2.581 0c-.26 0-.462-.076-.606-.228-.138-.151-.206-.364-.206-.639 0-.253.072-.459.216-.617a.77.77 0 01.596-.25c.26 0 .459.076.596.228.145.144.217.358.217.64a.895.895 0 01-.228.627c-.144.16-.339.239-.585.239zm2.582 0c-.26 0-.462-.076-.607-.228-.137-.151-.206-.364-.206-.639 0-.253.072-.459.217-.617a.769.769 0 01.596-.25c.26 0 .458.076.596.228.144.144.216.358.216.64a.899.899 0 01-.227.627c-.145.16-.34.239-.585.239z" fill="#122428"/><defs><filter id="filter0_d_0_1335" x="0" y=".5" width="288.389" height="292" filterUnits="userSpaceOnUse" color-interpolation-filters="sRGB"><feFlood flood-opacity="0" result="BackgroundImageFix"/><feColorMatrix in="SourceAlpha" values="0 0 0 0 0 0 0 0 0 0 0 0 0 0 0 0 0 0 127 0" result="hardAlpha"/><feOffset/><feGaussianBlur stdDeviation="25"/><feComposite in2="hardAlpha" operator="out"/><feColorMatrix values="0 0 0 0 0 0 0 0 0 0 0 0 0 0 0 0 0 0 0.1 0"/><feBlend in2="BackgroundImageFix" result="effect1_dropShadow_0_1335"/><feBlend in="SourceGraphic" in2="effect1_dropShadow_0_1335" result="shape"/></filter></defs></svg>