<svg width="135" height="144" fill="none" xmlns="http://www.w3.org/2000/svg"><path d="M110.145 137.016a6.018 6.018 0 016.018-6.019h12.038a6.02 6.02 0 010 12.038h-12.038a6.018 6.018 0 01-6.018-6.019z" fill="#F4F4F4"/><path d="M110.145 137.016a6.018 6.018 0 116.018 6.019 6.018 6.018 0 01-6.018-6.019z" fill="#DBDBDB"/><path d="M18.395 141.831v-9.269h3.244c.724 0 1.324.124 1.801.371.477.238.83.569 1.06.993.238.415.357.887.357 1.417 0 .503-.115.967-.345 1.39-.22.415-.569.746-1.046.993-.476.248-1.085.371-1.827.371H19.8v3.734h-1.404zm1.404-4.886h1.774c.662 0 1.134-.141 1.417-.424.291-.291.437-.684.437-1.178 0-.512-.146-.909-.437-1.192-.283-.291-.755-.437-1.417-.437h-1.774v3.231zm7.187-2.926a.953.953 0 01-.662-.239.844.844 0 01-.252-.622c0-.247.084-.45.252-.609a.923.923 0 01.662-.252c.264 0 .48.084.648.252a.783.783 0 01.265.609.822.822 0 01-.265.622.905.905 0 01-.648.239zm-.702 7.812v-6.568h1.404v6.568h-1.404zm3.256 0v-6.568h1.245l.106 1.152a2.26 2.26 0 01.887-.953 2.602 2.602 0 011.364-.357c.794 0 1.417.247 1.867.741.46.494.689 1.232.689 2.211v3.774h-1.39v-3.628c0-1.271-.522-1.907-1.563-1.907-.521 0-.954.186-1.298.556-.335.371-.503.901-.503 1.589v3.39H29.54zm10.565 0c-.644 0-1.156-.154-1.536-.463-.38-.318-.57-.879-.57-1.682v-3.244h-1.125v-1.179h1.125l.173-1.668h1.231v1.668h1.854v1.179h-1.854v3.244c0 .362.075.614.225.755.16.132.428.198.808.198h.755v1.192h-1.086zm5.503.159c-.644 0-1.218-.141-1.721-.424a3.12 3.12 0 01-1.166-1.205c-.282-.512-.423-1.107-.423-1.787 0-.689.136-1.293.41-1.814a3.098 3.098 0 011.165-1.218c.504-.292 1.086-.437 1.748-.437.645 0 1.205.145 1.682.437.477.282.847.662 1.112 1.138a3.19 3.19 0 01.397 1.576c0 .088-.004.185-.013.291 0 .097-.004.208-.013.331h-5.111c.044.636.251 1.121.622 1.457.38.327.817.49 1.311.49.397 0 .728-.088.993-.265a1.67 1.67 0 00.61-.742h1.403a2.968 2.968 0 01-1.06 1.55c-.52.415-1.17.622-1.946.622zm0-5.733a1.97 1.97 0 00-1.245.423c-.362.274-.582.689-.662 1.245h3.708c-.027-.512-.208-.918-.543-1.218-.335-.3-.755-.45-1.258-.45zm4.661 5.574v-6.568h1.258l.119 1.245a2.59 2.59 0 01.953-1.019c.415-.256.914-.384 1.497-.384v1.469h-.384c-.389 0-.738.067-1.047.199-.3.124-.542.34-.728.649-.176.3-.265.719-.265 1.258v3.151H50.27zm7.921.159c-.645 0-1.218-.141-1.721-.424a3.12 3.12 0 01-1.166-1.205c-.282-.512-.423-1.107-.423-1.787 0-.689.136-1.293.41-1.814.282-.521.67-.927 1.165-1.218.504-.292 1.086-.437 1.748-.437.645 0 1.205.145 1.682.437.477.282.847.662 1.112 1.138a3.19 3.19 0 01.397 1.576c0 .088-.004.185-.013.291 0 .097-.004.208-.013.331h-5.111c.044.636.251 1.121.622 1.457.38.327.817.49 1.31.49.398 0 .73-.088.994-.265a1.67 1.67 0 00.61-.742h1.403a2.968 2.968 0 01-1.06 1.55c-.52.415-1.17.622-1.946.622zm0-5.733a1.97 1.97 0 00-1.245.423c-.362.274-.582.689-.662 1.245h3.708c-.027-.512-.208-.918-.543-1.218-.336-.3-.755-.45-1.258-.45zm7.282 5.733c-.83 0-1.513-.203-2.052-.609a2.282 2.282 0 01-.927-1.615h1.417c.07.3.238.56.503.781.265.212.614.318 1.046.318.424 0 .733-.089.927-.265.194-.177.291-.38.291-.609 0-.336-.136-.561-.41-.676-.265-.123-.636-.234-1.112-.331a8.601 8.601 0 01-1.113-.318 2.551 2.551 0 01-.913-.556c-.239-.247-.358-.578-.358-.993 0-.574.22-1.05.662-1.43.442-.388 1.06-.582 1.854-.582.733 0 1.324.176 1.774.529.46.353.729.852.808 1.496h-1.35a.965.965 0 00-.398-.662c-.212-.158-.498-.238-.86-.238-.353 0-.627.075-.821.225a.657.657 0 00-.292.556c0 .23.133.411.398.543.273.133.63.252 1.072.358.442.097.848.212 1.218.344.38.124.684.309.914.556.23.247.344.609.344 1.086.01.6-.225 1.099-.701 1.496-.468.397-1.108.596-1.92.596zm6.663-.159c-.644 0-1.156-.154-1.536-.463-.38-.318-.57-.879-.57-1.682v-3.244h-1.125v-1.179h1.126l.172-1.668h1.231v1.668h1.854v1.179h-1.854v3.244c0 .362.075.614.225.755.16.132.428.198.808.198h.755v1.192h-1.086z" fill="#474B5B"/><path d="M11.661 137.317a5.83 5.83 0 01-5.83 5.831c-.612 0-1.2-.071-1.74-.259.235-.376.588-1.011.729-1.528.07-.259.352-1.387.352-1.387.189.376.753.682 1.34.682 1.764 0 3.033-1.623 3.033-3.621 0-1.928-1.575-3.386-3.597-3.386-2.515 0-3.856 1.693-3.856 3.527 0 .87.447 1.928 1.176 2.281.118.047.188.023.212-.094 0-.071.117-.471.164-.659 0-.047 0-.117-.047-.164-.235-.282-.423-.823-.423-1.34 0-1.27.964-2.516 2.633-2.516 1.41 0 2.422.964 2.422 2.374 0 1.576-.8 2.657-1.834 2.657-.564 0-.987-.47-.87-1.034.165-.706.494-1.458.494-1.952 0-.446-.235-.823-.729-.823-.588 0-1.058.612-1.058 1.411 0 .517.165.87.165.87s-.565 2.445-.682 2.892c-.118.517-.07 1.222-.024 1.669A5.803 5.803 0 010 137.317a5.83 5.83 0 015.83-5.831 5.83 5.83 0 015.831 5.831z" fill="#E60023"/><path d="M109.815 110.533a6.018 6.018 0 016.019-6.018h12.038a6.018 6.018 0 110 12.037h-12.038a6.02 6.02 0 01-6.019-6.019z" fill="#F4F4F4"/><path d="M109.815 110.533a6.018 6.018 0 016.019-6.018 6.018 6.018 0 11-6.019 6.018z" fill="#DBDBDB"/><path d="M20.423 115.349v-3.417l-3.072-5.852h1.589l2.184 4.475 2.172-4.475h1.576l-3.046 5.852v3.417h-1.403zm7.463.158a3.406 3.406 0 01-1.694-.423 3.223 3.223 0 01-1.179-1.205c-.291-.521-.437-1.126-.437-1.814 0-.689.146-1.289.437-1.801.3-.521.702-.923 1.205-1.205a3.298 3.298 0 011.682-.437c.626 0 1.187.146 1.681.437.503.282.9.684 1.192 1.205.3.512.45 1.112.45 1.801 0 .688-.15 1.293-.45 1.814a3.193 3.193 0 01-1.192 1.205 3.407 3.407 0 01-1.695.423zm0-1.205c.336 0 .645-.083.927-.251a1.84 1.84 0 00.702-.742c.177-.335.265-.75.265-1.244 0-.495-.088-.905-.265-1.232a1.745 1.745 0 00-.689-.755 1.789 1.789 0 00-.926-.251 1.86 1.86 0 00-.94.251c-.283.168-.512.42-.69.755-.176.327-.264.737-.264 1.232 0 .494.088.909.265 1.244.177.327.406.574.688.742.283.168.592.251.927.251zm7.278 1.205c-.794 0-1.421-.247-1.88-.741-.45-.494-.675-1.232-.675-2.211v-3.774h1.403v3.628c0 1.271.521 1.907 1.563 1.907.52 0 .949-.186 1.284-.556.336-.371.503-.901.503-1.589v-3.39h1.404v6.568H37.52l-.106-1.152a2.313 2.313 0 01-.9.966c-.389.23-.839.344-1.35.344zm8.142-.158c-.645 0-1.157-.155-1.536-.464-.38-.318-.57-.878-.57-1.682v-3.244h-1.125v-1.178H41.2l.172-1.669h1.232v1.669h1.854v1.178h-1.854v3.244c0 .362.075.614.225.755.159.133.428.199.808.199h.754v1.192h-1.085zm5.022.158c-.794 0-1.421-.247-1.88-.741-.45-.494-.675-1.232-.675-2.211v-3.774h1.403v3.628c0 1.271.52 1.907 1.563 1.907.52 0 .949-.186 1.284-.556.335-.371.503-.901.503-1.589v-3.39h1.404v6.568h-1.245l-.106-1.152a2.313 2.313 0 01-.9.966c-.389.23-.839.344-1.35.344zm9.082 0c-.512 0-.967-.101-1.364-.304a2.35 2.35 0 01-.927-.861l-.146 1.007h-1.258v-9.534h1.404v3.985c.212-.309.503-.582.874-.821.37-.238.847-.357 1.43-.357.635 0 1.196.15 1.681.45.486.3.866.711 1.14 1.232.282.52.423 1.112.423 1.774 0 .662-.141 1.253-.424 1.774a3.15 3.15 0 01-1.139 1.218c-.485.292-1.05.437-1.694.437zm-.239-1.218c.6 0 1.095-.203 1.483-.609.389-.415.583-.953.583-1.615 0-.433-.088-.817-.265-1.152a1.949 1.949 0 00-.728-.782 1.974 1.974 0 00-1.073-.291c-.6 0-1.094.208-1.483.622-.38.415-.57.949-.57 1.603 0 .662.19 1.2.57 1.615.389.406.883.609 1.483.609zm8.086 1.218c-.644 0-1.218-.141-1.721-.423a3.126 3.126 0 01-1.166-1.205c-.282-.512-.423-1.108-.423-1.788 0-.688.137-1.293.41-1.814a3.098 3.098 0 011.165-1.218c.504-.291 1.086-.437 1.748-.437.645 0 1.205.146 1.682.437.477.282.847.662 1.112 1.139a3.186 3.186 0 01.384 1.867c0 .097-.004.207-.013.331h-5.111c.044.635.251 1.121.622 1.456.38.327.817.49 1.311.49.397 0 .728-.088.993-.265.274-.185.477-.432.61-.741h1.403a2.967 2.967 0 01-1.06 1.549c-.52.415-1.17.622-1.946.622zm0-5.733c-.468 0-.883.141-1.245.424-.361.273-.582.688-.662 1.244h3.708c-.027-.512-.208-.918-.543-1.218-.335-.3-.755-.45-1.258-.45z" fill="#474B5B"/><path d="M12.578 107.754a1.601 1.601 0 00-1.128-1.152c-1.011-.282-5.008-.282-5.008-.282s-4.02 0-5.031.282a1.601 1.601 0 00-1.129 1.152C0 108.742 0 110.858 0 110.858s0 2.092.282 3.103c.141.565.588.988 1.129 1.129 1.01.259 5.031.259 5.031.259s3.997 0 5.008-.259c.54-.141.987-.564 1.128-1.129.283-1.011.283-3.103.283-3.103s0-2.116-.283-3.104zm-7.453 5.008v-3.808l3.339 1.904-3.339 1.904z" fill="red"/><path d="M108.15 84.05a6.019 6.019 0 016.019-6.018h12.037a6.019 6.019 0 010 12.038h-12.037a6.019 6.019 0 01-6.019-6.02z" fill="#F1EFFF"/><path d="M120.187 84.05a6.02 6.02 0 1112.038.001 6.02 6.02 0 01-12.038 0z" fill="#432CF2"/><path d="M16.4 88.866v-9.27h5.813v1.14h-4.409v2.926h3.655v1.125h-3.655v4.079H16.4zm8.857.159c-.556 0-1.015-.093-1.377-.278-.362-.186-.631-.428-.807-.729a1.993 1.993 0 01-.265-1.006c0-.636.247-1.139.741-1.51.495-.37 1.2-.556 2.119-.556h1.721v-.119c0-.512-.141-.896-.424-1.152-.273-.256-.63-.384-1.072-.384a1.79 1.79 0 00-1.02.292c-.282.185-.454.463-.516.834h-1.404a2.2 2.2 0 01.477-1.218 2.68 2.68 0 011.06-.782 3.56 3.56 0 011.416-.278c.918 0 1.629.243 2.132.729.503.476.755 1.13.755 1.96v4.038h-1.218l-.12-1.126a2.495 2.495 0 01-.807.914c-.353.247-.817.37-1.39.37zm.278-1.139c.38 0 .698-.088.954-.265a1.81 1.81 0 00.609-.728c.15-.3.243-.631.278-.993h-1.563c-.556 0-.953.097-1.191.291a.915.915 0 00-.345.728c0 .3.11.539.331.715.23.168.539.252.927.252zm8.006 1.139a3.445 3.445 0 01-1.735-.437 3.188 3.188 0 01-1.191-1.205c-.283-.521-.424-1.121-.424-1.801 0-.68.141-1.276.424-1.788.291-.52.688-.926 1.191-1.218a3.445 3.445 0 011.735-.437c.812 0 1.492.212 2.04.636.555.424.913.997 1.072 1.721h-1.47a1.382 1.382 0 00-.583-.847 1.845 1.845 0 00-1.059-.305 1.81 1.81 0 00-.953.265c-.292.168-.526.42-.702.755-.177.326-.265.733-.265 1.218 0 .486.088.896.265 1.232.176.326.41.578.702.754a1.8 1.8 0 00.953.265c.406 0 .76-.102 1.06-.305.3-.203.494-.49.582-.86h1.47a2.844 2.844 0 01-1.06 1.708c-.556.432-1.24.649-2.052.649zm7.706 0c-.644 0-1.218-.142-1.721-.424a3.122 3.122 0 01-1.166-1.205c-.282-.512-.423-1.108-.423-1.787 0-.689.137-1.294.41-1.815.283-.52.671-.926 1.165-1.218.504-.291 1.086-.437 1.748-.437.645 0 1.205.146 1.682.437.477.283.847.662 1.112 1.139a3.19 3.19 0 01.397 1.576c0 .088-.004.185-.013.291 0 .097-.004.208-.013.331h-5.111c.044.636.251 1.121.622 1.457.38.326.817.49 1.311.49.397 0 .728-.089.993-.265a1.68 1.68 0 00.61-.742h1.403a2.966 2.966 0 01-1.06 1.55c-.52.414-1.17.622-1.946.622zm0-5.734c-.468 0-.883.142-1.245.424-.362.274-.582.688-.662 1.245h3.708c-.027-.512-.208-.918-.543-1.218-.336-.3-.755-.45-1.258-.45zm8.355 5.734c-.512 0-.966-.102-1.364-.305a2.35 2.35 0 01-.927-.86l-.145 1.006h-1.258v-9.534h1.403v3.986c.212-.31.504-.583.874-.821.371-.239.848-.358 1.43-.358.636 0 1.197.15 1.682.45.486.3.865.711 1.139 1.232.282.52.423 1.112.423 1.774 0 .662-.14 1.254-.423 1.775a3.152 3.152 0 01-1.139 1.218c-.485.291-1.05.437-1.695.437zm-.238-1.218c.6 0 1.094-.204 1.483-.61.388-.414.582-.953.582-1.615 0-.432-.088-.816-.264-1.152a1.946 1.946 0 00-.729-.781 1.973 1.973 0 00-1.072-.291c-.6 0-1.095.207-1.483.622-.38.415-.57.949-.57 1.602 0 .662.19 1.2.57 1.616.388.406.883.609 1.483.609zm8.086 1.218a3.403 3.403 0 01-1.695-.424 3.22 3.22 0 01-1.179-1.205c-.291-.52-.437-1.125-.437-1.814 0-.688.146-1.289.437-1.8.3-.522.702-.923 1.205-1.206a3.295 3.295 0 011.682-.437 3.25 3.25 0 011.681.437c.504.283.9.684 1.192 1.205.3.512.45 1.112.45 1.801 0 .689-.15 1.293-.45 1.814a3.188 3.188 0 01-1.191 1.205 3.403 3.403 0 01-1.695.424zm0-1.205a1.84 1.84 0 001.629-.993c.176-.336.264-.75.264-1.245 0-.494-.088-.905-.265-1.231a1.74 1.74 0 00-.688-.755 1.782 1.782 0 00-.927-.252c-.336 0-.649.084-.94.252-.283.167-.512.42-.689.755-.176.326-.265.737-.265 1.231 0 .494.089.91.265 1.245.177.326.406.573.689.741.282.168.591.252.927.252zm7.926 1.205a3.403 3.403 0 01-1.695-.424 3.22 3.22 0 01-1.178-1.205c-.291-.52-.437-1.125-.437-1.814 0-.688.146-1.289.437-1.8.3-.522.702-.923 1.205-1.206a3.295 3.295 0 011.682-.437 3.25 3.25 0 011.681.437c.503.283.9.684 1.192 1.205.3.512.45 1.112.45 1.801 0 .689-.15 1.293-.45 1.814a3.188 3.188 0 01-1.192 1.205 3.402 3.402 0 01-1.695.424zm0-1.205a1.839 1.839 0 001.629-.993c.177-.336.265-.75.265-1.245 0-.494-.088-.905-.265-1.231a1.739 1.739 0 00-.688-.755 1.783 1.783 0 00-.927-.252c-.336 0-.65.084-.94.252-.283.167-.513.42-.69.755-.176.326-.264.737-.264 1.231 0 .494.088.91.265 1.245.176.326.406.573.688.741.283.168.592.252.927.252zm4.855 1.046v-9.534h1.404v5.68l2.515-2.714h1.682l-2.794 2.98 3.205 3.588h-1.775l-2.833-3.363v3.363H70.23z" fill="#474B5B"/><path d="M11.661 84.352a5.83 5.83 0 00-5.83-5.831A5.83 5.83 0 000 84.35c0 2.916 2.115 5.338 4.913 5.76v-4.067h-1.48v-1.692h1.48v-1.27c0-1.458.87-2.28 2.187-2.28.658 0 1.316.117 1.316.117v1.434h-.728c-.73 0-.964.447-.964.917v1.082h1.622l-.259 1.692H6.724v4.068a5.824 5.824 0 004.937-5.76z" fill="#1877F2"/><path d="M108.338 57.568a6.018 6.018 0 016.018-6.019h12.038a6.019 6.019 0 010 12.038h-12.038a6.018 6.018 0 01-6.018-6.019z" fill="#F1EFFF"/><path d="M120.375 57.568a6.018 6.018 0 1112.037 0 6.018 6.018 0 11-12.037 0z" fill="#432CF2"/><path d="M18.76 62.383v-8.13h-2.741v-1.139h6.872v1.139h-2.728v8.13H18.76zm5.978 0l-1.933-6.568h1.404l1.27 4.953 1.43-4.953h1.563l1.43 4.953 1.272-4.953h1.403l-1.933 6.568h-1.443l-1.51-5.164-1.51 5.164h-1.443zm9.79-7.813a.953.953 0 01-.662-.238.845.845 0 01-.252-.622c0-.247.084-.45.252-.61a.924.924 0 01.662-.25.88.88 0 01.649.25.783.783 0 01.265.61.824.824 0 01-.265.622.905.905 0 01-.649.239zm-.702 7.813v-6.568h1.404v6.568h-1.404zm6.011 0c-.645 0-1.157-.154-1.536-.463-.38-.318-.57-.879-.57-1.682v-3.244h-1.125v-1.179h1.125l.173-1.668h1.231v1.668h1.854v1.179h-1.854v3.244c0 .362.075.614.225.755.159.132.428.198.808.198h.755v1.192h-1.086zm5.353 0c-.644 0-1.156-.154-1.536-.463-.38-.318-.57-.879-.57-1.682v-3.244H41.96v-1.179h1.126l.172-1.668h1.232v1.668h1.853v1.179H44.49v3.244c0 .362.075.614.225.755.159.132.428.198.807.198h.755v1.192H45.19zm5.503.159c-.644 0-1.218-.141-1.721-.424a3.121 3.121 0 01-1.165-1.205c-.283-.512-.424-1.108-.424-1.787 0-.689.137-1.294.41-1.814a3.11 3.11 0 011.166-1.219c.503-.29 1.086-.437 1.748-.437.644 0 1.205.146 1.681.437.477.283.848.662 1.113 1.14a3.19 3.19 0 01.397 1.575c0 .088-.005.185-.013.291 0 .097-.005.208-.014.331h-5.11c.043.636.25 1.121.621 1.457.38.326.817.49 1.311.49.398 0 .729-.089.994-.265.273-.186.476-.433.609-.742h1.403a2.966 2.966 0 01-1.06 1.55c-.52.414-1.169.622-1.946.622zm0-5.734a1.97 1.97 0 00-1.244.424c-.362.274-.583.689-.662 1.245h3.707c-.026-.512-.207-.918-.543-1.218-.335-.3-.754-.45-1.258-.45zm4.661 5.575v-6.568h1.258l.12 1.245a2.59 2.59 0 01.953-1.02c.415-.256.913-.384 1.496-.384v1.47h-.384c-.389 0-.737.066-1.046.199-.3.123-.543.34-.728.649-.177.3-.265.72-.265 1.258v3.151h-1.404z" fill="#474B5B"/><path d="M10.79 55.424v.329c0 3.268-2.468 7.006-7.005 7.006-1.411 0-2.704-.4-3.786-1.105.188.024.376.047.588.047 1.152 0 2.21-.4 3.056-1.058a2.457 2.457 0 01-2.304-1.716c.165.023.306.047.47.047.212 0 .447-.047.635-.094A2.472 2.472 0 01.47 56.458v-.023c.33.188.73.282 1.129.305a2.429 2.429 0 01-1.105-2.045c0-.47.118-.894.33-1.246a7.163 7.163 0 005.101 2.586 2.32 2.32 0 01-.07-.564 2.468 2.468 0 012.468-2.469c.705 0 1.34.282 1.81.776a5.213 5.213 0 001.552-.611 2.412 2.412 0 01-1.081 1.363 4.627 4.627 0 001.41-.376 5.23 5.23 0 01-1.222 1.27z" fill="#1DA1F2"/><path d="M108.338 31.085a6.018 6.018 0 016.018-6.019h12.038a6.02 6.02 0 010 12.038h-12.038a6.018 6.018 0 01-6.018-6.019z" fill="#F1EFFF"/><path d="M120.375 31.085a6.018 6.018 0 1112.037 0 6.018 6.018 0 01-12.037 0z" fill="#432CF2"/><path d="M16.588 35.9v-9.269h1.404v8.157h4.21V35.9h-5.614zm7.867-7.812a.953.953 0 01-.662-.239.845.845 0 01-.252-.622c0-.247.084-.45.252-.609a.924.924 0 01.662-.252c.265 0 .481.084.649.252a.783.783 0 01.265.61.824.824 0 01-.265.621.905.905 0 01-.65.239zm-.702 7.812v-6.567h1.404V35.9h-1.404zm3.257 0v-6.567h1.244l.106 1.152c.203-.407.499-.724.887-.954a2.6 2.6 0 011.364-.357c.795 0 1.417.247 1.867.741.46.495.689 1.232.689 2.212V35.9h-1.39v-3.628c0-1.271-.521-1.907-1.563-1.907-.52 0-.953.186-1.298.557-.335.37-.503.9-.503 1.588v3.39H27.01zm7.81 0v-9.534h1.404v5.681l2.515-2.714h1.682l-2.794 2.979 3.204 3.588h-1.774l-2.834-3.363V35.9H34.82zm9.667.16c-.645 0-1.218-.142-1.722-.425a3.12 3.12 0 01-1.165-1.204c-.282-.512-.424-1.108-.424-1.788 0-.689.137-1.293.41-1.814a3.1 3.1 0 011.166-1.218c.503-.292 1.086-.437 1.748-.437.644 0 1.205.145 1.682.437a3 3 0 011.112 1.138 3.19 3.19 0 01.397 1.576c0 .088-.004.185-.013.291a5.2 5.2 0 01-.013.331h-5.111c.044.636.251 1.121.622 1.457.38.327.816.49 1.31.49.398 0 .729-.088.994-.265.274-.185.477-.432.609-.741h1.404a2.966 2.966 0 01-1.06 1.549c-.52.415-1.17.622-1.946.622zm0-5.734c-.468 0-.883.14-1.245.423-.362.274-.583.689-.662 1.245h3.708c-.027-.512-.208-.918-.543-1.218-.336-.3-.755-.45-1.258-.45zm7.653 5.734c-.636 0-1.196-.15-1.682-.451-.485-.3-.865-.71-1.138-1.232-.274-.52-.41-1.112-.41-1.774 0-.662.136-1.249.41-1.761.273-.52.653-.927 1.138-1.218.495-.3 1.06-.45 1.695-.45.521 0 .976.101 1.364.304.397.203.706.49.927.86v-3.972h1.404V35.9H54.59l-.146-1.02a3.014 3.014 0 01-.874.822c-.37.238-.847.357-1.43.357zm.252-1.22c.6 0 1.09-.207 1.47-.621.388-.415.582-.95.582-1.603 0-.662-.194-1.196-.583-1.602-.38-.415-.87-.622-1.47-.622s-1.094.207-1.482.622c-.389.406-.583.94-.583 1.602 0 .433.088.817.265 1.152.176.336.42.6.728.795a2.09 2.09 0 001.073.278zm6.02-6.752a.953.953 0 01-.662-.239.845.845 0 01-.252-.622c0-.247.084-.45.252-.609a.924.924 0 01.662-.252.88.88 0 01.649.252.783.783 0 01.264.61.824.824 0 01-.264.621.905.905 0 01-.65.239zM57.71 35.9v-6.567h1.404V35.9H57.71zm3.256 0v-6.567h1.245l.106 1.152c.203-.407.499-.724.887-.954a2.6 2.6 0 011.364-.357c.795 0 1.417.247 1.867.741.46.495.689 1.232.689 2.212V35.9h-1.39v-3.628c0-1.271-.521-1.907-1.563-1.907-.521 0-.954.186-1.298.557-.335.37-.503.9-.503 1.588v3.39h-1.404z" fill="#474B5B"/><path d="M9.78 26.12H.728c-.4 0-.728.352-.728.775V35.9c0 .423.329.753.728.753H9.78c.4 0 .752-.33.752-.753v-9.005c0-.423-.352-.775-.752-.775zm-6.607 9.028H1.622V30.14h1.551v5.008zm-.775-5.713a.898.898 0 01-.917-.894c0-.494.4-.917.917-.917.493 0 .893.424.893.917 0 .494-.4.894-.893.894zm6.63 5.713H7.452v-2.445c0-.565 0-1.317-.799-1.317-.823 0-.94.635-.94 1.293v2.469H4.16V30.14h1.481v.682h.024c.211-.4.728-.823 1.48-.823 1.576 0 1.882 1.058 1.882 2.398v2.75z" fill="#0077B5"/><path d="M0 8.214V.63h3.153c.433 0 .823.105 1.17.314a2.369 2.369 0 011.159 2.069c0 .455-.105.867-.314 1.236a2.43 2.43 0 01-.845.866 2.162 2.162 0 01-1.17.325H1.408v2.774H0zM1.408 4.14h1.647a.83.83 0 00.488-.151 1.08 1.08 0 00.357-.401c.094-.166.141-.354.141-.564 0-.21-.047-.393-.14-.552a.983.983 0 00-.358-.39.83.83 0 00-.488-.152H1.408v2.21zm8.836 4.182a3.77 3.77 0 01-2.72-1.105 3.78 3.78 0 01-.79-1.246 4.22 4.22 0 01-.282-1.56c0-.563.094-1.083.282-1.56a3.66 3.66 0 01.79-1.235A3.687 3.687 0 018.739.793 3.834 3.834 0 0110.244.5c.549 0 1.055.098 1.517.293.462.195.863.469 1.202.823.34.354.603.77.791 1.246.188.47.282.986.282 1.549a4.19 4.19 0 01-.282 1.55 3.78 3.78 0 01-.79 1.245 3.57 3.57 0 01-1.203.824 3.862 3.862 0 01-1.517.292zm0-1.343c.347 0 .66-.062.943-.185.289-.13.538-.31.747-.541.21-.239.372-.513.488-.824.122-.31.184-.65.184-1.018s-.062-.708-.184-1.018a2.49 2.49 0 00-.488-.813 2.052 2.052 0 00-.747-.542 2.222 2.222 0 00-.943-.195c-.34 0-.654.065-.943.195-.288.123-.538.3-.747.531-.21.231-.372.502-.488.813-.115.31-.173.653-.173 1.029 0 .368.058.711.173 1.03.116.31.278.58.488.812.21.23.459.411.747.541.29.123.604.185.943.185zm7.724 1.343c-.44 0-.845-.054-1.213-.162a3.253 3.253 0 01-.997-.51 3.845 3.845 0 01-.79-.812l.92-1.04c.354.49.7.83 1.04 1.018.34.188.722.282 1.148.282.246 0 .47-.036.672-.109a1.22 1.22 0 00.477-.314.74.74 0 00.097-.802.711.711 0 00-.205-.281 1.622 1.622 0 00-.347-.238 2.505 2.505 0 00-.466-.185 7.464 7.464 0 00-.574-.14 5.065 5.065 0 01-1.04-.315 2.7 2.7 0 01-.748-.498 1.911 1.911 0 01-.444-.672 2.445 2.445 0 01-.14-.856c0-.317.068-.61.205-.877a2.24 2.24 0 01.585-.693 2.77 2.77 0 01.856-.455A3.303 3.303 0 0118.054.5c.427 0 .806.05 1.138.152.34.1.636.252.889.455.26.195.473.433.639.715l-.932.92a2.287 2.287 0 00-.487-.552 1.837 1.837 0 00-.585-.336c-.21-.08-.43-.119-.661-.119-.26 0-.488.036-.683.108a1.014 1.014 0 00-.444.315.72.72 0 00-.162.476.78.78 0 00.097.39c.065.109.155.206.271.293.123.086.278.162.466.227s.4.123.64.174c.396.08.754.187 1.072.325.317.13.588.289.812.476.224.18.394.39.51.629.115.23.173.49.173.78 0 .498-.12.928-.358 1.289a2.27 2.27 0 01-.986.823c-.426.188-.924.282-1.495.282zm5.904-.108V1.93h-2.167V.63h5.807v1.3h-2.231v6.284h-1.409zm4.794 0V6.968h1.246V1.876h-1.246V.63h3.9v1.246h-1.245v5.092h1.245v1.246h-3.9zm5.698 0V.63h1.267l4.399 5.926-.239.043a15.878 15.878 0 01-.075-.617c-.022-.217-.044-.44-.065-.672-.015-.23-.03-.473-.044-.726a352.52 352.52 0 01-.021-.79 31.506 31.506 0 01-.011-.889V.63h1.397v7.584h-1.289l-4.42-5.84.282-.076c.036.405.064.752.086 1.04a22.398 22.398 0 01.098 1.246c.014.138.021.264.021.38.008.108.011.213.011.314v2.936h-1.397zm12.089.108a4.193 4.193 0 01-1.582-.292 3.988 3.988 0 01-1.268-.835 3.778 3.778 0 01-.823-1.235 4.052 4.052 0 01-.293-1.549c0-.549.098-1.058.293-1.528A3.842 3.842 0 0144.893.825a4.247 4.247 0 011.581-.292c.398 0 .78.054 1.149.162.368.108.7.26.996.455.297.195.542.415.737.66l-.888.933a3.509 3.509 0 00-.629-.488 2.89 2.89 0 00-.66-.303 2.583 2.583 0 00-1.723.087c-.303.13-.57.31-.802.541a2.595 2.595 0 00-.726 1.831c0 .354.065.69.195 1.008a2.693 2.693 0 001.387 1.398c.318.13.654.194 1.008.194a2.217 2.217 0 001.365-.444c.18-.144.317-.31.411-.498a1.26 1.26 0 00.152-.607v-.238l.195.227h-2.243V4.194h3.435a3.683 3.683 0 01.043.553 3.483 3.483 0 01-.25 1.593 3.075 3.075 0 01-.736 1.05c-.31.296-.675.528-1.094.694a3.7 3.7 0 01-1.343.238zm9.614-.108V1.93H53.9V.63h5.807v1.3h-2.232v6.284h-1.408zm7.965.108a3.771 3.771 0 01-2.72-1.105 3.78 3.78 0 01-.79-1.246 4.22 4.22 0 01-.281-1.56c0-.563.093-1.083.281-1.56A3.66 3.66 0 0162.527.793 3.834 3.834 0 0164.031.5c.55 0 1.055.098 1.517.293.462.195.863.469 1.203.823.34.354.603.77.79 1.246.188.47.282.986.282 1.549a4.19 4.19 0 01-.281 1.55 3.78 3.78 0 01-.791 1.245 3.57 3.57 0 01-1.203.824 3.862 3.862 0 01-1.517.292zm0-1.343c.347 0 .661-.062.943-.185.289-.13.538-.31.748-.541.209-.239.371-.513.487-.824.123-.31.184-.65.184-1.018s-.061-.708-.184-1.018a2.488 2.488 0 00-.487-.813 2.053 2.053 0 00-.748-.542 2.223 2.223 0 00-.943-.195c-.34 0-.653.065-.942.195-.289.123-.538.3-.748.531a2.49 2.49 0 00-.487.813 2.93 2.93 0 00-.173 1.029c0 .368.057.711.173 1.03.115.31.278.58.487.812.21.23.459.411.748.541.289.123.603.185.942.185zm5.378 1.354c-.26 0-.462-.076-.606-.228-.137-.151-.206-.364-.206-.639 0-.253.072-.458.217-.617a.769.769 0 01.596-.25c.26 0 .458.076.596.228.144.144.216.357.216.64a.897.897 0 01-.227.628.756.756 0 01-.585.238zm2.582 0c-.26 0-.462-.076-.606-.228-.138-.151-.206-.364-.206-.639 0-.253.072-.458.216-.617a.769.769 0 01.596-.25c.26 0 .459.076.596.228.145.144.217.357.217.64a.897.897 0 01-.228.628c-.144.158-.34.238-.585.238zm2.582 0c-.26 0-.462-.076-.607-.228-.137-.151-.206-.364-.206-.639 0-.253.072-.458.217-.617a.769.769 0 01.596-.25c.26 0 .458.076.596.228.144.144.216.357.216.64a.897.897 0 01-.227.628.756.756 0 01-.585.238z" fill="#122428"/></svg>