<svg width="72" height="74" fill="none" xmlns="http://www.w3.org/2000/svg"><path fill-rule="evenodd" clip-rule="evenodd" d="M34.214 69.424c16.04 0 29.042-12.939 29.042-28.9 0-15.961-13.002-28.9-29.042-28.9S5.17 24.563 5.17 40.524c0 15.961 13.003 28.9 29.043 28.9zm0 4.55c18.564 0 33.614-14.976 33.614-33.45 0-18.473-15.05-33.45-33.614-33.45C15.649 7.075.6 22.052.6 40.525c0 18.474 15.05 33.45 33.614 33.45z" fill="#145AFF"/><path d="M26.964.813h44.16v45.808h-44.16V.813z" fill="#fff"/><path d="M65.25 43.325c2.063 0 3.754-1.69 3.55-3.76a38.34 38.34 0 00-2.688-10.808 38.09 38.09 0 00-8.18-12.35 37.716 37.716 0 00-12.243-8.252 37.47 37.47 0 00-10.713-2.711c-2.052-.206-3.728 1.5-3.728 3.58v30.535c0 2.08 1.672 3.766 3.734 3.766H65.25z" fill="#F52C8D"/></svg>