<svg width="72" height="74" viewBox="0 0 72 74" fill="none" xmlns="http://www.w3.org/2000/svg">
<path fill-rule="evenodd" clip-rule="evenodd" d="M34.2139 69.4243C50.2536 69.4243 63.2564 56.4852 63.2564 40.5241C63.2564 24.563 50.2536 11.6239 34.2139 11.6239C18.1741 11.6239 5.17136 24.563 5.17136 40.5241C5.17136 56.4852 18.1741 69.4243 34.2139 69.4243ZM34.2139 73.9734C52.7784 73.9734 67.8279 58.9976 67.8279 40.5241C67.8279 22.0506 52.7784 7.07483 34.2139 7.07483C15.6494 7.07483 0.599854 22.0506 0.599854 40.5241C0.599854 58.9976 15.6494 73.9734 34.2139 73.9734Z" fill="#145AFF"/>
<path d="M26.964 0.813354H71.1236V46.6207H26.964V0.813354Z" fill="white"/>
<path d="M65.2509 43.3252C67.313 43.3252 69.0037 41.6349 68.8 39.5649C68.435 35.8557 67.5312 32.2137 66.112 28.7574C64.2156 24.1388 61.436 19.9423 57.9318 16.4074C54.4276 12.8725 50.2676 10.0684 45.6892 8.15536C42.2629 6.72372 38.6526 5.81202 34.9756 5.44382C32.9237 5.23834 31.248 6.94392 31.248 9.02405V39.5588C31.248 41.6389 32.9197 43.3252 34.9817 43.3252H65.2509Z" fill="#F52C8D"/>
</svg>
