<svg width="135" height="144" viewBox="0 0 135 144" fill="none" xmlns="http://www.w3.org/2000/svg">
<path d="M110.145 137.016C110.145 133.692 112.839 130.997 116.163 130.997H128.201C131.525 130.997 134.22 133.692 134.22 137.016C134.22 140.34 131.525 143.035 128.201 143.035H116.163C112.839 143.035 110.145 140.34 110.145 137.016Z" fill="#F4F4F4"/>
<path d="M110.145 137.016C110.145 133.692 112.839 130.997 116.163 130.997C119.487 130.997 122.182 133.692 122.182 137.016C122.182 140.34 119.487 143.035 116.163 143.035C112.839 143.035 110.145 140.34 110.145 137.016Z" fill="#DBDBDB"/>
<path d="M18.395 141.831V132.562H21.6392C22.363 132.562 22.9633 132.686 23.44 132.933C23.9167 133.171 24.2698 133.502 24.4993 133.926C24.7376 134.341 24.8568 134.813 24.8568 135.343C24.8568 135.846 24.7421 136.31 24.5125 136.733C24.2918 137.148 23.9432 137.479 23.4665 137.726C22.9898 137.974 22.3807 138.097 21.6392 138.097H19.7986V141.831H18.395ZM19.7986 136.945H21.573C22.235 136.945 22.7073 136.804 22.9898 136.521C23.2811 136.23 23.4267 135.837 23.4267 135.343C23.4267 134.831 23.2811 134.434 22.9898 134.151C22.7073 133.86 22.235 133.714 21.573 133.714H19.7986V136.945Z" fill="#474B5B"/>
<path d="M26.9857 134.019C26.7208 134.019 26.5002 133.939 26.3236 133.78C26.1559 133.613 26.072 133.405 26.072 133.158C26.072 132.911 26.1559 132.708 26.3236 132.549C26.5002 132.381 26.7208 132.297 26.9857 132.297C27.2505 132.297 27.4668 132.381 27.6345 132.549C27.8111 132.708 27.8993 132.911 27.8993 133.158C27.8993 133.405 27.8111 133.613 27.6345 133.78C27.4668 133.939 27.2505 134.019 26.9857 134.019ZM26.2839 141.831V135.263H27.6875V141.831H26.2839Z" fill="#474B5B"/>
<path d="M29.5403 141.831V135.263H30.785L30.891 136.415C31.094 136.009 31.3897 135.692 31.7781 135.462C32.1754 135.224 32.63 135.105 33.142 135.105C33.9365 135.105 34.5588 135.352 35.009 135.846C35.4681 136.34 35.6976 137.078 35.6976 138.057V141.831H34.3072V138.203C34.3072 136.932 33.7864 136.296 32.7447 136.296C32.2239 136.296 31.7914 136.482 31.4471 136.852C31.1116 137.223 30.9439 137.753 30.9439 138.441V141.831H29.5403Z" fill="#474B5B"/>
<path d="M40.1049 141.831C39.4605 141.831 38.9485 141.677 38.5689 141.368C38.1893 141.05 37.9995 140.489 37.9995 139.686V136.442H36.874V135.263H37.9995L38.1716 133.595H39.4031V135.263H41.2569V136.442H39.4031V139.686C39.4031 140.048 39.4781 140.3 39.6282 140.441C39.7871 140.573 40.0563 140.639 40.4359 140.639H41.1907V141.831H40.1049Z" fill="#474B5B"/>
<path d="M45.608 141.99C44.9636 141.99 44.3898 141.849 43.8866 141.566C43.3923 141.275 43.0039 140.873 42.7214 140.361C42.4389 139.849 42.2977 139.254 42.2977 138.574C42.2977 137.885 42.4345 137.281 42.7082 136.76C42.9906 136.239 43.3791 135.833 43.8734 135.542C44.3766 135.25 44.9592 135.105 45.6213 135.105C46.2657 135.105 46.8262 135.25 47.3029 135.542C47.7796 135.824 48.1504 136.204 48.4152 136.68C48.68 137.157 48.8124 137.682 48.8124 138.256C48.8124 138.344 48.808 138.441 48.7992 138.547C48.7992 138.644 48.7948 138.755 48.7859 138.878H43.6748C43.7189 139.514 43.9264 139.999 44.2971 140.335C44.6767 140.662 45.1137 140.825 45.608 140.825C46.0053 140.825 46.3363 140.737 46.6011 140.56C46.8748 140.375 47.0778 140.127 47.2102 139.818H48.6138C48.4373 140.436 48.0842 140.953 47.5545 141.368C47.0337 141.783 46.3848 141.99 45.608 141.99ZM45.608 136.257C45.1402 136.257 44.7253 136.398 44.3633 136.68C44.0014 136.954 43.7807 137.369 43.7013 137.925H47.4088C47.3824 137.413 47.2014 137.007 46.8659 136.707C46.5305 136.407 46.1112 136.257 45.608 136.257Z" fill="#474B5B"/>
<path d="M50.2688 141.831V135.263H51.5267L51.6459 136.508C51.8754 136.076 52.1932 135.736 52.5993 135.489C53.0142 135.233 53.5129 135.105 54.0955 135.105V136.574H53.7115C53.3231 136.574 52.9744 136.641 52.6655 136.773C52.3653 136.897 52.1226 137.113 51.9372 137.422C51.7606 137.722 51.6724 138.141 51.6724 138.68V141.831H50.2688Z" fill="#474B5B"/>
<path d="M58.1899 141.99C57.5455 141.99 56.9717 141.849 56.4685 141.566C55.9742 141.275 55.5858 140.873 55.3033 140.361C55.0208 139.849 54.8796 139.254 54.8796 138.574C54.8796 137.885 55.0164 137.281 55.2901 136.76C55.5725 136.239 55.9609 135.833 56.4553 135.542C56.9585 135.25 57.5411 135.105 58.2032 135.105C58.8476 135.105 59.4081 135.25 59.8848 135.542C60.3615 135.824 60.7323 136.204 60.9971 136.68C61.2619 137.157 61.3943 137.682 61.3943 138.256C61.3943 138.344 61.3899 138.441 61.3811 138.547C61.3811 138.644 61.3767 138.755 61.3678 138.878H56.2567C56.3008 139.514 56.5083 139.999 56.879 140.335C57.2586 140.662 57.6956 140.825 58.1899 140.825C58.5872 140.825 58.9182 140.737 59.183 140.56C59.4567 140.375 59.6597 140.127 59.7921 139.818H61.1957C61.0192 140.436 60.6661 140.953 60.1364 141.368C59.6156 141.783 58.9667 141.99 58.1899 141.99ZM58.1899 136.257C57.7221 136.257 57.3072 136.398 56.9452 136.68C56.5833 136.954 56.3626 137.369 56.2832 137.925H59.9907C59.9643 137.413 59.7833 137.007 59.4478 136.707C59.1124 136.407 58.6931 136.257 58.1899 136.257Z" fill="#474B5B"/>
<path d="M65.4725 141.99C64.6427 141.99 63.9585 141.787 63.4201 141.381C62.8816 140.975 62.5726 140.436 62.4932 139.766H63.91C63.9806 140.066 64.1483 140.326 64.4132 140.547C64.678 140.759 65.0267 140.865 65.4592 140.865C65.8829 140.865 66.1919 140.776 66.3861 140.6C66.5803 140.423 66.6774 140.22 66.6774 139.991C66.6774 139.655 66.5406 139.43 66.267 139.315C66.0021 139.192 65.6314 139.081 65.1547 138.984C64.7839 138.905 64.4132 138.799 64.0424 138.666C63.6805 138.534 63.3759 138.349 63.1287 138.11C62.8904 137.863 62.7712 137.532 62.7712 137.117C62.7712 136.543 62.9919 136.067 63.4333 135.687C63.8747 135.299 64.4926 135.105 65.2871 135.105C66.0198 135.105 66.6112 135.281 67.0614 135.634C67.5205 135.987 67.7897 136.486 67.8692 137.13H66.5185C66.4744 136.848 66.342 136.627 66.1213 136.468C65.9094 136.31 65.6225 136.23 65.2606 136.23C64.9075 136.23 64.6338 136.305 64.4396 136.455C64.2454 136.596 64.1483 136.782 64.1483 137.011C64.1483 137.241 64.2807 137.422 64.5456 137.554C64.8192 137.687 65.1767 137.806 65.6181 137.912C66.0595 138.009 66.4656 138.124 66.8363 138.256C67.2159 138.38 67.5205 138.565 67.75 138.812C67.9795 139.059 68.0943 139.421 68.0943 139.898C68.1031 140.498 67.8692 140.997 67.3925 141.394C66.9246 141.791 66.2846 141.99 65.4725 141.99Z" fill="#474B5B"/>
<path d="M72.1351 141.831C71.4906 141.831 70.9786 141.677 70.5991 141.368C70.2195 141.05 70.0297 140.489 70.0297 139.686V136.442H68.9042V135.263H70.0297L70.2018 133.595H71.4333V135.263H73.2871V136.442H71.4333V139.686C71.4333 140.048 71.5083 140.3 71.6584 140.441C71.8173 140.573 72.0865 140.639 72.4661 140.639H73.2208V141.831H72.1351Z" fill="#474B5B"/>
<path d="M11.6614 137.317C11.6614 140.538 9.05172 143.148 5.83072 143.148C5.21944 143.148 4.63166 143.077 4.09091 142.889C4.32602 142.513 4.67868 141.878 4.81975 141.361C4.89028 141.102 5.17241 139.974 5.17241 139.974C5.3605 140.35 5.92476 140.656 6.51254 140.656C8.27586 140.656 9.54545 139.033 9.54545 137.035C9.54545 135.107 7.97022 133.649 5.94828 133.649C3.4326 133.649 2.09248 135.342 2.09248 137.176C2.09248 138.046 2.53918 139.104 3.26802 139.457C3.38558 139.504 3.45611 139.48 3.47962 139.363C3.47962 139.292 3.59718 138.892 3.6442 138.704C3.6442 138.657 3.6442 138.587 3.59718 138.54C3.36207 138.258 3.17398 137.717 3.17398 137.2C3.17398 135.93 4.13793 134.684 5.80721 134.684C7.21787 134.684 8.22884 135.648 8.22884 137.058C8.22884 138.634 7.42947 139.715 6.39498 139.715C5.83072 139.715 5.40752 139.245 5.52508 138.681C5.68965 137.975 6.01881 137.223 6.01881 136.729C6.01881 136.283 5.7837 135.906 5.28997 135.906C4.70219 135.906 4.23197 136.518 4.23197 137.317C4.23197 137.834 4.39655 138.187 4.39655 138.187C4.39655 138.187 3.83229 140.632 3.71473 141.079C3.59718 141.596 3.6442 142.301 3.69122 142.748C1.52821 141.902 0 139.809 0 137.317C0 134.096 2.60972 131.486 5.83072 131.486C9.05172 131.486 11.6614 134.096 11.6614 137.317Z" fill="#E60023"/>
<path d="M109.815 110.533C109.815 107.209 112.51 104.515 115.834 104.515H127.872C131.196 104.515 133.891 107.209 133.891 110.533C133.891 113.857 131.196 116.552 127.872 116.552H115.834C112.51 116.552 109.815 113.857 109.815 110.533Z" fill="#F4F4F4"/>
<path d="M109.815 110.533C109.815 107.209 112.51 104.515 115.834 104.515C119.158 104.515 121.853 107.209 121.853 110.533C121.853 113.857 119.158 116.552 115.834 116.552C112.51 116.552 109.815 113.857 109.815 110.533Z" fill="#DBDBDB"/>
<path d="M20.4226 115.349V111.932L17.3506 106.08H18.9396L21.1244 110.555L23.296 106.08H24.8717L21.8262 111.932V115.349H20.4226Z" fill="#474B5B"/>
<path d="M27.8864 115.507C27.2596 115.507 26.6947 115.366 26.1915 115.084C25.6971 114.792 25.3043 114.391 25.013 113.879C24.7217 113.358 24.576 112.753 24.576 112.065C24.576 111.376 24.7217 110.776 25.013 110.264C25.3131 109.743 25.7148 109.341 26.218 109.059C26.7211 108.768 27.2817 108.622 27.8996 108.622C28.5264 108.622 29.0869 108.768 29.5813 109.059C30.0844 109.341 30.4817 109.743 30.773 110.264C31.0731 110.776 31.2232 111.376 31.2232 112.065C31.2232 112.753 31.0731 113.358 30.773 113.879C30.4817 114.391 30.0844 114.792 29.5813 115.084C29.0781 115.366 28.5131 115.507 27.8864 115.507ZM27.8864 114.302C28.2218 114.302 28.5308 114.219 28.8133 114.051C29.1046 113.883 29.3385 113.636 29.5151 113.309C29.6916 112.974 29.7799 112.559 29.7799 112.065C29.7799 111.57 29.6916 111.16 29.5151 110.833C29.3473 110.498 29.1178 110.246 28.8265 110.078C28.544 109.911 28.2351 109.827 27.8996 109.827C27.5642 109.827 27.2508 109.911 26.9595 110.078C26.677 110.246 26.4475 110.498 26.2709 110.833C26.0944 111.16 26.0061 111.57 26.0061 112.065C26.0061 112.559 26.0944 112.974 26.2709 113.309C26.4475 113.636 26.677 113.883 26.9595 114.051C27.242 114.219 27.5509 114.302 27.8864 114.302Z" fill="#474B5B"/>
<path d="M35.1643 115.507C34.3698 115.507 33.743 115.26 33.284 114.766C32.8338 114.272 32.6087 113.534 32.6087 112.555V108.781H34.0123V112.409C34.0123 113.68 34.5331 114.316 35.5748 114.316C36.0956 114.316 36.5237 114.13 36.8592 113.76C37.1946 113.389 37.3623 112.859 37.3623 112.171V108.781H38.7659V115.349H37.5212L37.4153 114.197C37.2123 114.603 36.9121 114.925 36.5149 115.163C36.1265 115.393 35.6763 115.507 35.1643 115.507Z" fill="#474B5B"/>
<path d="M43.3057 115.349C42.6612 115.349 42.1492 115.194 41.7697 114.885C41.3901 114.567 41.2003 114.007 41.2003 113.203V109.959H40.0748V108.781H41.2003L41.3724 107.112H42.6039V108.781H44.4577V109.959H42.6039V113.203C42.6039 113.565 42.6789 113.817 42.829 113.958C42.9879 114.091 43.2571 114.157 43.6367 114.157H44.3914V115.349H43.3057Z" fill="#474B5B"/>
<path d="M48.3281 115.507C47.5336 115.507 46.9068 115.26 46.4478 114.766C45.9976 114.272 45.7725 113.534 45.7725 112.555V108.781H47.1761V112.409C47.1761 113.68 47.6969 114.316 48.7386 114.316C49.2594 114.316 49.6875 114.13 50.023 113.76C50.3584 113.389 50.5261 112.859 50.5261 112.171V108.781H51.9297V115.349H50.685L50.5791 114.197C50.3761 114.603 50.0759 114.925 49.6787 115.163C49.2903 115.393 48.8401 115.507 48.3281 115.507Z" fill="#474B5B"/>
<path d="M57.4096 115.507C56.8976 115.507 56.443 115.406 56.0457 115.203C55.6573 115 55.3483 114.713 55.1188 114.342L54.9732 115.349H53.7152V105.815H55.1188V109.8C55.3307 109.491 55.622 109.218 55.9928 108.979C56.3635 108.741 56.8402 108.622 57.4228 108.622C58.0584 108.622 58.619 108.772 59.1045 109.072C59.59 109.372 59.9696 109.783 60.2432 110.304C60.5257 110.824 60.667 111.416 60.667 112.078C60.667 112.74 60.5257 113.331 60.2432 113.852C59.9696 114.364 59.59 114.77 59.1045 115.07C58.619 115.362 58.054 115.507 57.4096 115.507ZM57.1712 114.289C57.7715 114.289 58.2659 114.086 58.6543 113.68C59.0427 113.265 59.2369 112.727 59.2369 112.065C59.2369 111.632 59.1486 111.248 58.9721 110.913C58.7955 110.577 58.5528 110.317 58.2438 110.131C57.9348 109.937 57.5773 109.84 57.1712 109.84C56.571 109.84 56.0766 110.048 55.6882 110.462C55.3086 110.877 55.1188 111.411 55.1188 112.065C55.1188 112.727 55.3086 113.265 55.6882 113.68C56.0766 114.086 56.571 114.289 57.1712 114.289Z" fill="#474B5B"/>
<path d="M65.2571 115.507C64.6127 115.507 64.0389 115.366 63.5357 115.084C63.0413 114.792 62.6529 114.391 62.3704 113.879C62.088 113.367 61.9467 112.771 61.9467 112.091C61.9467 111.403 62.0836 110.798 62.3572 110.277C62.6397 109.756 63.0281 109.35 63.5224 109.059C64.0256 108.768 64.6082 108.622 65.2703 108.622C65.9147 108.622 66.4753 108.768 66.952 109.059C67.4287 109.341 67.7994 109.721 68.0642 110.198C68.3291 110.674 68.4615 111.2 68.4615 111.773C68.4615 111.862 68.4571 111.959 68.4482 112.065C68.4482 112.162 68.4438 112.272 68.435 112.396H63.3238C63.368 113.031 63.5754 113.517 63.9462 113.852C64.3258 114.179 64.7627 114.342 65.2571 114.342C65.6543 114.342 65.9853 114.254 66.2502 114.077C66.5238 113.892 66.7269 113.645 66.8593 113.336H68.2629C68.0863 113.954 67.7332 114.47 67.2036 114.885C66.6827 115.3 66.0339 115.507 65.2571 115.507ZM65.2571 109.774C64.7892 109.774 64.3743 109.915 64.0124 110.198C63.6505 110.471 63.4298 110.886 63.3503 111.442H67.0579C67.0314 110.93 66.8504 110.524 66.515 110.224C66.1796 109.924 65.7602 109.774 65.2571 109.774Z" fill="#474B5B"/>
<path d="M12.5784 107.754C12.4373 107.19 11.9906 106.744 11.4498 106.602C10.4389 106.32 6.44201 106.32 6.44201 106.32C6.44201 106.32 2.42163 106.32 1.41066 106.602C0.869906 106.744 0.423197 107.19 0.282132 107.754C0 108.742 0 110.858 0 110.858C0 110.858 0 112.95 0.282132 113.961C0.423197 114.526 0.869906 114.949 1.41066 115.09C2.42163 115.349 6.44201 115.349 6.44201 115.349C6.44201 115.349 10.4389 115.349 11.4498 115.09C11.9906 114.949 12.4373 114.526 12.5784 113.961C12.8605 112.95 12.8605 110.858 12.8605 110.858C12.8605 110.858 12.8605 108.742 12.5784 107.754ZM5.12539 112.762V108.954L8.46395 110.858L5.12539 112.762Z" fill="#FF0000"/>
<path d="M108.15 84.0508C108.15 80.7267 110.845 78.032 114.169 78.032H126.206C129.53 78.032 132.225 80.7267 132.225 84.0508C132.225 87.3749 129.53 90.0696 126.206 90.0696H114.169C110.845 90.0696 108.15 87.3749 108.15 84.0508Z" fill="#F1EFFF"/>
<path d="M120.187 84.0509C120.187 80.7268 122.882 78.032 126.206 78.032C129.53 78.032 132.225 80.7268 132.225 84.0509C132.225 87.3749 129.53 90.0697 126.206 90.0697C122.882 90.0697 120.187 87.3749 120.187 84.0509Z" fill="#432CF2"/>
<path d="M16.4004 88.8659V79.5969H22.2134V80.7357H17.804V83.662H21.4586V84.7875H17.804V88.8659H16.4004Z" fill="#474B5B"/>
<path d="M25.2573 89.0248C24.7012 89.0248 24.2421 88.9321 23.8802 88.7467C23.5183 88.5613 23.249 88.3186 23.0725 88.0184C22.8959 87.7095 22.8077 87.374 22.8077 87.0121C22.8077 86.3765 23.0548 85.8733 23.5492 85.5026C24.0435 85.1318 24.7497 84.9464 25.6678 84.9464H27.3892V84.8273C27.3892 84.3153 27.2479 83.9313 26.9655 83.6753C26.6918 83.4193 26.3343 83.2913 25.8929 83.2913C25.5045 83.2913 25.1646 83.3884 24.8733 83.5826C24.5908 83.768 24.4187 84.046 24.3569 84.4168H22.9533C22.9975 83.9401 23.1564 83.534 23.43 83.1986C23.7125 82.8543 24.0656 82.5939 24.4893 82.4173C24.9219 82.232 25.3941 82.1393 25.9061 82.1393C26.8242 82.1393 27.5348 82.382 28.038 82.8675C28.5412 83.3442 28.7928 83.9975 28.7928 84.8273V88.8659H27.5746L27.4554 87.7404C27.27 88.1023 27.0008 88.4069 26.6477 88.654C26.2946 88.9012 25.8311 89.0248 25.2573 89.0248ZM25.5354 87.886C25.915 87.886 26.2328 87.7977 26.4888 87.6212C26.7536 87.4358 26.9566 87.1931 27.0979 86.8929C27.2479 86.5928 27.3406 86.2617 27.3759 85.8998H25.8135C25.2573 85.8998 24.8601 85.9969 24.6217 86.1911C24.3922 86.3853 24.2775 86.6281 24.2775 86.9194C24.2775 87.2195 24.3878 87.4579 24.6085 87.6344C24.838 87.8022 25.147 87.886 25.5354 87.886Z" fill="#474B5B"/>
<path d="M33.541 89.0248C32.8966 89.0248 32.3184 88.8791 31.8064 88.5878C31.3033 88.2965 30.906 87.8949 30.6147 87.3829C30.3322 86.862 30.191 86.2617 30.191 85.582C30.191 84.9023 30.3322 84.3064 30.6147 83.7944C30.906 83.2736 31.3033 82.8675 31.8064 82.5762C32.3184 82.2849 32.8966 82.1393 33.541 82.1393C34.3532 82.1393 35.0329 82.3511 35.5802 82.7749C36.1364 83.1986 36.4939 83.7724 36.6528 84.4962H35.183C35.0947 84.1343 34.9005 83.8518 34.6004 83.6488C34.3002 83.4457 33.9471 83.3442 33.541 83.3442C33.1968 83.3442 32.879 83.4325 32.5877 83.6091C32.2964 83.7768 32.0624 84.0284 31.8859 84.3638C31.7093 84.6904 31.621 85.0965 31.621 85.582C31.621 86.0675 31.7093 86.478 31.8859 86.8135C32.0624 87.1401 32.2964 87.3917 32.5877 87.5682C32.879 87.7448 33.1968 87.8331 33.541 87.8331C33.9471 87.8331 34.3002 87.7315 34.6004 87.5285C34.9005 87.3255 35.0947 87.0386 35.183 86.6678H36.6528C36.5027 87.374 36.1496 87.9434 35.5935 88.376C35.0373 88.8085 34.3532 89.0248 33.541 89.0248Z" fill="#474B5B"/>
<path d="M41.247 89.0248C40.6026 89.0248 40.0288 88.8835 39.5256 88.6011C39.0313 88.3097 38.6429 87.9081 38.3604 87.3961C38.0779 86.8841 37.9367 86.2882 37.9367 85.6085C37.9367 84.92 38.0735 84.3153 38.3471 83.7944C38.6296 83.2736 39.018 82.8675 39.5124 82.5762C40.0156 82.2849 40.5982 82.1393 41.2603 82.1393C41.9047 82.1393 42.4652 82.2849 42.9419 82.5762C43.4186 82.8587 43.7894 83.2383 44.0542 83.715C44.319 84.1917 44.4514 84.7169 44.4514 85.2907C44.4514 85.379 44.447 85.4761 44.4382 85.582C44.4382 85.6791 44.4338 85.7895 44.4249 85.9131H39.3138C39.3579 86.5486 39.5654 87.0342 39.9361 87.3696C40.3157 87.6962 40.7527 87.8595 41.247 87.8595C41.6443 87.8595 41.9753 87.7713 42.2401 87.5947C42.5138 87.4093 42.7168 87.1622 42.8492 86.8532H44.2528C44.0763 87.4711 43.7232 87.9875 43.1935 88.4024C42.6727 88.8173 42.0238 89.0248 41.247 89.0248ZM41.247 83.2913C40.7792 83.2913 40.3643 83.4325 40.0023 83.715C39.6404 83.9886 39.4197 84.4035 39.3403 84.9597H43.0478C43.0214 84.4477 42.8404 84.0416 42.5049 83.7415C42.1695 83.4413 41.7502 83.2913 41.247 83.2913Z" fill="#474B5B"/>
<path d="M49.6021 89.0248C49.0901 89.0248 48.6355 88.9233 48.2383 88.7202C47.8498 88.5172 47.5409 88.2303 47.3114 87.8595L47.1657 88.8659H45.9078V79.3321H47.3114V83.3177C47.5232 83.0088 47.8145 82.7351 48.1853 82.4968C48.556 82.2584 49.0327 82.1393 49.6154 82.1393C50.2509 82.1393 50.8115 82.2893 51.297 82.5895C51.7825 82.8896 52.1621 83.3001 52.4358 83.8209C52.7183 84.3417 52.8595 84.9332 52.8595 85.5953C52.8595 86.2573 52.7183 86.8488 52.4358 87.3696C52.1621 87.8816 51.7825 88.2877 51.297 88.5878C50.8115 88.8791 50.2465 89.0248 49.6021 89.0248ZM49.3638 87.8066C49.964 87.8066 50.4584 87.6035 50.8468 87.1975C51.2352 86.7826 51.4294 86.2441 51.4294 85.582C51.4294 85.1495 51.3412 84.7655 51.1646 84.43C50.988 84.0946 50.7453 83.8342 50.4363 83.6488C50.1274 83.4546 49.7698 83.3575 49.3638 83.3575C48.7635 83.3575 48.2691 83.5649 47.8807 83.9798C47.5012 84.3947 47.3114 84.9288 47.3114 85.582C47.3114 86.2441 47.5012 86.7826 47.8807 87.1975C48.2691 87.6035 48.7635 87.8066 49.3638 87.8066Z" fill="#474B5B"/>
<path d="M57.4496 89.0248C56.8228 89.0248 56.2579 88.8835 55.7547 88.6011C55.2604 88.3097 54.8675 87.9081 54.5762 87.3961C54.2849 86.8753 54.1393 86.2706 54.1393 85.582C54.1393 84.8935 54.2849 84.2932 54.5762 83.7812C54.8764 83.2604 55.278 82.8587 55.7812 82.5762C56.2844 82.2849 56.8449 82.1393 57.4628 82.1393C58.0896 82.1393 58.6502 82.2849 59.1445 82.5762C59.6477 82.8587 60.0449 83.2604 60.3362 83.7812C60.6364 84.2932 60.7864 84.8935 60.7864 85.582C60.7864 86.2706 60.6364 86.8753 60.3362 87.3961C60.0449 87.9081 59.6477 88.3097 59.1445 88.6011C58.6413 88.8835 58.0764 89.0248 57.4496 89.0248ZM57.4496 87.8198C57.7851 87.8198 58.094 87.736 58.3765 87.5682C58.6678 87.4005 58.9017 87.1533 59.0783 86.8267C59.2548 86.4913 59.3431 86.0764 59.3431 85.582C59.3431 85.0877 59.2548 84.6772 59.0783 84.3506C58.9106 84.0151 58.681 83.7635 58.3897 83.5958C58.1073 83.4281 57.7983 83.3442 57.4628 83.3442C57.1274 83.3442 56.814 83.4281 56.5227 83.5958C56.2402 83.7635 56.0107 84.0151 55.8342 84.3506C55.6576 84.6772 55.5693 85.0877 55.5693 85.582C55.5693 86.0764 55.6576 86.4913 55.8342 86.8267C56.0107 87.1533 56.2402 87.4005 56.5227 87.5682C56.8052 87.736 57.1142 87.8198 57.4496 87.8198Z" fill="#474B5B"/>
<path d="M65.3763 89.0248C64.7496 89.0248 64.1846 88.8835 63.6814 88.6011C63.1871 88.3097 62.7943 87.9081 62.5029 87.3961C62.2116 86.8753 62.066 86.2706 62.066 85.582C62.066 84.8935 62.2116 84.2932 62.5029 83.7812C62.8031 83.2604 63.2047 82.8587 63.7079 82.5762C64.2111 82.2849 64.7716 82.1393 65.3896 82.1393C66.0163 82.1393 66.5769 82.2849 67.0712 82.5762C67.5744 82.8587 67.9716 83.2604 68.2629 83.7812C68.5631 84.2932 68.7132 84.8935 68.7132 85.582C68.7132 86.2706 68.5631 86.8753 68.2629 87.3961C67.9716 87.9081 67.5744 88.3097 67.0712 88.6011C66.5681 88.8835 66.0031 89.0248 65.3763 89.0248ZM65.3763 87.8198C65.7118 87.8198 66.0207 87.736 66.3032 87.5682C66.5945 87.4005 66.8285 87.1533 67.005 86.8267C67.1816 86.4913 67.2698 86.0764 67.2698 85.582C67.2698 85.0877 67.1816 84.6772 67.005 84.3506C66.8373 84.0151 66.6078 83.7635 66.3165 83.5958C66.034 83.4281 65.725 83.3442 65.3896 83.3442C65.0541 83.3442 64.7407 83.4281 64.4494 83.5958C64.1669 83.7635 63.9374 84.0151 63.7609 84.3506C63.5843 84.6772 63.4961 85.0877 63.4961 85.582C63.4961 86.0764 63.5843 86.4913 63.7609 86.8267C63.9374 87.1533 64.1669 87.4005 64.4494 87.5682C64.7319 87.736 65.0409 87.8198 65.3763 87.8198Z" fill="#474B5B"/>
<path d="M70.231 88.8659V79.3321H71.6346V85.0126L74.1505 82.2982H75.8322L73.0382 85.2775L76.2426 88.8659H74.4683L71.6346 85.5026V88.8659H70.231Z" fill="#474B5B"/>
<path d="M11.661 84.3517C11.661 81.1307 9.05124 78.5209 5.83023 78.5209C2.60923 78.5209 -0.000488281 81.1307 -0.000488281 84.3517C-0.000488281 87.267 2.1155 89.6886 4.9133 90.1118V86.0444H3.43211V84.3517H4.9133V83.0821C4.9133 81.6244 5.78321 80.8015 7.09982 80.8015C7.75813 80.8015 8.41644 80.9191 8.41644 80.9191V82.3532H7.6876C6.95876 82.3532 6.72365 82.7999 6.72365 83.2702V84.3517H8.34591L8.08729 86.0444H6.72365V90.1118C9.52145 89.6886 11.661 87.267 11.661 84.3517Z" fill="#1877F2"/>
<path d="M108.338 57.568C108.338 54.2439 111.032 51.5492 114.356 51.5492H126.394C129.718 51.5492 132.413 54.2439 132.413 57.568C132.413 60.8921 129.718 63.5868 126.394 63.5868H114.356C111.032 63.5868 108.338 60.8921 108.338 57.568Z" fill="#F1EFFF"/>
<path d="M120.375 57.568C120.375 54.2439 123.069 51.5492 126.394 51.5492C129.718 51.5492 132.412 54.2439 132.412 57.568C132.412 60.8921 129.718 63.5868 126.394 63.5868C123.069 63.5868 120.375 60.8921 120.375 57.568Z" fill="#432CF2"/>
<path d="M18.7598 62.383V54.2528H16.0188V53.1141H22.8911V54.2528H20.1634V62.383H18.7598Z" fill="#474B5B"/>
<path d="M24.7383 62.383L22.8051 55.8153H24.2087L25.4799 60.7676L26.9099 55.8153H28.4724L29.9025 60.7676L31.1737 55.8153H32.5772L30.644 62.383H29.2007L27.6912 57.2189L26.1817 62.383H24.7383Z" fill="#474B5B"/>
<path d="M34.528 54.5706C34.2631 54.5706 34.0425 54.4912 33.8659 54.3323C33.6982 54.1646 33.6143 53.9571 33.6143 53.7099C33.6143 53.4628 33.6982 53.2597 33.8659 53.1008C34.0425 52.9331 34.2631 52.8492 34.528 52.8492C34.7928 52.8492 35.0091 52.9331 35.1768 53.1008C35.3534 53.2597 35.4416 53.4628 35.4416 53.7099C35.4416 53.9571 35.3534 54.1646 35.1768 54.3323C35.0091 54.4912 34.7928 54.5706 34.528 54.5706ZM33.8262 62.383V55.8153H35.2298V62.383H33.8262Z" fill="#474B5B"/>
<path d="M39.8368 62.383C39.1924 62.383 38.6804 62.2286 38.3008 61.9196C37.9212 61.6018 37.7315 61.0412 37.7315 60.2379V56.9938H36.6059V55.8153H37.7315L37.9036 54.1469H39.135V55.8153H40.9888V56.9938H39.135V60.2379C39.135 60.5999 39.2101 60.8515 39.3601 60.9927C39.519 61.1251 39.7883 61.1913 40.1679 61.1913H40.9226V62.383H39.8368Z" fill="#474B5B"/>
<path d="M45.1903 62.383C44.5459 62.383 44.0339 62.2286 43.6543 61.9196C43.2747 61.6018 43.0849 61.0412 43.0849 60.2379V56.9938H41.9594V55.8153H43.0849L43.257 54.1469H44.4885V55.8153H46.3423V56.9938H44.4885V60.2379C44.4885 60.5999 44.5635 60.8515 44.7136 60.9927C44.8725 61.1251 45.1417 61.1913 45.5213 61.1913H46.2761V62.383H45.1903Z" fill="#474B5B"/>
<path d="M50.6934 62.5419C50.049 62.5419 49.4752 62.4007 48.972 62.1182C48.4777 61.8269 48.0893 61.4252 47.8068 60.9132C47.5243 60.4012 47.3831 59.8054 47.3831 59.1257C47.3831 58.4371 47.5199 57.8324 47.7936 57.3116C48.076 56.7908 48.4645 56.3847 48.9588 56.0934C49.462 55.8021 50.0446 55.6564 50.7067 55.6564C51.3511 55.6564 51.9116 55.8021 52.3883 56.0934C52.865 56.3759 53.2358 56.7555 53.5006 57.2321C53.7654 57.7088 53.8978 58.2341 53.8978 58.8079C53.8978 58.8961 53.8934 58.9932 53.8846 59.0992C53.8846 59.1963 53.8802 59.3066 53.8713 59.4302H48.7602C48.8043 60.0658 49.0118 60.5513 49.3825 60.8868C49.7621 61.2134 50.1991 61.3767 50.6934 61.3767C51.0907 61.3767 51.4217 61.2884 51.6865 61.1119C51.9602 60.9265 52.1632 60.6793 52.2956 60.3703H53.6992C53.5227 60.9883 53.1696 61.5047 52.6399 61.9196C52.1191 62.3345 51.4702 62.5419 50.6934 62.5419ZM50.6934 56.8084C50.2256 56.8084 49.8107 56.9497 49.4487 57.2321C49.0868 57.5058 48.8661 57.9207 48.7867 58.4768H52.4942C52.4678 57.9648 52.2868 57.5588 51.9513 57.2586C51.6159 56.9585 51.1966 56.8084 50.6934 56.8084Z" fill="#474B5B"/>
<path d="M55.3542 62.383V55.8153H56.6121L56.7313 57.06C56.9608 56.6275 57.2786 56.2876 57.6847 56.0404C58.0996 55.7844 58.5983 55.6564 59.1809 55.6564V57.1262H58.7969C58.4085 57.1262 58.0598 57.1924 57.7509 57.3248C57.4507 57.4484 57.208 57.6647 57.0226 57.9737C56.846 58.2738 56.7578 58.6931 56.7578 59.2316V62.383H55.3542Z" fill="#474B5B"/>
<path d="M10.7908 55.4237C10.7908 55.5413 10.7908 55.6353 10.7908 55.7529C10.7908 59.0209 8.32215 62.7591 3.78453 62.7591C2.37388 62.7591 1.08077 62.3594 -0.000732422 61.6541C0.187355 61.6776 0.375443 61.7011 0.587042 61.7011C1.73908 61.7011 2.79707 61.3014 3.64347 60.6431C2.56196 60.6196 1.64504 59.9143 1.33939 58.9268C1.50397 58.9504 1.64504 58.9739 1.80961 58.9739C2.02121 58.9739 2.25632 58.9268 2.44441 58.8798C1.31588 58.6447 0.469487 57.6572 0.469487 56.4582V56.4347C0.798641 56.6228 1.19833 56.7168 1.59801 56.7403C0.916195 56.2936 0.492998 55.5413 0.492998 54.6949C0.492998 54.2246 0.610553 53.8014 0.822152 53.4488C2.04472 54.93 3.87858 55.9174 5.92403 56.035C5.87701 55.8469 5.8535 55.6588 5.8535 55.4707C5.8535 54.1071 6.95851 53.0021 8.32215 53.0021C9.02748 53.0021 9.66228 53.2842 10.1325 53.7779C10.6732 53.6604 11.214 53.4488 11.6842 53.1667C11.4961 53.7544 11.12 54.2246 10.6027 54.5303C11.0964 54.4833 11.5902 54.3422 12.0134 54.1541C11.6842 54.6478 11.261 55.071 10.7908 55.4237Z" fill="#1DA1F2"/>
<path d="M108.338 31.0852C108.338 27.7611 111.032 25.0663 114.356 25.0663H126.394C129.718 25.0663 132.413 27.7611 132.413 31.0852C132.413 34.4092 129.718 37.104 126.394 37.104H114.356C111.032 37.104 108.338 34.4092 108.338 31.0852Z" fill="#F1EFFF"/>
<path d="M120.375 31.0852C120.375 27.7611 123.069 25.0663 126.394 25.0663C129.718 25.0663 132.412 27.7611 132.412 31.0852C132.412 34.4092 129.718 37.104 126.394 37.104C123.069 37.104 120.375 34.4092 120.375 31.0852Z" fill="#432CF2"/>
<path d="M16.5884 35.9002V26.6313H17.992V34.788H22.2027V35.9002H16.5884Z" fill="#474B5B"/>
<path d="M24.4549 28.0878C24.1901 28.0878 23.9694 28.0084 23.7928 27.8495C23.6251 27.6818 23.5412 27.4743 23.5412 27.2271C23.5412 26.98 23.6251 26.7769 23.7928 26.618C23.9694 26.4503 24.1901 26.3665 24.4549 26.3665C24.7197 26.3665 24.936 26.4503 25.1037 26.618C25.2803 26.7769 25.3686 26.98 25.3686 27.2271C25.3686 27.4743 25.2803 27.6818 25.1037 27.8495C24.936 28.0084 24.7197 28.0878 24.4549 28.0878ZM23.7531 35.9002V29.3325H25.1567V35.9002H23.7531Z" fill="#474B5B"/>
<path d="M27.0096 35.9002V29.3325H28.2542L28.3602 30.4845C28.5632 30.0785 28.8589 29.7607 29.2473 29.5311C29.6446 29.2928 30.0992 29.1736 30.6112 29.1736C31.4057 29.1736 32.028 29.4208 32.4782 29.9151C32.9373 30.4095 33.1668 31.1466 33.1668 32.1265V35.9002H31.7764V32.2721C31.7764 31.0009 31.2556 30.3654 30.214 30.3654C29.6931 30.3654 29.2606 30.5507 28.9163 30.9215C28.5809 31.2922 28.4131 31.8219 28.4131 32.5105V35.9002H27.0096Z" fill="#474B5B"/>
<path d="M34.8199 35.9002V26.3665H36.2235V32.047L38.7393 29.3325H40.421L37.6271 32.3118L40.8315 35.9002H39.0571L36.2235 32.5369V35.9002H34.8199Z" fill="#474B5B"/>
<path d="M44.4867 36.0591C43.8423 36.0591 43.2685 35.9179 42.7653 35.6354C42.271 35.3441 41.8826 34.9425 41.6001 34.4305C41.3176 33.9185 41.1764 33.3226 41.1764 32.6429C41.1764 31.9543 41.3132 31.3496 41.5869 30.8288C41.8693 30.308 42.2578 29.9019 42.7521 29.6106C43.2553 29.3193 43.8379 29.1736 44.5 29.1736C45.1444 29.1736 45.7049 29.3193 46.1816 29.6106C46.6583 29.8931 47.0291 30.2727 47.2939 30.7494C47.5587 31.226 47.6911 31.7513 47.6911 32.3251C47.6911 32.4134 47.6867 32.5105 47.6779 32.6164C47.6779 32.7135 47.6735 32.8238 47.6647 32.9474H42.5535C42.5976 33.583 42.8051 34.0685 43.1758 34.404C43.5554 34.7306 43.9924 34.8939 44.4867 34.8939C44.884 34.8939 45.215 34.8056 45.4798 34.6291C45.7535 34.4437 45.9565 34.1965 46.0889 33.8876H47.4925C47.316 34.5055 46.9629 35.0219 46.4332 35.4368C45.9124 35.8517 45.2635 36.0591 44.4867 36.0591ZM44.4867 30.3256C44.0189 30.3256 43.604 30.4669 43.242 30.7494C42.8801 31.023 42.6594 31.4379 42.58 31.994H46.2875C46.2611 31.482 46.0801 31.076 45.7447 30.7758C45.4092 30.4757 44.9899 30.3256 44.4867 30.3256Z" fill="#474B5B"/>
<path d="M52.14 36.0591C51.5044 36.0591 50.9439 35.9091 50.4584 35.6089C49.9729 35.3088 49.5933 34.8983 49.3196 34.3775C49.046 33.8567 48.9091 33.2652 48.9091 32.6031C48.9091 31.9411 49.046 31.354 49.3196 30.842C49.5933 30.3212 49.9729 29.9151 50.4584 29.6238C50.9527 29.3237 51.5177 29.1736 52.1533 29.1736C52.6741 29.1736 53.1287 29.2751 53.5171 29.4782C53.9144 29.6812 54.2233 29.9681 54.444 30.3389V26.3665H55.8476V35.9002H54.5897L54.444 34.8807C54.2322 35.1896 53.9409 35.4633 53.5701 35.7016C53.1993 35.94 52.7227 36.0591 52.14 36.0591ZM52.3916 34.8409C52.9919 34.8409 53.4818 34.6335 53.8614 34.2186C54.2498 33.8037 54.444 33.2696 54.444 32.6164C54.444 31.9543 54.2498 31.4202 53.8614 31.0142C53.4818 30.5993 52.9919 30.3918 52.3916 30.3918C51.7913 30.3918 51.297 30.5993 50.9086 31.0142C50.5202 31.4202 50.326 31.9543 50.326 32.6164C50.326 33.0489 50.4142 33.4329 50.5908 33.7684C50.7673 34.1038 51.0101 34.3687 51.3191 34.5629C51.6369 34.7482 51.9944 34.8409 52.3916 34.8409Z" fill="#474B5B"/>
<path d="M58.4118 28.0878C58.147 28.0878 57.9263 28.0084 57.7497 27.8495C57.582 27.6818 57.4981 27.4743 57.4981 27.2271C57.4981 26.98 57.582 26.7769 57.7497 26.618C57.9263 26.4503 58.147 26.3665 58.4118 26.3665C58.6766 26.3665 58.8929 26.4503 59.0606 26.618C59.2372 26.7769 59.3254 26.98 59.3254 27.2271C59.3254 27.4743 59.2372 27.6818 59.0606 27.8495C58.8929 28.0084 58.6766 28.0878 58.4118 28.0878ZM57.71 35.9002V29.3325H59.1136V35.9002H57.71Z" fill="#474B5B"/>
<path d="M60.9664 35.9002V29.3325H62.2111L62.3171 30.4845C62.5201 30.0785 62.8158 29.7607 63.2042 29.5311C63.6015 29.2928 64.0561 29.1736 64.5681 29.1736C65.3626 29.1736 65.9849 29.4208 66.4351 29.9151C66.8942 30.4095 67.1237 31.1466 67.1237 32.1265V35.9002H65.7333V32.2721C65.7333 31.0009 65.2125 30.3654 64.1709 30.3654C63.65 30.3654 63.2175 30.5507 62.8732 30.9215C62.5378 31.2922 62.37 31.8219 62.37 32.5105V35.9002H60.9664Z" fill="#474B5B"/>
<path d="M9.78008 26.1196H0.728352C0.328665 26.1196 -0.000488281 26.4722 -0.000488281 26.8954V35.9001C-0.000488281 36.3233 0.328665 36.6525 0.728352 36.6525H9.78008C10.1798 36.6525 10.5324 36.3233 10.5324 35.9001V26.8954C10.5324 26.4722 10.1798 26.1196 9.78008 26.1196ZM3.17349 35.1478H1.62177V30.1399H3.17349V35.1478ZM2.39763 29.4346C1.88039 29.4346 1.4807 29.0349 1.4807 28.5412C1.4807 28.0475 1.88039 27.6243 2.39763 27.6243C2.89136 27.6243 3.29105 28.0475 3.29105 28.5412C3.29105 29.0349 2.89136 29.4346 2.39763 29.4346ZM9.02773 35.1478H7.45249V32.7026C7.45249 32.1384 7.45249 31.386 6.65312 31.386C5.83023 31.386 5.71268 32.0208 5.71268 32.6791V35.1478H4.16095V30.1399H5.64215V30.8218H5.66566C5.87725 30.4221 6.3945 29.9989 7.14685 29.9989C8.72208 29.9989 9.02773 31.0569 9.02773 32.397V35.1478Z" fill="#0077B5"/>
<path d="M0 8.21371V0.630006H3.15265C3.58601 0.630006 3.97603 0.734733 4.32271 0.944188C4.67662 1.15364 4.9583 1.43893 5.16775 1.80006C5.3772 2.16119 5.48193 2.56565 5.48193 3.01345C5.48193 3.46848 5.3772 3.88016 5.16775 4.24851C4.9583 4.60964 4.67662 4.89854 4.32271 5.11522C3.97603 5.3319 3.58601 5.44024 3.15265 5.44024H1.4084V8.21371H0ZM1.4084 4.14018H3.05515C3.23571 4.14018 3.39822 4.08962 3.54267 3.9885C3.69435 3.88739 3.81352 3.75377 3.90019 3.58765C3.99408 3.42153 4.04103 3.23374 4.04103 3.02429C4.04103 2.81483 3.99408 2.63066 3.90019 2.47176C3.81352 2.30564 3.69435 2.17564 3.54267 2.08174C3.39822 1.98063 3.23571 1.93007 3.05515 1.93007H1.4084V4.14018Z" fill="#122428"/>
<path d="M10.244 8.32204C9.70231 8.32204 9.20034 8.22454 8.7381 8.02953C8.27585 7.83452 7.87139 7.56367 7.52471 7.21699C7.18525 6.86308 6.92162 6.44779 6.73383 5.9711C6.54605 5.49441 6.45215 4.97438 6.45215 4.41102C6.45215 3.84766 6.54605 3.32764 6.73383 2.85095C6.92162 2.37426 7.18525 1.96257 7.52471 1.61589C7.87139 1.26198 8.27585 0.987523 8.7381 0.792514C9.20034 0.597505 9.70231 0.5 10.244 0.5C10.7929 0.5 11.2985 0.597505 11.7607 0.792514C12.223 0.987523 12.6238 1.26198 12.9633 1.61589C13.3028 1.96979 13.5664 2.38509 13.7542 2.86178C13.942 3.33125 14.0359 3.84766 14.0359 4.41102C14.0359 4.96716 13.942 5.48357 13.7542 5.96026C13.5664 6.43695 13.3028 6.85225 12.9633 7.20616C12.6238 7.56006 12.223 7.83452 11.7607 8.02953C11.2985 8.22454 10.7929 8.32204 10.244 8.32204ZM10.244 6.97865C10.5907 6.97865 10.9049 6.91725 11.1865 6.79447C11.4755 6.66446 11.7246 6.4839 11.9341 6.25278C12.1435 6.01443 12.306 5.73997 12.4216 5.4294C12.5444 5.11883 12.6058 4.77937 12.6058 4.41102C12.6058 4.04267 12.5444 3.70321 12.4216 3.39264C12.306 3.08207 12.1435 2.81122 11.9341 2.5801C11.7246 2.34176 11.4755 2.16119 11.1865 2.03841C10.9049 1.9084 10.5907 1.8434 10.244 1.8434C9.90454 1.8434 9.59036 1.9084 9.30146 2.03841C9.01256 2.16119 8.76338 2.33814 8.55392 2.56927C8.34447 2.80039 8.18196 3.07123 8.0664 3.38181C7.95084 3.69238 7.89306 4.03545 7.89306 4.41102C7.89306 4.77937 7.95084 5.12245 8.0664 5.44024C8.18196 5.75081 8.34447 6.02165 8.55392 6.25278C8.76338 6.4839 9.01256 6.66446 9.30146 6.79447C9.59036 6.91725 9.90454 6.97865 10.244 6.97865Z" fill="#122428"/>
<path d="M17.9682 8.32204C17.5276 8.32204 17.1232 8.26787 16.7548 8.15954C16.3865 8.04397 16.0542 7.87424 15.7581 7.65034C15.462 7.42644 15.1983 7.1556 14.9672 6.83781L15.8881 5.79776C16.242 6.28889 16.5887 6.62835 16.9282 6.81614C17.2676 7.00392 17.6504 7.09782 18.0765 7.09782C18.3221 7.09782 18.546 7.0617 18.7482 6.98948C18.9505 6.91003 19.1094 6.8053 19.2249 6.6753C19.3405 6.53807 19.3983 6.38278 19.3983 6.20944C19.3983 6.08666 19.373 5.97471 19.3224 5.87359C19.2791 5.76525 19.2105 5.67136 19.1166 5.59191C19.0227 5.50524 18.9071 5.42579 18.7699 5.35357C18.6327 5.28134 18.4774 5.21995 18.3041 5.16939C18.1307 5.11883 17.9393 5.07189 17.7299 5.02855C17.3326 4.9491 16.9859 4.84438 16.6898 4.71437C16.3937 4.57714 16.1445 4.41102 15.9423 4.21601C15.74 4.01378 15.592 3.78988 15.4981 3.54431C15.4042 3.29152 15.3572 3.00623 15.3572 2.68844C15.3572 2.37065 15.4259 2.07813 15.5631 1.8109C15.7075 1.54366 15.9025 1.31254 16.1481 1.11753C16.3937 0.92252 16.679 0.770846 17.004 0.662508C17.329 0.554169 17.6793 0.5 18.0549 0.5C18.481 0.5 18.8602 0.550558 19.1924 0.651674C19.5319 0.75279 19.828 0.904464 20.0808 1.1067C20.3408 1.30171 20.5539 1.54005 20.72 1.82173L19.7883 2.74261C19.6438 2.51871 19.4813 2.33453 19.3008 2.19008C19.1202 2.03841 18.9252 1.92646 18.7157 1.85423C18.5063 1.77478 18.286 1.73506 18.0549 1.73506C17.7949 1.73506 17.5674 1.77117 17.3723 1.8434C17.1846 1.91562 17.0365 2.02035 16.9282 2.15758C16.8198 2.28759 16.7656 2.44648 16.7656 2.63427C16.7656 2.77872 16.7981 2.90873 16.8632 3.02429C16.9282 3.13263 17.0184 3.23013 17.134 3.3168C17.2568 3.40347 17.4121 3.47931 17.5999 3.54431C17.7876 3.60932 18.0007 3.6671 18.2391 3.71765C18.6363 3.7971 18.9938 3.90544 19.3116 4.04267C19.6294 4.17268 19.9002 4.33157 20.1241 4.51936C20.348 4.69992 20.5178 4.90938 20.6333 5.14772C20.7489 5.37885 20.8067 5.63886 20.8067 5.92776C20.8067 6.42612 20.6875 6.85586 20.4492 7.21699C20.218 7.5709 19.8894 7.84535 19.4633 8.04036C19.0371 8.22815 18.5388 8.32204 17.9682 8.32204Z" fill="#122428"/>
<path d="M23.8721 8.21371V1.93007H21.7054V0.630006H27.5123V1.93007H25.2806V8.21371H23.8721Z" fill="#122428"/>
<path d="M28.6663 8.21371V6.96781H29.9122V1.8759H28.6663V0.630006H32.5665V1.8759H31.3206V6.96781H32.5665V8.21371H28.6663Z" fill="#122428"/>
<path d="M34.3636 8.21371V0.630006H35.6312L40.0297 6.55612L39.7914 6.59946C39.7625 6.39723 39.7372 6.19139 39.7156 5.98193C39.6939 5.76525 39.6722 5.54135 39.6506 5.31023C39.6361 5.07911 39.6217 4.83715 39.6072 4.58436C39.6 4.33157 39.5928 4.06795 39.5856 3.79349C39.5783 3.51181 39.5747 3.21569 39.5747 2.90512V0.630006H40.9723V8.21371H39.6831L35.2628 2.37426L35.5445 2.29842C35.5806 2.70288 35.6095 3.04957 35.6312 3.33847C35.6601 3.62015 35.6818 3.86572 35.6962 4.07517C35.7106 4.2774 35.7215 4.44713 35.7287 4.58436C35.7431 4.72159 35.7504 4.84799 35.7504 4.96355C35.7576 5.07189 35.7612 5.17661 35.7612 5.27773V8.21371H34.3636Z" fill="#122428"/>
<path d="M46.4526 8.32204C45.882 8.32204 45.3548 8.22454 44.8709 8.02953C44.387 7.8273 43.9644 7.54923 43.6033 7.19532C43.2494 6.84142 42.9749 6.42973 42.7799 5.96026C42.5849 5.48357 42.4874 4.96716 42.4874 4.41102C42.4874 3.86211 42.5849 3.35292 42.7799 2.88345C42.9822 2.40676 43.2638 1.99507 43.625 1.64839C43.9861 1.29448 44.4086 1.02002 44.8925 0.825015C45.3837 0.630006 45.9109 0.532501 46.4743 0.532501C46.8715 0.532501 47.2543 0.58667 47.6227 0.695009C47.991 0.803348 48.3233 0.955022 48.6194 1.15003C48.9155 1.34504 49.1611 1.56533 49.3561 1.8109L48.4677 2.74261C48.2655 2.5476 48.056 2.38509 47.8393 2.25508C47.6299 2.12508 47.4096 2.02396 47.1785 1.95174C46.9474 1.87951 46.709 1.8434 46.4634 1.8434C46.1023 1.8434 45.7665 1.9084 45.4559 2.03841C45.1525 2.16841 44.8853 2.34898 44.6542 2.5801C44.4303 2.81122 44.2533 3.08207 44.1233 3.39264C43.9933 3.70321 43.9283 4.04267 43.9283 4.41102C43.9283 4.76493 43.9933 5.10078 44.1233 5.41857C44.2606 5.73636 44.4483 6.01443 44.6867 6.25278C44.925 6.49112 45.1995 6.67891 45.5101 6.81614C45.8279 6.94614 46.1637 7.01115 46.5176 7.01115C46.7849 7.01115 47.034 6.97142 47.2652 6.89197C47.4963 6.81253 47.7021 6.70419 47.8827 6.56696C48.0632 6.42251 48.2005 6.25639 48.2944 6.0686C48.3955 5.88081 48.446 5.67858 48.446 5.46191V5.22356L48.6411 5.45107H46.3984V4.19434H49.8328C49.8472 4.27379 49.8581 4.36407 49.8653 4.46519C49.8725 4.55908 49.8761 4.65298 49.8761 4.74687C49.8833 4.83354 49.8869 4.90938 49.8869 4.97438C49.8869 5.47274 49.8003 5.92776 49.6269 6.33945C49.4536 6.74391 49.208 7.09421 48.8902 7.39033C48.5797 7.68646 48.2149 7.91758 47.796 8.0837C47.3843 8.2426 46.9365 8.32204 46.4526 8.32204Z" fill="#122428"/>
<path d="M56.0669 8.21371V1.93007H53.9001V0.630006H59.7071V1.93007H57.4753V8.21371H56.0669Z" fill="#122428"/>
<path d="M64.0324 8.32204C63.4907 8.32204 62.9887 8.22454 62.5265 8.02953C62.0643 7.83452 61.6598 7.56367 61.3131 7.21699C60.9736 6.86308 60.71 6.44779 60.5222 5.9711C60.3344 5.49441 60.2406 4.97438 60.2406 4.41102C60.2406 3.84766 60.3344 3.32764 60.5222 2.85095C60.71 2.37426 60.9736 1.96257 61.3131 1.61589C61.6598 1.26198 62.0643 0.987523 62.5265 0.792514C62.9887 0.597505 63.4907 0.5 64.0324 0.5C64.5813 0.5 65.0869 0.597505 65.5491 0.792514C66.0114 0.987523 66.4122 1.26198 66.7517 1.61589C67.0912 1.96979 67.3548 2.38509 67.5426 2.86178C67.7304 3.33125 67.8243 3.84766 67.8243 4.41102C67.8243 4.96716 67.7304 5.48357 67.5426 5.96026C67.3548 6.43695 67.0912 6.85225 66.7517 7.20616C66.4122 7.56006 66.0114 7.83452 65.5491 8.02953C65.0869 8.22454 64.5813 8.32204 64.0324 8.32204ZM64.0324 6.97865C64.3791 6.97865 64.6933 6.91725 64.975 6.79447C65.2639 6.66446 65.513 6.4839 65.7225 6.25278C65.9319 6.01443 66.0945 5.73997 66.21 5.4294C66.3328 5.11883 66.3942 4.77937 66.3942 4.41102C66.3942 4.04267 66.3328 3.70321 66.21 3.39264C66.0945 3.08207 65.9319 2.81122 65.7225 2.5801C65.513 2.34176 65.2639 2.16119 64.975 2.03841C64.6933 1.9084 64.3791 1.8434 64.0324 1.8434C63.6929 1.8434 63.3788 1.9084 63.0899 2.03841C62.801 2.16119 62.5518 2.33814 62.3423 2.56927C62.1329 2.80039 61.9704 3.07123 61.8548 3.38181C61.7392 3.69238 61.6815 4.03545 61.6815 4.41102C61.6815 4.77937 61.7392 5.12245 61.8548 5.44024C61.9704 5.75081 62.1329 6.02165 62.3423 6.25278C62.5518 6.4839 62.801 6.66446 63.0899 6.79447C63.3788 6.91725 63.6929 6.97865 64.0324 6.97865Z" fill="#122428"/>
<path d="M69.4107 8.33288C69.1507 8.33288 68.9485 8.25704 68.804 8.10537C68.6668 7.95369 68.5982 7.74063 68.5982 7.46617C68.5982 7.21338 68.6704 7.00754 68.8149 6.84864C68.9666 6.68252 69.1652 6.59946 69.4107 6.59946C69.6708 6.59946 69.8694 6.6753 70.0066 6.82697C70.1511 6.97142 70.2233 7.18449 70.2233 7.46617C70.2233 7.71896 70.1474 7.92841 69.9958 8.09453C69.8513 8.25343 69.6563 8.33288 69.4107 8.33288Z" fill="#122428"/>
<path d="M71.9922 8.33288C71.7322 8.33288 71.53 8.25704 71.3856 8.10537C71.2483 7.95369 71.1797 7.74063 71.1797 7.46617C71.1797 7.21338 71.2519 7.00754 71.3964 6.84864C71.5481 6.68252 71.7467 6.59946 71.9922 6.59946C72.2523 6.59946 72.4509 6.6753 72.5881 6.82697C72.7326 6.97142 72.8048 7.18449 72.8048 7.46617C72.8048 7.71896 72.7289 7.92841 72.5773 8.09453C72.4328 8.25343 72.2378 8.33288 71.9922 8.33288Z" fill="#122428"/>
<path d="M74.5737 8.33288C74.3137 8.33288 74.1115 8.25704 73.9671 8.10537C73.8298 7.95369 73.7612 7.74063 73.7612 7.46617C73.7612 7.21338 73.8334 7.00754 73.9779 6.84864C74.1296 6.68252 74.3282 6.59946 74.5737 6.59946C74.8338 6.59946 75.0324 6.6753 75.1696 6.82697C75.3141 6.97142 75.3863 7.18449 75.3863 7.46617C75.3863 7.71896 75.3104 7.92841 75.1588 8.09453C75.0143 8.25343 74.8193 8.33288 74.5737 8.33288Z" fill="#122428"/>
</svg>
