<svg width="304" height="658" viewBox="0 0 304 658" fill="none" xmlns="http://www.w3.org/2000/svg">
<path fill-rule="evenodd" clip-rule="evenodd" d="M299.892 151.242H300.595C301.371 151.242 302 151.921 302 152.758V225.485C302 226.322 301.371 227 300.595 227H299.892V151.242Z" fill="#121515"/>
<path fill-rule="evenodd" clip-rule="evenodd" d="M2 196.697C2 195.86 2.62911 195.182 3.40515 195.182H4.10773V242.909H3.40515C2.62911 242.909 2 242.231 2 241.394V196.697Z" fill="#121515"/>
<path fill-rule="evenodd" clip-rule="evenodd" d="M2 136.849C2 136.012 2.62911 135.333 3.40515 135.333H4.10773V183.061H3.40515C2.62911 183.061 2 182.382 2 181.546V136.849Z" fill="#121515"/>
<path fill-rule="evenodd" clip-rule="evenodd" d="M2 90.6364C2 89.7996 2.62911 89.1213 3.40515 89.1213H4.10773V114.121H3.40515C2.62911 114.121 2 113.443 2 112.606V90.6364Z" fill="#121515"/>
<g filter="url(#filter0_dd_0_15659)">
<path fill-rule="evenodd" clip-rule="evenodd" d="M4.10791 49.7273C4.10791 23.3682 23.9248 2 48.3702 2H255.63C280.076 2 299.892 23.3682 299.892 49.7273V604.273C299.892 630.632 280.076 652 255.63 652H48.3702C23.9248 652 4.10791 630.632 4.10791 604.273V49.7273Z" fill="#3A4245"/>
</g>
<path fill-rule="evenodd" clip-rule="evenodd" d="M7.62061 49.7274C7.62061 25.4603 25.8647 5.78796 48.37 5.78796H255.63C278.135 5.78796 296.379 25.4603 296.379 49.7274V604.273C296.379 628.54 278.135 648.212 255.63 648.212H48.37C25.8647 648.212 7.62061 628.54 7.62061 604.273V49.7274Z" fill="#121515"/>
<path fill-rule="evenodd" clip-rule="evenodd" d="M183.967 32.3032C187.071 32.3032 189.588 29.5897 189.588 26.2426C189.588 22.8954 187.071 20.1819 183.967 20.1819C180.863 20.1819 178.347 22.8954 178.347 26.2426C178.347 29.5897 180.863 32.3032 183.967 32.3032Z" fill="#262C2D"/>
<path fill-rule="evenodd" clip-rule="evenodd" d="M183.967 30.0304C185.907 30.0304 187.48 28.3345 187.48 26.2425C187.48 24.1505 185.907 22.4547 183.967 22.4547C182.027 22.4547 180.454 24.1505 180.454 26.2425C180.454 28.3345 182.027 30.0304 183.967 30.0304Z" fill="#121515"/>
<path opacity="0.4" fill-rule="evenodd" clip-rule="evenodd" d="M183.967 25.485C184.355 25.485 184.67 25.1458 184.67 24.7274C184.67 24.309 184.355 23.9698 183.967 23.9698C183.579 23.9698 183.265 24.309 183.265 24.7274C183.265 25.1458 183.579 25.485 183.967 25.485Z" fill="#636F73"/>
<path fill-rule="evenodd" clip-rule="evenodd" d="M134.084 26.2423C134.084 24.9871 135.102 23.9696 136.357 23.9696H167.643C168.898 23.9696 169.916 24.9871 169.916 26.2423C169.916 27.4975 168.898 28.5151 167.643 28.5151H136.357C135.102 28.5151 134.084 27.4975 134.084 26.2423Z" fill="#262C2D"/>
<defs>
<filter id="filter0_dd_0_15659" x="0.10791" y="0" width="303.785" height="658" filterUnits="userSpaceOnUse" color-interpolation-filters="sRGB">
<feFlood flood-opacity="0" result="BackgroundImageFix"/>
<feColorMatrix in="SourceAlpha" type="matrix" values="0 0 0 0 0 0 0 0 0 0 0 0 0 0 0 0 0 0 127 0" result="hardAlpha"/>
<feOffset/>
<feGaussianBlur stdDeviation="1"/>
<feColorMatrix type="matrix" values="0 0 0 0 0 0 0 0 0 0.0823529 0 0 0 0 0.25098 0 0 0 0.14 0"/>
<feBlend mode="normal" in2="BackgroundImageFix" result="effect1_dropShadow_0_15659"/>
<feColorMatrix in="SourceAlpha" type="matrix" values="0 0 0 0 0 0 0 0 0 0 0 0 0 0 0 0 0 0 127 0" result="hardAlpha"/>
<feOffset dy="2"/>
<feGaussianBlur stdDeviation="2"/>
<feColorMatrix type="matrix" values="0 0 0 0 0 0 0 0 0 0.0823529 0 0 0 0 0.25098 0 0 0 0.05 0"/>
<feBlend mode="normal" in2="effect1_dropShadow_0_15659" result="effect2_dropShadow_0_15659"/>
<feBlend mode="normal" in="SourceGraphic" in2="effect2_dropShadow_0_15659" result="shape"/>
</filter>
</defs>
</svg>
