<svg width="392" height="424" fill="none" xmlns="http://www.w3.org/2000/svg"><g filter="url(#filter0_d_0_4804)"><path d="M50 66.088c0-8.355 6.774-15.128 15.129-15.128h261.728c8.356 0 15.129 6.773 15.129 15.128v292.743c0 8.355-6.773 15.128-15.129 15.128H65.129c-8.355 0-15.129-6.773-15.129-15.128V66.088z" fill="#fff"/></g><path fill-rule="evenodd" clip-rule="evenodd" d="M326.857 51.716H65.129c-7.938 0-14.372 6.435-14.372 14.372v292.743c0 7.937 6.434 14.372 14.372 14.372h261.728c7.938 0 14.373-6.435 14.373-14.372V66.088c0-7.937-6.435-14.372-14.373-14.372zm-261.728-.757C56.774 50.96 50 57.733 50 66.09v292.74c0 8.355 6.774 15.128 15.129 15.128h261.728c8.356 0 15.129-6.773 15.129-15.128V66.088c0-8.355-6.773-15.128-15.129-15.128H65.129z" fill="#E9EDF7"/><path d="M83.76 88.781h-2.496l-.699-2.096h-4.643l-.699 2.096h-2.48l4.078-11.649h2.845l4.094 11.65zm-5.508-9.003l-1.598 4.76h3.195l-1.597-4.76zm11.166.45c.92 0 1.67.305 2.246.915.6.621.9 1.464.9 2.53v5.108h-2.148V83.94c0-.544-.15-.965-.449-1.265-.288-.3-.688-.45-1.198-.45-.566 0-1.015.178-1.348.533-.322.344-.483.854-.483 1.531v4.493h-2.147v-8.32h2.147v.931c.51-.776 1.337-1.164 2.48-1.164zm11.302 1.214v-.981h2.147v8.32h-2.147V87.8c-.643.81-1.548 1.214-2.713 1.214-1.109 0-2.063-.421-2.862-1.264-.788-.855-1.181-1.897-1.181-3.129 0-1.22.393-2.258 1.181-3.112.799-.854 1.753-1.281 2.862-1.281 1.165 0 2.07.404 2.713 1.214zm-3.96 4.877c.432.432.981.648 1.647.648s1.215-.216 1.647-.648c.444-.444.666-1.01.666-1.698s-.222-1.248-.666-1.68c-.432-.445-.981-.666-1.647-.666s-1.215.221-1.648.665c-.432.433-.649.993-.649 1.681 0 .688.217 1.254.65 1.698zm10.2 2.462h-2.146V76.633h2.146v12.148zm5.543-2.729l1.847-5.591h2.297l-3.029 8.32c-.433 1.199-1.009 2.064-1.731 2.596-.71.544-1.597.788-2.662.733v-1.997c.566.01 1.02-.111 1.364-.366.344-.255.616-.666.816-1.232l-3.412-8.054h2.347l2.163 5.591zm9.925-5.592v2.064h-1.88v3.462c0 .288.072.499.216.632.144.133.355.21.632.233.278.011.622.005 1.032-.017v1.947c-1.453.167-2.491.034-3.112-.399-.61-.444-.915-1.243-.915-2.396v-3.462h-1.448v-2.063h1.448V78.78l2.147-.65v2.33h1.88zm2.579-.998a1.304 1.304 0 01-1.315-1.315c0-.355.128-.665.383-.931.266-.267.577-.4.932-.4.366 0 .677.133.932.4.266.266.399.576.399.931 0 .355-.133.666-.399.932a1.268 1.268 0 01-.932.383zm1.081 9.32h-2.146V80.46h2.146v8.32zm5.926.232c-1.254 0-2.302-.421-3.145-1.264-.832-.844-1.248-1.886-1.248-3.129s.416-2.285 1.248-3.129c.843-.843 1.891-1.264 3.145-1.264.81 0 1.548.194 2.213.582.666.388 1.171.91 1.515 1.564l-1.847 1.082a1.875 1.875 0 00-.766-.815c-.333-.2-.71-.3-1.132-.3-.643 0-1.176.216-1.597.65-.422.42-.633.964-.633 1.63 0 .644.211 1.187.633 1.63.421.422.954.633 1.597.633a2.29 2.29 0 001.149-.283c.344-.2.599-.471.765-.815l1.864 1.065a4.04 4.04 0 01-1.564 1.581 4.282 4.282 0 01-2.197.582zm6.861-6.19c0 .355.504.66 1.514.915.355.078.677.172.965.283.289.1.577.25.866.45.299.188.532.443.699.765.166.322.249.693.249 1.115 0 .854-.322 1.514-.965 1.98-.644.455-1.437.682-2.38.682-1.708 0-2.873-.66-3.495-1.98l1.864-1.048c.255.72.799 1.081 1.631 1.081.766 0 1.148-.238 1.148-.715 0-.355-.504-.66-1.514-.916-.377-.1-.699-.2-.965-.3a5.265 5.265 0 01-.866-.432c-.31-.2-.549-.45-.715-.749a2.393 2.393 0 01-.233-1.081c0-.821.299-1.465.899-1.93.61-.478 1.364-.716 2.263-.716a3.71 3.71 0 011.847.466c.555.3.993.732 1.315 1.298l-1.831.998c-.266-.566-.71-.849-1.331-.849a1.18 1.18 0 00-.699.2.56.56 0 00-.266.483zm.506 258.608h-1.198l-.69-1.9h-3.812l-.69 1.9h-1.198l3.158-8.472h1.271l3.159 8.472zm-3.8-7.128l-1.513 4.175h3.038l-1.525-4.175zm7.393 7.286c-.912 0-1.67-.303-2.275-.908-.605-.613-.908-1.372-.908-2.275 0-.904.303-1.658.908-2.264.605-.613 1.363-.919 2.275-.919.597 0 1.134.145 1.61.435.476.283.831.666 1.065 1.15l-.884.508a1.78 1.78 0 00-.714-.774 2.007 2.007 0 00-1.077-.291c-.605 0-1.113.206-1.525.618-.403.419-.605.932-.605 1.537 0 .597.202 1.105.605 1.525.412.411.92.617 1.525.617.404 0 .767-.093 1.089-.278a1.95 1.95 0 00.739-.775l.895.52a2.953 2.953 0 01-1.125 1.15 3.109 3.109 0 01-1.598.424zm7.055-6.209v1.017h-1.61v3.28c0 .298.057.512.17.641.121.121.302.186.544.194.242 0 .541-.008.896-.025v.944c-.928.121-1.606.045-2.033-.23-.42-.274-.63-.782-.63-1.524v-3.28h-1.198v-1.017h1.198v-1.38l1.053-.314v1.694h1.61zm1.779-1.101a.69.69 0 01-.508-.206.677.677 0 01-.206-.496.68.68 0 01.206-.497.67.67 0 01.508-.218c.194 0 .359.073.496.218a.68.68 0 01.206.497.677.677 0 01-.206.496.676.676 0 01-.496.206zm.521 7.152h-1.053v-6.051h1.053v6.051zm3.942-1.125l1.9-4.926h1.138l-2.421 6.051h-1.234l-2.421-6.051h1.138l1.9 4.926zm9.501-1.416h-5.071c.105.532.351.952.738 1.259.388.298.872.447 1.453.447.799 0 1.379-.294 1.743-.883l.895.508c-.597.912-1.484 1.368-2.662 1.368-.953 0-1.735-.299-2.348-.896-.598-.613-.896-1.376-.896-2.287 0-.92.294-1.679.883-2.276.589-.605 1.352-.907 2.288-.907.887 0 1.61.314 2.166.944.565.613.848 1.363.848 2.251 0 .153-.013.31-.037.472zm-2.977-2.675c-.557 0-1.025.157-1.404.472-.371.315-.601.742-.69 1.283h4.043c-.089-.557-.311-.988-.666-1.295-.355-.307-.783-.46-1.283-.46z" fill="#122428"/><path d="M112.785 337.272a5.673 5.673 0 1111.346 0 5.673 5.673 0 01-11.346 0z" fill="#F40C60"/><path d="M220.55 341.59c-1.291 0-2.352-.424-3.183-1.271-.831-.839-1.246-1.88-1.246-3.123 0-1.242.415-2.283 1.246-3.122.831-.847 1.892-1.271 3.183-1.271a4.24 4.24 0 012.13.557 3.999 3.999 0 011.525 1.501l-.98.568a2.676 2.676 0 00-1.089-1.113 3.045 3.045 0 00-1.586-.424c-.984 0-1.783.315-2.396.944-.613.622-.92 1.408-.92 2.36 0 .944.307 1.727.92 2.348.613.63 1.412.944 2.396.944.581 0 1.11-.137 1.586-.411a2.774 2.774 0 001.089-1.114l.98.557a3.996 3.996 0 01-1.513 1.513 4.22 4.22 0 01-2.142.557zm9.905-.92c-.613.613-1.368.92-2.263.92-.896 0-1.65-.307-2.263-.92-.614-.613-.92-1.368-.92-2.263 0-.896.306-1.65.92-2.264.613-.613 1.367-.919 2.263-.919.895 0 1.65.306 2.263.919.621.622.932 1.376.932 2.264 0 .887-.311 1.642-.932 2.263zm-2.263-.109c.605 0 1.113-.206 1.525-.617.411-.412.617-.924.617-1.537 0-.614-.206-1.126-.617-1.537-.412-.412-.92-.618-1.525-.618-.597 0-1.102.206-1.513.618-.412.411-.617.923-.617 1.537 0 .613.205 1.125.617 1.537.411.411.916.617 1.513.617zm10.972-5.337c.686 0 1.234.222 1.646.665.42.444.629 1.037.629 1.779v3.764h-1.053v-3.727c0-.46-.121-.819-.363-1.077-.234-.267-.556-.4-.968-.4-.468 0-.835.158-1.101.472-.259.307-.388.763-.388 1.368v3.364h-1.053v-3.727c0-.46-.117-.819-.351-1.077-.226-.267-.536-.4-.932-.4-.459 0-.835.162-1.125.484-.283.315-.424.767-.424 1.356v3.364h-1.053v-6.051h1.053v.811c.412-.646 1.013-.968 1.804-.968.815 0 1.408.343 1.779 1.028.419-.685 1.053-1.028 1.9-1.028zm7.076 0c.847 0 1.569.31 2.166.932.597.621.896 1.371.896 2.251 0 .887-.299 1.642-.896 2.263a2.888 2.888 0 01-2.166.92c-1.001 0-1.763-.4-2.288-1.198v3.461h-1.053v-8.472h1.053v1.041c.525-.799 1.287-1.198 2.288-1.198zm-.133 5.349c.605 0 1.113-.206 1.525-.617.411-.428.617-.944.617-1.549 0-.614-.206-1.126-.617-1.537-.412-.42-.92-.63-1.525-.63-.614 0-1.126.21-1.537.63-.412.411-.618.923-.618 1.537 0 .605.206 1.121.618 1.549.411.411.923.617 1.537.617zm5.504.859h-1.053v-8.835h1.053v8.835zm7.416-2.541h-5.071c.105.532.351.952.738 1.259.388.298.872.447 1.453.447.798 0 1.379-.294 1.742-.883l.896.508c-.597.912-1.485 1.368-2.663 1.368-.952 0-1.734-.299-2.348-.896-.597-.613-.895-1.376-.895-2.287 0-.92.294-1.679.883-2.276.589-.605 1.352-.907 2.288-.907.887 0 1.609.314 2.166.944.565.613.847 1.363.847 2.251 0 .153-.012.31-.036.472zm-2.977-2.675c-.557 0-1.025.157-1.404.472-.371.315-.601.742-.69 1.283h4.042c-.088-.557-.31-.988-.665-1.295-.355-.307-.783-.46-1.283-.46zm7.339-.835v1.017h-1.61v3.28c0 .298.056.512.169.641.121.121.303.186.545.194.242 0 .541-.008.896-.025v.944c-.928.122-1.606.045-2.034-.229-.419-.275-.629-.783-.629-1.525v-3.28h-1.198v-1.017h1.198v-1.38l1.053-.314v1.694h1.61zm6.748 3.51h-5.071c.105.532.351.952.738 1.259.388.298.872.447 1.453.447.799 0 1.38-.294 1.743-.883l.895.508c-.597.912-1.484 1.368-2.662 1.368-.952 0-1.735-.299-2.348-.896-.597-.613-.896-1.376-.896-2.287 0-.92.295-1.679.884-2.276.589-.605 1.351-.907 2.287-.907.888 0 1.61.314 2.166.944.565.613.848 1.363.848 2.251 0 .153-.012.31-.037.472zm-2.977-2.675c-.557 0-1.025.157-1.404.472-.371.315-.601.742-.69 1.283h4.043c-.089-.557-.311-.988-.666-1.295-.355-.307-.783-.46-1.283-.46zm9.223.206v-3.462h1.053v8.472h-1.053v-1.04c-.516.798-1.279 1.198-2.288 1.198a2.888 2.888 0 01-2.166-.92c-.597-.621-.896-1.376-.896-2.263 0-.88.299-1.63.896-2.251.597-.622 1.319-.932 2.166-.932 1.009 0 1.772.399 2.288 1.198zm-2.154 4.151c.613 0 1.125-.206 1.537-.617.411-.428.617-.944.617-1.549 0-.614-.206-1.126-.617-1.537-.412-.42-.924-.63-1.537-.63-.606 0-1.114.21-1.525.63-.412.411-.618.923-.618 1.537 0 .605.206 1.121.618 1.549.411.411.919.617 1.525.617z" fill="#122428"/><path d="M196.75 337.272a5.673 5.673 0 1111.346 0 5.673 5.673 0 01-11.346 0z" fill="#208BEE"/><path opacity=".4" fill-rule="evenodd" clip-rule="evenodd" d="M195.237 140.976c-39.688 0-71.862 32.173-71.862 71.862 0 39.688 32.174 71.861 71.862 71.861 39.688 0 71.862-32.173 71.862-71.861 0-39.689-32.174-71.862-71.862-71.862zm-79.426 71.862c0-43.866 35.56-79.427 79.426-79.427s79.426 35.561 79.426 79.427c0 43.866-35.56 79.426-79.426 79.426s-79.426-35.56-79.426-79.426z" fill="#DEE0E6"/><path fill-rule="evenodd" clip-rule="evenodd" d="M188.513 128.384a84.719 84.719 0 0191.445 84.454 9.077 9.077 0 01-9.077 9.077 9.077 9.077 0 01-9.078-9.077 66.567 66.567 0 10-86.984 63.358 9.078 9.078 0 01-5.568 17.279 84.72 84.72 0 0119.262-165.091z" fill="#208BEE"/><path fill-rule="evenodd" clip-rule="evenodd" d="M169.056 132.263a84.724 84.724 0 0175.979 12.034 84.718 84.718 0 0134.923 68.541 9.077 9.077 0 01-9.077 9.077 9.077 9.077 0 01-9.078-9.077 66.57 66.57 0 00-27.439-53.854 66.562 66.562 0 00-102.436 33.283 66.575 66.575 0 009.455 59.698 9.077 9.077 0 01-14.687 10.671 84.724 84.724 0 0142.36-130.373z" fill="#F40C60"/><path d="M176.25 202.853c2.446 1.462 3.669 3.593 3.669 6.392 0 2.446-.858 4.374-2.572 5.786-1.69 1.412-3.997 2.118-6.922 2.118-2.95 0-5.27-.706-6.959-2.118s-2.534-3.34-2.534-5.786c0-2.774 1.21-4.905 3.631-6.392-1.841-1.311-2.761-3.139-2.761-5.484 0-2.446.819-4.35 2.458-5.712 1.664-1.361 3.719-2.042 6.165-2.042 2.471 0 4.514.681 6.127 2.042 1.639 1.362 2.459 3.266 2.459 5.712 0 2.345-.921 4.173-2.761 5.484zm-2.421-5.22c0-.958-.315-1.714-.945-2.269-.631-.555-1.45-.832-2.459-.832-1.008 0-1.828.277-2.458.832-.631.555-.946 1.311-.946 2.269 0 .984.315 1.753.946 2.307.63.555 1.45.833 2.458.833 1.009 0 1.828-.278 2.459-.833.63-.554.945-1.323.945-2.307zm-.265 13.616c.782-.655 1.173-1.55 1.173-2.685s-.391-2.017-1.173-2.648c-.781-.655-1.828-.983-3.139-.983-1.311 0-2.357.328-3.139.983-.782.631-1.172 1.513-1.172 2.648 0 1.135.39 2.03 1.172 2.685.782.656 1.828.984 3.139.984 1.311 0 2.358-.328 3.139-.984zm18.774 5.9c-3.303 0-5.9-1.248-7.792-3.744-1.865-2.547-2.798-5.888-2.798-10.023s.933-7.463 2.798-9.985c1.892-2.521 4.489-3.782 7.792-3.782 3.353 0 5.95 1.261 7.791 3.782 1.866 2.522 2.799 5.85 2.799 9.985s-.933 7.476-2.799 10.023c-1.841 2.496-4.438 3.744-7.791 3.744zm5.408-13.767c0-2.824-.466-4.98-1.399-6.467-.908-1.488-2.244-2.232-4.009-2.232-1.765 0-3.102.744-4.009 2.232-.908 1.487-1.362 3.643-1.362 6.467s.454 4.98 1.362 6.468c.907 1.462 2.244 2.194 4.009 2.194 1.765 0 3.101-.744 4.009-2.232.933-1.488 1.399-3.631 1.399-6.43zm17.639-3.063c-1.236 1.185-2.749 1.777-4.539 1.777-1.815 0-3.341-.605-4.576-1.815-1.211-1.21-1.816-2.686-1.816-4.425 0-1.74.605-3.215 1.816-4.425 1.26-1.211 2.786-1.816 4.576-1.816 1.815 0 3.328.605 4.539 1.816 1.21 1.159 1.815 2.634 1.815 4.425 0 1.765-.605 3.252-1.815 4.463zm-5.976 13.616l-2.27-1.324 17.247-19.176 2.307 1.286-17.284 19.214zm-.303-16.34c.454.454 1.021.681 1.702.681s1.248-.227 1.702-.681c.454-.479.681-1.059.681-1.739 0-.681-.227-1.248-.681-1.702-.454-.454-1.021-.681-1.702-.681s-1.248.227-1.702.681c-.428.454-.643 1.021-.643 1.702 0 .68.215 1.26.643 1.739zm20.878 13.238c0 1.74-.605 3.215-1.816 4.425-1.21 1.211-2.723 1.816-4.538 1.816-1.816 0-3.328-.605-4.539-1.816-1.21-1.21-1.815-2.685-1.815-4.425 0-1.74.605-3.215 1.815-4.425 1.211-1.21 2.723-1.815 4.539-1.815 1.815 0 3.328.605 4.538 1.815 1.211 1.21 1.816 2.685 1.816 4.425zm-4.69 1.74c.454-.479.681-1.059.681-1.74s-.227-1.248-.681-1.702c-.429-.479-.983-.718-1.664-.718-.681 0-1.248.239-1.702.718-.429.454-.643 1.021-.643 1.702s.214 1.261.643 1.74c.454.454 1.021.681 1.702.681s1.235-.227 1.664-.681z" fill="#122428"/><path d="M156.147 228.269h6.876v1.198h-2.819v8.333h-1.252v-8.333h-2.805v-1.198zm8.26 2.723v1.144c.391-.844 1.099-1.266 2.124-1.266v1.239c-.581-.027-1.08.127-1.497.463-.418.336-.627.876-.627 1.62v3.608h-1.184v-6.808h1.184zm8.548 1.171v-1.171h1.185v6.808h-1.185v-1.171c-.581.899-1.439 1.348-2.573 1.348-.963 0-1.775-.345-2.438-1.035-.671-.699-1.007-1.547-1.007-2.546 0-.989.336-1.833 1.007-2.532.672-.699 1.485-1.049 2.438-1.049 1.134 0 1.992.45 2.573 1.348zm-2.424 4.671c.69 0 1.267-.232 1.73-.695a2.422 2.422 0 00.694-1.743c0-.69-.231-1.266-.694-1.729-.463-.472-1.04-.708-1.73-.708-.68 0-1.252.236-1.715.708-.463.463-.695 1.039-.695 1.729 0 .681.232 1.262.695 1.743.463.463 1.035.695 1.715.695zm8.794-6.019c.799 0 1.439.254 1.92.763.481.499.721 1.18.721 2.042v4.18h-1.184v-4.112c0-.544-.15-.971-.45-1.28-.299-.308-.712-.463-1.239-.463-.608 0-1.089.191-1.443.572-.354.372-.531.931-.531 1.675v3.608h-1.185v-6.808h1.185v.981c.472-.772 1.207-1.158 2.206-1.158zm5.316 2.015c0 .436.449.777 1.348 1.022a6.6 6.6 0 01.844.231c.236.073.49.186.763.34.281.155.495.359.64.613.145.254.218.554.218.899 0 .617-.241 1.112-.722 1.484-.481.372-1.089.558-1.825.558-.653 0-1.22-.14-1.702-.422a2.425 2.425 0 01-1.007-1.171l1.021-.585c.109.326.313.585.613.776.299.19.658.286 1.075.286.409 0 .736-.077.981-.232.245-.154.367-.386.367-.694 0-.463-.449-.799-1.348-1.008a37.255 37.255 0 01-.68-.19 6.03 6.03 0 01-.64-.245 2.193 2.193 0 01-.599-.368 2.256 2.256 0 01-.382-.531 1.708 1.708 0 01-.163-.749c0-.59.227-1.076.681-1.457.463-.381 1.039-.572 1.729-.572.554 0 1.044.127 1.47.382.436.245.763.59.981 1.034l-.994.559c-.245-.581-.731-.872-1.457-.872-.345 0-.635.082-.871.245a.78.78 0 00-.341.667zm10.666-.667v-1.171h1.185v6.808h-1.185v-1.171c-.581.899-1.439 1.348-2.573 1.348-.963 0-1.775-.345-2.438-1.035-.671-.699-1.007-1.547-1.007-2.546 0-.989.336-1.833 1.007-2.532.672-.699 1.484-1.049 2.438-1.049 1.134 0 1.992.45 2.573 1.348zm-2.424 4.671c.69 0 1.267-.232 1.73-.695a2.422 2.422 0 00.694-1.743c0-.69-.231-1.266-.694-1.729-.463-.472-1.04-.708-1.73-.708-.68 0-1.252.236-1.715.708-.463.463-.695 1.039-.695 1.729 0 .681.232 1.262.695 1.743.463.463 1.035.695 1.715.695zm8.603 1.143c-1.026 0-1.879-.34-2.56-1.021-.681-.69-1.021-1.543-1.021-2.56 0-1.016.34-1.865 1.021-2.546.681-.69 1.534-1.035 2.56-1.035.672 0 1.275.164 1.811.49a2.99 2.99 0 011.198 1.294l-.994.572a2.006 2.006 0 00-.803-.872 2.272 2.272 0 00-1.212-.326c-.681 0-1.253.231-1.716.694-.453.472-.68 1.048-.68 1.729 0 .672.227 1.244.68 1.716.463.463 1.035.694 1.716.694.454 0 .862-.104 1.226-.313a2.19 2.19 0 00.83-.871l1.008.585c-.3.545-.722.976-1.267 1.294a3.505 3.505 0 01-1.797.476zm7.937-6.985v1.144h-1.811v3.69c0 .336.063.576.19.722.137.136.341.208.613.217.273 0 .608-.009 1.008-.027v1.062c-1.044.136-1.807.05-2.288-.258-.472-.309-.708-.881-.708-1.716v-3.69h-1.348v-1.144h1.348v-1.552l1.185-.354v1.906h1.811zm2.001-1.239a.779.779 0 01-.572-.231.764.764 0 01-.231-.559c0-.217.077-.403.231-.558a.758.758 0 01.572-.245c.218 0 .404.082.559.245a.763.763 0 01.231.558.764.764 0 01-.231.559.764.764 0 01-.559.231zm.586 8.047h-1.185v-6.808h1.185v6.808zm7.553-.858c-.69.69-1.539 1.035-2.546 1.035-1.008 0-1.857-.345-2.546-1.035-.69-.689-1.035-1.538-1.035-2.546 0-1.007.345-1.856 1.035-2.546.689-.69 1.538-1.035 2.546-1.035 1.007 0 1.856.345 2.546 1.035.699.699 1.048 1.548 1.048 2.546 0 .999-.349 1.847-1.048 2.546zm-2.546-.122c.681 0 1.252-.232 1.715-.695.463-.462.695-1.039.695-1.729 0-.69-.232-1.266-.695-1.729-.463-.463-1.034-.694-1.715-.694-.672 0-1.239.231-1.702.694-.463.463-.695 1.039-.695 1.729 0 .69.232 1.267.695 1.729.463.463 1.03.695 1.702.695zm8.381-6.005c.799 0 1.439.254 1.92.763.481.499.722 1.18.722 2.042v4.18h-1.185v-4.112c0-.544-.15-.971-.449-1.28-.3-.308-.713-.463-1.239-.463-.608 0-1.09.191-1.444.572-.354.372-.531.931-.531 1.675v3.608h-1.184v-6.808h1.184v.981c.472-.772 1.208-1.158 2.206-1.158zm5.317 2.015c0 .436.449.777 1.348 1.022.335.072.617.149.844.231.236.073.49.186.762.34.282.155.495.359.64.613.145.254.218.554.218.899 0 .617-.241 1.112-.722 1.484-.481.372-1.089.558-1.824.558-.654 0-1.221-.14-1.702-.422a2.427 2.427 0 01-1.008-1.171l1.021-.585c.109.326.314.585.613.776.3.19.658.286 1.076.286.408 0 .735-.077.98-.232.245-.154.368-.386.368-.694 0-.463-.449-.799-1.348-1.008-.3-.081-.527-.145-.681-.19a6.115 6.115 0 01-.64-.245 2.209 2.209 0 01-.599-.368 2.283 2.283 0 01-.381-.531 1.709 1.709 0 01-.164-.749c0-.59.227-1.076.681-1.457.463-.381 1.04-.572 1.729-.572.554 0 1.044.127 1.471.382.436.245.762.59.98 1.034l-.994.559c-.245-.581-.73-.872-1.457-.872-.345 0-.635.082-.871.245a.78.78 0 00-.34.667z" fill="#8F8E9E"/><path d="M311.729 78.191a1.513 1.513 0 11-3.027 0 1.513 1.513 0 013.027 0zm0 5.295a1.513 1.513 0 11-3.027 0 1.513 1.513 0 013.027 0zm0 5.295a1.513 1.513 0 11-3.027 0 1.513 1.513 0 013.027 0z" fill="#122428"/><defs><filter id="filter0_d_0_4804" x="0" y=".959" width="391.986" height="423" filterUnits="userSpaceOnUse" color-interpolation-filters="sRGB"><feFlood flood-opacity="0" result="BackgroundImageFix"/><feColorMatrix in="SourceAlpha" values="0 0 0 0 0 0 0 0 0 0 0 0 0 0 0 0 0 0 127 0" result="hardAlpha"/><feOffset/><feGaussianBlur stdDeviation="25"/><feComposite in2="hardAlpha" operator="out"/><feColorMatrix values="0 0 0 0 0 0 0 0 0 0 0 0 0 0 0 0 0 0 0.05 0"/><feBlend in2="BackgroundImageFix" result="effect1_dropShadow_0_4804"/><feBlend in="SourceGraphic" in2="effect1_dropShadow_0_4804" result="shape"/></filter></defs></svg>