<svg width="1296" height="250" viewBox="0 0 1296 250" fill="none" xmlns="http://www.w3.org/2000/svg">
<path d="M283.063 -155.083C274.332 -189.468 204.13 -198.646 122.869 -209.213C102.767 -211.809 81.9924 -214.54 61.8451 -217.719C-27.2956 -231.778 -108.87 -276.549 -187.758 -319.799C-227.291 -341.558 -267.631 -363.675 -308.955 -381.897V-378.45C-268.213 -360.541 -228.366 -338.558 -189.28 -317.157C-110.168 -273.729 -28.1015 -228.867 61.4422 -214.719C81.6342 -211.541 102.453 -208.81 122.556 -206.168C199.339 -196.139 271.914 -186.648 280.108 -154.322C286.465 -129.161 253.692 -90.9702 179.908 -37.6022C76.0825 37.2563 -10.6405 72.1335 -93.6474 72.1335C-142.162 71.8498 -189.899 59.9194 -232.843 37.3459C-259.577 23.0196 -285.04 6.43866 -308.955 -12.2166L-308.955 -8.27664C-285.399 9.92886 -260.341 26.1046 -234.052 40.0769C-190.736 62.8557 -142.587 74.9084 -93.6474 75.2228C-9.9689 75.2228 77.5152 40.1665 181.61 -35.1397C257.632 -90.03 289.868 -128.176 283.063 -155.083Z" fill="white" fill-opacity="0.05"/>
<path d="M-213.457 -0.128815C-179.43 17.3322 -150.508 25.4359 -122.48 25.4359C-93.1102 25.4359 -67.0082 16.4816 -36.7872 6.4079C-19.6396 0.632355 -0.208649 -5.94913 21.8639 -11.5008C30.7896 -13.66 39.9471 -14.7126 49.1299 -14.6348C53.6071 -14.6348 57.5022 -14.6348 61.4422 -14.2766C65.3821 -13.9185 68.74 -14.008 72.2769 -14.008C90.1856 -14.008 104.826 -18.4852 120.63 -39.6623C128.557 -50.3395 134.682 -62.242 138.763 -74.8977C144.046 -89.5829 148.21 -101.179 171.402 -117.789C178.575 -122.26 186.236 -125.895 194.235 -128.624C207.667 -133.862 218.949 -138.384 219.442 -145.995C219.8 -152.174 212.592 -159.114 196.743 -167.71C177.759 -178.052 150.628 -179.44 126.585 -179.44C115.885 -179.44 104.647 -179.126 93.7674 -178.768C82.8878 -178.41 71.3815 -178.141 60.681 -178.141C42.2495 -177.574 23.8235 -179.44 5.88031 -183.693C-72.0226 -204.736 -145.09 -245.031 -209.517 -280.266C-243.364 -298.757 -276.182 -316.666 -308.955 -332.246V-329.739C-276.54 -314.427 -244.081 -296.653 -210.457 -278.296C-145.896 -242.882 -72.739 -202.766 5.43262 -181.499C23.5776 -177.279 42.1955 -175.443 60.8153 -176.037C71.6949 -176.037 83.2012 -176.351 93.9465 -176.664C104.692 -176.977 116.064 -177.336 126.719 -177.336C150.493 -177.336 177.222 -175.992 195.802 -165.919C210.398 -157.949 217.651 -151.368 217.338 -146.264C216.935 -140.041 205.563 -135.608 193.519 -130.862C185.309 -128.045 177.452 -124.289 170.103 -119.67C146.329 -102.701 141.852 -90.2097 136.659 -75.7484C132.616 -63.244 126.567 -51.4799 118.75 -40.9159C103.483 -20.3209 89.6036 -16.2019 72.1874 -16.2019C68.6952 -16.2019 65.203 -16.2019 61.4422 -16.4705C57.6813 -16.7391 53.428 -16.6944 49.2194 -16.6944C39.839 -16.779 30.4844 -15.6961 21.3714 -13.4708C-0.745911 -7.9191 -20.2216 -1.33762 -37.414 4.43793C-67.4559 14.5564 -93.3788 23.3316 -122.48 23.3316C-150.149 23.3316 -178.714 15.2727 -212.427 -1.96439C-243.23 -17.9032 -270.944 -39.0803 -297.762 -59.2276L-308.955 -67.6895V-64.8688L-299.105 -57.4367C-272.242 -37.0655 -244.439 -15.978 -213.457 -0.128815Z" fill="white" fill-opacity="0.05"/>
<path d="M162.313 348.286C159.156 343.004 154.839 338.51 149.688 335.144C144.538 331.778 138.689 329.627 132.585 328.855C124.695 327.693 117.21 324.619 110.781 319.901L110.109 319.095C87.2755 293.53 10.7156 210.165 -15.252 210.165C-16.6034 210.094 -17.952 210.35 -19.1834 210.911C-20.4148 211.472 -21.4928 212.322 -22.326 213.388C-25.7734 217.866 -25.5943 226.82 -21.7887 241.192C-19.5053 249.654 2.16425 261.25 25.1322 273.607C44.2498 283.859 64.0389 294.47 70.7547 302.44C76.7541 309.558 84.6787 319.453 84.1862 322.9C84.1862 323.841 82.9774 324.378 81.2313 325.228C77.2018 327.243 71.1576 330.243 74.3812 344.391C77.5334 354.693 82.3094 364.427 88.5291 373.224C93.9098 380.928 98.1754 389.354 101.199 398.251C106.93 420.279 70.8442 460.708 46.9808 487.437C39.101 496.391 32.2957 503.913 27.9528 509.823C9.55176 532.941 -10.4987 554.698 -32.0414 574.921C-72.8286 615.216 -115.004 656.674 -129.823 714.027C-152.254 799.631 -156.731 875.34 -143.299 938.916C-136.136 972.853 -111.422 1020.18 -87.4689 1020.18C-72.5599 1020.18 -61.6804 1002.27 -55.1885 966.898C-30.1162 830.658 38.2951 785.349 104.423 741.517C163.029 702.7 218.367 666.032 242.186 570.802C251.14 534.984 237.351 479.602 219.397 449.023C212.23 437.597 202.742 427.804 191.549 420.279C182.596 414.29 174.825 406.701 168.626 397.893C164.149 390.954 164.999 382.85 165.805 374.254C166.611 365.657 167.73 356.076 162.313 348.286ZM166.119 399.46C172.475 408.645 180.511 416.544 189.803 422.741C200.591 430.061 209.739 439.545 216.666 450.59C234.306 480.631 248.006 534.85 239.052 570.041C215.547 664.062 160.701 700.461 102.587 738.92C36.146 783.11 -32.8026 828.822 -58.2329 966.316C-64.3219 999.492 -74.4404 1017.04 -87.4242 1017.04C-107.795 1017.04 -132.509 974.688 -140.21 938.289C-153.642 875.205 -149.165 799.944 -127.092 714.698C-112.496 658.152 -70.6347 616.917 -30.161 577.025C-8.46361 556.72 11.7224 534.858 30.2362 511.614C34.4895 505.972 41.25 498.182 49.0851 489.631C74.8737 460.753 110.154 421.174 104.02 397.58C100.937 388.353 96.5334 379.621 90.9467 371.657C84.9326 363.136 80.2944 353.724 77.2018 343.764C74.5603 332.034 78.7241 329.974 82.3954 328.139C84.4101 327.154 86.5144 326.079 86.8725 323.661C87.5889 320.393 85.4846 315.379 72.9932 300.559C65.9193 292.142 45.8615 281.352 26.4753 270.965C6.10414 260.041 -16.9533 247.639 -18.8785 240.52C-23.3557 224.313 -21.8782 218.134 -19.953 215.448C-19.423 214.778 -18.7396 214.245 -17.9603 213.894C-17.1811 213.543 -16.329 213.385 -15.4758 213.433C4.08943 213.433 60.9048 269.174 107.557 321.333L108.497 322.318C115.332 327.379 123.288 330.712 131.689 332.034C137.392 332.69 142.868 334.645 147.695 337.75C152.523 340.855 156.575 345.026 159.537 349.943C164.014 356.793 163.477 364.986 162.626 373.672C161.776 382.357 161.149 391.58 166.119 399.684V399.46Z" fill="white" fill-opacity="0.05"/>
<path d="M-308.955 57.6709C-157.984 143.096 4.71628 279.023 34.3552 346.583C52.2639 387.147 9.01437 435.635 -45.5625 497.017C-107.482 566.771 -184.848 653.584 -189.638 757.857C-195.503 884.785 -258.452 936.945 -308.955 952.704V956.017C-257.288 940.258 -192.548 887.427 -186.504 757.947C-181.758 654.972 -104.93 568.517 -43.2343 499.121C12.1036 436.888 55.8009 387.729 37.3549 345.33C7.35782 277.277 -156.731 140.006 -308.955 54.313V57.6709Z" fill="white" fill-opacity="0.05"/>
<path d="M597.987 1015.61C657.4 1008.85 721.11 940.034 721.916 881.741C723.169 792.198 671.816 720.966 622.119 651.927C613.657 640.242 604.927 628.109 596.689 616.11L591.764 608.946C568.348 575.278 541.843 537.312 533.247 495.853C525.949 460.886 514.801 379.446 526.934 351.419C535.889 330.869 561.185 319.094 585.675 307.677C602.599 299.842 618.627 292.41 629.865 282.202L630.357 281.754C668.772 246.922 668.772 246.922 694.963 245.937C702.888 245.668 712.872 245.354 726.661 244.011C739.398 242.898 752.021 240.742 764.404 237.564C768.354 236.389 772.424 235.668 776.537 235.415C784.596 235.415 791.357 241.101 813.698 260.04C879.736 315.96 878.483 413.204 877.274 507.27C875.752 625.602 874.185 748.008 1008.14 786.735C1026.24 792.118 1045 794.936 1063.88 795.108C1114.25 795.108 1157.1 772.722 1187.86 730.054C1232.99 667.642 1244.98 570.174 1217.72 487.57C1154.72 296.932 1004.2 187.912 842.262 84.0416C695.142 -10.3821 554.962 -36.3946 435.152 -53.3631C427.026 -54.5367 418.828 -55.15 410.617 -55.1987C362.04 -55.1987 338.982 -30.4847 309.702 0.766045C297.959 13.7383 285.556 26.0968 272.541 37.7923C256.065 52.2536 235.112 62.1929 214.875 71.7741C181.833 87.3995 150.627 102.129 137.733 134.947C110.377 204.567 177.58 258.786 236.903 306.647C264.348 329.033 290.271 349.762 305.448 370.671C365.711 453.588 347.668 593.411 293.046 671.985C275.988 696.475 243.305 726.831 208.741 758.932C151.433 812.121 86.4693 872.429 75.0077 923.065C69.5903 946.929 71.023 963.36 79.4849 973.926C86.4245 982.612 98.1099 986.821 115.302 986.821C143.464 986.821 183.803 975.225 226.471 962.912C278.63 947.914 337.773 930.901 388.187 930.901C409.058 930.286 429.814 934.197 449.031 942.362C467.581 951.602 484.97 963.009 500.832 976.344C527.113 996.76 551.917 1016.06 587.018 1016.06C590.68 1016.09 594.341 1015.94 597.987 1015.61ZM449.658 940.482C430.143 932.192 409.067 928.221 387.873 928.841C337.102 928.841 277.824 945.899 225.531 960.942C182.997 973.21 142.837 984.761 114.989 984.761C98.6472 984.761 87.5438 980.821 81.0519 972.717C73.2168 962.868 72.0975 946.884 77.1567 923.782C88.484 873.772 153.269 813.733 210.263 760.768C244.917 728.577 277.69 698.087 294.882 673.418C349.951 594.261 368.084 453.23 307.284 369.507C291.927 348.374 265.87 327.332 238.291 305.08C179.595 257.711 112.929 204.03 139.793 135.932C152.373 103.965 183.176 89.3695 215.905 73.968C236.321 64.2972 257.408 54.3579 274.108 39.6727C287.157 27.9209 299.604 15.5183 311.403 2.51214C340.281 -28.3804 363.114 -52.781 410.707 -52.781C418.814 -52.7551 426.909 -52.1416 434.928 -50.9454C554.514 -34.0217 694.605 -8.05399 841.188 86.1012C1002.72 189.748 1152.93 298.499 1215.66 488.465C1242.75 570.398 1230.88 667.06 1186.15 728.935C1155.84 770.886 1113.58 793.048 1063.97 793.048C1045.27 792.875 1026.69 790.071 1008.77 784.721C949.401 767.528 911.883 732.293 893.974 676.955C877.99 627.348 878.751 566.368 879.513 507.404C880.721 412.846 881.975 314.885 815.131 258.473C783.164 231.386 782.313 230.983 763.867 235.549C751.602 238.707 739.099 240.848 726.482 241.952C712.603 243.25 702.798 243.564 694.918 243.832C668.055 244.772 668.055 244.772 628.88 280.142L628.343 280.59C617.374 290.529 601.479 297.917 584.735 305.707C559.842 317.258 534.098 329.257 524.875 350.479C512.518 379.088 523.711 461.02 531.053 496.211C539.739 537.894 566.378 576.263 589.928 610.155L594.853 617.274C603.091 629.228 611.822 641.361 620.284 653.091C669.533 721.816 720.931 792.914 719.677 881.428C718.871 938.78 656.191 1006.43 597.719 1013.1C594.061 1013.51 590.385 1013.72 586.705 1013.73C552.365 1013.73 527.83 994.701 501.907 974.508C485.879 962.331 469.313 949.436 449.658 940.482Z" fill="white" fill-opacity="0.05"/>
<path d="M1544.82 -375.181H1527.58H1511.6C1481.07 -375.181 1456.8 -373.525 1429.98 -365.376C1416.23 -360.765 1402.91 -354.952 1390.18 -348.005C1368.96 -337.215 1348.95 -327.007 1324.99 -327.007C1320.99 -326.999 1317 -327.283 1313.04 -327.858C1295.35 -330.41 1282.1 -340.842 1269.3 -350.915C1254.92 -362.242 1241.36 -372.943 1222.29 -372.943C1220.52 -372.942 1218.76 -372.852 1217 -372.674C1205.27 -371.465 1186.42 -360.899 1168.25 -350.647C1158.4 -344.738 1148.17 -339.502 1137.62 -334.976C1129.07 -331.834 1120.32 -329.246 1111.43 -327.231C1092.58 -322.754 1090.21 -321.097 1081.08 -286.444C1078.57 -276.863 1076.6 -267.908 1074.94 -259.267C1068.36 -227.121 1063.17 -201.915 1028.92 -177.872C1005.77 -161.53 976.444 -153.606 939.373 -153.606C902.302 -153.606 863.932 -161.307 829.906 -168.157C811.997 -171.694 795.297 -175.051 782.85 -176.395C775.597 -177.156 764.404 -177.648 752.943 -177.648C720.08 -177.648 681.577 -165.605 678.89 -148.323C677.592 -140.174 683.994 -127.862 721.692 -115.818L725.856 -114.475C869.439 -68.4497 969.594 -8.32117 1071.54 92.9527C1099.61 120.89 1121.1 133.919 1139.1 133.919C1143.29 133.918 1147.45 133.159 1151.37 131.68C1170.48 124.562 1184.41 100.34 1200.62 72.4919C1208.94 58.0754 1218.53 41.7337 1229.58 25.974C1282.6 -49.4605 1359.62 -104.699 1448.07 -130.727C1472.16 -137.803 1497.11 -141.495 1522.21 -141.696C1599.53 -141.696 1654.11 -103.819 1705.78 -64.868V-67.6886C1654.2 -106.506 1599.62 -143.801 1522.21 -143.801C1496.83 -143.579 1471.61 -139.827 1447.26 -132.653C1358.31 -106.444 1280.86 -50.8581 1227.57 25.0338C1216.33 40.8383 1206.84 57.2248 1198.51 71.6861C1182.57 99.2655 1168.83 123.084 1150.47 129.889C1146.79 131.244 1142.89 131.941 1138.97 131.949C1121.59 131.949 1100.64 119.144 1072.97 91.6543C970.758 -9.88821 870.379 -70.1511 726.438 -116.311L722.229 -117.654C694.023 -126.608 679.338 -137.354 680.95 -147.651C683.188 -162.023 717.439 -175.096 752.809 -175.096C764.181 -175.096 775.194 -174.604 782.448 -173.843C794.849 -172.544 811.594 -169.365 829.324 -165.605C863.44 -158.934 902.123 -151.009 939.238 -151.009C976.354 -151.009 1006.71 -159.068 1030.21 -175.678C1065.18 -200.437 1070.51 -226.181 1077.14 -258.82C1078.93 -267.461 1080.72 -276.37 1083.27 -285.683C1092.22 -320.202 1094.19 -320.649 1111.92 -324.903C1120.91 -326.915 1129.74 -329.517 1138.38 -332.693C1149.05 -337.253 1159.39 -342.548 1169.32 -348.542C1186.51 -358.168 1205.94 -369.093 1217.23 -370.257C1218.91 -370.434 1220.6 -370.524 1222.29 -370.525C1240.55 -370.525 1253.85 -360.049 1267.95 -348.99C1280.98 -338.737 1294.41 -328.126 1312.72 -325.485C1316.8 -324.899 1320.92 -324.6 1325.04 -324.589C1349.53 -324.589 1370.7 -335.379 1391.21 -345.811C1403.84 -352.708 1417.05 -358.476 1430.7 -363.048C1457.2 -371.107 1481.34 -372.764 1511.65 -372.764H1527.58H1544.87C1570.14 -373.023 1595.32 -369.737 1619.68 -363.004C1649.23 -354.27 1678.03 -343.144 1705.78 -329.738V-332.245C1678.2 -345.547 1649.61 -356.612 1620.26 -365.332C1595.7 -372.136 1570.31 -375.452 1544.82 -375.181Z" fill="white" fill-opacity="0.05"/>
<path d="M1544.82 -330.098C1507.17 -330.098 1467.1 -323.248 1424.65 -315.995C1376.88 -307.847 1327.45 -299.43 1274.85 -299.43C1271.04 -299.43 1267.28 -299.43 1263.65 -299.43C1247.7 -300.079 1231.84 -302.116 1216.24 -305.519C1205.8 -308.021 1195.14 -309.52 1184.41 -309.996C1161.17 -309.996 1144.11 -297.728 1125.4 -267.731C1116.59 -252.275 1109.24 -236.026 1103.46 -219.199C1092.22 -189.604 1080.63 -159.025 1054.93 -140.893C1045.97 -134.625 1029.18 -129.789 1011.28 -124.685C979.936 -115.731 944.477 -105.612 939.641 -84.3906C933.642 -57.9305 988.04 -21.7101 1017.28 -2.18958C1022.74 1.43692 1027.44 4.57095 1030.71 6.76477C1064.96 31.9265 1093.39 48.6712 1120.25 48.6712C1123.9 48.6749 1127.54 48.3603 1131.13 47.731C1152.67 43.8358 1172.19 28.6582 1192.6 -0.130096C1251.58 -83.9277 1337.19 -145.296 1435.49 -174.248C1463.67 -182.447 1492.86 -186.682 1522.21 -186.829C1599.44 -186.829 1656.53 -155.488 1705.78 -120.88V-122.536C1656.53 -157.19 1599.44 -188.172 1522.21 -188.172C1492.7 -187.952 1463.36 -183.612 1435.04 -175.277C1336.43 -146.277 1250.55 -84.7297 1191.39 -0.667328C1171.2 27.8076 1151.95 42.8061 1130.82 46.6117C1127.3 47.2394 1123.73 47.5541 1120.16 47.5519C1093.57 47.5519 1065.41 30.8968 1031.33 5.91412C1028.24 3.63077 1023.54 0.496735 1017.9 -3.04022C988.935 -22.3369 934.985 -58.2439 940.805 -83.8534C945.283 -104.225 980.518 -114.209 1011.46 -123.029C1029.36 -128.177 1046.51 -133.058 1055.51 -139.415C1081.52 -157.772 1093.21 -188.664 1104.54 -218.393C1110.3 -235.119 1117.6 -251.275 1126.34 -266.657C1144.74 -296.206 1161.53 -308.294 1184.23 -308.294C1194.87 -307.793 1205.44 -306.294 1215.79 -303.817C1231.48 -300.375 1247.43 -298.323 1263.48 -297.684C1267.1 -297.684 1270.86 -297.684 1274.67 -297.684C1327.41 -297.684 1376.88 -306.101 1424.74 -314.294C1467.1 -321.502 1507.08 -328.352 1544.64 -328.352C1565.81 -328.617 1586.91 -325.904 1607.32 -320.293C1641.32 -309.915 1674.3 -296.426 1705.82 -279.999V-281.521C1674.47 -297.798 1641.67 -311.137 1607.86 -321.368C1587.36 -327.23 1566.14 -330.169 1544.82 -330.098Z" fill="white" fill-opacity="0.05"/>
<path d="M1645.07 955.795C1653.18 960.005 1662.27 961.968 1671.39 961.481C1683.06 961.329 1694.64 959.489 1705.78 956.019V952.705C1694.66 956.294 1683.07 958.196 1671.39 958.347C1662.87 958.802 1654.38 957.011 1646.77 953.153C1620.49 936.364 1608.85 906.68 1596.53 875.295C1585.92 848.208 1574.95 820.181 1553.6 800.437V799.496H1552.66C1528.17 777.871 1495.13 767.35 1451.7 767.35C1409.34 767.35 1364.79 777.513 1329.02 785.707C1304.53 791.258 1283.44 796.094 1269.83 796.094C1261.86 796.094 1256.98 794.437 1254.97 791.079C1252.33 786.602 1254.34 778.14 1260.97 766.007C1291.91 709.55 1354.36 574.876 1350.06 519.135C1346.66 475.169 1325.53 429.592 1305.07 385.805C1275.43 322.273 1244.85 256.414 1267.01 193.734C1292.44 122.099 1404.42 -6.08301 1484.11 -16.9626C1489.05 -17.6076 1494.04 -17.9217 1499.02 -17.9028C1550.82 -17.9028 1626.66 12.9897 1705.69 57.7168V54.3589C1626.62 9.58709 1550.87 -21.0368 1499.02 -21.0368C1493.88 -21.0636 1488.75 -20.7345 1483.66 -20.0518C1403.07 -9.03797 1289.71 120.308 1264.06 192.659C1241.36 256.683 1272.25 323.035 1302.11 387.237C1322.44 430.89 1343.44 476.065 1346.89 519.449C1350.74 569.145 1296.25 695.133 1258.19 764.619C1250.76 778.051 1248.88 787.005 1252.24 792.78C1254.88 797.258 1260.61 799.317 1269.79 799.317C1283.76 799.317 1305.02 794.482 1329.65 788.841C1365.47 780.692 1409.66 770.574 1451.65 770.574C1494.54 770.574 1527.05 780.961 1551 802.362C1572.13 821.658 1583.06 849.506 1593.62 876.504C1606.11 908.337 1617.93 938.468 1645.07 955.795Z" fill="white" fill-opacity="0.05"/>
<path d="M428.347 330.198C432.197 330.198 435.242 324.736 438.286 312.558C449.524 266.846 486.64 206.359 544.261 174.168C602.465 141.619 641.506 133.157 662.369 128.635C672.756 126.396 677.95 125.232 679.204 122.501C679.431 121.891 679.51 121.235 679.432 120.589C679.354 119.942 679.122 119.324 678.756 118.785C674.726 111.443 602.644 71.0137 498.505 62.5966L494.027 62.2384C484.67 61.4773 476.566 60.8057 468.821 60.8057C441.734 60.8057 419.84 68.4169 368.801 111.532C360.742 118.337 352.504 124.65 344.534 130.739C319.865 149.678 298.554 166.019 299.762 184.465C300.837 198.703 314.895 212.851 344.131 228.924C376.456 246.833 396.156 282.113 409.185 305.484C417.736 320.393 423.198 330.198 428.347 330.198ZM345.027 227.849C316.641 212.179 302.359 197.986 301.374 184.465C300.031 166.557 321.074 150.484 345.43 131.814C353.444 125.68 361.682 119.367 369.786 112.517C420.467 69.7153 442.137 62.1488 468.91 62.1488C476.611 62.1488 484.67 62.8204 494.027 63.5815L498.505 63.9397C600.047 72.1329 673.831 112.428 677.592 119.412C678.398 120.845 678.219 121.561 678.039 121.964C677.055 124.068 671.458 125.277 662.145 127.337C641.192 131.814 602.151 140.365 543.679 173.004C485.207 205.642 448.315 266.264 436.988 312.199C434.257 323.437 431.436 328.855 428.392 328.855C423.915 328.855 418.139 318.288 410.483 304.946C397.544 281.396 377.71 245.848 345.027 227.849Z" fill="white" fill-opacity="0.05"/>
<path d="M436.809 407.07C440.704 407.07 443.391 402.593 445.271 392.385C456.912 330.734 482.073 243.429 566.155 196.866C594.514 181.526 624.688 169.808 655.967 161.989C663.707 159.232 670.972 155.29 677.502 150.303C686.77 144.08 696.396 137.588 705.261 137.588C706.267 137.589 707.271 137.679 708.261 137.857C712.931 138.975 717.242 141.254 720.797 144.483C724.326 147.98 728.966 150.134 733.915 150.572C736.037 150.529 738.133 150.088 740.093 149.274C743.36 147.744 746.045 145.2 747.749 142.021C748.821 139.617 750.646 137.627 752.947 136.352C755.249 135.076 757.903 134.582 760.509 134.947C768.076 135.573 772.15 141.349 776.448 147.438C779.116 151.88 782.722 155.685 787.014 158.586C791.401 160.889 796.255 162.16 801.207 162.302C802.601 162.458 804.012 162.283 805.326 161.793C806.64 161.303 807.821 160.512 808.773 159.482C809.463 158.367 809.883 157.106 810 155.8C810.117 154.494 809.927 153.179 809.445 151.96C806.535 141.394 783.88 131.544 768.926 125.097C764.449 123.172 760.644 121.515 758.226 120.217C735.84 108.397 713.454 98.3681 694.829 90.1301C615.493 55.4319 543.187 34.2548 473.746 25.39C466.874 24.4666 459.95 23.9732 453.016 23.9126C418.811 23.9126 392.306 38.8663 339.565 87.9362C326.626 99.9799 313.284 110.322 300.434 120.306C271.556 142.692 248.767 160.377 249.305 182.629C249.752 200.224 265.02 218.939 297.3 241.548C349.325 277.948 383.889 333.241 406.722 369.82C420.826 392.206 430.049 407.07 436.809 407.07ZM298.016 240.25C266.049 217.864 251.006 199.552 250.558 182.45C250.066 160.87 272.586 143.364 301.15 121.202C314.045 111.173 327.387 100.831 340.371 88.7422C392.843 39.9409 419.124 25.0766 452.927 25.0766C459.801 25.1363 466.665 25.6297 473.477 26.5541C542.784 35.5085 615.001 56.5513 694.202 91.2046C713.006 99.4426 735.213 109.427 757.51 121.202C759.972 122.545 763.822 124.201 768.3 126.127C783.03 132.574 805.326 142.289 808.057 152.229C808.482 153.25 808.662 154.357 808.584 155.46C808.507 156.564 808.173 157.634 807.609 158.586C806.756 159.412 805.734 160.044 804.613 160.438C803.493 160.832 802.3 160.98 801.117 160.87C796.427 160.705 791.835 159.481 787.686 157.288C783.565 154.511 780.109 150.857 777.567 146.587C773.09 140.498 768.613 134.23 760.644 133.514C757.791 133.126 754.889 133.665 752.366 135.052C749.843 136.438 747.832 138.599 746.63 141.215C745.068 144.15 742.604 146.504 739.601 147.931C737.798 148.681 735.867 149.076 733.915 149.095C729.267 148.647 724.918 146.607 721.603 143.319C717.954 140.024 713.535 137.699 708.753 136.558C707.693 136.341 706.612 136.236 705.53 136.245C696.217 136.245 686.457 142.827 677.01 149.184C670.628 154.102 663.511 157.984 655.922 160.69C624.531 168.558 594.241 180.304 565.752 195.657C481.044 242.533 455.703 330.241 444.017 392.116C442.316 401.294 439.988 405.548 436.899 405.548C430.854 405.548 421.229 390.101 407.886 368.745C385.008 332.256 350.22 276.829 298.016 240.25Z" fill="white" fill-opacity="0.05"/>
<path d="M602.196 968.823C617.934 966.638 632.886 960.588 645.715 951.212C658.544 941.837 668.85 929.429 675.711 915.097C688.516 888.548 695.456 843.462 655.698 779.752C638.64 752.397 619.881 724.728 601.972 697.999C550.485 621.573 501.862 549.356 481.76 476.915C459.061 394.983 477.283 327.378 539.157 264.205C592.883 209.493 663.533 178.108 733.422 178.108C785.94 178.108 832.816 196.599 865.365 230.133C901.182 267.025 919.091 320.93 917.076 386.118C916.628 401.251 915.912 416.876 915.151 433.397C912.42 492.227 909.375 558.758 918.867 614.365C929.791 678.165 955.714 717.34 998.068 734.846C1018.29 743.604 1040.02 748.377 1062.05 748.904C1079.33 749.094 1096.4 745.072 1111.79 737.185C1127.17 729.299 1140.4 717.786 1150.34 703.64C1187.54 653.272 1196.45 567.041 1172.5 489.049C1121.15 321.692 997.889 221.761 815.176 114.801C676.383 33.5402 559.394 8.46794 453.464 -6.53062C446.051 -7.62055 438.571 -8.18905 431.078 -8.23193C386.888 -8.23193 365.801 14.1539 339.162 42.8079C328.909 53.777 318.343 65.1939 305.224 76.6555C292.813 87.3634 279.444 96.9099 265.288 105.175C246.618 116.681 230.5 126.576 212.771 153.081C177.58 205.688 224.68 238.147 274.511 272.129C300.882 290.038 328.237 308.842 342.699 330.959C434.391 469.752 397.41 618.081 332.177 710.445C313.552 736.816 286.331 761.754 257.498 788.169C222.262 820.45 185.863 853.805 164.999 891.144C156.045 907.173 153.493 918.008 157.209 924.41C159.94 928.887 166.163 931.349 175.61 931.349C192.802 931.349 220.113 924.231 251.722 915.948C296.091 904.397 351.295 889.98 400.096 889.98C422.671 889.345 445.123 893.527 465.955 902.248C482.914 910.702 498.814 921.132 513.324 933.319C537.232 951.945 559.842 969.54 591.809 969.54C595.282 969.505 598.751 969.265 602.196 968.823ZM466.627 901.128C445.643 892.276 422.994 888.061 400.23 888.771C351.25 888.771 295.957 903.188 251.498 914.784C219.934 923.022 192.713 930.141 175.7 930.141C166.745 930.141 160.925 928.081 158.463 923.872C154.97 917.963 157.522 907.531 166.253 891.95C186.982 854.879 223.337 821.569 258.528 789.378C287.405 762.918 314.671 737.935 333.386 711.43C370.97 658.888 393.466 597.066 398.439 532.656C403.543 461.021 385.008 392.924 343.728 330.198C328.998 307.812 301.643 289.142 275.183 271.01C225.934 237.207 179.326 205.33 213.8 153.797C231.396 127.561 247.379 117.711 265.87 106.339C280.165 98.0469 293.655 88.4391 306.165 77.6404C318.105 66.9294 329.478 55.6016 340.236 43.7034C366.651 15.4524 387.56 -6.88877 431.168 -6.88877C438.586 -6.84352 445.992 -6.27501 453.33 -5.18745C559.125 9.76634 676.069 34.8386 814.504 115.965C996.77 222.746 1120.03 322.497 1171.29 489.407C1195.11 567.041 1186.29 652.824 1149.31 702.834C1139.5 716.824 1126.44 728.213 1111.24 736.014C1096.04 743.816 1079.17 747.795 1062.09 747.606C1040.27 747.123 1018.74 742.426 998.695 733.771C956.789 716.713 931.135 677.628 920.3 614.32C910.808 558.982 913.853 492.407 916.584 433.666C917.345 417.1 918.061 401.475 918.509 386.297C920.479 320.796 902.481 266.533 866.439 229.372C833.622 195.569 786.432 176.944 733.512 176.944C663.265 176.944 592.122 208.285 538.307 263.444C505.444 297.022 485.118 331.631 476.253 369.329C468.328 402.997 469.716 438.367 480.73 477.453C500.877 550.117 549.544 622.379 601.121 698.939C619.03 725.802 637.745 753.292 654.848 780.648C694.292 843.91 687.442 888.458 674.771 914.694C667.987 928.794 657.824 940.998 645.186 950.223C632.548 959.448 617.827 965.406 602.33 967.57C598.97 967.94 595.593 968.134 592.212 968.152C560.872 968.152 538.486 950.691 514.533 932.334C499.86 920.066 483.778 909.591 466.627 901.128Z" fill="white" fill-opacity="0.05"/>
<path d="M1544.82 -298.757C1509.81 -298.757 1470.99 -292.131 1429.94 -285.325C1380.69 -276.953 1330.14 -268.312 1274.85 -268.312C1270.77 -268.312 1266.74 -268.312 1262.94 -268.312L1253.18 -268.581C1244.81 -268.581 1236.93 -269.028 1229.31 -269.028C1181.68 -269.028 1152.22 -259.313 1132.74 -208.094C1120.47 -175.724 1106.55 -139.056 1073.11 -115.416C1063.66 -108.701 1054.21 -102.97 1045.84 -97.9553C1026.5 -86.2699 1011.23 -77.0469 1010.65 -64.2869C1010.16 -52.5567 1021.98 -38.4536 1049.11 -18.5749C1075.08 0.497925 1096.48 9.76572 1114.48 9.76572C1116.09 9.76572 1117.74 9.76572 1119.31 9.76572C1145.46 7.34802 1163.01 -14.2768 1185.21 -41.6324C1196.15 -55.544 1207.81 -68.8743 1220.14 -81.5688C1277.53 -139.267 1348.62 -181.46 1426.76 -204.199C1457.77 -213.294 1489.9 -217.996 1522.21 -218.168C1598.32 -218.168 1657.15 -190.633 1705.78 -158.755V-160.367C1657.15 -192.11 1598.32 -219.511 1522.21 -219.511C1489.77 -219.298 1457.52 -214.551 1426.4 -205.408C1348.05 -182.587 1276.76 -140.273 1219.2 -82.4195C1206.82 -69.708 1195.14 -56.3471 1184.18 -42.3935C1162.16 -15.2618 1144.79 6.13916 1119.18 8.51205C1117.65 8.51205 1116.04 8.51205 1114.48 8.51205C1096.79 8.51205 1075.66 -0.442291 1049.87 -19.5599C1023.01 -39.1699 1011.5 -52.9149 1011.99 -64.3317C1012.53 -76.3305 1027.57 -85.4192 1046.56 -96.8808C1054.93 -101.94 1064.47 -107.671 1073.91 -114.387C1107.67 -138.295 1121.64 -175.187 1134 -207.736C1153.16 -257.88 1182.3 -267.417 1229.31 -267.417C1236.93 -267.417 1244.81 -267.193 1253.13 -266.969L1262.89 -266.7C1266.74 -266.7 1270.73 -266.7 1274.85 -266.7C1330.23 -266.7 1381.05 -275.386 1430.16 -283.758C1471.17 -290.743 1509.9 -297.19 1544.82 -297.19C1563.07 -297.42 1581.25 -295.115 1598.86 -290.34C1633.56 -280.49 1669.11 -264.238 1705.78 -245.031V-246.553C1669.24 -265.447 1633.83 -281.565 1599.22 -291.325C1581.53 -296.345 1563.21 -298.847 1544.82 -298.757Z" fill="white" fill-opacity="0.05"/>
<path d="M938.388 489.228C933.194 573.802 949.401 640.557 983.921 677.27C1001.83 696.298 1023.5 706.327 1046.6 706.327C1090.93 706.327 1128.44 670.509 1140.04 617.097C1157.1 538.388 1142.41 460.888 1096.43 386.79C1049.82 311.708 985.353 263.131 951.058 240.879C933.597 229.552 926.12 224.851 923.255 228.253C920.389 231.656 922.449 239.267 925.493 255.475C932.209 290.486 946.044 363.599 938.388 489.228ZM924.329 229.149C924.53 228.923 924.78 228.746 925.059 228.629C925.338 228.513 925.639 228.461 925.941 228.477C929.568 228.477 937.403 233.581 950.386 241.909C1064.64 316.096 1174.25 453.5 1138.74 616.738C1127.32 669.48 1090.3 704.894 1046.65 704.894C1023.86 704.894 1002.5 695 984.906 676.285C950.61 639.841 934.582 573.31 939.731 489.228C947.387 363.554 933.552 290.307 926.881 255.161C924.061 240.297 922.27 231.343 924.329 229.014V229.149Z" fill="white" fill-opacity="0.05"/>
<path d="M423.153 208.194C435.824 208.194 444.913 195.971 454.494 177.615C471.507 145.558 506.922 130.067 526.129 121.74C535.755 117.486 539.56 115.919 538.889 113.278C538.217 110.636 536.023 110.099 522.86 109.204C483.192 106.517 394.186 144.349 384.068 172.824C382.858 175.867 382.704 179.228 383.629 182.369C384.554 185.51 386.506 188.25 389.172 190.151C404.439 202.777 414.647 208.06 423.333 208.06L423.153 208.194ZM386.844 173.899C396.201 147.886 478.939 112.203 518.607 112.203C519.995 112.203 521.338 112.203 522.592 112.203C526.842 112.299 531.072 112.824 535.217 113.77C531.85 115.618 528.382 117.277 524.83 118.74C505.399 127.202 469.313 143.006 451.852 176.048C440.838 196.822 432.779 204.926 423.153 204.926C415.274 204.926 405.648 199.732 390.963 187.599C388.83 186.116 387.263 183.954 386.515 181.467C385.767 178.979 385.883 176.312 386.844 173.899Z" fill="white" fill-opacity="0.05"/>
<path d="M462.105 206.582C492.595 151.02 548.335 131.634 593.465 120.934C597.943 119.904 598.211 117.71 597.943 116.457C596.913 107.502 554.648 90.0859 491.565 90.0859C484.446 90.0859 477.148 90.3098 469.895 90.7575C441.107 92.5036 373.143 132.709 348.698 162.392C342.34 170.093 339.475 176.54 340.146 181.465C341.848 193.822 352.862 199.374 365.577 205.642C379.008 212.358 394.365 219.969 401.797 237.743C406.274 248.041 411.826 253.279 418.676 253.279C430.496 253.369 445.047 237.654 462.105 206.582ZM403.902 236.937C396.156 218.447 380.486 210.656 366.651 203.762C354.473 197.673 343.952 192.434 342.43 181.376C341.848 177.122 344.624 171.078 350.489 163.959C374.621 134.544 441.689 94.787 470.119 93.0856C477.283 92.6379 484.536 92.414 491.61 92.414C553.618 92.414 594.943 109.562 595.794 116.815C595.794 117.979 594.047 118.606 592.883 118.874C547.306 129.664 491.028 149.274 460.09 205.597C434.257 252.294 415.139 263.621 403.946 236.937H403.902Z" fill="white" fill-opacity="0.05"/>
<path d="M1342.41 727.905C1345.59 732.383 1353.42 734.487 1368.51 734.487C1377.91 734.487 1389.2 733.726 1402.22 732.83C1418.34 731.756 1436.65 730.547 1455.55 730.547C1515.45 730.547 1555.79 743.262 1582.7 770.842C1607.73 790.094 1621.56 821.479 1633.74 849.148C1648.51 882.816 1661.32 911.828 1689.57 911.828C1692.73 911.817 1695.88 911.487 1698.97 910.843C1701.27 910.366 1703.54 909.768 1705.78 909.052V906.724C1703.27 907.53 1700.81 908.157 1698.52 908.649C1695.58 909.256 1692.58 909.571 1689.57 909.59C1662.71 909.59 1650.26 881.159 1635.84 848.207C1623.53 820.27 1609.61 788.616 1584.27 769.096C1557 741.337 1516.12 728.398 1455.59 728.398C1436.61 728.398 1418.3 729.607 1402.13 730.726C1389.11 731.577 1377.91 732.338 1368.56 732.338C1354.63 732.338 1346.93 730.547 1344.29 726.697C1343.56 725.373 1343.18 723.887 1343.18 722.376C1343.18 720.865 1343.56 719.379 1344.29 718.056C1372.81 641.944 1396.63 545.505 1394.34 515.821C1390.31 463.841 1367.48 414.727 1345.36 367.268C1318.5 309.065 1292.8 254.309 1309.01 208.552C1331.39 144.976 1434.37 34.6139 1490.33 27.0027C1493.3 26.6242 1496.3 26.4448 1499.29 26.4654C1542.72 26.4654 1619.23 57.5371 1705.96 108.98V106.383C1619.32 55.1642 1542.85 24.2268 1499.29 24.2268C1496.2 24.2012 1493.12 24.3957 1490.07 24.8089C1433.65 32.4649 1329.69 143.723 1306.95 207.836C1290.43 254.443 1316.13 309.692 1343.35 368.209C1365.38 415.488 1388.12 464.423 1392.15 515.956C1394.16 541.968 1372.81 635.541 1342.27 717.429C1341.44 719.052 1341.01 720.857 1341.03 722.684C1341.06 724.511 1341.53 726.304 1342.41 727.905Z" fill="white" fill-opacity="0.05"/>
<path d="M593.645 1074.44C660.31 1066.87 739.69 987.672 760.957 927.141C797.938 822.016 732.258 737.398 668.727 655.599C607.389 576.577 549.5 501.987 577.661 411.145C602.196 332.033 681.442 289.321 743.541 289.321C777.03 289.321 805.953 301.186 825.07 322.766C847.769 348.375 856.679 387.282 850.859 435.277C830.846 600.172 824.891 780.558 1008.72 833.747C1028.83 839.714 1049.67 842.804 1070.64 842.925C1148.01 842.925 1197.44 798.556 1225.24 761.395C1278.56 690.074 1297.1 583.383 1271.31 495.898C1249.46 421.756 1206.44 349.853 1139.86 276.069C1040.83 166.378 906.018 72.0435 727.647 -12.2618L719.946 -15.9331C644.908 -51.3924 567.319 -88.1053 485.61 -108.342C480.775 -109.551 475.402 -110.984 469.671 -112.506C444.42 -119.177 413.035 -127.549 386.082 -127.549C376.663 -127.762 367.276 -126.369 358.324 -123.43C346.683 -119.266 340.147 -111.297 333.789 -103.596C329.222 -97.3568 323.601 -91.9628 317.179 -87.6575C309.852 -83.8604 302.267 -80.584 294.479 -77.8525C279.391 -72.0322 263.766 -65.988 258.662 -60.2124C249.125 -49.0195 251.722 -42.3037 254.185 -35.767C255.436 -33.3738 256.195 -30.7544 256.418 -28.0632C256.641 -25.3719 256.323 -22.6633 255.483 -20.0969L253.737 -14.9033C240.305 24.9884 240.305 24.9884 208.965 34.0323C202.921 35.7784 195.534 37.9274 186.579 40.7928C160.835 48.9861 150.269 61.6117 140.061 73.8344C132.276 84.3485 122.281 93.0288 110.781 99.2648H109.527C93.409 99.2648 -28.818 107.324 -38.2201 137.366C-40.7721 145.469 -35.2651 154.289 -21.8784 163.512C-11.1037 171.775 2.06279 176.316 15.6404 176.451C19.5803 176.451 23.1173 176.093 26.5647 175.78C29.3435 175.441 32.1381 175.246 34.937 175.198C44.7868 175.198 54.7262 178.018 68.3816 211.597C71.7395 219.88 74.3362 226.685 76.4853 232.282C87.0514 259.951 87.3648 260.309 114.228 271.771C120.899 274.636 129.182 278.173 139.703 283.008C174.267 298.947 181.341 317.08 190.295 340.003C195.496 354.461 202.299 368.292 210.577 381.238C221.155 396.549 233.147 410.834 246.394 423.905C268.288 446.694 288.972 468.229 295.643 504.181C307.06 566.459 273.257 625.916 235.022 680.896C216.487 707.535 178.386 738.606 138.047 771.469C69.8143 827.21 -7.82005 890.428 -8.08868 949.034C-8.08868 982.479 0.328445 1008.13 17.4313 1025.15C36.0564 1043.86 64.3521 1052.99 103.975 1052.99C161.373 1052.99 231.978 1033.61 294.255 1016.51C343.504 1003.07 385.59 991.478 412.677 991.478C417.872 991.341 423.06 991.96 428.078 993.313C454.18 1001.06 474.91 1017.62 494.923 1033.61C521.472 1054.87 546.589 1074.93 582.452 1074.93C586.189 1074.99 589.927 1074.82 593.645 1074.44ZM428.974 990.672C423.666 989.225 418.176 988.562 412.677 988.702C385.187 988.702 342.654 1000.34 293.405 1013.86C231.306 1030.88 160.97 1050.17 103.975 1050.22C65.2476 1050.22 37.6681 1041.26 19.6251 1023.36C3.14906 1006.79 -5.13372 981.896 -4.95463 949.303C-4.50691 892.174 72.3215 829.18 140.285 773.842C180.58 740.845 219.039 709.684 237.798 682.642C276.436 627.08 310.552 566.951 298.956 503.554C292.196 466.707 271.198 444.858 248.991 421.711C235.77 408.778 223.779 394.644 213.174 379.492C205.035 366.705 198.338 353.056 193.205 338.794C183.982 315.244 176.729 296.619 141.001 280.143C130.435 275.263 122.153 271.726 115.482 268.86C89.6035 257.802 89.6034 257.802 79.3955 231.118C77.2464 225.477 74.6497 218.716 71.2918 210.388C58.2632 178.332 48.1 172.019 34.937 172.019C32.0338 172.066 29.1348 172.26 26.2513 172.601C22.8934 172.914 19.4012 173.273 15.6404 173.273C2.67429 173.163 -9.90175 168.824 -20.1771 160.916C-32.2654 152.499 -37.3694 144.887 -35.3099 138.261C-27.1167 112.159 86.7828 102.444 109.437 102.444H110.557L110.915 101.011L111.586 102.354C123.68 95.9315 134.188 86.8919 142.345 75.8939C152.732 63.4473 162.537 51.7619 187.43 43.7925C196.384 40.9719 203.816 38.8228 209.816 37.0767C242.365 27.6747 242.768 27.1822 256.737 -13.8736L258.528 -19.0671C259.496 -21.9949 259.872 -25.0863 259.634 -28.161C259.396 -31.2357 258.548 -34.2322 257.14 -36.9758C254.767 -43.1543 252.662 -48.4822 260.99 -58.2424C265.467 -63.436 281.361 -69.6145 295.42 -75.0319C303.391 -77.8261 311.155 -81.1773 318.656 -85.0607C325.431 -89.5661 331.37 -95.2172 336.207 -101.761C342.564 -109.506 348.564 -116.759 359.354 -120.654C368.021 -123.477 377.104 -124.81 386.217 -124.594C412.766 -124.594 443.928 -116.311 469 -109.64C474.731 -108.118 480.103 -106.686 484.983 -105.477C566.379 -85.3294 643.834 -48.7061 718.737 -13.2468L726.438 -9.62024C904.406 74.5508 1038.95 168.616 1137.67 277.949C1203.93 351.42 1246.73 422.92 1268.45 496.615C1293.97 583.203 1275.61 688.731 1222.87 759.336C1195.47 795.959 1146.76 839.612 1070.64 839.612C1049.97 839.52 1029.41 836.505 1009.57 830.657C828.249 778.229 834.114 599.276 853.948 435.501C859.903 386.61 850.724 346.853 827.398 320.572C807.699 298.186 777.925 286.053 743.541 286.053C680.323 286.053 599.644 329.526 574.661 410.116C546.007 502.48 607.121 581.233 666.264 657.345C729.258 738.517 794.401 822.464 758.002 925.976C737.004 985.702 658.877 1063.78 593.286 1071.26C589.689 1071.67 586.072 1071.88 582.452 1071.89C547.664 1071.89 522.995 1052.14 496.893 1031.23C476.611 1015.12 455.658 998.372 428.974 990.672Z" fill="white" fill-opacity="0.05"/>
<path d="M1002.86 -214.586C987.681 -203.84 967.042 -198.647 939.328 -198.647C906.913 -198.647 870.693 -205.9 838.725 -212.078C819.921 -215.839 802.102 -219.421 787.596 -221.033C771.055 -222.734 754.438 -223.586 737.81 -223.585C694.202 -223.585 638.237 -217.675 619.478 -189.513C611.285 -177.246 610.971 -161.889 618.448 -143.757C621.985 -135.295 631.119 -130.638 639.939 -126.206C646.833 -123.412 653.036 -119.149 658.116 -113.715C662.773 -106.207 666.232 -98.0204 668.369 -89.4483C671.995 -77.7629 675.711 -65.7193 684.173 -58.6006C694.259 -49.9447 707.196 -45.3347 720.483 -45.6615C730.511 -46.0169 740.481 -47.3363 750.256 -49.6014C759.883 -51.8427 769.704 -53.1472 779.582 -53.4966C788.129 -53.6697 796.587 -51.7321 804.206 -47.8553C822.115 -38.901 829.502 -26.3648 836.756 -14.4108C846.202 1.16983 855.112 15.8549 884.482 22.7498C945.999 37.1216 962.833 52.1649 1003.53 88.4749C1008.77 92.9521 1014.41 98.1903 1020.59 103.608C1034.03 116.154 1046.04 130.148 1056.41 145.335C1065.75 158.796 1076.23 171.423 1087.75 183.078C1100.43 194.911 1115.22 204.266 1131.35 210.657C1149.89 219.119 1167.4 227.088 1183.29 254.354L1185.8 258.832C1205.81 293.396 1226.09 325.407 1238.45 325.407C1239.42 325.419 1240.38 325.217 1241.26 324.814C1242.14 324.412 1242.93 323.819 1243.55 323.079C1248.03 318.199 1249.24 305.171 1247.27 283.232C1246.1 270.428 1236.84 258.921 1227.84 247.818C1218.17 235.864 1209.03 224.581 1209.57 212C1210.24 197.002 1219.29 189.614 1228.87 181.869C1236.58 176.483 1242.93 169.369 1247.4 161.095C1257.61 139.112 1260.07 119.457 1262.49 100.429C1265.8 73.924 1268.94 48.9413 1292.62 20.6455C1336.63 -31.0133 1394.94 -68.4941 1460.2 -87.0754C1480.32 -93.1243 1501.2 -96.2898 1522.21 -96.4775C1589.37 -96.4775 1637.37 -59.9885 1688.32 -21.3952L1705.78 -8.23227V-12.2169C1700.54 -16.1121 1695.34 -20.052 1690.2 -23.9472C1638.84 -62.8987 1590.31 -99.6563 1522.21 -99.6563C1500.98 -99.4759 1479.88 -96.2955 1459.53 -90.2095C1393.68 -71.4687 1334.85 -33.6424 1290.47 18.4965C1266.16 47.4639 1262.98 72.939 1259.58 99.8917C1257.21 118.696 1254.79 138.127 1244.81 159.617C1240.52 167.452 1234.46 174.181 1227.12 179.272C1217.45 187.197 1207.38 195.345 1206.66 211.732C1206.08 225.387 1216.02 237.699 1225.64 249.564C1234.33 260.309 1243.28 271.413 1244.36 283.322C1246.69 309.066 1244.09 317.886 1241.49 320.751C1241.14 321.158 1240.71 321.485 1240.22 321.709C1239.74 321.933 1239.21 322.049 1238.67 322.049C1226.32 322.049 1199.99 276.517 1188.71 257.041L1186.24 252.564C1169.86 224.402 1151.86 216.254 1132.88 207.568C1117.09 201.332 1102.59 192.224 1090.12 180.705C1078.72 169.163 1068.33 156.672 1059.05 143.365C1048.53 127.978 1036.33 113.803 1022.69 101.101C1016.51 95.7279 1010.87 90.6687 1005.63 86.0125C964.49 49.2995 947.431 34.1219 885.199 19.5711C857.082 12.9896 848.531 -1.20309 839.442 -16.2464C831.965 -28.5587 824.264 -41.3186 805.639 -50.8998C797.565 -54.9686 788.622 -57.0123 779.582 -56.8545C769.495 -56.499 759.465 -55.1796 749.63 -52.9145C740.063 -50.6764 730.302 -49.3719 720.483 -49.0194C707.93 -48.6923 695.705 -53.0493 686.188 -61.2421C678.442 -67.7788 674.816 -79.1508 671.368 -90.5676C669.157 -99.4901 665.529 -108 660.623 -115.774C655.294 -121.658 648.695 -126.251 641.327 -129.206C632.372 -133.683 624.403 -137.757 621.314 -145.189C614.24 -162.292 614.463 -176.53 622.03 -187.991C639.939 -214.854 694.918 -220.675 737.765 -220.675C754.213 -220.678 770.651 -219.841 787.014 -218.167C801.431 -216.6 819.16 -213.063 837.92 -209.213C870.021 -202.811 906.376 -195.513 939.104 -195.513C967.31 -195.513 988.711 -200.885 1004.43 -212.034C1043.6 -239.703 1032.36 -281.475 1021.53 -321.904C1009.89 -365.064 997.889 -409.701 1046.15 -438.803C1053.19 -442.606 1061.13 -444.432 1069.12 -444.086C1098 -444.086 1138.65 -428.281 1177.96 -413.014C1212.21 -399.583 1244.54 -387.181 1265.58 -386.688H1274.53C1319.75 -386.688 1365.47 -394.479 1409.66 -402.045C1453.85 -409.612 1499.42 -417.357 1544.51 -417.357C1573.9 -417.635 1603.18 -413.776 1631.5 -405.896C1656.86 -398.469 1681.68 -389.299 1705.78 -378.45V-381.898C1682.04 -392.488 1657.61 -401.463 1632.66 -408.761C1604.07 -416.73 1574.5 -420.633 1544.82 -420.357C1499.47 -420.357 1453.71 -412.522 1409.48 -405C1365.24 -397.478 1319.93 -389.688 1274.85 -389.688C1271.76 -389.688 1268.8 -389.688 1265.89 -389.688C1245.39 -390.181 1213.29 -402.627 1179.35 -415.835C1139.73 -431.192 1098.76 -447.175 1069.35 -447.175C1060.78 -447.564 1052.27 -445.581 1044.77 -441.444C994.487 -411.089 1006.8 -365.332 1018.71 -321.053C1029.72 -279.908 1040.15 -241.001 1002.86 -214.586Z" fill="white" fill-opacity="0.05"/>
</svg>
