<svg width="150" height="134" viewBox="0 0 150 134" fill="none" xmlns="http://www.w3.org/2000/svg">
<rect x="3.86694" y="3.19336" width="140.407" height="126.94" stroke="black"/>
<rect x="13" y="11" width="122.801" height="111.106" fill="#F422EC"/>
<g style="mix-blend-mode:multiply">
<path d="M91.9852 82.0786L81.2985 92.3447L85.6289 96.8526L96.3157 86.5865L91.9852 82.0786Z" fill="#FFDC00"/>
<path d="M56.1744 53.4575L72.0343 70.7577C72.4559 70.6238 72.9105 70.6365 73.324 70.7937C73.7375 70.951 74.0856 71.2435 74.3117 71.6237C74.5378 72.004 74.6286 72.4496 74.5693 72.888C74.51 73.3264 74.3041 73.7318 73.9851 74.0383C73.6661 74.3448 73.2527 74.5343 72.8123 74.576C72.3719 74.6178 71.9303 74.5093 71.5594 74.2681C71.1885 74.027 70.9101 73.6674 70.7695 73.248C70.629 72.8285 70.6344 72.3738 70.7851 71.9579L54.1292 55.4146L59.6918 82.2503L79.7965 90.7963L90.4832 80.5308L83.1987 59.6619L56.1744 53.4575Z" fill="#9EFF00"/>
</g>
<g style="mix-blend-mode:multiply">
<path d="M101.237 79.4638L90.5498 89.73L94.8802 94.2378L105.567 83.9717L101.237 79.4638Z" fill="#E0F9FF"/>
<path d="M65.4234 50.8413L81.2833 68.1439C81.7051 68.0102 82.1597 68.0232 82.5732 68.1807C82.9867 68.3383 83.3347 68.6311 83.5605 69.0116C83.7864 69.3921 83.8768 69.8378 83.8171 70.2763C83.7574 70.7147 83.5511 71.12 83.2317 71.4262C82.9123 71.7325 82.4987 71.9216 82.0581 71.9628C81.6176 72.0041 81.176 71.895 80.8054 71.6533C80.4347 71.4117 80.1567 71.0517 80.0167 70.632C79.8767 70.2122 79.8828 69.7575 80.0341 69.3417L63.3782 52.7984L68.9359 79.6341L89.0553 88.1776L99.7421 77.9121L92.46 57.0457L65.4234 50.8413Z" fill="#E0F9FF"/>
</g>
<path d="M36.5056 96.8536C36.4406 96.8536 36.3783 96.8278 36.3324 96.7818C36.2864 96.7359 36.2606 96.6736 36.2606 96.6086C36.2606 79.2637 43.1509 62.6292 55.4156 50.3644C67.6803 38.0997 84.3148 31.2095 101.66 31.2095C101.725 31.2095 101.787 31.2353 101.833 31.2812C101.879 31.3271 101.905 31.3895 101.905 31.4544C101.905 31.5194 101.879 31.5817 101.833 31.6276C101.787 31.6735 101.725 31.6994 101.66 31.6994C84.4448 31.6994 67.9348 38.538 55.762 50.7108C43.5891 62.8837 36.7505 79.3936 36.7505 96.6086C36.7505 96.6736 36.7247 96.7359 36.6788 96.7818C36.6328 96.8278 36.5705 96.8536 36.5056 96.8536Z" fill="#E0F9FF"/>
<path d="M104.114 29H99.2153V33.8988H104.114V29Z" fill="white"/>
<path d="M57.5583 48.5659H54.374V51.7501H57.5583V48.5659Z" fill="white"/>
<path d="M38.8988 94.1147H34V99.0136H38.8988V94.1147Z" fill="white"/>
<path d="M95.1621 79.7344L84.4753 90.0005L88.8058 94.5084L99.4925 84.2422L95.1621 79.7344Z" fill="white"/>
<path d="M59.3488 51.1157L75.2112 68.4159C75.6328 68.282 76.0874 68.2947 76.5009 68.4519C76.9144 68.6092 77.2625 68.9017 77.4886 69.2819C77.7147 69.6622 77.8055 70.1078 77.7462 70.5462C77.6869 70.9846 77.481 71.39 77.162 71.6965C76.843 72.003 76.4296 72.1925 75.9892 72.2343C75.5488 72.276 75.1072 72.1675 74.7363 71.9263C74.3654 71.6852 74.087 71.3256 73.9464 70.9062C73.8058 70.4867 73.8113 70.032 73.962 69.6161L57.306 53.0728L62.8613 79.9061L82.9807 88.4545L93.6675 78.189L86.3854 57.3152L59.3488 51.1157Z" fill="white"/>
<rect x="0.5" y="0.5" width="7.0804" height="6.40704" fill="#F2FFF4" stroke="black"/>
<rect x="0.5" y="127.093" width="7.0804" height="6.40704" fill="#F2FFF4" stroke="black"/>
<rect x="141.907" y="125.073" width="7.0804" height="6.40704" fill="#F2FFF4" stroke="black"/>
<rect x="139.887" y="0.5" width="7.0804" height="6.40704" fill="#F2FFF4" stroke="black"/>
</svg>
