<svg width="119" height="119" viewBox="0 0 119 119" fill="none" xmlns="http://www.w3.org/2000/svg">
<path fill-rule="evenodd" clip-rule="evenodd" d="M50.8675 69.2559C51.0223 74.3459 53.7002 78.4728 57.5249 81.4156C61.8603 84.6421 67.0969 86.4305 72.5003 86.5302C74.2284 86.4619 75.945 86.218 77.6237 85.8022C80.0613 85.1612 82.4329 84.2913 84.7069 83.2042C84.815 83.1611 84.9017 83.077 84.9482 82.9704C84.9948 82.8637 84.9974 82.743 84.9556 82.6344C84.9123 82.5265 84.8288 82.4397 84.7227 82.3922C84.6166 82.3447 84.4962 82.3403 84.3869 82.3798C82.4589 83.0192 80.4866 83.5167 78.4859 83.8681C76.521 84.2307 74.5193 84.3521 72.525 84.2293C67.6569 84.0547 62.964 82.3686 59.0979 79.4052C55.9431 76.9333 53.6567 73.5455 53.4769 69.3447C54.5692 69.3332 55.6584 69.2239 56.7312 69.0182C58.8955 68.6188 60.9243 67.6807 62.6305 66.2906C64.1351 65.0658 65.2868 63.4628 65.9675 61.646C66.2628 60.8957 66.3327 60.0754 66.1688 59.2859C66.0048 58.4964 65.6141 57.7718 65.0445 57.201C62.5176 54.6681 59.5323 55.1376 56.8896 57.1323C53.9101 59.3781 51.446 63.6748 50.9719 66.6618C49.9027 66.5784 48.8304 66.4451 47.7772 66.3091C43.3614 65.6727 39.3102 63.5031 36.3331 60.1803C33.3189 56.8359 31.3964 52.6518 30.8221 48.1863C30.2358 44.3778 31.0218 40.5492 32.2629 37.219C33.0678 35.0784 34.0871 33.0246 35.3052 31.0891C36.0752 29.741 37.0129 28.496 38.0961 27.3839C38.1162 27.3693 38.1299 27.3476 38.1345 27.3233C38.1391 27.2989 38.1341 27.2737 38.1207 27.2529C38.1061 27.2328 38.0845 27.2191 38.0601 27.2145C38.0357 27.2099 38.0105 27.2149 37.9897 27.2283C36.5539 27.9924 35.263 29.0021 34.1754 30.2114C32.5488 32.0514 31.2234 34.1371 30.2484 36.3911C28.5178 40.1874 27.8462 44.381 28.3046 48.5278C28.936 53.5076 31.0708 58.1765 34.4241 61.9119C37.8113 65.6972 42.4261 68.1653 47.455 68.8809C48.5857 69.0313 49.7246 69.171 50.8675 69.2559ZM53.6263 66.7406C54.5003 66.72 55.3712 66.6277 56.2301 66.4646C57.9645 66.1395 59.5897 65.3846 60.957 64.2691C61.8989 63.4997 62.6736 62.5458 63.2335 61.4661C63.6429 60.6306 63.8723 59.7366 63.1987 59.0555C61.7361 57.5852 60.0058 58.0682 58.4701 59.2226C56.0899 61.1433 54.3915 63.7794 53.6263 66.7406Z" fill="white"/>
<path fill-rule="evenodd" clip-rule="evenodd" d="M84.0094 82.2902C83.3637 82.841 82.7142 83.3787 82.0673 83.9355C81.3288 84.586 80.5535 85.2358 79.8463 85.9168C77.9838 87.6633 76.2552 89.4842 74.5241 91.2862C74.4408 91.3595 74.3891 91.4622 74.3798 91.5727C74.3704 91.6832 74.4041 91.7931 74.4739 91.8794C74.5436 91.9657 74.644 92.0217 74.754 92.0357C74.8641 92.0497 74.9753 92.0207 75.0644 91.9547C76.851 90.8103 78.6588 89.7501 80.4569 88.5772C81.2176 88.1035 81.9766 87.5739 82.702 87.0257C84.3319 85.7966 85.8508 84.4356 87.3557 83.0843C87.5961 82.8587 87.7928 82.5904 87.9356 82.2931C88.0796 81.9813 88.1256 81.6331 88.0674 81.2946C88.0303 81.099 87.9532 80.9132 87.8408 80.7489C87.7284 80.5846 87.5832 80.4453 87.4143 80.3399C86.9963 80.1162 86.5419 79.9683 86.0723 79.9032C83.8511 79.4866 78.2856 79.2193 77.1355 79.1392L74.8228 79.1122C74.6511 79.1063 74.4796 79.1304 74.3163 79.1836C74.0658 79.2542 73.8329 79.3764 73.6325 79.5423C73.5305 79.6588 73.7017 79.7649 73.5979 79.7269C73.4941 79.689 73.5745 79.852 73.6262 79.8062C73.7226 79.6209 73.7066 79.9692 73.7914 79.9112C73.9976 79.7649 73.7534 80.1136 73.9544 80.1267C74.0259 80.1401 73.9042 80.1974 73.9745 80.2168C74.0449 80.2361 73.8636 80.2822 73.9488 80.3537C74.034 80.4252 73.8409 80.3704 73.9001 80.4494C73.9592 80.5283 73.7638 80.3868 73.8185 80.4895C73.8733 80.5923 73.7441 80.4263 73.7441 80.4263C73.7441 80.4263 73.7262 80.5215 73.6831 80.2915C73.6985 80.2883 73.713 80.2815 73.7254 80.2718C73.7378 80.2621 73.7478 80.2496 73.7546 80.2354C73.7614 80.2212 73.7649 80.2056 73.7648 80.1899C73.7646 80.1741 73.7609 80.1586 73.7538 80.1445C73.7471 80.1339 73.7384 80.1248 73.728 80.1178C73.7177 80.1108 73.706 80.106 73.6937 80.1036C73.6814 80.1013 73.6687 80.1016 73.6565 80.1044C73.6443 80.1072 73.6329 80.1125 73.6228 80.12C73.1733 79.6904 73.5454 80.1054 73.3281 80.0153C73.2447 79.9997 73.3158 80.0809 73.2659 80.0838C72.9521 80.0805 73.3854 80.2357 73.2089 80.3875C73.1419 80.4489 73.2982 80.4043 73.2577 80.4891C73.2171 80.574 73.4185 80.4207 73.4259 80.644C73.4047 80.7571 73.5256 80.5394 73.622 80.7486C73.7184 80.9577 73.6097 80.8141 73.8457 80.9693C74.0816 81.1245 74.4918 81.0412 74.6794 81.1257L76.8447 81.4455C77.7669 81.5569 81.4906 81.9164 84.0094 82.2902Z" fill="white"/>
</svg>
