<svg width="1300" height="330" viewBox="0 0 1300 330" fill="none" xmlns="http://www.w3.org/2000/svg">
<path d="M238.063 -121.689C229.332 -156.074 159.13 -165.252 77.869 -175.818C57.7665 -178.415 36.9924 -181.146 16.8451 -184.325C-72.2956 -198.383 -153.87 -243.155 -232.758 -286.404C-272.291 -308.164 -312.631 -330.281 -353.955 -348.503V-345.055C-313.213 -327.147 -273.366 -305.164 -234.28 -283.763C-155.168 -240.334 -73.1015 -195.473 16.4422 -181.325C36.6342 -178.146 57.4531 -175.415 77.5557 -172.774C154.339 -162.745 226.914 -153.253 235.108 -120.928C241.465 -95.766 208.692 -57.5757 134.908 -4.20764C31.0825 70.6508 -55.6405 105.528 -138.647 105.528C-187.162 105.244 -234.899 93.3139 -277.843 70.7404C-304.577 56.4142 -330.04 39.8332 -353.955 21.178L-353.955 25.1179C-330.399 43.3234 -305.341 59.4991 -279.052 73.4714C-235.736 96.2502 -187.587 108.303 -138.647 108.617C-54.9689 108.617 32.5152 73.561 136.61 -1.74521C212.632 -56.6355 244.868 -94.7811 238.063 -121.689Z" fill="white" fill-opacity="0.03"/>
<path d="M-258.457 33.2657C-224.43 50.7267 -195.508 58.8304 -167.48 58.8304C-138.11 58.8304 -112.008 49.8761 -81.7872 39.8024C-64.6396 34.0269 -45.2086 27.4454 -23.1361 21.8937C-14.2104 19.7345 -5.05292 18.6819 4.12991 18.7597C8.60709 18.7597 12.5022 18.7597 16.4422 19.1179C20.3821 19.476 23.74 19.3865 27.2769 19.3865C45.1856 19.3865 59.826 14.9093 75.6305 -6.26773C83.5565 -16.9449 89.6817 -28.8474 93.7631 -41.5032C99.0461 -56.1883 103.21 -67.7842 126.402 -84.3946C133.575 -88.8655 141.236 -92.5008 149.235 -95.2294C162.667 -100.468 173.949 -104.99 174.442 -112.601C174.8 -118.779 167.592 -125.719 151.743 -134.315C132.759 -144.657 105.628 -146.045 81.5851 -146.045C70.8847 -146.045 59.6469 -145.732 48.7674 -145.374C37.8878 -145.016 26.3815 -144.747 15.681 -144.747C-2.75055 -144.179 -21.1765 -146.046 -39.1197 -150.299C-117.023 -171.341 -190.09 -211.636 -254.517 -246.871C-288.364 -265.362 -321.182 -283.271 -353.955 -298.852V-296.344C-321.54 -281.032 -289.081 -263.258 -255.457 -244.902C-190.896 -209.487 -117.739 -169.371 -39.5674 -148.105C-21.4224 -143.884 -2.80453 -142.048 15.8153 -142.643C26.6949 -142.643 38.2012 -142.956 48.9465 -143.27C59.6917 -143.583 71.0638 -143.941 81.7194 -143.941C105.493 -143.941 132.222 -142.598 150.802 -132.524C165.398 -124.555 172.651 -117.973 172.338 -112.869C171.935 -106.646 160.563 -102.214 148.519 -97.4679C140.309 -94.6501 132.452 -90.8943 125.103 -86.275C101.329 -69.3065 96.8523 -56.8151 91.6588 -42.3539C87.6157 -29.8495 81.5673 -18.0853 73.7501 -7.52139C58.4829 13.0736 44.6036 17.1927 27.1874 17.1927C23.6952 17.1927 20.203 17.1927 16.4422 16.924C12.6813 16.6554 8.42798 16.7002 4.21942 16.7002C-5.16101 16.6156 -14.5156 17.6984 -23.6286 19.9237C-45.7459 25.4754 -65.2216 32.0569 -82.414 37.8325C-112.456 47.9509 -138.379 56.7262 -167.48 56.7262C-195.149 56.7262 -223.714 48.6673 -257.427 31.4301C-288.23 15.4914 -315.944 -5.68573 -342.762 -25.833L-353.955 -34.2949V-31.4743L-344.105 -24.0422C-317.242 -3.67099 -289.439 17.4165 -258.457 33.2657Z" fill="white" fill-opacity="0.03"/>
<path d="M-237.817 -6.9843C-207.297 9.34335 -173.26 17.9947 -138.647 18.2222C-119.798 18.2222 -79.1457 10.5215 -43.6416 -2.32802C-12.57 -13.6105 24.5011 -32.3251 24.5459 -57.4869C24.5459 -87.1258 -32.583 -103.602 -66.7886 -113.452C-74.2208 -115.601 -80.6679 -117.436 -84.6974 -119.003C-150.771 -143.316 -214.828 -172.793 -276.276 -207.159C-302.691 -221.71 -328.525 -235.858 -353.955 -248.573V-247.051C-328.749 -234.425 -303.139 -220.188 -276.903 -206.04C-215.459 -171.59 -151.402 -142.024 -85.3242 -117.615C-80.847 -116.004 -74.5341 -114.168 -67.0573 -112.019C-33.2097 -102.303 23.4266 -86.0065 23.337 -57.3526C23.337 -13.8344 -99.5168 17.0134 -138.603 17.0134C-172.976 16.7573 -206.774 8.16946 -237.101 -8.01402C-264.456 -22.0276 -290.558 -41.8615 -315.854 -61.0239C-328.077 -70.2916 -340.658 -79.828 -353.821 -89.0958V-87.4393C-340.971 -78.4849 -328.659 -69.038 -316.66 -59.9494C-291.275 -40.8766 -265.307 -21.0426 -237.817 -6.9843Z" fill="white" fill-opacity="0.03"/>
<path d="M117.313 381.68C114.156 376.399 109.839 371.905 104.688 368.538C99.5377 365.172 93.6888 363.021 87.5843 362.249C79.6949 361.088 72.2094 358.013 65.7804 353.295L65.1088 352.489C42.2752 326.925 -34.2846 243.559 -60.2523 243.559C-61.6037 243.489 -62.9522 243.744 -64.1837 244.306C-65.4151 244.867 -66.4931 245.717 -67.3262 246.783C-70.7736 251.26 -70.5945 260.215 -66.7889 274.586C-64.5056 283.048 -42.836 294.644 -19.8681 307.001C-0.750488 317.254 19.0386 327.865 25.7544 335.834C31.7538 342.953 39.6784 352.847 39.1859 356.295C39.1859 357.235 37.9771 357.772 36.231 358.623C32.2016 360.638 26.1574 363.637 29.381 377.785C32.5332 388.088 37.3092 397.821 43.5288 406.618C48.9096 414.323 53.1752 422.748 56.1992 431.646C61.9301 453.674 25.844 494.103 1.98058 520.831C-5.89926 529.786 -12.7046 537.307 -17.0474 543.217C-35.4485 566.336 -55.499 588.092 -77.0417 608.315C-117.829 648.61 -160.004 690.069 -174.823 747.421C-197.254 833.025 -201.731 908.734 -188.3 972.31C-181.136 1006.25 -156.422 1053.57 -132.469 1053.57C-117.56 1053.57 -106.681 1035.66 -100.189 1000.29C-75.1165 864.052 -6.70515 818.743 59.4228 774.911C118.029 736.094 173.367 699.426 197.186 604.196C206.14 568.379 192.35 512.996 174.397 482.417C167.229 470.992 157.742 461.199 146.549 453.674C137.596 447.685 129.825 440.096 123.626 431.288C119.148 424.348 119.999 416.244 120.805 407.648C121.611 399.052 122.73 389.471 117.313 381.68ZM121.118 432.855C127.474 442.039 135.51 449.939 144.803 456.136C155.591 463.456 164.739 472.939 171.666 483.984C189.306 514.026 203.006 568.245 194.052 603.435C170.546 697.456 115.701 733.856 57.5872 772.315C-8.8542 816.504 -77.8028 862.216 -103.233 999.711C-109.322 1032.89 -119.441 1050.44 -132.424 1050.44C-152.796 1050.44 -177.51 1008.08 -185.21 971.683C-198.642 908.6 -194.165 833.339 -172.092 748.093C-157.497 691.546 -115.635 650.311 -75.1613 610.42C-53.4639 590.115 -33.2778 568.253 -14.7641 545.008C-10.5107 539.367 -3.75021 531.577 4.08485 523.025C29.8734 494.147 65.1536 454.569 59.0199 430.974C55.9367 421.747 51.5332 413.016 45.9465 405.051C39.9324 396.531 35.2942 387.119 32.2016 377.159C29.56 365.428 33.7238 363.369 37.3951 361.533C39.4098 360.548 41.5141 359.474 41.8723 357.056C42.5886 353.788 40.4843 348.773 27.993 333.954C20.9191 325.537 0.861282 314.747 -18.5249 304.36C-38.8961 293.435 -61.9536 281.033 -63.8788 273.915C-68.3559 257.707 -66.8785 251.529 -64.9533 248.843C-64.4233 248.172 -63.7398 247.639 -62.9606 247.289C-62.1814 246.938 -61.3292 246.78 -60.4761 246.828C-40.9108 246.828 15.9046 302.569 62.5569 354.728L63.497 355.713C70.3313 360.774 78.288 364.107 86.6888 365.428C92.3913 366.084 97.8673 368.04 102.695 371.145C107.523 374.249 111.574 378.421 114.537 383.337C119.014 390.187 118.477 398.38 117.626 407.066C116.776 415.752 116.149 424.975 121.118 433.079V432.855Z" fill="white" fill-opacity="0.03"/>
<path d="M-353.955 91.0654C-202.984 176.49 -40.2837 312.417 -10.6448 379.978C7.26395 420.541 -35.9856 469.029 -90.5625 530.411C-152.482 600.166 -229.848 686.978 -234.638 791.252C-240.503 918.18 -303.452 970.339 -353.955 986.099V989.412C-302.288 973.652 -237.548 920.821 -231.504 791.341C-226.758 688.366 -149.93 601.912 -88.2343 532.516C-32.8964 470.283 10.8009 421.123 -7.64505 378.724C-37.6422 310.671 -201.731 173.401 -353.955 87.7075V91.0654Z" fill="white" fill-opacity="0.03"/>
<path d="M552.988 1049C612.4 1042.24 676.11 973.429 676.916 915.136C678.17 825.592 626.816 754.36 577.12 685.322C568.658 673.636 559.927 661.503 551.689 649.504L546.764 642.341C523.349 608.673 496.844 570.706 488.247 529.247C480.95 494.281 469.801 412.841 481.935 384.813C490.889 364.263 516.185 352.488 540.675 341.071C557.599 333.236 573.627 325.804 584.865 315.596L585.358 315.149C623.772 280.316 623.772 280.316 649.963 279.331C657.888 279.062 667.872 278.749 681.662 277.406C694.398 276.293 707.021 274.136 719.404 270.959C723.354 269.784 727.425 269.063 731.538 268.81C739.596 268.81 746.357 274.496 768.698 293.434C834.737 349.354 833.483 446.599 832.274 540.664C830.752 658.996 829.185 781.402 963.142 820.13C981.24 825.513 1000 828.331 1018.88 828.502C1069.25 828.502 1112.1 806.116 1142.86 763.449C1187.99 701.037 1199.99 603.569 1172.72 520.965C1109.73 330.326 959.202 221.307 797.263 117.436C650.142 23.0124 509.962 -3.00005 390.152 -19.9686C382.026 -21.1422 373.828 -21.7555 365.617 -21.8042C317.04 -21.8042 293.983 2.90985 264.702 34.1606C252.959 47.1329 240.556 59.4913 227.541 71.1869C211.065 85.6482 190.112 95.5875 169.875 105.169C136.833 120.794 105.628 135.524 92.7332 168.342C65.3776 237.962 132.58 292.181 191.903 340.042C219.348 362.428 245.271 383.157 260.448 404.065C320.711 486.983 302.668 626.805 248.047 705.38C230.989 729.87 198.305 760.225 163.741 792.327C106.433 845.515 41.4695 905.823 30.0079 956.46C24.5905 980.323 26.0232 996.755 34.4851 1007.32C41.4247 1016.01 53.1102 1020.22 70.3026 1020.22C98.464 1020.22 138.803 1008.62 181.471 996.307C233.63 981.308 292.774 964.295 343.187 964.295C364.058 963.681 384.815 967.591 404.032 975.757C422.581 984.996 439.97 996.403 455.833 1009.74C482.114 1030.15 506.917 1049.45 542.018 1049.45C545.68 1049.49 549.341 1049.34 552.988 1049ZM404.659 973.876C385.144 965.587 364.067 961.616 342.873 962.236C292.102 962.236 232.824 979.294 180.531 994.337C137.998 1006.6 97.8372 1018.16 69.9892 1018.16C53.6475 1018.16 42.544 1014.22 36.0521 1006.11C28.2171 996.262 27.0977 980.279 32.157 957.176C43.4842 907.166 108.269 847.127 165.264 794.162C199.917 761.971 232.69 731.482 249.882 706.812C304.952 627.656 323.084 486.625 262.284 402.901C246.927 381.769 220.87 360.726 193.291 338.475C134.595 291.106 67.9297 237.425 94.7928 169.327C107.374 137.36 138.177 122.764 170.905 107.362C191.321 97.6918 212.408 87.7524 229.108 73.0673C242.157 61.3154 254.604 48.9128 266.403 35.9067C295.281 5.01412 318.115 -19.3865 365.707 -19.3865C373.815 -19.3606 381.91 -18.7471 389.929 -17.5509C509.514 -0.627142 649.605 25.3405 796.188 119.496C957.725 223.142 1107.93 331.893 1170.66 521.86C1197.75 603.792 1185.88 700.455 1141.15 762.33C1110.84 804.281 1068.58 826.443 1018.97 826.443C1000.27 826.269 981.689 823.466 963.769 818.115C904.402 800.923 866.883 765.687 848.974 710.349C832.99 660.742 833.752 599.763 834.513 540.798C835.722 446.24 836.975 348.28 770.131 291.867C738.164 264.78 737.313 264.377 718.867 268.944C706.603 272.101 694.099 274.243 681.483 275.346C667.603 276.645 657.798 276.958 649.919 277.227C623.055 278.167 623.055 278.167 583.88 313.537L583.343 313.984C572.374 323.924 556.48 331.311 539.735 339.101C514.842 350.653 489.098 362.651 479.875 383.873C467.518 412.482 478.711 494.415 486.054 529.606C494.739 571.288 521.379 609.658 544.929 643.55L549.854 650.669C558.091 662.623 566.822 674.756 575.284 686.486C624.533 755.211 675.931 826.308 674.677 914.822C673.871 972.175 611.191 1039.83 552.719 1046.5C549.061 1046.9 545.385 1047.11 541.705 1047.12C507.365 1047.12 482.83 1028.1 456.907 1007.9C440.879 995.725 424.313 982.831 404.659 973.876Z" fill="white" fill-opacity="0.03"/>
<path d="M1499.82 -341.787H1482.58H1466.6C1436.07 -341.787 1411.8 -340.13 1384.98 -331.982C1371.23 -327.37 1357.91 -321.557 1345.18 -314.61C1323.96 -303.82 1303.95 -293.612 1279.99 -293.612C1275.99 -293.604 1272 -293.889 1268.04 -294.463C1250.35 -297.015 1237.1 -307.447 1224.3 -317.521C1209.92 -328.848 1196.36 -339.548 1177.29 -339.548C1175.52 -339.547 1173.76 -339.457 1172 -339.28C1160.27 -338.071 1141.42 -327.505 1123.25 -317.252C1113.4 -311.343 1103.17 -306.108 1092.62 -301.582C1084.07 -298.439 1075.32 -295.852 1066.43 -293.836C1047.58 -289.359 1045.21 -287.703 1036.08 -253.049C1033.57 -243.468 1031.6 -234.514 1029.94 -225.873C1023.36 -193.727 1018.17 -168.52 983.916 -144.478C960.769 -128.136 931.444 -120.211 894.373 -120.211C857.302 -120.211 818.932 -127.912 784.906 -134.762C766.997 -138.299 750.297 -141.657 737.85 -143C730.597 -143.761 719.404 -144.254 707.943 -144.254C675.08 -144.254 636.577 -132.21 633.89 -114.928C632.592 -106.78 638.994 -94.4674 676.692 -82.4238L680.856 -81.0806C824.439 -35.0552 924.594 25.0734 1026.54 126.347C1054.61 154.285 1076.1 167.313 1094.1 167.313C1098.29 167.312 1102.45 166.554 1106.37 165.075C1125.48 157.956 1139.41 133.735 1155.62 105.886C1163.94 91.4699 1173.53 75.1282 1184.58 59.3686C1237.6 -16.066 1314.62 -71.3046 1403.07 -97.3328C1427.16 -104.409 1452.11 -108.101 1477.21 -108.302C1554.53 -108.302 1609.11 -70.425 1660.78 -31.4735V-34.2941C1609.2 -73.1113 1554.62 -110.406 1477.21 -110.406C1451.83 -110.185 1426.61 -106.433 1402.26 -99.258C1313.31 -73.0499 1235.86 -17.4635 1182.57 58.4284C1171.33 74.2328 1161.84 90.6193 1153.51 105.081C1137.57 132.66 1123.83 156.479 1105.47 163.284C1101.79 164.639 1097.89 165.336 1093.97 165.343C1076.59 165.343 1055.64 152.539 1027.97 125.049C925.758 23.5063 825.379 -36.7566 681.438 -82.9163L677.229 -84.2595C649.023 -93.2138 634.338 -103.959 635.95 -114.257C638.188 -128.628 672.439 -141.702 707.809 -141.702C719.181 -141.702 730.194 -141.209 737.448 -140.448C749.849 -139.15 766.594 -135.971 784.324 -132.21C818.44 -125.539 857.123 -117.614 894.238 -117.614C931.354 -117.614 961.709 -125.673 985.215 -142.284C1020.18 -167.043 1025.51 -192.786 1032.14 -225.425C1033.93 -234.066 1035.72 -242.976 1038.27 -252.288C1047.22 -286.807 1049.19 -287.255 1066.92 -291.508C1075.91 -293.52 1084.74 -296.122 1093.38 -299.299C1104.05 -303.858 1114.39 -309.154 1124.32 -315.148C1141.51 -324.774 1160.94 -335.698 1172.23 -336.862C1173.91 -337.04 1175.6 -337.129 1177.29 -337.131C1195.55 -337.131 1208.85 -326.654 1222.95 -315.595C1235.98 -305.343 1249.41 -294.732 1267.72 -292.09C1271.8 -291.504 1275.92 -291.205 1280.04 -291.195C1304.53 -291.195 1325.7 -301.985 1346.21 -312.417C1358.84 -319.313 1372.05 -325.081 1385.7 -329.654C1412.2 -337.713 1436.34 -339.369 1466.65 -339.369H1482.58H1499.87C1525.14 -339.628 1550.32 -336.343 1574.68 -329.609C1604.23 -320.875 1633.03 -309.75 1660.78 -296.344V-298.851C1633.2 -312.153 1604.61 -323.217 1575.26 -331.937C1550.7 -338.742 1525.31 -342.057 1499.82 -341.787Z" fill="white" fill-opacity="0.03"/>
<path d="M1499.82 -296.704C1462.17 -296.704 1422.1 -289.854 1379.65 -282.601C1331.88 -274.452 1282.45 -266.035 1229.85 -266.035C1226.04 -266.035 1222.28 -266.035 1218.65 -266.035C1202.7 -266.684 1186.84 -268.722 1171.24 -272.124C1160.8 -274.626 1150.14 -276.126 1139.41 -276.601C1116.17 -276.601 1099.11 -264.334 1080.4 -234.337C1071.59 -218.88 1064.24 -202.632 1058.46 -185.804C1047.22 -156.21 1035.63 -125.631 1009.93 -107.498C1000.97 -101.23 984.185 -96.3947 966.276 -91.2907C934.936 -82.3364 899.476 -72.2179 894.641 -50.9961C888.642 -24.536 943.039 11.6844 972.275 31.205C977.738 34.8315 982.439 37.9655 985.707 40.1593C1019.96 65.3211 1048.39 82.0658 1075.25 82.0658C1078.9 82.0695 1082.54 81.7548 1086.13 81.1255C1107.67 77.2304 1127.19 62.0527 1147.6 33.2644C1206.58 -50.5331 1292.19 -111.902 1390.49 -140.853C1418.67 -149.053 1447.86 -153.287 1477.21 -153.434C1554.44 -153.434 1611.53 -122.094 1660.78 -87.4851V-89.1417C1611.53 -123.795 1554.44 -154.777 1477.21 -154.777C1447.7 -154.557 1418.36 -150.217 1390.04 -141.883C1291.43 -112.883 1205.55 -51.3352 1146.39 32.7272C1126.2 61.2021 1106.95 76.2006 1085.82 80.0062C1082.3 80.6339 1078.73 80.9486 1075.16 80.9465C1048.57 80.9465 1020.41 64.2914 986.334 39.3087C983.244 37.0253 978.543 33.8913 972.902 30.3543C943.935 11.0576 889.985 -24.8494 895.805 -50.4588C900.282 -70.83 935.518 -80.8141 966.455 -89.6342C984.364 -94.7829 1001.51 -99.6631 1010.51 -106.021C1036.52 -124.377 1048.21 -155.27 1059.54 -184.998C1065.3 -201.724 1072.6 -217.881 1081.34 -233.262C1099.74 -262.812 1116.53 -274.9 1139.23 -274.9C1149.87 -274.399 1160.44 -272.9 1170.79 -270.423C1186.48 -266.981 1202.43 -264.928 1218.48 -264.289C1222.1 -264.289 1225.86 -264.289 1229.67 -264.289C1282.41 -264.289 1331.88 -272.706 1379.74 -280.899C1422.1 -288.108 1462.08 -294.958 1499.64 -294.958C1520.81 -295.222 1541.91 -292.509 1562.32 -286.899C1596.32 -276.52 1629.3 -263.032 1660.82 -246.604V-248.126C1629.47 -264.403 1596.67 -277.743 1562.86 -287.973C1542.36 -293.836 1521.14 -296.775 1499.82 -296.704Z" fill="white" fill-opacity="0.03"/>
<path d="M1600.07 989.189C1608.18 993.399 1617.27 995.362 1626.39 994.875C1638.06 994.723 1649.64 992.883 1660.78 989.413V986.1C1649.66 989.689 1638.07 991.59 1626.39 991.741C1617.87 992.197 1609.38 990.406 1601.77 986.547C1575.49 969.758 1563.85 940.074 1551.53 908.689C1540.92 881.602 1529.95 853.575 1508.6 833.831V832.891H1507.66C1483.17 811.266 1450.13 800.744 1406.7 800.744C1364.34 800.744 1319.79 810.908 1284.02 819.101C1259.53 824.653 1238.44 829.488 1224.83 829.488C1216.86 829.488 1211.98 827.831 1209.97 824.474C1207.33 819.996 1209.34 811.534 1215.97 799.401C1246.91 742.944 1309.36 608.27 1305.06 552.529C1301.66 508.564 1280.53 462.986 1260.07 419.199C1230.43 355.668 1199.85 289.808 1222.01 227.128C1247.44 155.493 1359.42 27.3113 1439.11 16.4317C1444.05 15.7867 1449.04 15.4726 1454.02 15.4915C1505.82 15.4915 1581.66 46.384 1660.69 91.1111V87.7532C1581.62 42.9814 1505.87 12.3575 1454.02 12.3575C1448.88 12.3307 1443.75 12.6598 1438.66 13.3425C1358.07 24.3563 1244.71 153.702 1219.06 226.053C1196.36 290.077 1227.25 356.429 1257.11 420.632C1277.44 464.284 1298.44 509.459 1301.89 552.843C1305.74 602.54 1251.25 728.528 1213.19 798.013C1205.76 811.445 1203.88 820.399 1207.24 826.175C1209.88 830.652 1215.61 832.712 1224.79 832.712C1238.76 832.712 1260.02 827.876 1284.65 822.235C1320.47 814.086 1364.66 803.968 1406.65 803.968C1449.54 803.968 1482.05 814.355 1506 835.756C1527.13 855.053 1538.06 882.901 1548.62 909.898C1561.11 941.731 1572.93 971.862 1600.07 989.189Z" fill="white" fill-opacity="0.03"/>
<path d="M383.347 363.592C387.197 363.592 390.242 358.13 393.286 345.952C404.524 300.24 441.64 239.753 499.261 207.562C557.465 175.013 596.506 166.551 617.369 162.03C627.756 159.791 632.95 158.627 634.204 155.896C634.431 155.286 634.51 154.63 634.432 153.983C634.354 153.337 634.122 152.718 633.756 152.18C629.726 144.837 557.644 104.408 453.505 95.9911L449.027 95.6329C439.67 94.8718 431.566 94.2002 423.821 94.2002C396.734 94.2002 374.84 101.811 323.801 144.927C315.742 151.732 307.504 158.045 299.534 164.134C274.865 183.072 253.554 199.414 254.762 217.86C255.837 232.097 269.895 246.245 299.131 262.318C331.456 280.227 351.156 315.507 364.185 338.878C372.736 353.787 378.198 363.592 383.347 363.592ZM300.027 261.244C271.641 245.574 257.359 231.381 256.374 217.86C255.031 199.951 276.074 183.878 300.43 165.208C308.444 159.075 316.682 152.762 324.786 145.912C375.467 103.11 397.137 95.5434 423.91 95.5434C431.611 95.5434 439.67 96.2149 449.027 96.976L453.505 97.3342C555.047 105.527 628.831 145.822 632.592 152.806C633.398 154.239 633.219 154.956 633.039 155.359C632.055 157.463 626.458 158.672 617.145 160.731C596.192 165.208 557.151 173.76 498.679 206.398C440.207 239.037 403.315 299.658 391.988 345.594C389.257 356.832 386.436 362.249 383.392 362.249C378.915 362.249 373.139 351.683 365.483 338.341C352.544 314.791 332.71 279.242 300.027 261.244Z" fill="white" fill-opacity="0.03"/>
<path d="M391.809 440.464C395.704 440.464 398.391 435.987 400.271 425.779C411.912 364.128 437.073 276.823 521.155 230.261C549.514 214.92 579.688 203.203 610.967 195.383C618.707 192.626 625.972 188.684 632.502 183.698C641.77 177.475 651.396 170.983 660.261 170.983C661.267 170.983 662.271 171.073 663.261 171.251C667.931 172.37 672.242 174.649 675.797 177.878C679.326 181.374 683.966 183.528 688.915 183.967C691.037 183.923 693.133 183.483 695.093 182.668C698.36 181.138 701.045 178.594 702.749 175.415C703.821 173.012 705.646 171.022 707.947 169.746C710.249 168.47 712.903 167.977 715.509 168.341C723.076 168.968 727.15 174.744 731.448 180.833C734.116 185.274 737.722 189.079 742.014 191.981C746.401 194.283 751.255 195.554 756.207 195.697C757.601 195.852 759.012 195.678 760.326 195.188C761.64 194.698 762.821 193.906 763.773 192.876C764.463 191.761 764.883 190.501 765 189.195C765.117 187.889 764.927 186.574 764.445 185.354C761.535 174.788 738.88 164.939 723.926 158.491C719.449 156.566 715.644 154.91 713.226 153.611C690.84 141.792 668.454 131.763 649.829 123.525C570.493 88.8265 498.187 67.6494 428.746 58.7845C421.874 57.8611 414.95 57.3677 408.016 57.3071C373.811 57.3071 347.306 72.2609 294.565 121.331C281.626 133.374 268.284 143.717 255.434 153.701C226.556 176.087 203.767 193.772 204.305 216.023C204.752 233.619 220.02 252.333 252.3 274.943C304.325 311.342 338.889 366.636 361.722 403.214C375.826 425.6 385.049 440.464 391.809 440.464ZM253.016 273.645C221.049 251.259 206.006 232.947 205.558 215.844C205.066 194.264 227.586 176.758 256.15 154.596C269.045 144.567 282.387 134.225 295.371 122.137C347.843 73.3354 374.124 58.4712 407.927 58.4712C414.801 58.5308 421.665 59.0243 428.477 59.9486C497.784 68.903 570.001 89.9458 649.202 124.599C668.006 132.837 690.213 142.821 712.51 154.596C714.972 155.939 718.822 157.596 723.3 159.521C738.03 165.968 760.326 175.684 763.057 185.623C763.482 186.645 763.662 187.751 763.584 188.855C763.507 189.958 763.173 191.029 762.609 191.981C761.756 192.807 760.734 193.439 759.613 193.833C758.493 194.227 757.3 194.374 756.117 194.264C751.427 194.1 746.835 192.875 742.686 190.682C738.565 187.906 735.109 184.252 732.567 179.982C728.09 173.893 723.613 167.625 715.644 166.909C712.791 166.521 709.889 167.06 707.366 168.446C704.843 169.833 702.832 171.993 701.63 174.609C700.068 177.544 697.604 179.899 694.601 181.325C692.798 182.075 690.867 182.47 688.915 182.489C684.267 182.042 679.918 180.001 676.603 176.714C672.954 173.419 668.535 171.094 663.753 169.953C662.693 169.736 661.612 169.631 660.53 169.64C651.217 169.64 641.457 176.221 632.01 182.579C625.628 187.496 618.511 191.379 610.922 194.085C579.531 201.953 549.241 213.699 520.752 229.052C436.044 275.928 410.703 363.636 399.017 425.511C397.316 434.689 394.988 438.942 391.899 438.942C385.854 438.942 376.229 423.496 362.886 402.14C340.008 365.651 305.22 310.223 253.016 273.645Z" fill="white" fill-opacity="0.03"/>
<path d="M557.196 1002.22C572.934 1000.03 587.886 993.982 600.715 984.607C613.544 975.231 623.85 962.823 630.711 948.492C643.516 921.942 650.456 876.857 610.698 813.147C593.64 785.791 574.881 758.122 556.972 731.393C505.485 654.968 456.862 582.751 436.76 510.31C414.061 428.378 432.283 360.772 494.157 297.599C547.883 242.888 618.533 211.503 688.422 211.503C740.94 211.503 787.816 229.994 820.365 263.528C856.182 300.42 874.091 354.325 872.076 419.513C871.628 434.646 870.912 450.271 870.151 466.792C867.42 525.622 864.375 592.153 873.867 647.76C884.791 711.559 910.714 750.735 953.068 768.24C973.292 776.999 995.015 781.772 1017.05 782.299C1034.33 782.488 1051.4 778.466 1066.79 770.58C1082.17 762.693 1095.4 751.18 1105.34 737.035C1142.54 686.666 1151.45 600.436 1127.5 522.443C1076.15 355.086 952.889 255.155 770.176 148.196C631.383 66.9347 514.394 41.8625 408.464 26.8639C401.051 25.774 393.571 25.2055 386.078 25.1626C341.888 25.1626 320.801 47.5485 294.162 76.2024C283.909 87.1715 273.343 98.5884 260.224 110.05C247.813 120.758 234.444 130.304 220.288 138.57C201.618 150.076 185.5 159.971 167.771 186.475C132.58 239.082 179.68 271.542 229.511 305.524C255.882 323.432 283.237 342.237 297.699 364.354C389.391 503.147 352.41 651.476 287.177 743.84C268.552 770.21 241.331 795.148 212.498 821.564C177.262 853.844 140.863 887.199 119.999 924.539C111.045 940.567 108.493 951.402 112.209 957.804C114.94 962.282 121.163 964.744 130.61 964.744C147.802 964.744 175.113 957.625 206.722 949.342C251.091 937.791 306.295 923.375 355.096 923.375C377.671 922.74 400.123 926.922 420.955 935.642C437.914 944.097 453.814 954.527 468.324 966.714C492.232 985.339 514.842 1002.93 546.809 1002.93C550.282 1002.9 553.751 1002.66 557.196 1002.22ZM421.627 934.523C400.643 925.671 377.994 921.456 355.23 922.166C306.25 922.166 250.957 936.582 206.498 948.178C174.934 956.416 147.713 963.535 130.7 963.535C121.745 963.535 115.925 961.476 113.463 957.267C109.97 951.357 112.522 940.925 121.253 925.345C141.982 888.274 178.337 854.964 213.528 822.773C242.405 796.312 269.671 771.33 288.386 744.825C325.97 692.282 348.466 630.46 353.439 566.051C358.543 494.416 340.008 426.318 298.728 363.593C283.998 341.207 256.643 322.537 230.183 304.404C180.934 270.602 134.326 238.724 168.8 187.192C186.396 160.956 202.379 151.106 220.87 139.734C235.165 131.441 248.655 121.834 261.165 111.035C273.105 100.324 284.478 88.9961 295.236 77.0979C321.651 48.8469 342.56 26.5058 386.168 26.5058C393.586 26.551 400.992 27.1195 408.33 28.2071C514.125 43.1609 631.069 68.2331 769.504 149.36C951.77 256.14 1075.03 355.892 1126.29 522.801C1150.11 600.436 1141.29 686.218 1104.31 736.229C1094.5 750.219 1081.44 761.607 1066.24 769.409C1051.04 777.21 1034.17 781.189 1017.09 781C995.266 780.518 973.738 775.82 953.695 767.166C911.789 750.108 886.135 711.022 875.3 647.715C865.808 592.377 868.853 525.801 871.584 467.06C872.345 450.495 873.061 434.87 873.509 419.692C875.479 354.191 857.481 299.927 821.439 262.767C788.622 228.964 741.432 210.339 688.512 210.339C618.265 210.339 547.122 241.679 493.307 296.838C460.444 330.417 440.118 365.025 431.253 402.723C423.328 436.392 424.716 471.761 435.73 510.847C455.877 583.512 504.544 655.774 556.121 732.333C574.03 759.197 592.745 786.686 609.848 814.042C649.292 877.305 642.442 921.853 629.771 948.089C622.987 962.188 612.824 974.393 600.186 983.617C587.548 992.842 572.827 998.801 557.33 1000.96C553.97 1001.33 550.593 1001.53 547.212 1001.55C515.872 1001.55 493.486 984.085 469.533 965.729C454.86 953.461 438.778 942.985 421.627 934.523Z" fill="white" fill-opacity="0.03"/>
<path d="M1499.82 -265.362C1464.81 -265.362 1425.99 -258.736 1384.94 -251.931C1335.69 -243.559 1285.14 -234.918 1229.85 -234.918C1225.77 -234.918 1221.74 -234.918 1217.94 -234.918L1208.18 -235.186C1199.81 -235.186 1191.93 -235.634 1184.31 -235.634C1136.68 -235.634 1107.22 -225.918 1087.74 -174.699C1075.47 -142.329 1061.55 -105.661 1028.11 -82.0218C1018.66 -75.306 1009.21 -69.5752 1000.84 -64.5608C981.499 -52.8754 966.231 -43.6523 965.649 -30.8924C965.157 -19.1622 976.977 -5.05905 1004.11 14.8196C1030.08 33.8925 1051.48 43.1602 1069.48 43.1602C1071.09 43.1602 1072.74 43.1602 1074.31 43.1602C1100.46 40.7426 1118.01 19.1177 1140.21 -8.23785C1151.15 -22.1494 1162.81 -35.4798 1175.14 -48.1743C1232.53 -105.873 1303.62 -148.066 1381.76 -170.804C1412.77 -179.899 1444.9 -184.601 1477.21 -184.773C1553.32 -184.773 1612.15 -157.238 1660.78 -125.361V-126.973C1612.15 -158.716 1553.32 -186.116 1477.21 -186.116C1444.77 -185.904 1412.52 -181.157 1381.4 -172.013C1303.05 -149.193 1231.76 -106.878 1174.2 -49.025C1161.82 -36.3135 1150.14 -22.9526 1139.18 -8.99896C1117.16 18.1328 1099.79 39.5337 1074.18 41.9066C1072.65 41.9066 1071.04 41.9066 1069.48 41.9066C1051.79 41.9066 1030.66 32.9522 1004.87 13.8347C978.006 -5.77539 966.5 -19.5203 966.993 -30.9372C967.53 -42.936 982.573 -52.0247 1001.56 -63.4863C1009.93 -68.5455 1019.47 -74.2763 1028.91 -80.9921C1062.67 -104.9 1076.64 -141.792 1089 -174.341C1108.16 -224.486 1137.3 -234.022 1184.31 -234.022C1191.93 -234.022 1199.81 -233.798 1208.13 -233.574L1217.89 -233.306C1221.74 -233.306 1225.73 -233.306 1229.85 -233.306C1285.23 -233.306 1336.05 -241.992 1385.16 -250.364C1426.17 -257.348 1464.9 -263.795 1499.82 -263.795C1518.07 -264.026 1536.25 -261.72 1553.86 -256.945C1588.56 -247.095 1624.11 -230.843 1660.78 -211.636V-213.158C1624.24 -232.052 1588.83 -248.17 1554.22 -257.93C1536.53 -262.95 1518.21 -265.452 1499.82 -265.362Z" fill="white" fill-opacity="0.03"/>
<path d="M919.131 518.144C913.938 586.062 927.369 641.042 956.919 672.92C972.365 689.62 991.348 698.798 1010.38 698.798C1037.51 698.798 1059.22 679.949 1065.67 650.803C1084.52 565.736 1055.33 488.908 1027.52 439.569C994.885 381.634 953.068 340.623 932.966 327.192C925.578 322.312 920.43 319.267 917.251 319.267C916.738 319.252 916.229 319.348 915.757 319.549C915.286 319.75 914.863 320.051 914.52 320.431C911.923 323.341 912.998 331.669 915.102 348.145C922.677 404.492 924.028 461.501 919.131 518.144ZM915.505 321.148C915.722 320.903 915.992 320.712 916.295 320.588C916.598 320.463 916.924 320.41 917.251 320.431C920.071 320.431 925.265 323.521 932.205 328.132C977.648 358.443 1098.35 496.564 1064.33 650.489C1058.01 679.054 1036.84 697.455 1010.6 697.455C991.975 697.455 973.305 688.5 958.127 672.024C928.802 640.415 915.55 585.794 920.698 518.233C925.607 461.545 924.241 404.488 916.624 348.1C914.52 332.878 913.356 323.744 915.505 321.148Z" fill="white" fill-opacity="0.03"/>
<path d="M893.388 522.623C888.194 607.197 904.401 673.951 938.921 710.664C956.829 729.692 978.499 739.721 1001.6 739.721C1045.93 739.721 1083.44 703.904 1095.04 650.491C1112.1 571.782 1097.41 494.282 1051.43 420.185C1004.82 345.102 940.353 296.525 906.058 274.273C888.597 262.946 881.12 258.245 878.255 261.648C875.389 265.05 877.449 272.661 880.493 288.869C887.209 323.88 901.044 396.993 893.388 522.623ZM879.329 262.543C879.53 262.317 879.78 262.14 880.059 262.024C880.338 261.907 880.639 261.855 880.941 261.871C884.568 261.871 892.403 266.975 905.386 275.303C1019.64 349.49 1129.25 486.895 1093.74 650.133C1082.32 702.874 1045.3 738.288 1001.65 738.288C978.857 738.288 957.501 728.394 939.906 709.679C905.61 673.235 889.582 606.704 894.731 522.623C902.387 396.948 888.552 323.701 881.881 288.555C879.061 273.691 877.27 264.737 879.329 262.409V262.543Z" fill="white" fill-opacity="0.03"/>
<path d="M378.154 241.589C390.824 241.589 399.913 229.366 409.494 211.01C426.507 178.953 461.922 163.462 481.129 155.134C490.755 150.881 494.56 149.314 493.889 146.673C493.217 144.031 491.023 143.494 477.861 142.598C438.193 139.912 349.186 177.744 339.068 206.219C337.859 209.262 337.704 212.622 338.629 215.763C339.555 218.904 341.506 221.644 344.172 223.546C359.439 236.171 369.647 241.455 378.333 241.455L378.154 241.589ZM341.844 207.294C351.201 181.281 433.939 145.598 473.607 145.598C474.995 145.598 476.338 145.598 477.592 145.598C481.842 145.694 486.073 146.219 490.218 147.165C486.85 149.013 483.382 150.672 479.83 152.135C460.4 160.597 424.313 176.401 406.852 209.443C395.839 230.217 387.78 238.321 378.154 238.321C370.274 238.321 360.648 233.127 345.963 220.994C343.831 219.51 342.263 217.349 341.515 214.862C340.767 212.374 340.883 209.707 341.844 207.294Z" fill="white" fill-opacity="0.03"/>
<path d="M417.105 239.977C447.595 184.415 503.335 165.029 548.465 154.328C552.943 153.298 553.211 151.105 552.943 149.851C551.913 140.897 509.648 123.48 446.565 123.48C439.446 123.48 432.148 123.704 424.895 124.152C396.107 125.898 328.143 166.103 303.698 195.787C297.34 203.488 294.475 209.935 295.146 214.86C296.848 227.217 307.862 232.768 320.577 239.037C334.008 245.752 349.365 253.363 356.797 271.138C361.274 281.435 366.826 286.674 373.676 286.674C385.496 286.763 400.047 271.048 417.105 239.977ZM358.902 270.332C351.156 251.841 335.486 244.051 321.651 237.156C309.473 231.067 298.952 225.829 297.43 214.77C296.848 210.517 299.624 204.473 305.489 197.354C329.621 167.939 396.689 128.182 425.119 126.48C432.283 126.032 439.536 125.809 446.61 125.809C508.618 125.809 549.943 142.956 550.794 150.209C550.794 151.373 549.047 152 547.883 152.269C502.306 163.059 446.028 182.669 415.09 238.992C389.257 285.689 370.139 297.016 358.946 270.332H358.902Z" fill="white" fill-opacity="0.03"/>
<path d="M1297.41 761.3C1300.59 765.777 1308.42 767.881 1323.51 767.881C1332.91 767.881 1344.19 767.12 1357.22 766.225C1373.34 765.15 1391.65 763.942 1410.55 763.942C1470.45 763.942 1510.79 776.657 1537.7 804.236C1562.73 823.488 1576.56 854.873 1588.74 882.542C1603.51 916.211 1616.32 945.223 1644.57 945.223C1647.73 945.211 1650.88 944.881 1653.97 944.238C1656.27 943.76 1658.54 943.162 1660.78 942.447V940.119C1658.27 940.924 1655.81 941.551 1653.52 942.044C1650.58 942.651 1647.58 942.966 1644.57 942.984C1617.71 942.984 1605.26 914.554 1590.84 881.602C1578.53 853.664 1564.61 822.011 1539.27 802.49C1512 774.732 1471.12 761.793 1410.59 761.793C1391.61 761.793 1373.3 763.001 1357.13 764.121C1344.11 764.971 1332.91 765.732 1323.56 765.732C1309.63 765.732 1301.93 763.942 1299.29 760.091C1298.56 758.768 1298.18 757.282 1298.18 755.771C1298.18 754.26 1298.56 752.773 1299.29 751.45C1327.81 675.338 1351.63 578.9 1349.34 549.216C1345.31 497.236 1322.48 448.121 1300.36 400.663C1273.5 342.46 1247.8 287.704 1264.01 241.947C1286.39 178.371 1389.37 68.0084 1445.33 60.3972C1448.3 60.0188 1451.3 59.8393 1454.29 59.86C1497.72 59.86 1574.23 90.9316 1660.96 142.374V139.778C1574.32 88.5587 1497.85 57.6214 1454.29 57.6214C1451.2 57.5957 1448.12 57.7903 1445.07 58.2034C1388.65 65.8594 1284.69 177.117 1261.95 241.231C1245.43 287.838 1271.13 343.086 1298.35 401.603C1320.38 448.882 1343.12 497.818 1347.15 549.35C1349.16 575.363 1327.81 668.936 1297.27 750.823C1296.44 752.447 1296.01 754.252 1296.03 756.078C1296.06 757.905 1296.53 759.698 1297.41 761.3Z" fill="white" fill-opacity="0.03"/>
<path d="M1499.82 -234.336C1467.45 -234.336 1429.89 -227.934 1390.13 -221.129C1339.81 -212.532 1287.74 -203.668 1229.85 -203.668C1225.61 -203.668 1221.4 -203.668 1217.22 -203.668L1207.33 -203.936C1199.22 -203.936 1191.52 -204.384 1184.31 -204.384C1121.63 -204.384 1118.5 -169.91 1115.19 -133.376C1113.4 -113.363 1111.56 -92.6782 1100.5 -75.1724C1096.56 -68.8596 1086 -60.935 1074.8 -52.5179C1050.94 -34.6092 1023.9 -14.2828 1036.88 4.74525C1038.88 8.33202 1041.77 11.3468 1045.26 13.5021C1048.76 15.6574 1052.75 16.8814 1056.85 17.0575C1061.56 16.8971 1066.16 15.6237 1070.28 13.3414C1091.46 2.41711 1114.07 -29.8634 1132.25 -55.831C1142.59 -70.6057 1151.5 -83.3209 1156.38 -86.2311C1161.2 -88.7941 1166.64 -89.9864 1172.09 -89.6785H1177.82C1179.75 -89.6785 1181.72 -89.6785 1183.69 -89.6785C1187.72 -89.3503 1191.77 -89.8265 1195.61 -91.0793C1199.46 -92.3322 1203.01 -94.3367 1206.07 -96.9763C1214.54 -104.677 1215.61 -114.885 1216.64 -124.332C1217.58 -133.286 1218.43 -141.256 1224.21 -148.151C1241.67 -169.014 1302.92 -183.61 1343.43 -193.236C1355.39 -196.101 1365.82 -198.519 1373.34 -200.757C1407.1 -210.566 1442.06 -215.614 1477.21 -215.756C1552.07 -215.756 1611.93 -191.221 1660.78 -162.03V-164.671C1611.89 -193.863 1552.03 -218.397 1477.21 -218.397C1441.79 -218.053 1406.59 -212.763 1372.63 -202.683C1365.01 -200.489 1354.72 -198.205 1342.85 -195.206C1299.6 -184.908 1240.37 -170.805 1222.42 -149.359C1216.19 -141.927 1215.25 -133.018 1214.31 -124.377C1213.28 -114.706 1212.34 -105.528 1204.46 -98.409C1201.63 -95.9828 1198.34 -94.1406 1194.79 -92.9881C1191.24 -91.8356 1187.5 -91.3956 1183.78 -91.6933C1181.85 -91.6933 1179.93 -91.6933 1178 -91.6933H1172.18C1166.32 -92.0118 1160.48 -90.7108 1155.3 -87.9324C1150.02 -84.7536 1141.42 -72.4861 1130.5 -56.9056C1113.44 -32.5049 1090.2 0.939636 1069.39 11.5953C1056.76 18.0872 1046.78 15.5352 1038.72 3.71548C1026.94 -13.5664 1053.09 -33.1765 1076.15 -50.5032C1088.01 -59.4576 1098.26 -67.1135 1102.43 -73.7397C1113.71 -91.6485 1115.59 -112.781 1117.43 -133.062C1120.78 -170.044 1123.65 -202.011 1184.31 -202.011C1191.52 -202.011 1199.18 -202.011 1207.28 -201.563L1217.13 -201.295C1221.34 -201.295 1225.59 -201.295 1229.85 -201.295C1288.05 -201.295 1340.08 -210.249 1390.53 -218.8C1430.16 -225.561 1467.63 -231.963 1499.82 -231.963C1515.11 -232.192 1530.36 -230.293 1545.13 -226.322C1581.71 -216.114 1620.48 -197.444 1660.78 -175.819V-178.506C1620.48 -199.772 1582.2 -218.174 1545.76 -228.605C1530.79 -232.65 1515.33 -234.579 1499.82 -234.336Z" fill="white" fill-opacity="0.03"/>
<path d="M1365.01 702.963C1373.34 714.962 1390.94 716.395 1415.29 718.141L1423.44 718.812C1431.14 719.439 1439.2 719.708 1447.71 719.976C1487.29 721.364 1532.15 722.887 1572.67 759.779L1573.16 760.226C1595.54 779.881 1608.98 814.535 1620.8 845.293C1632.61 876.051 1642.91 902.69 1659.25 902.69H1660.78V901.302C1660.27 901.346 1659.76 901.346 1659.25 901.302C1643.85 901.302 1633.73 875.111 1622.05 844.756C1610.36 814.4 1596.75 779.254 1574.05 759.331L1573.56 758.928C1532.68 721.678 1487.55 720.156 1447.75 718.633C1439.25 718.365 1431.19 718.096 1423.53 717.469L1415.38 716.842C1391.38 714.962 1374.1 713.664 1366.13 702.202C1358.16 690.74 1359.64 670.862 1369.58 636.388C1378.44 607.415 1381.97 577.077 1380.01 546.844C1375.54 489.312 1351.49 437.601 1328.21 387.591C1303.95 335.431 1281.02 286.138 1293.02 252.29C1312.99 195.922 1409.43 96.4394 1449.36 91.1116C1450.94 90.9092 1452.52 90.8194 1454.11 90.843C1487.46 90.843 1562.91 118.602 1660.78 178.506V176.939C1562.99 117.169 1487.55 89.4998 1454.11 89.4998C1452.46 89.4761 1450.82 89.5659 1449.18 89.7685C1408.89 95.2754 1311.82 195.296 1291.72 251.932C1279.54 286.272 1302.6 335.834 1327.05 388.307C1350.24 438.004 1374.24 489.536 1378.71 546.844C1380.68 576.956 1377.16 607.175 1368.33 636.029C1358.12 671.578 1357.13 691.636 1365.01 702.963Z" fill="white" fill-opacity="0.03"/>
<path d="M548.645 1107.83C615.31 1100.27 694.69 1021.07 715.957 960.535C752.939 855.411 687.258 770.792 623.727 688.994C562.39 609.972 504.5 535.382 532.661 444.54C557.196 365.428 636.442 322.716 698.541 322.716C732.03 322.716 760.953 334.58 780.07 356.16C802.77 381.77 811.679 420.676 805.859 468.672C785.846 633.566 779.891 813.952 963.724 867.141C983.827 873.109 1004.67 876.199 1025.64 876.319C1103.01 876.319 1152.44 831.95 1180.24 794.79C1233.56 723.468 1252.1 616.777 1226.31 529.293C1204.46 455.151 1161.44 383.247 1094.86 309.463C995.826 199.772 861.018 105.438 682.647 21.1327L674.946 17.4614C599.909 -17.9978 522.319 -54.7107 440.61 -74.9476C435.775 -76.1564 430.402 -77.5891 424.672 -79.1114C399.42 -85.7824 368.035 -94.1547 341.083 -94.1547C331.663 -94.3671 322.276 -92.9741 313.324 -90.0357C301.683 -85.8719 295.147 -77.9025 288.789 -70.2018C284.223 -63.9622 278.601 -58.5682 272.179 -54.263C264.852 -50.4658 257.267 -47.1894 249.48 -44.458C234.391 -38.6376 218.766 -32.5934 213.662 -26.8179C204.126 -15.6249 206.722 -8.90916 209.185 -2.37247C210.436 0.0207367 211.195 2.64014 211.418 5.33137C211.641 8.02259 211.323 10.7312 210.483 13.2977L208.737 18.4912C195.306 58.3829 195.306 58.3829 163.965 67.4268C157.921 69.1729 150.534 71.3219 141.579 74.1873C115.836 82.3806 105.27 95.0063 95.0615 107.229C87.2762 117.743 77.2816 126.423 65.7807 132.659H64.5271C48.4093 132.659 -73.8178 140.718 -83.2198 170.76C-85.7718 178.864 -80.2649 187.684 -66.8781 196.907C-56.1035 205.17 -42.937 209.711 -29.3594 209.846C-25.4194 209.846 -21.8825 209.488 -18.435 209.174C-15.6562 208.835 -12.8617 208.641 -10.0627 208.592C-0.212914 208.592 9.72644 211.413 23.3818 244.992C26.7397 253.275 29.3365 260.08 31.4855 265.676C42.0517 293.345 42.3651 293.704 69.2282 305.165C75.8992 308.031 84.182 311.568 94.7033 316.403C129.267 332.342 136.341 350.474 145.296 373.397C150.497 387.856 157.3 401.687 165.577 414.632C176.156 429.944 188.147 444.229 201.395 457.3C223.288 480.089 243.973 501.624 250.644 537.576C262.06 599.853 228.258 659.31 190.023 714.29C171.487 740.929 133.386 772.001 93.0468 804.863C24.8145 860.604 -52.8198 923.822 -53.0884 982.428C-53.0884 1015.87 -44.6713 1041.53 -27.5685 1058.54C-8.9434 1077.26 19.3524 1086.39 58.9755 1086.39C116.373 1086.39 186.978 1067 249.256 1049.9C298.505 1036.47 340.59 1024.87 367.677 1024.87C372.873 1024.74 378.061 1025.35 383.079 1026.71C409.181 1034.45 429.91 1051.02 449.923 1067C476.473 1088.27 501.59 1108.33 537.452 1108.33C541.189 1108.38 544.927 1108.22 548.645 1107.83ZM383.974 1024.07C378.667 1022.62 373.176 1021.96 367.677 1022.1C340.187 1022.1 297.654 1033.74 248.405 1047.26C186.306 1064.27 115.97 1083.57 58.9755 1083.61C20.2478 1083.61 -7.33162 1074.66 -25.3747 1056.75C-41.8507 1040.18 -50.1335 1015.29 -49.9544 982.697C-49.5067 925.568 27.3217 862.574 95.2854 807.236C135.58 774.24 174.039 743.078 192.798 716.036C231.436 660.474 265.553 600.346 253.957 536.949C247.196 500.102 226.198 478.253 203.991 455.106C190.77 442.172 178.78 428.038 168.174 412.886C160.035 400.099 153.339 386.45 148.206 372.189C138.983 348.639 131.73 330.014 96.0017 313.538C85.4356 308.657 77.1528 305.12 70.4818 302.255C44.6037 291.196 44.6037 291.196 34.3957 264.512C32.2467 258.871 29.6499 252.111 26.292 243.783C13.2634 211.726 3.1002 205.414 -10.0627 205.414C-12.966 205.46 -15.8649 205.655 -18.7484 205.996C-22.1063 206.309 -25.5985 206.667 -29.3594 206.667C-42.3255 206.558 -54.9015 202.219 -65.1768 194.31C-77.2652 185.893 -82.3692 178.282 -80.3097 171.656C-72.1164 145.554 41.783 135.838 64.4376 135.838H65.5569L65.9151 134.405L66.5866 135.749C78.6798 129.326 89.1878 120.286 97.3449 109.288C107.732 96.8419 117.537 85.1564 142.43 77.187C151.384 74.3664 158.817 72.2174 164.816 70.4713C197.365 61.0692 197.768 60.5767 211.737 19.521L213.528 14.3274C214.496 11.3996 214.873 8.30823 214.634 5.23354C214.396 2.15884 213.548 -0.837654 212.14 -3.58129C209.767 -9.7598 207.663 -15.0876 215.99 -24.8479C220.467 -30.0414 236.361 -36.2199 250.42 -41.6373C258.391 -44.4316 266.155 -47.7828 273.656 -51.6662C280.432 -56.1716 286.371 -61.8227 291.207 -68.3661C297.565 -76.1116 303.564 -83.3647 314.354 -87.2598C323.021 -90.0829 332.104 -91.4151 341.217 -91.1997C367.767 -91.1997 398.928 -82.917 424 -76.246C429.731 -74.7237 435.104 -73.291 439.984 -72.0822C521.379 -51.9349 598.834 -15.3115 673.737 20.1478L681.438 23.7743C859.406 107.945 993.945 202.011 1092.67 311.344C1158.93 384.814 1201.73 456.315 1223.45 530.009C1248.97 616.598 1230.61 722.125 1177.87 792.73C1150.47 829.354 1101.76 873.006 1025.64 873.006C1004.97 872.914 984.408 869.9 964.575 864.052C783.249 811.624 789.114 632.671 808.948 468.896C814.903 420.005 805.725 380.247 782.398 353.966C762.699 331.581 732.926 319.447 698.541 319.447C635.323 319.447 554.644 362.921 529.662 443.51C501.008 535.874 562.121 614.628 621.265 690.74C684.259 771.911 749.402 855.858 713.002 959.371C692.004 1019.1 613.877 1097.18 548.287 1104.66C544.689 1105.06 541.072 1105.27 537.452 1105.28C502.664 1105.28 477.995 1085.54 451.893 1064.63C431.611 1048.51 410.658 1031.77 383.974 1024.07Z" fill="white" fill-opacity="0.03"/>
<path d="M957.859 -181.191C942.681 -170.446 922.041 -165.252 894.328 -165.252C861.913 -165.252 825.692 -172.505 793.725 -178.684C774.921 -182.445 757.102 -186.026 742.596 -187.638C726.055 -189.339 709.438 -190.191 692.81 -190.19C649.202 -190.19 593.237 -184.28 574.478 -156.119C566.284 -143.851 565.971 -128.495 573.448 -110.362C576.985 -101.9 586.118 -97.2439 594.938 -92.8115C601.833 -90.0172 608.036 -85.7545 613.116 -80.3201C617.773 -72.8128 621.232 -64.6259 623.368 -56.0538C626.995 -44.3684 630.711 -32.3247 639.173 -25.206C649.259 -16.5502 662.196 -11.9402 675.483 -12.267C685.511 -12.6224 695.481 -13.9417 705.256 -16.2069C714.883 -18.4482 724.704 -19.7527 734.582 -20.1021C743.129 -20.2752 751.587 -18.3375 759.206 -14.4608C777.115 -5.50644 784.502 7.02969 791.755 18.9838C801.202 34.5644 810.112 49.2495 839.482 56.1443C900.999 70.5161 917.833 85.5595 958.53 121.869C963.769 126.347 969.41 131.585 975.588 137.002C989.029 149.548 1001.04 163.543 1011.41 178.73C1020.75 192.19 1031.23 204.818 1042.75 216.472C1055.43 228.306 1070.22 237.66 1086.35 244.052C1104.89 252.514 1122.4 260.483 1138.29 287.749L1140.8 292.226C1160.81 326.79 1181.09 358.802 1193.45 358.802C1194.42 358.814 1195.38 358.611 1196.26 358.209C1197.14 357.806 1197.93 357.214 1198.55 356.474C1203.03 351.594 1204.24 338.565 1202.27 316.627C1201.1 303.822 1191.84 292.316 1182.84 281.212C1173.17 269.258 1164.03 257.976 1164.57 245.395C1165.24 230.396 1174.29 223.009 1183.87 215.263C1191.58 209.878 1197.93 202.764 1202.4 194.489C1212.61 172.506 1215.07 152.852 1217.49 133.823C1220.8 107.319 1223.94 82.3359 1247.62 54.0401C1291.63 2.3812 1349.94 -35.0996 1415.2 -53.6809C1435.32 -59.7297 1456.2 -62.8952 1477.21 -63.083C1544.37 -63.083 1592.36 -26.594 1643.32 11.9993L1660.78 25.1623V21.1776C1655.54 17.2824 1650.34 13.3425 1645.2 9.44736C1593.84 -29.5042 1545.31 -66.2618 1477.21 -66.2618C1455.98 -66.0814 1434.88 -62.901 1414.53 -56.8149C1348.68 -38.0742 1289.85 -0.247894 1245.47 51.8911C1221.16 80.8584 1217.98 106.334 1214.58 133.286C1212.21 152.09 1209.79 171.521 1199.81 193.012C1195.52 200.847 1189.46 207.576 1182.12 212.667C1172.45 220.591 1162.38 228.74 1161.66 245.126C1161.08 258.782 1171.02 271.094 1180.64 282.958C1189.33 293.704 1198.28 304.807 1199.36 316.716C1201.69 342.46 1199.09 351.28 1196.49 354.146C1196.14 354.553 1195.71 354.879 1195.22 355.104C1194.74 355.328 1194.21 355.444 1193.67 355.444C1181.31 355.444 1154.99 309.911 1143.71 290.435L1141.24 285.958C1124.86 257.797 1106.86 249.648 1087.88 240.962C1072.09 234.726 1057.59 225.618 1045.12 214.099C1033.72 202.558 1023.33 190.066 1014.05 176.76C1003.53 161.372 991.334 147.197 977.693 134.495C971.514 129.122 965.873 124.063 960.635 119.407C919.489 82.6941 902.431 67.5164 840.198 52.9656C812.082 46.3841 803.53 32.1914 794.442 17.1481C786.965 4.83585 779.264 -7.9241 760.639 -17.5053C752.565 -21.5741 743.622 -23.6177 734.582 -23.4599C724.495 -23.1044 714.465 -21.7851 704.629 -19.52C695.063 -17.2819 685.301 -15.9774 675.483 -15.6249C662.93 -15.2977 650.704 -19.6548 641.188 -27.8476C633.442 -34.3842 629.816 -45.7563 626.368 -57.1731C624.157 -66.0955 620.529 -74.6057 615.623 -82.3796C610.294 -88.2635 603.695 -92.8567 596.326 -95.8112C587.372 -100.288 579.403 -104.363 576.313 -111.795C569.239 -128.898 569.463 -143.135 577.03 -154.597C594.938 -181.46 649.918 -187.28 692.765 -187.28C709.213 -187.283 725.651 -186.446 742.014 -184.773C756.43 -183.206 774.16 -179.669 792.919 -175.818C825.021 -169.416 861.376 -162.118 894.104 -162.118C922.31 -162.118 943.711 -167.491 959.426 -178.639C998.601 -206.308 987.363 -248.08 976.529 -288.509C964.888 -331.669 952.889 -376.307 1001.15 -405.408C1008.19 -409.212 1016.13 -411.038 1024.12 -410.691C1053 -410.691 1093.65 -394.887 1132.96 -379.62C1167.21 -366.188 1199.54 -353.786 1220.58 -353.294H1229.53C1274.75 -353.294 1320.47 -361.084 1364.66 -368.651C1408.85 -376.217 1454.42 -383.963 1499.51 -383.963C1528.9 -384.24 1558.18 -380.382 1586.5 -372.501C1611.86 -365.075 1636.68 -355.905 1660.78 -345.056V-348.503C1637.04 -359.094 1612.61 -368.069 1587.66 -375.366C1559.07 -383.335 1529.5 -387.239 1499.82 -386.962C1454.47 -386.962 1408.71 -379.127 1364.48 -371.606C1320.24 -364.084 1274.93 -356.294 1229.85 -356.294C1226.76 -356.294 1223.8 -356.294 1220.89 -356.294C1200.39 -356.786 1168.29 -369.233 1134.35 -382.44C1094.73 -397.797 1053.76 -413.781 1024.34 -413.781C1015.78 -414.17 1007.27 -412.187 999.765 -408.05C949.486 -377.695 961.799 -331.938 973.708 -287.658C984.722 -246.513 995.154 -207.606 957.859 -181.191Z" fill="white" fill-opacity="0.03"/>
</svg>
