<svg width="300" height="110" viewBox="0 0 300 110" fill="none" xmlns="http://www.w3.org/2000/svg">
<rect x="1.5" y="1.5" width="297" height="107" rx="3.5" fill="white" stroke="#007EE5" stroke-width="3"/>
<path d="M89.22 48L94.36 33.1H97.88L103.02 48H100.06L99 44.8H93.24L92.16 48H89.22ZM94.02 42.4H98.22L95.74 34.98H96.5L94.02 42.4ZM104.458 48V32.86H107.078V48H104.458ZM109.497 48V32.86H112.117V48H109.497ZM118.311 48V33.1H123.171C124.744 33.1 126.111 33.42 127.271 34.06C128.444 34.6867 129.351 35.56 129.991 36.68C130.631 37.7867 130.951 39.0733 130.951 40.54C130.951 41.9933 130.631 43.2867 129.991 44.42C129.351 45.54 128.444 46.42 127.271 47.06C126.111 47.6867 124.744 48 123.171 48H118.311ZM121.031 45.6H123.231C124.244 45.6 125.118 45.3933 125.851 44.98C126.598 44.5533 127.178 43.9667 127.591 43.22C128.004 42.46 128.211 41.5667 128.211 40.54C128.211 39.5 128.004 38.6067 127.591 37.86C127.178 37.1133 126.598 36.5333 125.851 36.12C125.118 35.7067 124.244 35.5 123.231 35.5H121.031V45.6ZM136.157 48.24C135.397 48.24 134.737 48.1133 134.177 47.86C133.617 47.6067 133.183 47.2467 132.877 46.78C132.57 46.3 132.417 45.7467 132.417 45.12C132.417 44.52 132.55 43.9867 132.817 43.52C133.083 43.04 133.497 42.64 134.057 42.32C134.617 42 135.323 41.7733 136.177 41.64L139.737 41.06V43.06L136.677 43.58C136.157 43.6733 135.77 43.84 135.517 44.08C135.263 44.32 135.137 44.6333 135.137 45.02C135.137 45.3933 135.277 45.6933 135.557 45.92C135.85 46.1333 136.21 46.24 136.637 46.24C137.183 46.24 137.663 46.1267 138.077 45.9C138.503 45.66 138.83 45.3333 139.057 44.92C139.297 44.5067 139.417 44.0533 139.417 43.56V40.76C139.417 40.2933 139.23 39.9067 138.857 39.6C138.497 39.28 138.017 39.12 137.417 39.12C136.857 39.12 136.357 39.2733 135.917 39.58C135.49 39.8733 135.177 40.2667 134.977 40.76L132.837 39.72C133.05 39.1467 133.383 38.6533 133.837 38.24C134.303 37.8133 134.85 37.48 135.477 37.24C136.103 37 136.783 36.88 137.517 36.88C138.41 36.88 139.197 37.0467 139.877 37.38C140.557 37.7 141.083 38.1533 141.457 38.74C141.843 39.3133 142.037 39.9867 142.037 40.76V48H139.557V46.14L140.117 46.1C139.837 46.5667 139.503 46.96 139.117 47.28C138.73 47.5867 138.29 47.8267 137.797 48C137.303 48.16 136.757 48.24 136.157 48.24ZM149.223 48.12C147.996 48.12 147.043 47.7867 146.363 47.12C145.696 46.44 145.363 45.4867 145.363 44.26V39.46H143.483V37.12H143.683C144.216 37.12 144.63 36.98 144.923 36.7C145.216 36.42 145.363 36.0133 145.363 35.48V34.64H147.983V37.12H150.483V39.46H147.983V44.12C147.983 44.48 148.043 44.7867 148.163 45.04C148.296 45.2933 148.496 45.4867 148.763 45.62C149.043 45.7533 149.396 45.82 149.823 45.82C149.916 45.82 150.023 45.8133 150.143 45.8C150.276 45.7867 150.403 45.7733 150.523 45.76V48C150.336 48.0267 150.123 48.0533 149.883 48.08C149.643 48.1067 149.423 48.12 149.223 48.12ZM155.786 48.24C155.026 48.24 154.366 48.1133 153.806 47.86C153.246 47.6067 152.812 47.2467 152.506 46.78C152.199 46.3 152.046 45.7467 152.046 45.12C152.046 44.52 152.179 43.9867 152.446 43.52C152.712 43.04 153.126 42.64 153.686 42.32C154.246 42 154.952 41.7733 155.806 41.64L159.366 41.06V43.06L156.306 43.58C155.786 43.6733 155.399 43.84 155.146 44.08C154.892 44.32 154.766 44.6333 154.766 45.02C154.766 45.3933 154.906 45.6933 155.186 45.92C155.479 46.1333 155.839 46.24 156.266 46.24C156.812 46.24 157.292 46.1267 157.706 45.9C158.132 45.66 158.459 45.3333 158.686 44.92C158.926 44.5067 159.046 44.0533 159.046 43.56V40.76C159.046 40.2933 158.859 39.9067 158.486 39.6C158.126 39.28 157.646 39.12 157.046 39.12C156.486 39.12 155.986 39.2733 155.546 39.58C155.119 39.8733 154.806 40.2667 154.606 40.76L152.466 39.72C152.679 39.1467 153.012 38.6533 153.466 38.24C153.932 37.8133 154.479 37.48 155.106 37.24C155.732 37 156.412 36.88 157.146 36.88C158.039 36.88 158.826 37.0467 159.506 37.38C160.186 37.7 160.712 38.1533 161.086 38.74C161.472 39.3133 161.666 39.9867 161.666 40.76V48H159.186V46.14L159.746 46.1C159.466 46.5667 159.132 46.96 158.746 47.28C158.359 47.5867 157.919 47.8267 157.426 48C156.932 48.16 156.386 48.24 155.786 48.24ZM173.182 48.24C172.235 48.24 171.355 48.0667 170.542 47.72C169.742 47.3733 169.049 46.8933 168.462 46.28C167.889 45.6533 167.469 44.9267 167.202 44.1L169.462 43.12C169.822 43.9733 170.342 44.6467 171.022 45.14C171.702 45.62 172.469 45.86 173.322 45.86C173.802 45.86 174.215 45.7867 174.562 45.64C174.922 45.48 175.195 45.2667 175.382 45C175.582 44.7333 175.682 44.4133 175.682 44.04C175.682 43.6 175.549 43.24 175.282 42.96C175.029 42.6667 174.642 42.44 174.122 42.28L171.262 41.36C170.102 41 169.229 40.46 168.642 39.74C168.055 39.02 167.762 38.1733 167.762 37.2C167.762 36.3467 167.969 35.5933 168.382 34.94C168.809 34.2867 169.395 33.78 170.142 33.42C170.902 33.0467 171.769 32.86 172.742 32.86C173.635 32.86 174.455 33.02 175.202 33.34C175.949 33.6467 176.589 34.08 177.122 34.64C177.669 35.1867 178.075 35.8333 178.342 36.58L176.102 37.58C175.809 36.8333 175.369 36.26 174.782 35.86C174.195 35.4467 173.515 35.24 172.742 35.24C172.289 35.24 171.889 35.32 171.542 35.48C171.195 35.6267 170.922 35.84 170.722 36.12C170.535 36.3867 170.442 36.7067 170.442 37.08C170.442 37.4933 170.575 37.86 170.842 38.18C171.109 38.4867 171.515 38.7267 172.062 38.9L174.802 39.76C175.989 40.1467 176.875 40.68 177.462 41.36C178.062 42.04 178.362 42.88 178.362 43.88C178.362 44.7333 178.142 45.4867 177.702 46.14C177.262 46.7933 176.655 47.3067 175.882 47.68C175.109 48.0533 174.209 48.24 173.182 48.24ZM185.751 48.24C184.631 48.24 183.651 47.9867 182.811 47.48C181.971 46.9733 181.318 46.2867 180.851 45.42C180.384 44.5533 180.151 43.5933 180.151 42.54C180.151 41.4467 180.384 40.48 180.851 39.64C181.331 38.7867 181.978 38.1133 182.791 37.62C183.618 37.1267 184.538 36.88 185.551 36.88C186.404 36.88 187.151 37.02 187.791 37.3C188.444 37.58 188.998 37.9667 189.451 38.46C189.904 38.9533 190.251 39.52 190.491 40.16C190.731 40.7867 190.851 41.4667 190.851 42.2C190.851 42.3867 190.838 42.58 190.811 42.78C190.798 42.98 190.764 43.1533 190.711 43.3H182.311V41.3H189.231L187.991 42.24C188.111 41.6267 188.078 41.08 187.891 40.6C187.718 40.12 187.424 39.74 187.011 39.46C186.611 39.18 186.124 39.04 185.551 39.04C185.004 39.04 184.518 39.18 184.091 39.46C183.664 39.7267 183.338 40.1267 183.111 40.66C182.898 41.18 182.818 41.8133 182.871 42.56C182.818 43.2267 182.904 43.82 183.131 44.34C183.371 44.8467 183.718 45.24 184.171 45.52C184.638 45.8 185.171 45.94 185.771 45.94C186.371 45.94 186.878 45.8133 187.291 45.56C187.718 45.3067 188.051 44.9667 188.291 44.54L190.411 45.58C190.198 46.1 189.864 46.56 189.411 46.96C188.958 47.36 188.418 47.6733 187.791 47.9C187.178 48.1267 186.498 48.24 185.751 48.24ZM198.077 48.24C196.997 48.24 196.024 47.9933 195.157 47.5C194.304 46.9933 193.631 46.3133 193.137 45.46C192.644 44.5933 192.397 43.62 192.397 42.54C192.397 41.46 192.644 40.4933 193.137 39.64C193.631 38.7867 194.304 38.1133 195.157 37.62C196.024 37.1267 196.997 36.88 198.077 36.88C198.851 36.88 199.571 37.02 200.237 37.3C200.904 37.5667 201.477 37.94 201.957 38.42C202.451 38.8867 202.804 39.4467 203.017 40.1L200.717 41.1C200.517 40.5533 200.177 40.1133 199.697 39.78C199.231 39.4467 198.691 39.28 198.077 39.28C197.504 39.28 196.991 39.42 196.537 39.7C196.097 39.98 195.751 40.3667 195.497 40.86C195.244 41.3533 195.117 41.92 195.117 42.56C195.117 43.2 195.244 43.7667 195.497 44.26C195.751 44.7533 196.097 45.14 196.537 45.42C196.991 45.7 197.504 45.84 198.077 45.84C198.704 45.84 199.251 45.6733 199.717 45.34C200.184 45.0067 200.517 44.56 200.717 44L203.017 45.04C202.804 45.6533 202.457 46.2067 201.977 46.7C201.497 47.18 200.924 47.56 200.257 47.84C199.591 48.1067 198.864 48.24 198.077 48.24ZM208.885 48.24C208.045 48.24 207.312 48.0533 206.685 47.68C206.072 47.3067 205.598 46.7867 205.265 46.12C204.945 45.4533 204.785 44.6733 204.785 43.78V37.12H207.405V43.56C207.405 44.0133 207.492 44.4133 207.665 44.76C207.852 45.0933 208.112 45.36 208.445 45.56C208.792 45.7467 209.178 45.84 209.605 45.84C210.032 45.84 210.412 45.7467 210.745 45.56C211.078 45.36 211.338 45.0867 211.525 44.74C211.712 44.3933 211.805 43.98 211.805 43.5V37.12H214.425V48H211.945V45.86L212.165 46.24C211.912 46.9067 211.492 47.4067 210.905 47.74C210.332 48.0733 209.658 48.24 208.885 48.24ZM216.861 48V37.12H219.321V39.54L219.121 39.18C219.374 38.3667 219.767 37.8 220.301 37.48C220.847 37.16 221.501 37 222.261 37H222.901V39.32H221.961C221.214 39.32 220.614 39.5533 220.161 40.02C219.707 40.4733 219.481 41.1133 219.481 41.94V48H216.861ZM229.501 48.24C228.381 48.24 227.401 47.9867 226.561 47.48C225.721 46.9733 225.068 46.2867 224.601 45.42C224.134 44.5533 223.901 43.5933 223.901 42.54C223.901 41.4467 224.134 40.48 224.601 39.64C225.081 38.7867 225.728 38.1133 226.541 37.62C227.368 37.1267 228.288 36.88 229.301 36.88C230.154 36.88 230.901 37.02 231.541 37.3C232.194 37.58 232.748 37.9667 233.201 38.46C233.654 38.9533 234.001 39.52 234.241 40.16C234.481 40.7867 234.601 41.4667 234.601 42.2C234.601 42.3867 234.588 42.58 234.561 42.78C234.548 42.98 234.514 43.1533 234.461 43.3H226.061V41.3H232.981L231.741 42.24C231.861 41.6267 231.828 41.08 231.641 40.6C231.468 40.12 231.174 39.74 230.761 39.46C230.361 39.18 229.874 39.04 229.301 39.04C228.754 39.04 228.268 39.18 227.841 39.46C227.414 39.7267 227.088 40.1267 226.861 40.66C226.648 41.18 226.568 41.8133 226.621 42.56C226.568 43.2267 226.654 43.82 226.881 44.34C227.121 44.8467 227.468 45.24 227.921 45.52C228.388 45.8 228.921 45.94 229.521 45.94C230.121 45.94 230.628 45.8133 231.041 45.56C231.468 45.3067 231.801 44.9667 232.041 44.54L234.161 45.58C233.948 46.1 233.614 46.56 233.161 46.96C232.708 47.36 232.168 47.6733 231.541 47.9C230.928 48.1267 230.248 48.24 229.501 48.24ZM240.362 48V33.1H243.082V48H240.362ZM245.728 48V37.12H248.188V39.26L247.988 38.88C248.241 38.2267 248.654 37.7333 249.228 37.4C249.814 37.0533 250.494 36.88 251.268 36.88C252.068 36.88 252.774 37.0533 253.388 37.4C254.014 37.7467 254.501 38.2333 254.848 38.86C255.194 39.4733 255.368 40.1867 255.368 41V48H252.748V41.62C252.748 41.14 252.654 40.7267 252.468 40.38C252.281 40.0333 252.021 39.7667 251.688 39.58C251.368 39.38 250.988 39.28 250.548 39.28C250.121 39.28 249.741 39.38 249.408 39.58C249.074 39.7667 248.814 40.0333 248.628 40.38C248.441 40.7267 248.348 41.14 248.348 41.62V48H245.728ZM97.78 78.24C96.6867 78.24 95.6667 78.0467 94.72 77.66C93.7733 77.2733 92.9467 76.7333 92.24 76.04C91.5333 75.3467 90.98 74.5333 90.58 73.6C90.1933 72.6533 90 71.6333 90 70.54C90 69.4333 90.1933 68.4133 90.58 67.48C90.9667 66.5467 91.5133 65.7333 92.22 65.04C92.9267 64.3467 93.7533 63.8133 94.7 63.44C95.6467 63.0533 96.6733 62.86 97.78 62.86C98.8867 62.86 99.9133 63.0533 100.86 63.44C101.807 63.8267 102.633 64.3667 103.34 65.06C104.047 65.74 104.593 66.5467 104.98 67.48C105.38 68.4133 105.58 69.4333 105.58 70.54C105.58 71.6333 105.38 72.6533 104.98 73.6C104.58 74.5333 104.027 75.3467 103.32 76.04C102.613 76.7333 101.787 77.2733 100.84 77.66C99.9067 78.0467 98.8867 78.24 97.78 78.24ZM97.78 75.76C98.5133 75.76 99.1867 75.6333 99.8 75.38C100.413 75.1133 100.947 74.7467 101.4 74.28C101.867 73.8133 102.22 73.26 102.46 72.62C102.713 71.98 102.84 71.2867 102.84 70.54C102.84 69.7933 102.713 69.1067 102.46 68.48C102.22 67.84 101.867 67.2867 101.4 66.82C100.947 66.34 100.413 65.9733 99.8 65.72C99.1867 65.4667 98.5133 65.34 97.78 65.34C97.06 65.34 96.3933 65.4667 95.78 65.72C95.1667 65.9733 94.6267 66.34 94.16 66.82C93.7067 67.2867 93.3533 67.84 93.1 68.48C92.8467 69.1067 92.72 69.7933 92.72 70.54C92.72 71.2867 92.8467 71.98 93.1 72.62C93.3533 73.26 93.7067 73.8133 94.16 74.28C94.6267 74.7467 95.1667 75.1133 95.78 75.38C96.3933 75.6333 97.06 75.76 97.78 75.76ZM111.659 78.24C110.819 78.24 110.085 78.0533 109.459 77.68C108.845 77.3067 108.372 76.7867 108.039 76.12C107.719 75.4533 107.559 74.6733 107.559 73.78V67.12H110.179V73.56C110.179 74.0133 110.265 74.4133 110.439 74.76C110.625 75.0933 110.885 75.36 111.219 75.56C111.565 75.7467 111.952 75.84 112.379 75.84C112.805 75.84 113.185 75.7467 113.519 75.56C113.852 75.36 114.112 75.0867 114.299 74.74C114.485 74.3933 114.579 73.98 114.579 73.5V67.12H117.199V78H114.719V75.86L114.939 76.24C114.685 76.9067 114.265 77.4067 113.679 77.74C113.105 78.0733 112.432 78.24 111.659 78.24ZM119.634 78V67.12H122.094V69.54L121.894 69.18C122.147 68.3667 122.541 67.8 123.074 67.48C123.621 67.16 124.274 67 125.034 67H125.674V69.32H124.734C123.987 69.32 123.387 69.5533 122.934 70.02C122.481 70.4733 122.254 71.1133 122.254 71.94V78H119.634ZM130.889 78V63.1H135.749C137.323 63.1 138.689 63.42 139.849 64.06C141.023 64.6867 141.929 65.56 142.569 66.68C143.209 67.7867 143.529 69.0733 143.529 70.54C143.529 71.9933 143.209 73.2867 142.569 74.42C141.929 75.54 141.023 76.42 139.849 77.06C138.689 77.6867 137.323 78 135.749 78H130.889ZM133.609 75.6H135.809C136.823 75.6 137.696 75.3933 138.429 74.98C139.176 74.5533 139.756 73.9667 140.169 73.22C140.583 72.46 140.789 71.5667 140.789 70.54C140.789 69.5 140.583 68.6067 140.169 67.86C139.756 67.1133 139.176 66.5333 138.429 66.12C137.696 65.7067 136.823 65.5 135.809 65.5H133.609V75.6ZM145.474 78V67.12H147.934V69.54L147.734 69.18C147.987 68.3667 148.381 67.8 148.914 67.48C149.461 67.16 150.114 67 150.874 67H151.514V69.32H150.574C149.827 69.32 149.227 69.5533 148.774 70.02C148.321 70.4733 148.094 71.1133 148.094 71.94V78H145.474ZM158.274 78.24C157.208 78.24 156.234 77.9933 155.354 77.5C154.488 77.0067 153.794 76.3333 153.274 75.48C152.768 74.6267 152.514 73.6533 152.514 72.56C152.514 71.4667 152.768 70.4933 153.274 69.64C153.794 68.7867 154.488 68.1133 155.354 67.62C156.221 67.1267 157.194 66.88 158.274 66.88C159.341 66.88 160.308 67.1267 161.174 67.62C162.041 68.1133 162.728 68.7867 163.234 69.64C163.754 70.48 164.014 71.4533 164.014 72.56C164.014 73.6533 163.754 74.6267 163.234 75.48C162.714 76.3333 162.021 77.0067 161.154 77.5C160.288 77.9933 159.328 78.24 158.274 78.24ZM158.274 75.84C158.861 75.84 159.374 75.7 159.814 75.42C160.268 75.14 160.621 74.7533 160.874 74.26C161.141 73.7533 161.274 73.1867 161.274 72.56C161.274 71.92 161.141 71.36 160.874 70.88C160.621 70.3867 160.268 70 159.814 69.72C159.374 69.4267 158.861 69.28 158.274 69.28C157.674 69.28 157.148 69.4267 156.694 69.72C156.241 70 155.881 70.3867 155.614 70.88C155.361 71.36 155.234 71.92 155.234 72.56C155.234 73.1867 155.361 73.7533 155.614 74.26C155.881 74.7533 156.241 75.14 156.694 75.42C157.148 75.7 157.674 75.84 158.274 75.84ZM166.001 82V67.12H168.461V69.28L168.221 68.74C168.595 68.1533 169.101 67.7 169.741 67.38C170.381 67.0467 171.121 66.88 171.961 66.88C172.988 66.88 173.915 67.1333 174.741 67.64C175.568 68.1467 176.221 68.8267 176.701 69.68C177.195 70.5333 177.441 71.4933 177.441 72.56C177.441 73.6133 177.201 74.5733 176.721 75.44C176.241 76.3067 175.588 76.9933 174.761 77.5C173.935 77.9933 172.995 78.24 171.941 78.24C171.155 78.24 170.428 78.0867 169.761 77.78C169.108 77.46 168.588 77.0067 168.201 76.42L168.621 75.9V82H166.001ZM171.641 75.84C172.241 75.84 172.775 75.7 173.241 75.42C173.708 75.14 174.068 74.7533 174.321 74.26C174.588 73.7667 174.721 73.2 174.721 72.56C174.721 71.92 174.588 71.36 174.321 70.88C174.068 70.3867 173.708 70 173.241 69.72C172.775 69.4267 172.241 69.28 171.641 69.28C171.068 69.28 170.548 69.42 170.081 69.7C169.628 69.98 169.268 70.3733 169.001 70.88C168.748 71.3733 168.621 71.9333 168.621 72.56C168.621 73.2 168.748 73.7667 169.001 74.26C169.268 74.7533 169.628 75.14 170.081 75.42C170.548 75.7 171.068 75.84 171.641 75.84ZM185.379 78.24C184.592 78.24 183.865 78.0867 183.199 77.78C182.545 77.46 182.025 77.0067 181.639 76.42L181.899 75.9V78H179.439V62.86H182.059V69.28L181.659 68.74C182.032 68.1533 182.539 67.7 183.179 67.38C183.819 67.0467 184.559 66.88 185.399 66.88C186.425 66.88 187.352 67.1333 188.179 67.64C189.005 68.1467 189.659 68.8267 190.139 69.68C190.632 70.5333 190.879 71.4933 190.879 72.56C190.879 73.6133 190.639 74.5733 190.159 75.44C189.679 76.3067 189.025 76.9933 188.199 77.5C187.372 77.9933 186.432 78.24 185.379 78.24ZM185.079 75.84C185.679 75.84 186.212 75.7 186.679 75.42C187.145 75.14 187.505 74.7533 187.759 74.26C188.025 73.7667 188.159 73.2 188.159 72.56C188.159 71.92 188.025 71.36 187.759 70.88C187.505 70.3867 187.145 70 186.679 69.72C186.212 69.4267 185.679 69.28 185.079 69.28C184.505 69.28 183.985 69.42 183.519 69.7C183.065 69.98 182.705 70.3733 182.439 70.88C182.185 71.3733 182.059 71.9333 182.059 72.56C182.059 73.2 182.185 73.7667 182.439 74.26C182.705 74.7533 183.065 75.14 183.519 75.42C183.985 75.7 184.505 75.84 185.079 75.84ZM198.196 78.24C197.13 78.24 196.156 77.9933 195.276 77.5C194.41 77.0067 193.716 76.3333 193.196 75.48C192.69 74.6267 192.436 73.6533 192.436 72.56C192.436 71.4667 192.69 70.4933 193.196 69.64C193.716 68.7867 194.41 68.1133 195.276 67.62C196.143 67.1267 197.116 66.88 198.196 66.88C199.263 66.88 200.23 67.1267 201.096 67.62C201.963 68.1133 202.65 68.7867 203.156 69.64C203.676 70.48 203.936 71.4533 203.936 72.56C203.936 73.6533 203.676 74.6267 203.156 75.48C202.636 76.3333 201.943 77.0067 201.076 77.5C200.21 77.9933 199.25 78.24 198.196 78.24ZM198.196 75.84C198.783 75.84 199.296 75.7 199.736 75.42C200.19 75.14 200.543 74.7533 200.796 74.26C201.063 73.7533 201.196 73.1867 201.196 72.56C201.196 71.92 201.063 71.36 200.796 70.88C200.543 70.3867 200.19 70 199.736 69.72C199.296 69.4267 198.783 69.28 198.196 69.28C197.596 69.28 197.07 69.4267 196.616 69.72C196.163 70 195.803 70.3867 195.536 70.88C195.283 71.36 195.156 71.92 195.156 72.56C195.156 73.1867 195.283 73.7533 195.536 74.26C195.803 74.7533 196.163 75.14 196.616 75.42C197.07 75.7 197.596 75.84 198.196 75.84ZM204.553 78L208.353 72.54L204.533 67.12H207.613L210.593 71.52H209.213L212.193 67.12H215.253L211.453 72.54L215.233 78H212.173L209.233 73.62H210.573L207.633 78H204.553ZM220.46 78V63.1H230.4V65.5H223.18V69.62H229.5V72.02H223.18V78H220.46ZM237.044 78.24C235.977 78.24 235.004 77.9933 234.124 77.5C233.257 77.0067 232.564 76.3333 232.044 75.48C231.537 74.6267 231.284 73.6533 231.284 72.56C231.284 71.4667 231.537 70.4933 232.044 69.64C232.564 68.7867 233.257 68.1133 234.124 67.62C234.991 67.1267 235.964 66.88 237.044 66.88C238.111 66.88 239.077 67.1267 239.944 67.62C240.811 68.1133 241.497 68.7867 242.004 69.64C242.524 70.48 242.784 71.4533 242.784 72.56C242.784 73.6533 242.524 74.6267 242.004 75.48C241.484 76.3333 240.791 77.0067 239.924 77.5C239.057 77.9933 238.097 78.24 237.044 78.24ZM237.044 75.84C237.631 75.84 238.144 75.7 238.584 75.42C239.037 75.14 239.391 74.7533 239.644 74.26C239.911 73.7533 240.044 73.1867 240.044 72.56C240.044 71.92 239.911 71.36 239.644 70.88C239.391 70.3867 239.037 70 238.584 69.72C238.144 69.4267 237.631 69.28 237.044 69.28C236.444 69.28 235.917 69.4267 235.464 69.72C235.011 70 234.651 70.3867 234.384 70.88C234.131 71.36 234.004 71.92 234.004 72.56C234.004 73.1867 234.131 73.7533 234.384 74.26C234.651 74.7533 235.011 75.14 235.464 75.42C235.917 75.7 236.444 75.84 237.044 75.84ZM244.771 78V62.86H247.391V78H244.771ZM254.87 78.24C253.817 78.24 252.877 77.9933 252.05 77.5C251.223 76.9933 250.57 76.3067 250.09 75.44C249.61 74.5733 249.37 73.6133 249.37 72.56C249.37 71.4933 249.61 70.5333 250.09 69.68C250.57 68.8267 251.223 68.1467 252.05 67.64C252.89 67.1333 253.823 66.88 254.85 66.88C255.677 66.88 256.41 67.0467 257.05 67.38C257.703 67.7 258.217 68.1533 258.59 68.74L258.19 69.28V62.86H260.81V78H258.33V75.9L258.61 76.42C258.237 77.0067 257.717 77.46 257.05 77.78C256.383 78.0867 255.657 78.24 254.87 78.24ZM255.15 75.84C255.75 75.84 256.277 75.7 256.73 75.42C257.183 75.14 257.537 74.7533 257.79 74.26C258.057 73.7667 258.19 73.2 258.19 72.56C258.19 71.9333 258.057 71.3733 257.79 70.88C257.537 70.3733 257.183 69.98 256.73 69.7C256.277 69.42 255.75 69.28 255.15 69.28C254.563 69.28 254.037 69.4267 253.57 69.72C253.103 70 252.737 70.3867 252.47 70.88C252.217 71.36 252.09 71.92 252.09 72.56C252.09 73.2 252.217 73.7667 252.47 74.26C252.737 74.7533 253.103 75.14 253.57 75.42C254.037 75.7 254.563 75.84 255.15 75.84ZM268.407 78.24C267.287 78.24 266.307 77.9867 265.467 77.48C264.627 76.9733 263.974 76.2867 263.507 75.42C263.041 74.5533 262.807 73.5933 262.807 72.54C262.807 71.4467 263.041 70.48 263.507 69.64C263.987 68.7867 264.634 68.1133 265.447 67.62C266.274 67.1267 267.194 66.88 268.207 66.88C269.061 66.88 269.807 67.02 270.447 67.3C271.101 67.58 271.654 67.9667 272.107 68.46C272.561 68.9533 272.907 69.52 273.147 70.16C273.387 70.7867 273.507 71.4667 273.507 72.2C273.507 72.3867 273.494 72.58 273.467 72.78C273.454 72.98 273.421 73.1533 273.367 73.3H264.967V71.3H271.887L270.647 72.24C270.767 71.6267 270.734 71.08 270.547 70.6C270.374 70.12 270.081 69.74 269.667 69.46C269.267 69.18 268.781 69.04 268.207 69.04C267.661 69.04 267.174 69.18 266.747 69.46C266.321 69.7267 265.994 70.1267 265.767 70.66C265.554 71.18 265.474 71.8133 265.527 72.56C265.474 73.2267 265.561 73.82 265.787 74.34C266.027 74.8467 266.374 75.24 266.827 75.52C267.294 75.8 267.827 75.94 268.427 75.94C269.027 75.94 269.534 75.8133 269.947 75.56C270.374 75.3067 270.707 74.9667 270.947 74.54L273.067 75.58C272.854 76.1 272.521 76.56 272.067 76.96C271.614 77.36 271.074 77.6733 270.447 77.9C269.834 78.1267 269.154 78.24 268.407 78.24ZM275.493 78V67.12H277.953V69.54L277.753 69.18C278.007 68.3667 278.4 67.8 278.933 67.48C279.48 67.16 280.133 67 280.893 67H281.533V69.32H280.593C279.847 69.32 279.247 69.5533 278.793 70.02C278.34 70.4733 278.113 71.1133 278.113 71.94V78H275.493Z" fill="black"/>
<circle cx="49" cy="55" r="30" fill="#007EE5"/>
<path d="M49.0469 45.373L40.0234 51.1152L49.0469 56.8574L40.0234 62.668L31 56.8574L40.0234 51.0469L31 45.373L40.0234 39.5625L49.0469 45.373ZM39.9551 64.4453L48.9785 58.7031L58.002 64.4453L48.9785 70.1875L39.9551 64.4453ZM49.0469 56.8574L58.0703 51.0469L49.0469 45.373L58.002 39.5625L67.0938 45.373L58.002 51.1152L67.0938 56.8574L58.002 62.668L49.0469 56.8574Z" fill="white"/>
</svg>
