<svg width="12" height="13" viewBox="0 0 12 13" fill="none" xmlns="http://www.w3.org/2000/svg">
<path fill-rule="evenodd" clip-rule="evenodd" d="M3.75605 0.751465C3.89659 0.751465 4.01052 0.865392 4.01052 1.00593V2.70236C4.01052 2.8429 3.89659 2.95682 3.75605 2.95682C3.61551 2.95682 3.50159 2.8429 3.50159 2.70236V1.00593C3.50159 0.865392 3.61551 0.751465 3.75605 0.751465Z" fill="white"/>
<path fill-rule="evenodd" clip-rule="evenodd" d="M8.27985 0.751465C8.42039 0.751465 8.53432 0.865392 8.53432 1.00593V2.70236C8.53432 2.8429 8.42039 2.95682 8.27985 2.95682C8.13932 2.95682 8.02539 2.8429 8.02539 2.70236V1.00593C8.02539 0.865392 8.13932 0.751465 8.27985 0.751465Z" fill="white"/>
<path fill-rule="evenodd" clip-rule="evenodd" d="M1.78651 2.805C1.38534 3.23703 1.183 3.87249 1.183 4.6817V9.48825C1.183 10.2975 1.38534 10.9329 1.78651 11.3649C2.18451 11.7936 2.81484 12.0612 3.75592 12.0612H8.27973C9.22081 12.0612 9.85114 11.7936 10.2491 11.3649C10.6503 10.9329 10.8526 10.2975 10.8526 9.48825V4.6817C10.8526 3.87249 10.6503 3.23703 10.2491 2.805C9.85114 2.37638 9.22081 2.10878 8.27973 2.10878H3.75592C2.81484 2.10878 2.18451 2.37638 1.78651 2.805ZM1.41357 2.4587C1.93447 1.89773 2.71783 1.59985 3.75592 1.59985H8.27973C9.31781 1.59985 10.1012 1.89773 10.6221 2.4587C11.1398 3.01625 11.3616 3.79448 11.3616 4.6817V9.48825C11.3616 10.3755 11.1398 11.1537 10.6221 11.7112C10.1012 12.2722 9.31781 12.5701 8.27973 12.5701H3.75592C2.71783 12.5701 1.93447 12.2722 1.41357 11.7112C0.895841 11.1537 0.674072 10.3755 0.674072 9.48825V4.6817C0.674072 3.79448 0.895841 3.01625 1.41357 2.4587Z" fill="white"/>
<path fill-rule="evenodd" clip-rule="evenodd" d="M3.50159 6.09553C3.50159 5.95499 3.61551 5.84106 3.75605 5.84106H8.27986C8.4204 5.84106 8.53433 5.95499 8.53433 6.09553C8.53433 6.23607 8.4204 6.34999 8.27986 6.34999H3.75605C3.61551 6.34999 3.50159 6.23607 3.50159 6.09553Z" fill="white"/>
<path fill-rule="evenodd" clip-rule="evenodd" d="M3.50159 8.92243C3.50159 8.7819 3.61551 8.66797 3.75605 8.66797H6.01796C6.15849 8.66797 6.27242 8.7819 6.27242 8.92243C6.27242 9.06297 6.15849 9.1769 6.01796 9.1769H3.75605C3.61551 9.1769 3.50159 9.06297 3.50159 8.92243Z" fill="white"/>
</svg>
