<svg width="150" height="134" fill="none" xmlns="http://www.w3.org/2000/svg"><path stroke="#000" d="M3.867 3.193h140.407v126.94H3.867z"/><path fill="#F422EC" d="M13 11h122.801v111.106H13z"/><g style="mix-blend-mode:multiply"><path d="M91.985 82.079L81.3 92.345l4.33 4.508 10.687-10.266-4.33-4.508z" fill="#FFDC00"/><path d="M56.174 53.458l15.86 17.3a1.96 1.96 0 11-1.249 1.2L54.13 55.415l5.563 26.835 20.104 8.546 10.687-10.265L83.2 59.66l-27.025-6.203z" fill="#9EFF00"/></g><path d="M101.237 79.464L90.55 89.73l4.33 4.508 10.687-10.266-4.33-4.508zM65.423 50.841l15.86 17.303a1.96 1.96 0 11-1.249 1.198L63.378 52.798l5.558 26.836 20.12 8.544 10.686-10.266-7.282-20.866-27.037-6.205z" fill="#E0F9FF"/><path d="M36.506 96.854a.245.245 0 01-.245-.245 65.4 65.4 0 0165.399-65.4.245.245 0 010 .49 64.91 64.91 0 00-64.91 64.91.245.245 0 01-.244.245z" fill="#E0F9FF"/><path d="M104.114 29h-4.899v4.899h4.899V29zM57.558 48.566h-3.184v3.184h3.184v-3.184zM38.899 94.115H34v4.899h4.899v-4.9zm56.263-14.381L84.475 90.001l4.33 4.507 10.688-10.266-4.33-4.508zM59.349 51.116l15.862 17.3a1.96 1.96 0 11-1.249 1.2L57.306 53.073l5.555 26.833 20.12 8.548L93.668 78.19l-7.283-20.874-27.036-6.2z" fill="#fff"/><path fill="#F2FFF4" stroke="#000" d="M.5.5h7.08v6.407H.5zm0 126.593h7.08v6.407H.5zm141.407-2.02h7.08v6.407h-7.08zM139.887.5h7.08v6.407h-7.08z"/></svg>