<svg width="119" height="119" fill="none" xmlns="http://www.w3.org/2000/svg"><path fill-rule="evenodd" clip-rule="evenodd" d="M50.867 69.256c.155 5.09 2.833 9.217 6.658 12.16A25.883 25.883 0 0072.5 86.53a25.498 25.498 0 005.124-.728 40.021 40.021 0 007.083-2.598.442.442 0 00-.32-.824c-1.928.64-3.9 1.137-5.901 1.488a24.537 24.537 0 01-5.961.361 23.453 23.453 0 01-13.427-4.824c-3.155-2.472-5.441-5.86-5.621-10.06a18.306 18.306 0 003.254-.327 13.105 13.105 0 005.9-2.727 10.937 10.937 0 003.337-4.645 4.144 4.144 0 00-.924-4.445c-2.526-2.533-5.512-2.063-8.154-.069-2.98 2.246-5.444 6.543-5.918 9.53a63.733 63.733 0 01-3.195-.353 19.006 19.006 0 01-11.444-6.129 22.132 22.132 0 01-5.51-11.994c-.587-3.808.199-7.637 1.44-10.967a33.926 33.926 0 013.042-6.13 18.363 18.363 0 012.791-3.705.097.097 0 00.025-.131.097.097 0 00-.131-.025 13.935 13.935 0 00-3.815 2.983 23.293 23.293 0 00-3.927 6.18 23.132 23.132 0 00-1.943 12.137 24.683 24.683 0 006.12 13.384 21.563 21.563 0 0013.03 6.969c1.13.15 2.27.29 3.413.375zm2.76-2.515a16.034 16.034 0 002.603-.276 10.553 10.553 0 004.727-2.196 8.924 8.924 0 002.276-2.803c.41-.835.64-1.73-.034-2.41-1.463-1.47-3.193-.988-4.729.167a14.238 14.238 0 00-4.844 7.518z" fill="#fff"/><path fill-rule="evenodd" clip-rule="evenodd" d="M84.01 82.29c-.646.551-1.296 1.089-1.943 1.645-.738.651-1.513 1.3-2.22 1.982-1.863 1.746-3.592 3.567-5.323 5.37a.43.43 0 00.54.668c1.787-1.145 3.595-2.205 5.393-3.378a30.74 30.74 0 002.245-1.551c1.63-1.23 3.149-2.59 4.654-3.942.24-.225.437-.494.58-.79.144-.313.19-.66.131-1a1.442 1.442 0 00-.653-.954 4.012 4.012 0 00-1.342-.437c-2.22-.416-7.786-.684-8.937-.764l-2.312-.027a1.472 1.472 0 00-.507.072c-.25.07-.483.192-.684.358-.102.117.07.223-.034.185-.104-.038-.023.125.028.08.097-.186.08.162.165.104.207-.146-.038.203.163.216.072.013-.05.07.02.09.07.02-.11.065-.025.137.085.071-.108.016-.049.095.06.08-.136-.062-.082.04.055.103-.074-.063-.074-.063s-.018.096-.06-.135a.103.103 0 00.07-.147.09.09 0 00-.098-.04.09.09 0 00-.033.016c-.45-.43-.078-.015-.295-.105-.083-.015-.012.066-.062.069-.314-.004.12.152-.057.303-.067.062.09.017.049.102-.04.085.16-.068.168.155-.021.113.1-.105.196.105.096.209-.012.065.224.22.236.156.646.072.833.157l2.166.32c.922.11 4.646.47 7.164.844z" fill="#fff"/></svg>