<svg width="300" height="110" fill="none" xmlns="http://www.w3.org/2000/svg"><rect x="1.5" y="1.5" width="297" height="107" rx="3.5" fill="#fff" stroke="#007EE5" stroke-width="3"/><path d="M89.22 48l5.14-14.9h3.52l5.14 14.9h-2.96L99 44.8h-5.76L92.16 48h-2.94zm4.8-5.6h4.2l-2.48-7.42h.76l-2.48 7.42zm10.438 5.6V32.86h2.62V48h-2.62zm5.039 0V32.86h2.62V48h-2.62zm8.814 0V33.1h4.86c1.573 0 2.94.32 4.1.96 1.173.627 2.08 1.5 2.72 2.62.64 1.107.96 2.393.96 3.86 0 1.453-.32 2.747-.96 3.88-.64 1.12-1.547 2-2.72 2.64-1.16.627-2.527.94-4.1.94h-4.86zm2.72-2.4h2.2c1.013 0 1.887-.207 2.62-.62a4.501 4.501 0 001.74-1.76c.413-.76.62-1.653.62-2.68 0-1.04-.207-1.933-.62-2.68a4.365 4.365 0 00-1.74-1.74c-.733-.413-1.607-.62-2.62-.62h-2.2v10.1zm15.126 2.64c-.76 0-1.42-.127-1.98-.38s-.994-.613-1.3-1.08c-.307-.48-.46-1.033-.46-1.66 0-.6.133-1.133.4-1.6.266-.48.68-.88 1.24-1.2.56-.32 1.266-.547 2.12-.68l3.56-.58v2l-3.06.52c-.52.093-.907.26-1.16.5-.254.24-.38.553-.38.94 0 .373.14.673.42.9.293.213.653.32 1.08.32.546 0 1.026-.113 1.44-.34.426-.24.753-.567.98-.98.24-.413.36-.867.36-1.36v-2.8c0-.467-.187-.853-.56-1.16-.36-.32-.84-.48-1.44-.48-.56 0-1.06.153-1.5.46-.427.293-.74.687-.94 1.18l-2.14-1.04a3.73 3.73 0 011-1.48 5.1 5.1 0 011.64-1 5.652 5.652 0 012.04-.36c.893 0 1.68.167 2.36.5.68.32 1.206.773 1.58 1.36.386.573.58 1.247.58 2.02V48h-2.48v-1.86l.56-.04a4.57 4.57 0 01-1 1.18 4.52 4.52 0 01-1.32.72c-.494.16-1.04.24-1.64.24zm13.066-.12c-1.227 0-2.18-.333-2.86-1-.667-.68-1-1.633-1-2.86v-4.8h-1.88v-2.34h.2c.533 0 .947-.14 1.24-.42.293-.28.44-.687.44-1.22v-.84h2.62v2.48h2.5v2.34h-2.5v4.66c0 .36.06.667.18.92.133.253.333.447.6.58.28.133.633.2 1.06.2.093 0 .2-.007.32-.02l.38-.04V48c-.187.027-.4.053-.64.08-.24.027-.46.04-.66.04zm6.563.12c-.76 0-1.42-.127-1.98-.38s-.994-.613-1.3-1.08c-.307-.48-.46-1.033-.46-1.66 0-.6.133-1.133.4-1.6.266-.48.68-.88 1.24-1.2.56-.32 1.266-.547 2.12-.68l3.56-.58v2l-3.06.52c-.52.093-.907.26-1.16.5-.254.24-.38.553-.38.94 0 .373.14.673.42.9.293.213.653.32 1.08.32.546 0 1.026-.113 1.44-.34.426-.24.753-.567.98-.98.24-.413.36-.867.36-1.36v-2.8c0-.467-.187-.853-.56-1.16-.36-.32-.84-.48-1.44-.48-.56 0-1.06.153-1.5.46-.427.293-.74.687-.94 1.18l-2.14-1.04a3.73 3.73 0 011-1.48 5.1 5.1 0 011.64-1 5.652 5.652 0 012.04-.36c.893 0 1.68.167 2.36.5.68.32 1.206.773 1.58 1.36.386.573.58 1.247.58 2.02V48h-2.48v-1.86l.56-.04a4.57 4.57 0 01-1 1.18 4.52 4.52 0 01-1.32.72c-.494.16-1.04.24-1.64.24zm17.396 0a6.66 6.66 0 01-2.64-.52 6.33 6.33 0 01-2.08-1.44 5.858 5.858 0 01-1.26-2.18l2.26-.98c.36.853.88 1.527 1.56 2.02.68.48 1.447.72 2.3.72.48 0 .893-.073 1.24-.22.36-.16.633-.373.82-.64.2-.267.3-.587.3-.96 0-.44-.133-.8-.4-1.08-.253-.293-.64-.52-1.16-.68l-2.86-.92c-1.16-.36-2.033-.9-2.62-1.62-.587-.72-.88-1.567-.88-2.54 0-.853.207-1.607.62-2.26a4.261 4.261 0 011.76-1.52c.76-.373 1.627-.56 2.6-.56.893 0 1.713.16 2.46.48a5.5 5.5 0 011.92 1.3 5.16 5.16 0 011.22 1.94l-2.24 1c-.293-.747-.733-1.32-1.32-1.72-.587-.413-1.267-.62-2.04-.62-.453 0-.853.08-1.2.24a1.88 1.88 0 00-.82.64c-.187.267-.28.587-.28.96 0 .413.133.78.4 1.1.267.307.673.547 1.22.72l2.74.86c1.187.387 2.073.92 2.66 1.6.6.68.9 1.52.9 2.52 0 .853-.22 1.607-.66 2.26-.44.653-1.047 1.167-1.82 1.54-.773.373-1.673.56-2.7.56zm12.569 0c-1.12 0-2.1-.253-2.94-.76a5.296 5.296 0 01-1.96-2.06c-.467-.867-.7-1.827-.7-2.88 0-1.093.233-2.06.7-2.9a5.433 5.433 0 011.94-2.02c.827-.493 1.747-.74 2.76-.74.853 0 1.6.14 2.24.42a4.78 4.78 0 011.66 1.16c.453.493.8 1.06 1.04 1.7.24.627.36 1.307.36 2.04 0 .187-.013.38-.04.58-.013.2-.047.373-.1.52h-8.4v-2h6.92l-1.24.94c.12-.613.087-1.16-.1-1.64a2.273 2.273 0 00-.88-1.14c-.4-.28-.887-.42-1.46-.42-.547 0-1.033.14-1.46.42-.427.267-.753.667-.98 1.2-.213.52-.293 1.153-.24 1.9-.053.667.033 1.26.26 1.78.24.507.587.9 1.04 1.18.467.28 1 .42 1.6.42.6 0 1.107-.127 1.52-.38.427-.253.76-.593 1-1.02l2.12 1.04c-.213.52-.547.98-1 1.38a4.97 4.97 0 01-1.62.94c-.613.227-1.293.34-2.04.34zm12.326 0c-1.08 0-2.053-.247-2.92-.74a5.6 5.6 0 01-2.02-2.04c-.493-.867-.74-1.84-.74-2.92 0-1.08.247-2.047.74-2.9a5.446 5.446 0 012.02-2.02c.867-.493 1.84-.74 2.92-.74.774 0 1.494.14 2.16.42.667.267 1.24.64 1.72 1.12a3.964 3.964 0 011.06 1.68l-2.3 1a2.7 2.7 0 00-1.02-1.32 2.715 2.715 0 00-1.62-.5c-.573 0-1.086.14-1.54.42-.44.28-.786.667-1.04 1.16-.253.493-.38 1.06-.38 1.7 0 .64.127 1.207.38 1.7.254.493.6.88 1.04 1.16.454.28.967.42 1.54.42.627 0 1.174-.167 1.64-.5.467-.333.8-.78 1-1.34l2.3 1.04a4.464 4.464 0 01-1.04 1.66c-.48.48-1.053.86-1.72 1.14-.666.267-1.393.4-2.18.4zm10.808 0c-.84 0-1.573-.187-2.2-.56a3.742 3.742 0 01-1.42-1.56c-.32-.667-.48-1.447-.48-2.34v-6.66h2.62v6.44c0 .453.087.853.26 1.2.187.333.447.6.78.8.347.187.733.28 1.16.28a2.29 2.29 0 001.14-.28 2.1 2.1 0 00.78-.82c.187-.347.28-.76.28-1.24v-6.38h2.62V48h-2.48v-2.14l.22.38c-.253.667-.673 1.167-1.26 1.5-.573.333-1.247.5-2.02.5zm7.976-.24V37.12h2.46v2.42l-.2-.36c.253-.813.646-1.38 1.18-1.7.546-.32 1.2-.48 1.96-.48h.64v2.32h-.94c-.747 0-1.347.233-1.8.7-.454.453-.68 1.093-.68 1.92V48h-2.62zm12.64.24c-1.12 0-2.1-.253-2.94-.76a5.296 5.296 0 01-1.96-2.06c-.467-.867-.7-1.827-.7-2.88 0-1.093.233-2.06.7-2.9a5.433 5.433 0 011.94-2.02c.827-.493 1.747-.74 2.76-.74.853 0 1.6.14 2.24.42a4.78 4.78 0 011.66 1.16c.453.493.8 1.06 1.04 1.7.24.627.36 1.307.36 2.04 0 .187-.013.38-.04.58-.013.2-.047.373-.1.52h-8.4v-2h6.92l-1.24.94c.12-.613.087-1.16-.1-1.64a2.273 2.273 0 00-.88-1.14c-.4-.28-.887-.42-1.46-.42-.547 0-1.033.14-1.46.42-.427.267-.753.667-.98 1.2-.213.52-.293 1.153-.24 1.9-.053.667.033 1.26.26 1.78.24.507.587.9 1.04 1.18.467.28 1 .42 1.6.42.6 0 1.107-.127 1.52-.38.427-.253.76-.593 1-1.02l2.12 1.04c-.213.52-.547.98-1 1.38a4.97 4.97 0 01-1.62.94c-.613.227-1.293.34-2.04.34zm10.861-.24V33.1h2.72V48h-2.72zm5.366 0V37.12h2.46v2.14l-.2-.38c.253-.653.666-1.147 1.24-1.48.586-.347 1.266-.52 2.04-.52.8 0 1.506.173 2.12.52a3.67 3.67 0 011.46 1.46c.346.613.52 1.327.52 2.14v7h-2.62v-6.38c0-.48-.094-.893-.28-1.24a1.965 1.965 0 00-.78-.8c-.32-.2-.7-.3-1.14-.3-.427 0-.807.1-1.14.3a1.953 1.953 0 00-.78.8c-.187.347-.28.76-.28 1.24V48h-2.62zM97.78 78.24a8.014 8.014 0 01-3.06-.58 7.612 7.612 0 01-2.48-1.62 7.544 7.544 0 01-1.66-2.44 8.014 8.014 0 01-.58-3.06c0-1.107.193-2.127.58-3.06a7.287 7.287 0 011.64-2.44 7.351 7.351 0 012.48-1.6c.947-.387 1.973-.58 3.08-.58s2.133.193 3.08.58a7.612 7.612 0 012.48 1.62 7.075 7.075 0 011.64 2.42c.4.933.6 1.953.6 3.06a7.78 7.78 0 01-.6 3.06 7.539 7.539 0 01-4.14 4.06c-.933.387-1.953.58-3.06.58zm0-2.48c.733 0 1.407-.127 2.02-.38a4.967 4.967 0 001.6-1.1 4.6 4.6 0 001.06-1.66c.253-.64.38-1.333.38-2.08 0-.747-.127-1.433-.38-2.06a4.597 4.597 0 00-1.06-1.66 4.581 4.581 0 00-1.6-1.1 5.242 5.242 0 00-2.02-.38c-.72 0-1.387.127-2 .38a4.786 4.786 0 00-1.62 1.1 4.987 4.987 0 00-1.06 1.66 5.447 5.447 0 00-.38 2.06c0 .747.127 1.44.38 2.08a4.99 4.99 0 001.06 1.66 5.204 5.204 0 001.62 1.1c.613.253 1.28.38 2 .38zm13.879 2.48c-.84 0-1.574-.187-2.2-.56a3.735 3.735 0 01-1.42-1.56c-.32-.667-.48-1.447-.48-2.34v-6.66h2.62v6.44c0 .453.086.853.26 1.2.186.333.446.6.78.8a2.4 2.4 0 001.16.28c.426 0 .806-.093 1.14-.28a2.1 2.1 0 00.78-.82c.186-.347.28-.76.28-1.24v-6.38h2.62V78h-2.48v-2.14l.22.38c-.254.667-.674 1.167-1.26 1.5-.574.333-1.247.5-2.02.5zm7.975-.24V67.12h2.46v2.42l-.2-.36c.253-.813.647-1.38 1.18-1.7.547-.32 1.2-.48 1.96-.48h.64v2.32h-.94c-.747 0-1.347.233-1.8.7-.453.453-.68 1.093-.68 1.92V78h-2.62zm11.255 0V63.1h4.86c1.574 0 2.94.32 4.1.96 1.174.627 2.08 1.5 2.72 2.62.64 1.107.96 2.393.96 3.86 0 1.453-.32 2.747-.96 3.88-.64 1.12-1.546 2-2.72 2.64-1.16.627-2.526.94-4.1.94h-4.86zm2.72-2.4h2.2c1.014 0 1.887-.207 2.62-.62a4.501 4.501 0 001.74-1.76c.414-.76.62-1.653.62-2.68 0-1.04-.206-1.933-.62-2.68a4.365 4.365 0 00-1.74-1.74c-.733-.413-1.606-.62-2.62-.62h-2.2v10.1zm11.865 2.4V67.12h2.46v2.42l-.2-.36c.253-.813.647-1.38 1.18-1.7.547-.32 1.2-.48 1.96-.48h.64v2.32h-.94c-.747 0-1.347.233-1.8.7-.453.453-.68 1.093-.68 1.92V78h-2.62zm12.8.24c-1.066 0-2.04-.247-2.92-.74a5.706 5.706 0 01-2.08-2.02c-.506-.853-.76-1.827-.76-2.92s.254-2.067.76-2.92a5.706 5.706 0 012.08-2.02c.867-.493 1.84-.74 2.92-.74 1.067 0 2.034.247 2.9.74a5.538 5.538 0 012.06 2.02c.52.84.78 1.813.78 2.92 0 1.093-.26 2.067-.78 2.92a5.698 5.698 0 01-2.08 2.02c-.866.493-1.826.74-2.88.74zm0-2.4c.587 0 1.1-.14 1.54-.42a2.87 2.87 0 001.06-1.16 3.59 3.59 0 00.4-1.7c0-.64-.133-1.2-.4-1.68a2.87 2.87 0 00-1.06-1.16c-.44-.293-.953-.44-1.54-.44-.6 0-1.126.147-1.58.44a3.03 3.03 0 00-1.08 1.16c-.253.48-.38 1.04-.38 1.68 0 .627.127 1.193.38 1.7.267.493.627.88 1.08 1.16.454.28.98.42 1.58.42zm7.727 6.16V67.12h2.46v2.16l-.24-.54c.374-.587.88-1.04 1.52-1.36.64-.333 1.38-.5 2.22-.5 1.027 0 1.954.253 2.78.76a5.532 5.532 0 011.96 2.04c.494.853.74 1.813.74 2.88 0 1.053-.24 2.013-.72 2.88a5.489 5.489 0 01-1.96 2.06c-.826.493-1.766.74-2.82.74a5.156 5.156 0 01-2.18-.46 3.87 3.87 0 01-1.56-1.36l.42-.52V82h-2.62zm5.64-6.16c.6 0 1.134-.14 1.6-.42a2.83 2.83 0 001.08-1.16c.267-.493.4-1.06.4-1.7 0-.64-.133-1.2-.4-1.68a2.83 2.83 0 00-1.08-1.16c-.466-.293-1-.44-1.6-.44-.573 0-1.093.14-1.56.42a2.99 2.99 0 00-1.08 1.18c-.253.493-.38 1.053-.38 1.68 0 .64.127 1.207.38 1.7.267.493.627.88 1.08 1.16.467.28.987.42 1.56.42zm13.738 2.4a5.15 5.15 0 01-2.18-.46 3.856 3.856 0 01-1.56-1.36l.26-.52V78h-2.46V62.86h2.62v6.42l-.4-.54a3.75 3.75 0 011.52-1.36c.64-.333 1.38-.5 2.22-.5 1.026 0 1.953.253 2.78.76a5.54 5.54 0 011.96 2.04c.493.853.74 1.813.74 2.88 0 1.053-.24 2.013-.72 2.88a5.496 5.496 0 01-1.96 2.06c-.827.493-1.767.74-2.82.74zm-.3-2.4c.6 0 1.133-.14 1.6-.42.466-.28.826-.667 1.08-1.16.266-.493.4-1.06.4-1.7 0-.64-.134-1.2-.4-1.68a2.843 2.843 0 00-1.08-1.16c-.467-.293-1-.44-1.6-.44a2.97 2.97 0 00-1.56.42c-.454.28-.814.673-1.08 1.18-.254.493-.38 1.053-.38 1.68 0 .64.126 1.207.38 1.7.266.493.626.88 1.08 1.16.466.28.986.42 1.56.42zm13.117 2.4c-1.066 0-2.04-.247-2.92-.74a5.706 5.706 0 01-2.08-2.02c-.506-.853-.76-1.827-.76-2.92s.254-2.067.76-2.92a5.706 5.706 0 012.08-2.02c.867-.493 1.84-.74 2.92-.74 1.067 0 2.034.247 2.9.74a5.538 5.538 0 012.06 2.02c.52.84.78 1.813.78 2.92 0 1.093-.26 2.067-.78 2.92a5.698 5.698 0 01-2.08 2.02c-.866.493-1.826.74-2.88.74zm0-2.4c.587 0 1.1-.14 1.54-.42a2.87 2.87 0 001.06-1.16 3.59 3.59 0 00.4-1.7c0-.64-.133-1.2-.4-1.68a2.87 2.87 0 00-1.06-1.16c-.44-.293-.953-.44-1.54-.44-.6 0-1.126.147-1.58.44a3.03 3.03 0 00-1.08 1.16c-.253.48-.38 1.04-.38 1.68 0 .627.127 1.193.38 1.7.267.493.627.88 1.08 1.16.454.28.98.42 1.58.42zm6.357 2.16l3.8-5.46-3.82-5.42h3.08l2.98 4.4h-1.38l2.98-4.4h3.06l-3.8 5.42 3.78 5.46h-3.06l-2.94-4.38h1.34l-2.94 4.38h-3.08zm15.907 0V63.1h9.94v2.4h-7.22v4.12h6.32v2.4h-6.32V78h-2.72zm16.584.24c-1.067 0-2.04-.247-2.92-.74a5.698 5.698 0 01-2.08-2.02c-.507-.853-.76-1.827-.76-2.92s.253-2.067.76-2.92a5.698 5.698 0 012.08-2.02c.867-.493 1.84-.74 2.92-.74 1.067 0 2.033.247 2.9.74a5.546 5.546 0 012.06 2.02c.52.84.78 1.813.78 2.92 0 1.093-.26 2.067-.78 2.92a5.698 5.698 0 01-2.08 2.02c-.867.493-1.827.74-2.88.74zm0-2.4c.587 0 1.1-.14 1.54-.42a2.88 2.88 0 001.06-1.16 3.59 3.59 0 00.4-1.7c0-.64-.133-1.2-.4-1.68a2.878 2.878 0 00-1.06-1.16c-.44-.293-.953-.44-1.54-.44-.6 0-1.127.147-1.58.44a3.03 3.03 0 00-1.08 1.16c-.253.48-.38 1.04-.38 1.68 0 .627.127 1.193.38 1.7.267.493.627.88 1.08 1.16.453.28.98.42 1.58.42zm7.727 2.16V62.86h2.62V78h-2.62zm10.099.24c-1.053 0-1.993-.247-2.82-.74a5.489 5.489 0 01-1.96-2.06c-.48-.867-.72-1.827-.72-2.88 0-1.067.24-2.027.72-2.88a5.532 5.532 0 011.96-2.04c.84-.507 1.773-.76 2.8-.76.827 0 1.56.167 2.2.5.653.32 1.167.773 1.54 1.36l-.4.54v-6.42h2.62V78h-2.48v-2.1l.28.52a3.695 3.695 0 01-1.56 1.36 5.153 5.153 0 01-2.18.46zm.28-2.4c.6 0 1.127-.14 1.58-.42a2.88 2.88 0 001.06-1.16c.267-.493.4-1.06.4-1.7 0-.627-.133-1.187-.4-1.68a2.849 2.849 0 00-1.06-1.18c-.453-.28-.98-.42-1.58-.42a2.91 2.91 0 00-1.58.44c-.467.28-.833.667-1.1 1.16-.253.48-.38 1.04-.38 1.68 0 .64.127 1.207.38 1.7.267.493.633.88 1.1 1.16.467.28.993.42 1.58.42zm13.257 2.4c-1.12 0-2.1-.253-2.94-.76a5.296 5.296 0 01-1.96-2.06c-.466-.867-.7-1.827-.7-2.88 0-1.093.234-2.06.7-2.9a5.433 5.433 0 011.94-2.02c.827-.493 1.747-.74 2.76-.74.854 0 1.6.14 2.24.42.654.28 1.207.667 1.66 1.16.454.493.8 1.06 1.04 1.7.24.627.36 1.307.36 2.04 0 .187-.013.38-.04.58a1.86 1.86 0 01-.1.52h-8.4v-2h6.92l-1.24.94c.12-.613.087-1.16-.1-1.64a2.267 2.267 0 00-.88-1.14c-.4-.28-.886-.42-1.46-.42-.546 0-1.033.14-1.46.42-.426.267-.753.667-.98 1.2-.213.52-.293 1.153-.24 1.9-.053.667.034 1.26.26 1.78.24.507.587.9 1.04 1.18.467.28 1 .42 1.6.42.6 0 1.107-.127 1.52-.38.427-.253.76-.593 1-1.02l2.12 1.04c-.213.52-.546.98-1 1.38a4.97 4.97 0 01-1.62.94c-.613.227-1.293.34-2.04.34zm7.086-.24V67.12h2.46v2.42l-.2-.36c.254-.813.647-1.38 1.18-1.7.547-.32 1.2-.48 1.96-.48h.64v2.32h-.94c-.746 0-1.346.233-1.8.7-.453.453-.68 1.093-.68 1.92V78h-2.62z" fill="#000"/><circle cx="49" cy="55" r="30" fill="#007EE5"/><path d="M49.047 45.373l-9.024 5.742 9.024 5.742-9.024 5.811L31 56.858l9.023-5.811L31 45.373l9.023-5.81 9.024 5.81zm-9.092 19.072l9.023-5.742 9.024 5.742-9.024 5.743-9.023-5.743zm9.092-7.588l9.023-5.81-9.023-5.674 8.955-5.81 9.092 5.81-9.092 5.742 9.092 5.742-9.092 5.811-8.955-5.81z" fill="#fff"/></svg>