<svg width="1300" height="330" fill="none" xmlns="http://www.w3.org/2000/svg"><path d="M238.063-121.689c-8.731-34.385-78.933-43.563-160.194-54.129-20.102-2.597-40.877-5.328-61.024-8.507-89.14-14.058-170.715-58.83-249.603-102.079-39.533-21.76-79.873-43.877-121.197-62.099v3.448c40.742 17.908 80.589 39.891 119.675 61.292 79.112 43.429 161.178 88.29 250.722 102.438 20.192 3.179 41.011 5.91 61.114 8.551 76.783 10.029 149.358 19.521 157.552 51.846 6.357 25.162-26.416 63.352-100.2 116.72C31.083 70.651-55.64 105.528-138.647 105.528A302.974 302.974 0 01-277.843 70.74a533.267 533.267 0 01-76.112-49.562v3.94a526.768 526.768 0 0074.903 48.353 305.875 305.875 0 00140.405 35.146c83.678 0 171.162-35.056 275.257-110.362 76.022-54.89 108.258-93.036 101.453-119.944z" fill="#fff" fill-opacity=".03"/><path d="M-258.457 33.266c34.027 17.46 62.949 25.564 90.977 25.564 29.37 0 55.472-8.954 85.693-19.028 17.147-5.775 36.578-12.357 58.65-17.908A111.93 111.93 0 014.13 18.76c4.477 0 8.372 0 12.312.358 3.94.358 7.298.269 10.835.269 17.909 0 32.549-4.478 48.353-25.655a121.87 121.87 0 0018.133-35.235c5.283-14.685 9.447-26.281 32.639-42.892a110.783 110.783 0 0122.833-10.834c13.432-5.239 24.714-9.761 25.207-17.372.358-6.178-6.85-13.118-22.699-21.714-18.984-10.342-46.115-11.73-70.158-11.73-10.7 0-21.938.313-32.818.671-10.88.358-22.386.627-33.086.627a209.613 209.613 0 01-54.8-5.552c-77.904-21.042-150.971-61.337-215.398-96.572-33.847-18.491-66.665-36.4-99.438-51.981v2.508c32.415 15.312 64.874 33.086 98.498 51.442 64.561 35.415 137.718 75.531 215.89 96.797a214.233 214.233 0 0055.382 5.462c10.88 0 22.386-.313 33.132-.627 10.745-.313 22.117-.671 32.772-.671 23.774 0 50.503 1.343 69.083 11.417 14.596 7.969 21.849 14.551 21.536 19.655-.403 6.223-11.775 10.655-23.819 15.401a112.826 112.826 0 00-23.416 11.193c-23.774 16.969-28.25 29.46-33.444 43.921A121.289 121.289 0 0173.75-7.52C58.483 13.074 44.604 17.193 27.187 17.193c-3.492 0-6.984 0-10.745-.269-3.76-.269-8.014-.224-12.223-.224-9.38-.084-18.735.998-27.848 3.224-22.117 5.551-41.593 12.133-58.785 17.909-30.042 10.118-55.965 18.893-85.066 18.893-27.669 0-56.234-8.059-89.947-25.296-30.803-15.939-58.517-37.116-85.335-57.263l-11.193-8.462v2.82l9.85 7.433c26.863 20.371 54.666 41.459 85.648 57.308z" fill="#fff" fill-opacity=".03"/><path d="M-237.817-6.984a213.202 213.202 0 0099.17 25.206c18.849 0 59.501-7.7 95.005-20.55 31.072-11.283 68.143-29.997 68.188-55.159 0-29.639-57.129-46.115-91.335-55.965-7.432-2.149-13.879-3.984-17.908-5.551a1341.715 1341.715 0 01-191.579-88.156c-26.415-14.551-52.249-28.699-77.679-41.414v1.522c25.206 12.626 50.816 26.863 77.052 41.011a1344.052 1344.052 0 00191.579 88.425c4.477 1.611 10.79 3.447 18.267 5.596 33.847 9.716 90.484 26.013 90.394 54.666 0 43.519-122.854 74.366-161.94 74.366a212.58 212.58 0 01-98.498-25.027c-27.355-14.014-53.457-33.847-78.753-53.01-12.223-9.268-24.804-18.804-37.967-28.072v1.657c12.85 8.954 25.162 18.401 37.161 27.49 25.385 19.072 51.353 38.906 78.843 52.965zm355.13 388.664a40.57 40.57 0 00-29.729-19.431 48.884 48.884 0 01-21.804-8.954l-.671-.806c-22.834-25.564-99.394-108.93-125.361-108.93a8.419 8.419 0 00-7.074 3.224c-3.448 4.477-3.269 13.432.537 27.803 2.283 8.462 23.953 20.058 46.92 32.415 19.119 10.253 38.908 20.864 45.623 28.833 6 7.119 13.924 17.013 13.432 20.461 0 .94-1.209 1.477-2.955 2.328-4.03 2.015-10.074 5.014-6.85 19.162a101.26 101.26 0 0014.148 28.833 99.798 99.798 0 0112.67 25.028c5.731 22.028-30.355 62.457-54.218 89.185-7.88 8.955-14.686 16.476-19.028 22.386a612.199 612.199 0 01-59.995 65.098c-40.787 40.295-82.962 81.754-97.781 139.106-22.431 85.604-26.908 161.313-13.477 224.889 7.164 33.94 31.878 81.26 55.831 81.26 14.909 0 25.788-17.91 32.28-53.28C-75.117 864.052-6.705 818.743 59.423 774.911c58.606-38.817 113.944-75.485 137.763-170.715 8.954-35.817-4.836-91.2-22.789-121.779a96.312 96.312 0 00-27.848-28.743 87.57 87.57 0 01-22.923-22.386c-4.478-6.94-3.627-15.044-2.821-23.64.806-8.596 1.925-18.177-3.492-25.968zm3.805 51.175a88.553 88.553 0 0023.685 23.281 94.025 94.025 0 0126.863 27.848c17.64 30.042 31.34 84.261 22.386 119.451-23.506 94.021-78.351 130.421-136.465 168.88-66.441 44.189-135.39 89.901-160.82 227.396-6.089 33.179-16.208 50.729-29.191 50.729-20.372 0-45.086-42.36-52.786-78.757-13.432-63.083-8.955-138.344 13.118-223.59 14.595-56.547 56.457-97.782 96.93-137.673a610.519 610.519 0 0060.398-65.412c4.253-5.641 11.014-13.431 18.849-21.983 25.788-28.878 61.069-68.456 54.935-92.051a100.744 100.744 0 00-13.074-25.923 99.562 99.562 0 01-13.744-27.892c-2.642-11.731 1.522-13.79 5.193-15.626 2.015-.985 4.12-2.059 4.477-4.477.717-3.268-1.388-8.283-13.879-23.102-7.074-8.417-27.132-19.207-46.518-29.594-20.371-10.925-43.429-23.327-45.354-30.445-4.477-16.208-3-22.386-1.074-25.072a5.321 5.321 0 014.477-2.015c19.565 0 76.38 55.741 123.033 107.9l.94.985a52.735 52.735 0 0023.192 9.715 37.516 37.516 0 0127.848 17.909c4.477 6.85 3.94 15.043 3.089 23.729-.85 8.686-1.477 17.909 3.492 26.013v-.224z" fill="#fff" fill-opacity=".03"/><path d="M-353.955 91.065c150.971 85.425 313.671 221.352 343.31 288.913 17.909 40.563-25.34 89.051-79.918 150.433-61.919 69.755-139.285 156.567-144.075 260.841-5.865 126.928-68.814 179.087-119.317 194.847v3.313c51.667-15.76 116.407-68.591 122.451-198.071 4.746-102.975 81.574-189.429 143.27-258.825C-32.896 470.283 10.8 421.123-7.645 378.724c-29.997-68.053-194.086-205.323-346.31-291.017v3.358zM552.988 1049c59.412-6.76 123.122-75.571 123.928-133.864 1.254-89.544-50.1-160.776-99.796-229.814-8.462-11.686-17.193-23.819-25.431-35.818l-4.925-7.163c-23.415-33.668-49.92-71.635-58.517-113.094-7.297-34.966-18.446-116.406-6.312-144.434 8.954-20.55 34.25-32.325 58.74-43.742 16.924-7.835 32.952-15.267 44.19-25.475l.493-.447c38.414-34.833 38.414-34.833 64.605-35.818 7.925-.269 17.909-.582 31.699-1.925a233.765 233.765 0 0037.742-6.447 54.237 54.237 0 0112.134-2.149c8.058 0 14.819 5.686 37.16 24.624 66.039 55.92 64.785 153.165 63.576 247.23-1.522 118.332-3.089 240.738 130.868 279.466a201.912 201.912 0 0055.738 8.372c50.37 0 93.22-22.386 123.98-65.053 45.13-62.412 57.13-159.88 29.86-242.484-62.99-190.639-213.518-299.658-375.457-403.529C650.142 23.012 509.962-3 390.152-19.969a179.076 179.076 0 00-24.535-1.835c-48.577 0-71.634 24.714-100.915 55.965a509.323 509.323 0 01-37.161 37.026c-16.476 14.461-37.429 24.4-57.666 33.982-33.042 15.625-64.247 30.355-77.142 63.173-27.355 69.62 39.847 123.839 99.17 171.7 27.445 22.386 53.368 43.115 68.545 64.023 60.263 82.918 42.22 222.74-12.401 301.315-17.058 24.49-49.742 54.845-84.306 86.947C106.433 845.515 41.469 905.823 30.008 956.46c-5.418 23.863-3.985 40.295 4.477 50.86 6.94 8.69 18.625 12.9 35.818 12.9 28.161 0 68.5-11.6 111.168-23.913 52.159-14.999 111.303-32.012 161.716-32.012a144.698 144.698 0 0160.845 11.462 262.03 262.03 0 0151.801 33.983c26.281 20.41 51.084 39.71 86.185 39.71 3.662.04 7.323-.11 10.97-.45zm-148.329-75.124a147.044 147.044 0 00-61.786-11.64c-50.771 0-110.049 17.058-162.342 32.101-42.533 12.263-82.694 23.823-110.542 23.823-16.342 0-27.445-3.94-33.937-12.05-7.835-9.848-8.954-25.831-3.895-48.934 11.327-50.01 76.112-110.049 133.107-163.014 34.653-32.191 67.426-62.68 84.618-87.35 55.07-79.156 73.202-220.187 12.402-303.911-15.357-21.132-41.414-42.175-68.993-64.426-58.696-47.369-125.361-101.05-98.498-169.148 12.581-31.967 43.384-46.563 76.112-61.965 20.416-9.67 41.503-19.61 58.203-34.295a522.115 522.115 0 0037.295-37.16c28.878-30.893 51.712-55.293 99.304-55.293 8.108.025 16.203.639 24.222 1.835C509.514-.627 649.605 25.34 796.188 119.496 957.725 223.142 1107.93 331.893 1170.66 521.86c27.09 81.932 15.22 178.595-29.51 240.47-30.31 41.951-72.57 64.113-122.18 64.113a199.406 199.406 0 01-55.201-8.328c-59.367-17.192-96.886-52.428-114.795-107.766-15.984-49.607-15.222-110.586-14.461-169.551 1.209-94.558 2.462-192.518-64.382-248.931-31.967-27.087-32.818-27.49-51.264-22.923a230.491 230.491 0 01-37.384 6.402c-13.88 1.299-23.685 1.612-31.564 1.881-26.864.94-26.864.94-66.039 36.31l-.537.447c-10.969 9.94-26.863 17.327-43.608 25.117-24.893 11.552-50.637 23.55-59.86 44.772-12.357 28.609-1.164 110.542 6.179 145.733 8.685 41.682 35.325 80.052 58.875 113.944l4.925 7.119c8.237 11.954 16.968 24.087 25.43 35.817 49.249 68.725 100.647 139.822 99.393 228.336-.806 57.353-63.486 125.008-121.958 131.678-3.658.4-7.334.61-11.014.62-34.34 0-58.875-19.02-84.798-39.22-16.028-12.175-32.594-25.069-52.248-34.024zM1499.82-341.787h-33.22c-30.53 0-54.8 1.657-81.62 9.805a247.178 247.178 0 00-39.8 17.372c-21.22 10.79-41.23 20.998-65.19 20.998-4 .008-7.99-.277-11.95-.851-17.69-2.552-30.94-12.984-43.74-23.058-14.38-11.327-27.94-22.027-47.01-22.027-1.77.001-3.53.091-5.29.268-11.73 1.209-30.58 11.775-48.75 22.028a254.852 254.852 0 01-30.63 15.67c-8.55 3.143-17.3 5.73-26.19 7.746-18.85 4.477-21.22 6.133-30.35 40.787a415.775 415.775 0 00-6.14 27.176c-6.58 32.146-11.77 57.353-46.024 81.395-23.147 16.342-52.472 24.267-89.543 24.267-37.071 0-75.441-7.701-109.467-14.551-17.909-3.537-34.609-6.895-47.056-8.238-7.253-.761-18.446-1.254-29.907-1.254-32.863 0-71.366 12.044-74.053 29.326-1.298 8.148 5.104 20.46 42.802 32.504l4.164 1.343C824.439-35.055 924.594 25.073 1026.54 126.347c28.07 27.938 49.56 40.966 67.56 40.966 4.19-.001 8.35-.759 12.27-2.238 19.11-7.119 33.04-31.34 49.25-59.189 8.32-14.416 17.91-30.758 28.96-46.517a407.763 407.763 0 01218.49-156.702 270.746 270.746 0 0174.14-10.969c77.32 0 131.9 37.877 183.57 76.829v-2.821c-51.58-38.817-106.16-76.112-183.57-76.112-25.38.221-50.6 3.973-74.95 11.148a410.055 410.055 0 00-219.69 157.686c-11.24 15.805-20.73 32.191-29.06 46.653-15.94 27.579-29.68 51.398-48.04 58.203a33.485 33.485 0 01-11.5 2.059c-17.38 0-38.33-12.804-66-40.294C925.758 23.506 825.379-36.757 681.438-82.916l-4.209-1.344c-28.206-8.954-42.891-19.699-41.279-29.997 2.238-14.371 36.489-27.445 71.859-27.445 11.372 0 22.385.493 29.639 1.254 12.401 1.298 29.146 4.477 46.876 8.238 34.116 6.671 72.799 14.596 109.914 14.596 37.116 0 67.471-8.059 90.977-24.67 34.965-24.759 40.295-50.502 46.925-83.141 1.79-8.641 3.58-17.551 6.13-26.863 8.95-34.519 10.92-34.967 28.65-39.22a208.717 208.717 0 0026.46-7.791 249.798 249.798 0 0030.94-15.849c17.19-9.626 36.62-20.55 47.91-21.714 1.68-.178 3.37-.267 5.06-.269 18.26 0 31.56 10.477 45.66 21.536 13.03 10.252 26.46 20.863 44.77 23.505 4.08.586 8.2.885 12.32.895 24.49 0 45.66-10.79 66.17-21.222a244.402 244.402 0 0139.49-17.237c26.5-8.059 50.64-9.715 80.95-9.715h33.22a270.363 270.363 0 0174.81 9.76 568.158 568.158 0 0186.1 33.265v-2.507a571.522 571.522 0 00-85.52-33.086 271.72 271.72 0 00-75.44-9.85z" fill="#fff" fill-opacity=".03"/><path d="M1499.82-296.704c-37.65 0-77.72 6.85-120.17 14.103-47.77 8.149-97.2 16.566-149.8 16.566h-11.2a274.953 274.953 0 01-47.41-6.089 168.577 168.577 0 00-31.83-4.477c-23.24 0-40.3 12.267-59.01 42.264a284.953 284.953 0 00-21.94 48.533c-11.24 29.594-22.83 60.173-48.53 78.306-8.96 6.268-25.745 11.103-43.654 16.207-31.34 8.955-66.8 19.073-71.635 40.295-5.999 26.46 48.398 62.68 77.634 82.201 5.463 3.627 10.164 6.76 13.432 8.954 34.253 25.162 62.683 41.907 89.543 41.907 3.65.004 7.29-.311 10.88-.94 21.54-3.896 41.06-19.073 61.47-47.862a453.802 453.802 0 01242.89-174.117 316.061 316.061 0 0186.72-12.581c77.23 0 134.32 31.34 183.57 65.949v-1.657c-49.25-34.653-106.34-65.635-183.57-65.635-29.51.22-58.85 4.56-87.17 12.894a454.878 454.878 0 00-243.65 174.61c-20.19 28.475-39.44 43.474-60.57 47.28-3.52.627-7.09.942-10.66.94-26.59 0-54.75-16.656-88.826-41.638-3.09-2.284-7.791-5.418-13.432-8.955-28.967-19.296-82.917-55.203-77.097-80.813 4.477-20.371 39.713-30.355 70.65-39.175 17.909-5.149 35.055-10.03 44.055-16.387 26.01-18.356 37.7-49.249 49.03-78.977a286.557 286.557 0 0121.8-48.264c18.4-29.55 35.19-41.638 57.89-41.638 10.64.501 21.21 2 31.56 4.477a273.229 273.229 0 0047.69 6.134h11.19c52.74 0 102.21-8.417 150.07-16.61 42.36-7.209 82.34-14.059 119.9-14.059a225.87 225.87 0 0162.68 8.059 578.699 578.699 0 0198.5 40.295v-1.522a572.28 572.28 0 00-97.96-39.847 226.5 226.5 0 00-63.04-8.731zm100.25 1285.893a51.207 51.207 0 0026.32 5.686 120.916 120.916 0 0034.39-5.462V986.1a116.873 116.873 0 01-34.39 5.641 48.683 48.683 0 01-24.62-5.194c-26.28-16.789-37.92-46.473-50.24-77.858-10.61-27.087-21.58-55.114-42.93-74.858v-.94h-.94c-24.49-21.625-57.53-32.147-100.96-32.147-42.36 0-86.91 10.164-122.68 18.357-24.49 5.552-45.58 10.387-59.19 10.387-7.97 0-12.85-1.657-14.86-5.014-2.64-4.478-.63-12.94 6-25.073 30.94-56.457 93.39-191.131 89.09-246.872-3.4-43.965-24.53-89.543-44.99-133.33-29.64-63.531-60.22-129.391-38.06-192.071 25.43-71.635 137.41-199.817 217.1-210.696a111.8 111.8 0 0114.91-.94c51.8 0 127.64 30.892 206.67 75.62v-3.359c-79.07-44.772-154.82-75.395-206.67-75.395a111.16 111.16 0 00-15.36.984c-80.59 11.014-193.95 140.36-219.6 212.711-22.7 64.024 8.19 130.376 38.05 194.579 20.33 43.652 41.33 88.827 44.78 132.211 3.85 49.697-50.64 175.685-88.7 245.17-7.43 13.432-9.31 22.386-5.95 28.162 2.64 4.477 8.37 6.537 17.55 6.537 13.97 0 35.23-4.836 59.86-10.477 35.82-8.149 80.01-18.267 122-18.267 42.89 0 75.4 10.387 99.35 31.788 21.13 19.297 32.06 47.145 42.62 74.142 12.49 31.833 24.31 61.964 51.45 79.291zM383.347 363.592c3.85 0 6.895-5.462 9.939-17.64 11.238-45.712 48.354-106.199 105.975-138.39 58.204-32.549 97.245-41.011 118.108-45.532 10.387-2.239 15.581-3.403 16.835-6.134a4.084 4.084 0 00-.448-3.716c-4.03-7.343-76.112-47.772-180.251-56.189l-4.478-.358c-9.357-.761-17.461-1.433-25.206-1.433-27.087 0-48.981 7.611-100.02 50.727-8.059 6.805-16.297 13.118-24.267 19.207-24.669 18.938-45.98 35.28-44.772 53.726 1.075 14.237 15.133 28.385 44.369 44.458 32.325 17.909 52.025 53.189 65.054 76.56 8.551 14.909 14.013 24.714 19.162 24.714zm-83.32-102.348c-28.386-15.67-42.668-29.863-43.653-43.384-1.343-17.909 19.7-33.982 44.056-52.652 8.014-6.133 16.252-12.446 24.356-19.296 50.681-42.802 72.351-50.369 99.124-50.369 7.701 0 15.76.672 25.117 1.433l4.478.358c101.542 8.193 175.326 48.488 179.087 55.472.806 1.433.627 2.15.447 2.553-.984 2.104-6.581 3.313-15.894 5.372-20.953 4.477-59.994 13.029-118.466 45.667-58.472 32.639-95.364 93.26-106.691 139.196-2.731 11.238-5.552 16.655-8.596 16.655-4.477 0-10.253-10.566-17.909-23.908-12.939-23.55-32.773-59.099-65.456-77.097z" fill="#fff" fill-opacity=".03"/><path d="M391.809 440.464c3.895 0 6.582-4.477 8.462-14.685 11.641-61.651 36.802-148.956 120.884-195.518a385.033 385.033 0 0189.812-34.878 79.371 79.371 0 0021.535-11.685c9.268-6.223 18.894-12.715 27.759-12.715 1.006 0 2.01.09 3 .268a28.532 28.532 0 0112.536 6.627 21.316 21.316 0 0013.118 6.089 17.01 17.01 0 006.178-1.299 16.743 16.743 0 007.656-7.253 12.138 12.138 0 0112.76-7.074c7.567.627 11.641 6.403 15.939 12.492a35.567 35.567 0 0010.566 11.148 32.569 32.569 0 0014.193 3.716 8.956 8.956 0 007.566-2.821 8.422 8.422 0 00.672-7.522c-2.91-10.566-25.565-20.415-40.519-26.863-4.477-1.925-8.282-3.581-10.7-4.88-22.386-11.819-44.772-21.848-63.397-30.086-79.336-34.699-151.642-55.876-221.083-64.74a166.599 166.599 0 00-20.73-1.478c-34.205 0-60.71 14.954-113.451 64.024-12.939 12.043-26.281 22.386-39.131 32.37-28.878 22.386-51.667 40.071-51.129 62.322.447 17.596 15.715 36.31 47.995 58.92 52.025 36.399 86.589 91.693 109.422 128.271 14.104 22.386 23.327 37.25 30.087 37.25zM253.016 273.645c-31.967-22.386-47.01-40.698-47.458-57.801-.492-21.58 22.028-39.086 50.592-61.248 12.895-10.029 26.237-20.371 39.221-32.459 52.472-48.802 78.753-63.666 112.556-63.666 6.874.06 13.738.553 20.55 1.478 69.307 8.954 141.524 29.997 220.725 64.65 18.804 8.238 41.011 18.222 63.308 29.997 2.462 1.343 6.312 3 10.79 4.925 14.73 6.447 37.026 16.163 39.757 26.102a7.11 7.11 0 01.527 3.232 7.106 7.106 0 01-.975 3.126 8.23 8.23 0 01-6.492 2.283 31.066 31.066 0 01-13.431-3.582 33.665 33.665 0 01-10.119-10.7c-4.477-6.089-8.954-12.357-16.923-13.073a13.433 13.433 0 00-14.014 7.7 15.49 15.49 0 01-7.029 6.716 15.19 15.19 0 01-5.686 1.164 20.238 20.238 0 01-12.312-5.775 29.332 29.332 0 00-12.85-6.761 15.435 15.435 0 00-3.223-.313c-9.313 0-19.073 6.581-28.52 12.939a76.837 76.837 0 01-21.088 11.506 389.874 389.874 0 00-90.17 34.967c-84.708 46.876-110.049 134.584-121.735 196.459-1.701 9.178-4.029 13.431-7.118 13.431-6.045 0-15.67-15.446-29.013-36.802-22.878-36.489-57.666-91.917-109.87-128.495z" fill="#fff" fill-opacity=".03"/><path d="M557.196 1002.22a96.168 96.168 0 0073.515-53.728c12.805-26.55 19.745-71.635-20.013-135.345-17.058-27.356-35.817-55.025-53.726-81.754-51.487-76.425-100.11-148.642-120.212-221.083-22.699-81.932-4.477-149.538 57.397-212.711 53.726-54.711 124.376-86.096 194.265-86.096 52.518 0 99.394 18.491 131.943 52.025 35.817 36.892 53.726 90.797 51.711 155.985-.448 15.133-1.164 30.758-1.925 47.279-2.731 58.83-5.776 125.361 3.716 180.968 10.924 63.799 36.847 102.975 79.201 120.48a171.29 171.29 0 0063.982 14.059c17.28.189 34.35-3.833 49.74-11.719a106.531 106.531 0 0038.55-33.545c37.2-50.369 46.11-136.599 22.16-214.592-51.35-167.357-174.611-267.288-357.324-374.247C631.383 66.935 514.394 41.862 408.464 26.864a160.198 160.198 0 00-22.386-1.701c-44.19 0-65.277 22.385-91.916 51.04-10.253 10.968-20.819 22.385-33.938 33.847a268.024 268.024 0 01-39.936 28.52c-18.67 11.506-34.788 21.401-52.517 47.905-35.191 52.607 11.909 85.067 61.74 119.049 26.371 17.908 53.726 36.713 68.188 58.83 91.692 138.793 54.711 287.122-10.522 379.486-18.625 26.37-45.846 51.308-74.679 77.724-35.236 32.28-71.635 65.635-92.499 102.975-8.954 16.028-11.506 26.863-7.79 33.265 2.731 4.478 8.954 6.94 18.401 6.94 17.192 0 44.503-7.119 76.112-15.402 44.369-11.551 99.573-25.967 148.374-25.967a158.99 158.99 0 0165.859 12.267 240.49 240.49 0 0147.369 31.072c23.908 18.625 46.518 36.216 78.485 36.216 3.473-.03 6.942-.27 10.387-.71zm-135.569-67.697a158.145 158.145 0 00-66.397-12.357c-48.98 0-104.273 14.416-148.732 26.012-31.564 8.238-58.785 15.357-75.798 15.357-8.955 0-14.775-2.059-17.237-6.268-3.493-5.91-.941-16.342 7.79-31.922 20.729-37.071 57.084-70.381 92.275-102.572 28.877-26.461 56.143-51.443 74.858-77.948a354.145 354.145 0 0065.053-178.774c5.104-71.635-13.431-139.733-54.711-202.458-14.73-22.386-42.085-41.056-68.545-59.189-49.249-33.802-95.857-65.68-61.383-117.212 17.596-26.236 33.579-36.086 52.07-47.458a265.72 265.72 0 0040.295-28.699 460.448 460.448 0 0034.071-33.937c26.415-28.251 47.324-50.592 90.932-50.592 7.418.045 14.824.613 22.162 1.701C514.125 43.161 631.069 68.233 769.504 149.36 951.77 256.14 1075.03 355.892 1126.29 522.801c23.82 77.635 15 163.417-21.98 213.428a105.127 105.127 0 01-38.07 33.18A105.097 105.097 0 011017.09 781a169.367 169.367 0 01-63.395-13.834c-41.906-17.058-67.56-56.144-78.395-119.451-9.492-55.338-6.447-121.914-3.716-180.655.761-16.565 1.477-32.19 1.925-47.368 1.97-65.501-16.028-119.765-52.07-156.925-32.817-33.803-80.007-52.428-132.927-52.428-70.247 0-141.39 31.34-195.205 86.499-32.863 33.579-53.189 68.187-62.054 105.885-7.925 33.669-6.537 69.038 4.477 108.124 20.147 72.665 68.814 144.927 120.391 221.486 17.909 26.864 36.624 54.353 53.727 81.709 39.444 63.263 32.594 107.811 19.923 134.047a94.957 94.957 0 01-29.585 35.528 94.899 94.899 0 01-42.856 17.343c-3.36.37-6.737.57-10.118.59-31.34 0-53.726-17.465-77.679-35.821a240.767 240.767 0 00-47.906-31.206zM1499.82-265.362c-35.01 0-73.83 6.626-114.88 13.431-49.25 8.372-99.8 17.013-155.09 17.013h-11.91l-9.76-.268c-8.37 0-16.25-.448-23.87-.448-47.63 0-77.09 9.716-96.57 60.935-12.27 32.37-26.19 69.038-59.63 92.677-9.45 6.716-18.9 12.447-27.27 17.461-19.341 11.686-34.609 20.909-35.191 33.669-.492 11.73 11.328 25.833 38.461 45.712 25.97 19.072 47.37 28.34 65.37 28.34h4.83c26.15-2.417 43.7-24.042 65.9-51.398a508.24 508.24 0 0134.93-39.936 480.956 480.956 0 01206.62-122.63 345.694 345.694 0 0195.45-13.969c76.11 0 134.94 27.535 183.57 59.412v-1.612c-48.63-31.743-107.46-59.143-183.57-59.143a347.927 347.927 0 00-95.81 14.103 482.696 482.696 0 00-207.2 122.988 500.1 500.1 0 00-35.02 40.026c-22.02 27.132-39.39 48.533-65 50.906h-4.7c-17.69 0-38.82-8.955-64.61-28.072-26.864-19.61-38.37-33.355-37.877-44.772.537-11.999 15.58-21.088 34.567-32.55 8.37-5.059 17.91-10.79 27.35-17.505 33.76-23.908 47.73-60.8 60.09-93.349 19.16-50.145 48.3-59.681 95.31-59.681 7.62 0 15.5.224 23.82.448l9.76.268h11.96c55.38 0 106.2-8.686 155.31-17.058 41.01-6.984 79.74-13.431 114.66-13.431a196.93 196.93 0 0154.04 6.85c34.7 9.85 70.25 26.102 106.92 45.309v-1.522c-36.54-18.894-71.95-35.012-106.56-44.772a195.794 195.794 0 00-54.4-7.432z" fill="#fff" fill-opacity=".03"/><path d="M919.131 518.144c-5.193 67.918 8.238 122.898 37.788 154.776 15.446 16.7 34.429 25.878 53.461 25.878 27.13 0 48.84-18.849 55.29-47.995 18.85-85.067-10.34-161.895-38.15-211.234-32.635-57.935-74.452-98.946-94.554-112.377-7.388-4.88-12.536-7.925-15.715-7.925a3.546 3.546 0 00-2.731 1.164c-2.597 2.91-1.522 11.238.582 27.714a774.943 774.943 0 014.029 169.999zm-3.626-196.996a2.142 2.142 0 011.746-.717c2.82 0 8.014 3.09 14.954 7.701 45.443 30.311 166.145 168.432 132.125 322.357-6.32 28.565-27.49 46.966-53.73 46.966-18.625 0-37.295-8.955-52.473-25.431-29.325-31.609-42.577-86.23-37.429-153.791a772.84 772.84 0 00-4.074-170.133c-2.104-15.222-3.268-24.356-1.119-26.952z" fill="#fff" fill-opacity=".03"/><path d="M893.388 522.623c-5.194 84.574 11.013 151.328 45.533 188.041 17.908 19.028 39.578 29.057 62.679 29.057 44.33 0 81.84-35.817 93.44-89.23 17.06-78.709 2.37-156.209-43.61-230.306-46.61-75.083-111.077-123.66-145.372-145.912-17.461-11.327-24.938-16.028-27.803-12.625-2.866 3.402-.806 11.013 2.238 27.221 6.716 35.011 20.551 108.124 12.895 233.754zm-14.059-260.08c.201-.226.451-.403.73-.519.279-.117.58-.169.882-.153 3.627 0 11.462 5.104 24.445 13.432 114.254 74.187 223.864 211.592 188.354 374.83-11.42 52.741-48.44 88.155-92.09 88.155-22.793 0-44.149-9.894-61.744-28.609-34.296-36.444-50.324-102.975-45.175-187.056 7.656-125.675-6.179-198.922-12.85-234.068-2.82-14.864-4.611-23.818-2.552-26.146v.134zm-501.175-20.954c12.67 0 21.759-12.223 31.34-30.579 17.013-32.057 52.428-47.548 71.635-55.876 9.626-4.253 13.431-5.82 12.76-8.461-.672-2.642-2.866-3.179-16.028-4.075-39.668-2.686-128.675 35.146-138.793 63.621a14.644 14.644 0 005.104 17.327c15.267 12.625 25.475 17.909 34.161 17.909l-.179.134zm-36.31-34.295c9.357-26.013 92.095-61.696 131.763-61.696h3.985a63.16 63.16 0 0112.626 1.567 103.672 103.672 0 01-10.388 4.97c-19.43 8.462-55.517 24.266-72.978 57.308-11.013 20.774-19.072 28.878-28.698 28.878-7.88 0-17.506-5.194-32.191-17.327a11.502 11.502 0 01-4.119-13.7z" fill="#fff" fill-opacity=".03"/><path d="M417.105 239.977c30.49-55.562 86.23-74.948 131.36-85.649 4.478-1.03 4.746-3.223 4.478-4.477-1.03-8.954-43.295-26.371-106.378-26.371-7.119 0-14.417.224-21.67.672-28.788 1.746-96.752 41.951-121.197 71.635-6.358 7.701-9.223 14.148-8.552 19.073 1.702 12.357 12.716 17.908 25.431 24.177 13.431 6.715 28.788 14.326 36.22 32.101 4.477 10.297 10.029 15.536 16.879 15.536 11.82.089 26.371-15.626 43.429-46.697zm-58.203 30.355c-7.746-18.491-23.416-26.281-37.251-33.176-12.178-6.089-22.699-11.327-24.221-22.386-.582-4.253 2.194-10.297 8.059-17.416 24.132-29.415 91.2-69.172 119.63-70.874a346.402 346.402 0 0121.491-.671c62.008 0 103.333 17.147 104.184 24.4 0 1.164-1.747 1.791-2.911 2.06-45.577 10.79-101.855 30.4-132.793 86.723-25.833 46.697-44.951 58.024-56.144 31.34h-.044zM1297.41 761.3c3.18 4.477 11.01 6.581 26.1 6.581 9.4 0 20.68-.761 33.71-1.656 16.12-1.075 34.43-2.283 53.33-2.283 59.9 0 100.24 12.715 127.15 40.294 25.03 19.252 38.86 50.637 51.04 78.306 14.77 33.669 27.58 62.681 55.83 62.681 3.16-.012 6.31-.342 9.4-.985 2.3-.478 4.57-1.076 6.81-1.791v-2.328a76.673 76.673 0 01-7.26 1.925c-2.94.607-5.94.922-8.95.94-26.86 0-39.31-28.43-53.73-61.382-12.31-27.938-26.23-59.591-51.57-79.112-27.27-27.758-68.15-40.697-128.68-40.697-18.98 0-37.29 1.208-53.46 2.328-13.02.85-24.22 1.611-33.57 1.611-13.93 0-21.63-1.79-24.27-5.641a8.939 8.939 0 01-1.11-4.32c0-1.511.38-2.998 1.11-4.321 28.52-76.112 52.34-172.55 50.05-202.234-4.03-51.98-26.86-101.095-48.98-148.553-26.86-58.203-52.56-112.959-36.35-158.716 22.38-63.576 125.36-173.939 181.32-181.55 2.97-.378 5.97-.558 8.96-.537 43.43 0 119.94 31.072 206.67 82.514v-2.596c-86.64-51.22-163.11-82.157-206.67-82.157-3.09-.025-6.17.17-9.22.582-56.42 7.656-160.38 118.914-183.12 183.028-16.52 46.607 9.18 101.855 36.4 160.372 22.03 47.279 44.77 96.215 48.8 147.747 2.01 26.013-19.34 119.586-49.88 201.473a11.286 11.286 0 00-1.24 5.255c.03 1.827.5 3.62 1.38 5.222zm202.41-995.636c-32.37 0-69.93 6.402-109.69 13.207-50.32 8.597-102.39 17.461-160.28 17.461h-12.63l-9.89-.268c-8.11 0-15.81-.448-23.02-.448-62.68 0-65.81 34.474-69.12 71.008-1.79 20.013-3.63 40.698-14.69 58.204-3.94 6.312-14.5 14.237-25.7 22.654-23.86 17.909-50.9 38.235-37.92 57.263 2 3.587 4.89 6.602 8.38 8.757 3.5 2.155 7.49 3.38 11.59 3.556 4.71-.16 9.31-1.434 13.43-3.717 21.18-10.924 43.79-43.204 61.97-69.172 10.34-14.775 19.25-27.49 24.13-30.4a29.889 29.889 0 0115.71-3.448h11.6c4.03.329 8.08-.147 11.92-1.4a30.415 30.415 0 0010.46-5.897c8.47-7.701 9.54-17.909 10.57-27.356.94-8.954 1.79-16.924 7.57-23.819 17.46-20.863 78.71-35.459 119.22-45.085 11.96-2.865 22.39-5.283 29.91-7.521a377.743 377.743 0 01103.87-14.999c74.86 0 134.72 24.535 183.57 53.726v-2.641c-48.89-29.192-108.75-53.726-183.57-53.726a380.517 380.517 0 00-104.58 15.714c-7.62 2.194-17.91 4.478-29.78 7.477-43.25 10.298-102.48 24.401-120.43 45.847-6.23 7.432-7.17 16.341-8.11 24.982-1.03 9.671-1.97 18.849-9.85 25.968a28.33 28.33 0 01-20.68 6.716h-11.6c-5.86-.319-11.7.982-16.88 3.76-5.28 3.18-13.88 15.447-24.8 31.027-17.06 24.401-40.3 57.846-61.11 68.501-12.63 6.492-22.61 3.94-30.67-7.88-11.78-17.281 14.37-36.891 37.43-54.218 11.86-8.955 22.11-16.61 26.28-23.237 11.28-17.909 13.16-39.041 15-59.322 3.35-36.982 6.22-68.949 66.88-68.949 7.21 0 14.87 0 22.97.448l9.85.268h12.72c58.2 0 110.23-8.954 160.68-17.505 39.63-6.761 77.1-13.163 109.29-13.163 15.29-.229 30.54 1.67 45.31 5.641 36.58 10.208 75.35 28.878 115.65 50.503v-2.687c-40.3-21.266-78.58-39.668-115.02-50.099a166.12 166.12 0 00-45.94-5.731z" fill="#fff" fill-opacity=".03"/><path d="M1365.01 702.963c8.33 11.999 25.93 13.432 50.28 15.178l8.15.671c7.7.627 15.76.896 24.27 1.164 39.58 1.388 84.44 2.911 124.96 39.803l.49.447c22.38 19.655 35.82 54.309 47.64 85.067 11.81 30.758 22.11 57.397 38.45 57.397h1.53v-1.388c-.51.044-1.02.044-1.53 0-15.4 0-25.52-26.191-37.2-56.546-11.69-30.356-25.3-65.502-48-85.425l-.49-.403c-40.88-37.25-86.01-38.772-125.81-40.295-8.5-.268-16.56-.537-24.22-1.164l-8.15-.627c-24-1.88-41.28-3.178-49.25-14.64-7.97-11.462-6.49-31.34 3.45-65.814a250.729 250.729 0 0010.43-89.544c-4.47-57.532-28.52-109.243-51.8-159.253-24.26-52.16-47.19-101.453-35.19-135.301 19.97-56.368 116.41-155.85 156.34-161.178a33.25 33.25 0 014.75-.269c33.35 0 108.8 27.759 206.67 87.663v-1.567c-97.79-59.77-173.23-87.44-206.67-87.44-1.65-.023-3.29.067-4.93.27-40.29 5.506-137.36 105.527-157.46 162.163-12.18 34.34 10.88 83.902 35.33 136.375 23.19 49.697 47.19 101.229 51.66 158.537a249.186 249.186 0 01-10.38 89.185c-10.21 35.549-11.2 55.607-3.32 66.934zM548.645 1107.83c66.665-7.56 146.045-86.76 167.312-147.295 36.982-105.124-28.699-189.743-92.23-271.541C562.39 609.972 504.5 535.382 532.661 444.54c24.535-79.112 103.781-121.824 165.88-121.824 33.489 0 62.412 11.864 81.529 33.444 22.7 25.61 31.609 64.516 25.789 112.512-20.013 164.894-25.968 345.28 157.865 398.469a222.008 222.008 0 0061.916 9.178c77.37 0 126.8-44.369 154.6-81.529 53.32-71.322 71.86-178.013 46.07-265.497-21.85-74.142-64.87-146.046-131.45-219.83-99.034-109.691-233.842-204.025-412.213-288.33l-7.701-3.672C599.909-17.998 522.319-54.71 440.61-74.948c-4.835-1.208-10.208-2.641-15.938-4.163-25.252-6.671-56.637-15.044-83.589-15.044a83.008 83.008 0 00-27.759 4.12c-11.641 4.163-18.177 12.132-24.535 19.833a66.396 66.396 0 01-16.61 15.939 175.776 175.776 0 01-22.699 9.805c-15.089 5.82-30.714 11.865-35.818 17.64-9.536 11.193-6.94 17.909-4.477 24.446a20.237 20.237 0 011.298 15.67l-1.746 5.193c-13.431 39.892-13.431 39.892-44.772 48.936-6.044 1.746-13.431 3.895-22.386 6.76-25.743 8.194-36.309 20.82-46.518 33.042a89.542 89.542 0 01-29.28 25.43h-1.254c-16.118 0-138.345 8.059-147.747 38.101-2.552 8.104 2.955 16.924 16.342 26.147a62.677 62.677 0 0037.519 12.939c3.94 0 7.477-.358 10.924-.672a80.818 80.818 0 018.372-.582c9.85 0 19.79 2.821 33.445 36.4 3.358 8.283 5.954 15.088 8.103 20.684 10.567 27.669 10.88 28.028 37.743 39.489 6.671 2.866 14.954 6.403 25.475 11.238 34.564 15.939 41.638 34.071 50.593 56.994a205.951 205.951 0 0020.281 41.235 297.49 297.49 0 0035.818 42.668c21.893 22.789 42.578 44.324 49.249 80.276 11.416 62.277-22.386 121.734-60.621 176.714-18.536 26.639-56.637 57.711-96.976 90.573C24.814 860.604-52.82 923.822-53.088 982.428c0 33.442 8.417 59.102 25.52 76.112 18.625 18.72 46.92 27.85 86.543 27.85 57.398 0 128.003-19.39 190.281-36.49 49.249-13.43 91.334-25.03 118.421-25.03 5.196-.13 10.384.48 15.402 1.84 26.102 7.74 46.831 24.31 66.844 40.29 26.55 21.27 51.667 41.33 87.529 41.33 3.737.05 7.475-.11 11.193-.5zm-164.671-83.76a56.386 56.386 0 00-16.297-1.97c-27.49 0-70.023 11.64-119.272 25.16-62.099 17.01-132.435 36.31-189.43 36.35-38.727 0-66.307-8.95-84.35-26.86-16.476-16.57-24.758-41.46-24.58-74.053.448-57.129 77.277-120.123 145.24-175.461 40.295-32.996 78.754-64.158 97.513-91.2 38.638-55.562 72.755-115.69 61.159-179.087-6.761-36.847-27.759-58.696-49.966-81.843a298.633 298.633 0 01-35.817-42.22 205.228 205.228 0 01-19.968-40.697c-9.223-23.55-16.476-42.175-52.204-58.651-10.566-4.881-18.85-8.418-25.52-11.283-25.878-11.059-25.878-11.059-36.086-37.743a1107.88 1107.88 0 00-8.104-20.729C13.263 211.726 3.1 205.414-10.063 205.414a85.49 85.49 0 00-8.685.582c-3.358.313-6.85.671-10.611.671a59.543 59.543 0 01-35.818-12.357c-12.088-8.417-17.192-16.028-15.133-22.654 8.194-26.102 122.093-35.818 144.748-35.818h1.119l.358-1.433.672 1.344a92.057 92.057 0 0030.758-26.461c10.387-12.446 20.192-24.132 45.085-32.101 8.954-2.82 16.387-4.97 22.386-6.716 32.549-9.402 32.952-9.894 46.921-50.95l1.791-5.194A23.235 23.235 0 00212.14-3.58c-2.373-6.179-4.477-11.507 3.85-21.267 4.477-5.193 20.371-11.372 34.43-16.79a180.208 180.208 0 0023.236-10.028 70.059 70.059 0 0017.551-16.7c6.358-7.746 12.357-14.999 23.147-18.894a80.586 80.586 0 0126.863-3.94c26.55 0 57.711 8.283 82.783 14.954 5.731 1.522 11.104 2.955 15.984 4.164 81.395 20.147 158.85 56.77 233.753 92.23l7.701 3.626c177.968 84.171 312.507 178.237 411.232 287.57 66.26 73.47 109.06 144.971 130.78 218.665 25.52 86.589 7.16 192.116-45.58 262.721-27.4 36.624-76.11 80.276-152.23 80.276a219.383 219.383 0 01-61.065-8.954c-181.326-52.428-175.461-231.381-155.627-395.156 5.955-48.891-3.223-88.649-26.55-114.93-19.699-22.385-49.472-34.519-83.857-34.519-63.218 0-143.897 43.474-168.879 124.063-28.654 92.364 32.459 171.118 91.603 247.23 62.994 81.171 128.137 165.118 91.737 268.631-20.998 59.729-99.125 137.809-164.715 145.289-3.598.4-7.215.61-10.835.62-34.788 0-59.457-19.74-85.559-40.65-20.282-16.12-41.235-32.86-67.919-40.56z" fill="#fff" fill-opacity=".03"/><path d="M957.859-181.191c-15.178 10.745-35.818 15.939-63.531 15.939-32.415 0-68.636-7.253-100.603-13.432-18.804-3.761-36.623-7.342-51.129-8.954a486.398 486.398 0 00-49.786-2.552c-43.608 0-99.573 5.91-118.332 34.071-8.194 12.268-8.507 27.624-1.03 45.757 3.537 8.462 12.67 13.118 21.49 17.55a51.215 51.215 0 0118.178 12.492 85.04 85.04 0 0110.252 24.266c3.627 11.686 7.343 23.73 15.805 30.848a53.726 53.726 0 0036.31 12.939 156.423 156.423 0 0029.773-3.94 153.217 153.217 0 0129.326-3.895 51.979 51.979 0 0124.624 5.641c17.909 8.955 25.296 21.49 32.549 33.445 9.447 15.58 18.357 30.265 47.727 37.16 61.517 14.372 78.351 29.416 119.048 65.725 5.239 4.478 10.88 9.716 17.058 15.133a249.659 249.659 0 0135.822 41.728 283.91 283.91 0 0031.34 37.742 138.9 138.9 0 0043.6 27.58c18.54 8.462 36.05 16.431 51.94 43.697l2.51 4.477c20.01 34.564 40.29 66.576 52.65 66.576a6.569 6.569 0 005.1-2.328c4.48-4.88 5.69-17.909 3.72-39.847-1.17-12.805-10.43-24.311-19.43-35.415-9.67-11.954-18.81-23.236-18.27-35.817.67-14.999 9.72-22.386 19.3-30.132a60.31 60.31 0 0018.53-20.774c10.21-21.983 12.67-41.637 15.09-60.666 3.31-26.504 6.45-51.487 30.13-79.783A343.856 343.856 0 011415.2-53.68c20.12-6.05 41-9.215 62.01-9.403 67.16 0 115.15 36.489 166.11 75.082l17.46 13.163v-3.984c-5.24-3.896-10.44-7.836-15.58-11.73-51.36-38.952-99.89-75.71-167.99-75.71a225.42 225.42 0 00-62.68 9.447 346.607 346.607 0 00-169.06 108.706c-24.31 28.967-27.49 54.443-30.89 81.395-2.37 18.804-4.79 38.235-14.77 59.726a57.582 57.582 0 01-17.69 19.655c-9.67 7.924-19.74 16.073-20.46 32.459-.58 13.656 9.36 25.968 18.98 37.832 8.69 10.746 17.64 21.849 18.72 33.758 2.33 25.744-.27 34.564-2.87 37.43a3.717 3.717 0 01-2.82 1.298c-12.36 0-38.68-45.533-49.96-65.009l-2.47-4.477c-16.38-28.161-34.38-36.31-53.36-44.996a137.399 137.399 0 01-42.76-26.863 285.636 285.636 0 01-31.07-37.339 252.384 252.384 0 00-36.357-42.265c-6.179-5.373-11.82-10.432-17.058-15.088-41.146-36.713-58.204-51.89-120.437-66.441-28.116-6.582-36.668-20.775-45.756-35.818-7.477-12.312-15.178-25.072-33.803-34.653a55.74 55.74 0 00-26.057-5.955 158.321 158.321 0 00-29.953 3.94 151.863 151.863 0 01-29.146 3.895 50.545 50.545 0 01-34.295-12.223c-7.746-6.536-11.372-17.908-14.82-29.325a85.981 85.981 0 00-10.745-25.207 52.287 52.287 0 00-19.297-13.431c-8.954-4.477-16.923-8.552-20.013-15.984-7.074-17.103-6.85-31.34.717-42.802 17.908-26.863 72.888-32.683 115.735-32.683a483.335 483.335 0 0149.249 2.507c14.416 1.567 32.146 5.104 50.905 8.955 32.102 6.402 68.457 13.7 101.185 13.7 28.206 0 49.607-5.373 65.322-16.521 39.175-27.669 27.937-69.441 17.103-109.87-11.641-43.16-23.64-87.798 24.621-116.899a44.284 44.284 0 0122.97-5.283c28.88 0 69.53 15.804 108.84 31.071 34.25 13.432 66.58 25.834 87.62 26.326h8.95c45.22 0 90.94-7.79 135.13-15.357 44.19-7.566 89.76-15.312 134.85-15.312a313.435 313.435 0 0186.99 11.462 573.742 573.742 0 0174.28 27.445v-3.447a577.061 577.061 0 00-73.12-26.863 316.162 316.162 0 00-87.84-11.596c-45.35 0-91.11 7.835-135.34 15.356-44.24 7.522-89.55 15.312-134.63 15.312h-8.96c-20.5-.492-52.6-12.939-86.54-26.146-39.62-15.357-80.59-31.341-110.01-31.341a46.545 46.545 0 00-24.575 5.731c-50.279 30.355-37.966 76.112-26.057 120.392 11.014 41.145 21.446 80.052-15.849 106.467z" fill="#fff" fill-opacity=".03"/></svg>