<svg width="12" height="13" fill="none" xmlns="http://www.w3.org/2000/svg"><path fill-rule="evenodd" clip-rule="evenodd" d="M3.756.751c.14 0 .255.114.255.255v1.696a.254.254 0 01-.51 0V1.006c0-.14.115-.255.255-.255zm4.524 0c.14 0 .254.114.254.255v1.696a.254.254 0 01-.509 0V1.006c0-.14.114-.255.255-.255z" fill="#fff"/><path fill-rule="evenodd" clip-rule="evenodd" d="M1.787 2.805c-.402.432-.604 1.067-.604 1.877v4.806c0 .81.202 1.445.604 1.877.398.429 1.028.696 1.969.696H8.28c.94 0 1.571-.267 1.97-.696.4-.432.603-1.068.603-1.877V4.682c0-.81-.203-1.445-.604-1.877-.398-.429-1.028-.696-1.97-.696H3.757c-.941 0-1.571.267-1.97.696zm-.373-.346c.52-.561 1.304-.86 2.342-.86H8.28c1.038 0 1.821.299 2.342.86.518.557.74 1.335.74 2.223v4.806c0 .888-.222 1.666-.74 2.223-.52.561-1.304.86-2.342.86H3.756c-1.038 0-1.822-.299-2.342-.86-.518-.557-.74-1.335-.74-2.223V4.682c0-.888.222-1.666.74-2.223z" fill="#fff"/><path fill-rule="evenodd" clip-rule="evenodd" d="M3.502 6.096c0-.141.114-.255.254-.255H8.28a.254.254 0 110 .509H3.756a.254.254 0 01-.254-.254zm0 2.826c0-.14.114-.254.254-.254h2.262a.254.254 0 010 .509H3.756a.254.254 0 01-.254-.255z" fill="#fff"/></svg>