<svg width="392" height="424" viewBox="0 0 392 424" fill="none" xmlns="http://www.w3.org/2000/svg">
<g filter="url(#filter0_d_0_4804)">
<path d="M50.0002 66.0883C50.0002 57.7329 56.7736 50.9595 65.129 50.9595H326.857C335.213 50.9595 341.986 57.7329 341.986 66.0883V358.831C341.986 367.186 335.213 373.959 326.857 373.959H65.129C56.7736 373.959 50.0002 367.186 50.0002 358.831V66.0883Z" fill="white"/>
</g>
<path fill-rule="evenodd" clip-rule="evenodd" d="M326.857 51.7159H65.129C57.1913 51.7159 50.7566 58.1506 50.7566 66.0883V358.831C50.7566 366.768 57.1914 373.203 65.129 373.203H326.857C334.795 373.203 341.23 366.768 341.23 358.831V66.0883C341.23 58.1506 334.795 51.7159 326.857 51.7159ZM65.129 50.9595C56.7736 50.9595 50.0002 57.7329 50.0002 66.0883V358.831C50.0002 367.186 56.7736 373.959 65.129 373.959H326.857C335.213 373.959 341.986 367.186 341.986 358.831V66.0883C341.986 57.7329 335.213 50.9595 326.857 50.9595H65.129Z" fill="#E9EDF7"/>
<path d="M83.7602 88.7814H81.264L80.565 86.6846H75.922L75.223 88.7814H72.7434L76.8206 77.1322H79.6664L83.7602 88.7814ZM78.2518 79.7783L76.6542 84.5378H79.8494L78.2518 79.7783Z" fill="#122428"/>
<path d="M89.4179 80.2276C90.3387 80.2276 91.0876 80.5327 91.6645 81.1429C92.2636 81.7642 92.5631 82.6074 92.5631 83.6724V88.7814H90.4164V83.9387C90.4164 83.3951 90.2666 82.9735 89.967 82.6739C89.6786 82.3744 89.2792 82.2246 88.7688 82.2246C88.203 82.2246 87.7537 82.4021 87.4209 82.7571C87.0991 83.1011 86.9383 83.6114 86.9383 84.2882V88.7814H84.7915V80.4606H86.9383V81.3925C87.4486 80.6159 88.2751 80.2276 89.4179 80.2276Z" fill="#122428"/>
<path d="M100.72 81.4424V80.4606H102.867V88.7814H100.72V87.7996C100.077 88.6095 99.1724 89.0144 98.0074 89.0144C96.898 89.0144 95.9439 88.5928 95.1451 87.7496C94.3574 86.8954 93.9635 85.8525 93.9635 84.621C93.9635 83.4006 94.3574 82.3633 95.1451 81.509C95.9439 80.6547 96.898 80.2276 98.0074 80.2276C99.1724 80.2276 100.077 80.6325 100.72 81.4424ZM96.7593 86.3185C97.192 86.7511 97.7412 86.9675 98.4068 86.9675C99.0725 86.9675 99.6217 86.7511 100.054 86.3185C100.498 85.8747 100.72 85.3089 100.72 84.621C100.72 83.9331 100.498 83.3729 100.054 82.9402C99.6217 82.4964 99.0725 82.2745 98.4068 82.2745C97.7412 82.2745 97.192 82.4964 96.7593 82.9402C96.3266 83.3729 96.1103 83.9331 96.1103 84.621C96.1103 85.3089 96.3266 85.8747 96.7593 86.3185Z" fill="#122428"/>
<path d="M106.96 88.7814H104.814V76.633H106.96V88.7814Z" fill="#122428"/>
<path d="M112.503 86.0522L114.35 80.4606H116.647L113.618 88.7814C113.185 89.9796 112.609 90.845 111.887 91.3775C111.177 91.9212 110.29 92.1652 109.225 92.1098V90.1128C109.791 90.1239 110.245 90.0018 110.589 89.7466C110.933 89.4915 111.205 89.081 111.405 88.5152L107.993 80.4606H110.34L112.503 86.0522Z" fill="#122428"/>
<path d="M122.428 80.4606V82.5242H120.548V85.9856C120.548 86.2741 120.62 86.4849 120.764 86.618C120.908 86.7511 121.119 86.8288 121.396 86.851C121.674 86.8621 122.018 86.8565 122.428 86.8343V88.7814C120.975 88.9478 119.937 88.8147 119.316 88.382C118.706 87.9382 118.401 87.1394 118.401 85.9856V82.5242H116.953V80.4606H118.401V78.7798L120.548 78.1307V80.4606H122.428Z" fill="#122428"/>
<path d="M125.007 79.4621C124.652 79.4621 124.341 79.3345 124.075 79.0793C123.82 78.8131 123.692 78.5024 123.692 78.1474C123.692 77.7924 123.82 77.4817 124.075 77.2155C124.341 76.9492 124.652 76.8161 125.007 76.8161C125.373 76.8161 125.684 76.9492 125.939 77.2155C126.205 77.4817 126.338 77.7924 126.338 78.1474C126.338 78.5024 126.205 78.8131 125.939 79.0793C125.684 79.3345 125.373 79.4621 125.007 79.4621ZM126.088 88.7814H123.942V80.4606H126.088V88.7814Z" fill="#122428"/>
<path d="M132.014 89.0144C130.76 89.0144 129.712 88.5928 128.869 87.7496C128.037 86.9065 127.621 85.8636 127.621 84.621C127.621 83.3784 128.037 82.3355 128.869 81.4924C129.712 80.6492 130.76 80.2276 132.014 80.2276C132.824 80.2276 133.562 80.4218 134.227 80.8101C134.893 81.1984 135.398 81.7198 135.742 82.3744L133.895 83.4561C133.728 83.1122 133.473 82.8403 133.129 82.6406C132.796 82.4409 132.419 82.3411 131.997 82.3411C131.354 82.3411 130.821 82.5574 130.4 82.9901C129.978 83.4117 129.767 83.9553 129.767 84.621C129.767 85.2645 129.978 85.8081 130.4 86.2519C130.821 86.6735 131.354 86.8843 131.997 86.8843C132.43 86.8843 132.813 86.79 133.146 86.6014C133.49 86.4017 133.745 86.1299 133.911 85.7859L135.775 86.851C135.409 87.5167 134.888 88.0436 134.211 88.432C133.545 88.8203 132.813 89.0144 132.014 89.0144Z" fill="#122428"/>
<path d="M138.875 82.8237C138.875 83.1787 139.379 83.4838 140.389 83.739C140.744 83.8167 141.066 83.911 141.354 84.0219C141.643 84.1218 141.931 84.2715 142.22 84.4712C142.519 84.6598 142.752 84.915 142.919 85.2367C143.085 85.5585 143.168 85.9302 143.168 86.3517C143.168 87.206 142.846 87.8661 142.203 88.3321C141.559 88.787 140.766 89.0144 139.823 89.0144C138.115 89.0144 136.95 88.3543 136.328 87.034L138.192 85.9856C138.447 86.7068 138.991 87.0673 139.823 87.0673C140.589 87.0673 140.971 86.8288 140.971 86.3517C140.971 85.9967 140.467 85.6916 139.457 85.4364C139.08 85.3366 138.758 85.2367 138.492 85.1369C138.226 85.037 137.937 84.8928 137.626 84.7042C137.316 84.5045 137.077 84.2549 136.911 83.9553C136.756 83.6447 136.678 83.2841 136.678 82.8736C136.678 82.0526 136.977 81.4092 137.577 80.9432C138.187 80.4661 138.941 80.2276 139.84 80.2276C140.517 80.2276 141.132 80.3829 141.687 80.6936C142.242 80.9931 142.68 81.4258 143.002 81.9916L141.171 82.9901C140.905 82.4243 140.461 82.1414 139.84 82.1414C139.562 82.1414 139.329 82.208 139.141 82.3411C138.963 82.4631 138.875 82.624 138.875 82.8237Z" fill="#122428"/>
<path d="M139.381 341.432H138.183L137.493 339.532H133.681L132.991 341.432H131.793L134.951 332.96H136.222L139.381 341.432ZM135.581 334.304L134.068 338.479H137.106L135.581 334.304Z" fill="#122428"/>
<path d="M142.974 341.59C142.062 341.59 141.304 341.287 140.699 340.682C140.094 340.069 139.791 339.31 139.791 338.407C139.791 337.503 140.094 336.749 140.699 336.143C141.304 335.53 142.062 335.224 142.974 335.224C143.571 335.224 144.108 335.369 144.584 335.659C145.06 335.942 145.415 336.325 145.649 336.809L144.765 337.317C144.612 336.995 144.374 336.736 144.051 336.543C143.737 336.349 143.378 336.252 142.974 336.252C142.369 336.252 141.861 336.458 141.449 336.87C141.046 337.289 140.844 337.802 140.844 338.407C140.844 339.004 141.046 339.512 141.449 339.932C141.861 340.343 142.369 340.549 142.974 340.549C143.378 340.549 143.741 340.456 144.063 340.271C144.386 340.077 144.632 339.819 144.802 339.496L145.697 340.016C145.431 340.501 145.056 340.884 144.572 341.166C144.088 341.449 143.555 341.59 142.974 341.59Z" fill="#122428"/>
<path d="M150.029 335.381V336.398H148.419V339.678C148.419 339.976 148.476 340.19 148.589 340.319C148.71 340.44 148.891 340.505 149.133 340.513C149.375 340.513 149.674 340.505 150.029 340.488V341.432C149.101 341.553 148.423 341.477 147.996 341.202C147.576 340.928 147.366 340.42 147.366 339.678V336.398H146.168V335.381H147.366V334.001L148.419 333.687V335.381H150.029Z" fill="#122428"/>
<path d="M151.808 334.28C151.606 334.28 151.437 334.211 151.3 334.074C151.163 333.937 151.094 333.771 151.094 333.578C151.094 333.384 151.163 333.219 151.3 333.081C151.437 332.936 151.606 332.863 151.808 332.863C152.002 332.863 152.167 332.936 152.304 333.081C152.441 333.219 152.51 333.384 152.51 333.578C152.51 333.771 152.441 333.937 152.304 334.074C152.167 334.211 152.002 334.28 151.808 334.28ZM152.329 341.432H151.276V335.381H152.329V341.432Z" fill="#122428"/>
<path d="M156.271 340.307L158.171 335.381H159.309L156.888 341.432H155.654L153.233 335.381H154.371L156.271 340.307Z" fill="#122428"/>
<path d="M165.772 338.891H160.701C160.806 339.423 161.052 339.843 161.439 340.15C161.827 340.448 162.311 340.597 162.892 340.597C163.691 340.597 164.271 340.303 164.635 339.714L165.53 340.222C164.933 341.134 164.046 341.59 162.868 341.59C161.915 341.59 161.133 341.291 160.52 340.694C159.922 340.081 159.624 339.318 159.624 338.407C159.624 337.487 159.918 336.728 160.507 336.131C161.096 335.526 161.859 335.224 162.795 335.224C163.682 335.224 164.405 335.538 164.961 336.168C165.526 336.781 165.809 337.531 165.809 338.419C165.809 338.572 165.796 338.729 165.772 338.891ZM162.795 336.216C162.238 336.216 161.77 336.373 161.391 336.688C161.02 337.003 160.79 337.43 160.701 337.971H164.744C164.655 337.414 164.433 336.983 164.078 336.676C163.723 336.369 163.295 336.216 162.795 336.216Z" fill="#122428"/>
<path d="M112.785 337.272C112.785 334.139 115.325 331.599 118.458 331.599C121.591 331.599 124.131 334.139 124.131 337.272C124.131 340.405 121.591 342.945 118.458 342.945C115.325 342.945 112.785 340.405 112.785 337.272Z" fill="#F40C60"/>
<path d="M220.55 341.59C219.259 341.59 218.198 341.166 217.367 340.319C216.536 339.48 216.121 338.439 216.121 337.196C216.121 335.954 216.536 334.913 217.367 334.074C218.198 333.227 219.259 332.803 220.55 332.803C221.317 332.803 222.027 332.989 222.68 333.36C223.334 333.731 223.842 334.231 224.205 334.861L223.225 335.429C222.983 334.961 222.62 334.59 222.136 334.316C221.66 334.033 221.131 333.892 220.55 333.892C219.566 333.892 218.767 334.207 218.154 334.836C217.541 335.458 217.234 336.244 217.234 337.196C217.234 338.14 217.541 338.923 218.154 339.544C218.767 340.174 219.566 340.488 220.55 340.488C221.131 340.488 221.66 340.351 222.136 340.077C222.62 339.795 222.983 339.423 223.225 338.963L224.205 339.52C223.85 340.15 223.346 340.654 222.692 341.033C222.047 341.404 221.333 341.59 220.55 341.59Z" fill="#122428"/>
<path d="M230.455 340.67C229.842 341.283 229.087 341.59 228.192 341.59C227.296 341.59 226.542 341.283 225.929 340.67C225.315 340.057 225.009 339.302 225.009 338.407C225.009 337.511 225.315 336.757 225.929 336.143C226.542 335.53 227.296 335.224 228.192 335.224C229.087 335.224 229.842 335.53 230.455 336.143C231.076 336.765 231.387 337.519 231.387 338.407C231.387 339.294 231.076 340.049 230.455 340.67ZM228.192 340.561C228.797 340.561 229.305 340.355 229.717 339.944C230.128 339.532 230.334 339.02 230.334 338.407C230.334 337.793 230.128 337.281 229.717 336.87C229.305 336.458 228.797 336.252 228.192 336.252C227.595 336.252 227.09 336.458 226.679 336.87C226.267 337.281 226.062 337.793 226.062 338.407C226.062 339.02 226.267 339.532 226.679 339.944C227.09 340.355 227.595 340.561 228.192 340.561Z" fill="#122428"/>
<path d="M239.164 335.224C239.85 335.224 240.398 335.446 240.81 335.889C241.23 336.333 241.439 336.926 241.439 337.668V341.432H240.386V337.705C240.386 337.245 240.265 336.886 240.023 336.628C239.789 336.361 239.467 336.228 239.055 336.228C238.587 336.228 238.22 336.386 237.954 336.7C237.695 337.007 237.566 337.463 237.566 338.068V341.432H236.513V337.705C236.513 337.245 236.396 336.886 236.162 336.628C235.936 336.361 235.626 336.228 235.23 336.228C234.771 336.228 234.395 336.39 234.105 336.712C233.822 337.027 233.681 337.479 233.681 338.068V341.432H232.628V335.381H233.681V336.192C234.093 335.546 234.694 335.224 235.485 335.224C236.3 335.224 236.893 335.567 237.264 336.252C237.683 335.567 238.317 335.224 239.164 335.224Z" fill="#122428"/>
<path d="M246.24 335.224C247.087 335.224 247.809 335.534 248.406 336.156C249.003 336.777 249.302 337.527 249.302 338.407C249.302 339.294 249.003 340.049 248.406 340.67C247.817 341.283 247.095 341.59 246.24 341.59C245.239 341.59 244.477 341.19 243.952 340.392V343.853H242.899V335.381H243.952V336.422C244.477 335.623 245.239 335.224 246.24 335.224ZM246.107 340.573C246.712 340.573 247.22 340.367 247.632 339.956C248.043 339.528 248.249 339.012 248.249 338.407C248.249 337.793 248.043 337.281 247.632 336.87C247.22 336.45 246.712 336.24 246.107 336.24C245.493 336.24 244.981 336.45 244.57 336.87C244.158 337.281 243.952 337.793 243.952 338.407C243.952 339.012 244.158 339.528 244.57 339.956C244.981 340.367 245.493 340.573 246.107 340.573Z" fill="#122428"/>
<path d="M251.611 341.432H250.558V332.597H251.611V341.432Z" fill="#122428"/>
<path d="M259.027 338.891H253.956C254.061 339.423 254.307 339.843 254.694 340.15C255.082 340.448 255.566 340.597 256.147 340.597C256.945 340.597 257.526 340.303 257.889 339.714L258.785 340.222C258.188 341.134 257.3 341.59 256.122 341.59C255.17 341.59 254.388 341.291 253.774 340.694C253.177 340.081 252.879 339.318 252.879 338.407C252.879 337.487 253.173 336.728 253.762 336.131C254.351 335.526 255.114 335.224 256.05 335.224C256.937 335.224 257.659 335.538 258.216 336.168C258.781 336.781 259.063 337.531 259.063 338.419C259.063 338.572 259.051 338.729 259.027 338.891ZM256.05 336.216C255.493 336.216 255.025 336.373 254.646 336.688C254.275 337.003 254.045 337.43 253.956 337.971H257.998C257.91 337.414 257.688 336.983 257.333 336.676C256.978 336.369 256.55 336.216 256.05 336.216Z" fill="#122428"/>
<path d="M263.389 335.381V336.398H261.779V339.678C261.779 339.976 261.835 340.19 261.948 340.319C262.069 340.44 262.251 340.505 262.493 340.513C262.735 340.513 263.034 340.505 263.389 340.488V341.432C262.461 341.554 261.783 341.477 261.355 341.203C260.936 340.928 260.726 340.42 260.726 339.678V336.398H259.528V335.381H260.726V334.001L261.779 333.687V335.381H263.389Z" fill="#122428"/>
<path d="M270.137 338.891H265.066C265.171 339.423 265.417 339.843 265.804 340.15C266.192 340.448 266.676 340.597 267.257 340.597C268.056 340.597 268.637 340.303 269 339.714L269.895 340.222C269.298 341.134 268.411 341.59 267.233 341.59C266.281 341.59 265.498 341.291 264.885 340.694C264.288 340.081 263.989 339.318 263.989 338.407C263.989 337.487 264.284 336.728 264.873 336.131C265.462 335.526 266.224 335.224 267.16 335.224C268.048 335.224 268.77 335.538 269.326 336.168C269.891 336.781 270.174 337.531 270.174 338.419C270.174 338.572 270.162 338.729 270.137 338.891ZM267.16 336.216C266.603 336.216 266.135 336.373 265.756 336.688C265.385 337.003 265.155 337.43 265.066 337.971H269.109C269.02 337.414 268.798 336.983 268.443 336.676C268.088 336.369 267.66 336.216 267.16 336.216Z" fill="#122428"/>
<path d="M276.383 336.422V332.96H277.436V341.432H276.383V340.392C275.867 341.19 275.104 341.59 274.095 341.59C273.24 341.59 272.518 341.283 271.929 340.67C271.332 340.049 271.033 339.294 271.033 338.407C271.033 337.527 271.332 336.777 271.929 336.156C272.526 335.534 273.248 335.224 274.095 335.224C275.104 335.224 275.867 335.623 276.383 336.422ZM274.229 340.573C274.842 340.573 275.354 340.367 275.766 339.956C276.177 339.528 276.383 339.012 276.383 338.407C276.383 337.793 276.177 337.281 275.766 336.87C275.354 336.45 274.842 336.24 274.229 336.24C273.623 336.24 273.115 336.45 272.704 336.87C272.292 337.281 272.086 337.793 272.086 338.407C272.086 339.012 272.292 339.528 272.704 339.956C273.115 340.367 273.623 340.573 274.229 340.573Z" fill="#122428"/>
<path d="M196.75 337.272C196.75 334.139 199.29 331.599 202.423 331.599C205.556 331.599 208.096 334.139 208.096 337.272C208.096 340.405 205.556 342.945 202.423 342.945C199.29 342.945 196.75 340.405 196.75 337.272Z" fill="#208BEE"/>
<path opacity="0.4" fill-rule="evenodd" clip-rule="evenodd" d="M195.237 140.976C155.549 140.976 123.375 173.149 123.375 212.838C123.375 252.526 155.549 284.699 195.237 284.699C234.925 284.699 267.099 252.526 267.099 212.838C267.099 173.149 234.925 140.976 195.237 140.976ZM115.811 212.838C115.811 168.972 151.371 133.411 195.237 133.411C239.103 133.411 274.663 168.972 274.663 212.838C274.663 256.704 239.103 292.264 195.237 292.264C151.371 292.264 115.811 256.704 115.811 212.838Z" fill="#DEE0E6"/>
<path fill-rule="evenodd" clip-rule="evenodd" d="M188.513 128.384C204.097 127.143 219.72 130.238 233.654 137.327C247.587 144.416 259.288 155.222 267.46 168.549C275.632 181.876 279.958 197.205 279.958 212.838C279.958 217.851 275.894 221.915 270.881 221.915C265.867 221.915 261.803 217.851 261.803 212.838C261.803 200.555 258.405 188.511 251.984 178.04C245.563 167.568 236.369 159.078 225.422 153.508C214.474 147.938 202.198 145.506 189.954 146.481C177.71 147.456 165.974 151.799 156.045 159.031C146.116 166.263 138.382 176.101 133.699 187.456C129.015 198.812 127.565 211.241 129.508 223.37C131.452 235.498 136.713 246.853 144.71 256.176C152.707 265.499 163.128 272.428 174.819 276.196C179.591 277.734 182.212 282.848 180.675 287.62C179.137 292.391 174.022 295.013 169.251 293.475C154.371 288.68 141.108 279.862 130.93 267.996C120.752 256.129 114.056 241.679 111.583 226.242C109.109 210.806 110.955 194.986 116.916 180.534C122.876 166.082 132.72 153.561 145.356 144.357C157.993 135.153 172.929 129.624 188.513 128.384Z" fill="#208BEE"/>
<path fill-rule="evenodd" clip-rule="evenodd" d="M169.056 132.263C181.772 128.131 195.285 127.068 208.49 129.159C221.695 131.251 234.218 136.438 245.035 144.297C255.851 152.155 264.654 162.462 270.724 174.375C276.794 186.288 279.958 199.468 279.958 212.838C279.958 217.851 275.894 221.915 270.881 221.915C265.867 221.915 261.803 217.851 261.803 212.838C261.803 202.333 259.317 191.977 254.548 182.617C249.779 173.257 242.862 165.159 234.364 158.984C225.865 152.809 216.026 148.734 205.65 147.091C195.274 145.447 184.657 146.283 174.666 149.529C164.676 152.775 155.595 158.34 148.167 165.768C140.739 173.196 135.174 182.277 131.928 192.267C128.682 202.258 127.846 212.875 129.489 223.251C131.133 233.627 135.208 243.466 141.383 251.965C144.33 256.02 143.431 261.697 139.375 264.644C135.319 267.591 129.642 266.691 126.696 262.636C118.837 251.819 113.65 239.296 111.558 226.091C109.467 212.886 110.53 199.373 114.662 186.657C118.793 173.942 125.876 162.385 135.33 152.931C144.784 143.477 156.341 136.394 169.056 132.263Z" fill="#F40C60"/>
<path d="M176.25 202.853C178.696 204.315 179.919 206.446 179.919 209.245C179.919 211.691 179.061 213.619 177.347 215.031C175.657 216.443 173.35 217.149 170.425 217.149C167.475 217.149 165.155 216.443 163.466 215.031C161.777 213.619 160.932 211.691 160.932 209.245C160.932 206.471 162.142 204.34 164.563 202.853C162.722 201.542 161.802 199.714 161.802 197.369C161.802 194.923 162.621 193.019 164.26 191.657C165.924 190.296 167.979 189.615 170.425 189.615C172.896 189.615 174.939 190.296 176.552 191.657C178.191 193.019 179.011 194.923 179.011 197.369C179.011 199.714 178.09 201.542 176.25 202.853ZM173.829 197.633C173.829 196.675 173.514 195.919 172.884 195.364C172.253 194.809 171.434 194.532 170.425 194.532C169.417 194.532 168.597 194.809 167.967 195.364C167.336 195.919 167.021 196.675 167.021 197.633C167.021 198.617 167.336 199.386 167.967 199.94C168.597 200.495 169.417 200.773 170.425 200.773C171.434 200.773 172.253 200.495 172.884 199.94C173.514 199.386 173.829 198.617 173.829 197.633ZM173.564 211.249C174.346 210.594 174.737 209.699 174.737 208.564C174.737 207.429 174.346 206.547 173.564 205.916C172.783 205.261 171.736 204.933 170.425 204.933C169.114 204.933 168.068 205.261 167.286 205.916C166.504 206.547 166.114 207.429 166.114 208.564C166.114 209.699 166.504 210.594 167.286 211.249C168.068 211.905 169.114 212.233 170.425 212.233C171.736 212.233 172.783 211.905 173.564 211.249Z" fill="#122428"/>
<path d="M192.338 217.149C189.035 217.149 186.438 215.901 184.546 213.405C182.681 210.858 181.748 207.517 181.748 203.382C181.748 199.247 182.681 195.919 184.546 193.397C186.438 190.876 189.035 189.615 192.338 189.615C195.691 189.615 198.288 190.876 200.129 193.397C201.995 195.919 202.928 199.247 202.928 203.382C202.928 207.517 201.995 210.858 200.129 213.405C198.288 215.901 195.691 217.149 192.338 217.149ZM197.746 203.382C197.746 200.558 197.28 198.402 196.347 196.915C195.439 195.427 194.103 194.683 192.338 194.683C190.573 194.683 189.236 195.427 188.329 196.915C187.421 198.402 186.967 200.558 186.967 203.382C186.967 206.206 187.421 208.362 188.329 209.85C189.236 211.312 190.573 212.044 192.338 212.044C194.103 212.044 195.439 211.3 196.347 209.812C197.28 208.324 197.746 206.181 197.746 203.382Z" fill="#122428"/>
<path d="M215.385 200.319C214.149 201.504 212.636 202.096 210.846 202.096C209.031 202.096 207.505 201.491 206.27 200.281C205.059 199.071 204.454 197.595 204.454 195.856C204.454 194.116 205.059 192.641 206.27 191.431C207.53 190.22 209.056 189.615 210.846 189.615C212.661 189.615 214.174 190.22 215.385 191.431C216.595 192.59 217.2 194.065 217.2 195.856C217.2 197.621 216.595 199.108 215.385 200.319ZM209.409 213.935L207.139 212.611L224.386 193.435L226.693 194.721L209.409 213.935ZM209.106 197.595C209.56 198.049 210.127 198.276 210.808 198.276C211.489 198.276 212.056 198.049 212.51 197.595C212.964 197.116 213.191 196.536 213.191 195.856C213.191 195.175 212.964 194.608 212.51 194.154C212.056 193.7 211.489 193.473 210.808 193.473C210.127 193.473 209.56 193.7 209.106 194.154C208.678 194.608 208.463 195.175 208.463 195.856C208.463 196.536 208.678 197.116 209.106 197.595ZM229.984 210.833C229.984 212.573 229.379 214.048 228.168 215.258C226.958 216.469 225.445 217.074 223.63 217.074C221.814 217.074 220.302 216.469 219.091 215.258C217.881 214.048 217.276 212.573 217.276 210.833C217.276 209.093 217.881 207.618 219.091 206.408C220.302 205.198 221.814 204.593 223.63 204.593C225.445 204.593 226.958 205.198 228.168 206.408C229.379 207.618 229.984 209.093 229.984 210.833ZM225.294 212.573C225.748 212.094 225.975 211.514 225.975 210.833C225.975 210.152 225.748 209.585 225.294 209.131C224.865 208.652 224.311 208.413 223.63 208.413C222.949 208.413 222.382 208.652 221.928 209.131C221.499 209.585 221.285 210.152 221.285 210.833C221.285 211.514 221.499 212.094 221.928 212.573C222.382 213.027 222.949 213.254 223.63 213.254C224.311 213.254 224.865 213.027 225.294 212.573Z" fill="#122428"/>
<path d="M156.147 228.269H163.023V229.467H160.204V237.8H158.952V229.467H156.147V228.269Z" fill="#8F8E9E"/>
<path d="M164.407 230.992V232.136C164.798 231.292 165.506 230.87 166.531 230.87V232.109C165.95 232.082 165.451 232.236 165.034 232.572C164.616 232.908 164.407 233.448 164.407 234.192V237.8H163.223V230.992H164.407Z" fill="#8F8E9E"/>
<path d="M172.955 232.163V230.992H174.14V237.8H172.955V236.629C172.374 237.528 171.516 237.977 170.382 237.977C169.419 237.977 168.607 237.632 167.944 236.942C167.273 236.243 166.937 235.395 166.937 234.396C166.937 233.407 167.273 232.563 167.944 231.864C168.616 231.165 169.429 230.815 170.382 230.815C171.516 230.815 172.374 231.265 172.955 232.163ZM170.531 236.834C171.221 236.834 171.798 236.602 172.261 236.139C172.724 235.658 172.955 235.077 172.955 234.396C172.955 233.706 172.724 233.13 172.261 232.667C171.798 232.195 171.221 231.959 170.531 231.959C169.851 231.959 169.279 232.195 168.816 232.667C168.353 233.13 168.121 233.706 168.121 234.396C168.121 235.077 168.353 235.658 168.816 236.139C169.279 236.602 169.851 236.834 170.531 236.834Z" fill="#8F8E9E"/>
<path d="M179.325 230.815C180.124 230.815 180.764 231.069 181.245 231.578C181.726 232.077 181.966 232.758 181.966 233.62V237.8H180.782V233.688C180.782 233.144 180.632 232.717 180.332 232.408C180.033 232.1 179.62 231.945 179.093 231.945C178.485 231.945 178.004 232.136 177.65 232.517C177.296 232.889 177.119 233.448 177.119 234.192V237.8H175.934V230.992H177.119V231.973C177.591 231.201 178.326 230.815 179.325 230.815Z" fill="#8F8E9E"/>
<path d="M184.641 232.83C184.641 233.266 185.09 233.607 185.989 233.852C186.325 233.924 186.606 234.001 186.833 234.083C187.069 234.156 187.323 234.269 187.596 234.423C187.877 234.578 188.091 234.782 188.236 235.036C188.381 235.29 188.454 235.59 188.454 235.935C188.454 236.552 188.213 237.047 187.732 237.419C187.251 237.791 186.643 237.977 185.907 237.977C185.254 237.977 184.687 237.837 184.205 237.555C183.733 237.265 183.398 236.874 183.198 236.384L184.219 235.799C184.328 236.125 184.532 236.384 184.832 236.575C185.131 236.765 185.49 236.861 185.907 236.861C186.316 236.861 186.643 236.784 186.888 236.629C187.133 236.475 187.255 236.243 187.255 235.935C187.255 235.472 186.806 235.136 185.907 234.927C185.608 234.846 185.381 234.782 185.227 234.737C185.072 234.691 184.859 234.61 184.587 234.492C184.323 234.374 184.124 234.251 183.988 234.124C183.851 233.988 183.724 233.811 183.606 233.593C183.497 233.366 183.443 233.116 183.443 232.844C183.443 232.254 183.67 231.768 184.124 231.387C184.587 231.006 185.163 230.815 185.853 230.815C186.407 230.815 186.897 230.942 187.323 231.197C187.759 231.442 188.086 231.787 188.304 232.231L187.31 232.79C187.065 232.209 186.579 231.918 185.853 231.918C185.508 231.918 185.218 232 184.982 232.163C184.755 232.327 184.641 232.549 184.641 232.83Z" fill="#8F8E9E"/>
<path d="M195.307 232.163V230.992H196.492V237.8H195.307V236.629C194.726 237.528 193.868 237.977 192.734 237.977C191.771 237.977 190.959 237.632 190.296 236.942C189.625 236.243 189.289 235.395 189.289 234.396C189.289 233.407 189.625 232.563 190.296 231.864C190.968 231.165 191.78 230.815 192.734 230.815C193.868 230.815 194.726 231.265 195.307 232.163ZM192.883 236.834C193.573 236.834 194.15 236.602 194.613 236.139C195.076 235.658 195.307 235.077 195.307 234.396C195.307 233.706 195.076 233.13 194.613 232.667C194.15 232.195 193.573 231.959 192.883 231.959C192.203 231.959 191.631 232.195 191.168 232.667C190.705 233.13 190.473 233.706 190.473 234.396C190.473 235.077 190.705 235.658 191.168 236.139C191.631 236.602 192.203 236.834 192.883 236.834Z" fill="#8F8E9E"/>
<path d="M201.486 237.977C200.46 237.977 199.607 237.637 198.926 236.956C198.245 236.266 197.905 235.413 197.905 234.396C197.905 233.38 198.245 232.531 198.926 231.85C199.607 231.16 200.46 230.815 201.486 230.815C202.158 230.815 202.761 230.979 203.297 231.305C203.833 231.623 204.232 232.054 204.495 232.599L203.501 233.171C203.329 232.808 203.061 232.517 202.698 232.299C202.344 232.082 201.94 231.973 201.486 231.973C200.805 231.973 200.233 232.204 199.77 232.667C199.317 233.139 199.09 233.715 199.09 234.396C199.09 235.068 199.317 235.64 199.77 236.112C200.233 236.575 200.805 236.806 201.486 236.806C201.94 236.806 202.348 236.702 202.712 236.493C203.075 236.275 203.351 235.985 203.542 235.622L204.55 236.207C204.25 236.752 203.828 237.183 203.283 237.501C202.739 237.818 202.14 237.977 201.486 237.977Z" fill="#8F8E9E"/>
<path d="M209.423 230.992V232.136H207.612V235.826C207.612 236.162 207.675 236.402 207.802 236.548C207.939 236.684 208.143 236.756 208.415 236.765C208.688 236.765 209.023 236.756 209.423 236.738V237.8C208.379 237.936 207.616 237.85 207.135 237.542C206.663 237.233 206.427 236.661 206.427 235.826V232.136H205.079V230.992H206.427V229.44L207.612 229.086V230.992H209.423Z" fill="#8F8E9E"/>
<path d="M211.424 229.753C211.197 229.753 211.007 229.676 210.852 229.522C210.698 229.367 210.621 229.181 210.621 228.963C210.621 228.746 210.698 228.56 210.852 228.405C211.007 228.242 211.197 228.16 211.424 228.16C211.642 228.16 211.828 228.242 211.983 228.405C212.137 228.56 212.214 228.746 212.214 228.963C212.214 229.181 212.137 229.367 211.983 229.522C211.828 229.676 211.642 229.753 211.424 229.753ZM212.01 237.8H210.825V230.992H212.01V237.8Z" fill="#8F8E9E"/>
<path d="M219.563 236.942C218.873 237.632 218.024 237.977 217.017 237.977C216.009 237.977 215.16 237.632 214.471 236.942C213.781 236.253 213.436 235.404 213.436 234.396C213.436 233.389 213.781 232.54 214.471 231.85C215.16 231.16 216.009 230.815 217.017 230.815C218.024 230.815 218.873 231.16 219.563 231.85C220.262 232.549 220.611 233.398 220.611 234.396C220.611 235.395 220.262 236.243 219.563 236.942ZM217.017 236.82C217.698 236.82 218.269 236.588 218.732 236.125C219.195 235.663 219.427 235.086 219.427 234.396C219.427 233.706 219.195 233.13 218.732 232.667C218.269 232.204 217.698 231.973 217.017 231.973C216.345 231.973 215.778 232.204 215.315 232.667C214.852 233.13 214.62 233.706 214.62 234.396C214.62 235.086 214.852 235.663 215.315 236.125C215.778 236.588 216.345 236.82 217.017 236.82Z" fill="#8F8E9E"/>
<path d="M225.398 230.815C226.197 230.815 226.837 231.069 227.318 231.578C227.799 232.077 228.04 232.758 228.04 233.62V237.8H226.855V233.688C226.855 233.144 226.705 232.717 226.406 232.408C226.106 232.1 225.693 231.945 225.167 231.945C224.559 231.945 224.077 232.136 223.723 232.517C223.369 232.889 223.192 233.448 223.192 234.192V237.8H222.008V230.992H223.192V231.973C223.664 231.201 224.4 230.815 225.398 230.815Z" fill="#8F8E9E"/>
<path d="M230.715 232.83C230.715 233.266 231.164 233.607 232.063 233.852C232.398 233.924 232.68 234.001 232.907 234.083C233.143 234.156 233.397 234.269 233.669 234.423C233.951 234.578 234.164 234.782 234.309 235.036C234.454 235.29 234.527 235.59 234.527 235.935C234.527 236.552 234.286 237.047 233.805 237.419C233.324 237.791 232.716 237.977 231.981 237.977C231.327 237.977 230.76 237.837 230.279 237.555C229.807 237.265 229.471 236.874 229.271 236.384L230.292 235.799C230.401 236.125 230.606 236.384 230.905 236.575C231.205 236.765 231.563 236.861 231.981 236.861C232.389 236.861 232.716 236.784 232.961 236.629C233.206 236.475 233.329 236.243 233.329 235.935C233.329 235.472 232.88 235.136 231.981 234.927C231.681 234.846 231.454 234.782 231.3 234.737C231.146 234.691 230.932 234.61 230.66 234.492C230.397 234.374 230.197 234.251 230.061 234.124C229.925 233.988 229.798 233.811 229.68 233.593C229.571 233.366 229.516 233.116 229.516 232.844C229.516 232.254 229.743 231.768 230.197 231.387C230.66 231.006 231.237 230.815 231.926 230.815C232.48 230.815 232.97 230.942 233.397 231.197C233.833 231.442 234.159 231.787 234.377 232.231L233.383 232.79C233.138 232.209 232.653 231.918 231.926 231.918C231.581 231.918 231.291 232 231.055 232.163C230.828 232.327 230.715 232.549 230.715 232.83Z" fill="#8F8E9E"/>
<path d="M311.729 78.1913C311.729 79.0269 311.051 79.7042 310.216 79.7042C309.38 79.7042 308.703 79.0269 308.703 78.1913C308.703 77.3558 309.38 76.6784 310.216 76.6784C311.051 76.6784 311.729 77.3558 311.729 78.1913Z" fill="#122428"/>
<path d="M311.729 83.4864C311.729 84.3219 311.051 84.9993 310.216 84.9993C309.38 84.9993 308.703 84.3219 308.703 83.4864C308.703 82.6509 309.38 81.9735 310.216 81.9735C311.051 81.9735 311.729 82.6509 311.729 83.4864Z" fill="#122428"/>
<path d="M311.729 88.7815C311.729 89.617 311.051 90.2943 310.216 90.2943C309.38 90.2943 308.703 89.617 308.703 88.7815C308.703 87.9459 309.38 87.2686 310.216 87.2686C311.051 87.2686 311.729 87.9459 311.729 88.7815Z" fill="#122428"/>
<defs>
<filter id="filter0_d_0_4804" x="0.000183105" y="0.959473" width="391.986" height="423" filterUnits="userSpaceOnUse" color-interpolation-filters="sRGB">
<feFlood flood-opacity="0" result="BackgroundImageFix"/>
<feColorMatrix in="SourceAlpha" type="matrix" values="0 0 0 0 0 0 0 0 0 0 0 0 0 0 0 0 0 0 127 0" result="hardAlpha"/>
<feOffset/>
<feGaussianBlur stdDeviation="25"/>
<feComposite in2="hardAlpha" operator="out"/>
<feColorMatrix type="matrix" values="0 0 0 0 0 0 0 0 0 0 0 0 0 0 0 0 0 0 0.05 0"/>
<feBlend mode="normal" in2="BackgroundImageFix" result="effect1_dropShadow_0_4804"/>
<feBlend mode="normal" in="SourceGraphic" in2="effect1_dropShadow_0_4804" result="shape"/>
</filter>
</defs>
</svg>
