<svg width="1063" height="110" fill="none" xmlns="http://www.w3.org/2000/svg"><path d="M2.98 19.834c-.804.443-1.967-.444-2.605-1.745-.637-1.302-.415-2.881.305-3.27.72-.387 2.05.361 2.604 1.801.554 1.44.499 2.77-.305 3.214zM15.14 37.7c-.582.721-2.77-.498-4.82-2.77-2.05-2.27-2.77-4.958-1.967-5.54.804-.581 2.77.887 4.433 3.214 1.662 2.327 2.963 4.321 2.354 5.097zm18.643 8.45c0 .941-2.465 1.69-5.54 1.025s-4.931-2.577-4.57-3.435c.36-.86 2.77-.665 5.262 0 2.493.664 4.848 1.385 4.848 2.41zm20.083-4.322c.333.914-1.634 2.465-4.404 3.463-2.77.997-5.264.692-5.54-.25-.277-.941 1.828-2.354 4.515-3.13 2.687-.775 5.125-.997 5.43-.083zM72.87 33.24c.332.915-1.469 2.633-4.073 3.879-2.604 1.247-5.014 1.496-5.374.61-.36-.887 1.468-2.632 4.072-3.879 2.604-1.246 5.014-1.606 5.374-.61zm19.418-7.506c.221.97-1.8 2.327-4.46 3.269-2.66.942-5.097.914-5.402 0-.305-.914 1.662-2.438 4.432-3.38 2.77-.942 5.208-.692 5.43.111zm20.388-2.936c0 .97-2.217 1.967-4.987 2.216-2.77.25-5.235-.332-5.235-1.302s2.133-1.967 5.014-2.216c2.881-.25 5.208.332 5.208 1.302zm20.498 1.856c-.221.942-2.576 1.246-5.291.692-2.714-.554-4.931-1.385-4.875-2.354.055-.97 2.438-1.496 5.346-1.136 2.909.36 5.069 1.856 4.82 2.798zm16.76 11.8c-.859.416-2.41-1.246-4.211-3.185-1.801-1.94-3.407-3.712-2.936-4.626.471-.915 2.964-.25 5.235 2.105 2.272 2.354 2.715 5.263 1.912 5.706zm-1.358 21.302c-.332-.388-.166-1.052 0-1.911a9.344 9.344 0 010-1.551c0-.637.25-1.33.443-2.05.321-1.206.719-2.39 1.192-3.546.443-.914.941-1.468 1.412-1.413.471.056.748.693.887 1.773a10.515 10.515 0 01-.194 4.128 17.465 17.465 0 01-.748 2.133 6.869 6.869 0 01-.97 1.745c-.914.941-1.745 1.108-2.022.692zM130.432 52.3c.776-.583 2.604.72 4.681 2.326 2.078 1.607 3.934 2.992 3.657 3.961-.277.97-2.77.804-5.54-1.052s-3.518-4.737-2.798-5.236zm3.629-19.474c.304.387.166 1.135-.25 2.022-.251.5-.538.982-.858 1.44a13.828 13.828 0 01-1.053 1.662c-1.524 2.189-2.77 4.072-3.657 3.878-.886-.194-.858-3.213 1.025-5.817.439-.614.92-1.198 1.441-1.745a8.296 8.296 0 011.468-1.053c.914-.637 1.607-.748 1.884-.387zm18.255-9.474c0 .997-2.05 1.939-4.543 2.77-2.493.83-4.765 1.385-5.236.526-.471-.859 1.274-2.77 4.238-3.878 2.965-1.108 5.541-.36 5.541.582zm20.111 4.348c-.388.915-2.77.749-5.347-.332-2.576-1.08-4.598-2.243-4.432-3.213.166-.97 2.77-1.025 5.54 0 2.771 1.025 4.599 2.66 4.239 3.546zm18.199 10.416c-.443.831-2.77.305-5.263-1.218-2.493-1.524-4.127-3.408-3.684-4.266.443-.86 2.77-.333 5.291 1.19 2.521 1.524 4.127 3.463 3.656 4.294zm17.978 10.942c-.388.887-2.77.388-5.291-1.108-2.521-1.496-4.21-3.38-3.767-4.21.443-.831 2.77-.36 5.319 1.108 2.548 1.468 4.155 3.324 3.739 4.21zm19.391 7.396c-.194.97-2.576 1.191-5.54.416-2.964-.776-4.82-2.465-4.515-3.324.304-.859 2.77-.803 5.346 0s4.903 1.856 4.709 2.908zm20.443 2.909c0 .97-2.437 1.523-5.291 1.219-2.853-.305-4.958-1.33-4.958-2.41s2.493-1.496 5.291-1.219c2.798.277 5.014 1.44 4.958 2.41zm20.582.665c0 .97-2.299 1.745-5.18 1.717-2.881-.027-5.152-.859-5.124-1.828.027-.97 2.354-1.745 5.18-1.718 2.825.028 5.124.86 5.124 1.829zm20.61-1.025c0 .97-2.161 1.911-5.042 2.133-2.881.221-5.208-.416-5.235-1.413-.028-.997 2.216-1.911 5.014-2.133 2.797-.222 5.18.582 5.263 1.413zm20.388-3.269c.221.942-1.912 2.16-4.765 2.77-2.853.61-5.263.222-5.374-.72-.111-.942 2.022-2.216 4.765-2.77 2.742-.554 5.152-.25 5.374.72zm20.194-4.543c.249.942-1.828 2.3-4.654 3.02-2.825.72-5.208.553-5.374-.416-.166-.97 1.884-2.327 4.626-3.02 2.743-.692 5.153-.526 5.402.416zm19.197-8.005c.443.858-1.385 2.604-4.045 3.878-2.659 1.274-5.069 1.551-5.374.637-.304-.914 1.496-2.632 4.045-3.878 2.548-1.247 4.958-1.496 5.374-.637zm15.485-14.294c.803.416.221 3.213-1.829 5.679-2.05 2.465-4.46 3.352-4.986 2.604-.526-.748.748-2.77 2.576-4.987 1.829-2.216 3.408-3.74 4.239-3.296zM363.148 7.95c.693-.526 2.77 1.136 3.961 4.21 1.192 3.075.721 5.984 0 6.04-.72.055-1.883-2.078-2.77-4.682-.886-2.604-1.994-4.986-1.191-5.568zm-16.925-2.216c-.609-.61.526-3.24 3.435-4.82a6.205 6.205 0 014.044-.83c1.108.193 1.69.72 1.662 1.163-.166 1.024-2.077 1.55-4.238 2.77-2.161 1.218-4.183 2.437-4.903 1.717zm-7.812 20c-.858 0-1.606-2.77-.969-5.873.637-3.102 2.354-5.318 3.13-4.93.776.388.665 2.77 0 5.678-.665 2.909-1.219 5.125-2.161 5.125z" fill="#30BB9A"/><path d="M345.337 46.177c-.61.61-2.771-.803-4.405-3.6-1.634-2.799-1.662-5.541-.831-5.929.831-.388 2.299 1.635 3.657 4.1 1.357 2.465 2.299 4.737 1.579 5.43zm17.008 11.995c0 .47-.748.72-1.773.748a7.532 7.532 0 01-3.767-.915c-2.77-1.302-4.294-3.628-3.795-4.349.498-.72 2.77 0 5.124 1.136a29.139 29.139 0 013.075 1.718c.776.526 1.219 1.135 1.136 1.662zm20.305-2.106c.277.914-1.773 2.355-4.598 3.186-2.826.831-5.374.222-5.541-.748-.166-.97 2.022-2.16 4.709-2.77 2.687-.61 5.014-.61 5.43.332zm18.975-8.836c.416.859-1.357 2.77-3.933 3.989-2.577 1.219-4.987 1.717-5.347.831-.36-.886 1.413-2.77 3.934-4.017 2.521-1.246 4.875-1.662 5.346-.803zm18.255-10.25c.388.86-1.329 2.77-3.85 4.128-2.521 1.357-4.903 1.856-5.319.997-.415-.858 1.302-2.77 3.823-4.155 2.521-1.385 4.931-1.939 5.346-.97zm19.059-8.448c.221.942-1.746 2.438-4.377 3.352-2.632.914-4.986 1.274-5.347.387-.36-.886 1.552-2.576 4.239-3.712 2.687-1.135 5.263-.858 5.485-.027zm20.277-3.767c0 .97-2.078 2.077-4.876 2.493-2.798.415-5.18 0-5.346-1.025-.166-1.025 2.05-2.078 4.903-2.493 2.853-.416 5.235.055 5.319 1.025zm20.609-1.081c0 .97-2.299 1.828-5.125 1.884-2.825.055-5.152-.665-5.18-1.635-.027-.969 2.244-1.828 5.097-1.883 2.854-.056 5.208.665 5.208 1.634zm20.582 1.246c0 .97-2.493 1.552-5.291 1.275-2.798-.277-5.041-1.274-4.847-2.16.193-.887 2.409-1.552 5.263-1.275 2.853.277 4.986 1.274 4.875 2.16zm20.333 4.378c-.25.941-2.77 1.135-5.541.415-2.77-.72-4.792-2.05-4.626-2.992.167-.941 2.577-1.163 5.402-.443 2.826.72 4.931 2.078 4.765 3.02zm18.864 8.587c-.526.803-2.77.221-5.18-1.164a9.915 9.915 0 01-3.629-2.437c-.332-.471-.471-.86-.332-1.164.138-.305.471-.498 1.052-.526a10.108 10.108 0 014.543.997c2.41 1.468 4.072 3.49 3.546 4.294zm14.599 15.54c-.721.582-2.771-.859-4.433-3.186s-2.77-4.543-2.271-5.235c.498-.693 2.77.61 4.737 2.936 1.966 2.327 2.714 4.93 1.967 5.485zm9.113 19.834c-.914.249-2.133-1.967-3.047-4.71-.914-2.742-1.33-5.235-.526-5.706.803-.47 2.576 1.413 3.601 4.488 1.025 3.074.803 5.706-.028 5.928zm2.189 22.077c-.915 0-1.635-2.493-1.662-5.54-.028-3.047.332-5.54 1.246-5.54.914 0 1.801 2.327 2.022 5.54.222 3.213-.72 5.596-1.606 5.54zm-12.826 12.105c.388-.914 2.576-.664 4.82-1.024 2.244-.361 4.044-1.413 4.765-.748.304.304.193 1.108-.499 2.049a6.18 6.18 0 01-3.767 2.189 6.32 6.32 0 01-4.156-.748c-.914-.609-1.329-1.136-1.163-1.718zm-8.864-18.144c.914.277 1.08 2.77 1.329 5.291.25 2.521.887 4.931 0 5.54-.388.25-.997 0-1.662-.97a8.557 8.557 0 01-1.606-4.043c-.305-3.574 1.025-6.095 1.939-5.818zm11.939-17.7c.554.748-.637 2.991-2.77 4.986-2.133 1.994-3.879 3.49-4.599 2.77-.72-.72.277-3.02 2.272-5.54 1.994-2.521 4.543-2.992 5.097-2.216zm17.618-11.357c.332.913-1.441 2.631-3.962 3.877-2.52 1.247-4.792 1.912-5.263 1.08-.471-.83 1.247-2.77 3.795-4.237 2.549-1.468 5.18-1.635 5.43-.72zm20.249-2.078c-.138.97-2.465 1.523-5.235 1.19a15.301 15.301 0 01-3.518-.83c-.859-.277-1.469-.665-1.496-1.164-.028-.498.471-.97 1.496-1.33a9.497 9.497 0 013.739-.193c2.909.25 5.153 1.302 5.014 2.327zm20.111 4.848c-.249.941-2.77 1.052-5.402.276-2.631-.775-4.764-2.188-4.57-3.13.194-.942 2.631-1.08 5.401-.277s4.82 2.189 4.571 3.13zm19.64 6.758c-.277.942-2.77.915-5.402 0-2.631-.914-4.737-2.493-4.404-3.296.332-.803 2.77-.914 5.402 0 2.631.914 4.653 2.382 4.404 3.296zm19.945 5.457c-.139.97-2.549 1.22-5.374.554-2.826-.664-4.931-1.939-4.682-2.77.25-.83 2.77-1.19 5.374-.581 2.604.609 4.82 1.828 4.682 2.797zm20.554.582c0 .97-2.161 1.967-5.069 2.244-2.909.277-5.263-.748-5.236-1.718.028-.97 2.327-1.8 5.097-1.828 2.77-.028 5.07.277 5.208 1.302zm19.779-5.956c.387.887-1.524 2.549-4.239 3.712-2.714 1.164-5.235.97-5.54 0-.305-.97 1.718-2.437 4.349-3.351 2.632-.915 5.069-1.247 5.43-.36zm17.673-11.412c.554.776-.914 2.77-3.297 4.654-2.382 1.883-4.709 2.548-5.18 1.717-.471-.831 1.025-2.77 3.297-4.626 2.271-1.856 4.598-2.493 5.18-1.745zm13.629-16.538c.803.444.194 3.047-1.468 5.734s-3.934 3.934-4.599 3.269.222-3.075 1.967-5.374c1.745-2.3 3.296-3.989 4.1-3.629zm2.742-21.468c.803-.332 2.355 1.995 2.576 5.374.222 3.38-1.052 5.845-1.883 5.54-.831-.304-1.219-2.631-1.385-5.54-.167-2.908-.194-5.014.692-5.374zM712.32 9.141c-.166-.443.277-1.108 1.274-1.634a6.233 6.233 0 014.183-.333c3.297.915 4.792 3.519 4.211 4.183-.582.665-2.77 0-4.986-.72-2.217-.72-4.294-.582-4.682-1.496zm-9.086 18.919c-.886 0-1.191-2.77-.554-5.927.637-3.158 2.299-5.208 3.13-4.848.831.36.859 2.937 0 5.762-.858 2.826-1.662 5.125-2.576 5.014zm4.626 21.109c-.665.582-2.77-1.025-4.099-4.044-1.33-3.02-1.025-5.818-.167-5.984.859-.166 2.05 1.94 3.131 4.516 1.08 2.576 1.883 4.903 1.135 5.512zm16.593 12.742c-.304.914-2.77.582-5.54-.72s-4.211-3.629-3.684-4.404c.526-.776 2.77-.222 5.18 1.246 2.41 1.468 4.377 2.909 4.044 3.878zm20.028 5.042c0 .97-2.493 1.357-5.374.831s-5.014-1.69-4.792-2.632c.221-.941 2.604-1.33 5.346-.83 2.742.498 4.903 1.662 4.82 2.631zm20.61.194c0 .97-2.189 1.856-5.097 1.994-2.909.139-5.236-.582-5.208-1.551.027-.97 2.271-1.856 5.069-1.995 2.798-.138 5.125.582 5.236 1.552zm20.083-4.737c.36.859-1.635 2.493-4.432 3.463-2.798.97-5.291.609-5.541-.333-.249-.942 1.856-2.327 4.543-3.047 2.687-.72 5.07-.997 5.43-.083zm17.728-11.385c.499.831-1.052 2.77-3.49 4.488-2.437 1.717-4.764 2.326-5.208 1.495-.443-.83 1.081-2.77 3.463-4.487 2.382-1.718 4.737-2.3 5.235-1.496zm17.009-12.687c.526.83-.97 2.77-3.296 4.654-2.327 1.883-4.626 2.52-5.153 1.717-.526-.803.97-2.77 3.297-4.626 2.327-1.856 4.57-2.548 5.152-1.745zm17.812-11.025c.332.887-1.385 2.77-3.851 4.1-2.465 1.33-4.875 1.8-5.346.97-.471-.832 1.274-2.77 3.851-4.1 2.576-1.33 4.986-1.884 5.346-.97zm19.723-6.288c0 .97-1.967 2.3-4.682 2.964-2.714.665-5.124.443-5.374-.499-.249-.941 1.829-2.243 4.654-2.964 2.826-.72 5.263-.47 5.402.499zm20.637-2.188c0 .969-2.188 1.966-5.014 2.188-2.825.222-5.152-.333-5.263-1.302-.111-.97 2.161-1.967 5.014-2.216 2.853-.25 5.069.36 5.263 1.33zm20.471.553c-.138.97-2.493 1.58-5.291 1.358-2.797-.222-5.013-1.191-5.013-2.16 0-.97 2.382-1.607 5.263-1.358 2.881.25 5.152 1.247 5.041 2.16zM918 26.288c-.498.831-2.77.36-5.207-.97-2.438-1.329-4.405-2.77-4.183-3.573.221-.803 2.77-.803 5.54.333 2.77 1.135 4.349 3.407 3.85 4.21zm12.078 17.424c-.914.25-2.161-1.856-3.296-4.432-1.136-2.577-1.939-4.903-1.192-5.54.748-.638 2.771 1.024 4.128 3.96 1.357 2.937 1.191 5.762.36 6.012zm.637 22.078c-.914-.278-1.136-2.77-.859-5.68.277-2.908.97-5.373 1.829-5.4.858-.029 1.579 2.52 1.412 5.733-.166 3.214-1.689 5.596-2.382 5.347zm-14.432 12.631c.222-.97 2.382-1.191 4.654-1.884 2.271-.692 4.21-1.745 4.903-1.025.692.72.138 1.109-.499 2.05a7.31 7.31 0 01-3.518 2.383c-3.296.941-5.789-.637-5.54-1.524zm-12.909-15.623c.97 0 1.884 2.077 2.937 4.598 1.052 2.521 1.966 4.71 1.274 5.54-.693.831-2.77-.83-4.266-3.933-1.496-3.103-.776-6.122.055-6.205zm6.732-20.305c.692.665-.277 2.936-1.718 5.402-1.44 2.465-2.77 4.321-3.712 3.989-.942-.333-.665-3.103.97-5.9 1.634-2.798 3.823-4.128 4.46-3.49z" fill="#30BB9A"/><path d="M927.945 32.632c0 1.025-2.05 2.022-4.626 2.77-2.576.748-4.82 1.135-5.263.221-.443-.914 1.468-2.77 4.404-3.629 2.937-.858 5.485-.277 5.485.638zm20.582 1.385c-.166.97-2.549 1.412-5.319.997-2.77-.416-4.958-1.551-4.903-2.52.056-.97 2.466-1.414 5.319-.97 2.853.443 5.069 1.55 4.903 2.493zm19.945 5.567c-.25.942-2.77.998-5.402.167s-4.709-2.3-4.488-3.241c.222-.942 2.632-1.025 5.402-.167 2.77.86 4.765 2.438 4.488 3.241zm19.584 7.009c-.304.914-2.77.859-5.401-.139-2.632-.997-4.654-2.52-4.349-3.462.304-.942 2.77-.859 5.401.138 2.632.997 4.626 2.549 4.349 3.463zm19.474 7.257c-.28.914-2.77.86-5.54-.138-2.77-.997-4.626-2.549-4.349-3.463.277-.914 2.769-.886 5.539 0 2.77.887 4.65 2.66 4.35 3.601zm19.72 6.565c-.22.942-2.77.998-5.54 0-2.77-.997-4.76-2.326-4.48-3.268.27-.942 2.77-.97 5.54 0s4.73 2.327 4.48 3.268zm20.2 4.627c0 .97-2.52 1.302-5.38.748-2.85-.555-4.98-1.773-4.79-2.77.2-.998 2.61-1.303 5.38-.748 2.77.553 4.9 1.8 4.79 2.77zm15.51.803c0 .997-1.08 1.8-2.58 1.828-1.49.028-2.63-.748-2.6-1.717.03-.97 1.16-1.8 2.55-1.829 1.38-.027 2.57.748 2.63 1.718z" fill="#30BB9A"/></svg>