<svg width="109" height="125" fill="none" xmlns="http://www.w3.org/2000/svg"><path d="M109 125L.5.5l39-.5L109 79v46z" fill="#534BEF"/><path d="M29.523 19.728l7.301-6.536 1.167 1.304-2.647 6.823 7.064-1.89 1.167 1.304-7.301 6.537-.99-1.106 5.393-4.827-6.348 1.661-.766-.855 2.332-6.127-5.383 4.818-.99-1.106zm10.083 11.516a3.597 3.597 0 01-.862-1.634 3.403 3.403 0 01.119-1.778c.204-.597.578-1.138 1.12-1.624.543-.485 1.118-.794 1.727-.925a3.341 3.341 0 011.8.099c.584.191 1.093.53 1.53 1.017.441.493.722 1.038.841 1.633a3.244 3.244 0 01-.109 1.788c-.191.598-.558 1.139-1.101 1.625-.542.485-1.124.793-1.746.924a3.37 3.37 0 01-1.79-.089 3.597 3.597 0 01-1.53-1.036zm.95-.85c.236.264.52.449.85.553.339.111.698.121 1.08.03.389-.098.778-.32 1.167-.67.39-.348.65-.707.784-1.076a1.84 1.84 0 00.108-1.075 1.885 1.885 0 00-.455-.908 1.96 1.96 0 00-.861-.563 1.957 1.957 0 00-1.08-.01c-.382.091-.768.311-1.157.66-.39.348-.654.71-.794 1.086a1.97 1.97 0 00-.098 1.066c.067.34.218.643.455.907zm4.322 6.74c-.585-.654-.907-1.336-.967-2.047-.06-.71.146-1.334.619-1.87l.999 1.117a1.514 1.514 0 00-.26.947c.02.358.182.708.487 1.048.298.334.586.515.862.544.276.028.504-.038.685-.2.264-.237.345-.503.243-.8-.09-.296-.264-.666-.524-1.11a9.286 9.286 0 01-.534-1.1 2.717 2.717 0 01-.206-1.112c.026-.362.203-.69.53-.982a1.911 1.911 0 011.593-.487c.618.074 1.206.424 1.767 1.05.516.577.794 1.167.834 1.771.045.61-.158 1.175-.61 1.691l-.952-1.063a1.02 1.02 0 00.242-.78c-.025-.28-.164-.561-.42-.846-.249-.279-.5-.441-.756-.488a.694.694 0 00-.643.162c-.181.162-.23.394-.148.696.089.31.247.675.475 1.097.234.416.43.817.588 1.203.17.386.239.756.206 1.111-.033.356-.237.701-.613 1.037-.466.43-1.024.598-1.673.503-.643-.089-1.25-.453-1.824-1.093zm4.824 5.136c-.454-.508-.694-1.02-.718-1.537-.017-.523.29-1.068.923-1.634l2.556-2.288-.794-.887.928-.83.794.886 1.436-1.041.868.97-1.314 1.177 1.307 1.46-.928.83-1.307-1.46-2.556 2.288c-.285.256-.43.492-.436.71.008.218.145.477.413.776l.532.595-.938.84-.766-.855zm4.223 4.717l7.302-6.536 2.288 2.555c.51.57.836 1.13.977 1.68.149.544.137 1.056-.035 1.535-.159.48-.447.908-.864 1.281a3.036 3.036 0 01-1.338.71c-.482.118-.99.077-1.52-.124-.53-.202-1.058-.594-1.58-1.178l-1.299-1.45-2.941 2.633-.99-1.106zm4.839-2.34l1.251 1.398c.467.522.911.794 1.333.817.435.024.847-.138 1.237-.486.403-.362.613-.756.63-1.185.03-.428-.188-.903-.655-1.424l-1.251-1.398-2.545 2.278zm2.445 10.729a3.598 3.598 0 01-.862-1.634 3.403 3.403 0 01.118-1.778c.205-.597.579-1.139 1.121-1.624.543-.486 1.118-.794 1.727-.926a3.341 3.341 0 011.8.1 3.49 3.49 0 011.53 1.016c.441.494.722 1.038.84 1.633a3.243 3.243 0 01-.108 1.789c-.192.597-.559 1.139-1.101 1.624-.542.486-1.125.794-1.746.925a3.371 3.371 0 01-1.79-.09 3.598 3.598 0 01-1.53-1.035zm.949-.85c.237.264.52.448.852.553.337.11.697.12 1.079.03.389-.098.778-.321 1.167-.67.39-.348.65-.707.784-1.077a1.84 1.84 0 00.108-1.074 1.885 1.885 0 00-.455-.908 1.959 1.959 0 00-.861-.563 1.957 1.957 0 00-1.08-.01c-.382.091-.768.31-1.157.66-.39.348-.654.71-.794 1.086-.133.37-.166.724-.098 1.065.067.341.218.644.455.908zm.305 6.616l7.468-6.686.887.991-.7.834a3.187 3.187 0 011.263.11c.45.123.88.415 1.29.874.448.5.725 1.048.831 1.642.106.594.05 1.183-.167 1.766-.21.59-.577 1.118-1.099 1.585-.521.466-1.087.772-1.696.917a3.332 3.332 0 01-1.763-.038c-.572-.177-1.085-.52-1.54-1.027-.36-.403-.601-.833-.721-1.29a2.486 2.486 0 01.024-1.336l-3.087 2.764-.99-1.106zm5.566-.079c.424.473.932.72 1.526.739.6.013 1.162-.213 1.683-.68.341-.305.581-.646.721-1.021.14-.376.174-.75.102-1.125-.065-.38-.24-.73-.527-1.05-.423-.473-.935-.716-1.536-.73-.595-.006-1.15.221-1.664.682-.521.467-.812.996-.87 1.587-.047.593.142 1.125.565 1.598zm4.285 6.718c-.56-.626-.807-1.294-.742-2.004.072-.704.494-1.4 1.266-2.092l2.973-2.661.99 1.106-2.858 2.558c-1.002.897-1.135 1.755-.4 2.576.367.41.815.617 1.343.62.529.002 1.064-.24 1.607-.725l2.67-2.39.99 1.105-5.174 4.632-.877-.98.832-.896a2.45 2.45 0 01-1.396-.028c-.455-.144-.863-.418-1.224-.821zm3.924 4.132l7.51-6.724.99 1.106-7.51 6.723-.99-1.105zm3.687 4.37c-.392-.438-.643-.865-.752-1.281-.109-.416-.108-.8.004-1.15.12-.357.321-.663.606-.918.5-.448 1.072-.609 1.712-.48.641.127 1.285.553 1.932 1.276l1.214 1.356.094-.084c.404-.36.606-.743.609-1.146.009-.396-.143-.768-.454-1.116a1.898 1.898 0 00-.948-.597c-.346-.092-.686-.032-1.022.181l-.99-1.106c.407-.301.839-.462 1.296-.483.47-.02.925.074 1.363.283.45.21.857.517 1.218.92.647.724.957 1.454.93 2.193-.021.733-.358 1.392-1.012 1.977l-3.181 2.848-.86-.96.803-.887a2.642 2.642 0 01-1.29.008c-.443-.104-.867-.382-1.272-.834zm1.093-.584c.268.299.562.487.881.564a1.92 1.92 0 001.004-.034c.342-.093.668-.254.978-.48l-1.102-1.232c-.392-.438-.749-.682-1.07-.733a.967.967 0 00-.816.242.917.917 0 00-.33.765c.03.3.181.602.455.908zm2.68 4.546l5.174-4.632.887.991-.897.972a2.737 2.737 0 011.476.032c.494.146.946.449 1.357.908l-1.157 1.036-.271-.302a2.782 2.782 0 00-.894-.684 1.602 1.602 0 00-1.025-.116c-.361.072-.754.299-1.178.678l-2.482 2.223-.99-1.106z" fill="#fff"/></svg>