<svg width="797" height="500" fill="none" xmlns="http://www.w3.org/2000/svg"><path d="M8.65 207.253a59.833 59.833 0 00-6.532 45.239 59.73 59.73 0 0027.305 36.623 61.026 61.026 0 009.045 4.393c9.084 5.013 122.429 46.868 123.507 126.292a115.735 115.735 0 0014.3 52.043 115.52 115.52 0 0036.334 39.863 115.245 115.245 0 00103.999 12.975l64.683-19.172a158.921 158.921 0 0195.388-.321l91.204 28.371a168.833 168.833 0 0017.815 5.55l.214.055a169.076 169.076 0 00117.362-13.232c36.269-18.376 64.729-49.205 80.184-86.858a169.862 169.862 0 003.996-118.228c-12.877-38.611-39.19-71.294-74.135-92.081a172.246 172.246 0 00-24.588-12.055l-83.583-40.997a159.195 159.195 0 01-57.277-47.475 159.54 159.54 0 01-29.498-68.354c-2.35-13.487-3.636-31.549-3.324-34.638l-.085-.07A144.008 144.008 0 00485.39-61.9a143.607 143.607 0 00-76.197-51.331 143.414 143.414 0 00-91.673 5.399 143.705 143.705 0 00-69.674 59.92c-.55.943-76.614 140.822-76.614 140.822l-.34.595a158.03 158.03 0 01-84.098 71.502l-45.16 15.892A59.4 59.4 0 008.65 207.253z" fill="#554DF3"/></svg>