<svg width="60" height="61" viewBox="0 0 60 61" fill="none" xmlns="http://www.w3.org/2000/svg">
<path d="M16.7478 23.52L29.9978 31.195L43.1478 23.57" stroke="#348AF5" stroke-width="2" stroke-linecap="round" stroke-linejoin="round"/>
<path d="M30 44.7939V31.1689" stroke="#348AF5" stroke-width="2" stroke-linecap="round" stroke-linejoin="round"/>
<path d="M26.9004 16.0951L18.9004 20.5451C17.1004 21.5451 15.6003 24.0701 15.6003 26.1451V34.6201C15.6003 36.6951 17.0754 39.2201 18.9004 40.2201L26.9004 44.6701C28.6004 45.6201 31.4004 45.6201 33.1254 44.6701L41.1254 40.2201C42.9254 39.2201 44.4253 36.6951 44.4253 34.6201V26.1201C44.4253 24.0451 42.9504 21.5201 41.1254 20.5201L33.1254 16.0701C31.4004 15.1201 28.6004 15.1201 26.9004 16.0951Z" stroke="#348AF5" stroke-width="2" stroke-linecap="round" stroke-linejoin="round"/>
<path d="M55 37.8694C55 47.5444 47.175 55.3694 37.5 55.3694L40.125 50.9944" stroke="#348AF5" stroke-width="2" stroke-linecap="round" stroke-linejoin="round"/>
<path d="M4.99854 22.8701C4.99854 13.1951 12.8235 5.37012 22.4985 5.37012L19.8736 9.74512" stroke="#348AF5" stroke-width="2" stroke-linecap="round" stroke-linejoin="round"/>
</svg>
