<svg width="51" height="31" viewBox="0 0 51 31" fill="none" xmlns="http://www.w3.org/2000/svg">
<path d="M40.2605 14.3331C36.495 14.4343 32.8232 14.5768 29.1483 14.623C21.1715 14.7525 13.1942 14.4138 5.24819 13.6085C4.17228 13.4816 3.1037 13.2842 2.04779 13.0174C1.47118 12.8826 0.754065 12.5923 0.794205 11.8211C0.856232 10.881 1.68462 11.0338 2.24546 11.0493C7.81323 11.2074 13.382 11.516 18.9418 11.5427C25.5959 11.5835 32.222 12.2248 38.8841 12.2785C39.3318 12.3561 39.7896 12.2829 40.2011 12.068C37.2131 10.2886 34.0181 9.0219 31.3607 6.61545C29.8179 5.21372 29.3425 3.479 29.9722 1.41198C30.0674 1.10504 30.1502 0.800197 30.4857 0.782388C32.2891 6.66505 36.8922 8.29063 41.3942 9.9873C43.997 10.9316 46.6848 11.5415 49.4071 11.8057C49.8268 11.8525 50.2362 11.9405 50.299 12.5111C50.3618 13.0818 50.0359 13.22 49.6516 13.3215C44.4873 14.6879 40.2579 18.0874 36.0504 21.4617C33.4042 23.6075 31.2704 26.3333 29.0503 28.9554C28.6024 29.4841 28.1145 30.522 27.4566 29.9633C26.7987 29.4045 27.5619 28.6103 27.8793 27.9783C30.7445 22.3563 34.9366 17.7581 39.9812 14.7038C40.0877 14.5941 40.1815 14.4695 40.2605 14.3331Z" fill="#C2C2C2"/>
</svg>
