<svg width="20" height="20" viewBox="0 0 20 20" fill="none" xmlns="http://www.w3.org/2000/svg">
<path d="M12.0253 15.6832C11.8669 15.6832 11.7086 15.6249 11.5836 15.4999C11.3419 15.2582 11.3419 14.8582 11.5836 14.6166L16.2003 9.99992L11.5836 5.38325C11.3419 5.14158 11.3419 4.74158 11.5836 4.49991C11.8253 4.25825 12.2253 4.25825 12.4669 4.49991L17.5253 9.55825C17.7669 9.79992 17.7669 10.1999 17.5253 10.4416L12.4669 15.4999C12.3419 15.6249 12.1836 15.6832 12.0253 15.6832Z" fill="white"/>
<path d="M16.942 10.6249H2.91699C2.57533 10.6249 2.29199 10.3416 2.29199 9.99994C2.29199 9.65827 2.57533 9.37494 2.91699 9.37494H16.942C17.2837 9.37494 17.567 9.65827 17.567 9.99994C17.567 10.3416 17.2837 10.6249 16.942 10.6249Z" fill="white"/>
</svg>
