<svg width="152" height="142" viewBox="0 0 152 142" fill="none" xmlns="http://www.w3.org/2000/svg">
<path fill-rule="evenodd" clip-rule="evenodd" d="M71.3544 50.5239C64.4207 45.7733 56.3132 45.3229 48.667 47.5539C40.1453 50.1892 32.6622 55.4259 27.2674 62.5295C25.6755 64.8988 24.3288 67.424 23.248 70.066C21.7284 73.9387 20.578 77.9462 19.8121 82.0352C19.7644 82.2213 19.7919 82.4186 19.8887 82.5845C19.9855 82.7504 20.1438 82.8715 20.3293 82.9215C20.5152 82.9689 20.7123 82.9422 20.8789 82.847C21.0455 82.7519 21.1687 82.5958 21.2224 82.4116C22.2479 79.2195 23.5058 76.1068 24.9859 73.0985C26.416 70.1269 28.2038 67.3412 30.3094 64.8031C35.2829 58.4858 42.1001 53.874 49.8142 51.6079C56.1806 49.8111 62.9218 50.0633 68.695 53.9147C67.6466 55.3816 66.7315 56.9395 65.9608 58.5695C64.3854 61.8426 63.6597 65.4598 63.8506 69.0873C64.0175 72.2851 65.0321 75.381 66.7903 78.0573C67.5027 79.1815 68.5276 80.0736 69.7394 80.624C70.9513 81.1744 72.2974 81.3593 73.6127 81.156C79.4489 80.2553 81.7306 75.8199 81.646 70.3557C81.5547 64.1981 78.2287 56.73 74.7097 53.1893C75.8622 51.8457 77.0841 50.5466 78.2909 49.2754C83.4394 44.0107 90.2759 40.7249 97.6032 39.9935C104.995 39.2337 112.443 40.7464 118.953 44.3298C124.6 47.2575 128.936 52.0333 132.165 56.9304C134.234 60.0877 135.978 63.4461 137.372 66.9543C138.418 69.2931 139.164 71.7553 139.591 74.2818C139.591 74.3227 139.607 74.3621 139.635 74.392C139.663 74.4218 139.701 74.4397 139.742 74.4421C139.783 74.4423 139.822 74.4267 139.852 74.3987C139.882 74.3707 139.9 74.3323 139.902 74.2915C140.282 71.6339 140.194 68.9304 139.641 66.3033C138.773 62.3438 137.285 58.5465 135.231 55.052C131.857 49.0489 126.923 44.0699 120.95 40.6424C113.699 36.6343 105.398 34.9322 97.1547 35.7631C88.8117 36.5906 81.0286 40.3369 75.1775 46.3416C73.8759 47.7019 72.5807 49.0835 71.3544 50.5239ZM72.0197 56.6499C71.196 57.8347 70.4709 59.0851 69.8518 60.3885C68.5961 63.0164 68.0193 65.9173 68.1742 68.8257C68.2824 70.8302 68.7991 72.7915 69.6927 74.5891C70.4074 75.9485 71.3753 77.1247 72.939 76.8904C76.3226 76.3731 77.364 73.597 77.3213 70.4263C77.0796 65.3839 75.2207 60.5534 72.0197 56.6499Z" fill="#122428"/>
<path fill-rule="evenodd" clip-rule="evenodd" d="M21.7095 81.9951C21.6045 80.5981 21.5204 79.2089 21.4084 77.8047C21.2607 76.1871 21.1498 74.5211 20.931 72.9155C20.4174 68.7326 19.6742 64.6558 18.9587 60.594C18.9421 60.4116 18.8557 60.2428 18.7175 60.1226C18.5793 60.0025 18.4 59.9404 18.2171 59.9493C18.0342 59.9583 17.8618 60.0375 17.736 60.1705C17.6101 60.3035 17.5405 60.48 17.5417 60.6631C17.3268 64.1583 16.9791 67.5998 16.7911 71.1383C16.6816 72.6134 16.6482 74.1405 16.6722 75.641C16.723 79.0101 17.0573 82.3596 17.3926 85.6809C17.4591 86.2212 17.6251 86.7444 17.8822 87.2243C18.1575 87.7199 18.5767 88.1202 19.0845 88.3724C19.3812 88.5135 19.704 88.5916 20.0324 88.6018C20.3608 88.612 20.6878 88.5541 20.9927 88.4318C21.698 88.0926 22.3375 87.6311 22.8816 87.0686C25.5999 84.5144 31.3762 77.358 32.6029 75.9034L34.8911 72.8477C35.0662 72.6247 35.201 72.3727 35.2892 72.1032C35.439 71.7007 35.503 71.2713 35.477 70.8427C35.4211 70.5933 35.113 70.7182 35.2647 70.6168C35.4165 70.5154 35.1209 70.4637 35.1315 70.5772C35.2846 70.8862 34.836 70.5256 34.8307 70.6952C34.8248 71.1124 34.5979 70.4474 34.3848 70.7026C34.2974 70.7847 34.3395 70.5667 34.2452 70.6416C34.1509 70.7165 34.266 70.43 34.0877 70.474C33.9095 70.518 34.1705 70.3139 34.0078 70.3159C33.845 70.3179 34.2238 70.1953 34.0336 70.1681C33.8434 70.141 34.1904 70.1306 34.1904 70.1306C34.1904 70.1306 34.0808 70.0139 34.4294 70.1804C34.4187 70.2042 34.4136 70.23 34.4145 70.256C34.4154 70.282 34.4223 70.3074 34.4345 70.3304C34.4468 70.3533 34.4642 70.3731 34.4853 70.3883C34.5064 70.4034 34.5307 70.4136 34.5564 70.4179C34.577 70.4193 34.5977 70.4164 34.6171 70.4095C34.6366 70.4025 34.6544 70.3917 34.6694 70.3775C34.6845 70.3634 34.6965 70.3463 34.7046 70.3273C34.7127 70.3083 34.7169 70.2879 34.7167 70.2672C35.7269 70.0864 34.8115 70.1782 35.1432 69.9763C35.2452 69.8804 35.0679 69.8961 35.1125 69.8268C35.4225 69.4119 34.7938 69.8381 34.7632 69.4551C34.7467 69.306 34.6539 69.5578 34.5804 69.4211C34.5068 69.2844 34.515 69.702 34.2102 69.4945C34.0801 69.356 34.2524 69.7292 33.8798 69.654C33.5072 69.5787 33.8045 69.5738 33.3679 69.7371C32.9312 69.9003 32.6429 70.5281 32.3476 70.6957L29.8126 73.2698C28.7661 74.3903 24.6608 79.0025 21.7095 81.9951Z" fill="#122428"/>
</svg>
