<svg width="16" height="16" viewBox="0 0 16 16" fill="none" xmlns="http://www.w3.org/2000/svg">
<path fill-rule="evenodd" clip-rule="evenodd" d="M1.44692 1.38734C2.39788 0.436382 3.8228 0.0708008 5.66652 0.0708008H9.96922C11.8129 0.0708008 13.2379 0.436382 14.1888 1.38734C15.1398 2.33831 15.5054 3.76323 15.5054 5.60695V9.90965C15.5054 11.7534 15.1398 13.1783 14.1888 14.1293C13.2379 15.0802 11.8129 15.4458 9.96922 15.4458H5.66652C3.8228 15.4458 2.39788 15.0802 1.44692 14.1293C0.495953 13.1783 0.130371 11.7534 0.130371 9.90965V5.60695C0.130371 3.76323 0.495953 2.33831 1.44692 1.38734ZM2.17711 2.11754C1.51456 2.78009 1.16302 3.86508 1.16302 5.60695V9.90965C1.16302 11.6515 1.51456 12.7365 2.17711 13.3991C2.83966 14.0616 3.92465 14.4132 5.66652 14.4132H9.96922C11.7111 14.4132 12.7961 14.0616 13.4586 13.3991C14.1212 12.7365 14.4727 11.6515 14.4727 9.90965V5.60695C14.4727 3.86508 14.1212 2.78009 13.4586 2.11754C12.7961 1.45499 11.7111 1.10345 9.96922 1.10345H5.66652C3.92465 1.10345 2.83966 1.45499 2.17711 2.11754Z" fill="white"/>
<path fill-rule="evenodd" clip-rule="evenodd" d="M5.47809 3.80633C4.95688 3.80633 4.53436 4.22885 4.53436 4.75006C4.53436 5.27127 4.95688 5.6938 5.47809 5.6938C5.9993 5.6938 6.42182 5.27127 6.42182 4.75006C6.42182 4.22885 5.9993 3.80633 5.47809 3.80633ZM3.47266 4.75006C3.47266 3.64249 4.37052 2.74463 5.47809 2.74463C6.58566 2.74463 7.48353 3.64249 7.48353 4.75006C7.48353 5.85763 6.58566 6.7555 5.47809 6.7555C4.37052 6.7555 3.47266 5.85763 3.47266 4.75006Z" fill="white"/>
<path fill-rule="evenodd" clip-rule="evenodd" d="M13.5092 8.69166C13.148 8.37751 12.5381 8.37751 12.1768 8.69166L9.2313 11.2509C9.23124 11.2509 9.23136 11.2508 9.2313 11.2509C8.48795 11.8972 7.31348 11.8973 6.57019 11.2509L6.56585 11.2471L6.33459 11.0413C6.00971 10.7605 5.45662 10.7264 5.08361 10.9796L1.59286 13.3525C1.3591 13.5114 1.04237 13.4483 0.885429 13.2116C0.728484 12.975 0.790753 12.6543 1.02451 12.4954L4.51526 10.1226C5.26026 9.61655 6.32015 9.66778 7.00094 10.26L7.00525 10.2637L7.23648 10.4695C7.59795 10.782 8.20633 10.7814 8.56693 10.4678L11.5125 7.90859C11.5125 7.90854 11.5124 7.90864 11.5125 7.90859C12.2558 7.2623 13.4303 7.26219 14.1736 7.90858C14.1736 7.90858 14.1736 7.90857 14.1736 7.90858L15.3277 8.91219C15.5413 9.09793 15.5657 9.42379 15.3823 9.64004C15.1988 9.85629 14.877 9.88102 14.6634 9.69529L13.5092 8.69166Z" fill="white"/>
</svg>
