<svg width="109" height="75" viewBox="0 0 109 75" fill="none" xmlns="http://www.w3.org/2000/svg">
<path d="M17.0579 66.7166C14.5213 61.661 4.92437 56.2567 1.53362 53.7986C0.539926 53.0752 -0.506064 54.6006 0.269712 55.4373C4.628 60.153 8.69865 67.0217 15.0879 69.3229C16.6133 69.8982 17.6942 68.0067 17.0579 66.7166Z" fill="#FFA012"/>
<path d="M36.3128 63.4649C32.8261 59.1851 27.5352 58.8626 28.4679 59.7081C31.0828 62.0267 34.5695 71.1268 35.938 72.6958C38.152 75.1364 41.7171 70.0895 36.3128 63.4649Z" fill="#FFA012"/>
<path d="M16.8837 40.9849C14.3646 38.274 13.9462 38.8319 12.6213 37.629C12.4367 37.4463 12.1921 37.3368 11.9328 37.3209C11.6736 37.3049 11.4174 37.3836 11.2119 37.5423C11.0063 37.701 10.8653 37.929 10.8151 38.1838C10.7649 38.4386 10.8089 38.7029 10.939 38.9277C11.0261 39.0759 13.0571 46.1799 17.0406 47.1649C19.1761 47.7228 20.5098 44.9073 16.8837 40.9849Z" fill="#FFA012"/>
<path d="M49.048 45.5001C43.2689 40.1568 39.0327 40.8367 42.6762 46.8599C48.926 57.1977 56.0823 51.9939 49.048 45.5001Z" fill="#FFA012"/>
<path d="M60.9373 72.2164C60.2226 68.3811 52.9529 65.3913 52.5084 65.1386C50.6953 64.1274 51.9069 67.7535 53.9205 70.8479C57.8255 76.906 61.4429 74.9796 60.9373 72.2164Z" fill="#FFA012"/>
<path d="M23.3252 15.5242C23.1139 15.4058 22.8725 15.352 22.631 15.3694C22.3894 15.3869 22.1583 15.4748 21.9662 15.6224C21.7741 15.7699 21.6295 15.9705 21.5504 16.1994C21.4712 16.4283 21.461 16.6754 21.5209 16.9101C30.9261 40.3839 43.8179 30.2639 23.3252 15.5242Z" fill="#FFA012"/>
<path d="M68.7998 35.982C67.7451 31.6237 60.3534 27.8407 56.7709 25.5744C54.6004 24.2059 52.4126 27.248 54.0949 29.0611C56.0038 31.0833 57.7384 33.2973 59.8304 35.1627C66.2458 40.8197 69.4622 38.7626 68.7998 35.982Z" fill="#FFA012"/>
<path d="M81.0637 61.3908C76.5486 54.2432 66.2456 50.4689 75.1626 62.2624C79.0938 67.4662 82.4148 63.5263 81.0637 61.3908Z" fill="#FFA012"/>
<path d="M39.4249 0.888731C38.222 0.679533 37.2544 2.38798 38.5532 3.01558C41.4384 4.45381 41.4733 8.10606 43.7832 10.1893C46.4679 12.5951 50.216 2.78023 39.4249 0.888731Z" fill="#FFA012"/>
<path d="M80.3143 21.1287C76.2175 13.5802 73.1842 16.8576 73.6461 19.0019C76.4354 31.9983 84.4111 28.7034 80.3143 21.1287Z" fill="#FFA012"/>
<path d="M102.742 50.3381C101.254 49.4648 99.5824 48.9514 97.8607 48.8388C96.0651 48.5512 98.2878 53.6504 102.376 55.4547C109.184 58.462 106.046 52.3168 102.742 50.3381Z" fill="#FFA012"/>
<path d="M106.49 24.2229C105.313 22.558 104.032 20.9977 102.794 19.3852C102.497 18.9308 102.036 18.6082 101.507 18.4839C100.978 18.3597 100.422 18.4432 99.9533 18.7174C99.4844 18.9915 99.1388 19.4353 98.9878 19.957C98.8368 20.4788 98.892 21.0385 99.142 21.5207C100.763 24.8592 102.315 30.063 106.011 31.5535C107.475 32.1462 110.901 30.4465 106.49 24.2229Z" fill="#FFA012"/>
</svg>
