<svg width="101" height="83" viewBox="0 0 101 83" fill="none" xmlns="http://www.w3.org/2000/svg">
<path d="M78.1925 66.3085C81.5453 72.186 90.5794 72.8746 95.6803 70.2155C97.7288 69.1314 99.0604 67.2904 100.836 65.879C101.273 65.5313 100.74 64.7335 100.269 65.0608C94.6765 68.8927 80.9376 63.9494 80.3367 63.813C78.9368 63.4926 77.3595 64.8494 78.1925 66.3085Z" fill="#AA5DF8"/>
<path d="M81.6001 46.5075C78.9165 47.1893 81.0334 50.7689 87.5614 51.2803C94.0894 51.7917 91.6926 50.7349 94.3899 50.7553C94.4456 50.7533 94.4989 50.7324 94.5412 50.696C94.5834 50.6597 94.612 50.6102 94.6223 50.5555C94.6327 50.5008 94.6241 50.4442 94.5979 50.395C94.5718 50.3459 94.5298 50.307 94.4786 50.2848C93.3792 49.8076 92.7852 48.8666 91.7882 48.2871C90.7912 47.7075 85.4582 45.4984 81.6001 46.5075Z" fill="#AA5DF8"/>
<path d="M68.8101 75.3976C69.7692 77.4098 71.2214 79.1478 73.0322 80.4506C74.843 81.7533 76.9537 82.5786 79.1689 82.8501C82.31 83.3342 82.0027 82.4887 83.4026 82.5773C85.9769 82.7273 80.2888 80.3273 70.7426 73.6589C69.6091 72.868 68.2843 74.2316 68.8101 75.3976Z" fill="#AA5DF8"/>
<path d="M62.2687 51.9152C64.5699 58.379 73.7951 57.4858 72.2451 56.7562C71.7876 56.5448 71.9037 56.1357 71.6169 55.8562C70.5857 55.0963 69.6154 54.2574 68.7148 53.347C67.3832 52.1197 66.2838 50.6947 64.8157 49.6242C63.2178 48.4446 61.7361 50.456 62.2687 51.9152Z" fill="#AA5DF8"/>
<path d="M70.695 35.8913C71.6305 36.3755 72.5387 36.3005 73.5425 36.5732C73.7236 36.6582 73.9311 36.6679 74.1193 36.6001C74.3075 36.5323 74.4611 36.3926 74.5462 36.2118C74.6314 36.031 74.6411 35.8238 74.5732 35.6358C74.5053 35.4479 74.3654 35.2945 74.1843 35.2095C72.6001 34.0981 70.3672 29.1684 68.4348 28.3911C66.0858 27.5116 64.5835 32.6867 70.695 35.8913Z" fill="#AA5DF8"/>
<path d="M48.0587 60.1241C48.482 63.2742 53.2142 66.8197 54.6277 68.3266C55.7066 69.5062 57.9463 68.1084 57.0176 66.6765C55.1398 63.7855 53.9107 59.4422 50.4145 58.0513C49.0215 57.5058 47.9016 58.8695 48.0587 60.1241Z" fill="#AA5DF8"/>
<path d="M49.8475 33.5527C50.865 41.2301 51.8073 40.1869 55.3718 44.5643C55.6859 44.953 56.4916 44.728 56.4575 44.1893C56.1161 38.6323 57.6388 38.8642 52.8726 32.0458C51.78 30.4639 49.6563 32.0458 49.8475 33.5527Z" fill="#AA5DF8"/>
<path d="M44.2347 9.60674C48.0382 11.25 52.2514 14.5023 53.9448 18.3479C54.0175 18.4885 54.1343 18.6014 54.2773 18.6693C54.4204 18.7372 54.5818 18.7564 54.7369 18.7239C54.8919 18.6914 55.032 18.609 55.1356 18.4893C55.2392 18.3697 55.3007 18.2194 55.3105 18.0615C55.0852 11.925 50.715 7.09758 44.3303 7.75896C43.3061 7.86805 43.4631 9.27264 44.2347 9.60674Z" fill="#AA5DF8"/>
<path d="M32.3395 32.1142C41.4351 41.7553 40.5883 40.9781 40.8888 41.4349C41.3736 42.1576 43.2105 42.1167 41.08 37.9166C39.1066 34.037 37.9867 32.6051 33.8213 30.3755C32.7288 29.7959 31.4109 31.1051 32.3395 32.1142Z" fill="#AA5DF8"/>
<path d="M27.5661 12.2731C27.3898 12.3693 27.245 12.5143 27.1491 12.6906C27.0532 12.8668 27.0103 13.067 27.0254 13.267C27.0406 13.4671 27.1131 13.6585 27.2345 13.8184C27.3558 13.9783 27.5207 14.0999 27.7095 14.1686C30.0926 14.7482 32.3187 15.1914 34.4014 16.5959C38.5668 19.3915 40.7724 23.2098 40.7928 20.9938C40.8679 14.1209 32.5918 10.2276 27.5661 12.2731Z" fill="#AA5DF8"/>
<path d="M23.3121 2.12717C25.1353 3.60675 29.8333 4.2545 31.8819 4.56133C32.7832 4.69088 33.2817 3.25902 32.4555 2.8431C21.8031 -2.51614 22.1376 1.1726 23.3121 2.12717Z" fill="#AA5DF8"/>
<path d="M8.32341 22.2822C8.17479 22.5177 8.08935 22.7875 8.07531 23.0655C8.06126 23.3435 8.11909 23.6205 8.24322 23.8698C8.36736 24.1191 8.55363 24.3322 8.78412 24.4889C9.01462 24.6455 9.28159 24.7403 9.55937 24.7641C11.881 25.0436 11.765 23.9254 17.815 24.1709C18.4022 24.1709 19.2763 23.864 19.7748 24.1095C20.4576 24.4504 21.0858 23.5504 20.4576 23.1072C19.8294 22.664 19.4333 21.6549 18.6071 21.1367C15.705 19.4048 10.092 19.4798 8.32341 22.2822Z" fill="#AA5DF8"/>
<path d="M0.0612072 9.81848C0.0071354 9.99189 0.00564748 10.1774 0.0569307 10.3516C0.108214 10.5259 0.209976 10.6811 0.349408 10.7977C0.488839 10.9144 0.659708 10.9872 0.840504 11.0071C1.0213 11.0269 1.20395 10.993 1.36545 10.9094C3.59153 9.49802 6.51412 8.52299 9.12942 9.54575C10.3517 10.0162 11.1438 8.24344 10.1059 7.50024C6.75311 5.23654 1.80247 5.77519 0.0612072 9.81848Z" fill="#AA5DF8"/>
</svg>
