<svg width="25" height="25" viewBox="0 0 25 25" fill="none" xmlns="http://www.w3.org/2000/svg">
<path d="M3.12508 9.37516C4.27567 9.37516 5.20841 8.44242 5.20841 7.29183C5.20841 6.14124 4.27567 5.2085 3.12508 5.2085C1.97449 5.2085 1.04175 6.14124 1.04175 7.29183C1.04175 8.44242 1.97449 9.37516 3.12508 9.37516Z" stroke="#FF4980" stroke-width="1.5" stroke-miterlimit="10" stroke-linecap="round" stroke-linejoin="round"/>
<path d="M21.8751 9.37516C23.0257 9.37516 23.9584 8.44242 23.9584 7.29183C23.9584 6.14124 23.0257 5.2085 21.8751 5.2085C20.7245 5.2085 19.7917 6.14124 19.7917 7.29183C19.7917 8.44242 20.7245 9.37516 21.8751 9.37516Z" stroke="#FF4980" stroke-width="1.5" stroke-miterlimit="10" stroke-linecap="round" stroke-linejoin="round"/>
<path d="M19.7917 7.29175H15.625" stroke="#FF4980" stroke-width="1.5" stroke-miterlimit="10" stroke-linecap="round" stroke-linejoin="round"/>
<path d="M9.37492 7.29175H5.20825" stroke="#FF4980" stroke-width="1.5" stroke-miterlimit="10" stroke-linecap="round" stroke-linejoin="round"/>
<path d="M7.81258 17.1875V19.2708C7.81258 19.9062 7.42717 20.4583 6.8855 20.6875C6.68758 20.7812 6.47925 20.8333 6.25008 20.8333H4.16675C3.30216 20.8333 2.60425 20.1354 2.60425 19.2708V17.1875C2.60425 16.3229 3.30216 15.625 4.16675 15.625H6.25008C7.11467 15.625 7.81258 16.3229 7.81258 17.1875Z" stroke="#FF4980" stroke-width="1.5" stroke-miterlimit="10" stroke-linecap="round" stroke-linejoin="round"/>
<path d="M22.3958 17.1875V19.2708C22.3958 20.1354 21.6979 20.8333 20.8333 20.8333H18.75C18.5208 20.8333 18.3125 20.7812 18.1146 20.6875C17.5729 20.4583 17.1875 19.9062 17.1875 19.2708V17.1875C17.1875 16.3229 17.8854 15.625 18.75 15.625H20.8333C21.6979 15.625 22.3958 16.3229 22.3958 17.1875Z" stroke="#FF4980" stroke-width="1.5" stroke-miterlimit="10" stroke-linecap="round" stroke-linejoin="round"/>
<path d="M15.625 5.72925V8.85425C15.625 9.70841 14.9167 10.4167 14.0625 10.4167H10.9375C10.0833 10.4167 9.375 9.70841 9.375 8.85425V5.72925C9.375 4.87508 10.0833 4.16675 10.9375 4.16675H14.0625C14.9167 4.16675 15.625 4.87508 15.625 5.72925Z" stroke="#FF4980" stroke-width="1.5" stroke-miterlimit="10" stroke-linecap="round" stroke-linejoin="round"/>
<path d="M15.625 8.05225C18.0937 9.30225 19.7917 11.9898 19.7917 15.1043C19.7917 15.2814 19.7812 15.4481 19.7604 15.6252" stroke="#FF4980" stroke-width="1.5" stroke-miterlimit="10" stroke-linecap="round" stroke-linejoin="round"/>
<path d="M5.2395 15.6252C5.21867 15.4481 5.20825 15.2814 5.20825 15.1043C5.20825 11.9898 6.90617 9.30225 9.37492 8.05225" stroke="#FF4980" stroke-width="1.5" stroke-miterlimit="10" stroke-linecap="round" stroke-linejoin="round"/>
</svg>
