<svg width="43" height="43" viewBox="0 0 43 43" fill="none" xmlns="http://www.w3.org/2000/svg">
<path d="M5.37484 16.1252C7.35386 16.1252 8.95817 14.5208 8.95817 12.5418C8.95817 10.5628 7.35386 8.9585 5.37484 8.9585C3.39582 8.9585 1.7915 10.5628 1.7915 12.5418C1.7915 14.5208 3.39582 16.1252 5.37484 16.1252Z" fill="white"/>
<path d="M37.6248 16.1252C39.6039 16.1252 41.2082 14.5208 41.2082 12.5418C41.2082 10.5628 39.6039 8.9585 37.6248 8.9585C35.6458 8.9585 34.0415 10.5628 34.0415 12.5418C34.0415 14.5208 35.6458 16.1252 37.6248 16.1252Z" fill="white"/>
<path d="M13.4373 29.5625V33.1458C13.4373 34.2387 12.7744 35.1883 11.8428 35.5825C11.5023 35.7437 11.144 35.8333 10.7498 35.8333H7.1665C5.67942 35.8333 4.479 34.6329 4.479 33.1458V29.5625C4.479 28.0754 5.67942 26.875 7.1665 26.875H10.7498C12.2369 26.875 13.4373 28.0754 13.4373 29.5625Z" fill="white"/>
<path d="M38.5208 29.5625V33.1458C38.5208 34.6329 37.3204 35.8333 35.8333 35.8333H32.25C31.8558 35.8333 31.4975 35.7437 31.1571 35.5825C30.2254 35.1883 29.5625 34.2387 29.5625 33.1458V29.5625C29.5625 28.0754 30.7629 26.875 32.25 26.875H35.8333C37.3204 26.875 38.5208 28.0754 38.5208 29.5625Z" fill="white"/>
<path d="M26.875 9.854V15.229C26.875 16.6982 25.6567 17.9165 24.1875 17.9165H18.8125C17.3433 17.9165 16.125 16.6982 16.125 15.229V9.854C16.125 8.38484 17.3433 7.1665 18.8125 7.1665H24.1875C25.6567 7.1665 26.875 8.38484 26.875 9.854Z" fill="white"/>
<g opacity="0.4">
<path opacity="0.4" d="M16.1252 11.1978H8.9585C8.22391 11.1978 7.61475 11.8069 7.61475 12.5415C7.61475 13.2761 8.22391 13.8853 8.9585 13.8853H13.5631C9.89016 16.6086 7.61475 21.1236 7.61475 25.979C7.61475 26.3373 7.63266 26.6778 7.68641 27.0361C7.75808 27.717 8.34933 28.2186 9.01225 28.2186C9.066 28.2186 9.11975 28.2186 9.1735 28.2186C9.90808 28.129 10.4456 27.4661 10.356 26.7315C10.3202 26.4806 10.3202 26.2478 10.3202 25.9969C10.3202 21.3386 12.8464 17.0385 16.7522 15.0677C17.4152 14.7273 17.6839 13.9211 17.3435 13.2582C17.3256 13.2403 17.3077 13.2223 17.3077 13.2044C17.4152 13.0073 17.5047 12.7924 17.5047 12.5594C17.4689 11.8069 16.8597 11.1978 16.1252 11.1978Z" fill="white"/>
<path opacity="0.4" d="M29.4371 13.8853H34.0417C34.7763 13.8853 35.3854 13.2761 35.3854 12.5415C35.3854 11.8069 34.7763 11.1978 34.0417 11.1978H26.875C26.1404 11.1978 25.5312 11.8069 25.5312 12.5415C25.5312 12.7744 25.6029 12.9894 25.7283 13.1865C25.7104 13.2044 25.6925 13.2224 25.6925 13.2403C25.3521 13.9032 25.6208 14.7095 26.2838 15.0499C30.1896 17.0207 32.7158 21.3207 32.7158 25.979C32.7158 26.2298 32.6979 26.4627 32.68 26.7135C32.5904 27.4481 33.1279 28.1111 33.8625 28.2007C33.9163 28.2007 33.97 28.2007 34.0238 28.2007C34.7046 28.2007 35.2779 27.699 35.3496 27.0182C35.3854 26.6599 35.4213 26.3194 35.4213 25.9611C35.3854 21.1236 33.11 16.6086 29.4371 13.8853Z" fill="white"/>
</g>
</svg>
