<svg width="30" height="30" viewBox="0 0 30 30" fill="none" xmlns="http://www.w3.org/2000/svg">
<path d="M3.75 11.25C5.13071 11.25 6.25 10.1307 6.25 8.75C6.25 7.36929 5.13071 6.25 3.75 6.25C2.36929 6.25 1.25 7.36929 1.25 8.75C1.25 10.1307 2.36929 11.25 3.75 11.25Z" stroke="white" stroke-width="1.5" stroke-miterlimit="10" stroke-linecap="round" stroke-linejoin="round"/>
<path d="M26.25 11.25C27.6307 11.25 28.75 10.1307 28.75 8.75C28.75 7.36929 27.6307 6.25 26.25 6.25C24.8693 6.25 23.75 7.36929 23.75 8.75C23.75 10.1307 24.8693 11.25 26.25 11.25Z" stroke="white" stroke-width="1.5" stroke-miterlimit="10" stroke-linecap="round" stroke-linejoin="round"/>
<path d="M23.75 8.75H18.75" stroke="white" stroke-width="1.5" stroke-miterlimit="10" stroke-linecap="round" stroke-linejoin="round"/>
<path d="M11.25 8.75H6.25" stroke="white" stroke-width="1.5" stroke-miterlimit="10" stroke-linecap="round" stroke-linejoin="round"/>
<path d="M9.375 20.625V23.125C9.375 23.8875 8.9125 24.55 8.2625 24.825C8.025 24.9375 7.775 25 7.5 25H5C3.9625 25 3.125 24.1625 3.125 23.125V20.625C3.125 19.5875 3.9625 18.75 5 18.75H7.5C8.5375 18.75 9.375 19.5875 9.375 20.625Z" stroke="white" stroke-width="1.5" stroke-miterlimit="10" stroke-linecap="round" stroke-linejoin="round"/>
<path d="M26.875 20.625V23.125C26.875 24.1625 26.0375 25 25 25H22.5C22.225 25 21.975 24.9375 21.7375 24.825C21.0875 24.55 20.625 23.8875 20.625 23.125V20.625C20.625 19.5875 21.4625 18.75 22.5 18.75H25C26.0375 18.75 26.875 19.5875 26.875 20.625Z" stroke="white" stroke-width="1.5" stroke-miterlimit="10" stroke-linecap="round" stroke-linejoin="round"/>
<path d="M18.75 6.875V10.625C18.75 11.65 17.9 12.5 16.875 12.5H13.125C12.1 12.5 11.25 11.65 11.25 10.625V6.875C11.25 5.85 12.1 5 13.125 5H16.875C17.9 5 18.75 5.85 18.75 6.875Z" stroke="white" stroke-width="1.5" stroke-miterlimit="10" stroke-linecap="round" stroke-linejoin="round"/>
<path d="M18.75 9.66248C21.7125 11.1625 23.75 14.3875 23.75 18.125C23.75 18.3375 23.7375 18.5375 23.7125 18.75" stroke="white" stroke-width="1.5" stroke-miterlimit="10" stroke-linecap="round" stroke-linejoin="round"/>
<path d="M6.2875 18.75C6.2625 18.5375 6.25 18.3375 6.25 18.125C6.25 14.3875 8.2875 11.1625 11.25 9.66248" stroke="white" stroke-width="1.5" stroke-miterlimit="10" stroke-linecap="round" stroke-linejoin="round"/>
</svg>
