<svg width="70" height="70" viewBox="0 0 70 70" fill="none" xmlns="http://www.w3.org/2000/svg">
<path d="M48.1999 25.1C48.1999 37.871 37.871 48.1999 25.1 48.1999C24.044 48.1999 23.021 48.1339 22.031 47.9689C10.712 46.4839 2 36.815 2 25.1C2 12.329 12.329 2 25.1 2C36.815 2 46.4839 10.712 47.9689 22.031C48.1339 23.021 48.1999 24.044 48.1999 25.1Z" stroke="#6E7CFD" stroke-width="3" stroke-linecap="round" stroke-linejoin="round"/>
<path d="M68.0009 44.9C68.0009 57.671 57.6719 67.9999 44.901 67.9999C33.186 67.9999 23.517 59.288 22.032 47.969C23.022 48.134 24.045 48.2 25.101 48.2C37.872 48.2 48.201 37.871 48.201 25.1C48.201 24.044 48.1349 23.021 47.9699 22.031C59.2889 23.516 68.0009 33.185 68.0009 44.9Z" stroke="#6E7CFD" stroke-width="3" stroke-linecap="round" stroke-linejoin="round"/>
<path d="M42.0945 41.9955L46.4175 46.2525" stroke="#6E7CFD" stroke-width="3" stroke-linecap="round" stroke-linejoin="round"/>
<path d="M51.5002 34.9998L48.2002 31.6998" stroke="#6E7CFD" stroke-width="3" stroke-linecap="round" stroke-linejoin="round"/>
<path d="M35.0002 51.4998L31.7002 48.1998" stroke="#6E7CFD" stroke-width="3" stroke-linecap="round" stroke-linejoin="round"/>
</svg>
