<svg width="26" height="26" viewBox="0 0 26 26" fill="none" xmlns="http://www.w3.org/2000/svg">
<path d="M16.889 13.2815C19.9584 13.2815 22.4466 10.7933 22.4466 7.72401C22.4466 4.65469 19.9584 2.1665 16.889 2.1665C13.8197 2.1665 11.3315 4.65469 11.3315 7.72401C11.3315 10.7933 13.8197 13.2815 16.889 13.2815Z" stroke="#FF760E" stroke-width="1.5" stroke-miterlimit="10"/>
<path d="M6.88987 21.0598C8.73266 21.0598 10.2266 19.5659 10.2266 17.7231C10.2266 15.8804 8.73266 14.3865 6.88987 14.3865C5.04708 14.3865 3.55322 15.8804 3.55322 17.7231C3.55322 19.5659 5.04708 21.0598 6.88987 21.0598Z" stroke="#FF760E" stroke-width="1.5" stroke-miterlimit="10"/>
<path d="M18.0048 23.833C19.5364 23.833 20.7781 22.5914 20.7781 21.0597C20.7781 19.528 19.5364 18.2864 18.0048 18.2864C16.4731 18.2864 15.2314 19.528 15.2314 21.0597C15.2314 22.5914 16.4731 23.833 18.0048 23.833Z" stroke="#FF760E" stroke-width="1.5" stroke-miterlimit="10"/>
</svg>
