<svg width="42" height="42" viewBox="0 0 42 42" fill="none" xmlns="http://www.w3.org/2000/svg">
<path opacity="0.5" d="M33.6173 11.1301C31.7973 7.45514 28.2798 4.74264 24.2023 3.85014C19.9323 2.90514 15.5573 3.92014 12.2148 6.61514C8.85477 9.29264 6.94727 13.3001 6.94727 17.5876C6.94727 22.1201 9.65977 26.8626 13.7548 29.6101V31.0626C13.7373 31.5526 13.7198 32.3051 14.3148 32.9176C14.9273 33.5476 15.8373 33.6176 16.5548 33.6176H25.5323C26.4773 33.6176 27.1948 33.3551 27.6848 32.8651C28.3498 32.1826 28.3323 31.3076 28.3148 30.8351V29.6101C33.7398 25.9526 37.1523 18.2351 33.6173 11.1301Z" fill="white"/>
<path d="M26.705 38.5C26.6 38.5 26.4775 38.4825 26.3725 38.4475C22.855 37.45 19.1625 37.45 15.645 38.4475C14.9975 38.6225 14.315 38.255 14.14 37.6075C13.9475 36.96 14.3325 36.2775 14.98 36.1025C18.935 34.9825 23.1 34.9825 27.055 36.1025C27.7025 36.295 28.0875 36.96 27.895 37.6075C27.72 38.15 27.23 38.5 26.705 38.5Z" fill="white"/>
<path d="M21.0001 24.2376C20.7726 24.2376 20.5451 24.1851 20.3526 24.0626C19.7226 23.6951 19.5126 22.8901 19.8626 22.2776L21.3501 19.6876H19.8801C19.0051 19.6876 18.2876 19.3026 17.9026 18.6551C17.5176 17.9901 17.5526 17.1851 17.9901 16.4151L19.8626 13.1601C20.2301 12.5301 21.0351 12.3201 21.6476 12.6701C22.2776 13.0376 22.4876 13.8426 22.1376 14.4551L20.6501 17.0626H22.1201C22.9951 17.0626 23.7126 17.4476 24.0976 18.0951C24.4826 18.7601 24.4476 19.5651 24.0101 20.3351L22.1376 23.5901C21.8926 24.0101 21.4551 24.2376 21.0001 24.2376Z" fill="white"/>
</svg>
