<svg width="72" height="72" viewBox="0 0 72 72" fill="none" xmlns="http://www.w3.org/2000/svg">
<path d="M65.01 20.85C63.09 14.34 57.66 8.90996 51.15 6.98996C46.2 5.54996 42.78 5.66996 40.41 7.43996C37.56 9.56996 37.23 13.41 37.23 16.14V23.61C37.23 30.99 40.59 34.74 47.19 34.74H55.8C58.5 34.74 62.37 34.41 64.5 31.56C66.33 29.22 66.48 25.8 65.01 20.85Z" fill="#F84436"/>
<path opacity="0.1" d="M56.7299 40.0802C55.9499 39.1802 54.8099 38.6702 53.6399 38.6702H42.8999C37.6199 38.6702 33.3299 34.3802 33.3299 29.1002V18.3602C33.3299 17.1902 32.8199 16.0502 31.9199 15.2702C31.0499 14.4902 29.8499 14.1302 28.7099 14.2802C21.6599 15.1802 15.1799 19.0502 10.9499 24.8702C6.68994 30.7202 5.12994 37.8602 6.47994 45.0002C8.42994 55.3202 16.6799 63.5702 27.0299 65.5202C28.6799 65.8502 30.3299 66.0002 31.9799 66.0002C37.4099 66.0002 42.6599 64.3202 47.1299 61.0502C52.9499 56.8202 56.8199 50.3402 57.7199 43.2902C57.8699 42.1202 57.5099 40.9502 56.7299 40.0802Z" fill="#F84436"/>
</svg>
