<svg width="38" height="38" viewBox="0 0 38 38" fill="none" xmlns="http://www.w3.org/2000/svg">
<path d="M20.336 11.1248C20.4182 11.0496 20.4836 10.9594 20.5283 10.8596C20.573 10.7598 20.596 10.6525 20.596 10.5441C20.596 10.4357 20.573 10.3284 20.5283 10.2286C20.4836 10.1288 20.4182 10.0386 20.336 9.96336C20.1717 9.80811 19.9493 9.72095 19.7175 9.72095C19.4856 9.72095 19.2633 9.80811 19.0989 9.96336C19.0184 10.0395 18.9545 10.13 18.9109 10.2297C18.8672 10.3293 18.8448 10.4362 18.8448 10.5441C18.8448 10.652 18.8672 10.7589 18.9109 10.8585C18.9545 10.9582 19.0184 11.0487 19.0989 11.1248C19.2775 11.2516 19.4945 11.32 19.7175 11.32C19.9404 11.32 20.1574 11.2516 20.336 11.1248Z" fill="#FF7A7A"/>
<path d="M35.2081 25.1267V8.15618C35.8841 8.15618 36.5324 7.90125 37.0104 7.44746C37.4884 6.99366 37.757 6.37819 37.757 5.73643C37.757 5.09467 37.4884 4.47919 37.0104 4.0254C36.5324 3.57161 35.8841 3.31667 35.2081 3.31667H21.4783V2.47782C21.4783 1.82066 21.2033 1.19042 20.7139 0.725739C20.2244 0.261056 19.5605 0 18.8683 0C18.1761 0 17.5122 0.261056 17.0227 0.725739C16.5333 1.19042 16.2583 1.82066 16.2583 2.47782V3.31667H2.58283C1.89782 3.31667 1.24086 3.57501 0.756483 4.03485C0.272107 4.49469 0 5.11838 0 5.76869C0 6.41901 0.272107 7.04268 0.756483 7.50252C1.24086 7.96237 1.89782 8.22071 2.58283 8.22071V25.1912C1.89782 25.1912 1.24086 25.4496 0.756483 25.9094C0.272107 26.3693 0 26.9929 0 27.6433C0 28.2936 0.272107 28.9173 0.756483 29.3771C1.24086 29.8369 1.89782 30.0953 2.58283 30.0953H17.0671L11.3713 36.677C11.244 36.8541 11.1877 37.0686 11.2126 37.2816C11.2376 37.4947 11.3421 37.6923 11.5072 37.8385C11.6958 37.9603 11.924 38.0142 12.1508 37.9905C12.3775 37.9669 12.588 37.8672 12.7443 37.7094L18.1002 31.4503V36.4189C18.1002 36.6431 18.194 36.8581 18.361 37.0166C18.528 37.1751 18.7545 37.2642 18.9906 37.2642C19.2268 37.2642 19.4533 37.1751 19.6202 37.0166C19.7872 36.8581 19.881 36.6431 19.881 36.4189V31.4503L25.237 37.7094C25.3918 37.8696 25.6025 37.9709 25.83 37.9946C26.0575 38.0184 26.2864 37.9629 26.4741 37.8385C26.6443 37.6953 26.7525 37.4972 26.7776 37.2826C26.8027 37.068 26.743 36.8522 26.61 36.677L20.8462 29.9017H35.3305C35.6763 29.921 36.0227 29.8724 36.3479 29.759C36.6731 29.6455 36.9703 29.4697 37.2207 29.2424C37.4712 29.0152 37.6696 28.7413 37.8036 28.438C37.9377 28.1347 38.0045 27.8084 37.9998 27.4795C37.9951 27.1506 37.9191 26.8262 37.7765 26.5264C37.6338 26.2267 37.4277 25.958 37.1708 25.7372C36.914 25.5165 36.612 25.3483 36.2836 25.2433C35.9553 25.1382 35.6077 25.0986 35.2625 25.1267H35.2081ZM1.70602 5.76869C1.71127 5.54667 1.80697 5.33522 1.97302 5.17879C2.13906 5.02236 2.36251 4.93313 2.59641 4.92984H17.2234C17.4573 4.92656 17.6808 4.83733 17.8468 4.6809C18.0129 4.52447 18.1086 4.31302 18.1138 4.09099V2.47782C18.1334 2.26555 18.236 2.06794 18.4014 1.92397C18.5669 1.78 18.7832 1.70014 19.0076 1.70014C19.2321 1.70014 19.4484 1.78 19.6138 1.92397C19.7793 2.06794 19.8819 2.26555 19.9014 2.47782V4.09099C19.9067 4.31302 20.0024 4.52447 20.1684 4.6809C20.3345 4.83733 20.5579 4.92656 20.7918 4.92984H35.412C35.6464 4.92984 35.8711 5.01823 36.0368 5.17554C36.2025 5.33285 36.2956 5.54622 36.2956 5.76869C36.2956 5.99117 36.2025 6.20453 36.0368 6.36185C35.8711 6.51916 35.6464 6.60754 35.412 6.60754H2.78673C2.14782 6.54302 1.73321 6.15585 1.73321 5.76869H1.70602ZM4.31604 8.15618H33.4885V9.76935H22.3279C22.2119 9.76935 22.097 9.79104 21.9898 9.8332C21.8826 9.87536 21.7852 9.93715 21.7031 10.015C21.6211 10.0929 21.556 10.1854 21.5116 10.2872C21.4672 10.389 21.4443 10.498 21.4443 10.6082C21.4443 10.7184 21.4672 10.8274 21.5116 10.9292C21.556 11.031 21.6211 11.1235 21.7031 11.2014C21.7852 11.2792 21.8826 11.341 21.9898 11.3832C22.097 11.4253 22.2119 11.447 22.3279 11.447H33.5157V25.1912H4.34323L4.31604 8.15618ZM35.2081 28.3531H2.58283C2.34848 28.3531 2.12373 28.2647 1.95802 28.1074C1.79231 27.95 1.69923 27.7367 1.69923 27.5142C1.69923 27.2917 1.79231 27.0784 1.95802 26.9211C2.12373 26.7637 2.34848 26.6754 2.58283 26.6754H35.2081C35.442 26.6786 35.6655 26.7679 35.8315 26.9243C35.9976 27.0807 36.0933 27.2922 36.0985 27.5142C36.0811 27.7323 35.9815 27.9371 35.818 28.0911C35.6545 28.2452 35.438 28.3382 35.2081 28.3531Z" fill="#FF7A7A"/>
<path d="M29.1932 12.9957H26.6512C26.4168 12.9957 26.1921 13.0841 26.0264 13.2414C25.8606 13.3987 25.7675 13.6121 25.7675 13.8345C25.7675 14.057 25.8606 14.2704 26.0264 14.4277C26.1921 14.585 26.4168 14.6734 26.6512 14.6734H27.1337L22.2943 19.2548C22.0158 19.0309 21.6884 18.8685 21.3358 18.7793C20.9832 18.69 20.6142 18.6761 20.2552 18.7386L17.5365 16.222C17.9222 15.7876 18.1404 15.2414 18.155 14.6734C18.155 14.0162 17.88 13.386 17.3905 12.9213C16.901 12.4566 16.2372 12.1956 15.545 12.1956C14.8527 12.1956 14.1889 12.4566 13.6994 12.9213C13.2099 13.386 12.9349 14.0162 12.9349 14.6734C12.9372 15.3254 13.208 15.9506 13.6894 16.4156L11.6503 19.0612C11.2753 18.8571 10.8522 18.7462 10.4201 18.7386C9.86962 18.733 9.33169 18.8945 8.88472 19.1995C8.43775 19.5046 8.10512 19.9372 7.93537 20.4343C7.76562 20.9315 7.76763 21.4671 7.94108 21.9631C8.11453 22.459 8.45034 22.8894 8.89957 23.1915C9.3488 23.4935 9.88795 23.6514 10.4383 23.6421C10.9887 23.6328 11.5216 23.4568 11.9592 23.1397C12.3968 22.8227 12.7163 22.3812 12.871 21.8797C13.0258 21.3782 13.0077 20.8428 12.8194 20.3517C15.3614 17.1254 15.2935 17.319 15.3614 17.1899H16.0411L18.7191 19.7065C18.3334 20.1409 18.1152 20.6871 18.1006 21.2551C18.1024 21.5788 18.1713 21.899 18.3034 22.1974C18.4356 22.4958 18.6283 22.7666 18.8707 22.9943C19.1131 23.222 19.4003 23.4021 19.716 23.5245C20.0317 23.6468 20.3697 23.7088 20.7106 23.7071C21.0838 23.7072 21.4524 23.6302 21.791 23.4814C22.1296 23.3325 22.43 23.1154 22.6713 22.8452C22.9125 22.575 23.0889 22.2582 23.1882 21.9167C23.2874 21.5753 23.3071 21.2174 23.2459 20.868L28.4659 15.9639V16.222C28.4659 16.4462 28.5597 16.6612 28.7267 16.8198C28.8937 16.9783 29.1202 17.0673 29.3563 17.0673C29.5925 17.0673 29.819 16.9783 29.9859 16.8198C30.1529 16.6612 30.2467 16.4462 30.2467 16.222V13.8345C30.1899 13.6055 30.0567 13.4001 29.8668 13.2489C29.6769 13.0977 29.4406 13.0089 29.1932 12.9957ZM10.3181 21.9004C10.1437 21.8991 9.97348 21.8488 9.82907 21.7559C9.68466 21.6629 9.57246 21.5315 9.50663 21.3781C9.44079 21.2247 9.42427 21.0563 9.45913 20.894C9.49398 20.7317 9.57868 20.5828 9.70252 20.4661C9.82636 20.3495 9.98381 20.2702 10.155 20.2384C10.3262 20.2065 10.5035 20.2235 10.6646 20.2872C10.8257 20.3509 10.9633 20.4584 11.0601 20.5962C11.1569 20.734 11.2085 20.8959 11.2085 21.0615C11.2033 21.2836 11.1076 21.495 10.9415 21.6514C10.7755 21.8079 10.552 21.8971 10.3181 21.9004ZM15.4974 13.8345C15.6718 13.8358 15.842 13.8861 15.9864 13.979C16.1308 14.072 16.243 14.2034 16.3089 14.3568C16.3747 14.5102 16.3912 14.6787 16.3564 14.841C16.3215 15.0033 16.2368 15.1521 16.113 15.2688C15.9891 15.3855 15.8317 15.4647 15.6605 15.4966C15.4893 15.5284 15.312 15.5114 15.1509 15.4478C14.9898 15.3841 14.8522 15.2766 14.7554 15.1388C14.6586 15.0009 14.607 14.839 14.607 14.6734C14.6122 14.4514 14.7079 14.2399 14.874 14.0835C15.04 13.9271 15.2635 13.8378 15.4974 13.8345ZM20.6427 21.9004C20.4685 21.8978 20.299 21.8465 20.1555 21.7528C20.012 21.6591 19.9009 21.5272 19.8361 21.3737C19.7713 21.2202 19.7557 21.052 19.7913 20.8901C19.8269 20.7283 19.9121 20.58 20.0362 20.464C20.1603 20.3479 20.3178 20.2693 20.4888 20.238C20.6598 20.2067 20.8368 20.224 20.9975 20.2879C21.1581 20.3517 21.2953 20.4592 21.3918 20.5969C21.4883 20.7345 21.5399 20.8962 21.5399 21.0615C21.5372 21.1748 21.511 21.2865 21.4627 21.39C21.4143 21.4936 21.3449 21.5871 21.2583 21.6651C21.1718 21.7431 21.0698 21.804 20.9583 21.8444C20.8468 21.8848 20.728 21.9038 20.6087 21.9004H20.6427Z" fill="#FF7A7A"/>
<path d="M6.8849 33.9673H3.45245V35.5805H6.8849V33.9673Z" fill="#FF7A7A"/>
<path d="M10.3175 32.354H6.88507V33.9672H10.3175V32.354Z" fill="#FF7A7A"/>
<path d="M31.8028 33.9673H28.3704V35.5805H31.8028V33.9673Z" fill="#FF7A7A"/>
<path d="M35.2352 32.354H31.8027V33.9672H35.2352V32.354Z" fill="#FF7A7A"/>
</svg>
