<svg width="35" height="34" viewBox="0 0 35 34" fill="none" xmlns="http://www.w3.org/2000/svg">
<path d="M12.3857 15.8846C12.5846 15.8846 12.7753 15.8056 12.916 15.665C13.0566 15.5243 13.1356 15.3336 13.1356 15.1347C13.1356 14.9358 13.0566 14.745 12.916 14.6044C12.7753 14.4637 12.5846 14.3847 12.3857 14.3847C11.8043 14.3847 11.2467 14.1538 10.8356 13.7427C10.4245 13.3315 10.1935 12.774 10.1935 12.1926C10.1935 11.6112 10.4245 11.0536 10.8356 10.6425C11.2467 10.2314 11.8043 10.0004 12.3857 10.0004C12.5846 10.0004 12.7753 9.92141 12.916 9.78077C13.0566 9.64013 13.1356 9.44937 13.1356 9.25048C13.1356 9.05158 13.0566 8.86083 12.916 8.72018C12.7753 8.57954 12.5846 8.50053 12.3857 8.50053C11.4151 8.4959 10.482 8.87549 9.79027 9.55641C9.09853 10.2373 8.70431 11.1643 8.69365 12.1349C8.69054 13.1204 9.07669 14.0672 9.76811 14.7694C10.4595 15.4717 11.4003 15.8724 12.3857 15.8846Z" fill="#C275FF"/>
<path d="M12.1316 11.789C11.9921 11.6503 11.8034 11.5723 11.6066 11.5723C11.4099 11.5723 11.2211 11.6503 11.0817 11.789C11.0133 11.8571 10.959 11.938 10.922 12.0271C10.885 12.1162 10.8659 12.2118 10.8659 12.3082C10.8659 12.4047 10.885 12.5003 10.922 12.5894C10.959 12.6785 11.0133 12.7594 11.0817 12.8274L11.8374 13.5774C11.9768 13.7162 12.1656 13.7941 12.3624 13.7941C12.5591 13.7941 12.7479 13.7162 12.8873 13.5774L15.1025 11.3852C15.1709 11.3172 15.2252 11.2362 15.2622 11.1472C15.2992 11.0581 15.3183 10.9625 15.3183 10.866C15.3183 10.7696 15.2992 10.674 15.2622 10.5849C15.2252 10.4958 15.1709 10.4149 15.1025 10.3468C14.9631 10.208 14.7743 10.1301 14.5776 10.1301C14.3808 10.1301 14.1921 10.208 14.0526 10.3468L12.3854 12.0198L12.1316 11.789Z" fill="#C275FF"/>
<path d="M16.7353 12.308H19.6485C19.8474 12.308 20.0382 12.229 20.1788 12.0883C20.3195 11.9477 20.3985 11.7569 20.3985 11.5581C20.3985 11.3592 20.3195 11.1684 20.1788 11.0278C20.0382 10.8871 19.8474 10.8081 19.6485 10.8081H16.7353C16.5364 10.8081 16.3456 10.8871 16.205 11.0278C16.0644 11.1684 15.9853 11.3592 15.9853 11.5581C15.9853 11.7569 16.0644 11.9477 16.205 12.0883C16.3456 12.229 16.5364 12.308 16.7353 12.308Z" fill="#C275FF"/>
<path d="M21.8002 12.308H22.5616C22.7605 12.308 22.9513 12.229 23.0919 12.0883C23.2326 11.9477 23.3116 11.7569 23.3116 11.5581C23.3116 11.3592 23.2326 11.1684 23.0919 11.0278C22.9513 10.8871 22.7605 10.8081 22.5616 10.8081H21.8002C21.6006 10.8096 21.4095 10.8887 21.2674 11.0287C21.1252 11.1687 21.0432 11.3586 21.0387 11.5581C21.0536 11.7539 21.139 11.9378 21.2789 12.0756C21.4189 12.2135 21.6041 12.296 21.8002 12.308Z" fill="#C275FF"/>
<path d="M16.7353 14.4428H25.475C25.6739 14.4428 25.8647 14.3638 26.0053 14.2231C26.146 14.0825 26.225 13.8917 26.225 13.6928C26.225 13.4939 26.146 13.3032 26.0053 13.1625C25.8647 13.0219 25.6739 12.9429 25.475 12.9429H16.7353C16.5364 12.9429 16.3456 13.0219 16.205 13.1625C16.0644 13.3032 15.9853 13.4939 15.9853 13.6928C15.9853 13.8917 16.0644 14.0825 16.205 14.2231C16.3456 14.3638 16.5364 14.4428 16.7353 14.4428Z" fill="#C275FF"/>
<path d="M12.3856 23.8458C12.5845 23.8458 12.7752 23.7667 12.9159 23.6261C13.0565 23.4855 13.1355 23.2947 13.1355 23.0958C13.1355 22.8969 13.0565 22.7062 12.9159 22.5655C12.7752 22.4249 12.5845 22.3459 12.3856 22.3459C11.8042 22.3459 11.2466 22.1149 10.8355 21.7038C10.4244 21.2927 10.1934 20.7351 10.1934 20.1537C10.1934 19.5723 10.4244 19.0147 10.8355 18.6036C11.2466 18.1925 11.8042 17.9616 12.3856 17.9616C12.5845 17.9616 12.7752 17.8825 12.9159 17.7419C13.0565 17.6013 13.1355 17.4105 13.1355 17.2116C13.1355 17.0127 13.0565 16.822 12.9159 16.6813C12.7752 16.5407 12.5845 16.4617 12.3856 16.4617C11.4189 16.4631 10.4918 16.8454 9.80506 17.5257C9.1183 18.206 8.72725 19.1294 8.71663 20.096C8.71343 21.0776 9.09642 22.021 9.78288 22.7226C10.4693 23.4241 11.4042 23.8276 12.3856 23.8458Z" fill="#C275FF"/>
<path d="M13.9951 18.2498L12.3048 19.9227L12.0741 19.692C11.9346 19.5532 11.7459 19.4753 11.5491 19.4753C11.3524 19.4753 11.1636 19.5532 11.0242 19.692C10.9544 19.7593 10.8989 19.8399 10.861 19.9291C10.823 20.0183 10.8035 20.1143 10.8035 20.2112C10.8035 20.3081 10.823 20.404 10.861 20.4933C10.8989 20.5825 10.9544 20.6631 11.0242 20.7304L11.8087 21.4803C11.9482 21.6191 12.1369 21.697 12.3337 21.697C12.5304 21.697 12.7192 21.6191 12.8587 21.4803L15.0739 19.2882C15.1423 19.2201 15.1965 19.1392 15.2335 19.0501C15.2705 18.961 15.2896 18.8655 15.2896 18.769C15.2896 18.6725 15.2705 18.577 15.2335 18.4879C15.1965 18.3988 15.1423 18.3179 15.0739 18.2498C15.0044 18.1766 14.9207 18.1184 14.828 18.0786C14.7352 18.0388 14.6354 18.0183 14.5345 18.0183C14.4336 18.0183 14.3337 18.0388 14.241 18.0786C14.1483 18.1184 14.0646 18.1766 13.9951 18.2498Z" fill="#C275FF"/>
<path d="M16.7353 20.2113H19.6485C19.8474 20.2113 20.0382 20.1323 20.1788 19.9917C20.3195 19.851 20.3985 19.6603 20.3985 19.4614C20.3985 19.2625 20.3195 19.0717 20.1788 18.9311C20.0382 18.7904 19.8474 18.7114 19.6485 18.7114H16.7353C16.5364 18.7114 16.3456 18.7904 16.205 18.9311C16.0644 19.0717 15.9853 19.2625 15.9853 19.4614C15.9853 19.6603 16.0644 19.851 16.205 19.9917C16.3456 20.1323 16.5364 20.2113 16.7353 20.2113Z" fill="#C275FF"/>
<path d="M21.8002 18.769C21.6013 18.769 21.4106 18.8481 21.2699 18.9887C21.1293 19.1293 21.0503 19.3201 21.0503 19.519C21.0503 19.7179 21.1293 19.9086 21.2699 20.0493C21.4106 20.1899 21.6013 20.2689 21.8002 20.2689H22.5617C22.7606 20.2689 22.9514 20.1899 23.092 20.0493C23.2326 19.9086 23.3117 19.7179 23.3117 19.519C23.3117 19.3201 23.2326 19.1293 23.092 18.9887C22.9514 18.8481 22.7606 18.769 22.5617 18.769H21.8002Z" fill="#C275FF"/>
<path d="M16.7353 22.4037H22.5618C22.7607 22.4037 22.9514 22.3247 23.0921 22.184C23.2327 22.0434 23.3117 21.8527 23.3117 21.6538C23.3117 21.4549 23.2327 21.2641 23.0921 21.1235C22.9514 20.9828 22.7607 20.9038 22.5618 20.9038H16.7353C16.5364 20.9038 16.3456 20.9828 16.205 21.1235C16.0644 21.2641 15.9853 21.4549 15.9853 21.6538C15.9853 21.8527 16.0644 22.0434 16.205 22.184C16.3456 22.3247 16.5364 22.4037 16.7353 22.4037Z" fill="#C275FF"/>
<path d="M2.16907 28.1724C1.73652 28.1769 1.31499 28.3093 0.957538 28.553C0.600089 28.7966 0.322707 29.1405 0.160321 29.5415C-0.00206477 29.9424 -0.0421996 30.3824 0.0449729 30.8061C0.132145 31.2299 0.342731 31.6183 0.650207 31.9226C0.957684 32.2268 1.3483 32.4333 1.7729 32.5161C2.19749 32.5988 2.63707 32.5541 3.0363 32.3875C3.43552 32.2209 3.77653 31.9399 4.0164 31.58C4.25627 31.22 4.38428 30.7971 4.3843 30.3645C4.3709 29.7833 4.13249 29.2301 3.71929 28.8212C3.30609 28.4123 2.75034 28.1797 2.16907 28.1724ZM2.16907 31.0568C2.021 31.0556 1.87658 31.0107 1.75402 30.9276C1.63145 30.8445 1.53622 30.727 1.48035 30.5898C1.42447 30.4527 1.41044 30.3021 1.44002 30.157C1.46961 30.0119 1.54148 29.8788 1.64659 29.7745C1.7517 29.6702 1.88533 29.5994 2.03064 29.5709C2.17596 29.5424 2.32646 29.5576 2.46315 29.6145C2.59985 29.6715 2.71664 29.7676 2.79879 29.8908C2.88095 30.014 2.92479 30.1587 2.92479 30.3068C2.90141 30.4986 2.81412 30.6768 2.67702 30.8129C2.53992 30.9489 2.36098 31.0349 2.16907 31.0568Z" fill="#C275FF"/>
<path d="M3.21915 7.98169C2.8662 7.98511 2.52216 8.09288 2.23036 8.29145C1.93855 8.49002 1.71204 8.7705 1.57933 9.09756C1.44663 9.42463 1.41367 9.78364 1.48462 10.1294C1.55556 10.4752 1.72724 10.7922 1.97802 11.0406C2.2288 11.2889 2.54746 11.4575 2.89388 11.5252C3.24031 11.5928 3.59899 11.5564 3.92475 11.4205C4.25052 11.2847 4.52881 11.0554 4.72456 10.7617C4.92031 10.468 5.02477 10.123 5.02479 9.77002C5.02023 9.29414 4.82797 8.8393 4.48984 8.50442C4.15171 8.16953 3.69505 7.98167 3.21915 7.98169ZM3.21915 10.1162C3.15069 10.1162 3.08377 10.0958 3.02685 10.0578C2.96992 10.0198 2.92557 9.96573 2.89937 9.90248C2.87317 9.83923 2.86631 9.76964 2.87967 9.7025C2.89302 9.63535 2.92598 9.57368 2.97439 9.52527C3.0228 9.47686 3.08448 9.4439 3.15162 9.43054C3.21876 9.41719 3.28836 9.42404 3.35161 9.45024C3.41485 9.47644 3.46891 9.5208 3.50694 9.57772C3.54498 9.63464 3.56528 9.70157 3.56528 9.77002C3.62297 9.94309 3.4499 10.1162 3.21915 10.1162Z" fill="#C275FF"/>
<path d="M32.3458 6.53934C32.8468 6.53479 33.3353 6.38206 33.7496 6.10039C34.164 5.81873 34.4858 5.42073 34.6743 4.95654C34.8629 4.49235 34.9099 3.98273 34.8094 3.49188C34.7088 3.00103 34.4653 2.55091 34.1094 2.19823C33.7535 1.84555 33.3012 1.60609 32.8095 1.51C32.3177 1.41392 31.8086 1.46552 31.3461 1.65829C30.8836 1.85107 30.4886 2.1764 30.2107 2.5933C29.9328 3.0102 29.7845 3.50003 29.7844 4.00107C29.7935 4.67543 30.067 5.31927 30.546 5.794C31.0251 6.26873 31.6714 6.53638 32.3458 6.53934ZM32.3458 2.90499C32.4905 2.90423 32.6339 2.93198 32.7679 2.98665C32.9019 3.04132 33.0238 3.12185 33.1266 3.22363C33.2295 3.32541 33.3113 3.44645 33.3673 3.57984C33.4234 3.71324 33.4527 3.85637 33.4534 4.00107C33.4534 4.29482 33.3367 4.57655 33.129 4.78427C32.9213 4.99198 32.6396 5.10868 32.3458 5.10868C32.052 5.10868 31.7703 4.99198 31.5626 4.78427C31.3549 4.57655 31.2382 4.29482 31.2382 4.00107C31.2389 3.85637 31.2682 3.71324 31.3243 3.57984C31.3803 3.44645 31.4621 3.32541 31.565 3.22363C31.6678 3.12185 31.7897 3.04132 31.9237 2.98665C32.0577 2.93198 32.2011 2.90423 32.3458 2.90499Z" fill="#C275FF"/>
<path d="M29.1155 20.9613V7.05847C29.1139 6.70041 29.0418 6.34616 28.9032 6.01601C28.7646 5.68585 28.5623 5.38628 28.3078 5.13443C28.0532 4.88258 27.7515 4.68341 27.4199 4.54831C27.0883 4.41322 26.7333 4.34485 26.3753 4.34713H24.6446C24.4855 3.72422 24.1248 3.17144 23.6187 2.77493C23.1127 2.37841 22.4896 2.16044 21.8467 2.15498H20.2315C20.0689 1.5328 19.703 0.982813 19.192 0.592395C18.681 0.201977 18.0541 -0.00647598 17.4111 0.000153371C16.7681 0.00678272 16.1457 0.228115 15.6428 0.628985C15.14 1.02986 14.7855 1.58727 14.6357 2.21267H13.0608C12.4177 2.21445 11.7935 2.43116 11.2876 2.82835C10.7817 3.22554 10.4231 3.78043 10.2687 4.40482H8.5381C8.18004 4.40254 7.82505 4.4709 7.49344 4.606C7.16184 4.7411 6.86014 4.94027 6.60561 5.19212C6.35109 5.44396 6.14873 5.74354 6.01013 6.07369C5.87154 6.40385 5.79942 6.7581 5.79791 7.11616V31.2875C5.79942 31.6456 5.87154 31.9998 6.01013 32.33C6.14873 32.6601 6.35109 32.9597 6.60561 33.2115C6.86014 33.4634 7.16184 33.6626 7.49344 33.7977C7.82505 33.9327 8.18004 34.0011 8.5381 33.9988H26.3637C26.6196 33.9935 26.8737 33.9547 27.1194 33.8835C28.0634 34.0641 29.0356 34.0344 29.9668 33.7964C30.898 33.5584 31.7652 33.118 32.5067 32.5065C33.2482 31.895 33.8457 31.1275 34.2566 30.2587C34.6676 29.3899 34.8819 28.4412 34.8843 27.4801C34.9119 25.869 34.3349 24.306 33.267 23.0993C32.1991 21.8927 30.7179 21.1299 29.1155 20.9613ZM13.0897 3.65487H15.2703C15.4688 3.65194 15.6585 3.57216 15.7994 3.43231C15.9403 3.29246 16.0216 3.10342 16.026 2.90493C16.0493 2.53445 16.213 2.18678 16.4836 1.93268C16.7542 1.67857 17.1114 1.53713 17.4826 1.53713C17.8539 1.53713 18.2111 1.67857 18.4817 1.93268C18.7523 2.18678 18.9159 2.53445 18.9393 2.90493C18.9438 3.10441 19.0258 3.29429 19.168 3.43429C19.3101 3.5743 19.5012 3.65342 19.7007 3.65487H21.9102C22.2927 3.65487 22.6595 3.80682 22.93 4.07728C23.2005 4.34775 23.3524 4.71458 23.3524 5.09707C23.3524 5.47957 23.2005 5.8464 22.93 6.11687C22.6595 6.38733 22.2927 6.53928 21.9102 6.53928H13.182C12.9909 6.54235 12.8012 6.50727 12.6239 6.4361C12.4465 6.36493 12.2852 6.25909 12.1493 6.12478C12.0134 5.99048 11.9056 5.8304 11.8323 5.65394C11.759 5.47747 11.7217 5.28815 11.7225 5.09707C11.7081 4.91279 11.7321 4.72752 11.7929 4.55296C11.8537 4.3784 11.9501 4.21833 12.0758 4.08284C12.2015 3.94735 12.354 3.83937 12.5235 3.76571C12.693 3.69205 12.876 3.65431 13.0608 3.65487H13.0897ZM8.54964 32.4989C8.21143 32.499 7.88681 32.3658 7.64604 32.1283C7.40528 31.8908 7.26774 31.568 7.26319 31.2298V7.05847C7.26759 6.72523 7.40115 6.4067 7.63573 6.16997C7.87031 5.93323 8.1876 5.79678 8.52079 5.78933H10.2514C10.4129 6.38984 10.7641 6.92208 11.2527 7.30673C11.7413 7.69137 12.3411 7.90782 12.9628 7.92379H22.0544C22.1541 7.93277 22.2543 7.91274 22.3429 7.86611C22.8927 7.7716 23.4034 7.51967 23.8129 7.14082C24.2225 6.76197 24.5134 6.27248 24.6504 5.73165H26.381C26.7182 5.73313 27.0414 5.86695 27.2809 6.10432C27.5204 6.34168 27.6572 6.6636 27.6617 7.00078V20.9036C26.0658 21.0753 24.5893 21.8293 23.5143 23.0213C22.4394 24.2132 21.8416 25.7596 21.8352 27.3647C21.8339 28.3329 22.0542 29.2885 22.4792 30.1584C22.9041 31.0283 23.5225 31.7895 24.287 32.3836H8.52079L8.54964 32.4989ZM28.4174 32.4989C27.4154 32.4898 26.4385 32.1844 25.6097 31.621C24.781 31.0577 24.1375 30.2617 23.7603 29.3333C23.3832 28.405 23.2892 27.3857 23.4903 26.404C23.6913 25.4223 24.1784 24.5221 24.8902 23.8167C25.602 23.1114 26.5066 22.6324 27.49 22.4403C28.4735 22.2481 29.4919 22.3513 30.4168 22.7368C31.3417 23.1224 32.1319 23.7731 32.6877 24.6069C33.2435 25.4407 33.5401 26.4203 33.5401 27.4224C33.5356 28.0941 33.3987 28.7583 33.1373 29.3771C32.8759 29.9958 32.4951 30.557 32.0166 31.0285C31.5382 31.5 30.9715 31.8725 30.349 32.1248C29.7264 32.3771 29.0603 32.5043 28.3886 32.4989H28.4174Z" fill="#C275FF"/>
<path d="M18.1891 25.2878H10.1474C10.0489 25.2878 9.95137 25.3072 9.86038 25.3449C9.76939 25.3826 9.68672 25.4379 9.61708 25.5075C9.54744 25.5771 9.4922 25.6598 9.45451 25.7508C9.41683 25.8418 9.39743 25.9393 9.39743 26.0378C9.39743 26.1363 9.41683 26.2338 9.45451 26.3248C9.4922 26.4158 9.54744 26.4984 9.61708 26.5681C9.68672 26.6377 9.76939 26.693 9.86038 26.7306C9.95137 26.7683 10.0489 26.7877 10.1474 26.7877H18.1891C18.3876 26.7848 18.5773 26.705 18.7182 26.5652C18.8591 26.4253 18.9404 26.2363 18.9448 26.0378C18.9324 25.842 18.8486 25.6575 18.7094 25.5193C18.5701 25.3811 18.385 25.2987 18.1891 25.2878Z" fill="#C275FF"/>
<path d="M18.1891 27.4224H10.1474C10.0489 27.4224 9.95137 27.4418 9.86038 27.4794C9.76939 27.5171 9.68672 27.5724 9.61708 27.642C9.54744 27.7117 9.4922 27.7943 9.45451 27.8853C9.41683 27.9763 9.39743 28.0738 9.39743 28.1723C9.39743 28.2708 9.41683 28.3683 9.45451 28.4593C9.4922 28.5503 9.54744 28.633 9.61708 28.7026C9.68672 28.7722 9.76939 28.8275 9.86038 28.8652C9.95137 28.9029 10.0489 28.9223 10.1474 28.9223H18.1891C18.3876 28.9193 18.5773 28.8395 18.7182 28.6997C18.8591 28.5598 18.9404 28.3708 18.9448 28.1723C18.9224 27.9802 18.8355 27.8014 18.6982 27.6651C18.5609 27.5289 18.3814 27.4433 18.1891 27.4224Z" fill="#C275FF"/>
<path d="M31.0649 26.2686L28.4458 27.1339L25.821 25.4033C25.6653 25.2984 25.475 25.2578 25.2901 25.2901C25.1051 25.3224 24.9398 25.4249 24.8288 25.5764C24.776 25.6524 24.7387 25.7382 24.7191 25.8287C24.6996 25.9192 24.698 26.0127 24.7147 26.1038C24.7313 26.1949 24.7657 26.2819 24.816 26.3596C24.8662 26.4374 24.9314 26.5045 25.0076 26.5571L27.9209 28.4608C28.0125 28.5271 28.1204 28.5675 28.2331 28.5776C28.3458 28.5878 28.4592 28.5673 28.5612 28.5185L31.4745 27.5378C31.5675 27.5105 31.6539 27.4644 31.7285 27.4024C31.803 27.3404 31.864 27.2639 31.9078 27.1774C31.9516 27.0909 31.9772 26.9963 31.983 26.8996C31.9889 26.8028 31.9748 26.7059 31.9417 26.6147C31.8605 26.4623 31.7277 26.3437 31.567 26.2803C31.4063 26.2168 31.2283 26.2127 31.0649 26.2686Z" fill="#C275FF"/>
</svg>
