<svg width="25" height="26" viewBox="0 0 25 26" fill="none" xmlns="http://www.w3.org/2000/svg">
<path d="M6.63542 10.2077C2.38542 10.519 2.39584 16.8625 6.63542 17.1738H16.6979C17.9167 17.1845 19.0938 16.7123 20 15.8643C22.9792 13.1809 21.3854 7.81406 17.4584 7.29885C16.0521 -1.43831 3.77085 1.8784 6.6771 10.2077" stroke="#2707EF" stroke-width="1.5" stroke-miterlimit="10" stroke-linecap="round" stroke-linejoin="round"/>
<path d="M12.5 17.1737V20.3938" stroke="#2707EF" stroke-width="1.5" stroke-miterlimit="10" stroke-linecap="round" stroke-linejoin="round"/>
<path d="M12.5 24.6872C13.6506 24.6872 14.5833 23.7261 14.5833 22.5405C14.5833 21.3549 13.6506 20.3938 12.5 20.3938C11.3494 20.3938 10.4167 21.3549 10.4167 22.5405C10.4167 23.7261 11.3494 24.6872 12.5 24.6872Z" stroke="#2707EF" stroke-width="1.5" stroke-miterlimit="10" stroke-linecap="round" stroke-linejoin="round"/>
<path d="M18.75 22.5405H14.5833" stroke="#2707EF" stroke-width="1.5" stroke-miterlimit="10" stroke-linecap="round" stroke-linejoin="round"/>
<path d="M10.4167 22.5405H6.25" stroke="#2707EF" stroke-width="1.5" stroke-miterlimit="10" stroke-linecap="round" stroke-linejoin="round"/>
</svg>
