<svg width="42" height="42" viewBox="0 0 42 42" fill="none" xmlns="http://www.w3.org/2000/svg">
<path opacity="0.4" d="M21.0001 38.5C30.6651 38.5 38.5001 30.665 38.5001 21C38.5001 11.335 30.6651 3.5 21.0001 3.5C11.3351 3.5 3.50012 11.335 3.50012 21C3.50012 30.665 11.3351 38.5 21.0001 38.5Z" fill="white"/>
<path d="M13.9999 25.8123C13.6674 25.8123 13.3349 25.6899 13.0724 25.4274L9.5724 21.9274C9.0649 21.4199 9.0649 20.5798 9.5724 20.0723L13.0724 16.5723C13.5799 16.0648 14.4199 16.0648 14.9274 16.5723C15.4349 17.0798 15.4349 17.9199 14.9274 18.4274L12.3549 20.9998L14.9274 23.5723C15.4349 24.0798 15.4349 24.9199 14.9274 25.4274C14.6649 25.6899 14.3324 25.8123 13.9999 25.8123Z" fill="white"/>
<path d="M27.9999 25.8123C27.6674 25.8123 27.3349 25.6899 27.0724 25.4274C26.5649 24.9199 26.5649 24.0798 27.0724 23.5723L29.6449 20.9998L27.0724 18.4274C26.5649 17.9199 26.5649 17.0798 27.0724 16.5723C27.5799 16.0648 28.4199 16.0648 28.9274 16.5723L32.4274 20.0723C32.9349 20.5798 32.9349 21.4199 32.4274 21.9274L28.9274 25.4274C28.6649 25.6899 28.3324 25.8123 27.9999 25.8123Z" fill="white"/>
<path d="M19.2501 26.39C19.0751 26.39 18.9001 26.355 18.7426 26.285C18.0776 26.005 17.7626 25.235 18.0601 24.5525L21.5601 16.3799C21.8401 15.7149 22.6101 15.3999 23.2751 15.6974C23.9401 15.9774 24.2551 16.7475 23.9576 17.43L20.4576 25.6025C20.2476 26.0925 19.7576 26.39 19.2501 26.39Z" fill="white"/>
</svg>
