<svg width="29" height="29" viewBox="0 0 29 29" fill="none" xmlns="http://www.w3.org/2000/svg">
<path d="M14.3262 15.4723V12.0133C14.3262 11.8464 14.2599 11.6863 14.1419 11.5682C14.0239 11.4502 13.8638 11.3839 13.6969 11.3839C13.53 11.3839 13.3699 11.4502 13.2518 11.5682C13.1338 11.6863 13.0675 11.8464 13.0675 12.0133V15.4723C12.8071 15.5878 12.5859 15.7763 12.4306 16.0151C12.2754 16.254 12.1929 16.5327 12.1931 16.8175C12.1895 17.0882 12.2589 17.3548 12.3941 17.5893C12.5294 17.8238 12.7254 18.0174 12.9615 18.1497C13.1976 18.2821 13.4651 18.3482 13.7356 18.3412C14.0062 18.3342 14.2699 18.2543 14.4989 18.1099C14.7278 17.9655 14.9135 17.762 15.0365 17.5209C15.1594 17.2797 15.2149 17.0099 15.1973 16.7398C15.1796 16.4697 15.0893 16.2094 14.936 15.9863C14.7827 15.7632 14.572 15.5857 14.3262 15.4723ZM13.6969 17.1058C13.6204 17.1058 13.5471 17.0754 13.493 17.0214C13.439 16.9673 13.4086 16.894 13.4086 16.8175C13.4086 16.7411 13.439 16.6678 13.493 16.6137C13.5471 16.5597 13.6204 16.5293 13.6969 16.5293C13.7733 16.5293 13.8466 16.5597 13.9007 16.6137C13.9548 16.6678 13.9851 16.7411 13.9851 16.8175C13.9851 16.894 13.9548 16.9673 13.9007 17.0214C13.8466 17.0754 13.7733 17.1058 13.6969 17.1058Z" fill="#473BEF"/>
<path d="M22.3446 8.36206L22.4887 8.12185C22.8011 7.67054 22.9253 7.11523 22.8348 6.57385C22.7443 6.03248 22.4464 5.5477 22.0042 5.22249C21.5621 4.89728 21.0105 4.75726 20.4668 4.83216C19.923 4.90706 19.4299 5.19098 19.0921 5.62363L18.8952 5.91189C17.9193 5.46905 16.8933 5.1464 15.8397 4.95103V3.55779H16.469C16.7102 3.55969 16.9494 3.51391 17.1728 3.42307C17.3962 3.33224 17.5995 3.19814 17.7709 3.02849C17.9424 2.85884 18.0786 2.65698 18.1718 2.43451C18.2649 2.21204 18.3132 1.97336 18.3138 1.73217C18.3052 1.49362 18.2492 1.25917 18.149 1.04251C18.0488 0.825858 17.9064 0.631344 17.7302 0.470327C17.554 0.309311 17.3474 0.185023 17.1226 0.104721C16.8979 0.0244201 16.6593 -0.0102859 16.4209 0.00263363H10.9777C10.4935 0.00263363 10.0292 0.194974 9.68682 0.537345C9.34445 0.879716 9.15208 1.34407 9.15208 1.82826C9.15208 2.31244 9.34445 2.77679 9.68682 3.11916C10.0292 3.46153 10.4935 3.65388 10.9777 3.65388H11.6119V5.04712C10.2001 5.30995 8.83943 5.7965 7.58111 6.4884L7.2448 5.76776C7.16875 5.62441 7.04137 5.51507 6.88815 5.46162C6.73493 5.40817 6.56716 5.41456 6.41845 5.4795C6.27413 5.55203 6.16324 5.67726 6.10869 5.82929C6.05413 5.98131 6.06012 6.1485 6.1254 6.29623L6.5626 7.161C5.01444 8.24999 3.75184 9.69643 2.88202 11.3775C2.01219 13.0586 1.56081 14.9248 1.56615 16.8176C1.55767 18.8105 2.04031 20.7747 2.97139 22.5368C3.90248 24.2988 5.25333 25.8043 6.90454 26.9201C8.55575 28.036 10.4565 28.7279 12.4386 28.9346C14.4207 29.1413 16.4233 28.8565 18.2692 28.1053C20.1151 27.3541 21.7475 26.1597 23.0221 24.6277C24.2967 23.0957 25.1742 21.2733 25.5771 19.3216C25.98 17.3698 25.8958 15.3489 25.332 13.4374C24.7683 11.5259 23.7422 9.78276 22.3446 8.36206ZM19.9425 6.53645L20.0386 6.39232C20.1067 6.29469 20.194 6.21193 20.2951 6.14905C20.3962 6.08616 20.509 6.04447 20.6267 6.0265C20.7444 6.00854 20.8646 6.01465 20.9798 6.0445C21.0951 6.07435 21.2031 6.1273 21.2973 6.20014C21.4861 6.3419 21.6122 6.55159 21.649 6.78477C21.6857 7.01796 21.6302 7.25629 21.4943 7.44925L21.3982 7.54534C20.936 7.17695 20.4497 6.8399 19.9425 6.53645ZM10.3339 1.82826C10.3377 1.66295 10.4053 1.50552 10.5227 1.38905C10.64 1.27258 10.798 1.20615 10.9633 1.2037H16.445C16.6106 1.2037 16.7695 1.26951 16.8866 1.38663C17.0037 1.50376 17.0695 1.66262 17.0695 1.82826C17.0695 1.9939 17.0037 2.15276 16.8866 2.26988C16.7695 2.38701 16.6106 2.45282 16.445 2.45282H10.9777C10.8153 2.43764 10.663 2.36744 10.5459 2.25387C10.4288 2.14029 10.354 1.99013 10.3339 1.82826ZM13.6969 27.6272C10.9427 27.6474 8.28466 26.615 6.26615 24.741C4.24763 22.8669 3.02101 20.2928 2.83698 17.5446C2.65295 14.7964 3.5254 12.0817 5.27603 9.95527C7.02666 7.82884 9.52328 6.45125 12.2557 6.10406C12.3975 6.08434 12.5281 6.01615 12.6253 5.91105C12.7225 5.80596 12.7803 5.67045 12.7889 5.52755V3.60584H14.6338V5.52755C14.6334 5.67324 14.6881 5.81369 14.7871 5.92065C14.886 6.02761 15.0218 6.09313 15.167 6.10406C17.8994 6.45125 20.396 7.82884 22.1467 9.95527C23.8973 12.0817 24.7697 14.7964 24.5857 17.5446C24.4017 20.2928 23.1751 22.8669 21.1565 24.741C19.138 26.615 16.48 27.6474 13.7258 27.6272H13.6969Z" fill="#473BEF"/>
<path d="M1.80642 24.024C1.44619 24.0278 1.09513 24.1381 0.797446 24.341C0.499762 24.5438 0.26875 24.8303 0.133515 25.1642C-0.00171954 25.4981 -0.0351438 25.8645 0.0374535 26.2174C0.110051 26.5703 0.285448 26.8938 0.541515 27.1472C0.797581 27.4006 1.12288 27.5725 1.47648 27.6414C1.83008 27.7103 2.19617 27.6731 2.52864 27.5343C2.86111 27.3956 3.14511 27.1616 3.34488 26.8618C3.54464 26.5621 3.65125 26.2099 3.65127 25.8496C3.65065 25.6084 3.60234 25.3697 3.50917 25.1473C3.416 24.9248 3.27979 24.7229 3.10836 24.5533C2.93692 24.3836 2.73363 24.2495 2.5102 24.1587C2.28677 24.0679 2.0476 24.0221 1.80642 24.024ZM1.80642 26.4261C1.68332 26.4242 1.56352 26.386 1.46208 26.3162C1.36064 26.2465 1.28209 26.1483 1.23629 26.034C1.19049 25.9197 1.17948 25.7944 1.20465 25.6739C1.22983 25.5534 1.29006 25.443 1.37778 25.3567C1.46549 25.2703 1.57678 25.2117 1.69766 25.1884C1.81854 25.1651 1.94362 25.178 2.05719 25.2255C2.17075 25.2731 2.26775 25.3531 2.33596 25.4556C2.40417 25.5581 2.44057 25.6784 2.44059 25.8016C2.43684 25.9677 2.36853 26.1258 2.25013 26.2424C2.13174 26.359 1.97258 26.4249 1.80642 26.4261Z" fill="#473BEF"/>
<path d="M26.361 1.82837C25.9437 1.83216 25.5369 1.95935 25.1918 2.19392C24.8468 2.42849 24.5788 2.75995 24.4217 3.14653C24.2647 3.53311 24.2256 3.95752 24.3093 4.3663C24.393 4.77508 24.5958 5.14993 24.8922 5.44365C25.1886 5.73736 25.5653 5.93679 25.9748 6.01681C26.3843 6.09683 26.8083 6.05386 27.1935 5.89331C27.5786 5.73277 27.9077 5.46183 28.1391 5.11464C28.3705 4.76744 28.494 4.35951 28.4941 3.94225C28.4865 3.38064 28.2587 2.84445 27.8598 2.44909C27.4608 2.05374 26.9226 1.83084 26.361 1.82837ZM26.361 4.80702C26.2405 4.80765 26.121 4.78454 26.0094 4.73901C25.8979 4.69348 25.7963 4.62641 25.7107 4.54165C25.625 4.45689 25.5569 4.35609 25.5102 4.245C25.4635 4.13391 25.4392 4.01471 25.4385 3.89421C25.4366 3.71137 25.4891 3.53209 25.5893 3.37914C25.6895 3.22619 25.8329 3.10647 26.0013 3.03518C26.1696 2.96389 26.3554 2.94425 26.535 2.97874C26.7145 3.01324 26.8798 3.10033 27.0097 3.22894C27.1397 3.35756 27.2285 3.52189 27.2649 3.70108C27.3013 3.88027 27.2836 4.06623 27.214 4.23534C27.1445 4.40445 27.0263 4.54908 26.8744 4.65087C26.7225 4.75266 26.5438 4.80701 26.361 4.80702Z" fill="#473BEF"/>
<path d="M23.0606 16.7215C23.0329 14.3407 22.0761 12.0651 20.3943 10.3798C20.341 10.3042 20.2742 10.2391 20.1973 10.1877C18.4192 8.47988 16.0444 7.53418 13.5791 7.55213C11.1138 7.57008 8.753 8.55026 6.99997 10.2837C5.68202 11.5781 4.78163 13.2372 4.41472 15.0477C4.0478 16.8581 4.23117 18.7369 4.94121 20.4422C5.65124 22.1475 6.85542 23.6013 8.39877 24.6164C9.94211 25.6314 11.754 26.1613 13.601 26.1378C16.0412 26.1259 18.3842 25.1804 20.1493 23.4955C20.2354 23.4565 20.3051 23.3885 20.3463 23.3033C22.0141 21.6087 22.9684 19.339 23.0126 16.9617V16.8656C23.1087 16.7695 23.1087 16.7215 23.0606 16.7215ZM20.9756 17.4421H21.8644C21.7452 19.1626 21.0708 20.7979 19.9427 22.1023L19.3085 21.4777C19.1924 21.3621 19.0352 21.2972 18.8713 21.2972C18.7075 21.2972 18.5503 21.3621 18.4341 21.4777C18.3772 21.5344 18.332 21.6018 18.3012 21.676C18.2704 21.7502 18.2545 21.8297 18.2545 21.9101C18.2545 21.9904 18.2704 22.07 18.3012 22.1442C18.332 22.2184 18.3772 22.2858 18.4341 22.3425L19.0683 22.967C17.7393 24.1164 16.0665 24.7923 14.3121 24.8887V24.024C14.3121 23.857 14.2458 23.697 14.1277 23.5789C14.0097 23.4609 13.8496 23.3946 13.6827 23.3946C13.5158 23.3946 13.3557 23.4609 13.2377 23.5789C13.1197 23.697 13.0533 23.857 13.0533 24.024V24.8887C11.3182 24.7709 9.66722 24.097 8.34516 22.967L8.97452 22.3425C9.03264 22.2864 9.07889 22.2193 9.11046 22.145C9.14204 22.0707 9.15832 21.9908 9.15832 21.9101C9.15832 21.8294 9.14204 21.7495 9.11046 21.6752C9.07889 21.6009 9.03264 21.5337 8.97452 21.4777C8.85838 21.3621 8.7012 21.2972 8.53735 21.2972C8.37349 21.2972 8.21628 21.3621 8.10014 21.4777L7.56687 22.1023C6.42769 20.8047 5.75174 19.1655 5.64516 17.4421H6.49072C6.65636 17.4421 6.81523 17.3763 6.93235 17.2592C7.04948 17.1421 7.11527 16.9832 7.11527 16.8176C7.11527 16.6519 7.04948 16.4931 6.93235 16.3759C6.81523 16.2588 6.65636 16.193 6.49072 16.193H5.61634C5.75786 14.4654 6.45576 12.8302 7.60532 11.5329L8.23948 12.1574C8.3548 12.2727 8.51118 12.3375 8.67425 12.3375C8.83733 12.3375 8.99373 12.2727 9.10906 12.1574C9.16718 12.1014 9.21339 12.0342 9.24497 11.9599C9.27654 11.8856 9.29282 11.8057 9.29282 11.725C9.29282 11.6443 9.27654 11.5644 9.24497 11.4901C9.21339 11.4158 9.16718 11.3487 9.10906 11.2926L8.4797 10.6681C9.79528 9.52754 11.4499 8.85216 13.1879 8.74637V9.61114C13.1879 9.77806 13.2542 9.93814 13.3722 10.0562C13.4902 10.1742 13.6503 10.2405 13.8172 10.2405C13.9842 10.2405 14.1442 10.1742 14.2623 10.0562C14.3803 9.93814 14.4466 9.77806 14.4466 9.61114V8.74637C16.1861 8.88316 17.8361 9.57346 19.1548 10.7161L18.5014 11.3407C18.4433 11.3967 18.397 11.4639 18.3655 11.5382C18.3339 11.6124 18.3176 11.6923 18.3176 11.7731C18.3176 11.8538 18.3339 11.9337 18.3655 12.008C18.397 12.0823 18.4433 12.1494 18.5014 12.2054C18.6167 12.3207 18.7731 12.3855 18.9362 12.3855C19.0993 12.3855 19.2557 12.3207 19.371 12.2054L20.0051 11.5809C21.1462 12.8773 21.8224 14.5172 21.9268 16.241H21.0525C20.8871 16.2435 20.7292 16.3099 20.6118 16.4264C20.4945 16.5429 20.4268 16.7003 20.4231 16.8656C20.4144 16.9413 20.4226 17.0181 20.4469 17.0903C20.4713 17.1625 20.5113 17.2285 20.564 17.2836C20.6168 17.3386 20.681 17.3814 20.7521 17.4088C20.8233 17.4362 20.8996 17.4475 20.9756 17.4421Z" fill="#473BEF"/>
<path d="M2.44053 4.23035H0.0143738V5.43141H2.44053V4.23035Z" fill="#473BEF"/>
<path d="M4.86679 3.0293H2.44064V4.23036H4.86679V3.0293Z" fill="#473BEF"/>
<path d="M4.86679 5.43152H2.44064V6.63259H4.86679V5.43152Z" fill="#473BEF"/>
<path d="M2.44053 1.82837H0.0143738V3.02944H2.44053V1.82837Z" fill="#473BEF"/>
<path d="M4.86679 0.627197H2.44064V1.82827H4.86679V0.627197Z" fill="#473BEF"/>
</svg>
