<svg width="26" height="26" viewBox="0 0 26 26" fill="none" xmlns="http://www.w3.org/2000/svg">
<path d="M14.5494 16.2498H4.76687C2.7952 16.2498 1.53853 14.1373 2.49187 12.404L5.01604 7.81065L7.3777 3.50981C8.36354 1.72231 10.9419 1.72231 11.9277 3.50981L14.3002 7.81065L15.4377 9.87982L16.8244 12.404C17.7777 14.1373 16.521 16.2498 14.5494 16.2498Z" stroke="white" stroke-width="1.5" stroke-linecap="round" stroke-linejoin="round"/>
<path d="M23.8333 16.7914C23.8333 20.6806 20.6808 23.8331 16.7917 23.8331C12.9025 23.8331 9.75 20.6806 9.75 16.7914C9.75 16.6073 9.76083 16.4339 9.77167 16.2498H14.5492C16.5208 16.2498 17.7775 14.1373 16.8242 12.4039L15.4375 9.87975C15.8708 9.79308 16.3258 9.74976 16.7917 9.74976C20.6808 9.74976 23.8333 12.9023 23.8333 16.7914Z" stroke="white" stroke-width="1.5" stroke-linecap="round" stroke-linejoin="round"/>
</svg>
