<svg width="1063" height="110" viewBox="0 0 1063 110" fill="none" xmlns="http://www.w3.org/2000/svg">
<path d="M2.97937 19.8338C2.17604 20.277 1.01259 19.3905 0.375468 18.0886C-0.261656 16.7867 -0.040048 15.2077 0.680179 14.8199C1.40041 14.4321 2.73006 15.18 3.28408 16.6205C3.8381 18.0609 3.7827 19.3905 2.97937 19.8338Z" fill="#30BB9A"/>
<path d="M15.1401 37.7009C14.5583 38.4211 12.37 37.2023 10.3201 34.9308C8.27021 32.6593 7.54998 29.9723 8.35331 29.3906C9.15664 28.8089 11.1234 30.2771 12.7855 32.6039C14.4475 34.9308 15.7495 36.9253 15.1401 37.7009Z" fill="#30BB9A"/>
<path d="M33.783 46.1496C33.783 47.0914 31.3176 47.8394 28.2428 47.1745C25.168 46.5097 23.312 44.5984 23.6721 43.7396C24.0322 42.8809 26.4422 43.0748 28.9353 43.7396C31.4284 44.4045 33.783 45.1247 33.783 46.1496Z" fill="#30BB9A"/>
<path d="M53.8662 41.8282C54.1986 42.7423 52.2318 44.2935 49.4617 45.2908C46.6916 46.288 44.1985 45.9833 43.9215 45.0415C43.6445 44.0996 45.7498 42.6869 48.4368 41.9113C51.1238 41.1356 53.5615 40.914 53.8662 41.8282Z" fill="#30BB9A"/>
<path d="M72.8693 33.2409C73.2017 34.1551 71.4011 35.8725 68.7972 37.119C66.1933 38.3656 63.7833 38.6149 63.4232 37.7285C63.0631 36.842 64.8913 35.0969 67.4952 33.8504C70.0991 32.6038 72.5091 32.2437 72.8693 33.2409Z" fill="#30BB9A"/>
<path d="M92.2877 25.734C92.5093 26.7036 90.4871 28.0609 87.8278 29.0027C85.1685 29.9446 82.7308 29.9169 82.4261 29.0027C82.1214 28.0886 84.0882 26.5651 86.8583 25.6232C89.6284 24.6814 92.0661 24.9307 92.2877 25.734Z" fill="#30BB9A"/>
<path d="M112.676 22.7979C112.676 23.7674 110.459 24.7646 107.689 25.0139C104.919 25.2632 102.454 24.6815 102.454 23.712C102.454 22.7425 104.587 21.7452 107.468 21.4959C110.349 21.2466 112.676 21.8283 112.676 22.7979Z" fill="#30BB9A"/>
<path d="M133.174 24.6537C132.953 25.5956 130.598 25.9003 127.883 25.3462C125.169 24.7922 122.952 23.9612 123.008 22.9917C123.063 22.0221 125.446 21.4958 128.354 21.8559C131.263 22.216 133.423 23.7119 133.174 24.6537Z" fill="#30BB9A"/>
<path d="M149.934 36.4542C149.075 36.8697 147.524 35.2077 145.723 33.2686C143.922 31.3295 142.316 29.5567 142.787 28.6426C143.258 27.7284 145.751 28.3933 148.022 30.7478C150.294 33.1024 150.737 36.011 149.934 36.4542Z" fill="#30BB9A"/>
<path d="M148.576 57.7562C148.244 57.3684 148.41 56.7036 148.576 55.8449C148.533 55.3287 148.533 54.8098 148.576 54.2936C148.576 53.6565 148.826 52.964 149.019 52.2437C149.34 51.0376 149.738 49.8532 150.211 48.698C150.654 47.7839 151.152 47.2299 151.623 47.2853C152.094 47.3407 152.371 47.9778 152.51 49.0581C152.719 50.4332 152.653 51.8362 152.316 53.1856C152.113 53.9121 151.863 54.6246 151.568 55.3185C151.331 55.9444 151.005 56.5323 150.598 57.0637C149.684 58.0055 148.853 58.1717 148.576 57.7562Z" fill="#30BB9A"/>
<path d="M130.432 52.2992C131.208 51.7174 133.036 53.0194 135.113 54.626C137.191 56.2327 139.047 57.6177 138.77 58.5872C138.493 59.5568 136 59.3906 133.23 57.5346C130.46 55.6787 129.712 52.7978 130.432 52.2992Z" fill="#30BB9A"/>
<path d="M134.061 32.8256C134.365 33.2134 134.227 33.9613 133.811 34.8478C133.56 35.348 133.273 35.8295 132.953 36.2882C132.642 36.8665 132.29 37.4219 131.9 37.9503C130.376 40.1386 129.13 42.0223 128.243 41.8284C127.357 41.6345 127.385 38.6151 129.268 36.0112C129.707 35.3965 130.188 34.8133 130.709 34.266C131.158 33.8629 131.651 33.5099 132.177 33.2134C133.091 32.5763 133.784 32.4655 134.061 32.8256Z" fill="#30BB9A"/>
<path d="M152.316 23.3517C152.316 24.349 150.266 25.2908 147.773 26.1218C145.28 26.9528 143.008 27.5068 142.537 26.6481C142.066 25.7894 143.811 23.878 146.775 22.77C149.74 21.662 152.316 22.4099 152.316 23.3517Z" fill="#30BB9A"/>
<path d="M172.427 27.7008C172.039 28.6149 169.657 28.4487 167.08 27.3683C164.504 26.288 162.482 25.1246 162.648 24.155C162.814 23.1855 165.418 23.1301 168.188 24.155C170.959 25.18 172.787 26.8143 172.427 27.7008Z" fill="#30BB9A"/>
<path d="M190.626 38.1164C190.183 38.9474 187.856 38.4211 185.363 36.8976C182.87 35.374 181.236 33.4904 181.679 32.6317C182.122 31.7729 184.449 32.2992 186.97 33.8228C189.491 35.3463 191.097 37.2854 190.626 38.1164Z" fill="#30BB9A"/>
<path d="M208.604 49.0582C208.216 49.9446 205.834 49.446 203.313 47.9502C200.792 46.4543 199.103 44.5707 199.546 43.7396C199.989 42.9086 202.316 43.3795 204.865 44.8477C207.413 46.3158 209.02 48.1718 208.604 49.0582Z" fill="#30BB9A"/>
<path d="M227.995 56.4544C227.801 57.4239 225.419 57.6455 222.455 56.8699C219.491 56.0943 217.635 54.4045 217.94 53.5458C218.244 52.6871 220.71 52.7425 223.286 53.5458C225.862 54.3491 228.189 55.4018 227.995 56.4544Z" fill="#30BB9A"/>
<path d="M248.438 59.3629C248.438 60.3325 246.001 60.8865 243.147 60.5818C240.294 60.2771 238.189 59.2521 238.189 58.1718C238.189 57.0915 240.682 56.6759 243.48 56.953C246.278 57.23 248.494 58.3934 248.438 59.3629Z" fill="#30BB9A"/>
<path d="M269.02 60.0277C269.02 60.9972 266.721 61.7729 263.84 61.7452C260.959 61.7175 258.688 60.8864 258.716 59.9169C258.743 58.9474 261.07 58.1717 263.896 58.1995C266.721 58.2272 269.02 59.0582 269.02 60.0277Z" fill="#30BB9A"/>
<path d="M289.63 59.0028C289.63 59.9723 287.469 60.9141 284.588 61.1357C281.707 61.3574 279.38 60.7202 279.353 59.723C279.325 58.7258 281.569 57.8116 284.367 57.59C287.164 57.3684 289.547 58.1718 289.63 59.0028Z" fill="#30BB9A"/>
<path d="M310.018 55.734C310.239 56.6758 308.106 57.8946 305.253 58.504C302.4 59.1135 299.99 58.7256 299.879 57.7838C299.768 56.842 301.901 55.5678 304.644 55.0137C307.386 54.4597 309.796 54.7644 310.018 55.734Z" fill="#30BB9A"/>
<path d="M330.212 51.1911C330.461 52.1329 328.384 53.4902 325.558 54.2105C322.733 54.9307 320.35 54.7645 320.184 53.7949C320.018 52.8254 322.068 51.4681 324.81 50.7756C327.553 50.083 329.963 50.2492 330.212 51.1911Z" fill="#30BB9A"/>
<path d="M349.409 43.1857C349.852 44.0444 348.024 45.7896 345.364 47.0638C342.705 48.3381 340.295 48.6151 339.99 47.7009C339.686 46.7868 341.486 45.0694 344.035 43.8228C346.583 42.5763 348.993 42.327 349.409 43.1857Z" fill="#30BB9A"/>
<path d="M364.894 28.892C365.697 29.3075 365.115 32.1053 363.065 34.5707C361.015 37.0361 358.605 37.9225 358.079 37.1746C357.553 36.4267 358.827 34.4045 360.655 32.1884C362.484 29.9724 364.063 28.4488 364.894 28.892Z" fill="#30BB9A"/>
<path d="M363.148 7.95009C363.841 7.42377 365.918 9.08582 367.109 12.1606C368.301 15.2354 367.83 18.144 367.109 18.1994C366.389 18.2548 365.226 16.1218 364.339 13.518C363.453 10.9141 362.345 8.53181 363.148 7.95009Z" fill="#30BB9A"/>
<path d="M346.223 5.73409C345.614 5.12468 346.749 2.4931 349.658 0.91415C350.872 0.183596 352.299 -0.109656 353.702 0.0831252C354.81 0.277031 355.392 0.803347 355.364 1.24656C355.198 2.27149 353.287 2.79781 351.126 4.01664C348.965 5.23548 346.943 6.45432 346.223 5.73409Z" fill="#30BB9A"/>
<path d="M338.411 25.7341C337.553 25.7341 336.805 22.964 337.442 19.8615C338.079 16.759 339.796 14.543 340.572 14.9308C341.348 15.3186 341.237 17.7009 340.572 20.6094C339.907 23.518 339.353 25.7341 338.411 25.7341Z" fill="#30BB9A"/>
<path d="M345.337 46.1773C344.727 46.7867 342.566 45.374 340.932 42.5762C339.298 39.7784 339.27 37.036 340.101 36.6482C340.932 36.2604 342.4 38.2826 343.758 40.7479C345.115 43.2133 346.057 45.4848 345.337 46.1773Z" fill="#30BB9A"/>
<path d="M362.345 58.1716C362.345 58.6425 361.597 58.8918 360.572 58.9195C359.258 58.9486 357.959 58.6335 356.805 58.0054C354.035 56.7035 352.511 54.3766 353.01 53.6564C353.508 52.9362 355.78 53.6564 358.134 54.7921C359.193 55.3023 360.22 55.8758 361.209 56.5096C361.985 57.0359 362.428 57.6453 362.345 58.1716Z" fill="#30BB9A"/>
<path d="M382.65 56.0664C382.927 56.9805 380.877 58.421 378.052 59.252C375.226 60.083 372.678 59.4736 372.511 58.5041C372.345 57.5346 374.533 56.3434 377.22 55.734C379.907 55.1246 382.234 55.1246 382.65 56.0664Z" fill="#30BB9A"/>
<path d="M401.625 47.23C402.041 48.0887 400.268 50.0001 397.692 51.2189C395.115 52.4378 392.705 52.9364 392.345 52.05C391.985 51.1635 393.758 49.2799 396.279 48.0333C398.8 46.7868 401.154 46.3713 401.625 47.23Z" fill="#30BB9A"/>
<path d="M419.88 36.9806C420.268 37.8393 418.551 39.7506 416.03 41.108C413.509 42.4653 411.127 42.9639 410.711 42.1052C410.296 41.2465 412.013 39.3351 414.534 37.9501C417.055 36.565 419.465 36.011 419.88 36.9806Z" fill="#30BB9A"/>
<path d="M438.939 28.5318C439.16 29.4736 437.193 30.9695 434.562 31.8836C431.93 32.7977 429.576 33.1578 429.215 32.2714C428.855 31.385 430.767 29.6952 433.454 28.5595C436.141 27.4238 438.717 27.7008 438.939 28.5318Z" fill="#30BB9A"/>
<path d="M459.216 24.7646C459.216 25.7341 457.138 26.8421 454.34 27.2576C451.542 27.6732 449.16 27.2576 448.994 26.2327C448.828 25.2078 451.044 24.1551 453.897 23.7396C456.75 23.3241 459.132 23.795 459.216 24.7646Z" fill="#30BB9A"/>
<path d="M479.825 23.6842C479.825 24.6537 477.526 25.5125 474.7 25.5679C471.875 25.6233 469.548 24.9031 469.52 23.9335C469.493 22.964 471.764 22.1053 474.617 22.0499C477.471 21.9945 479.825 22.7147 479.825 23.6842Z" fill="#30BB9A"/>
<path d="M500.407 24.9308C500.407 25.9003 497.914 26.4821 495.116 26.2051C492.318 25.9281 490.075 24.9308 490.269 24.0444C490.462 23.158 492.678 22.4931 495.532 22.7702C498.385 23.0472 500.518 24.0444 500.407 24.9308Z" fill="#30BB9A"/>
<path d="M520.74 29.3076C520.49 30.2494 517.97 30.4433 515.199 29.7231C512.429 29.0029 510.407 27.6732 510.573 26.7314C510.74 25.7896 513.15 25.568 515.975 26.2882C518.801 27.0084 520.906 28.3658 520.74 29.3076Z" fill="#30BB9A"/>
<path d="M539.604 37.8947C539.078 38.698 536.834 38.1163 534.424 36.7313C533.048 36.1987 531.808 35.366 530.795 34.2936C530.463 33.8227 530.324 33.4349 530.463 33.1301C530.601 32.8254 530.934 32.6315 531.515 32.6038C533.087 32.5787 534.642 32.9201 536.058 33.6011C538.468 35.0692 540.13 37.0914 539.604 37.8947Z" fill="#30BB9A"/>
<path d="M554.203 53.4349C553.482 54.0167 551.432 52.5762 549.77 50.2493C548.108 47.9225 547 45.7064 547.499 45.0139C547.997 44.3214 550.269 45.6233 552.236 47.9502C554.202 50.2771 554.95 52.8809 554.203 53.4349Z" fill="#30BB9A"/>
<path d="M563.316 73.2686C562.402 73.5179 561.183 71.3018 560.269 68.5595C559.355 65.8171 558.939 63.324 559.743 62.8531C560.546 62.3822 562.319 64.2658 563.344 67.3406C564.369 70.4154 564.147 73.047 563.316 73.2686Z" fill="#30BB9A"/>
<path d="M565.505 95.3462C564.59 95.3462 563.87 92.8531 563.843 89.806C563.815 86.7589 564.175 84.2659 565.089 84.2659C566.003 84.2659 566.89 86.5927 567.111 89.806C567.333 93.0193 566.391 95.4016 565.505 95.3462Z" fill="#30BB9A"/>
<path d="M552.679 107.451C553.067 106.537 555.255 106.787 557.499 106.427C559.743 106.066 561.543 105.014 562.264 105.679C562.568 105.983 562.457 106.787 561.765 107.728C560.817 108.891 559.477 109.669 557.998 109.917C556.568 110.152 555.101 109.887 553.842 109.169C552.928 108.56 552.513 108.033 552.679 107.451Z" fill="#30BB9A"/>
<path d="M543.815 89.3074C544.729 89.5844 544.895 92.0775 545.144 94.5983C545.394 97.119 546.031 99.529 545.144 100.138C544.756 100.388 544.147 100.138 543.482 99.1689C542.607 97.9817 542.054 96.5886 541.876 95.1246C541.571 91.5512 542.901 89.0304 543.815 89.3074Z" fill="#30BB9A"/>
<path d="M555.754 71.6067C556.308 72.3546 555.117 74.5984 552.984 76.5928C550.851 78.5873 549.105 80.0831 548.385 79.3629C547.665 78.6427 548.662 76.3435 550.657 73.8227C552.651 71.302 555.2 70.8311 555.754 71.6067Z" fill="#30BB9A"/>
<path d="M573.372 60.2494C573.704 61.1635 571.931 62.881 569.41 64.1275C566.89 65.3741 564.618 66.0389 564.147 65.2079C563.676 64.3768 565.394 62.4378 567.942 60.9696C570.491 59.5015 573.122 59.3353 573.372 60.2494Z" fill="#30BB9A"/>
<path d="M593.621 58.1716C593.483 59.1412 591.156 59.6952 588.386 59.3628C587.184 59.2256 586.003 58.9466 584.868 58.5317C584.009 58.2547 583.399 57.8669 583.372 57.3683C583.344 56.8697 583.843 56.3988 584.868 56.0387C586.089 55.7266 587.36 55.6607 588.607 55.8448C591.516 56.0941 593.76 57.1467 593.621 58.1716Z" fill="#30BB9A"/>
<path d="M613.732 63.0194C613.483 63.9612 610.962 64.072 608.33 63.2964C605.699 62.5208 603.566 61.108 603.76 60.1662C603.954 59.2244 606.391 59.0859 609.161 59.8892C611.931 60.6925 613.981 62.0776 613.732 63.0194Z" fill="#30BB9A"/>
<path d="M633.372 69.7785C633.095 70.7203 630.602 70.6926 627.97 69.7785C625.339 68.8644 623.233 67.2854 623.566 66.4821C623.898 65.6788 626.336 65.568 628.968 66.4821C631.599 67.3962 633.621 68.8644 633.372 69.7785Z" fill="#30BB9A"/>
<path d="M653.317 75.2354C653.178 76.2049 650.768 76.4542 647.943 75.7894C645.117 75.1246 643.012 73.8503 643.261 73.0193C643.511 72.1883 646.031 71.8282 648.635 72.4376C651.239 73.047 653.455 74.2659 653.317 75.2354Z" fill="#30BB9A"/>
<path d="M673.871 75.8171C673.871 76.7866 671.71 77.7838 668.802 78.0608C665.893 78.3378 663.539 77.3129 663.566 76.3434C663.594 75.3739 665.893 74.5428 668.663 74.5151C671.433 74.4874 673.733 74.7921 673.871 75.8171Z" fill="#30BB9A"/>
<path d="M693.65 69.8614C694.037 70.7478 692.126 72.4099 689.411 73.5733C686.697 74.7367 684.176 74.5428 683.871 73.5733C683.566 72.6038 685.589 71.1356 688.22 70.2215C690.852 69.3074 693.289 68.975 693.65 69.8614Z" fill="#30BB9A"/>
<path d="M711.323 58.4488C711.877 59.2245 710.409 61.2189 708.026 63.1026C705.644 64.9862 703.317 65.6511 702.846 64.82C702.375 63.989 703.871 62.0499 706.143 60.194C708.414 58.338 710.741 57.7009 711.323 58.4488Z" fill="#30BB9A"/>
<path d="M724.952 41.9113C725.755 42.3545 725.146 44.9584 723.484 47.6453C721.822 50.3323 719.55 51.5789 718.885 50.914C718.22 50.2492 719.107 47.8392 720.852 45.5401C722.597 43.2409 724.148 41.5512 724.952 41.9113Z" fill="#30BB9A"/>
<path d="M727.694 20.4432C728.497 20.1108 730.049 22.4376 730.27 25.8171C730.492 29.1967 729.218 31.662 728.387 31.3573C727.556 31.0526 727.168 28.7257 727.002 25.8171C726.835 22.9086 726.808 20.8033 727.694 20.4432Z" fill="#30BB9A"/>
<path d="M712.32 9.14122C712.154 8.69801 712.597 8.03319 713.594 7.50687C714.908 6.91596 716.386 6.7985 717.777 7.17446C721.074 8.08859 722.569 10.6925 721.988 11.3573C721.406 12.0221 719.218 11.3573 717.002 10.6371C714.785 9.91684 712.708 10.0553 712.32 9.14122Z" fill="#30BB9A"/>
<path d="M703.234 28.0609C702.348 28.0609 702.043 25.2908 702.68 22.1329C703.317 18.9751 704.979 16.9252 705.81 17.2853C706.641 17.6454 706.669 20.2216 705.81 23.0471C704.952 25.8726 704.148 28.1717 703.234 28.0609Z" fill="#30BB9A"/>
<path d="M707.86 49.169C707.195 49.7507 705.09 48.1441 703.761 45.1247C702.431 42.1053 702.736 39.3075 703.594 39.1413C704.453 38.9751 705.644 41.0803 706.725 43.6565C707.805 46.2327 708.608 48.5596 707.86 49.169Z" fill="#30BB9A"/>
<path d="M724.453 61.9114C724.149 62.8255 721.683 62.4931 718.913 61.1911C716.143 59.8892 714.702 57.5623 715.229 56.7867C715.755 56.0111 717.999 56.5651 720.409 58.0332C722.819 59.5014 724.786 60.9418 724.453 61.9114Z" fill="#30BB9A"/>
<path d="M744.481 66.953C744.481 67.9225 741.988 68.3104 739.107 67.784C736.226 67.2577 734.093 66.0943 734.315 65.1525C734.536 64.2106 736.919 63.8228 739.661 64.3214C742.403 64.82 744.564 65.9835 744.481 66.953Z" fill="#30BB9A"/>
<path d="M765.091 67.1467C765.091 68.1162 762.902 69.0027 759.994 69.1412C757.085 69.2797 754.758 68.5594 754.786 67.5899C754.813 66.6204 757.057 65.734 759.855 65.5955C762.653 65.457 764.98 66.1772 765.091 67.1467Z" fill="#30BB9A"/>
<path d="M785.174 62.4099C785.534 63.2687 783.539 64.903 780.742 65.8726C777.944 66.8421 775.451 66.482 775.201 65.5401C774.952 64.5983 777.057 63.2133 779.744 62.493C782.431 61.7728 784.814 61.4958 785.174 62.4099Z" fill="#30BB9A"/>
<path d="M802.902 51.025C803.401 51.856 801.85 53.7951 799.412 55.5125C796.975 57.23 794.648 57.8394 794.204 57.0083C793.761 56.1773 795.285 54.2383 797.667 52.5208C800.049 50.8034 802.404 50.2216 802.902 51.025Z" fill="#30BB9A"/>
<path d="M819.911 38.3379C820.437 39.1689 818.941 41.108 816.615 42.9916C814.288 44.8753 811.989 45.5124 811.462 44.7091C810.936 43.9057 812.432 41.939 814.759 40.083C817.086 38.2271 819.329 37.5345 819.911 38.3379Z" fill="#30BB9A"/>
<path d="M837.723 27.313C838.055 28.1995 836.338 30.0831 833.872 31.4128C831.407 32.7424 828.997 33.2133 828.526 32.3823C828.055 31.5513 829.8 29.6122 832.377 28.2826C834.953 26.9529 837.363 26.3989 837.723 27.313Z" fill="#30BB9A"/>
<path d="M857.446 21.025C857.446 21.9945 855.479 23.3242 852.764 23.989C850.05 24.6538 847.64 24.4322 847.39 23.4904C847.141 22.5485 849.219 21.2466 852.044 20.5264C854.87 19.8062 857.307 20.0555 857.446 21.025Z" fill="#30BB9A"/>
<path d="M878.083 18.8365C878.083 19.806 875.895 20.8032 873.069 21.0248C870.244 21.2465 867.917 20.6924 867.806 19.7229C867.695 18.7534 869.967 17.7562 872.82 17.5068C875.673 17.2575 877.889 17.867 878.083 18.8365Z" fill="#30BB9A"/>
<path d="M898.554 19.3907C898.416 20.3602 896.061 20.9696 893.263 20.748C890.466 20.5264 888.25 19.5569 888.25 18.5874C888.25 17.6178 890.632 16.9807 893.513 17.23C896.394 17.4793 898.665 18.4766 898.554 19.3907Z" fill="#30BB9A"/>
<path d="M918 26.2882C917.502 27.1192 915.23 26.6483 912.793 25.3187C910.355 23.989 908.388 22.5486 908.61 21.7453C908.831 20.9419 911.38 20.9419 914.15 22.0777C916.92 23.2134 918.499 25.4849 918 26.2882Z" fill="#30BB9A"/>
<path d="M930.078 43.7118C929.164 43.9611 927.917 41.8559 926.782 39.2797C925.646 36.7035 924.843 34.3766 925.59 33.7395C926.338 33.1024 928.361 34.7645 929.718 37.7007C931.075 40.637 930.909 43.4625 930.078 43.7118Z" fill="#30BB9A"/>
<path d="M930.715 65.7895C929.801 65.5125 929.579 63.0195 929.856 60.1109C930.133 57.2023 930.826 54.7369 931.685 54.7092C932.543 54.6815 933.264 57.23 933.097 60.4433C932.931 63.6566 931.408 66.0388 930.715 65.7895Z" fill="#30BB9A"/>
<path d="M916.283 78.4211C916.505 77.4515 918.665 77.2299 920.937 76.5374C923.208 75.8449 925.147 74.7923 925.84 75.5125C926.532 76.2327 925.978 76.6205 925.341 77.5623C924.43 78.6871 923.206 79.5162 921.823 79.9446C918.527 80.8864 916.034 79.3075 916.283 78.4211Z" fill="#30BB9A"/>
<path d="M903.374 62.7979C904.344 62.7979 905.258 64.8754 906.311 67.3962C907.363 69.917 908.277 72.1053 907.585 72.9364C906.892 73.7674 904.815 72.1053 903.319 69.0028C901.823 65.9003 902.543 62.881 903.374 62.7979Z" fill="#30BB9A"/>
<path d="M910.106 42.4932C910.798 43.158 909.829 45.4295 908.388 47.8948C906.948 50.3602 905.618 52.2162 904.676 51.8837C903.734 51.5513 904.011 48.7813 905.646 45.9835C907.28 43.1857 909.469 41.856 910.106 42.4932Z" fill="#30BB9A"/>
<path d="M927.945 32.6315C927.945 33.6565 925.895 34.6537 923.319 35.4016C920.743 36.1495 918.499 36.5373 918.056 35.6232C917.613 34.7091 919.524 32.8531 922.46 31.9944C925.397 31.1357 927.945 31.7174 927.945 32.6315Z" fill="#30BB9A"/>
<path d="M948.527 34.0167C948.361 34.9862 945.978 35.4294 943.208 35.0139C940.438 34.5984 938.25 33.4627 938.305 32.4932C938.361 31.5236 940.771 31.0804 943.624 31.5236C946.477 31.9668 948.693 33.0749 948.527 34.0167Z" fill="#30BB9A"/>
<path d="M968.472 39.5844C968.222 40.5262 965.702 40.5816 963.07 39.7506C960.438 38.9196 958.361 37.4514 958.582 36.5096C958.804 35.5678 961.214 35.4847 963.984 36.3434C966.754 37.2021 968.749 38.7811 968.472 39.5844Z" fill="#30BB9A"/>
<path d="M988.056 46.5929C987.752 47.507 985.286 47.4516 982.655 46.4544C980.023 45.4572 978.001 43.9336 978.306 42.9918C978.61 42.05 981.076 42.1331 983.707 43.1303C986.339 44.1275 988.333 45.6788 988.056 46.5929Z" fill="#30BB9A"/>
<path d="M1007.53 53.8503C1007.25 54.7645 1004.76 54.7091 1001.99 53.7118C999.22 52.7146 997.364 51.1633 997.641 50.2492C997.918 49.3351 1000.41 49.3628 1003.18 50.2492C1005.95 51.1356 1007.83 52.9085 1007.53 53.8503Z" fill="#30BB9A"/>
<path d="M1027.25 60.4154C1027.03 61.3573 1024.48 61.4127 1021.71 60.4154C1018.94 59.4182 1016.95 58.0886 1017.23 57.1467C1017.5 56.2049 1020 56.1772 1022.77 57.1467C1025.54 58.1163 1027.5 59.4736 1027.25 60.4154Z" fill="#30BB9A"/>
<path d="M1047.45 65.0416C1047.45 66.0111 1044.93 66.3435 1042.07 65.7895C1039.22 65.2355 1037.09 64.0166 1037.28 63.0194C1037.48 62.0222 1039.89 61.7175 1042.66 62.2715C1045.43 62.8255 1047.56 64.072 1047.45 65.0416Z" fill="#30BB9A"/>
<path d="M1062.96 65.8449C1062.96 66.8421 1061.88 67.6454 1060.38 67.6731C1058.89 67.7008 1057.75 66.9252 1057.78 65.9557C1057.81 64.9862 1058.94 64.1551 1060.33 64.1274C1061.71 64.0997 1062.9 64.8754 1062.96 65.8449Z" fill="#30BB9A"/>
</svg>
