<svg width="25" height="30" viewBox="0 0 25 30" fill="none" xmlns="http://www.w3.org/2000/svg">
<path d="M3.48943 2.44043H12.7603C13.5311 2.44043 14.1665 3.18473 14.1665 4.08765V5.89346C14.1665 6.55234 13.8124 7.36987 13.4686 7.78473L10.4478 10.9083C10.0312 11.3232 9.74986 12.1407 9.74986 12.7996V16.338C9.74986 16.8261 9.46862 17.485 9.11446 17.7412L8.13529 18.4855C7.21862 19.1444 5.95817 18.4001 5.95817 17.0823V12.7263C5.95817 12.1529 5.67695 11.4086 5.3957 10.9937L2.72903 7.69931C2.37487 7.28445 2.09363 6.55235 2.09363 6.05209V4.16086C2.08322 3.18473 2.7186 2.44043 3.48943 2.44043Z" stroke="#518AF8" stroke-width="1.5" stroke-miterlimit="10" stroke-linecap="round" stroke-linejoin="round"/>
<path d="M2.08325 14.6419V18.3024C2.08325 24.4032 4.16659 26.8435 9.37492 26.8435H15.6249C20.8333 26.8435 22.9166 24.4032 22.9166 18.3024V10.9814C22.9166 7.17454 22.1041 4.78302 20.2186 3.53846C19.6874 3.18462 18.6249 2.91618 17.6562 2.73315" stroke="#518AF8" stroke-width="1.5" stroke-linecap="round" stroke-linejoin="round"/>
<path d="M13.5417 15.8621H18.7501" stroke="#518AF8" stroke-width="1.5" stroke-linecap="round" stroke-linejoin="round"/>
<path d="M11.4583 20.7427H18.7499" stroke="#518AF8" stroke-width="1.5" stroke-linecap="round" stroke-linejoin="round"/>
</svg>
