<svg width="52" height="56" viewBox="0 0 52 56" fill="none" xmlns="http://www.w3.org/2000/svg">
<path d="M33.0633 51.7786H18.9366C8.29829 51.7786 3.74829 46.9661 3.74829 35.7141V35.4161C3.74829 25.2411 7.53996 20.337 16.0333 19.489C16.9 19.4203 17.7233 20.1078 17.81 21.0474C17.8966 21.987 17.2466 22.8349 16.3366 22.9266C9.53329 23.5911 6.99829 26.9828 6.99829 35.4391V35.737C6.99829 45.0641 10.1183 48.3641 18.9366 48.3641H33.0633C41.8816 48.3641 45.0016 45.0641 45.0016 35.737V35.4391C45.0016 26.937 42.4233 23.5453 35.49 22.9266C34.6016 22.8349 33.93 22.0099 34.0166 21.0703C34.1033 20.1307 34.8616 19.4203 35.7716 19.512C44.395 20.2911 48.2516 25.2182 48.2516 35.462V35.7599C48.2516 46.9661 43.7016 51.7786 33.0633 51.7786Z" fill="white"/>
<path d="M26 36.6077C25.1117 36.6077 24.375 35.8286 24.375 34.889V5.37231C24.375 4.43273 25.1117 3.65356 26 3.65356C26.8883 3.65356 27.625 4.43273 27.625 5.37231V34.889C27.625 35.8515 26.8883 36.6077 26 36.6077Z" fill="white"/>
<path d="M26 39.1745C25.5884 39.1745 25.1767 39.0141 24.8517 38.6703L17.5934 30.9932C16.965 30.3286 16.965 29.2286 17.5934 28.5641C18.2217 27.8995 19.2617 27.8995 19.89 28.5641L26 35.0266L32.11 28.5641C32.7384 27.8995 33.7784 27.8995 34.4067 28.5641C35.035 29.2286 35.035 30.3286 34.4067 30.9932L27.1484 38.6703C26.8234 39.0141 26.4117 39.1745 26 39.1745Z" fill="white"/>
</svg>
