<svg width="50" height="50" viewBox="0 0 50 50" fill="none" xmlns="http://www.w3.org/2000/svg">
<path d="M21.8545 4.64581L11.4587 8.54164C9.06282 9.43747 7.10449 12.2708 7.10449 14.8333V30.3124C7.10449 32.7708 8.72952 35.9999 10.7087 37.4791L19.667 44.1666C22.6045 46.375 27.4378 46.375 30.3753 44.1666L39.3337 37.4791C41.3128 35.9999 42.9378 32.7708 42.9378 30.3124V14.8333C42.9378 12.2708 40.9795 9.43747 38.5836 8.54164L28.1878 4.64581C26.417 3.99998 23.5836 3.99998 21.8545 4.64581Z" stroke="#2790F0" stroke-width="2" stroke-linecap="round" stroke-linejoin="round"/>
<path d="M25.0002 22.7501C24.9168 22.7501 24.8127 22.7501 24.7293 22.7501C22.771 22.6876 21.2085 21.0625 21.2085 19.0834C21.2085 17.0625 22.8543 15.4167 24.8752 15.4167C26.896 15.4167 28.5419 17.0625 28.5419 19.0834C28.521 21.0834 26.9585 22.6876 25.0002 22.7501Z" stroke="#2790F0" stroke-width="2" stroke-linecap="round" stroke-linejoin="round"/>
<path d="M20.8545 28.5834C18.8545 29.9167 18.8545 32.1042 20.8545 33.4375C23.1253 34.9583 26.8545 34.9583 29.1253 33.4375C31.1253 32.1042 31.1253 29.9167 29.1253 28.5834C26.8753 27.0625 23.1462 27.0625 20.8545 28.5834Z" stroke="#2790F0" stroke-width="2" stroke-linecap="round" stroke-linejoin="round"/>
</svg>
