<svg width="50" height="50" viewBox="0 0 50 50" fill="none" xmlns="http://www.w3.org/2000/svg">
<path d="M27.1042 6.08331L39.3959 11.5416C42.9376 13.1041 42.9376 15.6875 39.3959 17.25L27.1042 22.7083C25.7084 23.3333 23.4167 23.3333 22.0209 22.7083L9.72925 17.25C6.18758 15.6875 6.18758 13.1041 9.72925 11.5416L22.0209 6.08331C23.4167 5.45831 25.7084 5.45831 27.1042 6.08331Z" stroke="#2790F0" stroke-width="2" stroke-linecap="round" stroke-linejoin="round"/>
<path d="M6.25 22.9167C6.25 24.6667 7.5625 26.6876 9.16667 27.3959L23.3125 33.6876C24.3958 34.1667 25.625 34.1667 26.6875 33.6876L40.8333 27.3959C42.4375 26.6876 43.75 24.6667 43.75 22.9167" stroke="#2790F0" stroke-width="2" stroke-linecap="round" stroke-linejoin="round"/>
<path d="M6.25 33.3333C6.25 35.2708 7.39583 37.0208 9.16667 37.8124L23.3125 44.1041C24.3958 44.5833 25.625 44.5833 26.6875 44.1041L40.8333 37.8124C42.6042 37.0208 43.75 35.2708 43.75 33.3333" stroke="#2790F0" stroke-width="2" stroke-linecap="round" stroke-linejoin="round"/>
</svg>
