<svg width="24" height="25" viewBox="0 0 24 25" fill="none" xmlns="http://www.w3.org/2000/svg">
<path d="M16.9702 12.2822V16.7939C16.9702 20.5537 15.4702 22.0576 11.7202 22.0576H7.22021C3.47021 22.0576 1.97021 20.5537 1.97021 16.7939V12.2822C1.97021 8.52246 3.47021 7.01855 7.22021 7.01855H11.7202C15.4702 7.01855 16.9702 8.52246 16.9702 12.2822Z" stroke="#FF4980" stroke-width="1.5" stroke-linecap="round" stroke-linejoin="round"/>
<path d="M21.97 7.51968C21.97 10.3971 19.78 12.7533 16.97 13.0039V12.282C16.97 8.52228 15.47 7.01838 11.72 7.01838H11C11.25 4.20107 13.6 2.00537 16.47 2.00537C19.26 2.00537 21.56 4.08076 21.91 6.78778C21.95 7.01838 21.97 7.26903 21.97 7.51968Z" stroke="#FF4980" stroke-width="1.5" stroke-linecap="round" stroke-linejoin="round"/>
</svg>
