<svg width="36" height="36" viewBox="0 0 36 36" fill="none" xmlns="http://www.w3.org/2000/svg">
<path d="M25.3664 11.2497C29.4331 15.3164 29.4331 21.9163 25.3664 25.983C21.2997 30.0497 14.6997 30.0497 10.633 25.983C6.56634 21.9163 6.56634 15.3164 10.633 11.2497C14.6997 7.18304 21.2997 7.18304 25.3664 11.2497Z" stroke="#F09205" stroke-width="2" stroke-linecap="round" stroke-linejoin="round"/>
<path d="M11.75 34.0665C8.41666 32.7332 5.49999 30.3165 3.56665 26.9665C1.66665 23.6831 1.03332 20.0331 1.48332 16.5498" stroke="#F09205" stroke-width="2" stroke-linecap="round" stroke-linejoin="round"/>
<path d="M7.74902 5.46643C10.5824 3.24976 14.1323 1.93311 17.999 1.93311C21.7823 1.93311 25.2657 3.21642 28.0657 5.34975" stroke="#F09205" stroke-width="2" stroke-linecap="round" stroke-linejoin="round"/>
<path d="M24.25 34.0665C27.5833 32.7332 30.5 30.3165 32.4333 26.9665C34.3333 23.6831 34.9667 20.0331 34.5167 16.5498" stroke="#F09205" stroke-width="2" stroke-linecap="round" stroke-linejoin="round"/>
</svg>
