<svg width="24" height="25" viewBox="0 0 24 25" fill="none" xmlns="http://www.w3.org/2000/svg">
<path d="M22 8.29168V4.24117C22 2.64704 21.36 2.00537 19.77 2.00537H15.73C14.14 2.00537 13.5 2.64704 13.5 4.24117V8.29168C13.5 9.88582 14.14 10.5275 15.73 10.5275H19.77C21.36 10.5275 22 9.88582 22 8.29168Z" stroke="#16D72A" stroke-width="1.5" stroke-linecap="round" stroke-linejoin="round"/>
<path d="M10.5 8.54233V3.99052C10.5 2.57685 9.86 2.00537 8.27 2.00537H4.23C2.64 2.00537 2 2.57685 2 3.99052V8.53231C2 9.956 2.64 10.5175 4.23 10.5175H8.27C9.86 10.5275 10.5 9.956 10.5 8.54233Z" stroke="#16D72A" stroke-width="1.5" stroke-linecap="round" stroke-linejoin="round"/>
<path d="M10.5 19.8217V15.7712C10.5 14.1771 9.86 13.5354 8.27 13.5354H4.23C2.64 13.5354 2 14.1771 2 15.7712V19.8217C2 21.4158 2.64 22.0575 4.23 22.0575H8.27C9.86 22.0575 10.5 21.4158 10.5 19.8217Z" stroke="#16D72A" stroke-width="1.5" stroke-linecap="round" stroke-linejoin="round"/>
<path d="M15 15.5405H21" stroke="#16D72A" stroke-width="1.5" stroke-linecap="round"/>
<path d="M15 19.551H21" stroke="#16D72A" stroke-width="1.5" stroke-linecap="round"/>
</svg>
