<svg width="24" height="25" viewBox="0 0 24 25" fill="none" xmlns="http://www.w3.org/2000/svg">
<path d="M20 12.232V13.9365C20 17.0947 18.2 18.4482 15.5 18.4482H6.5C3.8 18.4482 2 17.0947 2 13.9365V8.52245C2 5.36425 3.8 4.01074 6.5 4.01074H9.2C9.07 4.39173 9 4.81282 9 5.26399V9.17417C9 10.1467 9.32 10.9688 9.89 11.5403C10.46 12.1118 11.28 12.4326 12.25 12.4326V13.8263C12.25 14.3376 12.83 14.6483 13.26 14.3676L16.15 12.4326H18.75C19.2 12.4326 19.62 12.3624 20 12.232Z" stroke="#AF49FF" stroke-width="1.5" stroke-miterlimit="10" stroke-linecap="round" stroke-linejoin="round"/>
<path d="M22 5.26383V9.174C22 10.6679 21.24 11.7907 20 12.2319C19.62 12.3622 19.2 12.4325 18.75 12.4325H16.15L13.26 14.3674C12.83 14.6481 12.25 14.3374 12.25 13.8261V12.4325C11.28 12.4325 10.46 12.1116 9.89 11.5401C9.32 10.9686 9 10.1465 9 9.174V5.26383C9 4.81266 9.07 4.39156 9.2 4.01057C9.64 2.76735 10.76 2.00537 12.25 2.00537H18.75C20.7 2.00537 22 3.30875 22 5.26383Z" stroke="#AF49FF" stroke-width="1.5" stroke-miterlimit="10" stroke-linecap="round" stroke-linejoin="round"/>
<path d="M7.3999 22.0574H14.5999" stroke="#AF49FF" stroke-width="1.5" stroke-miterlimit="10" stroke-linecap="round" stroke-linejoin="round"/>
<path d="M11 18.4482V22.0566" stroke="#AF49FF" stroke-width="1.5" stroke-miterlimit="10" stroke-linecap="round" stroke-linejoin="round"/>
<path d="M18.4955 7.26892H18.5045" stroke="#AF49FF" stroke-width="1.5" stroke-linecap="round" stroke-linejoin="round"/>
<path d="M15.6957 7.26892H15.7047" stroke="#AF49FF" stroke-width="1.5" stroke-linecap="round" stroke-linejoin="round"/>
<path d="M12.8954 7.26892H12.9044" stroke="#AF49FF" stroke-width="1.5" stroke-linecap="round" stroke-linejoin="round"/>
</svg>
