<svg width="25" height="22" viewBox="0 0 25 22" fill="none" xmlns="http://www.w3.org/2000/svg">
<path d="M3.12533 7.65717C4.27592 7.65717 5.20866 6.59687 5.20866 5.28891C5.20866 3.98096 4.27592 2.92065 3.12533 2.92065C1.97473 2.92065 1.04199 3.98096 1.04199 5.28891C1.04199 6.59687 1.97473 7.65717 3.12533 7.65717Z" stroke="white" stroke-width="1.5" stroke-miterlimit="10" stroke-linecap="round" stroke-linejoin="round"/>
<path d="M21.8753 7.65717C23.0259 7.65717 23.9587 6.59687 23.9587 5.28891C23.9587 3.98096 23.0259 2.92065 21.8753 2.92065C20.7247 2.92065 19.792 3.98096 19.792 5.28891C19.792 6.59687 20.7247 7.65717 21.8753 7.65717Z" stroke="white" stroke-width="1.5" stroke-miterlimit="10" stroke-linecap="round" stroke-linejoin="round"/>
<path d="M19.7917 5.28906H15.625" stroke="white" stroke-width="1.5" stroke-miterlimit="10" stroke-linecap="round" stroke-linejoin="round"/>
<path d="M9.37516 5.28906H5.2085" stroke="white" stroke-width="1.5" stroke-miterlimit="10" stroke-linecap="round" stroke-linejoin="round"/>
<path d="M7.81283 16.5382V18.9064C7.81283 19.6287 7.42741 20.2563 6.88574 20.5168C6.68783 20.6234 6.47949 20.6826 6.25033 20.6826H4.16699C3.30241 20.6826 2.60449 19.8892 2.60449 18.9064V16.5382C2.60449 15.5553 3.30241 14.762 4.16699 14.762H6.25033C7.11491 14.762 7.81283 15.5553 7.81283 16.5382Z" stroke="white" stroke-width="1.5" stroke-miterlimit="10" stroke-linecap="round" stroke-linejoin="round"/>
<path d="M22.3958 16.5382V18.9064C22.3958 19.8892 21.6979 20.6826 20.8333 20.6826H18.75C18.5208 20.6826 18.3125 20.6234 18.1146 20.5168C17.5729 20.2563 17.1875 19.6287 17.1875 18.9064V16.5382C17.1875 15.5553 17.8854 14.762 18.75 14.762H20.8333C21.6979 14.762 22.3958 15.5553 22.3958 16.5382Z" stroke="white" stroke-width="1.5" stroke-miterlimit="10" stroke-linecap="round" stroke-linejoin="round"/>
<path d="M15.625 3.51277V7.06515C15.625 8.03614 14.9167 8.84135 14.0625 8.84135H10.9375C10.0833 8.84135 9.375 8.03614 9.375 7.06515V3.51277C9.375 2.54178 10.0833 1.73657 10.9375 1.73657H14.0625C14.9167 1.73657 15.625 2.54178 15.625 3.51277Z" stroke="white" stroke-width="1.5" stroke-miterlimit="10" stroke-linecap="round" stroke-linejoin="round"/>
<path d="M15.625 6.15332C18.0937 7.57428 19.7917 10.6294 19.7917 14.1699C19.7917 14.3712 19.7812 14.5607 19.7604 14.762" stroke="white" stroke-width="1.5" stroke-miterlimit="10" stroke-linecap="round" stroke-linejoin="round"/>
<path d="M5.23975 14.762C5.21891 14.5607 5.2085 14.3712 5.2085 14.1699C5.2085 10.6294 6.90641 7.57428 9.37516 6.15332" stroke="white" stroke-width="1.5" stroke-miterlimit="10" stroke-linecap="round" stroke-linejoin="round"/>
</svg>
