<svg width="25" height="25" viewBox="0 0 25 25" fill="none" xmlns="http://www.w3.org/2000/svg">
<path d="M20.6876 8.42703C20.6876 8.86453 20.6564 9.29162 20.6043 9.69787C20.1252 9.48953 19.6043 9.37495 19.0523 9.37495C17.7814 9.37495 16.6564 9.98953 15.9585 10.927C15.2502 9.98953 14.1252 9.37495 12.8543 9.37495C10.7189 9.37495 8.98975 11.1145 8.98975 13.2708C8.98975 16.0624 10.4689 18.1979 12.1148 19.6458C12.0627 19.677 12.0106 19.6875 11.9585 19.7083C11.646 19.8229 11.1252 19.8229 10.8127 19.7083C8.11475 18.7812 2.0835 14.9479 2.0835 8.42703C2.0835 5.55203 4.39599 3.22913 7.25015 3.22913C8.94807 3.22913 10.4481 4.04162 11.3856 5.30203C12.3335 4.04162 13.8335 3.22913 15.521 3.22913C18.3752 3.22913 20.6876 5.55203 20.6876 8.42703Z" stroke="white" stroke-width="1.5" stroke-linecap="round" stroke-linejoin="round"/>
<path d="M22.9168 13.2708C22.9168 18.1458 18.4064 21.0208 16.3856 21.7083C16.146 21.7917 15.7606 21.7917 15.521 21.7083C14.6564 21.4167 13.3335 20.7187 12.1147 19.6458C10.4689 18.1979 8.98975 16.0625 8.98975 13.2708C8.98975 11.1146 10.7189 9.375 12.8543 9.375C14.1252 9.375 15.2502 9.98957 15.9585 10.9271C16.6564 9.98957 17.7814 9.375 19.0522 9.375C19.6043 9.375 20.1252 9.48958 20.6043 9.69791C21.9689 10.3021 22.9168 11.6667 22.9168 13.2708Z" stroke="white" stroke-width="1.5" stroke-linecap="round" stroke-linejoin="round"/>
</svg>
