<svg width="24" height="25" viewBox="0 0 24 25" fill="none" xmlns="http://www.w3.org/2000/svg">
<path d="M16.42 7.97099C18.86 10.4173 18.86 14.3876 16.42 16.834C13.98 19.2803 10.02 19.2803 7.58 16.834C5.14 14.3876 5.14 10.4173 7.58 7.97099C10.02 5.52464 13.98 5.52464 16.42 7.97099Z" stroke="#E8AE19" stroke-width="1.5" stroke-linecap="round" stroke-linejoin="round"/>
<path d="M8.24999 21.6965C6.24999 20.8945 4.49999 19.4407 3.33999 17.4254C2.19999 15.4503 1.81999 13.2546 2.08999 11.1592" stroke="#E8AE19" stroke-width="1.5" stroke-linecap="round" stroke-linejoin="round"/>
<path d="M5.8501 4.49168C7.5501 3.1584 9.68009 2.36646 12.0001 2.36646C14.2701 2.36646 16.3601 3.13834 18.0401 4.4215" stroke="#E8AE19" stroke-width="1.5" stroke-linecap="round" stroke-linejoin="round"/>
<path d="M15.75 21.6965C17.75 20.8945 19.5 19.4407 20.66 17.4254C21.8 15.4503 22.18 13.2546 21.91 11.1592" stroke="#E8AE19" stroke-width="1.5" stroke-linecap="round" stroke-linejoin="round"/>
</svg>
