<svg width="25" height="29" viewBox="0 0 25 29" fill="none" xmlns="http://www.w3.org/2000/svg">
<path d="M3.48967 2.36816H12.7605C13.5314 2.36816 14.1668 3.09049 14.1668 3.96675V5.71923C14.1668 6.35866 13.8126 7.15205 13.4689 7.55466L10.4481 10.586C10.0314 10.9886 9.7501 11.782 9.7501 12.4214V15.8554C9.7501 16.3291 9.46887 16.9685 9.1147 17.2172L8.13553 17.9395C7.21886 18.5789 5.95842 17.8566 5.95842 16.5777V12.3504C5.95842 11.7938 5.67719 11.0715 5.39594 10.6689L2.72928 7.47176C2.37511 7.06915 2.09388 6.35867 2.09388 5.87318V4.03779C2.08346 3.09049 2.71884 2.36816 3.48967 2.36816Z" stroke="white" stroke-width="1.5" stroke-miterlimit="10" stroke-linecap="round" stroke-linejoin="round"/>
<path d="M2.0835 14.2095V17.7618C2.0835 23.6825 4.16683 26.0508 9.37516 26.0508H15.6252C20.8335 26.0508 22.9168 23.6825 22.9168 17.7618V10.6571C22.9168 6.96259 22.1043 4.64169 20.2189 3.43387C19.6876 3.09048 18.6252 2.82996 17.6564 2.65234" stroke="white" stroke-width="1.5" stroke-linecap="round" stroke-linejoin="round"/>
<path d="M13.5415 15.3938H18.7498" stroke="white" stroke-width="1.5" stroke-linecap="round" stroke-linejoin="round"/>
<path d="M11.4585 20.1301H18.7502" stroke="white" stroke-width="1.5" stroke-linecap="round" stroke-linejoin="round"/>
</svg>
