<svg width="40" height="40" viewBox="0 0 40 40" fill="none" xmlns="http://www.w3.org/2000/svg">
<path d="M35.7829 31.6668V8.3335C35.7829 5.00016 34.1162 3.3335 30.7829 3.3335H24.1162C20.7829 3.3335 19.1162 5.00016 19.1162 8.3335V31.6668C19.1162 35.0002 20.7829 36.6668 24.1162 36.6668H30.7829C34.1162 36.6668 35.7829 35.0002 35.7829 31.6668Z" stroke="#3266EB" stroke-width="2" stroke-linecap="round"/>
<path d="M19.1162 10H27.4495" stroke="#3266EB" stroke-width="2" stroke-linecap="round"/>
<path d="M19.1162 30H25.7829" stroke="#3266EB" stroke-width="2" stroke-linecap="round"/>
<path d="M19.1162 23.25L27.4495 23.3333" stroke="#3266EB" stroke-width="2" stroke-linecap="round"/>
<path d="M19.1162 16.6665H24.1162" stroke="#3266EB" stroke-width="2" stroke-linecap="round"/>
<path d="M9.15013 3.3335C6.43346 3.3335 4.2168 5.55016 4.2168 8.25016V29.8502C4.2168 30.6002 4.53346 31.7335 4.9168 32.3835L6.28346 34.6502C7.85013 37.2668 10.4335 37.2668 12.0001 34.6502L13.3668 32.3835C13.7501 31.7335 14.0668 30.6002 14.0668 29.8502V8.25016C14.0668 5.55016 11.8501 3.3335 9.15013 3.3335Z" stroke="#3266EB" stroke-width="2" stroke-linecap="round"/>
<path d="M14.0668 11.6665H4.2168" stroke="#3266EB" stroke-width="2" stroke-linecap="round"/>
</svg>
