<svg width="24" height="25" viewBox="0 0 24 25" fill="none" xmlns="http://www.w3.org/2000/svg">
<path d="M22 6.51709H16" stroke="#5F2FF2" stroke-width="1.5" stroke-miterlimit="10" stroke-linecap="round" stroke-linejoin="round"/>
<path d="M6 6.51709H2" stroke="#5F2FF2" stroke-width="1.5" stroke-miterlimit="10" stroke-linecap="round" stroke-linejoin="round"/>
<path d="M10 10.0253C11.933 10.0253 13.5 8.45444 13.5 6.51668C13.5 4.57892 11.933 3.00806 10 3.00806C8.067 3.00806 6.5 4.57892 6.5 6.51668C6.5 8.45444 8.067 10.0253 10 10.0253Z" stroke="#5F2FF2" stroke-width="1.5" stroke-miterlimit="10" stroke-linecap="round" stroke-linejoin="round"/>
<path d="M22 17.5457H18" stroke="#5F2FF2" stroke-width="1.5" stroke-miterlimit="10" stroke-linecap="round" stroke-linejoin="round"/>
<path d="M8 17.5457H2" stroke="#5F2FF2" stroke-width="1.5" stroke-miterlimit="10" stroke-linecap="round" stroke-linejoin="round"/>
<path d="M14 21.0539C15.933 21.0539 17.5 19.483 17.5 17.5452C17.5 15.6075 15.933 14.0366 14 14.0366C12.067 14.0366 10.5 15.6075 10.5 17.5452C10.5 19.483 12.067 21.0539 14 21.0539Z" stroke="#5F2FF2" stroke-width="1.5" stroke-miterlimit="10" stroke-linecap="round" stroke-linejoin="round"/>
</svg>
