<svg width="25" height="25" viewBox="0 0 25 25" fill="none" xmlns="http://www.w3.org/2000/svg">
<path d="M21.7813 11.5834C21.7813 16.6771 18.0833 21.4479 13.0313 22.8438C12.6875 22.9375 12.3125 22.9375 11.9687 22.8438C6.91666 21.4479 3.21875 16.6771 3.21875 11.5834V7.01042C3.21875 6.15626 3.8646 5.18751 4.66668 4.86459L10.4687 2.48962C11.7708 1.95837 13.2396 1.95837 14.5417 2.48962L20.3438 4.86459C21.1354 5.18751 21.7917 6.15626 21.7917 7.01042L21.7813 11.5834Z" stroke="white" stroke-width="1.5" stroke-linecap="round" stroke-linejoin="round"/>
<path d="M12.4998 13.0208C13.6504 13.0208 14.5832 12.0881 14.5832 10.9375C14.5832 9.78687 13.6504 8.85413 12.4998 8.85413C11.3492 8.85413 10.4165 9.78687 10.4165 10.9375C10.4165 12.0881 11.3492 13.0208 12.4998 13.0208Z" stroke="white" stroke-width="1.5" stroke-miterlimit="10" stroke-linecap="round" stroke-linejoin="round"/>
<path d="M12.5 13.0208V16.1458" stroke="white" stroke-width="1.5" stroke-miterlimit="10" stroke-linecap="round" stroke-linejoin="round"/>
</svg>
