<svg width="25" height="25" viewBox="0 0 25 25" fill="none" xmlns="http://www.w3.org/2000/svg">
<path d="M6.63526 9.90627C2.38526 10.2084 2.39567 16.3646 6.63526 16.6667H16.6978C17.9165 16.6771 19.0936 16.2188 19.9999 15.3959C22.979 12.7917 21.3853 7.58333 17.4582 7.08333C16.0519 -1.39584 3.77068 1.82293 6.67693 9.90627" stroke="white" stroke-width="1.5" stroke-miterlimit="10" stroke-linecap="round" stroke-linejoin="round"/>
<path d="M12.5 16.6666V19.7916" stroke="white" stroke-width="1.5" stroke-miterlimit="10" stroke-linecap="round" stroke-linejoin="round"/>
<path d="M12.4998 23.9583C13.6504 23.9583 14.5832 23.0256 14.5832 21.875C14.5832 20.7244 13.6504 19.7916 12.4998 19.7916C11.3492 19.7916 10.4165 20.7244 10.4165 21.875C10.4165 23.0256 11.3492 23.9583 12.4998 23.9583Z" stroke="white" stroke-width="1.5" stroke-miterlimit="10" stroke-linecap="round" stroke-linejoin="round"/>
<path d="M18.7502 21.875H14.5835" stroke="white" stroke-width="1.5" stroke-miterlimit="10" stroke-linecap="round" stroke-linejoin="round"/>
<path d="M10.4167 21.875H6.25" stroke="white" stroke-width="1.5" stroke-miterlimit="10" stroke-linecap="round" stroke-linejoin="round"/>
</svg>
