<svg width="40" height="40" viewBox="0 0 40 40" fill="none" xmlns="http://www.w3.org/2000/svg">
<path d="M36.65 18.0666C36.6166 17.2666 36.4833 16.4833 36.2333 15.7333C35.0833 12.1333 31.7167 9.53331 27.75 9.53331H23.1C22.1333 9.53331 22.0667 9.43331 21.55 8.74997L19.2167 5.64997C18.1334 4.19997 17.2833 3.31665 14.5667 3.31665H10.6833C6.61662 3.31665 3.31665 6.61665 3.31665 10.6833V15.7166V27.7333C3.31665 32.65 7.31671 36.65 12.2334 36.65H27.7334C32.65 36.65 36.65 32.65 36.65 27.7333V18.4333C36.6666 18.3333 36.6666 18.1833 36.65 18.0666Z" fill="white" fill-opacity="0.5"/>
<path d="M25.9668 32.8334C22.4502 33.0834 22.4502 38.1834 25.9668 38.4334H34.3169C35.3335 38.4334 36.3001 38.0667 37.0501 37.3834C39.5168 35.2334 38.2001 30.9 34.9501 30.5C33.7834 23.4667 23.6001 26.1334 26.0168 32.8334" fill="white"/>
</svg>
