<svg width="37" height="37" viewBox="0 0 37 37" fill="none" xmlns="http://www.w3.org/2000/svg">
<path d="M36.3027 15.8007L31.78 14.7772C31.4675 13.6064 30.9893 12.4863 30.3599 11.4508L32.8099 7.54869C32.9016 7.38703 32.9386 7.20013 32.9156 7.01574C32.8925 6.83135 32.8106 6.65932 32.682 6.52519L30.2959 4.15833C30.1588 4.03044 29.9847 3.9492 29.7986 3.92622C29.6124 3.90325 29.4238 3.93971 29.2597 4.03039L25.3192 6.52519C24.2713 5.90067 23.1408 5.42691 21.9608 5.11787L20.9245 0.640025C20.8938 0.458214 20.7987 0.293523 20.6566 0.176064C20.5144 0.0586043 20.3348 -0.00377464 20.1505 0.000333023H16.7921C16.6074 -0.0051292 16.427 0.0567582 16.2846 0.174456C16.1422 0.292153 16.0474 0.457627 16.018 0.640025L14.9817 5.11787C13.8009 5.42445 12.67 5.89836 11.6234 6.52519L7.68285 4.03039C7.51818 3.94161 7.32997 3.90623 7.1443 3.92915C6.95863 3.95208 6.78469 4.03217 6.64656 4.15833L4.25412 6.52519C4.12642 6.65984 4.04512 6.83179 4.0221 7.01594C3.99908 7.20008 4.03555 7.38675 4.12617 7.54869L6.58258 11.4508C5.95061 12.485 5.47224 13.6055 5.16247 14.7772L0.639863 15.8007C0.458582 15.83 0.293991 15.9238 0.176434 16.0649C0.058877 16.2059 -0.00372098 16.3848 0.000171166 16.5683V19.8947C-0.00372098 20.0783 0.058877 20.2571 0.176434 20.3982C0.293991 20.5393 0.458582 20.6331 0.639863 20.6624L5.16247 21.6859C5.47224 22.8576 5.95061 23.9781 6.58258 25.0123L4.12617 28.9144C4.0375 29.0769 4.00215 29.2631 4.0251 29.4468C4.04806 29.6304 4.12818 29.8022 4.25412 29.9379L6.64656 32.3048C6.78373 32.4326 6.95783 32.5139 7.14395 32.5369C7.33008 32.5598 7.5187 32.5234 7.68285 32.4327L11.6234 30.0019C12.67 30.6287 13.8009 31.1026 14.9817 31.4092L15.7558 34.9275H5.22644C5.11723 34.9275 5.00909 34.949 4.90819 34.9908C4.8073 35.0326 4.71564 35.0938 4.63842 35.1711C4.5612 35.2483 4.49993 35.34 4.45814 35.4409C4.41635 35.5417 4.39485 35.6499 4.39485 35.7591C4.39485 35.8683 4.41635 35.9764 4.45814 36.0773C4.49993 36.1782 4.5612 36.2699 4.63842 36.3471C4.71564 36.4243 4.8073 36.4856 4.90819 36.5274C5.00909 36.5692 5.11723 36.5907 5.22644 36.5907H32.682C32.7912 36.5907 32.8993 36.5692 33.0002 36.5274C33.1011 36.4856 33.1928 36.4243 33.27 36.3471C33.3472 36.2699 33.4085 36.1782 33.4503 36.0773C33.4921 35.9764 33.5136 35.8683 33.5136 35.7591C33.5136 35.6499 33.4921 35.5417 33.4503 35.4409C33.4085 35.34 33.3472 35.2483 33.27 35.1711C33.1928 35.0938 33.1011 35.0326 33.0002 34.9908C32.8993 34.949 32.7912 34.9275 32.682 34.9275H21.3147L22.1207 31.4092C23.3015 31.1026 24.4324 30.6287 25.4791 30.0019L29.4196 32.4327C29.5842 32.5215 29.7725 32.5569 29.9581 32.5339C30.1438 32.511 30.3177 32.4309 30.4559 32.3048L32.8419 29.9379C32.9716 29.8045 33.0546 29.6328 33.0788 29.4484C33.1031 29.264 33.0671 29.0767 32.9763 28.9144L30.4175 25.0123C31.0469 23.9768 31.5251 22.8566 31.8376 21.6859L36.3602 20.6624C36.5409 20.6318 36.7048 20.5377 36.8221 20.3969C36.9394 20.2561 37.0025 20.078 36.9999 19.8947V16.5683C37.0007 16.3764 36.9296 16.1911 36.8005 16.049C36.6714 15.9069 36.4938 15.8183 36.3027 15.8007ZM35.3303 19.255L30.942 20.2146C30.7999 20.2444 30.6694 20.3146 30.5662 20.4167C30.4629 20.5188 30.3913 20.6485 30.3599 20.7903C30.0428 22.1221 29.5183 23.3957 28.8055 24.5645C28.7121 24.683 28.6613 24.8294 28.6613 24.9803C28.6613 25.1311 28.7121 25.2776 28.8055 25.3961L31.1979 29.1703L29.7138 30.6416L25.8757 28.2747C25.7547 28.1813 25.6063 28.1307 25.4535 28.1307C25.3007 28.1307 25.1522 28.1813 25.0313 28.2747C23.878 29.0358 22.5838 29.5579 21.2251 29.81C21.083 29.8398 20.9525 29.9099 20.8492 30.012C20.746 30.1142 20.6744 30.2439 20.643 30.3857L19.6707 34.7356H17.6429L16.6769 30.3857C16.6434 30.2449 16.5711 30.1163 16.4682 30.0146C16.3653 29.9128 16.2359 29.8419 16.0948 29.81C14.7429 29.5023 13.4478 28.9842 12.2566 28.2747C12.1357 28.1813 11.9872 28.1307 11.8345 28.1307C11.6817 28.1307 11.5332 28.1813 11.4123 28.2747L7.60609 30.6416L6.12841 29.1703L8.52085 25.3961C8.61423 25.2776 8.66504 25.1311 8.66504 24.9803C8.66504 24.8294 8.61423 24.683 8.52085 24.5645C7.75462 23.4242 7.22797 22.1402 6.9728 20.7903C6.94071 20.6489 6.86887 20.5195 6.76574 20.4175C6.66261 20.3155 6.53248 20.2451 6.39068 20.2146L1.86806 19.255V17.208L6.26274 16.2485C6.40369 16.2176 6.53284 16.147 6.63488 16.0449C6.73692 15.9429 6.80756 15.8137 6.83846 15.6728C7.15553 14.341 7.6801 13.0674 8.39292 11.8986C8.48631 11.7801 8.53709 11.6337 8.53709 11.4828C8.53709 11.3319 8.48631 11.1855 8.39292 11.067L6.00046 7.29282L7.48455 5.82153L11.3227 8.18839C11.4436 8.28175 11.5921 8.3324 11.7449 8.3324C11.8977 8.3324 12.0462 8.28175 12.1671 8.18839C13.3545 7.45699 14.6498 6.91729 16.0052 6.58916C16.1474 6.55936 16.2779 6.48919 16.3811 6.38707C16.4844 6.28496 16.556 6.15522 16.5874 6.01343L17.5597 1.66353H19.5619L20.5279 6.01343C20.5614 6.15422 20.6337 6.2828 20.7366 6.38456C20.8395 6.48633 20.9688 6.55721 21.11 6.58916C22.474 6.89063 23.7736 7.43213 24.9481 8.18839C25.0691 8.28175 25.2175 8.3324 25.3703 8.3324C25.5231 8.3324 25.6716 8.28175 25.7925 8.18839L29.6307 5.82153L31.0764 7.29282L28.6839 11.067C28.5905 11.1855 28.5397 11.3319 28.5397 11.4828C28.5397 11.6337 28.5905 11.7801 28.6839 11.8986C29.4502 13.0389 29.9768 14.3229 30.232 15.6728C30.2655 15.8136 30.3378 15.9421 30.4407 16.0439C30.5436 16.1457 30.6729 16.2165 30.8141 16.2485L35.2088 17.208V19.255H35.3303Z" fill="#46D7FF"/>
<path d="M18.6025 9.02002C16.7925 9.03895 15.0285 9.59257 13.5323 10.6113C12.0361 11.63 10.8745 13.0683 10.1934 14.7453C9.5124 16.4224 9.34239 18.2634 9.70476 20.0368C10.0671 21.8103 10.9457 23.437 12.23 24.7124C13.5144 25.9879 15.1472 26.8552 16.9231 27.2053C18.699 27.5554 20.5387 27.3727 22.211 26.68C23.8834 25.9874 25.3136 24.8159 26.3219 23.3126C27.3302 21.8094 27.8716 20.0416 27.878 18.2316C27.843 15.7884 26.8525 13.4561 25.1187 11.7343C23.385 10.0125 21.0459 9.03817 18.6025 9.02002ZM24.7371 18.9992H26.2212C26.0543 20.4432 25.497 21.8144 24.6092 22.9653L23.5089 21.8778C23.3543 21.7239 23.145 21.6375 22.9268 21.6375C22.7086 21.6375 22.4993 21.7239 22.3447 21.8778C22.2689 21.9533 22.2087 22.043 22.1676 22.1418C22.1266 22.2406 22.1055 22.3466 22.1055 22.4535C22.1055 22.5605 22.1266 22.6665 22.1676 22.7653C22.2087 22.8641 22.2689 22.9538 22.3447 23.0293L23.445 24.1167C22.3037 25.0545 20.9103 25.6332 19.4405 25.7799V24.2447C19.4221 24.0342 19.3255 23.8383 19.1698 23.6956C19.0141 23.5529 18.8105 23.4737 18.5993 23.4737C18.388 23.4737 18.1845 23.5529 18.0288 23.6956C17.873 23.8383 17.7765 24.0342 17.7581 24.2447V25.7799C16.2883 25.6332 14.8949 25.0545 13.7536 24.1167L14.8539 23.0293C14.9297 22.9538 14.9899 22.8641 15.0309 22.7653C15.072 22.6665 15.0931 22.5605 15.0931 22.4535C15.0931 22.3466 15.072 22.2406 15.0309 22.1418C14.9899 22.043 14.9297 21.9533 14.8539 21.8778C14.6993 21.7239 14.49 21.6375 14.2718 21.6375C14.0536 21.6375 13.8443 21.7239 13.6897 21.8778L12.5894 22.9653C11.6717 21.8255 11.0911 20.4517 10.9134 18.9992H12.3975C12.618 18.9992 12.8295 18.9116 12.9855 18.7556C13.1415 18.5997 13.2291 18.3882 13.2291 18.1676C13.2291 17.9471 13.1415 17.7355 12.9855 17.5796C12.8295 17.4236 12.618 17.336 12.3975 17.336H10.9134C11.0621 15.8759 11.646 14.4942 12.5894 13.3699L13.6257 14.3934C13.7803 14.5473 13.9896 14.6337 14.2078 14.6337C14.426 14.6337 14.6353 14.5473 14.7899 14.3934C14.8657 14.3179 14.9259 14.2282 14.9669 14.1294C15.008 14.0306 15.0291 13.9247 15.0291 13.8177C15.0291 13.7107 15.008 13.6048 14.9669 13.506C14.9259 13.4072 14.8657 13.3175 14.7899 13.242L13.7536 12.2185C14.8942 11.2897 16.2915 10.7317 17.7581 10.6192V12.0905C17.7765 12.301 17.873 12.4969 18.0288 12.6396C18.1845 12.7823 18.388 12.8615 18.5993 12.8615C18.8105 12.8615 19.0141 12.7823 19.1698 12.6396C19.3255 12.4969 19.4221 12.301 19.4405 12.0905V10.6192C20.9074 10.7773 22.2977 11.3547 23.445 12.2824L22.4087 13.306C22.3328 13.3814 22.2727 13.4712 22.2316 13.57C22.1906 13.6688 22.1694 13.7747 22.1694 13.8817C22.1694 13.9887 22.1906 14.0946 22.2316 14.1934C22.2727 14.2922 22.3328 14.3819 22.4087 14.4574C22.5633 14.6113 22.7726 14.6977 22.9908 14.6977C23.2089 14.6977 23.4182 14.6113 23.5729 14.4574L24.6092 13.4339C25.5269 14.5737 26.1075 15.9475 26.2852 17.4H24.7371C24.517 17.4032 24.3067 17.4917 24.1504 17.6468C23.9941 17.8019 23.9041 18.0115 23.8991 18.2316C23.9024 18.3375 23.9268 18.4416 23.9709 18.5379C24.0151 18.6342 24.0781 18.7206 24.1562 18.7922C24.2343 18.8637 24.3259 18.9189 24.4257 18.9545C24.5255 18.99 24.6314 19.0052 24.7371 18.9992Z" fill="#46D7FF"/>
<path d="M20.9245 17.08L19.0502 18.2954L17.1311 16.3763C16.9765 16.2224 16.7672 16.136 16.549 16.136C16.3308 16.136 16.1215 16.2224 15.9669 16.3763C15.891 16.4518 15.8309 16.5415 15.7898 16.6403C15.7488 16.7391 15.7276 16.845 15.7276 16.952C15.7276 17.059 15.7488 17.1649 15.7898 17.2637C15.8309 17.3625 15.891 17.4523 15.9669 17.5277L18.4233 19.9586C18.5604 20.0865 18.7345 20.1677 18.9207 20.1907C19.1068 20.2137 19.2954 20.1772 19.4596 20.0865L21.916 18.4873C22.0029 18.4309 22.0772 18.3572 22.1344 18.2709C22.1916 18.1845 22.2304 18.0873 22.2484 17.9853C22.2664 17.8833 22.2632 17.7786 22.239 17.6779C22.2149 17.5772 22.1702 17.4825 22.1079 17.3998C22.0541 17.2982 21.98 17.2086 21.8902 17.1369C21.8004 17.0651 21.6967 17.0126 21.5857 16.9826C21.4747 16.9526 21.3587 16.9457 21.2449 16.9625C21.1312 16.9792 21.0221 17.0192 20.9245 17.08Z" fill="#46D7FF"/>
<path d="M34.4925 34.9914C34.4166 35.0669 34.3565 35.1566 34.3154 35.2554C34.2744 35.3542 34.2532 35.4601 34.2532 35.5671C34.2532 35.6741 34.2744 35.78 34.3154 35.8788C34.3565 35.9776 34.4166 36.0674 34.4925 36.1428C34.6471 36.2968 34.8564 36.3832 35.0746 36.3832C35.2928 36.3832 35.5021 36.2968 35.6567 36.1428C35.7325 36.0674 35.7927 35.9776 35.8337 35.8788C35.8748 35.78 35.8959 35.6741 35.8959 35.5671C35.8959 35.4601 35.8748 35.3542 35.8337 35.2554C35.7927 35.1566 35.7325 35.0669 35.6567 34.9914C35.4829 34.8803 35.2809 34.8213 35.0746 34.8213C34.8683 34.8213 34.6663 34.8803 34.4925 34.9914Z" fill="#46D7FF"/>
<path d="M2.18798 34.9915C2.11216 35.067 2.05201 35.1567 2.01096 35.2555C1.96991 35.3543 1.94876 35.4603 1.94876 35.5673C1.94876 35.6742 1.96991 35.7802 2.01096 35.879C2.05201 35.9778 2.11216 36.0675 2.18798 36.143C2.34262 36.2969 2.55192 36.3833 2.7701 36.3833C2.98828 36.3833 3.19758 36.2969 3.35222 36.143C3.42961 36.0684 3.49117 35.979 3.53321 35.88C3.57526 35.7811 3.59693 35.6747 3.59693 35.5673C3.59693 35.4598 3.57526 35.3534 3.53321 35.2545C3.49117 35.1556 3.42961 35.0661 3.35222 34.9915C3.19758 34.8376 2.98828 34.7512 2.7701 34.7512C2.55192 34.7512 2.34262 34.8376 2.18798 34.9915Z" fill="#46D7FF"/>
</svg>
