<svg width="30" height="30" viewBox="0 0 30 30" fill="none" xmlns="http://www.w3.org/2000/svg">
<path d="M14.998 27.5001C21.9016 27.5001 27.4981 21.9036 27.4981 15.0001C27.4981 8.0965 21.9016 2.50006 14.998 2.50006C8.09449 2.50006 2.49805 8.0965 2.49805 15.0001C2.49805 21.9036 8.09449 27.5001 14.998 27.5001Z" stroke="white" stroke-width="1.5" stroke-linecap="round" stroke-linejoin="round"/>
<path d="M10.002 3.75H11.252C8.81445 11.05 8.81445 18.95 11.252 26.25H10.002" stroke="white" stroke-width="1.5" stroke-linecap="round" stroke-linejoin="round"/>
<path d="M18.75 3.75C21.1875 11.05 21.1875 18.95 18.75 26.25" stroke="white" stroke-width="1.5" stroke-linecap="round" stroke-linejoin="round"/>
<path d="M3.75 20V18.75C11.05 21.1875 18.95 21.1875 26.25 18.75V20" stroke="white" stroke-width="1.5" stroke-linecap="round" stroke-linejoin="round"/>
<path d="M3.75 11.25C11.05 8.8125 18.95 8.8125 26.25 11.25" stroke="white" stroke-width="1.5" stroke-linecap="round" stroke-linejoin="round"/>
</svg>
