<svg width="80" height="80" viewBox="0 0 80 80" fill="none" xmlns="http://www.w3.org/2000/svg">
<path d="M40.0002 26.2999L36.4335 32.4999C35.6335 33.8666 36.3002 34.9999 37.8669 34.9999H42.1002C43.7002 34.9999 44.3335 36.1333 43.5335 37.4999L40.0002 43.6999" stroke="#EE7F40" stroke-width="2" stroke-linecap="round" stroke-linejoin="round"/>
<path d="M27.6664 60.1336V56.2669C19.9997 51.6336 13.6997 42.6003 13.6997 33.0003C13.6997 16.5003 28.8664 3.56693 45.9997 7.30026C53.533 8.96693 60.133 13.9669 63.5664 20.8669C70.533 34.8669 63.1997 49.7336 52.433 56.2336V60.1003C52.433 61.0669 52.7997 63.3003 49.233 63.3003H30.8664C27.1997 63.3336 27.6664 61.9003 27.6664 60.1336Z" stroke="#EE7F40" stroke-width="2" stroke-linecap="round" stroke-linejoin="round"/>
<path d="M28.3337 73.3331C35.9671 71.1665 44.0337 71.1665 51.6671 73.3331" stroke="#EE7F40" stroke-width="2" stroke-linecap="round" stroke-linejoin="round"/>
</svg>
