<svg width="33" height="30" viewBox="0 0 33 30" fill="none" xmlns="http://www.w3.org/2000/svg">
<path d="M31.7529 23.2456H30.4231V8.42303C30.4218 8.16865 30.3696 7.9171 30.2694 7.68327C30.1692 7.44943 30.0232 7.23806 29.8399 7.06164C29.6566 6.88522 29.4398 6.74734 29.2024 6.65616C28.9649 6.56498 28.7115 6.52235 28.4573 6.53079H23.7897V5.5321C23.7523 5.37897 23.6559 5.24678 23.5217 5.16418L16.4625 0.118188C16.3445 0.0410715 16.2066 0 16.0657 0C15.9247 0 15.7868 0.0410715 15.6688 0.118188L8.44677 5.16418C8.34336 5.22947 8.26262 5.32507 8.21558 5.43796C8.16854 5.55085 8.1575 5.67551 8.18396 5.79492V6.53079H3.84757C3.33723 6.52373 2.84478 6.71867 2.47754 7.07311C2.1103 7.42755 1.89803 7.91277 1.88699 8.42303V23.2456H0.693827C0.512031 23.2469 0.3379 23.319 0.208369 23.4466C0.0788392 23.5742 0.00409597 23.7472 0 23.9289V26.3994C0.0043991 26.5411 0.0528195 26.678 0.138528 26.791C0.224237 26.9041 0.342986 26.9876 0.478319 27.0301C9.07752 29.6057 8.65177 29.5005 8.81472 29.5005C24.473 29.5005 23.5322 29.5005 23.7319 29.448L31.9054 26.9776C32.0407 26.9351 32.1594 26.8515 32.2451 26.7385C32.3309 26.6255 32.3793 26.4886 32.3837 26.3468V23.8764C32.3715 23.7131 32.3012 23.5596 32.1854 23.4439C32.0697 23.3281 31.9162 23.2578 31.7529 23.2456ZM16.0368 10.2102L21.0302 13.7318H10.9435C11.3114 13.469 15.4533 10.5781 16.0368 10.2102ZM22.4599 13.1011L18.4809 10.3153C19.3272 9.63197 21.6347 7.73972 22.4599 7.05641V13.1011ZM13.5243 10.3153L9.43495 13.1536V7.05641L13.5243 10.3153ZM8.16293 14.2575C8.13724 14.4392 8.18403 14.6237 8.29318 14.7712C8.40234 14.9187 8.56512 15.0173 8.74638 15.0459H23.2378C23.35 15.0119 23.4523 14.9511 23.5356 14.8687C23.619 14.7862 23.6809 14.6847 23.7161 14.5728C23.7161 14.5203 23.7687 14.4152 23.7687 14.3626V10.4204H26.4494V20.9329H6.00263V10.4204H8.18396L8.16293 14.2575ZM16.0368 1.37968L22.0341 5.6898L17.3666 9.52685C17.0355 9.31665 16.7162 9.08855 16.41 8.84354C16.3016 8.76683 16.1722 8.72563 16.0394 8.72563C15.9067 8.72563 15.7772 8.76683 15.6688 8.84354L14.7122 9.52685L9.93428 5.6898L16.0368 1.37968ZM3.19054 8.42303C3.1932 8.34294 3.21189 8.26418 3.24553 8.19144C3.27916 8.11869 3.32705 8.05344 3.38635 7.99953C3.44565 7.94562 3.51516 7.90415 3.59077 7.87758C3.66638 7.85102 3.74655 7.83988 3.82654 7.84484H8.18396V9.1589H5.31406C5.22709 9.16091 5.14139 9.1803 5.06203 9.21595C4.98267 9.25159 4.91123 9.30277 4.85196 9.36646C4.79269 9.43014 4.74677 9.50503 4.7169 9.58674C4.68703 9.66846 4.67381 9.75533 4.67805 9.84222V21.6688C4.67381 21.7557 4.68703 21.8425 4.7169 21.9242C4.74677 22.0059 4.79269 22.0808 4.85196 22.1445C4.91123 22.2082 4.98267 22.2594 5.06203 22.295C5.14139 22.3307 5.22709 22.3501 5.31406 22.3521H27.0801C27.261 22.3494 27.4338 22.2767 27.5622 22.1493C27.6906 22.0218 27.7646 21.8496 27.7687 21.6688V9.78966C27.7646 9.6088 27.6906 9.43657 27.5622 9.30914C27.4338 9.18172 27.261 9.10903 27.0801 9.10635H23.7372V7.7923H28.4047C28.5647 7.79031 28.7196 7.84873 28.8385 7.95589C28.9573 8.06306 29.0314 8.21109 29.046 8.37047V23.1931H3.13797V8.42303H3.19054ZM12.4257 24.5597H20.021V25.2956H12.4257V24.5597ZM31.0591 25.9263L23.4165 28.1865H8.92509L1.33509 25.9263V24.6122H11.1012V25.9789C11.1052 26.1597 11.1792 26.332 11.3076 26.4594C11.436 26.5868 11.6089 26.6595 11.7897 26.6622H20.6675C20.8484 26.6595 21.0212 26.5868 21.1496 26.4594C21.278 26.332 21.352 26.1597 21.3561 25.9789V24.6122H31.1222V25.9263H31.0591Z" fill="#473BEF"/>
<path d="M13.167 18.3573H11.8424V19.6714H13.167V18.3573Z" fill="#473BEF"/>
<path d="M15.1328 18.3573H13.8082V19.6714H15.1328V18.3573Z" fill="#473BEF"/>
<path d="M17.1512 18.3573H15.8266V19.6714H17.1512V18.3573Z" fill="#473BEF"/>
<path d="M19.1117 18.3573H17.7872V19.6714H19.1117V18.3573Z" fill="#473BEF"/>
<path d="M21.1301 18.3573H19.8055V19.6714H21.1301V18.3573Z" fill="#473BEF"/>
</svg>
