<svg width="45" height="46" viewBox="0 0 45 46" fill="none" xmlns="http://www.w3.org/2000/svg">
<path d="M41.25 16.9189V28.1982C41.25 32.8979 40.3125 36.1877 38.2125 38.312L26.25 26.3183L40.7438 11.7869C41.0813 13.272 41.25 14.9639 41.25 16.9189Z" stroke="white" stroke-width="2" stroke-linecap="round" stroke-linejoin="round"/>
<path d="M40.7438 11.7869L11.7562 40.8497C6.11248 39.5526 3.75 35.6425 3.75 28.1982V16.9189C3.75 7.51952 7.5 3.75977 16.875 3.75977H28.125C35.55 3.75977 39.45 6.12842 40.7438 11.7869Z" stroke="white" stroke-width="2" stroke-linecap="round" stroke-linejoin="round"/>
<path d="M38.2126 38.312C36.0939 40.4175 32.8126 41.3574 28.1251 41.3574H16.8751C14.9251 41.3574 13.2376 41.1882 11.7563 40.8498L26.2501 26.3184L38.2126 38.312Z" stroke="white" stroke-width="2" stroke-linecap="round" stroke-linejoin="round"/>
<path opacity="0.4" d="M11.7001 15.002C12.9751 9.49396 21.2251 9.49396 22.5001 15.002C23.2314 18.2354 21.2064 20.98 19.4251 22.6719C18.1314 23.9126 16.0877 23.9126 14.7752 22.6719C12.9939 20.98 10.9501 18.2354 11.7001 15.002Z" stroke="white" stroke-width="2"/>
<path opacity="0.4" d="M17.0524 16.3552H17.0693" stroke="white" stroke-width="2" stroke-linecap="round" stroke-linejoin="round"/>
</svg>
