<svg width="24" height="24" viewBox="0 0 24 24" fill="none" xmlns="http://www.w3.org/2000/svg">
<path d="M1.9978 9.98061V9.00061C1.9978 4.00061 3.9978 2.00061 8.9978 2.00061H14.9978C19.9978 2.00061 21.9978 4.00061 21.9978 9.00061V15.0006C21.9978 20.0006 19.9978 22.0006 14.9978 22.0006H13.9978" stroke="#1E78FF" stroke-width="1.5" stroke-linecap="round" stroke-linejoin="round"/>
<path d="M13.0022 10.9994L18.0122 5.97937H14.0022" stroke="#1E78FF" stroke-width="1.5" stroke-linecap="round" stroke-linejoin="round"/>
<path d="M18.0076 5.97937V9.98937" stroke="#1E78FF" stroke-width="1.5" stroke-linecap="round" stroke-linejoin="round"/>
<path d="M10.9978 16.1494V18.8494C10.9978 21.0994 10.0978 21.9994 7.8478 21.9994H5.1478C2.8978 21.9994 1.9978 21.0994 1.9978 18.8494V16.1494C1.9978 13.8994 2.8978 12.9994 5.1478 12.9994H7.8478C10.0978 12.9994 10.9978 13.8994 10.9978 16.1494Z" stroke="#1E78FF" stroke-width="1.5" stroke-linecap="round" stroke-linejoin="round"/>
</svg>
