<svg width="35" height="35" viewBox="0 0 35 35" fill="none" xmlns="http://www.w3.org/2000/svg">
<path d="M2.91504 14.5541V13.1249C2.91504 5.83323 5.83171 2.91656 13.1234 2.91656H21.8734C29.165 2.91656 32.0817 5.83323 32.0817 13.1249V21.8749C32.0817 29.1666 29.165 32.0832 21.8734 32.0832H20.415" stroke="white" stroke-width="2" stroke-linecap="round" stroke-linejoin="round"/>
<path d="M18.96 16.0415L26.2662 8.7207H20.4183" stroke="white" stroke-width="2" stroke-linecap="round" stroke-linejoin="round"/>
<path d="M26.2627 8.7207V14.5686" stroke="white" stroke-width="2" stroke-linecap="round" stroke-linejoin="round"/>
<path d="M16.04 23.5522V27.4897C16.04 30.7709 14.7275 32.0834 11.4463 32.0834H7.50879C4.22754 32.0834 2.91504 30.7709 2.91504 27.4897V23.5522C2.91504 20.2709 4.22754 18.9584 7.50879 18.9584H11.4463C14.7275 18.9584 16.04 20.2709 16.04 23.5522Z" stroke="white" stroke-width="2" stroke-linecap="round" stroke-linejoin="round"/>
</svg>
