<svg width="3" height="10" viewBox="0 0 3 10" fill="none" xmlns="http://www.w3.org/2000/svg">
<path d="M2.16393 1.7048C2.16393 2.24803 1.72355 2.6884 1.18032 2.6884C0.637092 2.6884 0.196716 2.24803 0.196716 1.7048C0.196716 1.16157 0.637092 0.721191 1.18032 0.721191C1.72355 0.721191 2.16393 1.16157 2.16393 1.7048Z" fill="#122428"/>
<path d="M2.16387 5.14742C2.16387 5.69066 1.7235 6.13103 1.18027 6.13103C0.637035 6.13103 0.196659 5.69066 0.196659 5.14742C0.196659 4.60419 0.637035 4.16382 1.18027 4.16382C1.7235 4.16382 2.16387 4.60419 2.16387 5.14742Z" fill="#122428"/>
<path d="M2.16387 8.59005C2.16387 9.13328 1.7235 9.57366 1.18027 9.57366C0.637035 9.57366 0.196659 9.13328 0.196659 8.59005C0.196659 8.04682 0.637035 7.60645 1.18027 7.60645C1.7235 7.60645 2.16387 8.04682 2.16387 8.59005Z" fill="#122428"/>
</svg>
