<svg width="24" height="23" viewBox="0 0 24 23" fill="none" xmlns="http://www.w3.org/2000/svg">
<path d="M22.957 2.33984L20.207 20.1719C20.1641 20.6016 19.9062 20.9883 19.5195 21.2031C19.3047 21.2891 19.0898 21.375 18.832 21.375C18.6602 21.375 18.4883 21.332 18.3164 21.2461L13.0742 19.0547L10.8828 22.3203C10.7109 22.6211 10.4102 22.75 10.1094 22.75C9.63672 22.75 9.25 22.3633 9.25 21.8906V17.7656C9.25 17.4219 9.33594 17.1211 9.50781 16.9062L18.875 4.875L6.24219 16.2617L1.81641 14.4141C1.34375 14.1992 1 13.7695 1 13.2109C0.957031 12.6094 1.21484 12.1797 1.6875 11.9219L20.9375 0.964844C21.3672 0.707031 21.9688 0.707031 22.3984 1.00781C22.8281 1.30859 23.043 1.82422 22.957 2.33984Z" fill="white"/>
</svg>
