<svg width="80" height="80" viewBox="0 0 80 80" fill="none" xmlns="http://www.w3.org/2000/svg">
<path d="M28.3332 63.2332H26.6665C13.3332 63.2332 6.6665 59.8999 6.6665 43.2332V26.5665C6.6665 13.2332 13.3332 6.56653 26.6665 6.56653H53.3332C66.6665 6.56653 73.3332 13.2332 73.3332 26.5665V43.2332C73.3332 56.5665 66.6665 63.2332 53.3332 63.2332H51.6665C50.6332 63.2332 49.6332 63.7333 48.9999 64.5666L43.9999 71.2333C41.7999 74.1666 38.1998 74.1666 35.9998 71.2333L30.9998 64.5666C30.4665 63.8333 29.2665 63.2332 28.3332 63.2332Z" stroke="#FF5660" stroke-width="3" stroke-miterlimit="10" stroke-linecap="round" stroke-linejoin="round"/>
<path d="M26.6667 28.9999L20 35.6665L26.6667 42.3332" stroke="#FF5660" stroke-width="3" stroke-miterlimit="10" stroke-linecap="round" stroke-linejoin="round"/>
<path d="M53.3335 28.9999L60.0002 35.6665L53.3335 42.3332" stroke="#FF5660" stroke-width="3" stroke-miterlimit="10" stroke-linecap="round" stroke-linejoin="round"/>
<path d="M43.3332 27.9L36.6665 43.4335" stroke="#FF5660" stroke-width="3" stroke-miterlimit="10" stroke-linecap="round" stroke-linejoin="round"/>
</svg>
