<svg width="72" height="72" viewBox="0 0 72 72" fill="none" xmlns="http://www.w3.org/2000/svg">
<path d="M65.9099 16.5V28.5C65.9099 34.29 61.1999 39 55.4099 39H50.9099V36.75C50.9099 28.05 43.8599 21 35.1599 21H32.9099V16.5C32.9099 10.71 37.6199 6 43.4099 6H55.4099C61.2299 6 65.9099 10.71 65.9099 16.5Z" fill="#0F43FD"/>
<path opacity="0.1" d="M35.1599 21H32.9099H20.9099C12.6299 21 5.90991 27.72 5.90991 36V51C5.90991 59.28 12.6299 66 20.9099 66H35.9099C44.1899 66 50.9099 59.28 50.9099 51V39V36.75C50.9099 28.05 43.8599 21 35.1599 21Z" fill="#0F43FD"/>
</svg>
