<svg width="72" height="72" viewBox="0 0 72 72" fill="none" xmlns="http://www.w3.org/2000/svg">
<path opacity="0.4" d="M50.4 6H18.63C11.67 6 6.03003 11.64 6.03003 18.57V37.11V37.68C6.03003 44.64 11.67 50.25 18.6 50.25H29.4C31.05 50.25 32.4 51.6 32.4 53.25V55.71C32.4 57.36 31.05 58.71 29.4 58.71H22.65C21.48 58.71 20.52 59.67 20.52 60.84C20.52 62.01 21.48 62.97 22.65 62.97H46.44C47.61 62.97 48.57 62.01 48.57 60.84C48.57 59.67 47.61 58.71 46.44 58.71H39.69C38.04 58.71 36.69 57.36 36.69 55.71V53.25C36.69 51.6 38.04 50.25 39.69 50.25H50.4C57.36 50.25 62.97 44.61 62.97 37.68V37.11V18.57C62.97 11.64 57.33 6 50.4 6Z" fill="#A0FFBB"/>
<path d="M58.92 28.5H43.05C37.86 28.5 35.97 30.39 35.97 35.64V58.83C35.97 64.11 37.83 65.97 43.05 65.97H58.92C64.11 65.97 66 64.08 66 58.83V35.64C66 30.36 64.14 28.5 58.92 28.5ZM51 60.96C49.17 60.96 47.7 59.49 47.7 57.66C47.7 55.83 49.17 54.36 51 54.36C52.83 54.36 54.3 55.83 54.3 57.66C54.3 59.49 52.83 60.96 51 60.96Z" fill="#36D763"/>
<path opacity="0.4" d="M54.3002 57.6599C54.3002 59.4899 52.8302 60.9599 51.0002 60.9599C49.1702 60.9599 47.7002 59.4899 47.7002 57.6599C47.7002 55.8299 49.1702 54.3599 51.0002 54.3599C52.8302 54.3599 54.3002 55.8599 54.3002 57.6599Z" fill="#D9FFE4"/>
</svg>
