<svg width="35" height="35" viewBox="0 0 35 35" fill="none" xmlns="http://www.w3.org/2000/svg">
<path d="M11.9469 13.6949C12.0217 13.7594 12.1085 13.8085 12.2022 13.8395C12.296 13.8704 12.395 13.8825 12.4935 13.8751H22.5004C22.6966 13.8715 22.8871 13.8087 23.047 13.6949C23.9511 12.8529 24.6447 11.8102 25.0719 10.6509C25.4991 9.49166 25.6481 8.24824 25.5066 7.02087C25.3652 5.79351 24.9374 4.61654 24.2576 3.58483C23.5779 2.55313 22.6653 1.69555 21.5934 1.08122C21.5333 1.02116 21.5333 1.02116 21.4733 1.02116C20.246 0.346624 18.8673 -0.00475509 17.4669 4.85992e-05C16.0606 -0.00463891 14.679 0.368781 13.4666 1.08122C13.4587 1.08122 13.4509 1.08278 13.4436 1.08579C13.4363 1.08881 13.4297 1.09324 13.4241 1.09881C13.4185 1.10439 13.4141 1.11101 13.4111 1.1183C13.408 1.12559 13.4065 1.1334 13.4065 1.14129C12.34 1.75266 11.4319 2.60574 10.7552 3.63195C10.0784 4.65816 9.65188 5.82886 9.50991 7.04991C9.36794 8.27095 9.51448 9.50828 9.93774 10.6624C10.361 11.8165 11.0492 12.8552 11.9469 13.6949ZM13.5867 2.76305L14.0732 3.66403C14.1429 3.77741 14.2412 3.87042 14.3582 3.93369C14.4753 3.99696 14.6069 4.02826 14.7399 4.02442C14.8732 4.0234 15.004 3.98774 15.1193 3.92095C15.2347 3.85416 15.3307 3.75853 15.3979 3.64343C15.4651 3.52834 15.5013 3.39775 15.5028 3.26446C15.5044 3.13118 15.4712 2.99979 15.4067 2.88318L14.9141 1.9822C15.4849 1.72581 16.0934 1.56354 16.7161 1.50168V2.52279C16.7333 2.72038 16.824 2.90433 16.9702 3.03835C17.1165 3.17236 17.3076 3.24671 17.5059 3.24671C17.7043 3.24671 17.8954 3.17236 18.0417 3.03835C18.1879 2.90433 18.2786 2.72038 18.2958 2.52279V1.50168C18.9185 1.56354 19.527 1.72581 20.0978 1.9822L19.6112 2.88318C19.5199 3.05926 19.5002 3.26381 19.5561 3.4541C19.6121 3.64439 19.7394 3.80569 19.9116 3.90429C20.0894 3.99624 20.2958 4.01634 20.4881 3.96045C20.6804 3.90455 20.8438 3.77694 20.9447 3.60396L21.4312 2.70298C21.9334 3.08112 22.382 3.52566 22.7647 4.02442L21.8517 4.50494C21.6795 4.60354 21.5522 4.76483 21.4962 4.95512C21.4403 5.14541 21.46 5.34997 21.5513 5.52605C21.6522 5.69902 21.8156 5.82664 22.0079 5.88253C22.2002 5.93843 22.4066 5.91832 22.5845 5.82637L23.4914 5.34585C23.7517 5.91562 23.9161 6.52447 23.978 7.14781H22.8848C22.6777 7.14781 22.4791 7.23008 22.3326 7.37651C22.1862 7.52295 22.1039 7.72156 22.1039 7.92866C22.1039 8.13575 22.1862 8.33436 22.3326 8.4808C22.4791 8.62724 22.6777 8.70951 22.8848 8.70951H23.9179C23.8483 9.35076 23.6844 9.97821 23.4314 10.5715L22.5244 10.0309C22.3465 9.93899 22.1401 9.91889 21.9479 9.97478C21.7556 10.0307 21.5921 10.1583 21.4913 10.3313C21.4 10.5073 21.3802 10.7119 21.4362 10.9022C21.4921 11.0925 21.6195 11.2538 21.7916 11.3524L22.7046 11.893C22.5376 12.1065 22.3549 12.3073 22.158 12.4936H12.7998C12.6136 12.3134 12.4334 12.0732 12.2532 11.893L13.1602 11.3524C13.3334 11.2548 13.462 11.0939 13.5191 10.9035C13.5762 10.7132 13.5574 10.5081 13.4666 10.3313C13.3647 10.1594 13.2012 10.0327 13.0093 9.97694C12.8175 9.92117 12.6116 9.94047 12.4334 10.0309L11.5204 10.5715C11.2694 9.97792 11.1075 9.35046 11.0399 8.70951H12.007C12.2141 8.70951 12.4127 8.62724 12.5591 8.4808C12.7055 8.33436 12.7878 8.13575 12.7878 7.92866C12.7878 7.72156 12.7055 7.52295 12.5591 7.37651C12.4127 7.23008 12.2141 7.14781 12.007 7.14781H10.9799C11.0551 6.52767 11.2169 5.92113 11.4604 5.34585L12.3734 5.82637C12.5515 5.91684 12.7574 5.93615 12.9493 5.88037C13.1411 5.8246 13.3046 5.69792 13.4065 5.52605C13.4973 5.34926 13.5162 5.14416 13.459 4.95378C13.4019 4.7634 13.2733 4.60254 13.1002 4.50494L12.1932 4.02442C12.6116 3.55571 13.0787 3.13287 13.5867 2.76305Z" fill="#45E476"/>
<path d="M17.4671 9.67043C17.9312 9.67203 18.3771 9.48959 18.7069 9.1631C19.0368 8.8366 19.2238 8.39266 19.227 7.92854C19.2255 7.58825 19.1277 7.25534 18.9448 6.96833C18.762 6.68133 18.5016 6.45196 18.1939 6.30677V4.98534C18.1939 4.77665 18.111 4.57651 17.9634 4.42895C17.8159 4.28139 17.6157 4.19849 17.407 4.19849C17.1983 4.19849 16.9982 4.28139 16.8506 4.42895C16.7031 4.57651 16.6202 4.77665 16.6202 4.98534V6.30677C16.3214 6.44743 16.067 6.66748 15.8848 6.94289C15.7026 7.21831 15.5996 7.53849 15.587 7.86847C15.625 8.34708 15.8375 8.79506 16.1841 9.12727C16.5307 9.45949 16.9873 9.65279 17.4671 9.67043ZM17.4671 8.1688C17.4355 8.1688 17.4043 8.16258 17.3751 8.15051C17.346 8.13843 17.3195 8.12074 17.2972 8.09843C17.2749 8.07612 17.2572 8.04963 17.2451 8.02048C17.233 7.99133 17.2268 7.96009 17.2268 7.92854C17.2268 7.89698 17.233 7.86574 17.2451 7.83659C17.2572 7.80744 17.2749 7.78096 17.2972 7.75865C17.3195 7.73634 17.346 7.71864 17.3751 7.70656C17.4043 7.69449 17.4355 7.68828 17.4671 7.68828C17.4986 7.68828 17.5299 7.69449 17.559 7.70656C17.5882 7.71864 17.6147 7.73634 17.637 7.75865C17.6593 7.78096 17.677 7.80744 17.689 7.83659C17.7011 7.86574 17.7073 7.89698 17.7073 7.92854C17.7073 7.96009 17.7011 7.99133 17.689 8.02048C17.677 8.04963 17.6593 8.07612 17.637 8.09843C17.6147 8.12074 17.5882 8.13843 17.559 8.15051C17.5299 8.16258 17.4986 8.1688 17.4671 8.1688Z" fill="#45E476"/>
<path d="M8.36719 31.1739C8.36255 30.9672 8.27798 30.7704 8.13124 30.6248C7.98451 30.4792 7.78704 30.3961 7.58034 30.3931H0.786962C0.579869 30.3931 0.38125 30.4753 0.234813 30.6218C0.0883752 30.7682 0.00610352 30.9668 0.00610352 31.1739C0.00610352 31.381 0.0883752 31.5796 0.234813 31.7261C0.38125 31.8725 0.579869 31.9548 0.786962 31.9548H7.64041C7.83748 31.9397 8.02166 31.851 8.15632 31.7063C8.29098 31.5616 8.36626 31.3716 8.36719 31.1739Z" fill="#45E476"/>
<path d="M0.786853 29.6723H3.79011C3.99721 29.6723 4.19581 29.59 4.34225 29.4436C4.48868 29.2971 4.57096 29.0985 4.57096 28.8914C4.57096 28.6843 4.48868 28.4857 4.34225 28.3393C4.19581 28.1929 3.99721 28.1106 3.79011 28.1106H0.786853C0.580152 28.1137 0.382684 28.1967 0.23595 28.3423C0.0892148 28.4879 0.00464034 28.6848 0 28.8914C0.0141757 29.0949 0.101794 29.2862 0.246545 29.4299C0.391296 29.5735 0.583315 29.6597 0.786853 29.6723Z" fill="#45E476"/>
<path d="M34.1351 30.4533H27.3537C27.1466 30.4533 26.948 30.5355 26.8016 30.682C26.6551 30.8284 26.5729 31.027 26.5729 31.2341C26.5729 31.4412 26.6551 31.6398 26.8016 31.7862C26.948 31.9327 27.1466 32.015 27.3537 32.015H34.2132C34.4199 32.0119 34.6173 31.9288 34.7641 31.7832C34.9108 31.6376 34.9954 31.4408 35 31.2341C34.9818 31.0185 34.8823 30.8179 34.7217 30.6729C34.5611 30.528 34.3514 30.4494 34.1351 30.4533Z" fill="#45E476"/>
<path d="M34.135 28.1707H31.1317C30.9246 28.1707 30.726 28.2529 30.5796 28.3994C30.4331 28.5458 30.3509 28.7444 30.3509 28.9515C30.3509 29.1586 30.4331 29.3572 30.5796 29.5036C30.726 29.6501 30.9246 29.7323 31.1317 29.7323H34.135C34.3421 29.7323 34.5407 29.6501 34.6871 29.5036C34.8336 29.3572 34.9158 29.1586 34.9158 28.9515C34.9158 28.7444 34.8336 28.5458 34.6871 28.3994C34.5407 28.2529 34.3421 28.1707 34.135 28.1707Z" fill="#45E476"/>
<path d="M32.333 4.14454H26.5667C26.3596 4.14454 26.161 4.22681 26.0146 4.37324C25.8682 4.51968 25.7859 4.71829 25.7859 4.92539C25.7859 5.13248 25.8682 5.33109 26.0146 5.47753C26.161 5.62397 26.3596 5.70623 26.5667 5.70623H32.333C32.602 5.71373 32.8581 5.82353 33.0489 6.01327C33.2398 6.203 33.351 6.45838 33.3601 6.72734V20.7225H9.09377C8.88667 20.7225 8.68806 20.8048 8.54162 20.9512C8.39518 21.0977 8.31293 21.2963 8.31293 21.5034C8.31293 21.7105 8.39518 21.9091 8.54162 22.0555C8.68806 22.202 8.88667 22.2842 9.09377 22.2842H33.3601V24.5667C33.351 24.8357 33.2398 25.0911 33.0489 25.2808C32.8581 25.4705 32.602 25.5803 32.333 25.5878H2.54666C2.2766 25.5818 2.01908 25.4727 1.82695 25.2828C1.63483 25.0929 1.52268 24.8367 1.51354 24.5667V22.1641H5.90431C6.0037 22.1618 6.10162 22.1397 6.19231 22.0989C6.28301 22.0582 6.36463 21.9997 6.43237 21.9269C6.5001 21.8542 6.55258 21.7686 6.58671 21.6752C6.62084 21.5818 6.63593 21.4826 6.63109 21.3833C6.63016 21.1856 6.55488 20.9956 6.42022 20.8509C6.28556 20.7062 6.10138 20.6175 5.90431 20.6024H1.53757V6.66728C1.54671 6.3973 1.65884 6.14107 1.85097 5.95118C2.04309 5.76129 2.30063 5.65215 2.57069 5.64617H8.39102C8.59811 5.64617 8.79671 5.5639 8.94315 5.41746C9.08958 5.27103 9.17186 5.07241 9.17186 4.86532C9.17186 4.65823 9.08958 4.45962 8.94315 4.31318C8.79671 4.16674 8.59811 4.08447 8.39102 4.08447H2.63074C1.95992 4.086 1.31667 4.35153 0.840079 4.82362C0.36349 5.29571 0.0918747 5.93643 0.0839844 6.60721V24.3865C0.0918747 25.0573 0.36349 25.698 0.840079 26.1701C1.31667 26.6422 1.95992 26.9077 2.63074 26.9093H12.1511L10.4572 32.6155H7.36389C7.26134 32.6155 7.15982 32.6356 7.06508 32.6749C6.97035 32.7141 6.88426 32.7716 6.81176 32.8442C6.73925 32.9167 6.68172 33.0027 6.64247 33.0975C6.60323 33.1922 6.58305 33.2938 6.58305 33.3963C6.58305 33.4988 6.60323 33.6004 6.64247 33.6951C6.68172 33.7899 6.73925 33.8759 6.81176 33.9484C6.88426 34.021 6.97035 34.0785 7.06508 34.1177C7.15982 34.157 7.26134 34.1771 7.36389 34.1771H26.2664C26.369 34.1771 26.4705 34.157 26.5652 34.1177C26.66 34.0785 26.7461 34.021 26.8186 33.9484C26.8911 33.8759 26.9486 33.7899 26.9878 33.6951C27.0271 33.6004 27.0473 33.4988 27.0473 33.3963C27.0473 33.2938 27.0271 33.1922 26.9878 33.0975C26.9486 33.0027 26.8911 32.9167 26.8186 32.8442C26.7461 32.7716 26.66 32.7141 26.5652 32.6749C26.4705 32.6356 26.369 32.6155 26.2664 32.6155H23.1731L21.4732 26.9693H32.3931C33.0639 26.9678 33.7072 26.7023 34.1837 26.2302C34.6603 25.7581 34.9319 25.1174 34.9398 24.4466V6.66728C34.9344 6.33045 34.8626 5.998 34.7286 5.68892C34.5946 5.37984 34.4011 5.10018 34.159 4.86591C33.9169 4.63165 33.6311 4.44736 33.3178 4.32359C33.0044 4.19981 32.6698 4.13897 32.333 4.14454ZM21.5933 32.6755H11.9829L13.7128 26.9693H19.8995L21.5933 32.6755Z" fill="#45E476"/>
<path d="M3.82012 9.43035H6.12662C6.33371 9.43035 6.53233 9.34808 6.67877 9.20164C6.82521 9.05521 6.90748 8.85659 6.90748 8.6495C6.90748 8.44241 6.82521 8.24379 6.67877 8.09736C6.53233 7.95092 6.33371 7.86865 6.12662 7.86865H3.82012C3.61342 7.87171 3.41595 7.95477 3.26921 8.10039C3.12248 8.246 3.0379 8.44283 3.03326 8.6495C3.04744 8.85294 3.13506 9.04429 3.27981 9.18793C3.42456 9.33158 3.61658 9.41773 3.82012 9.43035Z" fill="#45E476"/>
<path d="M3.82012 11.6528H6.8534C6.95595 11.6528 7.05749 11.6326 7.15223 11.5933C7.24696 11.5541 7.33305 11.4966 7.40555 11.4241C7.47806 11.3515 7.53558 11.2655 7.57482 11.1707C7.61406 11.076 7.63426 10.9745 7.63426 10.8719C7.63426 10.7694 7.61406 10.6678 7.57482 10.5731C7.53558 10.4784 7.47806 10.3923 7.40555 10.3198C7.33305 10.2473 7.24696 10.1897 7.15223 10.1505C7.05749 10.1113 6.95595 10.0911 6.8534 10.0911H3.82012C3.61342 10.0941 3.41595 10.1772 3.26921 10.3228C3.12248 10.4684 3.0379 10.6652 3.03326 10.8719C3.04744 11.0753 3.13506 11.2667 3.27981 11.4103C3.42456 11.554 3.61658 11.6401 3.82012 11.6528Z" fill="#45E476"/>
<path d="M3.82012 13.9352H7.64027C7.84737 13.9352 8.04597 13.853 8.19241 13.7065C8.33884 13.5601 8.42112 13.3615 8.42112 13.1544C8.42112 12.9473 8.33884 12.7487 8.19241 12.6022C8.04597 12.4558 7.84737 12.3735 7.64027 12.3735H3.82012C3.61342 12.3766 3.41595 12.4597 3.26921 12.6053C3.12248 12.7509 3.0379 12.9477 3.03326 13.1544C3.04744 13.3578 3.13506 13.5492 3.27981 13.6928C3.42456 13.8365 3.61658 13.9226 3.82012 13.9352Z" fill="#45E476"/>
<path d="M3.82012 16.1576H8.36706C8.57415 16.1576 8.77275 16.0754 8.91919 15.9289C9.06563 15.7825 9.1479 15.5839 9.1479 15.3768C9.1479 15.1697 9.06563 14.9711 8.91919 14.8247C8.77275 14.6782 8.57415 14.5959 8.36706 14.5959H3.82012C3.61342 14.599 3.41595 14.6821 3.26921 14.8277C3.12248 14.9733 3.0379 15.1701 3.03326 15.3768C3.04744 15.5802 3.13506 15.7716 3.27981 15.9152C3.42456 16.0589 3.61658 16.145 3.82012 16.1576Z" fill="#45E476"/>
<path d="M31.1317 9.43035C31.3388 9.43035 31.5374 9.34808 31.6839 9.20164C31.8303 9.05521 31.9126 8.85659 31.9126 8.6495C31.9126 8.44241 31.8303 8.24379 31.6839 8.09736C31.5374 7.95092 31.3388 7.86865 31.1317 7.86865H28.8252C28.6181 7.86865 28.4195 7.95092 28.2731 8.09736C28.1266 8.24379 28.0444 8.44241 28.0444 8.6495C28.0444 8.85659 28.1266 9.05521 28.2731 9.20164C28.4195 9.34808 28.6181 9.43035 28.8252 9.43035H31.1317Z" fill="#45E476"/>
<path d="M27.3536 10.9318C27.3581 11.1365 27.4411 11.3316 27.5852 11.4769C27.7294 11.6222 27.9239 11.7066 28.1285 11.7127H31.1617C31.3688 11.7127 31.5675 11.6304 31.7139 11.484C31.8603 11.3375 31.9426 11.1389 31.9426 10.9318C31.9426 10.7247 31.8603 10.5261 31.7139 10.3797C31.5675 10.2332 31.3688 10.151 31.1617 10.151H28.1285C28.0257 10.1493 27.9238 10.1684 27.8286 10.2072C27.7335 10.2459 27.6471 10.3035 27.5747 10.3764C27.5024 10.4493 27.4455 10.5361 27.4075 10.6315C27.3695 10.727 27.3512 10.8291 27.3536 10.9318Z" fill="#45E476"/>
<path d="M26.5668 13.1544C26.5714 13.3611 26.656 13.5579 26.8027 13.7035C26.9495 13.8491 27.1469 13.9322 27.3536 13.9352H31.1798C31.3869 13.9352 31.5855 13.853 31.7319 13.7065C31.8784 13.5601 31.9606 13.3615 31.9606 13.1544C31.9606 12.9473 31.8784 12.7487 31.7319 12.6022C31.5855 12.4558 31.3869 12.3735 31.1798 12.3735H27.3536C27.1505 12.3874 26.9592 12.4739 26.8147 12.6173C26.6702 12.7607 26.5822 12.9514 26.5668 13.1544Z" fill="#45E476"/>
<path d="M25.8401 15.4369C25.8448 15.6435 25.9293 15.8404 26.0761 15.986C26.2228 16.1316 26.4203 16.2146 26.627 16.2177H31.1799C31.387 16.2177 31.5856 16.1354 31.7321 15.989C31.8785 15.8426 31.9608 15.6439 31.9608 15.4369C31.9608 15.2298 31.8785 15.0311 31.7321 14.8847C31.5856 14.7383 31.387 14.656 31.1799 14.656H26.5669C26.4675 14.6583 26.3696 14.6805 26.2789 14.7212C26.1882 14.7619 26.1066 14.8204 26.0389 14.8932C25.9711 14.9659 25.9186 15.0515 25.8845 15.1449C25.8504 15.2383 25.8353 15.3376 25.8401 15.4369Z" fill="#45E476"/>
<path d="M16.7162 22.9451C16.8704 22.9463 17.0207 22.9931 17.1483 23.0796C17.276 23.1661 17.3751 23.2885 17.4333 23.4312C17.4915 23.574 17.5061 23.7308 17.4753 23.8819C17.4445 24.033 17.3696 24.1715 17.2602 24.2801C17.1507 24.3888 17.0116 24.4625 16.8603 24.4922C16.709 24.5218 16.5523 24.506 16.41 24.4467C16.2677 24.3875 16.1461 24.2874 16.0605 24.1591C15.975 24.0308 15.9293 23.8801 15.9293 23.7259C15.9309 23.5183 16.0145 23.3197 16.1619 23.1734C16.3093 23.0271 16.5085 22.9451 16.7162 22.9451Z" fill="#45E476"/>
</svg>
