<svg width="38" height="37" viewBox="0 0 38 37" fill="none" xmlns="http://www.w3.org/2000/svg">
<path d="M28.5035 4.6805H26.6353C26.4625 4.00858 26.0729 3.41243 25.5268 2.98455C24.9807 2.55667 24.3086 2.32097 23.6149 2.31402H21.8649C21.6872 1.64519 21.2917 1.05464 20.7409 0.635628C20.1902 0.216615 19.5155 -0.00697554 18.8235 0.000165909C18.1315 0.00730736 17.4616 0.244773 16.9196 0.675064C16.3776 1.10536 15.9943 1.70395 15.8304 2.3763H14.1303C13.4349 2.37684 12.7597 2.61014 12.2123 3.03903C11.6649 3.46791 11.2768 4.0677 11.1099 4.74278H9.19806C8.81205 4.74114 8.42949 4.81555 8.07224 4.96176C7.71498 5.10797 7.39003 5.32311 7.11592 5.5949C6.84181 5.8667 6.62392 6.18982 6.47469 6.54582C6.32546 6.90182 6.24782 7.28373 6.24619 7.66974V33.7633C6.24782 34.1493 6.32546 34.5312 6.47469 34.8872C6.62392 35.2432 6.84181 35.5663 7.11592 35.8381C7.39003 36.1099 7.71498 36.3251 8.07224 36.4713C8.42949 36.6175 8.81205 36.6919 9.19806 36.6902H28.5035C28.8901 36.6927 29.2733 36.6189 29.6313 36.4731C29.9892 36.3272 30.3149 36.1122 30.5897 35.8403C30.8645 35.5685 31.0829 35.2451 31.2325 34.8886C31.3822 34.5322 31.46 34.1498 31.4616 33.7633V7.60746C31.46 7.22092 31.3822 6.83851 31.2325 6.4821C31.0829 6.12569 30.8645 5.80228 30.5897 5.53041C30.3149 5.25853 29.9892 5.04352 29.6313 4.89768C29.2733 4.75184 28.8901 4.67804 28.5035 4.6805ZM14.1801 3.9332H16.5715C16.7858 3.93003 16.9906 3.84391 17.1427 3.69293C17.2948 3.54196 17.3825 3.33789 17.3873 3.12361C17.445 2.75212 17.6337 2.41352 17.9192 2.16895C18.2047 1.92437 18.5683 1.78995 18.9442 1.78995C19.3202 1.78995 19.6837 1.92437 19.9692 2.16895C20.2547 2.41352 20.4434 2.75212 20.5011 3.12361C20.506 3.33895 20.5945 3.54393 20.748 3.69507C20.9014 3.84621 21.1078 3.93163 21.3231 3.9332H23.7083C24.1212 3.9332 24.5172 4.09722 24.8092 4.38919C25.1012 4.68117 25.2652 5.07718 25.2652 5.49009C25.2652 5.903 25.1012 6.299 24.8092 6.59098C24.5172 6.88295 24.1212 7.04698 23.7083 7.04698H14.2548C14.0491 7.04946 13.845 7.01098 13.6542 6.93377C13.4635 6.85656 13.2901 6.74218 13.144 6.59728C12.998 6.45237 12.8822 6.27985 12.8035 6.08977C12.7248 5.89968 12.6847 5.69583 12.6855 5.49009C12.67 5.29114 12.6959 5.09115 12.7616 4.90271C12.8272 4.71427 12.9312 4.54147 13.0669 4.3952C13.2026 4.24893 13.3672 4.13237 13.5502 4.05285C13.7332 3.97334 13.9307 3.93259 14.1303 3.9332H14.1801ZM29.9047 33.701C29.8998 34.0682 29.7496 34.4186 29.487 34.6753C29.2244 34.9321 28.8708 35.0744 28.5035 35.0711H9.19806C8.83403 35.0695 8.48519 34.925 8.22662 34.6688C7.96805 34.4125 7.82043 34.065 7.81553 33.701V7.60746C7.82043 7.24346 7.96805 6.89595 8.22662 6.6397C8.48519 6.38346 8.83403 6.239 9.19806 6.2374H11.0663C11.2501 6.90324 11.6427 7.49251 12.1864 7.91852C12.7301 8.34452 13.3962 8.58476 14.0867 8.60388H23.8827C24.5181 8.53567 25.119 8.28025 25.6091 7.87002C26.0992 7.45978 26.4563 6.91322 26.6353 6.29968H28.5035C28.8676 6.30128 29.2164 6.44574 29.475 6.70198C29.7336 6.95822 29.8812 7.30574 29.8861 7.66974V33.701H29.9047Z" fill="#E8AC12"/>
<path d="M2.3478 30.4004C1.88056 30.4041 1.42488 30.546 1.03818 30.8083C0.651481 31.0705 0.351073 31.4414 0.174821 31.8741C-0.00143097 32.3069 -0.0456368 32.7821 0.0477732 33.2399C0.141183 33.6977 0.368029 34.1176 0.699719 34.4467C1.03141 34.7758 1.4531 34.9993 1.91163 35.0891C2.37017 35.179 2.84502 35.131 3.27635 34.9514C3.70768 34.7717 4.07618 34.4684 4.3354 34.0797C4.59461 33.6909 4.73294 33.2341 4.73296 32.7669C4.72008 32.1401 4.46408 31.5428 4.01902 31.1012C3.57396 30.6596 2.97469 30.4083 2.3478 30.4004ZM2.3478 33.5142C2.18795 33.5129 2.03204 33.4644 1.89973 33.3747C1.76741 33.285 1.66461 33.1582 1.60429 33.0101C1.54397 32.8621 1.52882 32.6995 1.56076 32.5429C1.5927 32.3862 1.67029 32.2426 1.78376 32.13C1.89723 32.0174 2.04149 31.9409 2.19836 31.9101C2.35523 31.8794 2.51769 31.8958 2.66526 31.9572C2.81283 32.0187 2.9389 32.1225 3.02759 32.2555C3.11628 32.3885 3.1636 32.5447 3.16361 32.7046C3.13837 32.9116 3.04414 33.104 2.89614 33.2509C2.74813 33.3978 2.55497 33.4905 2.3478 33.5142Z" fill="#E8AC12"/>
<path d="M3.49991 7.79423C3.11947 7.80037 2.74932 7.91878 2.43597 8.13461C2.12261 8.35044 1.88002 8.65406 1.73867 9.00731C1.59731 9.36057 1.56349 9.74772 1.64146 10.1201C1.71943 10.4926 1.90571 10.8336 2.1769 11.1005C2.44809 11.3674 2.7921 11.5482 3.16572 11.6202C3.53933 11.6922 3.92589 11.6522 4.27685 11.5052C4.6278 11.3582 4.92749 11.1108 5.13827 10.794C5.34906 10.4773 5.46154 10.1053 5.46159 9.72478C5.45666 9.20889 5.24741 8.716 4.87969 8.35413C4.51198 7.99225 4.01581 7.79091 3.49991 7.79423ZM3.49991 10.1607C3.42628 10.1595 3.35466 10.1365 3.29404 10.0947C3.23342 10.0529 3.18649 9.99416 3.15917 9.92578C3.13184 9.8574 3.12532 9.78248 3.14043 9.71041C3.15555 9.63835 3.19162 9.57235 3.24411 9.52072C3.29661 9.46908 3.36319 9.43411 3.4355 9.42019C3.5078 9.40627 3.58261 9.41403 3.65053 9.44248C3.71844 9.47094 3.77643 9.51882 3.81722 9.58013C3.85801 9.64143 3.87978 9.71342 3.87979 9.78705C3.94206 9.97388 3.75524 10.1607 3.49991 10.1607Z" fill="#E8AC12"/>
<path d="M34.9491 1.56665C34.4083 1.57157 33.8809 1.73644 33.4336 2.0405C32.9863 2.34457 32.639 2.77422 32.4354 3.27533C32.2318 3.77644 32.1811 4.32658 32.2896 4.85646C32.3981 5.38635 32.6611 5.87226 33.0452 6.25298C33.4294 6.63371 33.9177 6.89222 34.4485 6.99595C34.9794 7.09967 35.5291 7.04397 36.0283 6.83587C36.5275 6.62776 36.954 6.27656 37.254 5.8265C37.554 5.37644 37.7141 4.84766 37.7142 4.30678C37.7044 3.57879 37.4091 2.88375 36.892 2.37127C36.3748 1.85879 35.6772 1.56985 34.9491 1.56665ZM34.9491 5.49003C34.7929 5.49085 34.6381 5.46089 34.4934 5.40187C34.3488 5.34285 34.2172 5.25592 34.1062 5.14604C33.9952 5.03617 33.9069 4.90551 33.8463 4.7615C33.7858 4.6175 33.7542 4.46298 33.7534 4.30678C33.7509 4.06978 33.819 3.8374 33.9488 3.63913C34.0787 3.44087 34.2646 3.28568 34.4828 3.19326C34.7011 3.10085 34.9419 3.07539 35.1747 3.12011C35.4074 3.16483 35.6216 3.27771 35.7901 3.44443C35.9586 3.61114 36.0737 3.82417 36.1208 4.05645C36.168 4.28872 36.1451 4.52977 36.0549 4.74898C35.9648 4.96819 35.8116 5.15567 35.6147 5.28761C35.4178 5.41956 35.1861 5.49001 34.9491 5.49003Z" fill="#E8AC12"/>
<path d="M11.8076 21.8063H19.6045C19.9169 21.8079 20.2266 21.748 20.5158 21.63C20.8051 21.5119 21.0682 21.3381 21.2903 21.1183C21.5124 20.8986 21.689 20.6373 21.81 20.3492C21.9311 20.0612 21.9942 19.7522 21.9959 19.4398V13.2745C21.9942 12.9621 21.9311 12.6531 21.81 12.3651C21.689 12.0771 21.5124 11.8157 21.2903 11.596C21.0682 11.3762 20.8051 11.2024 20.5158 11.0843C20.2266 10.9663 19.9169 10.9064 19.6045 10.908H11.8076C11.4949 10.9056 11.1849 10.9649 10.8953 11.0827C10.6056 11.2004 10.3421 11.3742 10.1199 11.5941C9.89769 11.8141 9.72112 12.0757 9.60034 12.3641C9.47957 12.6525 9.41698 12.9619 9.41617 13.2745V19.4398C9.41698 19.7525 9.47957 20.0619 9.60034 20.3502C9.72112 20.6386 9.89769 20.9003 10.1199 21.1202C10.3421 21.3401 10.6056 21.5139 10.8953 21.6317C11.1849 21.7494 11.4949 21.8088 11.8076 21.8063ZM10.9855 13.2745C10.9904 13.0592 11.0789 12.8542 11.2324 12.703C11.3859 12.5519 11.5922 12.4665 11.8076 12.4649H19.6045C19.8166 12.4713 20.0182 12.5588 20.1677 12.7094C20.3172 12.8601 20.4031 13.0623 20.4078 13.2745V19.4398C20.403 19.6541 20.3153 19.8582 20.1632 20.0091C20.0111 20.1601 19.8063 20.2462 19.592 20.2494H11.8076C11.5922 20.2478 11.3859 20.1624 11.2324 20.0113C11.0789 19.8601 10.9904 19.6552 10.9855 19.4398V13.2745Z" fill="#E8AC12"/>
<path d="M27.526 10.9082H23.5653C23.3505 10.9082 23.1446 10.9935 22.9928 11.1453C22.841 11.2972 22.7557 11.5031 22.7557 11.7178C22.7557 11.9325 22.841 12.1384 22.9928 12.2903C23.1446 12.4421 23.3505 12.5274 23.5653 12.5274H27.526C27.7414 12.5258 27.9477 12.4404 28.1012 12.2893C28.2546 12.1381 28.3432 11.9331 28.348 11.7178C28.3225 11.5099 28.2274 11.3167 28.0781 11.1697C27.9289 11.0227 27.7343 10.9305 27.526 10.9082Z" fill="#E8AC12"/>
<path d="M27.526 13.2747H23.5653C23.3505 13.2747 23.1446 13.3599 22.9928 13.5118C22.841 13.6636 22.7557 13.8695 22.7557 14.0842C22.7557 14.299 22.841 14.5049 22.9928 14.6567C23.1446 14.8085 23.3505 14.8938 23.5653 14.8938H27.526C27.7414 14.8923 27.9477 14.8068 28.1012 14.6557C28.2546 14.5046 28.3432 14.2996 28.348 14.0842C28.3332 13.8723 28.2415 13.6731 28.0901 13.524C27.9387 13.3749 27.7381 13.2863 27.526 13.2747Z" fill="#E8AC12"/>
<path d="M27.526 15.5789H23.5653C23.3505 15.5789 23.1446 15.6642 22.9928 15.816C22.841 15.9678 22.7557 16.1737 22.7557 16.3884C22.7557 16.6032 22.841 16.8091 22.9928 16.9609C23.1446 17.1127 23.3505 17.198 23.5653 17.198H27.526C27.7414 17.1965 27.9477 17.111 28.1012 16.9599C28.2546 16.8088 28.3432 16.6038 28.348 16.3884C28.3225 16.1805 28.2274 15.9874 28.0781 15.8404C27.9289 15.6934 27.7343 15.6012 27.526 15.5789Z" fill="#E8AC12"/>
<path d="M27.526 17.9453H23.5653C23.3505 17.9453 23.1446 18.0306 22.9928 18.1824C22.841 18.3343 22.7557 18.5402 22.7557 18.7549C22.7557 18.9696 22.841 19.1755 22.9928 19.3274C23.1446 19.4792 23.3505 19.5645 23.5653 19.5645H27.526C27.7414 19.5629 27.9477 19.4775 28.1012 19.3264C28.2546 19.1752 28.3432 18.9702 28.348 18.7549C28.3332 18.543 28.2415 18.3438 28.0901 18.1947C27.9387 18.0456 27.7381 17.9569 27.526 17.9453Z" fill="#E8AC12"/>
<path d="M27.526 20.2495H23.5653C23.3505 20.2495 23.1446 20.3348 22.9928 20.4866C22.841 20.6385 22.7557 20.8444 22.7557 21.0591C22.7557 21.2738 22.841 21.4797 22.9928 21.6316C23.1446 21.7834 23.3505 21.8687 23.5653 21.8687H27.526C27.7414 21.8671 27.9477 21.7817 28.1012 21.6306C28.2546 21.4794 28.3432 21.2744 28.348 21.0591C28.3319 20.8476 28.2397 20.6492 28.0886 20.5003C27.9375 20.3515 27.7377 20.2624 27.526 20.2495Z" fill="#E8AC12"/>
<path d="M27.5257 22.616H10.2318C10.017 22.616 9.81113 22.7013 9.6593 22.8531C9.50747 23.0049 9.42218 23.2108 9.42218 23.4256C9.42218 23.6403 9.50747 23.8462 9.6593 23.998C9.81113 24.1498 10.017 24.2351 10.2318 24.2351H27.5257C27.7411 24.2336 27.9474 24.1482 28.1009 23.997C28.2544 23.8459 28.3429 23.6409 28.3478 23.4256C28.3316 23.2141 28.2395 23.0156 28.0884 22.8668C27.9373 22.718 27.7374 22.6289 27.5257 22.616Z" fill="#E8AC12"/>
<path d="M27.5257 24.9202H10.2318C10.017 24.9202 9.81113 25.0055 9.6593 25.1573C9.50747 25.3091 9.42218 25.515 9.42218 25.7298C9.42218 25.9445 9.50747 26.1504 9.6593 26.3022C9.81113 26.454 10.017 26.5393 10.2318 26.5393H27.5257C27.7411 26.5378 27.9474 26.4524 28.1009 26.3012C28.2544 26.1501 28.3429 25.9451 28.3478 25.7298C28.3316 25.5183 28.2395 25.3198 28.0884 25.171C27.9373 25.0222 27.7374 24.9331 27.5257 24.9202Z" fill="#E8AC12"/>
<path d="M27.5257 27.2866H10.2318C10.017 27.2866 9.81113 27.3719 9.6593 27.5237C9.50747 27.6756 9.42218 27.8815 9.42218 28.0962C9.42218 28.3109 9.50747 28.5168 9.6593 28.6687C9.81113 28.8205 10.017 28.9058 10.2318 28.9058H27.5257C27.7411 28.9042 27.9474 28.8188 28.1009 28.6677C28.2544 28.5165 28.3429 28.3116 28.3478 28.0962C28.3329 27.8843 28.2412 27.6851 28.0898 27.536C27.9385 27.3869 27.7379 27.2982 27.5257 27.2866Z" fill="#E8AC12"/>
<path d="M27.5257 29.5908H10.2318C10.017 29.5908 9.81113 29.6761 9.6593 29.8279C9.50747 29.9798 9.42218 30.1857 9.42218 30.4004C9.42218 30.6151 9.50747 30.821 9.6593 30.9729C9.81113 31.1247 10.017 31.21 10.2318 31.21H27.5257C27.7411 31.2084 27.9474 31.123 28.1009 30.9719C28.2544 30.8207 28.3429 30.6157 28.3478 30.4004C28.3223 30.1925 28.2271 29.9993 28.0779 29.8523C27.9286 29.7053 27.734 29.6132 27.5257 29.5908Z" fill="#E8AC12"/>
<path d="M27.5257 31.9573H10.2318C10.017 31.9573 9.81113 32.0426 9.6593 32.1944C9.50747 32.3462 9.42218 32.5521 9.42218 32.7669C9.42218 32.9816 9.50747 33.1875 9.6593 33.3393C9.81113 33.4911 10.017 33.5764 10.2318 33.5764H27.5257C27.7411 33.5749 27.9474 33.4895 28.1009 33.3383C28.2544 33.1872 28.3429 32.9822 28.3478 32.7669C28.3329 32.5549 28.2412 32.3557 28.0898 32.2066C27.9385 32.0576 27.7379 31.9689 27.5257 31.9573Z" fill="#E8AC12"/>
</svg>
