<svg width="60" height="61" viewBox="0 0 60 61" fill="none" xmlns="http://www.w3.org/2000/svg">
<path d="M26.8753 56.6194H33.1753C35.5753 56.6194 37.1253 54.9194 36.6753 52.8444L35.6503 48.3196H24.4003L23.3753 52.8444C22.9253 54.7944 24.6253 56.6194 26.8753 56.6194Z" stroke="#D02CAC" stroke-width="3" stroke-linecap="round" stroke-linejoin="round"/>
<path d="M35.6499 48.2946L39.9749 44.4445C42.3999 42.2945 42.4999 40.7944 40.5749 38.3694L32.9499 28.6945C31.3499 26.6695 28.7249 26.6695 27.1249 28.6945L19.4999 38.3694C17.5749 40.7944 17.5749 42.3695 20.0999 44.4445L24.4249 48.2946" stroke="#D02CAC" stroke-width="3" stroke-linecap="round" stroke-linejoin="round"/>
<path d="M30.0249 28.1693V34.4944" stroke="#D02CAC" stroke-width="3" stroke-linecap="round" stroke-linejoin="round"/>
<path d="M27.8752 13.3445L25.9252 11.3944C24.7502 10.2194 24.7502 8.31956 25.9252 7.14456L27.8752 5.19448C29.0502 4.01948 30.9502 4.01948 32.1252 5.19448L34.0752 7.14456C35.2502 8.31956 35.2502 10.2194 34.0752 11.3944L32.1252 13.3445C30.9502 14.5195 29.0502 14.5195 27.8752 13.3445Z" stroke="#D02CAC" stroke-width="3" stroke-linecap="round" stroke-linejoin="round"/>
<path d="M48.625 24.8945H51.375C53.025 24.8945 54.375 26.2446 54.375 27.8946V30.6445C54.375 32.2945 53.025 33.6447 51.375 33.6447H48.625C46.975 33.6447 45.625 32.2945 45.625 30.6445V27.8946C45.625 26.2446 46.975 24.8945 48.625 24.8945Z" stroke="#D02CAC" stroke-width="3" stroke-linecap="round" stroke-linejoin="round"/>
<path d="M11.375 24.8945H8.62499C6.97499 24.8945 5.625 26.2446 5.625 27.8946V30.6445C5.625 32.2945 6.97499 33.6447 8.62499 33.6447H11.375C13.025 33.6447 14.375 32.2945 14.375 30.6445V27.8946C14.375 26.2446 13.025 24.8945 11.375 24.8945Z" stroke="#D02CAC" stroke-width="3" stroke-linecap="round" stroke-linejoin="round"/>
<path d="M46.3499 25.6195L33.0999 12.3695" stroke="#D02CAC" stroke-width="3" stroke-linecap="round" stroke-linejoin="round"/>
<path d="M13.6499 25.6195L26.8999 12.3695" stroke="#D02CAC" stroke-width="3" stroke-linecap="round" stroke-linejoin="round"/>
</svg>
