<svg width="38" height="38" viewBox="0 0 38 38" fill="none" xmlns="http://www.w3.org/2000/svg">
<path d="M26.7113 5.07232L18.6777 13.0682L14.041 8.45331L22.0746 0.45738C22.9424 -0.381699 24.6781 -0.036196 25.9426 1.2471C27.232 2.50572 27.5791 4.23324 26.7113 5.07232ZM6.8753 9.44046L9.13164 6.67644L31.4719 28.912L28.5213 30.9851C26.7608 32.7372 22.0002 33.8478 19.0496 33.8478H9.42918L6.3546 36.908C4.8917 38.364 2.53618 38.364 1.09807 36.908C0.750224 36.5659 0.474047 36.1586 0.285554 35.7096C0.0970607 35.2605 0 34.7787 0 34.292C0 33.8053 0.0970607 33.3235 0.285554 32.8745C0.474047 32.4254 0.750224 32.0181 1.09807 31.6761L4.17265 28.6159V19.0405C4.17265 16.2518 5.16444 11.168 6.8753 9.44046ZM24.8764 19.2379L32.91 11.242C33.753 10.3783 35.4887 10.7238 36.7532 12.0071C38.0425 13.2657 38.3897 14.9932 37.5219 15.8323L29.4883 23.8529L24.8764 19.2379Z" fill="#28CCAE"/>
</svg>
