<svg width="50" height="50" viewBox="0 0 50 50" fill="none" xmlns="http://www.w3.org/2000/svg">
<path d="M42.8957 21.9792V14.8333C42.8957 12.2708 40.9373 9.43749 38.5415 8.54166L28.1457 4.64583C26.4165 3.99999 23.5832 3.99999 21.854 4.64583L11.4582 8.5625C9.06234 9.45833 7.104 12.2917 7.104 14.8333V30.3125C7.104 32.7708 8.729 36 10.7082 37.4792L19.6665 44.1667C21.1248 45.2917 23.0623 45.8333 24.9998 45.8333" stroke="#66707B" stroke-width="3" stroke-linecap="round" stroke-linejoin="round"/>
<path opacity="0.4" d="M33.3333 41.6667C37.9357 41.6667 41.6667 37.9357 41.6667 33.3333C41.6667 28.731 37.9357 25 33.3333 25C28.731 25 25 28.731 25 33.3333C25 37.9357 28.731 41.6667 33.3333 41.6667Z" stroke="#66707B" stroke-width="3" stroke-linecap="round" stroke-linejoin="round"/>
<path opacity="0.4" d="M43.7408 43.75H43.7595" stroke="#66707B" stroke-width="2" stroke-linecap="round" stroke-linejoin="round"/>
</svg>
