<svg width="48" height="48" viewBox="0 0 48 48" fill="none" xmlns="http://www.w3.org/2000/svg">
<path opacity="0.4" d="M44 30C44 37.74 37.74 44 30 44L32.1 40.5" stroke="#66707B" stroke-width="2.5" stroke-linecap="round" stroke-linejoin="round"/>
<path opacity="0.4" d="M4.00098 18C4.00098 10.26 10.261 4.00002 18.001 4.00002L15.901 7.50002" stroke="#66707B" stroke-width="2.5" stroke-linecap="round" stroke-linejoin="round"/>
<path d="M27.4023 8.90002L35.3623 13.5L43.2423 8.92004" stroke="#66707B" stroke-width="2.5" stroke-linecap="round" stroke-linejoin="round"/>
<path d="M35.3633 21.64V13.48" stroke="#66707B" stroke-width="2.5" stroke-linecap="round" stroke-linejoin="round"/>
<path d="M33.4802 4.41998L28.6802 7.0799C27.6002 7.6799 26.7002 9.19988 26.7002 10.4399V15.52C26.7002 16.76 27.5802 18.2799 28.6802 18.8799L33.4802 21.54C34.5002 22.12 36.1802 22.12 37.2202 21.54L42.0202 18.8799C43.1002 18.2799 44.0002 16.76 44.0002 15.52V10.4399C44.0002 9.19988 43.1202 7.6799 42.0202 7.0799L37.2202 4.41998C36.2002 3.85998 34.5202 3.85998 33.4802 4.41998Z" stroke="#66707B" stroke-width="2.5" stroke-linecap="round" stroke-linejoin="round"/>
<path d="M4.69727 30.9001L12.6373 35.5L20.5373 30.9201" stroke="#66707B" stroke-width="2.5" stroke-linecap="round" stroke-linejoin="round"/>
<path d="M12.6357 43.64V35.48" stroke="#66707B" stroke-width="2.5" stroke-linecap="round" stroke-linejoin="round"/>
<path d="M10.778 26.42L5.97806 29.0799C4.89806 29.6799 3.99805 31.1999 3.99805 32.4399V37.52C3.99805 38.76 4.87806 40.28 5.97806 40.88L10.778 43.54C11.798 44.12 13.478 44.12 14.518 43.54L19.3181 40.88C20.3981 40.28 21.298 38.76 21.298 37.52V32.4399C21.298 31.1999 20.4181 29.6799 19.3181 29.0799L14.518 26.42C13.478 25.86 11.798 25.86 10.778 26.42Z" stroke="#66707B" stroke-width="2.5" stroke-linecap="round" stroke-linejoin="round"/>
</svg>
