<svg width="50" height="50" viewBox="0 0 50 50" fill="none" xmlns="http://www.w3.org/2000/svg">
<path opacity="0.4" d="M25 33.3333V39.5833" stroke="#66707B" stroke-width="2.5" stroke-miterlimit="10" stroke-linecap="round" stroke-linejoin="round"/>
<path d="M25.0002 47.9167C27.3013 47.9167 29.1668 46.0512 29.1668 43.75C29.1668 41.4488 27.3013 39.5833 25.0002 39.5833C22.699 39.5833 20.8335 41.4488 20.8335 43.75C20.8335 46.0512 22.699 47.9167 25.0002 47.9167Z" stroke="#66707B" stroke-width="2.5" stroke-miterlimit="10" stroke-linecap="round" stroke-linejoin="round"/>
<path opacity="0.4" d="M37.4998 43.75H29.1665" stroke="#66707B" stroke-width="2.5" stroke-miterlimit="10" stroke-linecap="round" stroke-linejoin="round"/>
<path opacity="0.4" d="M20.8333 43.75H12.5" stroke="#66707B" stroke-width="2.5" stroke-miterlimit="10" stroke-linecap="round" stroke-linejoin="round"/>
<path d="M39.5832 17.2918V26.0417C39.5832 31.875 38.1248 33.3333 32.2915 33.3333H17.7082C11.8748 33.3333 10.4165 31.875 10.4165 26.0417V11.4583C10.4165 5.62501 11.8748 4.16667 17.7082 4.16667H19.8956C22.0831 4.16667 22.5623 4.81243 23.3956 5.9166L25.5832 8.83332C26.1457 9.56248 26.4582 10.0001 27.9166 10.0001H32.2915C38.1248 10.0001 39.5832 11.4584 39.5832 17.2918Z" stroke="#66707B" stroke-width="2.5" stroke-miterlimit="10"/>
</svg>
