<svg width="37" height="39" viewBox="0 0 37 39" fill="none" xmlns="http://www.w3.org/2000/svg">
<path d="M34.4992 3.28837H21.064V2.42373C21.0306 1.76977 20.7473 1.15362 20.2726 0.702561C19.7979 0.251505 19.1681 0 18.5133 0C17.8585 0 17.2287 0.251505 16.754 0.702561C16.2793 1.15362 15.996 1.76977 15.9626 2.42373V3.28837H2.5274C1.85709 3.28837 1.21427 3.55465 0.740291 4.02863C0.266309 4.50261 0 5.14547 0 5.81578C0 6.48609 0.266309 7.12895 0.740291 7.60293C1.21427 8.07691 1.85709 8.34319 2.5274 8.34319V24.7714C2.53002 25.3505 2.64669 25.9234 2.87072 26.4574C3.09474 26.9914 3.42177 27.476 3.8331 27.8837C4.24443 28.2913 4.732 28.6139 5.26801 28.8331C5.80403 29.0523 6.37796 29.1637 6.95705 29.1611H16.8472V36.2112C16.8472 36.7634 17.0665 37.2929 17.457 37.6833C17.8474 38.0737 18.3769 38.293 18.929 38.293C19.4811 38.293 20.0107 38.0737 20.4011 37.6833C20.7915 37.2929 21.0108 36.7634 21.0108 36.2112V29.0281H30.0097C30.5893 29.0316 31.164 28.9208 31.7008 28.702C32.2376 28.4832 32.726 28.1607 33.138 27.753C33.55 27.3453 33.8776 26.8603 34.1021 26.3259C34.3265 25.7915 34.4434 25.218 34.446 24.6384V8.27668C34.7797 8.27843 35.1104 8.21445 35.4193 8.08838C35.7282 7.96231 36.0093 7.77663 36.2464 7.54194C36.4836 7.30725 36.6722 7.02814 36.8015 6.72055C36.9308 6.41296 36.9983 6.08292 37 5.74927C36.9991 5.42297 36.9336 5.10008 36.8071 4.79928C36.6807 4.49849 36.4958 4.22576 36.2632 3.99689C36.0306 3.76803 35.7549 3.58756 35.4522 3.46594C35.1494 3.34432 34.8255 3.28397 34.4992 3.28837ZM19.3879 36.0782C19.3801 36.1826 19.3346 36.2805 19.26 36.3539C19.1854 36.4273 19.0867 36.4711 18.9822 36.4773C18.8672 36.4848 18.7537 36.4474 18.6656 36.373C18.5776 36.2986 18.5218 36.1929 18.51 36.0782V29.0281H19.3879V36.0782ZM32.8098 9.93945H19.3879C19.1586 9.93945 18.9387 10.0305 18.7765 10.1927C18.6144 10.3549 18.5233 10.5748 18.5233 10.8041C18.5233 11.0334 18.6144 11.2533 18.7765 11.4155C18.9387 11.5776 19.1586 11.6687 19.3879 11.6687H32.8098V24.7714C32.8046 25.4976 32.5119 26.1922 31.9959 26.7032C31.4799 27.2142 30.7825 27.5001 30.0563 27.4983H6.95705C6.2325 27.4966 5.53783 27.2094 5.02363 26.6989C4.50943 26.1885 4.21715 25.4959 4.21015 24.7714V8.27668H32.7566V9.93945H32.8098ZM34.4926 6.61391H2.56735C2.33803 6.61391 2.1181 6.52281 1.95595 6.36066C1.7938 6.19851 1.70268 5.97859 1.70268 5.74927C1.70268 5.51995 1.7938 5.30003 1.95595 5.13787C2.1181 4.97572 2.33803 4.88463 2.56735 4.88463H16.8738C17.1027 4.88124 17.3213 4.78926 17.4838 4.62802C17.6463 4.46678 17.74 4.24884 17.7451 4.01999V2.42373C17.7451 2.19 17.838 1.96584 18.0032 1.80057C18.1685 1.6353 18.3926 1.54246 18.6264 1.54246C18.8601 1.54246 19.0843 1.6353 19.2495 1.80057C19.4148 1.96584 19.5076 2.19 19.5076 2.42373V4.0865C19.5128 4.31535 19.6064 4.53329 19.7689 4.69454C19.9314 4.85578 20.1501 4.94775 20.3789 4.95114H34.6854C34.9155 4.95281 35.1358 5.04403 35.2997 5.20545C35.4636 5.36687 35.5582 5.58579 35.5634 5.81578C35.304 6.21485 34.9049 6.61391 34.4992 6.61391H34.4926Z" fill="#3384F0"/>
<path d="M16.8474 11.6023C17.0181 11.601 17.1846 11.5492 17.3259 11.4534C17.4672 11.3576 17.5771 11.2221 17.6415 11.064C17.7059 10.9059 17.7221 10.7322 17.688 10.5649C17.6538 10.3977 17.571 10.2442 17.4498 10.124C17.3286 10.0037 17.1746 9.92201 17.007 9.88918C16.8395 9.85635 16.666 9.87386 16.5083 9.93949C16.3507 10.0051 16.2161 10.116 16.1214 10.258C16.0266 10.4 15.9761 10.5669 15.9761 10.7377C15.9918 10.9629 16.0888 11.1748 16.2491 11.3339C16.4094 11.4929 16.622 11.5883 16.8474 11.6023Z" fill="#3384F0"/>
<path d="M27.7817 25.7024H30.3357C30.5646 25.699 30.7833 25.607 30.9458 25.4458C31.1083 25.2845 31.2019 25.0666 31.207 24.8377V15.7257C31.2019 15.4969 31.1083 15.2789 30.9458 15.1177C30.7833 14.9564 30.5646 14.8645 30.3357 14.8611H27.7817C27.5528 14.8645 27.3342 14.9564 27.1717 15.1177C27.0092 15.2789 26.9156 15.4969 26.9104 15.7257V24.9042C26.9288 25.1224 27.0287 25.3257 27.1901 25.4735C27.3516 25.6214 27.5628 25.7031 27.7817 25.7024ZM28.5865 16.5904H29.4844V24.1061H28.6064L28.5865 16.5904Z" fill="#3384F0"/>
<path d="M22.7467 25.7024H25.2276C25.4576 25.7008 25.6779 25.6095 25.8419 25.4481C26.0058 25.2867 26.1003 25.0678 26.1055 24.8378V17.3886C26.1003 17.1586 26.0058 16.9397 25.8419 16.7782C25.6779 16.6168 25.4576 16.5256 25.2276 16.5239H22.6736C22.4447 16.5273 22.226 16.6193 22.0636 16.7805C21.9011 16.9418 21.8074 17.1597 21.8023 17.3886V24.9043C21.8481 25.1236 21.966 25.3213 22.1371 25.4659C22.3083 25.6106 22.5228 25.6938 22.7467 25.7024ZM23.5515 18.2532H24.4228V24.1062H23.5515V18.2532Z" fill="#3384F0"/>
<path d="M16.8472 19.0517V24.9046C16.8523 25.1335 16.9459 25.3514 17.1084 25.5126C17.2709 25.6739 17.4896 25.7659 17.7184 25.7692H20.2725C20.5014 25.7659 20.72 25.6739 20.8825 25.5126C21.045 25.3514 21.1386 25.1335 21.1438 24.9046V19.0517C21.1386 18.8228 21.045 18.6049 20.8825 18.4436C20.72 18.2824 20.5014 18.1904 20.2725 18.187H17.7184C17.4935 18.2024 17.2817 18.2982 17.1217 18.457C16.9617 18.6158 16.8642 18.8269 16.8472 19.0517ZM18.5232 19.9163H19.4012V24.1065H18.5099L18.5232 19.9163Z" fill="#3384F0"/>
<path d="M11.7924 20.9804V24.9045C11.7975 25.1345 11.8921 25.3534 12.056 25.5148C12.2199 25.6763 12.4402 25.7675 12.6703 25.7691H15.1512C15.3812 25.7675 15.6015 25.6763 15.7654 25.5148C15.9293 25.3534 16.0239 25.1345 16.0291 24.9045V20.9804C16.0239 20.7504 15.9293 20.5315 15.7654 20.37C15.6015 20.2086 15.3812 20.1174 15.1512 20.1157H12.6038C12.3849 20.1323 12.1802 20.2303 12.03 20.3904C11.8799 20.5504 11.7951 20.7609 11.7924 20.9804ZM13.4751 21.7785H14.3464V24.0399H13.4751V21.7785Z" fill="#3384F0"/>
<path d="M9.31152 18.2532H5.95273V19.9159H9.31152V18.2532Z" fill="#3384F0"/>
<path d="M12.6705 16.5906H9.31172V18.2533H12.6705V16.5906Z" fill="#3384F0"/>
<path d="M9.31152 14.9277H5.95273V16.5905H9.31152V14.9277Z" fill="#3384F0"/>
<path d="M12.6705 13.2651H9.31172V14.9279H12.6705V13.2651Z" fill="#3384F0"/>
<path d="M9.31152 11.6023H5.95273V13.2651H9.31152V11.6023Z" fill="#3384F0"/>
<path d="M12.6705 9.93945H9.31172V11.6022H12.6705V9.93945Z" fill="#3384F0"/>
</svg>
