<svg width="60" height="60" viewBox="0 0 60 60" fill="none" xmlns="http://www.w3.org/2000/svg">
<path d="M5 30.875H19.5C23.325 30.875 25.95 33.775 25.95 37.325V45.3751C25.95 48.9251 23.325 51.825 19.5 51.825H11.45C7.90004 51.825 5 48.9251 5 45.3751V30.875" stroke="#6230F0" stroke-width="3" stroke-linecap="round" stroke-linejoin="round"/>
<path d="M5 30.8747C5 15.7497 7.82507 13.2498 16.3251 8.19983" stroke="#6230F0" stroke-width="3" stroke-linecap="round" stroke-linejoin="round"/>
<path d="M34.0747 30.875H48.5747C52.3997 30.875 55.0247 33.775 55.0247 37.325V45.3751C55.0247 48.9251 52.3997 51.825 48.5747 51.825H40.5247C36.9747 51.825 34.0747 48.9251 34.0747 45.3751V30.875" stroke="#6230F0" stroke-opacity="0.4" stroke-width="3" stroke-linecap="round" stroke-linejoin="round"/>
<path d="M34.0747 30.8747C34.0747 15.7497 36.8996 13.2498 45.3996 8.19983" stroke="#6230F0" stroke-opacity="0.4" stroke-width="3" stroke-linecap="round" stroke-linejoin="round"/>
</svg>
