<svg width="40" height="26" viewBox="0 0 40 26" fill="none" xmlns="http://www.w3.org/2000/svg">
<path d="M17.3486 9.70571V9.70678C17.3486 15.2012 13.665 20.2264 9.16141 23.7669C9.8201 22.5133 10.4233 21.0609 10.716 19.5656L10.9654 18.2918L9.67012 18.3756C8.04762 18.4805 6.42885 18.0683 5.02268 17.1861C3.61568 16.3034 2.48344 14.9886 1.78118 13.4049C1.07874 11.8208 0.841733 10.0466 1.10386 8.31431C1.36597 6.58216 2.11368 4.98009 3.24208 3.71379C4.36993 2.4481 5.82467 1.57718 7.41363 1.2042C9.00203 0.831349 10.66 0.971025 12.1753 1.60743C13.6913 2.24417 15.0006 3.35169 15.9267 4.79551C16.8531 6.23985 17.3505 7.95068 17.3486 9.70571Z" stroke="#122428" stroke-opacity="0.25" stroke-width="2"/>
<path d="M39 9.70571V9.70678C39 15.2018 35.3178 20.2272 30.8124 23.7676C31.4712 22.5138 32.0746 21.0612 32.3674 19.5656L32.6167 18.2918L31.3215 18.3756C29.699 18.4805 28.0802 18.0683 26.674 17.1861C25.267 16.3034 24.1348 14.9886 23.4325 13.4049C22.7301 11.8208 22.4931 10.0466 22.7552 8.31431C23.0173 6.58215 23.765 4.98009 24.8934 3.71379C26.0213 2.4481 27.476 1.57718 29.065 1.2042C30.6534 0.831349 32.3114 0.971025 33.8266 1.60743C35.3427 2.24417 36.652 3.35169 37.578 4.79551C38.5044 6.23985 39.0019 7.95068 39 9.70571Z" stroke="#122428" stroke-opacity="0.25" stroke-width="2"/>
</svg>
