<svg width="60" height="60" viewBox="0 0 60 60" fill="none" xmlns="http://www.w3.org/2000/svg">
<path d="M5 30.8752H19.5C23.325 30.8752 25.95 33.7753 25.95 37.3253V45.3754C25.95 48.9254 23.325 51.8253 19.5 51.8253H11.45C7.90004 51.8253 5 48.9254 5 45.3754V30.8752" stroke="#386FFB" stroke-width="3" stroke-linecap="round" stroke-linejoin="round"/>
<path d="M5 30.8748C5 15.7498 7.82507 13.25 16.3251 8.19995" stroke="#386FFB" stroke-width="3" stroke-linecap="round" stroke-linejoin="round"/>
<path d="M34.0752 30.8752H48.5752C52.4002 30.8752 55.0252 33.7753 55.0252 37.3253V45.3754C55.0252 48.9254 52.4002 51.8253 48.5752 51.8253H40.5252C36.9752 51.8253 34.0752 48.9254 34.0752 45.3754V30.8752" stroke="#386FFB" stroke-opacity="0.4" stroke-width="3" stroke-linecap="round" stroke-linejoin="round"/>
<path d="M34.0752 30.8748C34.0752 15.7498 36.9001 13.25 45.4001 8.19995" stroke="#386FFB" stroke-opacity="0.4" stroke-width="3" stroke-linecap="round" stroke-linejoin="round"/>
</svg>
