<svg width="44" height="44" viewBox="0 0 44 44" fill="none" xmlns="http://www.w3.org/2000/svg">
<path d="M22.0002 26.3632C24.41 26.3632 26.3635 24.4096 26.3635 21.9998C26.3635 19.59 24.41 17.6365 22.0002 17.6365C19.5904 17.6365 17.6368 19.59 17.6368 21.9998C17.6368 24.4096 19.5904 26.3632 22.0002 26.3632Z" fill="white"/>
<path opacity="0.4" d="M36.6669 34.375C36.3736 34.375 36.0985 34.2834 35.8419 34.1C35.2369 33.6417 35.1086 32.78 35.5669 32.175C37.7852 29.2233 38.9586 25.7034 38.9586 22C38.9586 18.2967 37.7852 14.7767 35.5669 11.825C35.1086 11.22 35.2369 10.3583 35.8419 9.90002C36.4469 9.44168 37.3086 9.57 37.7669 10.175C40.3519 13.6033 41.7086 17.6917 41.7086 22C41.7086 26.3084 40.3519 30.3967 37.7669 33.825C37.4919 34.1917 37.0886 34.375 36.6669 34.375Z" fill="white"/>
<path opacity="0.4" d="M7.33354 34.375C6.91187 34.375 6.50853 34.1917 6.23353 33.825C3.64853 30.3967 2.29187 26.3084 2.29187 22C2.29187 17.6917 3.64853 13.6033 6.23353 10.175C6.69186 9.57 7.55356 9.44168 8.15856 9.90002C8.76356 10.3583 8.89188 11.22 8.43355 11.825C6.21521 14.7767 5.04187 18.2967 5.04187 22C5.04187 25.7034 6.21521 29.2233 8.43355 32.175C8.89188 32.78 8.76356 33.6417 8.15856 34.1C7.92023 34.2834 7.62687 34.375 7.33354 34.375Z" fill="white"/>
<path opacity="0.4" d="M30.7999 29.9749C30.5066 29.9749 30.2316 29.8833 29.9749 29.6999C29.3699 29.2416 29.2416 28.3799 29.6999 27.7749C30.9649 26.1066 31.6249 24.1083 31.6249 21.9999C31.6249 19.8916 30.9649 17.8933 29.6999 16.2249C29.2416 15.6199 29.3699 14.7582 29.9749 14.2999C30.5799 13.8416 31.4416 13.9699 31.8999 14.5749C33.5132 16.7383 34.3749 19.3049 34.3749 21.9999C34.3749 24.6949 33.5132 27.2799 31.8999 29.4249C31.6249 29.7916 31.2216 29.9749 30.7999 29.9749Z" fill="white"/>
<path opacity="0.4" d="M13.2 29.9749C12.7784 29.9749 12.375 29.7916 12.1 29.4249C10.4867 27.2616 9.625 24.6949 9.625 21.9999C9.625 19.3049 10.4867 16.7199 12.1 14.5749C12.5583 13.9699 13.42 13.8416 14.025 14.2999C14.63 14.7582 14.7583 15.6199 14.3 16.2249C13.035 17.8933 12.375 19.8916 12.375 21.9999C12.375 24.1083 13.035 26.1066 14.3 27.7749C14.7583 28.3799 14.63 29.2416 14.025 29.6999C13.7867 29.8833 13.4934 29.9749 13.2 29.9749Z" fill="white"/>
</svg>
