<svg width="21" height="21" viewBox="0 0 21 21" fill="none" xmlns="http://www.w3.org/2000/svg">
<path d="M14.1328 6.05664L19.7188 6.87695C20.1875 6.95508 20.5781 7.26758 20.7344 7.73633C20.8906 8.16602 20.7734 8.67383 20.4219 8.98633L16.3594 13.0098L17.3359 18.7129C17.4141 19.1816 17.2188 19.6504 16.8281 19.9238C16.4375 20.2363 15.9297 20.2363 15.5 20.041L10.5 17.3457L5.46094 20.041C5.07031 20.2363 4.52344 20.2363 4.17188 19.9238C3.78125 19.6504 3.58594 19.1816 3.66406 18.7129L4.60156 13.0098L0.539062 8.98633C0.1875 8.67383 0.0703125 8.16602 0.226562 7.73633C0.382812 7.26758 0.773438 6.95508 1.24219 6.87695L6.86719 6.05664L9.36719 0.861328C9.5625 0.431641 9.99219 0.158203 10.5 0.158203C10.9688 0.158203 11.3984 0.431641 11.5938 0.861328L14.1328 6.05664Z" fill="#FFA51E"/>
<path d="M14.1328 6.05664L13.6836 6.27619L13.7993 6.51303L14.0602 6.55133L14.1328 6.05664ZM19.7188 6.87695L19.801 6.38366L19.7914 6.38226L19.7188 6.87695ZM20.7344 7.73633L20.2599 7.8945L20.2645 7.9072L20.7344 7.73633ZM20.4219 8.98633L20.0897 8.61262L20.0796 8.62158L20.07 8.63107L20.4219 8.98633ZM16.3594 13.0098L16.0075 12.6545L15.8226 12.8376L15.8665 13.0942L16.3594 13.0098ZM17.3359 18.7129L17.8291 18.6307L17.8288 18.6285L17.3359 18.7129ZM16.8281 19.9238L16.5414 19.5142L16.5283 19.5234L16.5158 19.5334L16.8281 19.9238ZM15.5 20.041L15.2627 20.4811L15.2777 20.4892L15.2931 20.4962L15.5 20.041ZM10.5 17.3457L10.7373 16.9056L10.5009 16.7782L10.2642 16.9048L10.5 17.3457ZM5.46094 20.041L5.68463 20.4884L5.69676 20.4819L5.46094 20.041ZM4.17188 19.9238L4.50406 19.5501L4.48237 19.5308L4.45861 19.5142L4.17188 19.9238ZM3.66406 18.7129L4.15726 18.7951L4.15744 18.794L3.66406 18.7129ZM4.60156 13.0098L5.09494 13.0909L5.13681 12.8362L4.9534 12.6545L4.60156 13.0098ZM0.539062 8.98633L0.890904 8.63107L0.881323 8.62158L0.871244 8.61262L0.539062 8.98633ZM0.226562 7.73633L0.696631 7.90726L0.700904 7.89444L0.226562 7.73633ZM1.24219 6.87695L1.17002 6.38208L1.15999 6.38376L1.24219 6.87695ZM6.86719 6.05664L6.93934 6.55141L7.20245 6.51304L7.31774 6.27345L6.86719 6.05664ZM9.36719 0.861328L9.81785 1.07819L9.82237 1.06823L9.36719 0.861328ZM11.5938 0.861328L11.1384 1.06831L11.1445 1.08087L11.5938 0.861328ZM14.0602 6.55133L19.6461 7.37165L19.7914 6.38226L14.2055 5.56195L14.0602 6.55133ZM19.6366 7.37015C19.9322 7.41942 20.1654 7.61042 20.26 7.89444L21.2087 7.57821C20.9909 6.92473 20.4428 6.49073 19.8009 6.38376L19.6366 7.37015ZM20.2645 7.9072C20.3529 8.15035 20.2833 8.4405 20.0897 8.61262L20.7541 9.36003C21.2635 8.90715 21.4284 8.18168 21.2043 7.56546L20.2645 7.9072ZM20.07 8.63107L16.0075 12.6545L16.7112 13.365L20.7737 9.34159L20.07 8.63107ZM15.8665 13.0942L16.8431 18.7973L17.8288 18.6285L16.8522 12.9254L15.8665 13.0942ZM16.8427 18.7951C16.8893 19.0746 16.7735 19.3517 16.5414 19.5142L17.1149 20.3334C17.664 19.9491 17.9388 19.2887 17.8291 18.6307L16.8427 18.7951ZM16.5158 19.5334C16.3072 19.7002 16.0102 19.7237 15.7069 19.5858L15.2931 20.4962C15.8492 20.749 16.5678 20.7724 17.1405 20.3143L16.5158 19.5334ZM15.7373 19.6009L10.7373 16.9056L10.2627 17.7858L15.2627 20.4811L15.7373 19.6009ZM10.2642 16.9048L5.22511 19.6001L5.69676 20.4819L10.7358 17.7866L10.2642 16.9048ZM5.23733 19.5938C4.97838 19.7233 4.66411 19.6924 4.50406 19.5501L3.83969 20.2975C4.38276 20.7803 5.16224 20.7494 5.68454 20.4882L5.23733 19.5938ZM4.45861 19.5142C4.22646 19.3517 4.11067 19.0746 4.15726 18.7951L3.17087 18.6307C3.0612 19.2887 3.33604 19.9491 3.88514 20.3334L4.45861 19.5142ZM4.15744 18.794L5.09494 13.0909L4.10818 12.9287L3.17068 18.6318L4.15744 18.794ZM4.9534 12.6545L0.890904 8.63107L0.187221 9.34159L4.24972 13.365L4.9534 12.6545ZM0.871244 8.61262C0.67761 8.4405 0.608042 8.15035 0.696459 7.9072L-0.243334 7.56546C-0.467417 8.18168 -0.30261 8.90715 0.206881 9.36003L0.871244 8.61262ZM0.700904 7.89444C0.795577 7.61042 1.02874 7.41942 1.32439 7.37015L1.15999 6.38376C0.518137 6.49073 -0.0299522 6.92473 -0.247779 7.57821L0.700904 7.89444ZM1.31434 7.37172L6.93934 6.55141L6.79503 5.56187L1.17003 6.38219L1.31434 7.37172ZM7.31774 6.27345L9.81774 1.07813L8.91664 0.644522L6.41664 5.83983L7.31774 6.27345ZM9.82237 1.06823C9.93217 0.826671 10.1775 0.658203 10.5 0.658203V-0.341797C9.80692 -0.341797 9.19283 0.03661 8.912 0.654427L9.82237 1.06823ZM10.5 0.658203C10.7743 0.658203 11.0251 0.818512 11.1386 1.06823L12.0489 0.654427C11.7718 0.0447689 11.1632 -0.341797 10.5 -0.341797V0.658203ZM11.1445 1.08087L13.6836 6.27619L14.582 5.8371L12.043 0.641784L11.1445 1.08087Z" fill="#122428"/>
</svg>
