<svg width="80" height="80" viewBox="0 0 80 80" fill="none" xmlns="http://www.w3.org/2000/svg">
<path d="M79.2008 40.1591L79.4688 39.9254L79.0909 38.6775L79.2008 40.1591Z" fill="#D0EEFF"/>
<path d="M77.4037 27.4374C77.2412 27.186 77.0655 26.873 76.881 26.5555C76.6964 26.238 76.4768 25.9028 76.2747 25.6074C75.8881 25.0165 75.4839 24.5888 75.2159 24.6902C75.6553 25.237 76.0375 25.8235 76.4548 26.4011C76.3314 26.7713 76.3454 27.1738 76.4944 27.5344C76.6305 28.0371 76.8897 28.6191 77.105 29.1792C76.982 28.7382 76.8326 28.2972 76.6657 27.896C76.8326 28.2091 77.0171 27.896 77.1841 28.2267C77.3415 28.994 77.5725 29.7441 77.8738 30.4668C78.1376 31.1703 78.2542 31.9208 78.2165 32.6715L78.1506 32.5745L78.691 34.0253C78.691 34.5103 78.4713 34.3516 78.379 34.2105C78.5767 34.8631 78.7656 35.4452 78.9326 36.089C79.0965 36.8432 79.1936 37.6105 79.2225 38.3819C79.3931 37.9789 79.4479 37.5359 79.3807 37.1032C79.3314 36.6037 79.2328 36.1103 79.0863 35.6304C78.9415 35.1528 78.8255 34.6669 78.7393 34.1752C78.638 33.7525 78.6456 33.311 78.7612 32.892L78.8227 32.989C78.5437 32.0803 78.3337 31.1516 78.1945 30.211C78.0428 29.2579 77.7773 28.3267 77.4037 27.4374Z" fill="#D0EEFF"/>
<path d="M78.3875 34.1933L78.3479 34.0786C78.326 34.0918 78.3479 34.1403 78.3875 34.1933Z" fill="#D0EEFF"/>
<path d="M22.0413 4.32248V4.46799C22.1116 4.40185 22.1818 4.29161 22.0413 4.32248Z" fill="#D0EEFF"/>
<path d="M44.1948 1.84459L44.0937 1.81372C43.9312 1.96806 44.0103 1.93719 44.1948 1.84459Z" fill="#D0EEFF"/>
<path d="M57.3494 76.0973L57.8282 76.0532C57.754 76.0088 57.6677 75.9892 57.5816 75.9971C57.4956 76.005 57.4143 76.0401 57.3494 76.0973Z" fill="#D0EEFF"/>
<path d="M68.7141 64.3723L68.5603 64.3149C68.5911 64.4208 68.6438 64.4296 68.7141 64.3723Z" fill="#D0EEFF"/>
<path d="M73.5111 56.3819C73.6584 56.1697 73.7877 55.9455 73.8977 55.7117C73.7155 55.8995 73.5827 56.1298 73.5111 56.3819Z" fill="#D0EEFF"/>
<path d="M77.5006 54.0936C77.5006 54.001 77.5226 53.8951 77.5401 53.7893C77.5208 53.8898 77.5076 53.9914 77.5006 54.0936Z" fill="#D0EEFF"/>
<path d="M57.7349 73.0192L57.2209 72.8208C57.2912 72.9399 57.5197 72.9795 57.7349 73.0192Z" fill="#D0EEFF"/>
<path d="M74.135 54.1551C74.2645 54.047 74.3706 53.9134 74.4469 53.7627C74.2999 53.8522 74.1893 53.9913 74.135 54.1551Z" fill="#D0EEFF"/>
<path d="M76.6875 25.5679C76.8087 25.8693 76.9466 26.1637 77.1005 26.4498C77.0035 26.1383 76.8646 25.8416 76.6875 25.5679Z" fill="#D0EEFF"/>
<path d="M10.9006 62.8598C10.9714 62.8895 11.0486 62.9002 11.1247 62.8907C10.9841 62.754 10.9226 62.7804 10.9006 62.8598Z" fill="#D0EEFF"/>
<path d="M36.8245 77.0762H36.9255C36.8875 77.0465 36.8462 77.0214 36.8025 77.0012L36.8245 77.0762Z" fill="#D0EEFF"/>
<path d="M28.1161 75.3257C28.1644 75.3141 28.2115 75.2978 28.2567 75.2769C28.1776 75.2902 28.1468 75.308 28.1161 75.3257Z" fill="#D0EEFF"/>
<path d="M43.4928 76.6222C43.5969 76.5803 43.6945 76.5239 43.7827 76.4546C43.6817 76.5163 43.5851 76.5648 43.4928 76.6222Z" fill="#D0EEFF"/>
<path d="M49.8364 75.8768C49.52 75.815 49.7792 75.5946 50.0297 75.3829C49.6928 75.4349 49.3607 75.5146 49.0368 75.621C48.7512 75.7004 48.5008 75.793 48.246 75.8856C47.98 75.981 47.7086 76.0605 47.4333 76.1237C47.0804 76.1805 46.7227 76.2012 46.3657 76.1854L47.1653 76.2472C46.5366 76.5369 45.8691 76.733 45.184 76.8292C44.5271 76.9507 43.8521 76.9327 43.2026 76.7763L43.4882 76.622C42.9264 76.7928 42.3347 76.8409 41.7529 76.7631C41.1686 76.7014 40.6678 76.6352 40.4349 76.7631C40.8742 76.9306 40.4349 77.0453 41.0719 77.204C40.6326 77.2658 40.1933 77.3496 39.754 77.3937L38.436 77.5303L38.2603 76.9703C37.821 77.0188 37.3465 77.0321 36.8896 77.0629C37.0478 77.182 36.5909 77.1114 36.0901 77.0629C35.5892 77.0144 35.0357 76.9527 34.983 77.2085C34.2317 76.913 35.3608 76.8336 35.6595 76.6573C34.8775 76.7102 34.8292 76.4853 34.078 76.6837L33.4146 76.0752C32.7381 76.0752 32.0703 76.0443 31.3937 76.0046C31.5036 76.0046 31.3937 75.9253 31.4948 75.8988C31.2363 75.9432 30.9714 75.9327 30.7172 75.8679C30.4448 75.7974 30.1636 75.696 29.8737 75.6034C29.5874 75.5033 29.2936 75.4266 28.9951 75.3741C28.6775 75.3102 28.3505 75.3102 28.0329 75.3741C28.0988 75.3741 28.0901 75.3432 28.1164 75.3167C27.374 75.4931 25.9813 74.6377 25.4805 74.3422C24.4964 73.9983 24.8962 74.5892 24.7776 74.7832C23.3981 74.1085 22.9676 73.8131 22.5239 73.6676C22.0802 73.522 21.6452 73.4559 20.3932 73.0502C19.8836 72.3844 20.3932 72.4285 20.8633 72.4329C21.3333 72.4373 21.7155 72.4329 20.9951 71.7803C20.6075 71.7968 20.2225 71.7101 19.8792 71.5289C19.6156 71.4187 19.3169 71.2996 19.0005 71.1365C18.6842 70.9733 18.3767 70.7881 18.0472 70.5897L17.6343 70.2016L17.1949 69.7607C16.8874 69.4476 16.5491 69.1301 16.2372 68.7862C15.9253 68.4422 15.6266 68.0894 15.3586 67.7543C15.1154 67.444 14.8965 67.1153 14.704 66.771L14.5327 67.1546L13.7507 66.5593L12.9995 65.9288C13.3992 66.0655 13.7814 66.2021 14.1768 66.3212C13.8605 66.2066 13.0214 65.6686 12.4195 65.3291C10.8336 64.0062 12.3009 63.9224 10.8731 63.0758C10.8682 63.0112 10.8682 62.9463 10.8731 62.8817C10.4872 62.672 10.1595 62.3689 9.91982 61.9998C9.55958 61.5368 9.13784 60.9592 8.68973 60.3374L9.40143 60.505C9.54201 60.8048 9.70895 61.087 9.86711 61.3869C9.95497 60.6858 8.89621 60.0905 8.40857 59.2527C7.76277 58.4722 7.65294 59.116 7.24876 58.7147C7.14358 58.5302 7.02769 58.352 6.9017 58.1811C6.7872 58.0222 6.71328 57.8375 6.68644 57.6432C6.41845 56.7612 7.17847 57.286 7.49039 57.4271C6.69522 56.9861 6.61175 56.7348 5.70675 55.2488C5.89566 55.0636 6.04503 55.1385 6.18122 55.3237C6.01999 55.042 5.77169 54.8206 5.47392 54.6932L5.53103 54.0361C5.47978 53.6492 5.34646 53.2778 5.14003 52.947C4.97969 52.6981 4.7877 52.4713 4.56892 52.2723C4.33599 52.0308 4.12977 51.7646 3.95387 51.4786C3.71299 51.0704 3.54638 50.6225 3.46183 50.1557C3.68589 50.4203 3.51016 49.9396 3.34761 49.2738C3.18506 48.6079 2.97419 47.7878 3.08841 47.3953C3.31247 48.1802 3.75178 46.8706 4.13399 47.2939C4.06809 46.3767 3.88797 46.2224 3.69467 46.1165C3.50137 46.0107 3.25535 45.949 3.08402 45.2037L3.78693 45.7153C3.34761 44.3262 3.40912 45.4198 3.02691 43.9514C3.25096 44.3351 3.12356 43.2812 3.4223 44.1278C3.36518 43.1709 3.34322 42.8049 3.32565 42.4919C3.29392 42.0044 3.29392 41.5154 3.32565 41.0279L2.7106 40.9C2.6768 40.7295 2.68646 40.5532 2.73869 40.3875C2.79091 40.2217 2.88401 40.0719 3.00934 39.9519C3.00934 40.1856 3.00934 40.5516 3.08402 40.5164C3.58924 39.8593 2.80286 39.4316 3.29489 38.6776C3.0972 38.854 2.82482 39.0656 2.80725 38.3557C3.15431 38.5938 3.24657 37.2974 3.38715 37.2577C3.24217 37.4693 3.23778 37.0945 3.2246 36.6492C3.21142 36.2038 3.2246 35.6879 3.01812 35.6129C3.40033 34.8368 3.27732 35.9039 3.45744 35.9701C3.26853 35.6129 3.32125 34.903 3.45744 34.2063C3.60778 33.6517 3.68023 33.0788 3.67271 32.5042C3.71225 32.5042 3.743 32.4689 3.76936 32.4777C3.73827 31.9042 3.75296 31.3291 3.81329 30.758C3.90555 30.0745 3.97144 29.2675 4.05491 28.3768C4.10324 28.6061 4.14278 28.8178 4.20428 29.0515C4.54256 28.2445 4.45909 27.9403 4.34047 27.6536C4.23742 27.4643 4.18342 27.252 4.18342 27.0363C4.18342 26.8206 4.23742 26.6083 4.34047 26.419C4.5162 26.6527 4.73147 26.0838 4.93355 25.537C5.13564 24.9902 5.37287 24.5449 5.4827 24.9506C5.53103 24.5096 5.62328 24.0422 5.68479 23.6277C5.75369 23.2493 5.76258 22.8624 5.71115 22.4812C6.33937 21.8639 5.59692 24.2053 6.25151 23.2396L6.58979 22.0402L6.93245 21.9741C6.77869 21.8374 7.31027 20.8805 7.14333 20.8497C7.52114 20.8497 7.96046 20.5322 8.14498 20.7085C8.48325 20.003 9.30917 19.2534 9.46293 18.5743L9.62548 18.6184C9.5508 17.6439 10.9434 16.6694 10.693 15.9727L11.2685 15.8183C11.9978 14.8835 11.374 14.6277 11.6376 14.1074C11.9637 13.6888 12.3206 13.2953 12.7051 12.9301C12.3053 13.6444 12.5294 13.5783 12.8984 13.3357C13.2418 13.0697 13.613 12.842 14.0055 12.6567C14.4448 12.2157 15.7628 11.0119 15.9605 10.4519C15.587 11.1662 16.1098 11.078 15.1301 11.9555C15.6002 11.9555 15.9429 11.5984 16.3339 11.1398C16.7533 10.602 17.2441 10.1243 17.7924 9.71988L17.9506 9.958C19.5277 8.5778 19.352 8.19417 19.866 7.25493C20.2658 7.41368 20.1296 7.6077 19.8133 8.23386C20.5656 7.85783 21.2987 7.44429 22.0099 6.99477C22.773 6.5359 23.5622 6.12216 24.3734 5.75567C24.927 5.75567 24.6853 6.04671 24.2636 6.35979C25.6123 5.40291 27.6024 5.03691 28.38 4.12413C28.0769 4.48572 29.0522 4.0624 29.6672 4.02712C29.6321 3.90365 29.698 3.71404 29.7726 3.71404C31.0779 3.00184 32.5244 2.58918 34.0077 2.50582L33.6167 2.75716C34.209 2.67325 34.7958 2.55398 35.374 2.39999C35.6376 2.32943 35.888 2.24565 36.1384 2.16628L36.9028 1.95903C38.052 1.59886 39.2693 1.51429 40.4569 1.71209C40.9885 1.85761 39.9034 2.20597 40.9885 2.21919C41.2565 2.11336 41.3487 1.93698 41.5508 1.81351C41.7529 1.69005 42.0648 1.60626 42.7589 1.72973L42.6139 2.131L43.5936 1.79147C43.1543 1.42106 41.5552 1.41665 42.6798 1.12562C43.072 1.3076 43.5158 1.34355 43.9319 1.22704C44.4153 1.14934 44.9107 1.23299 45.3421 1.46516C44.9457 1.51482 44.5633 1.64377 44.2175 1.84438C45.4551 2.16606 46.7174 2.38289 47.9912 2.49259C48.5491 2.57637 49.1071 2.65133 49.7133 2.79685C50.3978 2.98363 51.0628 3.23614 51.6991 3.55089C53.3289 3.72727 55.2883 4.45926 56.4305 4.67533C56.3223 4.8952 56.1489 5.07601 55.9342 5.19289C55.7194 5.30976 55.4738 5.35694 55.2312 5.32795C56.4437 5.91442 57.4278 5.40732 58.0033 6.37302C58.4426 6.276 59.2949 6.68169 60.1472 7.04768C60.9995 7.41368 61.8078 7.7929 62.1549 7.57683C62.1153 7.74439 63.3806 8.45875 61.9396 7.96487C63.6573 8.84679 63.5343 9.99769 64.2065 10.5136C64.5931 10.8046 64.0966 9.76839 64.9489 10.4783C65.0324 10.593 65.006 10.6724 65.0851 10.787L65.5244 10.9281C65.7353 11.3691 64.905 10.9061 64.7468 11.0339C64.989 11.2976 65.2602 11.5328 65.5552 11.7351C65.8276 11.9335 66.0999 12.1187 66.3943 12.2951C66.6886 12.4715 66.9874 12.6567 67.2993 12.8816C67.6321 13.1302 67.9477 13.4012 68.2438 13.6929L67.9275 13.5606C68.134 13.7899 68.3668 14.0016 68.5557 14.2485L69.1356 14.9849L69.0302 14.932C69.43 15.2495 69.8342 15.567 70.2076 15.9153L70.0231 16.0035C70.2779 16.2416 70.4272 16.2284 70.7479 16.5988L70.4536 16.6253C70.6546 16.6888 70.8423 16.7889 71.0071 16.9207C71.2356 17.0995 71.4514 17.294 71.6529 17.5028C71.8726 17.7277 72.0923 17.9702 72.2856 18.1995C72.4537 18.4044 72.6092 18.6194 72.7512 18.8433V19.0461L73.52 19.7869L74.2449 20.541C74.5656 21.6301 73.0324 19.6106 74.2845 21.4229L73.5596 21.1848C73.8901 21.6035 74.1607 22.0666 74.3635 22.5606C74.5208 22.939 74.7151 23.3009 74.9434 23.6409C74.9874 23.0941 74.6008 22.4636 75.0577 22.8428C75.0545 23.3911 75.255 23.9209 75.62 24.3288C75.7825 24.5184 75.9714 24.6992 76.156 24.8932C76.349 25.1051 76.5267 25.3305 76.6875 25.5679C76.4591 25.0123 76.3141 24.6287 75.866 24.3773C75.6156 23.7997 76.0198 24.0598 75.866 23.6938C75.6551 23.4601 75.453 23.2264 75.2334 23.0015L75.4311 22.6179L74.4821 21.37C74.8863 21.2597 73.8232 20.1133 74.4821 20.4263C73.81 19.5444 73.7046 18.8918 72.8303 18.2877C72.6414 17.5292 73.7089 19.0991 73.318 18.42C70.6767 14.8475 67.6341 11.5923 64.2504 8.71891L64.6897 8.84679C64.2504 8.72332 63.6925 8.47197 63.3454 8.40583C62.8923 7.77572 62.3421 7.222 61.7155 6.76547C61.342 6.47757 60.9436 6.22375 60.525 6.00702C60.1927 5.83318 59.8272 5.73246 59.453 5.71158C59.3432 5.61016 59.5848 5.64544 59.6991 5.65866C59.0401 5.30149 58.1483 4.74588 57.173 4.15059C56.6765 3.87279 56.1582 3.58616 55.6398 3.32159C55.1214 3.05701 54.5854 2.84976 54.0802 2.66015C53.5486 2.78362 52.8193 2.4529 52.0901 2.12218C51.3608 1.79147 50.6008 1.57099 50.1043 1.88407L50.5744 1.82674C51.2026 2.2677 49.4234 2.12659 49.0895 2.29857C48.6502 1.60626 49.1554 1.85761 48.5755 1.18294L49.3575 1.57099L49.2872 1.06389C48.6209 1.18319 47.9395 1.19064 47.2707 1.08593C46.6757 0.978967 46.0886 0.831644 45.5135 0.644975C44.9975 0.476803 44.4724 0.33841 43.9407 0.230475C43.4671 0.153897 42.9818 0.205655 42.5349 0.380401C42.6403 0.340715 42.6183 0.261342 42.7326 0.226066C42.497 0.141058 42.2492 0.0948949 41.9989 0.0893688C41.7608 0.104999 41.5252 0.146395 41.296 0.212837C40.8567 0.340715 40.4437 0.521507 40.0351 0.592061C39.9385 0.353943 40.5272 0.217247 40.9665 0.045273C40.3999 -0.015091 39.8285 -0.015091 39.2619 0.045273C38.6337 0.0937784 37.944 0.142284 37.2938 0.252523C36.0338 0.468209 34.7618 0.60517 33.4849 0.662614C32.782 1.10357 33.8363 1.03302 33.0983 1.41224C32.4305 1.44311 31.9077 1.27555 32.6941 0.971284C32.4169 0.938003 32.1367 0.938003 31.8594 0.971284C31.5285 1.01446 31.2 1.0748 30.8753 1.15208C30.1042 1.33904 29.3456 1.57469 28.6041 1.85761C28.2043 1.9899 27.8045 2.15746 27.4047 2.29857L26.2098 2.73952C25.4719 3.04068 24.7146 3.29113 23.9429 3.48915C22.7084 4.45485 23.609 4.15941 21.6716 5.42055C22.0494 4.97959 20.8149 4.97959 22.0406 4.32256L22.0802 4.02712C20.9345 4.55208 19.8327 5.16846 18.7853 5.87032C18.3189 6.19583 17.8783 6.55702 17.4673 6.95067C17.1463 7.25399 16.8776 7.60862 16.6722 8.00015C16.3075 7.62093 16.2636 8.15007 15.4113 8.48079C15.1653 8.74978 15.486 8.52048 15.6178 8.45875C15.2224 9.34066 14.5898 9.23924 14.1768 9.70225L14.2823 9.49059C13.9308 9.93154 13.575 10.3725 13.2411 10.8135C12.9951 10.9546 12.626 11.1706 12.4723 11.0957L12.7315 11.3558C12.0945 11.982 12.0769 11.3029 11.3696 12.1848H11.7254C11.1192 12.5817 10.6139 13.6532 10.2361 13.5077C10.1571 13.4768 10.2757 13.3931 10.4294 13.1946C9.82529 13.5325 9.3276 14.0335 8.99286 14.641C8.62582 15.2962 8.18348 15.9059 7.6749 16.4577L8.34706 16.5239C7.73202 17.71 7.78034 17.1147 7.64415 16.9648C7.44526 17.2484 7.21862 17.5114 6.9676 17.7497C6.67 18.0587 6.3968 18.3904 6.15047 18.7419C5.96156 19.3107 6.15047 19.1123 6.21197 19.3592C5.95717 19.6723 5.72872 20.003 5.48709 20.3249L5.59692 19.4871C5.53906 20.0116 5.39039 20.522 5.15761 20.9952C4.93355 21.4846 4.67875 21.9829 4.41516 22.4547C4.16369 22.8984 3.94775 23.3614 3.76936 23.8393C3.60166 24.2152 3.53938 24.6299 3.58924 25.0388C3.18506 25.6252 3.51455 24.32 3.25535 24.686C2.9633 25.1828 2.72753 25.7108 2.55244 26.2602C2.37672 26.829 2.25371 27.4243 2.11312 28.024C1.97091 29.0824 1.70399 30.12 1.31796 31.1151C1.18616 31.4635 1.05437 31.8251 0.948929 32.1955C0.843493 32.5659 0.764415 32.9539 0.685338 33.342C0.523101 34.1359 0.404307 34.9382 0.329489 35.7452C0.241625 36.5654 0.20648 37.3988 0.140582 38.2322C0.140582 38.6732 0.105437 39.0656 0.0790774 39.4845C0.0527183 39.9034 0 40.3179 0 40.7324L0.153762 40.6707C0.153762 41.4556 0.0966502 42.2449 0.153762 43.0342C0.359442 43.4947 0.49424 43.9839 0.553542 44.485C0.649582 45.0682 0.830152 45.6343 1.08951 46.165C0.957716 46.1033 0.795167 46.3414 0.676551 46.1298C0.896211 47.1131 1.23009 48.1449 1.17738 48.7755L0.970895 48.4757C1.07194 49.0224 1.18616 49.6221 1.32235 50.2395C1.45854 50.8568 1.65184 51.4521 1.82317 52.0033C2.09911 52.9162 2.49192 53.7892 2.99176 54.6006C3.30368 55.2884 3.03569 55.381 2.93026 55.6412C3.33136 56.6437 3.90707 57.5664 4.63042 58.3663C4.71458 58.6643 4.76759 58.9702 4.78858 59.2791L5.36409 59.5172C5.58375 60.0111 5.14882 59.7818 5.27622 60.2007C5.95535 60.9829 6.55987 61.8274 7.08182 62.723C7.53011 63.4855 8.02149 64.2216 8.55354 64.9278L8.5799 64.65C9.04997 65.016 9.54201 66.0655 8.96211 65.6465C9.32593 66.1624 9.73622 66.6436 10.1878 67.0841C10.6052 67.4853 11.0664 67.8205 11.5058 68.1821C12.4283 68.892 13.4695 69.6284 14.8534 70.8675C14.8534 71.3084 15.5343 71.7891 16.2284 72.2741C16.9226 72.7592 17.6474 73.209 17.665 73.6808C18.3943 74.0292 18.9215 74.4172 19.4223 74.717C19.9042 75.0252 20.444 75.2308 21.0082 75.3212C21.0082 75.4049 21.1049 75.502 20.8764 75.3917C21.3192 75.802 21.8389 76.1198 22.4053 76.3265C23.1877 76.6403 23.9871 76.9097 24.7996 77.1335V77.3848C25.1686 77.2481 25.9594 77.4951 26.7677 77.6715C27.5761 77.8478 28.38 78.0375 28.7271 77.8567C28.8633 78.011 28.38 77.989 28.1428 78.0022C28.2818 78.1481 28.4523 78.2601 28.6412 78.3297C28.83 78.3992 29.0322 78.4245 29.2323 78.4035C29.6768 78.38 30.1222 78.4307 30.5502 78.5534C30.4404 78.6548 30.7084 78.8665 30.4712 78.9061C32.1186 79.6117 34.3064 79.8895 36.6216 79.9733C38.9368 80.057 41.3399 79.9203 43.6507 79.8851C44.9204 79.7836 43.1455 79.4176 44.7886 79.2545C45.2982 79.4529 44.0417 79.8762 45.1049 79.8542C45.3836 79.6823 45.6897 79.56 46.0099 79.4926C46.2954 79.4221 46.6205 79.3868 47.1301 79.3118C46.9764 79.5147 47.1653 79.594 46.4668 79.8366C47.0165 79.8018 47.5575 79.6813 48.0703 79.4794C48.7224 79.2112 49.4216 79.0777 50.1263 79.0869C50.0297 78.9502 50.2142 78.8047 50.4031 78.646C50.8033 78.4248 51.232 78.26 51.6771 78.1565C52.1009 78.042 52.5306 77.9507 52.9643 77.8831C53.7727 77.7641 54.3921 77.6759 54.4228 77.5303C54.4228 77.5303 54.9676 77.2393 54.4536 77.3848C54.766 77.2609 55.0877 77.1621 55.4157 77.0894C55.7013 77.0232 55.9077 77.0144 55.8858 77.1644C56.1204 76.8353 56.4193 76.5577 56.7644 76.3486L56.637 76.7278C56.8786 76.547 57.1071 76.2472 57.3487 76.0884C57.1862 76.0884 57.0236 76.0884 56.8611 76.1149C57.6343 76.0311 58.6183 74.8317 58.8556 75.3564L58.6403 75.4799C59.0796 75.3564 59.5189 75.1845 59.9583 75.0389C60.1416 74.7895 60.3443 74.5551 60.5645 74.3378C60.8373 74.0654 61.1499 73.8364 61.4915 73.6587C62.1197 73.9674 63.5299 72.4549 64.4701 71.767L64.5535 71.9611C65.1291 71.1938 66.961 69.7254 66.5788 69.9327C67.2378 69.3329 68.1999 68.5877 68.0066 69.0287C68.2394 68.7421 68.6128 68.3099 68.9336 67.8866C69.2213 67.5849 69.4244 67.2122 69.5222 66.8063L70.8402 66.0169C70.8402 65.4525 71.341 64.9101 71.7803 64.4515C72.2197 63.993 72.5579 63.5696 72.2768 63.3139C72.8435 62.7186 72.883 62.9743 73.3092 62.5819C73.4634 62.013 73.6956 61.4684 73.9989 60.9636C74.2757 60.4477 74.592 59.9538 74.9127 59.4555H74.9962C75.3098 58.8956 75.5645 58.3045 75.7562 57.6917C75.9802 57.017 76.1955 56.2806 76.4986 55.5222L77.1664 55.4251C77.4036 54.5741 77.0829 54.2301 77.4563 53.4938C77.6057 53.3438 77.575 53.5246 77.5354 53.7451C77.7426 52.925 78.0573 52.1362 78.4712 51.3992C78.4272 50.0763 78.7699 49.1944 78.5634 48.0303C78.8973 47.5893 78.9017 47.973 78.8709 48.3522C78.8402 48.7314 78.8007 49.1283 79.1301 48.7931C79.2984 48.3662 79.4221 47.9228 79.4992 47.4703C79.5898 47.0205 79.6515 46.5654 79.6837 46.1077C79.7428 45.1547 79.7428 44.1989 79.6837 43.2459C79.8067 43.0871 79.8814 43.312 80 43.4002L79.8111 42.7653C79.6811 42.3129 79.5181 41.8707 79.3234 41.4424C78.9281 40.5605 78.4448 39.7711 78.168 40.1195C77.777 39.6433 77.5706 39.1318 77.2191 40.7016C77.3628 41.0971 77.4487 41.5115 77.4739 41.9318C77.4959 42.4037 77.4168 42.8138 77.1927 42.9549L77.5925 43.0783C77.5925 44.1454 77.386 44.1675 77.1532 44.2425C76.9204 44.3174 76.6392 44.4365 76.4898 45.6712L76.6875 45.1685C76.6612 45.6359 76.8545 46.0504 76.626 46.5531C76.4854 46.6898 76.4898 46.3458 76.4371 46.1121C76.4898 46.8176 76.5777 47.5408 76.5821 48.2552C76.3317 48.2904 76.2306 48.1846 76.1428 47.7481C75.7298 49.6001 76.9687 47.532 76.2614 49.7765C75.967 50.1337 76.0725 49.5648 76.0066 49.2341C75.7407 49.6432 75.571 50.1076 75.5102 50.5922C75.4574 51.0332 75.4399 51.5227 75.3608 52.0871C75.0137 51.9813 75.2861 51.311 74.7765 52.0871C75.0137 51.9769 75.3476 51.968 75.1587 52.6515C75.0401 52.4266 74.9522 52.5369 74.8556 52.7838C74.7387 53.0951 74.6053 53.3998 74.4558 53.6966C74.6227 53.6128 74.7633 53.723 74.7238 54.0009C74.5893 54.3432 74.4292 54.6749 74.2449 54.993C74.4778 54.7858 74.6842 54.552 74.9039 54.3492C74.8603 54.8617 74.6574 55.3476 74.324 55.7382C74.0428 56.0866 73.7397 56.3776 73.4454 56.7436C73.4263 56.5933 73.4491 56.4407 73.5113 56.3027C73.2301 56.6951 72.9138 57.0743 72.6326 57.5021C72.3135 57.9567 72.0729 58.4621 71.9209 58.9969V58.8823C71.7858 59.1583 71.7038 59.4576 71.6793 59.7642C71.7013 59.8744 71.8067 59.8524 71.9077 59.8347C72.101 59.8083 72.2724 59.8083 71.6925 61.0341C71.1477 61.7264 70.9588 60.042 70.1592 61.916C70.559 61.6206 70.5239 61.991 70.3174 62.5731C70.0497 63.2115 69.7324 63.8278 69.3685 64.4163L69.5574 63.0317C69.263 63.3888 68.9292 64.1561 68.6787 64.2928L68.8413 64.3501C69.0961 64.5089 68.8413 64.7911 68.4767 65.1174C68.2965 65.2894 68.0988 65.479 67.9143 65.6686C67.728 65.8409 67.5785 66.0494 67.475 66.2815C67.6024 64.9586 67.7298 65.0248 67.251 64.3457C67.164 64.8254 67.0056 65.2892 66.7809 65.7215C66.6543 65.9741 66.5073 66.216 66.3416 66.4447C66.1257 66.7034 65.8876 66.9424 65.6299 67.159C65.7748 66.7181 65.9286 66.3124 66.0692 65.8714C65.3231 66.6078 64.6749 67.4378 64.1406 68.3408C63.9912 68.5613 63.8506 68.7818 63.7013 69.0066L63.2619 69.6416C62.9852 70.0826 62.7348 70.475 62.48 70.819C62.5546 70.184 61.9264 70.4486 62.2427 69.7078C61.7726 70.1134 61.2718 70.4838 60.7886 70.8807L60.9248 70.1531C60.6172 71.035 59.6947 71.1717 60.1735 71.6788C60.2965 71.4892 60.2306 71.4407 60.547 71.2599C60.6216 71.454 60.5777 71.9831 59.7298 72.4902C59.084 72.7063 59.9231 72.0492 59.6639 71.9963C59.2817 72.574 59.0093 72.1948 58.5524 72.693L59.2026 72.6534C58.9962 73.2134 58.2757 73.2178 57.7968 73.694C58.4075 73.1737 58.0648 73.0943 57.7046 73.0326L57.7661 73.059C57.3663 73.2927 56.9358 73.8219 56.5448 73.769L56.6546 73.1031L56.2153 73.7734C55.9517 73.8307 55.7057 73.7337 56.0527 73.4515C55.0203 73.7513 55.1741 73.9983 55.2004 74.2761C55.2257 74.356 55.2248 74.4419 55.198 74.5212C55.1711 74.6006 55.1196 74.6692 55.0511 74.717C54.6786 74.9634 54.2518 75.1147 53.8078 75.158C53.777 74.9419 54.0187 74.717 54.7611 74.5274C54.7611 74.1658 54.5019 74.0865 53.7551 74.2496C53.7551 74.2496 53.7551 74.2143 53.7287 74.1967L52.67 74.6112C52.3053 74.7523 51.9275 74.8758 51.5717 75.0169C50.9641 75.2401 50.3823 75.5284 49.8364 75.8768Z" fill="#D0EEFF"/>
<path d="M53.7645 74.1925C54.305 74.0018 54.8223 73.7503 55.3065 73.4429C55.0018 73.4827 54.7053 73.5705 54.4278 73.703C54.0368 73.8706 53.681 74.0338 53.7645 74.1925Z" fill="#D0EEFF"/>
<path d="M24.2629 6.35986C24.1792 6.41108 24.0986 6.46703 24.0212 6.52743L24.2629 6.35986Z" fill="#D0EEFF"/>
<path d="M30.0139 4.05354C29.9015 4.01995 29.7831 4.01092 29.6669 4.02709C29.6976 4.13292 29.7943 4.18583 30.0139 4.05354Z" fill="#D0EEFF"/>
<path d="M8.14005 21.5992C8.25428 21.048 8.23231 20.7922 8.14005 20.7173C8.06503 20.8521 8.02563 21.0039 8.02563 21.1582C8.02563 21.3126 8.06503 21.4644 8.14005 21.5992Z" fill="#D0EEFF"/>
<path d="M3.72937 32.5173C3.73479 32.5958 3.74518 32.6739 3.76048 32.751C3.76493 32.5747 3.75604 32.5262 3.72937 32.5173Z" fill="#D0EEFF"/>
<path d="M7.25677 56.8451C7.04731 56.6266 6.86444 56.3838 6.71201 56.122C6.54946 55.8397 6.39131 55.5487 6.22437 55.2974C6.38857 55.5821 6.53528 55.8766 6.66368 56.1793C6.7785 56.4635 6.98815 56.6989 7.25677 56.8451Z" fill="#D0EEFF"/>
<path d="M37.4255 2.19287L36.8192 2.51036L37.4606 2.26783L37.4255 2.19287Z" fill="#D0EEFF"/>
<path d="M31.6308 3.22021C31.3584 3.22021 30.3963 3.61267 30.7214 3.68763C31.0041 3.49464 31.3096 3.33764 31.6308 3.22021Z" fill="#D0EEFF"/>
<path d="M12.2478 14.1162L12.2917 14.4999L12.485 13.9619L12.2478 14.1162Z" fill="#D0EEFF"/>
</svg>
