<svg width="40" height="40" viewBox="0 0 40 40" fill="none" xmlns="http://www.w3.org/2000/svg">
<path d="M35.7834 31.6667V8.33333C35.7834 5 34.1167 3.33333 30.7834 3.33333H24.1167C20.7834 3.33333 19.1167 5 19.1167 8.33333V31.6667C19.1167 35 20.7834 36.6667 24.1167 36.6667H30.7834C34.1167 36.6667 35.7834 35 35.7834 31.6667Z" stroke="#6574FC" stroke-width="2" stroke-linecap="round"/>
<path d="M19.1167 10H27.45" stroke="#6574FC" stroke-width="2" stroke-linecap="round"/>
<path d="M19.1167 30H25.7834" stroke="#6574FC" stroke-width="2" stroke-linecap="round"/>
<path d="M19.1167 23.25L27.45 23.3334" stroke="#6574FC" stroke-width="2" stroke-linecap="round"/>
<path d="M19.1167 16.6667H24.1167" stroke="#6574FC" stroke-width="2" stroke-linecap="round"/>
<path d="M9.14964 3.33333C6.43297 3.33333 4.21631 5.55 4.21631 8.25V29.85C4.21631 30.6 4.53298 31.7333 4.91631 32.3833L6.28298 34.65C7.84964 37.2667 10.433 37.2667 11.9996 34.65L13.3663 32.3833C13.7496 31.7333 14.0663 30.6 14.0663 29.85V8.25C14.0663 5.55 11.8496 3.33333 9.14964 3.33333Z" stroke="#6574FC" stroke-width="2" stroke-linecap="round"/>
<path d="M14.0663 11.6667H4.21631" stroke="#6574FC" stroke-width="2" stroke-linecap="round"/>
</svg>
