<svg width="25" height="26" viewBox="0 0 25 26" fill="none" xmlns="http://www.w3.org/2000/svg">
<path d="M21.7813 11.9358C21.7813 17.1845 18.0833 22.1005 13.0313 23.5388C12.6875 23.6354 12.3125 23.6354 11.9687 23.5388C6.91666 22.1005 3.21875 17.1845 3.21875 11.9358V7.22369C3.21875 6.34354 3.8646 5.34531 4.66668 5.01257L10.4687 2.56535C11.7708 2.01793 13.2396 2.01793 14.5417 2.56535L20.3438 5.01257C21.1354 5.34531 21.7917 6.34354 21.7917 7.22369L21.7813 11.9358Z" stroke="#F8A151" stroke-width="1.5" stroke-linecap="round" stroke-linejoin="round"/>
<path d="M12.5 13.417C13.6506 13.417 14.5833 12.4559 14.5833 11.2703C14.5833 10.0847 13.6506 9.12354 12.5 9.12354C11.3494 9.12354 10.4167 10.0847 10.4167 11.2703C10.4167 12.4559 11.3494 13.417 12.5 13.417Z" stroke="#F8A151" stroke-width="1.5" stroke-miterlimit="10" stroke-linecap="round" stroke-linejoin="round"/>
<path d="M12.5 13.417V16.6371" stroke="#F8A151" stroke-width="1.5" stroke-miterlimit="10" stroke-linecap="round" stroke-linejoin="round"/>
</svg>
