<svg width="50" height="51" viewBox="0 0 50 51" fill="none" xmlns="http://www.w3.org/2000/svg">
<path d="M4.16797 21.2678V19.2262C4.16797 8.80949 8.33463 4.64282 18.7513 4.64282H31.2513C41.668 4.64282 45.8346 8.80949 45.8346 19.2262V31.7262C45.8346 42.1428 41.668 46.3095 31.2513 46.3095H29.168" stroke="#715AFF" stroke-opacity="0.3" stroke-width="2" stroke-linecap="round" stroke-linejoin="round"/>
<path d="M27.082 23.3931L37.5195 12.9348H29.1654" stroke="#715AFF" stroke-width="2" stroke-linecap="round" stroke-linejoin="round"/>
<path d="M37.5205 12.9348V21.289" stroke="#715AFF" stroke-width="2" stroke-linecap="round" stroke-linejoin="round"/>
<path d="M22.918 34.1213V39.7463C22.918 44.4338 21.043 46.3088 16.3555 46.3088H10.7305C6.04297 46.3088 4.16797 44.4338 4.16797 39.7463V34.1213C4.16797 29.4338 6.04297 27.5588 10.7305 27.5588H16.3555C21.043 27.5588 22.918 29.4338 22.918 34.1213Z" stroke="#715AFF" stroke-width="2" stroke-linecap="round" stroke-linejoin="round"/>
</svg>
