<svg width="40" height="40" viewBox="0 0 40 40" fill="none" xmlns="http://www.w3.org/2000/svg">
<path d="M31.521 19.9303C31.4479 16.9349 30.2187 14.0871 28.0959 11.9948C25.9732 9.90239 23.125 8.7312 20.1593 8.7312C17.1936 8.7312 14.3454 9.90239 12.2227 11.9948C10.0999 14.0871 8.87073 16.9349 8.79755 19.9303C8.87073 22.9256 10.0999 25.7734 12.2227 27.8658C14.3454 29.9581 17.1936 31.1293 20.1593 31.1293C23.125 31.1293 25.9732 29.9581 28.0959 27.8658C30.2187 25.7734 31.4479 22.9256 31.521 19.9303ZM28.261 25.105C27.4377 24.7964 26.5962 24.5396 25.7415 24.3358C25.9918 23.1865 26.1332 22.0157 26.1638 20.8393H29.7284C29.5698 22.3562 29.0677 23.8157 28.261 25.105ZM10.5764 20.7694H14.141C14.1986 21.9433 14.3374 23.1116 14.5563 24.2659C13.7188 24.4757 12.8813 24.7554 12.0438 25.0351C11.2064 23.7587 10.693 22.2937 10.5487 20.7694H10.5764ZM12.0438 14.7555C12.8651 15.0631 13.7041 15.32 14.5563 15.5247C14.3117 16.6748 14.1727 17.8453 14.141 19.0212H10.5764C10.7266 17.5066 11.2191 16.0472 12.0161 14.7555H12.0438ZM21.0418 29.3008V25.3848C21.8793 25.3848 22.7168 25.5246 23.5543 25.5945C23.0629 26.9931 22.2185 28.6714 21.0349 29.3008H21.0418ZM16.702 25.6645C17.5348 25.5255 18.3774 25.4553 19.2214 25.4547V29.3707C18.024 28.6714 17.1865 26.9931 16.695 25.6645H16.702ZM19.2629 10.4898V14.4058C18.4254 14.4058 17.5879 14.266 16.7504 14.1961C17.1865 12.8674 18.024 11.1891 19.2629 10.4898ZM19.2629 16.1541V19.0212H15.8368C15.9001 17.9631 16.0412 16.9113 16.259 15.8744C17.2557 16.0142 18.2386 16.0841 19.2629 16.1541ZM19.2629 20.7694V23.6365C18.2178 23.7065 17.2349 23.7764 16.259 23.9162C16.0458 22.8785 15.9048 21.827 15.8368 20.7694H19.2629ZM21.0141 23.7064V20.8393H24.4403C24.3735 21.8971 24.2324 22.9487 24.0181 23.9862C23.0352 23.7941 22.036 23.7004 21.0349 23.7064H21.0141ZM21.0141 19.0212V16.1541C22.0593 16.0841 23.0421 16.0142 24.0181 15.8744C24.2278 16.9127 24.3689 17.9639 24.4403 19.0212H21.0141ZM21.0141 14.4058V10.4898C22.2669 11.1192 23.0906 12.7975 23.5266 14.1261C22.7049 14.2872 21.8716 14.3807 21.0349 14.4058H21.0141ZM24.0181 11.1191C25.1857 11.6084 26.2343 12.348 27.0912 13.287C26.5004 13.516 25.8945 13.7029 25.2778 13.8464C24.9488 12.9007 24.5341 11.9877 24.0388 11.1191H24.0181ZM16.1898 11.1191C15.6572 11.9706 15.2339 12.8871 14.9301 13.8464C14.3114 13.7019 13.7032 13.515 13.1097 13.287C14.0025 12.3778 15.0538 11.6429 16.2105 11.1191H16.1898ZM14.9993 26.0141C15.2872 26.9797 15.7115 27.8982 16.259 28.7414C15.0913 28.2521 14.0427 27.5125 13.1858 26.5735C13.7834 26.3436 14.3963 26.1567 15.02 26.0141H14.9993ZM23.9973 28.7414C24.5274 27.8885 24.9505 26.9724 25.257 26.0141C25.8737 26.1576 26.4797 26.3445 27.0705 26.5735C26.1818 27.4561 25.1581 28.1881 24.0388 28.7414H23.9973ZM26.0738 19.0212C26.0174 17.8469 25.8763 16.6783 25.6516 15.5247C26.496 15.3149 27.3335 15.0352 28.171 14.7555C29.0185 16.0504 29.5237 17.543 29.6384 19.0911H26.0738V19.0212Z" fill="#473BEF"/>
<path d="M39.2801 17.273L34.3865 16.1541C34.0459 14.8739 33.5261 13.6495 32.843 12.5177L35.5009 8.25207C35.599 8.07504 35.6384 7.87096 35.6135 7.66966C35.5886 7.46836 35.5006 7.28039 35.3625 7.1332L32.7738 4.5458C32.627 4.40562 32.4398 4.31645 32.2393 4.29129C32.0389 4.26614 31.8357 4.30632 31.6594 4.40596L27.3957 7.1332C26.262 6.4505 25.0387 5.93258 23.7619 5.59474L22.6406 0.699686C22.6074 0.500936 22.5045 0.320906 22.3507 0.192502C22.197 0.0640986 22.0026 -0.00409775 21.8031 0.000392639H18.1693C17.9687 -0.0058076 17.7726 0.0615994 17.6174 0.190155C17.4621 0.31871 17.3582 0.499715 17.3249 0.699686L16.2105 5.59474C14.9328 5.92989 13.7091 6.44796 12.5767 7.1332L8.31298 4.40596C8.1348 4.3089 7.93117 4.27022 7.73027 4.29528C7.52938 4.32034 7.34116 4.40788 7.19169 4.5458L4.60303 7.1332C4.46486 7.28039 4.37689 7.46836 4.35199 7.66966C4.32708 7.87096 4.36654 8.07504 4.46459 8.25207L7.12248 12.5177C6.43867 13.6483 5.92107 14.8732 5.58589 16.1541L0.692342 17.273C0.496193 17.305 0.318113 17.4075 0.190915 17.5617C0.0637164 17.716 -0.00402618 17.9114 0.000185178 18.1121V21.7484C-0.00402618 21.9491 0.0637164 22.1446 0.190915 22.2988C0.318113 22.453 0.496193 22.5556 0.692342 22.5876L5.58589 23.7064C5.92107 24.9873 6.43867 26.2123 7.12248 27.3428L4.46459 31.6085C4.36865 31.7861 4.3304 31.9897 4.35524 32.1905C4.38008 32.3912 4.46677 32.5791 4.60303 32.7273L7.19169 35.3147C7.34011 35.4545 7.52849 35.5433 7.72988 35.5685C7.93127 35.5936 8.13536 35.5537 8.31298 35.4546L12.5767 32.7973C13.7091 33.4825 14.9328 34.0006 16.2105 34.3357L17.048 38.1818H5.6551C5.41646 38.1818 5.18759 38.2776 5.01885 38.4481C4.8501 38.6186 4.7553 38.8498 4.7553 39.0909C4.7553 39.332 4.8501 39.5632 5.01885 39.7337C5.18759 39.9042 5.41646 40 5.6551 40H35.3625C35.6011 40 35.83 39.9042 35.9987 39.7337C36.1675 39.5632 36.2623 39.332 36.2623 39.0909C36.2623 38.8498 36.1675 38.6186 35.9987 38.4481C35.83 38.2776 35.6011 38.1818 35.3625 38.1818H23.0628L23.9004 34.3357C25.1775 33.9991 26.401 33.4811 27.5342 32.7973L31.7979 35.4546C31.976 35.5516 32.1797 35.5903 32.3806 35.5653C32.5815 35.5402 32.7697 35.4526 32.9191 35.3147L35.5009 32.7273C35.6421 32.5819 35.7321 32.3937 35.7571 32.1915C35.7821 31.9894 35.7407 31.7846 35.6393 31.6085L32.8707 27.3428C33.5538 26.211 34.0736 24.9866 34.4142 23.7064L39.3078 22.5876C39.5033 22.5542 39.6805 22.4513 39.8075 22.2974C39.9344 22.1435 40.0027 21.9487 39.9999 21.7484V18.1121C40.0017 17.9076 39.9296 17.7096 39.797 17.555C39.6645 17.4005 39.4806 17.3002 39.2801 17.273ZM38.228 21.0491L33.4729 22.0981C33.3201 22.133 33.1802 22.2105 33.0688 22.3217C32.9575 22.433 32.8793 22.5735 32.843 22.7274C32.5054 24.184 31.94 25.5767 31.168 26.8533C31.0669 26.9828 31.012 27.1429 31.012 27.3078C31.012 27.4727 31.0669 27.6328 31.168 27.7624L33.7567 31.8882L32.1439 33.4966L27.991 30.9092C27.8601 30.8071 27.6995 30.7518 27.5342 30.7518C27.3689 30.7518 27.2082 30.8071 27.0773 30.9092C25.818 31.7435 24.4059 32.3142 22.9244 32.5875C22.7719 32.6213 22.6322 32.6985 22.5217 32.81C22.4113 32.9216 22.3349 33.0628 22.3015 33.2168L21.3394 37.972H19.1037L18.0516 33.2168C18.0177 33.0618 17.9402 32.92 17.8285 32.8084C17.7168 32.6968 17.5756 32.6201 17.4218 32.5875C15.9584 32.2531 14.5568 31.6866 13.2688 30.9092C13.138 30.8071 12.9773 30.7518 12.812 30.7518C12.6467 30.7518 12.486 30.8071 12.3552 30.9092L8.20224 33.4966L6.59644 31.8882L9.18511 27.7624C9.28615 27.6328 9.3411 27.4727 9.3411 27.3078C9.3411 27.1429 9.28615 26.9828 9.18511 26.8533C8.3568 25.6056 7.78484 24.2026 7.50316 22.7274C7.46973 22.5733 7.39328 22.4322 7.28288 22.3206C7.17247 22.2091 7.03274 22.1318 6.88022 22.0981L1.98667 21.0491V18.8114L6.73487 17.7624C6.88865 17.7299 7.02988 17.6532 7.1416 17.5415C7.25332 17.4299 7.33079 17.2881 7.36473 17.1331C7.70781 15.6772 8.2754 14.2849 9.04668 13.0073C9.14772 12.8777 9.20267 12.7176 9.20267 12.5527C9.20267 12.3878 9.14772 12.2277 9.04668 12.0982L6.45801 7.97234L8.06382 6.36397L12.2168 8.95136C12.3465 9.05287 12.506 9.10794 12.6701 9.10794C12.8342 9.10794 12.9937 9.05287 13.1235 8.95136C14.4092 8.15368 15.8104 7.56382 17.2764 7.20313C17.4302 7.17055 17.5714 7.09384 17.6831 6.98221C17.7949 6.87058 17.8723 6.72875 17.9063 6.57375L18.9584 1.81856H21.194L22.2392 6.57375C22.2739 6.72838 22.3516 6.86977 22.4632 6.98127C22.5748 7.09277 22.7156 7.16975 22.869 7.20313C24.3449 7.53269 25.7511 8.12464 27.022 8.95136C27.1518 9.05287 27.3112 9.10794 27.4753 9.10794C27.6395 9.10794 27.7989 9.05287 27.9287 8.95136L32.0816 6.36397L33.6944 7.97234L31.0296 12.0982C30.9285 12.2277 30.8736 12.3878 30.8736 12.5527C30.8736 12.7176 30.9285 12.8777 31.0296 13.0073C31.8586 14.2538 32.4285 15.6574 32.7046 17.1331C32.7393 17.2877 32.817 17.4291 32.9286 17.5406C33.0402 17.6521 33.181 17.7291 33.3344 17.7624L38.0896 18.8114V21.0491H38.228Z" fill="#473BEF"/>
<path d="M37.3212 38.2518C37.1589 38.4232 37.0589 38.645 37.0374 38.8812C37.0573 39.1112 37.1618 39.3254 37.3303 39.4814C37.4988 39.6375 37.719 39.724 37.9476 39.724C38.1762 39.724 38.3964 39.6375 38.5649 39.4814C38.7334 39.3254 38.8379 39.1112 38.8578 38.8812C38.8638 38.7617 38.8418 38.6425 38.7937 38.5331C38.7456 38.4238 38.6727 38.3274 38.5809 38.2518C38.4136 38.0836 38.1871 37.9891 37.9511 37.9891C37.715 37.9891 37.4885 38.0836 37.3212 38.2518Z" fill="#473BEF"/>
<path d="M2.36723 38.2518C2.28519 38.3344 2.2201 38.4324 2.17569 38.5404C2.13127 38.6484 2.1084 38.7642 2.1084 38.8812C2.1084 38.9982 2.13127 39.114 2.17569 39.222C2.2201 39.33 2.28519 39.428 2.36723 39.5106C2.53455 39.6788 2.76102 39.7733 2.99709 39.7733C3.23317 39.7733 3.45963 39.6788 3.62696 39.5106C3.70899 39.428 3.77408 39.33 3.8185 39.222C3.86292 39.114 3.88579 38.9982 3.88579 38.8812C3.88579 38.7642 3.86292 38.6484 3.8185 38.5404C3.77408 38.4324 3.70899 38.3344 3.62696 38.2518C3.45963 38.0836 3.23317 37.9891 2.99709 37.9891C2.76102 37.9891 2.53455 38.0836 2.36723 38.2518Z" fill="#473BEF"/>
</svg>
