<svg width="50" height="51" viewBox="0 0 50 51" fill="none" xmlns="http://www.w3.org/2000/svg">
<path d="M26.9168 5.18408L40.4793 12.4966C42.0627 13.3507 42.0627 15.7882 40.4793 16.6424L26.9168 23.9549C25.7085 24.6007 24.2918 24.6007 23.0835 23.9549L9.521 16.6424C7.93766 15.7882 7.93766 13.3507 9.521 12.4966L23.0835 5.18408C24.2918 4.53825 25.7085 4.53825 26.9168 5.18408Z" stroke="#715AFF" stroke-width="2" stroke-linecap="round" stroke-linejoin="round"/>
<path opacity="0.4" d="M7.52067 21.5802L20.1248 27.8927C21.6873 28.6843 22.6873 30.2885 22.6873 32.0385V43.9552C22.6873 45.6843 20.8748 46.7885 19.3332 46.0177L6.729 39.7052C5.1665 38.9135 4.1665 37.3093 4.1665 35.5593V23.6427C4.1665 21.9135 5.979 20.8093 7.52067 21.5802Z" stroke="#715AFF" stroke-width="2" stroke-linecap="round" stroke-linejoin="round"/>
<path opacity="0.4" d="M42.4787 21.5802L29.8745 27.8927C28.312 28.6843 27.312 30.2885 27.312 32.0385V43.9552C27.312 45.6843 29.1245 46.7885 30.6662 46.0177L43.2703 39.7052C44.8328 38.9135 45.8328 37.3093 45.8328 35.5593V23.6427C45.8328 21.9135 44.0203 20.8093 42.4787 21.5802Z" stroke="#715AFF" stroke-width="2" stroke-linecap="round" stroke-linejoin="round"/>
</svg>
