<svg width="60" height="60" viewBox="0 0 60 60" fill="none" xmlns="http://www.w3.org/2000/svg">
<path d="M54.5248 9.85C50.6748 19.45 41.0248 32.5 32.9498 38.975L28.0248 42.925C27.3998 43.375 26.7748 43.775 26.0748 44.05C26.0748 43.6 26.0498 43.1 25.9748 42.625C25.6998 40.525 24.7498 38.575 23.0748 36.9C21.3748 35.2 19.2998 34.2 17.1748 33.925C16.6748 33.9 16.1748 33.85 15.6748 33.9C15.9498 33.125 16.3748 32.4 16.8998 31.8L20.7998 26.875C27.2498 18.8 40.3498 9.1 49.9248 5.275C51.3998 4.725 52.8248 5.125 53.7248 6.05C54.6748 6.975 55.1248 8.4 54.5248 9.85Z" stroke="#7616F0" stroke-width="2" stroke-linecap="round" stroke-linejoin="round"/>
<path d="M26.0752 44.05C26.0752 46.8 25.0252 49.425 23.0502 51.425C21.5252 52.95 19.4502 54 16.9752 54.325L10.8252 55C7.4752 55.375 4.6002 52.525 5.0002 49.125L5.6752 42.975C6.2752 37.5 10.8502 34 15.7002 33.9C16.2002 33.875 16.7252 33.9 17.2002 33.925C19.3252 34.2 21.4002 35.175 23.1002 36.9C24.7752 38.575 25.7252 40.525 26.0002 42.625C26.0252 43.1 26.0752 43.575 26.0752 44.05Z" stroke="#7616F0" stroke-width="2" stroke-linecap="round" stroke-linejoin="round"/>
<path d="M35.6004 36.175C35.6004 29.65 30.3004 24.35 23.7754 24.35" stroke="#7616F0" stroke-width="2" stroke-linecap="round" stroke-linejoin="round"/>
<path d="M50.2998 31.825L52.1498 33.65C55.8748 37.375 55.8748 41.05 52.1498 44.775L44.7498 52.175C41.0748 55.85 37.3498 55.85 33.6748 52.175" stroke="#7616F0" stroke-width="2" stroke-linecap="round"/>
<path d="M7.7748 26.275C4.0998 22.55 4.0998 18.875 7.7748 15.15L15.1748 7.75002C18.8498 4.07502 22.5748 4.07502 26.2498 7.75002L28.0998 9.60002" stroke="#7616F0" stroke-width="2" stroke-linecap="round"/>
<path d="M28.125 9.625L18.875 18.875" stroke="#7616F0" stroke-width="2" stroke-linecap="round"/>
<path d="M50.3004 31.825L42.9004 39.2" stroke="#7616F0" stroke-width="2" stroke-linecap="round"/>
</svg>
