<svg width="59" height="59" viewBox="0 0 59 59" fill="none" xmlns="http://www.w3.org/2000/svg">
<path d="M21.3141 34.4167H9.83366C7.12949 34.4167 4.91699 36.6292 4.91699 39.3334V54.0834H21.3141V34.4167Z" stroke="#227EF0" stroke-width="2" stroke-miterlimit="10" stroke-linecap="round" stroke-linejoin="round"/>
<path d="M32.7695 24.5833H26.2057C23.5016 24.5833 21.2891 26.7958 21.2891 29.5V54.0833H37.6862V29.5C37.6862 26.7958 35.4982 24.5833 32.7695 24.5833Z" stroke="#227EF0" stroke-width="2" stroke-miterlimit="10" stroke-linecap="round" stroke-linejoin="round"/>
<path d="M49.1669 41.7917H37.6865V54.0833H54.0836V46.7083C54.0836 44.0042 51.8711 41.7917 49.1669 41.7917Z" stroke="#227EF0" stroke-width="2" stroke-miterlimit="10" stroke-linecap="round" stroke-linejoin="round"/>
<path d="M30.7796 5.08874L32.0825 7.69457C32.2546 8.06332 32.7217 8.40748 33.115 8.45665L35.475 8.84999C36.9746 9.09582 37.3434 10.202 36.2617 11.2591L34.418 13.1029C34.0984 13.4224 33.9263 14.0125 34.0246 14.4304L34.5409 16.6921C34.9588 18.4867 34 19.175 32.4267 18.2408L30.2142 16.9379C29.8209 16.6921 29.1571 16.6921 28.7638 16.9379L26.5513 18.2408C24.978 19.175 24.0192 18.4867 24.4371 16.6921L24.9534 14.4304C25.0517 14.0125 24.8796 13.3979 24.5601 13.1029L22.7409 11.2837C21.6592 10.202 22.0034 9.12036 23.5275 8.87452L25.8875 8.48125C26.2809 8.4075 26.748 8.06334 26.92 7.71918L28.223 5.11327C28.9359 3.68744 30.0667 3.68749 30.7796 5.08874Z" stroke="#227EF0" stroke-width="2" stroke-linecap="round" stroke-linejoin="round"/>
</svg>
