<svg width="56" height="57" viewBox="0 0 56 57" fill="none" xmlns="http://www.w3.org/2000/svg">
<path d="M51.333 15.6426H37.333" stroke="white" stroke-width="2" stroke-miterlimit="10" stroke-linecap="round" stroke-linejoin="round"/>
<g opacity="0.4">
<path d="M14.0003 15.6426H4.66699" stroke="white" stroke-width="2" stroke-miterlimit="10" stroke-linecap="round" stroke-linejoin="round"/>
<path d="M23.3337 23.8092C27.844 23.8092 31.5003 20.1528 31.5003 15.6425C31.5003 11.1322 27.844 7.47583 23.3337 7.47583C18.8233 7.47583 15.167 11.1322 15.167 15.6425C15.167 20.1528 18.8233 23.8092 23.3337 23.8092Z" stroke="white" stroke-width="2" stroke-miterlimit="10" stroke-linecap="round" stroke-linejoin="round"/>
</g>
<path d="M18.667 41.3091H4.66699" stroke="white" stroke-width="2" stroke-miterlimit="10" stroke-linecap="round" stroke-linejoin="round"/>
<g opacity="0.4">
<path d="M51.3333 41.3091H42" stroke="white" stroke-width="2" stroke-miterlimit="10" stroke-linecap="round" stroke-linejoin="round"/>
<path d="M32.6667 49.4759C37.177 49.4759 40.8333 45.8196 40.8333 41.3092C40.8333 36.7989 37.177 33.1426 32.6667 33.1426C28.1563 33.1426 24.5 36.7989 24.5 41.3092C24.5 45.8196 28.1563 49.4759 32.6667 49.4759Z" stroke="white" stroke-width="2" stroke-miterlimit="10" stroke-linecap="round" stroke-linejoin="round"/>
</g>
</svg>
