<svg width="40" height="40" viewBox="0 0 40 40" fill="none" xmlns="http://www.w3.org/2000/svg">
<path d="M28.7 3.33333H14.9334C14.2667 3.33333 13.6334 3.56667 13.1167 3.96667L9.4667 6.88334C8.00003 8.05 8.00003 10.2666 9.4667 11.4333L13.1167 14.35C13.6334 14.7666 14.2834 14.9833 14.9334 14.9833H28.7C30.3167 14.9833 31.6167 13.6833 31.6167 12.0666V6.23331C31.6167 4.63331 30.3167 3.33333 28.7 3.33333Z" stroke="#FA4852" stroke-width="2" stroke-linecap="round" stroke-linejoin="round"/>
<path d="M11.3332 20H25.0999C25.7665 20 26.3999 20.2333 26.9166 20.6333L30.5666 23.55C32.0332 24.7167 32.0332 26.9333 30.5666 28.1L26.9166 31.0166C26.3999 31.4333 25.7499 31.65 25.0999 31.65H11.3332C9.7165 31.65 8.4165 30.35 8.4165 28.7333V22.9C8.4165 21.3 9.7165 20 11.3332 20Z" stroke="#FA4852" stroke-width="2" stroke-linecap="round" stroke-linejoin="round"/>
<path d="M20 20V15" stroke="#FA4852" stroke-width="2" stroke-linecap="round" stroke-linejoin="round"/>
<path d="M20 36.6667V31.6667" stroke="#FA4852" stroke-width="2" stroke-linecap="round" stroke-linejoin="round"/>
<path d="M15 36.6667H25" stroke="#FA4852" stroke-width="2" stroke-linecap="round" stroke-linejoin="round"/>
</svg>
