<svg width="17" height="16" viewBox="0 0 17 16" fill="none" xmlns="http://www.w3.org/2000/svg">
<path d="M11.2246 5.29883L15.4141 5.91406C15.7656 5.97266 16.0586 6.20703 16.1758 6.55859C16.293 6.88086 16.2051 7.26172 15.9414 7.49609L12.8945 10.5137L13.627 14.791C13.6855 15.1426 13.5391 15.4941 13.2461 15.6992C12.9531 15.9336 12.5723 15.9336 12.25 15.7871L8.5 13.7656L4.7207 15.7871C4.42773 15.9336 4.01758 15.9336 3.75391 15.6992C3.46094 15.4941 3.31445 15.1426 3.37305 14.791L4.07617 10.5137L1.0293 7.49609C0.765625 7.26172 0.677734 6.88086 0.794922 6.55859C0.912109 6.20703 1.20508 5.97266 1.55664 5.91406L5.77539 5.29883L7.65039 1.40234C7.79688 1.08008 8.11914 0.875 8.5 0.875C8.85156 0.875 9.17383 1.08008 9.32031 1.40234L11.2246 5.29883Z" fill="#FFA51E"/>
<path d="M11.2246 5.29883L10.7754 5.51837L10.8911 5.75522L11.152 5.79352L11.2246 5.29883ZM15.4141 5.91406L15.4963 5.42077L15.4867 5.41937L15.4141 5.91406ZM16.1758 6.55859L15.7013 6.71677L15.7059 6.72947L16.1758 6.55859ZM15.9414 7.49609L15.6092 7.12239L15.5991 7.13135L15.5896 7.14084L15.9414 7.49609ZM12.8945 10.5137L12.5427 10.1584L12.3578 10.3415L12.4017 10.5981L12.8945 10.5137ZM13.627 14.791L14.1202 14.7088L14.1198 14.7066L13.627 14.791ZM13.2461 15.6992L12.9594 15.2896L12.9462 15.2988L12.9337 15.3088L13.2461 15.6992ZM12.25 15.7871L12.0127 16.2272L12.0277 16.2353L12.0431 16.2423L12.25 15.7871ZM8.5 13.7656L8.73725 13.3255L8.50092 13.1981L8.26417 13.3247L8.5 13.7656ZM4.7207 15.7871L4.94439 16.2345L4.95653 16.228L4.7207 15.7871ZM3.75391 15.6992L4.08609 15.3255L4.0644 15.3062L4.04064 15.2896L3.75391 15.6992ZM3.37305 14.791L3.86625 14.8732L3.86643 14.8721L3.37305 14.791ZM4.07617 10.5137L4.56955 10.5948L4.61142 10.3401L4.42801 10.1584L4.07617 10.5137ZM1.0293 7.49609L1.38114 7.14084L1.37156 7.13135L1.36148 7.12239L1.0293 7.49609ZM0.794922 6.55859L1.26499 6.72953L1.26926 6.71671L0.794922 6.55859ZM1.55664 5.91406L1.48447 5.41919L1.47444 5.42087L1.55664 5.91406ZM5.77539 5.29883L5.84754 5.79359L6.11065 5.75523L6.22594 5.51563L5.77539 5.29883ZM7.65039 1.40234L8.10105 1.6192L8.10557 1.60925L7.65039 1.40234ZM9.32031 1.40234L8.86495 1.60933L8.87109 1.62189L9.32031 1.40234ZM11.152 5.79352L15.3414 6.40876L15.4867 5.41937L11.2973 4.80413L11.152 5.79352ZM15.3319 6.40726C15.5103 6.437 15.6458 6.54988 15.7014 6.71671L16.6501 6.40048C16.4714 5.86419 16.0209 5.50831 15.4963 5.42087L15.3319 6.40726ZM15.7059 6.72947C15.7552 6.86519 15.715 7.02839 15.6092 7.12239L16.2736 7.8698C16.6952 7.49504 16.8307 6.89653 16.6457 6.38772L15.7059 6.72947ZM15.5896 7.14084L12.5427 10.1584L13.2464 10.8689L16.2932 7.85135L15.5896 7.14084ZM12.4017 10.5981L13.1341 14.8754L14.1198 14.7066L13.3874 10.4293L12.4017 10.5981ZM13.1338 14.8732C13.1608 15.0355 13.0939 15.1955 12.9594 15.2896L13.5328 16.1088C13.9843 15.7928 14.2103 15.2496 14.1202 14.7088L13.1338 14.8732ZM12.9337 15.3088C12.8229 15.3975 12.6527 15.4209 12.4569 15.3319L12.0431 16.2423C12.4918 16.4462 13.0834 16.4697 13.5584 16.0897L12.9337 15.3088ZM12.4873 15.347L8.73725 13.3255L8.26275 14.2058L12.0127 16.2272L12.4873 15.347ZM8.26417 13.3247L4.48488 15.3462L4.95653 16.228L8.73583 14.2065L8.26417 13.3247ZM4.4971 15.3399C4.3358 15.4205 4.15825 15.3897 4.08609 15.3255L3.42172 16.0729C3.8769 16.4775 4.51967 16.4466 4.94431 16.2343L4.4971 15.3399ZM4.04064 15.2896C3.90615 15.1955 3.83919 15.0355 3.86624 14.8732L2.87985 14.7088C2.78972 15.2496 3.01573 15.7928 3.46718 16.1088L4.04064 15.2896ZM3.86643 14.8721L4.56955 10.5948L3.58279 10.4326L2.87967 14.7099L3.86643 14.8721ZM4.42801 10.1584L1.38114 7.14084L0.677456 7.85135L3.72433 10.8689L4.42801 10.1584ZM1.36148 7.12239C1.25573 7.02839 1.21546 6.86519 1.26482 6.72947L0.325025 6.38772C0.140005 6.89653 0.275515 7.49504 0.697115 7.8698L1.36148 7.12239ZM1.26926 6.71671C1.32487 6.54988 1.46038 6.437 1.63884 6.40726L1.47444 5.42087C0.949777 5.50831 0.499345 5.86419 0.32058 6.40048L1.26926 6.71671ZM1.62879 6.40883L5.84754 5.79359L5.70324 4.80406L1.48449 5.4193L1.62879 6.40883ZM6.22594 5.51563L8.10094 1.61915L7.19984 1.18554L5.32484 5.08202L6.22594 5.51563ZM8.10557 1.60925C8.16655 1.47511 8.30441 1.375 8.5 1.375V0.375C7.93387 0.375 7.4272 0.685048 7.19521 1.19544L8.10557 1.60925ZM8.5 1.375C8.65711 1.375 8.80045 1.46695 8.86513 1.60925L9.7755 1.19544C9.54721 0.693206 9.04601 0.375 8.5 0.375V1.375ZM8.87109 1.62189L10.7754 5.51837L11.6738 5.07928L9.76953 1.1828L8.87109 1.62189Z" fill="#122428"/>
</svg>
