<svg width="55" height="56" viewBox="0 0 55 56" fill="none" xmlns="http://www.w3.org/2000/svg">
<path d="M37.217 52.7412C36.2315 52.7412 34.9941 52.4432 33.4587 51.5266L28.3253 48.4787C27.9357 48.2495 27.0649 48.2495 26.6753 48.4787L21.542 51.5266C18.2878 53.4516 16.317 52.6495 15.4461 52.0078C14.5753 51.3662 13.2003 49.7162 14.0482 46.0495L15.2628 40.7558C15.3545 40.3433 15.1253 39.5641 14.8274 39.2432L10.5649 34.9807C8.2732 32.6891 8.45653 30.6953 8.77737 29.687C9.0982 28.6787 10.1065 26.9599 13.292 26.4099L18.7691 25.4932C19.1587 25.4245 19.7774 24.9661 19.9378 24.6224L22.9628 18.5724C24.4524 15.6161 26.4232 15.1578 27.4774 15.1578C28.5315 15.1578 30.5024 15.5932 31.992 18.5724L35.017 24.6224C35.2003 24.9661 35.8191 25.4245 36.1857 25.4932L41.6628 26.4099C44.8482 26.937 45.8565 28.6787 46.1774 29.687C46.4982 30.6953 46.6815 32.6891 44.3899 34.9807L40.1274 39.2432C39.8295 39.5412 39.6003 40.3433 39.692 40.7558L40.9066 46.0266C41.7545 49.7162 40.4024 51.3432 39.5086 51.9849C39.0961 52.3516 38.317 52.7412 37.217 52.7412ZM27.5003 44.8808C28.417 44.8808 29.3336 45.087 30.067 45.5224L35.2003 48.5703C36.5524 49.3724 37.3545 49.3724 37.5149 49.2349C37.6982 49.0974 37.9274 48.3412 37.5836 46.8287L36.3691 41.5578C36.0024 39.9995 36.5982 37.9828 37.7211 36.8599L41.9837 32.5974C42.8316 31.7495 43.0149 31.0849 42.9233 30.787C42.8316 30.4891 42.3045 30.0537 41.1128 29.8703L35.6357 28.9536C34.169 28.7016 32.6107 27.5558 31.9462 26.2266L28.9211 20.1766C28.3941 19.1453 27.8211 18.6641 27.4774 18.6641C27.1336 18.6641 26.5607 19.1224 26.0336 20.1766L23.0087 26.2266C22.3441 27.5558 20.7857 28.7016 19.319 28.9536L13.842 29.8703C12.6503 30.0766 12.1232 30.4891 12.0316 30.787C11.9399 31.0849 12.1232 31.7495 12.9712 32.5974L17.2336 36.8599C18.3565 37.9828 18.9524 40.0224 18.5857 41.5578L17.3711 46.8516C17.0274 48.387 17.2565 49.1432 17.4399 49.2578C17.6232 49.3953 18.4253 49.3953 19.7545 48.5932L24.8878 45.5453C25.6669 45.1099 26.5836 44.8808 27.5003 44.8808Z" fill="white"/>
<path d="M13.75 23.1328C12.8104 23.1328 12.0312 22.3536 12.0312 21.414V5.37238C12.0312 4.43279 12.8104 3.65363 13.75 3.65363C14.6896 3.65363 15.4688 4.43279 15.4688 5.37238V21.414C15.4688 22.3536 14.6896 23.1328 13.75 23.1328Z" fill="white"/>
<path d="M41.25 23.1328C40.3104 23.1328 39.5312 22.3536 39.5312 21.414V5.37238C39.5312 4.43279 40.3104 3.65363 41.25 3.65363C42.1896 3.65363 42.9688 4.43279 42.9688 5.37238V21.414C42.9688 22.3536 42.1896 23.1328 41.25 23.1328Z" fill="white"/>
<path d="M27.5 11.6745C26.5604 11.6745 25.7812 10.8953 25.7812 9.95571V5.37238C25.7812 4.43279 26.5604 3.65363 27.5 3.65363C28.4396 3.65363 29.2188 4.43279 29.2188 5.37238V9.95571C29.2188 10.8953 28.4396 11.6745 27.5 11.6745Z" fill="white"/>
</svg>
