<svg width="31" height="31" viewBox="0 0 31 31" fill="none" xmlns="http://www.w3.org/2000/svg">
<path d="M4.87487 13.0219C5.30277 13.0164 5.71162 12.8441 6.01422 12.5415C6.31682 12.2389 6.48921 11.83 6.49462 11.4021C6.49223 10.9684 6.32241 10.5523 6.0206 10.2407C5.71879 9.9292 5.30833 9.74626 4.87487 9.7301C4.44383 9.73008 4.03021 9.90023 3.72395 10.2036C3.4177 10.5069 3.24357 10.9188 3.23944 11.3499C3.24198 11.7862 3.41397 12.2045 3.71911 12.5165C4.02425 12.8285 4.43866 13.0097 4.87487 13.0219ZM4.87487 11.0364C4.95802 11.0364 5.03776 11.0694 5.09655 11.1282C5.15534 11.187 5.18837 11.2667 5.18837 11.3499C5.18837 11.433 5.15534 11.5127 5.09655 11.5715C5.03776 11.6303 4.95802 11.6634 4.87487 11.6634C4.83331 11.6648 4.79189 11.6577 4.75319 11.6425C4.7145 11.6272 4.67935 11.6042 4.64994 11.5748C4.62054 11.5454 4.5975 11.5102 4.58226 11.4715C4.56702 11.4328 4.55991 11.3914 4.56137 11.3499C4.5674 11.2687 4.60237 11.1924 4.65991 11.1349C4.71744 11.0774 4.79373 11.0424 4.87487 11.0364Z" fill="#473BEF"/>
<path d="M1.60408 24.0989C1.28441 24.102 0.972801 24.1996 0.708504 24.3794C0.444207 24.5593 0.23904 24.8133 0.118845 25.1096C-0.00135027 25.4058 -0.0311992 25.731 0.0330583 26.0441C0.0973159 26.3573 0.252806 26.6444 0.479944 26.8694C0.707083 27.0944 0.995711 27.2471 1.30948 27.3083C1.62324 27.3696 1.94812 27.3366 2.24317 27.2135C2.53823 27.0905 2.79029 26.8829 2.96758 26.6169C3.14488 26.3509 3.23949 26.0383 3.23951 25.7186C3.23538 25.2876 3.06125 24.8756 2.755 24.5723C2.44874 24.269 2.03512 24.0989 1.60408 24.0989ZM1.60408 26.0844C1.54231 26.0834 1.48222 26.0641 1.43136 26.029C1.38049 25.994 1.34112 25.9446 1.3182 25.8873C1.29527 25.8299 1.2898 25.767 1.30248 25.7066C1.31516 25.6461 1.34542 25.5907 1.38947 25.5474C1.43351 25.5041 1.48937 25.4748 1.55004 25.4631C1.61071 25.4514 1.67347 25.4579 1.73045 25.4818C1.78743 25.5057 1.83609 25.5458 1.87031 25.5973C1.90453 25.6487 1.9228 25.7091 1.92281 25.7709C1.91662 25.8529 1.88091 25.9298 1.8223 25.9875C1.76369 26.0451 1.68615 26.0796 1.60408 26.0844Z" fill="#473BEF"/>
<path d="M28.9936 14.9551C28.6018 14.9592 28.22 15.0791 27.8962 15.2998C27.5725 15.5205 27.3212 15.832 27.1742 16.1951C27.0271 16.5583 26.9907 16.9568 27.0697 17.3406C27.1487 17.7244 27.3394 18.0762 27.6179 18.3518C27.8964 18.6274 28.2502 18.8144 28.6347 18.8893C29.0193 18.9643 29.4174 18.9237 29.779 18.7729C30.1406 18.622 30.4495 18.3675 30.6668 18.0415C30.884 17.7154 31 17.3324 31 16.9406C30.9878 16.4142 30.7719 15.9131 30.3977 15.5427C30.0234 15.1724 29.52 14.9617 28.9936 14.9551ZM28.9936 17.5676C28.8594 17.5666 28.7286 17.5258 28.6176 17.4506C28.5066 17.3753 28.4204 17.2689 28.3698 17.1447C28.3191 17.0205 28.3064 16.8841 28.3332 16.7526C28.36 16.6212 28.4251 16.5007 28.5203 16.4062C28.6155 16.3117 28.7366 16.2476 28.8682 16.2218C28.9998 16.196 29.1361 16.2097 29.2599 16.2613C29.3837 16.3129 29.4895 16.3999 29.5639 16.5115C29.6383 16.6231 29.678 16.7542 29.678 16.8883C29.6646 17.0649 29.5881 17.2308 29.4624 17.3555C29.3367 17.4802 29.1702 17.5555 28.9936 17.5676Z" fill="#473BEF"/>
<path d="M22.6922 5.18434C23.1459 5.18022 23.5884 5.04189 23.9637 4.78677C24.339 4.53166 24.6304 4.17118 24.8012 3.75074C24.972 3.33031 25.0146 2.86873 24.9235 2.42415C24.8325 1.97957 24.6119 1.57189 24.2895 1.25245C23.9672 0.933017 23.5575 0.716124 23.1121 0.629097C22.6668 0.54207 22.2056 0.588803 21.7867 0.763407C21.3678 0.93801 21.01 1.23267 20.7583 1.61028C20.5066 1.98788 20.3723 2.43153 20.3723 2.88534C20.3805 3.49613 20.6282 4.07928 21.0621 4.50926C21.4959 4.93924 22.0813 5.18166 22.6922 5.18434ZM22.6922 1.89259C22.8267 1.88624 22.9611 1.90718 23.0873 1.95416C23.2135 2.00113 23.3289 2.07317 23.4265 2.16592C23.5242 2.25867 23.602 2.37023 23.6554 2.49387C23.7088 2.61751 23.7366 2.75067 23.7372 2.88534C23.739 3.08237 23.6829 3.27559 23.5756 3.4409C23.4684 3.6062 23.3148 3.73626 23.1342 3.81486C22.9535 3.89345 22.7536 3.9171 22.5596 3.88284C22.3656 3.84859 22.1859 3.75795 22.043 3.62224C21.9002 3.48653 21.8005 3.31175 21.7563 3.11972C21.7122 2.92769 21.7255 2.72691 21.7948 2.54243C21.864 2.35796 21.986 2.19795 22.1456 2.08238C22.3052 1.96682 22.4953 1.9008 22.6922 1.89259Z" fill="#473BEF"/>
<path d="M8.5167 22.7926C8.52077 22.9733 8.59507 23.1453 8.72383 23.2721C8.85259 23.3989 9.02568 23.4706 9.2064 23.4719H12.0018C12.2168 24.0551 12.6057 24.5583 13.1159 24.9133C13.6261 25.2684 14.233 25.4583 14.8546 25.4574C15.4626 25.4571 16.055 25.2651 16.5475 24.9086C17.0401 24.5521 17.4076 24.0494 17.5978 23.4719H20.3932C20.573 23.4692 20.7447 23.397 20.8724 23.2703C21 23.1436 21.0736 22.9724 21.0776 22.7926V21.4864H25.7227C25.9025 21.4837 26.0743 21.4115 26.2019 21.2848C26.3295 21.1581 26.4031 20.9869 26.4071 20.8071C26.4111 20.6527 26.3549 20.5029 26.2504 20.3891L21.1247 13.3876V11.7156C21.1254 11.4186 21.067 11.1244 20.9531 10.8501C20.8391 10.5758 20.6718 10.3269 20.4608 10.1179C20.2498 9.90886 19.9994 9.74383 19.724 9.6324C19.4487 9.52098 19.154 9.46538 18.857 9.46885C18.5133 9.48215 18.1742 9.55279 17.8538 9.67785V2.83308C17.8217 2.07093 17.4964 1.35064 16.9458 0.822703C16.3952 0.294761 15.6619 0 14.8991 0C14.1362 0 13.4029 0.294761 12.8523 0.822703C12.3017 1.35064 11.9764 2.07093 11.9443 2.83308V9.67785C11.6315 9.52884 11.2874 9.45716 10.9411 9.46885C10.6439 9.46468 10.3489 9.51979 10.0732 9.63096C9.79761 9.74213 9.54689 9.90713 9.33576 10.1163C9.12462 10.3255 8.95731 10.5747 8.84359 10.8493C8.72987 11.1239 8.67203 11.4184 8.67345 11.7156V13.3876L3.50068 20.3891C3.42989 20.4867 3.38723 20.6017 3.37734 20.7219C3.36746 20.842 3.39073 20.9625 3.44463 21.0703C3.49852 21.1781 3.58097 21.269 3.68299 21.3332C3.78501 21.3973 3.90268 21.4322 4.02319 21.4341H8.66822V22.7926H8.5167ZM11.7876 22.1656H9.83863V21.2251H11.7876V22.1656ZM16.4221 19.9189H13.1095V13.1264C13.5999 13.4586 14.1787 13.6362 14.771 13.6362C15.3634 13.6362 15.9422 13.4586 16.4326 13.1264L16.4221 19.9189ZM14.7972 12.3426C14.477 12.3416 14.1644 12.2457 13.8987 12.0671C13.633 11.8885 13.4262 11.6352 13.3044 11.3391C13.1826 11.043 13.1513 10.7175 13.2144 10.4037C13.2775 10.0898 13.4322 9.80168 13.6589 9.57568C13.8856 9.34967 14.1742 9.19592 14.4883 9.13385C14.8024 9.07177 15.1278 9.10415 15.4234 9.2269C15.7191 9.34964 15.9718 9.55725 16.1495 9.82351C16.3273 10.0898 16.4221 10.4027 16.4221 10.7228C16.418 11.1521 16.2454 11.5625 15.9413 11.8655C15.6373 12.1685 15.2264 12.3399 14.7972 12.3426ZM16.4221 8.26709C15.9317 7.93487 15.353 7.75729 14.7606 7.75729C14.1682 7.75729 13.5895 7.93487 13.099 8.26709V4.81858H16.4221V8.26709ZM14.8546 24.0989C14.4125 24.1024 13.9859 23.9366 13.6623 23.6353C13.3387 23.3341 13.1427 22.9204 13.1147 22.4791V21.2774H16.4221V22.5836C16.4086 22.9902 16.2375 23.3756 15.945 23.6584C15.6525 23.9412 15.2615 24.0991 14.8546 24.0989ZM19.7609 22.1656H17.7545V21.2251H19.7035V22.1656H19.7609ZM24.3485 20.1801H21.0254V15.6344L24.3485 20.1801ZM17.8068 11.7156C17.8246 11.4762 17.9322 11.2525 18.1081 11.0892C18.284 10.9258 18.5151 10.8351 18.7551 10.8351C18.9951 10.8351 19.2263 10.9258 19.4022 11.0892C19.578 11.2525 19.6857 11.4762 19.7035 11.7156V19.8666H17.7545L17.8068 11.7156ZM13.1617 2.88533C13.1617 2.45159 13.334 2.03561 13.6407 1.72891C13.9474 1.4222 14.3634 1.2499 14.7972 1.2499C15.2309 1.2499 15.6469 1.4222 15.9536 1.72891C16.2603 2.03561 16.4326 2.45159 16.4326 2.88533V3.56458H13.1095V2.88533H13.1617ZM9.83863 11.7679C9.85641 11.5285 9.96403 11.3047 10.1399 11.1414C10.3158 10.9781 10.547 10.8873 10.787 10.8873C11.027 10.8873 11.2581 10.9781 11.434 11.1414C11.6099 11.3047 11.7175 11.5285 11.7353 11.7679L11.7876 19.9711H9.83863V11.7679ZM8.5167 15.6344V20.1801H5.19359L8.5167 15.6344Z" fill="#473BEF"/>
<path d="M24.7823 27.8608C24.7574 27.3311 24.5719 26.8216 24.2505 26.3998C23.9291 25.9781 23.487 25.6641 22.9828 25.4997C22.4787 25.3352 21.9365 25.3281 21.4282 25.4792C20.9199 25.6303 20.4697 25.9324 20.1372 26.3456C19.597 25.9943 18.9486 25.8486 18.31 25.9349C17.6714 26.0212 17.085 26.3338 16.6574 26.8158C16.1447 26.4862 15.5343 26.3426 14.9284 26.4092C14.3225 26.4758 13.7579 26.7484 13.329 27.1816C13.0448 27.0151 12.7268 26.9146 12.3985 26.8875C12.0702 26.8603 11.7401 26.9073 11.4324 27.0248C11.1674 26.6362 10.8034 26.3255 10.3781 26.1248C9.9527 25.9242 9.48144 25.8408 9.01306 25.8835C8.54468 25.9261 8.0962 26.0931 7.71406 26.3673C7.33192 26.6415 7.03 27.0128 6.83956 27.4428C6.52504 27.3584 6.19538 27.347 5.87576 27.4094C5.55614 27.4719 5.25503 27.6065 4.99541 27.8031C4.73579 27.9998 4.52454 28.2531 4.37779 28.5438C4.23104 28.8345 4.15268 29.155 4.14868 29.4806C4.16368 29.6525 4.24257 29.8125 4.36976 29.9291C4.49696 30.0456 4.66323 30.1103 4.83577 30.1103C5.00831 30.1103 5.17458 30.0456 5.30178 29.9291C5.42897 29.8125 5.50786 29.6525 5.52286 29.4806C5.52144 29.37 5.54227 29.2602 5.58411 29.1578C5.62595 29.0554 5.68794 28.9624 5.76641 28.8844C5.84488 28.8064 5.93823 28.745 6.0409 28.7038C6.14357 28.6626 6.25348 28.6425 6.36409 28.6446C6.46155 28.635 6.55989 28.649 6.65082 28.6854C6.74175 28.7218 6.82261 28.7794 6.88659 28.8536C6.98028 28.9318 7.0936 28.9829 7.21425 29.0013C7.3349 29.0197 7.4583 29.0048 7.57107 28.9581C7.68132 28.9016 7.77694 28.8203 7.85039 28.7206C7.92383 28.6208 7.9731 28.5054 7.99429 28.3833C8.02123 28.0481 8.17109 27.7346 8.41509 27.5032C8.6591 27.2717 8.98003 27.1386 9.31622 27.1293C9.60106 27.1253 9.87928 27.2153 10.1078 27.3853C10.3364 27.5553 10.5026 27.7959 10.5807 28.0698C10.6155 28.179 10.678 28.2773 10.7621 28.3552C10.8462 28.433 10.949 28.4878 11.0606 28.5141C11.1721 28.5404 11.2886 28.5374 11.3986 28.5053C11.5086 28.4732 11.6084 28.4132 11.6884 28.3311C11.7742 28.2455 11.8775 28.1796 11.9913 28.1379C12.1051 28.0962 12.2266 28.0798 12.3474 28.0898C12.4682 28.0997 12.5853 28.1358 12.6908 28.1955C12.7962 28.2552 12.8874 28.3371 12.9581 28.4356C13.0203 28.532 13.1079 28.6094 13.2111 28.6595C13.3144 28.7096 13.4294 28.7304 13.5436 28.7196C13.6579 28.7088 13.767 28.6669 13.8591 28.5984C13.9511 28.5299 14.0226 28.4374 14.0658 28.3311C14.1682 28.1277 14.3208 27.9538 14.509 27.8256C14.6972 27.6974 14.9149 27.6191 15.1417 27.5982C15.3684 27.5773 15.5968 27.6145 15.8053 27.7061C16.0137 27.7977 16.1955 27.9409 16.3334 28.1221C16.4074 28.2088 16.5021 28.2756 16.6086 28.3161C16.7152 28.3567 16.8303 28.3698 16.9432 28.3542C17.0562 28.3385 17.1634 28.2947 17.255 28.2268C17.3466 28.1588 17.4196 28.0689 17.4672 27.9653C17.5491 27.7376 17.6919 27.5367 17.8802 27.3845C18.0684 27.2323 18.2947 27.1348 18.5346 27.1024C18.7745 27.0701 19.0186 27.1042 19.2404 27.2011C19.4622 27.298 19.6531 27.4539 19.7924 27.6518C19.8655 27.7447 19.9616 27.817 20.0711 27.8613C20.1807 27.9057 20.3 27.9208 20.4171 27.9049C20.5343 27.8891 20.6453 27.843 20.7392 27.7711C20.833 27.6992 20.9065 27.6041 20.9523 27.4951C21.0485 27.2365 21.2208 27.0132 21.4466 26.8546C21.6724 26.696 21.9409 26.6096 22.2168 26.6068C22.4245 26.6082 22.6291 26.6582 22.8141 26.7527C22.9991 26.8472 23.1594 26.9837 23.2822 27.1513C23.4051 27.3188 23.4871 27.5127 23.5216 27.7176C23.5562 27.9224 23.5423 28.1325 23.4812 28.3311C23.4378 28.4476 23.4301 28.5744 23.4589 28.6953C23.4878 28.8163 23.5519 28.9259 23.6432 29.0103C23.7369 29.0886 23.8502 29.1396 23.9709 29.1581C24.0915 29.1765 24.2149 29.1615 24.3277 29.1148C24.4518 29.0638 24.5864 29.0432 24.7201 29.0547C24.8539 29.0663 24.9829 29.1097 25.0964 29.1813C25.21 29.2529 25.3047 29.3506 25.3728 29.4663C25.4408 29.582 25.4802 29.7123 25.4876 29.8463C25.5026 30.0182 25.5815 30.1782 25.7087 30.2948C25.8359 30.4114 26.0022 30.4761 26.1747 30.4761C26.3473 30.4761 26.5135 30.4114 26.6407 30.2948C26.7679 30.1782 26.8468 30.0182 26.8618 29.8463C26.7763 29.3351 26.5275 28.8653 26.1526 28.5074C25.7777 28.1495 25.2969 27.9226 24.7823 27.8608Z" fill="#473BEF"/>
</svg>
