<svg width="24" height="24" viewBox="0 0 24 24" fill="none" xmlns="http://www.w3.org/2000/svg">
<path d="M16.4203 7.94993C18.8603 10.3899 18.8603 14.3499 16.4203 16.7899C13.9803 19.2299 10.0202 19.2299 7.58024 16.7899C5.14024 14.3499 5.14024 10.3899 7.58024 7.94993C10.0202 5.50993 13.9803 5.50993 16.4203 7.94993Z" stroke="#1E78FF" stroke-width="1.5" stroke-linecap="round" stroke-linejoin="round"/>
<path d="M8.24999 21.6398C6.24999 20.8398 4.49999 19.3898 3.33999 17.3798C2.19999 15.4098 1.81999 13.2198 2.08999 11.1298" stroke="#1E78FF" stroke-width="1.5" stroke-linecap="round" stroke-linejoin="round"/>
<path d="M5.84937 4.47986C7.54937 3.14986 9.67936 2.35986 11.9994 2.35986C14.2694 2.35986 16.3594 3.12985 18.0394 4.40985" stroke="#1E78FF" stroke-width="1.5" stroke-linecap="round" stroke-linejoin="round"/>
<path d="M15.75 21.6398C17.75 20.8398 19.5 19.3898 20.66 17.3798C21.8 15.4098 22.18 13.2198 21.91 11.1298" stroke="#1E78FF" stroke-width="1.5" stroke-linecap="round" stroke-linejoin="round"/>
</svg>
