<svg width="35" height="35" viewBox="0 0 35 35" fill="none" xmlns="http://www.w3.org/2000/svg">
<path d="M23.9462 11.5938C27.5045 15.1521 27.5045 20.9271 23.9462 24.4854C20.3879 28.0437 14.6128 28.0437 11.0545 24.4854C7.49616 20.9271 7.49616 15.1521 11.0545 11.5938C14.6128 8.03547 20.3879 8.03547 23.9462 11.5938Z" stroke="white" stroke-width="2" stroke-linecap="round" stroke-linejoin="round"/>
<path d="M12.0314 31.5583C9.1147 30.3916 6.56261 28.277 4.87094 25.3458C3.20844 22.4729 2.65428 19.2791 3.04803 16.2312" stroke="white" stroke-width="2" stroke-linecap="round" stroke-linejoin="round"/>
<path d="M8.53027 6.53331C11.0094 4.59373 14.1157 3.44165 17.499 3.44165C20.8094 3.44165 23.8574 4.56455 26.3074 6.43122" stroke="white" stroke-width="2" stroke-linecap="round" stroke-linejoin="round"/>
<path d="M22.9688 31.5583C25.8854 30.3916 28.4375 28.277 30.1292 25.3458C31.7917 22.4729 32.3458 19.2791 31.9521 16.2312" stroke="white" stroke-width="2" stroke-linecap="round" stroke-linejoin="round"/>
</svg>
