<svg width="55" height="56" viewBox="0 0 55 56" fill="none" xmlns="http://www.w3.org/2000/svg">
<path d="M37.3082 51.4352H28.5999C27.3166 51.4352 24.5207 51.0456 23.0312 49.556L16.0874 44.1935L18.1957 41.4664L25.2999 46.9664C25.8728 47.5164 27.3166 47.9748 28.5999 47.9748H37.3082C39.3707 47.9748 41.5937 46.3248 42.052 44.4685L47.5978 27.6248C47.9645 26.6164 47.8957 25.6998 47.4145 25.0352C46.9103 24.3248 45.9937 23.9123 44.8707 23.9123H35.7041C34.5124 23.9123 33.4124 23.4081 32.6562 22.5373C31.877 21.6435 31.5332 20.4519 31.7166 19.2144L32.8624 11.8581C33.1374 10.5748 32.2666 9.13103 31.0291 8.71853C29.9062 8.30603 28.4624 8.90186 27.9582 9.6352L18.5624 23.6144L15.7207 21.7123L25.1166 7.73311C26.5603 5.57895 29.7228 4.5477 32.1978 5.48728C35.0624 6.42686 36.8957 9.58936 36.2541 12.5227L35.1312 19.7414C35.1082 19.9019 35.1082 20.131 35.2687 20.3144C35.3832 20.4289 35.5437 20.4977 35.727 20.4977H44.8937C47.1395 20.4977 49.0874 21.4373 50.2332 23.0644C51.3562 24.6456 51.5853 26.731 50.852 28.7477L45.3749 45.431C44.527 48.7539 40.9978 51.4352 37.3082 51.4352Z" fill="white"/>
<path d="M12.3293 48.9143H10.0377C5.7981 48.9143 3.7356 46.9205 3.7356 42.8414V20.383C3.7356 16.3039 5.7981 14.3101 10.0377 14.3101H12.3293C16.5689 14.3101 18.6314 16.3039 18.6314 20.383V42.8414C18.6314 46.9205 16.5689 48.9143 12.3293 48.9143ZM10.0377 17.7476C7.53976 17.7476 7.1731 18.3435 7.1731 20.383V42.8414C7.1731 44.881 7.53976 45.4768 10.0377 45.4768H12.3293C14.8273 45.4768 15.1939 44.881 15.1939 42.8414V20.383C15.1939 18.3435 14.8273 17.7476 12.3293 17.7476H10.0377Z" fill="white"/>
</svg>
