<svg width="56" height="57" viewBox="0 0 56 57" fill="none" xmlns="http://www.w3.org/2000/svg">
<path d="M21.3722 27.9024C21.3022 27.9024 21.2555 27.9024 21.1855 27.9024C21.0689 27.879 20.9055 27.879 20.7655 27.9024C13.9989 27.6924 8.88885 22.3724 8.88885 15.8157C8.88885 9.14235 14.3255 3.70569 20.9989 3.70569C27.6722 3.70569 33.1089 9.14235 33.1089 15.8157C33.0855 22.3724 27.9522 27.6924 21.4422 27.9024C21.4189 27.9024 21.3955 27.9024 21.3722 27.9024ZM20.9989 7.20569C16.2622 7.20569 12.3889 11.079 12.3889 15.8157C12.3889 20.4824 16.0289 24.239 20.6722 24.4024C20.8122 24.379 21.1155 24.379 21.4189 24.4024C25.9922 24.1924 29.5855 20.4357 29.6089 15.8157C29.6089 11.079 25.7355 7.20569 20.9989 7.20569Z" fill="white"/>
<path d="M38.5924 28.2058C38.5224 28.2058 38.4523 28.2058 38.3823 28.1824C37.4257 28.2758 36.4457 27.5991 36.3523 26.6424C36.259 25.6858 36.8423 24.8224 37.799 24.7058C38.079 24.6824 38.3823 24.6824 38.639 24.6824C42.0457 24.4958 44.7057 21.6958 44.7057 18.2658C44.7057 14.7191 41.8357 11.8491 38.289 11.8491C37.3323 11.8724 36.539 11.0791 36.539 10.1224C36.539 9.16577 37.3323 8.37244 38.289 8.37244C43.749 8.37244 48.2057 12.8291 48.2057 18.2891C48.2057 23.6558 44.0057 27.9958 38.6623 28.2058C38.639 28.2058 38.6157 28.2058 38.5924 28.2058Z" fill="white"/>
<path d="M21.3958 53.4058C16.8224 53.4058 12.2258 52.2391 8.74909 49.9058C5.50576 47.7591 3.73242 44.8191 3.73242 41.6224C3.73242 38.4258 5.50576 35.4624 8.74909 33.2924C15.7491 28.6491 27.0891 28.6491 34.0424 33.2924C37.2624 35.4391 39.0591 38.3791 39.0591 41.5758C39.0591 44.7724 37.2857 47.7358 34.0424 49.9058C30.5424 52.2391 25.9691 53.4058 21.3958 53.4058ZM10.6858 36.2324C8.44575 37.7258 7.23242 39.6391 7.23242 41.6458C7.23242 43.6291 8.46909 45.5424 10.6858 47.0124C16.4958 50.9091 26.2957 50.9091 32.1057 47.0124C34.3457 45.5191 35.5591 43.6058 35.5591 41.5991C35.5591 39.6158 34.3224 37.7024 32.1057 36.2324C26.2957 32.3591 16.4958 32.3591 10.6858 36.2324Z" fill="white"/>
<path d="M42.7926 49.2057C41.9759 49.2057 41.2526 48.6457 41.0892 47.8057C40.9026 46.849 41.5092 45.939 42.4426 45.729C43.9126 45.4257 45.2659 44.8424 46.3159 44.0257C47.6459 43.0224 48.3692 41.7624 48.3692 40.4324C48.3692 39.1024 47.6459 37.8424 46.3392 36.8624C45.3126 36.069 44.0292 35.509 42.5126 35.159C41.5792 34.949 40.9726 34.0157 41.1826 33.059C41.3926 32.1257 42.3259 31.519 43.2826 31.729C45.2892 32.1724 47.0392 32.9657 48.4626 34.0624C50.6326 35.6957 51.8692 38.0057 51.8692 40.4324C51.8692 42.859 50.6092 45.169 48.4392 46.8257C46.9926 47.9457 45.1726 48.7624 43.1659 49.159C43.0259 49.2057 42.9092 49.2057 42.7926 49.2057Z" fill="white"/>
</svg>
