<svg width="72" height="72" viewBox="0 0 72 72" fill="none" xmlns="http://www.w3.org/2000/svg">
<path d="M56.1898 44.0102L43.7398 56.4602C43.2598 56.9402 42.8098 57.8702 42.6898 58.5302L41.9998 63.3002C41.7598 65.0102 42.9598 66.2402 44.6698 65.9702L49.4398 65.2802C50.0998 65.1902 51.0298 64.7102 51.5098 64.2302L63.9598 51.7802C66.0898 49.6502 67.1098 47.1302 63.9598 43.9802C60.8398 40.8602 58.3498 41.8502 56.1898 44.0102Z" fill="#FFBA0A"/>
<path d="M54.4197 45.78C55.4697 49.56 58.4397 52.5 62.2197 53.58L54.4197 45.78Z" fill="#FFBA0A"/>
<path opacity="0.2" d="M6.09004 43.8901C6.09004 43.9801 6.03003 44.1002 6.03003 44.1902C8.79003 49.7102 13.2901 54.2401 18.8101 56.9701C18.9001 56.9701 19.02 56.9101 19.11 56.9101C18.09 53.4301 17.3101 49.8601 16.7401 46.2901C13.1401 45.6901 9.57004 44.9101 6.09004 43.8901Z" fill="#EEB72B"/>
<path opacity="0.2" d="M57.2098 19.2898C54.3898 13.3798 49.6197 8.60982 43.7397 5.81982C44.8197 9.38982 45.7197 13.0498 46.3197 16.7098C49.9797 17.3098 53.6398 18.1798 57.2098 19.2898Z" fill="#EEB72B"/>
<path opacity="0.2" d="M5.78979 19.2901C9.3898 18.2101 13.0498 17.3101 16.7098 16.7101C17.3098 13.1401 18.0598 9.60012 19.0798 6.12012C18.9898 6.12012 18.8698 6.06006 18.7798 6.06006C13.1398 8.85006 8.54979 13.5601 5.78979 19.2901Z" fill="#EEB72B"/>
<path opacity="0.2" d="M41.4598 16.08C40.7398 12.18 39.8398 8.28 38.5498 4.5C38.4898 4.29 38.4898 4.11003 38.4598 3.87003C36.2398 3.33003 33.8998 2.96997 31.4998 2.96997C29.0698 2.96997 26.7598 3.30003 24.5098 3.87003C24.4798 4.08003 24.5098 4.26 24.4498 4.5C23.1898 8.28 22.2598 12.18 21.5398 16.08C28.1698 15.36 34.8298 15.36 41.4598 16.08Z" fill="#EEB72B"/>
<path opacity="0.2" d="M16.08 21.5398C12.15 22.2598 8.27995 23.1598 4.49995 24.4498C4.28995 24.5098 4.10993 24.5098 3.86993 24.5398C3.32993 26.7598 2.96997 29.0998 2.96997 31.4998C2.96997 33.9298 3.29993 36.2398 3.86993 38.4898C4.07993 38.5198 4.25995 38.4898 4.49995 38.5498C8.27995 39.8098 12.15 40.7398 16.08 41.4598C15.36 34.8298 15.36 28.1698 16.08 21.5398Z" fill="#EEB72B"/>
<path opacity="0.2" d="M59.1001 24.5398C58.8901 24.5398 58.7101 24.5098 58.4701 24.4498C54.6901 23.1898 50.7901 22.2598 46.8901 21.5398C47.6401 28.1698 47.6401 34.8298 46.8901 41.4298C50.7901 40.7098 54.6901 39.8098 58.4701 38.5198C58.6801 38.4598 58.8601 38.4898 59.1001 38.4598C59.6401 36.2098 60.0001 33.8998 60.0001 31.4698C60.0001 29.0998 59.6701 26.7898 59.1001 24.5398Z" fill="#EEB72B"/>
<path opacity="0.2" d="M21.5398 46.9199C22.2598 50.8499 23.1598 54.7199 24.4498 58.4999C24.5098 58.7099 24.4798 58.8899 24.5098 59.1299C26.7598 59.6699 29.0698 60.0299 31.4998 60.0299C33.8998 60.0299 36.2398 59.6999 38.4598 59.1299C38.4898 58.9199 38.4898 58.7399 38.5498 58.4999C39.8098 54.7199 40.7398 50.8499 41.4598 46.9199C38.1598 47.2799 34.8298 47.5499 31.4998 47.5499C28.1698 47.5199 24.8398 47.2799 21.5398 46.9199Z" fill="#EEB72B"/>
<path opacity="0.2" d="M20.8498 20.8498C19.9498 27.9298 19.9498 35.0698 20.8498 42.1798C27.9298 43.0798 35.0698 43.0798 42.1798 42.1798C43.0798 35.0998 43.0798 27.9598 42.1798 20.8498C35.0698 19.9498 27.9298 19.9498 20.8498 20.8498Z" fill="#EEB72B"/>
</svg>
