<svg width="72" height="72" viewBox="0 0 72 72" fill="none" xmlns="http://www.w3.org/2000/svg">
<path opacity="0.1" d="M25.5 56.9099H24C12 56.9099 6 53.9099 6 38.9099V23.9099C6 11.9099 12 5.90991 24 5.90991H48C60 5.90991 66 11.9099 66 23.9099V38.9099C66 50.9099 60 56.9099 48 56.9099H46.5C45.57 56.9099 44.67 57.36 44.1 58.11L39.6 64.11C37.62 66.75 34.38 66.75 32.4 64.11L27.9 58.11C27.42 57.45 26.34 56.9099 25.5 56.9099Z" fill="#BF71FC"/>
<path d="M23.9998 40.3498C23.4298 40.3498 22.8598 40.1397 22.4098 39.6897L16.4098 33.6897C15.5398 32.8197 15.5398 31.3797 16.4098 30.5097L22.4098 24.5097C23.2798 23.6397 24.7198 23.6397 25.5898 24.5097C26.4598 25.3797 26.4598 26.8197 25.5898 27.6897L21.1798 32.0998L25.5898 36.5097C26.4598 37.3797 26.4598 38.8197 25.5898 39.6897C25.1398 40.1397 24.5698 40.3498 23.9998 40.3498Z" fill="#8F0EF3"/>
<path d="M47.9998 40.3498C47.4298 40.3498 46.8598 40.1397 46.4098 39.6897C45.5398 38.8197 45.5398 37.3797 46.4098 36.5097L50.8198 32.0998L46.4098 27.6897C45.5398 26.8197 45.5398 25.3797 46.4098 24.5097C47.2798 23.6397 48.7198 23.6397 49.5898 24.5097L55.5898 30.5097C56.4598 31.3797 56.4598 32.8197 55.5898 33.6897L49.5898 39.6897C49.1398 40.1397 48.5698 40.3498 47.9998 40.3498Z" fill="#8F0EF3"/>
<path d="M33.0001 41.3401C32.7001 41.3401 32.4001 41.2799 32.1001 41.1599C30.9601 40.6799 30.4201 39.3599 30.9301 38.1899L36.9301 24.18C37.4101 23.04 38.7301 22.4999 39.9001 23.0099C41.0401 23.4899 41.5801 24.8099 41.0701 25.9799L35.0701 39.99C34.7101 40.83 33.8701 41.3401 33.0001 41.3401Z" fill="#8F0EF3"/>
</svg>
