<svg width="492" height="341" viewBox="0 0 492 341" fill="none" xmlns="http://www.w3.org/2000/svg">
<path d="M112.215 237.907L111.439 237.605C126.978 197.773 167.687 169.447 210.446 168.701C221.893 168.505 233.411 170.141 244.554 171.725C249.71 172.459 255.044 173.217 260.299 173.784C273.395 175.193 292.715 176.154 309.206 168.227C325.562 160.365 335.779 144.21 334.053 128.938L334.887 128.844C336.65 144.464 326.241 160.968 309.573 168.978C292.904 176.988 273.414 176.035 260.214 174.605C254.946 174.039 249.604 173.28 244.439 172.544C233.33 170.964 221.845 169.326 210.464 169.528C168.031 170.268 127.635 198.384 112.215 237.907Z" fill="white"/>
<path d="M434.219 224.4L433.489 223.996C439.309 213.47 445.328 202.586 447.285 190.482C448.978 180.029 447.206 165.864 437.162 157.451C429.548 151.073 419.188 149.583 409.167 148.141L407.024 147.83C396.407 146.273 384.665 143.497 378.081 134.728L378.746 134.228C385.151 142.755 396.696 145.473 407.145 147.005L409.286 147.315C419.422 148.774 429.902 150.283 437.697 156.811C448.009 165.449 449.837 179.937 448.119 190.615C446.129 202.861 440.074 213.812 434.219 224.4Z" fill="white"/>
<path d="M61.1893 262.571C55.2052 262.571 48.6562 261.589 42.4407 258.661C32.1732 253.825 25.1219 244.218 24.4778 234.186C24.1839 229.601 25.1677 225.015 26.1203 220.605C26.2912 219.81 26.4621 219.016 26.6247 218.224C27.6856 213.088 28.4485 207.642 26.8894 202.592C25.9946 203.474 25.0337 204.286 24.0151 205.022C20.7239 207.398 16.1946 208.459 12.7596 207.665C10.5273 207.15 8.82441 205.897 7.83018 204.045C6.70672 201.948 6.85679 199.399 8.24704 197.049C9.89159 194.269 12.8514 192.451 15.784 192.42H15.8882C21.1158 192.42 25.3574 196.558 27.2229 201.031C30.9539 196.887 33.305 191.413 33.5885 185.879C33.9553 178.697 30.8455 171.266 25.472 166.485L26.0265 165.859C28.5426 168.097 30.5832 170.817 32.0271 173.858C33.471 176.9 34.2887 180.201 34.4316 183.564C34.5746 186.928 34.0398 190.286 32.859 193.439C31.6783 196.592 29.8757 199.476 27.5585 201.918C27.6043 202.046 27.646 202.175 27.6856 202.302C29.3177 207.534 28.5402 213.124 27.4543 218.383C27.2917 219.177 27.1208 219.973 26.9478 220.769C26.0077 225.146 25.0364 229.651 25.322 234.124C25.9473 243.855 32.811 253.189 42.8075 257.885C53.5419 262.942 65.3184 262.075 73.3056 260.457C83.5647 258.373 93.3153 254.106 102.749 249.973L103.082 250.736C93.6113 254.888 83.819 259.18 73.4703 261.274C69.4296 262.112 65.3158 262.546 61.1893 262.571ZM15.8778 193.264H15.7819C13.1307 193.293 10.4523 194.948 8.96197 197.485C7.72596 199.569 7.58214 201.827 8.56595 203.661C9.44137 205.297 10.9567 206.404 12.9431 206.863C16.1696 207.609 20.4238 206.6 23.5336 204.361C24.6261 203.57 25.6478 202.685 26.5872 201.716C24.9093 197.375 20.8698 193.264 15.8778 193.264Z" fill="white"/>
<path d="M209.7 338.365C212.944 337.056 214.513 333.365 213.204 330.121C211.896 326.876 208.205 325.307 204.96 326.616C201.716 327.925 200.147 331.616 201.456 334.86C202.765 338.104 206.456 339.673 209.7 338.365Z" fill="#FF5C33"/>
<path d="M25.3047 84.6513C25.8737 82.2178 24.3622 79.7838 21.9287 79.2148C19.4951 78.6458 17.0611 80.1573 16.4921 82.5908C15.9232 85.0243 17.4347 87.4583 19.8682 88.0273C22.3017 88.5963 24.7357 87.0848 25.3047 84.6513Z" fill="#007BFF"/>
<path d="M488.15 220.948C490.229 220.088 491.215 217.705 490.355 215.627C489.494 213.549 487.111 212.562 485.033 213.423C482.955 214.284 481.968 216.666 482.829 218.744C483.69 220.822 486.072 221.809 488.15 220.948Z" fill="#007BFF"/>
<path d="M455.7 296.823L449.94 291.063L444.181 296.823L449.94 302.583L455.7 296.823Z" fill="#BCD5FF"/>
<path d="M269.401 15.8326L263.642 10.0728L257.882 15.8326L263.642 21.5924L269.401 15.8326Z" fill="#BCD5FF"/>
<path d="M376.862 153.91C376.401 162.247 371.597 191.367 365.398 211.921C363.372 218.672 361.19 224.5 358.955 228.365C358.72 228.781 358.484 229.18 358.24 229.551L340.665 228.121C341.916 225.079 343.179 221.952 344.456 218.741C346.61 213.301 348.773 207.627 350.855 201.754C356.456 185.942 361.435 168.711 363.897 150.883L376.862 153.91Z" fill="#FF5C33"/>
<path opacity="0.3" d="M365.396 211.921C363.37 218.672 361.187 224.5 358.953 228.364L344.454 218.745C346.607 213.305 348.771 207.631 350.853 201.758C356.662 203.948 361.585 207.25 365.396 211.921Z" fill="#4A191B"/>
<path d="M420.945 63.0556L400.504 173.14L287.456 152.157L294.699 113.149C291.197 114.503 287.386 114.854 283.696 114.162C272.92 112.161 265.77 102.041 267.717 91.5506C269.664 81.0601 279.971 74.1839 290.747 76.1848C294.442 76.8582 297.874 78.5545 300.654 81.0809L307.897 42.0725L347.768 49.4761C346.45 46.1684 346.097 42.5548 346.749 39.0544C348.696 28.5722 359.013 21.6897 369.781 23.6886C380.549 25.6875 387.706 35.8174 385.757 46.2975C385.108 49.7945 383.485 53.0371 381.074 55.652L420.945 63.0556Z" fill="#007BFF"/>
<path d="M349.506 64.0977C356.966 65.4504 364.167 62.1738 371.133 59.0015C372.647 58.3136 374.21 57.6008 375.738 56.9567C377.797 56.0883 379.846 55.3386 381.884 54.7077C382.045 54.4993 382.193 54.2909 382.347 54.0949C380.043 54.7882 377.777 55.6043 375.56 56.5399C374.029 57.186 372.461 57.8989 370.946 58.5909C364.042 61.7341 356.906 64.9835 349.588 63.6537C341.104 62.1113 335.233 54.6577 332.784 46.6851L332.281 46.5913C333.251 49.9178 334.803 53.0456 336.867 55.8291C340.26 60.3542 344.633 63.2118 349.506 64.0977Z" fill="white"/>
<path d="M400.402 102.712C394.614 103.252 388.63 103.809 383.294 105.918C370.976 110.787 362.478 124.523 362.628 139.32C362.728 148.991 366.171 158.881 372.504 167.94L373.148 168.058C366.707 158.973 363.18 149.031 363.08 139.313C362.932 124.7 371.311 111.141 383.461 106.339C388.736 104.255 394.689 103.698 400.444 103.162C404.982 102.746 409.603 102.304 413.888 101.099L413.976 100.628C409.757 101.837 405.151 102.268 400.402 102.712Z" fill="white"/>
<path d="M279.237 112.782C285.515 107.396 293.073 104.544 300.289 105.176C304.628 105.555 308.862 107.133 312.955 108.657C318.062 110.562 323.34 112.529 328.844 112.154C336.934 111.598 343.818 106.097 349.352 101.678L402.086 59.5517L401.496 59.4434L349.075 101.324C342.343 106.704 336.169 111.198 328.819 111.702C323.427 112.073 318.189 110.12 313.118 108.234C308.997 106.697 304.735 105.107 300.333 104.724C292.944 104.08 285.194 107.016 278.791 112.577C278.935 112.648 279.093 112.715 279.237 112.782Z" fill="white"/>
<path d="M312.556 146.035C305.715 141.902 297.813 139.636 289.836 139.317L289.753 139.766C297.673 140.072 305.527 142.319 312.32 146.423C317.763 149.746 322.471 154.143 326.158 159.346L326.804 159.467C323.041 154.047 318.188 149.473 312.556 146.035Z" fill="white"/>
<path d="M252.816 291.26L250.876 298.048L237.071 306.3L262.598 311.947L264.086 292.162L252.816 291.26Z" fill="#001F40"/>
<path d="M251.25 297.808L250.496 298.309L254.114 303.76L254.868 303.26L251.25 297.808Z" fill="white"/>
<path d="M339.005 253.533C339.005 253.533 335.647 259.561 327.983 263.804C321.955 267.139 313.267 269.388 301.447 266.723L293.385 264.659L289.873 263.765L285.704 262.696L275.491 260.09L275.436 260.299L266.44 294.788L263.897 294.49L252.277 293.114L248.648 292.681L252.313 257.856L253.472 246.823L308.55 240.606L324.731 238.778L325.565 238.678L328.56 241.992L335.384 249.548L339.005 253.533Z" fill="#FFB900"/>
<path d="M207.213 267.4L200.707 270.148L185.623 264.57L197.233 287.994L213.578 276.742L207.213 267.4Z" fill="#001F40"/>
<path d="M200.28 270.024L198.303 276.261L199.165 276.535L201.142 270.298L200.28 270.024Z" fill="white"/>
<path d="M336.137 248.328C336.137 248.328 335.902 248.781 335.404 249.541C332.618 253.714 329.013 257.277 324.807 260.013C317.91 264.492 307.649 267.859 293.385 264.663C292.245 264.411 291.078 264.113 289.873 263.769C289.413 263.642 288.942 263.496 288.47 263.352L285.711 262.7L275.448 260.292L255.901 255.707L252.324 257.852L211.852 282.113L210.133 279.116L204.151 268.694L202.504 265.824L243.682 237.506C246.314 235.698 249.345 234.554 252.516 234.171C254.015 233.989 255.53 233.983 257.03 234.153L292.698 238.082L304.914 236.243L319.169 234.098L324.742 238.778L328.579 241.992L336.137 248.328Z" fill="#FFB900"/>
<path d="M311.082 267.94C310.49 267.94 309.89 267.929 309.283 267.907C301.027 267.613 258.952 256.772 255.947 255.997L243.063 263.646L242.786 263.179L255.863 255.413L255.974 255.442C256.422 255.557 300.981 267.067 309.302 267.365C317.581 267.654 324.517 265.906 329.34 262.289L329.666 262.725C325.101 266.15 318.696 267.94 311.082 267.94Z" fill="#001F40"/>
<path opacity="0.1" d="M339.006 253.533C339.006 253.533 335.648 259.561 327.984 263.805C319.507 256.697 311.817 247.508 304.914 236.237L319.169 234.092L324.742 238.772L325.576 238.672L328.571 241.986L336.129 248.328C336.129 248.328 335.894 248.781 335.395 249.541L339.006 253.533Z" fill="#001F40"/>
<path d="M355.862 200.703L350.02 214.545L339.006 210.02L340.165 206.681L343.152 198.102L350.293 201.812L355.862 200.703Z" fill="#FFBA9A"/>
<path d="M350.293 201.812L350.084 203.378C347.192 205.463 343.731 206.616 340.165 206.681L343.152 198.102L350.293 201.812Z" fill="#001F40"/>
<path d="M344.148 185.256C344.148 185.256 336.992 197.462 340.219 200.828C343.445 204.195 352.143 204.195 352.143 204.195L360.272 194.375L354.38 187.497L344.148 185.256Z" fill="#FFBA9A"/>
<path d="M342.833 189.431C339.914 190.711 337.582 192.12 338.247 193.125C339.154 194.482 340.957 195.236 340.957 195.236L342.833 189.431Z" fill="#FFBA9A"/>
<path d="M341.117 179.253C341.257 184.185 342.011 188.008 349.715 188.229C350.549 188.756 351.591 193.808 350.772 194.713L354.467 203.99C361.254 199.534 366.459 193.206 360.802 187.624C360.802 187.624 358.884 179.845 351.827 180.537C344.89 181.209 341.117 179.253 341.117 179.253Z" fill="#001F40"/>
<path d="M353.77 197.077C355.034 195.693 355.187 193.775 354.111 192.791C353.035 191.808 351.138 192.133 349.874 193.516C348.61 194.9 348.457 196.818 349.533 197.801C350.609 198.785 352.506 198.46 353.77 197.077Z" fill="#FFBA9A"/>
<path d="M351.529 196.235L350.852 196.189C350.881 195.743 351.014 195.309 351.24 194.923C351.465 194.537 351.778 194.209 352.152 193.965C352.366 193.829 352.61 193.748 352.863 193.731C353.116 193.714 353.369 193.761 353.599 193.867L353.311 194.48C353.181 194.42 353.037 194.396 352.894 194.408C352.752 194.421 352.614 194.47 352.496 194.55C352.219 194.74 351.987 194.99 351.82 195.282C351.653 195.574 351.553 195.899 351.529 196.235Z" fill="#001F40"/>
<path opacity="0.2" d="M347.664 195.81C347.991 194.432 347.139 193.05 345.761 192.723C344.384 192.396 343.002 193.248 342.675 194.626C342.348 196.003 343.2 197.385 344.577 197.712C345.955 198.039 347.337 197.187 347.664 195.81Z" fill="#FF5C33"/>
<path d="M309.277 228.427L329.117 207.023C329.863 206.221 330.892 205.739 331.986 205.679C339.781 205.262 343.135 206.671 348.883 209.055C351.376 210.091 353.634 211.618 355.524 213.545C357.826 215.895 359.272 218.949 359.632 222.218C359.992 225.487 359.244 228.783 357.508 231.577L341.955 256.612C341.581 257.214 341.077 257.726 340.48 258.109C339.884 258.492 339.209 258.736 338.505 258.825C337.802 258.914 337.087 258.844 336.414 258.621C335.741 258.398 335.126 258.028 334.614 257.537L309.775 234.297C308.981 233.553 308.491 232.542 308.399 231.458C308.307 230.374 308.619 229.294 309.277 228.427Z" fill="#FF5C33"/>
<path d="M337.911 137.043C337.769 137.098 337.63 137.16 337.494 137.229C337.196 136.109 334.922 135.261 333.34 137.127C333.617 135.632 331.189 135.146 329.267 136.109C323.658 138.721 319.506 145.906 317.047 155.304L332.679 155.794C334.113 149.712 336.471 144.318 340.043 140.384C341.488 138.817 339.883 136.264 337.911 137.043Z" fill="#FFBA9A"/>
<path d="M320.453 217.407L339.151 211.761C333.892 206.296 327.723 176.898 332.69 155.794L318.487 150.281C310.8 171.254 312.911 197.65 320.453 217.407Z" fill="#FF5C33"/>
<path d="M60.373 241.93L60.7983 245.532L103.986 268.405L145.541 262.513L176.356 221.005L174.274 217.651L128.425 247.018L60.373 241.93Z" fill="#BCD5FF"/>
<path d="M142.656 225.903L141.4 227.17L104.565 264.222L103.742 265.045L60.375 241.93L97.5159 203.911L140.466 224.836L142.656 225.903Z" fill="white"/>
<path d="M142.654 225.901L174.274 217.651L143.761 258.785L103.746 265.049L142.654 225.901Z" fill="#E2EDFF"/>
<path d="M169.759 220.698L142.748 257.112L108.924 262.406L143.588 227.529L169.759 220.698ZM174.274 217.651L142.654 225.901L103.746 265.049L143.765 258.796L174.278 217.661L174.274 217.651Z" fill="white"/>
<path d="M175.108 81.8104C171.411 91.8152 176.742 103.006 187.016 106.802C190.536 108.112 194.351 108.411 198.032 107.665L184.275 144.885L76.4251 105.03L90.5153 66.8865C86.3469 68.1168 81.8918 67.961 77.8196 66.4426C67.5458 62.647 62.2141 51.4582 65.9117 41.4513C69.6093 31.4444 80.9357 26.419 91.2094 30.223C95.291 31.7188 98.7774 34.498 101.145 38.1434L115.236 0L223.09 39.8547L209.333 77.0748C207.022 74.1143 203.929 71.8595 200.404 70.5654C190.132 66.7698 178.806 71.8035 175.108 81.8104Z" fill="#FFB900"/>
<path d="M77.4256 105.399L76.6523 104.415L76.4668 104.913L76.6148 105.099L77.4256 105.399Z" fill="white"/>
<path d="M89.6015 67.1286C89.762 67.089 89.9225 67.0494 90.0809 67.0056L77.6728 51.2334L77.3164 51.5127L89.6015 67.1286Z" fill="white"/>
<path d="M67.459 38.25C67.3756 38.3876 67.2901 38.5251 67.2109 38.6669L77.0365 51.1562L77.3929 50.8769L67.459 38.25Z" fill="white"/>
<path d="M137.042 127.428L137.852 127.728L119.329 104.184L118.975 104.463L137.042 127.428Z" fill="white"/>
<path d="M90.3496 67.3452L90.1641 67.8434L97.8657 77.6314L98.22 77.3521L90.3496 67.3452Z" fill="white"/>
<path d="M98.5 77.6969L98.1445 77.9766L118.696 104.093L119.051 103.813L98.5 77.6969Z" fill="white"/>
<path d="M145.805 83.3483L145.449 83.6279L165.996 109.748L166.352 109.468L145.805 83.3483Z" fill="white"/>
<path d="M166.634 109.847L166.278 110.127L186.826 136.248L187.182 135.969L166.634 109.847Z" fill="white"/>
<path d="M124.978 56.8854L124.622 57.165L145.169 83.2848L145.524 83.0052L124.978 56.8854Z" fill="white"/>
<path d="M104.149 30.4043L103.94 30.569L103.863 30.7753L124.342 56.8025L124.696 56.5232L104.149 30.4043Z" fill="white"/>
<path d="M187.268 136.793L187.443 136.32L187.105 136.585L187.268 136.793Z" fill="white"/>
<path d="M130.629 9.58705L130.273 9.8667L150.82 35.9865L151.176 35.7068L130.629 9.58705Z" fill="white"/>
<path d="M126.309 4.09165L125.498 3.7915L129.988 9.50052L130.344 9.22121L126.309 4.09165Z" fill="white"/>
<path d="M180.658 73.9087L181.01 73.6231L172.279 62.5303L171.925 62.8096L180.658 73.9087Z" fill="white"/>
<path d="M152.162 35.9076L151.805 36.188L172.409 62.4419L172.766 62.1614L152.162 35.9076Z" fill="white"/>
<path d="M185.925 26.1206L198.118 41.6219L198.475 41.3426L186.736 26.4208L185.925 26.1206Z" fill="white"/>
<path d="M214.665 62.6531L214.848 62.155L198.755 41.6992L198.4 41.9785L214.665 62.6531Z" fill="white"/>
<path d="M178.526 142.759L179.025 142.942L187.106 136.585L187.443 136.32L187.743 135.507L187.181 135.951L186.826 136.231L178.526 142.759Z" fill="white"/>
<path d="M141.456 129.06L141.954 129.244L166.276 110.109L166.633 109.83L178.343 100.617C178.247 100.5 178.157 100.38 178.065 100.261L166.354 109.474L165.997 109.755L141.456 129.06Z" fill="white"/>
<path d="M208.911 76.5683L209.772 75.8909L210.072 75.0801L208.613 76.2202C208.722 76.3349 208.815 76.4516 208.911 76.5683Z" fill="white"/>
<path d="M172 62.1718L171.643 62.4511L145.524 82.9986L145.168 83.2799L119.049 103.827L118.693 104.107L104.386 115.362L104.884 115.546L118.974 104.463L119.328 104.184L145.449 83.6343L145.804 83.355L171.925 62.8055L172.279 62.5262L198.4 41.9787L198.754 41.6994L208.126 34.325L207.629 34.1416L198.475 41.343L198.119 41.6223L172 62.1718Z" fill="white"/>
<path d="M124.621 57.159L124.975 56.8797L151.096 36.3302L151.452 36.0509L171.058 20.6268L170.56 20.4434L151.171 35.6966L150.817 35.9759L124.696 56.5233L124.341 56.8026L98.2205 77.3521L97.8661 77.6314L81.9105 90.1833L81.6104 90.9962L98.1454 77.9879L98.4998 77.7086L124.621 57.159Z" fill="white"/>
<path d="M68.0585 58.795L77.3171 51.5123L77.6735 51.233L98.4773 34.8647C98.371 34.7584 98.2689 34.6438 98.1605 34.5396L77.3942 50.8766L77.0378 51.1559L67.8125 58.4136C67.8938 58.5407 67.9751 58.67 68.0585 58.795Z" fill="white"/>
<path d="M130.268 9.85495L130.624 9.57565L133.988 6.92854L133.49 6.74512L130.345 9.22132L129.988 9.50062L104.241 29.7562L103.94 30.5691L104.149 30.4045L130.268 9.85495Z" fill="white"/>
<path d="M123.005 155.688L112.498 156.105L113.188 173.506L123.695 173.089L123.005 155.688Z" fill="#974245"/>
<path d="M123.001 155.7L123.418 165.959C120.5 165.034 116.717 161.388 114.516 157.524L120.406 155.804L123.001 155.7Z" fill="#4A191B"/>
<path d="M128.139 150.681C130.224 153.914 130.255 156.517 127.21 155.14C124.165 153.762 128.139 150.681 128.139 150.681Z" fill="#974245"/>
<path d="M128.254 147.038C128.254 147.038 129.319 160.776 123.866 160.991C118.414 161.205 113.18 156.866 113.18 156.866L113.159 146.467L122.091 142.213L128.254 147.038Z" fill="#974245"/>
<path d="M118.493 150.025C119.093 147.893 120.675 146.304 123.51 145.406C123.51 145.406 127.301 150.263 130.122 148.264C134.105 145.441 129.99 138.39 123.673 139.68C120.465 135.97 116.951 137.165 113.278 140.873C106.531 142.019 105.745 145.91 107.525 150.98C103.467 150.942 102.116 152.989 102.719 156.543L114.554 159.973L117.14 151.032L118.493 150.025Z" fill="#4A191B"/>
<path d="M116.722 138.28C116.812 140.541 114.999 142.448 112.67 142.542C110.342 142.636 108.385 140.875 108.293 138.613C108.202 136.352 110.017 134.444 112.345 134.348C114.674 134.253 116.637 136.016 116.722 138.28Z" fill="#4A191B"/>
<path opacity="0.3" d="M126.068 154.187C126.087 154.675 125.961 155.157 125.706 155.574C125.452 155.99 125.079 156.321 124.636 156.526C124.193 156.73 123.699 156.799 123.217 156.723C122.735 156.647 122.286 156.429 121.927 156.098C121.569 155.767 121.316 155.337 121.202 154.862C121.088 154.388 121.117 153.89 121.286 153.432C121.455 152.974 121.756 152.576 122.15 152.289C122.545 152.002 123.016 151.839 123.504 151.819C124.158 151.793 124.795 152.028 125.276 152.472C125.757 152.916 126.042 153.533 126.068 154.187Z" fill="#4A191B"/>
<path d="M119.527 153.026C120.652 152.391 120.899 150.699 120.079 149.246C119.259 147.794 117.683 147.131 116.558 147.766C115.433 148.4 115.186 150.093 116.006 151.545C116.826 152.998 118.402 153.661 119.527 153.026Z" fill="#974245"/>
<path d="M118.628 151.721C118.553 150.612 118.057 149.952 117.069 149.637L117.34 148.774C118.693 149.191 119.425 150.168 119.531 151.657L118.628 151.721Z" fill="#4A191B"/>
<path d="M147.944 159.827C145.695 162.177 142.903 163.938 139.814 164.956C136.724 165.974 133.432 166.216 130.227 165.663C120.431 163.977 108.308 164.513 101.444 171.858L98.6659 212.811C98.6388 213.206 98.7081 213.601 98.8678 213.963C99.0275 214.325 99.2727 214.642 99.5824 214.889C99.892 215.135 100.257 215.302 100.646 215.376C101.034 215.449 101.435 215.428 101.813 215.312L133.268 205.724C133.787 205.567 134.238 205.242 134.551 204.8C134.865 204.358 135.022 203.825 134.998 203.283L134.325 187.526C150.374 185.454 166.255 160.763 173.736 145.578L163.145 136.824C158.145 146.331 153.092 154.404 147.944 159.827Z" fill="#007BFF"/>
<path d="M177.336 130.081C178.093 129.118 176.156 127.193 174.954 128.454C176.058 126.538 173.845 124.989 172.661 125.552C172.522 123.391 171.496 122.84 169.582 123.899C167.442 128.414 165.297 132.76 163.142 136.845L173.732 145.599C177.94 137.062 179.591 130.411 177.336 130.081Z" fill="#974245"/>
<path d="M142.657 225.903L103.742 265.045L101.651 223.423L101.218 214.844L132.835 205.85L134.692 209.641L142.657 225.903Z" fill="#FF5C33"/>
<path opacity="0.3" d="M134.692 209.641L101.651 223.423L101.218 214.844L132.835 205.85L134.692 209.641Z" fill="#4A191B"/>
<path d="M111.095 175.631L102.949 194.934C101.907 193.621 100.886 192.291 99.8999 190.953C97.2395 187.387 94.7837 183.673 92.5442 179.829C81.4514 160.703 76.6449 138.192 86.9165 108.832L100.383 111.929C93.8053 129.477 98.3575 149.081 103.885 162.312C104.719 164.276 105.553 166.095 106.374 167.731C108.104 171.177 109.769 173.893 111.095 175.631Z" fill="#007BFF"/>
<path d="M98.8123 93.5742C99.1375 92.3923 101.837 92.8071 101.534 94.5246C102.42 92.4986 104.982 93.3595 105.23 94.6413C107.048 93.4685 108.099 93.9681 108.386 96.14C105.468 101.584 102.758 106.885 100.403 111.939L86.917 108.832C91.7547 98.5891 97.0156 91.7629 98.8123 93.5742Z" fill="#974245"/>
<path opacity="0.3" d="M99.9047 190.953C97.2429 187.387 94.7857 183.673 92.5449 179.829C95.0795 171.848 98.4728 165.341 103.884 162.32C104.717 164.284 105.551 166.103 106.372 167.74L106.418 168.002C99.2899 171.612 99.8776 180.779 99.9047 190.953Z" fill="#001F40"/>
<path d="M148.643 328.536C141.621 334.687 122.439 328.428 108.524 322.146L93.0703 305.327C111.946 310.746 130.884 312.91 142.532 303.034L148.643 328.536Z" fill="white"/>
<path d="M105.601 310.868L104.908 311.45L109.682 317.131L110.374 316.549L105.601 310.868Z" fill="#BCD5FF"/>
<path d="M114.19 311.657L113.422 312.135L118.465 320.233L119.233 319.755L114.19 311.657Z" fill="#BCD5FF"/>
<path d="M136.343 310.824L135.468 311.054L138.995 324.478L139.869 324.248L136.343 310.824Z" fill="#BCD5FF"/>
<path d="M489.024 97.372C489.743 102.608 487.552 108.442 482.518 113.567C475.88 120.327 465.825 122.445 456.881 119.312L442.422 114.243C459.541 108.863 469.291 96.5737 471.302 81.0767L489.024 97.372Z" fill="white"/>
<path d="M456.888 119.311C460.529 118.241 463.973 116.586 467.084 114.411C469.661 116.137 473.129 117.173 477.112 117.807C469.25 121.911 464.316 121.71 456.888 119.311Z" fill="#BCD5FF"/>
<path d="M433.652 265.603C433.408 265.603 433.164 265.603 432.924 265.589L432.957 264.684C433.84 264.717 434.724 264.687 435.602 264.593L435.698 265.493C435.019 265.565 434.335 265.602 433.652 265.603ZM430.162 265.282C429.251 265.114 428.352 264.878 427.476 264.576L427.77 263.719C428.604 264.007 429.459 264.232 430.327 264.392L430.162 265.282ZM438.431 264.995L438.206 264.119C439.059 263.897 439.895 263.613 440.707 263.269L441.061 264.103C440.208 264.464 439.328 264.762 438.431 264.995ZM424.92 263.484C424.097 263.055 423.305 262.568 422.552 262.025L423.082 261.291C423.799 261.807 424.553 262.27 425.337 262.677L424.92 263.484ZM443.533 262.835L443.062 262.062C443.816 261.602 444.535 261.088 445.213 260.524L445.793 261.22C445.08 261.813 444.325 262.352 443.533 262.835ZM420.424 260.243C419.759 259.598 419.141 258.905 418.575 258.171L419.293 257.618C419.831 258.318 420.42 258.979 421.054 259.594L420.424 260.243ZM447.794 259.292L447.121 258.688C447.711 258.033 448.252 257.337 448.74 256.603L449.495 257.104C448.982 257.873 448.413 258.605 447.794 259.292ZM417.048 255.851C416.595 255.042 416.203 254.201 415.874 253.335L416.72 253.014C417.033 253.84 417.406 254.641 417.838 255.411L417.048 255.851ZM450.858 254.675L450.039 254.288C450.415 253.489 450.732 252.663 450.987 251.818L451.852 252.078C451.585 252.967 451.253 253.835 450.858 254.675ZM415.084 250.671C414.886 249.766 414.755 248.847 414.692 247.922L415.595 247.859C415.656 248.741 415.78 249.616 415.968 250.479L415.084 250.671ZM452.456 249.366L451.56 249.237C451.686 248.363 451.749 247.48 451.75 246.596C451.751 245.76 451.693 244.924 451.577 244.095L452.473 243.97C452.595 244.844 452.656 245.725 452.657 246.607C452.655 247.53 452.588 248.452 452.456 249.366ZM415.603 245.212L414.701 245.144C414.772 244.219 414.912 243.301 415.118 242.396L416.001 242.605C415.805 243.463 415.672 244.335 415.603 245.212ZM451.022 241.498C450.774 240.651 450.463 239.823 450.093 239.022L450.916 238.643C451.304 239.485 451.63 240.354 451.892 241.244L451.022 241.498ZM416.764 240.064L415.93 239.737C416.266 238.875 416.664 238.039 417.121 237.236L417.909 237.684C417.469 238.448 417.087 239.244 416.764 240.064ZM448.813 236.708C448.33 235.969 447.793 235.266 447.208 234.605L447.886 234.005C448.499 234.699 449.062 235.437 449.57 236.212L448.813 236.708ZM419.37 235.474L418.657 234.918C419.226 234.186 419.848 233.497 420.518 232.856L421.143 233.511C420.505 234.121 419.913 234.778 419.37 235.474ZM445.311 232.765C444.636 232.196 443.92 231.676 443.171 231.21L443.648 230.443C444.435 230.931 445.186 231.476 445.895 232.073L445.311 232.765ZM423.186 231.837L422.661 231.099C423.417 230.563 424.211 230.082 425.037 229.661L425.454 230.468C424.666 230.864 423.909 231.318 423.188 231.827L423.186 231.837ZM440.826 229.986C440.014 229.636 439.178 229.346 438.325 229.117L438.558 228.244C439.455 228.483 440.333 228.788 441.184 229.157L440.826 229.986ZM427.886 229.444L427.599 228.586C428.478 228.291 429.377 228.061 430.289 227.898L430.45 228.79C429.581 228.941 428.725 229.156 427.888 229.434L427.886 229.444ZM435.725 228.625C434.848 228.525 433.964 228.489 433.08 228.517L433.053 227.612C433.98 227.585 434.907 227.623 435.828 227.727L435.725 228.625Z" fill="#95BEFF"/>
<path d="M451.377 241.832C459.423 233.786 459.423 220.74 451.377 212.694C443.331 204.647 430.285 204.647 422.239 212.694C414.193 220.74 414.193 233.785 422.239 241.832C430.285 249.878 443.331 249.878 451.377 241.832Z" fill="white"/>
<path d="M436.826 248.31C431.865 248.311 427.063 246.56 423.267 243.366C419.471 240.171 416.925 235.739 416.078 230.851C415.232 225.963 416.139 220.932 418.639 216.648C421.139 212.363 425.073 209.099 429.745 207.431C434.417 205.763 439.529 205.799 444.177 207.533C448.825 209.266 452.712 212.586 455.152 216.905C457.592 221.225 458.427 226.268 457.512 231.143C456.596 236.019 453.988 240.415 450.147 243.555C446.389 246.631 441.682 248.311 436.826 248.31ZM436.772 207.106C433.544 207.112 430.365 207.893 427.501 209.384C424.638 210.875 422.175 213.032 420.319 215.673C418.463 218.314 417.269 221.362 416.836 224.561C416.404 227.76 416.747 231.016 417.835 234.055C418.923 237.094 420.726 239.827 423.09 242.024C425.455 244.221 428.313 245.818 431.424 246.681C434.534 247.543 437.806 247.646 440.965 246.98C444.124 246.314 447.076 244.9 449.574 242.855C452.657 240.33 454.922 236.948 456.083 233.136C457.244 229.323 457.249 225.253 456.097 221.438C454.945 217.623 452.687 214.235 449.61 211.703C446.532 209.171 442.774 207.609 438.808 207.213C438.129 207.142 437.447 207.106 436.772 207.106Z" fill="#95BEFF"/>
<path d="M446.072 230.034L436.134 227.625L440.972 214.139L441.935 214.485L437.48 226.899L446.314 229.042L446.072 230.034Z" fill="#95BEFF"/>
<path d="M247.733 173.167C248.256 171.372 248.408 169.489 248.179 167.633C247.95 165.777 247.346 163.987 246.402 162.373C245.458 160.759 244.195 159.354 242.69 158.244C241.185 157.135 239.47 156.343 237.649 155.919C231.108 154.383 224.255 157.937 221.764 164.177C220.555 167.168 220.443 170.491 221.447 173.557C222.541 176.908 222.741 180.485 221.756 183.868L220.069 189.65L235.792 194.235L237.48 188.449C238.473 185.115 240.466 182.165 243.189 179.999C245.368 178.241 246.954 175.856 247.733 173.167Z" fill="#95BEFF"/>
<path d="M234.68 197.943L218.994 193.368L217.24 199.381L232.926 203.955L234.68 197.943Z" fill="#95BEFF"/>
<path d="M230.736 192.939L229.876 192.577L238.048 173.155C237.365 173.181 236.691 172.996 236.118 172.623C235.75 172.389 235.437 172.08 235.199 171.715C234.96 171.35 234.803 170.938 234.736 170.508C234.727 170.466 234.707 170.427 234.678 170.396C234.649 170.364 234.612 170.341 234.572 170.328C234.53 170.313 234.485 170.309 234.442 170.317C234.398 170.324 234.357 170.344 234.324 170.372L234.09 170.597C233.771 170.897 233.392 171.127 232.978 171.27C232.565 171.414 232.125 171.469 231.689 171.431C231.089 171.386 230.512 171.179 230.021 170.831L226.478 191.582L225.555 191.424L229.429 168.742L230.082 169.599C230.28 169.858 230.532 170.072 230.819 170.227C231.106 170.382 231.424 170.474 231.749 170.497C232.055 170.525 232.362 170.487 232.652 170.387C232.942 170.288 233.208 170.128 233.431 169.918L233.665 169.693C233.822 169.546 234.016 169.444 234.227 169.399C234.437 169.353 234.656 169.366 234.859 169.435C235.063 169.504 235.244 169.627 235.384 169.791C235.523 169.955 235.616 170.154 235.651 170.366C235.7 170.663 235.811 170.947 235.978 171.199C236.144 171.45 236.362 171.664 236.616 171.825C236.893 172.006 237.206 172.126 237.533 172.178C237.86 172.229 238.194 172.21 238.513 172.123L239.609 171.815L230.736 192.939Z" fill="white"/>
<path d="M223.776 138.302L222.554 138.891L228.437 151.109L229.659 150.521L223.776 138.302Z" fill="#95BEFF"/>
<path d="M261.579 148.397L251.246 155.923L252.047 157.022L262.379 149.496L261.579 148.397Z" fill="#95BEFF"/>
<path d="M245.372 131.194L240.396 149.975L241.708 150.322L246.684 131.542L245.372 131.194Z" fill="#95BEFF"/>
<path d="M61.6406 164.359L50.4415 156.67C51.5528 150.824 50.4023 144.774 47.2227 139.745C44.0432 134.715 39.0719 131.081 33.3148 129.578C27.5576 128.075 21.4442 128.814 16.2115 131.647C10.9788 134.479 7.01743 139.194 5.12874 144.837C3.24004 150.479 3.56507 156.628 6.03806 162.04C8.51105 167.452 12.9474 171.723 18.4495 173.988C23.9517 176.254 30.1089 176.345 35.6755 174.243C41.2422 172.141 45.8026 168.003 48.4342 162.666L61.6406 164.359Z" fill="white"/>
<path d="M27.3055 176.183C22.3795 176.179 17.5744 174.658 13.543 171.827C9.51168 168.996 6.44963 164.993 4.77299 160.361C3.09636 155.729 2.88643 150.693 4.17175 145.938C5.45706 141.183 8.17529 136.938 11.957 133.782C15.7388 130.625 20.4007 128.71 25.3092 128.295C30.2177 127.881 35.1348 128.987 39.3923 131.465C43.6498 133.943 47.0412 137.671 49.1058 142.144C51.1703 146.616 51.8077 151.616 50.9315 156.463L63.4376 165.044L48.6804 163.156C46.6588 167.082 43.5943 170.375 39.8235 172.673C36.0527 174.971 31.7214 176.186 27.3055 176.183ZM27.3889 129.127C23.2756 129.122 19.2356 130.216 15.687 132.296C12.1385 134.376 9.21041 137.367 7.2059 140.959C5.20139 144.55 4.1933 148.613 4.28599 152.725C4.37867 156.837 5.56877 160.85 7.73307 164.348C9.89737 167.846 12.9572 170.701 16.5959 172.62C20.2345 174.538 24.3197 175.449 28.4286 175.258C32.5375 175.067 36.5207 173.781 39.9659 171.534C43.4111 169.287 46.1931 166.16 48.0238 162.477L48.1677 162.187L59.84 163.681L49.9331 156.886L49.9894 156.595C50.6404 153.258 50.5454 149.819 49.7113 146.523C48.8772 143.228 47.3246 140.158 45.1647 137.533C43.0048 134.908 40.291 132.793 37.2179 131.34C34.1448 129.886 30.7883 129.131 27.3889 129.127Z" fill="#95BEFF"/>
<path d="M14.9036 155.033C16.4658 155.033 17.7321 153.767 17.7321 152.205C17.7321 150.643 16.4658 149.376 14.9036 149.376C13.3415 149.376 12.0752 150.643 12.0752 152.205C12.0752 153.767 13.3415 155.033 14.9036 155.033Z" fill="#95BEFF"/>
<path d="M26.8939 155.033C28.456 155.033 29.7223 153.767 29.7223 152.205C29.7223 150.643 28.456 149.376 26.8939 149.376C25.3318 149.376 24.0654 150.643 24.0654 152.205C24.0654 153.767 25.3318 155.033 26.8939 155.033Z" fill="#95BEFF"/>
<path d="M38.8851 155.033C40.4472 155.033 41.7135 153.767 41.7135 152.205C41.7135 150.643 40.4472 149.376 38.8851 149.376C37.323 149.376 36.0566 150.643 36.0566 152.205C36.0566 153.767 37.323 155.033 38.8851 155.033Z" fill="#95BEFF"/>
<path d="M364.61 298.753L373.075 317.101L345.684 329.739L337.22 311.388L355.141 314.242L364.61 298.753Z" fill="white"/>
<path d="M364.61 298.753L356.704 318.342L337.22 311.388L364.61 298.753Z" fill="#95BEFF"/>
<path d="M24.9892 280.565H1.35065C0.992438 280.565 0.648894 280.423 0.395597 280.169C0.142301 279.916 0 279.573 0 279.214C0 278.856 0.142301 278.513 0.395597 278.259C0.648894 278.006 0.992438 277.864 1.35065 277.864H24.9892C25.1665 277.864 25.3422 277.899 25.506 277.967C25.6699 278.034 25.8188 278.134 25.9442 278.259C26.0696 278.385 26.1691 278.534 26.237 278.698C26.3049 278.861 26.3398 279.037 26.3398 279.214C26.3398 279.392 26.3049 279.567 26.237 279.731C26.1691 279.895 26.0696 280.044 25.9442 280.169C25.8188 280.295 25.6699 280.394 25.506 280.462C25.3422 280.53 25.1665 280.565 24.9892 280.565Z" fill="#BCD5FF"/>
<path d="M16.2329 283.687H1.09636C0.490859 283.687 0 284.178 0 284.783V285.292C0 285.897 0.490859 286.388 1.09636 286.388H16.2329C16.8384 286.388 17.3292 285.897 17.3292 285.292V284.783C17.3292 284.178 16.8384 283.687 16.2329 283.687Z" fill="#BCD5FF"/>
<path d="M20.6537 289.513H1.23185C0.551516 289.513 0 290.065 0 290.745V290.983C0 291.663 0.551516 292.214 1.23185 292.214H20.6537C21.3341 292.214 21.8856 291.663 21.8856 290.983V290.745C21.8856 290.065 21.3341 289.513 20.6537 289.513Z" fill="#BCD5FF"/>
<path d="M21.4811 286.555C22.318 286.555 22.9965 285.877 22.9965 285.04C22.9965 284.203 22.318 283.524 21.4811 283.524C20.6442 283.524 19.9658 284.203 19.9658 285.04C19.9658 285.877 20.6442 286.555 21.4811 286.555Z" fill="#BCD5FF"/>
</svg>
