<svg width="44" height="34" viewBox="0 0 44 34" fill="none" xmlns="http://www.w3.org/2000/svg">
<path d="M2 24.2473L2.22 22.4173C2.28874 21.6489 2.53977 20.9081 2.95225 20.2562C3.36472 19.6043 3.92675 19.0602 4.59166 18.6691C5.25657 18.278 6.00518 18.0511 6.77536 18.0073C7.54553 17.9635 8.31504 18.104 9.02 18.4173C9.72562 18.7302 10.4956 18.8705 11.2663 18.8267C12.0369 18.7828 12.7861 18.5561 13.4516 18.1651C14.1172 17.7742 14.6801 17.2303 15.0937 16.5786C15.5073 15.9268 15.7597 15.186 15.83 14.4173C15.8987 13.6489 16.1498 12.9081 16.5622 12.2562C16.9747 11.6043 17.5367 11.0602 18.2017 10.6691C18.8666 10.278 19.6152 10.0511 20.3854 10.0073C21.1555 9.96349 21.925 10.104 22.63 10.4173C23.335 10.7305 24.1045 10.871 24.8746 10.8272C25.6448 10.7835 26.3934 10.5566 27.0583 10.1655C27.7233 9.77433 28.2853 9.23024 28.6978 8.57836C29.1102 7.92648 29.3613 7.18561 29.43 6.41727C29.5003 5.64858 29.7527 4.9077 30.1663 4.25595C30.5799 3.60421 31.1428 3.06036 31.8084 2.66942C32.4739 2.27848 33.2231 2.0517 33.9937 2.00785C34.7644 1.964 35.5344 2.10435 36.24 2.41727L37.83 3.07727L37.93 3.12727" stroke="black" stroke-width="3" stroke-linecap="round" stroke-linejoin="round"/>
<path d="M6.5 31.8774L6.72 30.0474C6.79032 29.2788 7.04272 28.5379 7.45631 27.8861C7.8699 27.2344 8.43279 26.6905 9.09836 26.2996C9.76394 25.9087 10.5131 25.6819 11.2837 25.638C12.0544 25.5942 12.8244 25.7345 13.53 26.0474C14.235 26.3607 15.0045 26.5012 15.7746 26.4574C16.5448 26.4136 17.2934 26.1867 17.9583 25.7956C18.6233 25.4045 19.1853 24.8604 19.5978 24.2085C20.0102 23.5567 20.2613 22.8158 20.33 22.0474C20.3987 21.2791 20.6498 20.5382 21.0622 19.8863C21.4747 19.2345 22.0367 18.6904 22.7017 18.2993C23.3666 17.9081 24.1152 17.6813 24.8854 17.6375C25.6555 17.5937 26.425 17.7342 27.13 18.0474C27.8356 18.3604 28.6056 18.5007 29.3763 18.4569C30.1469 18.413 30.8961 18.1862 31.5616 17.7953C32.2272 17.4043 32.7901 16.8605 33.2037 16.2088C33.6173 15.557 33.8697 14.8161 33.94 14.0474C34.0087 13.2791 34.2598 12.5382 34.6722 11.8863C35.0847 11.2345 35.6467 10.6904 36.3117 10.2993C36.9766 9.90813 37.7252 9.68126 38.4954 9.63746C39.2655 9.59367 40.035 9.73422 40.74 10.0474L42.34 10.7074L42.44 10.7574" stroke="black" stroke-width="3" stroke-linecap="round" stroke-linejoin="round"/>
<path d="M2 24.2473L2.22 22.4173C2.28874 21.6489 2.53977 20.9081 2.95225 20.2562C3.36472 19.6043 3.92675 19.0602 4.59166 18.6691C5.25657 18.278 6.00518 18.0511 6.77536 18.0073C7.54553 17.9635 8.31504 18.104 9.02 18.4173C9.72562 18.7302 10.4956 18.8705 11.2663 18.8267C12.0369 18.7828 12.7861 18.5561 13.4516 18.1651C14.1172 17.7742 14.6801 17.2303 15.0937 16.5786C15.5073 15.9268 15.7597 15.186 15.83 14.4173C15.8987 13.6489 16.1498 12.9081 16.5622 12.2562C16.9747 11.6043 17.5367 11.0602 18.2017 10.6691C18.8666 10.278 19.6152 10.0511 20.3854 10.0073C21.1555 9.96349 21.925 10.104 22.63 10.4173C23.335 10.7305 24.1045 10.871 24.8746 10.8272C25.6448 10.7835 26.3934 10.5566 27.0583 10.1655C27.7233 9.77433 28.2853 9.23024 28.6978 8.57836C29.1102 7.92648 29.3613 7.18561 29.43 6.41727C29.5003 5.64858 29.7527 4.9077 30.1663 4.25595C30.5799 3.60421 31.1428 3.06036 31.8084 2.66942C32.4739 2.27848 33.2231 2.0517 33.9937 2.00785C34.7644 1.964 35.5344 2.10435 36.24 2.41727L37.83 3.07727L37.93 3.12727" stroke="#19296B" stroke-linecap="round" stroke-linejoin="round"/>
<path d="M6.5 31.8774L6.72 30.0474C6.79032 29.2788 7.04272 28.5379 7.45631 27.8861C7.8699 27.2344 8.43279 26.6905 9.09836 26.2996C9.76394 25.9087 10.5131 25.6819 11.2837 25.638C12.0544 25.5942 12.8244 25.7345 13.53 26.0474C14.235 26.3607 15.0045 26.5012 15.7746 26.4574C16.5448 26.4136 17.2934 26.1867 17.9583 25.7956C18.6233 25.4045 19.1853 24.8604 19.5978 24.2085C20.0102 23.5567 20.2613 22.8158 20.33 22.0474C20.3987 21.2791 20.6498 20.5382 21.0622 19.8863C21.4747 19.2345 22.0367 18.6904 22.7017 18.2993C23.3666 17.9081 24.1152 17.6813 24.8854 17.6375C25.6555 17.5937 26.425 17.7342 27.13 18.0474C27.8356 18.3604 28.6056 18.5007 29.3763 18.4569C30.1469 18.413 30.8961 18.1862 31.5616 17.7953C32.2272 17.4043 32.7901 16.8605 33.2037 16.2088C33.6173 15.557 33.8697 14.8161 33.94 14.0474C34.0087 13.2791 34.2598 12.5382 34.6722 11.8863C35.0847 11.2345 35.6467 10.6904 36.3117 10.2993C36.9766 9.90813 37.7252 9.68126 38.4954 9.63746C39.2655 9.59367 40.035 9.73422 40.74 10.0474L42.34 10.7074L42.44 10.7574" stroke="#19296B" stroke-linecap="round" stroke-linejoin="round"/>
</svg>
