<svg width="28" height="34" viewBox="0 0 28 34" fill="none" xmlns="http://www.w3.org/2000/svg">
<path d="M7.77 7.24L4.73 1L8.68 6.71C11.68 10.82 18.04 13.71 22.68 11.63L27.42 9.5L23.2 12.5C19.09 15.5 18.5 22.5 20.65 27.15L23.65 33.38L19.65 27.68C16.65 23.56 10.29 20.68 5.65 22.76L1 24.93L5.21 21.85C9.33 18.85 9.89 11.87 7.77 7.24Z" fill="#6AFF94"/>
<path d="M7.77 7.24L4.73 1L8.68 6.71C11.68 10.82 18.04 13.71 22.68 11.63L27.42 9.5L23.2 12.5C19.09 15.5 18.5 22.5 20.65 27.15L23.65 33.38L19.65 27.68C16.65 23.56 10.29 20.68 5.65 22.76L1 24.93L5.21 21.85C9.33 18.85 9.89 11.87 7.77 7.24Z" stroke="#19296B" stroke-linecap="round" stroke-linejoin="round"/>
</svg>
