<svg width="17" height="20" viewBox="0 0 17 20" fill="none" xmlns="http://www.w3.org/2000/svg">
<path d="M4.84288 4.54204L3.11728 1L5.35943 4.24119C7.06234 6.57417 10.6725 8.21463 13.3063 7.03395L15.9969 5.82489L13.6015 7.52779C11.2685 9.2307 10.9336 13.2041 12.154 15.8436L13.8569 19.38L11.5864 16.1445C9.88348 13.8058 6.27332 12.171 3.6395 13.3517L1 14.5835L3.38974 12.8352C5.72839 11.1323 6.04627 7.17019 4.84288 4.54204Z" fill="#FF9C07"/>
<path d="M4.84288 4.54204L3.11728 1L5.35943 4.24119C7.06233 6.57417 10.6725 8.21463 13.3063 7.03395L15.9969 5.82489L13.6015 7.52779C11.2685 9.2307 10.9336 13.2041 12.154 15.8436L13.8569 19.38L11.5864 16.1445C9.88348 13.8058 6.27332 12.171 3.6395 13.3517L1 14.5835L3.38974 12.8352C5.72839 11.1323 6.04627 7.17019 4.84288 4.54204Z" stroke="black" stroke-linecap="round" stroke-linejoin="round"/>
</svg>
